<?xml version="1.0" encoding="UTF-8"?>
<svg id="_レイヤー_2" data-name="レイヤー 2" xmlns="http://www.w3.org/2000/svg" viewBox="0 0 883.02 164.45">
  <g id="_デザイン" data-name="デザイン">
    <g opacity=".3">
      <path d="m55.49,118.26C20.15,118.26,0,92.22,0,62.31,0,30.69,23.87,5.11,55.96,5.11s54.87,25.57,54.87,57.19-19.68,55.95-55.33,55.95Zm-.46-108.19c-28.98,0-40.77,26.19-40.77,49.29,0,9.3,2.95,54.09,42.31,54.09,30.07,0,40.15-25.26,40.15-49.29,0-27.12-12.87-54.09-41.69-54.09Z" fill="#878787"/>
      <path d="m173.6,118.26c-.15.16-.31.31-.62.31-1.4,0-4.03-6.04-4.65-10.39-.15-.77-.46-1.08-.77-1.08s-.62.16-1.08.62c-5.43,6.04-10.69,10.69-18.75,10.69-12.86,0-19.99-7.75-20.77-19.06-.31-3.57-.46-7.59-.46-11.62,0-5.27.16-10.39.31-13.95,0-1.4.15-2.64.15-3.88,0-4.8-1.08-7.9-7.44-8.99-.47-.15-.78-.93-.78-1.7s.16-1.4.78-1.55c4.96-.93,11.93-3.1,15.5-4.96.31-.16.62-.31,1.08-.31.62,0,1.39.47,1.39,1.4v1.24c0,3.72-.46,10.07-.62,19.22,0,1.7-.15,5.73-.15,9.92,0,13.02,0,26.81,14.41,26.81,9.61,0,16.12-7.75,16.28-13.64.15-2.32.31-9.15.31-16.12,0-17.82-1.24-19.06-8.99-20.3-.46,0-.62-.77-.62-1.39,0-.93.31-1.71.77-1.86,4.96-.62,13.64-3.41,17.21-5.11h.16c.46,0,1.86.78,1.86,1.71-.31,4.34-.77,25.57-.77,34.25,0,15.66,1.39,20.46,8.99,20.46,1.08,0,2.17-.16,3.26-.31h.15c.78,0,1.24.77,1.24,1.55,0,.93-.46,1.86-1.39,2.17-5.89,1.4-13.02,3.88-15.97,5.89Z" fill="#878787"/>
      <path d="m238.23,57.5c0,3.41-4.03,7.75-7.75,7.75-.78,0-1.55-.16-2.17-.47-2.48-1.24-4.65-1.7-6.51-1.7-6.35,0-8.99,6.04-9.3,9.92-.15,1.7-.15,4.49-.15,7.44,0,5.73.15,12.4.15,13.79,0,14.57.31,16.43,12.25,17.98.78.62.93,1.4.93,2.17,0,.93-.46,1.71-1.24,1.71-.16,0-9.46-.77-18.75-.77-4.65,0-9.3.15-12.87.77h-.16c-.77,0-1.39-.62-1.39-1.55,0-.62.46-1.4,1.24-2.17,9.77-.77,10.07-5.89,10.07-17.67v-18.75c-.15-7.9-.15-13.64-7.28-15.19-.62-.16-.93-.78-.93-1.4,0-.47.31-1.08.93-1.24,6.35-1.4,12.71-4.96,14.88-5.89.93.15,1.86.93,1.86,2.48l-.46,7.9v.31s0,.62.93.62c5.58-5.73,13.49-10.23,19.38-10.23,4.65,0,6.35,1.86,6.35,4.18Z" fill="#878787"/>
      <path d="m363.62,115.32c-4.96,0-9.92.31-13.79.93h-.31c-.93,0-1.55-.93-1.55-2.01,0-.93.46-2.17,1.55-2.79,5.89-.78,10.23-1.55,10.23-6.35,0-3.72-7.13-25.11-9.61-32.08-.16-.62-.93-1.55-16.43-1.55-5.58,0-11.31.16-16.12.47-.93,0-3.1.46-3.88,3.1-2.17,7.59-6.82,21.54-7.75,25.88-.31,1.24-.31,2.32-.31,3.41,0,5.42,3.88,6.04,11.16,7.28,1.08.77,1.55,1.86,1.55,2.79,0,1.08-.78,1.86-1.86,1.86-.15,0-9.92-.93-19.53-.93-4.81,0-9.77.15-13.33.93h-.16c-.77,0-1.24-.93-1.24-2.01,0-.93.31-2.02,1.24-2.79,11.78-1.71,13.48-6.35,26.97-46.5,5.42-16.12,11.31-34.25,17.36-49.13v-.31c0-.77-.31-2.32-.62-2.79,0,0-.16-.31-.16-.62,0-.62.16-1.4.77-1.71,2.94-1.7,5.11-3.1,7.13-6.2.62-.93,1.39-1.4,2.01-1.4.78,0,1.39.47,1.55,1.86,1.4,8.06,6.67,23.56,33.17,95.01,2.48,6.67,5.12,10.39,13.02,11.62,1.08.47,1.4,1.55,1.4,2.48,0,1.4-.62,2.64-1.24,2.64,0,0-10.7-1.08-21.23-1.08Zm-32.08-92.84c-1.55,0-14.57,40.61-14.57,41.54,0,.62,1.24.77,1.55.93,1.4.16,6.2.16,11.47.16,14.88,0,17.05,0,17.05-1.24,0-2.01-14.88-41.38-15.5-41.38Z" fill="#878787"/>
      <path d="m438.8,118.73c-.62.47-.93.62-1.24.62-.78,0-3.72-5.42-4.5-8.52-.15-.31-.46-.46-.77-.46-.16,0-.31,0-.47.15-2.01,2.17-8.37,7.44-18.13,7.44-4.65,0-29.14-1.24-29.14-31.46,0-17.67,11.16-32.86,31.78-32.86,5.27,0,9.14,1.71,15.03,2.95h.31c.77,0,1.39-1.4,1.39-2.48v-2.48c0-4.49.16-11.31.16-17.51s-.16-11.31-.62-14.41c-1.24-8.99-1.55-8.52-8.52-9.92-.78-.16-1.24-1.4-1.24-2.32,0-.47.16-.93.46-.93,7.44-1.24,15.19-4.65,19.06-6.51h.31c.77,0,1.86.62,1.86,2.01-.46,9.92-1.55,55.18-1.55,79.36,0,4.8,0,9.45.16,14.26.16,8.37,3.72,13.33,9.61,13.33,1.24,0,2.48-.31,3.72-.62h.15c.62,0,1.09,1.24,1.09,2.32,0,.62-.16,1.24-.62,1.4-5.27,1.24-14.73,4.34-18.29,6.67Zm-23.71-60.45c-18.29,0-19.84,17.51-19.84,24.02,0,15.96,9.14,28.21,22.63,28.21,11.16,0,14.26-6.97,14.72-11,.46-2.94.62-9.14.62-14.41,0-2.64-.16-5.11-.16-6.82-.46-13.48-8.21-19.99-17.98-19.99Z" fill="#878787"/>
      <path d="m512.42,64.94c-3.1,5.74-18.13,43.24-21.24,52.85-.62,1.7-1.86,2.63-3.1,2.63-1.08,0-2.33-.77-2.79-2.48-.78-2.63-2.79-8.83-5.58-15.81-16.12-40.3-17.05-41.38-24.8-42.62-.78-.62-1.08-1.55-1.08-2.48s.46-1.71,1.71-1.71c0,0,7.59.77,16.12.77,4.18,0,8.68-.16,12.4-.77h.46c.93,0,1.4.62,1.4,1.4,0,.93-.62,2.17-1.4,2.95-4.18.31-8.68.31-8.68,4.18,0,.78.31,1.71.62,2.79,3.72,9.92,9.46,22.01,13.95,34.1.31.93.77,1.24,1.08,1.24,1.39,0,14.26-33.48,14.26-38.13,0-3.56-6.04-4.03-8.99-4.34-.93-.62-1.55-1.71-1.55-2.64,0-.78.62-1.55,2.01-1.55.16,0,6.36.77,13.33.77,3.41,0,6.97-.16,9.92-.77h.46c1.08,0,1.55.77,1.55,1.86,0,.93-.46,2.01-1.24,2.32-3.72.62-7.13,2.48-8.83,5.42Z" fill="#878787"/>
      <path d="m568.69,118.42c-4.49,0-8.37-2.01-10.23-8.37-.46-1.4-.46-2.32-.78-2.32-.15,0-.31.16-.46.46-2.63,3.26-10.85,10.85-20.77,10.85s-14.1-7.75-14.1-13.02c0-5.89,5.11-11.47,11-14.1,11.62-5.11,19.53-6.35,24.02-9.77.31-.15.78,0,.93-1.24,0-.77.16-3.56.46-7.13,0-2.32,0-15.5-10.85-15.5-5.27,0-8.21,4.49-8.37,6.35-.15,2.94-.31,5.73-6.04,8.37-.93.46-2.01.62-2.94.62-2.17,0-3.88-1.24-3.88-3.25,0-4.5,10.23-17.05,25.57-17.05,11.16,0,17.36,5.11,17.36,17.05v2.17c-.78,9.15-1.4,21.54-1.4,24.95,0,6.67,2.63,12.55,6.04,12.55,2.33,0,6.51-2.48,6.67-2.64s.31-.16.62-.16c.93,0,2.01,1.86,2.01,2.95,0,0-4.34,8.21-14.88,8.21Zm-10.54-29.29c0-1.24-.16-1.86-.78-1.86s-15.96,6.82-17.67,7.75c-3.41,2.01-4.34,4.34-4.34,7.28,0,2.02,2.01,9.92,8.83,9.92,5.42,0,13.95-8.68,13.95-13.79v-.31c-.16-1.08-.16-2.17-.16-3.25,0-1.55,0-2.94.16-4.34v-1.4Z" fill="#878787"/>
      <path d="m656.41,114.7c0,.93-.46,1.55-1.39,1.55-.16,0-9.61-.78-18.45-.78-4.5,0-8.83.16-11.62.78h-.31c-.93,0-1.24-.62-1.24-1.4s.46-1.86,1.24-2.48c10.07-.77,10.38-4.49,10.38-24.18,0-4.18,0-10.23-.16-12.55-.62-11.47-8.37-15.03-14.42-15.03-11.16,0-16.74,7.44-17.2,11.78-.31,3.72-.47,6.67-.47,20.3.16,3.72,0,8.52.62,12.71.62,4.65,3.57,6.97,10.38,6.97.62.62.93,1.4.93,2.17,0,.93-.46,1.71-1.24,1.71,0,0-9.14-.62-17.98-.62-4.5,0-8.83.16-12.09.62h-.16c-.62,0-1.08-.62-1.08-1.55,0-.77.31-1.55,1.08-2.32,8.99-1.24,9.14-2.64,9.76-20.77v-15.34c0-8.99,0-13.17-6.97-14.57-.78-.16-1.24-.93-1.24-1.71s.46-1.55,1.08-1.7c6.2-1.08,11.47-4.19,15.04-5.89.31-.15.46-.15.62-.15.62,0,.93.62.93,2.01,0,1.7-.16,5.11-.16,7.75v1.86c0,.31.16.62.46.62.16,0,.31-.16.47-.31,8.37-9.76,16.12-10.7,20.77-10.7,11.47,0,20.77,6.51,21.23,19.99v19.22c0,15.03.46,18.75,10.08,19.68.78.62,1.08,1.55,1.08,2.32Z" fill="#878787"/>
      <path d="m684.62,118.26c-9.76,0-16.58-5.73-17.2-15.5-.31-4.5-.47-9.92-.47-15.19,0-8.37.31-16.89.62-22.78v-.62c0-1.4-.31-1.4-.77-1.4h-1.4c-2.01,0-5.12.62-6.67.77-.93,0-1.39-1.24-1.39-2.48,0-1.08.31-2.32,1.08-2.48,6.2-1.86,13.79-7.44,16.58-15.5.46-1.4,1.71-2.02,2.63-2.02,1.24,0,2.17.62,2.17,1.71,0,4.03-.62,9.76-.62,10.69,0,1.55.31,2.17,1.4,2.17.93,0,12.71-.78,19.06-2.17h.46c1.4,0,1.55,1.55,1.55,2.64,0,2.17-.77,4.65-1.39,4.65-9.3.15-18.75,1.24-20,1.24-1.86,0-1.55.77-1.71,1.7-.46,4.65-.77,12.24-.77,19.53,0,17.98.77,27.12,11.16,27.12,3.57,0,7.13-.93,11.94-2.48h.15c.62,0,1.86,1.55,1.86,2.63s-7.91,7.75-18.29,7.75Z" fill="#878787"/>
      <path d="m749.88,118.42c-4.49,0-8.37-2.01-10.23-8.37-.46-1.4-.46-2.32-.78-2.32-.15,0-.31.16-.46.46-2.63,3.26-10.85,10.85-20.77,10.85s-14.1-7.75-14.1-13.02c0-5.89,5.11-11.47,11-14.1,11.62-5.11,19.53-6.35,24.02-9.77.31-.15.78,0,.93-1.24,0-.77.16-3.56.46-7.13,0-2.32,0-15.5-10.85-15.5-5.27,0-8.21,4.49-8.37,6.35-.15,2.94-.31,5.73-6.04,8.37-.93.46-2.01.62-2.94.62-2.17,0-3.88-1.24-3.88-3.25,0-4.5,10.23-17.05,25.57-17.05,11.16,0,17.36,5.11,17.36,17.05v2.17c-.78,9.15-1.4,21.54-1.4,24.95,0,6.67,2.63,12.55,6.04,12.55,2.33,0,6.51-2.48,6.67-2.64s.31-.16.62-.16c.93,0,2.01,1.86,2.01,2.95,0,0-4.34,8.21-14.88,8.21Zm-10.54-29.29c0-1.24-.16-1.86-.78-1.86s-15.96,6.82-17.67,7.75c-3.41,2.01-4.34,4.34-4.34,7.28,0,2.02,2.01,9.92,8.83,9.92,5.42,0,13.95-8.68,13.95-13.79v-.31c-.16-1.08-.16-2.17-.16-3.25,0-1.55,0-2.94.16-4.34v-1.4Z" fill="#878787"/>
      <path d="m832.18,60.76c0,2.32-1.24,5.73-3.25,5.73h-.16c-5.58-.47-7.91-.62-9.3-.62-.16,0-3.88,0-3.88.78,0,0,0,.16.16.31,1.55,3.41,2.01,4.49,2.01,8.21,0,12.55-5.89,23.25-24.02,23.87-12.87.62-14.73,8.21-15.04,9.3v.93c0,4.03,4.03,6.04,13.48,6.04,1.24,0,2.48-.16,3.88-.16,4.96-.16,12.4-.78,16.74-.78,11.32.16,18.75,6.98,18.75,16.74,0,17.36-19.22,33.32-40.14,33.32-15.96,0-29.45-9.61-29.45-16.27,0-1.55,1.71-3.25,3.1-4.96,2.17-2.32,9.46-12.71,15.34-18.91l.16-.15c0-.47-.93-.78-1.4-.78-7.29-.62-13.79-7.44-13.79-11,0-2.79.46-3.1,1.86-3.72.46-.16,15.03-9.92,15.03-10.54,0-.15-.15-.31-.46-.46-8.52-2.48-14.57-11.16-14.57-20.3,0-16.27,12.71-24.49,25.11-24.49,5.89,0,11.78,1.24,16.43,4.49.62.47,3.41,2.33,4.96,2.33,4.34-.16,7.6-1.24,11.78-1.4h1.39c3.88,0,5.27,0,5.27,2.48Zm-8.53,73.47c0-8.68-9.92-9.76-16.89-9.76-4.03,0-8.83.31-14.42.62-3.72.16-6.35.62-8.99,3.1-4.34,3.88-7.29,12.86-7.29,17.2,0,9.61,16.27,10.85,21.54,10.85,19.84,0,26.04-14.72,26.04-22.01Zm-31.77-77.81c-7.59,0-13.48,6.97-13.48,17.82,0,12.71,6.2,21.39,15.5,21.39,10.08,0,13.33-10.38,13.33-17.67,0-9.15-4.18-21.54-15.34-21.54Z" fill="#878787"/>
      <path d="m859.92,118.57c-15.5,0-29.6-11.16-29.6-31.93,0-15.96,11.78-33.48,30.53-33.48,17.21,0,21.39,13.48,21.39,16.27,0,2.17-1.86,6.66-10.54,7.13-7.6.31-19.07.47-26.35.47-3.25,0-4.49.93-4.49,6.82,0,14.1,8.37,27.43,23.4,27.43,8.99,0,13.02-3.88,15.19-5.89.31-.31.62-.47,1.08-.47,1.24,0,2.48,1.55,2.48,2.79,0,1.4-6.51,10.85-23.09,10.85Zm-1.55-61.22c-12.87,0-16.58,13.79-16.58,15.81,0,.46.16.77.46.77h.31c5.12-1.86,15.35-2.79,23.41-3.56,1.39-.16,4.65-.77,4.65-3.41-.16-3.57-3.88-9.61-12.25-9.61Z" fill="#878787"/>
    </g>
  </g>
</svg>