<?xml version="1.0" encoding="UTF-8"?>
<svg id="_レイヤー_2" data-name="レイヤー 2" xmlns="http://www.w3.org/2000/svg" viewBox="0 0 518.77 102.99">
  <g id="_デザイン" data-name="デザイン">
    <g>
      <g>
        <path d="m236.04,100.5h-52.01v-3.54c7.6-16.24,17.82-27.12,29.61-39.17,8.25-8.38,17.82-18.86,17.82-33.27,0-6.81-2.36-18.08-17.29-18.08-11.4,0-16.9,6.16-16.9,10.35,0,1.31.66,3.01,1.18,3.93,1.57,3.54,1.57,4.98,1.57,6.03,0,4.58-2.88,6.68-6.42,6.68-4.58,0-6.03-3.27-6.03-7.34,0-11.92,11.13-23.58,28.43-23.58,15.59,0,25.54,9.43,25.54,24.23,0,8.78-3.14,14.02-9.69,21.48-3.14,3.67-19.26,17.68-22.4,20.7-1.7,1.7-11.4,11.53-17.55,22.79h26.2c15.46,0,19.52-11.27,21.88-17.68l2.49.65-6.42,25.81Z" fill="#003383"/>
        <path d="m283.6,94.21c0,2.49-.13,8.78-7.07,8.78-3.01,0-6.42-1.05-6.42-8.25,0-15.98,20.3-52.14,36.81-81.35h-30.13c-11.79,0-15.46,9.56-18.6,18.73l-2.75-.39,5.63-26.85h52.53v4.45c-16.64,28.16-29.74,52.66-30,84.89Z" fill="#003383"/>
        <path d="m351.72,94.21c0,2.49-.13,8.78-7.07,8.78-3.01,0-6.42-1.05-6.42-8.25,0-15.98,20.3-52.14,36.81-81.35h-30.13c-11.79,0-15.46,9.56-18.6,18.73l-2.75-.39,5.63-26.85h52.53v4.45c-16.64,28.16-29.74,52.66-30,84.89Z" fill="#003383"/>
        <path d="m373.2,102.4c-3.1,0-5.1-2.4-5.1-5.1,0-2.5,1.9-5,5.1-5s5,2.6,5,5c0,2.6-2,5.1-5,5.1Z" fill="#003383"/>
        <path d="m410.6,102.4c-10.6,0-21.7-5.7-21.7-18.1,0-10.1,7.5-14.9,18.1-20.8-5.6-2.8-15.4-7.8-15.4-19,0-10.5,9.3-18.8,20.4-18.8,10,0,18.2,6.6,18.2,15.9s-7.9,15-12.6,18.3c6.1,3.4,16.3,8.9,16.3,21.1s-9,21.4-23.3,21.4Zm-1-37.7c-5.5,3.8-13.3,9.2-13.3,19.3s6.6,15.3,15.1,15.3,16.6-5.5,16.6-15.9c0-9.4-7.6-13.5-18.4-18.7Zm1.6-36c-6,0-13.8,4.2-13.8,13.1,0,4.9,2.2,7.6,5.8,10.3,3,2.3,7.2,4.6,11.6,6.4,2.8-2.1,9.7-7.3,9.7-15.8,0-6.5-4.5-14-13.3-14Z" fill="#003383"/>
      </g>
      <g>
        <path d="m454.94,68.11c-.56.84-2.6,4.84-3.04,5.64l1.32.72c.28.16.52.28.52.6,0,.4-.64.88-1.24,1.32-.08,2.4-.12,3.68-.08,19.68,0,1.48.04,3.64.04,4.04,0,.68-1.2,1.2-1.84,1.2-.72,0-.72-.48-.72-.8,0-.44.36-7,.36-7.68,0-.52.08-1.36.08-7,0-2.88.08-8.6.12-9.24-1.2,2.2-2.8,4.72-6,8.28l-.28-.24c2.84-4.4,5.6-10.4,7.2-14.36,1.52-3.72,1.48-4.4,1.44-5.2l3.04,1.56c.2.12.48.24.48.48,0,.76-1,.92-1.4,1Zm2.88,29.56c-.4,1.28-1.28,2.28-2.48,2.28-.88,0-1.12-.72-1.12-1.12,0-.6.16-.72,1.08-1.44,1.84-1.48,2.28-3.04,2.52-3.96h.32c.12,1.4.12,2.84-.32,4.24Zm22.48-20.12h-19.72c-1.24,0-3.48.16-5.12.48l-.96-1.72c2.2.16,4.44.28,6.64.28h.6c-.52-.36-.6-.96-.72-1.76-.24-1.48-1.16-2.68-1.48-2.96-1.08.04-2.16.16-3.2.4l-.96-1.76c2.24.2,4.44.32,6.68.32h3.4c0-1.76-.12-3.64-.6-5.28l3.24.72c.56.12.84.16.84.56,0,.48-.4.72-1.36,1.28-.04,1.12-.04,1.28-.04,2.72h7.12l1.28-1.28c.24-.24.44-.48.64-.48.24,0,.56.24.76.4l1.56,1.28c.24.2.44.32.44.6,0,.36-.36.44-.6.44h-7.44l1.36.72c.24.12.4.2.4.48,0,.52-.44.6-1.36.84-.8,1-.92,1.16-2.08,2.76h6.28l1.44-1.36c.24-.24.48-.48.68-.48.24,0,.52.28.76.44l1.72,1.32c.24.2.4.36.4.64,0,.36-.32.4-.6.4Zm-5.12,5.08c0,1.68,0,2.6.04,3.2q.12,3.72.12,4.24c0,.44,0,.76-.6,1.12-.4.24-.76.24-.84.24-.8,0-.76-.6-.72-1.28h-12.56c-.04.56-.04,1.6-1.56,1.6-.6,0-.72-.32-.72-.6,0-.12.16-2.2.16-2.6.04-.72.04-2.04.04-3.28,0-4.2-.12-4.68-.4-5.76l2.8,1.04h11.96l.56-.68c.2-.28.4-.4.68-.4s.52.12.76.32l1.16.92c.16.12.44.32.44.6,0,.44-.44.72-1.32,1.32Zm-13.68-10.84h-1.04c2.2,1.04,3.12,2.76,3.12,3.6,0,.76-.56,1.08-.72,1.2h5.88c.12-.4.88-2.96,1.04-4.8h-8.28Zm11.72,9.72h-12.6v3.36h12.6v-3.36Zm0,4.32h-12.6v3.36h12.6v-3.36Zm-.76,13.72c-1.16.2-4.32.4-6.36.4-3.88,0-4.96-.12-4.96-2.32,0-1.92,0-4.68-.12-5.72l2.76.88c.44.12.48.28.48.48,0,.36-.36.64-1,1.04v2.88c0,.56.24.92,3.52.92,1.12,0,4.16-.08,4.88-.8.64-.64.96-2.36,1.2-3.6h.36c.08.8.28,2.56,1.04,3.2.52.4.6.44.6.68,0,.12-.12,1.52-2.4,1.96Zm-4.04-3.88c-.84,0-.96-.4-1.56-1.88-.8-1.92-1.52-2.36-1.88-2.6l.16-.28c1.44.28,4.52,1.68,4.52,3.52,0,.72-.52,1.24-1.24,1.24Zm11.4,3.48c-.96,0-1.2-.64-1.72-1.92-.56-1.4-1.56-3.52-3.2-4.68l.2-.24c1.6.56,3.04,1.2,4.16,2.2,1.72,1.56,1.92,2.96,1.92,3.32,0,.84-.68,1.32-1.36,1.32Z" fill="#003383"/>
        <path d="m517.22,70.38c-.08,2.56-.12,5.16-.12,7.72,0,5,.28,13,.28,18,0,2.24-.48,2.88-.88,3.28-.12.16-1.36,1.48-3.92,1.68-.08-1.28-.12-1.88-3.8-3.68v-.32c1.4.16,3.12.32,4.52.32s1.56-.28,1.56-1.92c0-1.36-.04-7.32-.04-8.52v-2.08h-24.12c0,3.96.2,10.2.2,14.12,0,.4,0,2-1.84,2-.56,0-.92-.24-.92-1.08,0-1.16.2-6.36.2-7.44.12-5.76.2-11.96.2-17.24,0-2.6,0-6.84-.28-9.2l4,2.16h22.08l1.24-1.28s.24-.24.48-.24.48.2.6.32l1.92,1.68s.2.2.2.44c0,.52-.56.8-1.56,1.28Zm-15.6-1.24h-10.92v14.72h10.92v-14.72Zm13.2,0h-11v14.72h11v-14.72Z" fill="#003383"/>
      </g>
      <path d="m153.94,85.94c-1.04,0-1.28-.92-1.48-1.56-.2-.72-.36-1.04-.48-1.36-1.12.28-2.32.52-4.2.88,0,9.52.04,10.56.08,12.68,0,.52.2,2.8.2,3.2,0,1.04-1.24,1.6-1.68,1.6-.68,0-.8-.6-.8-1.2,0-.4.2-2.08.2-2.44.2-4.48.16-11.72.12-13.48-4.08.8-4.56.92-5.44,1.08-.04.2-.4,1.12-.8,1.12-.08,0-.52,0-.68-.56l-.8-3.04c1.08.28,1.64.28,2.72.28.92,0,2.24-.04,3.68-.12,1.04-1.4,6.12-8.44,6.08-11.96l3.32,1.56c.2.12.32.32.32.6s-.08.6-1.6.84c-2.32,3.36-5.6,7.16-7.24,8.92,2.08-.12,4.16-.24,6.24-.52-.56-1-1.08-1.72-1.64-2.4l.24-.24c1.68.92,4.96,2.68,4.96,4.64,0,.8-.48,1.48-1.32,1.48Zm-10.6,4.12c-1.4,3.96-2.6,6.24-4.96,8.96l-.2-.12c1.64-3.24,3.2-9.16,3.08-11.16l3,1.08c.28.08.48.2.48.4,0,.24-.28.44-1.4.84Zm5-22.04c-1.08,1.52-1.44,2-4.72,6.08,1.4.88,2.12,2.04,2.12,2.96,0,.72-.4,1.76-1.32,1.76-.76,0-1-.52-1.84-2.44-.88-2-1.8-2.84-2.56-3.56v-.2c1.84.56,2.48.88,3.12,1.16,1.04-2,2.96-5.68,2.96-8,0-.32-.04-.64-.08-.92l3.52,1.72c.16.08.32.2.32.52,0,.56-.24.72-1.52.92Zm4.84,26.92c-.88,0-1-.52-1.48-2.24-.6-2.28-.96-2.8-2.24-4.48l.08-.12c3.64,1.8,5.16,3.8,5.16,5.08,0,.96-.64,1.76-1.52,1.76Zm19.68-18.44c-.68.36-.84.48-1.16.72.08,5.64.04,15.12-2.28,19.96-1.28,2.68-3.28,3.92-6.04,4.2-.16-.88-.44-2-3.8-4v-.16c.8.12,4.44.76,5.2.76,1.12,0,1.88-.4,2.68-2.12,2.16-4.6,2.16-13.24,2.16-16.12,0-1.72-.04-2.96-.08-3.84h-11.64c-.6,1.12-2.16,4.24-3.6,5.84l-.28-.16c2.08-4.16,4.56-11.64,4.56-14.84,0-.84-.08-1.04-.16-1.36l3.92,1.56c.12.04.28.24.28.4,0,.32-.08.48-.16.6-.12.08-1.2.6-1.4.76-.72,1.92-1.36,3.52-2.68,6.24h10.76l.92-1c.32-.32.4-.44.56-.44.08,0,.24.12.52.32l1.92,1.76c.12.12.24.36.24.48,0,.2-.2.28-.44.44Zm-11.08,12.8c-1.08,0-1.32-.76-1.92-2.68-.68-2.2-1.64-3.16-2.12-3.64l.16-.24c3.04,1.4,5.2,2.64,5.2,4.8,0,.24,0,1.76-1.32,1.76Z" fill="#003383"/>
    </g>
    <g>
      <g>
        <path d="m58,77.5c-21.23,0-38.5-17.27-38.5-38.5S36.77.5,58,.5s38.5,17.27,38.5,38.5-17.27,38.5-38.5,38.5Zm-.5-73c-19.3,0-35,15.7-35,35s15.7,35,35,35,35-15.7,35-35S76.8,4.5,57.5,4.5Z" fill="#003383" stroke="#003383" stroke-miterlimit="10"/>
        <path d="m110.29,98.5c-1.85,0-3.7-.7-5.1-2.11h0l-26.18-26.18c-.67-.66-.67-1.74,0-2.41l7.8-7.8c.66-.67,1.74-.67,2.41,0l26.18,26.18c2.81,2.81,2.81,7.39,0,10.21-1.41,1.41-3.26,2.11-5.1,2.11Zm-3.19-4.1c1.46,1.46,3.85,1.46,5.31,0,1.46-1.46,1.46-3.85,0-5.31l-24.6-24.59-5.31,5.31,24.59,24.59h0Z" fill="#003383" stroke="#003383" stroke-miterlimit="10"/>
      </g>
      <g>
        <path d="m71.78,45.5c-.95,0-1.72-.77-1.72-1.72v-10.85h-10.85c-.95,0-1.72-.77-1.72-1.72s.77-1.72,1.72-1.72h12.56c.95,0,1.72.77,1.72,1.72v12.56c0,.95-.77,1.72-1.72,1.72Z" fill="#003383" stroke="#003383" stroke-miterlimit="10"/>
        <path d="m2.2,72.5c-.43,0-.87-.17-1.2-.5-.66-.67-.66-1.76,0-2.43l27.61-28.02c.66-.67,1.74-.67,2.4,0l13.62,13.82,24.99-25.36c.66-.67,1.74-.67,2.4,0,.66.67.66,1.76,0,2.43l-26.19,26.58c-.66.67-1.74.67-2.4,0l-13.62-13.82L3.39,72c-.33.34-.77.5-1.2.5Z" fill="#003383" stroke="#003383" stroke-miterlimit="10"/>
      </g>
    </g>
  </g>
</svg>