<?xml version="1.0" encoding="UTF-8"?>
<svg id="_レイヤー_2" data-name="レイヤー 2" xmlns="http://www.w3.org/2000/svg" viewBox="0 0 900 408">
  <g id="_デザイン" data-name="デザイン">
    <g>
      <g opacity=".75">
        <rect y="0" width="900" height="408" rx="9.99" ry="9.99" fill="#fff"/>
      </g>
      <rect x="381.08" y="65" width="53.41" height="24.54" rx="12.27" ry="12.27" fill="#6287a6"/>
      <rect x="438.84" y="65" width="53.41" height="24.54" rx="12.27" ry="12.27" fill="#6287a6"/>
      <rect x="182.77" y="65" width="53.41" height="24.54" rx="12.27" ry="12.27" fill="#6287a6"/>
      <path d="m389.03,338.41h-212.72c-2.76,0-5-2.24-5-5v-23.38" fill="none" stroke="#af3836" stroke-miterlimit="10"/>
      <polygon points="162.63 313.97 171.32 311.01 180 313.97 171.32 300.08 162.63 313.97" fill="#af3836"/>
      <polygon points="387.28 313.97 395.97 311.01 404.65 313.97 395.97 300.08 387.28 313.97" fill="#af3836"/>
      <path d="m395.97,309.49v23.92c0,2.76,2.24,5,5,5h268.91c2.76,0,5-2.24,5-5v-33.33" fill="none" stroke="#af3836" stroke-miterlimit="10"/>
      <rect x="528.29" y="243.28" width="293.17" height="45.53" fill="#af3836"/>
      <rect x="78.99" y="243.28" width="184.65" height="45.53" fill="#6287a6"/>
      <rect x="303.64" y="243.28" width="184.65" height="45.53" fill="#6287a6"/>
      <path d="m639.47,132.55h22.62c2.39,0,4.35,1.96,4.35,4.35v77.8c0,2.39-1.96,4.35-4.35,4.35h-129.46c-2.39,0-4.35-1.96-4.35-4.35v-77.8c0-2.39,1.96-4.35,4.35-4.35h23.28" fill="none" stroke="#c34141" stroke-miterlimit="10" stroke-width=".87"/>
      <g>
        <path d="m312.54,71.65c.2-.22.25-.2.42-.11,1.32.73,2.63,1.74,3.89,2.91.14.14.14.17-.11.48l-.56.73c-.22.31-.28.34-.45.17-1.12-1.18-2.46-2.27-3.78-3.05-.17-.11-.14-.17.06-.45l.53-.67Zm2.3,15.54c-.31.59-.53.95-.59,1.2-.06.2-.14.28-.28.28-.08,0-.2-.03-.39-.17-.48-.34-.78-.56-1.26-.98.56-.62,1.01-1.23,1.57-2.21.67-1.29,1.71-3.44,2.8-6.24.22.25.56.59.84.84q.45.36.28.87c-.95,2.35-1.96,4.51-2.97,6.41Zm-.92-22.46c.2-.22.28-.25.48-.14,1.29.84,2.6,1.93,3.72,3.08.17.17.14.2-.11.5l-.53.73c-.22.31-.28.31-.42.17-1.15-1.2-2.52-2.41-3.75-3.25-.2-.14-.17-.17.08-.45l.53-.64Zm8.96,13.22c-.06.25-.11.7-.11,1.34-.06,3.44-.73,7.06-4.7,9.38-.22.14-.34.22-.45.22s-.22-.11-.42-.31c-.31-.31-.62-.56-1.04-.76,3.86-1.82,4.96-4.73,4.98-8.54,0-.9-.03-1.54-.14-2.32.59.03,1.15.06,1.57.14.28.06.48.11.48.28s-.14.36-.17.56Zm13.47-9.18c0,.2-.03.22-.22.22-.14,0-1.09-.06-3.92-.06h-5.43c-.64,1.68-1.34,3.25-2.16,4.76,2.74-.22,5.38-.5,7.59-.81-.56-.59-1.12-1.15-1.76-1.74-.17-.17-.11-.22.14-.42l.64-.48c.2-.17.28-.14.45,0,1.74,1.51,3.14,3.05,4.56,4.98.14.2.11.22-.14.45l-.73.59c-.28.22-.39.22-.53.03-.5-.76-1.01-1.48-1.57-2.16-3.81.56-8.04,1.01-12.07,1.34-.78.06-1.04.17-1.2.25-.11.06-.22.11-.36.11-.11,0-.2-.11-.28-.31-.14-.5-.28-1.09-.36-1.62,1.01.06,1.96.03,2.8-.03l1.04-.06c.92-1.76,1.6-3.42,2.13-4.9h-1.57c-2.83,0-3.75.06-3.92.06-.2,0-.22-.03-.22-.22v-1.15c0-.2.03-.22.22-.22.17,0,1.09.06,3.92.06h3.02v-.92c0-1.01-.03-1.74-.2-2.55.7.03,1.26.08,1.88.17.22.03.34.14.34.25,0,.2-.08.34-.17.53-.11.28-.14.53-.14,1.57v.95h4.09c2.83,0,3.78-.06,3.92-.06.2,0,.22.03.22.22v1.15Zm-10.47,11.9c0-1.76-.03-2.69-.2-3.67.56.03,1.26.08,1.74.17.2.03.34.11.34.28,0,.14-.08.28-.14.53-.08.31-.17,1.01-.17,2.66v3.64c0,2.44.06,3.28.06,3.44,0,.2-.03.22-.22.22h-1.23c-.2,0-.22-.03-.22-.22,0-.17.06-1.01.06-3.44v-3.61Zm6.66,5.49c0,.48.06.64.28.78.22.11.53.17,1.09.17.76,0,1.23-.11,1.48-.5.31-.45.39-1.18.45-3,.22.2.53.36.95.53.45.17.48.22.45.73-.11,1.76-.36,2.52-.78,2.97-.45.45-1.09.78-2.69.78-1.09,0-1.57-.06-2.04-.28-.48-.22-.78-.64-.78-1.68v-6.78c0-1.51-.03-2.35-.17-3.08.64.03,1.15.06,1.71.14.25.03.36.14.36.25,0,.22-.08.34-.17.56-.11.28-.14.48-.14,2.3v6.1Z" fill="#af3836"/>
        <path d="m349.47,83.35c.56,1.37,1.18,2.1,2.46,2.69.98.48,2.94.76,5.6.76,3.58,0,7.87-.2,12.01-.64-.28.34-.42.84-.53,1.34q-.08.56-.64.59c-3.67.25-7.34.36-10.19.36-3.02,0-5.66-.31-6.86-.92-1.29-.62-2.1-1.43-2.69-2.74-.9.98-1.74,1.76-2.8,2.72-.34.28-.45.5-.53.64-.08.17-.2.22-.31.22s-.22-.08-.34-.22c-.31-.42-.64-1.01-.9-1.57.76-.34,1.18-.62,1.74-1.04.78-.59,1.6-1.34,2.38-2.21v-6.94h-1.9c-1.4,0-1.74.06-1.85.06-.2,0-.22-.03-.22-.25v-1.23c0-.17.03-.2.22-.2.11,0,.45.06,1.85.06h1.43c1.4,0,1.76-.06,1.9-.06.2,0,.22.03.22.2s-.06.87-.06,2.66v5.74Zm-3.78-18.23c.25-.17.31-.17.48,0,1.18,1.12,2.18,2.38,3.16,3.89.11.2.11.22-.2.45l-.67.5c-.34.25-.42.25-.53.06-.95-1.62-1.99-2.97-3.08-4.06-.17-.14-.14-.2.17-.39l.67-.45Zm17.47,5.1c2.69,0,3.61-.06,3.78-.06.2,0,.22.03.22.22,0,.17-.06,1.2-.06,3.58v4.48c0,1.93.03,3.22.03,4.12,0,.84-.11,1.4-.62,1.79-.48.34-1.01.5-2.74.53-.53,0-.56,0-.67-.48-.11-.5-.25-.87-.5-1.15.84.08,1.4.08,1.96.08.7,0,.98-.25.98-1.01v-2.55h-5.32v1.32c0,2.27.06,3.19.06,3.36,0,.2-.03.22-.2.22h-1.2c-.2,0-.22-.03-.22-.22,0-.17.06-1.09.06-3.36v-1.32h-4.84v1.6c0,2.27.06,3.22.06,3.39,0,.2-.03.22-.22.22h-1.2c-.2,0-.22-.03-.22-.22,0-.17.06-1.01.06-3.36v-7.62c0-2.35-.06-3.25-.06-3.42,0-.2.03-.22.22-.22.14,0,1.09.06,3.78.06h2.66c-1.04-.87-1.96-1.46-3.19-2.18-.2-.11-.22-.22.08-.45l.56-.45c.22-.2.28-.17.48-.06,1.04.67,1.99,1.34,3.02,2.21,1.37-.92,2.6-1.9,3.92-3.02h-8.04c-2.66,0-3.53.06-3.67.06-.2,0-.22-.03-.22-.22v-1.06c0-.22.03-.25.22-.25.14,0,1.01.06,3.67.06h8.29c.34,0,.53-.03.67-.08.17-.08.22-.11.34-.11.17,0,.39.17.78.56.45.45.59.67.59.87s-.11.31-.36.39c-.31.08-.56.28-.98.62-1.32,1.09-2.55,2.02-4.2,3.11l.06.03h2.21Zm-4.45,1.32h-4.84v2.83h4.84v-2.83Zm0,4.12h-4.84v2.83h4.84v-2.83Zm6.83-4.12h-5.32v2.83h5.32v-2.83Zm0,4.12h-5.32v2.83h5.32v-2.83Z" fill="#af3836"/>
      </g>
      <rect x="564.37" y="124.46" width="65.99" height="21.22" fill="#c34141"/>
      <g>
        <path d="m588.02,135.25c0-.47.01-1.12.03-1.72-.26.44-.55.87-.87,1.29-.07.09-.12.13-.14.13-.04,0-.06-.05-.1-.14-.09-.25-.17-.4-.29-.56,1.09-1.29,1.74-2.86,2.22-4.42.1-.33.16-.6.18-.88.29.08.52.16.74.26.09.04.16.08.16.16,0,.07-.05.12-.13.18-.06.06-.16.21-.25.49-.25.71-.49,1.42-.81,2.12v6.36c0,1.37.03,1.95.03,2.02,0,.09-.01.1-.1.1h-.58c-.09,0-.1-.01-.1-.1,0-.06.03-.65.03-2.02v-3.26Zm6.53-3.24c0,.09-.01.1-.09.1-.07,0-.4-.03-1.46-.03h-.56v.82h.51c.99,0,1.31-.03,1.38-.03.1,0,.12.01.12.1,0,.06-.03.32-.03,1.08v1.2c0,.73.03.99.03,1.07,0,.09-.01.1-.12.1-.06,0-.39-.03-1.38-.03h-.51v.85h.38c.99,0,1.3-.03,1.36-.03.09,0,.1.01.1.1v.44c0,.09-.01.1-.1.1-.06,0-.38-.03-1.36-.03h-.38v.92c.56-.09,1.16-.19,1.74-.34-.03.13-.06.25-.08.39q-.03.26-.3.31c-.95.21-2.27.42-3.38.57-.29.04-.49.09-.56.14-.04.03-.1.06-.17.06-.04,0-.09-.08-.12-.17-.06-.2-.1-.4-.16-.68.34.01.69,0,1.2-.05.33-.03.73-.08,1.17-.14v-1.03h-.59c-.99,0-1.3.03-1.36.03-.09,0-.1-.01-.1-.1v-.44c0-.09.01-.1.1-.1.06,0,.38.03,1.36.03h.59v-.85h-.42c-1,0-1.33.03-1.39.03-.09,0-.1-.01-.1-.1,0-.08.03-.34.03-1.07v-1.2c0-.75-.03-1.01-.03-1.08,0-.09.01-.1.1-.1.06,0,.39.03,1.39.03h.42v-.82h-.66c-1.05,0-1.39.03-1.46.03-.09,0-.1-.01-.1-.1v-.46c0-.09.01-.1.1-.1.06,0,.4.03,1.46.03h.66v-.9c-.46.08-.91.14-1.35.2-.22.03-.22.01-.32-.18-.08-.17-.18-.29-.29-.4,1.22-.08,2.5-.27,3.5-.57.2-.05.36-.13.53-.23.19.16.32.29.46.44.05.06.08.1.08.17s-.06.1-.17.1c-.12,0-.23.01-.36.05-.44.12-.92.22-1.42.31v1.01h.56c1.05,0,1.39-.03,1.46-.03.08,0,.09.01.09.1v.46Zm-2.76,1.46h-1.25v.9h1.25v-.9Zm0,1.44h-1.25v.94h1.25v-.94Zm2-1.44h-1.35v.9h1.35v-.9Zm0,1.44h-1.35v.94h1.35v-.94Zm3.42-2.76c.87,0,1.13-.03,1.2-.03.09,0,.12.03.12.12-.03.4-.03.77-.03,1.16-.03,1.96-.1,4.12-.33,5.72-.14.88-.48,1.31-1.27,1.31-.31,0-.55-.01-.82-.04q-.18-.01-.22-.29c-.03-.21-.08-.36-.17-.53.39.08.75.12,1.12.12.44,0,.58-.29.69-.91.21-1.4.3-3.59.3-5.95h-1.14c-.06,1.22-.19,2.47-.42,3.55-.31,1.57-.91,2.83-2.09,4.02-.06.08-.1.12-.14.12s-.09-.05-.17-.13c-.16-.14-.3-.23-.46-.31,1.27-1.08,1.87-2.39,2.2-3.93.18-.83.31-2.04.38-3.32-.78,0-1.01.03-1.08.03-.09,0-.1-.01-.1-.1v-.52c0-.09.01-.1.1-.1.06,0,.3.03,1.1.03.01-.47.03-.95.03-1.4,0-.81-.03-1.17-.09-1.6.26.01.58.04.79.08.1.03.16.08.16.13,0,.08-.04.16-.08.27-.05.14-.08.52-.08,1.21,0,.43-.01.87-.03,1.31h.53Z" fill="#fff"/>
        <path d="m606.9,130.05c.05.05.09.12.09.17,0,.08-.05.13-.13.17-.16.06-.29.16-.48.34-1.27,1.16-2.86,2.63-3.83,3.67-.13.13-.18.23-.18.33s.05.16.17.23c1.6,1.18,3.33,2.57,5.02,4.29.09.1.12.13.01.26-.16.18-.36.38-.49.49-.1.08-.16.09-.25-.03-1.69-1.86-3.37-3.25-4.9-4.41-.35-.27-.51-.51-.51-.82s.16-.53.46-.84c1.05-1.12,2.47-2.5,3.63-3.67.26-.27.42-.49.57-.81.3.19.65.44.83.62Z" fill="#fff"/>
      </g>
      <g>
        <path d="m643.64,259.15h-6.74l-.18,3.98c-.02.6-.09,1.33-.14,1.91.62-.99,1.79-1.66,3.1-1.66,2.58,0,4.58,2.14,4.58,5.4,0,3.61-2.21,5.75-5.04,5.75-2.37,0-4.05-1.08-4.78-3.27l1.86-.69c.44,1.63,1.43,2.39,2.9,2.39,1.86,0,3.08-1.52,3.08-4.12s-1.13-3.91-2.92-3.91c-1.29,0-2.37.78-2.83,2.16l-1.56-.23.39-9.31h8.28v1.59Z" fill="#fff"/>
        <path d="m658.63,265.82c0,6.09-1.79,8.72-5.06,8.72s-5.04-2.58-5.04-8.67,1.86-8.58,5.08-8.58,5.01,2.46,5.01,8.53Zm-8.14.02c0,5.15,1.01,7.11,3.08,7.11s3.1-1.95,3.1-7.11-.99-6.97-3.06-6.97-3.13,1.79-3.13,6.97Z" fill="#fff"/>
        <path d="m684.65,270.67c0,.16-.02.18-.18.18-.12,0-.85-.05-3.01-.05h-5.17v1.54c0,2.55.05,3.68.05,3.79,0,.16-.02.16-.16.16h-1.15c-.18,0-.21,0-.21-.16,0-.14.05-1.24.05-3.79v-1.54h-6.99c-2.16,0-2.9.05-3.01.05-.16,0-.18-.02-.18-.18v-1.03c0-.16.02-.18.18-.18.12,0,.85.05,3.01.05h.69v-3.38c0-1.33-.05-1.86-.05-2,0-.16.02-.18.18-.18.12,0,.92.05,3.22.05h2.94v-3.79h-5.24c-.8,1.22-1.75,2.39-2.92,3.56-.14.16-.23.25-.3.25s-.16-.09-.32-.28c-.23-.28-.51-.48-.78-.62,2.18-1.98,3.56-3.98,4.51-6.05.25-.57.41-1.06.48-1.52.58.14,1.04.3,1.43.44.16.07.23.16.23.3s-.07.21-.21.32c-.18.14-.35.35-.58.83-.25.51-.51,1.01-.78,1.49h9.68c2.3,0,3.08-.05,3.2-.05.16,0,.18.02.18.18v.99c0,.16-.02.18-.18.18-.12,0-.9-.05-3.2-.05h-3.77v3.79h2.78c2.3,0,3.06-.05,3.2-.05s.16.02.16.18v.99c0,.16-.02.18-.16.18s-.9-.05-3.2-.05h-2.78v4.25h5.17c2.16,0,2.9-.05,3.01-.05.16,0,.18.02.18.18v1.03Zm-9.8-5.43h-4.9v4.25h4.9v-4.25Z" fill="#fff"/>
        <path d="m695.07,269.93c1.98-.76,4.09-1.7,6.25-2.83-.05.3-.05.64,0,.97.07.48.05.46-.37.69-2.69,1.4-5.29,2.55-8.42,3.68-.48.18-.69.28-.8.39-.09.09-.18.14-.28.14s-.18-.07-.25-.23c-.18-.41-.37-.94-.51-1.43.69-.14,1.29-.3,1.86-.48.37-.11.74-.25,1.1-.39l-.12-10.09c-.02-1.56-.02-2.41-.18-3.15.55.02,1.13.07,1.56.14.18.02.3.12.3.21,0,.16-.07.28-.14.44-.12.25-.16.85-.14,2.35l.11,9.61Zm15.5,5.43c-.12.18-.18.28-.25.28s-.16-.07-.3-.21c-1.75-1.66-3.15-3.33-4.71-5.63-1.68,2.44-3.68,4.19-8,6.21-.16.07-.25.11-.34.11-.12,0-.18-.09-.32-.34-.21-.35-.41-.55-.76-.81,4.65-1.91,6.83-3.75,8.51-6.28,1.45-2.16,2.35-5.1,2.64-8.55.11-1.4.14-2.37.02-3.17.62.05,1.17.11,1.59.18.18.05.3.11.3.25,0,.18-.09.3-.16.48-.09.23-.21,1.1-.3,2.21-.3,3.29-1.15,6.25-2.37,8.42,1.68,2.64,3.38,4.42,5.27,5.89-.28.25-.58.6-.8.97Zm-11.38-16.42c.18-.14.25-.14.37-.02,1.38,1.26,2.41,2.55,3.54,4.23.09.14.05.21-.16.35l-.64.46c-.14.09-.23.14-.3.14s-.09-.05-.16-.14c-1.1-1.75-2-2.92-3.4-4.25-.12-.11-.09-.16.14-.32l.62-.44Z" fill="#fff"/>
        <path d="m736.97,274.78c0,.16-.02.18-.18.18-.11,0-.85-.05-3.04-.05h-13.22c-2.18,0-2.92.05-3.04.05-.16,0-.18-.02-.18-.18v-1.17c0-.16.02-.18.18-.18.11,0,.85.05,3.04.05h5.2v-14.07c0-1.72-.02-2.46-.14-3.31.58.02,1.17.07,1.61.14.16.02.3.09.3.21,0,.14-.05.25-.11.44-.09.25-.16.8-.16,2.23v4.35h4.58c2.18,0,2.92-.05,3.04-.05.16,0,.18.02.18.18v1.17c0,.16-.02.18-.18.18-.12,0-.85-.05-3.04-.05h-4.58v8.58h6.53c2.18,0,2.92-.05,3.04-.05.16,0,.18.02.18.18v1.17Z" fill="#fff"/>
      </g>
      <g>
        <path d="m394.5,269.63c0,.14-.02.16-.16.16s-.83-.05-2.97-.05h-6.58v2.32c0,2.74.05,3.93.05,4.05,0,.16-.02.18-.18.18h-1.15c-.16,0-.18-.02-.18-.18,0-.11.05-1.31.05-4.05v-2.32h-6.19c-2.12,0-2.83.05-2.94.05-.16,0-.18-.02-.18-.16v-1.06c0-.16.02-.18.18-.18.12,0,.83.05,2.94.05h6.19v-3.56h-4.35c-2.32,0-3.08.05-3.2.05-.16,0-.18-.02-.18-.21v-.99c0-.16.02-.18.18-.18.12,0,.87.05,3.2.05h4.35v-4.83c0-1.63-.02-2.28-.16-3.15.6.02,1.15.07,1.59.14.14.02.25.09.25.18,0,.14-.05.23-.11.41-.07.21-.14.83-.14,2.37v4.88h4.74c2.32,0,3.08-.05,3.2-.05.18,0,.21.02.21.18v.99c0,.18-.02.21-.21.21-.12,0-.87-.05-3.2-.05h-4.74v3.56h6.58c2.14,0,2.83-.05,2.97-.05s.16.02.16.18v1.06Zm-16.9-12.19c.28-.16.28-.21.41-.07,1.08,1.33,1.93,2.6,2.71,4.05.07.16.07.21-.21.37l-.62.37c-.3.18-.32.21-.41.02-.71-1.49-1.59-2.85-2.6-4.07-.12-.12-.14-.16.14-.32l.58-.34Zm13.91.87c-.12.07-.23.23-.37.46-.6.97-1.36,2.09-2.53,3.54-.16.18-.23.28-.32.28s-.18-.07-.34-.18c-.25-.18-.53-.3-.78-.37,1.24-1.47,2.14-2.85,2.71-3.93.21-.39.28-.6.37-.97.48.21.94.44,1.29.64.14.09.21.16.21.23,0,.14-.07.21-.23.3Z" fill="#fff"/>
        <path d="m420.42,270.67c0,.16-.02.18-.18.18-.12,0-.85-.05-3.01-.05h-5.17v1.54c0,2.55.05,3.68.05,3.79,0,.16-.02.16-.16.16h-1.15c-.18,0-.21,0-.21-.16,0-.14.05-1.24.05-3.79v-1.54h-6.99c-2.16,0-2.9.05-3.01.05-.16,0-.18-.02-.18-.18v-1.03c0-.16.02-.18.18-.18.11,0,.85.05,3.01.05h.69v-3.38c0-1.33-.05-1.86-.05-2,0-.16.02-.18.18-.18.12,0,.92.05,3.22.05h2.94v-3.79h-5.24c-.8,1.22-1.75,2.39-2.92,3.56-.14.16-.23.25-.3.25s-.16-.09-.32-.28c-.23-.28-.51-.48-.78-.62,2.18-1.98,3.56-3.98,4.51-6.05.25-.57.41-1.06.48-1.52.57.14,1.03.3,1.43.44.16.07.23.16.23.3s-.07.21-.21.32c-.18.14-.34.35-.58.83-.25.51-.51,1.01-.78,1.49h9.68c2.3,0,3.08-.05,3.2-.05.16,0,.18.02.18.18v.99c0,.16-.02.18-.18.18-.12,0-.9-.05-3.2-.05h-3.77v3.79h2.78c2.3,0,3.06-.05,3.2-.05s.16.02.16.18v.99c0,.16-.02.18-.16.18s-.9-.05-3.2-.05h-2.78v4.25h5.17c2.16,0,2.9-.05,3.01-.05.16,0,.18.02.18.18v1.03Zm-9.79-5.43h-4.9v4.25h4.9v-4.25Z" fill="#fff"/>
      </g>
      <g>
        <path d="m153.69,260.64c.74-2.18,2.53-3.36,4.81-3.36,2.74,0,4.69,1.68,4.69,4.09,0,2.02-1.2,3.45-3.17,3.84v.21c2.21.46,3.54,2.02,3.54,4.23,0,2.94-2.05,4.88-5.04,4.88-2.58,0-4.25-1.01-5.13-3.33l1.84-.69c.62,1.77,1.63,2.46,3.29,2.46,1.84,0,3.06-1.26,3.06-3.29,0-2.16-1.22-3.43-3.77-3.43h-1.29v-1.63h1.15c2.37,0,3.56-1.17,3.56-3.08,0-1.72-1.17-2.69-2.76-2.69-1.36,0-2.53.78-2.94,2.41l-1.84-.62Z" fill="#fff"/>
        <path d="m189.65,270.67c0,.16-.02.18-.18.18-.12,0-.85-.05-3.01-.05h-5.17v1.54c0,2.55.05,3.68.05,3.79,0,.16-.02.16-.16.16h-1.15c-.18,0-.21,0-.21-.16,0-.14.05-1.24.05-3.79v-1.54h-6.99c-2.16,0-2.9.05-3.01.05-.16,0-.18-.02-.18-.18v-1.03c0-.16.02-.18.18-.18.11,0,.85.05,3.01.05h.69v-3.38c0-1.33-.05-1.86-.05-2,0-.16.02-.18.18-.18.12,0,.92.05,3.22.05h2.94v-3.79h-5.24c-.8,1.22-1.75,2.39-2.92,3.56-.14.16-.23.25-.3.25s-.16-.09-.32-.28c-.23-.28-.51-.48-.78-.62,2.18-1.98,3.56-3.98,4.51-6.05.25-.57.41-1.06.48-1.52.57.14,1.03.3,1.43.44.16.07.23.16.23.3s-.07.21-.21.32c-.18.14-.35.35-.58.83-.25.51-.51,1.01-.78,1.49h9.68c2.3,0,3.08-.05,3.2-.05.16,0,.18.02.18.18v.99c0,.16-.02.18-.18.18-.12,0-.9-.05-3.2-.05h-3.77v3.79h2.78c2.3,0,3.06-.05,3.2-.05s.16.02.16.18v.99c0,.16-.02.18-.16.18s-.9-.05-3.2-.05h-2.78v4.25h5.17c2.16,0,2.9-.05,3.01-.05.16,0,.18.02.18.18v1.03Zm-9.8-5.43h-4.9v4.25h4.9v-4.25Z" fill="#fff"/>
      </g>
      <line x1="521.96" y1="101.23" x2="821.46" y2="101.23" fill="none" stroke="#af3836" stroke-miterlimit="10" stroke-width=".9"/>
      <g>
        <path d="m125.32,70.44c0,1.74.06,2.44.06,2.58,0,.2-.03.22-.22.22-.14,0-.84-.06-2.8-.06h-5.07v9.77c0,4,.06,5.66.06,5.82,0,.2-.03.22-.22.22h-1.32c-.2,0-.22-.03-.22-.22,0-.17.06-1.82.06-5.82v-12.12c0-4-.06-5.71-.06-5.88,0-.2.03-.22.22-.22.17,0,1.09.06,3.16.06h3.39c1.96,0,2.66-.06,2.8-.06.2,0,.22.03.22.22,0,.17-.06.87-.06,2.58v2.91Zm-1.6-4.28h-6.44v2.13h6.44v-2.13Zm0,3.47h-6.44v2.21h6.44v-2.21Zm10.89,11.96c0,.2-.03.22-.22.22-.14,0-1.06-.06-3.81-.06h-.39v3c0,2.07.06,2.91.06,3.08,0,.2-.03.22-.22.22h-1.23c-.2,0-.22-.03-.22-.22,0-.17.06-1.01.06-3.08v-3h-3.98c-.2,1.46-.39,2.18-.84,3.19-.53,1.18-1.37,2.27-2.49,3.16-.17.14-.28.22-.36.22-.11,0-.22-.11-.45-.34-.31-.31-.64-.53-.98-.67,1.2-.7,2.18-1.65,2.8-2.91.42-.84.67-1.74.73-2.66h-.17c-2.74,0-3.64.06-3.81.06-.2,0-.22-.03-.22-.22v-1.04c0-.2.03-.22.22-.22.17,0,1.06.06,3.81.06h.28c.03-.87.08-1.96.08-3.33-2.24,0-3.05.06-3.14.06-.22,0-.25-.03-.25-.22v-1.04c0-.2.03-.22.25-.22.11,0,.98.06,3.61.06h6.22c2.63,0,3.5-.06,3.64-.06.17,0,.2.03.2.22v1.04c0,.2-.03.22-.2.22-.14,0-.98-.06-3.39-.06v3.33h.39c2.74,0,3.67-.06,3.81-.06.2,0,.22.03.22.22v1.04Zm-5.99-4.54h-3.78c0,1.32-.03,2.41-.08,3.33h3.86v-3.33Zm9.44,4.84c0,1.54.08,3,.08,4.06,0,1.23-.2,1.71-.73,2.13-.53.45-1.15.56-3.39.56-.53,0-.5,0-.64-.53-.14-.53-.28-.87-.5-1.23.73.08,1.37.11,2.04.11,1.23,0,1.48-.22,1.48-1.34v-12.46h-5.12c-2.18,0-2.88.06-3.02.06-.22,0-.25-.03-.25-.22,0-.14.06-.67.06-2.41v-3.25c0-1.71-.06-2.24-.06-2.41,0-.2.03-.22.25-.22.14,0,.84.06,3.02.06h3.58c2.16,0,2.88-.06,3.02-.06.2,0,.22.03.22.22,0,.17-.06,1.29-.06,4v12.94Zm-1.65-15.74h-6.75v2.13h6.75v-2.13Zm0,3.47h-6.75v2.21h6.75v-2.21Z" fill="#af3836"/>
        <path d="m156.87,65.01c1.2,0,2.07-.06,2.27-.06.17,0,.25.03.36.28.34.92.81,1.76,1.37,2.55.31.45.62.9.98,1.29.87-.73,1.65-1.62,2.3-2.41.28-.34.48-.67.7-1.12.59.31,1.04.62,1.37.9.17.14.2.22.2.34,0,.14-.08.22-.25.31-.22.08-.42.2-.87.7-.76.81-1.57,1.6-2.46,2.35.62.62,1.32,1.18,2.04,1.71,1.09-.9,2.1-1.88,2.77-2.63.28-.34.53-.7.76-1.12.56.31.95.56,1.34.87.17.14.22.25.22.36,0,.14-.11.22-.31.31-.2.08-.39.2-.84.67-.76.76-1.62,1.54-2.69,2.38,1.65,1.04,3.47,1.88,5.38,2.55-.28.31-.5.62-.7,1.01-.17.34-.25.45-.39.45-.08,0-.22-.06-.42-.14-5.18-2.32-8.9-5.1-11.34-9.74-2.27,3.98-5.57,7.11-10.95,9.77-.22.11-.34.17-.45.17-.14,0-.2-.14-.39-.45-.2-.34-.42-.59-.73-.84,2.44-1.04,4.51-2.27,6.19-3.61-1.06-1.15-2.02-1.99-3.25-2.86-.17-.11-.17-.17.03-.36l.67-.62c.17-.17.22-.2.39-.08,1.29.9,2.3,1.79,3.36,2.91,1.51-1.37,2.69-2.86,3.56-4.4h-4.03c-2.1,0-2.74.06-2.88.06-.22,0-.25-.03-.25-.22v-1.09c0-.2.03-.22.25-.22.14,0,.78.06,2.88.06h3.81Zm5.29,20.41c0,.76.11,1.09.36,1.26.31.2,1.04.34,2.74.34s2.46-.14,2.88-.45c.42-.31.76-1.15.87-3.14.34.22.67.39,1.09.53.48.17.53.2.45.7-.28,1.9-.53,2.72-1.43,3.28-.7.42-2.18.56-3.86.56-2.16,0-3.25-.11-3.86-.48-.67-.39-.9-.9-.9-2.13v-5.21h-4.28c-.81,4.34-3.08,6.38-7.62,7.95-.2.08-.34.11-.42.11-.17,0-.25-.11-.45-.42-.22-.36-.56-.7-.9-.95,4.65-1.26,6.86-2.86,7.67-6.69h-2.55c-2.8,0-3.72.06-3.89.06-.2,0-.22-.03-.22-.22v-1.12c0-.2.03-.22.22-.22.17,0,1.09.06,3.89.06h2.77c.11-.95.17-2.02.17-3.22v-.73c-1.6.03-2.18.06-2.32.06-.2,0-.22-.03-.22-.22v-1.06c0-.22.03-.25.22-.25.17,0,.98.06,3.39.06h5.21c2.52,0,3.33-.06,3.5-.06.2,0,.22.03.22.25v1.06c0,.2-.03.22-.22.22-.14,0-.78-.03-2.52-.06v3.95h3.3c2.8,0,3.72-.06,3.89-.06.2,0,.22.03.22.22v1.12c0,.2-.03.22-.22.22-.17,0-1.09-.06-3.89-.06h-3.3v4.73Zm-1.65-10.14h-3.92v.73c0,1.18-.06,2.27-.14,3.22h4.06v-3.95Z" fill="#af3836"/>
      </g>
      <g>
        <path d="m554.7,70.05c1.26,0,1.79-.08,2.04-.22s.5-.11.7.08c.48.42.87.84,1.2,1.32.25.36.14.64-.14.84-.42.31-.7.45-1.32,1.18-2.07,2.44-5.01,5.43-7.98,7.81.95.95,2.02,2.16,2.88,3.28.2.22.2.36,0,.59-.31.34-.67.64-1.04.9-.22.14-.31.17-.48-.08-2.52-3.25-5.4-6.08-8.65-8.4.34-.34.81-.81,1.12-1.09.2-.17.28-.14.53,0,1.62,1.23,3.02,2.35,4.31,3.53,2.91-2.41,5.88-5.49,7.76-7.95l-12.32.06c-2.27,0-4,.11-5.54.22-.31.03-.39-.06-.45-.31-.08-.56-.2-1.26-.22-1.96,1.85.2,3.78.22,6.22.22h11.37Z" fill="#af3836"/>
        <path d="m576.91,83.04c0,1.96.03,3.72.08,4.96,0,.25-.11.34-.39.36-.42.03-.98.03-1.4,0-.28-.03-.39-.11-.39-.39.06-1.26.14-3.02.14-4.9v-4.51c-2.77,2.04-5.6,3.75-8.88,5.43-.28.14-.5.17-.73-.08-.36-.39-.81-.67-1.4-.92,3.67-1.68,7.11-3.64,10-5.8,1.76-1.32,3.72-2.94,5.46-4.82l-8.04.08c-1.4.03-2.55.11-3.53.2-.28,0-.39-.06-.45-.31-.08-.48-.2-1.12-.25-1.82,1.23.14,2.6.2,4.34.2l7.25-.03c1.51,0,1.85-.06,2.18-.25.25-.14.45-.14.67.08.31.28.7.73.9,1.04.22.34.11.56-.25.73-.22.11-.42.25-.73.53-1.48,1.51-3.02,3-4.59,4.28v5.94Zm-3.98-18.31c.17-.22.28-.25.56-.17,1.79.53,4.2,1.57,5.52,2.3.25.14.28.28.14.5-.17.34-.42.7-.67,1.06-.14.28-.28.34-.53.14-1.4-.84-3.64-1.82-5.8-2.52.28-.48.62-1.04.78-1.32Zm7.06,12.6c.14-.2.2-.2.42-.11,2.21.95,4.4,2.18,6.24,3.53.22.17.28.25.14.5-.25.39-.53.84-.84,1.2-.2.22-.25.2-.53,0-1.65-1.4-3.84-2.74-6.3-3.86.34-.48.67-.98.87-1.26Z" fill="#af3836"/>
        <path d="m593.96,73.33c.11-.2.25-.25.48-.2,1.82.67,3.42,1.51,4.93,2.55.28.2.25.36.14.59-.2.39-.48.87-.73,1.2-.17.22-.31.25-.53.06-1.54-1.2-3.3-2.13-5.15-2.83.36-.53.67-1.09.87-1.37Zm4.34,10.72c2.58-1.34,5.07-2.8,7.7-4.82,2.41-1.88,5.46-4.59,7.98-7.76.11.73.25,1.18.53,1.82.14.28.08.5-.14.76-2.35,2.74-4.79,4.87-7.39,6.86-2.49,1.93-5.24,3.58-8.18,5.24-.62.34-1.06.64-1.34.95-.25.25-.53.2-.78-.08-.36-.42-.9-1.2-1.32-1.88.98-.22,1.85-.53,2.94-1.09Zm-1.04-17.11c.17-.25.25-.25.5-.14,1.74.73,3.36,1.76,4.87,2.91.25.2.22.31.08.56-.22.36-.53.9-.81,1.2-.17.2-.28.14-.5-.06-1.37-1.26-3.19-2.38-5.01-3.16.28-.39.59-.92.87-1.32Zm12.18-1.2c.11-.08.2-.08.31,0,1.12.78,2.35,2.16,3.16,3.39.08.11.06.22-.06.31l-.81.67c-.14.11-.28.08-.36-.06-.81-1.37-1.99-2.69-3.25-3.58l1.01-.73Zm2.35-1.85c.11-.08.2-.11.31-.03,1.12.87,2.38,2.1,3.19,3.28.08.14.06.22-.08.34l-.76.67c-.11.11-.22.11-.34-.06-.7-1.15-1.9-2.52-3.22-3.5l.9-.7Z" fill="#af3836"/>
        <path d="m633.58,69.52c.59-1.32.84-2.16.95-3.28.9.36,1.85.81,2.32,1.2.34.25.22.59-.03.78-.34.22-.67.76-1.2,1.71-1.09,2.27-2.3,4.4-3.56,6.19,1.54,1.15,3.02,2.46,4.37,3.92.2.22.17.34.03.53-.31.42-.62.73-.95,1.09-.2.2-.34.17-.5-.03-1.29-1.51-2.66-2.86-4.03-3.92-3.05,3.95-6.38,7.06-10.02,9.32-.28.17-.56.25-.81.03-.45-.39-1.01-.73-1.57-.87,4.48-2.58,7.87-5.71,10.84-9.66-1.71-1.2-3.64-2.44-5.66-3.42.42-.53.81-1.06,1.06-1.34.14-.14.25-.11.45,0,1.6.84,3.64,2.02,5.26,3.14,1.23-1.85,2.32-3.75,3.05-5.4Z" fill="#af3836"/>
        <path d="m646.26,68.18c.2-.2.34-.17.5-.06,1.57.87,3.42,2.18,5.04,3.72.2.2.22.31.08.53-.22.34-.73.98-.95,1.2-.17.2-.25.22-.45.03-1.65-1.62-3.5-3.05-5.32-4.14.36-.45.78-.95,1.09-1.29Zm2.52,14.84c3.02-1.6,5.49-3.11,8.09-5.21,2.83-2.32,5.15-4.4,7.56-7.53.11.78.28,1.32.48,1.85.17.36.14.59-.2.98-1.88,2.21-4.34,4.45-6.8,6.44-2.38,1.9-5.18,3.7-8.4,5.46-.76.45-1.29.87-1.54,1.09-.28.25-.5.25-.76-.03-.42-.45-.92-1.12-1.37-1.9,1.09-.31,1.93-.64,2.94-1.15Z" fill="#af3836"/>
        <path d="m674.4,73.3c3.22.92,6.33,2.24,9.13,3.89.22.11.28.25.2.45-.2.5-.45,1.01-.67,1.37-.17.22-.28.28-.53.11-2.6-1.71-5.6-3.02-8.15-3.75v6.5c0,1.71.06,3.89.08,5.71.03.28-.06.36-.36.36-.42.03-.98.03-1.43,0-.31,0-.39-.08-.39-.39.08-1.79.11-3.98.11-5.68v-12.46c0-2.1-.11-3.53-.31-4.48.98.08,1.82.2,2.32.36.45.11.34.42.2.84-.17.48-.2,1.32-.2,3.11v4.06Z" fill="#af3836"/>
      </g>
      <g>
        <path d="m202.43,77.59c0,.81.03,1.05.03,1.14,0,.1-.01.12-.12.12-.06,0-.45-.03-1.61-.03h-3.11c-.09.56-.19,1.07-.32,1.5-.25.75-.58,1.48-1.15,2.3-.06.12-.1.17-.14.17s-.1-.06-.19-.17c-.17-.19-.33-.33-.5-.42.71-.91,1.04-1.6,1.28-2.45.23-.75.4-1.71.4-3.1,0-1.05-.03-1.44-.03-1.54s.01-.12.12-.12c.07,0,.46.03,1.61.03h2.03c1.17,0,1.56-.03,1.61-.03.1,0,.12.01.12.12,0,.07-.03.32-.03,1.14v1.34Zm-2.29-6.63c1.05,1.24,1.89,1.77,3.24,2.43-.13.14-.24.32-.33.49-.07.16-.1.23-.16.23s-.12-.04-.22-.1c-1.12-.65-2.02-1.34-2.95-2.51-.92,1.38-2.2,2.55-3.54,3.34-.1.06-.16.09-.2.09-.07,0-.12-.06-.19-.19-.13-.22-.26-.36-.39-.48,1.63-.83,2.78-1.92,3.59-3.11.17-.26.26-.46.32-.71.32.04.55.1.82.17.12.03.17.07.17.17,0,.04-.04.1-.1.13l-.06.03Zm1.51,6.25h-3.86c-.01.33-.04.65-.07.95h3.93v-.95Zm0-1.54h-3.85v.92h3.85v-.92Zm1.12,6.05c0,1.14.03,1.48.03,1.56,0,.1-.01.12-.12.12h-.62c-.1,0-.1-.01-.1-.12v-.45h-3.28v.55c0,.09-.01.1-.12.1h-.59c-.1,0-.12-.01-.12-.1s.03-.42.03-1.58v-.88c0-.65-.03-.91-.03-.99,0-.1.01-.12.12-.12.07,0,.42.03,1.51.03h1.67c1.09,0,1.44-.03,1.53-.03.1,0,.12.01.12.12,0,.09-.03.35-.03.85v.95Zm-1.44-7.65c0,.1-.01.12-.12.12-.07,0-.26-.03-1.02-.03h-.84c-.76,0-.95.03-1.02.03-.12,0-.13-.01-.13-.12v-.52c0-.1.01-.12.13-.12.07,0,.26.03,1.02.03h.84c.76,0,.95-.03,1.02-.03.1,0,.12.01.12.12v.52Zm.63,6.42h-3.28v1.67h3.28v-1.67Zm2.15-6.67c0-.99,0-1.46-.1-1.96.33.01.63.04.92.07.1.01.14.06.14.13s-.04.16-.07.24c-.06.17-.06.43-.06,1.48v3.9c0,1.27.03,1.79.03,1.86,0,.12-.01.13-.12.13h-.66c-.1,0-.12-.01-.12-.13,0-.07.03-.59.03-1.86v-3.88Zm2.75-1.24c0-.86-.01-1.28-.12-1.76.36.01.68.04.96.09.1.01.17.06.17.12,0,.12-.04.19-.09.29-.07.16-.07.42-.07,1.24v7.09c0,.79.01,1.61.01,2.16,0,.62-.1.92-.42,1.15-.33.22-.61.27-1.94.27-.25,0-.27-.01-.35-.3-.07-.27-.16-.46-.29-.63.49.06.81.07,1.38.07.53,0,.73-.12.73-.71v-9.07Z" fill="#fff"/>
        <path d="m215.82,77.1c1.04-.68,2.06-1.02,3.1-1.02,2.07,0,3.36,1.28,3.36,3.15,0,2.15-1.7,3.7-4.75,3.7-1.73,0-2.51-.78-2.51-1.7,0-.75.66-1.47,1.68-1.47,1.3,0,2.18.84,2.45,2.06,1.24-.4,2.1-1.21,2.1-2.62s-1.12-2.36-2.49-2.36-2.85.73-3.96,1.63c-.46.36-.83.75-1.27,1.18-.12.12-.19.13-.29.03-.17-.17-.39-.39-.53-.58-.06-.07-.04-.13.06-.22,1.14-.99,1.87-1.73,3.25-3.21.84-.91,1.7-1.83,2.81-3.14-1.2.19-2.32.4-3.6.65-.19.03-.36.07-.5.13-.1.04-.22.07-.27.07-.1,0-.17-.06-.23-.17-.13-.26-.23-.53-.35-.99.48.06.88.06,1.27.01,1.14-.12,2.32-.27,3.59-.52.17-.03.35-.07.45-.13.06-.04.14-.1.2-.1.07,0,.14.03.26.12.27.22.49.43.62.6.07.09.1.17.1.25,0,.12-.07.22-.22.27-.19.06-.35.16-.68.5-1.28,1.35-2.25,2.36-3.69,3.83l.04.04Zm.91,3.44c-.46,0-.88.23-.88.68,0,.48.52.88,1.48.88.32,0,.61-.01.94-.07-.19-.82-.72-1.48-1.54-1.48Z" fill="#fff"/>
      </g>
      <line x1="78.99" y1="101.57" x2="263.64" y2="101.57" fill="none" stroke="#af3836" stroke-miterlimit="10" stroke-width=".9"/>
      <line x1="301.44" y1="101.57" x2="501.44" y2="101.57" fill="none" stroke="#af3836" stroke-miterlimit="10" stroke-width=".9"/>
      <polyline points="569.99 179.95 571.37 169.02 590.76 166.59 588.94 183.07 576.16 183.07" fill="none" stroke="#d34141" stroke-miterlimit="10" stroke-width=".9"/>
      <line x1="589.49" y1="185.65" x2="562.74" y2="185.65" fill="none" stroke="#d34141" stroke-miterlimit="10" stroke-width=".9"/>
      <path d="m548.4,182.69l1.24,10.09c.37,2.62,1.72,3.86,4.1,3.83l7.92.05" fill="none" stroke="#d34141" stroke-miterlimit="10" stroke-width=".9"/>
      <path d="m564.65,202.33l-1.61-7.18c0-.4-.22-.62-.69-.63h-6.63c-3.16,0-3.85-2.46-3.8-4.85.11-3.19.26-8.41,1.46-11.82,1.61-4.56,6.13-4.15,8.42-2.43,1.48,1.16,2.92,3.97,4.05,5.53.1.09.21.15.33.2l7.36,1.02c1.83.43.97,3.17-.55,3.35h-7.25c-.55-.06-.97-.22-1.43-.47l-4.95-4.03" fill="none" stroke="#d34141" stroke-miterlimit="10" stroke-width=".9"/>
      <path d="m560.72,182.42l-1.38,5.79.44.72,5.53,1.29c1.76.35,2.32,2.45,2.45,3.68l.57,8.45" fill="none" stroke="#d34141" stroke-miterlimit="10" stroke-width=".9"/>
      <polyline points="615.9 183.88 641 183.88 641 157.85 596.37 157.85 596.37 184.81" fill="none" stroke="#d34141" stroke-miterlimit="10" stroke-width=".9"/>
      <path d="m600.09,184.81v-8.37c0-1.54,1.25-2.79,2.79-2.79h21.38c1.03,0,1.86.83,1.86,1.86h0c0,1.03-.83,1.86-1.86,1.86h-10.23c-.51,0-.93.42-.93.93v6.51" fill="none" stroke="#d34141" stroke-miterlimit="10" stroke-width=".9"/>
      <path d="m607.53,203.4v-2.6c0-.73-.42-1.39-1.09-1.69-1.21-.55-3.4-1.29-6.31-1.29s-5.14.75-6.38,1.29c-.67.3-1.1.96-1.1,1.7v2.59" fill="none" stroke="#d34141" stroke-miterlimit="10" stroke-width=".9"/>
      <path d="m626.12,203.4v-2.6c0-.73-.42-1.39-1.09-1.69-1.21-.55-3.4-1.29-6.31-1.29s-5.14.75-6.38,1.29c-.67.3-1.1.96-1.1,1.7v2.59" fill="none" stroke="#d34141" stroke-miterlimit="10" stroke-width=".9"/>
      <path d="m644.72,203.4v-2.6c0-.73-.42-1.39-1.09-1.69-1.21-.55-3.4-1.29-6.31-1.29s-5.14.75-6.38,1.29c-.67.3-1.1.96-1.1,1.7v2.59" fill="none" stroke="#d34141" stroke-miterlimit="10" stroke-width=".9"/>
      <line x1="617.76" y1="166.21" x2="636.35" y2="166.21" fill="none" stroke="#d34141" stroke-miterlimit="10" stroke-width=".9"/>
      <line x1="617.76" y1="169.93" x2="627.05" y2="169.93" fill="none" stroke="#d34141" stroke-miterlimit="10" stroke-width=".9"/>
      <path d="m793.17,132.55h23.95c2.39,0,4.35,1.96,4.35,4.35v77.8c0,2.39-1.96,4.35-4.35,4.35h-131.01c-2.39,0-4.35-1.96-4.35-4.35v-77.8c0-2.39,1.96-4.35,4.35-4.35h23.84" fill="none" stroke="#335c9c" stroke-miterlimit="10" stroke-width=".87"/>
      <path d="m748.28,191.24v11.43m4.79-30.5l-.87,4.38,3.01,15.49h-3.33s-.87,10.52-.87,10.52m-11.19-15.01l1.28-17.31c.41-5.51,13.9-5.5,14.31,0l-.02,7.52,2.7,7.86m-14.63-13.46l.87,4.38-3.02,15.49h3.33s.87,10.52.87,10.52m24.03,0l.47-5.87v-6.29m-2.82,12.16v-5.69m-2.34,5.69l-.47-5.87v-6.29m-5.58-3.36l2.78,3.84h.12l.84-2.39c.8-2.61,8.51-2.61,9.31,0l.84,2.39h.12l2.79-3.84m.56-1.36l2.66-7.67.08-7.78c.06-5.54,17.04-5.52,17.1,0l.19,17.3m-9.01,15.03v-14.78m4.52,14.78l.89-15.07v-15.32m-10.82,0v15.32l.89,15.07" fill="none" stroke="#335c9c" stroke-miterlimit="10" stroke-width=".9"/>
      <path d="m708.47,179.31h26.54v3.01c0,3.37-2.76,6.13-6.13,6.13h-14.28c-3.37,0-6.13-2.76-6.13-6.13v-3.01h0Zm15.79,0h10.75v-1.34c0-5.21-4.26-9.47-9.47-9.47h-1.28v10.81h0Zm3.38,9.14l-12.84,10.1m3.36-2.39c.48.67.76,1.5.76,2.39,0,2.28-1.85,4.12-4.12,4.12s-4.12-1.85-4.12-4.12,1.85-4.12,4.12-4.12c.76,0,1.46.2,2.07.56m-1.02-6.53l12.84,10.1m-3.09-2.73c-.64.73-1.04,1.68-1.04,2.73,0,2.28,1.85,4.12,4.12,4.12s4.12-1.85,4.12-4.12-1.85-4.12-4.12-4.12c-.61,0-1.2.14-1.72.38m-18.49-15.49l-4.28-1.58m8.82,1.29l.13-1.34c.28-2.89,7.24-2.89,7.52,0l.13,1.34" fill="none" stroke="#335c9c" stroke-miterlimit="10" stroke-width=".9"/>
      <rect x="718.61" y="124.46" width="65.99" height="21.22" fill="#335c9c"/>
      <g>
        <path d="m742.02,135.95c.84.69,2.05,1.26,3.61,1.55-.13.13-.25.29-.34.46q-.12.25-.36.17c-.79-.25-1.44-.52-2.01-.85v1.34c0,1.51.03,1.82.03,1.88,0,.09-.01.1-.1.1h-.55c-.09,0-.1-.01-.1-.1v-.4h-5.11v.48c0,.08-.01.09-.1.09h-.55c-.09,0-.1-.01-.1-.09s.03-.39.03-1.9v-1.37c-.55.3-1.18.6-1.92.87-.09.04-.14.06-.19.06-.07,0-.1-.05-.2-.21-.1-.14-.22-.27-.36-.38,1.78-.51,2.8-1.05,3.58-1.72h-1.55c-1.22,0-1.61.03-1.69.03s-.09-.01-.09-.1v-.46c0-.09.01-.1.09-.1s.47.03,1.69.03h2.2c.29-.29.44-.52.55-.77h-.86c-1.29,0-1.74.03-1.82.03-.09,0-.1-.01-.1-.1,0-.06.03-.3.03-1v-.98c0-.71-.03-.94-.03-1,0-.09.01-.1.1-.1.08,0,.53.03,1.82.03h4.11c1.29,0,1.74-.03,1.82-.03.09,0,.1.01.1.1,0,.06-.03.29-.03,1v.98c0,.7.03.94.03,1,0,.09-.01.1-.1.1-.08,0-.53-.03-1.82-.03h-2.83l.23.08c.12.05.17.09.17.16,0,.08-.07.1-.14.16-.08.05-.18.18-.36.38h4.78c1.22,0,1.62-.03,1.69-.03.09,0,.1.01.1.1v.46c0,.09-.01.1-.1.1-.06,0-.47-.03-1.69-.03h-1.52Zm3.28-5.58c0,.08-.01.09-.1.09-.08,0-.48-.03-1.7-.03h-1.72c0,.35.03.52.03.58,0,.09-.01.1-.1.1h-.55c-.09,0-.1-.01-.1-.1,0-.06.01-.23.03-.58h-2.99c0,.35.03.52.03.58,0,.09-.01.1-.1.1h-.55c-.09,0-.1-.01-.1-.1,0-.06.01-.23.03-.58h-1.6c-1.22,0-1.62.03-1.7.03-.09,0-.1-.01-.1-.09v-.51c0-.09.01-.1.1-.1.08,0,.48.03,1.7.03h1.6c-.01-.3-.03-.62-.09-.88.31.01.57.04.78.06.09.01.14.05.14.12s-.03.1-.05.17c-.04.09-.08.26-.08.53h2.99c-.01-.3-.03-.62-.09-.88.31.01.57.04.78.06.09.01.14.05.14.12s-.03.1-.05.17c-.04.09-.08.26-.08.53h1.72c1.22,0,1.62-.03,1.7-.03.09,0,.1.01.1.1v.51Zm-2.44,1.62h-6.42v.74h6.42v-.74Zm0,1.26h-6.42v.77h6.42v-.77Zm-.66,4h-5.11v.85h5.11v-.85Zm0,1.38h-5.11v.9h5.11v-.9Zm-.12-1.92c-.3-.22-.58-.48-.87-.77h-3.02c-.26.26-.56.52-.91.77h4.8Z" fill="#fff"/>
        <path d="m750.59,132.51c.16.09.17.21.08.32-.09.13-.14.34-.2.61-.17.88-.34,2.11-.38,2.98,1.37-1.55,2.98-2.34,4.54-2.34,1.77,0,2.8,1.01,2.8,2.48,0,1.31-.73,2.16-1.95,2.77-1.01.51-2.16.74-3.16.86-.21.03-.27.03-.34-.12-.14-.23-.33-.46-.58-.64,1.33-.1,2.51-.34,3.54-.81,1.01-.47,1.56-1.2,1.56-2.15s-.58-1.64-1.96-1.64c-1.24,0-2.65.78-3.86,2.03-.3.31-.43.51-.57.77-.06.1-.1.1-.21.06-.18-.06-.38-.16-.53-.23-.08-.04-.1-.06-.1-.18.04-1.46.21-2.81.38-4.08.05-.38.1-.72.1-1.08.32.1.68.26.86.38Zm.62-3.16c.05-.05.09-.08.18-.04.86.35,1.62.79,2.38,1.48.08.06.08.09.03.18-.1.17-.27.39-.43.56-.06.08-.13.08-.21,0-.68-.64-1.47-1.17-2.41-1.59.16-.25.33-.47.46-.6Z" fill="#fff"/>
        <path d="m770.56,132.03c0,.12-.04.13-.17.13-1.39-.04-2.67-.05-4.13,0,0,.82,0,1.72.01,2.59.1.4.16.87.16,1.37,0,1.64-.7,3.03-2.54,4.02-.13.08-.23.12-.3.12-.08,0-.16-.04-.23-.1-.14-.13-.38-.29-.6-.36,1.86-.77,2.72-1.96,2.83-3.28-.29.49-.85.74-1.43.74-.9,0-1.72-.6-1.72-1.83,0-1.1.82-1.81,1.78-1.81.49,0,.95.14,1.22.44-.01-.64-.01-1.22-.03-1.83-1.86.1-3.61.23-4.85.39-.31.04-.47.13-.57.13-.08,0-.13-.04-.16-.13-.08-.17-.14-.48-.21-.83.44.03.87-.01,1.64-.08,1.05-.08,2.39-.17,4.12-.27-.01-.53-.01-.79-.03-1.21-.01-.32-.04-.53-.13-.87.39.03.77.09.99.14.14.04.23.1.23.2,0,.08-.04.14-.09.23-.05.09-.08.18-.09.35-.03.29-.03.53-.03,1.1,1.44-.04,2.72-.04,4.16-.04.12,0,.14.01.14.14v.56Zm-7.34,3.35c0,.71.47,1.12,1.05,1.12.73,0,1.18-.56,1.18-1.14,0-.65-.48-1.1-1.16-1.1-.57,0-1.08.43-1.08,1.13Z" fill="#fff"/>
      </g>
      <g>
        <g>
          <polyline points="199.63 187.11 199.63 195.1 189.07 195.1" fill="none" stroke="#000f3c" stroke-miterlimit="10" stroke-width=".9"/>
          <polyline points="234.93 176.63 234.93 184.19 225.42 184.18" fill="none" stroke="#000f3c" stroke-miterlimit="10" stroke-width=".9"/>
          <path d="m194.46,204.69h-5.26l-.87-3.12.87-.56v-6.34l2.4-5.93c.4-.99,1.36-1.63,2.42-1.63h12.14v12.27h34.76v5.32h-3.73" fill="none" stroke="#000f3c" stroke-miterlimit="10" stroke-width=".9"/>
          <line x1="201.04" y1="204.69" x2="230.62" y2="204.69" fill="none" stroke="#000f3c" stroke-miterlimit="10" stroke-width=".9"/>
          <circle cx="197.75" cy="204.69" r="3.29" fill="#000f3c" stroke="#fff" stroke-miterlimit="10" stroke-width=".9"/>
          <path d="m237.2,204.69c0,1.82-1.47,3.29-3.29,3.29s-3.29-1.47-3.29-3.29,1.47-3.29,3.29-3.29,3.29,1.47,3.29,3.29Z" fill="#000f3c" stroke="#fff" stroke-miterlimit="10" stroke-width=".9"/>
          <path d="m186.94,189.92s.03,2.71-3.01,2.71c-2.47,0-3.14-2.77-1.35-4.19,1.44-1.14,2.21-2.12,2.21-4.05" fill="none" stroke="#000f3c" stroke-miterlimit="10" stroke-width=".9"/>
          <polygon points="186.04 178.72 183.55 178.72 182.3 181.55 183.55 184.39 186.04 184.39 187.28 181.55 186.04 178.72" fill="#000f3c"/>
          <polyline points="210 199.38 210 195.83 239.86 195.83 239.86 199.38" fill="none" stroke="#000f3c" stroke-miterlimit="10" stroke-width=".9"/>
          <polygon points="230.16 176.63 225.5 182.88 225.5 195.83 238.46 195.83 238.46 176.63 230.16 176.63" fill="none" stroke="#000f3c" stroke-miterlimit="10" stroke-width=".9"/>
          <polyline points="217.29 194.1 217.29 189.87 225.5 189.87" fill="none" stroke="#000f3c" stroke-miterlimit="10" stroke-width=".9"/>
          <line x1="183.37" y1="169.68" x2="183.37" y2="177.81" fill="none" stroke="#000f3c" stroke-dasharray="0 .84" stroke-width=".9"/>
          <line x1="186.1" y1="171.54" x2="186.1" y2="177.82" fill="none" stroke="#000f3c" stroke-dasharray="0 .84" stroke-width=".9"/>
          <g>
            <line x1="216.38" y1="176.87" x2="209.99" y2="174.53" fill="none" stroke="#000f3c" stroke-miterlimit="10" stroke-width=".9"/>
            <line x1="224.64" y1="179.89" x2="216.38" y2="176.87" fill="none" stroke="#000f3c" stroke-miterlimit="10" stroke-width=".9"/>
            <line x1="210.96" y1="178.83" x2="225.19" y2="184.04" fill="none" stroke="#000f3c" stroke-miterlimit="10" stroke-width=".9"/>
            <line x1="204.57" y1="176.49" x2="210.96" y2="178.83" fill="none" stroke="#000f3c" stroke-miterlimit="10" stroke-width=".9"/>
            <line x1="203.61" y1="172.19" x2="209.99" y2="174.53" fill="none" stroke="#000f3c" stroke-miterlimit="10" stroke-width=".9"/>
            <path d="m203.61,172.19l-16-5.86-.11-.07c-.41-.6-1.1-1-1.88-1-1.25,0-2.27,1.02-2.27,2.27s1.01,2.27,2.27,2.27c.17,0,.33-.02.49-.05l.19.05,11.89,4.35" fill="none" stroke="#000f3c" stroke-miterlimit="10" stroke-width=".9"/>
            <line x1="204.57" y1="176.49" x2="198.18" y2="174.15" fill="none" stroke="#000f3c" stroke-miterlimit="10" stroke-width=".9"/>
            <line x1="203.61" y1="172.19" x2="198.18" y2="174.15" fill="none" stroke="#000f3c" stroke-miterlimit="10" stroke-width=".9"/>
            <line x1="209.99" y1="174.53" x2="204.57" y2="176.49" fill="none" stroke="#000f3c" stroke-miterlimit="10" stroke-width=".9"/>
            <line x1="216.38" y1="176.87" x2="210.96" y2="178.83" fill="none" stroke="#000f3c" stroke-miterlimit="10" stroke-width=".9"/>
          </g>
        </g>
        <path d="m172.01,205.36h-2.08v-39.58h3.08v-6.62h-16.94v-11.86h3.08s0,0,0,0v-8.16s0,0,0,0h-43.58s0,0,0,0v8.16s0,0,0,0h3.08v11.86h-16.94s0,0,0,0v6.62h3.08v39.58h-2.08v2h69.3v-2Zm-40.58,2v-9.61h11.86v9.61h-11.86Z" fill="none" stroke="#000f3c" stroke-miterlimit="10" stroke-width=".9"/>
        <rect x="124.26" y="150.92" width="3.08" height="7.7" fill="#000f3c"/>
        <rect x="128.88" y="150.92" width="3.08" height="7.7" fill="#000f3c"/>
        <rect x="133.51" y="150.92" width="3.08" height="7.7" fill="#000f3c"/>
        <rect x="138.13" y="150.92" width="3.08" height="7.7" fill="#000f3c"/>
        <rect x="142.75" y="150.92" width="3.08" height="7.7" fill="#000f3c"/>
        <rect x="147.37" y="150.92" width="3.08" height="7.7" fill="#000f3c"/>
        <rect x="124.26" y="160.16" width="3.08" height="7.7" fill="#000f3c"/>
        <rect x="128.88" y="160.16" width="3.08" height="7.7" fill="#000f3c"/>
        <rect x="133.51" y="160.16" width="3.08" height="7.7" fill="#000f3c"/>
        <rect x="138.13" y="160.16" width="3.08" height="7.7" fill="#000f3c"/>
        <rect x="142.75" y="160.16" width="3.08" height="7.7" fill="#000f3c"/>
        <rect x="147.37" y="160.16" width="3.08" height="7.7" fill="#000f3c"/>
        <rect x="124.26" y="169.4" width="3.08" height="7.7" fill="#000f3c"/>
        <rect x="128.88" y="169.4" width="3.08" height="7.7" fill="#000f3c"/>
        <rect x="133.51" y="169.4" width="3.08" height="7.7" fill="#000f3c"/>
        <rect x="138.13" y="169.4" width="3.08" height="7.7" fill="#000f3c"/>
        <rect x="142.75" y="169.4" width="3.08" height="7.7" fill="#000f3c"/>
        <rect x="147.37" y="169.4" width="3.08" height="7.7" fill="#000f3c"/>
        <rect x="158.15" y="169.4" width="3.08" height="3.08" fill="#000f3c"/>
        <rect x="162.77" y="169.4" width="3.08" height="3.08" fill="#000f3c"/>
        <rect x="158.15" y="174.02" width="3.08" height="3.08" fill="#000f3c"/>
        <rect x="162.77" y="174.02" width="3.08" height="3.08" fill="#000f3c"/>
        <rect x="158.15" y="178.64" width="3.08" height="3.08" fill="#000f3c"/>
        <rect x="162.77" y="178.64" width="3.08" height="3.08" fill="#000f3c"/>
        <rect x="158.15" y="183.26" width="3.08" height="3.08" fill="#000f3c"/>
        <rect x="162.77" y="183.26" width="3.08" height="3.08" fill="#000f3c"/>
        <rect x="158.15" y="187.88" width="3.08" height="3.08" fill="#000f3c"/>
        <rect x="162.77" y="187.88" width="3.08" height="3.08" fill="#000f3c"/>
        <rect x="158.15" y="192.5" width="3.08" height="3.08" fill="#000f3c"/>
        <rect x="162.77" y="192.5" width="3.08" height="3.08" fill="#000f3c"/>
        <rect x="113.48" y="169.4" width="3.08" height="3.08" fill="#000f3c"/>
        <rect x="108.86" y="169.4" width="3.08" height="3.08" fill="#000f3c"/>
        <rect x="113.48" y="174.02" width="3.08" height="3.08" fill="#000f3c"/>
        <rect x="108.86" y="174.02" width="3.08" height="3.08" fill="#000f3c"/>
        <rect x="113.48" y="178.64" width="3.08" height="3.08" fill="#000f3c"/>
        <rect x="108.86" y="178.64" width="3.08" height="3.08" fill="#000f3c"/>
        <rect x="113.48" y="183.26" width="3.08" height="3.08" fill="#000f3c"/>
        <rect x="108.86" y="183.26" width="3.08" height="3.08" fill="#000f3c"/>
        <rect x="113.48" y="187.88" width="3.08" height="3.08" fill="#000f3c"/>
        <rect x="108.86" y="187.88" width="3.08" height="3.08" fill="#000f3c"/>
        <rect x="113.48" y="192.5" width="3.08" height="3.08" fill="#000f3c"/>
        <rect x="108.86" y="192.5" width="3.08" height="3.08" fill="#000f3c"/>
        <rect x="124.26" y="178.64" width="3.08" height="7.7" fill="#000f3c"/>
        <rect x="128.88" y="178.64" width="3.08" height="7.7" fill="#000f3c"/>
        <rect x="133.51" y="178.64" width="3.08" height="7.7" fill="#000f3c"/>
        <rect x="138.13" y="178.64" width="3.08" height="7.7" fill="#000f3c"/>
        <rect x="142.75" y="178.64" width="3.08" height="7.7" fill="#000f3c"/>
        <rect x="147.37" y="178.64" width="3.08" height="7.7" fill="#000f3c"/>
        <rect x="124.26" y="187.88" width="3.08" height="7.7" fill="#000f3c"/>
        <rect x="128.88" y="187.88" width="3.08" height="7.7" fill="#000f3c"/>
        <rect x="133.51" y="187.88" width="3.08" height="7.7" fill="#000f3c"/>
        <rect x="138.13" y="187.88" width="3.08" height="7.7" fill="#000f3c"/>
        <rect x="142.75" y="187.88" width="3.08" height="7.7" fill="#000f3c"/>
        <rect x="147.37" y="187.88" width="3.08" height="7.7" fill="#000f3c"/>
        <line x1="118.65" y1="159.16" x2="118.65" y2="204.28" fill="none" stroke="#000f3c" stroke-miterlimit="10" stroke-width=".9"/>
        <line x1="156.04" y1="147.3" x2="156.04" y2="204.28" fill="none" stroke="#000f3c" stroke-miterlimit="10" stroke-width=".9"/>
        <line x1="107.83" y1="205.31" x2="131.42" y2="205.31" fill="none" stroke="#000f3c" stroke-miterlimit="10" stroke-width=".9"/>
        <line x1="143.29" y1="205.31" x2="166.88" y2="205.31" fill="none" stroke="#000f3c" stroke-miterlimit="10" stroke-width=".9"/>
        <line x1="106.78" y1="165.8" x2="118.7" y2="165.8" fill="none" stroke="#000f3c" stroke-miterlimit="10" stroke-width=".9"/>
        <line x1="155.97" y1="165.8" x2="167.73" y2="165.8" fill="none" stroke="#000f3c" stroke-miterlimit="10" stroke-width=".9"/>
        <line x1="120.75" y1="147.3" x2="153.96" y2="147.3" fill="none" stroke="#000f3c" stroke-miterlimit="10" stroke-width=".9"/>
      </g>
      <g>
        <path d="m360.09,205.27h-5.41v-36.5l-18.64-12.18v-7.65l-24.03,12.43v43.9h-4.48v2.29h56.32m-43.97-8.08h8.28v5.79h-8.28v-5.79Zm19.88,1.24h3.31v4.55h-3.31v-4.55Z" fill="none" stroke="#000f3c" stroke-miterlimit="10" stroke-width=".9"/>
        <rect x="315.54" y="166.54" width="2.07" height="4.55" fill="#000f3c"/>
        <rect x="319.26" y="166.54" width="2.07" height="4.55" fill="#000f3c"/>
        <rect x="322.99" y="166.54" width="2.07" height="4.55" fill="#000f3c"/>
        <rect x="326.72" y="166.54" width="2.07" height="4.55" fill="#000f3c"/>
        <rect x="330.45" y="166.54" width="2.07" height="4.55" fill="#000f3c"/>
        <rect x="315.54" y="172.75" width="2.07" height="4.55" fill="#000f3c"/>
        <rect x="319.26" y="172.75" width="2.07" height="4.55" fill="#000f3c"/>
        <rect x="322.99" y="172.75" width="2.07" height="4.55" fill="#000f3c"/>
        <rect x="326.72" y="172.75" width="2.07" height="4.55" fill="#000f3c"/>
        <rect x="330.45" y="172.75" width="2.07" height="4.55" fill="#000f3c"/>
        <rect x="315.54" y="178.97" width="2.07" height="4.55" fill="#000f3c"/>
        <rect x="319.26" y="178.97" width="2.07" height="4.55" fill="#000f3c"/>
        <rect x="322.99" y="178.97" width="2.07" height="4.55" fill="#000f3c"/>
        <rect x="326.72" y="178.97" width="2.07" height="4.55" fill="#000f3c"/>
        <rect x="330.45" y="178.97" width="2.07" height="4.55" fill="#000f3c"/>
        <rect x="315.54" y="185.18" width="2.07" height="4.55" fill="#000f3c"/>
        <rect x="319.26" y="185.18" width="2.07" height="4.55" fill="#000f3c"/>
        <rect x="322.99" y="185.18" width="2.07" height="4.55" fill="#000f3c"/>
        <rect x="326.72" y="185.18" width="2.07" height="4.55" fill="#000f3c"/>
        <rect x="330.45" y="185.18" width="2.07" height="4.55" fill="#000f3c"/>
        <rect x="337.9" y="175.24" width="3.31" height="2.07" fill="#000f3c"/>
        <rect x="342.87" y="175.24" width="3.31" height="2.07" fill="#000f3c"/>
        <rect x="347.84" y="175.24" width="3.31" height="2.07" fill="#000f3c"/>
        <rect x="337.9" y="178.97" width="3.31" height="2.07" fill="#000f3c"/>
        <rect x="342.87" y="178.97" width="3.31" height="2.07" fill="#000f3c"/>
        <rect x="347.84" y="178.97" width="3.31" height="2.07" fill="#000f3c"/>
        <rect x="337.9" y="182.7" width="3.31" height="2.07" fill="#000f3c"/>
        <rect x="342.87" y="182.7" width="3.31" height="2.07" fill="#000f3c"/>
        <rect x="347.84" y="182.7" width="3.31" height="2.07" fill="#000f3c"/>
        <rect x="337.9" y="186.42" width="3.31" height="2.07" fill="#000f3c"/>
        <rect x="342.87" y="186.42" width="3.31" height="2.07" fill="#000f3c"/>
        <rect x="347.84" y="186.42" width="3.31" height="2.07" fill="#000f3c"/>
        <rect x="337.9" y="190.15" width="3.31" height="2.07" fill="#000f3c"/>
        <rect x="342.87" y="190.15" width="3.31" height="2.07" fill="#000f3c"/>
        <rect x="347.84" y="190.15" width="3.31" height="2.07" fill="#000f3c"/>
        <rect x="337.9" y="193.88" width="3.31" height="2.07" fill="#000f3c"/>
        <rect x="342.87" y="193.88" width="3.31" height="2.07" fill="#000f3c"/>
        <rect x="347.84" y="193.88" width="3.31" height="2.07" fill="#000f3c"/>
        <rect x="315.54" y="191.39" width="2.07" height="4.55" fill="#000f3c"/>
        <rect x="319.26" y="191.39" width="2.07" height="4.55" fill="#000f3c"/>
        <rect x="322.99" y="191.39" width="2.07" height="4.55" fill="#000f3c"/>
        <rect x="326.72" y="191.39" width="2.07" height="4.55" fill="#000f3c"/>
        <rect x="330.45" y="191.39" width="2.07" height="4.55" fill="#000f3c"/>
        <path d="m373.61,158.53l9.24,7.68,1.33.23,7.75.91m.35-4.28l-7.75-1.31-.35-.16-5.69-7.64c-2.3-3.59-9.01-3.7-10.06,3l-2.38,17.12c.23,4.37,2.46,11.03,3.51,15.56l3.53,17.31m5.68-44.04l-3.09,15.04,2.9,28.85m-12.45-33.27l-6.48,32.02" fill="none" stroke="#000f3c" stroke-miterlimit="10" stroke-width=".9"/>
        <line x1="369.14" y1="187.94" x2="363.94" y2="205.38" fill="none" stroke="#000f3c" stroke-miterlimit="10" stroke-width=".9"/>
        <line x1="312" y1="205.27" x2="318.48" y2="205.27" fill="none" stroke="#000f3c" stroke-miterlimit="10" stroke-width=".9"/>
        <line x1="344.53" y1="205.27" x2="354.94" y2="205.27" fill="none" stroke="#000f3c" stroke-miterlimit="10" stroke-width=".9"/>
        <polyline points="327.94 205.27 336.05 205.27 336.05 152.82" fill="none" stroke="#000f3c" stroke-miterlimit="10" stroke-width=".9"/>
        <line x1="354.79" y1="171.09" x2="337.52" y2="159.81" fill="none" stroke="#000f3c" stroke-miterlimit="10" stroke-width=".9"/>
        <circle cx="376.92" cy="143.1" r="4.9" fill="none" stroke="#000f3c" stroke-miterlimit="10" stroke-width=".9"/>
        <path d="m423.03,207.55h56.32s0-2.29,0-2.29h-4.48v-43.9s-24.03-12.43-24.03-12.43v7.65s-18.64,12.18-18.64,12.18v36.5h-5.41m40.2,0h-8.28v-5.79h8.28v5.79Zm-19.88,0h-3.31v-4.55h3.31v4.55Z" fill="none" stroke="#000f3c" stroke-miterlimit="10" stroke-width=".9"/>
        <rect x="465.55" y="166.54" width="2.07" height="4.55" fill="#000f3c"/>
        <rect x="461.82" y="166.54" width="2.07" height="4.55" fill="#000f3c"/>
        <rect x="458.09" y="166.54" width="2.07" height="4.55" fill="#000f3c"/>
        <rect x="454.37" y="166.54" width="2.07" height="4.55" fill="#000f3c"/>
        <rect x="465.55" y="172.75" width="2.07" height="4.55" fill="#000f3c"/>
        <rect x="461.82" y="172.75" width="2.07" height="4.55" fill="#000f3c"/>
        <rect x="458.09" y="172.75" width="2.07" height="4.55" fill="#000f3c"/>
        <rect x="454.37" y="172.75" width="2.07" height="4.55" fill="#000f3c"/>
        <rect x="465.55" y="178.97" width="2.07" height="4.55" fill="#000f3c"/>
        <rect x="461.82" y="178.97" width="2.07" height="4.55" fill="#000f3c"/>
        <rect x="458.09" y="178.97" width="2.07" height="4.55" fill="#000f3c"/>
        <rect x="454.37" y="178.97" width="2.07" height="4.55" fill="#000f3c"/>
        <rect x="465.55" y="185.18" width="2.07" height="4.55" fill="#000f3c"/>
        <rect x="461.82" y="185.18" width="2.07" height="4.55" fill="#000f3c"/>
        <rect x="458.09" y="185.18" width="2.07" height="4.55" fill="#000f3c"/>
        <rect x="454.37" y="185.18" width="2.07" height="4.55" fill="#000f3c"/>
        <rect x="445.67" y="175.24" width="3.31" height="2.07" fill="#000f3c"/>
        <rect x="440.7" y="175.24" width="3.31" height="2.07" fill="#000f3c"/>
        <rect x="435.73" y="175.24" width="3.31" height="2.07" fill="#000f3c"/>
        <rect x="445.67" y="178.97" width="3.31" height="2.07" fill="#000f3c"/>
        <rect x="440.7" y="178.97" width="3.31" height="2.07" fill="#000f3c"/>
        <rect x="435.73" y="178.97" width="3.31" height="2.07" fill="#000f3c"/>
        <rect x="445.67" y="182.7" width="3.31" height="2.07" fill="#000f3c"/>
        <rect x="440.7" y="182.7" width="3.31" height="2.07" fill="#000f3c"/>
        <rect x="435.73" y="182.7" width="3.31" height="2.07" fill="#000f3c"/>
        <rect x="445.67" y="186.42" width="3.31" height="2.07" fill="#000f3c"/>
        <rect x="440.7" y="186.42" width="3.31" height="2.07" fill="#000f3c"/>
        <rect x="435.73" y="186.42" width="3.31" height="2.07" fill="#000f3c"/>
        <rect x="445.67" y="190.15" width="3.31" height="2.07" fill="#000f3c"/>
        <rect x="440.7" y="190.15" width="3.31" height="2.07" fill="#000f3c"/>
        <rect x="435.73" y="190.15" width="3.31" height="2.07" fill="#000f3c"/>
        <rect x="445.67" y="193.88" width="3.31" height="2.07" fill="#000f3c"/>
        <rect x="440.7" y="193.88" width="3.31" height="2.07" fill="#000f3c"/>
        <rect x="435.73" y="193.88" width="3.31" height="2.07" fill="#000f3c"/>
        <rect x="465.55" y="191.39" width="2.07" height="4.55" fill="#000f3c"/>
        <rect x="461.82" y="191.39" width="2.07" height="4.55" fill="#000f3c"/>
        <rect x="458.09" y="191.39" width="2.07" height="4.55" fill="#000f3c"/>
        <rect x="454.37" y="191.39" width="2.07" height="4.55" fill="#000f3c"/>
        <path d="m394.95,167.36l7.75-.91,1.33-.23,9.24-7.68m.53,48.43l3.53-17.31c1.05-4.52,3.28-11.19,3.51-15.56l-2.38-17.12c-1.05-6.71-7.76-6.59-10.06-3l-5.69,7.64-.35.16-7.75,1.31m13.7,43.73l2.9-28.85-3.09-15.04m19.12,42.63l-6.48-32.02" fill="none" stroke="#000f3c" stroke-miterlimit="10" stroke-width=".9"/>
        <line x1="417.75" y1="187.94" x2="422.94" y2="205.38" fill="none" stroke="#000f3c" stroke-miterlimit="10" stroke-width=".9"/>
        <line x1="474.89" y1="205.27" x2="468.4" y2="205.27" fill="none" stroke="#000f3c" stroke-miterlimit="10" stroke-width=".9"/>
        <line x1="442.35" y1="205.27" x2="431.95" y2="205.27" fill="none" stroke="#000f3c" stroke-miterlimit="10" stroke-width=".9"/>
        <polyline points="458.94 205.27 450.83 205.27 450.83 152.82" fill="none" stroke="#000f3c" stroke-miterlimit="10" stroke-width=".9"/>
        <line x1="449.36" y1="159.81" x2="432.09" y2="171.09" fill="none" stroke="#000f3c" stroke-miterlimit="10" stroke-width=".9"/>
        <circle cx="409.96" cy="143.1" r="4.9" fill="none" stroke="#000f3c" stroke-miterlimit="10" stroke-width=".9"/>
      </g>
      <circle cx="559.82" cy="167.67" r="4.22" fill="none" stroke="#d34141" stroke-miterlimit="10" stroke-width=".9"/>
      <circle cx="607.8" cy="166.7" r="4.22" fill="none" stroke="#d34141" stroke-miterlimit="10" stroke-width=".9"/>
      <circle cx="600.09" cy="191.53" r="4.22" fill="none" stroke="#d34141" stroke-miterlimit="10" stroke-width=".9"/>
      <circle cx="618.69" cy="191.53" r="4.22" fill="none" stroke="#d34141" stroke-miterlimit="10" stroke-width=".9"/>
      <circle cx="637.28" cy="191.53" r="4.22" fill="none" stroke="#d34141" stroke-miterlimit="10" stroke-width=".9"/>
      <circle cx="716.9" cy="171.83" r="2.31" fill="none" stroke="#335c9c" stroke-miterlimit="10" stroke-width=".9"/>
      <circle cx="748.28" cy="159.5" r="3.91" fill="none" stroke="#335c9c" stroke-miterlimit="10" stroke-width=".9"/>
      <circle cx="767.09" cy="181.23" r="3" fill="none" stroke="#335c9c" stroke-miterlimit="10" stroke-width=".9"/>
      <circle cx="787.19" cy="159.5" r="3.91" fill="none" stroke="#335c9c" stroke-miterlimit="10" stroke-width=".9"/>
      <g>
        <path d="m399.46,78.28c-.03.09-.09.29-.13.78-.19,1.87-.88,3.4-4.05,4.31-.1.03-.17.06-.23.06-.09,0-.12-.06-.2-.22-.12-.22-.29-.42-.48-.53,3.26-.68,3.98-2.03,4.06-3.66.03-.58.04-.88-.03-1.25.35.01.65.04.92.09.13.03.22.07.22.14,0,.1-.04.17-.09.29Zm7.26-5.29c0,.1-.01.12-.12.12-.09,0-.55-.03-1.92-.03h-3.82v1.35h2.49c1.47,0,1.97-.03,2.05-.03.1,0,.12.01.12.12v.58c0,.1-.01.12-.12.12-.07,0-.58-.03-2.05-.03h-5.66c-1.47,0-1.96.03-2.03.03-.1,0-.12-.01-.12-.12v-.58c0-.1.01-.12.12-.12.07,0,.56.03,2.03.03h2.28v-1.35h-3.47c-1.38,0-1.84.03-1.92.03-.1,0-.12-.01-.12-.12v-.6c0-.1.01-.1.12-.1.07,0,.53.01,1.92.01h3.47v-.03c0-.84-.01-1.24-.12-1.76.37.01.66.03,1.01.07.1.01.16.06.16.13s-.03.14-.07.26c-.06.14-.09.48-.09,1.15v.17h3.82c1.37,0,1.83-.01,1.92-.01.1,0,.12,0,.12.1v.6Zm-.32,4.55c0,1.09.03,1.24.03,1.31,0,.1-.01.12-.12.12h-.66c-.1,0-.12-.01-.12-.12v-1.67h-9.88v1.67c0,.1-.01.12-.12.12h-.66c-.1,0-.12-.01-.12-.12,0-.09.03-.23.03-1.31v-.4c0-.37-.03-.55-.03-.63,0-.1.01-.1.12-.1.07,0,.58.01,2,.01h7.43c1.41,0,1.92-.01,2-.01.1,0,.12,0,.12.1,0,.09-.03.26-.03.56v.48Zm-4.18,4.16c0,.39.09.48.3.53.23.07.55.1,1.35.1s1.31-.06,1.56-.23c.32-.23.39-.69.4-1.53.19.13.38.23.59.3.25.09.25.1.22.36-.12.89-.26,1.24-.63,1.53-.33.26-.96.39-2.17.39-1.04,0-1.48-.04-1.9-.17-.26-.07-.58-.27-.58-.89v-2.88c0-.62-.04-1.2-.09-1.48.35.01.68.04.91.07.13.01.2.09.2.13,0,.1-.04.17-.09.27-.06.13-.07.26-.07.94v2.56Z" fill="#fff"/>
        <path d="m414.41,77.1c1.04-.68,2.06-1.02,3.1-1.02,2.07,0,3.36,1.28,3.36,3.15,0,2.15-1.7,3.7-4.75,3.7-1.73,0-2.51-.78-2.51-1.7,0-.75.66-1.47,1.68-1.47,1.3,0,2.18.84,2.45,2.06,1.24-.4,2.1-1.21,2.1-2.62s-1.12-2.36-2.49-2.36-2.85.73-3.96,1.63c-.46.36-.83.75-1.27,1.18-.12.12-.19.13-.29.03-.17-.17-.39-.39-.53-.58-.06-.07-.04-.13.06-.22,1.14-.99,1.87-1.73,3.25-3.21.84-.91,1.7-1.83,2.81-3.14-1.2.19-2.32.4-3.6.65-.19.03-.36.07-.5.13-.1.04-.22.07-.27.07-.1,0-.17-.06-.23-.17-.13-.26-.23-.53-.35-.99.48.06.88.06,1.27.01,1.14-.12,2.32-.27,3.59-.52.17-.03.35-.07.45-.13.06-.04.14-.1.2-.1.07,0,.14.03.26.12.27.22.49.43.62.6.07.09.1.17.1.25,0,.12-.07.22-.22.27-.19.06-.35.16-.68.5-1.28,1.35-2.25,2.36-3.69,3.83l.04.04Zm.91,3.44c-.46,0-.88.23-.88.68,0,.48.52.88,1.48.88.32,0,.61-.01.94-.07-.19-.82-.72-1.48-1.54-1.48Z" fill="#fff"/>
      </g>
      <g>
        <path d="m453.32,72.9c-.53.45-1.18.89-1.99,1.33-.1.04-.16.07-.22.07-.07,0-.12-.06-.2-.2-.1-.17-.2-.29-.33-.39,1.4-.63,2.81-1.73,3.59-2.77.1-.13.22-.32.3-.5.27.09.5.19.71.3.12.06.14.12.14.19,0,.09-.07.13-.17.19-.09.04-.17.13-.33.3l-.66.72v1.87c0,.72.03.98.03,1.05,0,.1-.01.12-.12.12h-.66c-.1,0-.12-.01-.12-.12,0-.09.03-.3.03-.98v-1.18Zm2.17,9.25c-.13.03-.29.1-.45.19-.92.5-2.16.91-3.39,1.15-.27.04-.32.04-.42-.17-.1-.22-.25-.37-.38-.49,1.24-.19,2.55-.53,3.37-.95.19-.1.36-.22.52-.37.35.14.53.23.75.35.1.06.14.1.14.17,0,.06-.06.12-.16.13Zm5.91-2.38c0,1.01.03,1.38.03,1.47,0,.1-.01.12-.12.12-.09,0-.58-.03-2-.03h-4.26c-1.43,0-1.92.03-2,.03-.1,0-.12-.01-.12-.12,0-.09.03-.46.03-1.47v-2.51c0-1.02-.03-1.4-.03-1.47,0-.1.01-.12.12-.12.09,0,.58.03,2,.03h4.26c1.43,0,1.92-.03,2-.03.1,0,.12.01.12.12,0,.07-.03.45-.03,1.47v2.51Zm-.82-3.4h-6.8v.99h6.8v-.99Zm0,1.61h-6.8v.99h6.8v-.99Zm0,1.61h-6.8v1.07h6.8v-1.07Zm-1.46-6.55c.26.29.55.58.88.85.71.59,1.37.85,2,.85.53,0,.76-.24.92-1.31.14.13.3.23.45.3.25.13.27.16.22.42-.27,1.17-.81,1.4-1.41,1.4-1.07,0-1.86-.33-2.72-1.05-.5-.42-.92-.85-1.27-1.34l-1.04.12c-1.37.16-1.81.24-1.93.26-.1.01-.12,0-.13-.1l-.06-.56c-.01-.1,0-.1.1-.12.13-.01.58-.03,1.94-.2l.68-.09c-.2-.36-.38-.75-.53-1.18-.13-.32-.23-.58-.35-.79.32-.01.62-.03.86-.03.17,0,.26.04.26.12s-.03.13-.03.2c0,.13.06.37.13.56.14.36.32.69.52,1.02l2.19-.27c1.37-.17,1.83-.27,1.93-.29.1-.01.1,0,.12.1l.07.58c.01.1,0,.13-.12.13-.1,0-.59.06-1.96.22l-1.73.22Zm.07,8.58c.14-.09.19-.09.29-.03,1.04.65,2.36.99,3.85,1.2-.14.13-.27.29-.4.52-.12.22-.14.22-.43.17-1.15-.22-2.69-.72-3.76-1.44-.1-.06-.12-.1.09-.22l.38-.2Zm1.7-9.92c-.13.14-.14.16-.25.09-.46-.35-.95-.62-1.54-.85-.1-.04-.1-.06.01-.2l.22-.25c.1-.12.14-.12.25-.07.56.22,1.02.45,1.56.78.1.07.12.1,0,.23l-.25.27Z" fill="#fff"/>
        <path d="m480.81,73.99c0,.13-.04.14-.19.14-1.54-.04-2.95-.06-4.58,0,0,.91,0,1.9.01,2.87.12.45.17.96.17,1.51,0,1.81-.78,3.36-2.81,4.45-.14.09-.26.13-.33.13-.09,0-.17-.04-.26-.12-.16-.14-.42-.32-.66-.4,2.06-.85,3.01-2.17,3.14-3.63-.32.55-.94.82-1.58.82-.99,0-1.9-.66-1.9-2.03,0-1.22.91-2,1.97-2,.55,0,1.05.16,1.35.49-.01-.71-.01-1.35-.03-2.03-2.06.12-4,.26-5.37.43-.35.04-.52.14-.63.14-.09,0-.14-.04-.17-.14-.09-.19-.16-.53-.23-.92.49.03.96-.01,1.81-.09,1.17-.09,2.65-.19,4.57-.3-.01-.59-.01-.88-.03-1.34-.01-.36-.04-.59-.14-.96.43.03.85.1,1.09.16.16.04.26.12.26.22,0,.09-.04.16-.1.26s-.09.2-.1.39c-.03.32-.03.59-.03,1.22,1.6-.04,3.01-.04,4.61-.04.13,0,.16.01.16.16v.62Zm-8.14,3.72c0,.79.52,1.24,1.17,1.24.81,0,1.31-.62,1.31-1.27,0-.72-.53-1.22-1.28-1.22-.63,0-1.2.48-1.2,1.25Z" fill="#fff"/>
      </g>
      <rect x="697.75" y="65" width="53.41" height="24.54" rx="12.27" ry="12.27" fill="#6287a6"/>
      <rect x="755.51" y="65" width="53.41" height="24.54" rx="12.27" ry="12.27" fill="#6287a6"/>
      <g>
        <path d="m712.81,80.65c.29.71.62,1.08,1.28,1.38.52.23,1.61.37,2.98.37,1.84,0,3.83-.09,5.96-.29-.14.17-.23.38-.26.59q-.06.29-.35.32c-1.86.12-3.59.17-5.04.17-1.64,0-2.92-.16-3.62-.48-.66-.3-1.04-.73-1.37-1.41-.45.48-.95.92-1.53,1.38-.17.13-.27.23-.32.3-.06.09-.12.13-.17.13s-.12-.04-.17-.13c-.14-.23-.27-.45-.4-.73.38-.19.59-.32.89-.53.42-.3.85-.68,1.27-1.14v-3.6h-1.02c-.73,0-.92.03-.98.03-.12,0-.13-.01-.13-.13v-.62c0-.1.01-.12.13-.12.06,0,.25.03.98.03h.75c.75,0,.95-.03,1.02-.03.1,0,.12.01.12.12,0,.07-.03.45-.03,1.37v3.01Zm-1.94-9.45c.16-.1.17-.12.26-.03.59.58,1.12,1.24,1.64,2.02.06.09.04.12-.1.23l-.35.27c-.19.13-.2.13-.27.01-.49-.81-1.04-1.51-1.6-2.07-.09-.07-.07-.09.09-.2l.33-.23Zm11.47,1.12c0,1.11.03,1.24.03,1.33s-.01.1-.12.1h-.62c-.1,0-.12-.01-.12-.1v-1.69h-7.29v1.69c0,.09-.01.1-.12.1h-.61c-.1,0-.12-.01-.12-.1s.03-.22.03-1.33v-.36c0-.37-.03-.55-.03-.63,0-.1.01-.12.12-.12.07,0,.59.03,2.05.03h4.65c1.46,0,1.97-.03,2.04-.03.1,0,.12.01.12.12,0,.09-.03.26-.03.56v.43Zm-.04,8.04c0,.1-.01.12-.12.12-.07,0-.56-.03-2.02-.03h-2.02v.06c0,.82.03,1.14.03,1.22s-.01.12-.12.12h-.6c-.09,0-.12-.03-.12-.12s.03-.4.03-1.22v-.06h-1.79c-1.44,0-1.93.03-2.02.03-.1,0-.12-.01-.12-.12v-.53c0-.1.01-.12.12-.12.09,0,.58.03,2.02.03h1.79v-.91h-1.04c-1.33,0-1.79.03-1.87.03s-.1-.01-.1-.12c0-.09.01-.38.01-1.22v-1.43c0-.85-.01-1.14-.01-1.21,0-.1.01-.12.1-.12s.55.03,1.87.03h1.04v-.88h-1.02c-1.14,0-1.57.03-1.64.03-.1,0-.12-.01-.12-.12v-.5c0-.1.01-.12.12-.12.07,0,.5.03,1.64.03h1.02c0-.35-.03-.66-.09-.96.33.01.55.03.85.07.09.01.16.04.16.1,0,.07-.01.12-.06.2-.06.12-.09.24-.09.53v.06h1.25c1.14,0,1.57-.03,1.64-.03.1,0,.12.01.12.12v.5c0,.1-.01.12-.12.12-.07,0-.5-.03-1.64-.03h-1.25v.88h1.21c1.33,0,1.79-.03,1.87-.03.1,0,.12.01.12.12,0,.07-.03.36-.03,1.21v1.43c0,.85.03,1.14.03,1.22,0,.1-.01.12-.12.12-.09,0-.55-.03-1.87-.03h-1.21v.91h2.02c1.45,0,1.94-.03,2.02-.03.1,0,.12.01.12.12v.53Zm-4.93-4.93h-2.23v1.02h2.23v-1.02Zm0,1.64h-2.23v1.12h2.23v-1.12Zm3.17-1.64h-2.39v1.02h2.39v-1.02Zm0,1.64h-2.39v1.12h2.39v-1.12Z" fill="#fff"/>
        <path d="m739.94,74.19c0,1.25.03,1.44.03,1.51,0,.1-.01.12-.12.12h-.65c-.1,0-.12-.01-.12-.12v-2.12h-9.97v2.12c0,.1-.01.12-.12.12h-.65c-.1,0-.12-.01-.12-.12,0-.09.03-.27.03-1.51v-.48c0-.48-.03-.69-.03-.76,0-.1.01-.12.12-.12.09,0,.59.03,2,.03h6.06c.39-.61.69-1.17.96-1.76.07-.14.14-.37.19-.59.33.1.62.2.82.29.12.06.17.1.17.17,0,.09-.03.13-.12.17-.1.06-.2.2-.3.37-.26.46-.55.95-.82,1.34h.53c1.4,0,1.9-.03,1.99-.03.1,0,.12.01.12.12,0,.07-.03.29-.03.68v.56Zm-1.11,7.13c0,1.67.01,1.94.01,2.03s0,.1-.1.1h-.66c-.1,0-.12-.01-.12-.1v-.55h-7.72v.61c0,.09-.01.1-.1.1h-.68c-.1,0-.12-.01-.12-.1s.03-.36.03-2.06v-.76c0-.81-.03-1.11-.03-1.18,0-.1.01-.12.12-.12.09,0,.59.01,2.06.01h1.3c.2-.43.4-.95.55-1.41h-.78c-1.33,0-1.79.03-1.87.03s-.1-.01-.1-.12c0-.09.03-.29.03-.98v-.95c0-.69-.03-.91-.03-.98,0-.1.01-.12.1-.12s.55.03,1.87.03h3c1.33,0,1.79-.03,1.87-.03s.1.01.1.12c0,.07-.03.29-.03.98v.95c0,.69.03.91.03.98,0,.1-.01.12-.1.12s-.55-.03-1.87-.03h-1.33c-.17.53-.36,1.01-.55,1.41h2.97c1.46,0,1.97-.01,2.06-.01.1,0,.1.01.1.12,0,.07-.01.38-.01,1.02v.89Zm-8.56-10.63c.14-.06.19-.06.25.01.39.46.69.98.98,1.54.04.09.04.1-.12.17l-.4.19c-.19.09-.22.09-.29-.1-.17-.4-.58-1.11-.91-1.48-.07-.09-.07-.12.12-.19l.37-.14Zm7.69,9.36h-7.72v2h7.72v-2Zm-1.27-4.55h-5.21v1.7h5.21v-1.7Zm-3.05-4.97c.12-.04.14-.03.22.06.33.46.59.91.85,1.56.04.1.04.12-.14.2l-.38.17c-.19.09-.2.07-.26-.07-.17-.46-.49-1.14-.81-1.58-.07-.1-.04-.12.12-.17l.4-.16Z" fill="#fff"/>
      </g>
      <g>
        <path d="m772.68,72.35c0,.1-.01.12-.12.12-.09,0-.43-.03-1.56-.03h-.5c.2.35.38.73.55,1.17.03.09,0,.12-.13.16l-.45.14c-.17.06-.2.04-.23-.07-.14-.45-.33-.94-.58-1.4h-1.31c-.35.5-.74.95-1.2,1.38-.1.09-.16.13-.2.13-.06,0-.12-.04-.22-.13-.16-.14-.3-.23-.46-.29.89-.75,1.48-1.5,1.94-2.48.09-.17.14-.37.17-.59.3.04.55.1.79.17.1.03.14.09.14.14,0,.07-.04.13-.09.17-.09.09-.13.16-.23.36-.07.16-.16.29-.23.43h2.22c1.12,0,1.47-.03,1.56-.03.1,0,.12.01.12.12v.52Zm5.83,3.24c0,1.05.03,1.21.03,1.28,0,.1-.01.12-.12.12h-.65c-.1,0-.12-.01-.12-.12v-1.63h-9.84v1.63c0,.1-.01.12-.12.12h-.65c-.1,0-.12-.01-.12-.12,0-.09.03-.23.03-1.28v-.37c0-.36-.03-.53-.03-.6,0-.1.01-.12.12-.12.09,0,.59.03,2,.03h3.11c0-.39-.01-.73-.1-1.08.35,0,.68.03.91.07.12.01.17.06.17.12,0,.09-.03.14-.09.26-.06.13-.06.36-.06.63h3.4c1.43,0,1.93-.03,2.02-.03.1,0,.12.01.12.12,0,.07-.03.24-.03.55v.43Zm-1.44,6.71c0,.79.03,1.02.03,1.09,0,.1-.01.12-.12.12h-.63c-.1,0-.12-.01-.12-.12v-.59h-6.29v.61c0,.09-.01.1-.12.1h-.63c-.1,0-.12-.01-.12-.1s.03-.5.03-1.7v-3.77c0-1.2-.03-1.63-.03-1.71,0-.1.01-.12.12-.12.09,0,.68.03,2,.03h3c1.3,0,1.8-.03,1.87-.03.1,0,.12.01.12.12,0,.09-.03.32-.03.95v.63c0,.63.03.88.03.96s-.01.1-.12.1c-.07,0-.58-.03-1.87-.03h-4.25v1.09h4.98c1.37,0,1.97-.03,2.06-.03.1,0,.12.01.12.12,0,.09-.03.35-.03,1.12v1.15Zm-1.76-5.47h-5.37v1.33h5.37v-1.33Zm.92,3.79h-6.29v1.5h6.29v-1.5Zm2.75-8.27c0,.1-.01.12-.12.12-.07,0-.49-.03-1.79-.03h-.99c.22.35.4.72.61,1.17.04.09.01.13-.13.17l-.42.12c-.16.04-.19.03-.23-.07-.17-.48-.37-.95-.63-1.38h-1.37c-.16.29-.35.56-.55.85-.09.1-.13.16-.19.16-.04,0-.12-.04-.23-.13-.16-.1-.3-.16-.49-.2.58-.71.92-1.31,1.21-2.06.06-.14.12-.37.16-.62.32.04.58.1.78.16.1.03.17.07.17.16,0,.07-.04.12-.12.17-.09.07-.13.19-.22.39-.06.14-.12.3-.19.43h2.82c1.3,0,1.71-.03,1.79-.03.1,0,.12.01.12.12v.52Z" fill="#fff"/>
        <path d="m786.68,79.54c.63-.27,1.22-.58,1.8-.91-.03.16-.04.36-.04.55q.01.3-.23.45c-.92.52-2.15,1.08-3.21,1.5-.3.12-.46.19-.52.23s-.12.09-.19.09c-.04,0-.1-.03-.14-.13-.1-.24-.19-.52-.26-.82.39-.06.81-.17,1.33-.36l.62-.23v-3.6h-.23c-.94,0-1.21.03-1.28.03-.1,0-.12-.01-.12-.12v-.61c0-.1.01-.12.12-.12.07,0,.35.03,1.28.03h.23v-3.08h-.33c-1.01,0-1.31.03-1.4.03s-.1-.01-.1-.12v-.62c0-.1.01-.12.1-.12s.39.03,1.4.03h1.47c1.02,0,1.31-.03,1.38-.03.1,0,.12.01.12.12v.62c0,.1-.01.12-.12.12-.07,0-.36-.03-1.38-.03h-.29v3.08h.16c.94,0,1.21-.03,1.3-.03.1,0,.1.01.1.12v.61c0,.1,0,.12-.1.12-.09,0-.36-.03-1.3-.03h-.16v3.24Zm10.27,3.14c0,.1-.01.12-.1.12-.07,0-.58-.03-2.05-.03h-5.27c-1.47,0-1.97.03-2.05.03-.1,0-.12-.01-.12-.12v-.63c0-.1.01-.12.12-.12.07,0,.58.03,2.05.03h2.46v-1.87h-1.11c-1.35,0-1.8.03-1.89.03-.1,0-.12-.01-.12-.12v-.62c0-.1.01-.12.12-.12.09,0,.53.03,1.89.03h1.11v-1.64h-1.11c-1.34,0-1.81.03-1.89.03-.12,0-.13-.01-.13-.1s.03-.49.03-1.58v-2.91c0-1.08-.03-1.47-.03-1.56,0-.1.01-.12.13-.12.07,0,.55.03,1.89.03h3.2c1.34,0,1.8-.03,1.89-.03.1,0,.12.01.12.12,0,.07-.03.48-.03,1.56v2.91c0,1.09.03,1.5.03,1.58s-.01.1-.12.1c-.09,0-.55-.03-1.89-.03h-1.25v1.64h1.34c1.35,0,1.8-.03,1.89-.03.1,0,.12.01.12.12v.62c0,.1-.01.12-.12.12-.09,0-.53-.03-1.89-.03h-1.34v1.87h1.97c1.47,0,1.97-.03,2.05-.03.09,0,.1.01.1.12v.63Zm-4.96-10.49h-2.28v1.96h2.28v-1.96Zm0,2.68h-2.28v2.03h2.28v-2.03Zm3.23-2.68h-2.39v1.96h2.39v-1.96Zm0,2.68h-2.39v2.03h2.39v-2.03Z" fill="#fff"/>
      </g>
      <polygon points="501.35 257.36 504.31 266.04 501.35 274.73 515.24 266.04 501.35 257.36" fill="#6287a6"/>
      <polygon points="833.55 257.36 836.51 266.04 833.55 274.73 847.44 266.04 833.55 257.36" fill="#af3836"/>
      <polygon points="276.7 257.36 279.66 266.04 276.7 274.73 290.59 266.04 276.7 257.36" fill="#6287a6"/>
    </g>
  </g>
</svg>