<?xml version="1.0" encoding="UTF-8"?>
<svg id="_レイヤー_2" data-name="レイヤー 2" xmlns="http://www.w3.org/2000/svg" viewBox="0 0 650 296">
  <g id="_デザイン" data-name="デザイン">
    <g>
      <g opacity=".75">
        <rect width="650" height="296" rx="9.99" ry="9.99" fill="#fff"/>
      </g>
      <rect x="275.22" y="46.94" width="38.57" height="17.73" rx="8.86" ry="8.86" fill="#6287a6"/>
      <rect x="316.94" y="46.94" width="38.57" height="17.73" rx="8.86" ry="8.86" fill="#6287a6"/>
      <rect x="132" y="46.94" width="38.57" height="17.73" rx="8.86" ry="8.86" fill="#6287a6"/>
      <path d="m280.97,244.41H127.34c-1.99,0-3.61-1.62-3.61-3.61v-16.89" fill="none" stroke="#af3836" stroke-miterlimit="10" stroke-width=".72"/>
      <polygon points="117.45 226.75 123.73 224.62 130 226.75 123.73 216.72 117.45 226.75" fill="#af3836"/>
      <polygon points="279.7 226.75 285.98 224.62 292.25 226.75 285.98 216.72 279.7 226.75" fill="#af3836"/>
      <path d="m285.98,223.52v17.28c0,1.99,1.62,3.61,3.61,3.61h194.21c1.99,0,3.61-1.62,3.61-3.61v-24.07" fill="none" stroke="#af3836" stroke-miterlimit="10" stroke-width=".72"/>
      <rect x="381.54" y="175.7" width="211.74" height="32.88" fill="#af3836"/>
      <rect x="57.05" y="175.7" width="133.36" height="32.88" fill="#6287a6"/>
      <rect x="219.3" y="175.7" width="133.36" height="32.88" fill="#6287a6"/>
      <path d="m461.84,95.73h16.34c1.73,0,3.14,1.41,3.14,3.14v56.19c0,1.73-1.41,3.14-3.14,3.14h-93.5c-1.73,0-3.14-1.41-3.14-3.14v-56.19c0-1.73,1.41-3.14,3.14-3.14h16.81" fill="none" stroke="#c34141" stroke-miterlimit="10" stroke-width=".63"/>
      <g>
        <path d="m225.72,51.75c.14-.16.18-.14.3-.08.95.53,1.9,1.25,2.81,2.1.1.1.1.12-.08.34l-.4.53c-.16.22-.2.24-.32.12-.81-.85-1.78-1.64-2.73-2.2-.12-.08-.1-.12.04-.32l.38-.48Zm1.66,11.22c-.22.42-.38.69-.42.87-.04.14-.1.2-.2.2-.06,0-.14-.02-.28-.12-.34-.24-.57-.4-.91-.71.4-.44.73-.89,1.13-1.6.49-.93,1.23-2.49,2.02-4.51.16.18.4.42.61.61q.32.26.2.63c-.69,1.7-1.42,3.26-2.14,4.63Zm-.67-16.21c.14-.16.2-.18.34-.1.93.61,1.88,1.4,2.69,2.22.12.12.1.14-.08.36l-.38.53c-.16.22-.2.22-.3.12-.83-.87-1.82-1.74-2.71-2.35-.14-.1-.12-.12.06-.32l.38-.47Zm6.47,9.54c-.04.18-.08.51-.08.97-.04,2.49-.53,5.09-3.4,6.77-.16.1-.24.16-.32.16s-.16-.08-.3-.22c-.22-.22-.45-.4-.75-.55,2.79-1.31,3.58-3.42,3.6-6.17,0-.65-.02-1.11-.1-1.68.42.02.83.04,1.13.1.2.04.34.08.34.2s-.1.26-.12.4Zm9.73-6.63c0,.14-.02.16-.16.16-.1,0-.79-.04-2.83-.04h-3.92c-.46,1.21-.97,2.35-1.56,3.44,1.98-.16,3.88-.36,5.48-.59-.4-.42-.81-.83-1.27-1.25-.12-.12-.08-.16.1-.3l.46-.34c.14-.12.2-.1.32,0,1.25,1.09,2.26,2.2,3.3,3.6.1.14.08.16-.1.32l-.53.42c-.2.16-.28.16-.38.02-.36-.55-.73-1.07-1.13-1.56-2.75.4-5.8.73-8.71.97-.57.04-.75.12-.87.18-.08.04-.16.08-.26.08-.08,0-.14-.08-.2-.22-.1-.36-.2-.79-.26-1.17.73.04,1.42.02,2.02-.02l.75-.04c.67-1.27,1.15-2.47,1.54-3.54h-1.13c-2.04,0-2.71.04-2.83.04-.14,0-.16-.02-.16-.16v-.83c0-.14.02-.16.16-.16.12,0,.79.04,2.83.04h2.18v-.67c0-.73-.02-1.25-.14-1.84.51.02.91.06,1.35.12.16.02.24.1.24.18,0,.14-.06.24-.12.38-.08.2-.1.38-.1,1.13v.69h2.95c2.04,0,2.73-.04,2.83-.04.14,0,.16.02.16.16v.83Zm-7.56,8.59c0-1.27-.02-1.94-.14-2.65.4.02.91.06,1.25.12.14.02.24.08.24.2,0,.1-.06.2-.1.38-.06.22-.12.73-.12,1.92v2.63c0,1.76.04,2.37.04,2.49,0,.14-.02.16-.16.16h-.89c-.14,0-.16-.02-.16-.16,0-.12.04-.73.04-2.49v-2.61Zm4.81,3.96c0,.34.04.47.2.57.16.08.38.12.79.12.55,0,.89-.08,1.07-.36.22-.32.28-.85.32-2.16.16.14.38.26.69.38.32.12.34.16.32.53-.08,1.27-.26,1.82-.57,2.14-.32.32-.79.57-1.94.57-.79,0-1.13-.04-1.48-.2s-.57-.46-.57-1.21v-4.89c0-1.09-.02-1.7-.12-2.22.46.02.83.04,1.23.1.18.02.26.1.26.18,0,.16-.06.24-.12.4-.08.2-.1.34-.1,1.66v4.41Z" fill="#af3836"/>
        <path d="m252.39,60.2c.4.99.85,1.52,1.78,1.94.71.34,2.12.55,4.04.55,2.59,0,5.68-.14,8.67-.47-.2.24-.3.61-.38.97q-.06.4-.46.42c-2.65.18-5.3.26-7.36.26-2.18,0-4.08-.22-4.95-.67-.93-.44-1.52-1.03-1.94-1.98-.65.71-1.25,1.27-2.02,1.96-.24.2-.32.36-.38.46-.06.12-.14.16-.22.16s-.16-.06-.24-.16c-.22-.3-.46-.73-.65-1.13.55-.24.85-.44,1.25-.75.57-.42,1.15-.97,1.72-1.6v-5.01h-1.38c-1.01,0-1.25.04-1.33.04-.14,0-.16-.02-.16-.18v-.89c0-.12.02-.14.16-.14.08,0,.32.04,1.33.04h1.03c1.01,0,1.27-.04,1.38-.04.14,0,.16.02.16.14s-.04.63-.04,1.92v4.15Zm-2.73-13.16c.18-.12.22-.12.34,0,.85.81,1.58,1.72,2.29,2.81.08.14.08.16-.14.32l-.49.36c-.24.18-.3.18-.38.04-.69-1.17-1.44-2.14-2.22-2.93-.12-.1-.1-.14.12-.28l.48-.32Zm12.62,3.68c1.94,0,2.61-.04,2.73-.04.14,0,.16.02.16.16,0,.12-.04.87-.04,2.59v3.23c0,1.4.02,2.33.02,2.97,0,.61-.08,1.01-.44,1.29-.34.24-.73.36-1.98.38-.38,0-.4,0-.49-.34-.08-.36-.18-.63-.36-.83.61.06,1.01.06,1.42.06.51,0,.71-.18.71-.73v-1.84h-3.84v.95c0,1.64.04,2.3.04,2.43,0,.14-.02.16-.14.16h-.87c-.14,0-.16-.02-.16-.16,0-.12.04-.79.04-2.43v-.95h-3.5v1.15c0,1.64.04,2.33.04,2.45,0,.14-.02.16-.16.16h-.87c-.14,0-.16-.02-.16-.16,0-.12.04-.73.04-2.43v-5.5c0-1.7-.04-2.35-.04-2.47,0-.14.02-.16.16-.16.1,0,.79.04,2.73.04h1.92c-.75-.63-1.42-1.05-2.3-1.58-.14-.08-.16-.16.06-.32l.4-.32c.16-.14.2-.12.34-.04.75.48,1.44.97,2.18,1.6.99-.67,1.88-1.38,2.83-2.18h-5.8c-1.92,0-2.55.04-2.65.04-.14,0-.16-.02-.16-.16v-.77c0-.16.02-.18.16-.18.1,0,.73.04,2.65.04h5.98c.24,0,.38-.02.49-.06.12-.06.16-.08.24-.08.12,0,.28.12.57.4.32.32.42.49.42.63s-.08.22-.26.28c-.22.06-.4.2-.71.44-.95.79-1.84,1.46-3.03,2.24l.04.02h1.6Zm-3.21.95h-3.5v2.04h3.5v-2.04Zm0,2.97h-3.5v2.04h3.5v-2.04Zm4.93-2.97h-3.84v2.04h3.84v-2.04Zm0,2.97h-3.84v2.04h3.84v-2.04Z" fill="#af3836"/>
      </g>
      <rect x="407.6" y="89.89" width="47.66" height="15.33" fill="#c34141"/>
      <g>
        <path d="m424.68,97.68c0-.34,0-.81.02-1.24-.19.32-.39.63-.63.93-.05.07-.08.09-.1.09-.03,0-.05-.04-.08-.1-.07-.18-.12-.29-.21-.4.79-.93,1.26-2.06,1.61-3.19.07-.23.11-.43.13-.64.21.06.38.11.54.19.07.03.11.06.11.11,0,.05-.04.08-.09.13-.05.05-.11.15-.18.36-.18.52-.36,1.02-.58,1.53v4.59c0,.99.02,1.41.02,1.45,0,.07,0,.08-.08.08h-.42c-.07,0-.08,0-.08-.08,0-.05.02-.47.02-1.45v-2.36Zm4.71-2.34c0,.07,0,.08-.07.08-.05,0-.29-.02-1.05-.02h-.4v.59h.37c.71,0,.95-.02,1-.02.07,0,.08,0,.08.08,0,.05-.02.23-.02.78v.86c0,.53.02.71.02.77,0,.07,0,.08-.08.08-.05,0-.28-.02-1-.02h-.37v.61h.27c.71,0,.94-.02.99-.02.07,0,.08,0,.08.08v.32c0,.07,0,.08-.08.08-.05,0-.27-.02-.99-.02h-.27v.67c.4-.07.83-.14,1.26-.24-.02.09-.05.18-.06.28q-.02.19-.22.23c-.68.15-1.64.3-2.44.41-.21.03-.36.07-.4.1-.03.02-.07.05-.12.05-.03,0-.07-.06-.08-.12-.05-.14-.08-.29-.11-.49.24,0,.5,0,.86-.04.23-.02.53-.06.84-.1v-.74h-.42c-.71,0-.94.02-.99.02-.07,0-.08,0-.08-.08v-.32c0-.07,0-.08.08-.08.05,0,.27.02.99.02h.42v-.61h-.3c-.72,0-.96.02-1,.02-.07,0-.08,0-.08-.08,0-.06.02-.24.02-.77v-.86c0-.54-.02-.73-.02-.78,0-.07,0-.08.08-.08.05,0,.28.02,1,.02h.3v-.59h-.48c-.76,0-1,.02-1.05.02-.07,0-.08,0-.08-.08v-.33c0-.07,0-.08.08-.08.05,0,.29.02,1.05.02h.48v-.65c-.33.06-.66.1-.98.14-.16.02-.16,0-.23-.13-.06-.12-.13-.21-.21-.29.88-.06,1.8-.2,2.52-.41.14-.04.26-.09.38-.17.14.11.23.21.33.32.04.05.06.08.06.12s-.05.07-.12.07c-.08,0-.17,0-.26.04-.32.08-.67.16-1.02.23v.73h.4c.76,0,1-.02,1.05-.02.06,0,.07,0,.07.08v.33Zm-1.99,1.05h-.9v.65h.9v-.65Zm0,1.04h-.9v.68h.9v-.68Zm1.45-1.04h-.98v.65h.98v-.65Zm0,1.04h-.98v.68h.98v-.68Zm2.47-1.99c.63,0,.82-.02.86-.02.07,0,.08.02.08.08-.02.29-.02.55-.02.84-.02,1.42-.08,2.97-.23,4.13-.1.64-.35.95-.92.95-.22,0-.39,0-.59-.03q-.13,0-.16-.21c-.02-.15-.06-.26-.12-.38.28.06.54.08.81.08.32,0,.42-.21.5-.66.15-1.01.22-2.59.22-4.3h-.83c-.05.88-.14,1.78-.3,2.56-.23,1.14-.66,2.05-1.51,2.9-.05.06-.08.08-.1.08s-.07-.04-.12-.09c-.11-.1-.22-.17-.33-.23.92-.78,1.35-1.73,1.59-2.83.13-.6.23-1.47.27-2.39-.56,0-.73.02-.78.02-.07,0-.08,0-.08-.08v-.38c0-.07,0-.08.08-.08.05,0,.22.02.8.02,0-.34.02-.69.02-1.01,0-.58-.02-.84-.07-1.15.19,0,.42.03.57.06.08.02.11.06.11.09,0,.06-.03.11-.06.2-.04.1-.06.38-.06.87,0,.31,0,.63-.02.95h.38Z" fill="#fff"/>
        <path d="m438.31,93.93s.07.08.07.12c0,.06-.04.09-.09.12-.11.05-.21.11-.35.24-.92.83-2.06,1.9-2.77,2.65-.09.09-.13.17-.13.23s.04.11.12.17c1.15.85,2.4,1.86,3.62,3.1.07.08.08.09,0,.19-.11.13-.26.27-.36.36-.08.06-.11.07-.18-.02-1.22-1.34-2.43-2.35-3.54-3.18-.25-.2-.37-.37-.37-.59s.11-.38.33-.61c.76-.81,1.78-1.8,2.62-2.65.19-.2.3-.36.41-.58.22.14.47.32.6.45Z" fill="#fff"/>
      </g>
      <g>
        <path d="m464.85,187.16h-4.87l-.13,2.87c-.02.43-.07.96-.1,1.38.45-.71,1.3-1.2,2.24-1.2,1.86,0,3.31,1.55,3.31,3.9,0,2.61-1.6,4.15-3.64,4.15-1.71,0-2.92-.78-3.46-2.36l1.35-.5c.32,1.18,1.03,1.73,2.09,1.73,1.35,0,2.23-1.1,2.23-2.97s-.81-2.82-2.11-2.82c-.93,0-1.71.56-2.04,1.56l-1.13-.17.28-6.73h5.98v1.15Z" fill="#fff"/>
        <path d="m475.69,191.97c0,4.4-1.3,6.3-3.66,6.3s-3.64-1.86-3.64-6.26,1.35-6.2,3.67-6.2,3.62,1.78,3.62,6.17Zm-5.88.02c0,3.72.73,5.13,2.23,5.13s2.24-1.41,2.24-5.13-.71-5.03-2.21-5.03-2.26,1.3-2.26,5.03Z" fill="#fff"/>
        <path d="m494.48,195.48c0,.12-.02.13-.13.13-.08,0-.62-.03-2.18-.03h-3.74v1.11c0,1.84.03,2.66.03,2.74,0,.12-.02.12-.12.12h-.83c-.13,0-.15,0-.15-.12,0-.1.03-.9.03-2.74v-1.11h-5.05c-1.56,0-2.09.03-2.18.03-.12,0-.13-.02-.13-.13v-.75c0-.12.02-.13.13-.13.08,0,.62.03,2.18.03h.5v-2.44c0-.96-.03-1.35-.03-1.45,0-.12.02-.13.13-.13.08,0,.67.03,2.33.03h2.13v-2.74h-3.79c-.58.88-1.26,1.73-2.11,2.58-.1.12-.17.18-.22.18s-.12-.07-.23-.2c-.17-.2-.37-.35-.56-.45,1.58-1.43,2.58-2.87,3.26-4.37.18-.42.3-.76.35-1.1.42.1.75.22,1.03.32.12.05.17.12.17.22s-.05.15-.15.23c-.13.1-.25.25-.42.6-.18.37-.37.73-.57,1.08h7c1.66,0,2.23-.03,2.31-.03.12,0,.13.02.13.13v.71c0,.12-.02.13-.13.13-.08,0-.65-.03-2.31-.03h-2.73v2.74h2.01c1.66,0,2.21-.03,2.31-.03s.12.02.12.13v.71c0,.12-.02.13-.12.13s-.65-.03-2.31-.03h-2.01v3.07h3.74c1.56,0,2.09-.03,2.18-.03.12,0,.13.02.13.13v.75Zm-7.08-3.92h-3.54v3.07h3.54v-3.07Z" fill="#fff"/>
        <path d="m502,194.95c1.43-.55,2.96-1.23,4.52-2.04-.03.22-.03.47,0,.7.05.35.03.33-.27.5-1.94,1.01-3.82,1.84-6.08,2.66-.35.13-.5.2-.58.28-.07.07-.13.1-.2.1s-.13-.05-.18-.17c-.13-.3-.27-.68-.37-1.03.5-.1.93-.22,1.35-.35.27-.08.53-.18.8-.28l-.08-7.29c-.02-1.13-.02-1.75-.13-2.28.4.02.81.05,1.13.1.13.02.22.08.22.15,0,.12-.05.2-.1.32-.08.18-.12.61-.1,1.7l.08,6.95Zm11.2,3.92c-.08.13-.13.2-.18.2s-.12-.05-.22-.15c-1.26-1.2-2.28-2.41-3.41-4.07-1.21,1.76-2.66,3.02-5.78,4.49-.12.05-.18.08-.25.08-.08,0-.13-.07-.23-.25-.15-.25-.3-.4-.55-.58,3.36-1.38,4.94-2.71,6.15-4.54,1.05-1.56,1.7-3.69,1.91-6.18.08-1.01.1-1.71.02-2.29.45.03.85.08,1.15.13.13.03.22.08.22.18,0,.13-.07.22-.12.35-.07.17-.15.8-.22,1.6-.22,2.38-.83,4.52-1.71,6.08,1.21,1.91,2.44,3.19,3.81,4.25-.2.18-.42.43-.58.7Zm-8.23-11.86c.13-.1.18-.1.27-.02,1,.91,1.74,1.84,2.56,3.06.07.1.03.15-.12.25l-.47.33c-.1.07-.17.1-.22.1s-.07-.03-.12-.1c-.8-1.26-1.45-2.11-2.46-3.07-.08-.08-.07-.12.1-.23l.45-.32Z" fill="#fff"/>
        <path d="m532.27,198.45c0,.12-.02.13-.13.13-.08,0-.61-.03-2.19-.03h-9.55c-1.58,0-2.11.03-2.19.03-.12,0-.13-.02-.13-.13v-.85c0-.12.02-.13.13-.13.08,0,.62.03,2.19.03h3.76v-10.17c0-1.25-.02-1.78-.1-2.39.42.02.85.05,1.16.1.12.02.22.07.22.15,0,.1-.03.18-.08.32-.07.18-.12.58-.12,1.61v3.14h3.31c1.58,0,2.11-.03,2.19-.03.12,0,.13.02.13.13v.85c0,.12-.02.13-.13.13-.08,0-.62-.03-2.19-.03h-3.31v6.2h4.72c1.58,0,2.11-.03,2.19-.03.12,0,.13.02.13.13v.85Z" fill="#fff"/>
      </g>
      <g>
        <path d="m284.93,194.73c0,.1-.02.12-.12.12s-.6-.03-2.14-.03h-4.75v1.68c0,1.98.03,2.84.03,2.92,0,.12-.02.13-.13.13h-.83c-.12,0-.13-.02-.13-.13,0-.08.03-.95.03-2.92v-1.68h-4.47c-1.53,0-2.04.03-2.13.03-.12,0-.13-.02-.13-.12v-.76c0-.12.02-.13.13-.13.08,0,.6.03,2.13.03h4.47v-2.58h-3.14c-1.68,0-2.23.03-2.31.03-.12,0-.13-.02-.13-.15v-.71c0-.12.02-.13.13-.13.08,0,.63.03,2.31.03h3.14v-3.49c0-1.18-.02-1.65-.12-2.28.43.02.83.05,1.15.1.1.02.18.07.18.13,0,.1-.03.17-.08.3-.05.15-.1.6-.1,1.71v3.52h3.42c1.68,0,2.23-.03,2.31-.03.13,0,.15.02.15.13v.71c0,.13-.02.15-.15.15-.08,0-.63-.03-2.31-.03h-3.42v2.58h4.75c1.54,0,2.04-.03,2.14-.03s.12.02.12.13v.76Zm-12.21-8.81c.2-.12.2-.15.3-.05.78.96,1.4,1.88,1.96,2.92.05.12.05.15-.15.27l-.45.27c-.22.13-.23.15-.3.02-.52-1.08-1.15-2.06-1.88-2.94-.08-.08-.1-.12.1-.23l.42-.25Zm10.05.63c-.08.05-.17.17-.27.33-.43.7-.98,1.51-1.83,2.56-.12.13-.17.2-.23.2s-.13-.05-.25-.13c-.18-.13-.38-.22-.57-.27.9-1.06,1.54-2.06,1.96-2.84.15-.28.2-.43.27-.7.35.15.68.32.93.47.1.07.15.12.15.17,0,.1-.05.15-.17.22Z" fill="#fff"/>
        <path d="m303.65,195.48c0,.12-.02.13-.13.13-.08,0-.61-.03-2.18-.03h-3.74v1.11c0,1.84.03,2.66.03,2.74,0,.12-.02.12-.12.12h-.83c-.13,0-.15,0-.15-.12,0-.1.03-.9.03-2.74v-1.11h-5.05c-1.56,0-2.09.03-2.18.03-.12,0-.13-.02-.13-.13v-.75c0-.12.02-.13.13-.13.08,0,.61.03,2.18.03h.5v-2.44c0-.96-.03-1.35-.03-1.45,0-.12.02-.13.13-.13.08,0,.67.03,2.33.03h2.13v-2.74h-3.79c-.58.88-1.26,1.73-2.11,2.58-.1.12-.17.18-.22.18s-.12-.07-.23-.2c-.17-.2-.37-.35-.57-.45,1.58-1.43,2.58-2.87,3.26-4.37.18-.42.3-.76.35-1.1.42.1.75.22,1.03.32.12.05.17.12.17.22s-.05.15-.15.23c-.13.1-.25.25-.42.6-.18.37-.37.73-.56,1.08h7c1.66,0,2.23-.03,2.31-.03.12,0,.13.02.13.13v.71c0,.12-.02.13-.13.13-.08,0-.65-.03-2.31-.03h-2.72v2.74h2.01c1.66,0,2.21-.03,2.31-.03s.12.02.12.13v.71c0,.12-.02.13-.12.13s-.65-.03-2.31-.03h-2.01v3.07h3.74c1.56,0,2.09-.03,2.18-.03.12,0,.13.02.13.13v.75Zm-7.08-3.92h-3.54v3.07h3.54v-3.07Z" fill="#fff"/>
      </g>
      <g>
        <path d="m111,188.24c.53-1.58,1.83-2.43,3.47-2.43,1.98,0,3.39,1.21,3.39,2.96,0,1.46-.86,2.49-2.29,2.77v.15c1.59.33,2.56,1.46,2.56,3.06,0,2.13-1.48,3.52-3.64,3.52-1.86,0-3.07-.73-3.71-2.41l1.33-.5c.45,1.28,1.18,1.78,2.38,1.78,1.33,0,2.21-.91,2.21-2.38,0-1.56-.88-2.48-2.73-2.48h-.93v-1.18h.83c1.71,0,2.58-.85,2.58-2.23,0-1.25-.85-1.94-1.99-1.94-.98,0-1.83.56-2.13,1.74l-1.33-.45Z" fill="#fff"/>
        <path d="m136.98,195.48c0,.12-.02.13-.13.13-.08,0-.62-.03-2.18-.03h-3.74v1.11c0,1.84.03,2.66.03,2.74,0,.12-.02.12-.12.12h-.83c-.13,0-.15,0-.15-.12,0-.1.03-.9.03-2.74v-1.11h-5.05c-1.56,0-2.09.03-2.18.03-.12,0-.13-.02-.13-.13v-.75c0-.12.02-.13.13-.13.08,0,.62.03,2.18.03h.5v-2.44c0-.96-.03-1.35-.03-1.45,0-.12.02-.13.13-.13.08,0,.67.03,2.33.03h2.13v-2.74h-3.79c-.58.88-1.26,1.73-2.11,2.58-.1.12-.17.18-.22.18s-.12-.07-.23-.2c-.17-.2-.37-.35-.56-.45,1.58-1.43,2.58-2.87,3.26-4.37.18-.42.3-.76.35-1.1.42.1.75.22,1.03.32.12.05.17.12.17.22s-.05.15-.15.23c-.13.1-.25.25-.42.6-.18.37-.37.73-.57,1.08h7c1.66,0,2.23-.03,2.31-.03.12,0,.13.02.13.13v.71c0,.12-.02.13-.13.13-.08,0-.65-.03-2.31-.03h-2.73v2.74h2.01c1.66,0,2.21-.03,2.31-.03s.12.02.12.13v.71c0,.12-.02.13-.12.13s-.65-.03-2.31-.03h-2.01v3.07h3.74c1.56,0,2.09-.03,2.18-.03.12,0,.13.02.13.13v.75Zm-7.08-3.92h-3.54v3.07h3.54v-3.07Z" fill="#fff"/>
      </g>
      <line x1="376.97" y1="73.11" x2="593.28" y2="73.11" fill="none" stroke="#af3836" stroke-miterlimit="10" stroke-width=".65"/>
      <g>
        <path d="m90.51,50.88c0,1.25.04,1.76.04,1.86,0,.14-.02.16-.16.16-.1,0-.61-.04-2.02-.04h-3.66v7.06c0,2.89.04,4.08.04,4.21,0,.14-.02.16-.16.16h-.95c-.14,0-.16-.02-.16-.16,0-.12.04-1.31.04-4.21v-8.75c0-2.89-.04-4.12-.04-4.25,0-.14.02-.16.16-.16.12,0,.79.04,2.28.04h2.45c1.42,0,1.92-.04,2.02-.04.14,0,.16.02.16.16,0,.12-.04.63-.04,1.86v2.1Zm-1.15-3.09h-4.65v1.54h4.65v-1.54Zm0,2.51h-4.65v1.6h4.65v-1.6Zm7.86,8.63c0,.14-.02.16-.16.16-.1,0-.77-.04-2.75-.04h-.28v2.16c0,1.5.04,2.1.04,2.22,0,.14-.02.16-.16.16h-.89c-.14,0-.16-.02-.16-.16,0-.12.04-.73.04-2.22v-2.16h-2.87c-.14,1.05-.28,1.58-.61,2.31-.38.85-.99,1.64-1.8,2.28-.12.1-.2.16-.26.16-.08,0-.16-.08-.32-.24-.22-.22-.46-.38-.71-.49.87-.51,1.58-1.19,2.02-2.1.3-.61.48-1.25.53-1.92h-.12c-1.98,0-2.63.04-2.75.04-.14,0-.16-.02-.16-.16v-.75c0-.14.02-.16.16-.16.12,0,.77.04,2.75.04h.2c.02-.63.06-1.42.06-2.41-1.62,0-2.2.04-2.26.04-.16,0-.18-.02-.18-.16v-.75c0-.14.02-.16.18-.16.08,0,.71.04,2.61.04h4.49c1.9,0,2.53-.04,2.63-.04.12,0,.14.02.14.16v.75c0,.14-.02.16-.14.16-.1,0-.71-.04-2.45-.04v2.41h.28c1.98,0,2.65-.04,2.75-.04.14,0,.16.02.16.16v.75Zm-4.33-3.28h-2.73c0,.95-.02,1.74-.06,2.41h2.79v-2.41Zm6.81,3.5c0,1.11.06,2.16.06,2.93,0,.89-.14,1.23-.53,1.54-.38.32-.83.4-2.45.4-.38,0-.36,0-.47-.38-.1-.38-.2-.63-.36-.89.53.06.99.08,1.48.08.89,0,1.07-.16,1.07-.97v-9h-3.7c-1.58,0-2.08.04-2.18.04-.16,0-.18-.02-.18-.16,0-.1.04-.49.04-1.74v-2.35c0-1.23-.04-1.62-.04-1.74,0-.14.02-.16.18-.16.1,0,.61.04,2.18.04h2.59c1.56,0,2.08-.04,2.18-.04.14,0,.16.02.16.16,0,.12-.04.93-.04,2.89v9.34Zm-1.19-11.36h-4.87v1.54h4.87v-1.54Zm0,2.51h-4.87v1.6h4.87v-1.6Z" fill="#af3836"/>
        <path d="m113.3,46.96c.87,0,1.5-.04,1.64-.04.12,0,.18.02.26.2.24.67.59,1.27.99,1.84.22.32.44.65.71.93.63-.53,1.19-1.17,1.66-1.74.2-.24.34-.48.51-.81.42.22.75.44.99.65.12.1.14.16.14.24,0,.1-.06.16-.18.22-.16.06-.3.14-.63.51-.55.59-1.13,1.15-1.78,1.7.44.44.95.85,1.48,1.23.79-.65,1.52-1.35,2-1.9.2-.24.38-.51.55-.81.4.22.69.4.97.63.12.1.16.18.16.26,0,.1-.08.16-.22.22-.14.06-.28.14-.61.49-.55.55-1.17,1.11-1.94,1.72,1.19.75,2.51,1.35,3.88,1.84-.2.22-.36.44-.51.73-.12.24-.18.32-.28.32-.06,0-.16-.04-.3-.1-3.74-1.68-6.43-3.68-8.19-7.04-1.64,2.87-4.02,5.14-7.91,7.06-.16.08-.24.12-.32.12-.1,0-.14-.1-.28-.32-.14-.24-.3-.42-.53-.61,1.76-.75,3.25-1.64,4.47-2.61-.77-.83-1.46-1.44-2.34-2.06-.12-.08-.12-.12.02-.26l.49-.44c.12-.12.16-.14.28-.06.93.65,1.66,1.29,2.43,2.1,1.09-.99,1.94-2.06,2.57-3.17h-2.91c-1.52,0-1.98.04-2.08.04-.16,0-.18-.02-.18-.16v-.79c0-.14.02-.16.18-.16.1,0,.57.04,2.08.04h2.75Zm3.82,14.74c0,.55.08.79.26.91.22.14.75.24,1.98.24s1.78-.1,2.08-.32c.3-.22.55-.83.63-2.26.24.16.49.28.79.38.34.12.38.14.32.51-.2,1.37-.38,1.96-1.03,2.37-.5.3-1.58.4-2.79.4-1.56,0-2.34-.08-2.79-.34-.49-.28-.65-.65-.65-1.54v-3.76h-3.09c-.59,3.13-2.22,4.61-5.5,5.74-.14.06-.24.08-.3.08-.12,0-.18-.08-.32-.3-.16-.26-.4-.51-.65-.69,3.36-.91,4.95-2.06,5.54-4.83h-1.84c-2.02,0-2.69.04-2.81.04-.14,0-.16-.02-.16-.16v-.81c0-.14.02-.16.16-.16.12,0,.79.04,2.81.04h2c.08-.69.12-1.46.12-2.33v-.53c-1.15.02-1.58.04-1.68.04-.14,0-.16-.02-.16-.16v-.77c0-.16.02-.18.16-.18.12,0,.71.04,2.45.04h3.76c1.82,0,2.41-.04,2.53-.04.14,0,.16.02.16.18v.77c0,.14-.02.16-.16.16-.1,0-.57-.02-1.82-.04v2.85h2.39c2.02,0,2.69-.04,2.81-.04.14,0,.16.02.16.16v.81c0,.14-.02.16-.16.16-.12,0-.79-.04-2.81-.04h-2.39v3.42Zm-1.19-7.32h-2.83v.53c0,.85-.04,1.64-.1,2.33h2.93v-2.85Z" fill="#af3836"/>
      </g>
      <g>
        <path d="m400.62,50.6c.91,0,1.29-.06,1.48-.16s.36-.08.51.06c.34.3.63.61.87.95.18.26.1.46-.1.61-.3.22-.5.32-.95.85-1.5,1.76-3.62,3.92-5.76,5.64.69.69,1.46,1.56,2.08,2.37.14.16.14.26,0,.42-.22.24-.49.47-.75.65-.16.1-.22.12-.34-.06-1.82-2.35-3.9-4.39-6.25-6.07.24-.24.59-.59.81-.79.14-.12.2-.1.38,0,1.17.89,2.18,1.7,3.11,2.55,2.1-1.74,4.25-3.96,5.6-5.74l-8.9.04c-1.64,0-2.89.08-4,.16-.22.02-.28-.04-.32-.22-.06-.4-.14-.91-.16-1.42,1.33.14,2.73.16,4.49.16h8.21Z" fill="#af3836"/>
        <path d="m416.65,59.98c0,1.42.02,2.69.06,3.58,0,.18-.08.24-.28.26-.3.02-.71.02-1.01,0-.2-.02-.28-.08-.28-.28.04-.91.1-2.18.1-3.54v-3.25c-2,1.48-4.04,2.71-6.41,3.92-.2.1-.36.12-.53-.06-.26-.28-.59-.49-1.01-.67,2.65-1.21,5.14-2.63,7.22-4.19,1.27-.95,2.69-2.12,3.94-3.48l-5.8.06c-1.01.02-1.84.08-2.55.14-.2,0-.28-.04-.32-.22-.06-.34-.14-.81-.18-1.31.89.1,1.88.14,3.13.14l5.24-.02c1.09,0,1.33-.04,1.58-.18.18-.1.32-.1.49.06.22.2.51.53.65.75.16.24.08.4-.18.53-.16.08-.3.18-.53.38-1.07,1.09-2.18,2.16-3.32,3.09v4.29Zm-2.87-13.22c.12-.16.2-.18.4-.12,1.29.38,3.03,1.13,3.98,1.66.18.1.2.2.1.36-.12.24-.3.51-.49.77-.1.2-.2.24-.38.1-1.01-.61-2.63-1.31-4.19-1.82.2-.34.45-.75.57-.95Zm5.09,9.1c.1-.14.14-.14.3-.08,1.6.69,3.17,1.58,4.51,2.55.16.12.2.18.1.36-.18.28-.38.61-.61.87-.14.16-.18.14-.38,0-1.19-1.01-2.77-1.98-4.55-2.79.24-.34.49-.71.63-.91Z" fill="#af3836"/>
        <path d="m428.97,52.96c.08-.14.18-.18.34-.14,1.31.49,2.47,1.09,3.56,1.84.2.14.18.26.1.42-.14.28-.34.63-.53.87-.12.16-.22.18-.38.04-1.11-.87-2.39-1.54-3.72-2.04.26-.38.49-.79.63-.99Zm3.13,7.74c1.86-.97,3.66-2.02,5.56-3.48,1.74-1.35,3.94-3.32,5.76-5.6.08.53.18.85.38,1.31.1.2.06.36-.1.55-1.7,1.98-3.46,3.52-5.34,4.95-1.8,1.4-3.78,2.59-5.9,3.78-.45.24-.77.47-.97.69-.18.18-.38.14-.57-.06-.26-.3-.65-.87-.95-1.35.71-.16,1.33-.38,2.12-.79Zm-.75-12.35c.12-.18.18-.18.36-.1,1.25.53,2.43,1.27,3.52,2.1.18.14.16.22.06.4-.16.26-.38.65-.59.87-.12.14-.2.1-.36-.04-.99-.91-2.3-1.72-3.62-2.28.2-.28.42-.67.63-.95Zm8.79-.87c.08-.06.14-.06.22,0,.81.57,1.7,1.56,2.28,2.45.06.08.04.16-.04.22l-.59.48c-.1.08-.2.06-.26-.04-.59-.99-1.44-1.94-2.34-2.59l.73-.53Zm1.7-1.33c.08-.06.14-.08.22-.02.81.63,1.72,1.52,2.3,2.37.06.1.04.16-.06.24l-.55.49c-.08.08-.16.08-.24-.04-.5-.83-1.37-1.82-2.32-2.53l.65-.51Z" fill="#af3836"/>
        <path d="m457.58,50.21c.42-.95.61-1.56.69-2.37.65.26,1.33.59,1.68.87.24.18.16.42-.02.57-.24.16-.49.55-.87,1.23-.79,1.64-1.66,3.17-2.57,4.47,1.11.83,2.18,1.78,3.15,2.83.14.16.12.24.02.38-.22.3-.45.53-.69.79-.14.14-.24.12-.36-.02-.93-1.09-1.92-2.06-2.91-2.83-2.2,2.85-4.61,5.09-7.24,6.73-.2.12-.4.18-.59.02-.32-.28-.73-.53-1.13-.63,3.24-1.86,5.68-4.12,7.82-6.98-1.23-.87-2.63-1.76-4.08-2.47.3-.38.59-.77.77-.97.1-.1.18-.08.32,0,1.15.61,2.63,1.46,3.8,2.26.89-1.33,1.68-2.71,2.2-3.9Z" fill="#af3836"/>
        <path d="m466.75,49.24c.14-.14.24-.12.36-.04,1.13.63,2.47,1.58,3.64,2.69.14.14.16.22.06.38-.16.24-.53.71-.69.87-.12.14-.18.16-.32.02-1.19-1.17-2.53-2.2-3.84-2.99.26-.32.57-.69.79-.93Zm1.82,10.72c2.18-1.15,3.96-2.24,5.84-3.76,2.04-1.68,3.72-3.17,5.46-5.44.08.57.2.95.34,1.33.12.26.1.42-.14.71-1.35,1.6-3.13,3.21-4.91,4.65-1.72,1.38-3.74,2.67-6.07,3.94-.55.32-.93.63-1.11.79-.2.18-.36.18-.55-.02-.3-.32-.67-.81-.99-1.38.79-.22,1.39-.46,2.12-.83Z" fill="#af3836"/>
        <path d="m487.07,52.94c2.33.67,4.57,1.62,6.59,2.81.16.08.2.18.14.32-.14.36-.32.73-.49.99-.12.16-.2.2-.38.08-1.88-1.23-4.04-2.18-5.88-2.71v4.69c0,1.23.04,2.81.06,4.12.02.2-.04.26-.26.26-.3.02-.71.02-1.03,0-.22,0-.28-.06-.28-.28.06-1.29.08-2.87.08-4.1v-9c0-1.52-.08-2.55-.22-3.23.71.06,1.31.14,1.68.26.32.08.24.3.14.61-.12.34-.14.95-.14,2.24v2.93Z" fill="#af3836"/>
      </g>
      <g>
        <path d="m146.2,56.04c0,.58.02.76.02.82,0,.07,0,.08-.08.08-.04,0-.32-.02-1.17-.02h-2.25c-.06.41-.14.77-.23,1.08-.18.54-.42,1.07-.83,1.67-.04.08-.07.12-.1.12s-.07-.04-.13-.12c-.12-.14-.24-.24-.36-.3.51-.66.75-1.15.93-1.77.17-.54.29-1.24.29-2.24,0-.76-.02-1.04-.02-1.11s.01-.08.08-.08c.05,0,.33.02,1.17.02h1.47c.84,0,1.12-.02,1.17-.02.07,0,.08.01.08.08,0,.05-.02.23-.02.82v.97Zm-1.65-4.79c.76.9,1.36,1.28,2.34,1.76-.09.1-.18.23-.24.35-.05.11-.07.17-.11.17s-.08-.03-.16-.07c-.81-.47-1.46-.97-2.13-1.81-.67,1-1.59,1.84-2.56,2.41-.07.04-.11.06-.15.06-.05,0-.08-.04-.13-.14-.09-.16-.19-.26-.28-.34,1.18-.6,2.01-1.38,2.59-2.25.12-.19.19-.33.23-.51.23.03.4.07.59.12.08.02.12.05.12.12,0,.03-.03.07-.07.09l-.04.02Zm1.09,4.52h-2.79c-.01.24-.03.47-.05.69h2.84v-.69Zm0-1.11h-2.78v.67h2.78v-.67Zm.81,4.37c0,.82.02,1.07.02,1.12,0,.07-.01.08-.08.08h-.45c-.07,0-.07-.01-.07-.08v-.32h-2.37v.4c0,.06,0,.07-.08.07h-.43c-.07,0-.08-.01-.08-.07s.02-.3.02-1.14v-.63c0-.47-.02-.66-.02-.72,0-.07.01-.08.08-.08.05,0,.3.02,1.09.02h1.21c.79,0,1.04-.02,1.1-.02.07,0,.08.01.08.08,0,.06-.02.25-.02.61v.69Zm-1.04-5.53c0,.07,0,.08-.08.08-.05,0-.19-.02-.74-.02h-.6c-.55,0-.69.02-.74.02-.08,0-.09-.01-.09-.08v-.37c0-.07,0-.08.09-.08.05,0,.19.02.74.02h.6c.55,0,.69-.02.74-.02.07,0,.08.01.08.08v.37Zm.46,4.64h-2.37v1.21h2.37v-1.21Zm1.55-4.82c0-.72,0-1.05-.07-1.42.24.01.46.03.67.05.07.01.1.04.1.09s-.03.11-.05.18c-.04.12-.04.31-.04,1.07v2.82c0,.92.02,1.29.02,1.34,0,.08,0,.09-.08.09h-.48c-.07,0-.08-.01-.08-.09,0-.05.02-.43.02-1.34v-2.8Zm1.99-.9c0-.62,0-.93-.08-1.27.26.01.49.03.7.06.07.01.12.04.12.08,0,.08-.03.14-.06.21-.05.11-.05.3-.05.89v5.12c0,.57,0,1.17,0,1.56,0,.45-.07.67-.3.83-.24.16-.44.2-1.4.2-.18,0-.2-.01-.25-.22-.05-.2-.11-.33-.21-.46.35.04.58.05,1,.05.38,0,.53-.08.53-.51v-6.56Z" fill="#fff"/>
        <path d="m155.87,55.68c.75-.49,1.49-.74,2.24-.74,1.5,0,2.42.93,2.42,2.28,0,1.55-1.23,2.67-3.43,2.67-1.25,0-1.81-.56-1.81-1.23,0-.54.48-1.06,1.22-1.06.94,0,1.57.6,1.77,1.49.89-.29,1.52-.87,1.52-1.89s-.81-1.71-1.8-1.71-2.06.53-2.86,1.18c-.33.26-.6.54-.92.85-.08.08-.14.09-.21.02-.12-.12-.28-.28-.39-.42-.04-.05-.03-.09.04-.16.82-.72,1.35-1.25,2.35-2.32.6-.66,1.23-1.32,2.03-2.27-.86.14-1.67.29-2.6.47-.13.02-.26.05-.36.09-.07.03-.16.05-.2.05-.07,0-.12-.04-.17-.12-.09-.19-.17-.38-.25-.72.34.04.63.04.92.01.82-.08,1.68-.2,2.59-.37.12-.02.25-.05.32-.09.04-.03.1-.07.15-.07.05,0,.1.02.19.08.2.16.35.31.45.44.05.06.07.12.07.18,0,.08-.05.16-.16.2-.14.04-.25.11-.49.36-.93.98-1.62,1.71-2.66,2.77l.03.03Zm.66,2.49c-.33,0-.63.17-.63.49,0,.34.38.63,1.07.63.23,0,.44-.01.68-.05-.14-.59-.52-1.07-1.11-1.07Z" fill="#fff"/>
      </g>
      <line x1="57.05" y1="73.35" x2="190.41" y2="73.35" fill="none" stroke="#af3836" stroke-miterlimit="10" stroke-width=".65"/>
      <line x1="217.7" y1="73.35" x2="362.15" y2="73.35" fill="none" stroke="#af3836" stroke-miterlimit="10" stroke-width=".65"/>
      <polyline points="411.66 129.96 412.66 122.07 426.66 120.31 425.34 132.22 416.12 132.22" fill="none" stroke="#d34141" stroke-miterlimit="10" stroke-width=".65"/>
      <line x1="425.74" y1="134.08" x2="406.42" y2="134.08" fill="none" stroke="#d34141" stroke-miterlimit="10" stroke-width=".65"/>
      <path d="m396.07,131.94l.9,7.28c.27,1.89,1.24,2.79,2.96,2.77l5.72.03" fill="none" stroke="#d34141" stroke-miterlimit="10" stroke-width=".65"/>
      <path d="m407.81,146.13l-1.16-5.19c0-.29-.16-.45-.5-.46h-4.79c-2.28,0-2.78-1.78-2.74-3.5.08-2.3.19-6.08,1.05-8.54,1.16-3.3,4.43-3,6.08-1.76,1.07.84,2.11,2.87,2.93,4,.07.06.15.11.24.14l5.31.74c1.32.31.7,2.29-.39,2.42h-5.24c-.4-.05-.7-.16-1.03-.34l-3.57-2.91" fill="none" stroke="#d34141" stroke-miterlimit="10" stroke-width=".65"/>
      <path d="m404.96,131.75l-.99,4.18.32.52,4,.93c1.27.25,1.68,1.77,1.77,2.65l.41,6.1" fill="none" stroke="#d34141" stroke-miterlimit="10" stroke-width=".65"/>
      <polyline points="444.81 132.8 462.94 132.8 462.94 114 430.71 114 430.71 133.47" fill="none" stroke="#d34141" stroke-miterlimit="10" stroke-width=".65"/>
      <path d="m433.4,133.47v-6.04c0-1.11.9-2.01,2.01-2.01h15.44c.74,0,1.34.6,1.34,1.34h0c0,.74-.6,1.34-1.34,1.34h-7.39c-.37,0-.67.3-.67.67v4.7" fill="none" stroke="#d34141" stroke-miterlimit="10" stroke-width=".65"/>
      <path d="m438.77,146.9v-1.88c0-.53-.3-1.01-.78-1.22-.88-.39-2.46-.93-4.56-.93s-3.72.54-4.61.93c-.48.21-.79.7-.79,1.23v1.87" fill="none" stroke="#d34141" stroke-miterlimit="10" stroke-width=".65"/>
      <path d="m452.2,146.9v-1.88c0-.53-.3-1.01-.78-1.22-.88-.39-2.46-.93-4.56-.93s-3.72.54-4.61.93c-.48.21-.79.7-.79,1.23v1.87" fill="none" stroke="#d34141" stroke-miterlimit="10" stroke-width=".65"/>
      <path d="m465.63,146.9v-1.88c0-.53-.3-1.01-.78-1.22-.88-.39-2.46-.93-4.56-.93s-3.72.54-4.61.93c-.48.21-.79.7-.79,1.23v1.87" fill="none" stroke="#d34141" stroke-miterlimit="10" stroke-width=".65"/>
      <line x1="446.16" y1="120.04" x2="459.59" y2="120.04" fill="none" stroke="#d34141" stroke-miterlimit="10" stroke-width=".65"/>
      <line x1="446.16" y1="122.73" x2="452.87" y2="122.73" fill="none" stroke="#d34141" stroke-miterlimit="10" stroke-width=".65"/>
      <path d="m572.84,95.73h17.3c1.73,0,3.14,1.41,3.14,3.14v56.19c0,1.73-1.41,3.14-3.14,3.14h-94.62c-1.73,0-3.14-1.41-3.14-3.14v-56.19c0-1.73,1.41-3.14,3.14-3.14h17.22" fill="none" stroke="#335c9c" stroke-miterlimit="10" stroke-width=".63"/>
      <path d="m540.42,138.12v8.26m3.46-22.03l-.63,3.17,2.18,11.19h-2.4s-.63,7.6-.63,7.6m-8.08-10.84l.93-12.5c.29-3.98,10.04-3.97,10.33,0v5.43s1.94,5.68,1.94,5.68m-10.56-9.72l.63,3.17-2.18,11.19h2.4s.63,7.6.63,7.6m17.36,0l.34-4.24v-4.55m-2.04,8.78v-4.11m-1.69,4.11l-.34-4.24v-4.55m-4.03-2.43l2.01,2.77h.08l.61-1.72c.58-1.89,6.15-1.89,6.72,0l.61,1.72h.08l2.01-2.77m.4-.98l1.92-5.54.06-5.62c.04-4,12.31-3.99,12.35,0l.14,12.49m-6.51,10.85v-10.67m3.26,10.67l.65-10.89v-11.07m-7.82,0v11.07l.65,10.89" fill="none" stroke="#335c9c" stroke-miterlimit="10" stroke-width=".65"/>
      <path d="m511.67,129.5h19.16v2.17c0,2.43-1.99,4.43-4.43,4.43h-10.31c-2.43,0-4.43-1.99-4.43-4.43v-2.17h0Zm11.4,0h7.76v-.97c0-3.76-3.08-6.84-6.84-6.84h-.92v7.81h0Zm2.44,6.6l-9.27,7.29m2.43-1.72c.35.49.55,1.08.55,1.72,0,1.64-1.33,2.98-2.98,2.98s-2.98-1.33-2.98-2.98,1.33-2.98,2.98-2.98c.55,0,1.06.15,1.5.4m-.74-4.72l9.27,7.29m-2.23-1.97c-.46.53-.75,1.22-.75,1.97,0,1.64,1.33,2.98,2.98,2.98s2.98-1.33,2.98-2.98-1.33-2.98-2.98-2.98c-.44,0-.87.1-1.24.27m-13.35-11.19l-3.09-1.14m6.37.93l.09-.97c.2-2.09,5.23-2.09,5.43,0l.09.97" fill="none" stroke="#335c9c" stroke-miterlimit="10" stroke-width=".65"/>
      <rect x="519" y="89.89" width="47.66" height="15.33" fill="#335c9c"/>
      <g>
        <path d="m535.9,98.19c.61.5,1.48.91,2.61,1.12-.09.09-.18.21-.24.33q-.08.18-.26.12c-.57-.18-1.04-.38-1.46-.61v.97c0,1.09.02,1.31.02,1.36,0,.07,0,.08-.08.08h-.39c-.07,0-.08,0-.08-.08v-.29h-3.69v.35c0,.06,0,.07-.07.07h-.39c-.07,0-.08,0-.08-.07s.02-.28.02-1.37v-.99c-.39.22-.85.43-1.39.63-.07.03-.1.05-.14.05-.05,0-.08-.04-.14-.15-.08-.1-.16-.2-.26-.27,1.29-.37,2.02-.76,2.58-1.24h-1.12c-.88,0-1.16.02-1.22.02s-.07,0-.07-.08v-.33c0-.07,0-.08.07-.08s.34.02,1.22.02h1.59c.21-.21.32-.38.39-.55h-.62c-.93,0-1.26.02-1.31.02-.07,0-.08,0-.08-.08,0-.05.02-.22.02-.72v-.7c0-.52-.02-.68-.02-.72,0-.07,0-.08.08-.08.06,0,.38.02,1.31.02h2.97c.93,0,1.26-.02,1.31-.02.07,0,.08,0,.08.08,0,.05-.02.21-.02.72v.7c0,.51.02.68.02.72,0,.07,0,.08-.08.08-.06,0-.38-.02-1.31-.02h-2.05l.17.06c.08.04.12.07.12.11,0,.06-.05.07-.1.11-.06.04-.13.13-.26.27h3.45c.88,0,1.17-.02,1.22-.02.07,0,.07,0,.07.08v.33c0,.07,0,.08-.07.08-.05,0-.34-.02-1.22-.02h-1.1Zm2.37-4.03c0,.06,0,.07-.08.07-.06,0-.35-.02-1.23-.02h-1.24c0,.25.02.38.02.42,0,.07,0,.08-.08.08h-.39c-.07,0-.08,0-.08-.08,0-.05,0-.17.02-.42h-2.16c0,.25.02.38.02.42,0,.07,0,.08-.08.08h-.39c-.07,0-.08,0-.08-.08,0-.05,0-.17.02-.42h-1.15c-.88,0-1.17.02-1.23.02-.07,0-.08,0-.08-.07v-.37c0-.07,0-.07.08-.07.06,0,.35.02,1.23.02h1.15c0-.22-.02-.45-.07-.64.23,0,.41.03.56.05.07,0,.1.04.1.08s-.02.08-.04.12c-.03.07-.06.19-.06.38h2.16c0-.22-.02-.45-.07-.64.23,0,.41.03.56.05.07,0,.1.04.1.08s-.02.08-.04.12c-.03.07-.06.19-.06.38h1.24c.88,0,1.17-.02,1.23-.02.07,0,.08,0,.08.07v.37Zm-1.76,1.17h-4.64v.54h4.64v-.54Zm0,.91h-4.64v.55h4.64v-.55Zm-.48,2.89h-3.69v.61h3.69v-.61Zm0,.99h-3.69v.65h3.69v-.65Zm-.08-1.39c-.22-.16-.42-.35-.63-.55h-2.18c-.19.19-.4.38-.66.55h3.46Z" fill="#fff"/>
        <path d="m542.09,95.7c.11.07.12.15.06.23-.07.09-.1.24-.14.44-.12.64-.24,1.52-.27,2.15.99-1.12,2.15-1.69,3.28-1.69,1.28,0,2.02.73,2.02,1.79,0,.95-.53,1.56-1.41,2-.73.37-1.56.53-2.28.62-.15.02-.2.02-.24-.08-.1-.17-.24-.33-.42-.46.96-.07,1.81-.24,2.55-.58.73-.34,1.13-.86,1.13-1.55s-.42-1.18-1.42-1.18c-.89,0-1.91.56-2.79,1.46-.22.23-.31.37-.41.55-.05.08-.08.08-.15.05-.13-.05-.27-.11-.38-.17-.06-.03-.08-.05-.08-.13.03-1.05.15-2.03.27-2.95.04-.27.08-.52.08-.78.23.08.49.19.62.27Zm.45-2.28s.07-.06.13-.03c.62.25,1.17.57,1.72,1.07.06.05.06.07.02.13-.08.12-.2.28-.31.4-.05.06-.09.06-.15,0-.49-.46-1.06-.84-1.74-1.14.11-.18.24-.34.33-.43Z" fill="#fff"/>
        <path d="m556.51,95.36c0,.08-.03.09-.12.09-1-.03-1.92-.04-2.98,0,0,.59,0,1.24,0,1.87.07.29.11.63.11.99,0,1.18-.51,2.19-1.83,2.9-.09.06-.17.08-.22.08-.06,0-.11-.03-.17-.08-.1-.09-.27-.21-.43-.26,1.34-.55,1.96-1.42,2.05-2.36-.21.36-.61.53-1.03.53-.65,0-1.24-.43-1.24-1.32,0-.8.59-1.3,1.29-1.3.36,0,.68.1.88.32,0-.46,0-.88-.02-1.32-1.34.08-2.61.17-3.5.28-.23.03-.34.09-.41.09-.06,0-.09-.03-.11-.09-.06-.12-.1-.35-.15-.6.32.02.63,0,1.18-.06.76-.06,1.73-.12,2.97-.2,0-.38,0-.57-.02-.87,0-.23-.03-.38-.09-.63.28.02.55.07.71.1.1.03.17.08.17.14,0,.06-.03.1-.07.17-.04.07-.06.13-.07.25-.02.21-.02.38-.02.8,1.04-.03,1.96-.03,3-.03.08,0,.1,0,.1.1v.4Zm-5.3,2.42c0,.52.34.81.76.81.53,0,.85-.4.85-.83,0-.47-.35-.8-.83-.8-.41,0-.78.31-.78.82Z" fill="#fff"/>
      </g>
      <g>
        <g>
          <polyline points="144.18 135.14 144.18 140.9 136.55 140.9" fill="none" stroke="#000f3c" stroke-miterlimit="10" stroke-width=".65"/>
          <polyline points="169.67 127.56 169.67 133.02 162.8 133.02" fill="none" stroke="#000f3c" stroke-miterlimit="10" stroke-width=".65"/>
          <path d="m140.45,147.83h-3.8l-.63-2.25.63-.41v-4.58l1.74-4.28c.29-.71.98-1.18,1.75-1.18h8.77v8.86h25.1v3.84h-2.7" fill="none" stroke="#000f3c" stroke-miterlimit="10" stroke-width=".65"/>
          <line x1="145.19" y1="147.83" x2="166.56" y2="147.83" fill="none" stroke="#000f3c" stroke-miterlimit="10" stroke-width=".65"/>
          <circle cx="142.82" cy="147.83" r="2.37" fill="#000f3c" stroke="#fff" stroke-miterlimit="10" stroke-width=".65"/>
          <path d="m171.31,147.83c0,1.31-1.06,2.37-2.37,2.37s-2.37-1.06-2.37-2.37,1.06-2.37,2.37-2.37,2.37,1.06,2.37,2.37Z" fill="#000f3c" stroke="#fff" stroke-miterlimit="10" stroke-width=".65"/>
          <path d="m135.02,137.17s.02,1.96-2.17,1.96c-1.78,0-2.26-2-.97-3.03,1.04-.83,1.59-1.53,1.59-2.93" fill="none" stroke="#000f3c" stroke-miterlimit="10" stroke-width=".65"/>
          <polygon points="134.36 129.07 132.56 129.07 131.66 131.12 132.56 133.17 134.36 133.17 135.26 131.12 134.36 129.07" fill="#000f3c"/>
          <polyline points="151.67 144 151.67 141.44 173.23 141.44 173.23 144" fill="none" stroke="#000f3c" stroke-miterlimit="10" stroke-width=".65"/>
          <polygon points="166.23 127.56 162.86 132.08 162.86 141.44 172.22 141.44 172.22 127.56 166.23 127.56" fill="none" stroke="#000f3c" stroke-miterlimit="10" stroke-width=".65"/>
          <polyline points="156.93 140.18 156.93 137.13 162.86 137.13" fill="none" stroke="#000f3c" stroke-miterlimit="10" stroke-width=".65"/>
          <line x1="132.44" y1="122.55" x2="132.44" y2="128.42" fill="none" stroke="#000f3c" stroke-dasharray="0 .6" stroke-width=".65"/>
          <line x1="134.4" y1="123.89" x2="134.4" y2="128.43" fill="none" stroke="#000f3c" stroke-dasharray="0 .6" stroke-width=".65"/>
          <g>
            <line x1="156.28" y1="127.74" x2="151.66" y2="126.05" fill="none" stroke="#000f3c" stroke-miterlimit="10" stroke-width=".65"/>
            <line x1="162.24" y1="129.92" x2="156.28" y2="127.74" fill="none" stroke="#000f3c" stroke-miterlimit="10" stroke-width=".65"/>
            <line x1="152.36" y1="129.15" x2="162.63" y2="132.92" fill="none" stroke="#000f3c" stroke-miterlimit="10" stroke-width=".65"/>
            <line x1="147.74" y1="127.46" x2="152.36" y2="129.15" fill="none" stroke="#000f3c" stroke-miterlimit="10" stroke-width=".65"/>
            <line x1="147.05" y1="124.36" x2="151.66" y2="126.05" fill="none" stroke="#000f3c" stroke-miterlimit="10" stroke-width=".65"/>
            <path d="m147.05,124.36l-11.56-4.23-.08-.05c-.29-.44-.79-.72-1.36-.72-.9,0-1.64.73-1.64,1.64s.73,1.64,1.64,1.64c.12,0,.24-.01.35-.04l.14.04,8.59,3.15" fill="none" stroke="#000f3c" stroke-miterlimit="10" stroke-width=".65"/>
            <line x1="147.74" y1="127.46" x2="143.13" y2="125.77" fill="none" stroke="#000f3c" stroke-miterlimit="10" stroke-width=".65"/>
            <line x1="147.05" y1="124.36" x2="143.13" y2="125.77" fill="none" stroke="#000f3c" stroke-miterlimit="10" stroke-width=".65"/>
            <line x1="151.66" y1="126.05" x2="147.74" y2="127.46" fill="none" stroke="#000f3c" stroke-miterlimit="10" stroke-width=".65"/>
            <line x1="156.28" y1="127.74" x2="152.36" y2="129.15" fill="none" stroke="#000f3c" stroke-miterlimit="10" stroke-width=".65"/>
          </g>
        </g>
        <path d="m124.23,148.32h-1.5v-28.59h2.23v-4.78h-12.24v-8.57h2.22s0,0,0,0v-5.89s0,0,0,0h-31.47s0,0,0,0v5.89s0,0,0,0h2.22v8.57h-12.24s0,0,0,0v4.78h2.22v28.59h-1.5v1.44h50.05v-1.44Zm-29.31,1.44v-6.94h8.57v6.94h-8.57Z" fill="none" stroke="#000f3c" stroke-miterlimit="10" stroke-width=".65"/>
        <rect x="89.75" y="109" width="2.22" height="5.56" fill="#000f3c"/>
        <rect x="93.08" y="109" width="2.22" height="5.56" fill="#000f3c"/>
        <rect x="96.42" y="109" width="2.22" height="5.56" fill="#000f3c"/>
        <rect x="99.76" y="109" width="2.22" height="5.56" fill="#000f3c"/>
        <rect x="103.09" y="109" width="2.22" height="5.56" fill="#000f3c"/>
        <rect x="106.43" y="109" width="2.23" height="5.56" fill="#000f3c"/>
        <rect x="89.75" y="115.67" width="2.22" height="5.56" fill="#000f3c"/>
        <rect x="93.08" y="115.67" width="2.22" height="5.56" fill="#000f3c"/>
        <rect x="96.42" y="115.67" width="2.22" height="5.56" fill="#000f3c"/>
        <rect x="99.76" y="115.67" width="2.22" height="5.56" fill="#000f3c"/>
        <rect x="103.09" y="115.67" width="2.22" height="5.56" fill="#000f3c"/>
        <rect x="106.43" y="115.67" width="2.23" height="5.56" fill="#000f3c"/>
        <rect x="89.75" y="122.34" width="2.22" height="5.56" fill="#000f3c"/>
        <rect x="93.08" y="122.34" width="2.22" height="5.56" fill="#000f3c"/>
        <rect x="96.42" y="122.34" width="2.22" height="5.56" fill="#000f3c"/>
        <rect x="99.76" y="122.34" width="2.22" height="5.56" fill="#000f3c"/>
        <rect x="103.09" y="122.34" width="2.22" height="5.56" fill="#000f3c"/>
        <rect x="106.43" y="122.34" width="2.23" height="5.56" fill="#000f3c"/>
        <rect x="114.22" y="122.34" width="2.22" height="2.22" fill="#000f3c"/>
        <rect x="117.55" y="122.34" width="2.23" height="2.22" fill="#000f3c"/>
        <rect x="114.22" y="125.68" width="2.22" height="2.22" fill="#000f3c"/>
        <rect x="117.55" y="125.68" width="2.23" height="2.22" fill="#000f3c"/>
        <rect x="114.22" y="129.02" width="2.22" height="2.22" fill="#000f3c"/>
        <rect x="117.55" y="129.02" width="2.23" height="2.22" fill="#000f3c"/>
        <rect x="114.22" y="132.35" width="2.22" height="2.22" fill="#000f3c"/>
        <rect x="117.55" y="132.35" width="2.23" height="2.22" fill="#000f3c"/>
        <rect x="114.22" y="135.69" width="2.22" height="2.23" fill="#000f3c"/>
        <rect x="117.55" y="135.69" width="2.23" height="2.23" fill="#000f3c"/>
        <rect x="114.22" y="139.03" width="2.22" height="2.23" fill="#000f3c"/>
        <rect x="117.55" y="139.03" width="2.23" height="2.23" fill="#000f3c"/>
        <rect x="81.96" y="122.34" width="2.22" height="2.22" fill="#000f3c"/>
        <rect x="78.62" y="122.34" width="2.22" height="2.22" fill="#000f3c"/>
        <rect x="81.96" y="125.68" width="2.22" height="2.22" fill="#000f3c"/>
        <rect x="78.62" y="125.68" width="2.22" height="2.22" fill="#000f3c"/>
        <rect x="81.96" y="129.02" width="2.22" height="2.22" fill="#000f3c"/>
        <rect x="78.62" y="129.02" width="2.22" height="2.22" fill="#000f3c"/>
        <rect x="81.96" y="132.35" width="2.22" height="2.22" fill="#000f3c"/>
        <rect x="78.62" y="132.35" width="2.22" height="2.22" fill="#000f3c"/>
        <rect x="81.96" y="135.69" width="2.22" height="2.23" fill="#000f3c"/>
        <rect x="78.62" y="135.69" width="2.22" height="2.23" fill="#000f3c"/>
        <rect x="81.96" y="139.03" width="2.22" height="2.23" fill="#000f3c"/>
        <rect x="78.62" y="139.03" width="2.22" height="2.23" fill="#000f3c"/>
        <rect x="89.75" y="129.02" width="2.22" height="5.56" fill="#000f3c"/>
        <rect x="93.08" y="129.02" width="2.22" height="5.56" fill="#000f3c"/>
        <rect x="96.42" y="129.02" width="2.22" height="5.56" fill="#000f3c"/>
        <rect x="99.76" y="129.02" width="2.22" height="5.56" fill="#000f3c"/>
        <rect x="103.09" y="129.02" width="2.22" height="5.56" fill="#000f3c"/>
        <rect x="106.43" y="129.02" width="2.23" height="5.56" fill="#000f3c"/>
        <rect x="89.75" y="135.69" width="2.22" height="5.56" fill="#000f3c"/>
        <rect x="93.08" y="135.69" width="2.22" height="5.56" fill="#000f3c"/>
        <rect x="96.42" y="135.69" width="2.22" height="5.56" fill="#000f3c"/>
        <rect x="99.76" y="135.69" width="2.22" height="5.56" fill="#000f3c"/>
        <rect x="103.09" y="135.69" width="2.22" height="5.56" fill="#000f3c"/>
        <rect x="106.43" y="135.69" width="2.23" height="5.56" fill="#000f3c"/>
        <line x1="85.69" y1="114.95" x2="85.69" y2="147.53" fill="none" stroke="#000f3c" stroke-miterlimit="10" stroke-width=".65"/>
        <line x1="112.7" y1="106.38" x2="112.7" y2="147.53" fill="none" stroke="#000f3c" stroke-miterlimit="10" stroke-width=".65"/>
        <line x1="77.88" y1="148.28" x2="94.92" y2="148.28" fill="none" stroke="#000f3c" stroke-miterlimit="10" stroke-width=".65"/>
        <line x1="103.48" y1="148.28" x2="120.52" y2="148.28" fill="none" stroke="#000f3c" stroke-miterlimit="10" stroke-width=".65"/>
        <line x1="77.12" y1="119.74" x2="85.73" y2="119.74" fill="none" stroke="#000f3c" stroke-miterlimit="10" stroke-width=".65"/>
        <line x1="112.65" y1="119.74" x2="121.14" y2="119.74" fill="none" stroke="#000f3c" stroke-miterlimit="10" stroke-width=".65"/>
        <line x1="87.21" y1="106.38" x2="111.19" y2="106.38" fill="none" stroke="#000f3c" stroke-miterlimit="10" stroke-width=".65"/>
      </g>
      <g>
        <path d="m260.06,148.25h-3.91v-26.36l-13.46-8.8v-5.53l-17.36,8.97v31.71h-3.23v1.65h40.68m-31.76-5.84h5.98v4.18h-5.98v-4.18Zm14.36.9h2.39v3.29h-2.39v-3.29Z" fill="none" stroke="#000f3c" stroke-miterlimit="10" stroke-width=".65"/>
        <rect x="227.89" y="120.28" width="1.49" height="3.29" fill="#000f3c"/>
        <rect x="230.58" y="120.28" width="1.49" height="3.29" fill="#000f3c"/>
        <rect x="233.27" y="120.28" width="1.49" height="3.29" fill="#000f3c"/>
        <rect x="235.96" y="120.28" width="1.49" height="3.29" fill="#000f3c"/>
        <rect x="238.66" y="120.28" width="1.49" height="3.29" fill="#000f3c"/>
        <rect x="227.89" y="124.77" width="1.49" height="3.29" fill="#000f3c"/>
        <rect x="230.58" y="124.77" width="1.49" height="3.29" fill="#000f3c"/>
        <rect x="233.27" y="124.77" width="1.49" height="3.29" fill="#000f3c"/>
        <rect x="235.96" y="124.77" width="1.49" height="3.29" fill="#000f3c"/>
        <rect x="238.66" y="124.77" width="1.49" height="3.29" fill="#000f3c"/>
        <rect x="227.89" y="129.25" width="1.49" height="3.29" fill="#000f3c"/>
        <rect x="230.58" y="129.25" width="1.49" height="3.29" fill="#000f3c"/>
        <rect x="233.27" y="129.25" width="1.49" height="3.29" fill="#000f3c"/>
        <rect x="235.96" y="129.25" width="1.49" height="3.29" fill="#000f3c"/>
        <rect x="238.66" y="129.25" width="1.49" height="3.29" fill="#000f3c"/>
        <rect x="227.89" y="133.74" width="1.49" height="3.29" fill="#000f3c"/>
        <rect x="230.58" y="133.74" width="1.49" height="3.29" fill="#000f3c"/>
        <rect x="233.27" y="133.74" width="1.49" height="3.29" fill="#000f3c"/>
        <rect x="235.96" y="133.74" width="1.49" height="3.29" fill="#000f3c"/>
        <rect x="238.66" y="133.74" width="1.49" height="3.29" fill="#000f3c"/>
        <rect x="244.04" y="126.56" width="2.39" height="1.49" fill="#000f3c"/>
        <rect x="247.63" y="126.56" width="2.39" height="1.49" fill="#000f3c"/>
        <rect x="251.22" y="126.56" width="2.39" height="1.49" fill="#000f3c"/>
        <rect x="244.04" y="129.25" width="2.39" height="1.49" fill="#000f3c"/>
        <rect x="247.63" y="129.25" width="2.39" height="1.49" fill="#000f3c"/>
        <rect x="251.22" y="129.25" width="2.39" height="1.49" fill="#000f3c"/>
        <rect x="244.04" y="131.95" width="2.39" height="1.49" fill="#000f3c"/>
        <rect x="247.63" y="131.95" width="2.39" height="1.49" fill="#000f3c"/>
        <rect x="251.22" y="131.95" width="2.39" height="1.49" fill="#000f3c"/>
        <rect x="244.04" y="134.64" width="2.39" height="1.49" fill="#000f3c"/>
        <rect x="247.63" y="134.64" width="2.39" height="1.49" fill="#000f3c"/>
        <rect x="251.22" y="134.64" width="2.39" height="1.49" fill="#000f3c"/>
        <rect x="244.04" y="137.33" width="2.39" height="1.49" fill="#000f3c"/>
        <rect x="247.63" y="137.33" width="2.39" height="1.49" fill="#000f3c"/>
        <rect x="251.22" y="137.33" width="2.39" height="1.49" fill="#000f3c"/>
        <rect x="244.04" y="140.02" width="2.39" height="1.49" fill="#000f3c"/>
        <rect x="247.63" y="140.02" width="2.39" height="1.49" fill="#000f3c"/>
        <rect x="251.22" y="140.02" width="2.39" height="1.49" fill="#000f3c"/>
        <rect x="227.89" y="138.23" width="1.49" height="3.29" fill="#000f3c"/>
        <rect x="230.58" y="138.23" width="1.49" height="3.29" fill="#000f3c"/>
        <rect x="233.27" y="138.23" width="1.49" height="3.29" fill="#000f3c"/>
        <rect x="235.96" y="138.23" width="1.49" height="3.29" fill="#000f3c"/>
        <rect x="238.66" y="138.23" width="1.49" height="3.29" fill="#000f3c"/>
        <path d="m269.83,114.5l6.67,5.55.96.17,5.6.65m.25-3.09l-5.6-.94-.25-.11-4.11-5.52c-1.66-2.59-6.51-2.68-7.26,2.17l-1.72,12.36c.17,3.15,1.78,7.97,2.53,11.24l2.55,12.5m4.11-31.81l-2.23,10.86,2.09,20.83m-9-24.03l-4.68,23.12" fill="none" stroke="#000f3c" stroke-miterlimit="10" stroke-width=".65"/>
        <line x1="266.6" y1="135.74" x2="262.85" y2="148.33" fill="none" stroke="#000f3c" stroke-miterlimit="10" stroke-width=".65"/>
        <line x1="225.33" y1="148.25" x2="230.02" y2="148.25" fill="none" stroke="#000f3c" stroke-miterlimit="10" stroke-width=".65"/>
        <line x1="248.83" y1="148.25" x2="256.34" y2="148.25" fill="none" stroke="#000f3c" stroke-miterlimit="10" stroke-width=".65"/>
        <polyline points="236.84 148.25 242.7 148.25 242.7 110.37" fill="none" stroke="#000f3c" stroke-miterlimit="10" stroke-width=".65"/>
        <line x1="256.24" y1="123.57" x2="243.77" y2="115.42" fill="none" stroke="#000f3c" stroke-miterlimit="10" stroke-width=".65"/>
        <circle cx="272.22" cy="103.35" r="3.54" fill="none" stroke="#000f3c" stroke-miterlimit="10" stroke-width=".65"/>
        <path d="m305.52,149.9h40.68s0-1.65,0-1.65h-3.23v-31.71s-17.36-8.97-17.36-8.97v5.53s-13.46,8.8-13.46,8.8v26.36h-3.91m29.04,0h-5.98v-4.18h5.98v4.18Zm-14.36,0h-2.39v-3.29h2.39v3.29Z" fill="none" stroke="#000f3c" stroke-miterlimit="10" stroke-width=".65"/>
        <rect x="336.23" y="120.28" width="1.49" height="3.29" fill="#000f3c"/>
        <rect x="333.54" y="120.28" width="1.49" height="3.29" fill="#000f3c"/>
        <rect x="330.85" y="120.28" width="1.49" height="3.29" fill="#000f3c"/>
        <rect x="328.15" y="120.28" width="1.49" height="3.29" fill="#000f3c"/>
        <rect x="336.23" y="124.77" width="1.49" height="3.29" fill="#000f3c"/>
        <rect x="333.54" y="124.77" width="1.49" height="3.29" fill="#000f3c"/>
        <rect x="330.85" y="124.77" width="1.49" height="3.29" fill="#000f3c"/>
        <rect x="328.15" y="124.77" width="1.49" height="3.29" fill="#000f3c"/>
        <rect x="336.23" y="129.25" width="1.49" height="3.29" fill="#000f3c"/>
        <rect x="333.54" y="129.25" width="1.49" height="3.29" fill="#000f3c"/>
        <rect x="330.85" y="129.25" width="1.49" height="3.29" fill="#000f3c"/>
        <rect x="328.15" y="129.25" width="1.49" height="3.29" fill="#000f3c"/>
        <rect x="336.23" y="133.74" width="1.49" height="3.29" fill="#000f3c"/>
        <rect x="333.54" y="133.74" width="1.49" height="3.29" fill="#000f3c"/>
        <rect x="330.85" y="133.74" width="1.49" height="3.29" fill="#000f3c"/>
        <rect x="328.15" y="133.74" width="1.49" height="3.29" fill="#000f3c"/>
        <rect x="321.87" y="126.56" width="2.39" height="1.49" fill="#000f3c"/>
        <rect x="318.28" y="126.56" width="2.39" height="1.49" fill="#000f3c"/>
        <rect x="314.69" y="126.56" width="2.39" height="1.49" fill="#000f3c"/>
        <rect x="321.87" y="129.25" width="2.39" height="1.49" fill="#000f3c"/>
        <rect x="318.28" y="129.25" width="2.39" height="1.49" fill="#000f3c"/>
        <rect x="314.69" y="129.25" width="2.39" height="1.49" fill="#000f3c"/>
        <rect x="321.87" y="131.95" width="2.39" height="1.49" fill="#000f3c"/>
        <rect x="318.28" y="131.95" width="2.39" height="1.49" fill="#000f3c"/>
        <rect x="314.69" y="131.95" width="2.39" height="1.49" fill="#000f3c"/>
        <rect x="321.87" y="134.64" width="2.39" height="1.49" fill="#000f3c"/>
        <rect x="318.28" y="134.64" width="2.39" height="1.49" fill="#000f3c"/>
        <rect x="314.69" y="134.64" width="2.39" height="1.49" fill="#000f3c"/>
        <rect x="321.87" y="137.33" width="2.39" height="1.49" fill="#000f3c"/>
        <rect x="318.28" y="137.33" width="2.39" height="1.49" fill="#000f3c"/>
        <rect x="314.69" y="137.33" width="2.39" height="1.49" fill="#000f3c"/>
        <rect x="321.87" y="140.02" width="2.39" height="1.49" fill="#000f3c"/>
        <rect x="318.28" y="140.02" width="2.39" height="1.49" fill="#000f3c"/>
        <rect x="314.69" y="140.02" width="2.39" height="1.49" fill="#000f3c"/>
        <rect x="336.23" y="138.23" width="1.49" height="3.29" fill="#000f3c"/>
        <rect x="333.54" y="138.23" width="1.49" height="3.29" fill="#000f3c"/>
        <rect x="330.85" y="138.23" width="1.49" height="3.29" fill="#000f3c"/>
        <rect x="328.15" y="138.23" width="1.49" height="3.29" fill="#000f3c"/>
        <path d="m285.24,120.87l5.6-.65.96-.17,6.67-5.55m.38,34.98l2.55-12.5c.76-3.27,2.37-8.08,2.53-11.24l-1.72-12.36c-.76-4.84-5.6-4.76-7.26-2.17l-4.11,5.52-.25.11-5.6.94m9.9,31.58l2.09-20.83-2.23-10.86m13.81,30.79l-4.68-23.12" fill="none" stroke="#000f3c" stroke-miterlimit="10" stroke-width=".65"/>
        <line x1="301.71" y1="135.74" x2="305.46" y2="148.33" fill="none" stroke="#000f3c" stroke-miterlimit="10" stroke-width=".65"/>
        <line x1="342.97" y1="148.25" x2="338.29" y2="148.25" fill="none" stroke="#000f3c" stroke-miterlimit="10" stroke-width=".65"/>
        <line x1="319.48" y1="148.25" x2="311.96" y2="148.25" fill="none" stroke="#000f3c" stroke-miterlimit="10" stroke-width=".65"/>
        <polyline points="331.46 148.25 325.6 148.25 325.6 110.37" fill="none" stroke="#000f3c" stroke-miterlimit="10" stroke-width=".65"/>
        <line x1="324.54" y1="115.42" x2="312.06" y2="123.57" fill="none" stroke="#000f3c" stroke-miterlimit="10" stroke-width=".65"/>
        <circle cx="296.08" cy="103.35" r="3.54" fill="none" stroke="#000f3c" stroke-miterlimit="10" stroke-width=".65"/>
      </g>
      <circle cx="404.31" cy="121.1" r="3.05" fill="none" stroke="#d34141" stroke-miterlimit="10" stroke-width=".65"/>
      <circle cx="438.97" cy="120.39" r="3.05" fill="none" stroke="#d34141" stroke-miterlimit="10" stroke-width=".65"/>
      <circle cx="433.4" cy="138.33" r="3.05" fill="none" stroke="#d34141" stroke-miterlimit="10" stroke-width=".65"/>
      <circle cx="446.83" cy="138.33" r="3.05" fill="none" stroke="#d34141" stroke-miterlimit="10" stroke-width=".65"/>
      <circle cx="460.26" cy="138.33" r="3.05" fill="none" stroke="#d34141" stroke-miterlimit="10" stroke-width=".65"/>
      <circle cx="517.76" cy="124.1" r="1.67" fill="none" stroke="#335c9c" stroke-miterlimit="10" stroke-width=".65"/>
      <circle cx="540.42" cy="115.19" r="2.82" fill="none" stroke="#335c9c" stroke-miterlimit="10" stroke-width=".65"/>
      <circle cx="554.01" cy="130.89" r="2.17" fill="none" stroke="#335c9c" stroke-miterlimit="10" stroke-width=".65"/>
      <circle cx="568.52" cy="115.19" r="2.82" fill="none" stroke="#335c9c" stroke-miterlimit="10" stroke-width=".65"/>
      <g>
        <path d="m288.5,56.54c-.02.06-.06.21-.09.56-.13,1.35-.63,2.46-2.92,3.11-.07.02-.12.04-.17.04-.06,0-.08-.04-.15-.16-.08-.16-.21-.3-.34-.38,2.35-.49,2.87-1.47,2.93-2.64.02-.42.03-.63-.02-.91.25.01.47.03.67.06.09.02.16.05.16.1,0,.07-.03.12-.06.21Zm5.25-3.82c0,.07-.01.08-.08.08-.06,0-.4-.02-1.38-.02h-2.76v.98h1.8c1.06,0,1.43-.02,1.48-.02.07,0,.08.01.08.08v.42c0,.07,0,.08-.08.08-.05,0-.42-.02-1.48-.02h-4.09c-1.06,0-1.42.02-1.47.02-.07,0-.08-.01-.08-.08v-.42c0-.07.01-.08.08-.08.05,0,.41.02,1.47.02h1.64v-.98h-2.51c-1,0-1.33.02-1.38.02-.07,0-.08-.01-.08-.08v-.44c0-.07.01-.07.08-.07.05,0,.39.01,1.38.01h2.51v-.02c0-.6-.01-.9-.08-1.27.27.01.48.02.73.05.07.01.12.04.12.09s-.02.1-.05.19c-.04.1-.06.34-.06.83v.12h2.76c.99,0,1.32-.01,1.38-.01.07,0,.08,0,.08.07v.44Zm-.23,3.29c0,.79.02.9.02.95,0,.07-.01.08-.08.08h-.48c-.07,0-.08-.01-.08-.08v-1.21h-7.14v1.21c0,.07-.01.08-.08.08h-.48c-.07,0-.08-.01-.08-.08,0-.06.02-.17.02-.95v-.29c0-.27-.02-.4-.02-.46,0-.07.01-.07.08-.07.05,0,.42.01,1.45.01h5.37c1.02,0,1.38-.01,1.45-.01.07,0,.08,0,.08.07,0,.06-.02.19-.02.41v.34Zm-3.02,3.01c0,.28.06.34.22.38.17.05.4.07.98.07s.95-.04,1.12-.17c.23-.17.28-.5.29-1.1.13.09.27.17.43.22.18.06.18.07.16.26-.08.65-.19.9-.46,1.1-.24.19-.7.28-1.57.28-.75,0-1.07-.03-1.37-.12-.19-.05-.42-.2-.42-.65v-2.08c0-.45-.03-.86-.06-1.07.25.01.49.03.66.05.09.01.15.06.15.09,0,.07-.03.12-.06.2-.04.09-.05.19-.05.68v1.85Z" fill="#fff"/>
        <path d="m299.3,55.68c.75-.49,1.49-.74,2.24-.74,1.5,0,2.42.93,2.42,2.28,0,1.55-1.23,2.67-3.43,2.67-1.25,0-1.81-.56-1.81-1.23,0-.54.48-1.06,1.22-1.06.94,0,1.57.6,1.77,1.49.89-.29,1.52-.87,1.52-1.89s-.81-1.71-1.8-1.71-2.06.53-2.86,1.18c-.33.26-.6.54-.92.85-.08.08-.14.09-.21.02-.12-.12-.28-.28-.39-.42-.04-.05-.03-.09.04-.16.82-.72,1.35-1.25,2.35-2.32.6-.66,1.23-1.32,2.03-2.27-.86.14-1.67.29-2.6.47-.13.02-.26.05-.36.09-.07.03-.16.05-.2.05-.07,0-.12-.04-.17-.12-.09-.19-.17-.38-.25-.72.34.04.63.04.92.01.82-.08,1.68-.2,2.59-.37.12-.02.25-.05.32-.09.04-.03.1-.07.15-.07.05,0,.1.02.19.08.2.16.35.31.45.44.05.06.07.12.07.18,0,.08-.05.16-.16.2-.14.04-.25.11-.49.36-.93.98-1.62,1.71-2.66,2.77l.03.03Zm.66,2.49c-.33,0-.63.17-.63.49,0,.34.38.63,1.07.63.23,0,.44-.01.68-.05-.14-.59-.52-1.07-1.11-1.07Z" fill="#fff"/>
      </g>
      <g>
        <path d="m327.4,52.65c-.38.32-.85.65-1.44.96-.07.03-.11.05-.16.05-.05,0-.08-.04-.15-.15-.07-.12-.15-.21-.24-.28,1.01-.46,2.03-1.25,2.59-2,.07-.09.16-.23.22-.36.2.06.36.14.51.22.08.04.1.08.1.14,0,.06-.05.09-.12.14-.06.03-.12.09-.24.22l-.48.52v1.35c0,.52.02.71.02.76,0,.07,0,.08-.08.08h-.48c-.07,0-.08-.01-.08-.08,0-.06.02-.22.02-.71v-.85Zm1.57,6.68c-.09.02-.21.07-.32.14-.67.36-1.56.66-2.45.83-.2.03-.23.03-.3-.12-.07-.16-.18-.27-.27-.35.9-.14,1.84-.39,2.44-.69.13-.07.26-.16.37-.27.25.1.39.17.54.25.07.04.1.07.1.12,0,.04-.04.08-.11.09Zm4.27-1.72c0,.73.02,1,.02,1.06,0,.07,0,.08-.08.08-.06,0-.42-.02-1.45-.02h-3.08c-1.03,0-1.38.02-1.45.02-.07,0-.08-.01-.08-.08,0-.06.02-.33.02-1.06v-1.81c0-.74-.02-1.01-.02-1.06,0-.07.01-.08.08-.08.06,0,.42.02,1.45.02h3.08c1.03,0,1.38-.02,1.45-.02.07,0,.08.01.08.08,0,.05-.02.32-.02,1.06v1.81Zm-.59-2.46h-4.91v.72h4.91v-.72Zm0,1.17h-4.91v.72h4.91v-.72Zm0,1.17h-4.91v.77h4.91v-.77Zm-1.05-4.73c.19.21.4.42.63.61.51.43.99.61,1.45.61.38,0,.55-.18.67-.95.1.09.22.17.32.22.18.09.2.11.16.3-.2.84-.58,1.01-1.02,1.01-.77,0-1.34-.24-1.97-.76-.36-.3-.67-.61-.92-.97l-.75.08c-.99.11-1.31.18-1.39.19-.07.01-.08,0-.09-.07l-.04-.41c-.01-.07,0-.07.07-.08.09-.01.42-.02,1.4-.15l.49-.06c-.15-.26-.27-.54-.38-.85-.09-.23-.17-.42-.25-.57.23-.01.45-.02.62-.02.12,0,.19.03.19.08s-.02.09-.02.15c0,.09.04.27.09.41.1.26.23.5.37.74l1.58-.2c.99-.12,1.32-.2,1.39-.21s.07,0,.08.07l.05.42c0,.07,0,.09-.08.09-.07,0-.43.04-1.42.16l-1.25.16Zm.05,6.2c.1-.06.13-.06.21-.02.75.47,1.71.72,2.78.86-.1.09-.2.21-.29.38-.08.16-.1.16-.31.12-.83-.16-1.95-.52-2.72-1.04-.07-.04-.08-.07.06-.16l.27-.15Zm1.23-7.17c-.09.1-.1.11-.18.06-.33-.25-.69-.45-1.11-.61-.07-.03-.07-.04,0-.15l.16-.18c.07-.08.1-.08.18-.05.41.16.74.32,1.12.56.07.05.08.07,0,.17l-.18.2Z" fill="#fff"/>
        <path d="m347.26,53.44c0,.09-.03.1-.14.1-1.11-.03-2.13-.04-3.31,0,0,.66,0,1.37.01,2.07.08.32.12.7.12,1.09,0,1.31-.56,2.42-2.03,3.22-.1.06-.19.09-.24.09-.06,0-.12-.03-.19-.08-.11-.1-.3-.23-.48-.29,1.49-.61,2.17-1.57,2.27-2.62-.23.4-.68.59-1.14.59-.72,0-1.37-.48-1.37-1.47,0-.88.66-1.45,1.43-1.45.4,0,.76.11.98.35-.01-.51-.01-.98-.02-1.47-1.49.08-2.89.19-3.88.31-.25.03-.38.1-.46.1-.06,0-.1-.03-.12-.1-.06-.14-.11-.38-.17-.67.35.02.7-.01,1.31-.06.84-.06,1.92-.14,3.3-.22-.01-.43-.01-.63-.02-.97-.01-.26-.03-.43-.1-.7.31.02.61.07.79.11.11.03.19.08.19.16,0,.06-.03.11-.07.19-.04.07-.06.15-.07.28-.02.23-.02.43-.02.88,1.16-.03,2.18-.03,3.33-.03.09,0,.12.01.12.11v.45Zm-5.88,2.69c0,.57.38.9.84.9.58,0,.95-.45.95-.92,0-.52-.39-.88-.93-.88-.46,0-.86.34-.86.91Z" fill="#fff"/>
      </g>
      <rect x="503.93" y="46.94" width="38.57" height="17.73" rx="8.86" ry="8.86" fill="#6287a6"/>
      <rect x="545.64" y="46.94" width="38.57" height="17.73" rx="8.86" ry="8.86" fill="#6287a6"/>
      <g>
        <path d="m514.81,58.24c.21.51.45.78.93,1,.38.17,1.17.27,2.15.27,1.33,0,2.77-.06,4.31-.21-.1.12-.17.27-.19.43q-.04.21-.25.23c-1.34.08-2.59.12-3.64.12-1.19,0-2.11-.11-2.61-.34-.48-.22-.75-.53-.99-1.02-.32.34-.69.67-1.1,1-.12.09-.2.17-.23.22-.04.06-.08.09-.12.09s-.08-.03-.12-.09c-.1-.17-.2-.32-.29-.53.27-.14.43-.23.65-.39.3-.22.61-.49.92-.82v-2.6h-.74c-.53,0-.67.02-.71.02-.08,0-.09-.01-.09-.09v-.45c0-.07.01-.08.09-.08.04,0,.18.02.71.02h.54c.54,0,.69-.02.74-.02.07,0,.08.01.08.08,0,.05-.02.32-.02.99v2.18Zm-1.41-6.83c.11-.07.12-.08.19-.02.43.42.81.9,1.19,1.46.04.06.03.08-.07.17l-.25.2c-.13.09-.15.09-.2.01-.35-.58-.75-1.09-1.16-1.5-.06-.05-.05-.06.06-.15l.24-.17Zm8.28.81c0,.8.02.9.02.96s-.01.07-.08.07h-.45c-.07,0-.08-.01-.08-.07v-1.22h-5.27v1.22c0,.06-.01.07-.08.07h-.44c-.07,0-.08-.01-.08-.07s.02-.16.02-.96v-.26c0-.27-.02-.4-.02-.46,0-.07,0-.08.08-.08.05,0,.43.02,1.48.02h3.36c1.05,0,1.43-.02,1.48-.02.07,0,.08.01.08.08,0,.06-.02.19-.02.41v.31Zm-.03,5.81c0,.07,0,.08-.08.08-.05,0-.41-.02-1.46-.02h-1.46v.04c0,.59.02.82.02.88s-.01.08-.08.08h-.44c-.06,0-.08-.02-.08-.08s.02-.29.02-.88v-.04h-1.29c-1.04,0-1.39.02-1.46.02-.07,0-.08-.01-.08-.08v-.38c0-.07.01-.08.08-.08.06,0,.42.02,1.46.02h1.29v-.66h-.75c-.96,0-1.29.02-1.35.02s-.07-.01-.07-.08c0-.06,0-.27,0-.88v-1.03c0-.61,0-.82,0-.87,0-.07,0-.08.07-.08s.4.02,1.35.02h.75v-.63h-.74c-.82,0-1.13.02-1.19.02-.07,0-.08-.01-.08-.08v-.36c0-.07.01-.08.08-.08.05,0,.36.02,1.19.02h.74c0-.25-.02-.48-.06-.7.24.01.4.02.61.05.06.01.11.03.11.07,0,.05-.01.08-.04.15-.04.08-.06.18-.06.39v.04h.91c.82,0,1.13-.02,1.19-.02.07,0,.08.01.08.08v.36c0,.07,0,.08-.08.08-.05,0-.36-.02-1.19-.02h-.91v.63h.87c.96,0,1.29-.02,1.35-.02.07,0,.08.01.08.08,0,.05-.02.26-.02.87v1.03c0,.61.02.82.02.88,0,.07-.01.08-.08.08-.06,0-.4-.02-1.35-.02h-.87v.66h1.46c1.05,0,1.41-.02,1.46-.02.07,0,.08.01.08.08v.38Zm-3.56-3.56h-1.61v.74h1.61v-.74Zm0,1.19h-1.61v.81h1.61v-.81Zm2.29-1.19h-1.73v.74h1.73v-.74Zm0,1.19h-1.73v.81h1.73v-.81Z" fill="#fff"/>
        <path d="m534.4,53.58c0,.91.02,1.04.02,1.09,0,.07-.01.08-.08.08h-.47c-.07,0-.08-.01-.08-.08v-1.53h-7.2v1.53c0,.07-.01.08-.08.08h-.47c-.07,0-.08-.01-.08-.08,0-.06.02-.2.02-1.09v-.34c0-.34-.02-.5-.02-.55,0-.07,0-.08.08-.08.06,0,.43.02,1.45.02h4.38c.28-.44.5-.84.7-1.27.05-.1.1-.27.14-.43.24.07.45.15.59.21.08.04.12.07.12.12,0,.06-.02.09-.08.12-.07.04-.15.15-.22.27-.19.33-.4.69-.59.97h.38c1.01,0,1.37-.02,1.44-.02.07,0,.08.01.08.08,0,.05-.02.21-.02.49v.41Zm-.8,5.15c0,1.21.01,1.41.01,1.47s0,.07-.07.07h-.48c-.07,0-.08-.01-.08-.07v-.4h-5.58v.44c0,.06-.01.07-.07.07h-.49c-.07,0-.08-.01-.08-.07s.02-.26.02-1.49v-.55c0-.58-.02-.8-.02-.85,0-.07.01-.08.08-.08.06,0,.43.01,1.49.01h.94c.15-.31.29-.69.4-1.02h-.56c-.96,0-1.29.02-1.35.02s-.07-.01-.07-.08c0-.06.02-.21.02-.71v-.69c0-.5-.02-.66-.02-.71,0-.07.01-.08.07-.08s.4.02,1.35.02h2.16c.96,0,1.29-.02,1.35-.02s.07.01.07.08c0,.05-.02.21-.02.71v.69c0,.5.02.66.02.71,0,.07,0,.08-.07.08s-.4-.02-1.35-.02h-.96c-.12.39-.26.73-.4,1.02h2.14c1.05,0,1.43-.01,1.49-.01.07,0,.07.01.07.08,0,.05-.01.27-.01.74v.65Zm-6.18-7.68c.1-.04.14-.04.18.01.28.33.5.71.71,1.11.03.06.03.07-.08.12l-.29.14c-.13.06-.16.06-.21-.07-.12-.29-.42-.8-.66-1.07-.05-.06-.05-.08.08-.14l.27-.1Zm5.56,6.76h-5.58v1.45h5.58v-1.45Zm-.92-3.29h-3.77v1.23h3.77v-1.23Zm-2.21-3.59c.08-.03.1-.02.16.04.24.33.43.66.61,1.12.03.07.03.08-.1.15l-.27.12c-.14.06-.15.05-.19-.05-.12-.33-.35-.82-.58-1.14-.05-.07-.03-.08.08-.12l.29-.11Z" fill="#fff"/>
      </g>
      <g>
        <path d="m558.05,52.25c0,.07,0,.08-.08.08-.06,0-.31-.02-1.12-.02h-.36c.15.25.27.53.4.84.02.06,0,.08-.09.11l-.32.1c-.12.04-.15.03-.17-.05-.1-.32-.24-.68-.42-1.01h-.95c-.25.36-.53.69-.86,1-.07.06-.11.09-.15.09-.04,0-.08-.03-.16-.09-.11-.1-.22-.17-.33-.21.65-.54,1.07-1.08,1.41-1.79.06-.12.1-.27.12-.43.22.03.4.07.57.12.07.02.1.06.1.1,0,.05-.03.09-.06.12-.06.06-.09.11-.17.26-.05.11-.12.21-.17.31h1.6c.81,0,1.06-.02,1.12-.02.07,0,.08.01.08.08v.38Zm4.21,2.34c0,.76.02.87.02.93,0,.07,0,.08-.08.08h-.47c-.07,0-.08-.01-.08-.08v-1.18h-7.11v1.18c0,.07,0,.08-.08.08h-.47c-.07,0-.08-.01-.08-.08,0-.06.02-.17.02-.93v-.27c0-.26-.02-.39-.02-.44,0-.07.01-.08.08-.08.06,0,.43.02,1.45.02h2.25c0-.28,0-.53-.07-.78.25,0,.49.02.66.05.08.01.12.04.12.08,0,.06-.02.1-.06.19-.04.09-.04.26-.04.46h2.46c1.03,0,1.39-.02,1.46-.02.07,0,.08.01.08.08,0,.05-.02.18-.02.4v.31Zm-1.04,4.85c0,.57.02.74.02.79,0,.07-.01.08-.08.08h-.46c-.07,0-.08-.01-.08-.08v-.43h-4.55v.44c0,.06-.01.07-.08.07h-.46c-.07,0-.08-.01-.08-.07s.02-.36.02-1.23v-2.73c0-.86-.02-1.18-.02-1.24,0-.07.01-.08.08-.08.06,0,.49.02,1.45.02h2.16c.94,0,1.3-.02,1.35-.02.07,0,.08.01.08.08,0,.06-.02.23-.02.69v.46c0,.46.02.63.02.7s-.01.07-.08.07c-.05,0-.42-.02-1.35-.02h-3.07v.79h3.6c.99,0,1.43-.02,1.49-.02.07,0,.08.01.08.08,0,.06-.02.25-.02.81v.83Zm-1.27-3.95h-3.88v.96h3.88v-.96Zm.67,2.74h-4.55v1.08h4.55v-1.08Zm1.99-5.97c0,.07-.01.08-.08.08-.05,0-.35-.02-1.29-.02h-.72c.16.25.29.52.44.84.03.06.01.09-.09.12l-.3.08c-.12.03-.14.02-.17-.05-.12-.34-.27-.69-.46-1h-.99c-.11.21-.25.41-.4.61-.06.07-.09.11-.14.11-.03,0-.08-.03-.17-.09-.11-.07-.22-.11-.35-.15.42-.51.67-.95.87-1.49.04-.1.08-.27.11-.45.23.03.42.07.56.11.07.02.12.05.12.11,0,.05-.03.08-.08.12-.06.05-.09.14-.16.28-.04.1-.08.22-.13.31h2.04c.94,0,1.24-.02,1.29-.02.07,0,.08.01.08.08v.38Z" fill="#fff"/>
        <path d="m568.16,57.44c.46-.2.88-.42,1.3-.66-.02.11-.03.26-.03.4q.01.22-.17.32c-.67.37-1.55.78-2.32,1.08-.22.08-.33.14-.37.17-.04.03-.08.06-.14.06-.03,0-.07-.02-.1-.09-.07-.18-.14-.37-.19-.59.28-.04.58-.12.96-.26l.45-.17v-2.6h-.17c-.68,0-.87.02-.93.02-.07,0-.08-.01-.08-.08v-.44c0-.07.01-.08.08-.08.05,0,.25.02.93.02h.17v-2.23h-.24c-.73,0-.95.02-1.01.02s-.07-.01-.07-.08v-.45c0-.07.01-.08.07-.08s.28.02,1.01.02h1.06c.74,0,.95-.02,1-.02.07,0,.08.01.08.08v.45c0,.07-.01.08-.08.08-.05,0-.26-.02-1-.02h-.21v2.23h.11c.68,0,.87-.02.94-.02.07,0,.07.01.07.08v.44c0,.07,0,.08-.07.08-.06,0-.26-.02-.94-.02h-.11v2.34Zm7.42,2.27c0,.07-.01.08-.07.08-.05,0-.42-.02-1.48-.02h-3.81c-1.06,0-1.43.02-1.48.02-.07,0-.08-.01-.08-.08v-.46c0-.07,0-.08.08-.08.05,0,.42.02,1.48.02h1.78v-1.35h-.8c-.98,0-1.3.02-1.36.02-.07,0-.08-.01-.08-.08v-.45c0-.07,0-.08.08-.08.06,0,.38.02,1.36.02h.8v-1.19h-.8c-.97,0-1.31.02-1.36.02-.08,0-.09-.01-.09-.07s.02-.35.02-1.14v-2.1c0-.78-.02-1.06-.02-1.12,0-.07.01-.08.09-.08.05,0,.4.02,1.36.02h2.31c.97,0,1.3-.02,1.36-.02.07,0,.08.01.08.08,0,.05-.02.34-.02,1.12v2.1c0,.79.02,1.08.02,1.14s-.01.07-.08.07c-.06,0-.4-.02-1.36-.02h-.91v1.19h.97c.98,0,1.3-.02,1.36-.02.07,0,.08.01.08.08v.45c0,.07-.01.08-.08.08-.06,0-.38-.02-1.36-.02h-.97v1.35h1.43c1.06,0,1.43-.02,1.48-.02.06,0,.07.01.07.08v.46Zm-3.58-7.58h-1.64v1.42h1.64v-1.42Zm0,1.94h-1.64v1.47h1.64v-1.47Zm2.33-1.94h-1.73v1.42h1.73v-1.42Zm0,1.94h-1.73v1.47h1.73v-1.47Z" fill="#fff"/>
      </g>
      <polygon points="362.08 185.87 364.22 192.14 362.08 198.42 372.11 192.14 362.08 185.87" fill="#6287a6"/>
      <polygon points="602.01 185.87 604.15 192.14 602.01 198.42 612.04 192.14 602.01 185.87" fill="#af3836"/>
      <polygon points="199.84 185.87 201.97 192.14 199.84 198.42 209.87 192.14 199.84 185.87" fill="#6287a6"/>
    </g>
  </g>
</svg>