<?xml version="1.0" encoding="UTF-8"?>
<svg id="_レイヤー_2" data-name="レイヤー 2" xmlns="http://www.w3.org/2000/svg" viewBox="0 0 345.8 104.91">
  <g id="_デザイン" data-name="デザイン">
    <g>
      <g>
        <path d="m185.73,77.27c0,14.93-12.97,27.64-31.18,27.64-16.11,0-26.2-10.09-26.2-19.13,0-4.19,2.1-7.73,6.42-7.73s6.29,3.8,6.29,7.07c0,1.44-1.18,5.24-1.18,6.29,0,3.27,4.72,9.04,14.02,9.04,11.66,0,21.09-9.3,21.09-23.71,0-13.49-7.99-23.19-21.22-23.19-.66,0-4.19.39-4.98.39s-3.54,0-3.54-2.75c0-1.96,1.57-2.36,3.41-2.36.66,0,4.19.39,4.98.39,7.33,0,19.39-6.16,19.39-21.22,0-12.71-8.78-19.13-17.42-19.13-7.86,0-12.31,4.98-12.31,8.91,0,.66.39,3.93.39,4.72,0,3.01-1.44,7.73-6.16,7.73-3.8,0-5.37-3.54-5.37-6.94,0-9.69,11.27-18.86,24.63-18.86,14.67,0,26.59,9.3,26.59,22.4,0,9.43-7.47,20.57-22.92,24.23,19.52,2.62,25.28,17.16,25.28,26.2Z" fill="#003383"/>
        <path d="m218.74,104.91c-15.59,0-24.63-11.4-24.63-19.65,0-4.06,2.62-7.6,6.68-7.6,3.14,0,5.76,2.75,5.76,7.2,0,1.7-.92,5.37-.92,6.29,0,4.58,4.85,9.3,13.62,9.3,16.64,0,21.61-16.9,21.61-28.69,0-11-3.28-25.02-19.52-25.02-9.17,0-14.67,5.11-21.09,11.53l-1.96-1.44,2.49-50.04h45.19l-2.36,8.51h-39.04l-1.7,35.76c2.88-2.88,5.11-4.98,10.09-7.2,4.19-1.83,7.99-2.62,11.27-2.62,10.09,0,26.72,8.25,26.72,29.34s-15.33,34.32-32.23,34.32Z" fill="#003383"/>
        <path d="m287.65,96.14c0,2.49-.13,8.78-7.07,8.78-3.01,0-6.42-1.05-6.42-8.25,0-15.98,20.3-52.14,36.81-81.35h-30.13c-11.79,0-15.46,9.56-18.6,18.73l-2.75-.39,5.63-26.85h52.53v4.45c-16.64,28.16-29.74,52.66-30,84.89Z" fill="#003383"/>
      </g>
      <path d="m321.49,77.23h-5l-.04,3.24c1.44.48,5.28,2.72,5.28,4.64,0,.52-.28,1.28-1.04,1.28-1,0-1.24-.72-1.8-2.28-.32-.88-1.32-2.44-2.44-3.2-.08,5.24-.12,7-.12,9.92,0,3.64.08,5.88.16,8.12.04.48.16,2.6.16,3.04,0,1.08-.76,1.44-1.64,1.44-.96,0-.96-.72-.96-.96,0-.96.2-5.2.24-6.08.04-2.28.36-12.52.4-13.88-1.12,3.32-3.96,8.6-7.76,11.88l-.28-.2c3.04-3.44,7.12-13.72,7.64-16.96-1.48,0-3.64.16-5.2.44l-.96-1.72c1.56.12,3.6.28,6.64.32,0-6.28-.28-7.2-.92-9.24l3.52,1.04c.28.08.68.24.68.64,0,.44-.56.72-1.4.96-.08,1.04-.12,5.64-.12,6.6h1.64l.92-1.2c.2-.24.36-.48.6-.48s.44.16.72.44l1.28,1.16c.2.16.4.36.4.6,0,.4-.36.44-.6.44Zm20.92,23.52c-3.4-2.36-6.04-5.04-8.8-11.08h-.16c.08,2.56.2,6.36.32,9.56,0,.4.12,2.24.12,2.6,0,1.32-.76,1.76-1.6,1.76s-.96-.48-.96-1c0-.12.04-1.16.08-1.48.04-.76.04-2.6.04-3.08v-3.68c0-.8,0-1.04.04-3.36-3,4.24-6.92,7.8-11.64,10.04l-.12-.2c3.92-3.28,7.76-7.08,9.96-11.16h-3.48c.16,1.52-1.2,1.6-1.44,1.6-.52,0-.84-.2-.84-.84,0-.2.12-1.2.12-1.4.04-1.12.04-2.76.04-3.84,0-.44-.04-6.12-.04-6.32-.04-1.4-.16-1.96-.32-2.68l2.96,1.6h4.76l-.08-4.44h-3.4c-1.28,0-3.52.16-5.16.48l-.92-1.72c2.2.16,4.4.28,6.64.28h2.8c-.04-3.36-.08-3.92-.48-5.28l3.24.76c.44.12.84.2.84.6,0,.44-.48.76-1.36,1.28,0,.24-.04,1.76-.04,2.64h5.76l1.2-1.52c.28-.32.44-.56.68-.56s.4.16.76.48l1.56,1.52c.2.2.36.4.36.6,0,.4-.36.44-.6.44h-9.72l-.04,4.44h4.84l.8-.88c.24-.24.4-.4.56-.4s.36.12.68.36l1.4,1.16c.12.12.32.24.32.52,0,.32-.56.64-1.16,1,0,1.68-.04,2.96.04,4.76.04,1.28.24,3.36.24,4.64,0,1.36-1.08,1.8-1.6,1.8-.8,0-.76-.56-.76-1.08h-4.68c1.64,2.68,5.48,6.96,11.64,8.44v.24c-1.08.4-2.12.76-3.4,2.4Zm-10.96-22h-5.24v4.4h5.32l-.08-4.4Zm-5.24,5.36v4.6h5.28l.04-4.6h-5.32Zm12.68-5.36h-5.4l-.08,4.4h5.48v-4.4Zm0,5.36h-5.48v4.6h5.48v-4.6Z" fill="#003383"/>
    </g>
    <g>
      <path d="m51.35,17.65c-.89,0-1.6-.72-1.6-1.6v-6.42c0-.89.72-1.6,1.6-1.6s1.6.72,1.6,1.6v6.42c0,.89-.72,1.6-1.6,1.6Z" fill="#003383"/>
      <path d="m44.93,17.65c-.89,0-1.6-.72-1.6-1.6v-6.42c0-.89.72-1.6,1.6-1.6s1.6.72,1.6,1.6v6.42c0,.89-.72,1.6-1.6,1.6Z" fill="#003383"/>
      <path d="m38.52,17.65c-.89,0-1.6-.72-1.6-1.6v-6.42c0-.89.72-1.6,1.6-1.6s1.6.72,1.6,1.6v6.42c0,.89-.72,1.6-1.6,1.6Z" fill="#003383"/>
      <path d="m16.05,94.68c-.89,0-1.6-.72-1.6-1.6v-54.56c0-.89.72-1.6,1.6-1.6s1.6.72,1.6,1.6v54.56c0,.89-.72,1.6-1.6,1.6Z" fill="#003383"/>
      <path d="m22.47,94.68c-.89,0-1.6-.72-1.6-1.6v-54.56c0-.89.72-1.6,1.6-1.6s1.6.72,1.6,1.6v54.56c0,.89-.72,1.6-1.6,1.6Z" fill="#003383"/>
      <path d="m80.24,94.68c-.89,0-1.6-.72-1.6-1.6v-38.52c0-.89.72-1.6,1.6-1.6s1.6.72,1.6,1.6v38.52c0,.89-.72,1.6-1.6,1.6Z" fill="#003383"/>
      <path d="m86.66,94.68c-.89,0-1.6-.72-1.6-1.6v-38.52c0-.89.72-1.6,1.6-1.6s1.6.72,1.6,1.6v38.52c0,.89-.72,1.6-1.6,1.6Z" fill="#003383"/>
      <path d="m57.77,17.65c-.89,0-1.6-.72-1.6-1.6v-6.42c0-.89.72-1.6,1.6-1.6s1.6.72,1.6,1.6v6.42c0,.89-.72,1.6-1.6,1.6Z" fill="#003383"/>
      <path d="m64.19,17.65c-.89,0-1.6-.72-1.6-1.6v-6.42c0-.89.72-1.6,1.6-1.6s1.6.72,1.6,1.6v6.42c0,.89-.72,1.6-1.6,1.6Z" fill="#003383"/>
      <path d="m51.35,30.49c-.89,0-1.6-.72-1.6-1.6v-6.42c0-.89.72-1.6,1.6-1.6s1.6.72,1.6,1.6v6.42c0,.89-.72,1.6-1.6,1.6Z" fill="#003383"/>
      <path d="m44.93,30.49c-.89,0-1.6-.72-1.6-1.6v-6.42c0-.89.72-1.6,1.6-1.6s1.6.72,1.6,1.6v6.42c0,.89-.72,1.6-1.6,1.6Z" fill="#003383"/>
      <path d="m38.52,30.49c-.89,0-1.6-.72-1.6-1.6v-6.42c0-.89.72-1.6,1.6-1.6s1.6.72,1.6,1.6v6.42c0,.89-.72,1.6-1.6,1.6Z" fill="#003383"/>
      <path d="m57.77,30.49c-.89,0-1.6-.72-1.6-1.6v-6.42c0-.89.72-1.6,1.6-1.6s1.6.72,1.6,1.6v6.42c0,.89-.72,1.6-1.6,1.6Z" fill="#003383"/>
      <path d="m64.19,30.49c-.89,0-1.6-.72-1.6-1.6v-6.42c0-.89.72-1.6,1.6-1.6s1.6.72,1.6,1.6v6.42c0,.89-.72,1.6-1.6,1.6Z" fill="#003383"/>
      <path d="m51.35,43.33c-.89,0-1.6-.72-1.6-1.6v-6.42c0-.89.72-1.6,1.6-1.6s1.6.72,1.6,1.6v6.42c0,.89-.72,1.6-1.6,1.6Z" fill="#003383"/>
      <path d="m44.93,43.33c-.89,0-1.6-.72-1.6-1.6v-6.42c0-.89.72-1.6,1.6-1.6s1.6.72,1.6,1.6v6.42c0,.89-.72,1.6-1.6,1.6Z" fill="#003383"/>
      <path d="m38.52,43.33c-.89,0-1.6-.72-1.6-1.6v-6.42c0-.89.72-1.6,1.6-1.6s1.6.72,1.6,1.6v6.42c0,.89-.72,1.6-1.6,1.6Z" fill="#003383"/>
      <path d="m57.77,43.33c-.89,0-1.6-.72-1.6-1.6v-6.42c0-.89.72-1.6,1.6-1.6s1.6.72,1.6,1.6v6.42c0,.89-.72,1.6-1.6,1.6Z" fill="#003383"/>
      <path d="m64.19,43.33c-.89,0-1.6-.72-1.6-1.6v-6.42c0-.89.72-1.6,1.6-1.6s1.6.72,1.6,1.6v6.42c0,.89-.72,1.6-1.6,1.6Z" fill="#003383"/>
      <path d="m51.35,56.17c-.89,0-1.6-.72-1.6-1.6v-6.42c0-.89.72-1.6,1.6-1.6s1.6.72,1.6,1.6v6.42c0,.89-.72,1.6-1.6,1.6Z" fill="#003383"/>
      <path d="m44.93,56.17c-.89,0-1.6-.72-1.6-1.6v-6.42c0-.89.72-1.6,1.6-1.6s1.6.72,1.6,1.6v6.42c0,.89-.72,1.6-1.6,1.6Z" fill="#003383"/>
      <path d="m38.52,56.17c-.89,0-1.6-.72-1.6-1.6v-6.42c0-.89.72-1.6,1.6-1.6s1.6.72,1.6,1.6v6.42c0,.89-.72,1.6-1.6,1.6Z" fill="#003383"/>
      <path d="m57.77,56.17c-.89,0-1.6-.72-1.6-1.6v-6.42c0-.89.72-1.6,1.6-1.6s1.6.72,1.6,1.6v6.42c0,.89-.72,1.6-1.6,1.6Z" fill="#003383"/>
      <path d="m64.19,56.17c-.89,0-1.6-.72-1.6-1.6v-6.42c0-.89.72-1.6,1.6-1.6s1.6.72,1.6,1.6v6.42c0,.89-.72,1.6-1.6,1.6Z" fill="#003383"/>
      <path d="m51.35,69.01c-.89,0-1.6-.72-1.6-1.6v-6.42c0-.89.72-1.6,1.6-1.6s1.6.72,1.6,1.6v6.42c0,.89-.72,1.6-1.6,1.6Z" fill="#003383"/>
      <path d="m44.93,69.01c-.89,0-1.6-.72-1.6-1.6v-6.42c0-.89.72-1.6,1.6-1.6s1.6.72,1.6,1.6v6.42c0,.89-.72,1.6-1.6,1.6Z" fill="#003383"/>
      <path d="m38.52,69.01c-.89,0-1.6-.72-1.6-1.6v-6.42c0-.89.72-1.6,1.6-1.6s1.6.72,1.6,1.6v6.42c0,.89-.72,1.6-1.6,1.6Z" fill="#003383"/>
      <path d="m57.77,69.01c-.89,0-1.6-.72-1.6-1.6v-6.42c0-.89.72-1.6,1.6-1.6s1.6.72,1.6,1.6v6.42c0,.89-.72,1.6-1.6,1.6Z" fill="#003383"/>
      <path d="m64.19,69.01c-.89,0-1.6-.72-1.6-1.6v-6.42c0-.89.72-1.6,1.6-1.6s1.6.72,1.6,1.6v6.42c0,.89-.72,1.6-1.6,1.6Z" fill="#003383"/>
      <path d="m101.1,99.5h-4.81v-52.96c0-.89-.72-1.6-1.6-1.6h-21.29c-.89,0-1.6.72-1.6,1.6s.72,1.6,1.6,1.6h19.69v51.35h-19.26V1.6c0-.89-.72-1.6-1.6-1.6H30.49c-.89,0-1.6.72-1.6,1.6v97.89H9.63V32.1h19.03c.89,0,1.6-.72,1.6-1.6s-.72-1.6-1.6-1.6H8.02c-.89,0-1.6.72-1.6,1.6v69.01H1.6c-.89,0-1.6.72-1.6,1.6s.72,1.6,1.6,1.6h6.42s0,0,0,0,0,0,0,0h22.46s0,0,0,0h41.73s0,0,0,0h22.46s0,0,0,0,0,0,0,0h6.42c.89,0,1.6-.72,1.6-1.6s-.72-1.6-1.6-1.6ZM32.1,3.21h38.52v96.29h-9.63v-24.07c0-.89-.72-1.6-1.6-1.6h-16.05c-.89,0-1.6.72-1.6,1.6v24.07h-9.63V3.21Zm25.68,96.29h-12.84v-22.47h12.84v22.47Z" fill="#003383"/>
    </g>
  </g>
</svg>