<?xml version="1.0" encoding="UTF-8"?>
<svg id="_レイヤー_2" data-name="レイヤー 2" xmlns="http://www.w3.org/2000/svg" viewBox="0 0 526.4 116.95">
  <g id="_デザイン" data-name="デザイン">
    <g>
      <g>
        <path d="m271.85,76.47c0,14.93-12.97,27.64-31.18,27.64-16.11,0-26.2-10.09-26.2-19.13,0-4.19,2.1-7.73,6.42-7.73s6.29,3.8,6.29,7.07c0,1.44-1.18,5.24-1.18,6.29,0,3.27,4.72,9.04,14.02,9.04,11.66,0,21.09-9.3,21.09-23.71,0-13.49-7.99-23.19-21.22-23.19-.66,0-4.19.39-4.98.39s-3.54,0-3.54-2.75c0-1.97,1.57-2.36,3.41-2.36.66,0,4.19.39,4.98.39,7.33,0,19.39-6.16,19.39-21.22,0-12.71-8.78-19.13-17.42-19.13-7.86,0-12.31,4.98-12.31,8.91,0,.66.39,3.93.39,4.72,0,3.01-1.44,7.73-6.16,7.73-3.8,0-5.37-3.54-5.37-6.94,0-9.69,11.27-18.86,24.63-18.86,14.67,0,26.59,9.3,26.59,22.4,0,9.43-7.47,20.57-22.92,24.23,19.52,2.62,25.28,17.16,25.28,26.2Z" fill="#003383"/>
        <path d="m278.53,116.95l-2.1-2.36c3.14-2.88,6.03-5.63,6.03-8.52,0-1.31-.52-2.1-1.18-2.23-3.27-1.05-5.11-2.75-5.11-6.29s2.62-6.68,6.55-6.68c4.45,0,6.68,3.67,6.68,7.47,0,8.78-7.99,15.98-10.87,18.6Z" fill="#003383"/>
        <path d="m322.41,104.11c-18.47,0-29.47-23.58-29.47-50.3s10.74-50.17,29.47-50.17,29.47,23.58,29.47,50.17-11,50.3-29.47,50.3Zm0-96.81c-9.96,0-19.78,12.44-19.78,46.5s10.09,46.63,19.78,46.63c9.17,0,19.78-10.74,19.78-46.63s-10.61-46.5-19.78-46.5Z" fill="#003383"/>
        <path d="m387.91,104.11c-18.47,0-29.47-23.58-29.47-50.3s10.74-50.17,29.47-50.17,29.47,23.58,29.47,50.17-11,50.3-29.47,50.3Zm0-96.81c-9.96,0-19.78,12.44-19.78,46.5s10.09,46.63,19.78,46.63c9.17,0,19.78-10.74,19.78-46.63s-10.61-46.5-19.78-46.5Z" fill="#003383"/>
        <path d="m453.41,104.11c-18.47,0-29.47-23.58-29.47-50.3s10.74-50.17,29.47-50.17,29.47,23.58,29.47,50.17-11,50.3-29.47,50.3Zm0-96.81c-9.96,0-19.78,12.44-19.78,46.5s10.09,46.63,19.78,46.63c9.17,0,19.78-10.74,19.78-46.63s-10.61-46.5-19.78-46.5Z" fill="#003383"/>
      </g>
      <path d="m504.45,87.02c-.68,0-.72-.04-2.16-2.32-1-1.64-1.76-2.68-3.04-3.96v8.28c0,1.64.2,8.88.2,10.36,0,.44,0,1.8-1.6,1.8-.88,0-.96-.52-.96-1.16,0-1.68.12-4.36.16-6,.04-2.96.08-6,.16-11.16-2.36,2.56-4.92,4.96-8.04,6.56l-.16-.32c2.92-2.64,9.04-9.64,12.12-15.52h-5.2c-1.24,0-3.48.16-5.12.48l-.96-1.76c2.24.2,4.44.32,6.64.32h.72c-.28-4.96-.32-5.52-.88-7.52l4,1.12c.2.04.4.24.4.44,0,.52-.52.84-1.28,1.24-.04.16-.04.64-.04,4.72h2.16l1-.92c.48-.44.52-.48.68-.48.24,0,.4.16.68.4l1.4,1.28c.16.12.2.28.2.48,0,.56-.32.68-2.08.92-1.72,2.96-3,4.68-4.2,6.12,1.48.44,3.56,1.6,3.72,1.68,1.16.64,2.64,1.44,2.64,3.32,0,.36-.12,1.6-1.16,1.6Zm21.36,11.8h-16.56c-1.24,0-3.48.12-5.12.44l-.96-1.72c2.2.2,4.44.32,6.64.32h3.88c0-1.96.04-10.56.04-12.28v-2.48c0-.16-.04-3.4-.04-3.68h-2.24c-1.24,0-3.52.16-5.16.48l-.92-1.72c2.2.16,4.44.28,6.64.28h1.68c0-1.4-.04-7.68-.08-8.96-.08-2.48-.64-3.8-.88-4.36l4.08,1c.24.04.76.2.76.56,0,.6-.92,1-1.6,1.32-.04.44-.04,8.96-.04,10.44h4.88l1.2-1.6c.2-.28.36-.52.56-.52s.6.32.76.44l1.92,1.6c.24.2.4.36.4.64,0,.36-.32.4-.6.4h-9.12c0,6.16,0,12.28.04,18.44h5.12l1.6-1.84c.36-.44.44-.52.6-.52.2,0,.52.28.72.44l2.04,1.84s.36.32.36.6c0,.36-.32.44-.6.44Z" fill="#003383"/>
      <path d="m184.85,86.06c-1.04,0-1.28-.92-1.48-1.56-.2-.72-.36-1.04-.48-1.36-1.12.28-2.32.52-4.2.88,0,9.52.04,10.56.08,12.68,0,.52.2,2.8.2,3.2,0,1.04-1.24,1.6-1.68,1.6-.68,0-.8-.6-.8-1.2,0-.4.2-2.08.2-2.44.2-4.48.16-11.72.12-13.48-4.08.8-4.56.92-5.44,1.08-.04.2-.4,1.12-.8,1.12-.08,0-.52,0-.68-.56l-.8-3.04c1.08.28,1.64.28,2.72.28.92,0,2.24-.04,3.68-.12,1.04-1.4,6.12-8.44,6.08-11.96l3.32,1.56c.2.12.32.32.32.6s-.08.6-1.6.84c-2.32,3.36-5.6,7.16-7.24,8.92,2.08-.12,4.16-.24,6.24-.52-.56-1-1.08-1.72-1.64-2.4l.24-.24c1.68.92,4.96,2.68,4.96,4.64,0,.8-.48,1.48-1.32,1.48Zm-10.6,4.12c-1.4,3.96-2.6,6.24-4.96,8.96l-.2-.12c1.64-3.24,3.2-9.16,3.08-11.16l3,1.08c.28.08.48.2.48.4,0,.24-.28.44-1.4.84Zm5-22.04c-1.08,1.52-1.44,2-4.72,6.08,1.4.88,2.12,2.04,2.12,2.96,0,.72-.4,1.76-1.32,1.76-.76,0-1-.52-1.84-2.44-.88-2-1.8-2.84-2.56-3.56v-.2c1.84.56,2.48.88,3.12,1.16,1.04-2,2.96-5.68,2.96-8,0-.32-.04-.64-.08-.92l3.52,1.72c.16.08.32.2.32.52,0,.56-.24.72-1.52.92Zm4.84,26.92c-.88,0-1-.52-1.48-2.24-.6-2.28-.96-2.8-2.24-4.48l.08-.12c3.64,1.8,5.16,3.8,5.16,5.08,0,.96-.64,1.76-1.52,1.76Zm19.68-18.44c-.68.36-.84.48-1.16.72.08,5.64.04,15.12-2.28,19.96-1.28,2.68-3.28,3.92-6.04,4.2-.16-.88-.44-2-3.8-4v-.16c.8.12,4.44.76,5.2.76,1.12,0,1.88-.4,2.68-2.12,2.16-4.6,2.16-13.24,2.16-16.12,0-1.72-.04-2.96-.08-3.84h-11.64c-.6,1.12-2.16,4.24-3.6,5.84l-.28-.16c2.08-4.16,4.56-11.64,4.56-14.84,0-.84-.08-1.04-.16-1.36l3.92,1.56c.12.04.28.24.28.4,0,.32-.08.48-.16.6-.12.08-1.2.6-1.4.76-.72,1.92-1.36,3.52-2.68,6.24h10.76l.92-1c.32-.32.4-.44.56-.44.08,0,.24.12.52.32l1.92,1.76c.12.12.24.36.24.48,0,.2-.2.28-.44.44Zm-11.08,12.8c-1.08,0-1.32-.76-1.92-2.68-.68-2.2-1.64-3.16-2.12-3.64l.16-.24c3.04,1.4,5.2,2.64,5.2,4.8,0,.24,0,1.76-1.32,1.76Z" fill="#003383"/>
    </g>
    <g>
      <g>
        <path d="m117.27,36.2c-.79,0-1.44-.64-1.44-1.44v-5.75c0-.79.64-1.44,1.44-1.44s1.44.64,1.44,1.44v5.75c0,.79-.64,1.44-1.44,1.44Z" fill="#003383"/>
        <path d="m111.52,36.2c-.79,0-1.44-.64-1.44-1.44v-5.75c0-.79.64-1.44,1.44-1.44s1.44.64,1.44,1.44v5.75c0,.79-.64,1.44-1.44,1.44Z" fill="#003383"/>
        <path d="m105.77,36.2c-.79,0-1.44-.64-1.44-1.44v-5.75c0-.79.64-1.44,1.44-1.44s1.44.64,1.44,1.44v5.75c0,.79-.64,1.44-1.44,1.44Z" fill="#003383"/>
        <path d="m123.02,36.2c-.79,0-1.44-.64-1.44-1.44v-5.75c0-.79.64-1.44,1.44-1.44s1.44.64,1.44,1.44v5.75c0,.79-.64,1.44-1.44,1.44Z" fill="#003383"/>
        <path d="m128.77,36.2c-.79,0-1.44-.64-1.44-1.44v-5.75c0-.79.64-1.44,1.44-1.44s1.44.64,1.44,1.44v5.75c0,.79-.64,1.44-1.44,1.44Z" fill="#003383"/>
        <path d="m117.27,47.7c-.79,0-1.44-.64-1.44-1.44v-5.75c0-.79.64-1.44,1.44-1.44s1.44.64,1.44,1.44v5.75c0,.79-.64,1.44-1.44,1.44Z" fill="#003383"/>
        <path d="m111.52,47.7c-.79,0-1.44-.64-1.44-1.44v-5.75c0-.79.64-1.44,1.44-1.44s1.44.64,1.44,1.44v5.75c0,.79-.64,1.44-1.44,1.44Z" fill="#003383"/>
        <path d="m105.77,47.7c-.79,0-1.44-.64-1.44-1.44v-5.75c0-.79.64-1.44,1.44-1.44s1.44.64,1.44,1.44v5.75c0,.79-.64,1.44-1.44,1.44Z" fill="#003383"/>
        <path d="m123.02,47.7c-.79,0-1.44-.64-1.44-1.44v-5.75c0-.79.64-1.44,1.44-1.44s1.44.64,1.44,1.44v5.75c0,.79-.64,1.44-1.44,1.44Z" fill="#003383"/>
        <path d="m128.77,47.7c-.79,0-1.44-.64-1.44-1.44v-5.75c0-.79.64-1.44,1.44-1.44s1.44.64,1.44,1.44v5.75c0,.79-.64,1.44-1.44,1.44Z" fill="#003383"/>
        <path d="m117.27,59.2c-.79,0-1.44-.64-1.44-1.44v-5.75c0-.79.64-1.44,1.44-1.44s1.44.64,1.44,1.44v5.75c0,.79-.64,1.44-1.44,1.44Z" fill="#003383"/>
        <path d="m111.52,59.2c-.79,0-1.44-.64-1.44-1.44v-5.75c0-.79.64-1.44,1.44-1.44s1.44.64,1.44,1.44v5.75c0,.79-.64,1.44-1.44,1.44Z" fill="#003383"/>
        <path d="m105.77,59.2c-.79,0-1.44-.64-1.44-1.44v-5.75c0-.79.64-1.44,1.44-1.44s1.44.64,1.44,1.44v5.75c0,.79-.64,1.44-1.44,1.44Z" fill="#003383"/>
        <path d="m123.02,59.2c-.79,0-1.44-.64-1.44-1.44v-5.75c0-.79.64-1.44,1.44-1.44s1.44.64,1.44,1.44v5.75c0,.79-.64,1.44-1.44,1.44Z" fill="#003383"/>
        <path d="m128.77,59.2c-.79,0-1.44-.64-1.44-1.44v-5.75c0-.79.64-1.44,1.44-1.44s1.44.64,1.44,1.44v5.75c0,.79-.64,1.44-1.44,1.44Z" fill="#003383"/>
        <path d="m117.27,70.7c-.79,0-1.44-.64-1.44-1.44v-5.75c0-.79.64-1.44,1.44-1.44s1.44.64,1.44,1.44v5.75c0,.79-.64,1.44-1.44,1.44Z" fill="#003383"/>
        <path d="m111.52,70.7c-.79,0-1.44-.64-1.44-1.44v-5.75c0-.79.64-1.44,1.44-1.44s1.44.64,1.44,1.44v5.75c0,.79-.64,1.44-1.44,1.44Z" fill="#003383"/>
        <path d="m105.77,70.7c-.79,0-1.44-.64-1.44-1.44v-5.75c0-.79.64-1.44,1.44-1.44s1.44.64,1.44,1.44v5.75c0,.79-.64,1.44-1.44,1.44Z" fill="#003383"/>
        <path d="m123.02,70.7c-.79,0-1.44-.64-1.44-1.44v-5.75c0-.79.64-1.44,1.44-1.44s1.44.64,1.44,1.44v5.75c0,.79-.64,1.44-1.44,1.44Z" fill="#003383"/>
        <path d="m128.77,70.7c-.79,0-1.44-.64-1.44-1.44v-5.75c0-.79.64-1.44,1.44-1.44s1.44.64,1.44,1.44v5.75c0,.79-.64,1.44-1.44,1.44Z" fill="#003383"/>
        <path d="m140.28,98.02h-2.88V21.82c0-.79-.64-1.44-1.44-1.44h-2.88v-4.31c0-.79-.64-1.44-1.44-1.44h-12.94v-4.31c0-.79-.64-1.44-1.44-1.44s-1.44.64-1.44,1.44v4.31h-12.94c-.79,0-1.44.64-1.44,1.44v4.31h-2.87c-.79,0-1.44.64-1.44,1.44v76.21h-2.88c-.79,0-1.44.64-1.44,1.44s.64,1.44,1.44,1.44h46.01c.79,0,1.44-.64,1.44-1.44s-.64-1.44-1.44-1.44ZM104.33,17.5h25.88v2.88h-25.88v-2.88Zm7.19,80.52v-20.13h11.5v20.13h-11.5Zm14.38,0v-21.57c0-.79-.64-1.44-1.44-1.44h-14.38c-.79,0-1.44.64-1.44,1.44v21.57h-8.63V23.26h34.51v74.77h-8.63Z" fill="#003383"/>
      </g>
      <g>
        <g>
          <path d="m65.7,95.39c-.92,0-1.66-.74-1.66-1.66v-27.96c0-.92.74-1.66,1.66-1.66s1.66.74,1.66,1.66v27.96c0,.92-.74,1.66-1.66,1.66Z" fill="#003383"/>
          <path d="m77.26,58.34c-.92,0-1.66-.74-1.66-1.66v-16.65c0-.92.74-1.66,1.66-1.66s1.66.74,1.66,1.66v16.65c0,.92-.74,1.66-1.66,1.66Z" fill="#003383"/>
          <path d="m54.15,58.34c-.92,0-1.66-.74-1.66-1.66v-16.65c0-.92.74-1.66,1.66-1.66s1.66.74,1.66,1.66v16.65c0,.92-.74,1.66-1.66,1.66Z" fill="#003383"/>
          <path d="m65.7,18.84c-5.19,0-9.42-4.23-9.42-9.42S60.51,0,65.7,0s9.42,4.23,9.42,9.42-4.23,9.42-9.42,9.42Zm0-15.52c-3.37,0-6.1,2.74-6.1,6.1s2.74,6.11,6.1,6.11,6.1-2.74,6.1-6.11-2.74-6.1-6.1-6.1Z" fill="#003383"/>
          <path d="m59.91,101.17c-.24,0-.47-.01-.71-.03-3.76-.36-6.71-3.72-6.71-7.65v-36.7s0-.02,0-.02v-.06s.01-.1.02-.15c-.02-.34-.02-.72-.02-1.11v-3.63s0-11.12,0-11.12c0-.49-.35-.68-.5-.74-.15-.06-.53-.17-.88.18l-11.97,11.97c-1.24,1.24-2.95,1.91-4.72,1.83-1.76-.08-3.41-.91-4.53-2.28-2.02-2.44-1.78-6.17.53-8.51l16.53-17.76c2.12-2.28,5.13-3.59,8.24-3.59h22.08c5.98,0,10.85,4.87,10.85,10.85v24.25c0,1.76-.75,3.45-2.05,4.63-1.3,1.18-3.06,1.77-4.81,1.6-.84-.08-1.62-.33-2.33-.73v31.11c0,3.93-2.95,7.29-6.71,7.65-2.1.2-4.18-.49-5.73-1.9-.28-.26-.54-.53-.78-.82-.24.29-.5.57-.78.82-1.37,1.25-3.17,1.93-5.02,1.93Zm-4.11-44.54s0,.05,0,.07v36.78c0,2.24,1.63,4.15,3.71,4.35,1.19.11,2.31-.26,3.18-1.05.86-.78,1.35-1.89,1.35-3.05,0-.92.74-1.66,1.66-1.66s1.66.74,1.66,1.66c0,1.16.49,2.27,1.35,3.05.87.79,2,1.16,3.18,1.05,2.08-.2,3.71-2.11,3.71-4.35v-36.8c0-.91.74-1.66,1.66-1.66s1.66.74,1.66,1.66c0,1.61,1.16,2.98,2.64,3.12.84.08,1.65-.19,2.27-.75.61-.56.96-1.35.96-2.17v-24.25c0-4.15-3.38-7.53-7.53-7.53h-22.08c-2.2,0-4.32.92-5.82,2.53l-16.55,17.78s-.03.03-.04.04c-1.14,1.14-1.29,2.93-.34,4.08.54.65,1.3,1.04,2.14,1.08.84.03,1.62-.27,2.22-.86l11.97-11.97c1.18-1.18,2.95-1.53,4.49-.89,1.55.64,2.54,2.14,2.54,3.81,0,4.82,0,14.53,0,15.94Zm-24.2-12.35h.01-.01Z" fill="#003383"/>
        </g>
        <path d="m35.11,69.57c-.76,0-1.44-.52-1.62-1.3l-8.32-37.21c-10.13,8.72-20.53,5.72-20.99,5.58-.57-.17-1-.63-1.13-1.21L.04,22.5c-.13-.54.03-1.11.41-1.52.38-.4.94-.59,1.49-.49,14.17,2.5,20.01-5.04,20.25-5.37.39-.52,1.04-.77,1.68-.63.63.14,1.13.62,1.27,1.26l11.59,51.79c.2.89-.36,1.78-1.26,1.98-.12.03-.24.04-.36.04ZM6.04,33.68c2.64.48,10.61,1.15,18.21-6.27.03-.03.05-.05.08-.07l-1.77-7.93c-2.99,2.44-9,5.78-18.74,4.71l2.22,9.56Z" fill="#003383"/>
      </g>
    </g>
  </g>
</svg>