<?xml version="1.0" encoding="UTF-8"?>
<svg id="_レイヤー_2" data-name="レイヤー 2" xmlns="http://www.w3.org/2000/svg" viewBox="0 0 472.29 107.66">
  <g id="_デザイン" data-name="デザイン">
    <g>
      <g>
        <path d="m254.56,98.38h-52.01v-3.54c7.6-16.24,17.82-27.12,29.61-39.17,8.25-8.38,17.82-18.86,17.82-33.27,0-6.81-2.36-18.08-17.29-18.08-11.4,0-16.9,6.16-16.9,10.35,0,1.31.66,3.01,1.18,3.93,1.57,3.54,1.57,4.98,1.57,6.03,0,4.58-2.88,6.68-6.42,6.68-4.58,0-6.03-3.27-6.03-7.34,0-11.92,11.13-23.58,28.43-23.58,15.59,0,25.54,9.43,25.54,24.23,0,8.78-3.14,14.02-9.69,21.48-3.14,3.67-19.26,17.68-22.4,20.7-1.7,1.7-11.4,11.53-17.55,22.79h26.2c15.46,0,19.52-11.27,21.88-17.68l2.49.65-6.42,25.81Z" fill="#003383"/>
        <path d="m296.88,92.09c0,2.49-.13,8.78-7.07,8.78-3.01,0-6.42-1.05-6.42-8.25,0-15.98,20.3-52.14,36.81-81.35h-30.13c-11.79,0-15.46,9.56-18.6,18.73l-2.75-.39,5.63-26.85h52.53v4.45c-16.64,28.16-29.74,52.66-30,84.89Z" fill="#003383"/>
        <path d="m328.84,100.28c-3.1,0-5.1-2.4-5.1-5.1,0-2.5,1.9-5,5.1-5s5,2.6,5,5c0,2.6-2,5.1-5,5.1Z" fill="#003383"/>
        <path d="m374.24,77.58v10.5c0,4.6,3.1,7.1,7,7.1h1.6v3.2h-23.5v-3.2c2.1,0,8.6,0,8.6-7.3v-10.3h-28v-3.5l31.5-50.5h2.8v50.8h11.9v3.2h-11.9Zm-6.3-42.1l-24.2,38.9h24.2v-38.9Z" fill="#003383"/>
      </g>
      <g>
        <path d="m408.46,65.98c-.56.84-2.6,4.84-3.04,5.64l1.32.72c.28.16.52.28.52.6,0,.4-.64.88-1.24,1.32-.08,2.4-.12,3.68-.08,19.68,0,1.48.04,3.64.04,4.04,0,.68-1.2,1.2-1.84,1.2-.72,0-.72-.48-.72-.8,0-.44.36-7,.36-7.68,0-.52.08-1.36.08-7,0-2.88.08-8.6.12-9.24-1.2,2.2-2.8,4.72-6,8.28l-.28-.24c2.84-4.4,5.6-10.4,7.2-14.36,1.52-3.72,1.48-4.4,1.44-5.2l3.04,1.56c.2.12.48.24.48.48,0,.76-1,.92-1.4,1Zm2.88,29.56c-.4,1.28-1.28,2.28-2.48,2.28-.88,0-1.12-.72-1.12-1.12,0-.6.16-.72,1.08-1.44,1.84-1.48,2.28-3.04,2.52-3.96h.32c.12,1.4.12,2.84-.32,4.24Zm22.48-20.12h-19.72c-1.24,0-3.48.16-5.12.48l-.96-1.72c2.2.16,4.44.28,6.64.28h.6c-.52-.36-.6-.96-.72-1.76-.24-1.48-1.16-2.68-1.48-2.96-1.08.04-2.16.16-3.2.4l-.96-1.76c2.24.2,4.44.32,6.68.32h3.4c0-1.76-.12-3.64-.6-5.28l3.24.72c.56.12.84.16.84.56,0,.48-.4.72-1.36,1.28-.04,1.12-.04,1.28-.04,2.72h7.12l1.28-1.28c.24-.24.44-.48.64-.48.24,0,.56.24.76.4l1.56,1.28c.24.2.44.32.44.6,0,.36-.36.44-.6.44h-7.44l1.36.72c.24.12.4.2.4.48,0,.52-.44.6-1.36.84-.8,1-.92,1.16-2.08,2.76h6.28l1.44-1.36c.24-.24.48-.48.68-.48.24,0,.52.28.76.44l1.72,1.32c.24.2.4.36.4.64,0,.36-.32.4-.6.4Zm-5.12,5.08c0,1.68,0,2.6.04,3.2q.12,3.72.12,4.24c0,.44,0,.76-.6,1.12-.4.24-.76.24-.84.24-.8,0-.76-.6-.72-1.28h-12.56c-.04.56-.04,1.6-1.56,1.6-.6,0-.72-.32-.72-.6,0-.12.16-2.2.16-2.6.04-.72.04-2.04.04-3.28,0-4.2-.12-4.68-.4-5.76l2.8,1.04h11.96l.56-.68c.2-.28.4-.4.68-.4s.52.12.76.32l1.16.92c.16.12.44.32.44.6,0,.44-.44.72-1.32,1.32Zm-13.68-10.84h-1.04c2.2,1.04,3.12,2.76,3.12,3.6,0,.76-.56,1.08-.72,1.2h5.88c.12-.4.88-2.96,1.04-4.8h-8.28Zm11.72,9.72h-12.6v3.36h12.6v-3.36Zm0,4.32h-12.6v3.36h12.6v-3.36Zm-.76,13.72c-1.16.2-4.32.4-6.36.4-3.88,0-4.96-.12-4.96-2.32,0-1.92,0-4.68-.12-5.72l2.76.88c.44.12.48.28.48.48,0,.36-.36.64-1,1.04v2.88c0,.56.24.92,3.52.92,1.12,0,4.16-.08,4.88-.8.64-.64.96-2.36,1.2-3.6h.36c.08.8.28,2.56,1.04,3.2.52.4.6.44.6.68,0,.12-.12,1.52-2.4,1.96Zm-4.04-3.88c-.84,0-.96-.4-1.56-1.88-.8-1.92-1.52-2.36-1.88-2.6l.16-.28c1.44.28,4.52,1.68,4.52,3.52,0,.72-.52,1.24-1.24,1.24Zm11.4,3.48c-.96,0-1.2-.64-1.72-1.92-.56-1.4-1.56-3.52-3.2-4.68l.2-.24c1.6.56,3.04,1.2,4.16,2.2,1.72,1.56,1.92,2.96,1.92,3.32,0,.84-.68,1.32-1.36,1.32Z" fill="#003383"/>
        <path d="m470.73,68.26c-.08,2.56-.12,5.16-.12,7.72,0,5,.28,13,.28,18,0,2.24-.48,2.88-.88,3.28-.12.16-1.36,1.48-3.92,1.68-.08-1.28-.12-1.88-3.8-3.68v-.32c1.4.16,3.12.32,4.52.32s1.56-.28,1.56-1.92c0-1.36-.04-7.32-.04-8.52v-2.08h-24.12c0,3.96.2,10.2.2,14.12,0,.4,0,2-1.84,2-.56,0-.92-.24-.92-1.08,0-1.16.2-6.36.2-7.44.12-5.76.2-11.96.2-17.24,0-2.6,0-6.84-.28-9.2l4,2.16h22.08l1.24-1.28s.24-.24.48-.24.48.2.6.32l1.92,1.68s.2.2.2.44c0,.52-.56.8-1.56,1.28Zm-15.6-1.24h-10.92v14.72h10.92v-14.72Zm13.2,0h-11v14.72h11v-14.72Z" fill="#003383"/>
      </g>
      <path d="m172.46,83.82c-1.04,0-1.28-.92-1.48-1.56-.2-.72-.36-1.04-.48-1.36-1.12.28-2.32.52-4.2.88,0,9.52.04,10.56.08,12.68,0,.52.2,2.8.2,3.2,0,1.04-1.24,1.6-1.68,1.6-.68,0-.8-.6-.8-1.2,0-.4.2-2.08.2-2.44.2-4.48.16-11.72.12-13.48-4.08.8-4.56.92-5.44,1.08-.04.2-.4,1.12-.8,1.12-.08,0-.52,0-.68-.56l-.8-3.04c1.08.28,1.64.28,2.72.28.92,0,2.24-.04,3.68-.12,1.04-1.4,6.12-8.44,6.08-11.96l3.32,1.56c.2.12.32.32.32.6s-.08.6-1.6.84c-2.32,3.36-5.6,7.16-7.24,8.92,2.08-.12,4.16-.24,6.24-.52-.56-1-1.08-1.72-1.64-2.4l.24-.24c1.68.92,4.96,2.68,4.96,4.64,0,.8-.48,1.48-1.32,1.48Zm-10.6,4.12c-1.4,3.96-2.6,6.24-4.96,8.96l-.2-.12c1.64-3.24,3.2-9.16,3.08-11.16l3,1.08c.28.08.48.2.48.4,0,.24-.28.44-1.4.84Zm5-22.04c-1.08,1.52-1.44,2-4.72,6.08,1.4.88,2.12,2.04,2.12,2.96,0,.72-.4,1.76-1.32,1.76-.76,0-1-.52-1.84-2.44-.88-2-1.8-2.84-2.56-3.56v-.2c1.84.56,2.48.88,3.12,1.16,1.04-2,2.96-5.68,2.96-8,0-.32-.04-.64-.08-.92l3.52,1.72c.16.08.32.2.32.52,0,.56-.24.72-1.52.92Zm4.84,26.92c-.88,0-1-.52-1.48-2.24-.6-2.28-.96-2.8-2.24-4.48l.08-.12c3.64,1.8,5.16,3.8,5.16,5.08,0,.96-.64,1.76-1.52,1.76Zm19.68-18.44c-.68.36-.84.48-1.16.72.08,5.64.04,15.12-2.28,19.96-1.28,2.68-3.28,3.92-6.04,4.2-.16-.88-.44-2-3.8-4v-.16c.8.12,4.44.76,5.2.76,1.12,0,1.88-.4,2.68-2.12,2.16-4.6,2.16-13.24,2.16-16.12,0-1.72-.04-2.96-.08-3.84h-11.64c-.6,1.12-2.16,4.24-3.6,5.84l-.28-.16c2.08-4.16,4.56-11.64,4.56-14.84,0-.84-.08-1.04-.16-1.36l3.92,1.56c.12.04.28.24.28.4,0,.32-.08.48-.16.6-.12.08-1.2.6-1.4.76-.72,1.92-1.36,3.52-2.68,6.24h10.76l.92-1c.32-.32.4-.44.56-.44.08,0,.24.12.52.32l1.92,1.76c.12.12.24.36.24.48,0,.2-.2.28-.44.44Zm-11.08,12.8c-1.08,0-1.32-.76-1.92-2.68-.68-2.2-1.64-3.16-2.12-3.64l.16-.24c3.04,1.4,5.2,2.64,5.2,4.8,0,.24,0,1.76-1.32,1.76Z" fill="#003383"/>
    </g>
    <g>
      <g>
        <g>
          <path d="m51.01,34.33c-.39,0-.8-.01-1.23-.05-.91-.07-1.6-.86-1.53-1.77.07-.91.86-1.59,1.77-1.53,4.18.3,5.86-1.36,6.23-1.81-.1-.07-.25-.17-.48-.27-1.79-.82-3.92-.21-3.95-.2l-4.44,1.32c-2.39.71-4.51.56-6.3-.45-1.71-.96-1.96-2.22-1.95-2.88.02-2.11,2.42-3.4,3.21-3.82,3.77-2.03,7.69-.87,7.86-.82.88.27,1.37,1.19,1.1,2.07-.27.87-1.19,1.37-2.06,1.1-.06-.02-2.82-.78-5.33.57-.69.37-1.07.66-1.27.85.02.01.05.03.08.04.63.36,1.71.76,3.73.16l4.44-1.32c.12-.04,3.33-.99,6.28.36,1.36.62,2.18,1.48,2.44,2.55.29,1.16-.22,2.06-.44,2.37-.4.62-2.59,3.53-8.14,3.53Z" fill="#003383"/>
          <path d="m43.11,25.98c-.27,0-.54-.07-.8-.21l-2.7-1.49c-.8-.44-1.09-1.45-.65-2.25.44-.8,1.45-1.1,2.25-.65l2.7,1.49c.8.44,1.09,1.45.65,2.25-.3.55-.87.86-1.45.86Z" fill="#003383"/>
          <path d="m58.94,34.69c-.27,0-.54-.07-.8-.21l-2.7-1.49c-.8-.44-1.09-1.45-.65-2.25.44-.8,1.45-1.1,2.25-.65l2.7,1.49c.8.44,1.09,1.45.65,2.25-.3.55-.87.86-1.45.86Z" fill="#003383"/>
        </g>
        <g>
          <path d="m38.64,52.2c-.28,0-.56-.07-.81-.21-3.39-1.86-8.98-1.91-12.47-.1-.49.25-1.08.25-1.56-.02l-16.04-8.82c-.52-.29-.85-.83-.86-1.43,0-.6.31-1.15.82-1.45,1.22-.71,1.92-1.57,1.92-2.36s-.7-1.65-1.92-2.36c-.52-.3-.83-.86-.82-1.45,0-.6.34-1.14.86-1.43L59.57,4.07c.48-.27,1.07-.27,1.56-.02,3.44,1.78,9,1.76,12.38-.05.49-.27,1.09-.26,1.58,0l16.03,8.81c.53.29.86.84.86,1.44,0,.6-.32,1.16-.84,1.45-1.29.73-2.02,1.61-2.02,2.43,0,.83.77,1.73,2.09,2.45.53.29.87.85.87,1.46s-.32,1.17-.85,1.46l-51.79,28.48c-.25.14-.52.21-.8.21Zm-7.14-4.94c2.52,0,5.04.47,7.11,1.41l48.79-26.83c-1.04-1.08-1.59-2.34-1.6-3.68,0-1.32.52-2.57,1.52-3.65l-13.08-7.19c-4.07,1.81-9.7,1.84-13.82.06L11.51,34.27c.94,1.05,1.43,2.26,1.43,3.53s-.5,2.48-1.43,3.53l13.14,7.23c2.02-.86,4.43-1.3,6.84-1.3Z" fill="#003383"/>
          <path d="m8.55,43.25c-.27,0-.55-.07-.8-.21l-6.9-3.79c-.53-.29-.86-.85-.86-1.45s.33-1.16.86-1.45l6.9-3.79c.51-.28,1.13-.27,1.63.02,2.29,1.34,3.56,3.19,3.56,5.22s-1.26,3.88-3.56,5.22c-.26.15-.55.23-.84.23Zm-3.46-5.45l3.37,1.85c.75-.59,1.17-1.24,1.17-1.85s-.42-1.26-1.17-1.85l-3.37,1.85Z" fill="#003383"/>
          <path d="m31.73,56c-.28,0-.55-.07-.8-.2l-7.14-3.92c-.54-.3-.87-.86-.86-1.47,0-.61.35-1.17.9-1.45,4.43-2.29,11.27-2.24,15.58.13.03.02.08.04.11.06.49.32.79.87.77,1.45-.02.58-.34,1.12-.85,1.4l-6.91,3.8c-.25.14-.52.2-.8.2Zm-3.01-5.2l3.01,1.65,2.89-1.59c-1.89-.38-3.98-.4-5.89-.07Z" fill="#003383"/>
          <path d="m67.27,8.69c-2.73,0-5.47-.57-7.66-1.71-.54-.28-.89-.84-.89-1.45,0-.61.32-1.18.86-1.47l7.02-3.86c.5-.27,1.1-.27,1.6,0l6.9,3.8c.53.29.86.85.86,1.46,0,.61-.34,1.16-.87,1.45-2.21,1.19-5.01,1.78-7.8,1.78Zm-2.77-3.56c1.85.32,3.87.31,5.71-.03l-2.83-1.55-2.88,1.59Z" fill="#003383"/>
          <path d="m90.43,23.72c-.28,0-.56-.07-.81-.21-2.46-1.35-3.81-3.24-3.82-5.34-.01-2.09,1.3-3.98,3.7-5.34.5-.28,1.11-.28,1.61,0l7.14,3.93c.53.29.86.85.86,1.45s-.33,1.16-.86,1.45l-7.03,3.87c-.25.14-.52.21-.8.21Zm-.05-7.52c-.82.62-1.27,1.3-1.27,1.95,0,.67.49,1.37,1.37,2l3.54-1.95-3.64-2Z" fill="#003383"/>
        </g>
        <path d="m49.56,41.32c-5.74,0-11.47-1.2-15.84-3.6-4.57-2.51-7.09-5.97-7.09-9.72s2.52-7.21,7.09-9.72c8.73-4.8,22.94-4.8,31.67,0h0c4.57,2.51,7.09,5.97,7.09,9.72s-2.52,7.21-7.09,9.72c-4.37,2.4-10.1,3.6-15.84,3.6Zm0-23.38c-5.16,0-10.31,1.08-14.24,3.24-3.46,1.9-5.37,4.33-5.37,6.82s1.91,4.91,5.37,6.82c7.85,4.32,20.63,4.32,28.48,0,3.46-1.9,5.37-4.33,5.37-6.82s-1.91-4.91-5.37-6.82h0c-3.93-2.16-9.08-3.24-14.24-3.24Z" fill="#003383"/>
      </g>
      <g>
        <path d="m31.73,66.32c-.28,0-.55-.07-.8-.2L.86,49.58c-.53-.29-.86-.85-.86-1.45v-10.32c0-.92.74-1.66,1.66-1.66s1.66.74,1.66,1.66v9.34l28.42,15.63L95.81,27.54v-9.34c0-.92.74-1.66,1.66-1.66s1.66.74,1.66,1.66v10.32c0,.6-.33,1.16-.86,1.45l-65.73,36.14c-.25.14-.52.2-.8.2Z" fill="#003383"/>
        <path d="m31.73,66.32c-.92,0-1.66-.74-1.66-1.66v-10.32c0-.92.74-1.66,1.66-1.66s1.66.74,1.66,1.66v10.32c0,.92-.74,1.66-1.66,1.66Z" fill="#003383"/>
      </g>
      <g>
        <g>
          <g>
            <path d="m92.31,75.67c-.39,0-.8-.01-1.23-.05-.91-.07-1.6-.86-1.53-1.77.07-.91.85-1.59,1.77-1.53,4.17.3,5.82-1.31,6.22-1.81-.1-.07-.25-.16-.48-.27-1.79-.82-3.92-.21-3.95-.2l-4.44,1.32c-2.39.71-4.51.56-6.3-.45-1.71-.96-1.96-2.22-1.95-2.88.02-2.11,2.42-3.4,3.21-3.82,3.77-2.03,7.69-.87,7.86-.82.88.27,1.37,1.19,1.1,2.07-.27.87-1.19,1.37-2.06,1.1-.06-.02-2.82-.78-5.33.57-.69.37-1.07.66-1.27.85.02.01.05.03.08.04.64.36,1.71.76,3.73.16l4.44-1.32c.12-.04,3.33-.99,6.28.36,1.36.62,2.18,1.48,2.44,2.55.29,1.16-.22,2.06-.44,2.37-.4.62-2.59,3.53-8.14,3.53Zm5.45-5.47s0,.01-.01.02c0,0,.01-.01.01-.02Z" fill="#003383"/>
            <path d="m84.41,67.32c-.27,0-.54-.07-.8-.21l-2.7-1.48c-.8-.44-1.09-1.45-.65-2.25.44-.8,1.45-1.1,2.25-.65l2.7,1.48c.8.44,1.09,1.45.65,2.25-.3.55-.87.86-1.45.86Z" fill="#003383"/>
            <path d="m100.24,76.03c-.27,0-.54-.07-.8-.21l-2.7-1.49c-.8-.44-1.09-1.45-.65-2.25.44-.8,1.45-1.1,2.25-.65l2.7,1.48c.8.44,1.09,1.45.65,2.25-.3.55-.87.86-1.45.86Z" fill="#003383"/>
          </g>
          <g>
            <path d="m79.94,93.54c-.3,0-.59-.08-.85-.24-3.35-1.84-8.94-1.88-12.43-.08-.49.25-1.08.25-1.56-.02l-16.04-8.82c-.52-.29-.85-.83-.86-1.43,0-.6.31-1.15.82-1.45,1.22-.71,1.92-1.57,1.92-2.36s-.7-1.65-1.92-2.36c-.52-.3-.83-.86-.82-1.45,0-.6.34-1.14.86-1.43l51.81-28.49c.48-.27,1.07-.27,1.56-.02,3.44,1.78,9,1.76,12.38-.05.49-.27,1.09-.26,1.58,0l16.03,8.81c.53.29.86.84.86,1.44,0,.6-.32,1.16-.84,1.45-1.29.73-2.02,1.61-2.02,2.43,0,.83.77,1.73,2.09,2.45.53.29.87.85.87,1.46,0,.6-.32,1.17-.85,1.46l-51.79,28.48c-.25.14-.52.21-.8.21Zm-7.14-4.94c2.52,0,5.04.47,7.11,1.41l48.79-26.83c-1.04-1.08-1.59-2.34-1.6-3.68,0-1.32.52-2.57,1.52-3.65l-13.08-7.19c-4.07,1.81-9.7,1.84-13.82.06l-48.91,26.89c.94,1.05,1.43,2.26,1.43,3.53s-.5,2.48-1.43,3.53l13.14,7.23c2.02-.86,4.43-1.3,6.84-1.3Z" fill="#003383"/>
            <path d="m49.85,84.59c-.27,0-.55-.07-.8-.21l-6.9-3.79c-.53-.29-.86-.85-.86-1.45s.33-1.16.86-1.45l6.9-3.79c.51-.28,1.13-.27,1.63.02,2.29,1.34,3.56,3.19,3.56,5.22s-1.26,3.88-3.56,5.22c-.26.15-.55.23-.84.23Zm-3.46-5.45l3.37,1.85c.75-.59,1.17-1.24,1.17-1.85s-.42-1.26-1.17-1.85l-3.37,1.85Z" fill="#003383"/>
            <path d="m73.03,97.33c-.28,0-.55-.07-.8-.21l-7.14-3.92c-.54-.3-.87-.86-.86-1.47,0-.61.35-1.17.9-1.45,4.43-2.29,11.27-2.24,15.58.13.04.02.09.05.13.08.49.32.77.87.75,1.45-.02.58-.34,1.11-.85,1.39l-6.91,3.8c-.25.14-.52.21-.8.21Zm-3.01-5.2l3.01,1.65,2.89-1.59c-1.89-.38-3.98-.4-5.9-.06Z" fill="#003383"/>
            <path d="m108.57,50.03c-2.73,0-5.47-.57-7.66-1.71-.54-.28-.89-.84-.89-1.45,0-.61.32-1.18.86-1.47l7.02-3.86c.5-.27,1.1-.27,1.6,0l6.9,3.8c.53.29.86.85.86,1.46,0,.61-.34,1.16-.87,1.45-2.21,1.19-5.01,1.78-7.8,1.78Zm-2.77-3.56c1.85.32,3.87.31,5.71-.03l-2.83-1.55-2.88,1.59Z" fill="#003383"/>
            <path d="m131.73,65.06c-.28,0-.56-.07-.81-.21-2.46-1.35-3.81-3.24-3.82-5.34-.01-2.09,1.3-3.98,3.7-5.34.5-.28,1.11-.28,1.61,0l7.14,3.93c.53.29.86.85.86,1.45s-.33,1.16-.86,1.45l-7.03,3.87c-.25.14-.52.21-.8.21Zm-.05-7.52c-.82.62-1.27,1.3-1.27,1.95,0,.67.49,1.37,1.37,2l3.54-1.95-3.64-2Z" fill="#003383"/>
          </g>
          <path d="m90.86,82.66c-5.74,0-11.47-1.2-15.84-3.6-4.57-2.51-7.09-5.97-7.09-9.72s2.52-7.21,7.09-9.72c8.73-4.8,22.94-4.8,31.67,0h0c4.57,2.51,7.09,5.97,7.09,9.72s-2.52,7.21-7.09,9.72c-4.37,2.4-10.1,3.6-15.84,3.6Zm0-23.38c-5.16,0-10.31,1.08-14.24,3.24-3.46,1.9-5.37,4.33-5.37,6.82s1.91,4.91,5.37,6.82c7.85,4.32,20.63,4.32,28.48,0,3.46-1.9,5.37-4.33,5.37-6.82s-1.91-4.91-5.37-6.82h0c-3.93-2.16-9.08-3.24-14.24-3.24Z" fill="#003383"/>
        </g>
        <g>
          <path d="m73.03,107.66c-.28,0-.55-.07-.8-.21l-30.08-16.54c-.53-.29-.86-.85-.86-1.45v-10.32c0-.92.74-1.66,1.66-1.66s1.66.74,1.66,1.66v9.34l28.42,15.63,64.07-35.23v-9.34c0-.92.74-1.66,1.66-1.66s1.66.74,1.66,1.66v10.32c0,.6-.33,1.16-.86,1.45l-65.73,36.14c-.25.14-.52.21-.8.21Z" fill="#003383"/>
          <path d="m73.03,107.66c-.92,0-1.66-.74-1.66-1.66v-10.32c0-.92.74-1.66,1.66-1.66s1.66.74,1.66,1.66v10.32c0,.92-.74,1.66-1.66,1.66Z" fill="#003383"/>
        </g>
      </g>
      <g>
        <path d="m31.73,86.97c-.28,0-.55-.07-.8-.21L.86,70.22c-.53-.29-.86-.85-.86-1.45v-10.32c0-.92.74-1.66,1.66-1.66s1.66.74,1.66,1.66v9.34l28.42,15.63,64.07-35.23v-9.34c0-.92.74-1.66,1.66-1.66s1.66.74,1.66,1.66v10.32c0,.6-.33,1.16-.86,1.45l-65.73,36.14c-.25.14-.52.21-.8.21Z" fill="#003383"/>
        <path d="m31.73,86.97c-.92,0-1.66-.74-1.66-1.66v-10.32c0-.92.74-1.66,1.66-1.66s1.66.74,1.66,1.66v10.32c0,.92-.74,1.66-1.66,1.66Z" fill="#003383"/>
      </g>
      <g>
        <path d="m31.73,76.64c-.28,0-.55-.07-.8-.2L.86,59.9c-.53-.29-.86-.85-.86-1.45v-10.32c0-.92.74-1.66,1.66-1.66s1.66.74,1.66,1.66v9.34l28.42,15.63,64.07-35.23v-9.34c0-.92.74-1.66,1.66-1.66s1.66.74,1.66,1.66v10.32c0,.6-.33,1.16-.86,1.45l-65.73,36.14c-.25.14-.52.2-.8.2Z" fill="#003383"/>
        <path d="m31.73,76.64c-.92,0-1.66-.74-1.66-1.66v-10.32c0-.92.74-1.66,1.66-1.66s1.66.74,1.66,1.66v10.32c0,.92-.74,1.66-1.66,1.66Z" fill="#003383"/>
      </g>
      <g>
        <path d="m31.73,97.29c-.28,0-.55-.07-.8-.21L.86,80.55c-.53-.29-.86-.85-.86-1.45v-10.32c0-.92.74-1.66,1.66-1.66s1.66.74,1.66,1.66v9.34l28.42,15.63,10.44-5.74c.8-.44,1.81-.15,2.25.65.44.8.15,1.81-.65,2.25l-11.24,6.18c-.25.14-.52.21-.8.21Z" fill="#003383"/>
        <path d="m31.73,97.29c-.92,0-1.66-.74-1.66-1.66v-10.32c0-.92.74-1.66,1.66-1.66s1.66.74,1.66,1.66v10.32c0,.92-.74,1.66-1.66,1.66Z" fill="#003383"/>
      </g>
    </g>
  </g>
</svg>