<?xml version="1.0" encoding="UTF-8"?>
<svg id="_レイヤー_2" data-name="レイヤー 2" xmlns="http://www.w3.org/2000/svg" viewBox="0 0 486.21 108.18">
  <g id="_デザイン" data-name="デザイン">
    <g>
      <g>
        <path d="m164.08,108.18c-13.89,0-28.43-7.47-28.43-23.71,0-13.23,9.82-19.52,23.71-27.25-7.34-3.67-20.17-10.22-20.17-24.89,0-13.75,12.18-24.63,26.72-24.63,13.1,0,23.84,8.65,23.84,20.83s-10.35,19.65-16.51,23.97c7.99,4.45,21.35,11.66,21.35,27.64s-11.79,28.03-30.52,28.03Zm-1.31-49.39c-7.21,4.98-17.42,12.05-17.42,25.28s8.65,20.04,19.78,20.04,21.75-7.2,21.75-20.83c0-12.31-9.96-17.68-24.1-24.5Zm2.1-47.16c-7.86,0-18.08,5.5-18.08,17.16,0,6.42,2.88,9.96,7.6,13.49,3.93,3.01,9.43,6.03,15.2,8.38,3.67-2.75,12.71-9.56,12.71-20.7,0-8.51-5.9-18.34-17.42-18.34Z" fill="#003383"/>
        <path d="m245.3,78.44v13.75c0,6.03,4.06,9.3,9.17,9.3h2.1v4.19h-30.78v-4.19c2.75,0,11.27,0,11.27-9.56v-13.49h-36.68v-4.58L241.63,7.7h3.67v66.55h15.59v4.19h-15.59Zm-8.25-55.15l-31.7,50.96h31.7V23.29Z" fill="#003383"/>
        <path d="m310.8,78.44v13.75c0,6.03,4.06,9.3,9.17,9.3h2.1v4.19h-30.78v-4.19c2.75,0,11.27,0,11.27-9.56v-13.49h-36.68v-4.58L307.13,7.7h3.67v66.55h15.59v4.19h-15.59Zm-8.25-55.15l-31.7,50.96h31.7V23.29Z" fill="#003383"/>
        <path d="m338.18,107.59c-3.1,0-5.1-2.4-5.1-5.1,0-2.5,1.9-5,5.1-5s5,2.6,5,5c0,2.6-2,5.1-5,5.1Z" fill="#003383"/>
        <path d="m366.18,107.59c-7.3,0-11.9-3.9-11.9-8.7,0-3.5,2-4.8,4.6-4.8,4.6,0,5.2,4,5.2,5.2,0,2.4.2,5.2,4.1,5.2,3.3,0,6.4-1.8,8.2-3.8,8.7-9.4,9.5-23.6,9.9-34.5-4.7,6.7-9,13-18.1,13-10.8,0-17.9-10.1-17.9-22.6,0-14.9,9.9-25.7,21.1-25.7s23.1,12.5,23.1,34.7c0,18.8-9.7,42-28.3,42Zm15.5-66.7c-3.4-5.8-6.2-6.7-10.2-6.7-10.9,0-13.5,14-13.5,22.5,0,5.4,1,18,11.9,18,10.3,0,14.9-11.8,16.4-15.8-.9-8.6-1.9-13.3-4.6-18Z" fill="#003383"/>
      </g>
      <g>
        <path d="m437.86,75.09h-19.48l1.04.72c.44.32.44.52.44.6,0,.48-.16.56-1.44,1.28-.2,3.64-.44,5.28-.68,6.64h11.04l1.28-1.28c.2-.2.4-.36.64-.36.12,0,.32.04.44.16l1.92,1.52c.12.08.4.36.4.72,0,.4-.28.64-1.32,1.28,0,7.28-.8,12.48-1.56,14.6-.44,1.28-1.64,4.48-7.24,5.12-.44-2-1.12-2.64-5.08-4.52l.16-.28c3.56.8,6.72.88,6.92.88,2.28,0,2.88-1.36,3.24-2.6,1.2-4.4,1.44-8.64,1.28-14.28h-12.24c-.76,4.52-2.72,16.64-15.28,20.52l-.28-.4c4.04-1.84,7.2-5.12,9.56-8.92,3.84-6.12,4.44-18.16,4.44-19.24,0-.96-.2-1.84-.28-2.16h-7.04c-1.4,0-3.64.2-5.16.48l-.92-1.72c3,.24,5.88.28,6.64.28h22.76l2.08-2.16c.4-.44.44-.48.6-.48.24,0,.44.16.72.4l2.6,2.2c.2.16.4.32.4.6,0,.36-.36.4-.6.4Z" fill="#003383"/>
        <path d="m465.5,103.69v-1.28h.92c1.76,0,2.28-1.16,2.28-2.92v-9.8c0-2.36-1.2-3.84-3.6-3.84-3.2,0-5.28,2.48-6.24,3.68v9.96c0,1.56.48,2.92,2.44,2.92h.92v1.28h-8.96v-1.28h.88c1.76,0,2.28-1.16,2.28-2.92v-9.52c0-2.72-1.04-4.12-3.84-4.12-2.96,0-4.64,1.8-5.68,2.92v10.72c0,1.56.52,2.92,2.44,2.92h.64v1.28h-8.48v-1.28h.72c1.76,0,2.24-1.2,2.24-2.92v-11.6c0-.8-.52-1.8-1.48-1.8-.08,0-.56,0-1.16.16l-.2-.84,5.28-1.56v3.4c1.64-1.44,3.64-3.24,6.68-3.24,1.72,0,4.44.64,5.04,4,1.68-1.72,3.84-4,7-4,3.36,0,5.48,2.24,5.48,5.84v9.64c0,2.04.64,2.92,2,2.92h.96v1.28h-8.56Z" fill="#003383"/>
        <path d="m485.07,90.37h-9.26v-.63c1.35-2.89,3.17-4.83,5.27-6.97,1.47-1.49,3.17-3.36,3.17-5.92,0-1.21-.42-3.22-3.08-3.22-2.03,0-3.01,1.1-3.01,1.84,0,.23.12.54.21.7.28.63.28.89.28,1.07,0,.82-.51,1.19-1.14,1.19-.82,0-1.07-.58-1.07-1.31,0-2.12,1.98-4.2,5.06-4.2,2.77,0,4.55,1.68,4.55,4.31,0,1.56-.56,2.49-1.73,3.82-.56.65-3.43,3.15-3.99,3.68-.3.3-2.03,2.05-3.12,4.06h4.66c2.75,0,3.47-2.01,3.89-3.15l.44.12-1.14,4.59Z" fill="#003383"/>
      </g>
    </g>
    <g>
      <g>
        <path d="m28.17,14.98c0-7.28-5.9-13.18-13.18-13.18S1.8,7.7,1.8,14.98" fill="none" stroke="#003383" stroke-linecap="round" stroke-linejoin="round" stroke-width="3.6"/>
        <circle cx="14.98" cy="87.49" r="13.18" fill="none" stroke="#003383" stroke-linecap="round" stroke-linejoin="round" stroke-width="3.6"/>
        <line x1="1.8" y1="14.98" x2="1.8" y2="87.49" fill="none" stroke="#003383" stroke-linecap="round" stroke-linejoin="round" stroke-width="3.6"/>
        <line x1="28.17" y1="14.98" x2="28.17" y2="87.49" fill="none" stroke="#003383" stroke-linecap="round" stroke-linejoin="round" stroke-width="3.6"/>
        <line x1="14.98" y1="100.67" x2="100.67" y2="100.67" fill="none" stroke="#003383" stroke-linecap="round" stroke-linejoin="round" stroke-width="3.6"/>
        <line x1="28.17" y1="21.58" x2="100.67" y2="21.58" fill="none" stroke="#003383" stroke-linecap="round" stroke-linejoin="round" stroke-width="3.6"/>
        <line x1="100.67" y1="100.67" x2="100.67" y2="21.58" fill="none" stroke="#003383" stroke-linecap="round" stroke-linejoin="round" stroke-width="3.6"/>
        <line x1="14.98" y1="87.46" x2="14.98" y2="87.52" fill="none" stroke="#003383" stroke-linecap="round" stroke-linejoin="round" stroke-width="3.6"/>
      </g>
      <g>
        <path d="m76.23,70.79c-1.51,0-2.93-.58-4.01-1.64-1.1-1.08-1.71-2.53-1.71-4.08,0-1.05.28-2.06.81-2.94h-7.52c-.47,0-.85-.38-.85-.85v-8.26c0-.47.38-.85.85-.85s.85.38.85.85v7.41h8.52c.36,0,.68.23.8.57.12.34.01.72-.27.95-.95.77-1.5,1.91-1.5,3.13,0,1.09.43,2.1,1.2,2.86.77.76,1.8,1.17,2.88,1.15,1.06-.02,2.06-.46,2.82-1.26.76-.8,1.16-1.82,1.13-2.88-.03-1.17-.58-2.27-1.49-3.01-.28-.23-.39-.61-.27-.95.12-.34.44-.57.8-.57h8.52v-21.09c0-1.14-.93-2.07-2.07-2.07h-21.09v7.42c0,.47-.38.85-.85.85s-.85-.38-.85-.85v-8.27c0-.47.38-.85.85-.85h21.94c2.08,0,3.77,1.69,3.77,3.77v21.94c0,.47-.38.85-.85.85h-7.52c.5.83.78,1.78.81,2.77.04,1.52-.53,2.98-1.6,4.1-1.08,1.13-2.5,1.76-4.02,1.78-.03,0-.07,0-.1,0Z" fill="#003383" stroke="#003383" stroke-miterlimit="10" stroke-width=".9"/>
        <path d="m85.74,87h-21.94c-.47,0-.85-.38-.85-.85v-7.52c-.83.5-1.78.78-2.77.81-1.52.05-2.98-.52-4.1-1.6-1.13-1.08-1.76-2.5-1.78-4.02-.03-1.55.56-3,1.64-4.11,1.08-1.1,2.53-1.71,4.08-1.71,1.05,0,2.06.29,2.94.81v-7.52c0-.47.38-.85.85-.85h8.89c.47,0,.85.38.85.85s-.38.85-.85.85h-8.04v8.52c0,.36-.23.68-.57.8-.34.12-.72.01-.95-.27-.77-.95-1.91-1.5-3.13-1.5-1.09,0-2.1.43-2.86,1.2-.76.77-1.17,1.8-1.15,2.88.02,1.06.46,2.06,1.26,2.82.8.76,1.81,1.15,2.88,1.13,1.17-.03,2.27-.58,3.01-1.49.23-.28.6-.39.95-.27.34.12.57.44.57.8v8.52h21.09c1.14,0,2.07-.93,2.07-2.07v-21.09h-8.15c-.47,0-.85-.38-.85-.85s.38-.85.85-.85h9c.47,0,.85.38.85.85v21.94c0,2.08-1.69,3.77-3.77,3.77Z" fill="#003383" stroke="#003383" stroke-miterlimit="10" stroke-width=".9"/>
        <path d="m63.8,87h-21.94c-2.08,0-3.77-1.69-3.77-3.77v-21.94c0-.47.38-.85.85-.85h7.52c-.5-.83-.78-1.78-.81-2.77-.04-1.52.52-2.98,1.6-4.1,1.08-1.13,2.5-1.76,4.02-1.78,1.54-.02,3,.56,4.11,1.64,1.1,1.08,1.71,2.53,1.71,4.08,0,1.05-.28,2.06-.81,2.94h7.52c.47,0,.85.38.85.85v8.89c0,.47-.38.85-.85.85s-.85-.38-.85-.85v-8.04h-8.52c-.36,0-.68-.23-.8-.57-.12-.34-.01-.72.27-.95.95-.77,1.5-1.91,1.5-3.13,0-1.09-.43-2.1-1.2-2.86-.77-.76-1.8-1.18-2.88-1.15-1.06.02-2.06.46-2.82,1.26-.76.8-1.16,1.82-1.13,2.88.03,1.17.58,2.27,1.49,3.01.28.23.39.61.27.95-.12.34-.44.57-.8.57h-8.52v21.09c0,1.14.93,2.07,2.07,2.07h21.09v-8.15c0-.47.38-.85.85-.85s.85.38.85.85v9c0,.47-.38.85-.85.85Z" fill="#003383" stroke="#003383" stroke-miterlimit="10" stroke-width=".9"/>
        <path d="m63.8,62.14h-8.89c-.47,0-.85-.38-.85-.85s.38-.85.85-.85h8.04v-8.52c0-.36.23-.68.57-.8.34-.12.72-.01.95.27.77.95,1.91,1.5,3.13,1.5,1.09,0,2.1-.43,2.86-1.2.76-.77,1.17-1.8,1.15-2.89-.02-1.06-.46-2.06-1.26-2.82-.8-.76-1.81-1.17-2.88-1.13-1.17.03-2.27.58-3.01,1.5-.23.28-.61.39-.95.27-.34-.12-.57-.44-.57-.8v-8.52h-21.09c-1.14,0-2.07.93-2.07,2.07v21.09h8.15c.47,0,.85.38.85.85s-.38.85-.85.85h-9c-.47,0-.85-.38-.85-.85v-21.94c0-2.08,1.69-3.77,3.77-3.77h21.94c.47,0,.85.38.85.85v7.52c.83-.5,1.78-.78,2.77-.81,1.53-.04,2.98.52,4.1,1.6,1.13,1.08,1.76,2.5,1.78,4.02.03,1.55-.56,3-1.64,4.11-1.08,1.1-2.53,1.71-4.08,1.71-1.05,0-2.06-.28-2.94-.81v7.52c0,.47-.38.85-.85.85Z" fill="#003383" stroke="#003383" stroke-miterlimit="10" stroke-width=".9"/>
      </g>
    </g>
  </g>
</svg>