<?xml version="1.0" encoding="UTF-8"?>
<svg id="_レイヤー_2" data-name="レイヤー 2" xmlns="http://www.w3.org/2000/svg" viewBox="0 0 433.05 132.4">
  <g id="_デザイン" data-name="デザイン">
    <path d="m31.51,40.15c-1.17-.05-1.55-.05-1.83-.05q-.38,0-1.88.05c-3.29.19-7.23.24-12.54.24-8.22,0-10.47-.37-12.49-2.02-1.74-1.36-2.49-3.57-2.49-7.33V6.39c0-1.03-.09-1.69-.28-2.63h5.77c-.23.99-.33,1.78-.33,2.63v11.08c7-1.13,15.08-3.29,20.19-5.45,1.13-.52,2.11-1.03,2.77-1.45l2.82,5.59c-1.32.19-2.25.37-3.19.61-5.35,1.45-14.56,2.72-22.59,3.19v10.56c0,2.63.7,3.99,2.44,4.65,1.27.47,2.16.56,6.48.56,6.95,0,11.27-.09,14.61-.37.89-.05,1.6-.14,2.53-.37v5.16ZM29.39,0v7.37h-2.96V0h2.96Zm5.31,0v7.37h-2.96V0h2.96Zm32.71,24.04c-2.26-2.3-11.6-6.48-14.93-6.62l1.27-2.82c.66.28.85.33,2.82.75,5.07.99,9.39,2.3,13.52,4.04l-2.68,4.65Zm-11.22,11.18c.42.05.66.05.89.05,3.66,0,9.81-1.41,13.85-3.19,6.72-2.96,12.02-7.94,15.35-14.51,1.08-2.16,1.74-4.04,1.93-5.45l2.63,1.22c-.33.56-.75,1.55-.94,2.11-4.74,14.79-12.96,21.69-29.16,24.51-1.27.24-2.21.52-2.86.75l-1.69-5.49Zm15.54-21.27c-1.97-2.26-7.51-5.54-11.93-7.14-.19-.09-.37-.14-.61-.23-.61-.19-1.22-.38-1.93-.47l1.46-2.63c.42.24,1.03.42,2.11.7,4.98,1.22,9.77,2.96,13.57,5.03l-2.68,4.74ZM87.56.75v7.37h-2.96V.75h2.96Zm5.31,0v7.37h-2.96V.75h2.96Zm33.6,3.38c0-.94-.09-1.93-.28-2.63h5.54c-.14.7-.28,1.83-.28,2.63v5.31h13.24v2.58c-3.01,3.71-7.19,7.42-11.83,10.61,5.59,1.88,10.33,3.9,13.57,5.82,1.22.7,2.16,1.17,2.72,1.36l-3.57,4.79c-3.01-3.24-8.45-7-14.13-9.86v15.17c0,.94.09,1.97.28,2.63h-5.49c.19-.84.28-1.69.28-2.63v-13.48c-4.74,2.49-9.96,4.65-14.51,5.97-1.08.33-1.74.61-2.3,1.03l-1.18-2.68c8.22-1.27,23.53-10.99,29.63-18.83h-22.92c-.8,0-1.6.09-2.63.28v-3.05c.94.19,1.83.28,2.63.28h11.22v-5.31Zm45.72,5.4c-.8,0-1.6.09-2.63.28v-3.05c.94.19,1.83.28,2.63.28h25.17c-1.32,6.76-3.52,12.25-6.86,17.09,5.4,3.43,9.58,6.72,13.06,10.19.89.8,1.74,1.55,2.25,1.97l-4.46,4.51c-1.69-3.48-7.75-10.43-12.54-14.42-.56.7-1.03,1.22-1.64,1.92-4.51,5.07-10.47,8.69-18.64,11.27-.85.28-1.46.52-2.44,1.03l-1.17-2.63c3.01-.19,9.39-3.57,13.38-7.14,6.43-5.54,10.75-12.86,12.54-21.32h-18.64Zm66.33,14.51c-2.26-2.3-11.6-6.48-14.93-6.62l1.27-2.82c.66.28.85.33,2.82.75,5.07.99,9.39,2.3,13.52,4.04l-2.68,4.65Zm-11.22,11.18c.42.05.66.05.89.05,3.66,0,9.81-1.41,13.85-3.19,6.72-2.96,12.02-7.94,15.35-14.51,1.08-2.16,1.74-4.04,1.93-5.45l2.63,1.22c-.33.56-.75,1.55-.94,2.11-4.74,14.79-12.96,21.69-29.16,24.51-1.27.24-2.21.52-2.86.75l-1.69-5.49Zm15.54-21.27c-1.97-2.26-7.51-5.54-11.93-7.14-.19-.09-.37-.14-.61-.23-.61-.19-1.22-.38-1.93-.47l1.46-2.63c.42.24,1.03.42,2.11.7,4.98,1.22,9.77,2.96,13.57,5.03l-2.68,4.74Zm76.47,9.39c-1.08-.19-1.74-.28-2.49-.28h-33.34c-1.17,0-1.78.09-2.49.33v-3.95c.8.19,1.64.28,2.49.28h33.34c.66,0,1.41-.09,2.49-.28v3.9Zm31.3-4.55c-2.21-3.52-10.52-10.71-12.86-11.18l1.83-2.63c.85.7,1.18.9,2.59,1.5,2.86,1.32,7.61,4.18,10.28,6.2.84.7,1.6,1.22,2.06,1.5l-3.9,4.6Zm-11.22,16.2c8.22.05,18.79-3.9,23.81-8.87,4.22-3.76,7.84-10.01,8.5-14.61l2.72,1.22c-.66,1.13-.75,1.41-1.18,2.96-3.71,13.52-12.96,21.18-29.07,24.04-1.03.19-2.02.47-3.01.84l-1.78-5.59Zm74.08,3.9c2.16,0,3.62-.37,5.87-1.55,5.16-2.81,8.22-8.36,8.22-14.98,0-4.46-1.36-8.45-3.76-11.13-2.16-2.39-4.55-3.52-8.31-4.04-.33,9.77-1.64,16.86-4.18,22.31-2.49,5.26-5.77,8.17-9.39,8.17-4.93,0-8.83-5.64-8.83-12.77,0-11.5,8.78-20.01,20.71-20.01s19.25,6.95,19.25,17.66c0,9.91-5.26,15.78-16.29,18.27-.99.23-1.69.47-2.44.8l-.85-2.72Zm-12.68-24.65c-1.88,2.91-2.86,6.58-2.86,10.71,0,5.4,1.92,10.19,4.13,10.19,4.09,0,8.41-14.18,8.41-27.66-4.55,1.22-7.46,3.24-9.67,6.76ZM16.78,119.12c0,.89.09,2,.28,3.08-1.63-.19-1.82-.19-3.87-.19H3.31c-1.07,0-1.49.05-3.08.19.23-1.4.28-2.19.28-3.96v-22.33c0-1.16-.04-2.05-.28-3.45,1.35.19,2.1.23,3.82.23h9.14c1.77,0,2.33-.04,3.87-.23-.23,1.35-.28,2.19-.28,3.96v22.7Zm-4.89-13.42v-10.63h-6.48v10.63h6.48Zm-6.48,2.38v11.56h6.48v-11.56h-6.48Zm21.91,21.49l-.42-2.57c2.19.28,4.24.42,6.62.42,1.03,0,1.21-.19,1.21-1.16v-10.21h-9.6c-1.03,6.39-4.2,10.91-10.53,14.87l-1.49,1.16-1.77-2.05,1.68-.89c5.27-4.29,7.41-9.6,7.41-18.41v-16.78c0-1.07-.04-1.45-.19-3.08,1.35.14,1.96.19,3.78.19h12.21c1.73,0,2.43-.05,3.87-.19-.23,1.35-.28,2.05-.28,3.82v33.75c0,1.82-.98,2.89-2.56,2.89-1.35,0-3.17-.33-7.51-1.4l-2.42-.37Zm7.41-24.94h-9.23v6.11c0,1.07-.04,2.38-.09,2.93h9.32v-9.04Zm0-11.18h-9.23v8.81h9.23v-8.81Zm56.52-1.12c1.73,0,2.43-.04,3.87-.19-.23,1.54-.28,2.19-.28,4.1v30.15c0,1.07.09,1.91.28,3.22-1.63-.19-1.82-.19-3.87-.19h-26.38c-1.17,0-1.87.04-3.22.19.23-1.63.28-2.19.28-4.1v-29.78c0-1.35-.04-1.96-.28-3.59,1.4.14,2.14.19,3.87.19h25.73Zm-23.63,2.38v14.68h21.53v-14.68h-21.53Zm0,17.06v15.29h21.53v-15.29h-21.53Zm48.17-15.06c1.21.19,1.82.23,2.84.23h9.7c2.7-4.8,3.54-6.53,3.96-8.11l5.04,2.24c-.61.74-1.03,1.44-1.45,2.24-.61,1.26-1.21,2.38-2,3.64h12.12c1.03,0,1.68-.05,2.89-.23v2.93c-.09,0-.42-.04-.98-.09-.47-.09-1.12-.14-1.91-.14h-13.61c-1.4,2.33-2.7,4.38-4.61,7.09,1.86-1.26,4.05-1.91,6.62-1.91,4.01,0,6.67,1.63,8.16,4.99,3.87-1.21,7.32-2.15,9.7-2.7.56-.09,1.16-.37,1.91-.89l1.03,3.08c-.84-.14-6.01,1.16-12.03,2.98.09.65.14,1.35.14,2v4.43c0,.84.09,1.58.28,2.61h-5.45c.23-1.07.32-1.63.32-2.61v-4.89c-2.7,1.03-3.68,1.4-4.8,2-2.75,1.49-4.1,3.31-4.1,5.55,0,3.27,2.75,4.62,9.46,4.62,2.14,0,7.04-.14,8.53-.19l.42-.05h.19c.74-.04,2.28-.23,3.17-.47v5.03h-2c-1.03,0-1.12,0-2.33.09-1.17.1-2.47.14-4.38.14-6.81,0-9.18-.33-12.21-1.58-3.03-1.31-4.61-3.63-4.61-6.81,0-4.1,3.03-7.27,9.28-9.74.7-.28,1.63-.61,3.08-1.12-.75-2.75-2.19-3.92-4.89-3.92-4.66,0-8.21,2.89-11.28,9.23l-4.43-2.8c.56-.19,4.29-5.82,9.37-14.17h-8.25c-1.02,0-1.68.04-2.84.23v-2.93Zm60.57,32.91c6.01-1.21,11.23-3.03,15.85-5.55-2.14-1.63-3.96-3.4-5.69-5.64-2.84,1.91-5.55,3.26-8.86,4.52l-1.54.84-1.35-2.33,1.91-.61c4.85-2.56,9.46-6.29,11.84-9.69l1.03-1.49,5.45,1.68-1.58,1.49c-.33.33-.65.65-1.03.93-.09.14-.14.19-.33.33h11.75c3.12,0,4.43-.04,5.5-.19v1.82c-2.19,2.98-5.27,5.82-9.14,8.34,4.2,1.44,8.76,2.28,13.66,2.56l2.84.05-2.52,5.31-2.51-.56c-6.25-1.03-11.56-2.7-15.66-4.94-5.17,2.57-11.56,4.38-19.02,5.46l-2,.47-.93-2.56,2.33-.23Zm9.56-29.41l-1.44,1.72c-1.63,2.61-4.66,5.87-7.27,7.88l-1.12.98-1.82-1.44,1.3-1.21c1.91-2.52,3.68-5.69,4.57-8.2l.56-2.05,5.22,2.33Zm7.55-3.82c.09,7.88-2.51,12.17-9.14,15.06l-1.4.93-1.58-2.05,1.68-.7c4.01-3.12,5.55-6.71,5.41-12.77v-.47h-10.77c-1.16,0-1.63.05-3.12.23v-2.84c1.44.19,2.1.28,3.12.23h14.82v-2.24c0-.61-.04-1.17-.09-1.73l-.14-.89-.05-.47h5.97c-.23,1.82-.28,2.14-.28,3.08v2.24h15.19c1.07,0,1.77-.04,3.08-.23v2.84l-.51-.05-.65-.09c-.51-.04-1.12-.09-1.91-.09h-10.11v11.89c0,1.91-.89,2.89-2.61,2.89-1.12,0-3.26-.42-6.06-1.21l-1.82-.33-.32-2.28c1.68.28,3.45.42,4.66.42.89,0,1.12-.23,1.12-1.12v-10.25h-4.47Zm-4.24,20.09c-.19.14-.28.23-.37.33-.09.04-.14.09-.23.19,1.96,2,4.2,3.68,6.85,5.08,2.85-1.96,5.08-3.87,6.48-5.59h-12.72Zm18.46-17.57c2.57,2.33,4.94,4.71,6.76,6.71l1.54,1.45-4.85,3.45-.79-2.05c-1.21-2.61-2.75-5.36-4.57-7.97l-1.12-1.16,2.05-1.54.98,1.12Zm31.07,1.77c.84.14,1.63.23,2.66.23l21.16-.51c1.31,0,1.86-.05,2.94-.19l.23,2.42c-.42.33-.65.56-1.49,1.4-1.21,1.26-1.63,1.63-5.17,5.08-2.42,2.38-3.63,3.59-4.75,4.71,1.35-.65,2.38-.89,3.78-.89,1.86,0,3.26.7,4.01,2.1.65,1.21.65,1.26.65,6.01,0,2.57.14,3.4.7,3.92.61.56,1.82.79,3.96.79,2.7,0,5.27-.33,7.55-.98v5.03c-2.47.37-5.59.61-8.25.61-3.82,0-6.1-.56-7.41-1.77-1.35-1.31-1.63-2.52-1.63-7.74,0-.75,0-1.96.05-2.56v-.42c0-1.58-.51-2.28-1.77-2.28-1.54,0-3.73,1.44-6.53,4.38-4.1,4.19-8.72,9.46-9.51,10.76l-4.05-3.49c1.31-.93,1.44-1.07,3.12-2.89,3.64-3.96,7.32-7.93,11-11.89,2.42-2.66,4.85-5.27,7.32-7.92l1.68-1.82-17.62.56c-.98.05-1.77.14-2.61.28v-2.94Zm23.3-2.33c-2.79-1.82-10.25-4.89-13.89-5.69-1.35-.33-1.73-.42-2.52-.51l1.4-2.61c.65.23,1.12.33,2.98.65,3.59.56,8.25,1.72,11.56,2.84l.14.05.79.28c.65.23,1.07.37,1.31.42.23.09.32.14.65.23l-2.43,4.34Zm25.48-2.1c.79.19,1.4.23,2.66.23l32.16-.84c1.02-.05,2-.14,2.75-.28v3.12c-.74-.09-1.21-.14-1.73-.14-.19,0-.51,0-.93.04-2.7.09-5.59.7-8.39,1.86-6.06,2.43-9.6,6.99-9.6,12.35,0,5.92,3.82,9.79,11.51,11.65,1.07.28,2.24.42,3.08.42l-1.82,5.69-.19-.05-.61-.19c-.47-.14-1.26-.33-2.28-.61-4.8-1.49-7.46-2.93-9.83-5.45-2.66-2.7-4.01-6.2-4.01-10.11,0-4.57,2.05-8.86,5.68-11.93,2.24-1.87,4.24-2.89,7.51-3.73l-23.35.7c-1.21.05-1.73.14-2.61.33v-3.08Zm78.24,21.02c-.47.65-.84,1.4-1.12,2.47-.84,2.61-2.15,4.99-3.59,6.62-1.4,1.58-2.7,2.24-4.34,2.24-2.98,0-5.5-2.1-7.36-6.15-2.19-4.75-3.08-10.76-3.08-20.7v-3.49c0-.98-.09-1.87-.23-2.8l5.64.19c-.19.93-.28,2.14-.28,3.17v3.31c0,8.53.65,13.56,2.28,17.43,1.21,2.89,2.61,4.34,4.15,4.34,1.16,0,2.19-.89,3.59-3.17,1.12-1.82,1.63-3.17,1.86-4.94l2.47,1.49Zm13.52,4.2c0-.93-.05-1.68-.23-2.93-.75-7.51-5.64-17.15-9.65-19.2l2.28-2.38c.37.47,1.07,1.21,1.58,1.63,6.15,5.45,9.83,11.61,11.33,18.97.05.33.28,1.31.56,2.24l-5.87,1.68Zm25.38-13.42c5.68-1.68,15.8-9.09,21.35-15.57.79-.93,1.4-1.77,1.91-2.57l4.1,4.47c-.65.51-1.12.89-1.35,1.12-.23.14-.47.37-.74.61l-1.03.89c-6.48,5.41-14.54,10.16-21.02,12.35,7.93,2.28,17.15,8.86,23.35,16.64.47.56,1.17,1.4,1.82,2.14l-5.22,3.68-.09-.14c-.56-1.16-.79-1.63-1.35-2.51-4.89-7.32-12.12-14.08-18.18-17.01-1.4-.7-2.28-1.03-3.54-1.31v-2.8ZM13.05,68.33c.29.08.58.11.87.11h3.75c.02-.22.09-.93.16-1.45.02-.19.03-.34.03-.48,0-.09,0-.16-.02-.33l1.8.12c-.09.27-.09.31-.17.78-.05.31-.09.72-.16,1.35h4.98c.25,0,.56-.03.87-.09v1.03c-.31-.08-.5-.11-.87-.11h-5.05c-.03.31-.08.92-.11,1.6.2-.01.36-.01.65-.01,1.96,0,3.33.31,4.39,1,1.2.78,1.82,1.96,1.82,3.45,0,2.57-1.85,4.19-5.18,4.54-.19.01-.42.08-.7.17l-.22-.89c.16.03.23.03.34.03.53,0,1.18-.17,1.82-.47,1.43-.67,2.19-1.85,2.19-3.38s-.58-2.43-1.98-3.16c-1.37,2.19-2.88,4.26-3.94,5.38-1.04,1.13-1.82,1.6-2.69,1.6-1.52,0-2.6-1.28-2.6-3.11,0-1.25.54-2.46,1.52-3.38.78-.75,1.6-1.17,2.91-1.54.02-.27.06-1.06.12-1.85h-3.69c-.37,0-.58.03-.87.11v-1.04Zm1.57,7.75c0,1.23.53,2.13,1.23,2.13.54,0,1.28-.47,1.96-1.26-.25-.95-.39-2.23-.39-3.59,0-.37,0-.67.03-1.38-1.83.76-2.83,2.21-2.83,4.11Zm4.48-4.48c-.03.42-.05,1.13-.05,1.58,0,.72.05,1.45.12,2.11.82-1.09,1.74-2.44,2.33-3.47-.65-.19-1.12-.26-1.71-.26-.19,0-.28,0-.64.03h-.06Zm59.89-4.51c0-.28-.03-.51-.09-.87h1.88c-.06.31-.09.61-.09.87v1.48h3.3c.27,0,.51-.03.87-.09v1.01c-.39-.08-.58-.1-.87-.1h-3.3v5.04c.02,3.08-1.74,4.84-5.46,5.44-.27.05-.3.05-.7.22l-.31-.87c2.61-.16,4.5-1.68,4.76-3.87-.56.59-1.24.87-2.08.87-1.68,0-2.92-1.17-2.92-2.79s1.28-2.8,2.91-2.8c.87,0,1.59.31,2.15.93l-.02-2.18h-6.86c-.27,0-.53.03-.89.1v-1.01c.33.06.64.09.89.09h6.86l-.02-1.48Zm-3.55,6.36c0,1.17.72,1.94,1.79,1.94,1.01,0,1.8-.87,1.8-1.97s-.76-1.96-1.8-1.96-1.79.84-1.79,1.99Z" fill="#000f3c"/>
  </g>
</svg>