<?xml version="1.0" encoding="utf-8"?>
<!-- Generator: Adobe Illustrator 27.2.0, SVG Export Plug-In . SVG Version: 6.00 Build 0)  -->
<svg version="1.1" id="レイヤー_1" xmlns="http://www.w3.org/2000/svg" xmlns:xlink="http://www.w3.org/1999/xlink" x="0px"
	 y="0px" viewBox="0 0 474.1 215" style="enable-background:new 0 0 474.1 215;" xml:space="preserve">
<style type="text/css">
	.st0{fill:#0091C2;}
	.st1{fill:none;stroke:#0091C2;stroke-width:2.5;stroke-miterlimit:10;}
	.st2{fill:none;stroke:#0091C2;stroke-width:2.3;stroke-miterlimit:10;}
	.st3{fill:#9CA6AD;}
	.st4{fill:#B5C1B9;}
	.st5{fill:#DAE0F5;}
	.st6{fill:#99ADBF;}
	.st7{fill:#AFBFCD;}
	.st8{fill:#A0B7BD;}
	.st9{fill:#B3CCCF;}
	.st10{fill:none;stroke:#000000;stroke-miterlimit:10;}
	.st11{fill:#FFFFCD;}
	.st12{fill:none;stroke:#0091C2;stroke-width:0.9;stroke-miterlimit:10;}
	.st13{fill:#F1CFCD;}
	.st14{fill:#001135;}
	.st15{fill:#633750;}
	.st16{fill:#E6F6FF;}
	.st17{fill:#2A4048;}
	.st18{fill:#FDFDFD;}
	.st19{fill:#2A5348;}
	.st20{fill:#001E26;}
	.st21{fill:#F2A983;}
	.st22{fill:#E2E9ED;}
	.st23{fill:#7285B1;}
	.st24{fill:#FF5CAB;}
	.st25{fill:#BFC6C9;}
	.st26{fill:#DDE5E8;}
	.st27{fill:#CEDAE2;}
	.st28{fill:#FFFFFF;}
	.st29{fill:#5691BB;}
	.st30{fill-rule:evenodd;clip-rule:evenodd;fill:#DB9669;}
	.st31{fill-rule:evenodd;clip-rule:evenodd;fill:#CEE6F5;}
	.st32{fill:#A7A9AC;}
	.st33{fill-rule:evenodd;clip-rule:evenodd;fill:#111214;}
	.st34{fill:#50546B;}
	.st35{fill-rule:evenodd;clip-rule:evenodd;fill:#11101A;}
	.st36{fill:#DADEF0;}
	.st37{fill:#C8B9C3;}
	.st38{fill-rule:evenodd;clip-rule:evenodd;fill:#3E4F5E;}
	.st39{fill-rule:evenodd;clip-rule:evenodd;fill:#E8F6FF;}
	.st40{fill-rule:evenodd;clip-rule:evenodd;fill:#361D07;}
	.st41{fill-rule:evenodd;clip-rule:evenodd;fill:#D2D6D9;}
	.st42{fill-rule:evenodd;clip-rule:evenodd;fill:#E3E6E8;}
	.st43{fill-rule:evenodd;clip-rule:evenodd;fill:#F2F4F5;}
</style>
<g>
	<g id="_レイヤー_2">
		<g id="_デザイン">
			<g>
				<path class="st0" d="M126.4,42.9c1.2-0.4,2.3-0.8,3.4-1.4c0.8-0.4,1.1-0.6,1.5-1c0.5,0.4,0.9,1,1.2,1.3c0.1,0.1,0.1,0.2,0.1,0.2
					c0,0.1-0.1,0.2-0.2,0.2c-0.4,0.1-0.8,0.3-1.2,0.5c-1.4,0.6-3,1.2-4.8,1.7v1.9c0,0.7,0.1,0.9,0.5,1c0.4,0.1,0.9,0.2,1.8,0.2
					c1.3,0,2.5-0.1,3.9-0.3c0.2,0,0.2,0,0.2,0.2c0,0.4,0.1,0.9,0.1,1.2c0,0.2-0.1,0.2-0.3,0.2c-1.6,0.2-2.4,0.2-4.2,0.2
					c-1.2,0-2.1-0.1-2.7-0.4c-0.7-0.3-1-1-1-2.1v-5.2c0-1.3,0-1.9-0.1-2.6c0.7,0.1,1.3,0.2,1.8,0.3c0.2,0,0.2,0.1,0.2,0.2
					s0,0.2-0.1,0.3c-0.1,0.2-0.1,0.6-0.1,1.3L126.4,42.9L126.4,42.9z M132.2,38.9c0.1-0.1,0.1,0,0.2,0c0.4,0.3,0.9,0.9,1.3,1.5
					c0.1,0.1,0.1,0.2,0,0.2l-0.6,0.4c-0.1,0.1-0.2,0.1-0.2,0c-0.4-0.6-0.9-1.2-1.4-1.6L132.2,38.9L132.2,38.9z M133.5,38
					c0.1-0.1,0.1,0,0.2,0c0.5,0.4,1,1,1.3,1.4c0.1,0.1,0.1,0.2,0,0.2l-0.6,0.4c-0.1,0.1-0.2,0-0.2,0c-0.4-0.6-0.8-1.1-1.4-1.6
					L133.5,38L133.5,38z"/>
				<path class="st0" d="M139.7,40.4c0.2,0.1,0.3,0.2,0.2,0.4c-0.1,0.3-0.2,0.6-0.2,1c0,1.8-0.3,3.1-0.8,4.1c-0.4,0.8-1,1.8-2,2.6
					c-0.1,0.1-0.2,0.2-0.4,0.2c-0.1,0-0.2,0-0.3-0.1c-0.4-0.2-0.7-0.4-1.2-0.6c1.1-0.8,1.8-1.7,2.3-2.8c0.4-1,0.6-1.7,0.6-4
					c0-0.5,0-0.8-0.1-1.2C138.7,40.2,139.4,40.3,139.7,40.4L139.7,40.4z M142.8,46.3c0.7-0.4,1.3-0.8,2-1.3c0.8-0.6,1.7-1.4,2.4-2.4
					c0.1,0.5,0.2,1,0.4,1.4c0,0.1,0.1,0.2,0.1,0.2c0,0.1-0.1,0.2-0.2,0.3c-0.7,0.7-1.3,1.3-2.1,1.8c-0.7,0.6-1.5,1.1-2.5,1.7
					c-0.2,0.2-0.3,0.2-0.4,0.3c-0.1,0.1-0.2,0.1-0.3,0.1c-0.1,0-0.2,0-0.3-0.1c-0.3-0.2-0.6-0.6-0.8-0.8c-0.1-0.1-0.1-0.2-0.1-0.3
					c0-0.1,0-0.1,0.1-0.2c0.1-0.2,0.1-0.3,0.1-1.1v-4.4c0-1.2,0-1.8-0.1-2.4c0.6,0.1,1.3,0.2,1.8,0.3c0.2,0,0.2,0.1,0.2,0.2
					c0,0.1,0,0.2-0.1,0.3c-0.1,0.3-0.1,0.5-0.1,1.5L142.8,46.3L142.8,46.3z"/>
				<path class="st0" d="M153.8,42.1c0.2-0.1,0.2,0,0.3,0.1c0.4,0.8,0.7,1.6,0.9,2.5c0,0.2,0,0.2-0.2,0.2l-0.7,0.2
					c-0.2,0.1-0.2,0-0.2-0.1l-0.1-0.6l-0.9,0.1v3.8c0,1.3,0,1.8,0,1.8c0,0.1,0,0.2-0.1,0.2h-1.1c-0.1,0-0.1,0-0.1-0.2
					c0-0.1,0-0.5,0-1.8v-3.7l-1.3,0.1c-0.2,0-0.4,0.1-0.5,0.1c-0.1,0-0.1,0.1-0.2,0.1c-0.1,0-0.1-0.1-0.1-0.2
					c-0.1-0.4-0.1-0.7-0.2-1.2c0.4,0,0.8,0,1.2,0c0.3-0.3,0.5-0.7,0.8-1.1c-0.6-0.7-1.2-1.4-1.9-2c-0.1-0.1-0.1-0.1-0.1-0.1
					s0-0.1,0.1-0.2l0.5-0.7c0.1-0.1,0.1-0.1,0.1-0.1s0.1,0,0.1,0.1l0.4,0.4c0.3-0.5,0.5-0.9,0.8-1.4c0.2-0.4,0.2-0.6,0.3-0.9
					c0.4,0.1,0.8,0.3,1.2,0.5c0.1,0.1,0.2,0.1,0.2,0.2c0,0.1-0.1,0.1-0.1,0.2c-0.1,0.1-0.2,0.2-0.3,0.3c-0.4,0.8-0.8,1.3-1.2,1.9
					c0.2,0.2,0.4,0.5,0.7,0.7c0.3-0.5,0.6-1,0.9-1.5c0.2-0.3,0.3-0.7,0.4-1c0.4,0.2,0.9,0.4,1.2,0.6c0.1,0.1,0.2,0.1,0.2,0.2
					c0,0.1,0,0.2-0.1,0.2c-0.1,0.1-0.2,0.2-0.5,0.6c-0.7,1.1-1.5,2.2-2.1,3c0.5,0,1-0.1,1.5-0.1c-0.1-0.3-0.2-0.5-0.3-0.8
					c-0.1-0.1-0.1-0.2,0.1-0.2L153.8,42.1L153.8,42.1z M149.8,46.3c0-0.3,0-0.5,0-0.8c0.4,0,0.8,0.1,1.1,0.2c0.2,0,0.2,0.1,0.2,0.2
					s0,0.1-0.1,0.2s-0.1,0.2-0.1,0.5c-0.1,0.8-0.2,1.8-0.5,2.6c-0.1,0.2-0.1,0.3-0.2,0.3c-0.1,0-0.1,0-0.2-0.1
					c-0.3-0.2-0.6-0.3-0.8-0.4C149.5,48.1,149.7,47.2,149.8,46.3L149.8,46.3z M154.1,45.5c0.2,0,0.2,0,0.2,0.1
					c0.2,0.7,0.4,1.5,0.5,2.3c0,0.2,0,0.2-0.2,0.2l-0.7,0.2c-0.2,0.1-0.2,0-0.2-0.1c-0.1-0.9-0.2-1.7-0.4-2.4c0-0.2,0-0.2,0.2-0.2
					L154.1,45.5L154.1,45.5z M158.8,46.9v1.8h1.3c1.3,0,1.8,0,1.9,0c0.1,0,0.2,0,0.2,0.1v1c0,0.1,0,0.2-0.2,0.2c-0.1,0-0.5,0-1.9,0
					h-3.8c-1.3,0-1.8,0-1.9,0c-0.1,0-0.1,0-0.1-0.2v-1c0-0.1,0-0.1,0.1-0.1c0.1,0,0.5,0,1.9,0h1.1v-1.8H157c-1.2,0-1.6,0-1.7,0
					c-0.1,0-0.1,0-0.1-0.2v-0.9c0-0.1,0-0.2,0.1-0.2c0.1,0,0.5,0,1.7,0h0.4v-0.3c0-0.6,0-1-0.1-1.5c0.5,0,0.9,0.1,1.4,0.1
					c0.1,0,0.2,0.1,0.2,0.2c0,0.1,0,0.2-0.1,0.2c-0.1,0.2-0.1,0.4-0.1,0.9v0.4h0.8c1.2,0,1.6,0,1.7,0c0.1,0,0.2,0,0.2,0.2v0.9
					c0,0.1,0,0.2-0.2,0.2c-0.1,0-0.5,0-1.7,0L158.8,46.9L158.8,46.9z M160,38.2c0.1,0,0.2,0,0.3-0.1c0.1,0,0.1-0.1,0.2-0.1
					c0.1,0,0.3,0.1,0.6,0.4c0.4,0.3,0.5,0.5,0.5,0.6s0,0.1-0.2,0.2c-0.1,0.1-0.2,0.3-0.4,0.6c-0.4,0.9-1,1.6-1.6,2.3
					c0.8,0.4,1.7,0.7,2.8,0.9c-0.2,0.3-0.4,0.6-0.5,1c-0.1,0.2-0.1,0.3-0.2,0.3c-0.1,0-0.2,0-0.3-0.1c-1.1-0.3-2-0.8-2.8-1.3
					c-0.7,0.5-1.5,0.9-2.4,1.2c-0.2,0.1-0.3,0.1-0.4,0.1c-0.1,0-0.2-0.1-0.3-0.3c-0.2-0.4-0.4-0.6-0.6-0.9c1-0.3,1.8-0.6,2.6-1
					c-0.7-0.7-1.3-1.6-1.7-2.8c-0.5,0-0.7,0-0.7,0c-0.1,0-0.1,0-0.1-0.1v-0.9c0-0.1,0-0.2,0.1-0.2c0.1,0,0.5,0,1.8,0L160,38.2
					L160,38.2z M156.8,39.4c0.4,0.8,0.8,1.5,1.4,2c0.6-0.6,1.1-1.2,1.4-2H156.8z"/>
				<path class="st0" d="M166.2,37.7c0.2-0.1,0.2,0,0.3,0.1c0.3,0.5,0.6,0.9,0.8,1.3c0.1,0.1,0.1,0.1-0.1,0.2l-1,0.3h5.6
					c0.3-0.5,0.5-0.9,0.7-1.3c0.1-0.2,0.1-0.4,0.2-0.7c0.5,0.1,0.9,0.2,1.3,0.4c0.1,0.1,0.2,0.1,0.2,0.2c0,0.1,0,0.2-0.1,0.2
					c-0.1,0.1-0.2,0.2-0.3,0.3c-0.2,0.3-0.4,0.6-0.5,0.9h0.3c1.3,0,1.8,0,1.9,0c0.1,0,0.1,0,0.1,0.2c0,0.1,0,0.3,0,0.7v0.6
					c0,1.2,0,1.5,0,1.5c0,0.1,0,0.2-0.1,0.2h-1.1c-0.1,0-0.1,0-0.1-0.2v-1.8h-9v1.8c0,0.2,0,0.2-0.1,0.2h-1.1c-0.1,0-0.1,0-0.1-0.2
					c0-0.1,0-0.3,0-1.5v-0.5c0-0.5,0-0.7,0-0.8c0-0.1,0-0.2,0.1-0.2c0.1,0,0.6,0,1.9,0h0.3c0,0,0,0-0.1-0.1
					c-0.2-0.5-0.4-0.9-0.7-1.3c-0.1-0.1-0.1-0.2,0.1-0.2L166.2,37.7L166.2,37.7z M171.2,41.6c1.3,0,1.7,0,1.8,0c0.1,0,0.1,0,0.1,0.2
					c0,0.1,0,0.3,0,1V44c0,0.6,0,0.9,0,1c0,0.1,0,0.2-0.1,0.2c-0.1,0-0.6,0-1.8,0h-1.1c-0.1,0.3-0.3,0.7-0.4,0.9h2.7
					c1.4,0,1.9,0,2,0c0.1,0,0.1,0,0.1,0.2c0,0.1,0,0.4,0,1.1v0.9c0,1.7,0,2,0,2c0,0.1,0,0.1-0.1,0.1h-1.2c-0.1,0-0.1,0-0.1-0.1v-0.4
					h-6.8v0.5c0,0.1,0,0.2-0.1,0.2H165c-0.1,0-0.1,0-0.1-0.2c0-0.1,0-0.4,0-2.1v-0.8c0-0.8,0-1.2,0-1.2c0-0.1,0-0.2,0.1-0.2
					c0.1,0,0.6,0,2,0h1.4c0.1-0.3,0.3-0.6,0.4-0.9h-0.6c-1.3,0-1.7,0-1.8,0c-0.1,0-0.1,0-0.1-0.2c0-0.1,0-0.3,0-1v-1.2
					c0-0.6,0-0.9,0-1c0-0.2,0-0.2,0.1-0.2c0.1,0,0.5,0,1.8,0L171.2,41.6L171.2,41.6z M166.3,48.5h6.8v-1.3h-6.8V48.5z M167.6,44h4.2
					v-1.2h-4.2V44z M169.5,37.5c0.2-0.1,0.2,0,0.3,0.1c0.2,0.4,0.5,0.9,0.7,1.4c0.1,0.1,0,0.1-0.1,0.2l-0.9,0.3
					c-0.2,0.1-0.2,0-0.3-0.1c-0.2-0.5-0.4-0.9-0.7-1.4c-0.1-0.1,0-0.2,0.1-0.2L169.5,37.5L169.5,37.5z"/>
			</g>
			<g>
				<path class="st0" d="M141.3,130.9c-0.9,0-1.7,0-2.3,0.1c-0.2,0-0.2-0.1-0.3-0.3c0-0.3-0.1-1-0.1-1.4c0.6,0.1,1.4,0.1,2.7,0.1h5
					c0.4,0,0.6,0,0.8-0.1c0.1,0,0.1-0.1,0.2-0.1c0.1,0,0.2,0,0.3,0.1c0.4,0.2,0.8,0.6,1,0.9c0.1,0.1,0.1,0.1,0.1,0.2
					c0,0.1-0.1,0.2-0.2,0.4c-0.1,0.1-0.2,0.3-0.3,0.6c-0.7,1.6-1.5,3.2-2.7,4.6c-1.2,1.4-2.6,2.5-4,3.3c-0.1,0.1-0.2,0.1-0.4,0.1
					c-0.1,0-0.2,0-0.4-0.1c-0.3-0.3-0.8-0.6-1.3-0.8c2.1-1,3.3-2,4.6-3.5c1.1-1.2,1.8-2.4,2.4-4L141.3,130.9L141.3,130.9z"/>
				<path class="st0" d="M155.5,137.3c0,0.7,0,1.6,0,2.3c0,0.2-0.1,0.2-0.2,0.2c-0.4,0-0.8,0-1.1,0c-0.1,0-0.2-0.1-0.2-0.2
					c0-0.8,0-1.5,0-2.2v-2.4c-0.9,0.8-2.2,1.6-2.9,2c-0.1,0-0.1,0.1-0.2,0.1c-0.1,0-0.2-0.1-0.3-0.1c-0.2-0.3-0.6-0.6-1-0.7
					c2.2-1.1,4.1-2.6,5.8-4.6c0.3-0.4,0.6-0.7,0.7-1.2c0.5,0.3,1.1,0.6,1.3,0.8c0.1,0.1,0.1,0.2,0.1,0.2c0,0.1-0.1,0.2-0.2,0.3
					c-0.2,0.1-0.5,0.4-0.6,0.6c-0.4,0.4-0.8,0.9-1.3,1.4L155.5,137.3L155.5,137.3z"/>
				<path class="st0" d="M162.5,134.8c-1.4,0-1.9,0.2-2.1,0.2c-0.2,0-0.3-0.1-0.3-0.3c-0.1-0.3-0.1-1-0.2-1.7c0.9,0.1,1.6,0.2,3,0.2
					h4.5c1.1,0,2.1,0,3.2,0c0.2,0,0.2,0,0.2,0.2c0,0.4,0,0.9,0,1.3c0,0.2-0.1,0.2-0.2,0.2c-1.1,0-2.1,0-3.1,0L162.5,134.8
					L162.5,134.8z"/>
			</g>
			<g>
				<line class="st1" x1="177.9" y1="73.7" x2="126.1" y2="73.7"/>
				<polyline class="st2" points="168.9,63.6 179,73.7 168.9,83.7 				"/>
			</g>
			<g>
				<line class="st2" x1="127.1" y1="108.7" x2="179" y2="108.7"/>
				<polyline class="st2" points="136.1,118.7 126.1,108.7 136.1,98.7 				"/>
			</g>
			<g>
				<g>
					<path class="st3" d="M319,35.8v69.9c0,0.8,0.5,1.5,1.5,2.1l23.3,13.4c2,1.2,5.3,1.2,7.3,0l23.3-13.4c1-0.6,1.5-1.3,1.5-2.1
						V35.8H319L319,35.8z"/>
					<path class="st4" d="M320.5,38c-1-0.6-1.5-1.3-1.5-2.1c0-0.8,0.5-1.5,1.5-2.1l23.3-13.4c2-1.2,5.3-1.2,7.3,0l23.3,13.4
						c1,0.6,1.5,1.3,1.5,2.1s-0.5,1.5-1.5,2.1L351,51.4c-2,1.2-5.3,1.2-7.3,0L320.5,38z"/>
				</g>
				<g>
					<path class="st3" d="M325,14.6v21.2c0,0.6,0.4,1.2,1.2,1.7L344.5,48c1.6,0.9,4.2,0.9,5.8,0l18.3-10.5c0.8-0.5,1.2-1.1,1.2-1.7
						V14.6H325L325,14.6z"/>
					<path class="st4" d="M326.2,16.3c-0.8-0.5-1.2-1.1-1.2-1.7s0.4-1.2,1.2-1.7l18.3-10.6c1.6-0.9,4.2-0.9,5.8,0L368.5,13
						c0.8,0.5,1.2,1.1,1.2,1.7s-0.4,1.2-1.2,1.7l-18.3,10.6c-1.6,0.9-4.2,0.9-5.8,0C344.5,26.9,326.2,16.3,326.2,16.3z"/>
				</g>
				<polygon class="st5" points="323.2,102.3 321.4,101.3 321.4,73.3 323.2,74.3 				"/>
				<polygon class="st5" points="327.9,105 326.1,104 326.1,76 327.9,77 				"/>
				<polygon class="st5" points="332.5,107.7 330.8,106.7 330.8,78.7 332.5,79.7 				"/>
				<polygon class="st5" points="337.2,110.4 335.5,109.4 335.5,81.4 337.2,82.4 				"/>
				<polygon class="st5" points="341.9,113.1 340.2,112.1 340.2,84.1 341.9,85.1 				"/>
				<polygon class="st5" points="323.2,70.2 321.4,69.2 321.4,44.3 323.2,45.3 				"/>
				<polygon class="st5" points="327.9,72.9 326.1,71.9 326.1,47 327.9,48 				"/>
				<polygon class="st5" points="332.5,75.6 330.8,74.6 330.8,49.7 332.5,50.8 				"/>
				<polygon class="st5" points="337.2,78.3 335.5,77.3 335.5,52.5 337.2,53.5 				"/>
				<polygon class="st5" points="341.9,81 340.2,80 340.2,55.2 341.9,56.2 				"/>
				<polygon class="st5" points="371.6,102.3 373.4,101.3 373.4,73.3 371.6,74.3 				"/>
				<polygon class="st5" points="366.9,105 368.7,104 368.7,76 366.9,77 				"/>
				<polygon class="st5" points="362.2,107.7 364,106.7 364,78.7 362.2,79.7 				"/>
				<polygon class="st5" points="357.5,110.4 359.3,109.4 359.3,81.4 357.5,82.4 				"/>
				<polygon class="st5" points="352.9,113.1 354.6,112.1 354.6,84.1 352.9,85.1 				"/>
				<polygon class="st5" points="371.6,70.2 373.4,69.2 373.4,44.3 371.6,45.3 				"/>
				<polygon class="st5" points="366.9,72.9 368.7,71.9 368.7,47 366.9,48 				"/>
				<polygon class="st5" points="362.2,75.6 364,74.6 364,49.7 362.2,50.8 				"/>
				<polygon class="st5" points="357.5,78.3 359.3,77.3 359.3,52.5 357.5,53.5 				"/>
				<polygon class="st5" points="352.9,81 354.6,80 354.6,55.2 352.9,56.2 				"/>
			</g>
			<g>
				<g>
					<path class="st6" d="M255.8,58v69.9c0,0.8,0.5,1.5,1.5,2.1l23.3,13.4c2,1.2,5.3,1.2,7.3,0l23.3-13.4c1-0.6,1.5-1.4,1.5-2.1V58
						H255.8L255.8,58z"/>
					<path class="st7" d="M257.3,60.1c-1-0.6-1.5-1.3-1.5-2.1c0-0.8,0.5-1.5,1.5-2.1l23.3-13.4c2-1.2,5.3-1.2,7.3,0l23.3,13.4
						c1,0.6,1.5,1.3,1.5,2.1s-0.5,1.5-1.5,2.1l-23.3,13.4c-2,1.2-5.3,1.2-7.3,0L257.3,60.1z"/>
				</g>
				<g>
					<path class="st6" d="M261.9,36.8V58c0,0.6,0.4,1.2,1.2,1.7l18.3,10.5c1.6,0.9,4.2,0.9,5.8,0l18.3-10.5c0.8-0.5,1.2-1.1,1.2-1.7
						V36.8L261.9,36.8L261.9,36.8z"/>
					<path class="st7" d="M263,38.5c-0.8-0.5-1.2-1.1-1.2-1.7s0.4-1.2,1.2-1.7l18.3-10.5c1.6-0.9,4.2-0.9,5.8,0l18.3,10.5
						c0.8,0.5,1.2,1.1,1.2,1.7s-0.4,1.2-1.2,1.7L287.1,49c-1.6,0.9-4.2,0.9-5.8,0L263,38.5z"/>
				</g>
				<g>
					<path class="st6" d="M269.3,22.6v14.1c0,0.4,0.3,0.8,0.8,1.1l12.2,7c1.1,0.6,2.8,0.6,3.8,0l12.2-7c0.5-0.3,0.8-0.7,0.8-1.1
						V22.6H269.3L269.3,22.6z"/>
					<path class="st6" d="M267.8,21.2v1.4c0,0.4,0.3,0.9,0.9,1.2l13.4,7.8c1.2,0.7,3.1,0.7,4.2,0l13.4-7.8c0.6-0.3,0.9-0.8,0.9-1.2
						v-1.4H267.8z"/>
					<path class="st7" d="M268.6,22.5c-0.6-0.3-0.9-0.8-0.9-1.2s0.3-0.9,0.9-1.2l13.4-7.8c1.2-0.7,3.1-0.7,4.2,0l13.4,7.8
						c0.6,0.3,0.9,0.8,0.9,1.2c0,0.4-0.3,0.9-0.9,1.2l-13.4,7.8c-1.2,0.7-3.1,0.7-4.2,0L268.6,22.5z"/>
				</g>
				<polygon class="st5" points="260,124.5 258.2,123.4 258.2,95.4 260,96.4 				"/>
				<polygon class="st5" points="264.6,127.2 262.9,126.2 262.9,98.2 264.6,99.2 				"/>
				<polygon class="st5" points="269.3,129.9 267.6,128.9 267.6,100.9 269.3,101.9 				"/>
				<polygon class="st5" points="274,132.6 272.3,131.6 272.3,103.6 274,104.6 				"/>
				<polygon class="st5" points="278.7,135.3 277,134.3 277,106.3 278.7,107.3 				"/>
				<polygon class="st5" points="260,92.4 258.2,91.3 258.2,66.5 260,67.5 				"/>
				<polygon class="st5" points="264.6,95.1 262.9,94.1 262.9,69.2 264.6,70.2 				"/>
				<polygon class="st5" points="269.3,97.8 267.6,96.8 267.6,71.9 269.3,72.9 				"/>
				<polygon class="st5" points="274,100.5 272.3,99.5 272.3,74.6 274,75.6 				"/>
				<polygon class="st5" points="278.7,103.2 277,102.2 277,77.3 278.7,78.3 				"/>
				<polygon class="st5" points="308.4,124.5 310.2,123.4 310.2,95.4 308.4,96.4 				"/>
				<polygon class="st5" points="303.7,127.2 305.5,126.2 305.5,98.2 303.7,99.2 				"/>
				<polygon class="st5" points="299,129.9 300.8,128.9 300.8,100.9 299,101.9 				"/>
				<polygon class="st5" points="294.3,132.6 296.1,131.6 296.1,103.6 294.3,104.6 				"/>
				<polygon class="st5" points="289.6,135.3 291.4,134.3 291.4,106.3 289.6,107.3 				"/>
				<polygon class="st5" points="308.4,92.4 310.2,91.3 310.2,66.5 308.4,67.5 				"/>
				<polygon class="st5" points="303.7,95.1 305.5,94.1 305.5,69.2 303.7,70.2 				"/>
				<polygon class="st5" points="299,97.8 300.8,96.8 300.8,71.9 299,72.9 				"/>
				<polygon class="st5" points="294.3,100.5 296.1,99.5 296.1,74.6 294.3,75.6 				"/>
				<polygon class="st5" points="289.6,103.2 291.4,102.2 291.4,77.3 289.6,78.3 				"/>
			</g>
			<g>
				<g>
					<path class="st8" d="M306.5,79.9v64.5c0,0.7,0.5,1.4,1.3,1.9l20.7,11.9c1.8,1,4.7,1,6.5,0l20.7-11.9c0.9-0.5,1.3-1.2,1.3-1.9
						V79.9H306.5L306.5,79.9z"/>
					<path class="st9" d="M307.9,81.8c-0.9-0.5-1.3-1.2-1.3-1.9s0.5-1.4,1.3-1.9l20.7-11.9c1.8-1,4.7-1,6.5,0l20.7,11.9
						c0.9,0.5,1.3,1.2,1.3,1.9s-0.5,1.4-1.3,1.9L335,93.8c-1.8,1-4.7,1-6.5,0L307.9,81.8z"/>
				</g>
				<g>
					<path class="st8" d="M311.9,76.2v3.7c0,0.5,0.4,1.1,1,1.5l16.2,9.4c1.4,0.8,3.7,0.8,5.1,0l16.2-9.4c0.7-0.4,1-0.9,1-1.5v-3.7
						H311.9L311.9,76.2z"/>
					<path class="st9" d="M313,77.7c-0.7-0.4-1-0.9-1-1.5s0.4-1.1,1-1.5l16.2-9.4c1.4-0.8,3.7-0.8,5.1,0l16.2,9.4
						c0.7,0.4,1,0.9,1,1.5s-0.4,1.1-1,1.5l-16.2,9.4c-1.4,0.8-3.7,0.8-5.1,0L313,77.7z"/>
				</g>
				<g>
					<path class="st8" d="M316.3,72.5v3.7c0,0.4,0.3,0.8,0.8,1.2l12.7,7.3c1.1,0.6,2.9,0.6,4,0l12.7-7.3c0.5-0.3,0.8-0.7,0.8-1.2
						v-3.7H316.3L316.3,72.5z"/>
					<path class="st9" d="M317.1,73.7c-0.5-0.3-0.8-0.7-0.8-1.2s0.3-0.8,0.8-1.2l12.7-7.3c1.1-0.6,2.9-0.6,4,0l12.7,7.3
						c0.5,0.3,0.8,0.7,0.8,1.2s-0.3,0.8-0.8,1.2L333.8,81c-1.1,0.6-2.9,0.6-4,0L317.1,73.7z"/>
				</g>
				<g>
					<path class="st8" d="M327.1,68.2v4.4c0,0.1,0.1,0.2,0.2,0.3l3.8,2.2c0.3,0.2,0.9,0.2,1.2,0l3.8-2.2c0.2-0.1,0.2-0.2,0.2-0.3
						v-4.4H327.1L327.1,68.2z"/>
					<path class="st9" d="M327.4,68.5c-0.2-0.1-0.2-0.2-0.2-0.3s0.1-0.2,0.2-0.3l3.8-2.2c0.3-0.2,0.9-0.2,1.2,0l3.8,2.2
						c0.2,0.1,0.2,0.2,0.2,0.3s-0.1,0.2-0.2,0.3l-3.8,2.2c-0.3,0.2-0.9,0.2-1.2,0L327.4,68.5z"/>
				</g>
				<polygon class="st5" points="313.3,143.3 308.5,140.5 308.5,87.5 313.3,90.2 				"/>
				<polygon class="st5" points="320.4,147.4 315.6,144.6 315.6,91.6 320.4,94.3 				"/>
				<polygon class="st5" points="327.5,151.4 322.7,148.7 322.7,95.7 327.5,98.4 				"/>
				<polygon class="st5" points="350.2,143.3 355,140.5 355,87.5 350.2,90.2 				"/>
				<polygon class="st5" points="343.1,147.4 347.9,144.6 347.9,91.6 343.1,94.3 				"/>
			</g>
			<g>
				<g>
					<path d="M30.7,184.5h-1.8V179c0-1.4,0-2.6,0-3.8h-0.2c-0.3,1.2-0.5,2.4-0.9,3.7l-1.5,5.6h-2.2l-1.4-5.6
						c-0.3-1.3-0.6-2.4-0.9-3.8h-0.2c0,1.3,0,2.5,0,3.9v5.5H20v-10.9H23l1.4,5.6c0.3,1.1,0.6,2.4,0.8,3.6h0.2
						c0.3-1.2,0.5-2.3,0.8-3.6l1.4-5.6h3.1L30.7,184.5L30.7,184.5z"/>
					<path d="M40.5,175.2h-5.2v2.9h4v1.5h-4v4.9h-1.9v-10.9h7.2L40.5,175.2L40.5,175.2z"/>
					<path d="M46.1,173.7c2.7,0,3.7,1,3.7,2.7c0,1.2-0.8,2.1-2.2,2.4v0.1c1.6,0.3,2.5,1.2,2.5,2.6c0,1.9-1.4,3.1-3.8,3.1h-4.1v-10.9
						H46.1L46.1,173.7z M44.1,178.1h1.7c1.5,0,2.2-0.6,2.2-1.6s-0.5-1.5-2-1.5h-1.8V178.1z M44.1,183.1h2c1.4,0,2.2-0.7,2.2-1.8
						s-0.9-1.8-2.4-1.8h-1.8V183.1L44.1,183.1z"/>
					<path d="M62.9,184.5H61V179c0-1.4,0-2.6,0-3.8h-0.2c-0.3,1.2-0.5,2.4-0.9,3.7l-1.5,5.6h-2.2l-1.4-5.6c-0.3-1.3-0.6-2.4-0.9-3.8
						h-0.2c0,1.3,0,2.5,0,3.9v5.5h-1.7v-10.9h3.1l1.4,5.6c0.3,1.1,0.6,2.4,0.8,3.6h0.2c0.3-1.2,0.5-2.3,0.8-3.6l1.4-5.6h3.1
						L62.9,184.5L62.9,184.5z"/>
				</g>
				<polyline class="st10" points="5.5,189.4 0.5,189.4 0.5,168.7 5.5,168.7 				"/>
				<polyline class="st10" points="78.3,189.4 83.3,189.4 83.3,168.7 78.3,168.7 				"/>
			</g>
			<g>
				<g>
					<path d="M247.7,178.1c1.2-0.4,2.3-0.8,3.4-1.4c0.8-0.4,1.1-0.6,1.5-1c0.5,0.4,0.9,1,1.2,1.3c0.1,0.1,0.1,0.2,0.1,0.2
						c0,0.1-0.1,0.2-0.2,0.2c-0.4,0.1-0.8,0.3-1.2,0.5c-1.4,0.6-3,1.2-4.8,1.7v1.9c0,0.7,0.1,0.9,0.5,1c0.4,0.1,0.9,0.1,1.8,0.1
						c1.3,0,2.5-0.1,3.9-0.3c0.2,0,0.2,0,0.2,0.2c0,0.4,0.1,0.9,0.1,1.2c0,0.2-0.1,0.2-0.3,0.2c-1.6,0.2-2.4,0.2-4.2,0.2
						c-1.2,0-2.1-0.1-2.7-0.4c-0.7-0.3-1-0.9-1-2.1v-5.2c0-1.3,0-1.9-0.1-2.6c0.7,0.1,1.3,0.1,1.8,0.3c0.2,0,0.2,0.1,0.2,0.2
						s0,0.2-0.1,0.3c-0.1,0.2-0.1,0.6-0.1,1.3L247.7,178.1L247.7,178.1z M253.6,174.1c0.1-0.1,0.1,0,0.2,0c0.4,0.3,0.9,0.9,1.3,1.5
						c0.1,0.1,0.1,0.1,0,0.2l-0.6,0.4c-0.1,0.1-0.2,0.1-0.2,0c-0.4-0.6-0.9-1.2-1.4-1.6L253.6,174.1L253.6,174.1z M254.8,173.2
						c0.1-0.1,0.1,0,0.2,0c0.5,0.4,1,0.9,1.3,1.4c0.1,0.1,0.1,0.2,0,0.2l-0.6,0.4c-0.1,0.1-0.2,0-0.2,0c-0.4-0.6-0.8-1.1-1.4-1.6
						L254.8,173.2L254.8,173.2z"/>
					<path d="M261.1,175.6c0.2,0.1,0.3,0.2,0.2,0.4c-0.1,0.3-0.2,0.6-0.2,0.9c0,1.8-0.3,3.1-0.8,4.1c-0.4,0.9-1,1.8-2,2.6
						c-0.1,0.1-0.2,0.2-0.4,0.2c-0.1,0-0.2,0-0.3-0.1c-0.4-0.2-0.7-0.4-1.2-0.6c1.1-0.8,1.8-1.7,2.3-2.8c0.4-0.9,0.6-1.7,0.6-4
						c0-0.5,0-0.8-0.1-1.2C260.1,175.4,260.7,175.5,261.1,175.6L261.1,175.6z M264.2,181.6c0.7-0.4,1.3-0.8,2-1.3
						c0.8-0.6,1.7-1.4,2.5-2.4c0.1,0.5,0.2,0.9,0.4,1.4c0,0.1,0.1,0.2,0.1,0.2c0,0.1-0.1,0.2-0.2,0.4c-0.7,0.7-1.3,1.3-2.1,1.8
						c-0.7,0.6-1.5,1.1-2.5,1.7c-0.2,0.2-0.3,0.2-0.4,0.3c-0.1,0.1-0.2,0.1-0.3,0.1c-0.1,0-0.2,0-0.3-0.1c-0.3-0.2-0.6-0.6-0.8-0.9
						c-0.1-0.1-0.1-0.2-0.1-0.3c0-0.1,0-0.1,0.1-0.2c0.1-0.2,0.1-0.4,0.1-1.1v-4.4c0-1.2,0-1.8-0.1-2.4c0.6,0.1,1.3,0.2,1.8,0.3
						c0.2,0,0.2,0.1,0.2,0.2c0,0.1,0,0.2-0.1,0.4c-0.1,0.3-0.1,0.6-0.1,1.6L264.2,181.6L264.2,181.6z"/>
					<path d="M276.9,178.9c-0.5,0.8-1.1,1.4-2,2.2c-0.7,0.7-1.8,1.5-2.6,2c-0.1,0.1-0.2,0.1-0.3,0.1c-0.1,0-0.2,0-0.2-0.1
						c-0.3-0.3-0.8-0.7-1.1-0.8c1.4-0.8,2.3-1.4,3.3-2.2c0.8-0.7,1.5-1.4,2.1-2.2h-2.5c-0.7,0-1.5,0-2.2,0.1c-0.1,0-0.2-0.1-0.2-0.2
						c-0.1-0.3-0.1-0.8-0.1-1.4c0.8,0.1,1.7,0.1,2.5,0.1h3.3l-0.1-1.2c0-0.7-0.1-1.2-0.2-1.6c0.8,0,1.3,0.1,1.8,0.1
						c0.1,0,0.2,0.1,0.2,0.2c0,0.1,0,0.1-0.1,0.2c0,0.2-0.1,0.4-0.1,1.3l0,1.1h1.2c1,0,1.7,0,2.7-0.1c0.1,0,0.2,0.1,0.2,0.2
						c0,0.4,0,0.8,0,1.2c0,0.1-0.1,0.2-0.2,0.2c-1,0-1.8-0.1-2.7-0.1h-1.1l0.2,5.3c0,0.7-0.2,1.2-0.7,1.5c-0.5,0.3-1.3,0.5-1.9,0.5
						c-0.3,0-0.4-0.1-0.4-0.2c-0.2-0.5-0.5-0.8-1-1.2c1,0,1.5,0,2-0.1c0.3-0.1,0.4-0.2,0.4-0.8L276.9,178.9L276.9,178.9z"/>
					<path d="M286.7,180.2c-1.4,0-1.9,0.2-2.1,0.2c-0.2,0-0.3-0.1-0.3-0.3c-0.1-0.3-0.1-1-0.2-1.7c0.9,0.1,1.6,0.2,3,0.2h4.5
						c1.1,0,2.1,0,3.2,0c0.2,0,0.2,0,0.2,0.2c0,0.4,0,0.9,0,1.3c0,0.2-0.1,0.2-0.2,0.2c-1,0-2.1,0-3.1,0L286.7,180.2L286.7,180.2z"
						/>
					<path d="M305.6,176.9c0.8,0,1.7,0,2.4,0c0.2,0,0.2,0,0.3,0.2c0,0.4,0,0.7,0,1.1c0,0.2-0.1,0.3-0.3,0.3c-0.5,0-1.6-0.1-2.4-0.1
						h-2c-0.1,2-0.4,2.8-1,3.8c-0.7,1.1-1.8,2.1-3,2.8c-0.1,0.1-0.2,0.1-0.3,0.1s-0.2,0-0.3-0.1c-0.4-0.3-0.7-0.6-1.2-0.8
						c1.6-0.8,2.5-1.5,3.2-2.5c0.5-0.8,0.8-1.8,0.9-3.2h-2.7c-0.7,0-1.5,0.1-2,0.1c-0.2,0-0.2-0.1-0.2-0.3c0-0.3-0.1-0.9-0.1-1.4
						c0.9,0.1,1.7,0.1,2.4,0.1h2.8c0-0.7,0-1.5,0-2.1c0-0.4,0-0.9-0.2-1.4c0.7,0,1.4,0.1,1.9,0.2c0.1,0,0.2,0.1,0.2,0.2
						c0,0.1,0,0.2-0.1,0.3s-0.1,0.5-0.1,0.9c0,0.7,0,1.1,0,1.9L305.6,176.9L305.6,176.9z"/>
					<path d="M312.6,180.2c-1.4,0-1.9,0.2-2.1,0.2c-0.2,0-0.3-0.1-0.3-0.3c-0.1-0.3-0.1-1-0.2-1.7c0.9,0.1,1.6,0.2,3,0.2h4.5
						c1.1,0,2.1,0,3.2,0c0.2,0,0.2,0,0.2,0.2c0,0.4,0,0.9,0,1.3c0,0.2-0.1,0.2-0.2,0.2c-1,0-2.1,0-3.1,0L312.6,180.2L312.6,180.2z"
						/>
				</g>
				<polyline class="st10" points="228.2,189.4 223.2,189.4 223.2,168.7 228.2,168.7 				"/>
				<polyline class="st10" points="334,189.4 338.9,189.4 338.9,168.7 334,168.7 				"/>
			</g>
			<circle class="st11" cx="434.6" cy="39.4" r="35.5"/>
			<circle class="st11" cx="434.6" cy="128.5" r="35.5"/>
			<path class="st12" d="M398.7,113.7c-7.3,17.7-0.5,38.6,16.5,48.5c18.6,10.8,42.4,4.4,53.2-14.2s4.4-42.4-14.2-53.2
				c-17.3-10-39-5.2-50.6,10.4l-16.9-9.8"/>
			<path class="st12" d="M398.7,54.2c-7.3-17.8-0.5-38.6,16.5-48.5c18.6-10.8,42.4-4.4,53.2,14.2s4.4,42.4-14.2,53.2
				c-17.3,10-39,5.2-50.6-10.4l-16.9,9.8"/>
			<g>
				<path class="st0" d="M422.8,108.9c-0.1,0.6-0.2,1.2-0.3,1.6c-0.1,0.2-0.1,0.3-0.2,0.3c-0.1,0-0.1-0.1-0.3-0.1
					c-0.2-0.1-0.6-0.2-0.8-0.3c0.4-1.3,0.5-2.6,0.6-3.7c0-0.3,0-0.6,0-0.9c0.4,0,0.8,0.1,1.2,0.2c0.1,0,0.2,0.1,0.2,0.2
					s0,0.1-0.1,0.2c-0.1,0.1-0.1,0.2-0.1,0.5c0,0.2,0,0.4-0.1,0.7h0.7v-0.8c0-1,0-1.4-0.1-2.1c0.5,0,1,0,1.4,0.1
					c0.1,0,0.2,0.1,0.2,0.1c0,0.1,0,0.2-0.1,0.3c-0.1,0.2-0.1,0.5-0.1,1.6v0.8c0.7,0,1,0,1.1,0c0.1,0,0.1,0,0.1,0.1v0.9
					c0.7-0.9,1.2-1.8,1.5-2.8c0.1-0.4,0.2-0.7,0.2-1.1c0.4,0.1,0.9,0.1,1.3,0.2c0.1,0,0.2,0.1,0.2,0.2s0,0.2-0.1,0.3
					s-0.2,0.3-0.3,0.6c-0.1,0.4-0.3,0.8-0.5,1.2h3.3c1.1,0,1.4,0,1.5,0c0.1,0,0.2,0,0.2,0.2c0,0.4,0,0.8,0,1.1
					c0,3.3-0.1,5.1-0.4,6.7c-0.2,1.5-0.8,2.2-2.1,2.2c-0.2,0-0.6,0-1,0c-0.3,0-0.5-0.2-0.5-0.5c-0.1-0.4-0.2-0.8-0.3-1.1
					c0.6,0.1,1.1,0.1,1.6,0.1c0.6,0,0.8-0.4,1-1.2c0.2-1.5,0.4-3.1,0.4-6.1c-1,3.5-2.4,6-4.8,7.9c-0.2,0.1-0.3,0.2-0.4,0.2
					c-0.1,0-0.2-0.1-0.3-0.3c-0.2-0.3-0.5-0.6-0.8-0.8c2.6-1.8,4.1-4.2,5-7.3h-0.9c-0.7,2.2-1.7,3.8-3.1,5.1
					c-0.1,0.2-0.2,0.2-0.3,0.2s-0.1-0.1-0.3-0.2c-0.2-0.3-0.5-0.6-0.8-0.7c1.5-1.1,2.5-2.5,3.1-4.4h-0.7c-0.3,0.5-0.6,1-1,1.4
					c-0.1,0.2-0.2,0.2-0.3,0.2c-0.1,0-0.1-0.1-0.3-0.2c-0.3-0.2-0.6-0.4-0.8-0.6l0.4-0.4c-0.1,0-0.5,0-1,0v2.3
					c0.4-0.2,0.8-0.4,1.3-0.7c0,0.2,0,0.6,0,0.9c0,0.4,0,0.4-0.4,0.6c-0.3,0.2-0.7,0.3-1,0.5v2.4c0,1.6,0,2.4,0,2.5
					c0,0.1,0,0.2-0.1,0.2h-1.1c-0.1,0-0.1,0-0.1-0.2c0-0.1,0-0.9,0-2.4v-1.7c-0.3,0.1-0.7,0.3-1,0.4c-0.2,0.1-0.4,0.2-0.5,0.2
					c-0.1,0.1-0.1,0.1-0.2,0.1c-0.1,0-0.2,0-0.2-0.2c-0.2-0.4-0.3-0.9-0.5-1.4c0.5-0.1,0.9-0.2,1.3-0.4c0.4-0.1,0.7-0.2,1-0.4v-2.9
					L422.8,108.9L422.8,108.9z"/>
				<path class="st0" d="M436.8,112c0-0.5,0-1.1,0-1.7c-0.3,0.4-0.6,0.8-0.9,1.2c-0.1,0.1-0.2,0.2-0.2,0.2c-0.1,0-0.1-0.1-0.2-0.2
					c-0.1-0.5-0.3-0.9-0.5-1.2c1.2-1.3,2.1-2.9,2.6-4.5c0.1-0.4,0.2-0.7,0.2-1.1c0.5,0.2,0.9,0.3,1.3,0.5c0.1,0.1,0.2,0.1,0.2,0.2
					c0,0.1,0,0.2-0.1,0.2c-0.1,0.1-0.2,0.2-0.3,0.6c-0.2,0.6-0.5,1.3-0.8,1.9v7.3c0,1.4,0,2.1,0,2.1c0,0.1,0,0.2-0.1,0.2h-1.2
					c-0.1,0-0.1,0-0.1-0.2c0-0.1,0-0.8,0-2.1L436.8,112L436.8,112z M443,106.9c0-1,0-1.5-0.1-2.1c0.5,0,1,0,1.5,0.1
					c0.1,0,0.2,0.1,0.2,0.2c0,0.1-0.1,0.2-0.1,0.3c-0.1,0.2-0.1,0.5-0.1,1.6v0.9h1.2c1.3,0,1.7,0,1.8,0c0.1,0,0.2,0,0.2,0.2v1.1
					c0,0.1,0,0.2-0.2,0.2c-0.1,0-0.5,0-1.8,0h-1.2v2.4h1.6c1.4,0,1.8,0,1.9,0c0.1,0,0.1,0,0.1,0.2v1.1c0,0.2,0,0.2-0.1,0.2
					c-0.1,0-0.5,0-1.9,0h-1.6v2c0,1.6,0,2.4,0,2.4c0,0.1,0,0.2-0.1,0.2h-1.2c-0.1,0-0.1,0-0.1-0.2c0-0.1,0-0.8,0-2.4v-2h-1.9
					c-1.4,0-1.8,0-1.9,0c-0.1,0-0.1,0-0.1-0.2v-1.1c0-0.1,0-0.2,0.1-0.2c0.1,0,0.5,0,1.9,0h1.9v-2.4h-2.1c-0.2,0.5-0.5,1-0.8,1.5
					c-0.1,0.2-0.2,0.3-0.2,0.3s-0.1-0.1-0.3-0.2c-0.3-0.3-0.6-0.4-0.9-0.6c1-1.3,1.4-2.6,1.8-3.7c0.1-0.3,0.1-0.6,0.1-0.9
					c0.5,0.1,0.9,0.2,1.3,0.4c0.2,0.1,0.2,0.1,0.2,0.2s0,0.2-0.1,0.2c-0.1,0.1-0.1,0.2-0.2,0.6s-0.2,0.7-0.3,1.1h1.5L443,106.9
					L443,106.9z"/>
				<path class="st0" d="M415.6,130.3c0-0.5,0-1.1,0-1.7c-0.2,0.3-0.5,0.6-0.7,0.9c-0.1,0.1-0.2,0.2-0.2,0.2c-0.1,0-0.1-0.1-0.1-0.2
					c-0.1-0.5-0.2-1-0.4-1.3c1.1-1.3,1.8-2.8,2.4-4.5c0.1-0.3,0.2-0.7,0.2-1c0.5,0.1,0.9,0.3,1.3,0.5c0.1,0.1,0.2,0.1,0.2,0.2
					c0,0.1-0.1,0.2-0.1,0.2c-0.1,0.1-0.1,0.2-0.3,0.6c-0.2,0.7-0.5,1.4-0.8,2v7.1c0,1.4,0,2,0,2.1c0,0.1,0,0.1-0.1,0.1h-1.1
					c-0.1,0-0.1,0-0.1-0.1c0-0.1,0-0.8,0-2.1L415.6,130.3L415.6,130.3z M420.2,125c-1.4,0-1.8,0-1.9,0c-0.1,0-0.1,0-0.1-0.2v-1
					c0-0.2,0-0.2,0.1-0.2c0.1,0,0.5,0,1.9,0h5c1.4,0,1.8,0,1.9,0c0.1,0,0.1,0,0.1,0.2v1c0,0.1,0,0.2-0.1,0.2c-0.1,0-0.5,0-1.9,0
					h-0.9v2.2h0.4c1.4,0,1.9,0,2,0c0.1,0,0.1,0,0.1,0.2c0,0.1,0,0.6,0,2.3v2.4c0,2.5,0,3,0,3.1c0,0.1,0,0.1-0.1,0.1h-1.1
					c-0.1,0-0.1,0-0.1-0.1v-0.6h-5.9v0.6c0,0.1,0,0.1-0.1,0.1h-1.1c-0.1,0-0.1,0-0.1-0.1c0-0.1,0-0.6,0-3.1v-2.2c0-1.9,0-2.5,0-2.6
					c0-0.1,0-0.2,0.1-0.2c0.1,0,0.6,0,1.9,0h0.4V125L420.2,125L420.2,125z M420.5,133.2v-4.9h-1v4.9H420.5z M422.9,127.2V125h-1.1
					v2.2H422.9z M422.9,133.2v-4.9h-1.1v4.9H422.9z M424.2,128.4v4.9h1.1v-4.9H424.2z"/>
				<path class="st0" d="M429.7,130.2c0-0.5,0-1.2,0-1.9c-0.2,0.3-0.5,0.7-0.8,1c-0.1,0.1-0.2,0.2-0.2,0.2c-0.1,0-0.1-0.1-0.1-0.2
					c-0.1-0.4-0.3-0.9-0.5-1.2c1.1-1.2,2-2.8,2.5-4.4c0.1-0.3,0.2-0.6,0.2-1c0.5,0.1,0.9,0.2,1.3,0.4c0.1,0.1,0.2,0.1,0.2,0.2
					c0,0.1,0,0.2-0.1,0.2c-0.1,0.1-0.2,0.2-0.3,0.6c-0.2,0.7-0.5,1.3-0.8,2v7.2c0,1.4,0,2.1,0,2.1c0,0.1,0,0.1-0.1,0.1h-1.2
					c-0.1,0-0.1,0-0.1-0.1c0-0.1,0-0.8,0-2.1L429.7,130.2L429.7,130.2z M432.2,128.3c0-0.8,0-1.3-0.1-1.8c0.5,0,0.9,0,1.4,0.1
					c0.1,0,0.2,0.1,0.2,0.2c0,0.1-0.1,0.2-0.1,0.3c-0.1,0.2-0.1,0.4-0.1,1.2v5.2h5.6c1.3,0,1.8,0,1.8,0c0.1,0,0.1,0,0.1,0.2v1
					c0,0.1,0,0.1-0.1,0.1c-0.1,0-0.5,0-1.8,0h-5.6v0.5c0,0.1,0,0.1-0.1,0.1h-1.1c-0.1,0-0.1,0-0.1-0.1c0-0.1,0-0.5,0-1.5
					L432.2,128.3L432.2,128.3z M434.6,125.3c-1.4,0-1.8,0-1.9,0c-0.1,0-0.1,0-0.1-0.2v-0.9c0-0.1,0-0.1,0.1-0.1c0.1,0,0.5,0,1.9,0
					h1.7l0.1-0.4c0-0.4,0.1-0.7,0.1-1c0.5,0,1,0.1,1.4,0.1c0.1,0,0.2,0.1,0.2,0.2c0,0.1,0,0.2-0.1,0.2c-0.1,0.1-0.1,0.2-0.1,0.4
					c0,0.2-0.1,0.3-0.1,0.5h1.4c1.4,0,1.8,0,1.9,0c0.1,0,0.1,0,0.1,0.1v0.9c0,0.2,0,0.2-0.1,0.2c-0.1,0-0.5,0-1.9,0h-1.6
					c-0.1,0.3-0.1,0.7-0.2,1h1.1c1.1,0,1.5,0,1.6,0c0.1,0,0.2,0,0.2,0.2c0,0.1,0,0.5,0,1.5v3.1c0,1,0,1.4,0,1.5c0,0.1,0,0.1-0.2,0.1
					c-0.1,0-0.5,0-1.6,0h-2.1c-1.1,0-1.5,0-1.6,0c-0.1,0-0.1,0-0.1-0.1c0-0.1,0-0.5,0-1.5V128c0-1,0-1.4,0-1.5c0-0.1,0-0.2,0.1-0.2
					c0.1,0,0.4,0,1.1,0c0.1-0.4,0.1-0.7,0.2-1L434.6,125.3L434.6,125.3z M436,128.1h2.8v-0.8H436V128.1z M438.8,129.9v-0.8H436v0.8
					H438.8z M438.8,130.9H436v0.8h2.8V130.9z"/>
				<path class="st0" d="M449.5,125.8c-0.3,2.4-0.9,4.6-1.8,6c-0.6,1.1-1.3,1.6-2.4,1.6c-1.2,0-2.5-1.3-2.5-3.6
					c0-1.3,0.6-2.6,1.6-3.6c1.2-1.2,2.7-1.8,4.5-1.8c3.4,0,5.3,2.1,5.3,4.9c0,2.6-1.5,4.2-4.3,5.1c-0.3,0.1-0.4,0-0.6-0.2
					c-0.1-0.2-0.5-0.6-1-0.9c2.4-0.6,4.2-1.5,4.2-4.2C452.7,127.4,451.5,125.8,449.5,125.8L449.5,125.8L449.5,125.8z M445.5,127.2
					c-0.7,0.8-1.1,1.7-1.1,2.6c0,1.3,0.5,2,1,2c0.4,0,0.7-0.2,1-0.9c0.6-1.1,1.2-3.2,1.5-5C446.9,126.1,446.1,126.5,445.5,127.2
					L445.5,127.2z"/>
				<path class="st0" d="M433.3,149.4c0,1.2,0,2,0,2.4c0,0.5-0.1,0.9-0.4,1.1c-0.3,0.2-0.8,0.3-2,0.4c-0.5,0-0.4,0-0.5-0.4
					c-0.1-0.4-0.2-0.8-0.4-1c0.4,0,0.8,0.1,1.2,0.1c0.4,0,0.6-0.1,0.6-0.4v-7h-8.3v6.7c0,1.3,0,2,0,2.1c0,0.1,0,0.1-0.1,0.1h-1.3
					c-0.1,0-0.1,0-0.1-0.1c0-0.1,0-0.8,0-2.2v-5.5c0-1.5,0-2.2,0-2.3c0-0.1,0-0.1,0.1-0.1c0.1,0,0.6,0,1.9,0h1.6
					c0.3-0.6,0.6-1.1,0.7-1.6c0.1-0.2,0.1-0.4,0.2-0.8c0.6,0.1,1.2,0.1,1.6,0.2c0.1,0,0.2,0.1,0.2,0.2c0,0.1-0.1,0.2-0.1,0.2
					c-0.1,0.1-0.2,0.2-0.2,0.3c-0.2,0.4-0.5,0.9-0.7,1.4h4c1.3,0,1.8,0,1.9,0c0.1,0,0.2,0,0.2,0.1c0,0.1,0,0.9,0,2.3L433.3,149.4
					L433.3,149.4z M425.1,151.2c-0.1,0-0.1,0-0.1-0.1c0-0.1,0-0.4,0-2.3v-1.2c0-1.1,0-1.4,0-1.5c0-0.1,0-0.1,0.1-0.1
					c0.1,0,0.4,0,1.5,0h2c1.1,0,1.4,0,1.5,0c0.1,0,0.1,0,0.1,0.1c0,0.1,0,0.4,0,1.3v1.3c0,1.9,0,2.2,0,2.3c0,0.1,0,0.1-0.1,0.1h-1
					c-0.1,0-0.2,0-0.2-0.1v-0.4h-2.6v0.6c0,0.1,0,0.1-0.1,0.1L425.1,151.2L425.1,151.2z M426.3,149.1h2.6V147h-2.6V149.1z"/>
				<path class="st0" d="M437.5,152.7c-1.3,0-1.7,0-1.8,0c-0.1,0-0.1,0-0.1-0.1v-1.3c0-0.1,0-0.1,0.1-0.1c0.1,0,0.5,0,1.8,0h3v-7.9
					c0-1.1,0-1.7-0.1-2.3c0.5,0,1.2,0,1.6,0.1c0.1,0,0.2,0.1,0.2,0.2c0,0.1-0.1,0.2-0.1,0.3c-0.1,0.1-0.1,0.5-0.1,1.3v2.2h2.8
					c1.2,0,1.6,0,1.7,0c0.1,0,0.1,0,0.1,0.1v1.3c0,0.1,0,0.1-0.1,0.1c-0.1,0-0.5,0-1.7,0H442v4.6h3.8c1.3,0,1.7,0,1.8,0
					c0.1,0,0.1,0,0.1,0.1v1.3c0,0.1,0,0.1-0.1,0.1c-0.1,0-0.5,0-1.8,0L437.5,152.7L437.5,152.7z"/>
			</g>
			<g>
				<path class="st0" d="M418.3,24.8c0-1,0-1.4-0.1-2.1c0.5,0,1,0,1.5,0.1c0.1,0,0.2,0.1,0.2,0.1c0,0.1,0,0.2-0.1,0.3
					c-0.1,0.2-0.1,0.5-0.1,1.5v8.1c0,1.6,0,2.3,0,2.4c0,0.1,0,0.2-0.1,0.2h-1.2c-0.1,0-0.1,0-0.1-0.2c0-0.1,0-0.9,0-2.4v-1.1
					c-0.8,0.4-1.6,0.7-2.4,1c-0.2,0.1-0.5,0.2-0.6,0.2c-0.1,0.1-0.1,0.1-0.2,0.1S415,33,415,32.9c-0.1-0.4-0.3-0.8-0.4-1.3
					c0.4-0.1,0.7-0.1,1-0.2v-4.9c0-1,0-1.4-0.1-2.1c0.5,0,1,0,1.5,0.1c0.1,0,0.2,0.1,0.2,0.1c0,0.1,0,0.2-0.1,0.3
					c-0.1,0.2-0.1,0.5-0.1,1.5v4.5c0.5-0.2,0.9-0.3,1.3-0.5L418.3,24.8L418.3,24.8z M425.6,23.7c0.3,0,0.4,0,0.5-0.1
					c0.1,0,0.1-0.1,0.2-0.1c0.1,0,0.2,0.1,0.6,0.5c0.2,0.2,0.3,0.4,0.3,0.5s-0.1,0.2-0.1,0.3c-0.1,0.1-0.2,0.5-0.3,0.9
					c-0.4,2.1-1,4-2,5.5c0.8,1,1.7,1.8,3,2.5c-0.3,0.3-0.5,0.6-0.7,1c-0.1,0.2-0.2,0.3-0.2,0.3c-0.1,0-0.1-0.1-0.3-0.1
					c-1-0.7-1.9-1.5-2.7-2.5c-0.8,0.9-1.7,1.8-2.8,2.6c-0.1,0.1-0.2,0.2-0.3,0.2c-0.1,0-0.2-0.1-0.3-0.3c-0.1-0.3-0.4-0.6-0.6-0.9
					c1.3-0.8,2.4-1.7,3.2-2.8c-1-1.7-1.6-3.8-1.9-6.3c-0.4,0-0.6,0-0.7,0c-0.1,0-0.2,0-0.2-0.2v-1c0-0.1,0-0.1,0.2-0.1
					c0.1,0,0.5,0,1.7,0L425.6,23.7L425.6,23.7z M422.5,25c0.2,2,0.6,3.6,1.3,4.9c0.8-1.4,1.2-3,1.5-4.9H422.5z"/>
				<path class="st0" d="M431,26.6c-1.3,0-1.7,0-1.8,0c-0.1,0-0.1,0-0.1-0.1v-1.1c0-0.1,0-0.1,0.1-0.1c0.1,0,0.5,0,1.8,0h1.7
					c-0.1,0-0.1-0.1-0.1-0.1c-0.3-0.7-0.7-1.3-1.1-1.9c-0.1-0.1-0.1-0.1,0.1-0.2l0.9-0.4c0.2-0.1,0.2,0,0.3,0.1
					c0.4,0.5,0.8,1.2,1.1,1.9c0.1,0.1,0.1,0.1-0.1,0.2l-1,0.5h3.1c0.4-0.6,0.8-1.3,1-1.9c0.1-0.3,0.2-0.5,0.2-0.8
					c0.5,0.1,1.1,0.2,1.5,0.4c0.1,0,0.2,0.1,0.2,0.2c0,0.1-0.1,0.1-0.2,0.2c-0.1,0.1-0.2,0.2-0.3,0.4c-0.3,0.5-0.6,1-0.9,1.4h1.8
					c1.3,0,1.7,0,1.8,0c0.1,0,0.1,0,0.1,0.1v1.1c0,0.1,0,0.1-0.1,0.1c-0.1,0-0.5,0-1.8,0h-1.7c0.7,1.4,2.1,2.5,4.1,3.5
					c-0.2,0.2-0.4,0.5-0.6,0.9c-0.1,0.2-0.1,0.3-0.2,0.3c-0.1,0-0.1,0-0.3-0.1c-0.3-0.2-0.7-0.4-1-0.6v3.2c1.1,0,1.5,0,1.6,0
					c0.1,0,0.1,0,0.1,0.2v1c0,0.1,0,0.2-0.1,0.2c-0.1,0-0.5,0-1.8,0h-8.7c-1.3,0-1.7,0-1.8,0c-0.1,0-0.1,0-0.1-0.2v-1
					c0-0.1,0-0.2,0.1-0.2c0.1,0,0.5,0,1.6,0v-2.5c0-0.2,0-0.5,0-0.6c-0.3,0.2-0.6,0.4-0.9,0.6c-0.1,0.1-0.2,0.1-0.3,0.1
					c-0.1,0-0.1-0.1-0.3-0.3c-0.2-0.3-0.4-0.6-0.6-0.8c2-1,3.3-2.1,4-3.5L431,26.6L431,26.6z M438.5,29.7c-1.1-0.9-1.9-1.9-2.4-3.1
					h-2c-0.6,1.2-1.4,2.2-2.4,3.1H438.5z M433.2,33.7v-2.8H432v2.8H433.2z M435.7,33.7v-2.8h-1.3v2.8H435.7z M437,30.9v2.8h1.2v-2.8
					H437z"/>
				<path class="st0" d="M449.9,25.7c-0.3,2.4-0.9,4.6-1.8,6c-0.6,1-1.3,1.6-2.4,1.6c-1.2,0-2.5-1.3-2.5-3.6c0-1.3,0.6-2.6,1.6-3.6
					c1.2-1.2,2.7-1.8,4.5-1.8c3.4,0,5.3,2.1,5.3,4.9c0,2.6-1.5,4.2-4.3,5.1c-0.3,0.1-0.4,0-0.6-0.2c-0.1-0.2-0.5-0.6-1-0.9
					c2.4-0.6,4.2-1.5,4.2-4.2C453.1,27.3,451.8,25.7,449.9,25.7L449.9,25.7L449.9,25.7z M445.9,27.1c-0.7,0.8-1.1,1.7-1.1,2.6
					c0,1.3,0.5,2,1,2c0.4,0,0.7-0.2,1-0.9c0.6-1.1,1.2-3.1,1.5-5C447.3,26,446.5,26.4,445.9,27.1L445.9,27.1z"/>
				<path class="st0" d="M419.5,53.4c-0.1,0-0.1,0-0.1-0.2c0-0.1,0-0.5,0-1.4c-1.1,0.2-2.5,0.5-3.6,0.7c-0.2,0-0.4,0.1-0.5,0.1
					c-0.1,0-0.1,0.1-0.2,0.1s-0.1-0.1-0.2-0.2c-0.1-0.4-0.2-0.7-0.3-1.1c0.5,0,0.9,0,1.3-0.1c0.1,0,0.2,0,0.2,0v-4.4
					c-1,0-1.3,0-1.4,0c-0.1,0-0.1,0-0.1-0.2v-0.9c0-0.1,0-0.2,0.1-0.2c0.1,0,0.5,0,1.7,0h9c1.2,0,1.6,0,1.7,0c0.1,0,0.1,0,0.1,0.2
					v0.9c0,0.1,0,0.2-0.1,0.2c-0.1,0-0.5,0-1.7,0h-4.8v4.7c0,1.1,0,1.6,0,1.7c0,0.1,0,0.2-0.1,0.2L419.5,53.4L419.5,53.4z
					 M423.5,41.1c1.4,0,1.9,0,2,0c0.1,0,0.1,0,0.1,0.2c0,0.1,0,0.4,0,1.2v1.5c0,0.8,0,1.1,0,1.2c0,0.2,0,0.2-0.1,0.2
					c-0.1,0-0.6,0-2,0h-5.1c-1.4,0-1.9,0-2,0c-0.1,0-0.1,0-0.1-0.2c0-0.1,0-0.4,0-1.2v-1.5c0-0.8,0-1.1,0-1.2c0-0.2,0-0.2,0.1-0.2
					c0.1,0,0.6,0,2,0H423.5z M419.4,47.6v-0.7h-2v0.7H419.4z M419.4,49.3v-0.7h-2v0.7H419.4z M419.4,50.2h-2v1
					c0.7-0.1,1.3-0.2,2-0.3V50.2z M417.7,42.7h6.5v-0.6h-6.5V42.7z M424.2,43.6h-6.5v0.6h6.5V43.6z M425.1,47.7c0.1,0,0.2,0,0.2-0.1
					c0.1,0,0.1-0.1,0.2-0.1c0.1,0,0.2,0,0.5,0.3c0.3,0.3,0.4,0.4,0.4,0.5c0,0.1,0,0.2-0.1,0.2c-0.1,0.1-0.2,0.2-0.4,0.6
					c-0.3,0.6-0.7,1.2-1.1,1.7c0.7,0.4,1.5,0.7,2.5,1c-0.1,0.2-0.4,0.5-0.5,0.9c-0.1,0.4-0.2,0.4-0.5,0.3c-0.9-0.3-1.7-0.7-2.4-1.2
					c-0.6,0.5-1.3,0.9-2.1,1.2c-0.1,0.1-0.2,0.1-0.3,0.1c-0.1,0-0.1-0.1-0.2-0.3c-0.1-0.3-0.3-0.6-0.5-0.8c0.9-0.3,1.6-0.6,2.3-1
					c-0.5-0.6-1-1.4-1.4-2.2c-0.2,0-0.3,0-0.4,0c-0.1,0-0.1,0-0.1-0.2v-0.8c0-0.1,0-0.2,0.1-0.2c0.1,0,0.4,0,1.5,0L425.1,47.7
					L425.1,47.7z M422.9,48.8c0.3,0.6,0.6,1,1,1.5c0.4-0.4,0.7-0.9,1-1.5H422.9z"/>
				<path class="st0" d="M430.8,45.7c-1.3,0-1.7,0-1.8,0c-0.1,0-0.1,0-0.1-0.2v-1.2c0-0.1,0-0.2,0.1-0.2c0.1,0,0.5,0,1.8,0h3.2
					c0-0.6,0.1-1.2,0.1-1.9c0-0.7,0-1.2-0.1-1.6c0.4,0,1.1,0,1.6,0.1c0.1,0,0.2,0.1,0.2,0.2c0,0.1,0,0.2-0.1,0.3
					c-0.1,0.1-0.1,0.4-0.1,1c0,0.7,0,1.3-0.1,1.9h3.6c1.3,0,1.7,0,1.8,0c0.1,0,0.1,0,0.1,0.2v1.2c0,0.2,0,0.2-0.1,0.2
					c-0.1,0-0.5,0-1.8,0h-3.4c0.9,2.8,2.8,5,5.6,6.1c-0.3,0.3-0.6,0.7-0.8,1c-0.1,0.2-0.2,0.3-0.3,0.3c-0.1,0-0.2-0.1-0.3-0.1
					c-2.2-1.2-4-3.1-5-5.7c-0.1,0.5-0.3,0.9-0.5,1.3c-1,2-2.4,3.4-4.5,4.4c-0.2,0.1-0.3,0.1-0.3,0.1c-0.1,0-0.2-0.1-0.3-0.3
					c-0.2-0.3-0.5-0.6-0.8-0.9c2.3-0.9,3.7-2.2,4.5-3.8c0.4-0.7,0.6-1.5,0.8-2.5L430.8,45.7L430.8,45.7z"/>
				<path class="st0" d="M444.8,47.9c0-0.5,0-1.2,0-1.8c-0.4,0.5-0.8,1-1.2,1.5c-0.1,0.1-0.2,0.2-0.3,0.2s-0.1-0.1-0.2-0.3
					c-0.1-0.4-0.3-0.8-0.5-1.2c1.5-1.3,2.5-2.8,3.2-4.7c0.1-0.3,0.2-0.7,0.3-1c0.5,0.1,0.9,0.3,1.4,0.5c0.2,0.1,0.2,0.1,0.2,0.2
					s0,0.2-0.1,0.2c-0.1,0.1-0.2,0.2-0.4,0.6c-0.2,0.6-0.5,1.2-0.9,1.8v7.2c0,1.4,0,2,0,2.1c0,0.1,0,0.1-0.1,0.1h-1.2
					c-0.1,0-0.2,0-0.2-0.1c0-0.1,0-0.8,0-2.1L444.8,47.9L444.8,47.9z M450.1,50.8c0,0.5,0.1,0.7,0.4,0.8c0.2,0.1,0.6,0.1,1.4,0.1
					c0.7,0,1.1-0.1,1.4-0.3c0.2-0.2,0.4-0.8,0.4-2.1c0.3,0.2,0.7,0.4,1.1,0.6c0.4,0.1,0.3,0.1,0.3,0.5c-0.1,1.4-0.3,2-0.8,2.3
					c-0.5,0.3-1.3,0.5-2.5,0.5c-1.3,0-2-0.1-2.4-0.3c-0.5-0.2-0.7-0.6-0.7-1.5v-8.8c0-0.8,0-1.2-0.1-1.6c0.6,0,1,0,1.5,0.1
					c0.2,0,0.3,0.1,0.3,0.2s0,0.2-0.1,0.3c-0.1,0.1-0.1,0.3-0.1,1v3.5c0.9-0.6,1.7-1.2,2.6-2.1c0.3-0.2,0.6-0.6,0.8-1
					c0.4,0.3,0.8,0.6,1.1,0.9c0.1,0.1,0.1,0.2,0.1,0.3s-0.1,0.2-0.2,0.2c-0.1,0.1-0.4,0.2-0.7,0.5c-1,0.9-2.3,1.9-3.7,2.7V50.8z"/>
			</g>
			<g>
				<path class="st13" d="M214.2,83.3c0,0-1,1.5-1.3,2.8s1.8,3.4,1.8,3.4l1.8-5.4L214.2,83.3L214.2,83.3z"/>
				<path class="st13" d="M230.3,47.7c0,0-0.4,3.1,0.7,4.5c0,0-4.6,6.1-8.2,5.2c-3.6-0.9-0.9-4.8-0.9-4.8L230.3,47.7z"/>
				<path class="st14" d="M227.6,136.2c0,0,0.2,1.5-0.4,3.1c-0.6,1.6-2.6,5.3-2.6,6.8c0.1,1.5,0.7,2.6,2.1,2.8
					c1.1,0.1,4.4-0.9,5.5-3.5c1.1-2.6,0.2-3.3,0.8-4.5c0.6-1.1,1.3-3.5,0.9-5.2S227.6,136.2,227.6,136.2L227.6,136.2z"/>
				<path class="st14" d="M224.1,132.1l-7.6-0.6h-0.2c0,0-0.6,1.6-2.1,2.3c-1.5,0.6-5.4,2.2-6.5,3.7c-0.9,1.2,1.1,2.9,5.2,1.9
					c3-0.7,3.3-2.2,6.8-2.3c2.4,0,3.3-0.5,4.3-1.7L224.1,132.1L224.1,132.1z"/>
				<path class="st15" d="M214.9,133.6c0,0,1.8-7.5,0.6-16c-0.9-5.8-1-21.6-0.6-34.1c0,0,1.6,2.6,5.7,4.2c4.1,1.6,4.9,3.1,4.9,3.1
					l-0.7,11.1c0,0-0.6,6.1-0.4,9.2c0.2,3.1-0.4,3-0.2,8.4c0.1,5.4-0.1,14.7-0.1,14.7S218.8,135.3,214.9,133.6L214.9,133.6z"/>
				<path class="st15" d="M234.2,121.7c-0.6-5.3-1.4-10-1.1-13.7s2-17.4,0.2-21.7l-12.7,1.5c0,0,1.7,17.5,3.8,26s2.9,25.5,2.9,25.5
					s0.2,2,2.6,2.1s4-4.4,4-4.4S234.8,127,234.2,121.7L234.2,121.7z"/>
				<path class="st16" d="M214.2,82.8c0,0-0.1,2.4,2.3,3.8c2.3,1.4,9.6,3.2,11.7,2.1c2.1-1.1,2.1-13.2,2.1-13.2l1.6-16.2l-2.9-3.7
					c0,0-4.1,1.2-5.8,0.5c-1.6-0.7-1.5-3.8-1.5-3.8s-2.6-0.2-3.9,3.3c-1.4,3.5-1.4,16-1.4,16s-0.6,8.5-0.9,9.2
					C215.1,81.7,214.3,82.8,214.2,82.8L214.2,82.8z"/>
				<path class="st17" d="M219.8,50.7c0,0-3.4-0.5-4.3,2.6c-0.5,1.6-0.4,5.4-0.1,8.7c-0.1,2.1,0,3.8,0.1,4.6
					c0.5,2.4-0.9,10.5-0.9,11.6s-0.9,1.9-1.8,3.6c-0.9,1.7,1.8,3.2,1.8,3.2c1.7-0.9,2-15.8,3.3-23.6c0.3-1.8,0.5-3.5,1.1-4.8
					c1.9-4.1,5.1-5.7,5.1-5.7L219.8,50.7L219.8,50.7z"/>
				<path class="st17" d="M235.8,87.9c-2.1-2.6-4-6.9-2.9-9.7s4.5-9.7,4.5-9.7l0.8-10.3l-5.9-4.7l-1-1c0,0,0.1,1.6-2,4.1
					c-3.5,4.1-5.1,10.5-4.8,17.7c0.3,7.2,1.2,11.5,4.4,16.2l2.9,5.2c0,0,0.6,3.6,0.8,3.9c1.5,1.7,6.4,0.1,6.8-1.3
					C239.2,98.2,237.8,90.5,235.8,87.9L235.8,87.9z"/>
				<path class="st15" d="M224.1,58.3l-1-2.1l-1.9,1.5l0.4,2c0,0-3.6,10.4-3.7,21.7l1.7,3.2l1.9-1.9c0,0,0.5-12.2,0.8-14.8
					c0.3-2.6,0.5-8,0.5-8L224.1,58.3L224.1,58.3z"/>
				<path class="st18" d="M230.8,51.7c-2.1,3.7-7.7,4.5-7.7,4.5l0.9,3.2c0,0,5.9-2.5,7.8-5.8L230.8,51.7L230.8,51.7z"/>
				<path class="st18" d="M220.7,58l2.4-1.8c0,0-0.6-2.8-0.2-4.7h-1C221.9,51.5,220.1,54.9,220.7,58L220.7,58z"/>
				<path class="st19" d="M224.6,78.2c0,0,1.9-9.1,5.2-14.8l-2-1.9l1.9-0.6l2.8-7.3l-1.7-1.9c0,0,0.1,1-0.4,1.9
					c-0.5,0.9-4.1,5-5.5,10.7C223.6,69.9,224.6,78.2,224.6,78.2L224.6,78.2z"/>
				<path class="st19" d="M216.3,76.6l-0.9-18.2l1.8-0.5l-0.7-2.2l5.6-5.1l2.2,0.7c0,0-4.9,2.8-5.8,7.7
					C217.5,64,216.3,76.6,216.3,76.6L216.3,76.6z"/>
				<g>
					<path class="st13" d="M219.5,45c0-0.6,0.3-1.3,0.5-2c0.1-0.8,0.6-2.5,2.6-4s4.9-1.8,6.9-0.7c1.9,1.1,3.2,3.4,2.9,6.1
						c-0.3,2.7-1.9,5.5-3.5,6.9c-1.6,1.4-3.3,2.1-5.1,2.3c-1.8,0.2-2.6-0.7-2.7-1.5c0,0-0.3-0.7-0.5-1.3
						C220.1,48.9,219.6,47.7,219.5,45L219.5,45z"/>
					<path class="st20" d="M229.6,37.3c-3-1.8-6.3-0.8-8,0.5c-0.6,0.5-1.2,1.1-1.9,2.5c-0.6,1.1-0.4,3.4,2.2,3.4
						c1.4,0,3.2-0.4,4.6-0.7c1.6,0.9,1.1,2.5,1.3,3.1c0.2,0.5,0.5,1.2,0.9,1.4c0.2,0.1,0.6-0.3,0.7-0.4c0.2-0.3,1.8-2.4,2.1,0
						c0.4-0.9,0.7-1.9,0.8-2.9c0.1-0.4,0.1-0.8,0.1-1.2l0,0C232.8,42.1,232.5,39,229.6,37.3L229.6,37.3z"/>
					<path class="st20" d="M227.9,46.1c0.2,0.5,0.5,1.2,0.9,1.4c0.2,0.1,0.6-0.3,0.7-0.4c0.2-0.3,1.8-2.4,2.1,0
						c0.4-0.9,0.7-1.9,0.8-2.9c0.1-0.4,0.1-0.8,0.1-1.2c-1.6,0.9-3.6,1.4-4.6,1.5C227.8,45.3,227.8,45.8,227.9,46.1L227.9,46.1z"/>
					<path class="st21" d="M229.4,49.4c0.2,0.1,0.8,0.3,1.7-0.8c0.9-1.2,0.9-2.2,0.3-2.5s-1-0.1-1.2,0.3
						C230,46.8,229.4,49.4,229.4,49.4L229.4,49.4z"/>
					<path class="st13" d="M229.4,49.4c0.2,0.1,0.8,0.3,1.7-0.8c0.9-1.2,0.9-2.2,0.3-2.5s-1-0.1-1.2,0.3
						C230,46.8,229.4,49.4,229.4,49.4L229.4,49.4z"/>
				</g>
				<g>
					<path class="st13" d="M232.2,88.2l-0.3,0.7c0,0-0.9,0.3-0.9,0.3c-0.1,0.1-2.4,1.2-2.4,1.2s1.3,3.4,3.1,5.1c0,0,2.1-3.2,2.4-3.9
						s1-1.9,1-1.9L232.2,88.2L232.2,88.2z"/>
					<path class="st17" d="M234.4,65.3c-0.9-2-0.7-6.1,1.3-6.9c2-0.8,3.2-0.8,6.2,5.2c3,6.1,2.6,10.3,2.9,11.4
						c0.4,1-0.8,3.1-1.5,4.5c-0.7,1.4-8.4,12.3-8.4,12.3s-2.3-1.7-3.7-3.1l7.1-13.6C238.4,75.1,235.8,68.6,234.4,65.3L234.4,65.3z"
						/>
					<path class="st22" d="M231.3,88.8l-0.4,0.4l3.3,3.3l0.5-0.9C234.1,91.2,232.5,89.9,231.3,88.8z"/>
				</g>
			</g>
			<g>
				<g>
					<polygon class="st13" points="79.9,64.1 87.7,80.5 84.6,83.9 73.8,66.3 					"/>
					<path class="st20" d="M59.6,147.4l0.2-7.9c-0.2-0.8-1.2-0.9-2-1.6c-0.4-0.3-0.9-0.4-1.2-0.1l-0.8,0.6c-1.1,0.8-1.2,1-0.9,2
						l1.5,5.9c0.2,1,1.1,2.1,2,2.4l0.2,0.1C59.4,149,59.9,148.4,59.6,147.4L59.6,147.4z"/>
					<path class="st13" d="M56.9,138.3c0,0,0.8,4.9,2,5.2c0,0,0.8,0.2,0.8-1.1c0-1.3,0.4-3.8,0.4-3.8L56.9,138.3L56.9,138.3z"/>
					<path class="st20" d="M61.7,45.8c0,0-5.8,1.1-7.2,3.4c-1.4,2.2,1.1,7.7,1.1,7.7V54c0,0-3.4-5.5,5.9-6.7
						C67.7,46.5,61.7,45.8,61.7,45.8L61.7,45.8z"/>
					<path class="st20" d="M61.5,46c0,0-9.6,6.2-6,12.2c3.6,6,13.2,8.6,13.2,8.6l3.9-20.2L61.5,46L61.5,46z"/>
					<path class="st20" d="M76.9,144.6l-5.9-4.2c-0.8-0.3-2.4-0.4-3.4-0.1c-0.5,0.1-0.8,0.5-0.8,0.9l0.1,0.9c0,1.3,0.2,1.5,1.2,1.9
						l5.9,2.4c1,0.4,2.4,0.4,3.2-0.1l0.2-0.1C78.1,145.7,77.9,145,76.9,144.6L76.9,144.6z"/>
					<path class="st13" d="M67.3,140.6c0.1,1.8,3.8,2.5,3.9,0.6c4.5-17.3,5.1-33.2,6-51.5l-11.4-9.6c0.9,15.9,2.4,29.3,2.1,43.1
						c0,1.8-0.9,3.7-1,5.4C66.6,132.1,67.6,137.1,67.3,140.6L67.3,140.6z"/>
					<path class="st13" d="M57,137.6c-0.4,1.6,1.9,3.2,2.9,1.7c3.1-6.4,5.3-11.2,7.4-16.1c1.6-3.6,1.9-8,2.6-12.3
						c1.6-10.4-9.2-13-8.6-2.5c0.2,4.3,0.1,8.7-0.4,13c-0.3,2.1-1.5,2-2.1,5.5C58,130.6,57.9,132.6,57,137.6z"/>
					<path class="st23" d="M83.9,70.7l-7.2-12.8c0,0-9.9,12.4-1,16l4.2,4.3l5.6-2.8L83.9,70.7L83.9,70.7z"/>
					<path class="st15" d="M61.5,82.2c-5,0.1,0,19.8-2,34c0,0,10.4,9.6,19.2,1.2l-0.3-32.6L61.5,82.2L61.5,82.2z"/>
					<path class="st23" d="M78.1,83.8c0.3-3.5-1.4,3.5-1.3-0.6c0-1.6,0.8-6,1.2-8.9c0.3-2.7,3.2-4.4,2.6-7.7
						c-0.1-1.8-3.3-5.2-3.4-6.5c-0.2-2.1-0.4-4-4.8-6.1l-1.9,0.4c-0.9,0.2-1.8,0.5-2.7,0.9c-9,4.2-11,4.4-10.4,9.7
						c0.1,2.7,1.7,0.6,2.2,2.4c0.9,3.5,4.6,7,3.3,13c-0.3,1.2-1.2,2.1-0.1,2.9C67.5,86.8,76.5,87.5,78.1,83.8L78.1,83.8z"/>
					<path class="st24" d="M78.4,83.8C78.4,83.9,78.4,83.8,78.4,83.8L78.4,83.8z"/>
					<path class="st13" d="M88.3,86.2l-1.7,1c-0.8,0.5-1.9,0.4-2.4-0.1l-0.3-0.3c-0.5-0.5-0.2-1.3,0.7-1.8l1.7-1
						c0.8-0.5,1.9-0.4,2.4,0.1l0.3,0.3C89.4,84.9,89.1,85.7,88.3,86.2z"/>
					<path class="st25" d="M70,86.1l-0.1-0.4l0.6,0.2l0.1-0.2l13.5-6.9c0.2-0.1,0.5-0.1,0.7,0l6.7,2.8v-0.1l1.2,0.4l0.1,0.4l0,0
						c0,0,0,0.1-0.1,0.1l-14,7.2c-0.2,0.1-0.5,0.1-0.7,0l-7.7-3.3C70.1,86.2,70,86.1,70,86.1L70,86.1L70,86.1z"/>
					<path class="st26" d="M78.6,89.2l14-7.2c0.2-0.1,0.1-0.2-0.1-0.3l-7.7-3.3c-0.2-0.1-0.5-0.1-0.7,0l-14,7.2
						c-0.2,0.1-0.1,0.2,0.1,0.3l7.7,3.3C78.1,89.2,78.4,89.3,78.6,89.2z"/>
					<path class="st25" d="M76.8,84.7l3.4-1.7c0,0,0-0.1,0-0.1L78.3,82c-0.1,0-0.1,0-0.2,0l-3.4,1.7c0,0,0,0.1,0,0.1l1.9,0.8
						C76.7,84.7,76.8,84.7,76.8,84.7z"/>
					<path class="st13" d="M70.8,86.1c-5-0.2-9.5-1.6-13.6-3.9c-1.1-0.6-1.8-1.8-1.8-3c-0.1-2.8,0-7.8,0.9-8.6l4.3,5l-0.2,2.8
						c4.7,2.1,7.2,4.6,10.1,5.4L70.8,86.1L70.8,86.1z"/>
					<path class="st27" d="M62.9,57.5c0,0,3.3,7.9,8.1,5.9c4.8-2.1,1.3-9.2,1.3-9.2S67.3,55.2,62.9,57.5L62.9,57.5z"/>
					<path class="st13" d="M68.5,59l0.3,0.1c1.1,0.2,2.1-0.4,2.2-1.5l0.8-5.7c0.1-1-0.6-2-1.7-2.2l-0.3-0.1
						c-1.1-0.2-2.1,0.4-2.2,1.5l-1.6,5.3C65.8,57.4,67.4,58.8,68.5,59L68.5,59z"/>
					<path class="st28" d="M79,81.6c0.1-0.3,0.4-0.7,0.7-0.8l14.8-7.4c0.1-0.1,0.2-0.1,0.3-0.1l0,0l0,0c0,0,0.1,0,0.1,0l0.5,0.4H95
						l-1.4,7.1c-0.1,0.3-0.4,0.7-0.7,0.8l-14,7l-0.4,0.4l-0.1,0.1c-0.3,0.1-1-0.3-1-0.3L79,81.6L79,81.6z"/>
					<path class="st28" d="M79.6,78.8c0.1-0.3,0.4-0.7,0.7-0.8l14.8-7.4c0.1-0.1,0.2-0.1,0.3-0.1l0,0l0,0c0,0,0.1,0,0.1,0l0.5,0.4
						h-0.4l-1.4,7.1c-0.1,0.3-0.4,0.7-0.7,0.8l-14,7L79,86.2l-0.1,0.1c-0.3,0.1-1-0.3-1-0.3L79.6,78.8L79.6,78.8z"/>
					<path class="st29" d="M95.6,70.9l-14.8,7.4c-0.3,0.2-0.6,0.5-0.7,0.8l-1.4,7.2c0,0,0,0,0,0l-0.6,2.9c-0.1,0.3,0.2,0.4,0.5,0.3
						L93.4,82c0.3-0.2,0.6-0.5,0.7-0.8l1.4-7.2c0,0,0,0,0,0l0.6-2.9C96.1,70.8,95.9,70.7,95.6,70.9z"/>
					<path class="st28" d="M86.9,80.5c0,0.5,0.5,0.7,1.1,0.4c0.6-0.3,1.1-1,1.2-1.5c0-0.5-0.5-0.7-1.1-0.4
						C87.5,79.3,87,80,86.9,80.5z"/>
					<path class="st13" d="M68.3,141.9c0,0,4.2,1.7,5,1.2c0.7-0.4-2.5-2.5-2.5-2.5L68.3,141.9L68.3,141.9z"/>
					<path class="st23" d="M54.5,75c0-6.1,1.3-10.8,2.4-13.6c0.5-1.2,1.7-1.5,3.1-2.5c0.2-0.2,0.1,1.2,0.4,1.5l0,0
						c1.6,1.2,2.4,3.3,2.1,5.4l-1.6,12.4l7.5,4.4c0,0,0.8,2.8-1.2,4.4c0,0-11.3-4.4-12-5.4S54.5,75,54.5,75L54.5,75z"/>
					<path class="st13" d="M69.3,84.6L69.3,84.6c-0.2,0.9,0.4,1.7,1.3,1.9l3.1,0.5c0.9,0.2,1.7-0.4,1.9-1.3l0,0
						c0.2-0.9-0.4-1.7-1.3-1.9l-3.1-0.5C70.3,83.1,69.5,83.7,69.3,84.6z"/>
					<path class="st13" d="M66.2,43.1c0.9-1.5,2.3-1.7,3.6-0.9c1.3-0.5,2.8,0.2,3.9,2.2c1.6,2.7,1.4,6.4,0.4,8.7
						c-0.5,1.3-1.2,2.2-4.2,1.6c-2.1-0.4-3.2-1-4.4-3C64,49.1,64.9,45.3,66.2,43.1L66.2,43.1z"/>
					<path class="st20" d="M73.4,45.4c-3.6,5.6-5.8,4-5.8,4.9c0,0-0.7,3-0.7,3c-0.4,1.8-2,0.4-3.8,0.9l0,0c0,0-5.6-6.5,1.4-11.7
						c4.7-3.5,11.2,0,10.5,4.6L73.4,45.4L73.4,45.4z"/>
					
						<ellipse transform="matrix(0.5161 -0.8565 0.8565 0.5161 -10.8656 81.7401)" class="st13" cx="66.9" cy="50.5" rx="1.3" ry="1.4"/>
				</g>
				<path class="st30" d="M37.1,68.7c0.7,0.2,1.4-0.1,2-0.1c2-0.2,3.5,0,4.7,0.7c0.3,0.2-0.8,3.3-2.2,4.3c-0.1,0.1-0.2,0-0.2-0.1
					l-1.3-0.4L36.6,72L37.1,68.7L37.1,68.7z"/>
				<path class="st30" d="M38.3,68.7c1.3-0.2,2.1-0.8,2.8-0.8c0.7,0,1.8,0.6,3.1,0.7c-0.2,1.3-2,0.5-2.6,0.6
					c-0.6,0.1-0.6,0.8-1.2,0.8C39.6,70.1,38.4,69.7,38.3,68.7L38.3,68.7z"/>
				<path class="st31" d="M24,71.3c5.6,1,8.4,0.7,14,1.2c-0.6-2.2,0.5-4.1,1.4-4.3c-4.8-1-10.6-2.6-15.5-2.6
					C24,65.7,24,71.3,24,71.3z"/>
				<path class="st32" d="M23,71.4c5.6,1,8.6,0.7,14.3,1.2c-0.8-2.3,0.4-4.6,1.4-4.8c-4.8-1-10.6-2.6-15.5-2.6L23,71.4L23,71.4z"/>
				<path class="st33" d="M11.2,148.9c0.7-0.1,1.3-0.1,2-0.4c0.2-0.1,0.4-0.8,0.4-1.4c0-1.3-0.1-1.2-0.6-3.2
					c-0.2-0.7-0.3-1.4-0.6-2.2c-0.3-1-0.7-1.9-0.7-2.9l-3.8-0.1l-1.2-0.1c-0.3,1-0.7,1.8-0.6,2.5c0,0.7,0.1,1.3,0.2,2.2
					C6.7,147.1,9.9,149.1,11.2,148.9L11.2,148.9z"/>
				<path class="st33" d="M29.2,140.3c1.4,0,1-1.6-0.2-2.4c-2.5-1.8-4.2-3-5.4-4.6c-0.6-0.8-0.7-1.6-1.1-3c-2.1-0.1-4.2-0.2-6.3-0.3
					c-0.6,1.8-1,1.6-0.9,3.9C15.5,136.6,25,140.2,29.2,140.3L29.2,140.3z"/>
				<g>
					<g>
						<path class="st34" d="M14.6,91.6c-0.2-1.9-0.4-3.8-0.3-5.4c1.7-0.7,3.5-1.3,5.2-2.1l-0.1-0.1c1.8-0.9,3.4-2.2,5.5-3.4
							c0.9,2.8,1.2,4,1.1,6.3c-0.1,3-0.5,6-1,9c-0.3,4.6-0.7,9.4-1,12.5c-0.8,8-0.7,15.9-1.1,23.9c-1.1,0.9-5.8,1.7-7.4-0.6
							L14.6,91.6L14.6,91.6z"/>
						<path class="st34" d="M7.5,85.9c0.2-0.4,0.4-0.7,0.6-0.9l4.9-0.4l5.9-0.7c0.4,1.9,0.5,4.4,0,7c0,0.1-0.1,0.2-0.1,0.3
							c-0.1,0.4-0.1,0.8-0.2,1.2c-0.1,0.4-1,1.5-1.7,2.4c-0.6,6.2-1.8,14.7-2.5,19.1c-1.2,7.9-0.5,17.4-1.2,25.4
							c-1.1,1.7-6.1,1.9-7.7-0.2C5.5,139.1,7.5,85.9,7.5,85.9z"/>
					</g>
					<g>
						<path class="st34" d="M14.6,91.6c-0.2-1.9-0.4-3.8-0.3-5.4c1.7-0.7,3.5-1.3,5.2-2.1l-0.1-0.1c1.8-0.9,3.4-2.2,5.5-3.4
							c0.9,2.8,1.2,4,1.1,6.3c-0.1,3-0.5,6-1,9c-0.3,4.6-0.7,9.4-1,12.5c-0.8,8-0.7,15.9-1.1,23.9c-1.1,0.9-5.8,1.7-7.4-0.6
							L14.6,91.6L14.6,91.6z"/>
						<path class="st34" d="M7.5,85.9c0.2-0.4,0.4-0.7,0.6-0.9l4.9-0.4l5.9-0.7c0.4,1.9,0.5,4.4,0,7c0,0.1-0.1,0.2-0.1,0.3
							c-0.1,0.4-0.1,0.8-0.2,1.2c-0.1,0.4-1,1.5-1.7,2.4c-0.6,6.2-1.8,14.7-2.5,19.1c-1.2,7.9-0.5,17.4-1.2,25.4
							c-1.1,1.7-6.1,1.9-7.7-0.2C5.5,139.1,7.5,85.9,7.5,85.9z"/>
					</g>
				</g>
				<path class="st32" d="M21.1,47.4c2-0.1,2.9,0.3,3.9,1.8c1.8,2.7,2.1,8.5,2,13.7c-0.1,3-0.5,5.5-0.6,9.2c0,4.4,1.3,12.1,1.1,16.8
					c-0.4,0.9-3.2,2.3-3.6,2.2c0.4-4.6,0.5-10.9,0.3-17.2c-0.2-6.2-0.6-12.5-1.8-17.2c-1.7-6.9-4.6-7.6-4.3-8.6
					C18.1,47.9,21,47.4,21.1,47.4L21.1,47.4z"/>
				<path class="st35" d="M13.1,74.9c0.1,1.1,0.1,2,0.1,2.9c-2.8-2.6-5.5-5.9-8-9.5c-1.3-3.6-2.4-7.2-2.4-9.7
					C2.7,58.7,13.1,74.9,13.1,74.9z"/>
				<path class="st36" d="M25,80.7c0,0.1-0.1,0.3-0.2,0.4c-1.8,2.5-13.2,6.3-15.6,6.2C11.2,70.8-6,56.8,12.4,51.4l5.3,2.9l1.9-0.3
					l0.2-2.3c2.6,2.6,3.8,5.9,4.2,10.7C24.7,68.5,23.4,74,25,80.7z"/>
				<path class="st32" d="M6.6,53.5c1-0.5,3-1.8,5.2-3c-1.8,2.2,2.6,7.5,4.7,14.1c1.2,3.9,3,17.3-0.7,29.4C9,96.3,5.3,92.7,4.6,92.1
					c0.9-7.2,3.3-8.2,3.6-12.7c0.2-4.1-5.6-15.1-5.6-20.7C2.6,56.1,4.8,54.6,6.6,53.5L6.6,53.5z"/>
				<path class="st37" d="M19.6,48.8c1.9,0.9,2.5,1.2,3.7,3.2l-1.1,0.8l1.6,0.7c0.6,5.7,1.1,12.1,0.5,17.9
					C24,65.6,23,59.8,21.6,55.1c-0.5-1.8-1.3-2.6-2.5-4.4C18.9,50.4,19.3,48.6,19.6,48.8L19.6,48.8z"/>
				<path class="st37" d="M11.8,49.8c-0.6,0.8-1.1,1.5-1.3,2c-0.7,1.8-0.6,4.5,0.2,7.6l1.8-0.7l-0.9,1.9c3.6,4.6,5.6,11.6,5.8,18.7
					C19.8,60.9,11.2,56.3,11.8,49.8L11.8,49.8z"/>
				<path class="st38" d="M20.7,74.4c-0.5-3.6-0.9-11.9-1.9-15.5c0.1-0.7,0.3-1.2,0.4-1.9c-1.1-1-1.2-1-1.4-2.2
					c0.8-0.7,1.2-0.8,2.3-0.7c0.3,0.2,0.4,1.1,0,2.5c0.3,0.1,0.7,0.2,1.2,0.5c1,7,2.4,10.4,1.9,17.1l-0.7,1.6L20.7,74.4L20.7,74.4z"
					/>
				<path class="st39" d="M19,54.1c0.1-0.3,0.2-1,0.3-1.6c0.1-0.5,0.3-1,0.5-1.3c0.7,0.1,1,2.3,1.7,3.6C20.5,54.1,20.1,54.1,19,54.1
					L19,54.1z"/>
				<path class="st39" d="M12.2,49.5c-0.1,2.4,4.3,4,6.8,4.6c-0.6,0.8-1.4,1.7-1.4,2.5c-1.8-0.5-4.9-1.3-6.1-3.6
					C10.7,51.3,11.4,50.1,12.2,49.5L12.2,49.5z"/>
				<path class="st13" d="M19.5,52c0.1-0.2,0.2-0.5,0.3-0.7c0.3-0.7,0.3-2.2,0.7-3.8l-6.4-2.8L12.7,44c0.5,2.4,0.2,3.9-0.5,5.6
					c-0.1,2.3,4.3,3.9,6.8,4.5C19.2,53.5,19.3,52.7,19.5,52L19.5,52z"/>
				<path class="st13" d="M23,41.3c0-0.3-0.4-1.5-0.5-1.8c-0.8-3-2.8-5.3-6.4-5.4c-1.9,0-3.4,0.6-4.6,2c-1.3,1.6-2.1,4-1.4,6.1
					c0.3,0.8,0.9,1.5,2.5,2.2c0.9,2.1,1,3.8,2.7,4.6c0.8,0.4,2.7,0.7,3.6,1c1.1,0.3,1.5,0.2,1.8,0.1C22.4,49.3,23.6,44.8,23,41.3z"
					/>
				<path class="st40" d="M20.9,37.7c0.4,0,0.9-0.2,1.2,0.6c-0.2-1.4-0.6-1.5-1.5-1.6L20.9,37.7z"/>
				<path class="st40" d="M16.4,39.2c-2.6-0.3-5.9-2.2-6.5-3.3c-1.4,2.7-1.1,6.8,1.1,9c0.6,1.2,1.2,2.3,1.8,3.5
					c0.5-1.8,0.7-3.3,0.8-5l0.1-0.2c0.1,0.3,0.5,1.1,0.6,1.4c0.2,0,0.4-0.2,0.6-0.4C14.5,41.9,15.1,40.1,16.4,39.2z"/>
				<path class="st40" d="M16,39.4c2.7-0.2,6.2-1.5,7.6-3.5c-2.4,0.4-5.2-3.3-9.1-2.9c-2.2,0.2-4.6,1.3-4.8,3.3
					C10.5,37.2,13.8,39.6,16,39.4L16,39.4z"/>
				<path class="st13" d="M12.7,42.5c-1.4-0.3-1.3,1.3-1,2.2c0.2,0.7,0.8,0.5,1,1.1c0.3,0.6,0.8,0.8,1.2,0.8c0.9-0.1,0.2-1.3,0-1.8
					C14,43.9,13.6,42.7,12.7,42.5L12.7,42.5z"/>
				<path class="st32" d="M2.7,57.1c-1.5,4-1.7,12.1-1.3,17.4c0.2,2.7,0.5,4.8,2.6,5.4c2,0.6,3.8-1.5,4.2-3.6
					c0.5-2.5,0.8-5.6,1.5-11C10.5,59.6,4.6,51.8,2.7,57.1L2.7,57.1z"/>
				<g>
					<path class="st32" d="M20.1,80.9l-0.8-1.2l0-2.4c1-0.9,1-1.6,1.5-1.4C22.6,76.3,22.5,81.6,20.1,80.9z"/>
					<g>
						<path class="st13" d="M19.8,76.1c2.7,0.2,6-1.1,7.5-0.1c1.3,0.8,0.7,2.8,0,3.7c-0.6,0.8-3,0.9-4.5,1.1c-1.4,0.2-2.4-1-3.3-0.8
							C18.6,78.9,19.4,77.3,19.8,76.1L19.8,76.1z"/>
						<path class="st13" d="M26.8,75.8c1.3,0,3.3-0.1,4.6-0.1c0.9,0,0.6,1.3-0.2,1.4c-0.8,0.1-2.9,0.3-2.9,0.3
							C27.4,77.3,26.5,76.8,26.8,75.8z"/>
					</g>
					<path class="st32" d="M1.9,76.5c0.6,1.4,0.6,2.4,2.1,3.2c0.6,0.3,1.4,0.4,2.4,0.5c3.6,0.4,8.7,0.9,13.9,0.8
						c-0.3-0.5-0.6-1.8-0.5-3.1c0-0.8,0.3-1.6,1-2.1c-4.2-0.8-9-0.8-13.1-1.4c-1-0.1-0.8,0-1.6-0.1L1.9,76.5L1.9,76.5z"/>
				</g>
				<polygon class="st41" points="47.1,55.5 38.7,60.1 28.3,80 30.5,81.2 37.2,74.8 				"/>
				<polygon class="st42" points="47.1,55.5 38.7,60.1 41.2,61.5 49.3,56.8 				"/>
				<path class="st13" d="M42.3,69.4c1.4-0.3,1.4-0.6,1.5-0.1c0.1,0.7-0.9,3.3-2.2,4.3c0,0-1,0.2-1.4,0.2c-0.4,0-0.4-0.2-0.2-0.8
					l1-2.5C41.3,69.7,41.5,69.6,42.3,69.4L42.3,69.4z"/>
				<path class="st43" d="M38.6,60c2.3-1.2,4.2-1,4.7,0.4c1,2.4-1.1,7.5-2.2,10.3l8.4-4.4c2.5-6.5,3.8-13.3-2.8-10.7
					C46.7,55.6,38.6,60,38.6,60z"/>
			</g>
			<g>
				<path class="st0" d="M149.1,206.8c0,1.7-1.4,3.1-3.1,3.1c-1.7,0-3.1-1.4-3.1-3.1c0-1.7,1.4-3.1,3.1-3.1
					C147.7,203.7,149.1,205.1,149.1,206.8z"/>
				<path d="M163.7,211C163.7,211.1,163.7,211.1,163.7,211c-0.2,0.1-0.5,0.1-1.7,0.1h-7c-1.1,0-1.5,0-1.6,0c-0.1,0-0.1,0-0.1-0.1
					v-0.6c0-0.1,0-0.1,0.1-0.1c0.1,0,0.4,0,1.6,0h7c1.1,0,1.5,0,1.6,0c0.1,0,0.1,0,0.1,0.1V211z M162.7,203.2
					C162.7,203.3,162.7,203.3,162.7,203.2c-0.2,0.1-0.6,0.1-1.8,0.1h-4.8c-1.2,0-1.6,0-1.7,0c-0.1,0-0.1,0-0.1-0.1v-0.6
					c0-0.1,0-0.1,0.1-0.1c0.1,0,0.5,0,1.7,0h4.8c1.2,0,1.6,0,1.7,0c0.1,0,0.1,0,0.1,0.1V203.2z M162,206.9
					C162,207,162,207,162,206.9c-0.2,0.1-0.6,0.1-1.7,0.1h-3.4c-1.2,0-1.6,0-1.6,0c-0.1,0-0.1,0-0.1-0.1v-0.6c0-0.1,0-0.1,0.1-0.1
					c0.1,0,0.5,0,1.6,0h3.4c1.2,0,1.6,0,1.6,0c0.1,0,0.1,0,0.1,0.1V206.9z"/>
				<path d="M176.5,208.3C176.5,208.3,176.5,208.4,176.5,208.3c-0.2,0.1-0.5,0.1-1.6,0.1h-1.3v1.6c0,1.4,0,1.9,0,2
					c0,0.1,0,0.1-0.1,0.1h-0.6c-0.1,0-0.1,0-0.1-0.1c0-0.1,0-0.6,0-2v-1.6h-3.1c-0.1,0.3-0.1,0.7-0.3,1c-0.4,1.2-1,1.9-2,2.7
					c-0.1,0.1-0.1,0.1-0.2,0.1c-0.1,0-0.1,0-0.2-0.2c-0.1-0.1-0.3-0.3-0.5-0.4c1.2-0.6,1.8-1.4,2.2-2.6c0.1-0.2,0.1-0.4,0.2-0.7
					h-1.3c-1.1,0-1.5,0-1.5,0c-0.1,0-0.1,0-0.1-0.1v-0.6c0-0.1,0-0.1,0.1-0.1c0.1,0,0.4,0,1.5,0h1.4c0.1-0.5,0.1-1.1,0.1-1.8v-1
					h-0.9c-1.2,0-1.6,0-1.6,0c-0.1,0-0.1,0-0.1-0.1v-0.6c0-0.1,0-0.1,0.1-0.1c0.1,0,0.5,0,1.6,0h0.9v-0.7c0-0.7,0-1.3-0.1-1.8
					c0.3,0,0.6,0,0.8,0.1c0.1,0,0.2,0,0.2,0.1c0,0.1,0,0.1-0.1,0.2c0,0.2-0.1,0.4-0.1,1.4v0.7h3v-0.9c0-0.9,0-1.2-0.1-1.6
					c0.3,0,0.6,0,0.8,0.1c0.1,0,0.1,0,0.1,0.1c0,0.1,0,0.1-0.1,0.2c0,0.1-0.1,0.4-0.1,1.2v0.9h0.9c1.2,0,1.6,0,1.6,0
					c0.1,0,0.1,0,0.1,0.1v0.6c0,0.1,0,0.1-0.1,0.1c-0.1,0-0.5,0-1.6,0h-0.9v2.8h1.3c1.1,0,1.5,0,1.5,0c0.1,0,0.1,0,0.1,0.1V208.3z
					 M172.8,204.8h-3v1c0,0.7,0,1.3-0.1,1.8h3V204.8z"/>
				<path d="M189.2,203C189.2,203.1,189.1,203.1,189.2,203c-0.2,0.1-0.5,0.1-1.7,0.1h-2.7c-0.2,0.4-0.4,0.8-0.6,1.1v6
					c0,1.2,0,1.7,0,1.7c0,0.1,0,0.1-0.1,0.1h-0.6c-0.1,0-0.1,0-0.1-0.1c0-0.1,0-0.6,0-1.7v-4.9c-1.1,1.4-2.5,2.6-4.2,3.6
					c-0.1,0-0.1,0.1-0.2,0.1c0,0-0.1,0-0.2-0.2c-0.1-0.2-0.2-0.3-0.4-0.4c2.4-1.2,4.4-3,5.5-5.3h-3.5c-1.1,0-1.5,0-1.6,0
					c-0.1,0-0.1,0-0.1-0.1v-0.6c0-0.1,0-0.1,0.1-0.1c0.1,0,0.4,0,1.6,0h7c1.1,0,1.5,0,1.6,0c0.1,0,0.1,0,0.1,0.1V203z M185.4,205.1
					c0.1-0.1,0.1-0.1,0.2,0c1,1.4,2.6,2.5,4,3.1c-0.1,0.1-0.3,0.3-0.4,0.5c-0.1,0.1-0.1,0.2-0.2,0.2c0,0-0.1,0-0.2-0.1
					c-1.5-0.8-2.8-1.9-3.8-3.3c-0.1-0.1,0-0.1,0.1-0.2L185.4,205.1z"/>
				<path d="M197.1,204.1C197.1,204.2,197.1,204.2,197.1,204.1c-0.1,0.1-0.5,0.1-1.6,0.1h-0.8v0.8h0.6c1,0,1.4,0,1.4,0
					c0.1,0,0.1,0,0.1,0.1c0,0.1,0,0.3,0,1v1.2c0,0.7,0,0.9,0,1c0,0.1,0,0.1-0.1,0.1c-0.1,0-0.3,0-1.4,0h-0.6v0.8h0.6
					c1.1,0,1.4,0,1.5,0c0.1,0,0.1,0,0.1,0.1v0.4c0,0.1,0,0.1-0.1,0.1c-0.1,0-0.4,0-1.5,0h-0.6v0.9c0.7-0.1,1.5-0.2,2.2-0.4
					c0,0.1-0.1,0.3-0.1,0.4c0,0.3,0,0.2-0.3,0.3c-1.4,0.3-2.8,0.5-4.3,0.6c-0.2,0-0.4,0.1-0.5,0.1s-0.1,0.1-0.1,0.1
					c-0.1,0-0.1,0-0.1-0.1c0-0.2-0.1-0.4-0.2-0.7c0.4,0,0.8,0,1.2,0c0.4,0,0.9-0.1,1.5-0.1v-0.9h-0.8c-1.1,0-1.4,0-1.5,0
					c-0.1,0-0.1,0-0.1-0.1v-0.4c0-0.1,0-0.1,0.1-0.1c0.1,0,0.4,0,1.5,0h0.8v-0.8h-0.6c-1,0-1.4,0-1.4,0c-0.1,0-0.1,0-0.1-0.1
					c0-0.1,0-0.3,0-1v-1.2c0-0.7,0-0.9,0-1c0-0.1,0-0.1,0.1-0.1c0.1,0,0.4,0,1.4,0h0.6v-0.8h-1c-1.1,0-1.5,0-1.5,0
					c-0.1,0-0.1,0-0.1-0.1v-0.4c0-0.1,0-0.1,0.1-0.1c0.1,0,0.4,0,1.5,0h1v-0.8c-0.6,0.1-1.2,0.2-1.8,0.2c-0.2,0-0.2,0-0.3-0.1
					c-0.1-0.2-0.2-0.3-0.3-0.4c1.8-0.1,2.9-0.3,4.1-0.6c0.2-0.1,0.4-0.1,0.6-0.2c0.2,0.1,0.3,0.3,0.5,0.4c0.1,0.1,0.1,0.1,0.1,0.2
					c0,0.1-0.1,0.1-0.2,0.1c-0.1,0-0.3,0-0.5,0.1c-0.5,0.1-1,0.2-1.5,0.3v0.9h0.8c1.1,0,1.5,0,1.5,0c0.1,0,0.1,0,0.1,0.1V204.1z
					 M194.1,205.5h-1.5v0.9h1.5V205.5z M194.1,206.9h-1.5v0.9h1.5V206.9z M196.2,205.5h-1.5v0.9h1.5V205.5z M196.2,206.9h-1.5v0.9
					h1.5V206.9z M200.2,204.2c0.9,0,1.2,0,1.3,0c0.1,0,0.1,0,0.1,0.1c0,0.4,0,0.7,0,1.1c0,1.9-0.1,3.9-0.3,5.3
					c-0.1,0.8-0.6,1.2-1.3,1.2c-0.3,0-0.6,0-0.9,0c-0.2,0-0.2-0.1-0.2-0.2c0-0.2-0.1-0.4-0.2-0.6c0.4,0.1,0.8,0.1,1.2,0.1
					c0.4,0,0.6-0.2,0.7-0.8c0.2-1.3,0.3-3.3,0.3-5.5h-1.4c0,1.2-0.2,2.4-0.4,3.4c-0.4,1.5-1,2.7-2.3,3.7c-0.1,0.1-0.1,0.1-0.2,0.1
					c0,0-0.1,0-0.2-0.1c-0.1-0.1-0.3-0.3-0.5-0.3c1.4-0.9,2-2.1,2.4-3.6c0.2-0.8,0.3-1.9,0.4-3.1h-0.1c-0.9,0-1.2,0-1.3,0
					c-0.1,0-0.1,0-0.1-0.1v-0.5c0-0.1,0-0.1,0.1-0.1c0.1,0,0.3,0,1.3,0h0.1c0-0.5,0-0.9,0-1.4c0-0.7,0-1-0.1-1.5
					c0.3,0,0.5,0,0.8,0.1c0.1,0,0.1,0.1,0.1,0.1c0,0.1,0,0.1-0.1,0.3c0,0.1-0.1,0.5-0.1,1.1c0,0.4,0,0.9,0,1.3H200.2z"/>
				<path d="M214.6,205.3C214.6,205.3,214.6,205.4,214.6,205.3c-0.2,0.1-0.6,0.1-1.7,0.1h-7.1v0.9c0,0.9-0.1,2-0.2,3
					c-0.1,0.9-0.4,1.8-0.9,2.7c-0.1,0.1-0.1,0.1-0.1,0.1s-0.1,0-0.1-0.1c-0.1-0.2-0.3-0.3-0.5-0.3c0.6-0.8,0.9-1.7,1-2.6
					c0.1-0.9,0.2-1.9,0.2-2.8c0-1,0-1.4,0-1.4c0-0.1,0-0.1,0.1-0.1c0.1,0,0.5,0,1.7,0h0.9c-0.1-0.4-0.3-0.8-0.5-1.1
					c0-0.1,0-0.1,0.1-0.2l0.3-0.1c0.1,0,0.1,0,0.2,0c0.2,0.3,0.5,0.9,0.6,1.3h2.3c0.2-0.3,0.3-0.6,0.5-0.9c0.1-0.2,0.1-0.3,0.2-0.5
					c0.2,0.1,0.5,0.1,0.7,0.2c0.1,0,0.1,0.1,0.1,0.1c0,0.1,0,0.1-0.1,0.2c-0.1,0-0.1,0.1-0.2,0.3c-0.1,0.2-0.2,0.4-0.4,0.7h1.4
					c1.2,0,1.6,0,1.7,0s0.1,0,0.1,0.1V205.3z M214.2,203.1C214.2,203.2,214.2,203.2,214.2,203.1c-0.2,0.1-0.6,0.1-1.8,0.1h-5.8
					c-1.2,0-1.6,0-1.7,0c-0.1,0-0.1,0-0.1-0.1v-0.5c0-0.1,0-0.1,0.1-0.1c0.1,0,0.5,0,1.7,0h2.5v-0.2c0-0.5,0-0.8-0.1-1.1
					c0.3,0,0.6,0,0.8,0.1c0.1,0,0.1,0,0.1,0.1c0,0.1,0,0.1-0.1,0.2c0,0.1,0,0.3,0,0.7v0.2h2.5c1.2,0,1.6,0,1.7,0
					c0.1,0,0.1,0,0.1,0.1V203.1z M214.6,211.7C214.6,211.8,214.6,211.8,214.6,211.7c-0.2,0.1-0.6,0.1-1.8,0.1h-5.2
					c-1.2,0-1.6,0-1.7,0c-0.1,0-0.1,0-0.1-0.1v-0.5c0-0.1,0-0.1,0.1-0.1c0.1,0,0.5,0,1.7,0h2.2v-1.6H209c-1.1,0-1.5,0-1.6,0
					c-0.1,0-0.1,0-0.1-0.1V209c0-0.1,0-0.1,0.1-0.1c0.1,0,0.4,0,1.6,0h0.9v-1.4h-2.3c-0.3,0.5-0.6,0.9-1,1.4c0,0.1-0.1,0.1-0.1,0.1
					c0,0-0.1,0-0.2-0.1c-0.1-0.1-0.2-0.2-0.4-0.3c0.7-0.7,1.2-1.5,1.5-2.4c0.1-0.2,0.1-0.4,0.1-0.6c0.2,0,0.5,0.1,0.7,0.2
					c0.1,0,0.1,0.1,0.1,0.1c0,0.1,0,0.1-0.1,0.1c-0.1,0.1-0.1,0.2-0.2,0.3c-0.1,0.2-0.1,0.3-0.2,0.5h1.9v-0.2c0-0.6,0-0.7-0.1-1.1
					c0.3,0,0.5,0,0.8,0.1c0.1,0,0.2,0.1,0.2,0.1c0,0.1,0,0.2-0.1,0.2c0,0.1-0.1,0.3-0.1,0.8v0.2h1.5c1.2,0,1.5,0,1.6,0
					c0.1,0,0.1,0,0.1,0.1v0.5c0,0.1,0,0.1-0.1,0.1c-0.1,0-0.4,0-1.6,0h-1.5v1.4h1.1c1.1,0,1.5,0,1.6,0c0.1,0,0.1,0,0.1,0.1v0.5
					c0,0.1,0,0.1-0.1,0.1c-0.1,0-0.4,0-1.6,0h-1.1v1.6h2.3c1.2,0,1.6,0,1.7,0c0.1,0,0.1,0,0.1,0.1V211.7z"/>
				<path class="st0" d="M226.9,206.8c0,1.7-1.4,3.1-3.1,3.1c-1.7,0-3.1-1.4-3.1-3.1c0-1.7,1.4-3.1,3.1-3.1
					C225.6,203.7,226.9,205.1,226.9,206.8z"/>
				<path d="M234.2,204.6c0,0.1,0,0.1-0.1,0.1c-0.1,0-0.3,0-1,0c0.3,1,0.6,1.6,1,2.3c-0.1,0.1-0.2,0.3-0.3,0.5
					c0,0.1-0.1,0.1-0.1,0.1c0,0-0.1,0-0.1-0.1c-0.3-0.7-0.5-1.3-0.7-2.2c0,3.6,0.1,6.6,0.1,6.8c0,0.1,0,0.1-0.1,0.1h-0.5
					c-0.1,0-0.1,0-0.1-0.1c0-0.2,0.1-3.2,0.1-6.7c-0.3,1.5-0.6,2.6-1.2,3.8c0,0.1-0.1,0.1-0.1,0.1s-0.1,0-0.1-0.1
					c-0.1-0.2-0.2-0.3-0.3-0.4c0.7-1.3,1.1-2.3,1.5-4.1h-0.1c-0.8,0-1,0-1.1,0c-0.1,0-0.1,0-0.1-0.1v-0.5c0-0.1,0-0.1,0.1-0.1
					c0.1,0,0.3,0,1.1,0h0.2v-1.2c0-0.7,0-1.1-0.1-1.5c0.3,0,0.5,0,0.7,0.1c0.1,0,0.1,0,0.1,0.1c0,0.1,0,0.2-0.1,0.2
					c-0.1,0.1-0.1,0.3-0.1,1v1.2c0.8,0,1,0,1,0c0.1,0,0.1,0,0.1,0.1V204.6z M238.6,208.1c0.1,0.3,0.1,0.5,0.2,0.8
					c0.1,0.3,0.2,0.6,0.3,0.9c0.3-0.3,0.5-0.5,0.7-0.8c0.2-0.2,0.3-0.4,0.3-0.6c0.2,0.1,0.4,0.2,0.5,0.3c0.1,0.1,0.1,0.1,0.1,0.1
					c0,0.1,0,0.1-0.1,0.1c-0.1,0-0.2,0.2-0.3,0.3c-0.3,0.3-0.6,0.6-0.9,1c0.4,0.6,0.9,1,1.2,1c0.3,0,0.5-0.4,0.6-1.5
					c0.1,0.1,0.3,0.2,0.4,0.3c0.2,0.1,0.2,0.1,0.2,0.4c-0.2,1.1-0.4,1.6-1.1,1.6c-0.6,0-1.3-0.5-1.8-1.3c-0.7,0.5-1.6,1-2.7,1.4
					c-0.2,0.1-0.2,0.1-0.3-0.1c-0.1-0.1-0.2-0.3-0.3-0.4c1.1-0.3,2.2-0.8,3-1.4c-0.1-0.3-0.3-0.6-0.4-0.9c-0.1-0.3-0.2-0.7-0.3-1.1
					h-2.2c-0.1,1.6-0.6,2.8-1.6,3.8c-0.1,0.1-0.1,0.1-0.2,0.1c0,0-0.1,0-0.2-0.1c-0.1-0.1-0.2-0.2-0.3-0.3c1.1-0.9,1.5-2,1.6-3.5
					c-0.7,0-1,0-1.1,0c-0.1,0-0.1,0-0.1-0.1v-0.5c0-0.1,0-0.1,0.1-0.1c0.1,0,0.5,0,1.7,0h2.1c-0.3-1.4-0.4-3-0.5-4.5
					c0-0.8,0-1.1-0.1-1.5c0.3,0,0.5,0,0.7,0.1c0.1,0,0.2,0.1,0.2,0.1c0,0.1,0,0.1-0.1,0.2c0,0.1,0,0.4,0,1.1c0,1.6,0.2,3.2,0.5,4.6
					h1.5c1.2,0,1.6,0,1.7,0c0.1,0,0.1,0,0.1,0.1v0.5c0,0.1,0,0.1-0.1,0.1c-0.1,0-0.5,0-1.7,0H238.6z M236.6,205.1c0.1,0,0.1,0,0.1,0
					c0.2,0.4,0.5,0.9,0.6,1.4c0,0.1,0,0.1-0.1,0.2l-0.3,0.1c-0.1,0.1-0.1,0.1-0.2,0l-0.1-0.4c-0.6,0.1-1.3,0.2-1.8,0.3
					c-0.3,0-0.3,0.1-0.4,0.1c0,0-0.1,0.1-0.1,0.1c-0.1,0-0.1,0-0.1-0.1c0-0.2-0.1-0.4-0.1-0.6c0.1,0,0.3,0,0.4,0
					c0.3-0.4,0.6-0.8,0.9-1.2c-0.4-0.6-0.8-1-1.3-1.4c-0.1,0-0.1-0.1,0-0.2l0.2-0.2c0.1-0.1,0.1-0.1,0.1,0l0.3,0.3
					c0.3-0.4,0.6-0.9,0.8-1.3c0.1-0.1,0.1-0.3,0.2-0.4c0.2,0.1,0.4,0.2,0.6,0.3c0.1,0,0.1,0.1,0.1,0.1c0,0,0,0.1-0.1,0.1
					c-0.1,0-0.1,0.1-0.2,0.2c-0.2,0.3-0.5,0.9-0.9,1.3c0.2,0.2,0.4,0.5,0.6,0.7l0.4-0.7c0.1-0.2,0.2-0.3,0.2-0.5
					c0.2,0.1,0.4,0.2,0.6,0.3c0.1,0,0.1,0.1,0.1,0.1c0,0.1,0,0.1-0.1,0.1c-0.1,0.1-0.2,0.2-0.4,0.5c-0.4,0.5-0.9,1.2-1.3,1.8
					c0.4,0,0.8-0.1,1.3-0.2c-0.1-0.2-0.2-0.4-0.3-0.5c0-0.1,0-0.1,0.1-0.2L236.6,205.1z M236.1,209c0.1-0.1,0.1-0.1,0.2,0
					c0.4,0.2,0.8,0.5,1.2,0.8c0.1,0,0,0.1,0,0.2l-0.2,0.3c-0.1,0.1-0.1,0.1-0.2,0.1c-0.3-0.3-0.7-0.6-1.1-0.9c-0.1,0-0.1-0.1,0-0.2
					L236.1,209z M240.9,204.9c0.1-0.1,0.1,0,0.2,0c0.3,0.4,0.5,0.9,0.7,1.5c0,0.1,0,0.1-0.1,0.1l-0.3,0.1c-0.1,0.1-0.1,0-0.2,0
					c0-0.2-0.1-0.3-0.2-0.5c-0.7,0.1-1.4,0.2-1.9,0.3c-0.3,0-0.4,0.1-0.4,0.1c0,0-0.1,0-0.1,0c-0.1,0-0.1,0-0.1-0.1
					c0-0.2-0.1-0.4-0.1-0.6c0.1,0,0.2,0,0.3,0c0.3-0.3,0.5-0.6,0.8-1c-0.4-0.6-0.8-1-1.3-1.5c-0.1-0.1-0.1-0.1,0-0.2l0.2-0.2
					c0.1-0.1,0.1-0.1,0.1,0c0.1,0.1,0.2,0.2,0.3,0.3c0.3-0.4,0.5-0.8,0.7-1.2c0.1-0.1,0.1-0.3,0.2-0.5c0.2,0.1,0.4,0.2,0.6,0.3
					c0.1,0,0.1,0.1,0.1,0.1c0,0,0,0.1-0.1,0.1c-0.1,0-0.1,0.1-0.2,0.2c-0.2,0.3-0.5,0.9-0.9,1.3c0.2,0.2,0.4,0.5,0.6,0.7
					c0.2-0.3,0.4-0.6,0.5-0.8c0.1-0.2,0.2-0.3,0.2-0.5c0.2,0.1,0.4,0.2,0.6,0.3c0.1,0,0.1,0.1,0.1,0.1c0,0.1,0,0.1-0.1,0.1
					c-0.1,0-0.2,0.2-0.4,0.5c-0.4,0.5-0.9,1.2-1.3,1.8c0.4,0,0.9-0.1,1.4-0.2c-0.1-0.2-0.2-0.4-0.3-0.5c0-0.1,0-0.1,0.1-0.2
					L240.9,204.9z M239.7,206.5c0.1-0.1,0.1-0.1,0.2,0c0.2,0.2,0.4,0.4,0.7,0.6c0.1,0.1,0.1,0.1,0,0.2l-0.2,0.2
					c-0.1,0.1-0.1,0.1-0.2,0c-0.2-0.2-0.4-0.5-0.7-0.6c-0.1-0.1-0.1-0.1,0-0.2L239.7,206.5z"/>
				<path d="M248.5,204c0,0.8,0,1.1,0,1.2c0,0.1,0,0.1-0.1,0.1c-0.1,0-0.4,0-1.2,0H245v4.4c0,1.7,0,2.4,0,2.4c0,0.1,0,0.1-0.1,0.1
					h-0.6c-0.1,0-0.1,0-0.1-0.1c0-0.1,0-0.8,0-2.4v-5.2c0-1.7,0-2.4,0-2.5c0-0.1,0-0.1,0.1-0.1c0.1,0,0.5,0,1.4,0h1.5
					c0.8,0,1.1,0,1.2,0c0.1,0,0.1,0,0.1,0.1c0,0.1,0,0.4,0,1.1V204z M247.8,202.4H245v0.8h2.8V202.4z M247.8,203.8H245v0.9h2.8
					V203.8z M252.3,209C252.3,209.1,252.3,209.1,252.3,209c-0.2,0.1-0.6,0.1-1.7,0.1h-1.1c0.6,0.8,1.4,1.2,2.7,1.5
					c-0.1,0.1-0.2,0.3-0.3,0.4c-0.1,0.2-0.1,0.2-0.3,0.1c-1.1-0.4-1.9-0.9-2.6-1.8l-0.2,0.4c-0.4,0.7-1.2,1.4-2.6,1.8
					c-0.2,0.1-0.2,0.1-0.3-0.1c-0.1-0.2-0.2-0.3-0.4-0.4c1.5-0.4,2.3-0.9,2.7-1.6c0.1-0.1,0.1-0.2,0.2-0.3h-0.8c-1.2,0-1.5,0-1.6,0
					c-0.1,0-0.1,0-0.1-0.1v-0.4c0-0.1,0-0.1,0.1-0.1c0.1,0,0.4,0,1.6,0h1c0.1-0.3,0.1-0.6,0.1-1h-0.9c-1.1,0-1.5,0-1.5,0
					c-0.1,0-0.1,0-0.1-0.1V207c0-0.1,0-0.1,0.1-0.1c0.1,0,0.4,0,1.5,0c-0.2-0.3-0.3-0.6-0.6-0.9c-0.1-0.1,0-0.1,0.1-0.2l0.3-0.1
					c0.1,0,0.1-0.1,0.2,0c0.2,0.3,0.5,0.7,0.7,1.2h1.3c0.2-0.3,0.3-0.6,0.4-0.8c0.1-0.2,0.1-0.3,0.2-0.5c0.2,0,0.4,0.1,0.6,0.2
					c0.1,0,0.1,0.1,0.1,0.1c0,0.1,0,0.1-0.1,0.1c-0.1,0.1-0.1,0.2-0.2,0.3c-0.1,0.2-0.2,0.4-0.4,0.6c1.1,0,1.5,0,1.5,0
					c0.1,0,0.1,0,0.1,0.1v0.4c0,0.1,0,0.1-0.1,0.1c-0.1,0-0.4,0-1.5,0h-1c0,0.3,0,0.7-0.1,1h1.3c1.1,0,1.5,0,1.6,0
					c0.1,0,0.1,0,0.1,0.1V209z M253.9,209.1c0,0.7,0,1.3,0,1.8c0,0.5-0.1,0.7-0.3,0.9c-0.2,0.2-0.5,0.2-1.4,0.2
					c-0.2,0-0.2,0-0.3-0.2c-0.1-0.2-0.1-0.4-0.2-0.5c0.3,0,0.5,0,0.8,0c0.5,0,0.6-0.1,0.6-0.6v-5.5H251c-0.9,0-1.2,0-1.3,0
					c-0.1,0-0.1,0-0.1-0.1c0-0.1,0-0.3,0-1.1v-1.2c0-0.7,0-1,0-1c0-0.1,0-0.1,0.1-0.1c0.1,0,0.4,0,1.3,0h1.6c0.9,0,1.2,0,1.3,0
					c0.1,0,0.1,0,0.1,0.1c0,0.1,0,0.6,0,1.7V209.1z M253.2,202.4h-3v0.8h3V202.4z M253.2,203.8h-3v0.9h3V203.8z"/>
				<path d="M260.3,204.5C260.3,204.6,260.3,204.6,260.3,204.5c-0.2,0.1-0.4,0.1-1.3,0.1h-0.2v2.2c0.4-0.2,0.8-0.4,1.2-0.6
					c0,0.1,0,0.3,0,0.5c0,0.3,0,0.3-0.2,0.3c-0.3,0.2-0.7,0.3-1,0.5v1.6c0,0.7,0,1.4,0,1.8c0,0.6-0.1,0.8-0.3,0.9
					c-0.2,0.2-0.5,0.2-1.3,0.2c-0.2,0-0.3,0-0.3-0.3c-0.1-0.2-0.1-0.4-0.2-0.5c0.3,0,0.6,0,0.9,0c0.3,0,0.5-0.1,0.5-0.6v-3
					c-0.3,0.1-0.6,0.3-0.9,0.4c-0.2,0.1-0.4,0.2-0.4,0.3c0,0-0.1,0.1-0.1,0.1c-0.1,0-0.1,0-0.1-0.1c-0.1-0.2-0.1-0.4-0.2-0.7
					c0.3-0.1,0.6-0.2,1.1-0.3l0.7-0.3v-2.6h-0.4c-0.9,0-1.1,0-1.2,0c-0.1,0-0.1,0-0.1-0.1V204c0-0.1,0-0.1,0.1-0.1
					c0.1,0,0.3,0,1.2,0h0.4v-1c0-0.7,0-1.1-0.1-1.5c0.3,0,0.5,0,0.8,0.1c0.1,0,0.1,0.1,0.1,0.1c0,0.1,0,0.1-0.1,0.2
					c0,0.1-0.1,0.3-0.1,1v1h0.2c0.9,0,1.1,0,1.2,0c0.1,0,0.1,0,0.1,0.1V204.5z M265.2,206.6c0.1,0,0.2,0,0.3-0.1c0,0,0.1,0,0.1,0
					c0.1,0,0.2,0.1,0.3,0.2c0.2,0.2,0.2,0.3,0.2,0.3c0,0.1,0,0.1-0.1,0.1s-0.1,0.1-0.3,0.4c-0.4,0.8-1,1.6-1.7,2.2
					c1,0.7,2.2,1.3,3.5,1.6c-0.1,0.1-0.2,0.3-0.3,0.5c-0.1,0.2-0.1,0.2-0.2,0.2c0,0-0.1,0-0.2,0c-1.2-0.4-2.4-1-3.4-1.8
					c-1,0.8-2.2,1.4-3.6,1.8c-0.1,0-0.1,0-0.2,0c-0.1,0-0.1-0.1-0.2-0.2c-0.1-0.2-0.2-0.3-0.3-0.4c1.5-0.4,2.7-1,3.7-1.8
					c-0.7-0.7-1.3-1.6-1.7-2.6c-0.5,0-0.7,0-0.7,0c-0.1,0-0.1,0-0.1-0.1v-0.5c0-0.1,0-0.1,0.1-0.1c0.1,0,0.4,0,1.6,0H265.2z
					 M264.9,204.2c0,0.3,0,0.4,0.1,0.5c0.1,0.1,0.3,0.1,0.7,0.1c0.4,0,0.6,0,0.7-0.2c0.1-0.1,0.2-0.5,0.2-1c0.1,0.1,0.3,0.2,0.5,0.3
					c0.2,0.1,0.2,0.1,0.2,0.3c-0.1,0.5-0.2,0.8-0.4,1c-0.2,0.2-0.6,0.3-1.2,0.3c-0.5,0-0.9-0.1-1-0.2c-0.2-0.1-0.4-0.4-0.4-0.8v-2
					h-1.9c0,1.8-0.5,2.6-1.6,3.4c-0.1,0.1-0.1,0.1-0.2,0.1c0,0-0.1,0-0.2-0.1c-0.1-0.1-0.3-0.2-0.4-0.3c1.2-0.7,1.6-1.4,1.6-3.2
					c0-0.3,0-0.4,0-0.5c0-0.1,0-0.1,0.1-0.1c0.1,0,0.3,0,1.1,0h1.1c0.8,0,1,0,1.1,0c0.1,0,0.1,0,0.1,0.1c0,0.1,0,0.3,0,1V204.2z
					 M261.9,207.2c0.3,0.9,0.9,1.6,1.5,2.2c0.7-0.6,1.3-1.4,1.6-2.2H261.9z"/>
				<path d="M273.1,211.1c-0.1,0-0.3,0.1-0.4,0.2c-0.7,0.4-1.8,0.7-2.8,0.9c-0.2,0-0.2,0-0.3-0.2c-0.1-0.2-0.2-0.3-0.3-0.4
					c1-0.1,2.1-0.4,2.8-0.8c0.2-0.1,0.3-0.2,0.5-0.3c0.3,0.1,0.4,0.2,0.6,0.3c0.1,0,0.1,0.1,0.1,0.1
					C273.3,211.1,273.2,211.1,273.1,211.1z M272.4,204.7c-0.7,0.4-1.4,0.7-2,0.9c-0.2,0.1-0.3,0.1-0.4,0.2c-0.1,0.1-0.1,0.1-0.2,0.1
					c-0.1,0-0.1,0-0.1-0.1c-0.1-0.2-0.2-0.4-0.3-0.6c0.2,0,0.6-0.1,0.9-0.2c0.7-0.2,1.4-0.5,2.2-1c0,0.1,0,0.3,0,0.4
					C272.6,204.6,272.6,204.6,272.4,204.7z M270.1,201.8c0.1-0.1,0.1-0.1,0.2-0.1c0.6,0.2,1.2,0.6,1.8,1c0.1,0.1,0.1,0.1,0,0.2
					l-0.2,0.3c-0.1,0.1-0.1,0.1-0.2,0.1c-0.6-0.5-1.2-0.8-1.8-1c-0.1,0-0.1-0.1,0-0.2L270.1,201.8z M278,209.2c0,0.8,0,1.1,0,1.2
					c0,0.1,0,0.1-0.1,0.1c-0.1,0-0.5,0-1.7,0h-3.6c-1.2,0-1.6,0-1.7,0c-0.1,0-0.1,0-0.1-0.1c0-0.1,0-0.4,0-1.2v-1.9
					c0-0.9,0-1.1,0-1.2c0-0.1,0-0.1,0.1-0.1c0.1,0,0.5,0,1.7,0h3.6c1.2,0,1.6,0,1.7,0c0.1,0,0.1,0,0.1,0.1c0,0.1,0,0.3,0,1.2V209.2z
					 M277.4,206.5h-5.6v0.8h5.6V206.5z M277.4,207.8h-5.6v0.8h5.6V207.8z M277.4,209.1h-5.6v0.9h5.6V209.1z M276,203
					c0.5,1.6,2.4,2.3,3.9,2.5c-0.1,0.1-0.2,0.3-0.3,0.4c-0.1,0.2-0.1,0.2-0.3,0.2c-1.5-0.4-3-1-3.6-2.5c-0.4,1.2-1.5,1.8-3,2.1
					c-0.2,0-0.3,0-0.4-0.2c-0.1-0.1-0.2-0.3-0.3-0.3c1.7-0.3,2.9-0.9,3.2-2.3h-1.4c-0.2,0.3-0.5,0.6-0.9,0.8
					c-0.1,0.1-0.1,0.1-0.2,0.1c0,0-0.1,0-0.2-0.1s-0.2-0.2-0.4-0.2c0.7-0.5,1.3-1.1,1.6-1.7c0.1-0.2,0.2-0.4,0.2-0.6
					c0.3,0.1,0.4,0.1,0.6,0.2c0.1,0,0.1,0.1,0.1,0.1c0,0,0,0.1-0.1,0.1s-0.1,0.2-0.2,0.3c-0.1,0.2-0.2,0.3-0.3,0.5h3.9
					c0.2,0,0.3,0,0.3,0c0,0,0.1,0,0.1,0c0.1,0,0.1,0,0.3,0.2c0.2,0.2,0.3,0.3,0.3,0.3c0,0.1,0,0.1-0.1,0.1c-0.1,0-0.1,0.1-0.2,0.3
					c-0.2,0.3-0.4,0.5-0.6,0.8c-0.1,0.1-0.1,0.1-0.2,0.1c0,0-0.1,0-0.2-0.1c-0.1-0.1-0.3-0.1-0.4-0.1c0.4-0.3,0.6-0.7,0.9-1H276z
					 M276.2,210.6c0.1-0.1,0.1-0.1,0.2,0c0.9,0.5,2,0.8,3.2,1c-0.1,0.1-0.2,0.2-0.3,0.4c-0.1,0.2-0.1,0.2-0.4,0.2
					c-1-0.2-2.2-0.6-3.1-1.2c-0.1-0.1-0.1-0.1,0.1-0.2L276.2,210.6z"/>
				<path d="M288.4,205c0.2,0.9,0.5,1.7,0.8,2.3c0.5-0.4,0.9-0.8,1.3-1.3c0.2-0.2,0.3-0.4,0.4-0.5c0.2,0.2,0.4,0.3,0.6,0.4
					c0.1,0.1,0.1,0.1,0.1,0.2c0,0.1-0.1,0.1-0.1,0.2c-0.1,0.1-0.3,0.2-0.6,0.5c-0.4,0.4-0.8,0.8-1.4,1.2c0.7,1.2,1.7,2.1,3.1,2.9
					c-0.2,0.1-0.3,0.3-0.4,0.5c-0.1,0.1-0.1,0.2-0.2,0.2c0,0-0.1,0-0.2-0.1c-2.3-1.6-3.5-3.5-4.2-6.4h-0.2c-0.3,0.3-0.7,0.5-1,0.7
					c1.1,1.1,1.7,2.6,1.7,4.2c0,1.6-0.3,2.2-1.6,2.2c-0.3,0-0.5,0-0.7,0c-0.2,0-0.2,0-0.3-0.2c0-0.2-0.1-0.4-0.2-0.5
					c0.5,0.1,0.9,0.1,1.2,0.1c0.5,0,0.9-0.1,0.9-1.5c0-0.3,0-0.6-0.1-0.9c-1.4,1.2-2.8,1.9-4.9,2.6c-0.1,0-0.1,0.1-0.2,0.1
					c-0.1,0-0.1,0-0.2-0.2c-0.1-0.2-0.2-0.3-0.4-0.4c2.2-0.6,3.9-1.4,5.4-2.7c-0.1-0.3-0.2-0.6-0.4-0.9c-1.3,0.9-2.3,1.4-3.9,1.9
					c-0.1,0-0.1,0.1-0.2,0.1c-0.1,0-0.1,0-0.2-0.2c-0.1-0.2-0.2-0.3-0.3-0.4c1.9-0.5,3-1,4.4-1.9c-0.2-0.3-0.4-0.6-0.7-0.8
					c-0.8,0.4-1.6,0.8-2.6,1.1c-0.2,0.1-0.2,0.1-0.3-0.1c-0.1-0.2-0.2-0.3-0.4-0.4c1.8-0.5,2.9-0.9,3.9-1.7h-1.1c-1.2,0-1.6,0-1.7,0
					c-0.1,0-0.1,0-0.1-0.1v-0.4c0-0.1,0-0.1,0.1-0.1c0.1,0,0.5,0,1.7,0h3.5c1.2,0,1.6,0,1.7,0c0.1,0,0.1,0,0.1,0.1v0.4
					c0,0.1,0,0.1-0.1,0.1c-0.1,0-0.5,0-1.7,0H288.4z M292.1,203.6c0,1,0,1.2,0,1.2c0,0.1,0,0.1-0.1,0.1h-0.6c-0.1,0-0.1,0-0.1-0.1
					v-1.7h-8.3v1.7c0,0.1,0,0.1-0.1,0.1h-0.6c-0.1,0-0.1,0-0.1-0.1c0-0.1,0-0.2,0-1.2v-0.4c0-0.4,0-0.6,0-0.6c0-0.1,0-0.1,0.1-0.1
					c0.1,0,0.5,0,1.7,0h2.7v-0.1c0-0.4,0-0.8-0.1-1c0.3,0,0.6,0,0.8,0.1c0.1,0,0.1,0,0.1,0.1c0,0.1,0,0.1-0.1,0.2
					c0,0.1-0.1,0.3-0.1,0.6v0.2h2.9c1.2,0,1.6,0,1.7,0c0.1,0,0.1,0,0.1,0.1c0,0.1,0,0.2,0,0.5V203.6z"/>
				<path class="st0" d="M304.8,206.8c0,1.7-1.4,3.1-3.1,3.1s-3.1-1.4-3.1-3.1c0-1.7,1.4-3.1,3.1-3.1S304.8,205.1,304.8,206.8z"/>
				<path d="M314.9,206.6c-2,0.5-3.3,0.8-4.8,1.3c-0.2,0.1-0.3,0.2-0.4,0.2c0,0-0.1-0.1-0.2-0.1c-0.1-0.1-0.2-0.4-0.3-0.6
					c0.2,0,0.3-0.1,0.5-0.1c0.5-0.2,0.9-0.5,1.3-0.8c1.2-1,2.4-2,4-3.6c-1,0.2-2,0.3-3,0.5c-0.2,0-0.3,0.1-0.4,0.1
					c-0.1,0-0.3,0.1-0.3,0.1c-0.1,0-0.1-0.1-0.2-0.2c-0.1-0.1-0.2-0.4-0.3-0.7c0.3,0,0.7,0,1.1,0c1-0.1,2-0.3,3.1-0.4
					c0.2,0,0.3-0.1,0.5-0.2c0.1,0,0.1-0.1,0.2-0.1c0.1,0,0.1,0,0.2,0.1c0.1,0.1,0.3,0.3,0.4,0.4c0.1,0.1,0.1,0.2,0.1,0.2
					c0,0.1-0.1,0.2-0.2,0.2c-0.1,0.1-0.3,0.2-0.4,0.3c-1.6,1.4-3,2.6-4.4,3.7l0,0c1.9-0.6,4-1.1,6.6-1.4c0.1,0,0.2,0,0.2,0.1
					c0,0.1,0.1,0.4,0.1,0.6c0,0.1,0,0.1-0.2,0.1c-0.8,0-1.5,0.2-2.2,0.4c-1.4,0.5-2.4,1.4-2.4,2.5c0,1.4,1.6,1.8,3.2,1.8
					c0.1,0,0.1,0,0.1,0.1c0,0.2,0,0.4-0.1,0.6c0,0.1,0,0.2-0.2,0.2c-0.2,0-0.5,0-0.7,0c-1.9-0.2-3.1-1-3.1-2.4
					C312.8,208.4,313.3,207.3,314.9,206.6L314.9,206.6z"/>
				<path d="M326.4,203.8c-0.2,2-0.8,4-1.6,5.2c-0.5,0.9-1.1,1.2-1.8,1.2c-0.9,0-1.8-1-1.8-2.7c0-1.1,0.5-2.3,1.4-3.1
					c0.9-0.8,2.1-1.3,3.6-1.3c2.7,0,4.3,1.6,4.3,3.9c0,2-1.2,3.5-3.8,4.2c-0.1,0-0.2,0-0.3-0.1c-0.1-0.1-0.2-0.3-0.5-0.4
					c2.4-0.5,3.7-1.8,3.7-3.8c0-1.8-1.4-3-3.1-3H326.4z M323.2,204.9c-0.8,0.8-1.2,1.8-1.2,2.6c0,1.3,0.5,1.9,1,1.9
					c0.4,0,0.8-0.3,1.1-0.9c0.6-1.1,1.2-2.9,1.4-4.7C324.6,203.9,323.8,204.3,323.2,204.9z"/>
				<path d="M334.7,207.2c0-0.4,0-1.1,0-1.6c-0.3,0.5-0.7,1-1.1,1.5c-0.1,0.1-0.1,0.1-0.1,0.1c0,0-0.1,0-0.1-0.1
					c-0.1-0.2-0.2-0.3-0.3-0.5c1.2-1.3,2-2.7,2.5-4.3c0.1-0.3,0.2-0.6,0.2-0.8c0.3,0.1,0.5,0.2,0.7,0.3c0.1,0,0.1,0.1,0.1,0.1
					c0,0.1,0,0.1-0.1,0.2c-0.1,0.1-0.1,0.2-0.2,0.4c-0.2,0.6-0.5,1.3-0.8,1.9v5.8c0,1.3,0,1.8,0,1.9c0,0.1,0,0.1-0.1,0.1h-0.6
					c-0.1,0-0.1,0-0.1-0.1c0-0.1,0-0.6,0-1.9V207.2z M338.1,210.3c0,0.5,0.2,0.7,0.6,0.8c0.3,0.1,0.9,0.1,1.8,0.1
					c1.3,0,2-0.1,2.3-0.3c0.3-0.2,0.5-0.6,0.5-1.7c0.1,0.1,0.3,0.2,0.5,0.3s0.2,0.1,0.2,0.3c-0.1,0.9-0.3,1.4-0.7,1.7
					c-0.5,0.3-1.4,0.5-3,0.5c-1,0-1.8,0-2.2-0.2c-0.4-0.1-0.8-0.4-0.8-1.2v-4c-0.7,0.3-1,0.4-1.1,0.4c-0.1,0-0.1,0-0.1-0.1l-0.1-0.6
					c0-0.1,0-0.1,0.1-0.1c0.1,0,0.4-0.1,1.3-0.4v-1.6c0-0.6,0-1-0.1-1.3c0.3,0,0.5,0,0.8,0.1c0.1,0,0.2,0.1,0.2,0.1
					c0,0.1,0,0.1-0.1,0.2c-0.1,0.1-0.1,0.3-0.1,0.9v1.5l1.6-0.5v-1.8c0-0.8,0-1.2-0.1-1.6c0.3,0,0.6,0,0.8,0.1
					c0.1,0,0.1,0.1,0.1,0.1c0,0.1,0,0.1,0,0.2c0,0.1-0.1,0.4-0.1,1.2v1.6l1.1-0.4c1.1-0.3,1.5-0.5,1.5-0.5c0.1,0,0.1,0,0.1,0.1
					l0,0.9c-0.1,1.5-0.1,2.4-0.3,3c-0.1,0.8-0.5,1-1,1c-0.2,0-0.4,0-0.7,0c-0.2,0-0.2,0-0.2-0.3c0-0.2-0.1-0.3-0.2-0.5
					c0.4,0.1,0.6,0.1,0.9,0.1c0.3,0,0.4-0.2,0.5-0.7c0.1-0.7,0.2-1.4,0.2-2.7l-2,0.7v2.1c0,1.2,0,1.7,0,1.8c0,0.1,0,0.1-0.1,0.1
					h-0.6c-0.1,0-0.1,0-0.1-0.1c0-0.1,0-0.6,0-1.8v-1.9l-1.6,0.5V210.3z"/>
				<path d="M351.8,203.8c-0.2,2-0.8,4-1.6,5.2c-0.5,0.9-1.1,1.2-1.8,1.2c-0.9,0-1.8-1-1.8-2.7c0-1.1,0.5-2.3,1.4-3.1
					c0.9-0.8,2.1-1.3,3.6-1.3c2.7,0,4.3,1.6,4.3,3.9c0,2-1.2,3.5-3.8,4.2c-0.1,0-0.2,0-0.3-0.1c-0.1-0.1-0.2-0.3-0.5-0.4
					c2.4-0.5,3.7-1.8,3.7-3.8c0-1.8-1.4-3-3.1-3H351.8z M348.6,204.9c-0.8,0.8-1.2,1.8-1.2,2.6c0,1.3,0.5,1.9,1,1.9
					c0.4,0,0.8-0.3,1.1-0.9c0.6-1.1,1.2-2.9,1.4-4.7C350,203.9,349.2,204.3,348.6,204.9z"/>
				<path d="M364.3,201.8c1.4,2,3.3,3.3,5.4,4.1c-0.1,0.1-0.3,0.3-0.4,0.5c-0.1,0.1-0.1,0.2-0.2,0.2c0,0-0.1,0-0.2-0.1
					c-2.1-0.9-3.8-2.3-5.1-4.1c-1.3,1.9-2.9,3.2-4.9,4.2c-0.1,0-0.1,0.1-0.2,0.1c-0.1,0-0.1,0-0.2-0.2c-0.1-0.2-0.2-0.3-0.4-0.4
					c2.3-1,4-2.5,4.9-4c0.2-0.3,0.3-0.5,0.3-0.7c0.3,0,0.5,0.1,0.8,0.2c0.1,0,0.2,0.1,0.2,0.1c0,0.1,0,0.1-0.1,0.1L364.3,201.8z
					 M369.3,211.6C369.3,211.7,369.2,211.7,369.3,211.6c-0.2,0.1-0.5,0.1-1.7,0.1h-7.2c-1.1,0-1.5,0-1.6,0c-0.1,0-0.1,0-0.1-0.1
					v-0.5c0-0.1,0-0.1,0.1-0.1c0.1,0,0.4,0,1.6,0h0.5v-2.7c0-0.7,0-1.1-0.1-1.4c0.3,0,0.6,0,0.8,0.1c0.1,0,0.1,0,0.1,0.1
					c0,0.1,0,0.1-0.1,0.2c0,0.1-0.1,0.4-0.1,1.1v2.7h2.2v-4.8c0-0.7,0-1.1-0.1-1.4c0.3,0,0.6,0,0.8,0.1c0.1,0,0.1,0.1,0.1,0.1
					c0,0.1,0,0.1-0.1,0.2c-0.1,0.1-0.1,0.4-0.1,1v1.2h1.5c1,0,1.4,0,1.5,0c0.1,0,0.1,0,0.1,0.1v0.5c0,0.1,0,0.1-0.1,0.1
					c-0.1,0-0.4,0-1.5,0h-1.5v2.9h3c1.1,0,1.5,0,1.6,0c0.1,0,0.1,0,0.1,0.1V211.6z"/>
				<path d="M377.5,209.1c1.2,0.9,2.5,1.5,4.6,2c-0.1,0.1-0.2,0.3-0.3,0.4c-0.1,0.2-0.1,0.2-0.3,0.2c-1.9-0.5-3.3-1.2-4.5-2.4
					c0,1.8,0.1,2.6,0.1,2.8c0,0.1,0,0.1-0.1,0.1h-0.6c-0.1,0-0.1,0-0.1-0.1c0-0.2,0-0.9,0.1-2.7c-1.2,1.2-2.5,1.8-4.3,2.4
					c-0.2,0.1-0.2,0.1-0.3-0.1c-0.1-0.2-0.2-0.3-0.3-0.4c2-0.5,3.4-1.2,4.4-2.1h-2.5c-1.1,0-1.5,0-1.6,0c-0.1,0-0.1,0-0.1-0.1v-0.4
					c0-0.1,0-0.1,0.1-0.1c0.1,0,0.4,0,1.6,0h3.1v-1h-1.8c-1.2,0-1.6,0-1.7,0c-0.1,0-0.1,0-0.1-0.1v-0.4c0-0.1,0-0.1,0.1-0.1
					c0.1,0,0.5,0,1.7,0h1.8v-0.9h-2.4c-1.2,0-1.6,0-1.7,0c-0.1,0-0.1,0-0.1-0.1v-0.4c0-0.1,0-0.1,0.1-0.1c0.1,0,0.5,0,1.7,0h1
					c-0.1-0.4-0.3-0.8-0.5-1c-0.1-0.1,0-0.1,0.1-0.2l0.3-0.1c0.1,0,0.1,0,0.2,0c0.2,0.3,0.4,0.8,0.6,1.3h2.2
					c0.2-0.3,0.3-0.5,0.4-0.9c0.1-0.1,0.1-0.3,0.1-0.5c0.2,0,0.4,0.1,0.6,0.2c0.1,0,0.1,0.1,0.1,0.1s-0.1,0.1-0.1,0.1
					c-0.1,0-0.1,0.2-0.2,0.3c-0.1,0.2-0.2,0.4-0.4,0.7h1c1.2,0,1.6,0,1.7,0c0.1,0,0.1,0,0.1,0.1v0.4c0,0.1,0,0.1-0.1,0.1
					c-0.1,0-0.5,0-1.7,0h-2.6v0.9h2c1.2,0,1.6,0,1.7,0c0.1,0,0.1,0,0.1,0.1v0.4c0,0.1,0,0.1-0.1,0.1c-0.1,0-0.5,0-1.7,0h-2v1h3.3
					c1.1,0,1.5,0,1.6,0c0.1,0,0.1,0,0.1,0.1v0.4c0,0.1,0,0.1-0.1,0.1c-0.1,0-0.4,0-1.6,0H377.5z M381.9,203.9
					C381.9,204,381.9,204,381.9,203.9c-0.2,0.1-0.5,0.1-1.7,0.1h-7.1c-1.1,0-1.5,0-1.6,0c-0.1,0-0.1,0-0.1-0.1v-0.4
					c0-0.1,0-0.1,0.1-0.1c0.1,0,0.4,0,1.6,0h0.4c-0.3-0.5-0.5-0.9-0.9-1.3c0-0.1,0-0.1,0.1-0.2l0.3-0.2c0.1,0,0.1,0,0.2,0
					c0.3,0.3,0.6,0.8,0.9,1.2c0,0.1,0,0.1-0.1,0.2l-0.4,0.2h1.6v-0.9c0-0.4,0-0.8-0.1-1.1c0.3,0,0.5,0,0.7,0.1c0.1,0,0.1,0,0.1,0.1
					c0,0.1,0,0.1,0,0.2c0,0.1-0.1,0.3-0.1,0.8v0.9h1.3v-0.9c0-0.4,0-0.8-0.1-1.1c0.3,0,0.6,0,0.7,0.1c0.1,0,0.1,0,0.1,0.1
					c0,0,0,0.1,0,0.2c0,0.1-0.1,0.3-0.1,0.8v0.9h1.1c0.3-0.4,0.5-0.7,0.7-1.1c0.1-0.2,0.2-0.3,0.2-0.6c0.2,0.1,0.5,0.2,0.7,0.2
					c0.1,0,0.1,0.1,0.1,0.1c0,0.1,0,0.1-0.1,0.2c-0.1,0.1-0.1,0.1-0.2,0.2c-0.2,0.3-0.4,0.6-0.6,0.9h0.5c1.1,0,1.5,0,1.6,0
					c0.1,0,0.1,0,0.1,0.1V203.9z"/>
				<path class="st0" d="M394.2,206.8c0,1.7-1.4,3.1-3.1,3.1c-1.7,0-3.1-1.4-3.1-3.1c0-1.7,1.4-3.1,3.1-3.1
					C392.8,203.7,394.2,205.1,394.2,206.8z"/>
				<path d="M399.6,207.1c0-0.5,0-1.2,0-1.8c-0.3,0.5-0.7,1-1.1,1.5c-0.1,0.1-0.1,0.1-0.1,0.1c0,0-0.1,0-0.1-0.1
					c-0.1-0.2-0.2-0.3-0.3-0.5c1.1-1.3,1.8-2.6,2.4-4.2c0.1-0.3,0.2-0.5,0.2-0.8c0.3,0.1,0.5,0.1,0.7,0.2c0.1,0,0.1,0.1,0.1,0.1
					c0,0.1,0,0.1-0.1,0.2c-0.1,0.1-0.1,0.2-0.2,0.5c-0.2,0.6-0.5,1.2-0.8,1.8v6c0,1.3,0,1.8,0,1.9c0,0.1,0,0.1-0.1,0.1h-0.6
					c-0.1,0-0.1,0-0.1-0.1c0-0.1,0-0.6,0-1.9V207.1z M408.5,208.5c0,2.8,0,3.5,0,3.5c0,0.1,0,0.1-0.1,0.1h-0.5c-0.1,0-0.1,0-0.1-0.1
					v-0.6h-5.5v0.7c0,0.1,0,0.1-0.1,0.1h-0.5c-0.1,0-0.1,0-0.1-0.1c0-0.1,0-0.7,0-3.6V205c0-2,0-2.7,0-2.7c0-0.1,0-0.1,0.1-0.1
					c0.1,0,0.5,0,1.7,0h3.4c1.2,0,1.6,0,1.7,0c0.1,0,0.1,0,0.1,0.1c0,0.1,0,0.8,0,2.6V208.5z M407.8,202.8h-5.5v7.9h5.5V202.8z
					 M407.2,205.3C407.2,205.4,407.2,205.4,407.2,205.3c-0.2,0.1-0.5,0.1-1.4,0.1h-0.5v1.4h0.2c0.8,0,1,0,1.1,0c0.1,0,0.1,0,0.1,0.1
					c0,0.1,0,0.3,0,0.9v1c0,0.7,0,0.9,0,0.9c0,0.1,0,0.1-0.1,0.1c-0.1,0-0.3,0-1.1,0h-1c-0.8,0-1,0-1.1,0c-0.1,0-0.1,0-0.1-0.1
					s0-0.3,0-0.9v-1c0-0.6,0-0.9,0-0.9c0-0.1,0-0.1,0.1-0.1c0.1,0,0.3,0,1.1,0h0.2v-1.4h-0.5c-1,0-1.3,0-1.3,0c-0.1,0-0.1,0-0.1-0.1
					v-0.4c0-0.1,0-0.1,0.1-0.1c0.1,0,0.4,0,1.3,0h0.5v-0.1c0-0.8,0-1.1-0.1-1.4c0.3,0,0.5,0,0.7,0.1c0.1,0,0.1,0,0.1,0.1
					c0,0,0,0.1,0,0.2c0,0.1-0.1,0.4-0.1,1v0.1h0.5c1,0,1.3,0,1.3,0c0.1,0,0.1,0,0.1,0.1V205.3z M406,207.4h-2v1.8h2V207.4z"/>
				<path d="M421.2,211.7c-0.1,0.1-0.1,0.2-0.2,0.2c0,0-0.1,0-0.2-0.1c-2.7-1.7-4-4.2-4.5-6.6c-0.5,3-2.1,5.2-4.6,6.6
					c-0.1,0-0.1,0.1-0.2,0.1s-0.1-0.1-0.2-0.2c-0.1-0.2-0.3-0.3-0.4-0.4c3.2-1.5,4.9-4.7,4.8-8.1c0-0.7,0-1-0.1-1.4
					c0.3,0,0.6,0,0.9,0.1c0.1,0,0.2,0.1,0.2,0.1c0,0.1,0,0.2-0.1,0.2c-0.1,0.1-0.1,0.4-0.1,0.7c0,0.2,0,0.4,0,0.6
					c0.5,3.2,1.8,6,5,7.7C421.5,211.4,421.4,211.5,421.2,211.7z"/>
			</g>
		</g>
	</g>
</g>
</svg>
