<?xml version="1.0" encoding="UTF-8"?>
<svg xmlns="http://www.w3.org/2000/svg" viewBox="0 0 474.08 215.01">
  <g isolation="isolate">
    <g id="_レイヤー_2" data-name="レイヤー 2">
      <g id="_デザイン" data-name="デザイン">
        <g>
          <path d="m126.38,42.91c1.23-.41,2.3-.81,3.42-1.36.76-.36,1.11-.59,1.5-1.01.49.41.95.98,1.16,1.26.07.08.11.17.11.25,0,.11-.07.21-.24.25-.39.1-.78.29-1.16.46-1.39.63-2.96,1.19-4.8,1.74v1.86c0,.66.1.88.46.99.36.1.91.15,1.76.15,1.32,0,2.49-.1,3.95-.32.21-.03.24.03.25.2.04.39.08.92.08,1.22,0,.18-.08.24-.29.25-1.58.2-2.4.25-4.16.25-1.25,0-2.07-.13-2.66-.38-.7-.29-1-.95-1-2.1v-5.17c0-1.33-.03-1.86-.14-2.56.66.07,1.32.15,1.76.28.17.04.22.13.22.22s-.04.2-.1.29c-.11.22-.14.6-.14,1.26v1.95Zm5.85-4.05c.07-.06.13-.04.21.03.43.34.94.9,1.33,1.5.06.08.06.15-.04.22l-.59.43c-.1.07-.17.06-.24-.04-.42-.64-.87-1.18-1.42-1.62l.74-.52Zm1.25-.91c.08-.06.13-.04.21.03.52.39,1.02.95,1.33,1.44.06.08.07.17-.04.25l-.56.43c-.11.08-.18.04-.24-.04-.38-.6-.83-1.13-1.4-1.61l.7-.5Z" fill="#0091c2"/>
          <path d="m139.71,40.41c.24.07.27.24.18.43-.15.31-.17.62-.17.95-.03,1.75-.29,3.08-.76,4.12-.36.85-.98,1.76-1.99,2.63-.14.11-.25.18-.36.18-.08,0-.17-.04-.27-.11-.35-.24-.69-.41-1.19-.59,1.09-.83,1.83-1.68,2.33-2.79.39-.95.57-1.72.59-3.96,0-.53-.03-.76-.14-1.18.8.1,1.44.2,1.78.31Zm3.11,5.93c.69-.36,1.33-.8,1.99-1.3.84-.64,1.67-1.39,2.45-2.38.06.49.2.95.43,1.41.04.1.08.17.08.24,0,.1-.06.2-.21.35-.7.71-1.34,1.29-2.07,1.83-.73.56-1.51,1.11-2.49,1.68-.25.17-.28.2-.41.29-.08.07-.18.11-.28.11-.08,0-.18-.04-.29-.11-.31-.21-.63-.57-.84-.85-.08-.13-.13-.21-.13-.29,0-.07.01-.13.06-.21.1-.18.08-.35.08-1.06v-4.38c0-1.22,0-1.79-.14-2.44.56.07,1.33.17,1.75.29.18.04.25.13.25.24,0,.08-.04.21-.11.35-.13.27-.13.55-.13,1.55v4.68Z" fill="#0091c2"/>
          <path d="m153.76,42.09c.18-.07.22-.04.29.1.41.84.71,1.62.94,2.52.04.15,0,.2-.17.25l-.7.21c-.17.06-.21.04-.24-.11l-.15-.6-.87.08v3.85c0,1.29.03,1.76.03,1.83,0,.14-.01.15-.15.15h-1.06c-.14,0-.15-.01-.15-.15,0-.08.03-.55.03-1.83v-3.73l-1.27.08c-.24.01-.42.06-.52.11-.06.03-.13.07-.21.07-.1,0-.13-.1-.15-.24-.08-.36-.14-.73-.2-1.18.41.03.78.04,1.19.03.27-.34.53-.7.78-1.06-.56-.7-1.22-1.4-1.88-2.03-.06-.06-.08-.08-.08-.13s.04-.1.1-.18l.49-.7c.06-.08.1-.13.14-.13s.07.03.13.08l.36.38c.28-.48.52-.91.76-1.44.18-.38.25-.6.32-.87.38.14.84.32,1.19.5.14.07.18.14.18.22,0,.07-.06.13-.13.18-.11.08-.17.15-.27.34-.43.77-.8,1.33-1.23,1.93.22.25.45.49.66.74.32-.52.63-1.04.94-1.55.17-.31.31-.66.42-.97.42.2.85.41,1.18.6.13.07.17.13.17.21,0,.1-.04.15-.15.21-.14.08-.25.24-.46.56-.71,1.13-1.47,2.2-2.12,3.04.5-.03,1.01-.07,1.51-.11-.1-.27-.21-.55-.34-.81-.06-.14-.06-.17.14-.25l.56-.22Zm-4.01,4.17c.03-.27.04-.48.01-.78.35.04.84.14,1.08.2.17.04.24.1.24.17s-.03.13-.07.2-.06.24-.08.46c-.1.83-.25,1.82-.49,2.61-.07.22-.11.31-.2.31-.06,0-.14-.04-.25-.11-.29-.17-.56-.28-.8-.36.29-.91.49-1.77.56-2.68Zm4.37-.77c.17-.04.18-.03.24.13.22.71.43,1.53.52,2.34.01.15,0,.2-.18.25l-.67.18c-.22.06-.24.04-.25-.1-.1-.91-.25-1.71-.45-2.42-.04-.15,0-.18.17-.22l.63-.15Zm4.68,1.36v1.85h1.32c1.33,0,1.78-.03,1.85-.03.15,0,.17.01.17.14v.99c0,.14-.01.15-.17.15-.07,0-.52-.03-1.85-.03h-3.84c-1.34,0-1.79.03-1.88.03-.14,0-.15-.01-.15-.15v-.99c0-.13.01-.14.15-.14.08,0,.53.03,1.88.03h1.15v-1.85h-.43c-1.19,0-1.6.03-1.68.03-.14,0-.15-.01-.15-.15v-.94c0-.14.01-.15.15-.15.08,0,.49.03,1.68.03h.43v-.31c0-.62,0-1.05-.08-1.46.52.01.91.06,1.39.11.14.01.22.08.22.15,0,.08-.03.15-.07.25-.07.15-.08.39-.08.87v.38h.81c1.19,0,1.6-.03,1.68-.03.15,0,.17.01.17.15v.94c0,.14-.01.15-.17.15-.08,0-.49-.03-1.68-.03h-.81Zm1.2-8.64c.15,0,.25-.03.32-.07.06-.03.11-.06.18-.06.1,0,.28.1.59.38.35.31.46.46.46.56s-.04.14-.17.24c-.11.08-.25.32-.39.6-.43.88-.97,1.64-1.64,2.3.77.42,1.68.71,2.79.94-.2.28-.36.62-.49,1.04-.07.25-.1.34-.22.34-.07,0-.17-.03-.32-.07-1.09-.34-2.03-.77-2.84-1.33-.69.48-1.48.87-2.41,1.22-.17.06-.27.1-.35.1-.11,0-.17-.08-.27-.29-.18-.38-.35-.6-.6-.88.97-.27,1.82-.62,2.56-1.05-.71-.73-1.27-1.64-1.72-2.76-.48.01-.67.03-.73.01-.14-.03-.15,0-.15-.14v-.94c0-.14.01-.15.15-.15.08,0,.49.03,1.75.03h3.5Zm-3.15,1.18c.36.83.83,1.47,1.4,2,.63-.56,1.12-1.23,1.44-2h-2.84Z" fill="#0091c2"/>
          <path d="m166.2,37.68c.18-.07.22-.04.31.06.34.45.62.9.81,1.32.07.13.07.14-.13.21l-.98.32h5.59c.28-.48.52-.88.71-1.34.07-.18.15-.41.22-.7.48.11.94.25,1.33.41.13.06.18.1.18.18,0,.11-.04.17-.13.24-.1.07-.21.18-.29.34-.2.32-.35.6-.53.88h.28c1.29,0,1.75-.03,1.85-.03.14,0,.15.01.15.15,0,.08-.03.35-.03.74v.62c0,1.23.03,1.46.03,1.54,0,.14-.01.15-.15.15h-1.12c-.14,0-.15-.01-.15-.15v-1.82h-9.01v1.81c0,.15-.01.17-.15.17h-1.12c-.14,0-.15-.01-.15-.17,0-.08.03-.31.03-1.54v-.5c0-.49-.03-.74-.03-.84,0-.14.01-.15.15-.15.1,0,.56.03,1.85.03h.32s-.04-.04-.07-.11c-.18-.45-.45-.91-.71-1.29-.08-.13-.07-.15.1-.21l.84-.29Zm5,3.96c1.26,0,1.71-.03,1.81-.03.13,0,.14.01.14.17,0,.07-.03.31-.03.95v1.23c0,.64.03.88.03.97,0,.14-.01.15-.14.15-.1,0-.55-.03-1.81-.03h-1.06c-.13.35-.27.66-.39.94h2.66c1.37,0,1.86-.01,1.96-.01.14,0,.14.01.14.15,0,.08-.01.42-.01,1.08v.9c0,1.65.01,1.96.01,2.05,0,.13,0,.14-.14.14h-1.18c-.14,0-.15-.01-.15-.14v-.42h-6.75v.48c0,.14-.01.15-.14.15h-1.19c-.14,0-.15-.01-.15-.15,0-.08.03-.39.03-2.07v-.76c0-.83-.03-1.16-.03-1.25,0-.14.01-.15.15-.15.1,0,.59.01,1.96.01h1.36c.14-.29.28-.62.39-.94h-.57c-1.27,0-1.72.03-1.81.03-.13,0-.14-.01-.14-.15,0-.1.03-.32.03-.97v-1.23c0-.64-.03-.88-.03-.95,0-.15.01-.17.14-.17.08,0,.53.03,1.81.03h3.11Zm-4.92,6.88h6.75v-1.29h-6.75v1.29Zm1.29-4.57h4.16v-1.22h-4.16v1.22Zm1.98-6.43c.17-.06.21-.03.28.1.24.38.5.91.7,1.4.06.11.04.14-.15.2l-.94.28c-.21.06-.22.04-.28-.11-.2-.46-.41-.94-.66-1.37-.08-.14-.04-.15.13-.21l.92-.28Z" fill="#0091c2"/>
        </g>
        <g>
          <path d="m141.31,130.95c-.91,0-1.71.04-2.31.07-.18.01-.24-.08-.27-.28-.04-.28-.1-1.01-.13-1.41.63.07,1.37.1,2.69.1h5c.42,0,.57-.03.77-.14.07-.04.14-.06.21-.06.08,0,.17.03.27.07.38.24.76.59,1.02.92.07.08.1.15.1.24,0,.13-.07.24-.2.35-.13.13-.2.27-.32.55-.69,1.65-1.54,3.19-2.72,4.55-1.2,1.37-2.56,2.54-3.98,3.33-.13.08-.25.13-.38.13-.11,0-.24-.04-.35-.15-.32-.31-.78-.56-1.3-.77,2.05-1.04,3.29-2,4.58-3.5,1.09-1.25,1.81-2.44,2.37-3.99h-5.06Z" fill="#0091c2"/>
          <path d="m155.52,137.27c0,.67.03,1.57.04,2.28.01.17-.07.24-.24.25-.36.03-.77.03-1.13,0-.15-.01-.24-.08-.22-.25.01-.8.04-1.5.04-2.24v-2.4c-.95.8-2.19,1.65-2.9,2.02-.06.04-.13.06-.18.06-.1,0-.21-.06-.28-.14-.25-.29-.63-.57-1.01-.7,2.2-1.15,4.1-2.62,5.81-4.55.32-.38.56-.73.74-1.2.48.28,1.06.64,1.29.84.1.08.15.18.15.25,0,.1-.07.2-.21.27-.18.1-.5.43-.63.57-.36.42-.78.88-1.27,1.36v3.59Z" fill="#0091c2"/>
          <path d="m162.47,134.78c-1.39,0-1.92.17-2.06.17-.17,0-.28-.08-.32-.29-.07-.32-.15-.98-.21-1.7.91.14,1.61.17,3.03.17h4.51c1.06,0,2.14-.03,3.22-.04.21-.01.25.03.25.2.03.42.03.9,0,1.32,0,.17-.06.22-.25.21-1.05-.01-2.09-.03-3.12-.03h-5.04Z" fill="#0091c2"/>
        </g>
        <g>
          <line x1="177.94" y1="73.66" x2="126.06" y2="73.66" fill="none" stroke="#0091c2" stroke-miterlimit="10" stroke-width="2.5"/>
          <polyline points="168.95 63.62 178.98 73.66 168.95 83.69" fill="none" stroke="#0091c2" stroke-miterlimit="10" stroke-width="2.3"/>
        </g>
        <g>
          <line x1="127.11" y1="108.69" x2="178.98" y2="108.69" fill="none" stroke="#0091c2" stroke-miterlimit="10" stroke-width="2.3"/>
          <polyline points="136.09 118.72 126.06 108.69 136.09 98.66" fill="none" stroke="#0091c2" stroke-miterlimit="10" stroke-width="2.3"/>
        </g>
        <g>
          <g>
            <path d="m318.96,35.84v69.92c0,.77.5,1.53,1.51,2.11l23.27,13.43c2.01,1.16,5.3,1.16,7.31,0l23.27-13.43c1.01-.58,1.51-1.35,1.51-2.11V35.84h-56.86Z" fill="#9ca6ad"/>
            <path d="m320.47,37.95c-1.01-.58-1.51-1.35-1.51-2.11,0-.77.5-1.53,1.51-2.11l23.27-13.43c2.01-1.16,5.3-1.16,7.31,0l23.27,13.43c1.01.58,1.51,1.35,1.51,2.11s-.5,1.53-1.51,2.11l-23.27,13.43c-2.01,1.16-5.3,1.16-7.31,0l-23.27-13.43Z" fill="#b5c1b9"/>
          </g>
          <g>
            <path d="m325.05,14.65v21.19c0,.6.4,1.2,1.19,1.66l18.28,10.55c1.58.91,4.17.91,5.75,0l18.28-10.55c.79-.46,1.19-1.06,1.19-1.66V14.65h-44.68Z" fill="#9ca6ad"/>
            <path d="m326.23,16.31c-.79-.46-1.19-1.06-1.19-1.66s.4-1.2,1.19-1.66l18.28-10.55c1.58-.91,4.17-.91,5.75,0l18.28,10.55c.79.46,1.19,1.06,1.19,1.66s-.4,1.2-1.19,1.66l-18.28,10.55c-1.58.91-4.17.91-5.75,0l-18.28-10.55Z" fill="#b5c1b9"/>
          </g>
          <polygon points="323.17 102.31 321.41 101.3 321.41 73.29 323.17 74.3 323.17 102.31" fill="#dae0f5" mix-blend-mode="multiply"/>
          <polygon points="327.86 105.02 326.11 104.01 326.11 76 327.86 77.01 327.86 105.02" fill="#dae0f5" mix-blend-mode="multiply"/>
          <polygon points="332.55 107.73 330.8 106.72 330.8 78.71 332.55 79.72 332.55 107.73" fill="#dae0f5" mix-blend-mode="multiply"/>
          <polygon points="337.24 110.43 335.49 109.42 335.49 81.41 337.24 82.42 337.24 110.43" fill="#dae0f5" mix-blend-mode="multiply"/>
          <polygon points="341.93 113.14 340.18 112.13 340.18 84.12 341.93 85.13 341.93 113.14" fill="#dae0f5" mix-blend-mode="multiply"/>
          <polygon points="323.17 70.21 321.41 69.2 321.41 44.33 323.17 45.34 323.17 70.21" fill="#dae0f5" mix-blend-mode="multiply"/>
          <polygon points="327.86 72.92 326.11 71.91 326.11 47.03 327.86 48.05 327.86 72.92" fill="#dae0f5" mix-blend-mode="multiply"/>
          <polygon points="332.55 75.63 330.8 74.61 330.8 49.74 332.55 50.75 332.55 75.63" fill="#dae0f5" mix-blend-mode="multiply"/>
          <polygon points="337.24 78.33 335.49 77.32 335.49 52.45 337.24 53.46 337.24 78.33" fill="#dae0f5" mix-blend-mode="multiply"/>
          <polygon points="341.93 81.04 340.18 80.03 340.18 55.16 341.93 56.17 341.93 81.04" fill="#dae0f5" mix-blend-mode="multiply"/>
          <polygon points="371.61 102.31 373.36 101.3 373.36 73.29 371.61 74.3 371.61 102.31" fill="#dae0f5" mix-blend-mode="multiply"/>
          <polygon points="366.92 105.02 368.67 104.01 368.67 76 366.92 77.01 366.92 105.02" fill="#dae0f5" mix-blend-mode="multiply"/>
          <polygon points="362.23 107.73 363.98 106.72 363.98 78.71 362.23 79.72 362.23 107.73" fill="#dae0f5" mix-blend-mode="multiply"/>
          <polygon points="357.54 110.43 359.29 109.42 359.29 81.41 357.54 82.42 357.54 110.43" fill="#dae0f5" mix-blend-mode="multiply"/>
          <polygon points="352.85 113.14 354.6 112.13 354.6 84.12 352.85 85.13 352.85 113.14" fill="#dae0f5" mix-blend-mode="multiply"/>
          <polygon points="371.61 70.21 373.36 69.2 373.36 44.33 371.61 45.34 371.61 70.21" fill="#dae0f5" mix-blend-mode="multiply"/>
          <polygon points="366.92 72.92 368.67 71.91 368.67 47.03 366.92 48.05 366.92 72.92" fill="#dae0f5" mix-blend-mode="multiply"/>
          <polygon points="362.23 75.63 363.98 74.61 363.98 49.74 362.23 50.75 362.23 75.63" fill="#dae0f5" mix-blend-mode="multiply"/>
          <polygon points="357.54 78.33 359.29 77.32 359.29 52.45 357.54 53.46 357.54 78.33" fill="#dae0f5" mix-blend-mode="multiply"/>
          <polygon points="352.85 81.04 354.6 80.03 354.6 55.16 352.85 56.17 352.85 81.04" fill="#dae0f5" mix-blend-mode="multiply"/>
        </g>
        <g>
          <g>
            <path d="m255.76,57.99v69.92c0,.77.5,1.53,1.51,2.11l23.27,13.43c2.01,1.16,5.3,1.16,7.31,0l23.27-13.43c1.01-.58,1.51-1.35,1.51-2.11V57.99h-56.86Z" fill="#99adbf"/>
            <path d="m257.26,60.1c-1.01-.58-1.51-1.35-1.51-2.11,0-.77.5-1.53,1.51-2.11l23.27-13.43c2.01-1.16,5.3-1.16,7.31,0l23.27,13.43c1.01.58,1.51,1.35,1.51,2.11s-.5,1.53-1.51,2.11l-23.27,13.43c-2.01,1.16-5.3,1.16-7.31,0l-23.27-13.43Z" fill="#afbfcd"/>
          </g>
          <g>
            <path d="m261.85,36.8v21.19c0,.6.4,1.2,1.19,1.66l18.28,10.55c1.58.91,4.17.91,5.75,0l18.28-10.55c.79-.46,1.19-1.06,1.19-1.66v-21.19h-44.68Z" fill="#99adbf"/>
            <path d="m263.03,38.46c-.79-.46-1.19-1.06-1.19-1.66s.4-1.2,1.19-1.66l18.28-10.55c1.58-.91,4.17-.91,5.75,0l18.28,10.55c.79.46,1.19,1.06,1.19,1.66s-.4,1.2-1.19,1.66l-18.28,10.55c-1.58.91-4.17.91-5.75,0l-18.28-10.55Z" fill="#afbfcd"/>
          </g>
          <g>
            <path d="m269.27,22.65v14.15c0,.4.26.8.79,1.11l12.21,7.05c1.06.61,2.78.61,3.84,0l12.21-7.05c.53-.3.79-.71.79-1.11v-14.15h-29.83Z" fill="#99adbf"/>
            <path d="m267.76,21.24v1.4c0,.44.29.88.87,1.22l13.44,7.76c1.16.67,3.06.67,4.22,0l13.44-7.76c.58-.34.87-.78.87-1.22v-1.4h-32.84Z" fill="#99adbf"/>
            <path d="m268.64,22.46c-.58-.34-.87-.78-.87-1.22s.29-.88.87-1.22l13.44-7.76c1.16-.67,3.06-.67,4.22,0l13.44,7.76c.58.34.87.78.87,1.22,0,.44-.29.88-.87,1.22l-13.44,7.76c-1.16.67-3.06.67-4.22,0l-13.44-7.76Z" fill="#afbfcd"/>
          </g>
          <polygon points="259.96 124.46 258.21 123.45 258.21 95.44 259.96 96.45 259.96 124.46" fill="#dae0f5" mix-blend-mode="multiply"/>
          <polygon points="264.65 127.17 262.9 126.16 262.9 98.15 264.65 99.16 264.65 127.17" fill="#dae0f5" mix-blend-mode="multiply"/>
          <polygon points="269.34 129.88 267.59 128.86 267.59 100.86 269.34 101.87 269.34 129.88" fill="#dae0f5" mix-blend-mode="multiply"/>
          <polygon points="274.04 132.58 272.28 131.57 272.28 103.56 274.04 104.57 274.04 132.58" fill="#dae0f5" mix-blend-mode="multiply"/>
          <polygon points="278.73 135.29 276.97 134.28 276.97 106.27 278.73 107.28 278.73 135.29" fill="#dae0f5" mix-blend-mode="multiply"/>
          <polygon points="259.96 92.36 258.21 91.35 258.21 66.48 259.96 67.49 259.96 92.36" fill="#dae0f5" mix-blend-mode="multiply"/>
          <polygon points="264.65 95.07 262.9 94.06 262.9 69.18 264.65 70.2 264.65 95.07" fill="#dae0f5" mix-blend-mode="multiply"/>
          <polygon points="269.34 97.78 267.59 96.76 267.59 71.89 269.34 72.9 269.34 97.78" fill="#dae0f5" mix-blend-mode="multiply"/>
          <polygon points="274.04 100.48 272.28 99.47 272.28 74.6 274.04 75.61 274.04 100.48" fill="#dae0f5" mix-blend-mode="multiply"/>
          <polygon points="278.73 103.19 276.97 102.18 276.97 77.31 278.73 78.32 278.73 103.19" fill="#dae0f5" mix-blend-mode="multiply"/>
          <polygon points="308.41 124.46 310.16 123.45 310.16 95.44 308.41 96.45 308.41 124.46" fill="#dae0f5" mix-blend-mode="multiply"/>
          <polygon points="303.72 127.17 305.47 126.16 305.47 98.15 303.72 99.16 303.72 127.17" fill="#dae0f5" mix-blend-mode="multiply"/>
          <polygon points="299.03 129.88 300.78 128.86 300.78 100.86 299.03 101.87 299.03 129.88" fill="#dae0f5" mix-blend-mode="multiply"/>
          <polygon points="294.34 132.58 296.09 131.57 296.09 103.56 294.34 104.57 294.34 132.58" fill="#dae0f5" mix-blend-mode="multiply"/>
          <polygon points="289.65 135.29 291.4 134.28 291.4 106.27 289.65 107.28 289.65 135.29" fill="#dae0f5" mix-blend-mode="multiply"/>
          <polygon points="308.41 92.36 310.16 91.35 310.16 66.48 308.41 67.49 308.41 92.36" fill="#dae0f5" mix-blend-mode="multiply"/>
          <polygon points="303.72 95.07 305.47 94.06 305.47 69.18 303.72 70.2 303.72 95.07" fill="#dae0f5" mix-blend-mode="multiply"/>
          <polygon points="299.03 97.78 300.78 96.76 300.78 71.89 299.03 72.9 299.03 97.78" fill="#dae0f5" mix-blend-mode="multiply"/>
          <polygon points="294.34 100.48 296.09 99.47 296.09 74.6 294.34 75.61 294.34 100.48" fill="#dae0f5" mix-blend-mode="multiply"/>
          <polygon points="289.65 103.19 291.4 102.18 291.4 77.31 289.65 78.32 289.65 103.19" fill="#dae0f5" mix-blend-mode="multiply"/>
        </g>
        <g>
          <g>
            <path d="m306.51,79.95v64.5c0,.68.45,1.36,1.34,1.88l20.68,11.94c1.79,1.03,4.71,1.03,6.5,0l20.68-11.94c.89-.52,1.34-1.2,1.34-1.88v-64.5h-50.54Z" fill="#a0b7bd"/>
            <path d="m307.85,81.82c-.89-.52-1.34-1.2-1.34-1.88,0-.68.45-1.36,1.34-1.88l20.68-11.94c1.79-1.03,4.71-1.03,6.5,0l20.68,11.94c.89.52,1.34,1.2,1.34,1.88s-.45,1.36-1.34,1.88l-20.68,11.94c-1.79,1.03-4.71,1.03-6.5,0l-20.68-11.94Z" fill="#b3cccf"/>
          </g>
          <g>
            <path d="m311.92,76.24v3.71c0,.53.35,1.07,1.05,1.47l16.25,9.38c1.4.81,3.7.81,5.11,0l16.25-9.38c.7-.41,1.05-.94,1.05-1.47v-3.71h-39.71Z" fill="#a0b7bd"/>
            <path d="m312.98,77.72c-.7-.41-1.05-.94-1.05-1.47s.35-1.07,1.05-1.47l16.25-9.38c1.4-.81,3.7-.81,5.11,0l16.25,9.38c.7.41,1.05.94,1.05,1.47s-.35,1.07-1.05,1.47l-16.25,9.38c-1.4.81-3.7.81-5.11,0l-16.25-9.38Z" fill="#b3cccf"/>
          </g>
          <g>
            <path d="m316.29,72.54v3.71c0,.42.27.83.82,1.15l12.68,7.32c1.1.63,2.89.63,3.99,0l12.68-7.32c.55-.32.82-.73.82-1.15v-3.71h-30.98Z" fill="#a0b7bd"/>
            <path d="m317.11,73.69c-.55-.32-.82-.73-.82-1.15s.27-.83.82-1.15l12.68-7.32c1.1-.63,2.89-.63,3.99,0l12.68,7.32c.55.32.82.73.82,1.15,0,.42-.27.83-.82,1.15l-12.68,7.32c-1.1.63-2.89.63-3.99,0l-12.68-7.32Z" fill="#b3cccf"/>
          </g>
          <g>
            <path d="m327.15,68.15v4.39c0,.12.08.25.25.34l3.79,2.19c.33.19.86.19,1.19,0l3.79-2.19c.16-.09.25-.22.25-.34v-4.39h-9.25Z" fill="#a0b7bd"/>
            <path d="m327.4,68.49c-.16-.09-.25-.22-.25-.34s.08-.25.25-.34l3.79-2.19c.33-.19.86-.19,1.19,0l3.79,2.19c.16.09.25.22.25.34s-.08.25-.25.34l-3.79,2.19c-.33.19-.86.19-1.19,0l-3.79-2.19Z" fill="#b3cccf"/>
          </g>
          <polygon points="313.34 143.26 308.53 140.48 308.53 87.48 313.34 90.25 313.34 143.26" fill="#dae0f5" mix-blend-mode="multiply"/>
          <polygon points="320.43 147.35 315.62 144.58 315.62 91.57 320.43 94.35 320.43 147.35" fill="#dae0f5" mix-blend-mode="multiply"/>
          <polygon points="327.52 151.45 322.71 148.67 322.71 95.67 327.52 98.44 327.52 151.45" fill="#dae0f5" mix-blend-mode="multiply"/>
          <polygon points="350.22 143.26 355.02 140.48 355.02 87.48 350.22 90.25 350.22 143.26" fill="#dae0f5" mix-blend-mode="multiply"/>
          <polygon points="343.13 147.35 347.93 144.58 347.93 91.57 343.13 94.35 343.13 147.35" fill="#dae0f5" mix-blend-mode="multiply"/>
        </g>
        <g>
          <g>
            <path d="m30.71,184.53h-1.81v-5.49c0-1.36.01-2.55.03-3.84h-.2c-.28,1.25-.53,2.37-.9,3.7l-1.47,5.63h-2.21l-1.43-5.56c-.34-1.26-.6-2.44-.92-3.77h-.2c.03,1.26.04,2.52.04,3.87v5.46h-1.67v-10.87h3.07l1.37,5.55c.28,1.13.56,2.4.78,3.59h.2c.29-1.19.52-2.31.84-3.56l1.39-5.57h3.08v10.87Z"/>
            <path d="m40.47,175.16h-5.25v2.93h3.98v1.5h-3.98v4.94h-1.9v-10.87h7.16v1.5Z"/>
            <path d="m46.08,173.66c2.72,0,3.71.99,3.71,2.7,0,1.25-.84,2.14-2.16,2.37v.1c1.61.27,2.49,1.22,2.49,2.62,0,1.92-1.37,3.08-3.85,3.08h-4.08v-10.87h3.88Zm-2.03,4.47h1.65c1.48,0,2.21-.62,2.21-1.58s-.53-1.47-2.04-1.47h-1.82v3.05Zm0,4.99h2.02c1.44,0,2.16-.67,2.16-1.81s-.88-1.76-2.4-1.76h-1.78v3.57Z"/>
            <path d="m62.86,184.53h-1.81v-5.49c0-1.36.01-2.55.03-3.84h-.2c-.28,1.25-.53,2.37-.9,3.7l-1.47,5.63h-2.21l-1.43-5.56c-.34-1.26-.6-2.44-.92-3.77h-.2c.03,1.26.04,2.52.04,3.87v5.46h-1.67v-10.87h3.07l1.37,5.55c.28,1.13.56,2.4.78,3.59h.2c.29-1.19.52-2.31.84-3.56l1.39-5.57h3.08v10.87Z"/>
          </g>
          <polyline points="5.48 189.45 .5 189.45 .5 168.7 5.48 168.7" fill="none" stroke="#000" stroke-miterlimit="10"/>
          <polyline points="78.35 189.45 83.33 189.45 83.33 168.7 78.35 168.7" fill="none" stroke="#000" stroke-miterlimit="10"/>
        </g>
        <g>
          <g>
            <path d="m247.74,178.13c1.23-.41,2.3-.81,3.42-1.36.76-.36,1.11-.59,1.5-1.01.49.41.95.98,1.16,1.26.07.08.11.17.11.25,0,.11-.07.21-.24.25-.39.1-.78.29-1.16.46-1.39.63-2.96,1.19-4.8,1.74v1.86c0,.66.1.88.46.99.36.1.91.15,1.76.15,1.32,0,2.49-.1,3.95-.32.21-.03.24.03.25.2.04.39.08.92.08,1.22,0,.18-.08.24-.29.25-1.58.2-2.4.25-4.16.25-1.25,0-2.07-.13-2.66-.38-.7-.29-.99-.95-.99-2.1v-5.17c0-1.33-.03-1.86-.14-2.56.66.07,1.32.15,1.76.28.17.04.22.13.22.22s-.04.2-.1.29c-.11.22-.14.6-.14,1.26v1.95Zm5.85-4.05c.07-.06.13-.04.21.03.43.34.94.9,1.33,1.5.06.08.06.15-.04.22l-.59.43c-.1.07-.17.06-.24-.04-.42-.64-.87-1.18-1.41-1.62l.74-.52Zm1.25-.91c.08-.06.13-.04.21.03.52.39,1.02.95,1.33,1.44.06.08.07.17-.04.25l-.56.43c-.11.08-.18.04-.24-.04-.38-.6-.83-1.13-1.4-1.61l.7-.5Z"/>
            <path d="m261.07,175.63c.24.07.27.24.18.43-.15.31-.17.62-.17.95-.03,1.75-.29,3.08-.76,4.12-.36.85-.98,1.76-1.99,2.63-.14.11-.25.18-.36.18-.08,0-.17-.04-.27-.11-.35-.24-.69-.41-1.19-.59,1.09-.83,1.83-1.68,2.33-2.79.39-.95.57-1.72.59-3.96,0-.53-.03-.76-.14-1.18.8.1,1.44.2,1.78.31Zm3.11,5.93c.69-.36,1.33-.8,1.99-1.3.84-.64,1.67-1.39,2.45-2.38.06.49.2.95.43,1.41.04.1.08.17.08.24,0,.1-.06.2-.21.35-.7.71-1.34,1.29-2.07,1.83-.73.56-1.51,1.11-2.49,1.68-.25.17-.28.2-.41.29-.08.07-.18.11-.28.11-.08,0-.18-.04-.29-.11-.31-.21-.63-.57-.84-.85-.08-.13-.13-.21-.13-.29,0-.07.01-.13.06-.21.1-.18.08-.35.08-1.06v-4.38c0-1.22,0-1.79-.14-2.44.56.07,1.33.17,1.75.29.18.04.25.13.25.24,0,.08-.04.21-.11.35-.13.27-.13.55-.13,1.55v4.68Z"/>
            <path d="m276.92,178.85c-.55.78-1.12,1.4-1.98,2.16-.71.66-1.79,1.48-2.65,1.96-.13.08-.22.13-.32.13-.08,0-.17-.04-.24-.14-.28-.34-.76-.67-1.15-.83,1.43-.78,2.31-1.37,3.26-2.21.83-.73,1.5-1.4,2.06-2.17h-2.45c-.73.01-1.51.04-2.24.08-.13.01-.18-.08-.2-.24-.06-.27-.08-.84-.11-1.36.84.06,1.67.07,2.51.07h3.33l-.06-1.25c-.03-.7-.1-1.2-.22-1.65.76.03,1.33.07,1.76.15.14.03.18.08.18.17,0,.06-.03.13-.06.21-.04.17-.1.39-.06,1.29l.04,1.06h1.22c.98,0,1.68-.03,2.72-.07.14,0,.21.07.21.17.01.39.01.83,0,1.22,0,.11-.06.2-.2.2-1.02-.04-1.82-.07-2.69-.07h-1.13l.25,5.27c.04.74-.21,1.2-.67,1.48-.48.28-1.29.49-1.93.49-.27,0-.36-.06-.43-.24-.22-.52-.46-.84-.98-1.25,1.05-.01,1.5-.04,1.98-.14.32-.07.43-.21.41-.83l-.17-3.67Z"/>
            <path d="m286.72,180.18c-1.39,0-1.92.17-2.06.17-.17,0-.28-.08-.32-.29-.07-.32-.15-.98-.21-1.7.91.14,1.61.17,3.03.17h4.51c1.06,0,2.14-.03,3.22-.04.21-.01.25.03.25.2.03.42.03.9,0,1.32,0,.17-.06.22-.25.21-1.05-.01-2.09-.03-3.12-.03h-5.04Z"/>
            <path d="m305.58,176.9c.78,0,1.71-.01,2.44-.03.2-.01.25.01.27.25.03.35.03.74,0,1.09,0,.22-.06.27-.27.27-.5,0-1.57-.06-2.35-.06h-1.99c-.14,2.03-.35,2.83-.95,3.82-.66,1.11-1.78,2.13-2.98,2.76-.11.07-.21.1-.32.1s-.21-.04-.31-.14c-.35-.32-.69-.56-1.18-.77,1.58-.76,2.51-1.5,3.18-2.54.55-.84.78-1.75.85-3.24h-2.7c-.69,0-1.48.06-2.02.07-.18.01-.22-.06-.25-.27-.04-.28-.07-.87-.1-1.39.91.07,1.7.07,2.38.07h2.76c0-.7,0-1.46-.01-2.07-.01-.45-.03-.85-.17-1.41.7.03,1.41.08,1.86.2.15.04.21.1.21.2,0,.08-.04.18-.1.31-.06.13-.11.46-.11.85,0,.66,0,1.12-.01,1.92h1.88Z"/>
            <path d="m312.63,180.18c-1.39,0-1.92.17-2.06.17-.17,0-.28-.08-.32-.29-.07-.32-.15-.98-.21-1.7.91.14,1.61.17,3.03.17h4.51c1.06,0,2.14-.03,3.22-.04.21-.01.25.03.25.2.03.42.03.9,0,1.32,0,.17-.06.22-.25.21-1.05-.01-2.09-.03-3.12-.03h-5.04Z"/>
          </g>
          <g>
            <path d="m149.09,206.77c0,1.7-1.38,3.07-3.07,3.07s-3.07-1.37-3.07-3.07,1.38-3.07,3.07-3.07,3.07,1.38,3.07,3.07Z" fill="#0091c2"/>
            <path d="m163.67,211.05c0,.07-.01.08-.1.08-.07,0-.44-.02-1.58-.02h-6.96c-1.14,0-1.52.02-1.58.02-.08,0-.1-.01-.1-.08v-.61c0-.08.01-.1.1-.1.06,0,.44.02,1.58.02h6.96c1.14,0,1.51-.02,1.58-.02.08,0,.1.01.1.1v.61Zm-.94-7.87c0,.08-.01.1-.1.1-.07,0-.48-.02-1.69-.02h-4.84c-1.22,0-1.63.02-1.69.02-.08,0-.1-.01-.1-.1v-.59c0-.08.01-.1.1-.1.06,0,.47.02,1.69.02h4.84c1.21,0,1.62-.02,1.69-.02.08,0,.1.01.1.1v.59Zm-.77,3.72c0,.08-.01.1-.1.1-.06,0-.46-.02-1.64-.02h-3.43c-1.19,0-1.58.02-1.64.02-.08,0-.1-.01-.1-.1v-.59c0-.08.01-.1.1-.1.06,0,.46.02,1.64.02h3.43c1.19,0,1.58-.02,1.64-.02.08,0,.1.01.1.1v.59Z"/>
            <path d="m176.53,208.26c0,.08-.01.1-.08.1s-.43-.02-1.55-.02h-1.32v1.62c0,1.36.02,1.94.02,2,0,.08-.01.1-.1.1h-.6c-.08,0-.1-.01-.1-.1,0-.06.02-.65.02-2v-1.62h-3.12c-.06.34-.14.66-.25,1-.38,1.16-1,1.94-2.04,2.65-.08.06-.13.1-.18.1-.06,0-.1-.05-.19-.16-.12-.14-.31-.28-.48-.36,1.16-.64,1.82-1.38,2.19-2.57.07-.2.12-.43.17-.66h-1.32c-1.12,0-1.49.02-1.55.02-.08,0-.1-.01-.1-.1v-.55c0-.08.01-.1.1-.1.06,0,.43.02,1.55.02h1.42c.06-.54.07-1.14.07-1.82v-.97h-.91c-1.18,0-1.56.02-1.63.02-.08,0-.1-.01-.1-.1v-.55c0-.08.01-.1.1-.1.07,0,.46.02,1.63.02h.91v-.71c0-.74-.01-1.26-.08-1.8.3.01.58.04.82.07.1.01.16.05.16.12,0,.06-.04.12-.07.23-.05.16-.07.41-.07,1.4v.68h2.99v-.88c0-.85-.02-1.18-.1-1.64.31.01.59.04.83.06.08.01.14.05.14.11,0,.07-.04.12-.06.22-.05.14-.07.43-.07,1.24v.9h.86c1.18,0,1.57-.02,1.63-.02.08,0,.1.01.1.1v.55c0,.08-.01.1-.1.1-.06,0-.46-.02-1.63-.02h-.86v2.79h1.32c1.12,0,1.48-.02,1.55-.02s.08.01.08.1v.55Zm-3.69-3.42h-2.99v.96c0,.7-.01,1.28-.06,1.84h3.05v-2.79Z"/>
            <path d="m189.15,203.01c0,.08-.01.1-.1.1-.07,0-.44-.02-1.58-.02h-2.66c-.19.4-.4.78-.61,1.14v6.02c0,1.18.02,1.68.02,1.74,0,.08-.01.1-.1.1h-.62c-.08,0-.1-.01-.1-.1,0-.07.02-.56.02-1.74v-4.92c-1.08,1.38-2.46,2.55-4.25,3.56-.08.05-.13.07-.17.07-.05,0-.08-.05-.17-.17-.12-.17-.23-.29-.4-.4,2.41-1.22,4.44-3.02,5.53-5.31h-3.49c-1.14,0-1.52.02-1.58.02-.08,0-.1-.01-.1-.1v-.55c0-.1.01-.11.1-.11.06,0,.44.02,1.58.02h6.98c1.14,0,1.51-.02,1.58-.02.08,0,.1.01.1.11v.55Zm-3.75,2.1c.1-.07.14-.06.2.01,1.04,1.38,2.58,2.52,3.96,3.12-.13.13-.28.32-.36.47-.07.12-.1.17-.16.17-.05,0-.1-.04-.19-.08-1.48-.8-2.76-1.92-3.81-3.29-.06-.07-.05-.11.08-.2l.28-.19Z"/>
            <path d="m197.15,204.15c0,.08,0,.1-.07.1-.06,0-.43-.02-1.54-.02h-.84v.77h.65c1.02,0,1.35-.02,1.43-.02.08,0,.1.01.1.1,0,.06-.02.29-.02.98v1.18c0,.67.02.92.02.98,0,.08-.01.1-.1.1-.07,0-.31-.02-1.43-.02h-.65v.77h.64c1.06,0,1.39-.02,1.46-.02.08,0,.1.01.1.1v.43c0,.08-.01.1-.1.1-.07,0-.41-.02-1.46-.02h-.64v.86c.74-.1,1.51-.22,2.21-.36-.05.14-.07.25-.08.36-.02.25-.02.24-.26.29-1.39.28-2.82.48-4.28.65-.24.02-.42.07-.47.1-.05.02-.1.06-.14.06-.06,0-.11-.04-.14-.14-.05-.18-.12-.44-.17-.68.41.01.76,0,1.24-.04.42-.04.92-.08,1.46-.14v-.95h-.84c-1.06,0-1.39.02-1.46.02-.08,0-.1-.01-.1-.1v-.43c0-.08.01-.1.1-.1.07,0,.41.02,1.46.02h.84v-.77h-.59c-1.02,0-1.35.02-1.43.02-.08,0-.1-.01-.1-.1,0-.07.02-.31.02-.98v-1.16c0-.7-.02-.94-.02-1,0-.08.01-.1.1-.1.07,0,.41.02,1.43.02h.59v-.77h-1.02c-1.09,0-1.46.02-1.52.02-.08,0-.1-.01-.1-.1v-.44c0-.08.01-.1.1-.1.06,0,.43.02,1.52.02h1.02v-.79c-.59.08-1.18.16-1.83.22-.22.01-.24.02-.31-.14-.07-.18-.17-.31-.26-.42,1.75-.11,2.93-.3,4.13-.62.22-.06.41-.13.55-.23.19.14.35.28.47.4.07.07.1.11.1.17,0,.07-.1.11-.2.11s-.29.05-.47.08c-.53.13-1.02.24-1.51.34v.9h.84c1.1,0,1.46-.02,1.52-.02.07,0,.08.01.08.1v.44Zm-3.09,1.36h-1.45v.86h1.45v-.86Zm0,1.36h-1.45v.91h1.45v-.91Zm2.17-1.36h-1.52v.86h1.52v-.86Zm0,1.36h-1.52v.91h1.52v-.91Zm4.02-2.61c.95,0,1.25-.02,1.32-.02.08,0,.11.02.11.11-.02.37-.02.71-.02,1.07-.02,1.91-.11,3.86-.35,5.34-.14.84-.55,1.2-1.29,1.2-.34,0-.6-.01-.85-.02-.2-.01-.2-.07-.22-.2-.01-.22-.08-.42-.17-.58.4.07.77.11,1.18.11s.59-.22.68-.83c.22-1.3.31-3.32.31-5.52h-1.44c-.05,1.21-.18,2.39-.43,3.36-.42,1.54-1.03,2.71-2.29,3.71-.1.07-.13.11-.18.11-.04,0-.08-.04-.16-.11-.13-.14-.3-.25-.48-.32,1.36-.85,2.02-2.06,2.45-3.63.22-.79.34-1.92.4-3.11h-.12c-.94,0-1.22.02-1.28.02-.1,0-.11-.01-.11-.1v-.5c0-.08.01-.1.11-.1.06,0,.35.02,1.28.02h.14c.01-.46.02-.91.02-1.36,0-.74-.01-1.03-.08-1.48.28.01.53.04.78.08.08.01.13.06.13.11,0,.08-.02.14-.06.25-.05.12-.07.48-.07,1.12,0,.42,0,.85-.01,1.27h.71Z"/>
            <path d="m214.58,205.26c0,.08-.01.1-.08.1s-.47-.02-1.66-.02h-7.06v.89c0,.92-.07,1.99-.22,2.99-.13.89-.41,1.81-.95,2.71-.06.1-.08.14-.12.14s-.07-.04-.14-.11c-.14-.16-.34-.29-.47-.35.56-.77.88-1.72,1.01-2.61.13-.9.17-1.92.17-2.77,0-.98-.02-1.38-.02-1.44,0-.08.01-.1.1-.1.07,0,.48.02,1.67.02h.94c-.14-.4-.32-.78-.52-1.08-.05-.08-.05-.11.08-.17l.34-.14c.11-.05.13-.04.18.05.22.35.47.85.65,1.34h2.25c.19-.31.34-.59.48-.94.07-.17.13-.32.16-.49.24.06.5.14.68.22.08.04.11.07.11.12,0,.06-.04.11-.11.16-.07.05-.13.13-.22.28-.12.22-.24.43-.4.66h1.42c1.19,0,1.58-.02,1.66-.02s.08.01.08.1v.48Zm-.34-2.11c0,.08-.01.1-.1.1-.06,0-.47-.02-1.68-.02h-5.77c-1.21,0-1.61.02-1.67.02-.08,0-.1-.01-.1-.1v-.47c0-.1.01-.11.1-.11.06,0,.46.02,1.67.02h2.53v-.17c0-.52-.01-.83-.08-1.12.3.01.56.04.78.06.08.01.14.05.14.1,0,.08-.04.14-.07.23-.04.11-.05.29-.05.73v.17h2.53c1.2,0,1.61-.02,1.67-.02.08,0,.1.01.1.11v.47Zm.35,8.54c0,.08-.01.1-.1.1-.06,0-.47-.02-1.69-.02h-5.21c-1.21,0-1.61.02-1.68.02-.08,0-.1-.01-.1-.1v-.48c0-.08.01-.1.1-.1.07,0,.47.02,1.68.02h2.23v-1.56h-.85c-1.13,0-1.49.02-1.56.02-.08,0-.1-.01-.1-.1v-.47c0-.08.01-.1.1-.1.07,0,.43.02,1.56.02h.85v-1.38h-2.25c-.26.47-.58.91-.96,1.38-.05.06-.08.1-.12.1-.05,0-.1-.04-.17-.12-.12-.13-.24-.22-.37-.29.74-.74,1.19-1.5,1.54-2.41.06-.16.12-.36.14-.59.24.05.49.12.66.19.1.05.11.07.11.12,0,.06-.05.1-.1.14-.06.06-.12.17-.19.35-.07.17-.13.34-.22.5h1.93v-.2c0-.55-.01-.72-.08-1.13.29.01.54.04.78.06.08.01.16.06.16.1,0,.08-.05.16-.07.24-.04.12-.07.29-.07.76v.18h1.49c1.15,0,1.52-.02,1.59-.02.08,0,.1.01.1.1v.48c0,.08-.01.1-.1.1-.07,0-.44-.02-1.59-.02h-1.49v1.38h1.06c1.13,0,1.5-.02,1.56-.02.08,0,.1.01.1.1v.47c0,.08-.01.1-.1.1-.06,0-.43-.02-1.56-.02h-1.06v1.56h2.27c1.22,0,1.63-.02,1.69-.02.08,0,.1.01.1.1v.48Z"/>
            <path d="m226.94,206.77c0,1.7-1.38,3.07-3.07,3.07s-3.07-1.37-3.07-3.07,1.38-3.07,3.07-3.07,3.07,1.38,3.07,3.07Z" fill="#0091c2"/>
            <path d="m234.15,204.61c0,.08-.01.1-.11.1-.06,0-.28-.02-.98-.02.31.98.58,1.62,1.04,2.33-.1.13-.19.31-.28.49-.04.08-.07.12-.1.12-.04,0-.06-.04-.1-.12-.31-.71-.5-1.26-.72-2.18.01,3.62.12,6.62.12,6.79,0,.07-.01.08-.1.08h-.54c-.08,0-.1-.01-.1-.08,0-.17.1-3.18.12-6.68-.32,1.46-.62,2.55-1.24,3.75-.05.08-.08.13-.12.13s-.06-.04-.1-.12c-.07-.18-.19-.34-.3-.44.72-1.28,1.08-2.33,1.54-4.07h-.07c-.78,0-1,.02-1.06.02-.1,0-.11-.01-.11-.1v-.48c0-.08.01-.1.11-.1.06,0,.28.02,1.06.02h.2v-1.19c0-.72-.01-1.07-.08-1.46.29.01.49.04.73.07.08.01.14.05.14.1,0,.1-.04.16-.07.24-.06.13-.06.35-.06,1.03v1.21c.77,0,.98-.02,1.04-.02.1,0,.11.01.11.1v.48Zm4.45,3.51c.06.26.13.52.22.76.1.31.2.6.34.86.28-.25.53-.52.72-.77.16-.22.25-.37.32-.58.19.1.42.22.54.32.08.07.1.11.1.14,0,.06-.04.1-.11.13-.1.05-.22.17-.34.31-.25.31-.56.64-.94.96.42.65.89,1.04,1.21,1.04s.48-.36.58-1.54c.1.11.25.2.38.28q.23.12.18.36c-.17,1.14-.44,1.61-1.08,1.61s-1.27-.49-1.8-1.32c-.72.53-1.61,1.03-2.65,1.37-.23.07-.23.08-.34-.14-.07-.13-.17-.25-.3-.36,1.13-.26,2.17-.8,2.99-1.4-.14-.29-.28-.61-.38-.95-.12-.34-.23-.71-.31-1.09h-2.16c-.14,1.57-.58,2.82-1.57,3.78-.08.08-.12.12-.17.12s-.1-.04-.18-.13c-.11-.12-.22-.19-.35-.26,1.08-.86,1.51-1.99,1.61-3.5-.73.01-1.01.02-1.06.02-.08,0-.1-.01-.1-.1v-.46c0-.08.01-.1.1-.1.06,0,.47.02,1.68.02h2.06c-.29-1.4-.44-2.99-.52-4.53-.02-.83-.05-1.1-.13-1.54.29.01.49.04.73.07.08.01.18.06.18.11,0,.08-.04.14-.07.23-.04.1-.05.36-.04,1.09.04,1.61.22,3.21.5,4.57h1.5c1.22,0,1.62-.02,1.69-.02s.08.01.08.1v.46c0,.08-.01.1-.08.1s-.47-.02-1.69-.02h-1.35Zm-2-3.01c.08-.04.11-.04.14.04.23.38.46.92.61,1.38.04.08.01.11-.08.16l-.28.12c-.12.06-.14.07-.17-.02l-.13-.38c-.64.12-1.29.22-1.79.28-.26.02-.35.06-.41.11-.05.04-.1.06-.13.06-.06,0-.11-.05-.13-.13-.05-.17-.1-.4-.12-.59.14.01.26.01.38.01.3-.36.61-.78.9-1.2-.42-.56-.83-1.02-1.3-1.44-.06-.05-.07-.06.04-.18l.22-.23c.06-.07.07-.07.13-.02l.26.25c.3-.41.58-.89.76-1.26.06-.13.12-.28.16-.44.2.07.43.18.58.28.08.05.11.07.11.13,0,.05-.05.1-.11.13-.07.05-.13.1-.19.22-.22.35-.54.91-.89,1.34.2.23.41.46.6.68l.41-.67c.11-.18.19-.35.24-.54.22.1.43.23.58.34.06.05.1.1.1.13,0,.06-.05.1-.12.13-.11.06-.2.2-.42.5-.36.53-.86,1.25-1.31,1.8.4-.04.82-.08,1.28-.16-.08-.18-.18-.37-.28-.54-.05-.08-.04-.11.08-.16l.28-.12Zm-.52,3.89c.06-.07.08-.08.17-.04.4.23.79.5,1.16.82.06.05.05.08-.01.17l-.18.25c-.1.13-.12.13-.19.06-.35-.34-.74-.64-1.14-.86-.08-.05-.07-.06.02-.18l.17-.22Zm4.82-4.14c.11-.06.12-.04.17.04.26.41.53.95.72,1.45.02.07,0,.11-.08.14l-.25.12c-.13.06-.14.05-.17-.04-.05-.16-.11-.3-.18-.46-.68.11-1.39.22-1.87.26-.26.04-.36.08-.42.12-.05.02-.1.05-.13.05-.06,0-.11-.05-.13-.13-.05-.16-.08-.37-.12-.56.12.01.23.01.35.01.25-.31.52-.65.77-1.01-.42-.58-.8-1.04-1.27-1.46-.07-.06-.07-.07.04-.18l.22-.23c.08-.08.08-.07.14-.02.1.1.19.18.28.28.28-.4.53-.83.7-1.18.07-.13.13-.3.17-.47.2.07.43.18.58.28.08.05.11.07.11.13,0,.05-.05.11-.11.13-.07.04-.13.1-.19.22-.2.34-.52.86-.85,1.3.2.23.38.46.56.68.19-.28.37-.56.53-.84.11-.18.19-.35.24-.54.22.1.43.24.58.34.06.05.1.1.1.13,0,.06-.04.1-.12.13-.11.05-.2.2-.42.5-.36.52-.86,1.24-1.31,1.76.43-.04.89-.08,1.39-.16-.1-.19-.2-.37-.31-.54-.05-.08-.04-.08.11-.16l.22-.11Zm-1.16,1.62c.08-.07.12-.07.2-.01.22.17.44.37.66.6.07.07.06.08-.02.16l-.19.17c-.11.1-.12.1-.19.01-.19-.24-.44-.47-.66-.62-.08-.06-.07-.07.05-.17l.16-.13Z"/>
            <path d="m248.47,204.01c0,.79.02,1.09.02,1.15,0,.08-.01.1-.1.1-.06,0-.36-.02-1.2-.02h-2.17v4.37c0,1.66.02,2.36.02,2.43,0,.08-.01.1-.1.1h-.56c-.08,0-.1-.01-.1-.1,0-.07.02-.78.02-2.43v-5.19c0-1.72-.02-2.45-.02-2.52,0-.08.01-.1.1-.1.07,0,.47.02,1.35.02h1.45c.84,0,1.14-.02,1.2-.02.08,0,.1.01.1.1,0,.07-.02.37-.02,1.1v1.02Zm-.68-1.61h-2.76v.83h2.76v-.83Zm0,1.39h-2.76v.88h2.76v-.88Zm4.49,5.18c0,.08-.01.1-.1.1-.07,0-.46-.02-1.6-.02h-1.07c.65.79,1.43,1.18,2.65,1.5-.1.11-.18.25-.26.43-.08.19-.1.2-.31.12-1.08-.38-1.88-.9-2.57-1.82l-.18.37c-.4.74-1.18,1.39-2.59,1.84q-.2.06-.32-.11c-.13-.19-.24-.31-.36-.4,1.5-.38,2.31-.89,2.72-1.61.06-.11.11-.22.16-.32h-.84c-1.16,0-1.55.02-1.61.02-.08,0-.1-.01-.1-.1v-.43c0-.08.01-.1.1-.1.06,0,.44.02,1.61.02h1.02c.06-.29.08-.61.1-1h-.9c-1.12,0-1.49.02-1.55.02-.08,0-.1-.01-.1-.1v-.42c0-.08.01-.1.1-.1.06,0,.42.02,1.48.02-.17-.32-.35-.62-.56-.9-.06-.08-.04-.11.08-.16l.28-.12c.12-.05.14-.06.2.01.24.31.5.72.72,1.16h1.27c.16-.29.29-.55.41-.79.07-.16.13-.32.17-.49.22.05.42.11.59.17.08.04.13.07.13.13s-.04.1-.08.13c-.07.06-.14.16-.19.25-.1.16-.2.36-.36.6,1.09,0,1.45-.02,1.52-.02.08,0,.1.01.1.1v.42c0,.08-.01.1-.1.1-.07,0-.43-.02-1.55-.02h-.98c-.01.32-.05.66-.12,1h1.31c1.14,0,1.52-.02,1.6-.02.08,0,.1.01.1.1v.43Zm1.66.11c0,.66.04,1.32.04,1.78,0,.53-.08.73-.31.91-.23.19-.5.24-1.42.24q-.22,0-.28-.23c-.06-.23-.12-.37-.22-.53.31.04.53.05.84.05.53,0,.64-.1.64-.58v-5.49h-2.25c-.94,0-1.24.02-1.3.02-.1,0-.11-.01-.11-.1,0-.06.02-.29.02-1.08v-1.16c0-.73-.02-.96-.02-1.03,0-.08.01-.1.11-.1.06,0,.36.02,1.3.02h1.6c.92,0,1.24-.02,1.3-.02.08,0,.1.01.1.1,0,.07-.02.55-.02,1.71v5.48Zm-.71-6.68h-2.95v.83h2.95v-.83Zm0,1.39h-2.95v.88h2.95v-.88Z"/>
            <path d="m260.34,204.52c0,.08-.01.1-.1.1-.06,0-.31-.02-1.19-.02h-.17v2.23c.4-.18.8-.4,1.2-.65-.02.13-.02.34-.01.52q.01.25-.17.34c-.34.18-.67.35-1.02.52v1.62c0,.66.01,1.37.01,1.82,0,.55-.08.77-.31.94-.24.18-.47.23-1.28.22-.24-.01-.25-.02-.31-.25-.06-.22-.13-.38-.22-.52.34.04.62.05.94.05.35,0,.47-.14.47-.58v-2.97c-.29.13-.58.25-.88.37-.24.1-.38.2-.43.25-.05.05-.11.08-.14.08-.06,0-.1-.02-.13-.11-.08-.22-.14-.43-.22-.71.32-.07.65-.17,1.08-.34l.72-.28v-2.55h-.41c-.89,0-1.14.02-1.2.02-.08,0-.1-.01-.1-.1v-.52c0-.08.01-.1.1-.1.06,0,.31.02,1.2.02h.41v-.96c0-.72-.01-1.07-.08-1.46.29.01.54.04.78.07.1.01.14.06.14.11,0,.08-.04.14-.07.23-.05.13-.06.35-.06,1.04v.97h.17c.88,0,1.13-.02,1.19-.02.08,0,.1.01.1.1v.52Zm4.83,2.06c.14,0,.22-.02.28-.06.04-.02.07-.04.11-.04.08,0,.17.06.32.24.16.17.22.28.22.34s-.04.1-.11.14c-.07.05-.14.11-.3.41-.42.83-.98,1.57-1.68,2.23.97.74,2.17,1.27,3.5,1.61-.13.13-.24.29-.31.47-.06.16-.08.2-.17.2-.05,0-.11-.01-.18-.04-1.22-.4-2.39-.97-3.37-1.79-.97.77-2.16,1.38-3.56,1.82-.08.02-.13.05-.17.05-.07,0-.11-.06-.18-.2-.07-.16-.19-.3-.31-.38,1.45-.4,2.7-1.01,3.68-1.78-.71-.7-1.3-1.56-1.72-2.59-.48,0-.7.01-.73.01-.08,0-.1-.01-.1-.1v-.48c0-.08.01-.1.1-.1.06,0,.43.02,1.57.02h3.11Zm-.26-2.36c0,.34.01.43.1.5.07.06.25.11.66.11.38,0,.58-.05.7-.2.11-.14.18-.46.19-1.02.12.1.28.19.46.25.2.07.2.08.18.31-.06.5-.17.83-.38,1.04s-.64.29-1.22.29c-.48,0-.86-.06-1.03-.16-.22-.12-.36-.37-.36-.8v-2.04h-1.92c-.02,1.82-.48,2.63-1.56,3.39-.1.07-.14.11-.19.11s-.1-.05-.18-.14c-.11-.13-.25-.23-.41-.3,1.22-.73,1.61-1.37,1.61-3.17,0-.29-.02-.42-.02-.48,0-.08.01-.1.1-.1.07,0,.29.02,1.08.02h1.06c.78,0,1.02-.02,1.09-.02.08,0,.1.01.1.1,0,.06-.02.35-.02,1.02v1.28Zm-2.96,2.99c.35.85.86,1.56,1.51,2.17.71-.65,1.26-1.38,1.63-2.17h-3.14Z"/>
            <path d="m273.13,211.12c-.12.02-.25.08-.38.16-.74.41-1.8.74-2.81.94-.23.05-.24.04-.35-.17-.1-.16-.2-.3-.31-.4,1.03-.14,2.1-.41,2.78-.76.16-.08.32-.19.46-.32.28.12.43.19.62.3.08.05.12.08.12.14,0,.05-.04.08-.13.11Zm-.78-6.37c-.71.36-1.43.67-1.99.88-.23.08-.35.13-.41.19-.06.06-.11.08-.16.08-.06,0-.1-.02-.13-.1-.08-.17-.19-.42-.28-.65.24-.04.55-.1.88-.2.7-.23,1.38-.53,2.24-.98,0,.12.01.28.02.42q.04.25-.18.36Zm-2.27-2.91c.08-.11.13-.12.22-.08.58.2,1.24.58,1.8.96.08.06.08.08-.01.2l-.23.28c-.12.14-.13.13-.22.07-.59-.46-1.16-.77-1.75-1.01-.1-.04-.11-.07,0-.19l.19-.23Zm7.96,7.34c0,.84.02,1.14.02,1.2,0,.08-.01.1-.1.1-.07,0-.48-.02-1.67-.02h-3.55c-1.19,0-1.6.02-1.67.02-.08,0-.1-.01-.1-.1,0-.07.02-.36.02-1.2v-1.94c0-.85-.02-1.14-.02-1.2,0-.08.01-.1.1-.1.07,0,.48.02,1.67.02h3.55c1.19,0,1.6-.02,1.67-.02.08,0,.1.01.1.1,0,.06-.02.35-.02,1.2v1.94Zm-.68-2.67h-5.65v.77h5.65v-.77Zm0,1.27h-5.65v.78h5.65v-.78Zm0,1.28h-5.65v.85h5.65v-.85Zm-1.39-6.01c.48,1.61,2.41,2.25,3.93,2.48-.11.12-.19.26-.25.44-.07.22-.1.24-.31.18-1.49-.36-3.01-1.01-3.65-2.48-.43,1.16-1.48,1.81-2.97,2.13-.23.05-.25.05-.38-.18-.07-.12-.19-.25-.29-.32,1.74-.3,2.89-.94,3.24-2.25h-1.38c-.24.29-.5.55-.85.82-.08.06-.12.1-.17.1s-.1-.04-.19-.13c-.1-.1-.23-.18-.36-.23.74-.52,1.27-1.09,1.61-1.69.1-.17.18-.37.23-.59.25.06.44.11.6.16.1.04.14.07.14.13,0,.05-.04.08-.11.13-.07.05-.13.16-.19.26-.1.18-.19.34-.3.49h3.86c.18,0,.28-.01.32-.04.05-.02.1-.05.13-.05.06,0,.12.04.3.17.2.16.28.25.28.32,0,.06-.04.08-.1.12-.08.05-.13.1-.23.25-.2.32-.36.53-.65.84-.1.1-.13.14-.2.14-.05,0-.12-.02-.22-.07-.14-.07-.28-.11-.41-.13.36-.3.65-.66.88-1.01h-2.31Zm.28,7.58c.1-.06.14-.07.22-.02.86.54,1.97.84,3.2,1.01-.12.11-.24.23-.34.41-.11.19-.13.2-.37.17-.96-.18-2.23-.61-3.12-1.2-.08-.06-.07-.1.07-.18l.34-.18Z"/>
            <path d="m288.43,204.96c.2.88.47,1.66.82,2.34.5-.41.9-.79,1.33-1.31.16-.18.28-.37.37-.54.24.16.43.29.59.43.07.06.1.11.1.16,0,.07-.07.12-.13.16-.14.07-.25.18-.55.48-.41.41-.83.78-1.38,1.2.72,1.16,1.73,2.09,3.12,2.89-.17.13-.3.26-.42.47-.07.12-.11.18-.16.18s-.08-.04-.17-.1c-2.33-1.61-3.49-3.49-4.2-6.36h-.2c-.35.28-.68.53-1.02.74,1.1,1.14,1.73,2.6,1.73,4.22s-.35,2.18-1.62,2.18c-.25,0-.47-.01-.7-.04q-.22-.01-.26-.23c-.05-.2-.12-.37-.22-.52.5.07.94.08,1.24.08.46,0,.86-.14.86-1.51,0-.31-.02-.62-.08-.94-1.38,1.15-2.83,1.9-4.86,2.59-.08.04-.14.06-.18.06-.06,0-.1-.05-.17-.18-.12-.19-.23-.29-.37-.41,2.24-.62,3.87-1.4,5.42-2.75-.1-.31-.23-.62-.38-.94-1.27.88-2.28,1.36-3.95,1.92-.1.04-.14.06-.19.06-.06,0-.1-.05-.17-.17-.1-.17-.2-.29-.35-.38,1.86-.49,3.03-1.03,4.35-1.93-.19-.28-.41-.55-.66-.82-.79.44-1.62.78-2.64,1.1-.22.07-.23.07-.34-.11-.12-.19-.2-.28-.36-.4,1.8-.46,2.89-.92,3.95-1.67h-1.07c-1.19,0-1.58.02-1.66.02-.08,0-.1-.01-.1-.11v-.44c0-.1.01-.11.1-.11.07,0,.47.02,1.66.02h3.48c1.19,0,1.6-.02,1.65-.02.08,0,.1.01.1.11v.44c0,.1-.01.11-.1.11-.06,0-.47-.02-1.65-.02h-.56Zm3.68-1.38c0,1.02.02,1.18.02,1.25s-.01.08-.1.08h-.55c-.08,0-.1-.01-.1-.08v-1.68h-8.28v1.68c0,.07-.01.08-.1.08h-.55c-.08,0-.1-.01-.1-.08s.02-.23.02-1.25v-.37c0-.38-.02-.55-.02-.62,0-.08.01-.1.1-.1.07,0,.49.02,1.65.02h2.69v-.14c0-.43-.01-.76-.08-1.04.28.01.6.04.79.06.08.01.14.05.14.1,0,.08-.04.13-.07.23-.05.11-.06.29-.06.65v.16h2.85c1.16,0,1.58-.02,1.66-.02.08,0,.1.01.1.1,0,.07-.02.24-.02.54v.46Z"/>
            <path d="m304.8,206.77c0,1.7-1.38,3.07-3.07,3.07s-3.07-1.37-3.07-3.07,1.38-3.07,3.07-3.07,3.07,1.38,3.07,3.07Z" fill="#0091c2"/>
            <path d="m314.85,206.58c-2.04.46-3.35.83-4.81,1.34-.22.07-.32.16-.4.16-.05,0-.11-.06-.16-.14-.08-.14-.18-.36-.29-.62.18-.04.31-.07.48-.14.53-.22.9-.46,1.34-.83,1.2-.98,2.36-2.03,3.96-3.6-1.02.17-2.03.34-2.97.52-.17.04-.31.07-.43.1-.13.04-.25.1-.35.1-.07,0-.12-.07-.18-.18-.06-.12-.18-.41-.28-.74.34.04.66.04,1.06.01.96-.1,1.99-.25,3.14-.43.23-.02.35-.1.46-.16.07-.05.13-.07.18-.07.07,0,.12.02.2.1.14.11.31.28.43.43.06.07.1.16.1.23,0,.08-.06.16-.16.2-.14.06-.29.16-.43.28-1.57,1.42-2.95,2.57-4.37,3.67l.04.04c1.9-.56,3.99-1.07,6.58-1.43.12-.01.17.01.19.1.04.13.07.37.08.61.01.1-.04.12-.18.12-.8.04-1.5.19-2.18.42-1.38.49-2.41,1.4-2.41,2.49,0,1.38,1.58,1.75,3.21,1.76.1,0,.13.04.13.14-.01.17-.05.43-.07.58-.01.12-.05.16-.18.16-.22,0-.47-.02-.74-.05-1.88-.19-3.09-.96-3.09-2.42,0-.92.58-1.99,2.09-2.7v-.02Z"/>
            <path d="m326.4,203.77c-.22,2.03-.83,4.02-1.58,5.24-.52.88-1.06,1.24-1.76,1.24-.9,0-1.75-.98-1.75-2.72,0-1.1.5-2.28,1.39-3.11.89-.83,2.09-1.33,3.6-1.33,2.69,0,4.28,1.57,4.28,3.86,0,1.96-1.21,3.53-3.81,4.19-.14.04-.23.01-.31-.13-.07-.12-.23-.3-.47-.44,2.37-.47,3.74-1.75,3.74-3.75,0-1.78-1.38-3.03-3.09-3.03h-.23Zm-3.18,1.15c-.8.79-1.15,1.78-1.15,2.59,0,1.31.54,1.87.97,1.87.41,0,.77-.26,1.12-.88.61-1.08,1.25-2.94,1.4-4.69-.94.12-1.76.53-2.34,1.1Z"/>
            <path d="m334.72,207.16c0-.43,0-1.06.02-1.62-.32.5-.68,1.01-1.09,1.48-.06.07-.11.12-.14.12-.05,0-.07-.05-.12-.13-.1-.19-.2-.35-.32-.46,1.18-1.32,1.96-2.67,2.49-4.27.11-.3.16-.55.18-.82.28.08.5.16.72.25.1.05.14.07.14.14,0,.06-.05.11-.12.17-.07.06-.13.17-.24.44-.24.64-.5,1.26-.82,1.88v5.84c0,1.26.02,1.8.02,1.86,0,.08-.01.1-.1.1h-.56c-.08,0-.1-.01-.1-.1,0-.06.02-.6.02-1.86v-3.03Zm3.37,3.13c0,.49.19.68.55.76.35.07.9.11,1.83.11,1.33,0,1.99-.13,2.31-.35.3-.18.48-.58.52-1.68.14.1.32.19.53.28q.2.08.19.29c-.08.88-.26,1.44-.66,1.7-.52.34-1.36.46-2.97.46-.98,0-1.75-.05-2.17-.16-.44-.12-.84-.41-.84-1.15v-3.97c-.74.25-1.01.37-1.09.4-.08.04-.12.02-.13-.06l-.12-.58q-.01-.08.07-.11c.06-.02.4-.1,1.27-.37v-1.62c0-.58-.02-.98-.07-1.33.3,0,.54.02.76.06.11.01.16.06.16.11,0,.07-.02.13-.06.22-.06.12-.07.26-.07.85v1.49l1.64-.53v-1.83c0-.83-.02-1.22-.1-1.61.32.01.55.04.79.07.08.01.13.06.13.1,0,.07-.02.12-.05.22-.05.14-.07.44-.07,1.25v1.58l1.14-.37c1.09-.35,1.45-.52,1.52-.54.06-.01.1.01.1.11l-.02.89c-.06,1.5-.13,2.37-.25,3.01-.14.76-.46.97-1,.97-.2,0-.37-.01-.66-.04q-.2-.02-.24-.26c-.02-.17-.08-.35-.16-.47.36.06.65.1.91.1.29,0,.42-.18.5-.67.1-.7.16-1.39.18-2.71l-2.03.67v2.15c0,1.21.02,1.73.02,1.8,0,.08-.01.1-.1.1h-.56c-.08,0-.1-.01-.1-.1,0-.07.02-.59.02-1.8v-1.91l-1.64.54v3.96Z"/>
            <path d="m351.75,203.77c-.22,2.03-.83,4.02-1.58,5.24-.52.88-1.06,1.24-1.76,1.24-.9,0-1.75-.98-1.75-2.72,0-1.1.5-2.28,1.39-3.11.89-.83,2.09-1.33,3.6-1.33,2.69,0,4.28,1.57,4.28,3.86,0,1.96-1.21,3.53-3.81,4.19-.14.04-.23.01-.31-.13-.07-.12-.23-.3-.47-.44,2.37-.47,3.74-1.75,3.74-3.75,0-1.78-1.38-3.03-3.09-3.03h-.23Zm-3.18,1.15c-.8.79-1.15,1.78-1.15,2.59,0,1.31.54,1.87.97,1.87.41,0,.77-.26,1.12-.88.61-1.08,1.25-2.94,1.4-4.69-.94.12-1.76.53-2.34,1.1Z"/>
            <path d="m358.92,204.74c.07-.1.12-.1.19-.06.58.35,1.16.76,1.69,1.26.06.06.06.08-.01.17l-.29.34c-.12.14-.13.16-.2.08-.49-.52-1.1-.98-1.64-1.32-.08-.05-.07-.07.01-.17l.25-.3Zm.94,6.72c-.11.25-.19.43-.2.54-.01.08-.05.14-.1.14s-.1-.01-.18-.06c-.2-.12-.36-.23-.58-.4.23-.29.36-.53.54-.89.37-.73.76-1.69,1.09-2.88.12.16.24.24.41.36.18.11.18.12.11.36-.32.98-.73,1.98-1.09,2.82Zm-.22-9.68c.08-.1.12-.11.19-.06.56.36,1.13.8,1.6,1.3.06.07.06.12-.04.23l-.26.32c-.1.11-.12.12-.19.05-.48-.53-1.1-1.07-1.6-1.38-.07-.05-.07-.07.04-.18l.26-.28Zm9.63,5.56c0,.1-.01.11-.08.11s-.49-.02-1.7-.02h-2.53c-.38,1.26-.8,2.36-1.22,3.3,1.33-.12,2.49-.28,3.73-.47-.34-.48-.71-.94-1.09-1.38-.07-.07-.06-.11.07-.19l.3-.18c.08-.06.12-.06.17-.01.85.92,1.54,1.88,2.22,3.03.04.07.04.1-.08.18l-.34.22c-.16.11-.18.11-.22.02-.2-.38-.42-.76-.65-1.1-1.9.31-3.51.52-5.53.74-.34.04-.43.07-.49.11-.07.04-.12.08-.19.08s-.13-.07-.16-.16c-.07-.24-.14-.5-.19-.76.49,0,.88-.01,1.22-.04l.43-.04c.46-1.03.88-2.11,1.21-3.37h-1.04c-1.21,0-1.63.02-1.7.02-.08,0-.1-.01-.1-.11v-.5c0-.08.01-.1.1-.1.07,0,.49.02,1.7.02h1.59v-2.18h-1.03c-1.18,0-1.56.02-1.62.02-.08,0-.1-.01-.1-.1v-.5c0-.08.01-.1.1-.1.06,0,.44.02,1.62.02h1.03v-.86c0-.8-.01-1.14-.07-1.56.31.01.52.02.78.06.08.01.14.06.14.11,0,.07-.02.12-.06.22-.04.11-.07.43-.07,1.15v.89h1.51c1.18,0,1.57-.02,1.63-.02.08,0,.1.01.1.1v.5c0,.08-.01.1-.1.1-.06,0-.46-.02-1.63-.02h-1.51v2.18h2.06c1.21,0,1.63-.02,1.7-.02s.08.01.08.1v.5Z"/>
            <path d="m381.55,211.74c-.07.12-.11.17-.16.17s-.1-.02-.18-.08c-2.72-1.74-4.02-4.2-4.46-6.61-.5,3.01-2.13,5.22-4.57,6.6-.08.05-.13.08-.18.08s-.08-.06-.17-.18c-.13-.18-.29-.32-.44-.43,3.21-1.55,4.87-4.69,4.82-8.13-.01-.66-.02-1.01-.08-1.43.29.01.64.05.9.1.1.02.17.07.17.14,0,.1-.04.16-.07.24-.06.13-.11.37-.11.67,0,.22,0,.42-.01.62.48,3.23,1.82,5.97,4.97,7.75-.17.13-.31.3-.42.49Z"/>
            <path d="m394.22,206.77c0,1.7-1.38,3.07-3.07,3.07s-3.07-1.37-3.07-3.07,1.38-3.07,3.07-3.07,3.07,1.38,3.07,3.07Z" fill="#0091c2"/>
            <path d="m399.56,207.15c0-.47.01-1.16.02-1.77-.31.5-.67,1-1.08,1.49-.06.08-.11.12-.14.12-.05,0-.07-.04-.12-.13-.11-.22-.2-.35-.31-.46,1.13-1.28,1.85-2.58,2.42-4.2.11-.3.17-.53.19-.82.25.06.49.13.71.23.08.04.14.07.14.13,0,.07-.04.11-.11.17-.07.06-.13.18-.24.46-.24.64-.49,1.22-.78,1.8v6.03c0,1.27.02,1.82.02,1.88,0,.08-.01.1-.1.1h-.56c-.08,0-.1-.01-.1-.1,0-.06.02-.61.02-1.88v-3.05Zm8.92,1.31c0,2.81.02,3.47.02,3.53,0,.08-.01.1-.1.1h-.53c-.08,0-.1-.01-.1-.1v-.61h-5.54v.7c0,.08-.01.1-.1.1h-.53c-.08,0-.1-.01-.1-.1,0-.06.02-.73.02-3.57v-3.49c0-2-.02-2.67-.02-2.75,0-.08.01-.1.1-.1.07,0,.49.02,1.68.02h3.43c1.19,0,1.61-.02,1.68-.02.08,0,.1.01.1.1,0,.07-.02.78-.02,2.63v3.57Zm-.7-5.64h-5.54v7.92h5.54v-7.92Zm-.55,2.51c0,.08-.01.1-.1.1-.06,0-.37-.02-1.33-.02h-.52v1.43h.2c.76,0,1-.02,1.06-.02.08,0,.1.01.1.1,0,.07-.02.29-.02.92v.96c0,.66.02.88.02.94,0,.07-.01.08-.1.08-.06,0-.3-.01-1.06-.01h-1.03c-.76,0-.98.01-1.06.01-.08,0-.1-.01-.1-.08s.02-.28.02-.94v-.96c0-.64-.02-.85-.02-.92,0-.08.01-.1.1-.1.07,0,.3.02,1.06.02h.19v-1.43h-.46c-.96,0-1.27.02-1.34.02-.08,0-.1-.01-.1-.1v-.43c0-.08.01-.1.1-.1.07,0,.38.02,1.34.02h.46v-.1c0-.77-.01-1.09-.07-1.43.25.01.49.04.68.07.08.01.13.04.13.1,0,.05-.02.12-.05.19-.04.12-.06.37-.06,1.04v.12h.52c.96,0,1.27-.02,1.33-.02.08,0,.1.01.1.1v.43Zm-1.23,2.05h-2.04v1.85h2.04v-1.85Z"/>
            <path d="m421.24,211.74c-.07.12-.11.17-.16.17s-.1-.02-.18-.08c-2.72-1.74-4.02-4.2-4.46-6.61-.5,3.01-2.13,5.22-4.57,6.6-.08.05-.13.08-.18.08s-.08-.06-.17-.18c-.13-.18-.29-.32-.44-.43,3.21-1.55,4.87-4.69,4.82-8.13-.01-.66-.02-1.01-.08-1.43.29.01.64.05.9.1.1.02.17.07.17.14,0,.1-.04.16-.07.24-.06.13-.11.37-.11.67,0,.22,0,.42-.01.62.48,3.23,1.82,5.97,4.97,7.75-.17.13-.31.3-.42.49Z"/>
          </g>
          <polyline points="228.18 189.45 223.19 189.45 223.19 168.7 228.18 168.7" fill="none" stroke="#000" stroke-miterlimit="10"/>
          <polyline points="333.95 189.45 338.93 189.45 338.93 168.7 333.95 168.7" fill="none" stroke="#000" stroke-miterlimit="10"/>
        </g>
        <circle cx="434.6" cy="39.38" r="35.55" fill="#ffffcd"/>
        <circle cx="434.6" cy="128.51" r="35.55" fill="#ffffcd"/>
        <path d="m398.69,113.74c-7.31,17.75-.53,38.61,16.55,48.48,18.62,10.75,42.42,4.37,53.17-14.25,10.75-18.62,4.37-42.42-14.25-53.17-17.27-9.97-39-5.2-50.64,10.4l-16.89-9.75" fill="none" stroke="#0091c2" stroke-miterlimit="10" stroke-width=".9"/>
        <path d="m398.69,54.15c-7.31-17.75-.53-38.61,16.55-48.48,18.62-10.75,42.42-4.37,53.17,14.25,10.75,18.62,4.37,42.42-14.25,53.17-17.27,9.97-39,5.2-50.64-10.4l-16.89,9.75" fill="none" stroke="#0091c2" stroke-miterlimit="10" stroke-width=".9"/>
        <g>
          <path d="m422.84,108.87c-.07.57-.17,1.15-.29,1.64-.07.24-.1.34-.18.34-.06,0-.15-.06-.31-.14-.22-.11-.59-.22-.83-.28.39-1.3.55-2.58.59-3.67.01-.27.01-.55-.03-.9.38.04.84.1,1.18.15.15.03.21.08.21.17s-.01.13-.06.22c-.06.11-.07.25-.08.48-.01.22-.03.45-.06.69h.67v-.77c0-.99-.03-1.41-.11-2.12.52.01.97.04,1.44.1.14.01.22.07.22.14,0,.11-.04.18-.08.29-.07.17-.08.52-.08,1.55v.8c.74,0,1.02-.03,1.09-.03.14,0,.15.01.15.14v.95c.74-.88,1.2-1.81,1.55-2.84.11-.36.2-.7.25-1.12.38.06.91.14,1.32.24.15.04.24.1.24.2s-.04.17-.14.28-.17.29-.28.64c-.13.38-.28.76-.45,1.15h3.26c1.06,0,1.4-.03,1.48-.03.15,0,.2.04.2.18-.01.38-.03.76-.03,1.09-.03,3.35-.14,5.13-.41,6.74-.22,1.5-.84,2.21-2.09,2.21-.25,0-.64,0-1.01-.03q-.43-.03-.52-.49c-.08-.45-.2-.78-.34-1.05.64.11,1.13.14,1.64.14.63,0,.84-.42.95-1.16.21-1.51.38-3.07.43-6.05-.99,3.53-2.38,6.02-4.8,7.9-.17.13-.27.2-.35.2-.1,0-.17-.08-.29-.27-.24-.35-.52-.6-.77-.77,2.65-1.79,4.08-4.19,4.99-7.35h-.92c-.66,2.17-1.68,3.81-3.1,5.1-.15.15-.25.22-.34.22s-.15-.07-.28-.24c-.24-.29-.53-.55-.78-.71,1.47-1.08,2.54-2.49,3.15-4.37h-.74c-.29.49-.64.97-1.04,1.41-.15.17-.22.24-.29.24-.08,0-.15-.07-.31-.22-.27-.25-.56-.45-.8-.59l.36-.38c-.14,0-.45-.01-1.01-.03v2.26c.41-.2.84-.41,1.3-.66,0,.25,0,.63.03.94.03.42.03.43-.35.63-.34.18-.66.35-.98.5v2.37c0,1.6.03,2.4.03,2.47,0,.14-.01.15-.15.15h-1.13c-.14,0-.15-.01-.15-.15,0-.08.03-.87.03-2.45v-1.74c-.32.14-.66.27-.98.39-.21.1-.38.18-.45.25-.08.08-.15.14-.24.14-.1,0-.17-.04-.22-.15-.17-.41-.34-.92-.48-1.36.46-.1.85-.21,1.32-.36.35-.11.7-.24,1.05-.36v-2.86h-.81Z" fill="#0091c2"/>
          <path d="m436.8,111.98c0-.5.01-1.11.03-1.71-.29.41-.59.8-.91,1.16-.11.11-.18.18-.24.18-.07,0-.13-.08-.17-.25-.13-.46-.31-.94-.48-1.2,1.19-1.32,2.12-2.89,2.65-4.51.13-.38.2-.69.24-1.05.5.15.92.28,1.34.46.15.07.22.13.22.2,0,.1-.03.15-.14.25-.08.08-.17.21-.29.56-.24.63-.5,1.26-.81,1.86v7.26c0,1.39.03,2.07.03,2.14,0,.14-.01.15-.15.15h-1.19c-.14,0-.15-.01-.15-.15,0-.08.03-.76.03-2.14v-3.21Zm6.18-5.13c0-.99-.03-1.53-.11-2.12.53.01,1.04.04,1.53.08.13.01.22.08.22.15,0,.1-.06.18-.08.28-.07.2-.1.53-.1,1.55v.95h1.19c1.27,0,1.71-.03,1.79-.03.15,0,.17.01.17.15v1.06c0,.14-.01.15-.17.15-.08,0-.52-.03-1.79-.03h-1.19v2.42h1.6c1.37,0,1.83-.03,1.92-.03.14,0,.15.01.15.15v1.09c0,.15-.01.17-.15.17-.08,0-.55-.03-1.92-.03h-1.6v2.03c0,1.57.03,2.37.03,2.44,0,.14-.01.15-.15.15h-1.2c-.14,0-.15-.01-.15-.15,0-.08.03-.85.03-2.42v-2.04h-1.88c-1.37,0-1.83.03-1.92.03-.14,0-.15-.01-.15-.17v-1.09c0-.14.01-.15.15-.15.08,0,.55.03,1.92.03h1.88v-2.42h-2.09c-.22.5-.49.99-.78,1.47-.11.18-.18.28-.25.28s-.15-.08-.31-.22c-.28-.27-.57-.43-.87-.57.95-1.34,1.44-2.62,1.75-3.74.1-.31.14-.62.15-.94.48.11.88.22,1.27.36.17.06.24.13.24.21s-.04.15-.08.2c-.08.08-.15.21-.25.56-.1.35-.21.71-.34,1.08h1.55v-.91Z" fill="#0091c2"/>
          <path d="m415.58,130.29c0-.5,0-1.13.01-1.74-.21.31-.45.6-.7.91-.11.13-.2.2-.25.2-.08,0-.13-.08-.15-.24-.08-.48-.25-.98-.42-1.27,1.08-1.26,1.83-2.8,2.4-4.51.1-.34.18-.66.22-1.01.46.14.9.28,1.29.48.14.06.22.13.22.25,0,.1-.07.17-.15.25-.1.08-.15.21-.28.56-.25.71-.5,1.37-.8,2v7.09c0,1.36.03,2.04.03,2.11,0,.14-.01.15-.15.15h-1.13c-.14,0-.15-.01-.15-.15,0-.08.03-.76.03-2.11v-2.97Zm4.59-5.29c-1.37,0-1.83.03-1.92.03-.14,0-.15-.01-.15-.15v-1.04c0-.15.01-.17.15-.17.08,0,.55.03,1.92.03h4.96c1.37,0,1.83-.03,1.92-.03.14,0,.15.01.15.17v1.04c0,.14-.01.15-.15.15-.08,0-.55-.03-1.92-.03h-.9v2.16h.43c1.36,0,1.85-.03,1.95-.03.14,0,.15.01.15.15,0,.08-.03.63-.03,2.3v2.44c0,2.47.03,2.98.03,3.07,0,.14-.01.15-.15.15h-1.09c-.14,0-.15-.01-.15-.15v-.59h-5.87v.64c0,.14-.01.15-.15.15h-1.08c-.14,0-.15-.01-.15-.15,0-.08.03-.6.03-3.08v-2.21c0-1.93-.03-2.47-.03-2.56,0-.14.01-.15.15-.15.08,0,.56.03,1.92.03h.36v-2.16h-.38Zm.38,8.25v-4.86h-1.05v4.86h1.05Zm2.38-6.09v-2.16h-1.08v2.16h1.08Zm0,6.09v-4.86h-1.08v4.86h1.08Zm1.3-4.86v4.86h1.13v-4.86h-1.13Z" fill="#0091c2"/>
          <path d="m429.68,130.16c0-.53,0-1.2.01-1.85-.25.34-.52.67-.8.99-.11.13-.18.2-.25.2-.06,0-.11-.08-.15-.25-.11-.42-.28-.9-.45-1.18,1.12-1.25,1.96-2.75,2.55-4.45.11-.34.2-.64.24-.98.45.11.87.22,1.29.39.15.06.22.1.22.21,0,.1-.04.15-.14.25-.1.08-.17.21-.29.57-.25.69-.53,1.34-.83,1.96v7.17c0,1.37.03,2.06.03,2.13,0,.14-.01.15-.15.15h-1.16c-.13,0-.14-.01-.14-.15,0-.08.03-.76.03-2.13v-3.04Zm2.51-1.82c0-.85-.03-1.29-.1-1.82.53.01.94.04,1.44.1.14.01.24.1.24.18,0,.1-.06.18-.1.31-.06.15-.08.41-.08,1.22v5.21h5.6c1.32,0,1.75-.03,1.83-.03.14,0,.15.01.15.17v.99c0,.14-.01.15-.15.15-.08,0-.52-.03-1.83-.03h-5.6v.5c0,.14-.01.15-.15.15h-1.12c-.14,0-.15-.01-.15-.15,0-.08.03-.52.03-1.48v-5.48Zm2.41-3.04c-1.37,0-1.83.03-1.92.03-.14,0-.14-.01-.14-.17v-.95c0-.13,0-.14.14-.14.08,0,.55.03,1.92.03h1.67l.06-.41c.04-.38.07-.73.06-.99.49.03.97.07,1.41.13.14,0,.21.08.21.17,0,.07-.04.15-.1.22-.07.1-.13.21-.15.41-.03.15-.06.32-.07.48h1.37c1.37,0,1.82-.03,1.9-.03.14,0,.15.01.15.14v.95c0,.15-.01.17-.15.17-.08,0-.53-.03-1.9-.03h-1.58c-.06.35-.14.69-.21,1.02h1.15c1.11,0,1.48-.03,1.57-.03.15,0,.17.01.17.15,0,.08-.03.53-.03,1.53v3.15c0,.99.03,1.43.03,1.51,0,.14-.01.15-.17.15-.08,0-.46-.03-1.57-.03h-2.07c-1.11,0-1.48.03-1.58.03-.14,0-.15-.01-.15-.15,0-.1.03-.52.03-1.51v-3.15c0-.99-.03-1.43-.03-1.53,0-.14.01-.15.15-.15.08,0,.38.03,1.12.03.08-.36.14-.7.21-1.02h-1.48Zm1.36,2.84h2.82v-.8h-2.82v.8Zm2.82,1.78v-.81h-2.82v.81h2.82Zm0,.98h-2.82v.83h2.82v-.83Z" fill="#0091c2"/>
          <path d="m449.54,125.8c-.32,2.38-.91,4.57-1.75,6.04-.6,1.05-1.33,1.61-2.38,1.61-1.23,0-2.48-1.32-2.48-3.6,0-1.34.57-2.63,1.58-3.64,1.18-1.18,2.66-1.79,4.55-1.79,3.36,0,5.34,2.07,5.34,4.86,0,2.61-1.47,4.24-4.31,5.1-.29.08-.42.03-.6-.25-.15-.24-.45-.56-.98-.88,2.37-.56,4.23-1.54,4.23-4.19,0-1.67-1.26-3.25-3.14-3.25h-.06Zm-4.02,1.36c-.67.76-1.09,1.7-1.09,2.59,0,1.29.52,2,.95,2,.36,0,.67-.18,1.05-.85.62-1.13,1.25-3.15,1.48-5.01-.98.2-1.77.59-2.4,1.27Z" fill="#0091c2"/>
          <path d="m433.32,149.35c0,1.22.03,1.96.03,2.45,0,.52-.13.9-.41,1.15-.28.24-.81.32-1.99.35-.45,0-.43-.01-.53-.42-.1-.42-.22-.76-.39-1.02.43.03.8.06,1.18.06.41,0,.59-.1.59-.45v-7.03h-8.26v6.71c0,1.32.03,1.98.03,2.06,0,.13-.01.14-.15.14h-1.26c-.14,0-.15-.01-.15-.14,0-.1.03-.77.03-2.24v-5.48c0-1.47-.03-2.16-.03-2.26,0-.14.01-.15.15-.15.1,0,.57.03,1.91.03h1.64c.29-.55.56-1.13.74-1.61.1-.25.15-.45.21-.78.57.07,1.16.15,1.57.24.13.03.17.1.17.18,0,.11-.06.18-.11.24-.11.1-.18.2-.24.34-.21.45-.46.95-.71,1.4h3.98c1.33,0,1.81-.03,1.89-.03.15,0,.17.01.17.15,0,.08-.03.85-.03,2.33v3.8Zm-8.18,1.81c-.14,0-.15-.01-.15-.15,0-.1.03-.45.03-2.34v-1.2c0-1.08-.03-1.44-.03-1.54,0-.14.01-.15.15-.15.08,0,.43.03,1.48.03h2c1.06,0,1.4-.03,1.5-.03.14,0,.15.01.15.15,0,.08-.03.45-.03,1.3v1.32c0,1.85.03,2.19.03,2.27,0,.14-.01.15-.15.15h-1.05c-.15,0-.17-.01-.17-.15v-.42h-2.56v.62c0,.14-.01.15-.15.15h-1.05Zm1.2-2.03h2.56v-2.09h-2.56v2.09Z" fill="#0091c2"/>
          <path d="m437.5,152.71c-1.26,0-1.69.03-1.78.03-.14,0-.15-.01-.15-.15v-1.27c0-.14.01-.15.15-.15.08,0,.52.03,1.78.03h2.96v-7.9c0-1.13-.01-1.71-.11-2.34.53.01,1.16.04,1.64.1.14.01.25.1.25.18,0,.11-.06.21-.1.32-.06.15-.1.5-.1,1.34v2.21h2.75c1.22,0,1.64-.03,1.72-.03.14,0,.15.01.15.15v1.27c0,.14-.01.15-.15.15-.08,0-.5-.03-1.72-.03h-2.75v4.55h3.82c1.26,0,1.69-.03,1.78-.03.14,0,.15.01.15.15v1.27c0,.14-.01.15-.15.15-.08,0-.52-.03-1.78-.03h-8.36Z" fill="#0091c2"/>
        </g>
        <g>
          <path d="m418.32,24.77c0-.99-.01-1.43-.11-2.12.55.01,1.05.04,1.53.1.14.01.22.07.22.14,0,.1-.04.18-.07.28-.08.18-.1.53-.1,1.55v8.08c0,1.57.03,2.35.03,2.44,0,.14-.01.15-.15.15h-1.22c-.14,0-.15-.01-.15-.15,0-.08.03-.87.03-2.42v-1.08c-.77.35-1.58.67-2.41.97-.25.08-.46.18-.56.25-.08.07-.14.1-.21.1s-.13-.06-.18-.2c-.13-.36-.27-.81-.41-1.34.36-.06.67-.11,1.01-.2v-4.93c0-.99-.03-1.43-.11-2.13.53.01.99.04,1.48.1.13.01.21.07.21.15,0,.1-.04.18-.07.29-.07.17-.1.52-.1,1.55v4.51c.46-.17.9-.32,1.34-.52v-5.59Zm7.3-1.04c.27,0,.38-.01.45-.06.07-.04.14-.06.21-.06.1,0,.24.1.59.46.24.24.31.39.31.49s-.06.25-.13.34c-.11.14-.21.45-.29.9-.39,2.14-1.01,3.95-1.98,5.52.76.95,1.74,1.79,2.98,2.55-.27.29-.5.64-.69,1.02-.1.21-.17.31-.25.31-.07,0-.15-.06-.29-.14-1.05-.74-1.93-1.55-2.66-2.47-.76.94-1.68,1.78-2.79,2.56-.15.1-.25.15-.34.15-.11,0-.18-.11-.28-.34-.15-.35-.38-.64-.64-.87,1.33-.8,2.37-1.71,3.18-2.75-1.04-1.71-1.64-3.75-1.88-6.3-.43,0-.62.01-.66.01-.15,0-.17-.01-.17-.17v-1.05c0-.14.01-.15.17-.15.07,0,.48.03,1.7.03h3.46Zm-3.08,1.32c.2,1.98.62,3.57,1.34,4.94.77-1.41,1.22-3.05,1.5-4.94h-2.84Z" fill="#0091c2"/>
          <path d="m430.98,26.6c-1.27,0-1.71.03-1.79.03-.14,0-.15-.01-.15-.15v-1.06c0-.13.01-.14.15-.14.08,0,.52.03,1.79.03h1.74c-.06-.03-.08-.06-.11-.14-.28-.67-.66-1.33-1.06-1.89-.08-.13-.06-.14.11-.21l.94-.38c.18-.07.22-.04.32.08.36.5.77,1.19,1.06,1.85.06.13.06.15-.14.24l-1.04.45h3.11c.42-.63.77-1.26,1.05-1.86.13-.27.18-.49.25-.81.46.1,1.12.24,1.51.39.13.04.18.1.18.18,0,.1-.08.14-.18.24-.11.1-.18.17-.34.43-.28.49-.59.99-.9,1.43h1.77c1.27,0,1.71-.03,1.79-.03.14,0,.15.01.15.14v1.06c0,.14-.01.15-.15.15-.08,0-.52-.03-1.79-.03h-1.7c.74,1.36,2.07,2.51,4.13,3.46-.2.22-.38.5-.56.88-.1.24-.14.34-.24.34-.06,0-.15-.04-.31-.14-.34-.2-.66-.39-.97-.59v3.17c1.09,0,1.48-.03,1.57-.03.14,0,.15.01.15.15v1.01c0,.14-.01.15-.15.15-.08,0-.5-.03-1.75-.03h-8.66c-1.26,0-1.68.03-1.77.03-.14,0-.15-.01-.15-.15v-1.01c0-.14.01-.15.15-.15.07,0,.48.03,1.6.03v-2.52c0-.25,0-.46-.01-.64-.29.2-.6.41-.92.59-.15.08-.25.14-.31.14-.1,0-.15-.1-.27-.32-.17-.32-.39-.59-.64-.81,1.99-.97,3.26-2.14,4.02-3.54h-1.5Zm7.52,3.11c-1.08-.91-1.86-1.92-2.44-3.11h-1.99c-.62,1.22-1.37,2.21-2.38,3.11h6.81Zm-5.31,4.01v-2.8h-1.23v2.8h1.23Zm2.55,0v-2.8h-1.26v2.8h1.26Zm1.29-2.8v2.8h1.25v-2.8h-1.25Z" fill="#0091c2"/>
          <path d="m449.87,25.71c-.32,2.38-.91,4.57-1.75,6.04-.6,1.05-1.33,1.61-2.38,1.61-1.23,0-2.48-1.32-2.48-3.6,0-1.34.57-2.63,1.58-3.64,1.18-1.18,2.66-1.79,4.55-1.79,3.36,0,5.34,2.07,5.34,4.86,0,2.61-1.47,4.24-4.31,5.1-.29.08-.42.03-.6-.25-.15-.24-.45-.56-.98-.88,2.37-.56,4.23-1.54,4.23-4.19,0-1.67-1.26-3.25-3.14-3.25h-.06Zm-4.02,1.36c-.67.76-1.09,1.7-1.09,2.59,0,1.29.52,2,.95,2,.36,0,.67-.18,1.05-.85.62-1.13,1.25-3.15,1.48-5.01-.98.2-1.77.59-2.4,1.27Z" fill="#0091c2"/>
          <path d="m419.54,53.43c-.14,0-.15-.01-.15-.15,0-.08.01-.52.03-1.39-1.12.24-2.51.49-3.64.66-.22.03-.43.1-.5.14-.06.03-.14.08-.22.08s-.15-.08-.2-.22c-.13-.38-.2-.71-.28-1.12.49-.01.88-.04,1.32-.1.08,0,.17-.01.25-.03v-4.4c-.95.01-1.32.03-1.39.03-.14,0-.15-.01-.15-.15v-.88c0-.14.01-.15.15-.15.08,0,.49.03,1.71.03h8.99c1.22,0,1.62-.03,1.71-.03.13,0,.14.01.14.15v.88c0,.14-.01.15-.14.15-.08,0-.49-.03-1.71-.03h-4.75v4.69c0,1.08.03,1.6.03,1.68,0,.14-.01.15-.15.15h-1.04Zm3.95-12.33c1.39,0,1.88-.03,1.96-.03.14,0,.15.01.15.17,0,.08-.03.39-.03,1.15v1.47c0,.76.03,1.06.03,1.15,0,.15-.01.17-.15.17-.08,0-.57-.03-1.96-.03h-5.1c-1.39,0-1.86.03-1.96.03-.14,0-.15-.01-.15-.17,0-.08.03-.39.03-1.15v-1.47c0-.76-.03-1.06-.03-1.15,0-.15.01-.17.15-.17.1,0,.57.03,1.96.03h5.1Zm-4.08,6.54v-.74h-1.97v.74h1.97Zm0,1.62v-.73h-1.97v.73h1.97Zm0,.9h-1.97v.97c.66-.1,1.34-.2,1.97-.31v-.66Zm-1.72-7.44h6.5v-.59h-6.5v.59Zm6.5.84h-6.5v.6h6.5v-.6Zm.95,4.16c.08,0,.18-.03.25-.06.07-.03.14-.06.21-.06.1,0,.17.03.49.32.34.32.38.42.38.52,0,.11-.04.18-.14.25-.11.07-.21.24-.38.59-.31.62-.67,1.19-1.13,1.69.69.43,1.51.74,2.48.95-.15.22-.35.53-.49.9-.14.38-.17.38-.53.27-.94-.29-1.72-.7-2.4-1.2-.62.48-1.32.9-2.12,1.23-.14.06-.22.1-.28.1-.1,0-.15-.1-.25-.32-.15-.34-.32-.6-.52-.8.9-.27,1.64-.62,2.26-1.05-.55-.62-1.01-1.36-1.37-2.24-.22.01-.32.01-.36.01-.14,0-.15-.01-.15-.17v-.81c0-.14.01-.15.15-.15.08,0,.43.03,1.54.03h2.37Zm-2.27,1.08c.27.56.6,1.05,1.02,1.46.39-.42.71-.91.97-1.46h-1.99Z" fill="#0091c2"/>
          <path d="m430.79,45.68c-1.26,0-1.69.03-1.78.03-.14,0-.15-.01-.15-.17v-1.15c0-.14.01-.15.15-.15.08,0,.52.03,1.78.03h3.21c.04-.57.06-1.2.07-1.89.01-.67-.01-1.18-.07-1.62.43.01,1.15.04,1.61.11.14.03.25.1.25.2,0,.11-.03.18-.08.29-.07.13-.11.36-.13.98-.01.69-.03,1.33-.08,1.93h3.61c1.26,0,1.69-.03,1.78-.03.14,0,.15.01.15.15v1.15c0,.15-.01.17-.15.17-.08,0-.52-.03-1.78-.03h-3.35c.87,2.75,2.76,5.03,5.6,6.11-.29.28-.6.67-.81,1.05-.13.24-.18.35-.29.35-.07,0-.17-.06-.32-.14-2.23-1.19-4.01-3.12-4.99-5.66-.14.48-.32.92-.53,1.34-.97,1.99-2.42,3.36-4.48,4.37-.17.07-.27.11-.34.11-.11,0-.17-.08-.32-.32-.22-.34-.49-.62-.8-.88,2.26-.87,3.71-2.23,4.54-3.85.35-.7.6-1.51.76-2.48h-3.05Z" fill="#0091c2"/>
          <path d="m444.78,47.94c0-.53.01-1.18.03-1.79-.42.55-.84,1.05-1.25,1.46-.14.13-.22.21-.31.21s-.14-.1-.21-.31c-.11-.38-.34-.83-.53-1.15,1.48-1.33,2.54-2.84,3.24-4.73.13-.32.22-.66.28-.98.55.14.91.27,1.36.45.18.07.24.11.24.21s-.04.17-.13.24c-.11.08-.2.24-.35.6-.25.6-.55,1.22-.88,1.81v7.16c0,1.36.03,2.05.03,2.13,0,.13-.01.14-.15.14h-1.22c-.15,0-.17-.01-.17-.14,0-.1.03-.77.03-2.13v-3.17Zm5.34,2.86c0,.5.08.69.39.8.25.08.62.1,1.39.1.71,0,1.13-.08,1.44-.35.24-.2.36-.8.42-2.13.29.22.7.43,1.08.57.35.13.34.13.31.49-.1,1.37-.34,1.98-.81,2.33-.46.32-1.3.48-2.54.48-1.32,0-1.99-.06-2.44-.28-.46-.22-.74-.59-.74-1.53v-8.84c0-.78-.01-1.19-.08-1.62.56.01,1.01.04,1.5.1.18.01.27.07.27.18s-.04.18-.08.27c-.07.13-.1.35-.1.95v3.5c.9-.56,1.72-1.22,2.59-2.06.28-.25.6-.62.83-.95.38.28.78.63,1.09.92.11.11.15.18.15.28s-.1.18-.24.22c-.15.06-.42.25-.73.53-1.04.92-2.27,1.86-3.7,2.72v3.32Z" fill="#0091c2"/>
        </g>
        <g>
          <path d="m214.24,83.31s-.99,1.47-1.28,2.76c-.29,1.29,1.77,3.36,1.77,3.36l1.82-5.37-2.32-.75Z" fill="#f1cfcd"/>
          <path d="m230.28,47.72s-.42,3.07.71,4.48c0,0-4.6,6.1-8.16,5.2-3.56-.9-.94-4.79-.94-4.79l8.39-4.89Z" fill="#f1cfcd"/>
          <path d="m227.6,136.23s.18,1.46-.41,3.06c-.58,1.61-2.61,5.26-2.56,6.76.05,1.51.68,2.64,2.08,2.79,1.08.12,4.41-.92,5.53-3.54,1.12-2.63.17-3.34.75-4.46.58-1.12,1.27-3.5.88-5.25-.39-1.75-6.27.63-6.27.63Z" fill="#001135"/>
          <path d="m224.07,132.07l-7.64-.56h-.16s-.64,1.65-2.13,2.26c-1.5.6-5.41,2.19-6.52,3.69-.91,1.23,1.08,2.93,5.25,1.91,2.96-.72,3.28-2.23,6.75-2.29,2.38-.04,3.29-.47,4.29-1.72l.16-3.28Z" fill="#001135"/>
          <path d="m214.87,133.61s1.81-7.53.56-15.97c-.86-5.8-.98-21.58-.58-34.05,0,0,1.61,2.63,5.7,4.23,4.08,1.6,4.91,3.11,4.91,3.11l-.69,11.08s-.62,6.07-.41,9.19c.21,3.14-.35,2.99-.25,8.4.11,5.41-.08,14.66-.08,14.66,0,0-5.18,1-9.16-.64Z" fill="#633750"/>
          <path d="m234.18,121.66c-.64-5.3-1.4-10-1.15-13.66.25-3.66,2.04-17.45.21-21.72l-12.7,1.53s1.74,17.46,3.78,26c2.04,8.54,2.87,25.48,2.87,25.48,0,0,.17,2.04,2.64,2.15,2.47.11,4.03-4.37,4.03-4.37,0,0,.96-10.11.31-15.41Z" fill="#633750"/>
          <path d="m214.24,82.85s-.07,2.4,2.27,3.76c2.33,1.36,9.59,3.23,11.66,2.13,2.08-1.1,2.08-13.15,2.08-13.15l1.56-16.16-2.93-3.69s-4.15,1.16-5.78.45c-1.63-.72-1.49-3.75-1.49-3.75,0,0-2.56-.22-3.92,3.34-1.36,3.55-1.4,15.98-1.4,15.98,0,0-.65,8.49-.94,9.22-.29.73-1.1,1.87-1.1,1.87Z" fill="#e6f6ff"/>
          <path d="m219.75,50.67s-3.35-.51-4.32,2.64c-.48,1.58-.36,5.37-.12,8.74-.14,2.05-.04,3.76.13,4.57.51,2.38-.9,10.52-.9,11.6s-.87,1.9-1.82,3.59c-.95,1.7,1.84,3.22,1.84,3.22,1.73-.93,1.96-15.81,3.31-23.62.32-1.83.52-3.5,1.09-4.75,1.87-4.1,5.11-5.67,5.11-5.67l-4.33-.32Z" fill="#2a4048"/>
          <path d="m235.8,87.94c-2.05-2.58-4.03-6.89-2.92-9.72,1.11-2.83,4.46-9.71,4.46-9.71l.75-10.27-5.91-4.74-.97-1.05s.1,1.63-2.04,4.1c-3.52,4.07-5.06,10.52-4.78,17.71.28,7.19,1.23,11.49,4.38,16.18l2.86,5.15s.59,3.63.82,3.88c1.54,1.74,6.41.07,6.75-1.31,0,0-1.36-7.65-3.41-10.23Z" fill="#2a4048"/>
          <path d="m224.08,58.33l-.97-2.14-1.94,1.5.43,1.96s-3.55,10.38-3.74,21.69l1.73,3.15,1.9-1.91s.51-12.19.82-14.76c.31-2.57.48-8,.48-8l1.3-1.49Z" fill="#633750"/>
          <path d="m230.84,51.73c-2.15,3.68-7.74,4.45-7.74,4.45l.87,3.25s5.95-2.47,7.84-5.83l-.97-1.87Z" fill="#fdfdfd"/>
          <path d="m220.72,58.01l2.39-1.82s-.56-2.76-.2-4.7h-.98s-1.85,3.39-1.2,6.51Z" fill="#fdfdfd"/>
          <path d="m224.65,78.21s1.94-9.13,5.21-14.75l-2-1.93,1.93-.62,2.78-7.3-1.74-1.87s.11.96-.35,1.87c-.47.92-4.08,5.03-5.5,10.67-1.42,5.65-.34,13.93-.34,13.93Z" fill="#2a5348"/>
          <path d="m216.31,76.57l-.88-18.16,1.76-.47-.72-2.2,5.56-5.06,2.21.65s-4.9,2.8-5.82,7.73c-.93,4.93-2.12,17.51-2.12,17.51Z" fill="#2a5348"/>
          <g>
            <path d="m219.54,44.95c-.02-.61.34-1.26.47-2.04.14-.77.58-2.5,2.57-4.03,1.99-1.53,4.92-1.85,6.86-.72,1.94,1.14,3.18,3.42,2.85,6.13-.34,2.72-1.91,5.51-3.49,6.94-1.58,1.43-3.33,2.06-5.15,2.29-1.79.23-2.61-.68-2.73-1.47,0,0-.33-.73-.51-1.35-.36-1.82-.78-2.98-.87-5.74Z" fill="#f1cfcd"/>
            <path d="m229.61,37.29c-3-1.83-6.32-.81-8,.5-.59.46-1.24,1.14-1.9,2.53-.55,1.14-.42,3.4,2.19,3.44,1.41.02,3.25-.37,4.65-.73,1.58.89,1.08,2.55,1.32,3.08.24.53.5,1.21.86,1.39.21.11.59-.26.69-.39.23-.3,1.83-2.41,2.1.05.38-.92.66-1.9.78-2.87.05-.4.07-.8.05-1.18h0c.42-1,.16-4.06-2.73-5.82Z" fill="#001e26"/>
            <path d="m227.87,46.12c.24.53.5,1.21.86,1.39.21.11.59-.26.69-.39.23-.3,1.83-2.41,2.1.05.38-.92.66-1.9.78-2.87.05-.4.07-.8.05-1.18-1.57.94-3.56,1.36-4.64,1.54.12.62.05,1.19.17,1.47Z" fill="#001e26"/>
            <path d="m229.44,49.38c.23.13.76.3,1.7-.84.94-1.15.86-2.16.34-2.47-.52-.31-.99-.07-1.22.34-.24.41-.82,2.98-.82,2.98Z" fill="#f2a983"/>
            <path d="m229.44,49.38c.23.13.76.3,1.7-.84.94-1.15.86-2.16.34-2.47-.52-.31-.99-.07-1.22.34-.24.41-.82,2.98-.82,2.98Z" fill="#f1cfcd"/>
          </g>
          <g>
            <path d="m232.18,88.22l-.33.67s-.85.27-.91.33c-.05.05-2.45,1.24-2.45,1.24,0,0,1.27,3.37,3.14,5.13,0,0,2.13-3.25,2.41-3.91.28-.66.97-1.87.97-1.87l-2.84-1.58Z" fill="#f1cfcd"/>
            <path d="m234.4,65.31c-.86-2.03-.7-6.11,1.31-6.9,2.02-.79,3.21-.83,6.2,5.22,2.99,6.05,2.56,10.34,2.92,11.37.37,1.04-.79,3.05-1.47,4.46-.67,1.41-8.37,12.34-8.37,12.34,0,0-2.26-1.65-3.73-3.12l7.15-13.58s-2.62-6.5-4.03-9.79Z" fill="#2a4048"/>
            <path d="m231.34,88.75l-.35.42,3.31,3.35.46-.9c-.61-.46-2.24-1.71-3.42-2.87Z" fill="#e2e9ed"/>
          </g>
        </g>
        <g>
          <g>
            <polygon points="79.95 64.1 87.7 80.51 84.57 83.94 73.83 66.28 79.95 64.1" fill="#f1cfcd"/>
            <path d="m59.61,147.43l.16-7.93c-.19-.75-1.19-.9-1.99-1.6-.36-.31-.87-.35-1.22-.09l-.76.55c-1.12.76-1.18.98-.94,1.97l1.46,5.87c.25.99,1.13,2.05,1.97,2.37l.24.09c.84.32,1.32-.23,1.08-1.22Z" fill="#001e26"/>
            <path d="m56.9,138.29s.75,4.85,1.99,5.16c0,0,.8.2.82-1.09.03-1.28.36-3.77.36-3.77l-3.17-.31Z" fill="#f1cfcd"/>
            <path d="m61.65,45.79s-5.81,1.14-7.24,3.36c-1.43,2.23,1.1,7.72,1.1,7.72v-2.87s-3.36-5.52,5.92-6.73c6.23-.81.23-1.49.23-1.49Z" fill="#001e26"/>
            <path d="m61.54,45.96s-9.59,6.21-6.04,12.22c3.56,6.01,13.2,8.6,13.2,8.6l3.92-20.2-11.08-.63Z" fill="#001e26"/>
            <path d="m76.87,144.61l-5.93-4.16c-.76-.31-2.36-.35-3.41-.15-.47.09-.78.47-.76.89l.06.92c.04,1.32.2,1.5,1.2,1.91l5.93,2.39c1,.4,2.42.36,3.16-.1l.21-.13c.74-.46.53-1.16-.47-1.57Z" fill="#001e26"/>
            <path d="m67.28,140.56c.07,1.84,3.81,2.5,3.88.63,4.54-17.32,5.12-33.16,5.99-51.48l-11.44-9.63c.92,15.89,2.37,29.35,2.09,43.08-.04,1.78-.92,3.66-1.02,5.37-.21,3.55.82,8.57.51,12.02Z" fill="#f1cfcd"/>
            <path d="m56.95,137.64c-.41,1.61,1.89,3.17,2.91,1.72,3.09-6.36,5.35-11.25,7.45-16.06,1.59-3.64,1.93-7.99,2.6-12.35,1.59-10.42-9.17-13.04-8.63-2.46.22,4.33.14,8.68-.39,13-.26,2.09-1.45,1.99-2.14,5.5-.7,3.57-.84,5.56-1.8,10.65Z" fill="#f1cfcd"/>
            <path d="m83.91,70.67l-7.18-12.82s-9.88,12.4-1,16l4.24,4.32,5.62-2.77-1.69-4.73Z" fill="#7285b1"/>
            <path d="m61.52,82.18c-4.98.1-.03,19.79-2,33.96,0,0,10.38,9.55,19.17,1.19l-.33-32.55-16.85-2.59Z" fill="#633750"/>
            <path d="m78.13,83.84c.29-3.48-1.38,3.47-1.32-.56.02-1.55.78-5.99,1.15-8.92.35-2.74,3.22-4.37,2.63-7.72-.08-1.82-3.3-5.2-3.44-6.53-.22-2.11-.37-4.05-4.8-6.13l-1.95.42c-.93.2-1.83.5-2.67.89-9.03,4.18-11,4.39-10.37,9.68.1,2.72,1.72.6,2.21,2.4.94,3.46,4.58,6.97,3.3,13.04-.26,1.22-1.22,2.06-.13,2.87,4.72,3.52,13.74,4.19,15.4.56Z" fill="#7285b1"/>
            <path d="m78.43,83.81c0,.13.01,0,0,0h0Z" fill="#ff5cab"/>
            <path d="m88.26,86.18l-1.71.97c-.83.47-1.91.45-2.38-.05l-.33-.35c-.48-.5-.19-1.3.65-1.78l1.71-.97c.83-.47,1.91-.45,2.38.05l.33.35c.48.5.19,1.3-.65,1.78Z" fill="#f1cfcd"/>
            <path d="m70,86.08l-.05-.36.61.17.09-.23,13.48-6.9c.16-.08.47-.08.69.02l6.67,2.84v-.08s1.2.36,1.2.36l.06.39h0s-.04.07-.09.1l-14.03,7.18c-.16.08-.47.08-.69-.02l-7.72-3.29c-.12-.05-.18-.12-.19-.18h0Z" fill="#bfc6c9"/>
            <path d="m78.56,89.18l14.03-7.18c.16-.08.12-.23-.1-.32l-7.72-3.29c-.22-.09-.52-.1-.69-.02l-14.03,7.18c-.16.08-.12.23.1.32l7.72,3.29c.22.09.52.1.69.02Z" fill="#dde5e8"/>
            <path d="m76.85,84.67l3.39-1.74s.03-.05-.02-.08l-1.87-.8c-.05-.02-.13-.02-.17,0l-3.39,1.74s-.03.05.02.08l1.87.8c.05.02.13.02.17,0Z" fill="#bfc6c9"/>
            <path d="m70.77,86.14c-5.03-.2-9.53-1.56-13.59-3.93-1.09-.64-1.78-1.79-1.81-3.01-.06-2.8-.03-7.76.92-8.57l4.34,4.98-.2,2.77c4.74,2.09,7.23,4.56,10.13,5.44l.21,2.31Z" fill="#f1cfcd"/>
            <path d="m62.86,57.51s3.31,7.94,8.13,5.87c4.81-2.07,1.33-9.25,1.33-9.25,0,0-5,1.03-9.45,3.38Z" fill="#cedae2"/>
            <path d="m68.46,59.04l.32.06c1.08.22,2.07-.44,2.21-1.46l.78-5.74c.14-1.02-.63-2.03-1.71-2.25l-.32-.06c-1.08-.22-2.07.44-2.21,1.46l-1.61,5.34c-.14,1.02,1.46,2.43,2.54,2.64Z" fill="#f1cfcd"/>
            <path d="m78.99,81.64c.06-.31.37-.68.69-.84l14.82-7.42c.13-.07.24-.08.33-.06h0s0,0,0,0c.03,0,.06.02.08.04l.49.37h-.45s-1.43,7.1-1.43,7.1c-.06.31-.37.68-.69.84l-14.02,7.02-.45.42-.06.1c-.28.07-.96-.26-.96-.26l1.64-7.29Z" fill="#fff"/>
            <path d="m79.62,78.75c.06-.31.37-.68.69-.84l14.82-7.42c.13-.07.24-.08.33-.06h0s0,0,0,0c.03,0,.06.02.08.04l.49.37h-.45s-1.43,7.1-1.43,7.1c-.06.31-.37.68-.69.84l-14.02,7.02-.45.42-.06.1c-.28.07-.96-.26-.96-.26l1.64-7.29Z" fill="#fff"/>
            <path d="m95.61,70.88l-14.82,7.42c-.32.16-.63.54-.69.84l-1.45,7.18s0,0,0,.01l-.58,2.87c-.06.31.15.42.47.27l14.82-7.42c.32-.16.63-.54.69-.84l1.45-7.18s0,0,0-.01l.58-2.87c.06-.31-.15-.42-.47-.27Z" fill="#5691bb"/>
            <path d="m86.94,80.53c-.02.52.48.69,1.1.38.62-.31,1.14-.99,1.16-1.51.02-.52-.48-.69-1.1-.38-.62.31-1.14.99-1.16,1.51Z" fill="#fff"/>
            <path d="m68.29,141.86s4.24,1.73,5,1.22c.65-.43-2.49-2.48-2.49-2.48l-2.52,1.25Z" fill="#f1cfcd"/>
            <path d="m54.53,75.04c-.01-6.08,1.32-10.81,2.37-13.59.45-1.21,1.68-1.55,3.14-2.49.24-.15.14,1.25.4,1.45h0c1.59,1.2,2.43,3.32,2.12,5.35l-1.62,12.38,7.54,4.39s.75,2.83-1.18,4.43c0,0-11.28-4.41-12.02-5.41s-.74-6.51-.74-6.51Z" fill="#7285b1"/>
            <path d="m69.33,84.59h0c-.15.89.45,1.74,1.34,1.89l3.09.53c.89.15,1.74-.45,1.9-1.34h0c.15-.89-.45-1.74-1.34-1.89l-3.09-.53c-.89-.15-1.74.45-1.9,1.34Z" fill="#f1cfcd"/>
            <path d="m66.2,43.11c.92-1.47,2.31-1.73,3.61-.88,1.27-.52,2.81.24,3.94,2.17,1.58,2.68,1.42,6.4.44,8.74-.53,1.27-1.16,2.15-4.19,1.62-2.05-.39-3.21-1-4.37-2.97-1.58-2.68-.76-6.52.57-8.67Z" fill="#f1cfcd"/>
            <path d="m73.38,45.43c-3.64,5.63-5.76,4.02-5.85,4.9,0,0-.71,3-.71,3.01-.37,1.75-2.04.37-3.75.94h0s-5.59-6.47,1.36-11.67c4.71-3.52,11.22-.05,10.51,4.58l-1.55-1.74Z" fill="#001e26"/>
            <ellipse cx="66.91" cy="50.49" rx="1.28" ry="1.4" transform="translate(-10.87 81.74) rotate(-58.93)" fill="#f1cfcd"/>
          </g>
          <path d="m37.14,68.74c.71.17,1.37-.07,2-.14,1.97-.23,3.47-.03,4.71.68.3.17-.85,3.33-2.23,4.34-.07.05-.15-.03-.22-.06l-1.28-.41-3.47-1.16.5-3.25Z" fill="#db9669" fill-rule="evenodd"/>
          <path d="m38.29,68.74c1.26-.22,2.11-.77,2.82-.79.73-.02,1.78.57,3.11.71-.24,1.32-1.98.46-2.61.58-.58.11-.61.82-1.16.83-.85.02-2.08-.39-2.17-1.32Z" fill="#db9669" fill-rule="evenodd"/>
          <path d="m24.04,71.29c5.6.97,8.38.69,14.04,1.23-.62-2.15.53-4.08,1.4-4.29-4.78-1-10.59-2.59-15.53-2.57l.09,5.63Z" fill="#cee6f5" fill-rule="evenodd"/>
          <path d="m22.97,71.44c5.6.97,8.64.65,14.3,1.19-.8-2.29.42-4.59,1.42-4.79-4.78-1-10.59-2.59-15.53-2.57l-.19,6.16Z" fill="#a7a9ac"/>
          <path d="m11.16,148.93c.71-.09,1.27-.1,1.98-.36.18-.07.37-.77.38-1.39.03-1.28-.09-1.17-.62-3.21-.18-.69-.33-1.36-.58-2.17-.31-1.01-.7-1.9-.74-2.89l-3.75-.15-1.18-.05c-.35,1.02-.67,1.82-.64,2.46.03.67.11,1.32.21,2.16.43,3.76,3.64,5.75,4.94,5.59Z" fill="#111214" fill-rule="evenodd"/>
          <path d="m29.24,140.3c1.42.02.96-1.55-.24-2.4-2.52-1.79-4.25-2.96-5.43-4.61-.59-.82-.69-1.56-1.09-2.97-2.11-.07-4.16-.19-6.27-.34-.62,1.82-.98,1.58-.9,3.9.19,2.68,9.73,6.37,13.92,6.42Z" fill="#111214" fill-rule="evenodd"/>
          <g>
            <g>
              <path d="m14.64,91.55c-.24-1.91-.37-3.75-.3-5.42,1.71-.68,3.5-1.33,5.24-2.09l-.12-.1c1.84-.86,3.42-2.2,5.54-3.41.89,2.79,1.21,4.04,1.15,6.31-.09,2.96-.51,5.97-.99,8.97-.31,4.6-.72,9.39-1.02,12.53-.76,8.01-.67,15.9-1.15,23.89-1.15.85-5.78,1.73-7.41-.56l-.93-40.12Z" fill="#50546b"/>
              <path d="m7.47,85.89c.18-.37.39-.68.64-.9l4.95-.39,5.87-.68c.39,1.92.53,4.44-.04,6.97-.02.07-.06.17-.13.29-.06.42-.13.83-.22,1.25-.09.38-1.03,1.46-1.71,2.37-.61,6.16-1.79,14.72-2.48,19.09-1.25,7.94-.5,17.42-1.21,25.4-1.09,1.7-6.12,1.88-7.68-.23l2.01-53.17Z" fill="#50546b"/>
            </g>
            <g>
              <path d="m14.64,91.55c-.24-1.91-.37-3.75-.3-5.42,1.71-.68,3.5-1.33,5.24-2.09l-.12-.1c1.84-.86,3.42-2.2,5.54-3.41.89,2.79,1.21,4.04,1.15,6.31-.09,2.96-.51,5.97-.99,8.97-.31,4.6-.72,9.39-1.02,12.53-.76,8.01-.67,15.9-1.15,23.89-1.15.85-5.78,1.73-7.41-.56l-.93-40.12Z" fill="#50546b"/>
              <path d="m7.47,85.89c.18-.37.39-.68.64-.9l4.95-.39,5.87-.68c.39,1.92.53,4.44-.04,6.97-.02.07-.06.17-.13.29-.06.42-.13.83-.22,1.25-.09.38-1.03,1.46-1.71,2.37-.61,6.16-1.79,14.72-2.48,19.09-1.25,7.94-.5,17.42-1.21,25.4-1.09,1.7-6.12,1.88-7.68-.23l2.01-53.17Z" fill="#50546b"/>
            </g>
          </g>
          <path d="m21.08,47.41c1.98-.13,2.86.29,3.91,1.84,1.82,2.71,2.1,8.49,1.98,13.69-.07,2.95-.54,5.54-.58,9.21-.04,4.39,1.29,12.12,1.08,16.77-.4.86-3.22,2.3-3.59,2.23.36-4.63.46-10.86.28-17.23-.17-6.19-.61-12.52-1.76-17.22-1.7-6.9-4.62-7.64-4.32-8.57.06-.19,2.89-.71,3.01-.71Z" fill="#a7a9ac"/>
          <path d="m13.05,74.94c.08,1.07.1,2.04.08,2.94-2.84-2.59-5.51-5.9-8-9.49-1.28-3.59-2.43-7.19-2.41-9.74l10.33,16.29Z" fill="#11101a" fill-rule="evenodd"/>
          <path d="m25.04,80.73c-.02.14-.07.27-.16.39-1.82,2.53-13.21,6.34-15.59,6.15,1.89-16.45-15.33-30.45,3.12-35.87l5.31,2.92,1.9-.34.24-2.34c2.57,2.56,3.76,5.94,4.22,10.65.6,6.16-.69,11.68.96,18.44Z" fill="#dadef0"/>
          <path d="m6.61,53.55c.99-.55,3.01-1.79,5.19-3.01-1.84,2.2,2.6,7.49,4.66,14.08,1.21,3.89,3,17.26-.72,29.37-6.78,2.28-10.45-1.27-11.11-1.9.88-7.18,3.35-8.23,3.55-12.7.18-4.11-5.61-15.06-5.56-20.73.02-2.52,2.14-4.08,4-5.11Z" fill="#a7a9ac"/>
          <path d="m19.62,48.78c1.85.86,2.45,1.2,3.74,3.18l-1.12.78,1.56.66c.56,5.72,1.15,12.08.46,17.88-.29-5.66-1.26-11.46-2.67-16.22-.54-1.82-1.29-2.61-2.49-4.4-.2-.29.17-2.05.52-1.89Z" fill="#c8b9c3"/>
          <path d="m11.82,49.84c-.6.79-1.06,1.47-1.3,2.04-.72,1.76-.63,4.51.24,7.56l1.77-.66-.85,1.93c3.56,4.65,5.55,11.58,5.83,18.69,2.31-18.5-6.34-23.1-5.69-29.57Z" fill="#c8b9c3"/>
          <path d="m20.73,74.43c-.53-3.6-.93-11.92-1.94-15.53.13-.66.26-1.22.44-1.86-1.11-.95-1.16-.95-1.39-2.25.8-.73,1.24-.83,2.28-.73.28.19.4,1.11,0,2.5.29.09.67.18,1.18.51,1.02,7.02,2.44,10.45,1.9,17.11l-.71,1.56-1.77-1.31Z" fill="#3e4f5e" fill-rule="evenodd"/>
          <path d="m19.03,54.07c.13-.33.2-1.02.34-1.62.13-.53.33-.99.45-1.26.73.09,1.05,2.3,1.67,3.6-.96-.67-1.38-.73-2.45-.72Z" fill="#e8f6ff" fill-rule="evenodd"/>
          <path d="m12.22,49.48c-.15,2.36,4.33,4,6.83,4.59-.63.76-1.44,1.71-1.41,2.46-1.8-.49-4.86-1.34-6.1-3.64-.85-1.58-.15-2.79.67-3.41Z" fill="#e8f6ff" fill-rule="evenodd"/>
          <path d="m19.51,51.98c.08-.23.17-.45.26-.7.26-.69.26-2.16.71-3.79l-6.41-2.8-1.37-.73c.5,2.42.21,3.86-.48,5.57-.07,2.32,4.33,3.94,6.81,4.53.22-.56.24-1.39.48-2.09Z" fill="#f1cfcd"/>
          <path d="m22.97,41.27c-.05-.27-.39-1.51-.46-1.76-.8-2.99-2.79-5.35-6.45-5.4-1.88-.03-3.43.6-4.6,1.96-1.34,1.56-2.07,4.05-1.36,6.08.3.85.92,1.54,2.5,2.24.86,2.07.99,3.79,2.68,4.57.77.36,2.72.71,3.57,1.05,1.08.29,1.46.24,1.84.07,1.73-.75,2.9-5.33,2.28-8.81Z" fill="#f1cfcd"/>
          <path d="m20.89,37.71c.4.01.89-.22,1.22.61-.24-1.36-.65-1.48-1.49-1.61l.27,1Z" fill="#361d07" fill-rule="evenodd"/>
          <path d="m16.35,39.24c-2.56-.26-5.87-2.18-6.53-3.34-1.38,2.71-1.1,6.77,1.05,8.98.62,1.17,1.22,2.33,1.8,3.52.51-1.78.68-3.26.83-5.03l.11-.16c.15.31.52,1.07.65,1.38.16,0,.42-.23.65-.37-.45-2.36.18-4.11,1.44-4.98Z" fill="#361d07" fill-rule="evenodd"/>
          <path d="m16.01,39.4c2.69-.24,6.23-1.47,7.58-3.51-2.44.37-5.21-3.27-9.07-2.91-2.24.21-4.65,1.35-4.76,3.3.73.96,4,3.32,6.24,3.12Z" fill="#361d07" fill-rule="evenodd"/>
          <path d="m12.69,42.48c-1.44-.33-1.28,1.28-.97,2.24.22.66.77.55,1.02,1.06.31.61.83.85,1.24.79.85-.11.19-1.32.04-1.81.01-.83-.42-2.07-1.34-2.28Z" fill="#f1cfcd"/>
          <path d="m2.69,57.1c-1.46,3.98-1.67,12.11-1.34,17.4.16,2.69.48,4.79,2.64,5.4,2.04.58,3.82-1.5,4.23-3.63.49-2.53.82-5.63,1.52-10.96.74-5.68-5.09-13.54-7.03-8.22Z" fill="#a7a9ac"/>
          <g>
            <path d="m20.09,80.94l-.81-1.23-.02-2.43c1.05-.87.97-1.57,1.49-1.45,1.87.45,1.7,5.72-.66,5.11Z" fill="#a7a9ac"/>
            <g>
              <path d="m19.81,76.1c2.68.24,6.03-1.1,7.54-.13,1.3.84.74,2.79.03,3.73-.58.77-2.98.91-4.54,1.1-1.38.17-2.36-.97-3.34-.77-.9-1.14-.13-2.72.3-3.93Z" fill="#f1cfcd"/>
              <path d="m26.76,75.76c1.27,0,3.31-.1,4.58-.12.89-.02.58,1.35-.23,1.45-.79.09-2.89.27-2.89.27-.83-.05-1.68-.6-1.46-1.6Z" fill="#f1cfcd"/>
            </g>
            <path d="m1.91,76.46c.6,1.38.63,2.4,2.07,3.18.62.34,1.43.44,2.36.54,3.55.38,8.71.86,13.86.79-.28-.47-.59-1.76-.53-3.06.04-.82.31-1.6,1.05-2.08-4.21-.85-9-.83-13.05-1.38-.97-.13-.75-.04-1.63-.07l-4.14,2.08Z" fill="#a7a9ac"/>
          </g>
          <polygon points="47.11 55.54 38.73 60.07 28.29 80.03 30.45 81.17 37.17 74.84 47.11 55.54" fill="#d2d6d9" fill-rule="evenodd"/>
          <polygon points="47.11 55.54 38.73 60.07 41.17 61.46 49.3 56.83 47.11 55.54" fill="#e3e6e8" fill-rule="evenodd"/>
          <path d="m42.34,69.39c1.43-.26,1.43-.61,1.52-.12.12.71-.87,3.35-2.24,4.35,0,0-.96.25-1.44.24-.41-.01-.38-.23-.16-.81l.98-2.54c.32-.76.47-.95,1.35-1.11Z" fill="#f1cfcd"/>
          <path d="m38.59,60c2.34-1.15,4.2-.95,4.73.36.97,2.38-1.07,7.5-2.17,10.35l8.38-4.42c2.48-6.47,3.79-13.32-2.79-10.71l-8.15,4.42Z" fill="#f2f4f5" fill-rule="evenodd"/>
        </g>
      </g>
    </g>
  </g>
</svg>