<?xml version="1.0" encoding="UTF-8"?>
<svg xmlns="http://www.w3.org/2000/svg" viewBox="0 0 424.5 798.27">
  <g isolation="isolate">
    <g id="_レイヤー_2" data-name="レイヤー 2">
      <g id="_デザイン" data-name="デザイン">
        <g>
          <path d="m28.27,346.35c2.29-.75,4.26-1.51,6.34-2.52,1.4-.68,2.05-1.09,2.78-1.87.91.75,1.77,1.82,2.16,2.34.13.16.21.31.21.47,0,.21-.13.39-.44.47-.73.18-1.46.55-2.16.86-2.57,1.17-5.49,2.21-8.92,3.22v3.46c0,1.22.18,1.64.86,1.85.68.18,1.69.29,3.28.29,2.44,0,4.63-.18,7.33-.6.39-.05.44.05.47.36.08.73.16,1.72.16,2.26,0,.34-.16.44-.55.47-2.94.36-4.45.47-7.72.47-2.31,0-3.85-.23-4.94-.7-1.3-.55-1.85-1.77-1.85-3.9v-9.59c0-2.47-.05-3.46-.26-4.76,1.22.13,2.44.29,3.28.52.31.08.42.23.42.42s-.08.36-.18.55c-.21.42-.26,1.12-.26,2.34v3.61Zm10.87-7.51c.13-.1.23-.08.39.05.81.62,1.74,1.66,2.47,2.78.1.16.1.29-.08.42l-1.09.81c-.18.13-.31.1-.44-.08-.78-1.2-1.61-2.18-2.63-3.02l1.38-.96Zm2.31-1.69c.16-.1.23-.08.39.05.96.73,1.9,1.77,2.47,2.68.1.16.13.31-.08.47l-1.04.81c-.21.16-.34.08-.44-.08-.7-1.12-1.53-2.11-2.6-2.99l1.3-.94Z" fill="#0091c2"/>
          <path d="m53.02,341.69c.44.13.49.44.34.81-.29.57-.31,1.14-.31,1.77-.05,3.25-.55,5.72-1.4,7.64-.68,1.59-1.82,3.28-3.69,4.89-.26.21-.47.34-.68.34-.16,0-.31-.08-.49-.21-.65-.44-1.27-.75-2.21-1.09,2.03-1.53,3.41-3.12,4.32-5.17.73-1.77,1.07-3.2,1.09-7.36,0-.99-.05-1.4-.26-2.18,1.48.18,2.68.36,3.3.57Zm5.77,11c1.27-.68,2.47-1.48,3.69-2.42,1.56-1.2,3.09-2.57,4.55-4.42.1.91.36,1.77.81,2.63.08.18.16.31.16.44,0,.18-.1.36-.39.65-1.3,1.33-2.5,2.39-3.85,3.41-1.35,1.04-2.81,2.05-4.63,3.12-.47.31-.52.36-.75.55-.16.13-.34.21-.52.21-.16,0-.34-.08-.55-.21-.57-.39-1.17-1.07-1.56-1.59-.16-.23-.23-.39-.23-.55,0-.13.03-.23.1-.39.18-.34.16-.65.16-1.98v-8.14c0-2.26,0-3.33-.26-4.52,1.04.13,2.47.31,3.25.55.34.08.47.23.47.44,0,.16-.08.39-.21.65-.23.49-.23,1.01-.23,2.89v8.68Z" fill="#0091c2"/>
          <path d="m79.12,344.81c.34-.13.42-.08.55.18.75,1.56,1.33,3.02,1.74,4.68.08.29,0,.36-.31.47l-1.3.39c-.31.1-.39.08-.44-.21l-.29-1.12-1.61.16v7.15c0,2.39.05,3.28.05,3.41,0,.26-.03.29-.29.29h-1.98c-.26,0-.29-.03-.29-.29,0-.16.05-1.01.05-3.41v-6.92l-2.37.16c-.44.03-.78.1-.96.21-.1.05-.23.13-.39.13-.18,0-.23-.18-.29-.44-.16-.68-.26-1.35-.36-2.18.75.05,1.46.08,2.21.05.49-.62.99-1.3,1.46-1.98-1.04-1.3-2.26-2.6-3.48-3.77-.1-.1-.16-.16-.16-.23s.08-.18.18-.34l.91-1.3c.1-.16.18-.23.26-.23s.13.05.23.16l.68.7c.52-.88.96-1.69,1.4-2.68.34-.7.47-1.12.6-1.61.7.26,1.56.6,2.21.94.26.13.34.26.34.42,0,.13-.1.23-.23.34-.21.16-.31.29-.49.62-.81,1.43-1.48,2.47-2.29,3.59.42.47.83.91,1.22,1.38.6-.96,1.17-1.92,1.74-2.89.31-.57.57-1.22.78-1.79.78.36,1.59.75,2.18,1.12.23.13.31.23.31.39,0,.18-.08.29-.29.39-.26.16-.47.44-.86,1.04-1.33,2.11-2.73,4.08-3.93,5.64.94-.05,1.87-.13,2.81-.21-.18-.49-.39-1.01-.62-1.51-.1-.26-.1-.31.26-.47l1.04-.42Zm-7.44,7.75c.05-.49.08-.88.03-1.46.65.08,1.56.26,2,.36.31.08.44.18.44.31s-.05.23-.13.36-.1.44-.16.86c-.18,1.53-.47,3.38-.91,4.84-.13.42-.21.57-.36.57-.1,0-.26-.08-.47-.21-.55-.31-1.04-.52-1.48-.68.55-1.69.91-3.28,1.04-4.97Zm8.11-1.43c.31-.08.34-.05.44.23.42,1.33.81,2.83.96,4.34.03.29,0,.36-.34.47l-1.25.34c-.42.1-.44.08-.47-.18-.18-1.69-.47-3.17-.83-4.5-.08-.29,0-.34.31-.42l1.17-.29Zm8.68,2.52v3.43h2.44c2.47,0,3.3-.05,3.43-.05.29,0,.31.03.31.26v1.85c0,.26-.03.29-.31.29-.13,0-.96-.05-3.43-.05h-7.12c-2.5,0-3.33.05-3.48.05-.26,0-.29-.03-.29-.29v-1.85c0-.23.03-.26.29-.26.16,0,.99.05,3.48.05h2.13v-3.43h-.81c-2.21,0-2.96.05-3.12.05-.26,0-.29-.03-.29-.29v-1.74c0-.26.03-.29.29-.29.16,0,.91.05,3.12.05h.81v-.57c0-1.14,0-1.95-.16-2.7.96.03,1.69.1,2.57.21.26.03.42.16.42.29,0,.16-.05.29-.13.47-.13.29-.16.73-.16,1.61v.7h1.51c2.21,0,2.96-.05,3.12-.05.29,0,.31.03.31.29v1.74c0,.26-.03.29-.31.29-.16,0-.91-.05-3.12-.05h-1.51Zm2.24-16.04c.29,0,.47-.05.6-.13.1-.05.21-.1.34-.1.18,0,.52.18,1.09.7.65.57.86.86.86,1.04s-.08.26-.31.44c-.21.16-.47.6-.73,1.12-.81,1.64-1.79,3.04-3.04,4.26,1.43.78,3.12,1.33,5.17,1.74-.36.52-.68,1.14-.91,1.92-.13.47-.18.62-.42.62-.13,0-.31-.05-.6-.13-2.03-.62-3.77-1.43-5.28-2.47-1.27.88-2.76,1.61-4.47,2.26-.31.1-.49.18-.65.18-.21,0-.31-.16-.49-.55-.34-.7-.65-1.12-1.12-1.64,1.79-.49,3.38-1.14,4.76-1.95-1.33-1.35-2.37-3.04-3.2-5.12-.88.03-1.25.05-1.35.03-.26-.05-.29,0-.29-.26v-1.74c0-.26.03-.29.29-.29.16,0,.91.05,3.25.05h6.5Zm-5.85,2.18c.68,1.53,1.53,2.73,2.6,3.72,1.17-1.04,2.08-2.29,2.68-3.72h-5.28Z" fill="#0091c2"/>
          <path d="m102.21,336.62c.34-.13.42-.08.57.1.62.83,1.14,1.66,1.51,2.44.13.23.13.26-.23.39l-1.82.6h10.37c.52-.88.96-1.64,1.33-2.5.13-.34.29-.75.42-1.3.88.21,1.74.47,2.47.75.23.1.34.18.34.34,0,.21-.08.31-.23.44-.18.13-.39.34-.55.62-.36.6-.65,1.12-.99,1.64h.52c2.39,0,3.25-.05,3.43-.05.26,0,.29.03.29.29,0,.16-.05.65-.05,1.38v1.14c0,2.29.05,2.7.05,2.86,0,.26-.03.29-.29.29h-2.08c-.26,0-.29-.03-.29-.29v-3.38h-16.72v3.35c0,.29-.03.31-.29.31h-2.08c-.26,0-.29-.03-.29-.31,0-.16.05-.57.05-2.86v-.94c0-.91-.05-1.38-.05-1.56,0-.26.03-.29.29-.29.18,0,1.04.05,3.43.05h.6c-.05-.05-.08-.08-.13-.21-.34-.83-.83-1.69-1.33-2.39-.16-.23-.13-.29.18-.39l1.56-.55Zm9.28,7.36c2.34,0,3.17-.05,3.35-.05.23,0,.26.03.26.31,0,.13-.05.57-.05,1.77v2.29c0,1.2.05,1.64.05,1.79,0,.26-.03.29-.26.29-.18,0-1.01-.05-3.35-.05h-1.98c-.23.65-.49,1.22-.73,1.74h4.94c2.55,0,3.46-.03,3.64-.03.26,0,.26.03.26.29,0,.16-.03.78-.03,2v1.66c0,3.07.03,3.64.03,3.8,0,.23,0,.26-.26.26h-2.18c-.26,0-.29-.03-.29-.26v-.78h-12.53v.88c0,.26-.03.29-.26.29h-2.21c-.26,0-.29-.03-.29-.29,0-.16.05-.73.05-3.85v-1.4c0-1.53-.05-2.16-.05-2.31,0-.26.03-.29.29-.29.18,0,1.09.03,3.64.03h2.52c.26-.55.52-1.14.73-1.74h-1.07c-2.37,0-3.2.05-3.35.05-.23,0-.26-.03-.26-.29,0-.18.05-.6.05-1.79v-2.29c0-1.2-.05-1.64-.05-1.77,0-.29.03-.31.26-.31.16,0,.99.05,3.35.05h5.77Zm-9.13,12.77h12.53v-2.39h-12.53v2.39Zm2.39-8.48h7.72v-2.26h-7.72v2.26Zm3.67-11.93c.31-.1.39-.05.52.18.44.7.94,1.69,1.3,2.6.1.21.08.26-.29.36l-1.74.52c-.39.1-.42.08-.52-.21-.36-.86-.75-1.74-1.22-2.55-.16-.26-.08-.29.23-.39l1.72-.52Z" fill="#0091c2"/>
        </g>
        <g>
          <path d="m233.9,343.05c-1.69,0-3.17.08-4.29.13-.34.03-.44-.16-.49-.52-.08-.52-.18-1.87-.23-2.63,1.17.13,2.55.18,4.99.18h9.28c.78,0,1.07-.05,1.43-.26.13-.08.26-.1.39-.1.16,0,.31.05.49.13.7.44,1.4,1.09,1.9,1.72.13.16.18.29.18.44,0,.23-.13.44-.36.65-.23.23-.36.49-.6,1.01-1.27,3.07-2.86,5.93-5.04,8.45-2.24,2.55-4.76,4.71-7.38,6.19-.23.16-.47.23-.7.23-.21,0-.44-.08-.65-.29-.6-.57-1.46-1.04-2.42-1.43,3.8-1.92,6.11-3.72,8.5-6.5,2.03-2.31,3.35-4.52,4.39-7.41h-9.39Z" fill="#0091c2"/>
          <path d="m260.29,354.77c0,1.25.05,2.91.08,4.24.03.31-.13.44-.44.47-.68.05-1.43.05-2.11,0-.29-.03-.44-.16-.42-.47.03-1.48.08-2.78.08-4.16v-4.45c-1.77,1.48-4.06,3.07-5.38,3.74-.1.08-.23.1-.34.1-.18,0-.39-.1-.52-.26-.47-.55-1.17-1.07-1.87-1.3,4.08-2.13,7.62-4.86,10.79-8.45.6-.7,1.04-1.35,1.38-2.24.88.52,1.98,1.2,2.39,1.56.18.16.29.34.29.47,0,.18-.13.36-.39.49-.34.18-.94.81-1.17,1.07-.68.78-1.46,1.64-2.37,2.52v6.66Z" fill="#0091c2"/>
          <path d="m273.21,350.14c-2.57,0-3.56.31-3.82.31-.31,0-.52-.16-.6-.55-.13-.6-.29-1.82-.39-3.15,1.69.26,2.99.31,5.62.31h8.37c1.98,0,3.98-.05,5.98-.08.39-.03.47.05.47.36.05.78.05,1.66,0,2.44,0,.31-.1.42-.47.39-1.95-.03-3.87-.05-5.8-.05h-9.36Z" fill="#0091c2"/>
        </g>
        <g>
          <g>
            <line x1="149.98" y1="384.57" x2="149.98" y2="312.69" fill="none" stroke="#0091c2" stroke-miterlimit="10" stroke-width="4"/>
            <polyline points="139.95 375.58 149.98 385.61 160.01 375.58" fill="none" stroke="#0091c2" stroke-miterlimit="10" stroke-width="4"/>
          </g>
          <g>
            <line x1="197.02" y1="313.74" x2="197.02" y2="385.61" fill="none" stroke="#0091c2" stroke-miterlimit="10" stroke-width="4"/>
            <polyline points="207.05 322.73 197.02 312.69 186.98 322.73" fill="none" stroke="#0091c2" stroke-miterlimit="10" stroke-width="4"/>
          </g>
        </g>
        <g>
          <g>
            <path d="m189.03,472.24v88.41c0,.97.64,1.94,1.91,2.67l29.42,16.98c2.54,1.47,6.7,1.47,9.25,0l29.42-16.98c1.27-.73,1.91-1.7,1.91-2.67v-88.41h-71.9Z" fill="#9ca6ad"/>
            <path d="m190.93,474.91c-1.27-.73-1.91-1.7-1.91-2.67,0-.97.64-1.94,1.91-2.67l29.42-16.98c2.54-1.47,6.7-1.47,9.25,0l29.42,16.98c1.27.73,1.91,1.7,1.91,2.67s-.64,1.94-1.91,2.67l-29.42,16.98c-2.54,1.47-6.7,1.47-9.25,0l-29.42-16.98Z" fill="#b5c1b9"/>
          </g>
          <g>
            <path d="m196.73,445.44v26.8c0,.76.5,1.52,1.5,2.1l23.12,13.35c2,1.15,5.27,1.15,7.27,0l23.12-13.35c1-.58,1.5-1.34,1.5-2.1v-26.8h-56.49Z" fill="#9ca6ad"/>
            <path d="m198.23,447.54c-1-.58-1.5-1.34-1.5-2.1s.5-1.52,1.5-2.1l23.12-13.35c2-1.15,5.27-1.15,7.27,0l23.12,13.35c1,.58,1.5,1.34,1.5,2.1s-.5,1.52-1.5,2.1l-23.12,13.35c-2,1.15-5.27,1.15-7.27,0l-23.12-13.35Z" fill="#b5c1b9"/>
          </g>
          <polygon points="194.35 556.29 192.13 555.01 192.13 519.59 194.35 520.87 194.35 556.29" fill="#dae0f5" mix-blend-mode="multiply"/>
          <polygon points="200.28 559.71 198.06 558.43 198.06 523.02 200.28 524.3 200.28 559.71" fill="#dae0f5" mix-blend-mode="multiply"/>
          <polygon points="206.21 563.14 203.99 561.86 203.99 526.44 206.21 527.72 206.21 563.14" fill="#dae0f5" mix-blend-mode="multiply"/>
          <polygon points="212.14 566.56 209.93 565.28 209.93 529.87 212.14 531.15 212.14 566.56" fill="#dae0f5" mix-blend-mode="multiply"/>
          <polygon points="218.07 569.99 215.86 568.71 215.86 533.29 218.07 534.57 218.07 569.99" fill="#dae0f5" mix-blend-mode="multiply"/>
          <polygon points="194.35 515.7 192.13 514.42 192.13 482.97 194.35 484.25 194.35 515.7" fill="#dae0f5" mix-blend-mode="multiply"/>
          <polygon points="200.28 519.12 198.06 517.85 198.06 486.4 200.28 487.67 200.28 519.12" fill="#dae0f5" mix-blend-mode="multiply"/>
          <polygon points="206.21 522.55 203.99 521.27 203.99 489.82 206.21 491.1 206.21 522.55" fill="#dae0f5" mix-blend-mode="multiply"/>
          <polygon points="212.14 525.97 209.93 524.69 209.93 493.24 212.14 494.52 212.14 525.97" fill="#dae0f5" mix-blend-mode="multiply"/>
          <polygon points="218.07 529.4 215.86 528.12 215.86 496.67 218.07 497.95 218.07 529.4" fill="#dae0f5" mix-blend-mode="multiply"/>
          <polygon points="255.6 556.29 257.82 555.01 257.82 519.59 255.6 520.87 255.6 556.29" fill="#dae0f5" mix-blend-mode="multiply"/>
          <polygon points="249.67 559.71 251.89 558.43 251.89 523.02 249.67 524.3 249.67 559.71" fill="#dae0f5" mix-blend-mode="multiply"/>
          <polygon points="243.74 563.14 245.95 561.86 245.95 526.44 243.74 527.72 243.74 563.14" fill="#dae0f5" mix-blend-mode="multiply"/>
          <polygon points="237.81 566.56 240.02 565.28 240.02 529.87 237.81 531.15 237.81 566.56" fill="#dae0f5" mix-blend-mode="multiply"/>
          <polygon points="231.88 569.99 234.09 568.71 234.09 533.29 231.88 534.57 231.88 569.99" fill="#dae0f5" mix-blend-mode="multiply"/>
          <polygon points="255.6 515.7 257.82 514.42 257.82 482.97 255.6 484.25 255.6 515.7" fill="#dae0f5" mix-blend-mode="multiply"/>
          <polygon points="249.67 519.12 251.89 517.85 251.89 486.4 249.67 487.67 249.67 519.12" fill="#dae0f5" mix-blend-mode="multiply"/>
          <polygon points="243.74 522.55 245.95 521.27 245.95 489.82 243.74 491.1 243.74 522.55" fill="#dae0f5" mix-blend-mode="multiply"/>
          <polygon points="237.81 525.97 240.02 524.69 240.02 493.24 237.81 494.52 237.81 525.97" fill="#dae0f5" mix-blend-mode="multiply"/>
          <polygon points="231.88 529.4 234.09 528.12 234.09 496.67 231.88 497.95 231.88 529.4" fill="#dae0f5" mix-blend-mode="multiply"/>
        </g>
        <g>
          <g>
            <path d="m109.11,500.25v88.41c0,.97.64,1.94,1.91,2.67l29.42,16.98c2.54,1.47,6.7,1.47,9.25,0l29.42-16.98c1.27-.73,1.91-1.7,1.91-2.67v-88.41h-71.9Z" fill="#99adbf"/>
            <path d="m111.02,502.92c-1.27-.73-1.91-1.7-1.91-2.67,0-.97.64-1.94,1.91-2.67l29.42-16.98c2.54-1.47,6.7-1.47,9.25,0l29.42,16.98c1.27.73,1.91,1.7,1.91,2.67s-.64,1.94-1.91,2.67l-29.42,16.98c-2.54,1.47-6.7,1.47-9.25,0l-29.42-16.98Z" fill="#afbfcd"/>
          </g>
          <g>
            <path d="m116.81,473.45v26.8c0,.76.5,1.52,1.5,2.1l23.12,13.35c2,1.15,5.27,1.15,7.27,0l23.12-13.35c1-.58,1.5-1.34,1.5-2.1v-26.8h-56.49Z" fill="#99adbf"/>
            <path d="m118.31,475.55c-1-.58-1.5-1.34-1.5-2.1s.5-1.52,1.5-2.1l23.12-13.35c2-1.15,5.27-1.15,7.27,0l23.12,13.35c1,.58,1.5,1.34,1.5,2.1s-.5,1.52-1.5,2.1l-23.12,13.35c-2,1.15-5.27,1.15-7.27,0l-23.12-13.35Z" fill="#afbfcd"/>
          </g>
          <g>
            <path d="m126.2,455.56v17.89c0,.51.33,1.02,1,1.4l15.43,8.91c1.33.77,3.52.77,4.85,0l15.43-8.91c.67-.39,1-.89,1-1.4v-17.89h-37.72Z" fill="#99adbf"/>
            <path d="m124.29,453.78v1.78c0,.56.37,1.12,1.1,1.54l16.99,9.81c1.47.85,3.87.85,5.34,0l16.99-9.81c.73-.42,1.1-.98,1.1-1.54v-1.78h-41.53Z" fill="#99adbf"/>
            <path d="m125.4,455.33c-.73-.42-1.1-.98-1.1-1.54s.37-1.12,1.1-1.54l16.99-9.81c1.47-.85,3.87-.85,5.34,0l16.99,9.81c.73.42,1.1.98,1.1,1.54,0,.56-.37,1.12-1.1,1.54l-16.99,9.81c-1.47.85-3.87.85-5.34,0l-16.99-9.81Z" fill="#afbfcd"/>
          </g>
          <polygon points="114.43 584.3 112.22 583.02 112.22 547.6 114.43 548.88 114.43 584.3" fill="#dae0f5" mix-blend-mode="multiply"/>
          <polygon points="120.36 587.72 118.15 586.44 118.15 551.03 120.36 552.3 120.36 587.72" fill="#dae0f5" mix-blend-mode="multiply"/>
          <polygon points="126.29 591.14 124.08 589.87 124.08 554.45 126.29 555.73 126.29 591.14" fill="#dae0f5" mix-blend-mode="multiply"/>
          <polygon points="132.22 594.57 130.01 593.29 130.01 557.87 132.22 559.15 132.22 594.57" fill="#dae0f5" mix-blend-mode="multiply"/>
          <polygon points="138.15 597.99 135.94 596.71 135.94 561.3 138.15 562.58 138.15 597.99" fill="#dae0f5" mix-blend-mode="multiply"/>
          <polygon points="114.43 543.71 112.22 542.43 112.22 510.98 114.43 512.26 114.43 543.71" fill="#dae0f5" mix-blend-mode="multiply"/>
          <polygon points="120.36 547.13 118.15 545.85 118.15 514.4 120.36 515.68 120.36 547.13" fill="#dae0f5" mix-blend-mode="multiply"/>
          <polygon points="126.29 550.56 124.08 549.28 124.08 517.83 126.29 519.11 126.29 550.56" fill="#dae0f5" mix-blend-mode="multiply"/>
          <polygon points="132.22 553.98 130.01 552.7 130.01 521.25 132.22 522.53 132.22 553.98" fill="#dae0f5" mix-blend-mode="multiply"/>
          <polygon points="138.15 557.4 135.94 556.12 135.94 524.68 138.15 525.95 138.15 557.4" fill="#dae0f5" mix-blend-mode="multiply"/>
          <polygon points="175.69 584.3 177.9 583.02 177.9 547.6 175.69 548.88 175.69 584.3" fill="#dae0f5" mix-blend-mode="multiply"/>
          <polygon points="169.75 587.72 171.97 586.44 171.97 551.03 169.75 552.3 169.75 587.72" fill="#dae0f5" mix-blend-mode="multiply"/>
          <polygon points="163.82 591.14 166.04 589.87 166.04 554.45 163.82 555.73 163.82 591.14" fill="#dae0f5" mix-blend-mode="multiply"/>
          <polygon points="157.89 594.57 160.11 593.29 160.11 557.87 157.89 559.15 157.89 594.57" fill="#dae0f5" mix-blend-mode="multiply"/>
          <polygon points="151.96 597.99 154.18 596.71 154.18 561.3 151.96 562.58 151.96 597.99" fill="#dae0f5" mix-blend-mode="multiply"/>
          <polygon points="175.69 543.71 177.9 542.43 177.9 510.98 175.69 512.26 175.69 543.71" fill="#dae0f5" mix-blend-mode="multiply"/>
          <polygon points="169.75 547.13 171.97 545.85 171.97 514.4 169.75 515.68 169.75 547.13" fill="#dae0f5" mix-blend-mode="multiply"/>
          <polygon points="163.82 550.56 166.04 549.28 166.04 517.83 163.82 519.11 163.82 550.56" fill="#dae0f5" mix-blend-mode="multiply"/>
          <polygon points="157.89 553.98 160.11 552.7 160.11 521.25 157.89 522.53 157.89 553.98" fill="#dae0f5" mix-blend-mode="multiply"/>
          <polygon points="151.96 557.4 154.18 556.12 154.18 524.68 151.96 525.95 151.96 557.4" fill="#dae0f5" mix-blend-mode="multiply"/>
        </g>
        <g>
          <g>
            <path d="m173.28,528.01v81.56c0,.86.57,1.72,1.7,2.37l26.15,15.1c2.26,1.3,5.96,1.3,8.22,0l26.15-15.1c1.13-.65,1.7-1.51,1.7-2.37v-81.56h-63.9Z" fill="#a0b7bd"/>
            <path d="m174.98,530.39c-1.13-.65-1.7-1.51-1.7-2.37,0-.86.57-1.72,1.7-2.37l26.15-15.1c2.26-1.3,5.96-1.3,8.22,0l26.15,15.1c1.13.65,1.7,1.51,1.7,2.37s-.57,1.72-1.7,2.37l-26.15,15.1c-2.26,1.3-5.96,1.3-8.22,0l-26.15-15.1Z" fill="#b3cccf"/>
          </g>
          <g>
            <path d="m180.13,523.33v4.69c0,.68.44,1.35,1.33,1.86l20.55,11.86c1.78,1.03,4.68,1.03,6.46,0l20.54-11.86c.89-.51,1.33-1.19,1.33-1.86v-4.69h-50.21Z" fill="#a0b7bd"/>
            <path d="m181.46,525.19c-.89-.51-1.33-1.19-1.33-1.86s.44-1.35,1.33-1.86l20.55-11.86c1.78-1.03,4.68-1.03,6.46,0l20.55,11.86c.89.51,1.33,1.19,1.33,1.86s-.44,1.35-1.33,1.86l-20.55,11.86c-1.78,1.03-4.68,1.03-6.46,0l-20.55-11.86Z" fill="#b3cccf"/>
          </g>
          <g>
            <path d="m185.65,518.64v4.69c0,.53.35,1.05,1.04,1.45l16.03,9.25c1.39.8,3.65.8,5.04,0l16.03-9.25c.69-.4,1.04-.93,1.04-1.45v-4.69h-39.18Z" fill="#a0b7bd"/>
            <path d="m186.69,520.1c-.69-.4-1.04-.93-1.04-1.45s.35-1.05,1.04-1.45l16.03-9.25c1.39-.8,3.65-.8,5.04,0l16.03,9.25c.69.4,1.04.93,1.04,1.45,0,.53-.35,1.05-1.04,1.45l-16.03,9.25c-1.39.8-3.65.8-5.04,0l-16.03-9.25Z" fill="#b3cccf"/>
          </g>
          <g>
            <path d="m199.39,513.09v5.55c0,.16.1.31.31.43l4.79,2.76c.41.24,1.09.24,1.5,0l4.79-2.76c.21-.12.31-.28.31-.43v-5.55h-11.7Z" fill="#a0b7bd"/>
            <path d="m199.7,513.53c-.21-.12-.31-.28-.31-.43s.1-.31.31-.43l4.79-2.76c.41-.24,1.09-.24,1.5,0l4.79,2.76c.21.12.31.28.31.43s-.1.31-.31.43l-4.79,2.76c-.41.24-1.09.24-1.5,0l-4.79-2.76Z" fill="#b3cccf"/>
          </g>
          <polygon points="181.92 608.07 175.84 604.56 175.84 537.54 181.92 541.05 181.92 608.07" fill="#dae0f5" mix-blend-mode="multiply"/>
          <polygon points="190.88 613.24 184.81 609.74 184.81 542.71 190.88 546.22 190.88 613.24" fill="#dae0f5" mix-blend-mode="multiply"/>
          <polygon points="199.85 618.42 193.77 614.91 193.77 547.89 199.85 551.4 199.85 618.42" fill="#dae0f5" mix-blend-mode="multiply"/>
          <polygon points="228.55 608.07 234.63 604.56 234.63 537.54 228.55 541.05 228.55 608.07" fill="#dae0f5" mix-blend-mode="multiply"/>
          <polygon points="219.59 613.24 225.66 609.74 225.66 542.71 219.59 546.22 219.59 613.24" fill="#dae0f5" mix-blend-mode="multiply"/>
          <polygon points="210.62 618.42 216.7 614.91 216.7 547.89 210.62 551.4 210.62 618.42" fill="#dae0f5" mix-blend-mode="multiply"/>
        </g>
        <g>
          <g>
            <path d="m154.89,262.76h-3.1v-9.41c0-2.33.02-4.37.05-6.58h-.34c-.48,2.14-.91,4.06-1.54,6.34l-2.52,9.65h-3.79l-2.45-9.53c-.58-2.16-1.03-4.18-1.58-6.46h-.34c.05,2.16.07,4.32.07,6.62v9.36h-2.86v-18.63h5.26l2.35,9.5c.48,1.94.96,4.1,1.34,6.14h.34c.5-2.04.89-3.96,1.44-6.1l2.38-9.55h5.28v18.63Z"/>
            <path d="m171.62,246.7h-9v5.02h6.82v2.57h-6.82v8.47h-3.26v-18.63h12.26v2.57Z"/>
            <path d="m181.24,244.13c4.66,0,6.36,1.7,6.36,4.63,0,2.14-1.44,3.67-3.7,4.06v.17c2.76.46,4.27,2.09,4.27,4.49,0,3.29-2.35,5.28-6.6,5.28h-6.98v-18.63h6.65Zm-3.48,7.66h2.83c2.54,0,3.79-1.06,3.79-2.71s-.91-2.52-3.5-2.52h-3.12v5.23Zm0,8.54h3.46c2.47,0,3.7-1.15,3.7-3.1s-1.51-3.02-4.1-3.02h-3.05v6.12Z"/>
            <path d="m209.99,262.76h-3.1v-9.41c0-2.33.02-4.37.05-6.58h-.34c-.48,2.14-.91,4.06-1.54,6.34l-2.52,9.65h-3.79l-2.45-9.53c-.58-2.16-1.03-4.18-1.58-6.46h-.34c.05,2.16.07,4.32.07,6.62v9.36h-2.86v-18.63h5.26l2.35,9.5c.48,1.94.96,4.1,1.34,6.14h.34c.5-2.04.89-3.96,1.44-6.1l2.38-9.55h5.28v18.63Z"/>
          </g>
          <polyline points="116.38 271.41 106.61 271.41 106.61 235.13 116.38 235.13" fill="none" stroke="#000" stroke-miterlimit="10" stroke-width="1.96"/>
          <polyline points="230.61 271.41 240.38 271.41 240.38 235.13 230.61 235.13" fill="none" stroke="#000" stroke-miterlimit="10" stroke-width="1.96"/>
        </g>
        <g>
          <g>
            <path d="m111.96,664.79c2.11-.7,3.94-1.39,5.86-2.33,1.3-.62,1.9-1.01,2.57-1.73.84.7,1.63,1.68,1.99,2.16.12.14.19.29.19.43,0,.19-.12.36-.41.43-.67.17-1.34.5-1.99.79-2.38,1.08-5.06,2.04-8.23,2.98v3.19c0,1.13.17,1.51.79,1.7.62.17,1.56.26,3.02.26,2.26,0,4.27-.17,6.77-.55.36-.05.41.05.43.34.07.67.14,1.58.14,2.09,0,.31-.14.41-.5.43-2.71.34-4.1.43-7.13.43-2.14,0-3.55-.22-4.56-.65-1.2-.5-1.7-1.63-1.7-3.6v-8.86c0-2.28-.05-3.19-.24-4.39,1.13.12,2.26.26,3.02.48.29.07.38.22.38.38s-.07.34-.17.5c-.19.38-.24,1.03-.24,2.16v3.34Zm10.03-6.94c.12-.1.22-.07.36.05.74.58,1.61,1.54,2.28,2.57.1.14.1.26-.07.38l-1.01.74c-.17.12-.29.1-.41-.07-.72-1.1-1.49-2.02-2.42-2.78l1.27-.89Zm2.14-1.56c.14-.1.22-.07.36.05.89.67,1.75,1.63,2.28,2.47.1.14.12.29-.07.43l-.96.74c-.19.14-.31.07-.41-.07-.65-1.03-1.42-1.94-2.4-2.76l1.2-.86Z"/>
            <path d="m134.81,660.49c.41.12.46.41.31.74-.26.53-.29,1.06-.29,1.63-.05,3-.5,5.28-1.3,7.06-.62,1.46-1.68,3.02-3.41,4.51-.24.19-.43.31-.62.31-.14,0-.29-.07-.46-.19-.6-.41-1.18-.7-2.04-1.01,1.87-1.42,3.14-2.88,3.98-4.78.67-1.63.98-2.95,1.01-6.79,0-.91-.05-1.3-.24-2.02,1.37.17,2.47.34,3.05.53Zm5.33,10.15c1.18-.62,2.28-1.37,3.41-2.23,1.44-1.1,2.86-2.38,4.2-4.08.1.84.34,1.63.74,2.42.07.17.14.29.14.41,0,.17-.1.34-.36.6-1.2,1.22-2.3,2.21-3.55,3.14-1.25.96-2.59,1.9-4.27,2.88-.43.29-.48.34-.7.5-.14.12-.31.19-.48.19-.14,0-.31-.07-.5-.19-.53-.36-1.08-.98-1.44-1.46-.14-.22-.22-.36-.22-.5,0-.12.02-.22.1-.36.17-.31.14-.6.14-1.82v-7.51c0-2.09,0-3.07-.24-4.18.96.12,2.28.29,3,.5.31.07.43.22.43.41,0,.14-.07.36-.19.6-.22.46-.22.94-.22,2.66v8.02Z"/>
            <path d="m161.98,666.01c-.94,1.34-1.92,2.4-3.38,3.7-1.22,1.13-3.07,2.54-4.54,3.36-.22.14-.38.22-.55.22-.14,0-.29-.07-.41-.24-.48-.58-1.3-1.15-1.97-1.42,2.45-1.34,3.96-2.35,5.59-3.79,1.42-1.25,2.57-2.4,3.53-3.72l-4.2.02c-1.25,0-2.59.05-3.84.12-.22.02-.31-.14-.34-.41-.1-.46-.14-1.44-.19-2.33,1.44.1,2.86.12,4.3.12h5.71l-.1-2.14c-.05-1.2-.17-2.06-.38-2.83,1.3.05,2.28.12,3.02.26.24.05.31.14.31.29,0,.1-.05.22-.1.36-.07.29-.17.67-.1,2.21l.07,1.82h2.09c1.68,0,2.88-.05,4.66-.12.24,0,.36.12.36.29.02.67.02,1.42,0,2.09,0,.19-.1.34-.34.34-1.75-.07-3.12-.12-4.61-.12h-1.94l.43,9.02c.07,1.27-.36,2.06-1.15,2.54-.82.48-2.21.84-3.31.84-.46,0-.62-.1-.74-.41-.38-.89-.79-1.44-1.68-2.14,1.8-.02,2.57-.07,3.38-.24.55-.12.74-.36.7-1.42l-.29-6.29Z"/>
            <path d="m178.78,668.29c-2.38,0-3.29.29-3.53.29-.29,0-.48-.14-.55-.5-.12-.55-.26-1.68-.36-2.9,1.56.24,2.76.29,5.18.29h7.73c1.82,0,3.67-.05,5.52-.07.36-.02.43.05.43.34.05.72.05,1.54,0,2.26,0,.29-.1.38-.43.36-1.8-.02-3.58-.05-5.35-.05h-8.64Z"/>
            <path d="m211.11,662.68c1.34,0,2.93-.02,4.18-.05.34-.02.43.02.46.43.05.6.05,1.27,0,1.87,0,.38-.1.46-.46.46-.86,0-2.69-.1-4.03-.1h-3.41c-.24,3.48-.6,4.85-1.63,6.55-1.13,1.9-3.05,3.65-5.11,4.73-.19.12-.36.17-.55.17s-.36-.07-.53-.24c-.6-.55-1.18-.96-2.02-1.32,2.71-1.3,4.3-2.57,5.45-4.34.94-1.44,1.34-3,1.46-5.54h-4.63c-1.18,0-2.54.1-3.46.12-.31.02-.38-.1-.43-.46-.07-.48-.12-1.49-.17-2.38,1.56.12,2.9.12,4.08.12h4.73c0-1.2,0-2.5-.02-3.55-.02-.77-.05-1.46-.29-2.42,1.2.05,2.42.14,3.19.34.26.07.36.17.36.34,0,.14-.07.31-.17.53s-.19.79-.19,1.46c0,1.13,0,1.92-.02,3.29h3.22Z"/>
            <path d="m223.2,668.29c-2.38,0-3.29.29-3.53.29-.29,0-.48-.14-.55-.5-.12-.55-.26-1.68-.36-2.9,1.56.24,2.76.29,5.18.29h7.73c1.82,0,3.67-.05,5.52-.07.36-.02.43.05.43.34.05.72.05,1.54,0,2.26,0,.29-.1.38-.43.36-1.8-.02-3.58-.05-5.35-.05h-8.64Z"/>
          </g>
          <polyline points="87.88 685.41 78.11 685.41 78.11 649.13 87.88 649.13" fill="none" stroke="#000" stroke-miterlimit="10" stroke-width="1.96"/>
          <polyline points="259.11 685.41 268.88 685.41 268.88 649.13 259.11 649.13" fill="none" stroke="#000" stroke-miterlimit="10" stroke-width="1.96"/>
        </g>
        <circle cx="360.26" cy="465.71" r="57.6" fill="#ffffcd"/>
        <circle cx="360.26" cy="610.14" r="57.6" fill="#ffffcd"/>
        <path d="m302.07,586.21c-11.84,28.77-.86,62.57,26.82,78.55,30.16,17.42,68.73,7.08,86.15-23.08,17.42-30.16,7.08-68.73-23.08-86.15-27.98-16.15-63.19-8.43-82.05,16.85l-27.37-15.8" fill="none" stroke="#0091c2" stroke-miterlimit="10" stroke-width="2"/>
        <path d="m302.07,489.64c-11.84-28.77-.86-62.57,26.82-78.55,30.16-17.42,68.73-7.08,86.15,23.08,17.42,30.16,7.08,68.73-23.08,86.15-27.98,16.15-63.19,8.43-82.05-16.85l-27.37,15.8" fill="none" stroke="#0091c2" stroke-miterlimit="10" stroke-width="2"/>
        <g>
          <path d="m340.72,575.23c-.12.98-.29,1.97-.5,2.81-.12.41-.17.58-.31.58-.1,0-.26-.1-.53-.24-.38-.19-1.01-.38-1.42-.48.67-2.23.94-4.42,1.01-6.29.02-.46.02-.94-.05-1.54.65.07,1.44.17,2.02.26.26.05.36.14.36.29s-.02.22-.1.38c-.1.19-.12.43-.14.82-.02.38-.05.77-.1,1.18h1.15v-1.32c0-1.7-.05-2.42-.19-3.62.89.02,1.66.07,2.47.17.24.02.38.12.38.24,0,.19-.07.31-.14.5-.12.29-.14.89-.14,2.66v1.37c1.27,0,1.75-.05,1.87-.05.24,0,.26.02.26.24v1.63c1.27-1.51,2.06-3.1,2.66-4.87.19-.62.34-1.2.43-1.92.65.1,1.56.24,2.26.41.26.07.41.17.41.34s-.07.29-.24.48-.29.5-.48,1.1c-.22.65-.48,1.3-.77,1.97h5.59c1.82,0,2.4-.05,2.54-.05.26,0,.34.07.34.31-.02.65-.05,1.3-.05,1.87-.05,5.74-.24,8.78-.7,11.54-.38,2.57-1.44,3.79-3.58,3.79-.43,0-1.1,0-1.73-.05q-.74-.05-.89-.84c-.14-.77-.34-1.34-.58-1.8,1.1.19,1.94.24,2.81.24,1.08,0,1.44-.72,1.63-1.99.36-2.59.65-5.26.74-10.37-1.7,6.05-4.08,10.32-8.23,13.54-.29.22-.46.34-.6.34-.17,0-.29-.14-.5-.46-.41-.6-.89-1.03-1.32-1.32,4.54-3.07,6.98-7.18,8.54-12.6h-1.58c-1.13,3.72-2.88,6.53-5.3,8.74-.26.26-.43.38-.58.38s-.26-.12-.48-.41c-.41-.5-.91-.94-1.34-1.22,2.52-1.85,4.34-4.27,5.4-7.49h-1.27c-.5.84-1.1,1.66-1.78,2.42-.26.29-.38.41-.5.41-.14,0-.26-.12-.53-.38-.46-.43-.96-.77-1.37-1.01l.62-.65c-.24,0-.77-.02-1.73-.05v3.86c.7-.34,1.44-.7,2.23-1.13,0,.43,0,1.08.05,1.61.05.72.05.74-.6,1.08-.58.31-1.13.6-1.68.86v4.06c0,2.74.05,4.1.05,4.22,0,.24-.02.26-.26.26h-1.94c-.24,0-.26-.02-.26-.26,0-.14.05-1.49.05-4.2v-2.98c-.55.24-1.13.46-1.68.67-.36.17-.65.31-.77.43-.14.14-.26.24-.41.24-.17,0-.29-.07-.38-.26-.29-.7-.58-1.58-.82-2.33.79-.17,1.46-.36,2.26-.62.6-.19,1.2-.41,1.8-.62v-4.9h-1.39Z" fill="#0091c2"/>
          <path d="m364.64,580.56c0-.86.02-1.9.05-2.93-.5.7-1.01,1.37-1.56,1.99-.19.19-.31.31-.41.31-.12,0-.22-.14-.29-.43-.22-.79-.53-1.61-.82-2.06,2.04-2.26,3.62-4.94,4.54-7.73.22-.65.34-1.18.41-1.8.86.26,1.58.48,2.3.79.26.12.38.22.38.34,0,.17-.05.26-.24.43-.14.14-.29.36-.5.96-.41,1.08-.86,2.16-1.39,3.19v12.43c0,2.38.05,3.55.05,3.67,0,.24-.02.26-.26.26h-2.04c-.24,0-.26-.02-.26-.26,0-.14.05-1.3.05-3.67v-5.5Zm10.58-8.78c0-1.7-.05-2.62-.19-3.62.91.02,1.78.07,2.62.14.22.02.38.14.38.26,0,.17-.1.31-.14.48-.12.34-.17.91-.17,2.66v1.63h2.04c2.18,0,2.93-.05,3.07-.05.26,0,.29.02.29.26v1.82c0,.24-.02.26-.29.26-.14,0-.89-.05-3.07-.05h-2.04v4.15h2.74c2.35,0,3.14-.05,3.29-.05.24,0,.26.02.26.26v1.87c0,.26-.02.29-.26.29-.14,0-.94-.05-3.29-.05h-2.74v3.48c0,2.69.05,4.06.05,4.18,0,.24-.02.26-.26.26h-2.06c-.24,0-.26-.02-.26-.26,0-.14.05-1.46.05-4.15v-3.5h-3.22c-2.35,0-3.14.05-3.29.05-.24,0-.26-.02-.26-.29v-1.87c0-.24.02-.26.26-.26.14,0,.94.05,3.29.05h3.22v-4.15h-3.58c-.38.86-.84,1.7-1.34,2.52-.19.31-.31.48-.43.48s-.26-.14-.53-.38c-.48-.46-.98-.74-1.49-.98,1.63-2.3,2.47-4.49,3-6.41.17-.53.24-1.06.26-1.61.82.19,1.51.38,2.18.62.29.1.41.22.41.36s-.07.26-.14.34c-.14.14-.26.36-.43.96s-.36,1.22-.58,1.85h2.66v-1.56Z" fill="#0091c2"/>
          <path d="m328.27,610.08c0-.86,0-1.94.02-2.98-.36.53-.77,1.03-1.2,1.56-.19.22-.34.34-.43.34-.14,0-.22-.14-.26-.41-.14-.82-.43-1.68-.72-2.18,1.85-2.16,3.14-4.8,4.1-7.73.17-.58.31-1.13.38-1.73.79.24,1.54.48,2.21.82.24.1.38.22.38.43,0,.17-.12.29-.26.43-.17.14-.26.36-.48.96-.43,1.22-.86,2.35-1.37,3.43v12.15c0,2.33.05,3.5.05,3.62,0,.24-.02.26-.26.26h-1.94c-.24,0-.26-.02-.26-.26,0-.14.05-1.3.05-3.62v-5.09Zm7.87-9.07c-2.35,0-3.14.05-3.29.05-.24,0-.26-.02-.26-.26v-1.78c0-.26.02-.29.26-.29.14,0,.94.05,3.29.05h8.5c2.35,0,3.14-.05,3.29-.05.24,0,.26.02.26.29v1.78c0,.24-.02.26-.26.26-.14,0-.94-.05-3.29-.05h-1.54v3.7h.74c2.33,0,3.17-.05,3.34-.05.24,0,.26.02.26.26,0,.14-.05,1.08-.05,3.94v4.18c0,4.22.05,5.11.05,5.26,0,.24-.02.26-.26.26h-1.87c-.24,0-.26-.02-.26-.26v-1.01h-10.06v1.1c0,.24-.02.26-.26.26h-1.85c-.24,0-.26-.02-.26-.26,0-.14.05-1.03.05-5.28v-3.79c0-3.31-.05-4.22-.05-4.39,0-.24.02-.26.26-.26.14,0,.96.05,3.29.05h.62v-3.7h-.65Zm.65,14.14v-8.33h-1.8v8.33h1.8Zm4.08-10.44v-3.7h-1.85v3.7h1.85Zm0,10.44v-8.33h-1.85v8.33h1.85Zm2.23-8.33v8.33h1.94v-8.33h-1.94Z" fill="#0091c2"/>
          <path d="m352.44,609.87c0-.91,0-2.06.02-3.17-.43.58-.89,1.15-1.37,1.7-.19.22-.31.34-.43.34-.1,0-.19-.14-.26-.43-.19-.72-.48-1.54-.77-2.02,1.92-2.14,3.36-4.7,4.37-7.63.19-.58.34-1.1.41-1.68.77.19,1.49.38,2.21.67.26.1.38.17.38.36,0,.17-.07.26-.24.43-.17.14-.29.36-.5.98-.43,1.18-.91,2.3-1.42,3.36v12.29c0,2.35.05,3.53.05,3.65,0,.24-.02.26-.26.26h-1.99c-.22,0-.24-.02-.24-.26,0-.14.05-1.3.05-3.65v-5.21Zm4.3-3.12c0-1.46-.05-2.21-.17-3.12.91.02,1.61.07,2.47.17.24.02.41.17.41.31,0,.17-.1.31-.17.53-.1.26-.14.7-.14,2.09v8.93h9.6c2.26,0,3-.05,3.14-.05.24,0,.26.02.26.29v1.7c0,.24-.02.26-.26.26-.14,0-.89-.05-3.14-.05h-9.6v.86c0,.24-.02.26-.26.26h-1.92c-.24,0-.26-.02-.26-.26,0-.14.05-.89.05-2.54v-9.39Zm4.13-5.21c-2.35,0-3.14.05-3.29.05-.24,0-.24-.02-.24-.29v-1.63c0-.22,0-.24.24-.24.14,0,.94.05,3.29.05h2.86l.1-.7c.07-.65.12-1.25.1-1.7.84.05,1.66.12,2.42.22.24,0,.36.14.36.29,0,.12-.07.26-.17.38-.12.17-.22.36-.26.7-.05.26-.1.55-.12.82h2.35c2.35,0,3.12-.05,3.26-.05.24,0,.26.02.26.24v1.63c0,.26-.02.29-.26.29-.14,0-.91-.05-3.26-.05h-2.71c-.1.6-.24,1.18-.36,1.75h1.97c1.9,0,2.54-.05,2.69-.05.26,0,.29.02.29.26,0,.14-.05.91-.05,2.62v5.4c0,1.7.05,2.45.05,2.59,0,.24-.02.26-.29.26-.14,0-.79-.05-2.69-.05h-3.55c-1.9,0-2.54.05-2.71.05-.24,0-.26-.02-.26-.26,0-.17.05-.89.05-2.59v-5.4c0-1.7-.05-2.45-.05-2.62,0-.24.02-.26.26-.26.14,0,.65.05,1.92.05.14-.62.24-1.2.36-1.75h-2.54Zm2.33,4.87h4.82v-1.37h-4.82v1.37Zm4.82,3.05v-1.39h-4.82v1.39h4.82Zm0,1.68h-4.82v1.42h4.82v-1.42Z" fill="#0091c2"/>
          <path d="m386.47,602.4c-.55,4.08-1.56,7.82-3,10.35-1.03,1.8-2.28,2.76-4.08,2.76-2.11,0-4.25-2.26-4.25-6.17,0-2.3.98-4.51,2.71-6.24,2.02-2.02,4.56-3.07,7.8-3.07,5.76,0,9.14,3.55,9.14,8.33,0,4.46-2.52,7.27-7.39,8.74-.5.14-.72.05-1.03-.43-.26-.41-.77-.96-1.68-1.51,4.06-.96,7.25-2.64,7.25-7.18,0-2.86-2.16-5.57-5.38-5.57h-.1Zm-6.89,2.33c-1.15,1.3-1.87,2.9-1.87,4.44,0,2.21.89,3.43,1.63,3.43.62,0,1.15-.31,1.8-1.46,1.06-1.94,2.14-5.4,2.54-8.59-1.68.34-3.02,1.01-4.1,2.18Z" fill="#0091c2"/>
          <path d="m358.67,640.91c0,2.09.05,3.36.05,4.2,0,.89-.22,1.54-.7,1.97-.48.41-1.39.55-3.41.6-.77,0-.74-.02-.91-.72-.17-.72-.38-1.3-.67-1.75.74.05,1.37.1,2.02.1.7,0,1.01-.17,1.01-.77v-12.05h-14.16v11.5c0,2.26.05,3.38.05,3.53,0,.22-.02.24-.26.24h-2.16c-.24,0-.26-.02-.26-.24,0-.17.05-1.32.05-3.84v-9.38c0-2.52-.05-3.7-.05-3.86,0-.24.02-.26.26-.26.17,0,.98.05,3.26.05h2.81c.5-.94.96-1.94,1.27-2.76.17-.43.26-.77.36-1.34.98.12,1.99.26,2.69.41.22.05.29.17.29.31,0,.19-.1.31-.19.41-.19.17-.31.34-.41.58-.36.77-.79,1.63-1.22,2.4h6.82c2.28,0,3.1-.05,3.24-.05.26,0,.29.02.29.26,0,.14-.05,1.46-.05,3.98v6.5Zm-14.02,3.1c-.24,0-.26-.02-.26-.26,0-.17.05-.77.05-4.01v-2.06c0-1.85-.05-2.47-.05-2.64,0-.24.02-.26.26-.26.14,0,.74.05,2.54.05h3.43c1.82,0,2.4-.05,2.57-.05.24,0,.26.02.26.26,0,.14-.05.77-.05,2.23v2.26c0,3.17.05,3.74.05,3.89,0,.24-.02.26-.26.26h-1.8c-.26,0-.29-.02-.29-.26v-.72h-4.39v1.06c0,.24-.02.26-.26.26h-1.8Zm2.06-3.48h4.39v-3.58h-4.39v3.58Z" fill="#0091c2"/>
          <path d="m365.84,646.67c-2.16,0-2.9.05-3.05.05-.24,0-.26-.02-.26-.26v-2.18c0-.24.02-.26.26-.26.14,0,.89.05,3.05.05h5.06v-13.54c0-1.94-.02-2.93-.19-4.01.91.02,1.99.07,2.81.17.24.02.43.17.43.31,0,.19-.1.36-.17.55-.1.26-.17.86-.17,2.3v3.79h4.7c2.09,0,2.81-.05,2.95-.05.24,0,.26.02.26.26v2.18c0,.24-.02.26-.26.26-.14,0-.86-.05-2.95-.05h-4.7v7.8h6.55c2.16,0,2.9-.05,3.05-.05.24,0,.26.02.26.26v2.18c0,.24-.02.26-.26.26-.14,0-.89-.05-3.05-.05h-14.33Z" fill="#0091c2"/>
        </g>
        <g>
          <path d="m332.32,441.77c0-1.7-.02-2.45-.19-3.62.94.02,1.8.07,2.62.17.24.02.38.12.38.24,0,.17-.07.31-.12.48-.14.31-.17.91-.17,2.66v13.85c0,2.69.05,4.03.05,4.18,0,.24-.02.26-.26.26h-2.09c-.24,0-.26-.02-.26-.26,0-.14.05-1.49.05-4.15v-1.85c-1.32.6-2.71,1.15-4.13,1.66-.43.14-.79.31-.96.43-.14.12-.24.17-.36.17s-.22-.1-.31-.34c-.22-.62-.46-1.39-.7-2.3.62-.1,1.15-.19,1.73-.34v-8.45c0-1.7-.05-2.45-.19-3.65.91.02,1.7.07,2.54.17.22.02.36.12.36.26,0,.17-.07.31-.12.5-.12.29-.17.89-.17,2.66v7.73c.79-.29,1.54-.55,2.3-.89v-9.58Zm12.5-1.78c.46,0,.65-.02.77-.1.12-.07.24-.1.36-.1.17,0,.41.17,1.01.79.41.41.53.67.53.84s-.1.43-.22.58c-.19.24-.36.77-.5,1.54-.67,3.67-1.73,6.77-3.38,9.46,1.3,1.63,2.98,3.07,5.11,4.37-.46.5-.86,1.1-1.18,1.75-.17.36-.29.53-.43.53-.12,0-.26-.1-.5-.24-1.8-1.27-3.31-2.66-4.56-4.22-1.3,1.61-2.88,3.05-4.78,4.39-.26.17-.43.26-.58.26-.19,0-.31-.19-.48-.58-.26-.6-.65-1.1-1.1-1.49,2.28-1.37,4.06-2.93,5.45-4.7-1.78-2.93-2.81-6.43-3.22-10.8-.74,0-1.06.02-1.13.02-.26,0-.29-.02-.29-.29v-1.8c0-.24.02-.26.29-.26.12,0,.82.05,2.9.05h5.93Zm-5.28,2.26c.34,3.38,1.06,6.12,2.3,8.47,1.32-2.42,2.09-5.23,2.57-8.47h-4.87Z" fill="#0091c2"/>
          <path d="m354.01,444.92c-2.18,0-2.93.05-3.07.05-.24,0-.26-.02-.26-.26v-1.82c0-.22.02-.24.26-.24.14,0,.89.05,3.07.05h2.98c-.1-.05-.14-.1-.19-.24-.48-1.15-1.13-2.28-1.82-3.24-.14-.22-.1-.24.19-.36l1.61-.65c.31-.12.38-.07.55.14.62.86,1.32,2.04,1.82,3.17.1.22.1.26-.24.41l-1.78.77h5.33c.72-1.08,1.32-2.16,1.8-3.19.22-.46.31-.84.43-1.39.79.17,1.92.41,2.59.67.22.07.31.17.31.31,0,.17-.14.24-.31.41-.19.17-.31.29-.58.74-.48.84-1.01,1.7-1.54,2.45h3.02c2.18,0,2.93-.05,3.07-.05.24,0,.26.02.26.24v1.82c0,.24-.02.26-.26.26-.14,0-.89-.05-3.07-.05h-2.9c1.27,2.33,3.55,4.3,7.08,5.93-.34.38-.65.86-.96,1.51-.17.41-.24.58-.41.58-.1,0-.26-.07-.53-.24-.58-.34-1.13-.67-1.66-1.01v5.42c1.87,0,2.54-.05,2.69-.05.24,0,.26.02.26.26v1.73c0,.24-.02.26-.26.26-.14,0-.86-.05-3-.05h-14.83c-2.16,0-2.88.05-3.02.05-.24,0-.26-.02-.26-.26v-1.73c0-.24.02-.26.26-.26.12,0,.82.05,2.74.05v-4.32c0-.43,0-.79-.02-1.1-.5.34-1.03.7-1.58,1.01-.26.14-.43.24-.53.24-.17,0-.26-.17-.46-.55-.29-.55-.67-1.01-1.1-1.39,3.41-1.66,5.59-3.67,6.89-6.07h-2.57Zm12.89,5.33c-1.85-1.56-3.19-3.29-4.18-5.33h-3.41c-1.06,2.09-2.35,3.79-4.08,5.33h11.67Zm-9.1,6.86v-4.8h-2.11v4.8h2.11Zm4.37,0v-4.8h-2.16v4.8h2.16Zm2.21-4.8v4.8h2.14v-4.8h-2.14Z" fill="#0091c2"/>
          <path d="m386.39,443.38c-.55,4.08-1.56,7.82-3,10.35-1.03,1.8-2.28,2.76-4.08,2.76-2.11,0-4.25-2.26-4.25-6.17,0-2.3.98-4.51,2.71-6.24,2.02-2.02,4.56-3.07,7.8-3.07,5.76,0,9.14,3.55,9.14,8.33,0,4.46-2.52,7.27-7.39,8.74-.5.14-.72.05-1.03-.43-.26-.41-.77-.96-1.68-1.51,4.06-.96,7.25-2.64,7.25-7.18,0-2.86-2.16-5.57-5.38-5.57h-.1Zm-6.89,2.33c-1.15,1.3-1.87,2.9-1.87,4.44,0,2.21.89,3.43,1.63,3.43.62,0,1.15-.31,1.8-1.46,1.06-1.94,2.14-5.4,2.54-8.59-1.68.34-3.02,1.01-4.1,2.18Z" fill="#0091c2"/>
          <path d="m334.4,489.04c-.24,0-.26-.02-.26-.26,0-.14.02-.89.05-2.38-1.92.41-4.3.84-6.24,1.13-.38.05-.74.17-.86.24-.1.05-.24.14-.38.14s-.26-.14-.34-.38c-.22-.65-.34-1.22-.48-1.92.84-.02,1.51-.07,2.26-.17.14,0,.29-.02.43-.05v-7.54c-1.63.02-2.26.05-2.38.05-.24,0-.26-.02-.26-.26v-1.51c0-.24.02-.26.26-.26.14,0,.84.05,2.93.05h15.41c2.09,0,2.78-.05,2.93-.05.22,0,.24.02.24.26v1.51c0,.24-.02.26-.24.26-.14,0-.84-.05-2.93-.05h-8.14v8.04c0,1.85.05,2.74.05,2.88,0,.24-.02.26-.26.26h-1.78Zm6.77-21.12c2.38,0,3.22-.05,3.36-.05.24,0,.26.02.26.29,0,.14-.05.67-.05,1.97v2.52c0,1.3.05,1.82.05,1.97,0,.26-.02.29-.26.29-.14,0-.98-.05-3.36-.05h-8.74c-2.38,0-3.19.05-3.36.05-.24,0-.26-.02-.26-.29,0-.14.05-.67.05-1.97v-2.52c0-1.3-.05-1.82-.05-1.97,0-.26.02-.29.26-.29.17,0,.98.05,3.36.05h8.74Zm-6.98,11.21v-1.27h-3.38v1.27h3.38Zm0,2.78v-1.25h-3.38v1.25h3.38Zm0,1.54h-3.38v1.66c1.13-.17,2.3-.34,3.38-.53v-1.13Zm-2.95-12.75h11.14v-1.01h-11.14v1.01Zm11.14,1.44h-11.14v1.03h11.14v-1.03Zm1.63,7.13c.14,0,.31-.05.43-.1.12-.05.24-.1.36-.1.17,0,.29.05.84.55.58.55.65.72.65.89,0,.19-.07.31-.24.43-.19.12-.36.41-.65,1.01-.53,1.06-1.15,2.04-1.94,2.9,1.18.74,2.59,1.27,4.25,1.63-.26.38-.6.91-.84,1.54-.24.65-.29.65-.91.46-1.61-.5-2.95-1.2-4.1-2.06-1.06.82-2.26,1.54-3.62,2.11-.24.1-.38.17-.48.17-.17,0-.26-.17-.43-.55-.26-.58-.55-1.03-.89-1.37,1.54-.46,2.81-1.06,3.86-1.8-.94-1.06-1.73-2.33-2.35-3.84-.38.02-.55.02-.62.02-.24,0-.26-.02-.26-.29v-1.39c0-.24.02-.26.26-.26.14,0,.74.05,2.64.05h4.06Zm-3.89,1.85c.46.96,1.03,1.8,1.75,2.5.67-.72,1.22-1.56,1.66-2.5h-3.41Z" fill="#0091c2"/>
          <path d="m353.69,475.77c-2.16,0-2.9.05-3.05.05-.24,0-.26-.02-.26-.29v-1.97c0-.24.02-.26.26-.26.14,0,.89.05,3.05.05h5.5c.07-.98.1-2.06.12-3.24.02-1.15-.02-2.02-.12-2.78.74.02,1.97.07,2.76.19.24.05.43.17.43.34,0,.19-.05.31-.14.5-.12.22-.19.62-.22,1.68-.02,1.18-.05,2.28-.14,3.31h6.19c2.16,0,2.9-.05,3.05-.05.24,0,.26.02.26.26v1.97c0,.26-.02.29-.26.29-.14,0-.89-.05-3.05-.05h-5.74c1.49,4.7,4.73,8.62,9.6,10.46-.5.48-1.03,1.15-1.39,1.8-.22.41-.31.6-.5.6-.12,0-.29-.1-.55-.24-3.82-2.04-6.86-5.35-8.54-9.7-.24.82-.55,1.58-.91,2.3-1.66,3.41-4.15,5.76-7.68,7.49-.29.12-.46.19-.58.19-.19,0-.29-.14-.55-.55-.38-.58-.84-1.06-1.37-1.51,3.86-1.49,6.36-3.82,7.78-6.6.6-1.2,1.03-2.59,1.3-4.25h-5.23Z" fill="#0091c2"/>
          <path d="m377.67,479.63c0-.91.02-2.02.05-3.07-.72.94-1.44,1.8-2.14,2.5-.24.22-.38.36-.53.36s-.24-.17-.36-.53c-.19-.65-.58-1.42-.91-1.97,2.54-2.28,4.34-4.87,5.54-8.11.22-.55.38-1.13.48-1.68.94.24,1.56.46,2.33.77.31.12.41.19.41.36s-.07.29-.22.41c-.19.14-.34.41-.6,1.03-.43,1.03-.94,2.09-1.51,3.1v12.27c0,2.33.05,3.5.05,3.65,0,.22-.02.24-.26.24h-2.09c-.26,0-.29-.02-.29-.24,0-.17.05-1.32.05-3.65v-5.42Zm9.15,4.9c0,.86.14,1.18.67,1.37.43.14,1.06.17,2.38.17,1.22,0,1.94-.14,2.47-.6.41-.34.62-1.37.72-3.65.5.38,1.2.74,1.85.98.6.22.58.22.53.84-.17,2.35-.58,3.38-1.39,3.98-.79.55-2.23.82-4.34.82-2.26,0-3.41-.1-4.18-.48-.79-.38-1.27-1.01-1.27-2.62v-15.15c0-1.34-.02-2.04-.14-2.78.96.02,1.73.07,2.57.17.31.02.46.12.46.31s-.07.31-.14.46c-.12.22-.17.6-.17,1.63v6c1.54-.96,2.95-2.09,4.44-3.53.48-.43,1.03-1.06,1.42-1.63.65.48,1.34,1.08,1.87,1.58.19.19.26.31.26.48s-.17.31-.41.38c-.26.1-.72.43-1.25.91-1.78,1.58-3.89,3.19-6.34,4.66v5.69Z" fill="#0091c2"/>
        </g>
        <g>
          <path d="m14.44,730.44c0,3.68-2.98,6.64-6.64,6.64s-6.64-2.96-6.64-6.64,2.98-6.64,6.64-6.64,6.64,2.98,6.64,6.64Z" fill="#0091c2"/>
          <path d="m46.07,739.69c0,.16-.03.18-.21.18-.16,0-.96-.05-3.43-.05h-15.08c-2.47,0-3.3.05-3.43.05-.18,0-.21-.03-.21-.18v-1.33c0-.18.03-.21.21-.21.13,0,.96.05,3.43.05h15.08c2.47,0,3.28-.05,3.43-.05.18,0,.21.03.21.21v1.33Zm-2.03-17.06c0,.18-.03.21-.21.21-.16,0-1.04-.05-3.67-.05h-10.5c-2.65,0-3.54.05-3.67.05-.18,0-.21-.03-.21-.21v-1.27c0-.18.03-.21.21-.21.13,0,1.01.05,3.67.05h10.5c2.63,0,3.51-.05,3.67-.05.18,0,.21.03.21.21v1.27Zm-1.66,8.06c0,.18-.03.21-.21.21-.13,0-.99-.05-3.56-.05h-7.44c-2.57,0-3.43.05-3.56.05-.18,0-.21-.03-.21-.21v-1.27c0-.18.03-.21.21-.21.13,0,.99.05,3.56.05h7.44c2.57,0,3.43-.05,3.56-.05.18,0,.21.03.21.21v1.27Z"/>
          <path d="m73.92,733.66c0,.18-.03.21-.18.21s-.94-.05-3.35-.05h-2.86v3.51c0,2.94.05,4.21.05,4.34,0,.18-.03.21-.21.21h-1.3c-.18,0-.21-.03-.21-.21,0-.13.05-1.4.05-4.34v-3.51h-6.76c-.13.73-.31,1.43-.55,2.16-.83,2.52-2.16,4.21-4.42,5.75-.18.13-.29.21-.39.21-.13,0-.21-.1-.42-.34-.26-.31-.68-.6-1.04-.78,2.52-1.38,3.95-2.99,4.76-5.56.16-.44.26-.94.36-1.43h-2.86c-2.42,0-3.22.05-3.35.05-.18,0-.21-.03-.21-.21v-1.2c0-.18.03-.21.21-.21.13,0,.94.05,3.35.05h3.07c.13-1.17.16-2.47.16-3.95v-2.11h-1.98c-2.55,0-3.38.05-3.54.05-.18,0-.21-.03-.21-.21v-1.2c0-.18.03-.21.21-.21.16,0,.99.05,3.54.05h1.98v-1.53c0-1.61-.03-2.73-.18-3.9.65.03,1.25.08,1.77.16.21.03.34.1.34.26,0,.13-.08.26-.16.49-.1.34-.16.88-.16,3.04v1.48h6.47v-1.9c0-1.85-.05-2.55-.21-3.56.68.03,1.27.08,1.79.13.18.03.31.1.31.23,0,.16-.08.26-.13.47-.1.31-.16.94-.16,2.68v1.95h1.87c2.55,0,3.41-.05,3.54-.05.18,0,.21.03.21.21v1.2c0,.18-.03.21-.21.21-.13,0-.99-.05-3.54-.05h-1.87v6.06h2.86c2.42,0,3.2-.05,3.35-.05s.18.03.18.21v1.2Zm-8.01-7.41h-6.47v2.08c0,1.51-.03,2.78-.13,3.98h6.6v-6.06Z"/>
          <path d="m101.27,722.27c0,.18-.03.21-.21.21-.16,0-.96-.05-3.43-.05h-5.77c-.42.86-.86,1.69-1.33,2.47v13.05c0,2.55.05,3.64.05,3.77,0,.18-.03.21-.21.21h-1.35c-.18,0-.21-.03-.21-.21,0-.16.05-1.22.05-3.77v-10.66c-2.34,2.99-5.33,5.54-9.2,7.72-.18.1-.29.16-.36.16-.1,0-.18-.1-.36-.36-.26-.36-.49-.62-.86-.86,5.23-2.65,9.62-6.55,11.99-11.52h-7.57c-2.47,0-3.3.05-3.43.05-.18,0-.21-.03-.21-.21v-1.2c0-.21.03-.23.21-.23.13,0,.96.05,3.43.05h15.13c2.47,0,3.28-.05,3.43-.05.18,0,.21.03.21.23v1.2Zm-8.14,4.55c.21-.16.31-.13.44.03,2.26,2.99,5.59,5.46,8.58,6.76-.29.29-.6.7-.78,1.01-.16.26-.21.36-.34.36-.1,0-.21-.08-.42-.18-3.2-1.74-5.98-4.16-8.27-7.12-.13-.16-.1-.23.18-.44l.6-.42Z"/>
          <path d="m118.59,724.74c0,.18,0,.21-.16.21-.13,0-.94-.05-3.33-.05h-1.82v1.66h1.4c2.21,0,2.94-.05,3.09-.05.18,0,.21.03.21.21,0,.13-.05.62-.05,2.13v2.55c0,1.46.05,2,.05,2.13,0,.18-.03.21-.21.21-.16,0-.68-.05-3.09-.05h-1.4v1.66h1.38c2.29,0,3.02-.05,3.17-.05.18,0,.21.03.21.21v.94c0,.18-.03.21-.21.21-.16,0-.88-.05-3.17-.05h-1.38v1.87c1.61-.21,3.28-.47,4.78-.78-.1.31-.16.55-.18.78-.05.55-.05.52-.57.62-3.02.6-6.11,1.04-9.28,1.4-.52.05-.91.16-1.01.21s-.21.13-.31.13c-.13,0-.23-.08-.31-.31-.1-.39-.26-.96-.36-1.48.88.03,1.64,0,2.68-.08.91-.08,2-.18,3.17-.31v-2.05h-1.82c-2.29,0-3.02.05-3.17.05-.18,0-.21-.03-.21-.21v-.94c0-.18.03-.21.21-.21.16,0,.88.05,3.17.05h1.82v-1.66h-1.27c-2.21,0-2.94.05-3.09.05-.18,0-.21-.03-.21-.21,0-.16.05-.68.05-2.13v-2.52c0-1.51-.05-2.03-.05-2.16,0-.18.03-.21.21-.21.16,0,.88.05,3.09.05h1.27v-1.66h-2.21c-2.37,0-3.17.05-3.3.05-.18,0-.21-.03-.21-.21v-.96c0-.18.03-.21.21-.21.13,0,.94.05,3.3.05h2.21v-1.72c-1.27.18-2.55.34-3.98.47-.47.03-.52.05-.68-.31-.16-.39-.36-.68-.57-.91,3.8-.23,6.34-.65,8.94-1.35.47-.13.88-.29,1.2-.49.42.31.75.6,1.01.86.16.16.21.23.21.36,0,.16-.21.23-.44.23s-.62.1-1.01.18c-1.14.29-2.21.52-3.28.73v1.95h1.82c2.39,0,3.17-.05,3.3-.05.16,0,.18.03.18.21v.96Zm-6.71,2.94h-3.15v1.87h3.15v-1.87Zm0,2.94h-3.15v1.98h3.15v-1.98Zm4.71-2.94h-3.3v1.87h3.3v-1.87Zm0,2.94h-3.3v1.98h3.3v-1.98Zm8.71-5.67c2.05,0,2.7-.05,2.86-.05.18,0,.23.05.23.23-.05.81-.05,1.53-.05,2.31-.05,4.13-.23,8.37-.75,11.57-.31,1.82-1.2,2.6-2.81,2.6-.73,0-1.3-.03-1.85-.05-.44-.03-.44-.16-.47-.44-.03-.47-.18-.91-.36-1.25.86.16,1.66.23,2.55.23s1.27-.47,1.48-1.79c.47-2.81.68-7.2.68-11.96h-3.12c-.1,2.63-.39,5.17-.94,7.28-.91,3.33-2.24,5.88-4.97,8.03-.21.16-.29.23-.39.23-.08,0-.18-.08-.34-.23-.29-.31-.65-.55-1.04-.7,2.94-1.85,4.37-4.47,5.3-7.88.47-1.72.73-4.16.86-6.73h-.26c-2.03,0-2.65.05-2.78.05-.21,0-.23-.03-.23-.21v-1.09c0-.18.03-.21.23-.21.13,0,.75.05,2.78.05h.31c.03-.99.05-1.98.05-2.94,0-1.61-.03-2.24-.18-3.2.6.03,1.14.08,1.69.18.18.03.29.13.29.23,0,.18-.05.31-.13.55-.1.26-.16,1.04-.16,2.42,0,.91,0,1.85-.03,2.76h1.53Z"/>
          <path d="m156.36,727.16c0,.18-.03.21-.18.21s-1.01-.05-3.59-.05h-15.31v1.92c0,2-.16,4.32-.47,6.47-.29,1.92-.88,3.93-2.05,5.88-.13.21-.18.31-.26.31s-.16-.08-.31-.23c-.31-.34-.73-.62-1.01-.75,1.22-1.66,1.9-3.72,2.18-5.67.29-1.95.36-4.16.36-6.01,0-2.13-.05-2.99-.05-3.12,0-.18.03-.21.21-.21.16,0,1.04.05,3.61.05h2.03c-.31-.86-.7-1.69-1.12-2.34-.1-.18-.1-.23.18-.36l.73-.31c.23-.1.29-.08.39.1.47.75,1.01,1.85,1.4,2.91h4.89c.42-.68.73-1.27,1.04-2.03.16-.36.29-.7.34-1.07.52.13,1.09.31,1.48.47.18.08.23.16.23.26,0,.13-.08.23-.23.34-.16.1-.29.29-.47.6-.26.47-.52.94-.86,1.43h3.07c2.57,0,3.43-.05,3.59-.05s.18.03.18.21v1.04Zm-.73-4.58c0,.18-.03.21-.21.21-.13,0-1.01-.05-3.64-.05h-12.51c-2.63,0-3.48.05-3.61.05-.18,0-.21-.03-.21-.21v-1.01c0-.21.03-.23.21-.23.13,0,.99.05,3.61.05h5.49v-.36c0-1.12-.03-1.79-.18-2.42.65.03,1.22.08,1.69.13.18.03.31.1.31.21,0,.18-.08.31-.16.49-.08.23-.1.62-.1,1.59v.36h5.49c2.6,0,3.48-.05,3.61-.05.18,0,.21.03.21.23v1.01Zm.75,18.51c0,.18-.03.21-.21.21-.13,0-1.01-.05-3.67-.05h-11.28c-2.63,0-3.48.05-3.64.05-.18,0-.21-.03-.21-.21v-1.04c0-.18.03-.21.21-.21.16,0,1.01.05,3.64.05h4.84v-3.38h-1.85c-2.44,0-3.22.05-3.38.05-.18,0-.21-.03-.21-.21v-1.01c0-.18.03-.21.21-.21.16,0,.94.05,3.38.05h1.85v-2.99h-4.89c-.57,1.01-1.25,1.98-2.08,2.99-.1.13-.18.21-.26.21-.1,0-.21-.08-.36-.26-.26-.29-.52-.47-.81-.62,1.61-1.61,2.57-3.25,3.33-5.23.13-.34.26-.78.31-1.27.52.1,1.07.26,1.43.42.21.1.23.16.23.26,0,.13-.1.21-.21.31-.13.13-.26.36-.42.75-.16.36-.29.73-.47,1.09h4.19v-.44c0-1.2-.03-1.56-.18-2.44.62.03,1.17.08,1.69.13.18.03.34.13.34.21,0,.18-.1.34-.16.52-.08.26-.16.62-.16,1.64v.39h3.22c2.5,0,3.3-.05,3.46-.05.18,0,.21.03.21.21v1.04c0,.18-.03.21-.21.21-.16,0-.96-.05-3.46-.05h-3.22v2.99h2.29c2.44,0,3.25-.05,3.38-.05.18,0,.21.03.21.21v1.01c0,.18-.03.21-.21.21-.13,0-.94-.05-3.38-.05h-2.29v3.38h4.91c2.65,0,3.54-.05,3.67-.05.18,0,.21.03.21.21v1.04Z"/>
          <path d="m201.72,730.44c0,3.68-2.98,6.64-6.64,6.64s-6.64-2.96-6.64-6.64,2.98-6.64,6.64-6.64,6.64,2.98,6.64,6.64Z" fill="#0091c2"/>
          <path d="m217.36,725.73c0,.18-.03.21-.23.21-.13,0-.6-.05-2.13-.05.68,2.13,1.25,3.51,2.26,5.04-.21.29-.42.68-.6,1.07-.08.18-.16.26-.21.26-.08,0-.13-.08-.21-.26-.68-1.53-1.09-2.73-1.56-4.73.03,7.85.26,14.35.26,14.72,0,.16-.03.18-.21.18h-1.17c-.18,0-.21-.03-.21-.18,0-.36.21-6.89.26-14.48-.7,3.17-1.35,5.54-2.68,8.14-.1.18-.18.29-.26.29s-.13-.08-.21-.26c-.16-.39-.42-.73-.65-.96,1.56-2.78,2.34-5.04,3.33-8.81h-.16c-1.69,0-2.16.05-2.29.05-.21,0-.23-.03-.23-.21v-1.04c0-.18.03-.21.23-.21.13,0,.6.05,2.29.05h.44v-2.57c0-1.56-.03-2.31-.18-3.17.62.03,1.07.08,1.59.16.18.03.31.1.31.21,0,.21-.08.34-.16.52-.13.29-.13.75-.13,2.24v2.63c1.66,0,2.13-.05,2.26-.05.21,0,.23.03.23.21v1.04Zm9.65,7.62c.13.57.29,1.12.47,1.64.21.68.44,1.3.73,1.87.6-.55,1.14-1.12,1.56-1.66.34-.47.55-.81.7-1.25.42.21.91.47,1.17.7.18.16.21.23.21.31,0,.13-.08.21-.23.29-.21.1-.47.36-.73.68-.55.68-1.22,1.38-2.03,2.08.91,1.4,1.92,2.26,2.63,2.26s1.04-.78,1.25-3.33c.21.23.55.44.83.6q.49.26.39.78c-.36,2.47-.96,3.48-2.34,3.48s-2.76-1.07-3.9-2.86c-1.56,1.14-3.48,2.24-5.75,2.96-.49.16-.49.18-.73-.31-.16-.29-.36-.55-.65-.78,2.44-.57,4.71-1.74,6.47-3.04-.31-.62-.6-1.33-.83-2.05-.26-.73-.49-1.53-.68-2.37h-4.68c-.31,3.41-1.25,6.11-3.41,8.19-.18.18-.26.26-.36.26s-.21-.08-.39-.29c-.23-.26-.47-.42-.75-.57,2.34-1.87,3.28-4.32,3.48-7.59-1.59.03-2.18.05-2.29.05-.18,0-.21-.03-.21-.21v-.99c0-.18.03-.21.21-.21.13,0,1.01.05,3.64.05h4.47c-.62-3.04-.96-6.47-1.12-9.83-.05-1.79-.1-2.39-.29-3.33.62.03,1.07.08,1.59.16.18.03.39.13.39.23,0,.18-.08.31-.16.49-.08.21-.1.78-.08,2.37.08,3.48.47,6.97,1.09,9.91h3.25c2.65,0,3.51-.05,3.67-.05s.18.03.18.21v.99c0,.18-.03.21-.18.21s-1.01-.05-3.67-.05h-2.94Zm-4.34-6.53c.18-.08.23-.08.31.08.49.83.99,2,1.33,2.99.08.18.03.23-.18.34l-.6.26c-.26.13-.31.16-.36-.05l-.29-.83c-1.38.26-2.81.47-3.87.6-.57.05-.75.13-.88.23-.1.08-.21.13-.29.13-.13,0-.23-.1-.29-.29-.1-.36-.21-.86-.26-1.27.31.03.57.03.83.03.65-.78,1.33-1.69,1.95-2.6-.91-1.22-1.79-2.21-2.81-3.12-.13-.1-.16-.13.08-.39l.47-.49c.13-.16.16-.16.29-.05l.57.55c.65-.88,1.25-1.92,1.64-2.73.13-.29.26-.6.34-.96.44.16.94.39,1.25.6.18.1.23.16.23.29,0,.1-.1.21-.23.29-.16.1-.29.21-.42.47-.47.75-1.17,1.98-1.92,2.91.44.49.88.99,1.3,1.48l.88-1.46c.23-.39.42-.75.52-1.17.47.21.94.49,1.25.73.13.1.21.21.21.29,0,.13-.1.21-.26.29-.23.13-.44.44-.91,1.09-.78,1.14-1.87,2.7-2.83,3.9.86-.08,1.77-.18,2.78-.34-.18-.39-.39-.81-.6-1.17-.1-.18-.08-.23.18-.34l.6-.26Zm-1.12,8.42c.13-.16.18-.18.36-.08.86.49,1.72,1.09,2.52,1.77.13.1.1.18-.03.36l-.39.55c-.21.29-.26.29-.42.13-.75-.73-1.61-1.38-2.47-1.87-.18-.1-.16-.13.05-.39l.36-.47Zm10.45-8.97c.23-.13.26-.08.36.08.57.88,1.14,2.05,1.56,3.15.05.16,0,.23-.18.31l-.55.26c-.29.13-.31.1-.36-.08-.1-.34-.23-.65-.39-.99-1.48.23-3.02.47-4.06.57-.57.08-.78.18-.91.26-.1.05-.21.1-.29.1-.13,0-.23-.1-.29-.29-.1-.34-.18-.81-.26-1.22.26.03.49.03.75.03.55-.68,1.12-1.4,1.66-2.18-.91-1.25-1.74-2.26-2.76-3.17-.16-.13-.16-.16.08-.39l.47-.49c.18-.18.18-.16.31-.05.21.21.42.39.6.6.6-.86,1.14-1.79,1.51-2.55.16-.29.29-.65.36-1.01.44.16.94.39,1.25.6.18.1.23.16.23.29,0,.1-.1.23-.23.29-.16.08-.29.21-.42.47-.44.73-1.12,1.87-1.85,2.81.44.49.83.99,1.22,1.48.42-.6.81-1.22,1.14-1.82.23-.39.42-.75.52-1.17.47.21.94.52,1.25.73.13.1.21.21.21.29,0,.13-.08.21-.26.29-.23.1-.44.44-.91,1.09-.78,1.12-1.87,2.68-2.83,3.82.94-.08,1.92-.18,3.02-.34-.21-.42-.44-.81-.68-1.17-.1-.18-.08-.18.23-.34l.47-.23Zm-2.52,3.51c.18-.16.26-.16.44-.03.47.36.96.81,1.43,1.3.16.16.13.18-.05.34l-.42.36c-.23.21-.26.21-.42.03-.42-.52-.96-1.01-1.43-1.35-.18-.13-.16-.16.1-.36l.34-.29Z"/>
          <path d="m248.38,724.43c0,1.72.05,2.37.05,2.5,0,.18-.03.21-.21.21-.13,0-.78-.05-2.6-.05h-4.71v9.46c0,3.59.05,5.12.05,5.28,0,.18-.03.21-.21.21h-1.22c-.18,0-.21-.03-.21-.21,0-.16.05-1.69.05-5.28v-11.26c0-3.72-.05-5.3-.05-5.46,0-.18.03-.21.21-.21.16,0,1.01.05,2.94.05h3.15c1.82,0,2.47-.05,2.6-.05.18,0,.21.03.21.21,0,.16-.05.81-.05,2.39v2.21Zm-1.48-3.48h-5.98v1.79h5.98v-1.79Zm0,3.02h-5.98v1.9h5.98v-1.9Zm9.72,11.23c0,.18-.03.21-.21.21-.16,0-.99-.05-3.46-.05h-2.31c1.4,1.72,3.09,2.55,5.75,3.25-.21.23-.39.55-.57.94-.18.42-.21.44-.68.26-2.34-.83-4.08-1.95-5.56-3.95l-.39.81c-.86,1.61-2.55,3.02-5.62,3.98q-.44.13-.7-.23c-.29-.42-.52-.68-.78-.86,3.25-.83,5.02-1.92,5.9-3.48.13-.23.23-.47.34-.7h-1.82c-2.52,0-3.35.05-3.48.05-.18,0-.21-.03-.21-.21v-.94c0-.18.03-.21.21-.21.13,0,.96.05,3.48.05h2.21c.13-.62.18-1.33.21-2.16h-1.95c-2.42,0-3.22.05-3.35.05-.18,0-.21-.03-.21-.21v-.91c0-.18.03-.21.21-.21.13,0,.91.05,3.2.05-.36-.7-.75-1.35-1.22-1.95-.13-.18-.08-.23.18-.34l.6-.26c.26-.1.31-.13.44.03.52.68,1.09,1.56,1.56,2.52h2.76c.34-.62.62-1.2.88-1.72.16-.34.29-.7.36-1.07.47.1.91.23,1.27.36.18.08.29.16.29.29s-.08.21-.18.29c-.16.13-.31.34-.42.55-.21.34-.44.78-.78,1.3,2.37,0,3.15-.05,3.3-.05.18,0,.21.03.21.21v.91c0,.18-.03.21-.21.21-.16,0-.94-.05-3.35-.05h-2.13c-.03.7-.1,1.43-.26,2.16h2.83c2.47,0,3.3-.05,3.46-.05.18,0,.21.03.21.21v.94Zm3.59.23c0,1.43.08,2.86.08,3.85,0,1.14-.18,1.59-.68,1.98-.49.42-1.09.52-3.07.52q-.47,0-.6-.49c-.13-.49-.26-.81-.47-1.14.68.08,1.14.1,1.82.1,1.14,0,1.38-.21,1.38-1.25v-11.91h-4.89c-2.03,0-2.68.05-2.81.05-.21,0-.23-.03-.23-.21,0-.13.05-.62.05-2.34v-2.52c0-1.59-.05-2.08-.05-2.24,0-.18.03-.21.23-.21.13,0,.78.05,2.81.05h3.46c2,0,2.68-.05,2.81-.05.18,0,.21.03.21.21,0,.16-.05,1.2-.05,3.72v11.88Zm-1.53-14.48h-6.4v1.79h6.4v-1.79Zm0,3.02h-6.4v1.9h6.4v-1.9Z"/>
          <path d="m274.09,725.55c0,.18-.03.21-.21.21-.13,0-.68-.05-2.57-.05h-.36v4.84c.86-.39,1.74-.86,2.6-1.4-.05.29-.05.73-.03,1.12q.03.55-.36.73c-.73.39-1.46.75-2.21,1.12v3.51c0,1.43.03,2.96.03,3.95,0,1.2-.18,1.66-.68,2.03-.52.39-1.01.49-2.78.47-.52-.03-.55-.05-.68-.55-.13-.47-.29-.83-.47-1.12.73.08,1.35.1,2.03.1.75,0,1.01-.31,1.01-1.25v-6.45c-.62.29-1.25.55-1.9.81-.52.21-.83.44-.94.55-.1.1-.23.18-.31.18-.13,0-.21-.05-.29-.23-.18-.47-.31-.94-.47-1.53.7-.16,1.4-.36,2.34-.73l1.56-.6v-5.54h-.88c-1.92,0-2.47.05-2.6.05-.18,0-.21-.03-.21-.21v-1.12c0-.18.03-.21.21-.21.13,0,.68.05,2.6.05h.88v-2.08c0-1.56-.03-2.31-.18-3.17.62.03,1.17.08,1.69.16.21.03.31.13.31.23,0,.18-.08.31-.16.49-.1.29-.13.75-.13,2.26v2.11h.36c1.9,0,2.44-.05,2.57-.05.18,0,.21.03.21.21v1.12Zm10.48,4.47c.31,0,.47-.05.6-.13.08-.05.16-.08.23-.08.18,0,.36.13.7.52.34.36.47.6.47.73s-.08.21-.23.31c-.16.1-.31.23-.65.88-.91,1.79-2.13,3.41-3.64,4.84,2.11,1.61,4.71,2.76,7.59,3.48-.29.29-.52.62-.68,1.01-.13.34-.18.44-.36.44-.1,0-.23-.03-.39-.08-2.65-.86-5.17-2.11-7.31-3.87-2.11,1.66-4.68,2.99-7.72,3.95-.18.05-.29.1-.36.1-.16,0-.23-.13-.39-.44-.16-.34-.42-.65-.68-.83,3.15-.86,5.85-2.18,7.98-3.85-1.53-1.51-2.81-3.38-3.72-5.62-1.04,0-1.51.03-1.59.03-.18,0-.21-.03-.21-.21v-1.04c0-.18.03-.21.21-.21.13,0,.94.05,3.41.05h6.73Zm-.57-5.12c0,.73.03.94.21,1.09.16.13.55.23,1.43.23.83,0,1.25-.1,1.51-.44.23-.31.39-.99.42-2.21.26.21.6.42.99.55.44.16.44.18.39.68-.13,1.09-.36,1.79-.83,2.26-.47.47-1.38.62-2.65.62-1.04,0-1.87-.13-2.24-.34-.47-.26-.78-.81-.78-1.74v-4.42h-4.16c-.05,3.95-1.04,5.69-3.38,7.36-.21.16-.31.23-.42.23s-.21-.1-.39-.31c-.23-.29-.55-.49-.88-.65,2.65-1.59,3.48-2.96,3.48-6.86,0-.62-.05-.91-.05-1.04,0-.18.03-.21.21-.21.16,0,.62.05,2.34.05h2.29c1.69,0,2.21-.05,2.37-.05.18,0,.21.03.21.21,0,.13-.05.75-.05,2.21v2.78Zm-6.42,6.47c.75,1.85,1.87,3.38,3.28,4.71,1.53-1.4,2.73-2.99,3.54-4.71h-6.81Z"/>
          <path d="m301.81,739.85c-.26.05-.55.18-.83.34-1.61.88-3.9,1.61-6.08,2.03-.49.1-.52.08-.75-.36-.21-.34-.44-.65-.68-.86,2.24-.31,4.55-.88,6.03-1.64.34-.18.7-.42.99-.7.6.26.94.42,1.35.65.18.1.26.18.26.31,0,.1-.08.18-.29.23Zm-1.69-13.81c-1.53.78-3.09,1.46-4.32,1.9-.49.18-.75.29-.88.42-.13.13-.23.18-.34.18-.13,0-.21-.05-.29-.21-.18-.36-.42-.91-.6-1.4.52-.08,1.2-.21,1.9-.44,1.51-.49,2.99-1.14,4.86-2.13,0,.26.03.6.05.91q.08.55-.39.78Zm-4.91-6.32c.18-.23.29-.26.47-.18,1.25.44,2.68,1.25,3.9,2.08.18.13.18.18-.03.44l-.49.6c-.26.31-.29.29-.47.16-1.27-.99-2.52-1.66-3.8-2.18-.21-.08-.23-.16,0-.42l.42-.49Zm17.26,15.91c0,1.82.05,2.47.05,2.6,0,.18-.03.21-.21.21-.16,0-1.04-.05-3.61-.05h-7.7c-2.57,0-3.46.05-3.61.05-.18,0-.21-.03-.21-.21,0-.16.05-.78.05-2.6v-4.21c0-1.85-.05-2.47-.05-2.6,0-.18.03-.21.21-.21.16,0,1.04.05,3.61.05h7.7c2.57,0,3.46-.05,3.61-.05.18,0,.21.03.21.21,0,.13-.05.75-.05,2.6v4.21Zm-1.48-5.8h-12.25v1.66h12.25v-1.66Zm0,2.76h-12.25v1.69h12.25v-1.69Zm0,2.78h-12.25v1.85h12.25v-1.85Zm-3.02-13.03c1.04,3.48,5.23,4.89,8.53,5.38-.23.26-.42.57-.55.96-.16.47-.21.52-.68.39-3.22-.78-6.53-2.18-7.9-5.38-.94,2.52-3.2,3.93-6.45,4.63-.49.1-.55.1-.83-.39-.16-.26-.42-.55-.62-.7,3.77-.65,6.27-2.03,7.02-4.89h-2.99c-.52.62-1.09,1.2-1.85,1.77-.18.13-.26.21-.36.21s-.21-.08-.42-.29-.49-.39-.78-.49c1.61-1.12,2.76-2.37,3.48-3.67.21-.36.39-.81.49-1.27.55.13.96.23,1.3.34.21.08.31.16.31.29,0,.1-.08.18-.23.29-.16.1-.29.34-.42.57-.21.39-.42.73-.65,1.07h8.37c.39,0,.6-.03.7-.08.1-.05.21-.1.29-.1.13,0,.26.08.65.36.44.34.6.55.6.7,0,.13-.08.18-.21.26-.18.1-.29.21-.49.55-.44.7-.78,1.14-1.4,1.82-.21.21-.29.31-.44.31-.1,0-.26-.05-.47-.16-.31-.16-.6-.23-.88-.29.78-.65,1.4-1.43,1.9-2.18h-5.02Zm.6,16.43c.21-.13.31-.16.47-.05,1.87,1.17,4.26,1.82,6.94,2.18-.26.23-.52.49-.73.88-.23.42-.29.44-.81.36-2.08-.39-4.84-1.33-6.76-2.6-.18-.13-.16-.21.16-.39l.73-.39Z"/>
          <path d="m334.96,726.51c.44,1.9,1.01,3.59,1.77,5.07,1.09-.88,1.95-1.72,2.89-2.83.34-.39.6-.81.81-1.17.52.34.94.62,1.27.94.16.13.21.23.21.34,0,.16-.16.26-.29.34-.31.16-.55.39-1.2,1.04-.88.88-1.79,1.69-2.99,2.6,1.56,2.52,3.74,4.52,6.76,6.27-.36.29-.65.57-.91,1.01-.16.26-.23.39-.34.39s-.18-.08-.36-.21c-5.04-3.48-7.57-7.57-9.1-13.78h-.44c-.75.6-1.48,1.14-2.21,1.61,2.39,2.47,3.74,5.64,3.74,9.15s-.75,4.73-3.51,4.73c-.55,0-1.01-.03-1.51-.08q-.47-.03-.57-.49c-.1-.44-.26-.81-.47-1.12,1.09.16,2.03.18,2.68.18.99,0,1.87-.31,1.87-3.28,0-.68-.05-1.35-.18-2.03-2.99,2.5-6.14,4.11-10.53,5.62-.18.08-.31.13-.39.13-.13,0-.21-.1-.36-.39-.26-.42-.49-.62-.81-.88,4.86-1.35,8.4-3.04,11.75-5.95-.21-.68-.49-1.35-.83-2.03-2.76,1.9-4.94,2.94-8.55,4.16-.21.08-.31.13-.42.13-.13,0-.21-.1-.36-.36-.21-.36-.44-.62-.75-.83,4.03-1.07,6.58-2.24,9.44-4.19-.42-.6-.88-1.2-1.43-1.77-1.72.96-3.51,1.69-5.72,2.39-.47.16-.49.16-.73-.23-.26-.42-.44-.6-.78-.86,3.9-.99,6.27-2,8.55-3.61h-2.31c-2.57,0-3.43.05-3.59.05-.18,0-.21-.03-.21-.23v-.96c0-.21.03-.23.21-.23.16,0,1.01.05,3.59.05h7.54c2.57,0,3.46-.05,3.59-.05.18,0,.21.03.21.23v.96c0,.21-.03.23-.21.23-.13,0-1.01-.05-3.59-.05h-1.22Zm7.98-2.99c0,2.21.05,2.55.05,2.7s-.03.18-.21.18h-1.2c-.18,0-.21-.03-.21-.18v-3.64h-17.94v3.64c0,.16-.03.18-.21.18h-1.2c-.18,0-.21-.03-.21-.18s.05-.49.05-2.7v-.81c0-.83-.05-1.2-.05-1.35,0-.18.03-.21.21-.21.16,0,1.07.05,3.59.05h5.82v-.31c0-.94-.03-1.64-.18-2.26.6.03,1.3.08,1.72.13.18.03.31.1.31.21,0,.18-.08.29-.16.49-.1.23-.13.62-.13,1.4v.34h6.19c2.52,0,3.43-.05,3.59-.05.18,0,.21.03.21.21,0,.16-.05.52-.05,1.17v.99Z"/>
          <path d="m14.44,780.44c0,3.68-2.98,6.64-6.64,6.64s-6.64-2.96-6.64-6.64,2.98-6.64,6.64-6.64,6.64,2.98,6.64,6.64Z" fill="#0091c2"/>
          <path d="m36.24,780.02c-4.42.99-7.25,1.79-10.43,2.91-.47.16-.7.34-.86.34-.1,0-.23-.13-.34-.31-.18-.31-.39-.78-.62-1.35.39-.08.68-.16,1.04-.31,1.14-.47,1.95-.99,2.91-1.79,2.6-2.13,5.12-4.39,8.58-7.8-2.21.36-4.39.73-6.45,1.12-.36.08-.68.16-.94.21-.29.08-.55.21-.75.21-.16,0-.26-.16-.39-.39-.13-.26-.39-.88-.6-1.61.73.08,1.43.08,2.29.03,2.08-.21,4.32-.55,6.81-.94.49-.05.75-.21.99-.34.16-.1.29-.16.39-.16.16,0,.26.05.44.21.31.23.68.6.94.94.13.16.21.34.21.49,0,.18-.13.34-.34.44-.31.13-.62.34-.94.6-3.41,3.07-6.4,5.56-9.46,7.96l.08.08c4.11-1.22,8.66-2.31,14.27-3.09.26-.03.36.03.42.21.08.29.16.81.18,1.33.03.21-.08.26-.39.26-1.74.08-3.25.42-4.73.91-2.99,1.07-5.23,3.04-5.23,5.41,0,2.99,3.43,3.8,6.97,3.82.21,0,.29.08.29.31-.03.36-.1.94-.16,1.25-.03.26-.1.34-.39.34-.47,0-1.01-.05-1.61-.1-4.08-.42-6.71-2.08-6.71-5.25,0-2,1.25-4.32,4.52-5.85v-.05Z"/>
          <path d="m61.26,773.91c-.47,4.39-1.79,8.71-3.43,11.36-1.12,1.9-2.29,2.68-3.82,2.68-1.95,0-3.8-2.13-3.8-5.9,0-2.39,1.09-4.94,3.02-6.73,1.92-1.79,4.52-2.89,7.8-2.89,5.82,0,9.28,3.41,9.28,8.37,0,4.24-2.63,7.64-8.27,9.07-.31.08-.49.03-.68-.29-.16-.26-.49-.65-1.01-.96,5.15-1.01,8.11-3.8,8.11-8.14,0-3.85-2.99-6.58-6.71-6.58h-.49Zm-6.89,2.5c-1.74,1.72-2.5,3.85-2.5,5.62,0,2.83,1.17,4.06,2.11,4.06.88,0,1.66-.57,2.42-1.9,1.33-2.34,2.7-6.37,3.04-10.17-2.03.26-3.82,1.14-5.07,2.39Z"/>
          <path d="m79.27,781.27c0-.94,0-2.29.05-3.51-.7,1.09-1.48,2.18-2.37,3.2-.13.16-.23.26-.31.26-.1,0-.16-.1-.26-.29-.21-.42-.44-.75-.7-.99,2.55-2.86,4.24-5.8,5.41-9.26.23-.65.34-1.2.39-1.77.6.18,1.09.34,1.56.55.21.1.31.16.31.31,0,.13-.1.23-.26.36s-.29.36-.52.96c-.52,1.38-1.09,2.73-1.77,4.08v12.66c0,2.73.05,3.9.05,4.03,0,.18-.03.21-.21.21h-1.22c-.18,0-.21-.03-.21-.21,0-.13.05-1.3.05-4.03v-6.58Zm7.31,6.79c0,1.07.42,1.48,1.2,1.64.75.16,1.95.23,3.98.23,2.89,0,4.32-.29,5.02-.75.65-.39,1.04-1.25,1.12-3.64.31.21.7.42,1.14.6q.44.18.42.62c-.18,1.9-.57,3.12-1.43,3.69-1.12.73-2.94.99-6.45.99-2.13,0-3.8-.1-4.71-.34-.96-.26-1.82-.88-1.82-2.5v-8.61c-1.61.55-2.18.81-2.37.86-.18.08-.26.05-.29-.13l-.26-1.25q-.03-.18.16-.23c.13-.05.86-.21,2.76-.81v-3.51c0-1.25-.05-2.13-.16-2.89.65,0,1.17.05,1.64.13.23.03.34.13.34.23,0,.16-.05.29-.13.47-.13.26-.16.57-.16,1.85v3.22l3.56-1.14v-3.98c0-1.79-.05-2.65-.21-3.48.7.03,1.2.08,1.72.16.18.03.29.13.29.21,0,.16-.05.26-.1.47-.1.31-.16.96-.16,2.7v3.43l2.47-.81c2.37-.75,3.15-1.12,3.3-1.17.13-.03.21.03.21.23l-.05,1.92c-.13,3.25-.29,5.15-.55,6.53-.31,1.64-.99,2.11-2.16,2.11-.44,0-.81-.03-1.43-.08q-.44-.05-.52-.57c-.05-.36-.18-.75-.34-1.01.78.13,1.4.21,1.98.21.62,0,.91-.39,1.09-1.46.21-1.51.34-3.02.39-5.88l-4.39,1.46v4.65c0,2.63.05,3.74.05,3.9,0,.18-.03.21-.21.21h-1.22c-.18,0-.21-.03-.21-.21,0-.16.05-1.27.05-3.9v-4.13l-3.56,1.17v8.58Z"/>
          <path d="m116.2,773.91c-.47,4.39-1.79,8.71-3.43,11.36-1.12,1.9-2.29,2.68-3.82,2.68-1.95,0-3.8-2.13-3.8-5.9,0-2.39,1.09-4.94,3.02-6.73,1.92-1.79,4.52-2.89,7.8-2.89,5.82,0,9.28,3.41,9.28,8.37,0,4.24-2.63,7.64-8.27,9.07-.31.08-.49.03-.68-.29-.16-.26-.49-.65-1.01-.96,5.15-1.01,8.11-3.8,8.11-8.14,0-3.85-2.99-6.58-6.71-6.58h-.49Zm-6.89,2.5c-1.74,1.72-2.5,3.85-2.5,5.62,0,2.83,1.17,4.06,2.11,4.06.88,0,1.66-.57,2.42-1.9,1.33-2.34,2.7-6.37,3.04-10.17-2.03.26-3.82,1.14-5.07,2.39Z"/>
          <path d="m131.72,776.01c.16-.21.26-.21.42-.13,1.25.75,2.52,1.64,3.67,2.73.13.13.13.18-.03.36l-.62.73c-.26.31-.29.34-.44.18-1.07-1.12-2.39-2.13-3.56-2.86-.18-.1-.16-.16.03-.36l.55-.65Zm2.03,14.56c-.23.55-.42.94-.44,1.17-.03.18-.1.31-.21.31s-.21-.03-.39-.13c-.44-.26-.78-.49-1.25-.86.49-.62.78-1.14,1.17-1.92.81-1.59,1.64-3.67,2.37-6.24.26.34.52.52.88.78.39.23.39.26.23.78-.7,2.13-1.59,4.29-2.37,6.11Zm-.47-20.98c.18-.21.26-.23.42-.13,1.22.78,2.44,1.74,3.46,2.81.13.16.13.26-.08.49l-.57.7c-.21.23-.26.26-.42.1-1.04-1.14-2.39-2.31-3.46-2.99-.16-.1-.16-.16.08-.39l.57-.6Zm20.88,12.06c0,.21-.03.23-.18.23s-1.07-.05-3.69-.05h-5.49c-.83,2.73-1.74,5.12-2.65,7.15,2.89-.26,5.41-.6,8.09-1.01-.73-1.04-1.53-2.03-2.37-2.99-.16-.16-.13-.23.16-.42l.65-.39c.18-.13.26-.13.36-.03,1.85,2,3.33,4.08,4.81,6.58.08.16.08.21-.18.39l-.73.47c-.34.23-.39.23-.47.05-.44-.83-.91-1.64-1.4-2.39-4.11.68-7.62,1.12-11.99,1.61-.73.08-.94.16-1.07.23-.16.08-.26.18-.42.18s-.29-.16-.34-.34c-.16-.52-.31-1.09-.42-1.64,1.07,0,1.9-.03,2.65-.08l.94-.08c.99-2.24,1.9-4.58,2.63-7.31h-2.26c-2.63,0-3.54.05-3.69.05-.18,0-.21-.03-.21-.23v-1.09c0-.18.03-.21.21-.21.16,0,1.07.05,3.69.05h3.46v-4.73h-2.24c-2.55,0-3.38.05-3.51.05-.18,0-.21-.03-.21-.21v-1.09c0-.18.03-.21.21-.21.13,0,.96.05,3.51.05h2.24v-1.87c0-1.74-.03-2.47-.16-3.38.68.03,1.12.05,1.69.13.18.03.31.13.31.23,0,.16-.05.26-.13.47-.08.23-.16.94-.16,2.5v1.92h3.28c2.55,0,3.41-.05,3.54-.05.18,0,.21.03.21.21v1.09c0,.18-.03.21-.21.21-.13,0-.99-.05-3.54-.05h-3.28v4.73h4.47c2.63,0,3.54-.05,3.69-.05s.18.03.18.21v1.09Z"/>
          <path d="m180.75,791.2c-.16.26-.23.36-.34.36s-.21-.05-.39-.18c-5.9-3.77-8.71-9.1-9.67-14.33-1.09,6.53-4.63,11.31-9.91,14.3-.18.1-.29.18-.39.18s-.18-.13-.36-.39c-.29-.39-.62-.7-.96-.94,6.97-3.35,10.56-10.17,10.45-17.63-.03-1.43-.05-2.18-.18-3.09.62.03,1.38.1,1.95.21.21.05.36.16.36.31,0,.21-.08.34-.16.52-.13.29-.23.81-.23,1.46,0,.47,0,.91-.03,1.35,1.04,6.99,3.95,12.95,10.76,16.8-.36.29-.68.65-.91,1.07Z"/>
          <path d="m226.78,780.44c0,3.68-2.98,6.64-6.64,6.64s-6.64-2.96-6.64-6.64,2.98-6.64,6.64-6.64,6.64,2.98,6.64,6.64Z" fill="#0091c2"/>
          <path d="m238.37,781.24c0-1.01.03-2.52.05-3.85-.68,1.09-1.46,2.16-2.34,3.22-.13.18-.23.26-.31.26-.1,0-.16-.08-.26-.29-.23-.47-.44-.75-.68-.99,2.44-2.78,4-5.59,5.25-9.1.23-.65.36-1.14.42-1.77.55.13,1.07.29,1.53.49.18.08.31.16.31.29,0,.16-.08.23-.23.36s-.29.39-.52.99c-.52,1.38-1.07,2.65-1.69,3.9v13.08c0,2.76.05,3.95.05,4.08,0,.18-.03.21-.21.21h-1.22c-.18,0-.21-.03-.21-.21,0-.13.05-1.33.05-4.08v-6.6Zm19.34,2.83c0,6.08.05,7.51.05,7.64,0,.18-.03.21-.21.21h-1.14c-.18,0-.21-.03-.21-.21v-1.33h-12.01v1.51c0,.18-.03.21-.21.21h-1.14c-.18,0-.21-.03-.21-.21,0-.13.05-1.59.05-7.75v-7.57c0-4.34-.05-5.8-.05-5.95,0-.18.03-.21.21-.21.16,0,1.07.05,3.64.05h7.44c2.57,0,3.48-.05,3.64-.05.18,0,.21.03.21.21,0,.16-.05,1.69-.05,5.69v7.75Zm-1.51-12.22h-12.01v17.16h12.01v-17.16Zm-1.2,5.43c0,.18-.03.21-.21.21-.13,0-.81-.05-2.89-.05h-1.12v3.09h.44c1.64,0,2.16-.05,2.29-.05.18,0,.21.03.21.21,0,.16-.05.62-.05,2v2.08c0,1.43.05,1.9.05,2.03,0,.16-.03.18-.21.18-.13,0-.65-.03-2.29-.03h-2.24c-1.64,0-2.13.03-2.29.03-.18,0-.21-.03-.21-.18s.05-.6.05-2.03v-2.08c0-1.38-.05-1.85-.05-2,0-.18.03-.21.21-.21.16,0,.65.05,2.29.05h.42v-3.09h-.99c-2.08,0-2.76.05-2.91.05-.18,0-.21-.03-.21-.21v-.94c0-.18.03-.21.21-.21.16,0,.83.05,2.91.05h.99v-.21c0-1.66-.03-2.37-.16-3.09.55.03,1.07.08,1.48.16.18.03.29.08.29.21,0,.1-.05.26-.1.42-.08.26-.13.81-.13,2.26v.26h1.12c2.08,0,2.76-.05,2.89-.05.18,0,.21.03.21.21v.94Zm-2.68,4.45h-4.42v4h4.42v-4Z"/>
          <path d="m285.35,791.2c-.16.26-.23.36-.34.36s-.21-.05-.39-.18c-5.9-3.77-8.71-9.1-9.67-14.33-1.09,6.53-4.63,11.31-9.91,14.3-.18.1-.29.18-.39.18s-.18-.13-.36-.39c-.29-.39-.62-.7-.96-.94,6.97-3.35,10.56-10.17,10.45-17.63-.03-1.43-.05-2.18-.18-3.09.62.03,1.38.1,1.95.21.21.05.36.16.36.31,0,.21-.08.34-.16.52-.13.29-.23.81-.23,1.46,0,.47,0,.91-.03,1.35,1.04,6.99,3.95,12.95,10.76,16.8-.36.29-.68.65-.91,1.07Z"/>
        </g>
        <g>
          <path d="m38.28,503.15s-1.83,2.71-2.36,5.1c-.53,2.39,3.27,6.19,3.27,6.19l3.36-9.91-4.27-1.39Z" fill="#f1cfcd"/>
          <path d="m67.88,437.46s-.78,5.67,1.31,8.27c0,0-8.48,11.26-15.05,9.59-6.57-1.67-1.74-8.85-1.74-8.85l15.48-9.02Z" fill="#f1cfcd"/>
          <path d="m62.94,600.83s.33,2.69-.75,5.66c-1.08,2.96-4.82,9.7-4.73,12.48.09,2.79,1.25,4.87,3.84,5.16,1.99.22,8.14-1.69,10.2-6.54,2.07-4.85.31-6.17,1.39-8.24,1.08-2.07,2.34-6.45,1.63-9.69-.71-3.24-11.58,1.17-11.58,1.17Z" fill="#001135"/>
          <path d="m56.41,593.16l-14.09-1.04h-.29s-1.18,3.05-3.93,4.17c-2.76,1.11-9.98,4.05-12.04,6.81-1.68,2.27,2,5.4,9.69,3.52,5.46-1.33,6.05-4.11,12.45-4.23,4.38-.08,6.07-.86,7.92-3.18l.3-6.06Z" fill="#001135"/>
          <path d="m39.44,596s3.34-13.9,1.03-29.48c-1.59-10.71-1.82-39.83-1.07-62.85,0,0,2.97,4.85,10.52,7.8,7.53,2.95,9.07,5.73,9.07,5.73l-1.27,20.45s-1.14,11.2-.76,16.96c.38,5.8-.65,5.52-.46,15.51.2,9.99-.14,27.05-.14,27.05,0,0-9.57,1.85-16.91-1.18Z" fill="#633750"/>
          <path d="m75.07,573.94c-1.19-9.79-2.58-18.46-2.11-25.2.46-6.75,3.76-32.22.39-40.08l-23.44,2.82s3.2,32.22,6.97,47.99c3.77,15.77,5.3,47.02,5.3,47.02,0,0,.31,3.77,4.88,3.97,4.56.2,7.43-8.07,7.43-8.07,0,0,1.76-18.65.58-28.44Z" fill="#633750"/>
          <path d="m38.28,502.31s-.12,4.43,4.18,6.94c4.31,2.51,17.7,5.97,21.53,3.94,3.83-2.03,3.83-24.27,3.83-24.27l2.88-29.83-5.4-6.82s-7.67,2.14-10.68.82c-3.01-1.32-2.75-6.92-2.75-6.92,0,0-4.72-.4-7.24,6.17-2.52,6.56-2.59,29.5-2.59,29.5,0,0-1.21,15.67-1.74,17.02-.53,1.35-2.03,3.45-2.03,3.45Z" fill="#e6f6ff"/>
          <path d="m48.45,442.91s-6.19-.94-7.97,4.87c-.89,2.92-.66,9.91-.21,16.13-.25,3.78-.08,6.93.24,8.43.94,4.38-1.66,19.43-1.66,21.41s-1.61,3.5-3.36,6.63c-1.76,3.13,3.4,5.95,3.4,5.95,3.2-1.71,3.61-29.18,6.12-43.59.59-3.37.96-6.46,2.01-8.77,3.45-7.57,9.43-10.46,9.43-10.46l-7.99-.59Z" fill="#2a4048"/>
          <path d="m78.06,511.69c-3.79-4.77-7.44-12.72-5.38-17.94,2.06-5.22,8.24-17.92,8.24-17.92l1.38-18.95-10.92-8.76-1.79-1.94s.19,3.01-3.76,7.58c-6.51,7.52-9.35,19.42-8.82,32.68.52,13.27,2.28,21.2,8.09,29.87l5.28,9.51s1.09,6.7,1.51,7.17c2.85,3.2,11.83.12,12.47-2.41,0,0-2.51-14.12-6.29-18.88Z" fill="#2a4048"/>
          <path d="m56.43,457.05l-1.8-3.95-3.58,2.76.8,3.62s-6.56,19.15-6.91,40.04l3.19,5.82,3.51-3.52s.95-22.5,1.51-27.25c.56-4.75.88-14.77.88-14.77l2.39-2.75Z" fill="#633750"/>
          <path d="m68.91,444.88c-3.97,6.79-14.28,8.22-14.28,8.22l1.6,6s10.98-4.56,14.47-10.75l-1.8-3.46Z" fill="#fdfdfd"/>
          <path d="m50.23,456.45l4.41-3.36s-1.04-5.09-.37-8.67h-1.81s-3.41,6.26-2.22,12.02Z" fill="#fdfdfd"/>
          <path d="m57.49,493.75s3.58-16.84,9.62-27.23l-3.68-3.56,3.56-1.15,5.13-13.47-3.2-3.46s.21,1.77-.65,3.46c-.87,1.69-7.52,9.29-10.15,19.7-2.62,10.42-.63,25.71-.63,25.71Z" fill="#2a5348"/>
          <path d="m42.1,490.71l-1.62-33.53,3.26-.87-1.33-4.06,10.27-9.34,4.08,1.2s-9.04,5.17-10.75,14.27c-1.72,9.1-3.91,32.33-3.91,32.33Z" fill="#2a5348"/>
          <g>
            <path d="m48.07,432.36c-.04-1.12.62-2.33.87-3.76.25-1.43,1.07-4.62,4.74-7.45,3.67-2.83,9.09-3.42,12.67-1.33,3.58,2.09,5.88,6.31,5.25,11.32-.62,5.01-3.52,10.17-6.44,12.81-2.92,2.64-6.15,3.8-9.5,4.22-3.31.42-4.81-1.25-5.04-2.72,0,0-.6-1.35-.94-2.5-.67-3.37-1.43-5.5-1.61-10.6Z" fill="#f1cfcd"/>
            <path d="m66.65,418.22c-5.53-3.37-11.66-1.5-14.76.92-1.08.84-2.29,2.11-3.51,4.67-1.01,2.11-.77,6.28,4.05,6.35,2.6.04,6-.68,8.58-1.34,2.92,1.65,1.99,4.71,2.43,5.68.44.98.93,2.24,1.59,2.56.4.19,1.09-.48,1.27-.71.43-.56,3.39-4.45,3.87.1.7-1.7,1.22-3.51,1.44-5.31.1-.75.12-1.47.09-2.18h0c.78-1.85.29-7.5-5.04-10.74Z" fill="#001e26"/>
            <path d="m63.43,434.51c.44.98.93,2.24,1.59,2.56.4.19,1.09-.48,1.27-.71.43-.56,3.39-4.45,3.87.1.7-1.7,1.22-3.51,1.44-5.31.1-.75.12-1.47.09-2.18-2.91,1.73-6.58,2.52-8.57,2.84.22,1.14.09,2.2.31,2.71Z" fill="#001e26"/>
            <path d="m66.33,440.53c.43.24,1.41.56,3.15-1.55,1.74-2.11,1.59-3.99.63-4.56-.96-.57-1.83-.13-2.26.62-.43.76-1.51,5.49-1.51,5.49Z" fill="#f2a983"/>
            <path d="m66.33,440.53c.43.24,1.41.56,3.15-1.55,1.74-2.11,1.59-3.99.63-4.56-.96-.57-1.83-.13-2.26.62-.43.76-1.51,5.49-1.51,5.49Z" fill="#f1cfcd"/>
          </g>
          <g>
            <path d="m71.38,512.22l-.6,1.24s-1.57.5-1.68.6c-.1.1-4.52,2.28-4.52,2.28,0,0,2.35,6.21,5.8,9.47,0,0,3.92-6,4.45-7.21.52-1.21,1.79-3.46,1.79-3.46l-5.23-2.92Z" fill="#f1cfcd"/>
            <path d="m75.48,469.92c-1.59-3.74-1.3-11.27,2.42-12.74,3.73-1.47,5.92-1.54,11.45,9.63,5.53,11.17,4.72,19.08,5.4,20.99.68,1.92-1.47,5.64-2.71,8.23-1.24,2.59-15.45,22.78-15.45,22.78,0,0-4.17-3.05-6.88-5.75l13.2-25.07s-4.83-11.99-7.43-18.08Z" fill="#2a4048"/>
            <path d="m69.85,513.19l-.64.78,6.1,6.17.85-1.66c-1.12-.84-4.14-3.15-6.31-5.3Z" fill="#e2e9ed"/>
          </g>
        </g>
        <g>
          <g>
            <polygon points="248.11 56.69 262.26 86.65 256.55 92.9 236.93 60.66 248.11 56.69" fill="#f1cfcd"/>
            <path d="m210.97,208.84l.29-14.49c-.34-1.37-2.17-1.65-3.63-2.93-.65-.57-1.59-.63-2.23-.16l-1.38,1.01c-2.05,1.38-2.16,1.79-1.71,3.6l2.66,10.71c.45,1.8,2.07,3.75,3.6,4.33l.43.16c1.53.58,2.42-.43,1.97-2.23Z" fill="#001e26"/>
            <path d="m206.03,192.15s1.37,8.85,3.63,9.42c0,0,1.45.36,1.5-1.98.05-2.34.65-6.88.65-6.88l-5.79-.56Z" fill="#f1cfcd"/>
            <path d="m214.68,23.25s-10.62,2.08-13.22,6.14c-2.61,4.07,2,14.1,2,14.1v-5.24s-6.13-10.08,10.8-12.29c11.37-1.48.42-2.71.42-2.71Z" fill="#001e26"/>
            <path d="m214.49,23.56s-17.52,11.34-11.02,22.32c6.49,10.98,24.09,15.71,24.09,15.71l7.15-36.89-20.23-1.15Z" fill="#001e26"/>
            <path d="m242.49,203.69l-10.82-7.6c-1.38-.56-4.31-.63-6.23-.27-.86.16-1.43.85-1.38,1.63l.11,1.68c.07,2.42.37,2.75,2.19,3.48l10.83,4.37c1.82.74,4.42.65,5.78-.19l.38-.24c1.35-.84.97-2.13-.85-2.86Z" fill="#001e26"/>
            <path d="m224.98,196.3c.13,3.36,6.95,4.57,7.08,1.16,8.28-31.62,9.35-60.56,10.93-94l-20.89-17.59c1.69,29.02,4.33,53.6,3.81,78.66-.07,3.25-1.69,6.69-1.87,9.81-.37,6.48,1.49,15.64.93,21.96Z" fill="#f1cfcd"/>
            <path d="m206.12,190.97c-.74,2.95,3.45,5.79,5.32,3.15,5.64-11.61,9.76-20.55,13.6-29.32,2.91-6.64,3.53-14.59,4.75-22.56,2.91-19.02-16.74-23.82-15.76-4.49.4,7.9.25,15.85-.72,23.74-.47,3.82-2.65,3.63-3.91,10.04-1.28,6.51-1.53,10.14-3.28,19.45Z" fill="#f1cfcd"/>
            <path d="m255.33,68.68l-13.11-23.41s-18.05,22.63-1.82,29.22l7.74,7.88,10.26-5.05-3.08-8.63Z" fill="#7285b1"/>
            <path d="m214.45,89.7c-9.09.18-.06,36.14-3.66,62,0,0,18.96,17.44,35.01,2.17l-.6-59.44-30.76-4.73Z" fill="#633750"/>
            <path d="m244.79,92.72c.53-6.36-2.53,6.33-2.41-1.03.05-2.83,1.42-10.94,2.1-16.3.64-5.01,5.87-7.99,4.79-14.09-.14-3.33-6.03-9.5-6.29-11.93-.4-3.85-.67-7.4-8.76-11.19l-3.56.77c-1.7.37-3.34.92-4.88,1.63-16.49,7.64-20.09,8.01-18.94,17.67.19,4.97,3.14,1.1,4.03,4.39,1.71,6.31,8.37,12.74,6.02,23.8-.47,2.23-2.22,3.75-.23,5.24,8.62,6.42,25.09,7.65,28.11,1.03Z" fill="#7285b1"/>
            <path d="m245.33,92.67c0,.24.02-.02,0,0h0Z" fill="#ff5cab"/>
            <path d="m263.29,97l-3.12,1.77c-1.52.87-3.48.82-4.35-.1l-.61-.64c-.87-.92-.34-2.38,1.18-3.25l3.12-1.77c1.52-.87,3.48-.82,4.35.1l.61.64c.87.92.34,2.38-1.18,3.25Z" fill="#f1cfcd"/>
            <path d="m229.94,96.82l-.09-.66,1.11.32.16-.42,24.61-12.6c.3-.15.86-.14,1.25.03l12.18,5.18-.02-.15,2.21.66.1.7h-.01c-.02.07-.07.13-.17.18l-25.61,13.12c-.3.15-.86.14-1.25-.03l-14.1-6c-.21-.09-.34-.21-.35-.32h0Z" fill="#bfc6c9"/>
            <path d="m245.56,102.47l25.61-13.12c.3-.15.22-.41-.18-.58l-14.1-6c-.39-.17-.96-.18-1.25-.03l-25.61,13.12c-.3.15-.22.41.18.58l14.1,6c.39.17.96.18,1.25.03Z" fill="#dde5e8"/>
            <path d="m242.45,94.23l6.2-3.17c.07-.04.05-.1-.04-.14l-3.41-1.45c-.1-.04-.23-.04-.3,0l-6.2,3.17c-.07.04-.05.1.04.14l3.41,1.45c.1.04.23.04.3,0Z" fill="#bfc6c9"/>
            <path d="m231.35,96.93c-9.18-.36-17.41-2.86-24.81-7.17-1.99-1.16-3.25-3.26-3.3-5.49-.11-5.11-.05-14.17,1.68-15.64l7.93,9.09-.37,5.07c8.66,3.81,13.21,8.33,18.5,9.93l.38,4.21Z" fill="#f1cfcd"/>
            <path d="m216.91,44.65s6.05,14.5,14.84,10.72c8.79-3.78,2.42-16.89,2.42-16.89,0,0-9.13,1.88-17.26,6.17Z" fill="#cedae2"/>
            <path d="m227.12,47.44l.58.12c1.97.4,3.79-.8,4.04-2.66l1.42-10.48c.25-1.86-1.15-3.7-3.12-4.1l-.58-.12c-1.97-.4-3.79.8-4.04,2.66l-2.94,9.76c-.25,1.86,2.66,4.43,4.63,4.83Z" fill="#f1cfcd"/>
            <path d="m246.36,88.7c.11-.56.68-1.25,1.26-1.54l27.07-13.55c.24-.12.45-.15.6-.11h0s0,0,0,0c.05.02.1.04.14.07l.89.67h-.81s-2.61,12.96-2.61,12.96c-.11.56-.68,1.25-1.26,1.54l-25.59,12.81-.83.77-.1.18c-.52.12-1.75-.48-1.75-.48l3-13.32Z" fill="#fff"/>
            <path d="m247.51,83.44c.11-.56.68-1.25,1.26-1.54l27.07-13.55c.24-.12.45-.15.6-.11h0s0,0,0,0c.05.02.1.04.14.07l.89.67h-.81s-2.61,12.96-2.61,12.96c-.11.56-.68,1.25-1.26,1.54l-25.59,12.81-.83.77-.1.18c-.52.12-1.75-.48-1.75-.48l3-13.32Z" fill="#fff"/>
            <path d="m276.7,69.06l-27.07,13.55c-.58.29-1.15.98-1.26,1.54l-2.64,13.1s0,.02,0,.03l-1.06,5.25c-.11.56.27.78.85.48l27.07-13.55c.58-.29,1.15-.98,1.26-1.54l2.64-13.1s0-.02,0-.03l1.06-5.25c.11-.56-.27-.78-.85-.48Z" fill="#5691bb"/>
            <path d="m260.87,86.68c-.03.95.87,1.26,2,.69,1.14-.57,2.08-1.81,2.11-2.76.03-.95-.87-1.26-2-.69-1.14.57-2.08,1.81-2.11,2.76Z" fill="#fff"/>
            <path d="m226.82,198.67s7.74,3.16,9.14,2.23c1.18-.78-4.54-4.52-4.54-4.52l-4.6,2.29Z" fill="#f1cfcd"/>
            <path d="m201.69,76.66c-.02-11.09,2.41-19.74,4.32-24.82.83-2.21,3.07-2.83,5.72-4.55.43-.28.26,2.28.74,2.64h0c2.91,2.19,4.44,6.06,3.88,9.78l-2.97,22.6,13.78,8.02s1.36,5.17-2.16,8.09c0,0-20.6-8.05-21.96-9.87s-1.36-11.88-1.36-11.88Z" fill="#7285b1"/>
            <path d="m228.71,94.09h0c-.28,1.62.82,3.18,2.44,3.46l5.65.96c1.62.28,3.18-.82,3.46-2.44h0c.28-1.62-.82-3.18-2.44-3.46l-5.65-.96c-1.62-.28-3.18.82-3.46,2.44Z" fill="#f1cfcd"/>
            <path d="m223.01,18.35c1.67-2.69,4.22-3.16,6.59-1.61,2.32-.94,5.12.44,7.19,3.96,2.88,4.89,2.59,11.68.79,15.95-.97,2.31-2.12,3.92-7.65,2.96-3.75-.72-5.86-1.82-7.98-5.42-2.88-4.89-1.39-11.91,1.05-15.83Z" fill="#f1cfcd"/>
            <path d="m236.11,22.59c-6.65,10.29-10.52,7.33-10.68,8.94,0,0-1.3,5.48-1.3,5.49-.67,3.19-3.73.68-6.85,1.71h0s-10.22-11.82,2.48-21.32c8.59-6.43,20.48-.1,19.19,8.36l-2.83-3.18Z" fill="#001e26"/>
            <ellipse cx="224.3" cy="31.84" rx="2.33" ry="2.56" transform="translate(81.26 207.52) rotate(-58.93)" fill="#f1cfcd"/>
          </g>
          <path d="m169.93,65.34c1.29.31,2.49-.12,3.65-.25,3.6-.41,6.33-.06,8.6,1.25.55.32-1.56,6.09-4.07,7.92-.12.09-.28-.06-.4-.1l-2.34-.74-6.34-2.12.91-5.94Z" fill="#db9669" fill-rule="evenodd"/>
          <path d="m172.04,65.35c2.3-.39,3.86-1.41,5.16-1.44,1.33-.03,3.25,1.04,5.67,1.29-.44,2.41-3.61.84-4.76,1.06-1.06.2-1.12,1.49-2.11,1.52-1.56.04-3.8-.71-3.96-2.42Z" fill="#db9669" fill-rule="evenodd"/>
          <path d="m146.02,70c10.22,1.77,15.3,1.25,25.63,2.26-1.14-3.93.98-7.46,2.56-7.84-8.74-1.82-19.33-4.73-28.36-4.69l.17,10.27Z" fill="#cee6f5" fill-rule="evenodd"/>
          <path d="m144.06,70.28c10.22,1.77,15.77,1.18,26.1,2.18-1.46-4.19.76-8.38,2.59-8.74-8.74-1.82-19.33-4.73-28.36-4.69l-.34,11.25Z" fill="#a7a9ac"/>
          <path d="m122.5,211.78c1.29-.16,2.33-.18,3.61-.66.33-.12.67-1.41.7-2.53.05-2.34-.16-2.14-1.13-5.85-.33-1.27-.6-2.48-1.05-3.96-.57-1.84-1.27-3.47-1.35-5.28l-6.86-.27-2.15-.1c-.64,1.87-1.23,3.32-1.17,4.49.06,1.22.2,2.41.38,3.94.79,6.86,6.65,10.51,9.01,10.21Z" fill="#111214" fill-rule="evenodd"/>
          <path d="m155.52,196.01c2.6.03,1.75-2.82-.44-4.38-4.6-3.26-7.76-5.41-9.91-8.41-1.07-1.51-1.26-2.84-2-5.43-3.86-.13-7.59-.35-11.44-.63-1.13,3.31-1.8,2.88-1.64,7.12.35,4.89,17.76,11.62,25.42,11.72Z" fill="#111214" fill-rule="evenodd"/>
          <g>
            <g>
              <path d="m128.85,107c-.43-3.49-.67-6.85-.55-9.89,3.12-1.25,6.4-2.43,9.56-3.81l-.23-.19c3.35-1.57,6.24-4.02,10.11-6.24,1.62,5.09,2.22,7.37,2.09,11.52-.16,5.4-.93,10.9-1.81,16.38-.56,8.39-1.32,17.15-1.86,22.88-1.39,14.62-1.22,29.04-2.09,43.63-2.1,1.56-10.55,3.15-13.53-1.02l-1.69-73.25Z" fill="#50546b"/>
              <path d="m115.75,96.67c.33-.68.72-1.23,1.17-1.64l9.04-.71,10.72-1.25c.71,3.51.97,8.1-.08,12.73-.03.13-.12.31-.24.53-.1.76-.24,1.52-.41,2.29-.16.7-1.88,2.67-3.12,4.32-1.11,11.25-3.27,26.88-4.53,34.86-2.28,14.5-.92,31.81-2.2,46.38-1.98,3.1-11.17,3.44-14.03-.42l3.67-97.09Z" fill="#50546b"/>
            </g>
            <g>
              <path d="m128.85,107c-.43-3.49-.67-6.85-.55-9.89,3.12-1.25,6.4-2.43,9.56-3.81l-.23-.19c3.35-1.57,6.24-4.02,10.11-6.24,1.62,5.09,2.22,7.37,2.09,11.52-.16,5.4-.93,10.9-1.81,16.38-.56,8.39-1.32,17.15-1.86,22.88-1.39,14.62-1.22,29.04-2.09,43.63-2.1,1.56-10.55,3.15-13.53-1.02l-1.69-73.25Z" fill="#50546b"/>
              <path d="m115.75,96.67c.33-.68.72-1.23,1.17-1.64l9.04-.71,10.72-1.25c.71,3.51.97,8.1-.08,12.73-.03.13-.12.31-.24.53-.1.76-.24,1.52-.41,2.29-.16.7-1.88,2.67-3.12,4.32-1.11,11.25-3.27,26.88-4.53,34.86-2.28,14.5-.92,31.81-2.2,46.38-1.98,3.1-11.17,3.44-14.03-.42l3.67-97.09Z" fill="#50546b"/>
            </g>
          </g>
          <path d="m140.61,26.4c3.61-.23,5.23.53,7.13,3.36,3.32,4.95,3.84,15.5,3.61,25.01-.13,5.38-.99,10.12-1.05,16.81-.08,8.02,2.36,22.14,1.97,30.62-.73,1.57-5.87,4.21-6.55,4.07.66-8.46.84-19.83.52-31.47-.32-11.3-1.11-22.86-3.22-31.44-3.1-12.59-8.43-13.95-7.89-15.65.11-.34,5.28-1.29,5.49-1.3Z" fill="#a7a9ac"/>
          <path d="m125.94,76.66c.14,1.95.19,3.73.15,5.37-5.19-4.73-10.06-10.78-14.61-17.32-2.33-6.56-4.44-13.13-4.4-17.79l18.86,29.75Z" fill="#11101a" fill-rule="evenodd"/>
          <path d="m147.84,87.24c-.04.25-.13.49-.3.71-3.32,4.62-24.11,11.58-28.47,11.22,3.45-30.03-28-55.6,5.7-65.5l9.7,5.34,3.47-.62.44-4.27c4.69,4.67,6.86,10.85,7.7,19.44,1.09,11.25-1.27,21.34,1.75,33.68Z" fill="#dadef0"/>
          <path d="m114.19,37.61c1.81-1,5.5-3.27,9.48-5.49-3.35,4.02,4.74,13.67,8.5,25.71,2.22,7.11,5.48,31.52-1.32,53.63-12.39,4.17-19.08-2.31-20.28-3.47,1.6-13.12,6.11-15.02,6.48-23.18.34-7.5-10.25-27.5-10.15-37.86.04-4.6,3.91-7.46,7.3-9.34Z" fill="#a7a9ac"/>
          <path d="m137.95,28.9c3.37,1.57,4.48,2.2,6.82,5.81l-2.05,1.42,2.85,1.2c1.02,10.45,2.1,22.07.85,32.66-.53-10.33-2.3-20.93-4.88-29.62-.99-3.33-2.36-4.76-4.54-8.03-.36-.54.32-3.75.95-3.45Z" fill="#c8b9c3"/>
          <path d="m123.69,30.83c-1.09,1.44-1.94,2.69-2.37,3.73-1.32,3.21-1.15,8.24.44,13.8l3.23-1.2-1.56,3.52c6.5,8.49,10.14,21.14,10.64,34.14,4.22-33.78-11.57-42.18-10.38-54Z" fill="#c8b9c3"/>
          <path d="m139.97,75.72c-.98-6.57-1.71-21.77-3.54-28.36.24-1.21.48-2.22.81-3.39-2.03-1.74-2.12-1.74-2.54-4.11,1.45-1.34,2.26-1.51,4.16-1.33.51.34.73,2.03,0,4.57.53.16,1.22.34,2.15.93,1.87,12.82,4.46,19.09,3.48,31.24l-1.29,2.84-3.22-2.38Z" fill="#3e4f5e" fill-rule="evenodd"/>
          <path d="m136.86,38.55c.24-.61.36-1.86.62-2.95.23-.98.59-1.8.81-2.3,1.33.17,1.92,4.2,3.05,6.57-1.75-1.22-2.51-1.33-4.48-1.32Z" fill="#e8f6ff" fill-rule="evenodd"/>
          <path d="m124.43,30.17c-.27,4.31,7.91,7.3,12.47,8.39-1.15,1.38-2.62,3.12-2.57,4.5-3.29-.9-8.87-2.45-11.13-6.66-1.55-2.88-.27-5.09,1.23-6.23Z" fill="#e8f6ff" fill-rule="evenodd"/>
          <path d="m137.75,34.73c.15-.42.32-.83.48-1.27.47-1.27.48-3.95,1.29-6.92l-11.71-5.1-2.51-1.33c.91,4.41.37,7.04-.88,10.17-.13,4.24,7.9,7.19,12.44,8.27.4-1.03.43-2.53.88-3.81Z" fill="#f1cfcd"/>
          <path d="m144.06,15.18c-.09-.49-.71-2.75-.83-3.22-1.47-5.46-5.09-9.76-11.77-9.86-3.44-.05-6.25,1.1-8.4,3.58-2.45,2.84-3.79,7.39-2.47,11.1.55,1.56,1.68,2.81,4.56,4.09,1.58,3.77,1.81,6.92,4.89,8.34,1.41.65,4.96,1.29,6.51,1.92,1.98.54,2.67.43,3.36.13,3.16-1.38,5.29-9.72,4.16-16.09Z" fill="#f1cfcd"/>
          <path d="m140.27,8.68c.74.03,1.62-.4,2.23,1.11-.44-2.48-1.19-2.71-2.72-2.94l.49,1.83Z" fill="#361d07" fill-rule="evenodd"/>
          <path d="m131.97,11.48c-4.68-.47-10.71-3.99-11.93-6.1-2.53,4.96-2.01,12.36,1.91,16.4,1.13,2.14,2.23,4.25,3.29,6.42.92-3.25,1.24-5.95,1.52-9.18l.2-.29c.27.56.94,1.95,1.19,2.52.29,0,.77-.43,1.19-.68-.82-4.32.34-7.5,2.63-9.1Z" fill="#361d07" fill-rule="evenodd"/>
          <path d="m131.35,11.77c4.92-.43,11.38-2.68,13.85-6.41-4.46.67-9.52-5.98-16.56-5.32-4.08.38-8.49,2.47-8.68,6.03,1.33,1.76,7.3,6.06,11.4,5.7Z" fill="#361d07" fill-rule="evenodd"/>
          <path d="m125.28,17.39c-2.64-.6-2.35,2.34-1.76,4.08.4,1.2,1.4,1,1.87,1.93.56,1.11,1.51,1.55,2.27,1.45,1.54-.2.35-2.41.07-3.3.02-1.52-.77-3.78-2.44-4.16Z" fill="#f1cfcd"/>
          <path d="m107.03,44.09c-2.66,7.27-3.05,22.11-2.46,31.78.3,4.92.88,8.74,4.81,9.86,3.72,1.07,6.97-2.74,7.72-6.63.89-4.61,1.5-10.29,2.77-20.01,1.35-10.37-9.29-24.72-12.85-15Z" fill="#a7a9ac"/>
          <g>
            <path d="m138.8,87.62l-1.48-2.25-.03-4.43c1.91-1.59,1.77-2.87,2.72-2.64,3.42.81,3.1,10.44-1.21,9.32Z" fill="#a7a9ac"/>
            <g>
              <path d="m138.3,78.78c4.89.45,11.02-2.01,13.77-.23,2.38,1.54,1.35,5.1.06,6.82-1.05,1.4-5.44,1.65-8.28,2.01-2.52.31-4.32-1.77-6.1-1.41-1.65-2.09-.24-4.96.55-7.18Z" fill="#f1cfcd"/>
              <path d="m150.98,78.16c2.32,0,6.05-.18,8.36-.22,1.63-.03,1.06,2.47-.42,2.64-1.45.17-5.27.5-5.28.5-1.51-.1-3.06-1.1-2.67-2.92Z" fill="#f1cfcd"/>
            </g>
            <path d="m105.61,79.45c1.09,2.52,1.14,4.38,3.78,5.81,1.13.61,2.62.8,4.31.98,6.48.7,15.9,1.57,25.31,1.44-.51-.85-1.09-3.21-.96-5.59.08-1.49.57-2.92,1.92-3.8-7.69-1.56-16.43-1.52-23.83-2.53-1.77-.24-1.36-.08-2.98-.12l-7.55,3.8Z" fill="#a7a9ac"/>
          </g>
          <polygon points="188.15 41.25 172.85 49.52 153.77 85.96 157.73 88.03 170 76.47 188.15 41.25" fill="#d2d6d9" fill-rule="evenodd"/>
          <polygon points="188.15 41.25 172.85 49.52 177.3 52.05 192.13 43.59 188.15 41.25" fill="#e3e6e8" fill-rule="evenodd"/>
          <polygon points="191.48 42.95 176.18 51.22 156.79 88.05 158.44 88.95 173.33 78.18 191.48 42.95" fill="#2f3133" fill-rule="evenodd"/>
          <path d="m179.43,66.54c2.62-.48,2.62-1.12,2.77-.23.23,1.3-1.58,6.11-4.09,7.94-.01.01-1.75.46-2.64.43-.75-.03-.7-.43-.3-1.47l1.79-4.64c.59-1.39.85-1.74,2.46-2.03Z" fill="#f1cfcd"/>
          <path d="m172.58,49.39c4.28-2.09,7.67-1.74,8.64.65,1.77,4.35-1.95,13.69-3.97,18.91l15.31-8.08c4.54-11.82,6.92-24.32-5.1-19.56l-14.88,8.08Z" fill="#f2f4f5" fill-rule="evenodd"/>
        </g>
      </g>
    </g>
  </g>
</svg>