<?xml version="1.0" encoding="UTF-8"?>
<svg xmlns="http://www.w3.org/2000/svg" viewBox="0 0 457.45 203.51">
  <g isolation="isolate">
    <g id="_レイヤー_2" data-name="レイヤー 2">
      <g id="_デザイン" data-name="デザイン">
        <g>
          <g>
            <path d="m30.71,198.09h-1.81v-5.49c0-1.36.01-2.55.03-3.84h-.2c-.28,1.25-.53,2.37-.9,3.7l-1.47,5.63h-2.21l-1.43-5.56c-.34-1.26-.6-2.44-.92-3.77h-.2c.03,1.26.04,2.52.04,3.87v5.46h-1.67v-10.87h3.07l1.37,5.55c.28,1.13.56,2.4.78,3.59h.2c.29-1.19.52-2.31.84-3.56l1.39-5.57h3.08v10.87Z"/>
            <path d="m40.47,188.72h-5.25v2.93h3.98v1.5h-3.98v4.94h-1.91v-10.87h7.16v1.5Z"/>
            <path d="m46.08,187.22c2.72,0,3.71.99,3.71,2.7,0,1.25-.84,2.14-2.16,2.37v.1c1.61.27,2.49,1.22,2.49,2.62,0,1.92-1.37,3.08-3.85,3.08h-4.08v-10.87h3.88Zm-2.03,4.47h1.65c1.48,0,2.21-.62,2.21-1.58s-.53-1.47-2.05-1.47h-1.82v3.05Zm0,4.99h2.02c1.44,0,2.16-.67,2.16-1.81s-.88-1.76-2.4-1.76h-1.78v3.57Z"/>
            <path d="m62.86,198.09h-1.81v-5.49c0-1.36.01-2.55.03-3.84h-.2c-.28,1.25-.53,2.37-.9,3.7l-1.47,5.63h-2.21l-1.43-5.56c-.34-1.26-.6-2.44-.92-3.77h-.2c.03,1.26.04,2.52.04,3.87v5.46h-1.67v-10.87h3.07l1.37,5.55c.28,1.13.56,2.4.78,3.59h.2c.29-1.19.52-2.31.84-3.56l1.39-5.57h3.08v10.87Z"/>
          </g>
          <polyline points="5.48 203.01 .5 203.01 .5 182.25 5.48 182.25" fill="none" stroke="#000" stroke-miterlimit="10"/>
          <polyline points="78.35 203.01 83.33 203.01 83.33 182.25 78.35 182.25" fill="none" stroke="#000" stroke-miterlimit="10"/>
        </g>
        <g>
          <g>
            <path d="m239.02,192.09c-.55.78-1.12,1.4-1.98,2.16-.71.66-1.79,1.48-2.65,1.96-.13.08-.22.13-.32.13-.08,0-.17-.04-.24-.14-.28-.34-.76-.67-1.15-.83,1.43-.78,2.31-1.37,3.26-2.21.83-.73,1.5-1.4,2.06-2.17h-2.45c-.73.01-1.51.04-2.24.08-.13.01-.18-.08-.2-.24-.06-.27-.08-.84-.11-1.36.84.06,1.67.07,2.51.07h3.33l-.06-1.25c-.03-.7-.1-1.2-.22-1.65.76.03,1.33.07,1.77.15.14.03.18.08.18.17,0,.06-.03.13-.06.21-.04.17-.1.39-.06,1.29l.04,1.06h1.22c.98,0,1.68-.03,2.72-.07.14,0,.21.07.21.17.01.39.01.83,0,1.22,0,.11-.06.2-.2.2-1.02-.04-1.82-.07-2.69-.07h-1.13l.25,5.27c.04.74-.21,1.2-.67,1.48-.48.28-1.29.49-1.93.49-.27,0-.36-.06-.43-.24-.22-.52-.46-.84-.98-1.25,1.05-.01,1.5-.04,1.97-.14.32-.07.43-.21.41-.83l-.17-3.67Z"/>
            <path d="m249.04,189.59c-.91,0-1.71.04-2.31.07-.18.01-.24-.08-.27-.28-.04-.28-.1-1.01-.13-1.41.63.07,1.37.1,2.69.1h5c.42,0,.57-.03.77-.14.07-.04.14-.06.21-.06.08,0,.17.03.27.07.38.24.76.59,1.02.92.07.08.1.15.1.24,0,.13-.07.24-.2.35-.13.13-.2.27-.32.55-.69,1.65-1.54,3.19-2.72,4.55-1.2,1.37-2.56,2.54-3.98,3.33-.13.08-.25.13-.38.13-.11,0-.24-.04-.35-.15-.32-.31-.78-.56-1.3-.77,2.04-1.04,3.29-2,4.58-3.5,1.09-1.25,1.81-2.44,2.37-3.99h-5.06Z"/>
            <path d="m263.25,195.91c0,.67.03,1.57.04,2.28.01.17-.07.24-.24.25-.36.03-.77.03-1.13,0-.15-.01-.24-.08-.22-.25.01-.8.04-1.5.04-2.24v-2.4c-.95.8-2.19,1.65-2.9,2.02-.06.04-.13.06-.18.06-.1,0-.21-.06-.28-.14-.25-.29-.63-.57-1.01-.7,2.2-1.15,4.1-2.62,5.81-4.55.32-.38.56-.73.74-1.2.48.28,1.06.64,1.29.84.1.08.15.18.15.25,0,.1-.07.2-.21.27-.18.1-.5.43-.63.57-.36.42-.78.88-1.27,1.36v3.59Z"/>
            <path d="m274.82,188.01c.5,0,.76-.01.97-.13.06-.04.1-.06.15-.06.08,0,.15.06.24.11.32.25.64.62.91.98.04.07.07.13.07.18,0,.08-.06.18-.18.28-.18.15-.36.36-.52.62-.57.98-1.12,1.76-1.79,2.62,1.34.99,2.59,2.09,3.88,3.39.07.07.11.14.11.2s-.03.13-.1.21c-.27.32-.59.66-.94.95-.06.06-.11.08-.17.08-.07,0-.13-.04-.2-.11-1.18-1.37-2.38-2.48-3.64-3.47-1.58,1.65-3.18,2.84-4.71,3.7-.13.06-.22.11-.32.11-.08,0-.17-.04-.24-.13-.31-.38-.71-.66-1.18-.91,2.19-1.11,3.49-2.1,4.93-3.57,1.01-1.05,1.78-2.05,2.63-3.52h-3.61c-.73.01-1.46.04-2.21.1-.11.01-.15-.08-.18-.24-.07-.29-.13-.97-.13-1.46.76.06,1.46.06,2.37.06h3.85Z"/>
            <path d="m283.36,191.37c1.23-.41,2.3-.81,3.42-1.36.76-.36,1.11-.59,1.5-1.01.49.41.95.98,1.16,1.26.07.08.11.17.11.25,0,.11-.07.21-.24.25-.39.1-.78.29-1.16.46-1.39.63-2.96,1.19-4.8,1.74v1.86c0,.66.1.88.46.99.36.1.91.15,1.77.15,1.32,0,2.49-.1,3.95-.32.21-.03.24.03.25.2.04.39.08.92.08,1.22,0,.18-.08.24-.29.25-1.58.2-2.4.25-4.16.25-1.25,0-2.07-.13-2.66-.38-.7-.29-.99-.95-.99-2.1v-5.17c0-1.33-.03-1.86-.14-2.56.66.07,1.32.15,1.77.28.17.04.22.13.22.22s-.04.2-.1.29c-.11.22-.14.6-.14,1.26v1.95Zm5.86-4.05c.07-.06.13-.04.21.03.43.34.94.9,1.33,1.5.06.08.06.15-.04.22l-.59.43c-.1.07-.17.06-.24-.04-.42-.64-.87-1.18-1.41-1.62l.74-.52Zm1.25-.91c.08-.06.13-.04.21.03.52.39,1.02.95,1.33,1.44.06.08.07.17-.04.25l-.56.43c-.11.08-.18.04-.24-.04-.38-.6-.83-1.13-1.4-1.61l.7-.5Z"/>
            <path d="m296.68,188.86c.24.07.27.24.18.43-.15.31-.17.62-.17.95-.03,1.75-.29,3.08-.76,4.12-.36.85-.98,1.76-1.99,2.63-.14.11-.25.18-.36.18-.08,0-.17-.04-.27-.11-.35-.24-.69-.41-1.19-.59,1.09-.83,1.83-1.68,2.33-2.79.39-.95.57-1.72.59-3.96,0-.53-.03-.76-.14-1.18.8.1,1.44.2,1.78.31Zm3.11,5.93c.69-.36,1.33-.8,1.99-1.3.84-.64,1.67-1.39,2.45-2.38.06.49.2.95.43,1.41.04.1.08.17.08.24,0,.1-.06.2-.21.35-.7.71-1.34,1.29-2.07,1.83-.73.56-1.51,1.11-2.49,1.68-.25.17-.28.2-.41.29-.08.07-.18.11-.28.11-.08,0-.18-.04-.29-.11-.31-.21-.63-.57-.84-.85-.08-.13-.13-.21-.13-.29,0-.07.01-.13.06-.21.1-.18.08-.35.08-1.06v-4.38c0-1.22,0-1.79-.14-2.44.56.07,1.33.17,1.75.29.18.04.25.13.25.24,0,.08-.04.21-.11.35-.13.27-.13.55-.13,1.55v4.68Z"/>
            <path d="m313.47,195.73c0,.15-.08.22-.27.25s-.6.07-.99.07c-.13,0-.18-.08-.18-.22,0-.5,0-1.2.01-1.71-1.25.64-1.69,1.19-1.69,1.86,0,.59.48.97,1.95.97,1.29,0,2.41-.13,3.49-.28.13-.01.18.03.2.15.07.32.13.81.13,1.15.01.17-.04.27-.15.27-1.21.15-2.12.18-3.47.18-2.3,0-3.52-.69-3.52-2.31,0-1.34.84-2.33,2.96-3.42-.04-.71-.21-.99-.84-.97-.66.03-1.29.45-1.93,1.01-.6.59-.95.99-1.4,1.53-.07.08-.11.13-.17.13-.04,0-.1-.04-.15-.1-.2-.2-.62-.63-.8-.92-.04-.06-.06-.1-.06-.13,0-.06.03-.1.1-.15,1.08-.97,2.12-2.07,2.93-3.47-.66.03-1.42.04-2.24.04-.13,0-.17-.07-.2-.22-.04-.22-.1-.74-.14-1.16,1.06.06,2.16.04,3.22-.01.15-.38.28-.71.42-1.2.06-.24.1-.48.1-.85.62.1,1.23.25,1.6.39.11.04.17.14.17.24,0,.07-.03.15-.1.21-.08.07-.17.2-.24.34-.08.2-.15.38-.32.76.85-.1,1.71-.24,2.55-.43.15-.03.2.01.22.14.07.28.13.6.14,1.01.01.14-.04.2-.24.22-1.05.15-2.25.31-3.28.42-.32.52-.63,1.04-1.05,1.55v.03c.46-.29,1.04-.43,1.41-.43.92,0,1.57.42,1.71,1.51.55-.25,1.34-.62,2.06-.98.27-.14.71-.39,1.06-.76.46.49.83.98.98,1.23.08.13.11.22.11.31,0,.11-.07.17-.21.2-.29.04-.57.11-.85.21-.91.32-1.82.63-3.01,1.12v2.26Z"/>
            <path d="m324.59,187.8c0-.78-.03-1.29-.11-1.79.52.01,1.08.04,1.55.1.13.01.24.07.24.17s-.03.2-.07.28c-.07.17-.11.48-.11,1.13v1.05h2.72c1.34,0,1.81-.03,1.91-.03.14,0,.15.01.15.15,0,.08-.03.52-.03,1.74v1.62c0,2.24.03,2.65.03,2.73,0,.14-.01.15-.15.15h-1.19c-.14,0-.15-.01-.15-.15v-.59h-3.28v1.72c0,1.67.03,2.52.03,2.59,0,.14-.01.15-.15.15h-1.25c-.14,0-.15-.01-.15-.15,0-.08.03-.91.03-2.56v-1.75h-3.1v.64c0,.15-.01.17-.15.17h-1.19c-.14,0-.15-.01-.15-.17,0-.08.03-.5.03-2.75v-1.44c0-1.43-.03-1.88-.03-1.96,0-.14.01-.15.15-.15.1,0,.56.03,1.9.03h2.54v-.94Zm-3.1,5.21h3.1v-2.91h-3.1v2.91Zm4.59-2.91v2.91h3.28v-2.91h-3.28Z"/>
            <path d="m335.69,191.41c.2.06.22.08.21.22-.24,1.79-.62,3.14-1.29,4.76-.06.13-.1.17-.29.08l-1.02-.46c-.2-.1-.21-.15-.15-.27.69-1.44,1.06-2.8,1.3-4.5.03-.17.04-.17.25-.1l.99.25Zm2.69,4.85c0,.32.08.52.27.6.17.08.5.14,1.22.14s1.11-.07,1.33-.29c.31-.27.41-.64.41-2.27.34.2.74.34,1.16.45q.36.1.35.46c-.06,1.58-.27,2.17-.76,2.56-.53.43-1.26.59-2.61.59-1.42,0-1.99-.11-2.33-.34-.38-.24-.57-.57-.57-1.39v-5.38c0-.73-.01-1.13-.08-1.6.5.01,1.02.07,1.48.14.22.03.31.11.31.21s-.03.15-.08.25c-.07.13-.1.31-.1.99v4.86Zm-.69-9.93c.11-.15.14-.17.28-.13,1.25.43,2.56,1.02,3.81,1.82.14.08.14.11.04.28l-.59,1.01c-.11.2-.14.21-.27.13-1.19-.83-2.59-1.55-3.82-1.99-.08-.03-.11-.04-.11-.08s.03-.08.07-.17l.59-.87Zm6.04,4.48c.18-.07.21-.08.28.06.83,1.37,1.48,2.93,1.89,4.29.04.15.03.18-.15.28l-1.06.52c-.2.1-.24.1-.28-.06-.38-1.51-.99-3.04-1.81-4.41-.07-.13-.04-.18.14-.25l.99-.42Z"/>
            <path d="m351.37,186.8c.17.04.25.11.25.22,0,.2-.1.39-.1.59,0,.28.04.62.07.94.13.98.27,1.68.45,2.41.7-.38,1.2-.64,1.99-1.06.41-.24.74-.48.97-.76.45.46.81.95,1.02,1.32.06.08.1.2.1.29,0,.14-.08.25-.28.28-.42.07-.9.24-1.34.42-1.2.49-2.33,1.01-3.29,1.64-1.22.8-1.65,1.46-1.65,2.11,0,.83.62,1.18,2.23,1.18,1.77,0,3.19-.13,4.27-.32.15-.03.22,0,.25.17.07.38.11.88.14,1.3.01.15-.08.22-.25.24-1.27.17-2.4.21-4.17.21-2.65,0-4.05-.87-4.05-2.69,0-1.55,1.02-2.58,2.66-3.61-.34-1.08-.59-2.34-.73-3.42-.1-.74-.2-1.23-.36-1.62.67,0,1.32.04,1.83.17Z"/>
            <path d="m361.34,186.94c.24.06.34.13.34.27,0,.15-.08.32-.14.46-.07.2-.13.63-.2,1.71-.14,2.16-.21,3.59-.21,5.42,0,1.41.17,1.74,1.29,1.74,1.25,0,3.19-.76,4.9-2.58.06.53.18.99.32,1.33.07.15.11.25.11.34,0,.13-.06.24-.28.43-1.51,1.39-3.49,2.1-5.31,2.1s-2.63-.71-2.63-2.86c0-2.35.13-4.37.2-6.05.03-.83.07-1.72-.14-2.56.64.07,1.32.14,1.75.25Z"/>
            <path d="m376.21,188.51c.15-.04.21.03.22.14.04.31.08.71.1,1.01.01.18-.03.22-.21.27-.87.24-1.58.39-2.44.53-.95,3.11-1.67,5.25-2.56,7.58-.07.2-.15.18-.31.14-.14-.06-.83-.35-1.12-.52-.11-.07-.15-.18-.11-.28,1.06-2.45,1.74-4.3,2.42-6.64-.81.08-1.79.15-2.45.15-.21,0-.27-.04-.29-.22-.06-.29-.13-.77-.2-1.27.29.04.46.04,1.04.04.7,0,1.46-.04,2.27-.14.14-.56.25-1.18.35-1.75.06-.42.08-.84.08-1.29.74.11,1.32.21,1.76.39.11.04.15.14.15.22,0,.06,0,.13-.07.22-.11.2-.22.34-.29.56-.14.5-.24.98-.34,1.33.55-.1,1.3-.28,1.99-.48Zm-.55,6.7c.14,0,.2.06.21.2.11,1.02.8,1.32,2.14,1.32.78,0,1.79-.13,2.35-.2.11-.01.15.01.17.13.06.36.11.84.11,1.22.01.17,0,.21-.22.22-.48.07-1.39.15-1.9.15-1.83,0-2.79-.25-3.42-.91-.45-.45-.6-1.11-.63-1.92.43-.11,1.01-.21,1.19-.21Zm-.15-3.71c0-.2.04-.24.25-.28.88-.18,1.92-.32,2.73-.32.55,0,1.15.06,1.64.14.2.03.24.04.24.21.03.35.03.74.01,1.12,0,.24-.07.29-.27.25-.49-.1-1.13-.17-1.74-.17-.84,0-1.91.14-2.82.32-.03-.49-.06-.99-.06-1.27Z"/>
            <path d="m389.09,194.92h2c.94,0,1.88-.03,2.83-.06.15-.01.22.06.22.22.01.36.01.76,0,1.12,0,.18-.04.25-.21.25-.67-.03-1.92-.06-2.83-.06h-5.63c-.57,0-1.48.04-2.58.06-.22.01-.25-.04-.29-.28-.06-.31-.1-.81-.1-1.32,1.01.06,2.07.07,2.97.07h1.91v-4.79h-1.09c-1.01,0-1.6.03-2.17.06-.17.01-.2-.08-.24-.29-.06-.28-.11-.83-.11-1.3.7.07,1.26.06,2.42.06h3.96c.85,0,1.62,0,2.45-.04.14-.01.18.07.18.22.01.35.01.74,0,1.09-.01.18-.04.27-.2.27-.94-.04-1.62-.06-2.41-.06h-1.09v4.78Z"/>
            <path d="m397.05,188.98c0-.97-.04-1.5-.15-2.05.59.07,1.33.15,1.74.29.17.04.24.13.24.22,0,.07-.03.14-.06.21-.13.27-.15.62-.15,1.33v2.83c0,.73.03,1.27.04,1.77,0,.21-.08.28-.31.28h-1.12c-.2,0-.28-.07-.27-.24,0-.49.04-1.3.04-1.91v-2.75Zm6.6,2.62c0,2.07-.31,3.46-1.13,4.57-.69.91-1.91,1.76-3.08,2.2-.11.04-.21.07-.29.07-.11,0-.21-.04-.34-.17-.34-.34-.7-.6-1.19-.85,1.5-.46,2.67-1.12,3.42-2.05.64-.8.94-1.96.94-3.74v-2.65c0-1.2-.03-1.65-.15-2.28.67.06,1.34.15,1.82.31.14.04.2.13.2.24,0,.07-.01.15-.06.22-.13.29-.13.66-.13,1.53v2.61Z"/>
            <path d="m409.6,189.16c-.8,0-1.65.06-2.48.11-.17.01-.22-.08-.25-.21-.11-.39-.2-1.09-.25-1.51.95.07,1.72.1,2.84.1h6.01c.59,0,.83-.03.97-.08.07-.03.2-.1.27-.1.11,0,.22.08.32.2.31.27.57.56.84.88.07.08.11.17.11.25,0,.11-.07.21-.2.29-.15.11-.27.25-.38.41-.66.99-1.53,1.96-2.46,2.7-.08.08-.18.13-.29.13s-.24-.06-.34-.14c-.35-.28-.7-.43-1.16-.57,1.12-.84,1.81-1.44,2.51-2.45h-6.05Zm.78,5.46c.53-.99.69-1.95.69-3.31,0-.52-.03-.84-.14-1.32.69.07,1.42.17,1.81.27.18.04.24.14.24.27,0,.08-.03.17-.07.25-.1.2-.11.34-.13.57-.04,1.36-.18,2.61-.83,3.85-.55,1.05-1.39,2.05-2.55,2.79-.13.08-.25.14-.39.14-.1,0-.2-.04-.28-.13-.34-.29-.74-.52-1.27-.71,1.53-.8,2.33-1.55,2.93-2.68Z"/>
          </g>
          <polyline points="222.44 202.69 217.46 202.69 217.46 181.94 222.44 181.94" fill="none" stroke="#000" stroke-miterlimit="10"/>
          <polyline points="427.66 202.69 432.65 202.69 432.65 181.94 427.66 181.94" fill="none" stroke="#000" stroke-miterlimit="10"/>
        </g>
        <g>
          <path d="m127.35,53.77h2c.94,0,1.88-.03,2.83-.06.15-.01.22.06.22.22.01.36.01.76,0,1.12,0,.18-.04.25-.21.25-.67-.03-1.92-.06-2.83-.06h-5.63c-.57,0-1.48.04-2.58.06-.22.01-.25-.04-.29-.28-.06-.31-.1-.81-.1-1.32,1.01.06,2.07.07,2.97.07h1.91v-4.79h-1.09c-1.01,0-1.6.03-2.17.06-.17.01-.2-.08-.24-.29-.06-.28-.11-.83-.11-1.3.7.07,1.26.06,2.42.06h3.96c.85,0,1.62,0,2.45-.04.14-.01.18.07.18.22.01.35.01.74,0,1.09-.01.18-.04.27-.2.27-.94-.04-1.62-.06-2.41-.06h-1.09v4.78Z" fill="#50a76a"/>
          <path d="m135.31,47.83c0-.97-.04-1.5-.15-2.05.59.07,1.33.15,1.74.29.17.04.24.13.24.22,0,.07-.03.14-.06.21-.13.27-.15.62-.15,1.33v2.83c0,.73.03,1.27.04,1.77,0,.21-.08.28-.31.28h-1.12c-.2,0-.28-.07-.27-.24,0-.49.04-1.3.04-1.91v-2.75Zm6.6,2.62c0,2.07-.31,3.46-1.13,4.57-.69.91-1.91,1.76-3.08,2.2-.11.04-.21.07-.29.07-.11,0-.21-.04-.34-.17-.34-.34-.7-.6-1.19-.85,1.5-.46,2.68-1.12,3.42-2.05.64-.8.94-1.96.94-3.74v-2.65c0-1.2-.03-1.65-.15-2.28.67.06,1.34.15,1.82.31.14.04.2.13.2.24,0,.07-.01.15-.06.22-.13.29-.13.66-.13,1.53v2.61Z" fill="#50a76a"/>
          <path d="m147.85,48.01c-.8,0-1.65.06-2.48.11-.17.01-.22-.08-.25-.21-.11-.39-.2-1.09-.25-1.51.95.07,1.72.1,2.84.1h6.01c.59,0,.83-.03.97-.08.07-.03.2-.1.27-.1.11,0,.22.08.32.2.31.27.57.56.84.88.07.08.11.17.11.25,0,.11-.07.21-.2.29-.15.11-.27.25-.38.41-.66.99-1.53,1.96-2.47,2.7-.08.08-.18.13-.29.13s-.24-.06-.34-.14c-.35-.28-.7-.43-1.16-.57,1.12-.84,1.81-1.44,2.51-2.45h-6.05Zm.78,5.46c.53-.99.69-1.95.69-3.31,0-.52-.03-.84-.14-1.32.69.07,1.42.17,1.81.27.18.04.24.14.24.27,0,.08-.03.17-.07.25-.1.2-.11.34-.13.57-.04,1.36-.18,2.61-.83,3.85-.55,1.05-1.39,2.05-2.55,2.79-.13.08-.25.14-.39.14-.1,0-.2-.04-.28-.13-.34-.29-.74-.52-1.27-.71,1.53-.8,2.33-1.55,2.93-2.68Z" fill="#50a76a"/>
          <path d="m158.91,50.76c.46-.36,1.47-1.23,2.51-2.17.46-.42.81-.59,1.22-.59.48,0,.74.13,1.22.52,1.05.84,1.65,1.4,3.03,2.41,1.25.9,2.21,1.44,3.31,2.06.14.06.21.17.14.29-.15.42-.42.95-.69,1.32-.07.1-.13.14-.18.14s-.11-.01-.2-.07c-.67-.39-2.2-1.51-3.03-2.16-1.01-.76-2.02-1.65-2.94-2.48-.27-.25-.45-.32-.62-.32-.15,0-.29.13-.48.29-.69.69-1.69,1.65-2.35,2.31-.28.29-.39.43-.5.62-.07.11-.15.17-.25.17s-.18-.04-.27-.13c-.29-.29-.81-.97-1.15-1.46.42-.17.77-.39,1.23-.76Z" fill="#50a76a"/>
          <path d="m178.74,48.01c-.32,2.38-.91,4.57-1.75,6.04-.6,1.05-1.33,1.61-2.38,1.61-1.23,0-2.48-1.32-2.48-3.6,0-1.34.57-2.63,1.58-3.64,1.18-1.18,2.66-1.79,4.55-1.79,3.36,0,5.34,2.07,5.34,4.86,0,2.61-1.47,4.24-4.31,5.1-.29.08-.42.03-.6-.25-.15-.24-.45-.56-.98-.88,2.37-.56,4.23-1.54,4.23-4.19,0-1.67-1.26-3.25-3.14-3.25h-.06Zm-4.02,1.36c-.67.76-1.09,1.7-1.09,2.59,0,1.29.52,2,.95,2,.36,0,.67-.18,1.05-.85.62-1.13,1.25-3.15,1.48-5.01-.98.2-1.77.59-2.4,1.27Z" fill="#50a76a"/>
          <path d="m126.15,72.49c0-.5,0-1.13.01-1.74-.21.31-.45.6-.7.91-.11.13-.2.2-.25.2-.08,0-.13-.08-.15-.24-.08-.48-.25-.98-.42-1.27,1.08-1.26,1.83-2.8,2.4-4.51.1-.34.18-.66.22-1.01.46.14.9.28,1.29.48.14.06.22.13.22.25,0,.1-.07.17-.15.25-.1.08-.15.21-.28.56-.25.71-.5,1.37-.8,2v7.09c0,1.36.03,2.04.03,2.11,0,.14-.01.15-.15.15h-1.13c-.14,0-.15-.01-.15-.15,0-.08.03-.76.03-2.11v-2.97Zm4.59-5.29c-1.37,0-1.83.03-1.92.03-.14,0-.15-.01-.15-.15v-1.04c0-.15.01-.17.15-.17.08,0,.55.03,1.92.03h4.96c1.37,0,1.83-.03,1.92-.03.14,0,.15.01.15.17v1.04c0,.14-.01.15-.15.15-.08,0-.55-.03-1.92-.03h-.9v2.16h.43c1.36,0,1.85-.03,1.95-.03.14,0,.15.01.15.15,0,.08-.03.63-.03,2.3v2.44c0,2.47.03,2.98.03,3.07,0,.14-.01.15-.15.15h-1.09c-.14,0-.15-.01-.15-.15v-.59h-5.87v.64c0,.14-.01.15-.15.15h-1.08c-.14,0-.15-.01-.15-.15,0-.08.03-.6.03-3.08v-2.21c0-1.93-.03-2.47-.03-2.56,0-.14.01-.15.15-.15.08,0,.56.03,1.92.03h.36v-2.16h-.38Zm.38,8.25v-4.86h-1.05v4.86h1.05Zm2.38-6.09v-2.16h-1.08v2.16h1.08Zm0,6.09v-4.86h-1.08v4.86h1.08Zm1.3-4.86v4.86h1.13v-4.86h-1.13Z" fill="#50a76a"/>
          <path d="m140.25,72.37c0-.53,0-1.2.01-1.85-.25.34-.52.67-.8.99-.11.13-.18.2-.25.2-.06,0-.11-.08-.15-.25-.11-.42-.28-.9-.45-1.18,1.12-1.25,1.96-2.75,2.55-4.45.11-.34.2-.64.24-.98.45.11.87.22,1.29.39.15.06.22.1.22.21,0,.1-.04.15-.14.25-.1.08-.17.21-.29.57-.25.69-.53,1.34-.83,1.96v7.17c0,1.37.03,2.06.03,2.13,0,.14-.01.15-.15.15h-1.16c-.13,0-.14-.01-.14-.15,0-.08.03-.76.03-2.13v-3.04Zm2.51-1.82c0-.85-.03-1.29-.1-1.82.53.01.94.04,1.44.1.14.01.24.1.24.18,0,.1-.06.18-.1.31-.06.15-.08.41-.08,1.22v5.21h5.6c1.32,0,1.75-.03,1.83-.03.14,0,.15.01.15.17v.99c0,.14-.01.15-.15.15-.08,0-.52-.03-1.83-.03h-5.6v.5c0,.14-.01.15-.15.15h-1.12c-.14,0-.15-.01-.15-.15,0-.08.03-.52.03-1.48v-5.48Zm2.41-3.04c-1.37,0-1.83.03-1.92.03-.14,0-.14-.01-.14-.17v-.95c0-.13,0-.14.14-.14.08,0,.55.03,1.92.03h1.67l.06-.41c.04-.38.07-.73.06-.99.49.03.97.07,1.41.13.14,0,.21.08.21.17,0,.07-.04.15-.1.22-.07.1-.13.21-.15.41-.03.15-.06.32-.07.48h1.37c1.37,0,1.82-.03,1.91-.03.14,0,.15.01.15.14v.95c0,.15-.01.17-.15.17-.08,0-.53-.03-1.91-.03h-1.58c-.06.35-.14.69-.21,1.02h1.15c1.11,0,1.49-.03,1.57-.03.15,0,.17.01.17.15,0,.08-.03.53-.03,1.53v3.15c0,.99.03,1.43.03,1.51,0,.14-.01.15-.17.15-.08,0-.46-.03-1.57-.03h-2.07c-1.11,0-1.48.03-1.58.03-.14,0-.15-.01-.15-.15,0-.1.03-.52.03-1.51v-3.15c0-.99-.03-1.43-.03-1.53,0-.14.01-.15.15-.15.08,0,.38.03,1.12.03.08-.36.14-.7.21-1.02h-1.48Zm1.36,2.84h2.82v-.8h-2.82v.8Zm2.82,1.78v-.81h-2.82v.81h2.82Zm0,.98h-2.82v.83h2.82v-.83Z" fill="#50a76a"/>
          <path d="m155.97,73.1c0,1.34.04,2.1.04,2.8,0,.77-.11,1.15-.45,1.39-.31.22-.66.29-1.54.31q-.43.01-.55-.42c-.08-.39-.21-.76-.34-1.01.34.04.66.04,1.02.04s.43-.13.43-.53v-2.76c-.21.07-.41.14-.6.2-.25.08-.41.17-.49.24-.07.06-.15.08-.22.08-.08,0-.14-.06-.17-.17-.1-.38-.18-.87-.24-1.34.41-.06.78-.13,1.27-.27l.45-.13v-2.62h-.18c-.95,0-1.23.03-1.32.03-.14,0-.15-.01-.15-.15v-1.02c0-.14.01-.15.15-.15.08,0,.36.03,1.32.03h.18v-.74c0-.9-.01-1.34-.1-1.99.52.01.94.04,1.43.1.13.01.22.07.22.15,0,.11-.06.2-.1.29-.08.17-.08.46-.08,1.41v.77c.83,0,1.11-.03,1.19-.03.14,0,.15.01.15.15v1.02c0,.14-.01.15-.15.15-.08,0-.36-.03-1.19-.03v2.17c.39-.15.8-.31,1.2-.5-.03.28-.04.59-.06.91,0,.46-.01.43-.42.62l-.73.32v.67Zm3.5-1.02c-1.33,0-1.81.03-1.89.03-.14,0-.15-.01-.15-.14v-.95c0-.15.01-.17.15-.17.08,0,.56.03,1.89.03h4.12c1.34,0,1.81-.03,1.89-.03.15,0,.17.01.17.17v.95c0,.13-.01.14-.17.14-.08,0-.55-.03-1.89-.03h-1.51v1.33h1.25c.98,0,1.33-.03,1.43-.03.14,0,.15.01.15.15v.91c0,.14-.01.15-.15.15-.1,0-.45-.03-1.43-.03h-1.25v1.47c.59.1,1.26.13,2.03.14.64,0,1.23-.01,1.88-.06-.11.24-.2.55-.25.9-.06.46-.11.48-.52.48h-.95c-2.62-.04-4.31-.48-5.41-2.02-.32.69-.74,1.3-1.33,1.91-.13.13-.21.2-.28.2-.1,0-.18-.08-.32-.25-.22-.28-.49-.5-.73-.64,1.27-.97,1.75-2.19,2.03-3.39.07-.31.1-.56.11-.8.45.1.76.17,1.15.28.18.06.27.1.27.21,0,.1-.04.15-.11.24-.06.07-.08.17-.14.36-.07.24-.13.48-.2.7.36.63.83,1.06,1.4,1.34v-3.56h-1.23Zm3.26-6.74c1.22,0,1.62-.03,1.71-.03.14,0,.15.01.15.17,0,.08-.03.43-.03,1.27v1.95c0,.83.03,1.19.03,1.27,0,.14-.01.15-.15.15-.08,0-.49-.03-1.71-.03h-2.73c-1.23,0-1.64.03-1.72.03-.14,0-.15-.01-.15-.15,0-.1.03-.45.03-1.27v-1.95c0-.84-.03-1.19-.03-1.27,0-.15.01-.17.15-.17.08,0,.49.03,1.72.03h2.73Zm-3.22,1.08v.81h3.68v-.81h-3.68Zm3.68,1.81h-3.68v.83h3.68v-.83Z" fill="#50a76a"/>
          <path d="m168.41,72.2c0-.49,0-1.08.01-1.65-.28.39-.56.77-.87,1.15-.1.13-.18.18-.24.18-.07,0-.11-.07-.15-.24-.13-.52-.32-.99-.49-1.23,1.22-1.37,2.07-2.91,2.59-4.58.11-.32.18-.64.21-.98.48.13.98.27,1.37.43.15.07.24.1.24.2,0,.11-.06.17-.17.25-.08.07-.15.21-.28.56-.24.64-.5,1.29-.81,1.91v7.23c0,1.37.03,2.06.03,2.13,0,.14-.01.15-.15.15h-1.16c-.14,0-.15-.01-.15-.15,0-.08.03-.76.03-2.13v-3.22Zm3.94,2.3c.22-.32.34-.55.48-.9.45.2.87.43,1.23.66.13.08.15.15.15.22,0,.11-.08.17-.2.24-.08.04-.17.15-.35.39-.56.77-1.27,1.57-2.19,2.24-.15.11-.24.18-.31.18s-.14-.08-.28-.27c-.22-.29-.53-.57-.81-.74,1.05-.64,1.72-1.33,2.27-2.03Zm.15-1.15c-1.37,0-1.85.03-1.93.03-.15,0-.17-.01-.17-.14v-1.09c0-.14.01-.15.17-.15.08,0,.56.03,1.92.03v-2.79c-1.08.01-1.48.03-1.55.03-.14,0-.15-.01-.15-.14v-1.08c0-.15.01-.17.15-.17.07,0,.48.03,1.55.03v-.69c0-.99-.01-1.41-.1-2.13.52.01.99.04,1.48.1.13.01.21.08.21.17,0,.1-.04.17-.08.28-.06.17-.07.52-.07,1.55v.71h2.06v-.69c0-.99-.01-1.43-.1-2.13.53.01.99.04,1.48.1.14.01.22.08.22.15,0,.1-.04.18-.08.28-.07.18-.08.53-.08,1.55v.73c1.18,0,1.62-.03,1.71-.03.15,0,.17.01.17.17v1.08c0,.13-.01.14-.17.14-.08,0-.53-.03-1.71-.03v2.79h.31c1.37,0,1.85-.03,1.93-.03.14,0,.15.01.15.15v1.09c0,.13-.01.14-.15.14-.08,0-.56-.03-1.93-.03h-5.24Zm3.49-1.33v-2.79h-2.06v2.79h2.06Zm.84,1.74c.17-.1.2-.1.28.04.76,1.06,1.71,1.96,2.77,2.58-.24.22-.5.53-.7.88-.11.21-.18.29-.28.29-.07,0-.17-.07-.34-.18-1.04-.74-1.93-1.74-2.66-2.86-.08-.14-.06-.15.13-.27l.8-.49Z" fill="#50a76a"/>
        </g>
        <g>
          <line x1="176.57" y1="99" x2="124.7" y2="99" fill="none" stroke="#50a76a" stroke-miterlimit="10" stroke-width="2.3"/>
          <polyline points="167.58 109.03 177.62 99 167.58 88.97" fill="none" stroke="#50a76a" stroke-miterlimit="10" stroke-width="2.3"/>
        </g>
        <circle cx="418.37" cy="39.38" r="35.55" fill="#ffffcd"/>
        <circle cx="418.37" cy="128.22" r="35.55" fill="#ffffcd"/>
        <path d="m382.06,113.74c-7.31,17.75-.53,38.61,16.55,48.48,18.62,10.75,42.42,4.37,53.17-14.25,10.75-18.62,4.37-42.42-14.25-53.17-17.27-9.97-39-5.2-50.64,10.4l-16.89-9.75" fill="none" stroke="#50a76a" stroke-miterlimit="10" stroke-width=".9"/>
        <path d="m382.06,54.15c-7.31-17.75-.53-38.61,16.55-48.48,18.62-10.75,42.42-4.37,53.17,14.25,10.75,18.62,4.37,42.42-14.25,53.17-17.27,9.97-39,5.2-50.64-10.4l-16.89,9.75" fill="none" stroke="#50a76a" stroke-miterlimit="10" stroke-width=".9"/>
        <g>
          <path d="m392.42,123.1c0-.45.01-1.09.03-1.62-.22.21-.45.42-.69.62-.14.11-.24.18-.29.18-.08,0-.14-.1-.18-.31-.07-.38-.21-.73-.36-.99,1.11-.88,1.89-1.81,2.51-2.83.13-.21.24-.46.35-.73.35.2.7.43,1.01.66.14.11.2.17.2.28,0,.1-.03.14-.15.21-.13.07-.24.22-.39.46-.17.29-.38.62-.62.94v5.2c0,1.12.03,1.65.03,1.72,0,.14-.01.15-.15.15h-1.15c-.14,0-.15-.01-.15-.15,0-.08.03-.6.03-1.72v-2.06Zm2.24-8.22c.13.1.2.17.2.27,0,.08-.04.14-.14.18-.14.06-.27.21-.42.41-.6.81-1.27,1.5-2.21,2.27-.14.11-.22.17-.29.17-.08,0-.14-.1-.22-.32-.15-.42-.34-.73-.52-.95.94-.63,1.53-1.22,2.1-2.02.2-.25.32-.45.39-.64.42.18.76.39,1.12.64Zm3.45,8.04v1.39c.6-.11,1.23-.24,1.88-.39-.06.22-.08.48-.08.74,0,.42-.01.43-.43.55-1.32.31-2.42.53-3.66.74-.31.06-.57.14-.67.2-.08.06-.17.11-.27.11-.06,0-.11-.07-.15-.2-.11-.34-.24-.84-.32-1.3.46,0,.84-.03,1.26-.08l1.08-.14v-1.61h-.2c-1.04,0-1.36.03-1.44.03-.14,0-.15-.01-.15-.17v-.94c0-.14.01-.15.15-.15.08,0,.41.03,1.44.03h.2v-.11c0-.41-.01-.81-.1-1.27.52.01.92.04,1.4.11.15.01.24.07.24.15,0,.11-.04.17-.08.28-.06.13-.08.32-.08.59v.25h.15c1.04,0,1.36-.03,1.44-.03.14,0,.15.01.15.15v.94c0,.15-.01.17-.15.17-.08,0-.41-.03-1.44-.03h-.15Zm.03-5.63v1.47h.24c1.11,0,1.44-.03,1.53-.03.14,0,.15.01.15.15v.99c0,.13-.01.14-.15.14-.08,0-.42-.03-1.53-.03h-1.98c-1.09,0-1.44.03-1.54.03-.14,0-.15-.01-.15-.14v-.99c0-.14.01-.15.15-.15.1,0,.46.03,1.55.03h.34v-1.47h-.14c-1.01,0-1.32.03-1.4.03-.14,0-.15-.01-.15-.15v-.95c0-.14.01-.15.15-.15.08,0,.39.03,1.4.03h.14v-.45c0-.5,0-.91-.08-1.36.5.01.91.04,1.4.11.14,0,.22.06.22.14,0,.11-.04.18-.08.28-.04.14-.07.35-.07.73v.55h.14c1.02,0,1.33-.03,1.42-.03.14,0,.15.01.15.15v.95c0,.14-.01.15-.15.15-.08,0-.39-.03-1.42-.03h-.14Zm4.73,5.15c0,1.48.03,2.17.03,2.75,0,.63-.1,1.09-.46,1.36-.31.24-.73.31-1.83.31-.43,0-.45,0-.5-.46-.04-.35-.15-.74-.28-1.02.49.08.8.1,1.16.1s.48-.13.48-.56v-5.41c-.73,0-.97.03-1.04.03-.15,0-.17-.01-.17-.17v-1.05c0-.14.01-.15.17-.15.08,0,.34.03,1.19.03h1.15c.87,0,1.11-.03,1.19-.03.14,0,.15.01.15.15v1.05c0,.15-.01.17-.15.17-.08,0-.32-.03-1.08-.03v2.94Zm-.22-7.3c.79,0,1.01-.03,1.09-.03.13,0,.14.01.14.15v1.06c0,.14-.01.15-.14.15-.08,0-.31-.03-1.09-.03h-1.01c-.79,0-1.01.03-1.09.03-.14,0-.15-.01-.15-.15v-1.06c0-.14.01-.15.15-.15.08,0,.31.03,1.09.03h1.01Z" fill="#50a76a"/>
          <path d="m412.21,117.44c.92-.29,1.64-.39,2.47-.39,1.81,0,2.96,1.05,2.96,2.59,0,1.81-1.33,2.91-3.61,2.91-.28,0-.43,0-.62-.01-.25-.01-.32-.08-.38-.25-.17-.52-.32-.91-.69-1.34.62.1,1.02.14,1.56.14,1.29,0,2.1-.57,2.1-1.55,0-.74-.56-1.15-1.46-1.15-.74,0-1.33.15-2.07.39-.81.28-1.46.53-2.31.92.74,2.1,1.44,4.06,2.17,6.23.06.18.07.24-.13.34-.35.18-.76.32-1.2.45-.1.01-.14-.01-.18-.15-.66-2.23-1.26-4.12-2.02-6.22-.53.25-.98.46-1.33.63-.35.17-.5.27-.73.43-.1.08-.2.14-.27.14-.08,0-.22-.07-.34-.21-.35-.42-.59-.91-.85-1.37.63-.11.87-.18,1.37-.36.31-.11.78-.28,1.62-.64-.17-.5-.36-1.06-.64-1.81-.1-.25-.28-.67-.64-1.16.6-.13,1.33-.21,1.88-.21.13,0,.21.1.21.29,0,.18.03.28.06.46.08.31.13.52.28,1.08.1.35.18.56.25.74.9-.35,1.76-.67,2.55-.91Zm-.35-2.84c.07-.04.11-.06.15-.06s.08.01.15.06c.45.29,1.09.77,1.51,1.27.04.06.07.1.07.15s-.03.1-.07.15c-.25.28-.58.55-.92.77-.04.03-.08.06-.13.06-.03,0-.07-.03-.11-.07-.49-.56-1.01-1.09-1.74-1.54.39-.31.79-.62,1.08-.8Z" fill="#50a76a"/>
          <path d="m422.44,122.67c.45-.18.88-.39,1.36-.64-.03.25-.03.57-.01.87q.03.45-.36.64c-.87.43-1.86.84-2.79,1.19-.24.1-.41.17-.46.22-.06.06-.15.1-.24.1s-.15-.04-.21-.17c-.14-.36-.25-.77-.38-1.25.45-.08.88-.18,1.39-.35l.32-.1v-3.98h-.11c-.91,0-1.19.03-1.27.03-.14,0-.14-.01-.14-.15v-1.06c0-.14,0-.15.14-.15.08,0,.36.03,1.27.03h.11v-1.32c0-.92-.01-1.5-.11-2.06.55.01.98.04,1.44.1.14.01.22.08.22.17,0,.1-.04.17-.08.28-.07.17-.08.52-.08,1.33v1.5c.8,0,1.06-.03,1.15-.03.13,0,.14.01.14.15v1.06c0,.14-.01.15-.14.15-.08,0-.35-.03-1.15-.03v3.46Zm3.53,1.95c0,.36.07.53.27.63.2.11.63.15,2.02.15,1.51,0,1.98-.07,2.26-.29.22-.2.29-.48.34-1.58.28.17.6.34,1.01.45q.35.1.31.46c-.13,1.22-.29,1.6-.76,1.89-.48.32-1.15.46-3.32.46-1.91,0-2.61-.17-2.96-.39-.34-.21-.53-.63-.53-1.39v-4.37c-.71.25-1.01.38-1.12.41-.14.04-.15.03-.18-.11l-.18-1.09c-.03-.14-.01-.14.11-.18.11-.03.48-.11,1.37-.41v-1.54c.01-.77-.01-1.43-.08-1.99.48.01.92.04,1.34.08.2.03.28.08.28.15,0,.11-.03.17-.08.29-.07.14-.08.45-.08,1.33v1.2l1.34-.45v-2.03c0-.84-.03-1.27-.11-1.99.53.01.97.04,1.43.11.14.01.22.07.22.15,0,.1-.04.17-.08.28-.07.17-.08.52-.08,1.26v1.76l1.08-.36c1.32-.43,1.74-.62,1.84-.63.1-.01.15.03.15.14l-.04,1.79c-.03,1.41-.14,2.45-.34,3.17-.21.81-.6,1.06-1.21,1.06-.17,0-.34,0-.52-.03q-.31-.03-.38-.46c-.04-.32-.15-.73-.29-1.01.29.07.55.1.74.1.24,0,.34-.07.42-.52.1-.53.15-1.08.17-2.45l-1.62.56v2.44c0,1.4.03,2.09.03,2.17,0,.14-.01.15-.15.15h-1.12c-.14,0-.15-.01-.15-.15,0-.1.03-.77.03-2.17v-1.97l-1.34.46v4.44Z" fill="#50a76a"/>
          <path d="m436.23,122.81c.41-.15.81-.32,1.22-.53-.03.25-.04.55-.04.87q0,.46-.41.64c-.11.06-.22.11-.34.15.56-.01.95-.07,1.44-.17,1.02-.21,2.25-.49,3.54-.97-.04.28-.08.56-.1.84,0,.46,0,.48-.42.6-.99.35-2.13.64-3.19.9-.25.08-.42.13-.5.17-.11.06-.2.11-.29.11-.08,0-.15-.06-.21-.21-.11-.36-.21-.77-.29-1.26-.69.29-1.46.56-2.19.81-.24.08-.35.14-.42.2-.07.06-.15.1-.24.1-.07,0-.14-.04-.18-.18-.11-.36-.21-.78-.29-1.26.45-.06.78-.13,1.22-.25l.31-.08v-4.09h-.03c-.87,0-1.13.03-1.22.03-.13,0-.14-.01-.14-.15v-1.05c0-.15.01-.17.14-.17.1,0,.36.03,1.25.03v-1.29c0-.99-.01-1.43-.1-2.13.52.01.95.04,1.44.1.13.01.21.08.21.15,0,.11-.03.18-.06.29-.07.17-.11.52-.11,1.55v1.32c.71,0,.95-.03,1.04-.03.14,0,.15.01.15.17v1.05c0,.14-.01.15-.15.15-.08,0-.32-.01-1.04-.03v3.61Zm6.95-5.08c.06,1.51.18,2.86.38,3.95.24-.48.42-.98.57-1.53.11-.41.24-.99.27-1.43.42.11.85.27,1.21.41.17.08.24.13.24.25,0,.1-.06.17-.14.27-.11.11-.15.29-.31.76-.38,1.2-.83,2.2-1.39,3.08.39,1.29.74,1.75.87,1.75.22,0,.34-.6.39-1.79.2.21.49.39.71.52q.36.18.32.57c-.2,1.88-.6,2.38-1.43,2.38-.57,0-1.25-.6-1.83-2.16-.71.8-1.58,1.48-2.65,2.13-.18.1-.28.17-.36.17s-.15-.08-.29-.27c-.24-.31-.52-.56-.8-.71,1.57-.77,2.76-1.7,3.63-2.8-.39-1.48-.63-3.49-.73-5.55h-2.49c-1.36,0-1.82.03-1.91.03-.14,0-.15-.01-.15-.17v-1.02c0-.14.01-.15.15-.15.08,0,.55.03,1.91.03h2.45v-.17c-.01-.94-.03-1.33-.11-2,.49.01.91.04,1.42.11.15.01.22.08.22.15,0,.1-.03.18-.07.28-.07.14-.1.29-.1.97v.66h.8c1.37,0,1.85-.03,1.93-.03.14,0,.15.01.15.15v1.02c0,.15-.01.17-.15.17-.08,0-.56-.03-1.93-.03h-.77Zm-3.08,1.04c.76,0,.98-.03,1.06-.03.15,0,.17.01.17.15,0,.08-.03.36-.03,1.08v1.26c0,.73.03,1.01.03,1.09,0,.14-.01.15-.17.15-.08,0-.31-.03-1.06-.03h-1.09c-.76,0-.98.03-1.08.03-.14,0-.15-.01-.15-.15,0-.1.03-.36.03-1.09v-1.26c0-.71-.03-.99-.03-1.08,0-.14.01-.15.15-.15.1,0,.32.03,1.08.03h1.09Zm.1,1.09h-1.27v1.5h1.27v-1.5Zm4.33-5.41c.17-.06.17-.04.27.07.31.35.6.78.8,1.15.07.13.04.17-.15.24l-.6.28c-.2.1-.21.08-.28-.07-.21-.42-.46-.81-.77-1.18-.1-.11-.07-.15.11-.22l.63-.27Z" fill="#50a76a"/>
          <path d="m405.55,135.34c-.32,2.38-.91,4.57-1.75,6.04-.6,1.05-1.33,1.61-2.38,1.61-1.23,0-2.48-1.32-2.48-3.6,0-1.34.58-2.63,1.58-3.64,1.18-1.18,2.66-1.79,4.55-1.79,3.36,0,5.34,2.07,5.34,4.86,0,2.61-1.47,4.24-4.31,5.1-.29.08-.42.03-.6-.25-.15-.24-.45-.56-.98-.88,2.37-.56,4.23-1.54,4.23-4.19,0-1.67-1.26-3.25-3.14-3.25h-.06Zm-4.02,1.36c-.67.76-1.09,1.7-1.09,2.59,0,1.29.52,2,.95,2,.36,0,.67-.18,1.05-.85.62-1.13,1.25-3.15,1.49-5.01-.98.2-1.76.59-2.4,1.27Z" fill="#50a76a"/>
          <path d="m420.67,142.91c0,.27.04.41.15.49.13.1.39.14,1.02.14s.94-.07,1.11-.22c.18-.17.29-.49.35-1.4.28.18.6.31.95.39.38.1.41.11.35.48-.14.99-.32,1.41-.74,1.68-.39.25-1.01.35-2.02.35-1.15,0-1.81-.06-2.17-.31-.35-.24-.43-.48-.43-1.18v-2.31h-1.72c-.39,1.95-1.47,3-3.78,3.84-.15.06-.24.1-.31.1-.11,0-.17-.1-.31-.35-.2-.36-.46-.7-.71-.91,2.18-.57,3.19-1.23,3.6-2.68h-1.05c-1.33,0-1.79.03-1.88.03-.15,0-.17-.01-.17-.15v-1.01c0-.14.01-.15.17-.15.08,0,.55.03,1.88.03h1.26c.01-.31.03-.64.03-1.02v-.48c-.6.01-.85.03-.91.03-.15,0-.17-.01-.17-.15v-.53c-.59.38-1.22.71-1.88,1.04-.15.07-.25.11-.32.11-.11,0-.17-.11-.29-.36-.15-.29-.34-.53-.57-.77.97-.38,1.83-.81,2.59-1.29-.48-.53-.91-.95-1.42-1.36-.07-.06-.11-.1-.11-.14,0-.03.04-.07.11-.13l.7-.56c.13-.1.15-.13.28-.03.56.46,1.04.91,1.53,1.41.62-.5,1.13-1.05,1.57-1.67h-1.57c-1.05,0-1.39.03-1.47.03-.15,0-.17-.01-.17-.15v-.97c0-.14.01-.15.17-.15.08,0,.42.03,1.47.03h1.93c.78,0,1.18-.03,1.27-.03.13,0,.17.01.24.17.15.43.36.84.64,1.2.06.1.13.18.2.28.34-.31.62-.6.84-.9.14-.17.25-.34.39-.59.42.21.83.48,1.08.64.13.08.15.15.15.22,0,.08-.06.15-.18.21-.11.06-.25.13-.48.38-.29.31-.59.6-.97.92.25.22.5.45.77.64.48-.41.9-.83,1.19-1.16.14-.18.27-.35.39-.6.41.22.77.43,1.09.64.13.08.17.15.17.24s-.07.15-.18.2c-.14.06-.25.13-.49.38-.31.31-.67.64-1.08.99.7.38,1.46.69,2.28.95-.21.28-.36.55-.5.88-.11.27-.15.36-.27.36-.07,0-.17-.03-.32-.1-.81-.35-1.53-.71-2.16-1.12v.66c0,.14-.01.15-.15.15-.07,0-.34-.01-.98-.03v1.5h1.42c1.34,0,1.79-.03,1.89-.03.14,0,.15.01.15.15v1.01c0,.14-.01.15-.15.15-.1,0-.55-.03-1.89-.03h-1.42v1.89Zm.48-5.88c-1.05-.78-1.86-1.69-2.54-2.82-.67,1.08-1.55,2-2.63,2.82h5.17Zm-1.91,2.73v-1.5h-1.54v.48c0,.36-.01.7-.03,1.02h1.57Z" fill="#50a76a"/>
          <path d="m428.9,136.84c0,1.3-.1,2.96-.31,4.17-.25,1.43-.59,2.47-1.26,3.57-.11.18-.17.28-.24.28-.06,0-.11-.08-.24-.24-.29-.35-.63-.66-.91-.83.7-.95,1.06-2.02,1.27-3.29.2-1.18.27-2.63.27-4.68s-.03-2.87-.03-2.96c0-.15.01-.17.15-.17.07,0,.56.03,1.91.03h6.47c1.34,0,1.83-.03,1.92-.03.14,0,.15.01.15.17,0,.08-.03.34-.03.99v1.05c0,.66.03.91.03.99,0,.14-.01.15-.15.15-.08,0-.57-.03-1.92-.03h-7.09v.8Zm2.35,2.87v-1.12c-1.18,0-1.61.03-1.68.03-.14,0-.15-.01-.15-.17v-.9c0-.14.01-.15.15-.15.07,0,.5.03,1.68.03,0-.43-.01-.77-.08-1.15.52.01.85.04,1.32.1.14.01.24.07.24.17,0,.08-.03.14-.08.24-.06.13-.08.35-.08.64h1.91c0-.43,0-.78-.08-1.15.52.01.84.04,1.32.1.13.01.24.07.24.15s-.03.15-.08.25c-.07.13-.08.34-.08.64,1.26,0,1.67-.03,1.75-.03.14,0,.15.01.15.15v.9c0,.15-.01.17-.15.17-.08,0-.49-.03-1.75-.03v1.12h.83c1.36,0,1.83-.03,1.92-.03.14,0,.15.01.15.15v.94c0,.14-.01.15-.15.15-.08,0-.53-.03-1.74-.03.29.15.6.34.8.49.1.07.14.13.14.2s-.07.13-.15.17c-.11.06-.22.13-.41.31-.32.29-.56.49-.9.74.74.39,1.64.67,2.75.84-.21.21-.41.56-.56.91q-.17.45-.6.35c-2.38-.64-3.94-1.95-4.93-4.01h-1.16v2.33c.77-.13,1.61-.28,2.33-.45-.06.24-.1.53-.13.81-.03.46-.07.46-.46.55-1.19.27-2.48.52-3.54.7-.24.03-.36.07-.45.11-.11.06-.18.08-.25.08-.08,0-.15-.04-.2-.2l-.29-1.3c.45,0,.83-.03,1.34-.08l.29-.03v-2.52c-.85.01-1.2.03-1.27.03-.13,0-.14-.01-.14-.15v-.94c0-.14.01-.15.14-.15.08,0,.56.03,1.85.03h.29Zm5.34-5.77h-7.69v.95h7.69v-.95Zm-2.13,5.77v-1.12h-1.91v1.12h1.91Zm-.15,1.19c.27.46.58.87.97,1.22.34-.25.59-.49.9-.83.11-.13.21-.25.31-.39h-2.17Z" fill="#50a76a"/>
        </g>
        <g>
          <path d="m400.31,32.46h2c.94,0,1.88-.03,2.83-.06.15-.01.22.06.22.22.01.36.01.76,0,1.12,0,.18-.04.25-.21.25-.67-.03-1.92-.06-2.83-.06h-5.63c-.57,0-1.48.04-2.58.06-.22.01-.25-.04-.29-.28-.06-.31-.1-.81-.1-1.32,1.01.06,2.07.07,2.97.07h1.91v-4.79h-1.09c-1.01,0-1.6.03-2.17.06-.17.01-.2-.08-.24-.29-.06-.28-.11-.83-.11-1.3.7.07,1.26.06,2.42.06h3.96c.85,0,1.62,0,2.45-.04.14-.01.18.07.18.22.01.35.01.74,0,1.09-.01.18-.04.27-.2.27-.94-.04-1.62-.06-2.41-.06h-1.09v4.78Z" fill="#50a76a"/>
          <path d="m408.27,26.52c0-.97-.04-1.5-.15-2.05.59.07,1.33.15,1.74.29.17.04.24.13.24.22,0,.07-.03.14-.06.21-.13.27-.15.62-.15,1.33v2.83c0,.73.03,1.27.04,1.77,0,.21-.08.28-.31.28h-1.12c-.2,0-.28-.07-.27-.24,0-.49.04-1.3.04-1.91v-2.75Zm6.6,2.62c0,2.07-.31,3.46-1.13,4.57-.69.91-1.9,1.76-3.08,2.2-.11.04-.21.07-.29.07-.11,0-.21-.04-.34-.17-.34-.34-.7-.6-1.19-.85,1.5-.46,2.68-1.12,3.42-2.05.64-.8.94-1.96.94-3.74v-2.65c0-1.2-.03-1.65-.15-2.28.67.06,1.34.15,1.82.31.14.04.2.13.2.24,0,.07-.01.15-.06.22-.13.29-.13.66-.13,1.53v2.61Z" fill="#50a76a"/>
          <path d="m420.82,26.71c-.8,0-1.65.06-2.48.11-.17.01-.22-.08-.25-.21-.11-.39-.2-1.09-.25-1.51.95.07,1.72.1,2.84.1h6.01c.59,0,.83-.03.97-.08.07-.03.2-.1.27-.1.11,0,.22.08.32.2.31.27.57.56.84.88.07.08.11.17.11.25,0,.11-.07.21-.2.29-.15.11-.27.25-.38.41-.66.99-1.53,1.96-2.46,2.7-.08.08-.18.13-.29.13s-.24-.06-.34-.14c-.35-.28-.7-.43-1.16-.57,1.12-.84,1.81-1.44,2.51-2.45h-6.05Zm.78,5.46c.53-.99.69-1.95.69-3.31,0-.52-.03-.84-.14-1.32.69.07,1.42.17,1.81.27.18.04.24.14.24.27,0,.08-.03.17-.07.25-.1.2-.11.34-.13.57-.04,1.36-.18,2.61-.83,3.85-.55,1.05-1.39,2.05-2.55,2.79-.13.08-.25.14-.39.14-.1,0-.2-.04-.28-.13-.34-.29-.74-.52-1.27-.71,1.53-.8,2.33-1.55,2.93-2.68Z" fill="#50a76a"/>
          <path d="m437.82,26.71c-.32,2.38-.91,4.57-1.75,6.04-.6,1.05-1.33,1.61-2.38,1.61-1.23,0-2.48-1.32-2.48-3.6,0-1.34.58-2.63,1.58-3.64,1.18-1.18,2.66-1.79,4.55-1.79,3.36,0,5.34,2.07,5.34,4.86,0,2.61-1.47,4.24-4.31,5.1-.29.08-.42.03-.6-.25-.15-.24-.45-.56-.98-.88,2.37-.56,4.23-1.54,4.23-4.19,0-1.67-1.26-3.25-3.14-3.25h-.06Zm-4.02,1.36c-.67.76-1.09,1.7-1.09,2.59,0,1.29.52,2,.95,2,.36,0,.67-.18,1.05-.85.62-1.13,1.25-3.15,1.49-5.01-.98.2-1.77.59-2.4,1.27Z" fill="#50a76a"/>
          <path d="m398.74,45.41c.11-.14.15-.14.28-.07.69.38,1.36.85,1.99,1.43.06.06.08.08.08.11,0,.04-.03.08-.08.17l-.63.9c-.04.07-.07.1-.11.1-.03,0-.07-.03-.13-.08-.6-.59-1.27-1.11-1.97-1.53-.07-.04-.1-.07-.1-.1,0-.04.03-.1.08-.17l.59-.76Zm.14,6.86c.39-.77.88-1.86,1.4-3.22.2.22.49.5.76.71.22.17.31.24.31.35,0,.08-.04.18-.1.34-.42,1.08-.9,2.16-1.36,3.08-.11.21-.21.39-.24.53-.03.11-.08.18-.18.18-.07,0-.15-.04-.25-.1-.32-.2-.69-.43-1.08-.77.29-.36.49-.64.74-1.11Zm.42-10.42c.11-.13.15-.13.27-.06.7.39,1.34.9,1.95,1.44.06.04.08.08.08.13s-.03.08-.08.17l-.63.88c-.06.08-.1.11-.12.11-.04,0-.07-.03-.13-.07-.62-.6-1.3-1.18-1.97-1.58-.07-.04-.1-.07-.1-.1,0-.04.03-.08.1-.17l.64-.76Zm4.36,5.36c-1.39,0-1.86.03-1.95.03-.14,0-.15-.01-.15-.15v-1.11c0-.13.01-.14.15-.14.08,0,.56.03,1.95.03h1.64v-1.83c-.8.13-1.61.22-2.42.31-.45.04-.46.03-.57-.35-.11-.39-.25-.71-.39-.92,2.28-.14,4.75-.55,6.18-.99.38-.13.63-.22.91-.39.35.28.67.62.92.9.08.1.13.17.13.28,0,.08-.06.17-.2.18-.17.01-.38.03-.76.15-.67.22-1.44.41-2.28.57v2.1h1.83c1.37,0,1.85-.03,1.93-.03.13,0,.14.01.14.14v1.11c0,.14-.01.15-.14.15-.08,0-.56-.03-1.93-.03h-1.83v1.81h1.01c1.29,0,1.72-.03,1.82-.03.14,0,.15.01.15.15,0,.08-.03.48-.03,1.4v1.26c0,1.93.03,2.3.03,2.38,0,.13-.01.14-.15.14h-1.19c-.14,0-.15-.01-.15-.14v-.48h-4.37v.55c0,.13-.01.14-.15.14h-1.15c-.15,0-.17-.01-.17-.14,0-.1.03-.46.03-2.41v-1.11c0-1.11-.03-1.5-.03-1.6,0-.14.01-.15.17-.15.08,0,.55.03,1.82.03h.85v-1.81h-1.64Zm.27,5.24h4.37v-2.17h-4.37v2.17Z" fill="#50a76a"/>
          <path d="m413.19,44.64c.18.04.21.07.2.22-.06,1.15-.17,2.2-.45,3.07-.04.14-.07.11-.22.06l-.7-.28c-.18-.07-.2-.14-.15-.28.24-.76.39-1.72.45-2.84,0-.14.03-.13.22-.08l.66.14Zm.56-.97c0-.99-.01-1.44-.11-2.11.53.01,1.01.04,1.47.1.14.01.22.08.22.15,0,.1-.03.17-.07.27-.07.18-.1.53-.1,1.55v8.14c0,1.58.03,2.38.03,2.45,0,.15-.01.17-.15.17h-1.16c-.14,0-.15-.01-.15-.17,0-.07.03-.87.03-2.44v-8.11Zm2.18.25c.15-.06.2-.04.25.08.2.53.42,1.15.55,1.72.29-.76.53-1.55.66-2.27.04-.25.08-.59.1-1.01.46.08,1.07.25,1.35.35.18.07.24.13.24.2,0,.1-.03.13-.08.2-.08.11-.14.27-.17.43-.07.34-.15.69-.25,1.05h1.29v-1.01c0-.99-.03-1.43-.11-2.11.53.01,1.05.04,1.53.1.14.01.22.07.22.14,0,.1-.04.18-.07.28-.07.21-.1.53-.1,1.55v1.05h1.18c1.25,0,1.67-.03,1.75-.03.14,0,.15.01.15.15v1.08c0,.14-.01.15-.15.15-.08,0-.5-.03-1.75-.03h-1.18v2.44h.76c1.26,0,1.7-.03,1.78-.03.14,0,.15.01.15.15v1.09c0,.14-.01.15-.15.15-.08,0-.52-.03-1.78-.03h-.76v2.76h1.41c1.37,0,1.83-.03,1.92-.03.14,0,.15.01.15.15v1.08c0,.15-.01.17-.15.17-.08,0-.55-.03-1.92-.03h-4.65c-1.37,0-1.85.03-1.92.03-.14,0-.15-.01-.15-.17v-1.08c0-.14.01-.15.15-.15.07,0,.55.03,1.92.03h1.76v-2.76h-.84c-1.26,0-1.68.03-1.78.03-.14,0-.15-.01-.15-.15v-1.09c0-.14.01-.15.15-.15.1,0,.52.03,1.78.03h.84v-2.44h-1.72c-.2.56-.43,1.12-.67,1.61-.11.21-.17.29-.25.29-.06,0-.14-.06-.27-.14-.32-.21-.71-.38-1.01-.46.24-.38.46-.81.66-1.27l-.59.21c-.18.07-.22.07-.25-.08-.11-.64-.29-1.29-.5-1.82-.06-.15-.04-.18.14-.24l.55-.18Z" fill="#50a76a"/>
          <path d="m428.15,48.94c0-.53.01-1.18.03-1.79-.42.55-.84,1.05-1.25,1.46-.14.13-.22.21-.31.21s-.14-.1-.21-.31c-.11-.38-.34-.83-.53-1.15,1.48-1.33,2.54-2.84,3.24-4.73.13-.32.22-.66.28-.98.55.14.91.27,1.36.45.18.07.24.11.24.21s-.04.17-.13.24c-.11.08-.2.24-.35.6-.25.6-.55,1.22-.88,1.81v7.16c0,1.36.03,2.05.03,2.13,0,.13-.01.14-.15.14h-1.22c-.15,0-.17-.01-.17-.14,0-.1.03-.77.03-2.13v-3.17Zm5.34,2.86c0,.5.08.69.39.8.25.08.62.1,1.39.1.71,0,1.13-.08,1.44-.35.24-.2.36-.8.42-2.13.29.22.7.43,1.08.57.35.13.34.13.31.49-.1,1.37-.34,1.98-.81,2.33-.46.32-1.3.48-2.54.48-1.32,0-1.99-.06-2.44-.28-.46-.22-.74-.59-.74-1.53v-8.84c0-.78-.01-1.19-.08-1.62.56.01,1.01.04,1.5.1.18.01.27.07.27.18s-.04.18-.08.27c-.07.13-.1.35-.1.95v3.5c.9-.56,1.72-1.22,2.59-2.06.28-.25.6-.62.83-.95.38.28.78.63,1.09.92.11.11.15.18.15.28s-.1.18-.24.22c-.15.06-.42.25-.73.53-1.04.92-2.27,1.86-3.7,2.72v3.32Z" fill="#50a76a"/>
        </g>
        <g>
          <path d="m135.5,159.23h2c.94,0,1.88-.03,2.83-.06.15-.01.22.06.22.22.01.36.01.76,0,1.12,0,.18-.04.25-.21.25-.67-.03-1.92-.06-2.83-.06h-5.63c-.57,0-1.48.04-2.58.06-.22.01-.25-.04-.29-.28-.06-.31-.1-.81-.1-1.32,1.01.06,2.07.07,2.97.07h1.91v-4.79h-1.09c-1.01,0-1.6.03-2.17.06-.17.01-.2-.08-.24-.29-.06-.28-.11-.83-.11-1.3.7.07,1.26.06,2.42.06h3.96c.85,0,1.62,0,2.45-.04.14-.01.18.07.18.22.01.35.01.74,0,1.09-.01.18-.04.27-.2.27-.94-.04-1.62-.06-2.41-.06h-1.09v4.78Z" fill="#50a76a"/>
          <path d="m143.47,153.29c0-.97-.04-1.5-.15-2.05.59.07,1.33.15,1.74.29.17.04.24.13.24.22,0,.07-.03.14-.06.21-.13.27-.15.62-.15,1.33v2.83c0,.73.03,1.27.04,1.77,0,.21-.08.28-.31.28h-1.12c-.2,0-.28-.07-.27-.24,0-.49.04-1.3.04-1.91v-2.75Zm6.6,2.62c0,2.07-.31,3.46-1.13,4.57-.69.91-1.9,1.76-3.08,2.2-.11.04-.21.07-.29.07-.11,0-.21-.04-.34-.17-.34-.34-.7-.6-1.19-.85,1.5-.46,2.68-1.12,3.42-2.05.64-.8.94-1.96.94-3.74v-2.65c0-1.2-.03-1.65-.15-2.28.67.06,1.34.15,1.82.31.14.04.2.13.2.24,0,.07-.01.15-.06.22-.13.29-.13.66-.13,1.53v2.61Z" fill="#50a76a"/>
          <path d="m156.01,153.47c-.8,0-1.65.06-2.48.11-.17.01-.22-.08-.25-.21-.11-.39-.2-1.09-.25-1.51.95.07,1.72.1,2.84.1h6.01c.59,0,.83-.03.97-.08.07-.03.2-.1.27-.1.11,0,.22.08.32.2.31.27.57.56.84.88.07.08.11.17.11.25,0,.11-.07.21-.2.29-.15.11-.27.25-.38.41-.66.99-1.53,1.96-2.46,2.7-.08.08-.18.13-.29.13s-.24-.06-.34-.14c-.35-.28-.7-.43-1.16-.57,1.12-.84,1.81-1.44,2.51-2.45h-6.05Zm.78,5.46c.53-.99.69-1.95.69-3.31,0-.52-.03-.84-.14-1.32.69.07,1.41.17,1.81.27.18.04.24.14.24.27,0,.08-.03.17-.07.25-.1.2-.11.34-.13.57-.04,1.36-.18,2.61-.83,3.85-.55,1.05-1.39,2.05-2.55,2.79-.13.08-.25.14-.39.14-.1,0-.2-.04-.28-.13-.34-.29-.74-.52-1.27-.71,1.53-.8,2.33-1.55,2.93-2.68Z" fill="#50a76a"/>
          <path d="m173.01,153.47c-.32,2.38-.91,4.57-1.75,6.04-.6,1.05-1.33,1.61-2.38,1.61-1.23,0-2.48-1.32-2.48-3.6,0-1.34.57-2.63,1.58-3.64,1.18-1.18,2.66-1.79,4.55-1.79,3.36,0,5.34,2.07,5.34,4.86,0,2.61-1.47,4.24-4.31,5.1-.29.08-.42.03-.6-.25-.15-.24-.45-.56-.98-.88,2.37-.56,4.23-1.54,4.23-4.19,0-1.67-1.26-3.25-3.14-3.25h-.06Zm-4.02,1.36c-.67.76-1.09,1.7-1.09,2.59,0,1.29.52,2,.95,2,.36,0,.67-.18,1.05-.85.62-1.13,1.25-3.15,1.49-5.01-.98.2-1.77.59-2.4,1.27Z" fill="#50a76a"/>
          <path d="m127.37,177.96c0-.5,0-1.13.01-1.74-.21.31-.45.6-.7.91-.11.13-.2.2-.25.2-.08,0-.13-.08-.15-.24-.08-.48-.25-.98-.42-1.27,1.08-1.26,1.83-2.8,2.4-4.51.1-.34.18-.66.22-1.01.46.14.9.28,1.29.48.14.06.22.13.22.25,0,.1-.07.17-.15.25-.1.08-.15.21-.28.56-.25.71-.5,1.37-.8,2v7.09c0,1.36.03,2.04.03,2.11,0,.14-.01.15-.15.15h-1.13c-.14,0-.15-.01-.15-.15,0-.08.03-.76.03-2.11v-2.97Zm4.59-5.29c-1.37,0-1.84.03-1.92.03-.14,0-.15-.01-.15-.15v-1.04c0-.15.01-.17.15-.17.08,0,.55.03,1.92.03h4.96c1.37,0,1.83-.03,1.92-.03.14,0,.15.01.15.17v1.04c0,.14-.01.15-.15.15-.08,0-.55-.03-1.92-.03h-.9v2.16h.43c1.36,0,1.85-.03,1.95-.03.14,0,.15.01.15.15,0,.08-.03.63-.03,2.3v2.44c0,2.47.03,2.98.03,3.07,0,.14-.01.15-.15.15h-1.09c-.14,0-.15-.01-.15-.15v-.59h-5.87v.64c0,.14-.01.15-.15.15h-1.08c-.14,0-.15-.01-.15-.15,0-.08.03-.6.03-3.08v-2.21c0-1.93-.03-2.47-.03-2.56,0-.14.01-.15.15-.15.08,0,.56.03,1.92.03h.36v-2.16h-.38Zm.38,8.25v-4.86h-1.05v4.86h1.05Zm2.38-6.09v-2.16h-1.08v2.16h1.08Zm0,6.09v-4.86h-1.08v4.86h1.08Zm1.3-4.86v4.86h1.13v-4.86h-1.13Z" fill="#50a76a"/>
          <path d="m141.47,177.83c0-.53,0-1.2.01-1.85-.25.34-.52.67-.8.99-.11.13-.18.2-.25.2-.06,0-.11-.08-.15-.25-.11-.42-.28-.9-.45-1.18,1.12-1.25,1.96-2.75,2.55-4.45.11-.34.2-.64.24-.98.45.11.87.22,1.29.39.15.06.22.1.22.21,0,.1-.04.15-.14.25-.1.08-.17.21-.29.57-.25.69-.53,1.34-.83,1.96v7.17c0,1.37.03,2.06.03,2.13,0,.14-.01.15-.15.15h-1.16c-.13,0-.14-.01-.14-.15,0-.08.03-.76.03-2.13v-3.04Zm2.51-1.82c0-.85-.03-1.29-.1-1.82.53.01.94.04,1.44.1.14.01.24.1.24.18,0,.1-.06.18-.1.31-.06.15-.08.41-.08,1.22v5.21h5.6c1.32,0,1.75-.03,1.83-.03.14,0,.15.01.15.17v.99c0,.14-.01.15-.15.15-.08,0-.52-.03-1.83-.03h-5.6v.5c0,.14-.01.15-.15.15h-1.12c-.14,0-.15-.01-.15-.15,0-.08.03-.52.03-1.48v-5.48Zm2.41-3.04c-1.37,0-1.83.03-1.92.03-.14,0-.14-.01-.14-.17v-.95c0-.13,0-.14.14-.14.08,0,.55.03,1.92.03h1.67l.06-.41c.04-.38.07-.73.06-.99.49.03.97.07,1.42.13.14,0,.21.08.21.17,0,.07-.04.15-.1.22-.07.1-.13.21-.15.41-.03.15-.06.32-.07.48h1.37c1.37,0,1.82-.03,1.91-.03.14,0,.15.01.15.14v.95c0,.15-.01.17-.15.17-.08,0-.53-.03-1.91-.03h-1.58c-.06.35-.14.69-.21,1.02h1.15c1.11,0,1.48-.03,1.57-.03.15,0,.17.01.17.15,0,.08-.03.53-.03,1.53v3.15c0,.99.03,1.43.03,1.51,0,.14-.01.15-.17.15-.08,0-.46-.03-1.57-.03h-2.07c-1.11,0-1.48.03-1.58.03-.14,0-.15-.01-.15-.15,0-.1.03-.52.03-1.51v-3.15c0-.99-.03-1.43-.03-1.53,0-.14.01-.15.15-.15.08,0,.38.03,1.12.03.08-.36.14-.7.21-1.02h-1.48Zm1.36,2.84h2.82v-.8h-2.82v.8Zm2.82,1.78v-.81h-2.82v.81h2.82Zm0,.98h-2.82v.83h2.82v-.83Z" fill="#50a76a"/>
          <path d="m166.22,179.02c0,1.22.03,1.96.03,2.45,0,.52-.13.9-.41,1.15-.28.24-.81.32-1.99.35-.45,0-.43-.01-.53-.42-.1-.42-.22-.76-.39-1.02.43.03.8.06,1.18.06.41,0,.59-.1.59-.45v-7.03h-8.26v6.71c0,1.32.03,1.98.03,2.06,0,.13-.01.14-.15.14h-1.26c-.14,0-.15-.01-.15-.14,0-.1.03-.77.03-2.24v-5.48c0-1.47-.03-2.16-.03-2.26,0-.14.01-.15.15-.15.1,0,.57.03,1.9.03h1.64c.29-.55.56-1.13.74-1.61.1-.25.15-.45.21-.78.57.07,1.16.15,1.57.24.13.03.17.1.17.18,0,.11-.06.18-.11.24-.11.1-.18.2-.24.34-.21.45-.46.95-.71,1.4h3.98c1.33,0,1.81-.03,1.89-.03.15,0,.17.01.17.15,0,.08-.03.85-.03,2.33v3.8Zm-8.18,1.81c-.14,0-.15-.01-.15-.15,0-.1.03-.45.03-2.34v-1.2c0-1.08-.03-1.44-.03-1.54,0-.14.01-.15.15-.15.08,0,.43.03,1.49.03h2c1.06,0,1.4-.03,1.5-.03.14,0,.15.01.15.15,0,.08-.03.45-.03,1.3v1.32c0,1.85.03,2.19.03,2.27,0,.14-.01.15-.15.15h-1.05c-.15,0-.17-.01-.17-.15v-.42h-2.56v.62c0,.14-.01.15-.15.15h-1.05Zm1.21-2.03h2.56v-2.09h-2.56v2.09Z" fill="#50a76a"/>
          <path d="m170.4,182.38c-1.26,0-1.69.03-1.78.03-.14,0-.15-.01-.15-.15v-1.27c0-.14.01-.15.15-.15.08,0,.52.03,1.78.03h2.96v-7.9c0-1.13-.01-1.71-.11-2.34.53.01,1.16.04,1.64.1.14.01.25.1.25.18,0,.11-.06.21-.1.32-.06.15-.1.5-.1,1.34v2.21h2.75c1.22,0,1.64-.03,1.72-.03.14,0,.15.01.15.15v1.27c0,.14-.01.15-.15.15-.08,0-.5-.03-1.72-.03h-2.75v4.55h3.82c1.26,0,1.7-.03,1.78-.03.14,0,.15.01.15.15v1.27c0,.14-.01.15-.15.15-.08,0-.52-.03-1.78-.03h-8.36Z" fill="#50a76a"/>
        </g>
        <g>
          <line x1="126.93" y1="133.31" x2="178.81" y2="133.31" fill="none" stroke="#50a76a" stroke-miterlimit="10" stroke-width="2.3"/>
          <polyline points="135.92 143.34 125.89 133.31 135.92 123.28" fill="none" stroke="#50a76a" stroke-miterlimit="10" stroke-width="2.3"/>
        </g>
        <g>
          <g>
            <g>
              <polygon points="252.81 97.22 252.81 59.63 260.89 54.96 260.89 92.56 252.81 97.22" fill="#bcadb8"/>
              <polygon points="244.73 92.56 244.81 54.83 252.89 59.5 252.81 97.22 244.73 92.56" fill="#bcadb8"/>
              <polygon points="252.81 59.63 252.81 46.43 244.73 54.97 252.81 59.63" fill="#bcadb8"/>
              <polygon points="260.89 54.96 252.81 46.43 252.81 59.63 260.89 54.96" fill="#bcadb8"/>
            </g>
            <polygon points="257.57 61.94 256.14 62.77 256.14 61.26 257.57 60.43 257.57 61.94" fill="#fadae5" mix-blend-mode="multiply"/>
            <polygon points="257.57 65.38 256.14 66.21 256.14 64.7 257.57 63.87 257.57 65.38" fill="#fadae5" mix-blend-mode="multiply"/>
            <polygon points="257.57 68.81 256.14 69.64 256.14 68.13 257.57 67.3 257.57 68.81" fill="#fadae5" mix-blend-mode="multiply"/>
            <polygon points="257.57 72.25 256.14 73.07 256.14 71.56 257.57 70.73 257.57 72.25" fill="#fadae5" mix-blend-mode="multiply"/>
            <polygon points="257.57 75.68 256.14 76.51 256.14 75 257.57 74.17 257.57 75.68" fill="#fadae5" mix-blend-mode="multiply"/>
            <polygon points="257.57 79.11 256.14 79.94 256.14 78.43 257.57 77.6 257.57 79.11" fill="#fadae5" mix-blend-mode="multiply"/>
            <polygon points="257.57 82.81 256.14 83.64 256.14 82.13 257.57 81.3 257.57 82.81" fill="#fadae5" mix-blend-mode="multiply"/>
            <polygon points="257.57 86.24 256.14 87.07 256.14 85.56 257.57 84.73 257.57 86.24" fill="#fadae5" mix-blend-mode="multiply"/>
            <polygon points="257.57 89.68 256.14 90.5 256.14 88.99 257.57 88.16 257.57 89.68" fill="#fadae5" mix-blend-mode="multiply"/>
            <polygon points="248.05 61.94 249.49 62.77 249.49 61.26 248.05 60.43 248.05 61.94" fill="#fadae5" mix-blend-mode="multiply"/>
            <polygon points="248.05 65.38 249.49 66.21 249.49 64.7 248.05 63.87 248.05 65.38" fill="#fadae5" mix-blend-mode="multiply"/>
            <polygon points="248.05 68.81 249.49 69.64 249.49 68.13 248.05 67.3 248.05 68.81" fill="#fadae5" mix-blend-mode="multiply"/>
            <polygon points="248.05 72.25 249.49 73.07 249.49 71.56 248.05 70.73 248.05 72.25" fill="#fadae5" mix-blend-mode="multiply"/>
            <polygon points="248.05 75.68 249.49 76.51 249.49 75 248.05 74.17 248.05 75.68" fill="#fadae5" mix-blend-mode="multiply"/>
            <polygon points="248.05 79.11 249.49 79.94 249.49 78.43 248.05 77.6 248.05 79.11" fill="#fadae5" mix-blend-mode="multiply"/>
            <polygon points="248.05 82.81 249.49 83.64 249.49 82.13 248.05 81.3 248.05 82.81" fill="#fadae5" mix-blend-mode="multiply"/>
            <polygon points="248.05 86.24 249.49 87.07 249.49 85.56 248.05 84.73 248.05 86.24" fill="#fadae5" mix-blend-mode="multiply"/>
            <polygon points="248.05 89.68 249.49 90.5 249.49 88.99 248.05 88.16 248.05 89.68" fill="#fadae5" mix-blend-mode="multiply"/>
          </g>
          <g>
            <g>
              <polygon points="220.2 121.85 220.2 99.68 239.39 110.77 239.4 132.93 220.2 121.85" fill="#7a99a1"/>
              <polygon points="239.4 132.93 239.4 110.77 258.59 99.68 258.59 121.85 239.4 132.93" fill="#7a99a1"/>
              <path d="m239.39,86.76l-22.39,12.93,22.39,12.93,22.39-12.93-22.39-12.93Zm0,24.01l-19.19-11.08,19.19-11.08,19.19,11.08-19.19,11.08Z" fill="#dce1e2"/>
              <polygon points="217 99.68 217 77.52 239.4 90.45 239.4 112.61 217 99.68" fill="#94a8bf"/>
              <polygon points="239.4 112.61 239.4 90.45 261.79 77.52 261.79 99.68 239.4 112.61" fill="#94a8bf"/>
              <path d="m239.39,64.59l-22.39,12.93,22.39,12.93,22.39-12.93-22.39-12.93Zm0,24.01l-19.19-11.08,19.19-11.08,19.19,11.08-19.19,11.08Z" fill="#cbc8d6"/>
            </g>
            <g>
              <path d="m239.39,62.75l-19.19,11.08,19.19,11.08,19.19-11.08-19.19-11.08Zm0,14.96l-6.72-3.88,6.72-3.88,6.72,3.88-6.72,3.88Z" fill="#cbc8d6"/>
              <polygon points="220.2 77.52 220.2 73.83 239.4 84.91 239.4 88.6 220.2 77.52" fill="#94a8bf"/>
              <polygon points="239.4 88.6 239.4 84.91 258.59 73.83 258.59 77.52 239.4 88.6" fill="#94a8bf"/>
            </g>
            <g>
              <polygon points="239.39 76.08 232.68 72.2 239.39 68.32 246.11 72.2 239.39 76.08" fill="#cbc8d6"/>
              <polygon points="239.39 77.71 232.68 73.83 232.68 72.2 239.39 76.08 239.39 77.71" fill="#94a8bf"/>
              <polygon points="246.11 73.83 239.39 77.71 239.39 76.08 246.11 72.2 246.11 73.83" fill="#94a8bf"/>
            </g>
            <g mix-blend-mode="multiply">
              <polygon points="222.29 87.1 220.78 86.23 220.78 84.49 222.29 85.36 222.29 87.1" fill="#e4ddd3"/>
              <polygon points="226.73 89.66 225.22 88.79 225.22 87.05 226.73 87.92 226.73 89.66" fill="#e4ddd3"/>
              <polygon points="231.17 92.22 229.67 91.36 229.67 89.62 231.17 90.49 231.17 92.22" fill="#e4ddd3"/>
              <polygon points="235.61 94.79 234.11 93.92 234.11 92.18 235.61 93.05 235.61 94.79" fill="#e4ddd3"/>
              <polygon points="222.29 91.05 220.78 90.18 220.78 88.44 222.29 89.31 222.29 91.05" fill="#e4ddd3"/>
              <polygon points="226.73 93.61 225.22 92.74 225.22 91 226.73 91.87 226.73 93.61" fill="#e4ddd3"/>
              <polygon points="231.17 96.17 229.67 95.31 229.67 93.57 231.17 94.44 231.17 96.17" fill="#e4ddd3"/>
              <polygon points="235.61 98.74 234.11 97.87 234.11 96.13 235.61 97 235.61 98.74" fill="#e4ddd3"/>
              <polygon points="222.29 94.99 220.78 94.13 220.78 92.39 222.29 93.26 222.29 94.99" fill="#e4ddd3"/>
              <polygon points="226.73 97.56 225.22 96.69 225.22 94.95 226.73 95.82 226.73 97.56" fill="#e4ddd3"/>
              <polygon points="231.17 100.12 229.67 99.25 229.67 97.52 231.17 98.39 231.17 100.12" fill="#e4ddd3"/>
              <polygon points="235.61 102.69 234.11 101.82 234.11 100.08 235.61 100.95 235.61 102.69" fill="#e4ddd3"/>
              <polygon points="222.29 98.94 220.78 98.07 220.78 96.34 222.29 97.21 222.29 98.94" fill="#e4ddd3"/>
              <polygon points="226.73 101.51 225.22 100.64 225.22 98.9 226.73 99.77 226.73 101.51" fill="#e4ddd3"/>
              <polygon points="231.17 104.07 229.67 103.2 229.67 101.47 231.17 102.33 231.17 104.07" fill="#e4ddd3"/>
              <polygon points="235.61 106.64 234.11 105.77 234.11 104.03 235.61 104.9 235.61 106.64" fill="#e4ddd3"/>
            </g>
            <g mix-blend-mode="multiply">
              <polygon points="256.5 87.1 258.01 86.23 258.01 84.49 256.5 85.36 256.5 87.1" fill="#e4ddd3"/>
              <polygon points="252.06 89.66 253.57 88.79 253.57 87.05 252.06 87.92 252.06 89.66" fill="#e4ddd3"/>
              <polygon points="247.62 92.22 249.12 91.36 249.12 89.62 247.62 90.49 247.62 92.22" fill="#e4ddd3"/>
              <polygon points="243.18 94.79 244.68 93.92 244.68 92.18 243.18 93.05 243.18 94.79" fill="#e4ddd3"/>
              <polygon points="256.5 91.05 258.01 90.18 258.01 88.44 256.5 89.31 256.5 91.05" fill="#e4ddd3"/>
              <polygon points="252.06 93.61 253.57 92.74 253.57 91 252.06 91.87 252.06 93.61" fill="#e4ddd3"/>
              <polygon points="247.62 96.17 249.12 95.31 249.12 93.57 247.62 94.44 247.62 96.17" fill="#e4ddd3"/>
              <polygon points="243.18 98.74 244.68 97.87 244.68 96.13 243.18 97 243.18 98.74" fill="#e4ddd3"/>
              <polygon points="256.5 94.99 258.01 94.13 258.01 92.39 256.5 93.26 256.5 94.99" fill="#e4ddd3"/>
              <polygon points="252.06 97.56 253.57 96.69 253.57 94.95 252.06 95.82 252.06 97.56" fill="#e4ddd3"/>
              <polygon points="247.62 100.12 249.12 99.25 249.12 97.52 247.62 98.39 247.62 100.12" fill="#e4ddd3"/>
              <polygon points="243.18 102.69 244.68 101.82 244.68 100.08 243.18 100.95 243.18 102.69" fill="#e4ddd3"/>
              <polygon points="256.5 98.94 258.01 98.07 258.01 96.34 256.5 97.21 256.5 98.94" fill="#e4ddd3"/>
              <polygon points="252.06 101.51 253.57 100.64 253.57 98.9 252.06 99.77 252.06 101.51" fill="#e4ddd3"/>
              <polygon points="247.62 104.07 249.12 103.2 249.12 101.47 247.62 102.33 247.62 104.07" fill="#e4ddd3"/>
              <polygon points="243.18 106.64 244.68 105.77 244.68 104.03 243.18 104.9 243.18 106.64" fill="#e4ddd3"/>
            </g>
          </g>
          <g>
            <path d="m320.9,55.32v33.38c0,2.38,1.57,4.75,4.71,6.57,3.14,1.81,7.26,2.72,11.37,2.72,4.12,0,8.23-.91,11.37-2.72,3.14-1.81,4.71-4.19,4.71-6.57h0v-33.38h-32.17Z" fill="#a1b9a2"/>
            <path d="m320.9,55.33c0-2.38,1.57-4.75,4.71-6.57,3.14-1.81,7.26-2.72,11.37-2.72s8.23.91,11.37,2.72c3.14,1.81,4.71,4.19,4.71,6.57,0,2.38-1.57,4.75-4.71,6.57-3.14,1.81-7.26,2.72-11.37,2.72-4.12,0-8.23-.91-11.37-2.72-3.14-1.81-4.71-4.19-4.71-6.57Z" fill="#b9cfb7"/>
          </g>
          <g>
            <path d="m336.99,44.8l-7.5,4.33,7.5,4.33,7.5-4.33-7.5-4.33Z" fill="#b9cfb7"/>
            <polygon points="336.99 59.66 329.48 55.33 329.48 49.14 336.99 53.47 336.99 59.66" fill="#a1b9a2"/>
            <polygon points="344.49 55.33 336.99 59.66 336.99 53.47 344.49 49.14 344.49 55.33" fill="#a1b9a2"/>
          </g>
          <g mix-blend-mode="multiply">
            <path d="m335.63,92.64c-3.65-.18-7.22-1.07-10.01-2.68-1.94-1.12-3.28-2.46-4.02-3.88v1.15c.74,1.42,2.08,2.76,4.02,3.88,2.79,1.61,6.36,2.51,10.01,2.68v-1.15Z" fill="#d8def3"/>
            <path d="m352.38,86.08c-.74,1.42-2.08,2.76-4.02,3.88-2.79,1.61-6.36,2.51-10.01,2.68v1.15c3.65-.18,7.22-1.07,10.01-2.68,1.94-1.12,3.28-2.46,4.02-3.88v-1.15Z" fill="#d8def3"/>
            <path d="m335.63,89.97c-3.65-.18-7.22-1.07-10.01-2.68-1.94-1.12-3.28-2.46-4.02-3.88v1.15c.74,1.42,2.08,2.76,4.02,3.88,2.79,1.61,6.36,2.51,10.01,2.68v-1.15Z" fill="#d8def3"/>
            <path d="m352.38,83.41c-.74,1.42-2.08,2.76-4.02,3.88-2.79,1.61-6.36,2.51-10.01,2.68v1.15c3.65-.18,7.22-1.07,10.01-2.68,1.94-1.12,3.28-2.46,4.02-3.88v-1.15Z" fill="#d8def3"/>
            <path d="m335.63,87.31c-3.65-.18-7.22-1.07-10.01-2.68-1.94-1.12-3.28-2.46-4.02-3.88v1.15c.74,1.42,2.08,2.76,4.02,3.88,2.79,1.61,6.36,2.51,10.01,2.68v-1.15Z" fill="#d8def3"/>
            <path d="m352.38,80.75c-.74,1.42-2.08,2.76-4.02,3.88-2.79,1.61-6.36,2.51-10.01,2.68v1.15c3.65-.18,7.22-1.07,10.01-2.68,1.94-1.12,3.28-2.46,4.02-3.88v-1.15Z" fill="#d8def3"/>
            <path d="m335.63,84.64c-3.65-.18-7.22-1.07-10.01-2.68-1.94-1.12-3.28-2.46-4.02-3.88v1.15c.74,1.42,2.08,2.76,4.02,3.88,2.79,1.61,6.36,2.51,10.01,2.68v-1.15Z" fill="#d8def3"/>
            <path d="m352.38,78.08c-.74,1.42-2.08,2.76-4.02,3.88-2.79,1.61-6.36,2.51-10.01,2.68v1.15c3.65-.18,7.22-1.07,10.01-2.68,1.94-1.12,3.28-2.46,4.02-3.88v-1.15Z" fill="#d8def3"/>
            <path d="m335.63,81.98c-3.65-.18-7.22-1.07-10.01-2.68-1.94-1.12-3.28-2.46-4.02-3.88v1.15c.74,1.42,2.08,2.76,4.02,3.88,2.79,1.61,6.36,2.51,10.01,2.68v-1.15Z" fill="#d8def3"/>
            <path d="m352.38,75.41c-.74,1.42-2.08,2.76-4.02,3.88-2.79,1.61-6.36,2.51-10.01,2.68v1.15c3.65-.18,7.22-1.07,10.01-2.68,1.94-1.12,3.28-2.46,4.02-3.88v-1.15Z" fill="#d8def3"/>
            <path d="m335.63,79.31c-3.65-.18-7.22-1.07-10.01-2.68-1.94-1.12-3.28-2.46-4.02-3.88v1.15c.74,1.42,2.08,2.76,4.02,3.88,2.79,1.61,6.36,2.51,10.01,2.68v-1.15Z" fill="#d8def3"/>
            <path d="m352.38,72.75c-.74,1.42-2.08,2.76-4.02,3.88-2.79,1.61-6.36,2.51-10.01,2.68v1.15c3.65-.18,7.22-1.07,10.01-2.68,1.94-1.12,3.28-2.46,4.02-3.88v-1.15Z" fill="#d8def3"/>
            <path d="m335.63,76.64c-3.65-.18-7.22-1.07-10.01-2.68-1.94-1.12-3.28-2.46-4.02-3.88v1.15c.74,1.42,2.08,2.76,4.02,3.88,2.79,1.61,6.36,2.51,10.01,2.68v-1.15Z" fill="#d8def3"/>
            <path d="m352.38,70.08c-.74,1.42-2.08,2.76-4.02,3.88-2.79,1.61-6.36,2.51-10.01,2.68v1.15c3.65-.18,7.22-1.07,10.01-2.68,1.94-1.12,3.28-2.46,4.02-3.88v-1.15Z" fill="#d8def3"/>
            <path d="m335.63,73.98c-3.65-.18-7.22-1.07-10.01-2.68-1.94-1.12-3.28-2.46-4.02-3.88v1.15c.74,1.42,2.08,2.76,4.02,3.88,2.79,1.61,6.36,2.51,10.01,2.68v-1.15Z" fill="#d8def3"/>
            <path d="m352.38,67.42c-.74,1.42-2.08,2.76-4.02,3.88-2.79,1.61-6.36,2.51-10.01,2.68v1.15c3.65-.18,7.22-1.07,10.01-2.68,1.94-1.12,3.28-2.46,4.02-3.88v-1.15Z" fill="#d8def3"/>
            <path d="m335.63,71.31c-3.65-.18-7.22-1.07-10.01-2.68-1.94-1.12-3.28-2.46-4.02-3.88v1.15c.74,1.42,2.08,2.76,4.02,3.88,2.79,1.61,6.36,2.51,10.01,2.68v-1.15Z" fill="#d8def3"/>
            <path d="m352.38,64.75c-.74,1.42-2.08,2.76-4.02,3.88-2.79,1.61-6.36,2.51-10.01,2.68v1.15c3.65-.18,7.22-1.07,10.01-2.68,1.94-1.12,3.28-2.46,4.02-3.88v-1.15Z" fill="#d8def3"/>
            <path d="m335.63,68.65c-3.65-.18-7.22-1.07-10.01-2.68-1.94-1.12-3.28-2.46-4.02-3.88v1.15c.74,1.42,2.08,2.76,4.02,3.88,2.79,1.61,6.36,2.51,10.01,2.68v-1.15Z" fill="#d8def3"/>
            <path d="m352.38,62.09c-.74,1.42-2.08,2.76-4.02,3.88-2.79,1.61-6.36,2.51-10.01,2.68v1.15c3.65-.18,7.22-1.07,10.01-2.68,1.94-1.12,3.28-2.46,4.02-3.88v-1.15Z" fill="#d8def3"/>
          </g>
          <g>
            <polygon points="268.22 107.7 268.22 34.47 287.42 45.55 287.42 118.78 268.22 107.7" fill="#7a99a1"/>
            <polygon points="287.42 118.78 287.42 45.55 306.61 34.47 306.61 107.7 287.42 118.78" fill="#7a99a1"/>
            <path d="m287.42,23.39l-19.19,11.08,19.19,11.08,19.19-11.08-19.19-11.08Zm0,20.32l-16-9.23,16-9.23,16,9.23-16,9.23Z" fill="#a8c9d1"/>
            <polygon points="271.42 31.55 287.42 40.79 287.42 43.7 271.42 34.47 271.42 31.55" fill="#8eb0bf"/>
            <polygon points="287.42 40.79 303.41 31.55 303.41 34.47 287.42 43.7 287.42 40.79" fill="#8eb0bf"/>
            <path d="m287.42,22.32l-16,9.23,16,9.23,16-9.23-16-9.23Zm0,16.62l-12.8-7.39,12.8-7.39,12.8,7.39-12.8,7.39Z" fill="#a8c9d1"/>
            <polygon points="274.62 28.5 287.42 35.89 287.42 38.94 274.62 31.55 274.62 28.5" fill="#8eb0bf"/>
            <polygon points="287.42 35.89 300.21 28.5 300.21 31.55 287.42 38.94 287.42 35.89" fill="#8eb0bf"/>
            <path d="m287.42,21.11l-12.8,7.39,12.8,7.39,12.8-7.39-12.8-7.39Z" fill="#a8c9d1"/>
          </g>
          <g mix-blend-mode="multiply">
            <g>
              <polygon points="290.53 116.99 290.53 46.98 289.46 47.6 289.46 117.6 290.53 116.99" fill="#e4d3e7"/>
              <polygon points="293.38 115.34 293.38 45.34 292.31 45.96 292.31 115.96 293.38 115.34" fill="#e4d3e7"/>
              <polygon points="296.24 113.69 296.24 43.69 295.17 44.31 295.17 114.31 296.24 113.69" fill="#e4d3e7"/>
              <polygon points="299.09 112.04 299.09 42.04 298.02 42.66 298.02 112.66 299.09 112.04" fill="#e4d3e7"/>
              <polygon points="301.94 110.4 301.94 40.4 300.87 41.01 300.87 111.02 301.94 110.4" fill="#e4d3e7"/>
              <polygon points="304.79 108.75 304.79 38.75 303.72 39.37 303.72 109.37 304.79 108.75" fill="#e4d3e7"/>
              <polygon points="284.3 116.99 284.3 46.98 285.37 47.6 285.37 117.6 284.3 116.99" fill="#e4d3e7"/>
              <polygon points="281.45 115.34 281.45 45.34 282.52 45.96 282.52 115.96 281.45 115.34" fill="#e4d3e7"/>
              <polygon points="278.6 113.69 278.6 43.69 279.67 44.31 279.67 114.31 278.6 113.69" fill="#e4d3e7"/>
              <polygon points="275.75 112.04 275.75 42.04 276.82 42.66 276.82 112.66 275.75 112.04" fill="#e4d3e7"/>
              <polygon points="272.89 110.4 272.89 40.4 273.96 41.01 273.96 111.02 272.89 110.4" fill="#e4d3e7"/>
              <polygon points="270.04 108.75 270.04 38.75 271.11 39.37 271.11 109.37 270.04 108.75" fill="#e4d3e7"/>
            </g>
            <g>
              <polygon points="290.53 116.99 290.53 46.98 289.46 47.6 289.46 117.6 290.53 116.99" fill="#d8def3"/>
              <polygon points="293.38 115.34 293.38 45.34 292.31 45.96 292.31 115.96 293.38 115.34" fill="#d8def3"/>
              <polygon points="296.24 113.69 296.24 43.69 295.17 44.31 295.17 114.31 296.24 113.69" fill="#d8def3"/>
              <polygon points="299.09 112.04 299.09 42.04 298.02 42.66 298.02 112.66 299.09 112.04" fill="#d8def3"/>
              <polygon points="301.94 110.4 301.94 40.4 300.87 41.01 300.87 111.02 301.94 110.4" fill="#d8def3"/>
              <polygon points="304.79 108.75 304.79 38.75 303.72 39.37 303.72 109.37 304.79 108.75" fill="#d8def3"/>
              <polygon points="284.3 116.99 284.3 46.98 285.37 47.6 285.37 117.6 284.3 116.99" fill="#d8def3"/>
              <polygon points="281.45 115.34 281.45 45.34 282.52 45.96 282.52 115.96 281.45 115.34" fill="#d8def3"/>
              <polygon points="278.6 113.69 278.6 43.69 279.67 44.31 279.67 114.31 278.6 113.69" fill="#d8def3"/>
              <polygon points="275.75 112.04 275.75 42.04 276.82 42.66 276.82 112.66 275.75 112.04" fill="#d8def3"/>
              <polygon points="272.89 110.4 272.89 40.4 273.96 41.01 273.96 111.02 272.89 110.4" fill="#d8def3"/>
              <polygon points="270.04 108.75 270.04 38.75 271.11 39.37 271.11 109.37 270.04 108.75" fill="#d8def3"/>
            </g>
          </g>
          <g>
            <g>
              <polygon points="246.77 104.52 259.57 111.91 259.57 146.87 246.77 139.49 246.77 104.52" fill="#a1b9a2"/>
              <polygon points="285.16 132.1 259.57 146.87 259.57 111.91 285.16 97.13 285.16 132.1" fill="#a1b9a2"/>
              <path d="m285.16,97.13l-12.8-7.39-25.59,14.78,12.8,7.39,25.59-14.78Zm-17.17,4.86l-6.72,3.88-4.05-2.34,6.72-3.88,4.05,2.34Z" fill="#b0cfa2"/>
            </g>
            <g>
              <polygon points="261.41 133.18 262.9 134.05 262.9 146.68 261.41 145.81 261.41 133.18" fill="#b0cfa2"/>
              <polygon points="284.64 134.13 262.9 146.68 262.9 134.05 284.64 121.5 284.64 134.13" fill="#a1b9a2"/>
              <path d="m284.64,121.5l-1.49-.86-21.74,12.55,1.49.86,21.74-12.55Z" fill="#f6f6fb"/>
            </g>
            <g>
              <polygon points="261.28 104.24 268 100.36 263.94 98.02 257.22 101.9 261.28 104.24" fill="#b0cfa2"/>
              <polygon points="268 101.99 261.28 105.87 261.28 104.24 268 100.36 268 101.99" fill="#a1b9a2"/>
              <polygon points="261.28 105.87 257.22 103.53 257.22 101.9 261.28 104.24 261.28 105.87" fill="#a1b9a2"/>
            </g>
            <polygon points="261.41 133.18 262.9 134.05 284.64 121.5 283.15 120.63 261.41 133.18" fill="#b0cfa2"/>
            <g mix-blend-mode="multiply">
              <polygon points="266.11 144.82 266.11 134.51 265.04 135.13 265.04 145.44 266.11 144.82" fill="#d8def3"/>
              <polygon points="268.86 143.24 268.86 132.93 267.79 133.55 267.79 143.85 268.86 143.24" fill="#d8def3"/>
              <polygon points="271.6 141.65 271.6 131.34 270.53 131.96 270.53 142.27 271.6 141.65" fill="#d8def3"/>
              <polygon points="274.35 140.07 274.35 129.76 273.28 130.38 273.28 140.68 274.35 140.07" fill="#d8def3"/>
              <polygon points="277.1 138.48 277.1 128.17 276.03 128.79 276.03 139.1 277.1 138.48" fill="#d8def3"/>
              <polygon points="279.84 136.9 279.84 126.59 278.77 127.2 278.77 137.51 279.84 136.9" fill="#d8def3"/>
              <polygon points="282.59 135.31 282.59 125 281.52 125.62 281.52 135.93 282.59 135.31" fill="#d8def3"/>
            </g>
            <g mix-blend-mode="multiply">
              <polygon points="278.26 108.16 279.76 107.29 279.76 105.55 278.26 106.42 278.26 108.16" fill="#d8def3"/>
              <polygon points="273.82 110.72 275.32 109.85 275.32 108.11 273.82 108.98 273.82 110.72" fill="#d8def3"/>
              <polygon points="269.37 113.29 270.88 112.42 270.88 110.68 269.37 111.55 269.37 113.29" fill="#d8def3"/>
              <polygon points="264.93 115.85 266.44 114.98 266.44 113.24 264.93 114.11 264.93 115.85" fill="#d8def3"/>
              <polygon points="278.26 112.11 279.76 111.24 279.76 109.5 278.26 110.37 278.26 112.11" fill="#d8def3"/>
              <polygon points="273.82 114.67 275.32 113.8 275.32 112.06 273.82 112.93 273.82 114.67" fill="#d8def3"/>
              <polygon points="269.37 117.24 270.88 116.37 270.88 114.63 269.37 115.5 269.37 117.24" fill="#d8def3"/>
              <polygon points="264.93 119.8 266.44 118.93 266.44 117.19 264.93 118.06 264.93 119.8" fill="#d8def3"/>
              <polygon points="278.26 116.06 279.76 115.19 279.76 113.45 278.26 114.32 278.26 116.06" fill="#d8def3"/>
              <polygon points="273.82 118.62 275.32 117.75 275.32 116.01 273.82 116.88 273.82 118.62" fill="#d8def3"/>
              <polygon points="269.37 121.19 270.88 120.32 270.88 118.58 269.37 119.45 269.37 121.19" fill="#d8def3"/>
              <polygon points="264.93 123.75 266.44 122.88 266.44 121.14 264.93 122.01 264.93 123.75" fill="#d8def3"/>
              <polygon points="278.26 120.01 279.76 119.14 279.76 117.4 278.26 118.27 278.26 120.01" fill="#d8def3"/>
              <polygon points="273.82 122.57 275.32 121.7 275.32 119.96 273.82 120.83 273.82 122.57" fill="#d8def3"/>
              <polygon points="269.37 125.13 270.88 124.27 270.88 122.53 269.37 123.4 269.37 125.13" fill="#d8def3"/>
              <polygon points="264.93 127.7 266.44 126.83 266.44 125.09 264.93 125.96 264.93 127.7" fill="#d8def3"/>
              <polygon points="253.93 115.15 252.42 114.28 252.42 112.54 253.93 113.41 253.93 115.15" fill="#d8def3"/>
              <polygon points="253.93 119.1 252.42 118.23 252.42 116.49 253.93 117.36 253.93 119.1" fill="#d8def3"/>
              <polygon points="253.93 123.05 252.42 122.18 252.42 120.44 253.93 121.31 253.93 123.05" fill="#d8def3"/>
              <polygon points="253.93 127 252.42 126.13 252.42 124.39 253.93 125.26 253.93 127" fill="#d8def3"/>
              <polygon points="253.93 130.79 252.42 129.92 252.42 128.18 253.93 129.05 253.93 130.79" fill="#d8def3"/>
              <polygon points="253.93 134.57 252.42 133.7 252.42 131.96 253.93 132.83 253.93 134.57" fill="#d8def3"/>
              <polygon points="253.93 138.36 252.42 137.49 252.42 135.75 253.93 136.62 253.93 138.36" fill="#d8def3"/>
            </g>
          </g>
          <g>
            <g>
              <polygon points="334.14 119.39 334.14 97.22 346.94 104.61 346.94 126.77 334.14 119.39" fill="#93bec0"/>
              <polygon points="346.94 126.77 346.94 104.61 359.74 97.22 359.73 119.39 346.94 126.77" fill="#93bec0"/>
              <polygon points="359.73 97.22 346.94 89.83 334.14 97.22 346.94 104.61 359.73 97.22" fill="#c0cec9"/>
            </g>
            <g mix-blend-mode="multiply">
              <polygon points="354.04 106.09 352.63 106.9 352.63 105.42 354.04 104.61 354.04 106.09" fill="#d8def3"/>
              <polygon points="354.04 109.45 352.63 110.27 352.63 108.79 354.04 107.97 354.04 109.45" fill="#d8def3"/>
              <polygon points="354.04 112.82 352.63 113.63 352.63 112.15 354.04 111.34 354.04 112.82" fill="#d8def3"/>
              <polygon points="354.04 116.18 352.63 116.99 352.63 115.51 354.04 114.7 354.04 116.18" fill="#d8def3"/>
              <polygon points="354.04 119.55 352.63 120.36 352.63 118.88 354.04 118.07 354.04 119.55" fill="#d8def3"/>
            </g>
            <g mix-blend-mode="multiply">
              <polygon points="339.84 106.09 341.24 106.9 341.24 105.42 339.84 104.61 339.84 106.09" fill="#d8def3"/>
              <polygon points="339.84 109.45 341.24 110.27 341.24 108.79 339.84 107.97 339.84 109.45" fill="#d8def3"/>
              <polygon points="339.84 112.82 341.24 113.63 341.24 112.15 339.84 111.34 339.84 112.82" fill="#d8def3"/>
              <polygon points="339.84 116.18 341.24 116.99 341.24 115.51 339.84 114.7 339.84 116.18" fill="#d8def3"/>
              <polygon points="339.84 119.55 341.24 120.36 341.24 118.88 339.84 118.07 339.84 119.55" fill="#d8def3"/>
            </g>
          </g>
          <g>
            <g>
              <polygon points="324.36 147.86 324.36 96.14 343.55 85.06 343.55 136.78 324.36 147.86" fill="#bcadb8"/>
              <polygon points="305.16 136.78 305.16 85.06 324.36 96.14 324.36 147.86 305.16 136.78" fill="#bcadb8"/>
              <polygon points="324.36 96.14 305.16 85.06 324.36 73.98 343.55 85.06 324.36 96.14" fill="#cec0d3"/>
            </g>
            <polygon points="324.36 94.45 324.36 69.15 308.1 85.06 324.36 94.45" fill="#bcadb8"/>
            <polygon points="340.62 85.06 324.36 69.15 324.36 94.45 340.62 85.06" fill="#bcadb8"/>
            <g mix-blend-mode="multiply">
              <polygon points="340.78 92 327.13 99.88 327.13 98.61 340.78 90.73 340.78 92" fill="#fadae5"/>
              <polygon points="340.78 95.05 327.13 102.93 327.13 101.67 340.78 93.79 340.78 95.05" fill="#fadae5"/>
              <polygon points="340.78 98.11 327.13 105.99 327.13 104.72 340.78 96.84 340.78 98.11" fill="#fadae5"/>
              <polygon points="340.78 101.16 327.13 109.04 327.13 107.78 340.78 99.9 340.78 101.16" fill="#fadae5"/>
              <polygon points="340.78 104.22 327.13 112.1 327.13 110.83 340.78 102.95 340.78 104.22" fill="#fadae5"/>
              <polygon points="340.78 107.27 327.13 115.15 327.13 113.89 340.78 106.01 340.78 107.27" fill="#fadae5"/>
              <polygon points="340.78 110.33 327.13 118.21 327.13 116.94 340.78 109.06 340.78 110.33" fill="#fadae5"/>
              <polygon points="340.78 113.38 327.13 121.26 327.13 120 340.78 112.12 340.78 113.38" fill="#fadae5"/>
              <polygon points="340.78 116.44 327.13 124.32 327.13 123.05 340.78 115.17 340.78 116.44" fill="#fadae5"/>
              <polygon points="340.78 119.49 327.13 127.37 327.13 126.11 340.78 118.23 340.78 119.49" fill="#fadae5"/>
              <polygon points="340.78 122.55 327.13 130.43 327.13 129.16 340.78 121.28 340.78 122.55" fill="#fadae5"/>
              <polygon points="340.78 125.6 327.13 133.48 327.13 132.22 340.78 124.34 340.78 125.6" fill="#fadae5"/>
              <polygon points="340.78 128.66 327.13 136.54 327.13 135.27 340.78 127.39 340.78 128.66" fill="#fadae5"/>
              <polygon points="340.78 131.71 327.13 139.59 327.13 138.33 340.78 130.45 340.78 131.71" fill="#fadae5"/>
            </g>
            <g mix-blend-mode="multiply">
              <polygon points="307.94 92 321.58 99.88 321.58 98.61 307.94 90.73 307.94 92" fill="#fadae5"/>
              <polygon points="307.94 95.05 321.58 102.93 321.58 101.67 307.94 93.79 307.94 95.05" fill="#fadae5"/>
              <polygon points="307.94 98.11 321.58 105.99 321.58 104.72 307.94 96.84 307.94 98.11" fill="#fadae5"/>
              <polygon points="307.94 101.16 321.58 109.04 321.58 107.78 307.94 99.9 307.94 101.16" fill="#fadae5"/>
              <polygon points="307.94 104.22 321.58 112.1 321.58 110.83 307.94 102.95 307.94 104.22" fill="#fadae5"/>
              <polygon points="307.94 107.27 321.58 115.15 321.58 113.89 307.94 106.01 307.94 107.27" fill="#fadae5"/>
              <polygon points="307.94 110.33 321.58 118.21 321.58 116.94 307.94 109.06 307.94 110.33" fill="#fadae5"/>
              <polygon points="307.94 113.38 321.58 121.26 321.58 120 307.94 112.12 307.94 113.38" fill="#fadae5"/>
              <polygon points="307.94 116.44 321.58 124.32 321.58 123.05 307.94 115.17 307.94 116.44" fill="#fadae5"/>
              <polygon points="307.94 119.49 321.58 127.37 321.58 126.11 307.94 118.23 307.94 119.49" fill="#fadae5"/>
              <polygon points="307.94 122.55 321.58 130.43 321.58 129.16 307.94 121.28 307.94 122.55" fill="#fadae5"/>
              <polygon points="307.94 125.6 321.58 133.48 321.58 132.22 307.94 124.34 307.94 125.6" fill="#fadae5"/>
              <polygon points="307.94 128.66 321.58 136.54 321.58 135.27 307.94 127.39 307.94 128.66" fill="#fadae5"/>
              <polygon points="307.94 131.71 321.58 139.59 321.58 138.33 307.94 130.45 307.94 131.71" fill="#fadae5"/>
            </g>
          </g>
          <g>
            <g>
              <polygon points="294.8 164.92 294.81 120.59 314 109.51 314 153.84 294.8 164.92" fill="#93bec0"/>
              <polygon points="275.61 153.84 275.61 109.51 294.81 120.59 294.8 164.92 275.61 153.84" fill="#93bec0"/>
              <path d="m294.8,98.43l-19.19,11.08,19.19,11.08,19.19-11.08-19.19-11.08Zm-15.25,11.08l15.25-8.8,15.25,8.81-15.25,8.8-15.25-8.81Z" fill="#c0cec9"/>
              <path d="m294.8,65.83l-8.96,5.17,8.96,5.17,8.96-5.17-8.96-5.17Z" fill="#c0cec9"/>
              <polygon points="279.55 109.51 279.55 83.65 294.81 92.46 294.81 118.32 279.55 109.51" fill="#93bec0"/>
              <polygon points="279.55 83.65 285.85 78.39 294.8 83.56 294.81 92.46 279.55 83.65" fill="#c0cec9"/>
              <polygon points="294.8 83.56 285.85 78.39 285.85 71 294.8 76.17 294.8 83.56" fill="#93bec0"/>
              <polygon points="294.8 118.32 294.8 92.46 310.06 83.65 310.06 109.51 294.8 118.32" fill="#93bec0"/>
              <polygon points="294.8 92.46 294.8 83.56 303.76 78.39 310.06 83.65 294.8 92.46" fill="#c0cec9"/>
              <polygon points="303.76 78.39 294.8 83.56 294.8 76.17 303.76 71 303.76 78.39" fill="#93bec0"/>
            </g>
            <g>
              <path d="m297.91,69.71l-3.1,1.79v1.29s3.1-1.79,3.1-1.79v-1.29Z" fill="#8499a8"/>
              <path d="m291.7,71l3.1,1.79v-1.29s-3.1-1.79-3.1-1.79v1.29Z" fill="#8499a8"/>
              <path d="m294.8,67.92l-3.1,1.79,3.1,1.79,3.1-1.79-3.1-1.79Z" fill="#c0cec9"/>
            </g>
            <g mix-blend-mode="multiply">
              <polygon points="290.68 162.54 290.68 121.11 291.75 121.73 291.75 163.16 290.68 162.54" fill="#dae0f5"/>
              <polygon points="287.61 160.77 287.61 119.34 288.68 119.96 288.68 161.39 287.61 160.77" fill="#dae0f5"/>
              <polygon points="284.54 158.99 284.54 117.57 285.61 118.18 285.61 159.61 284.54 158.99" fill="#dae0f5"/>
              <polygon points="281.47 157.22 281.47 115.79 282.54 116.41 282.54 157.84 281.47 157.22" fill="#dae0f5"/>
              <polygon points="278.39 155.45 278.39 114.02 279.46 114.64 279.46 156.06 278.39 155.45" fill="#dae0f5"/>
            </g>
            <g mix-blend-mode="multiply">
              <polygon points="298.93 162.54 298.93 121.11 297.86 121.73 297.86 163.16 298.93 162.54" fill="#dae0f5"/>
              <polygon points="302 160.77 302 119.34 300.93 119.96 300.93 161.39 302 160.77" fill="#dae0f5"/>
              <polygon points="305.07 158.99 305.07 117.57 304 118.18 304 159.61 305.07 158.99" fill="#dae0f5"/>
              <polygon points="308.14 157.22 308.14 115.79 307.07 116.41 307.07 157.84 308.14 157.22" fill="#dae0f5"/>
              <polygon points="311.22 155.45 311.22 114.02 310.15 114.64 310.15 156.06 311.22 155.45" fill="#dae0f5"/>
            </g>
          </g>
          <g>
            <polygon points="267.79 160.11 267.19 159.76 267.19 152.96 267.79 153.31 267.79 160.11" fill="#b38750"/>
            <polygon points="267.79 160.11 268.39 159.76 268.39 152.96 267.79 153.31 267.79 160.11" fill="#b38750"/>
            <path d="m274.43,151.35l-6.64-9.85s-6.74,10-6.79,10.07c-.28.45-.42.92-.42,1.39,0,1.06.7,2.13,2.11,2.94,2.81,1.63,7.37,1.63,10.19,0,1.41-.81,2.11-1.87,2.11-2.94,0-.55-.19-1.1-.56-1.61Z" fill="#7eb6a1"/>
            <path d="m273.61,147.36l-5.82-8.63-5.82,8.63c-.33.45-.49.93-.49,1.41,0,.93.62,1.87,1.85,2.58,2.47,1.42,6.46,1.42,8.93,0,1.23-.71,1.85-1.64,1.85-2.58,0-.48-.17-.96-.49-1.41Z" fill="#7ea485"/>
            <path d="m272.87,144.07c-.03-.05-5.08-7.54-5.08-7.54,0,0-5.05,7.48-5.08,7.54-.21.34-.31.69-.31,1.04,0,.8.53,1.59,1.58,2.2,2.11,1.22,5.52,1.22,7.62,0,1.05-.61,1.58-1.4,1.58-2.2,0-.35-.1-.71-.31-1.04Z" fill="#92b7a1"/>
          </g>
          <g>
            <polygon points="354.84 139.73 354.31 139.43 354.31 133.51 354.84 133.81 354.84 139.73" fill="#b38750"/>
            <polygon points="354.84 139.73 355.36 139.43 355.36 133.51 354.84 133.81 354.84 139.73" fill="#b38750"/>
            <path d="m360.62,132.11l-5.78-8.57s-5.87,8.69-5.9,8.76c-.24.39-.36.8-.36,1.21,0,.93.61,1.85,1.84,2.56,2.45,1.41,6.41,1.41,8.86,0,1.22-.71,1.83-1.63,1.83-2.56,0-.48-.16-.95-.49-1.4Z" fill="#7eb6a1"/>
            <path d="m359.9,128.64l-5.06-7.51-5.06,7.51c-.29.39-.43.81-.43,1.23,0,.81.54,1.62,1.61,2.24,2.15,1.24,5.62,1.24,7.77,0,1.07-.62,1.61-1.43,1.61-2.24,0-.42-.14-.84-.43-1.23Z" fill="#7ea485"/>
            <path d="m359.26,125.78s-4.42-6.55-4.42-6.55c0,0-4.39,6.51-4.42,6.55-.18.29-.27.6-.27.91,0,.69.46,1.39,1.37,1.91,1.83,1.06,4.8,1.06,6.63,0,.92-.53,1.37-1.22,1.37-1.91,0-.31-.09-.61-.27-.91Z" fill="#92b7a1"/>
          </g>
          <g>
            <polygon points="230.42 137.56 229.82 137.21 229.82 130.41 230.42 130.76 230.42 137.56" fill="#b38750"/>
            <polygon points="230.42 137.56 231.02 137.21 231.02 130.41 230.42 130.76 230.42 137.56" fill="#b38750"/>
            <path d="m237.06,128.8l-6.64-9.85s-6.74,10-6.79,10.07c-.28.45-.42.92-.42,1.39,0,1.06.7,2.13,2.11,2.94,2.81,1.63,7.37,1.63,10.19,0,1.41-.81,2.11-1.87,2.11-2.94,0-.55-.19-1.1-.56-1.61Z" fill="#7eb6a1"/>
            <path d="m236.24,124.81l-5.82-8.63-5.82,8.63c-.33.45-.49.93-.49,1.41,0,.93.62,1.87,1.85,2.58,2.47,1.42,6.46,1.42,8.93,0,1.23-.71,1.85-1.64,1.85-2.58,0-.48-.17-.96-.49-1.41Z" fill="#7ea485"/>
            <path d="m235.5,121.53c-.03-.05-5.08-7.54-5.08-7.54,0,0-5.05,7.48-5.08,7.54-.21.34-.31.69-.31,1.04,0,.8.53,1.59,1.58,2.2,2.11,1.22,5.52,1.22,7.62,0,1.05-.61,1.58-1.4,1.58-2.2,0-.35-.1-.71-.31-1.04Z" fill="#92b7a1"/>
          </g>
        </g>
        <g>
          <g>
            <polygon points="79.45 83.53 87.19 99.94 84.07 103.36 73.33 85.7 79.45 83.53" fill="#f1cfcd"/>
            <path d="m59.11,166.85l.16-7.93c-.19-.75-1.19-.9-1.99-1.6-.36-.31-.87-.35-1.22-.09l-.76.55c-1.12.76-1.18.98-.94,1.97l1.46,5.87c.25.99,1.13,2.05,1.97,2.37l.24.09c.84.32,1.32-.23,1.08-1.22Z" fill="#001e26"/>
            <path d="m56.4,157.71s.75,4.85,1.99,5.16c0,0,.8.2.82-1.09.03-1.28.36-3.77.36-3.77l-3.17-.31Z" fill="#f1cfcd"/>
            <path d="m61.14,65.22s-5.81,1.14-7.24,3.36c-1.43,2.23,1.1,7.72,1.1,7.72v-2.87s-3.36-5.52,5.92-6.73c6.23-.81.23-1.49.23-1.49Z" fill="#001e26"/>
            <path d="m61.03,65.38s-9.59,6.21-6.04,12.22c3.56,6.01,13.2,8.6,13.2,8.6l3.92-20.2-11.08-.63Z" fill="#001e26"/>
            <path d="m76.37,164.03l-5.93-4.16c-.76-.31-2.36-.35-3.41-.15-.47.09-.78.47-.76.89l.06.92c.04,1.32.2,1.5,1.2,1.91l5.93,2.39c1,.4,2.42.36,3.16-.1l.21-.13c.74-.46.53-1.16-.47-1.57Z" fill="#001e26"/>
            <path d="m66.78,159.98c.07,1.84,3.81,2.5,3.88.63,4.54-17.32,5.12-33.16,5.99-51.48l-11.44-9.63c.92,15.89,2.37,29.35,2.09,43.08-.04,1.78-.92,3.66-1.02,5.37-.21,3.55.82,8.57.51,12.02Z" fill="#f1cfcd"/>
            <path d="m56.45,157.07c-.41,1.61,1.89,3.17,2.91,1.72,3.09-6.36,5.35-11.25,7.45-16.06,1.59-3.64,1.93-7.99,2.6-12.35,1.59-10.42-9.17-13.04-8.63-2.46.22,4.33.14,8.68-.39,13-.26,2.09-1.45,1.99-2.14,5.5-.7,3.57-.84,5.56-1.8,10.65Z" fill="#f1cfcd"/>
            <path d="m83.4,90.1l-7.18-12.82s-9.88,12.4-1,16l4.24,4.32,5.62-2.77-1.69-4.73Z" fill="#7285b1"/>
            <path d="m61.01,101.61c-4.98.1-.03,19.79-2,33.96,0,0,10.38,9.55,19.17,1.19l-.33-32.55-16.85-2.59Z" fill="#633750"/>
            <path d="m77.63,103.26c.29-3.48-1.38,3.47-1.32-.56.02-1.55.78-5.99,1.15-8.92.35-2.74,3.22-4.37,2.63-7.72-.08-1.82-3.3-5.2-3.44-6.53-.22-2.11-.37-4.05-4.8-6.13l-1.95.42c-.93.2-1.83.5-2.67.89-9.03,4.18-11,4.39-10.37,9.68.1,2.72,1.72.6,2.21,2.4.94,3.46,4.58,6.97,3.3,13.04-.26,1.22-1.22,2.06-.13,2.87,4.72,3.52,13.74,4.19,15.4.56Z" fill="#7285b1"/>
            <path d="m77.92,103.23c0,.13.01,0,0,0h0Z" fill="#ff5cab"/>
            <path d="m87.76,105.6l-1.71.97c-.83.47-1.91.45-2.38-.05l-.33-.35c-.48-.5-.19-1.3.65-1.78l1.71-.97c.83-.47,1.91-.45,2.38.05l.33.35c.48.5.19,1.3-.65,1.78Z" fill="#f1cfcd"/>
            <path d="m69.5,105.51l-.05-.36.61.17.09-.23,13.48-6.9c.16-.08.47-.08.69.02l6.67,2.84v-.08s1.2.36,1.2.36l.06.39h0s-.04.07-.09.1l-14.03,7.18c-.16.08-.47.08-.69-.02l-7.72-3.29c-.12-.05-.18-.12-.19-.18h0Z" fill="#bfc6c9"/>
            <path d="m78.05,108.6l14.03-7.18c.16-.08.12-.23-.1-.32l-7.72-3.29c-.22-.09-.52-.1-.69-.02l-14.03,7.18c-.16.08-.12.23.1.32l7.72,3.29c.22.09.52.1.69.02Z" fill="#dde5e8"/>
            <path d="m76.35,104.09l3.39-1.74s.03-.05-.02-.08l-1.87-.8c-.05-.02-.13-.02-.17,0l-3.39,1.74s-.03.05.02.08l1.87.8c.05.02.13.02.17,0Z" fill="#bfc6c9"/>
            <path d="m70.27,105.57c-5.03-.2-9.53-1.56-13.59-3.93-1.09-.64-1.78-1.79-1.81-3.01-.06-2.8-.03-7.76.92-8.57l4.34,4.98-.2,2.77c4.74,2.09,7.23,4.56,10.13,5.44l.21,2.31Z" fill="#f1cfcd"/>
            <path d="m62.36,76.94s3.31,7.94,8.13,5.87c4.81-2.07,1.33-9.25,1.33-9.25,0,0-5,1.03-9.45,3.38Z" fill="#cedae2"/>
            <path d="m67.95,78.47l.32.06c1.08.22,2.07-.44,2.21-1.46l.78-5.74c.14-1.02-.63-2.03-1.71-2.25l-.32-.06c-1.08-.22-2.07.44-2.21,1.46l-1.61,5.34c-.14,1.02,1.46,2.43,2.54,2.64Z" fill="#f1cfcd"/>
            <path d="m78.49,101.06c.06-.31.37-.68.69-.84l14.82-7.42c.13-.07.24-.08.33-.06h0s0,0,0,0c.03,0,.06.02.08.04l.49.37h-.45s-1.43,7.1-1.43,7.1c-.06.31-.37.68-.69.84l-14.02,7.02-.45.42-.06.1c-.28.07-.96-.26-.96-.26l1.64-7.29Z" fill="#fff"/>
            <path d="m79.12,98.18c.06-.31.37-.68.69-.84l14.82-7.42c.13-.07.24-.08.33-.06h0s0,0,0,0c.03,0,.06.02.08.04l.49.37h-.45s-1.43,7.1-1.43,7.1c-.06.31-.37.68-.69.84l-14.02,7.02-.45.42-.06.1c-.28.07-.96-.26-.96-.26l1.64-7.29Z" fill="#fff"/>
            <path d="m95.1,90.3l-14.82,7.42c-.32.16-.63.54-.69.84l-1.45,7.18s0,0,0,.01l-.58,2.87c-.06.31.15.42.47.27l14.82-7.42c.32-.16.63-.54.69-.84l1.45-7.18s0,0,0-.01l.58-2.87c.06-.31-.15-.42-.47-.27Z" fill="#5691bb"/>
            <path d="m86.43,99.95c-.02.52.48.69,1.1.38.62-.31,1.14-.99,1.16-1.51.02-.52-.48-.69-1.1-.38-.62.31-1.14.99-1.16,1.51Z" fill="#fff"/>
            <path d="m67.79,161.28s4.24,1.73,5,1.22c.65-.43-2.49-2.48-2.49-2.48l-2.52,1.25Z" fill="#f1cfcd"/>
            <path d="m54.02,94.47c-.01-6.08,1.32-10.81,2.37-13.59.45-1.21,1.68-1.55,3.14-2.49.24-.15.14,1.25.4,1.45h0c1.59,1.2,2.43,3.32,2.12,5.35l-1.62,12.38,7.54,4.39s.75,2.83-1.18,4.43c0,0-11.28-4.41-12.02-5.41s-.74-6.51-.74-6.51Z" fill="#7285b1"/>
            <path d="m68.82,104.01h0c-.15.89.45,1.74,1.34,1.89l3.09.53c.89.15,1.74-.45,1.9-1.34h0c.15-.89-.45-1.74-1.34-1.89l-3.09-.53c-.89-.15-1.74.45-1.9,1.34Z" fill="#f1cfcd"/>
            <path d="m65.7,62.54c.92-1.47,2.31-1.73,3.61-.88,1.27-.52,2.81.24,3.94,2.17,1.58,2.68,1.42,6.4.44,8.74-.53,1.27-1.16,2.15-4.19,1.62-2.05-.39-3.21-1-4.37-2.97-1.58-2.68-.76-6.52.57-8.67Z" fill="#f1cfcd"/>
            <path d="m72.87,64.85c-3.64,5.63-5.76,4.02-5.85,4.9,0,0-.71,3-.71,3.01-.37,1.75-2.04.37-3.75.94h0s-5.59-6.47,1.36-11.67c4.71-3.52,11.22-.05,10.51,4.58l-1.55-1.74Z" fill="#001e26"/>
            <ellipse cx="66.41" cy="69.92" rx="1.28" ry="1.4" transform="translate(-27.75 90.71) rotate(-58.93)" fill="#f1cfcd"/>
          </g>
          <path d="m36.63,88.16c.71.17,1.37-.07,2-.14,1.97-.23,3.47-.03,4.71.68.3.17-.85,3.33-2.23,4.34-.07.05-.15-.03-.22-.06l-1.28-.41-3.47-1.16.5-3.25Z" fill="#db9669" fill-rule="evenodd"/>
          <path d="m37.78,88.17c1.26-.22,2.11-.77,2.82-.79.73-.02,1.78.57,3.11.71-.24,1.32-1.98.46-2.61.58-.58.11-.61.82-1.16.83-.85.02-2.08-.39-2.17-1.32Z" fill="#db9669" fill-rule="evenodd"/>
          <path d="m23.53,90.71c5.6.97,8.38.69,14.04,1.23-.62-2.15.53-4.08,1.4-4.29-4.78-1-10.59-2.59-15.53-2.57l.09,5.63Z" fill="#cee6f5" fill-rule="evenodd"/>
          <path d="m22.46,90.87c5.6.97,8.64.65,14.3,1.19-.8-2.29.42-4.59,1.42-4.79-4.78-1-10.59-2.59-15.53-2.57l-.19,6.16Z" fill="#a7a9ac"/>
          <path d="m10.66,168.36c.71-.09,1.27-.1,1.98-.36.18-.07.37-.77.38-1.39.03-1.28-.09-1.17-.62-3.21-.18-.69-.33-1.36-.58-2.17-.31-1.01-.7-1.9-.74-2.89l-3.75-.15-1.18-.05c-.35,1.02-.67,1.82-.64,2.46.03.67.11,1.32.21,2.16.43,3.76,3.64,5.75,4.94,5.59Z" fill="#111214" fill-rule="evenodd"/>
          <path d="m28.74,159.72c1.42.02.96-1.55-.24-2.4-2.52-1.79-4.25-2.96-5.43-4.61-.59-.82-.69-1.56-1.09-2.97-2.11-.07-4.16-.19-6.27-.34-.62,1.82-.98,1.58-.9,3.9.19,2.68,9.73,6.37,13.92,6.42Z" fill="#111214" fill-rule="evenodd"/>
          <g>
            <g>
              <path d="m14.13,110.98c-.24-1.91-.37-3.75-.3-5.42,1.71-.68,3.5-1.33,5.24-2.09l-.12-.1c1.84-.86,3.42-2.2,5.54-3.41.89,2.79,1.21,4.04,1.15,6.31-.09,2.96-.51,5.97-.99,8.97-.31,4.6-.72,9.39-1.02,12.53-.76,8.01-.67,15.9-1.15,23.89-1.15.85-5.78,1.73-7.41-.56l-.93-40.12Z" fill="#50546b"/>
              <path d="m6.96,105.32c.18-.37.39-.68.64-.9l4.95-.39,5.87-.68c.39,1.92.53,4.44-.04,6.97-.02.07-.06.17-.13.29-.06.42-.13.83-.22,1.25-.09.38-1.03,1.46-1.71,2.37-.61,6.16-1.79,14.72-2.48,19.09-1.25,7.94-.5,17.42-1.21,25.4-1.09,1.7-6.12,1.88-7.68-.23l2.01-53.17Z" fill="#50546b"/>
            </g>
            <g>
              <path d="m14.13,110.98c-.24-1.91-.37-3.75-.3-5.42,1.71-.68,3.5-1.33,5.24-2.09l-.12-.1c1.84-.86,3.42-2.2,5.54-3.41.89,2.79,1.21,4.04,1.15,6.31-.09,2.96-.51,5.97-.99,8.97-.31,4.6-.72,9.39-1.02,12.53-.76,8.01-.67,15.9-1.15,23.89-1.15.85-5.78,1.73-7.41-.56l-.93-40.12Z" fill="#50546b"/>
              <path d="m6.96,105.32c.18-.37.39-.68.64-.9l4.95-.39,5.87-.68c.39,1.92.53,4.44-.04,6.97-.02.07-.06.17-.13.29-.06.42-.13.83-.22,1.25-.09.38-1.03,1.46-1.71,2.37-.61,6.16-1.79,14.72-2.48,19.09-1.25,7.94-.5,17.42-1.21,25.4-1.09,1.7-6.12,1.88-7.68-.23l2.01-53.17Z" fill="#50546b"/>
            </g>
          </g>
          <path d="m20.58,66.84c1.98-.13,2.86.29,3.91,1.84,1.82,2.71,2.1,8.49,1.98,13.69-.07,2.95-.54,5.54-.58,9.21-.04,4.39,1.29,12.12,1.08,16.77-.4.86-3.22,2.3-3.59,2.23.36-4.63.46-10.86.28-17.23-.17-6.19-.61-12.52-1.76-17.22-1.7-6.9-4.62-7.64-4.32-8.57.06-.19,2.89-.71,3.01-.71Z" fill="#a7a9ac"/>
          <path d="m12.54,94.36c.08,1.07.1,2.04.08,2.94-2.84-2.59-5.51-5.9-8-9.49-1.28-3.59-2.43-7.19-2.41-9.74l10.33,16.29Z" fill="#11101a" fill-rule="evenodd"/>
          <path d="m24.53,100.16c-.02.14-.07.27-.16.39-1.82,2.53-13.21,6.34-15.59,6.15,1.89-16.45-15.33-30.45,3.12-35.87l5.31,2.92,1.9-.34.24-2.34c2.57,2.56,3.76,5.94,4.22,10.65.6,6.16-.69,11.68.96,18.44Z" fill="#dadef0"/>
          <path d="m6.11,72.98c.99-.55,3.01-1.79,5.19-3.01-1.84,2.2,2.6,7.49,4.66,14.08,1.21,3.89,3,17.26-.72,29.37-6.78,2.28-10.45-1.27-11.11-1.9.88-7.18,3.35-8.23,3.55-12.7.18-4.11-5.61-15.06-5.56-20.73.02-2.52,2.14-4.08,4-5.11Z" fill="#a7a9ac"/>
          <path d="m19.12,68.21c1.85.86,2.45,1.2,3.74,3.18l-1.12.78,1.56.66c.56,5.72,1.15,12.08.46,17.88-.29-5.66-1.26-11.46-2.67-16.22-.54-1.82-1.29-2.61-2.49-4.4-.2-.29.17-2.05.52-1.89Z" fill="#c8b9c3"/>
          <path d="m11.31,69.26c-.6.79-1.06,1.47-1.3,2.04-.72,1.76-.63,4.51.24,7.56l1.77-.66-.85,1.93c3.56,4.65,5.55,11.58,5.83,18.69,2.31-18.5-6.34-23.1-5.69-29.57Z" fill="#c8b9c3"/>
          <path d="m20.22,93.85c-.53-3.6-.93-11.92-1.94-15.53.13-.66.26-1.22.44-1.86-1.11-.95-1.16-.95-1.39-2.25.8-.73,1.24-.83,2.28-.73.28.19.4,1.11,0,2.5.29.09.67.18,1.18.51,1.02,7.02,2.44,10.45,1.9,17.11l-.71,1.56-1.77-1.31Z" fill="#3e4f5e" fill-rule="evenodd"/>
          <path d="m18.52,73.49c.13-.33.2-1.02.34-1.62.13-.53.33-.99.45-1.26.73.09,1.05,2.3,1.67,3.6-.96-.67-1.38-.73-2.45-.72Z" fill="#e8f6ff" fill-rule="evenodd"/>
          <path d="m11.71,68.9c-.15,2.36,4.33,4,6.83,4.59-.63.76-1.44,1.71-1.41,2.46-1.8-.49-4.86-1.34-6.1-3.64-.85-1.58-.15-2.79.67-3.41Z" fill="#e8f6ff" fill-rule="evenodd"/>
          <path d="m19.01,71.4c.08-.23.17-.45.26-.7.26-.69.26-2.16.71-3.79l-6.41-2.8-1.37-.73c.5,2.42.21,3.86-.48,5.57-.07,2.32,4.33,3.94,6.81,4.53.22-.56.24-1.39.48-2.09Z" fill="#f1cfcd"/>
          <path d="m22.46,60.69c-.05-.27-.39-1.51-.46-1.76-.8-2.99-2.79-5.35-6.45-5.4-1.88-.03-3.43.6-4.6,1.96-1.34,1.56-2.07,4.05-1.36,6.08.3.85.92,1.54,2.5,2.24.86,2.07.99,3.79,2.68,4.57.77.36,2.72.71,3.57,1.05,1.08.29,1.46.24,1.84.07,1.73-.75,2.9-5.33,2.28-8.81Z" fill="#f1cfcd"/>
          <path d="m20.39,57.13c.4.01.89-.22,1.22.61-.24-1.36-.65-1.48-1.49-1.61l.27,1Z" fill="#361d07" fill-rule="evenodd"/>
          <path d="m15.84,58.67c-2.56-.26-5.87-2.18-6.53-3.34-1.38,2.71-1.1,6.77,1.05,8.98.62,1.17,1.22,2.33,1.8,3.52.51-1.78.68-3.26.83-5.03l.11-.16c.15.31.52,1.07.65,1.38.16,0,.42-.23.65-.37-.45-2.36.18-4.11,1.44-4.98Z" fill="#361d07" fill-rule="evenodd"/>
          <path d="m15.5,58.83c2.69-.24,6.23-1.47,7.58-3.51-2.44.37-5.21-3.27-9.07-2.91-2.24.21-4.65,1.35-4.76,3.3.73.96,4,3.32,6.24,3.12Z" fill="#361d07" fill-rule="evenodd"/>
          <path d="m12.18,61.9c-1.44-.33-1.28,1.28-.97,2.24.22.66.77.55,1.02,1.06.31.61.83.85,1.24.79.85-.11.19-1.32.04-1.81.01-.83-.42-2.07-1.34-2.28Z" fill="#f1cfcd"/>
          <path d="m2.18,76.53c-1.46,3.98-1.67,12.11-1.34,17.4.16,2.69.48,4.79,2.64,5.4,2.04.58,3.82-1.5,4.23-3.63.49-2.53.82-5.63,1.52-10.96.74-5.68-5.09-13.54-7.03-8.22Z" fill="#a7a9ac"/>
          <g>
            <path d="m19.58,100.36l-.81-1.23-.02-2.43c1.05-.87.97-1.57,1.49-1.45,1.87.45,1.7,5.72-.66,5.11Z" fill="#a7a9ac"/>
            <g>
              <path d="m19.31,95.52c2.68.24,6.03-1.1,7.54-.13,1.3.84.74,2.79.03,3.73-.58.77-2.98.91-4.54,1.1-1.38.17-2.36-.97-3.34-.77-.9-1.14-.13-2.72.3-3.93Z" fill="#f1cfcd"/>
              <path d="m26.25,95.18c1.27,0,3.31-.1,4.58-.12.89-.02.58,1.35-.23,1.45-.79.09-2.89.27-2.89.27-.83-.05-1.68-.6-1.46-1.6Z" fill="#f1cfcd"/>
            </g>
            <path d="m1.41,95.89c.6,1.38.63,2.4,2.07,3.18.62.34,1.43.44,2.36.54,3.55.38,8.71.86,13.86.79-.28-.47-.59-1.76-.53-3.06.04-.82.31-1.6,1.05-2.08-4.21-.85-9-.83-13.05-1.38-.97-.13-.75-.04-1.63-.07l-4.14,2.08Z" fill="#a7a9ac"/>
          </g>
          <polygon points="46.61 74.97 38.23 79.5 27.78 99.45 29.95 100.59 36.67 94.26 46.61 74.97" fill="#d2d6d9" fill-rule="evenodd"/>
          <polygon points="46.61 74.97 38.23 79.5 40.67 80.88 48.79 76.25 46.61 74.97" fill="#e3e6e8" fill-rule="evenodd"/>
          <polygon points="48.43 75.9 40.05 80.43 29.43 100.6 30.34 101.09 38.49 95.19 48.43 75.9" fill="#2f3133" fill-rule="evenodd"/>
          <path d="m41.84,88.82c1.43-.26,1.43-.61,1.52-.12.12.71-.87,3.35-2.24,4.35,0,0-.96.25-1.44.24-.41-.01-.38-.23-.16-.81l.98-2.54c.32-.76.47-.95,1.35-1.11Z" fill="#f1cfcd"/>
          <path d="m38.08,79.43c2.34-1.15,4.2-.95,4.73.36.97,2.38-1.07,7.5-2.17,10.35l8.38-4.42c2.48-6.47,3.79-13.32-2.79-10.71l-8.15,4.42Z" fill="#f2f4f5" fill-rule="evenodd"/>
        </g>
      </g>
    </g>
  </g>
</svg>