<?xml version="1.0" encoding="UTF-8"?>
<svg id="_レイヤー_2" data-name="レイヤー 2" xmlns="http://www.w3.org/2000/svg" viewBox="0 0 478.12 39.98">
  <g id="_デザイン" data-name="デザイン">
    <g>
      <path d="m3.39,30.24V1.93h4.25c1.89,0,3.4.15,4.53.44,1.14.29,2.1.79,2.88,1.49.79.72,1.42,1.62,1.89,2.7.48,1.09.72,2.19.72,3.3,0,2.03-.78,3.75-2.33,5.15,1.5.51,2.69,1.41,3.56,2.7.88,1.27,1.32,2.75,1.32,4.44,0,2.21-.78,4.08-2.35,5.61-.94.94-2,1.6-3.17,1.96-1.28.35-2.89.53-4.82.53H3.39ZM7.67,14.08h1.34c1.59,0,2.75-.35,3.49-1.05.74-.7,1.11-1.74,1.11-3.11s-.38-2.34-1.14-3.04c-.76-.69-1.86-1.04-3.3-1.04h-1.5v8.23Zm0,12.14h2.64c1.93,0,3.35-.38,4.25-1.14.95-.82,1.43-1.86,1.43-3.12s-.46-2.25-1.38-3.08c-.89-.82-2.49-1.23-4.79-1.23h-2.16v8.56Z" fill="#bfbfbf"/>
      <path d="m27.62,1.93v17.06c0,2.43.4,4.21,1.19,5.34,1.19,1.63,2.85,2.44,5.01,2.44s3.84-.81,5.02-2.44c.79-1.09,1.19-2.87,1.19-5.34V1.93h4.27v18.23c0,2.98-.93,5.44-2.79,7.37-2.09,2.15-4.66,3.23-7.7,3.23s-5.61-1.08-7.68-3.23c-1.86-1.93-2.79-4.39-2.79-7.37V1.93h4.27Z" fill="#bfbfbf"/>
      <path d="m64.85,6.14l-3.47,2.05c-.65-1.12-1.27-1.86-1.85-2.2-.61-.39-1.4-.59-2.37-.59-1.19,0-2.17.34-2.95,1.01-.78.66-1.17,1.49-1.17,2.49,0,1.38,1.03,2.49,3.08,3.34l2.82,1.16c2.3.93,3.98,2.06,5.04,3.4,1.06,1.34,1.6,2.98,1.6,4.92,0,2.6-.87,4.76-2.6,6.46-1.75,1.71-3.92,2.57-6.51,2.57-2.46,0-4.49-.73-6.09-2.18-1.58-1.45-2.56-3.5-2.95-6.14l4.33-.95c.2,1.66.54,2.81,1.03,3.45.88,1.22,2.16,1.83,3.85,1.83,1.33,0,2.44-.45,3.32-1.34.88-.89,1.32-2.02,1.32-3.39,0-.55-.08-1.05-.23-1.51-.15-.46-.39-.88-.72-1.27-.32-.39-.74-.75-1.26-1.08-.51-.34-1.12-.66-1.83-.96l-2.73-1.14c-3.88-1.64-5.81-4.03-5.81-7.19,0-2.13.81-3.91,2.44-5.34,1.63-1.44,3.65-2.16,6.07-2.16,3.26,0,5.81,1.59,7.65,4.77Z" fill="#bfbfbf"/>
      <path d="m72.76,1.93v28.32h-4.27V1.93h4.27Z" fill="#bfbfbf"/>
      <path d="m76.56,30.24V0l20.65,21.6V1.93h4.27v30.04l-20.65-21.55v19.82h-4.27Z" fill="#bfbfbf"/>
      <path d="m121.64,5.94h-11.35v6.8h11.02v4.02h-11.02v9.46h11.35v4.02h-15.63V1.93h15.63v4.02Z" fill="#bfbfbf"/>
      <path d="m141.76,6.14l-3.47,2.05c-.65-1.12-1.27-1.86-1.85-2.2-.61-.39-1.4-.59-2.37-.59-1.19,0-2.17.34-2.95,1.01-.78.66-1.17,1.49-1.17,2.49,0,1.38,1.03,2.49,3.08,3.34l2.82,1.16c2.3.93,3.98,2.06,5.04,3.4,1.06,1.34,1.6,2.98,1.6,4.92,0,2.6-.87,4.76-2.6,6.46-1.75,1.71-3.92,2.57-6.51,2.57-2.46,0-4.49-.73-6.09-2.18-1.58-1.45-2.56-3.5-2.95-6.14l4.33-.95c.2,1.66.54,2.81,1.03,3.45.88,1.22,2.16,1.83,3.85,1.83,1.33,0,2.44-.45,3.32-1.34.88-.89,1.32-2.02,1.32-3.39,0-.55-.08-1.05-.23-1.51-.15-.46-.39-.88-.72-1.27-.32-.39-.74-.75-1.26-1.08-.51-.34-1.12-.66-1.83-.96l-2.73-1.14c-3.88-1.64-5.81-4.03-5.81-7.19,0-2.13.81-3.91,2.44-5.34,1.63-1.44,3.65-2.16,6.07-2.16,3.26,0,5.81,1.59,7.65,4.77Z" fill="#bfbfbf"/>
      <path d="m162.15,6.14l-3.47,2.05c-.65-1.12-1.27-1.86-1.85-2.2-.61-.39-1.4-.59-2.37-.59-1.19,0-2.17.34-2.95,1.01-.78.66-1.17,1.49-1.17,2.49,0,1.38,1.03,2.49,3.08,3.34l2.82,1.16c2.3.93,3.98,2.06,5.04,3.4,1.06,1.34,1.6,2.98,1.6,4.92,0,2.6-.87,4.76-2.6,6.46-1.75,1.71-3.92,2.57-6.51,2.57-2.46,0-4.49-.73-6.09-2.18-1.58-1.45-2.56-3.5-2.95-6.14l4.33-.95c.2,1.66.54,2.81,1.03,3.45.88,1.22,2.16,1.83,3.85,1.83,1.33,0,2.44-.45,3.32-1.34.88-.89,1.32-2.02,1.32-3.39,0-.55-.08-1.05-.23-1.51-.15-.46-.39-.88-.72-1.27-.32-.39-.74-.75-1.26-1.08-.51-.34-1.12-.66-1.83-.96l-2.73-1.14c-3.88-1.64-5.81-4.03-5.81-7.19,0-2.13.81-3.91,2.44-5.34,1.63-1.44,3.65-2.16,6.07-2.16,3.26,0,5.81,1.59,7.65,4.77Z" fill="#bfbfbf"/>
      <path d="m189.26,5.94h-9.87v6.8h9.52v4.02h-9.52v13.48h-4.27V1.93h14.14v4.02Z" fill="#bfbfbf"/>
      <path d="m196.99,1.93v28.32h-4.27V1.93h4.27Z" fill="#bfbfbf"/>
      <path d="m218.66,5.94h-11.35v6.8h11.02v4.02h-11.02v9.46h11.35v4.02h-15.63V1.93h15.63v4.02Z" fill="#bfbfbf"/>
      <path d="m227.8,1.93v24.3h8.33v4.02h-12.6V1.93h4.27Z" fill="#bfbfbf"/>
      <path d="m238.67,30.24V1.93h5.94c2.85,0,5.1.28,6.75.84,1.77.55,3.38,1.49,4.82,2.81,2.92,2.67,4.38,6.17,4.38,10.51s-1.52,7.87-4.57,10.56c-1.53,1.35-3.13,2.28-4.8,2.81-1.57.53-3.78.79-6.66.79h-5.87Zm4.27-4.02h1.93c1.92,0,3.51-.2,4.79-.61,1.27-.43,2.42-1.11,3.45-2.04,2.1-1.92,3.15-4.42,3.15-7.5s-1.04-5.62-3.12-7.56c-1.87-1.72-4.63-2.59-8.27-2.59h-1.93v20.28Z" fill="#bfbfbf"/>
      <path d="m279.7,6.14l-3.47,2.05c-.65-1.12-1.27-1.86-1.85-2.2-.61-.39-1.4-.59-2.37-.59-1.19,0-2.17.34-2.95,1.01-.78.66-1.17,1.49-1.17,2.49,0,1.38,1.03,2.49,3.08,3.34l2.82,1.16c2.3.93,3.98,2.06,5.04,3.4,1.06,1.34,1.6,2.98,1.6,4.92,0,2.6-.87,4.76-2.6,6.46-1.75,1.71-3.92,2.57-6.51,2.57-2.46,0-4.49-.73-6.09-2.18-1.58-1.45-2.56-3.5-2.95-6.14l4.33-.95c.2,1.66.54,2.81,1.03,3.45.88,1.22,2.16,1.83,3.85,1.83,1.33,0,2.44-.45,3.32-1.34.88-.89,1.32-2.02,1.32-3.39,0-.55-.08-1.05-.23-1.51-.15-.46-.39-.88-.72-1.27-.32-.39-.74-.75-1.26-1.08-.51-.34-1.12-.66-1.83-.96l-2.73-1.14c-3.88-1.64-5.81-4.03-5.81-7.19,0-2.13.81-3.91,2.44-5.34,1.63-1.44,3.65-2.16,6.07-2.16,3.26,0,5.81,1.59,7.65,4.77Z" fill="#bfbfbf"/>
    </g>
    <g>
      <line y1="34.46" x2="472.87" y2="34.46" fill="none" stroke="#bfbfbf" stroke-miterlimit="10" stroke-width="1.83"/>
      <path d="m472.6,39.98c3.05,0,5.52-2.47,5.52-5.52s-2.47-5.52-5.52-5.52-5.52,2.47-5.52,5.52,2.47,5.52,5.52,5.52Z" fill="#bfbfbf"/>
    </g>
  </g>
</svg>