<?xml version="1.0" encoding="UTF-8"?>
<svg id="_レイヤー_2" data-name="レイヤー 2" xmlns="http://www.w3.org/2000/svg" xmlns:xlink="http://www.w3.org/1999/xlink" viewBox="0 0 170.34 195.25">
  <defs>
    <linearGradient id="linear-gradient" x1="-1887.34" y1="114.71" x2="-1866.55" y2="114.71" gradientTransform="translate(-1828.52) rotate(-180) scale(1 -1)" gradientUnits="userSpaceOnUse">
      <stop offset="0" stop-color="#9fced5"/>
      <stop offset="1" stop-color="#bbeef6"/>
    </linearGradient>
  </defs>
  <g id="_デザイン" data-name="デザイン">
    <path d="m49.26,167.93s.9,2.42.98,3.85-.74,2.17-4.55,2.01c-3.81-.16-2.7,1.43-7.17,2.25s-5.94-.98-6.51-2.12c0-.63.17-1.11.5-1.45l.04-.04c.8-.8,2.01-1.49,3.63-2.06.44-.14,1.1-.36,1.98-.66.77-.27,1.4-.56,1.9-.87l9.19-.91Z" fill="#1b2b38" fill-rule="evenodd"/>
    <polygon points="164.65 146.48 164.62 70.35 52.41 5.98 52.44 81.37 164.65 146.48" fill="#fff" fill-rule="evenodd"/>
    <path d="m167.04,69.04L50.4,2.13l-.5-.29,3.18-1.84,117.02,67.46-3.06,1.58Z" fill="#9bbef6" fill-rule="evenodd"/>
    <polygon points="167.21 151.9 167.04 69.04 170.1 67.46 170.34 150.27 167.21 151.9" fill="#597fa8" fill-rule="evenodd"/>
    <path d="m164.65,146.48l-.03-76.13L52.41,5.98l.03,75.39,112.21,65.11Zm-114.53-62.99l-.19-81.62.47.26,116.64,66.91.17,82.86L50.12,83.49Z" fill="#cbdfff" fill-rule="evenodd"/>
    <path d="m69.8,55.53l2.89,1.69v-7.29l-2.92-1.69c-.25-.14-.45-.35-.58-.64-.19-.29-.29-.57-.29-.85s.1-.46.29-.55c.14-.08.33-.05.58.09l7.7,4.43c.23.16.44.37.61.64.16.29.23.57.23.85s-.08.46-.23.55c-.17.1-.38.07-.61-.09l-3.06-1.75v7.26l3.15,1.84v30.51l-7.76-4.46m37.83-24.53c-.99-3.17-1.92-7.18-2.8-12.02-.54-3.09-1.12-5.47-1.72-7.15-.06-.14-.12-.26-.17-.38v-3.65l4.7,2.74v20.45Zm-4.7-16.54c.31,1.21.61,2.61.9,4.2,1.15,6.3,2.38,11.23,3.7,14.79.02.06.05.13.09.2v3.47l-4.7-2.74v-19.92Zm-10.09,8.9v-8.28l3.15,1.81c-.99,2.9-2.04,5.06-3.15,6.48Zm0,2.1c.16-.16.31-.31.47-.47,1.34-1.5,2.6-3.99,3.76-7.47l.47.26v13.5l-4.7-2.71v-3.12Z" fill="#003994" fill-rule="evenodd"/>
    <path d="m145.75,69.48l10.79,6.33v1.17l-10.79-6.3v-1.2Zm0-3.15l10.79,6.33v1.17l-10.79-6.3v-1.2Zm-29.84-10.82l10.79,6.27v1.17l-10.79-6.27v-1.17Zm0-3.03l10.79,6.33v1.17l-10.79-6.3v-1.2Zm0-3.15l10.79,6.33v1.17l-10.79-6.3v-1.2Zm40.63,30.63l-10.79-6.27v-1.17l10.79,6.27v1.17ZM54.72,12.21l10.79,6.33v1.17l-10.79-6.3v-1.2Zm0,6.18l10.79,6.27v1.17l-10.79-6.27v-1.17Zm12.33,11.93l10.79,6.33v1.17l-10.79-6.3v-1.2Zm0-3.15l10.79,6.33v1.17l-10.79-6.3v-1.2Zm0,6.18l10.79,6.27v1.17l-10.79-6.27v-1.17Zm28.44,60.82l13.88,8.08v1.52l-13.88-8.11v-1.49Zm0-3.82l13.88,8.08v1.52l-13.88-8.11v-1.49Z" fill="#72c3ff" fill-rule="evenodd"/>
    <path d="m144.19,81.76c9.18,14.86,8.73,20.93,9.18,24.54l-19.74-11.39-15.53-22.98c.2-.18.41-.36.62-.52l.66-.45c2.15-1.38,4.73-1.8,7.75-1.25l.88.17c3.38.99,10.93,4.62,16.19,11.88ZM54.72,15.36l10.79,6.33v1.17l-10.79-6.3v-1.2Zm52.91,48.84c-.04-.08-.07-.15-.09-.2-1.32-3.56-2.56-8.49-3.7-14.79-.29-1.59-.59-2.99-.9-4.2-.27-1.17-.56-2.13-.88-2.89-.37-.95-.71-1.52-1.02-1.69-.31-.19-.68-.04-1.11.47-.49.58-.99,1.59-1.52,3.03-.18.47-.35.97-.53,1.52-.06.18-.12.37-.17.58-.19.7-.41,1.38-.64,2.04-1.17,3.48-2.42,5.97-3.76,7.47-.16.16-.31.31-.47.47-.12.1-.23.2-.35.32-.95.76-1.98,1.04-3.09.85-.43-.08-.87-.23-1.31-.47-.14-.08-.25-.2-.35-.38-.1-.17-.16-.34-.17-.5,0-.18.04-.29.12-.35.04-.02.08-.03.12-.03.08-.02.17,0,.26.03,1.56.82,3.03.44,4.43-1.14.06-.06.11-.12.15-.17.08-.1,3.85-8.23,4.08-9.07.76-2.47,1.48-4.18,2.16-5.13.7-.95,1.43-1.19,2.19-.7.68.41,1.3,1.32,1.87,2.74.06.12.12.24.17.38.6,1.67,1.18,4.05,1.72,7.15.88,4.84,1.81,8.85,2.8,12.02.12.35.23.7.35,1.05.16.45.31.88.47,1.28,1.28,3.42,2.62,5.37,4,5.83.1.04.17.09.23.15.06.06.11.13.15.2.12.14.19.3.23.5.02.17,0,.3-.09.38-.08.1-.18.13-.32.09-.19-.08-.41-.18-.64-.32-.58-.33-1.16-.84-1.72-1.52-.8-1.01-1.57-2.38-2.3-4.11-.12-.29-.23-.58-.35-.88Zm-12.13,22.08l13.88,8.11v1.49l-13.88-8.08v-1.52Z" fill="#ce80a7" fill-rule="evenodd"/>
    <path d="m133.63,94.91l1.38,23.52c-4.63-2.29-8.87-6.11-12.73-11.45-3.82-5.3-6.37-10.9-7.65-16.81-1.26-5.95-.97-10.85.88-14.69.84-1.74,1.91-3.09,3.22-4.06-.21.16-.42.34-.62.52l15.53,22.98Z" fill="#8ec2ff" fill-rule="evenodd"/>
    <path d="m151.55,124.73c-3.28,2.38-7.39,2.52-12.33.4l-2.43-23.99,19.74,11.39c0,5.73-1.66,9.79-4.99,12.2Z" fill="#237ecf" fill-rule="evenodd"/>
    <path d="m110.28,69.19l-2.3-1.34v-2.77c.74,1.73,1.51,3.1,2.3,4.11Zm2.39.67c-.06-.06-.14-.11-.23-.15-1.38-.47-2.71-2.41-4-5.83-.16-.41-.31-.84-.47-1.28v-13.15l4.7,2.71v17.7Zm-14.79-24.41c.17-.54.35-1.05.53-1.52l4.17,2.42v18.4l-4.7-2.71v-16.6Zm-8.49,11.73c1.11.19,2.14-.09,3.09-.85v2.63l-3.09-1.78Zm3.09-2.83c-1.4,1.58-2.88,1.95-4.43,1.14-.1-.04-.19-.05-.26-.03v-18.52l4.7,2.71v14.7Z" fill="#3396f8" fill-rule="evenodd"/>
    <g>
      <path d="m63.55,182.71s1.03-.91-.91,5.28c-1.94,6.19-6.85,7.82-9.47,7.1h-.05c-.49-.11-.87-.39-1.11-.85-.21-.39-.3-.85-.27-1.38,0-.11.02-.23.03-.34.17-1.51.76-3.23,1.78-5.17.64-1.17,1.1-2.03,1.38-2.6.57-1.03.99-1.91,1.27-2.65.44.49.98.84,1.62,1.06.26.08.89.21.93.21v.03" fill="#1b2b38" fill-rule="evenodd"/>
      <path d="m55.92,68.96l.8.23c.03-.11.06-.21.08-.32.25-.39.64-1.24,1.17-2.55.49-1.03,1.17-1.34,2.02-.95.18.25.28.53.32.85.04.14.05.28.05.42v.05c0,.29-.09.58-.24.88-.48,1.58-1.24,2.51-1.99,2.73-.04.1-.08.29-.1.38,1.98-1.52,3.39-3.65,3.92-6.17.04-.11.07-.21.11-.32.07-.42.12-.87.16-1.33.04-.92-.05-1.79-.27-2.6-.18-.74-.46-1.45-.85-2.12-.14-.21-.27-.42-.37-.64-.14-.14-.27-.27-.37-.37-1.45-1.8-3.52-2.74-6.2-2.81-1.27-.04-2.53.19-3.77.69-1.24.39-2.32,1.03-3.23,1.91-.14.14-.27.27-.37.37-.11.28-.18.58-.21.9-.03.46.07.91.32,1.35.02.02.03.05.05.08.71.99,1.8,1.59,3.29,1.8.53.04,1.2.05,2.02.05.25-.04.55-.05.9-.05h1.01c.07.53.28,1.17.64,1.91.18.28.42.72.74,1.33.07.14.14.28.21.42.17.33.31.64.42.95.02.11.04.21.05.32.07.25.11.49.11.74" fill="#452312"/>
      <path d="m47.92,82.16c-.01-.33-.03-.65-.05-.98,0-.16-.01-.32-.03-.48,0-.13-.03-.25-.08-.37,0-.02-.02-.04-.03-.05,0-.14-.04-.28-.11-.42-.07-.18-.14-.34-.21-.48,0-.05-.01-.1-.03-.16-.02-.26-.03-.5-.03-.74,0-.58.06-1.13.19-1.64,0,.52.03.99.08,1.43l2.55-1.59s.03-.02.05-.03c-.01,1.98-.05,3.18-.11,3.58-.07,1.4-.33,2.52-.77,3.37l-.03.03c-.12.01-.23.02-.34.03h-.05c-.23,0-.47-.04-.72-.08-.07-.25-.16-.53-.27-.85l-.03-.56Z" fill="#fff" fill-rule="evenodd"/>
      <g>
        <path d="m93.87,81.38c-.57-.74-1.52-1.61-2.86-2.6.18-.42.5-.9.96-1.43.6-.57,1.06-.99,1.38-1.27.99-1.06,1.27-2.07.85-3.02-2.44,1.66-4.45,3.46-6.05,5.41-1.84,2.26-3.04,4.67-3.61,7.21-.02.07-.04.14-.05.21,0,.03-.02.07-.03.11l-.03.11.11,1.01c.11.18.25.35.42.53.04,0,.05.02.05.05.04,0,.07.02.11.05.14.11.34.21.58.32.82.36,1.7.52,2.65.48.16-.02.32-.03.48-.05.35-.11.71-.27,1.06-.48.07-.04.16-.07.27-.11.6-.28,1.22-.64,1.86-1.06.07-.04.16-.09.27-.16.46-.32,1.38-.92,2.76-1.8.14-1.17-.25-2.33-1.17-3.5Z" fill="#f1cfcd"/>
        <path d="m12.46,72.01c-.01-.13-.02-.25-.03-.37-.17-1.91-.38-3.45-.61-4.61-.46-1.87-1.04-3.54-1.75-4.99-.64.32-1.01.67-1.11,1.06-.07.35-.02.88.16,1.59.11.57.19,1.01.27,1.33.04.14.07.25.11.32v.05c.04.64-.19,1.15-.69,1.54-.04-.04-.11-.07-.21-.11-.19-.09-.39-.19-.58-.29l-.05-.03c-.8-.48-1.63-1.13-2.49-1.96-1.27-1.34-2.26-2.33-2.97-2.97-.28-.35-.65-.44-1.11-.27-.39.14-.72.41-1.01.8-.46,1.87-.5,3.68-.11,5.41.53,1.91,1.5,3.39,2.92,4.45.53.35,1.45.85,2.76,1.49.21.14.42.26.64.37.11.06.21.11.32.16l1.09.64.56.32c.88.39,1.79.21,2.71-.53.95-.78,1.41-1.56,1.38-2.33l-.11-.95s-.02-.07-.05-.11Z" fill="#f1cfcd"/>
        <path d="m56.06,68.98l.66.21c.03-.11.06-.21.08-.32.25-.39.64-1.24,1.17-2.55.49-1.03,1.17-1.34,2.02-.95.18.25.28.53.32.85.04.14.05.28.05.42v.05c0,.29-.09.58-.24.88-.48,1.58-1.1,2.48-1.86,2.7-.04,0-.09.02-.13.03,0,0-.2.76-.21.9.03.29.05.55.05.8v.16c-.14.92-.65,1.61-1.54,2.07-.46.25-1.63.62-3.5,1.11-.83.24-1.74.68-2.7,1.3-.02,0-.04.02-.05.03l-2.55,1.59c-.05-.44-.08-.92-.08-1.43,0-.24.02-.49.03-.74.04-.25.07-.58.11-1.01.03-.29.06-.61.08-.95h-.03c-.81-.32-1.27-.67-1.38-1.06-.05-.15-.09-.31-.13-.48-.07-.29-.11-.61-.13-.95-.04-.31-.07-.61-.11-.9-.04-.26-.07-.5-.11-.74,0-.06-.02-.12-.03-.19-.43-3-.35-5.71.24-8.14,0-.04.02-.05.05-.05.11-.42.23-.85.37-1.27.11-.28.21-.57.32-.85.02.02.04.05.05.08.02.02.03.05.05.08.71.99,1.8,1.59,3.29,1.8.53.04,1.2.05,2.02.05.25-.04.55-.05.9-.05h1.01c.07.53.28,1.17.64,1.91.18.28.42.72.74,1.33.07.14.14.28.21.42.17.33.31.64.42.95.02.11.04.21.05.32.07.25.11.49.11.74,0,0-.2,1.7-.27,1.86Z" fill="#f1cfcd"/>
      </g>
      <g>
        <path d="m39.48,168.79c.12.08.24.16.37.24,2.34.65,8.13.42,9.83-.93.02-.02.03-.03.05-.03.28-9.24-1.38-38.24-1.27-41.51l-1.13-7.92-9.1-2.65-3.12,1.72s3.25,22.27,3.46,27.14c.38,3.8.9,23.94.9,23.94Z" fill="#2b656e"/>
        <g>
          <path d="m45.35,71.26c.17-.17.38-.35.64-.53-.04-.26-.07-.5-.11-.74,0-.06-.02-.12-.03-.19-.33,0-.65,0-.98.03h-2.23l-.08.11-.24.27c-.35.67-.73,1.34-1.11,2.02-1.03,1.97-1.89,3.98-2.57,6.02-.18.56-.35,1.11-.5,1.67-.29,2.24-.49,4.51-.58,6.79-.02.42-.04.84-.05,1.27-.02.66-.03,1.33-.03,1.99,0,.77,0,1.54.03,2.31.04,1.31.09,2.63.16,3.98.11,1.73-.07,3.39-.53,4.98-.71,2.33-1.45,4.61-2.23,6.84-.25.71-.44,1.43-.58,2.17-.53,2.93-.53,5.87,0,8.8.2.21.41.41.61.61.73.73,1.48,1.41,2.25,2.04.41.34.82.67,1.25.98.57.43,1.17.83,1.78,1.19.14.04.28.04.42,0,.07-.42.09-.85.05-1.27-.05-1.44-.05-2.89-.03-4.35.01-.82.04-1.66.08-2.49.01-.18.02-.37.03-.56.03-.44.05-.89.08-1.35-.11-.5-.22-.99-.32-1.49-.25-1.35-.43-2.65-.53-3.92-.11-1.73-.23-3.52-.37-5.36-.14-1.84-.28-3.82-.42-5.94-.11-2.12-.09-4.37.05-6.74.14-2.4.19-4.22.16-5.46v-2.44l.05-.05c.32-.21,1.41-1.47,3.29-3.77h-2.81c1.45-2.79,2.6-4.6,3.45-5.41.88-.88,1.54-1.56,1.96-2.02Z" fill="#2b656e"/>
          <path d="m55.24,171.54c0,.61.02,1.27.03,1.96,0,.11,0,.21,0,.32.02.9.05,1.73.08,2.52.07,1.34.16,2.54.29,3.58-.11,1.27.16,2.19.8,2.76.43.48.95.83,1.56,1.06.25.08.51.14.79.18h0s.01,0,.02,0c0,0,0,0,.01,0,0,0,0,0,0,0,.36,0,3.63-.09,4.9-.72.6-6.33-1.28-39.91-2.23-45.34s.04-9.56-.11-12.25c.05-.62.1-1.24.13-1.86.66-.3,1.3-.58,1.94-.85-.21-2.93-.69-5.78-1.43-8.54-.21-.74-.48-1.47-.8-2.17-1.41-3.08-1.61-6.19-.58-9.33.25-.71.48-1.43.69-2.17.39-1.38.94-2.65,1.64-3.82l3.02-3.39c.56.46,1,.81,1.33,1.06,1.13.88,2.19,1.66,3.18,2.33.57.32,1.5.83,2.81,1.54.42.21.8.42,1.11.64h.05c2.09,1.27,4.37,1.93,6.84,1.96,1.2.04,2.24-.35,3.13-1.17v-.05c.46-.46.87-.94,1.22-1.43.28-.32.53-.64.74-.95.18-.28.35-.57.53-.85.64-1.27,1.01-2.26,1.11-2.97.14-.67.15-3.05.22-3.37-3.5,1.26-5.57-2.15-5.57-2.15-.21.19-.88,1.04-2.94,1.87-1.98-.18-3.94-1.04-5.89-2.6-.21-.21-.96-1.06-2.23-2.55-.91-1.12-2.42-2.67-4.53-4.67-.03-.03-.06-.07-.08-.11-1.59-.57-3.06-1.41-4.4-2.55-.07-.04-.14-.09-.21-.16l-1.59-1.06-.32-.21c-.14.09-.28.18-.42.27.17,2.67-.75,5.61-2.76,8.8l-3.98-1.8,2.23,3.34c-1.38.99-2.65,2.05-3.82,3.18-1.13,1.13-2,2.7-2.6,4.72-.57,2.02-1.08,3.77-1.54,5.25-.46,1.48-.8,2.86-1.01,4.14-.21,1.27-.48,2.7-.8,4.3-.28,1.56-.57,3.41-.85,5.57-.04.27-.07.52-.11.77-.13.92-.25,1.73-.37,2.44-.11.68-.21,1.28-.32,1.78-.09.39-.17.75-.24,1.06-.11.57-.19,1-.24,1.27l-.05-.64c0,.25.02.51.05.8.04.74.05,1.45.05,2.12,0,.78.18,1.5.53,2.17.15.05.29.09.42.13,1.17,6.06,3.75,12.48,6.24,23.46.33,3.16,4.29,22.39,4.29,22.39Zm-5.7-45.29c.11,0,.21-.01.32-.02h0c-.11,0-.21.02-.32.02Zm11.73-41.42h0c.03-.16.05-.32.05-.47,0,.16-.02.32-.05.47Z" fill="#2b656e"/>
        </g>
        <path d="m12.99,72.03c-.4,4.66-5.11,4.76-5.11,4.76,0,0,.78,1.91,4.23,5,.28.21.55.42.8.64.04.04.07.07.11.11.32.25.64.5.95.74.46.35.9.67,1.33.95,1.31.99,2.65,1.86,4.03,2.6.71.42,1.33.9,1.86,1.43.64.57,1.33,1.1,2.07,1.59.53.39,1.1.65,1.7.8.42,0,.85.04,1.27.11.46-.04.92-.11,1.38-.21.39-.11.78-.25,1.17-.42.57-.32,1.15-.58,1.75-.8,1.13-.53,2.3-.99,3.5-1.38.92-.35,1.86-.69,2.81-1.01.32-.12.64-.26.95-.42.1-2.28.29-4.55.58-6.79.14-.49.29-.97.44-1.45.07-.05.14-.11.21-.16.69-2.04,1.54-4.04,2.57-6.02.39-.67.76-1.34,1.11-2.02l.24-.27c-.2.02-.41.06-.61.11-.95.25-1.66.74-2.12,1.48-.53.85-1.26,1.77-2.17,2.76-.88.95-2.63,2.23-4.55,3.77-2.44,1.95-3.79,2.35-7.07,3.86-1.27-.88-2.49-1.73-3.66-2.55-.78-.53-1.57-1.06-2.39-1.59-1.45-1.03-2.9-2.05-4.35-3.08-.6-.42-1.1-.88-1.48-1.38-.42-.57-.94-.95-1.54-1.17" fill="#2b656e"/>
        <path d="m44.82,100.48c-.14,1.91-.3,3.8-.48,5.67-.11,1.91-.21,3.8-.32,5.67-.06.79-.11,1.59-.16,2.39-.05.86-.1,1.73-.13,2.6,0,.24-.02.49-.03.74-.05.74-.08,1.46-.08,2.17,0,.25.02.5.03.74l.05.64c.05-.28.13-.7.24-1.27.07-.31.15-.67.24-1.06.11-.5.21-1.09.32-1.78.12-.71.25-1.52.37-2.44.04-.24.07-.5.11-.77.28-2.16.57-4.01.85-5.57.32-1.59.58-3.02.8-4.3.21-1.27.55-2.65,1.01-4.14.46-1.49.97-3.24,1.54-5.25.6-2.02,1.47-3.59,2.6-4.72,1.17-1.13,2.44-2.19,3.82-3.18l-2.23-3.34,3.98,1.8c2.01-3.2,2.93-6.13,2.76-8.8-1.34.85-2.69,1.7-4.03,2.57l-5.94,5.06c-.14.28-.34.57-.58.85-.32.42-.58.87-.8,1.33-.46.99-.92,2-1.38,3.02-.81,1.87-1.4,3.75-1.75,5.62-.35,1.91-.62,3.82-.8,5.73Z" fill="#2b656e"/>
        <path d="m42.75,78.68c-1.87,2.3-2.97,3.55-3.29,3.77l-.05.05v2.44c.04,1.24-.02,3.06-.16,5.46-.14,2.37-.16,4.61-.05,6.74.14,2.12.28,4.1.42,5.94.14,1.84.27,3.62.37,5.36.1,1.27.28,2.58.53,3.92.1.49.21.99.32,1.49,0-.41.02-.83.03-1.25.03-1.14.06-2.3.11-3.47-.76-1.16-.99-2.26-.72-3.29.25-1.41.42-3.16.53-5.25.11-2.37.19-4.14.27-5.3.14-2.02.39-3.75.74-5.2.19-.8.42-1.56.69-2.28.11-.78.22-1.56.32-2.33.14-1.03.28-1.91.42-2.65.14-.78.32-1.54.53-2.28,0-.04.02-.07.03-.11,0-.12.01-.25.03-.37.14-1.84.58-3.64,1.33-5.41.32-.72.68-1.41,1.09-2.07-.07-.29-.11-.61-.13-.95-.04-.31-.07-.61-.11-.9-.25.18-.47.36-.64.53-.42.46-1.08,1.13-1.96,2.02-.85.81-2,2.62-3.45,5.41h2.81Z" fill="#2b656e"/>
      </g>
      <path d="m8.54,75.94c.88.39,1.79.21,2.7-.53.95-.78,1.41-1.56,1.38-2.33l-.11-.95s-.02-.07-.05-.11c-.01-.13-.02-.25-.03-.37.24.08.48.23.74.45.62,1.06.93,1.93.93,2.63,0,.04-.18.57-.53,1.59-.11.14-.23.28-.37.42-.64.71-1.63,1.06-2.97,1.06-.71,0-1.41-.26-2.09-.77-.08-.08-.16-.16-.24-.24,0-.42.03-.81.08-1.17l.56.32Zm76.05,9.7l.11,1.01c.11.18.25.35.42.53.04,0,.05.02.05.05.04,0,.07.02.11.05.14.11.34.21.58.32.82.36,2.03.93,2.98.88-.02.3-.2.46-.25.83l-.36,1.34c-.44.27-1,.4-1.67.4-.35,0-.71-.04-1.06-.11-.81-.21-1.49-.65-2.02-1.33-.42-.48-.7-.98-.85-1.48.4-.39.73-.87,1.01-1.43.25-.46.48-.8.69-1.01.1-.1.21-.19.32-.27,0,.03-.02.07-.03.11l-.03.11Z" fill="#e7f5f8" fill-rule="evenodd"/>
      <path d="m40.97,109.12c.2.31.44.63.72.95.35-.18.62-.32.8-.42.28-.21.46-.44.53-.69.28-1.52.37-3.73.27-6.63-.11-3.01-.07-5.22.11-6.63.04-1.7.42-3.66,1.17-5.89.92-2.55,1.57-4.45,1.96-5.73.11-.07.19-.12.27-.16.81-.57,1.15-1.68,1.01-3.34,0-.1-.02-.18-.03-.27.05.12.08.24.08.37.01.16.02.32.03.48.02.33.04.66.05.98l.03.56v.8c.34.09.67.14.98.13h.05c.11,0,.23-.02.34-.03.24-.05.46-.14.66-.27l.61-.42c1.63-1.41,3.38-2.72,5.25-3.92.07-.05.14-.09.21-.13l-5.94,5.06c-.14.28-.34.57-.58.85-.32.42-.58.87-.8,1.33-.46.99-.92,2-1.38,3.02-.81,1.87-1.4,3.75-1.75,5.62-.35,1.91-.62,3.82-.8,5.73-.14,1.91-.3,3.8-.48,5.67-.11,1.91-.21,3.8-.32,5.67-.06.79-.11,1.59-.16,2.39-1.04-.41-2.04-.95-3-1.62.03-1.14.06-2.3.11-3.47Zm19.86-32.88l-.32-.21s.07-.03.11-.05c.07.09.14.18.21.27Zm-18.03,9.23c.14-1.03.28-1.91.42-2.65.14-.78.32-1.54.53-2.28,0-.04.02-.07.03-.11,0,.43.07.86.24,1.27.07.11.16.21.27.32.11-.25.21-.5.32-.74.21-.46.48-.92.8-1.38l.03-.03c-.14.65-.24,1.52-.29,2.63v.05c-.04.18-.09.37-.16.58h.05c-.25.92-.67,1.63-1.27,2.12-.49.79-.92,1.64-1.27,2.55.11-.78.22-1.56.32-2.33Zm3.77-6.68s.09.03.13.05c-.07,0-.15,0-.24.03.03-.03.07-.05.11-.08Z" fill="#c2edf6" fill-rule="evenodd"/>
      <path d="m40.76,115.2c.61.4,1.24.77,1.88,1.09.07,0,.12.04.16.11.31.1.62.25.93.42.04-.87.08-1.74.13-2.6-1.04-.41-2.04-.95-3-1.62-.01.42-.02.84-.03,1.25-.02.47-.05.92-.08,1.35Z" fill="url(#linear-gradient)" fill-rule="evenodd"/>
      <path d="m43.73,116.81c-.31-.18-.62-.32-.93-.42-.04-.07-.09-.11-.16-.11-.64-.32-1.27-.68-1.88-1.09,0,.19-.02.37-.03.56-.04.84-.07,1.67-.08,2.49.51.33,1.03.63,1.56.9.07,0,.12.04.16.11.32.11.64.25.95.42.11.02.2.04.29.05,0-.71.03-1.44.08-2.17,0-.25.02-.5.03-.74Z" fill="#6d411a" fill-rule="evenodd"/>
      <path d="m47.95,83.51v-.8c.11.32.19.6.27.85.24.04.48.07.72.08-.31,0-.64-.04-.98-.13Zm-.58-5.04c0,.24,0,.49.03.74.01.06.02.11.03.16-.17-.26-.39-.44-.66-.53h-.05s-.08-.04-.13-.05c-.04.03-.08.05-.11.08h-.05c-.05.03-.1.06-.16.08-.14.07-.25.16-.32.27-.2.2-.36.41-.5.64v.03l-.03.03c-.32.46-.58.92-.8,1.38-.11.25-.21.5-.32.74-.11-.11-.19-.21-.27-.32-.17-.42-.25-.84-.24-1.27,0-.12.01-.25.03-.37.14-1.84.58-3.64,1.33-5.41.32-.72.68-1.41,1.09-2.07.04.17.08.33.13.48.11.39.57.74,1.38,1.06h.03c-.02.34-.05.66-.08.95-.04.42-.07.76-.11,1.01-.01.25-.02.5-.03.74-.12.52-.19,1.07-.19,1.64Zm5.57-3.13c1.87-.5,3.04-.87,3.5-1.11.88-.46,1.4-1.15,1.54-2.07v-.16c.14.12.26.24.37.37l.05-.05c1.13,1.27,1.87,2.49,2.23,3.66-.03.02-.07.04-.11.05-.14.09-.28.18-.42.27-1.34.85-2.69,1.7-4.03,2.57-.07.04-.14.09-.21.13-1.87,1.2-3.62,2.51-5.25,3.92l-.61.42c-.21.12-.43.21-.66.27l.03-.03c.44-.85.7-1.97.77-3.37.06-.4.09-1.6.11-3.58.97-.62,1.87-1.06,2.7-1.3Z" fill="#eefcff" fill-rule="evenodd"/>
      <path d="m43.76,85.26c-.49.79-.92,1.64-1.27,2.55-.27.72-.5,1.48-.69,2.28-.35,1.45-.6,3.18-.74,5.2-.07,1.17-.16,2.93-.27,5.3-.11,2.09-.28,3.84-.53,5.25-.28,1.03-.04,2.12.72,3.29.2.31.44.63.72.95.35-.18.62-.32.8-.42.28-.21.46-.44.53-.69.28-1.52.37-3.73.27-6.63-.11-3.01-.07-5.22.11-6.63.04-1.7.42-3.66,1.17-5.89.92-2.55,1.57-4.45,1.96-5.73.11-.07.19-.12.27-.16.81-.57,1.15-1.68,1.01-3.34,0-.1-.02-.18-.03-.27,0-.02-.02-.04-.03-.05,0-.14-.04-.28-.11-.42-.07-.18-.14-.34-.21-.48-.17-.26-.39-.44-.66-.53h-.05c-.07,0-.15,0-.24.03h-.05c-.05.03-.1.06-.16.08-.14.07-.25.16-.32.27-.2.2-.36.41-.5.64v.03c-.14.65-.24,1.52-.29,2.63v.05c-.06.52-1.38,2.7-1.38,2.7Z" fill="#da1066" fill-rule="evenodd"/>
    </g>
    <path d="m60.51,75.54s.02-.07.03-.11c0,.03-.02.07-.03.11Z" fill="#ffd6c4" fill-rule="evenodd"/>
  </g>
</svg>