<?xml version="1.0" encoding="UTF-8"?>
<svg xmlns="http://www.w3.org/2000/svg" viewBox="0 0 479.37 219.53">
  <g isolation="isolate">
    <g id="_レイヤー_2" data-name="レイヤー 2">
      <g id="_デザイン" data-name="デザイン">
        <g>
          <g>
            <path d="m30.71,214.11h-1.81v-5.49c0-1.36.01-2.55.03-3.84h-.2c-.28,1.25-.53,2.37-.9,3.7l-1.47,5.63h-2.21l-1.43-5.56c-.34-1.26-.6-2.44-.92-3.77h-.2c.03,1.26.04,2.52.04,3.87v5.46h-1.67v-10.87h3.07l1.37,5.55c.28,1.13.56,2.4.78,3.59h.2c.29-1.19.52-2.31.84-3.56l1.39-5.57h3.08v10.87Z"/>
            <path d="m40.47,204.74h-5.25v2.93h3.98v1.5h-3.98v4.94h-1.9v-10.87h7.16v1.5Z"/>
            <path d="m46.08,203.24c2.72,0,3.71.99,3.71,2.7,0,1.25-.84,2.14-2.16,2.37v.1c1.61.27,2.49,1.22,2.49,2.62,0,1.92-1.37,3.08-3.85,3.08h-4.08v-10.87h3.88Zm-2.03,4.47h1.65c1.48,0,2.21-.62,2.21-1.58s-.53-1.47-2.04-1.47h-1.82v3.05Zm0,4.99h2.02c1.44,0,2.16-.67,2.16-1.81s-.88-1.76-2.4-1.76h-1.78v3.57Z"/>
            <path d="m62.86,214.11h-1.81v-5.49c0-1.36.01-2.55.03-3.84h-.2c-.28,1.25-.53,2.37-.9,3.7l-1.47,5.63h-2.21l-1.43-5.56c-.34-1.26-.6-2.44-.92-3.77h-.2c.03,1.26.04,2.52.04,3.87v5.46h-1.67v-10.87h3.07l1.37,5.55c.28,1.13.56,2.4.78,3.59h.2c.29-1.19.52-2.31.84-3.56l1.39-5.57h3.08v10.87Z"/>
          </g>
          <polyline points="5.48 219.03 .5 219.03 .5 198.28 5.48 198.28" fill="none" stroke="#000" stroke-miterlimit="10"/>
          <polyline points="78.35 219.03 83.33 219.03 83.33 198.28 78.35 198.28" fill="none" stroke="#000" stroke-miterlimit="10"/>
        </g>
        <g>
          <g>
            <path d="m218.63,208.36c-.08,1.57-.28,2.51-.83,3.57-.56,1.09-1.57,2.12-2.47,2.65-.15.1-.29.17-.42.17-.1,0-.2-.04-.29-.14-.28-.28-.76-.56-1.25-.74,1.37-.74,2.2-1.43,2.79-2.49.52-.92.66-1.68.71-3.01h-2.66c-.7,0-1.39.04-2.1.08-.13.01-.17-.08-.18-.27-.07-.39-.11-.92-.11-1.34.78.07,1.57.07,2.38.07h6.29c1.09,0,1.9-.03,2.73-.08.14,0,.15.08.15.28.01.18.01.9,0,1.08,0,.18-.08.24-.21.24-.73-.03-1.69-.06-2.66-.06h-1.88Zm-2.77-3.25c-.64,0-1.2.03-1.99.06-.18,0-.22-.07-.24-.24-.04-.34-.06-.84-.1-1.34.98.06,1.69.07,2.33.07h3.14c.78,0,1.67-.01,2.37-.06.14,0,.17.08.17.27.03.34.03.69,0,1.02,0,.2-.03.27-.18.27-.76-.03-1.58-.04-2.35-.04h-3.14Z"/>
            <path d="m233.69,206.48c.78,0,1.71-.01,2.44-.03.2-.01.25.01.27.25.03.35.03.74,0,1.09,0,.22-.06.27-.27.27-.5,0-1.57-.06-2.35-.06h-1.99c-.14,2.03-.35,2.83-.95,3.82-.66,1.11-1.78,2.13-2.98,2.76-.11.07-.21.1-.32.1s-.21-.04-.31-.14c-.35-.32-.69-.56-1.18-.77,1.58-.76,2.51-1.5,3.18-2.54.55-.84.78-1.75.85-3.24h-2.7c-.69,0-1.48.06-2.02.07-.18.01-.22-.06-.25-.27-.04-.28-.07-.87-.1-1.39.91.07,1.7.07,2.38.07h2.76c0-.7,0-1.46-.01-2.07-.01-.45-.03-.85-.17-1.41.7.03,1.41.08,1.86.2.15.04.21.1.21.2,0,.08-.04.18-.1.31-.06.13-.11.46-.11.85,0,.66,0,1.12-.01,1.92h1.88Z"/>
            <path d="m239.13,204.27c.06-.07.13-.11.2-.11.06,0,.11.03.18.07.71.38,1.88,1.23,2.68,1.99.08.08.13.14.13.2s-.03.11-.08.18c-.21.28-.67.84-.87,1.05-.07.07-.11.11-.17.11s-.11-.04-.18-.11c-.84-.87-1.85-1.67-2.86-2.28.31-.38.71-.81.98-1.09Zm1.22,7.38c1.71-.88,2.62-1.47,4.03-2.61,1.71-1.39,2.65-2.28,3.84-3.81.08.7.21,1.18.39,1.64.04.1.07.18.07.27,0,.13-.07.24-.22.42-.74.87-1.95,1.99-3.22,2.97-1.16.91-2.34,1.69-4.23,2.75-.63.38-.81.52-.94.64-.08.08-.17.14-.25.14-.07,0-.15-.06-.24-.15-.35-.39-.78-.97-1.12-1.55.71-.2,1.15-.32,1.89-.7Z"/>
            <path d="m254.06,206.89c1.71.53,3.07,1.08,4.45,1.91.15.08.22.18.15.36-.18.46-.41.9-.6,1.22-.06.1-.11.15-.18.15-.04,0-.1-.01-.15-.07-1.29-.83-2.55-1.44-3.68-1.79v3.1c0,.91.03,1.74.06,2.75.01.17-.06.21-.25.21-.41.03-.84.03-1.25,0-.2,0-.27-.04-.27-.21.04-1.04.06-1.86.06-2.76v-6.89c0-1.05-.04-1.51-.14-2.07.64.04,1.34.11,1.75.22.2.04.27.13.27.24,0,.08-.04.2-.11.32-.1.18-.1.53-.1,1.32v2Z"/>
            <path d="m267.43,203.01c1.57,2.03,3.59,3.36,6,4.24-.25.32-.46.64-.63,1.08-.1.25-.14.35-.24.35-.07,0-.17-.04-.32-.11-2.38-1.09-4.23-2.51-5.6-4.43-1.5,2.02-3.32,3.42-5.38,4.48-.17.08-.27.14-.34.14-.1,0-.14-.1-.25-.34-.17-.36-.41-.7-.66-.97,2.62-1.16,4.29-2.63,5.41-4.26.25-.36.39-.66.52-1.04.55.07,1.11.21,1.51.31.15.04.25.11.25.22,0,.08-.06.15-.15.21l-.11.1Zm-5.08,11.67c-1.25,0-1.67.03-1.77.03-.13,0-.14-.01-.14-.14v-1.12c0-.14.01-.15.14-.15.1,0,.52.03,1.77.03h.38v-3.07c0-.67-.01-1.13-.11-1.53.53.01,1.08.04,1.58.1.14.01.22.08.22.15,0,.13-.06.2-.1.29-.07.17-.08.45-.08,1.02v3.03h1.93v-5.34c0-.66-.01-1.13-.1-1.53.52.01,1.09.04,1.57.1.14.01.22.08.22.15,0,.13-.04.21-.08.31-.08.17-.08.45-.08,1.01v1.3h1.41c1.27,0,1.72-.03,1.81-.03.14,0,.15.01.15.15v1.09c0,.14-.01.15-.15.15-.08,0-.53-.03-1.81-.03h-1.41v2.65h3.33c1.23,0,1.67-.03,1.75-.03.14,0,.15.01.15.15v1.12c0,.13-.01.14-.15.14-.08,0-.52-.03-1.75-.03h-8.68Z"/>
            <path d="m276.39,211.75c-1.26,0-1.68.03-1.77.03-.15,0-.17-.01-.17-.15v-.83c0-.15.01-.17.17-.17.08,0,.5.03,1.77.03h3.46v-.76h-1.98c-1.36,0-1.85.03-1.93.03-.14,0-.14-.01-.14-.15v-.8c0-.15,0-.17.14-.17.08,0,.57.03,1.93.03h1.98v-.74h-2.63c-1.34,0-1.79.03-1.88.03-.15,0-.17-.01-.17-.14v-.83c0-.14.01-.15.17-.15.08,0,.53.03,1.88.03h.85c-.15-.34-.29-.62-.45-.88-.07-.13-.08-.18.1-.24l.91-.25h-2.24c-1.26,0-1.68.03-1.77.03-.15,0-.17-.01-.17-.15v-.87c0-.15.01-.17.17-.17.08,0,.5.03,1.77.03h.1c-.22-.45-.48-.8-.8-1.2-.08-.1-.06-.15.11-.24l.81-.38c.14-.07.18-.06.27.06.34.41.69.88.94,1.36.07.13.07.14-.11.24l-.34.17h1.3v-.92c0-.49,0-.83-.08-1.22.43.01.98.04,1.36.08.11.01.17.06.17.13,0,.08-.03.15-.06.24-.04.1-.08.31-.08.77v.92h1.13v-.91c0-.5,0-.84-.08-1.23.42.01.97.04,1.34.1.13.01.18.06.18.13s-.03.15-.06.22c-.04.1-.08.31-.08.77v.92h.87c.25-.39.45-.74.64-1.15.1-.21.18-.42.24-.76.49.1.98.24,1.36.36.13.04.18.11.18.18,0,.11-.06.17-.14.24-.1.08-.17.17-.24.27-.18.29-.38.57-.57.85h.2c1.26,0,1.68-.03,1.77-.03.14,0,.15.01.15.17v.87c0,.14-.01.15-.15.15-.08,0-.5-.03-1.77-.03h-2.45c.36.07.69.14,1.11.25.11.03.18.08.18.17,0,.1-.07.17-.15.21-.07.04-.14.2-.2.29l-.25.45h.91c1.34,0,1.79-.03,1.88-.03.14,0,.15.01.15.15v.83c0,.13-.01.14-.15.14-.08,0-.53-.03-1.88-.03h-2.83v.74h2.23c1.37,0,1.85-.03,1.93-.03.14,0,.15.01.15.17v.8c0,.14-.01.15-.15.15-.08,0-.56-.03-1.93-.03h-2.23v.76h3.68c1.26,0,1.68-.03,1.77-.03.14,0,.15.01.15.17v.83c0,.14-.01.15-.15.15-.08,0-.5-.03-1.77-.03h-2.49c1.18.83,2.65,1.37,4.66,1.82-.18.22-.38.52-.55.9-.11.27-.17.36-.31.36-.07,0-.17-.03-.32-.07-1.89-.55-3.56-1.47-4.71-2.51,0,1.67.07,2.54.07,2.77,0,.14-.01.15-.15.15h-1.19c-.13,0-.14-.01-.14-.15,0-.24.04-1.05.06-2.72-1.18,1.12-2.63,1.91-4.5,2.51-.15.06-.25.08-.32.08-.13,0-.18-.1-.31-.36-.18-.36-.38-.66-.56-.84,1.86-.46,3.29-1.04,4.47-1.95h-2.27Zm5.41-4.72c.13-.24.24-.48.38-.81.07-.15.1-.29.15-.56h-3.57s.07.06.11.11c.21.35.43.77.63,1.26h2.3Z"/>
          </g>
          <polyline points="197.06 219.03 192.07 219.03 192.07 198.28 197.06 198.28" fill="none" stroke="#000" stroke-miterlimit="10"/>
          <polyline points="302.78 219.03 307.76 219.03 307.76 198.28 302.78 198.28" fill="none" stroke="#000" stroke-miterlimit="10"/>
        </g>
        <g>
          <g>
            <path d="m386.73,207.71c1.23-.41,2.3-.81,3.42-1.36.76-.36,1.11-.59,1.5-1.01.49.41.95.98,1.16,1.26.07.08.11.17.11.25,0,.11-.07.21-.24.25-.39.1-.78.29-1.16.46-1.39.63-2.96,1.19-4.8,1.74v1.86c0,.66.1.88.46.99.36.1.91.15,1.76.15,1.32,0,2.49-.1,3.95-.32.21-.03.24.03.25.2.04.39.08.92.08,1.22,0,.18-.08.24-.29.25-1.58.2-2.4.25-4.16.25-1.25,0-2.07-.13-2.66-.38-.7-.29-.99-.95-.99-2.1v-5.17c0-1.33-.03-1.86-.14-2.56.66.07,1.32.15,1.76.28.17.04.22.13.22.22s-.04.2-.1.29c-.11.22-.14.6-.14,1.26v1.95Zm5.85-4.05c.07-.06.13-.04.21.03.43.34.94.9,1.33,1.5.06.08.06.15-.04.22l-.59.43c-.1.07-.17.06-.24-.04-.42-.64-.87-1.18-1.42-1.62l.74-.52Zm1.25-.91c.08-.06.13-.04.21.03.52.39,1.02.95,1.33,1.44.06.08.07.17-.04.25l-.56.43c-.11.08-.18.04-.24-.04-.38-.6-.83-1.13-1.4-1.61l.7-.5Z"/>
            <path d="m400.06,205.2c.24.07.27.24.18.43-.15.31-.17.62-.17.95-.03,1.75-.29,3.08-.76,4.12-.36.85-.98,1.76-1.99,2.63-.14.11-.25.18-.36.18-.08,0-.17-.04-.27-.11-.35-.24-.69-.41-1.19-.59,1.09-.83,1.84-1.68,2.33-2.79.39-.95.57-1.72.59-3.96,0-.53-.03-.76-.14-1.18.8.1,1.44.2,1.78.31Zm3.11,5.93c.69-.36,1.33-.8,1.99-1.3.84-.64,1.67-1.39,2.45-2.38.06.49.2.95.43,1.41.04.1.08.17.08.24,0,.1-.06.2-.21.35-.7.71-1.34,1.29-2.07,1.83-.73.56-1.51,1.11-2.49,1.68-.25.17-.28.2-.41.29-.08.07-.18.11-.28.11-.08,0-.18-.04-.29-.11-.31-.21-.63-.57-.84-.85-.08-.13-.13-.21-.13-.29,0-.07.01-.13.06-.21.1-.18.08-.35.08-1.06v-4.38c0-1.22,0-1.79-.14-2.44.56.07,1.33.17,1.75.29.18.04.25.13.25.24,0,.08-.04.21-.11.35-.13.27-.13.55-.13,1.55v4.68Z"/>
            <path d="m415.91,208.43c-.55.78-1.12,1.4-1.98,2.16-.71.66-1.79,1.48-2.65,1.96-.13.08-.22.13-.32.13-.08,0-.17-.04-.24-.14-.28-.34-.76-.67-1.15-.83,1.43-.78,2.31-1.37,3.26-2.21.83-.73,1.5-1.4,2.06-2.17h-2.45c-.73.01-1.51.04-2.24.08-.13.01-.18-.08-.2-.24-.06-.27-.08-.84-.11-1.36.84.06,1.67.07,2.51.07h3.33l-.06-1.25c-.03-.7-.1-1.2-.22-1.65.76.03,1.33.07,1.77.15.14.03.18.08.18.17,0,.06-.03.13-.06.21-.04.17-.1.39-.06,1.29l.04,1.06h1.22c.98,0,1.68-.03,2.72-.07.14,0,.21.07.21.17.01.39.01.83,0,1.22,0,.11-.06.2-.2.2-1.02-.04-1.82-.07-2.69-.07h-1.13l.25,5.27c.04.74-.21,1.2-.67,1.48-.48.28-1.29.49-1.93.49-.27,0-.36-.06-.43-.24-.22-.52-.46-.84-.98-1.25,1.05-.01,1.5-.04,1.98-.14.32-.07.43-.21.41-.83l-.17-3.67Z"/>
            <path d="m425.71,209.76c-1.39,0-1.92.17-2.06.17-.17,0-.28-.08-.32-.29-.07-.32-.15-.98-.21-1.7.91.14,1.61.17,3.03.17h4.51c1.06,0,2.14-.03,3.22-.04.21-.01.25.03.25.2.03.42.03.9,0,1.32,0,.17-.06.22-.25.21-1.05-.01-2.09-.03-3.12-.03h-5.04Z"/>
            <path d="m444.57,206.48c.78,0,1.71-.01,2.44-.03.2-.01.25.01.27.25.03.35.03.74,0,1.09,0,.22-.06.27-.27.27-.5,0-1.57-.06-2.35-.06h-1.99c-.14,2.03-.35,2.83-.95,3.82-.66,1.11-1.78,2.13-2.98,2.76-.11.07-.21.1-.32.1s-.21-.04-.31-.14c-.35-.32-.69-.56-1.18-.77,1.58-.76,2.51-1.5,3.18-2.54.55-.84.78-1.75.85-3.24h-2.7c-.69,0-1.48.06-2.02.07-.18.01-.22-.06-.25-.27-.04-.28-.07-.87-.1-1.39.91.07,1.69.07,2.38.07h2.76c0-.7,0-1.46-.01-2.07-.01-.45-.03-.85-.17-1.41.7.03,1.42.08,1.86.2.15.04.21.1.21.2,0,.08-.04.18-.1.31-.06.13-.11.46-.11.85,0,.66,0,1.12-.01,1.92h1.88Z"/>
            <path d="m451.62,209.76c-1.39,0-1.92.17-2.06.17-.17,0-.28-.08-.32-.29-.07-.32-.15-.98-.21-1.7.91.14,1.61.17,3.03.17h4.51c1.06,0,2.14-.03,3.22-.04.21-.01.25.03.25.2.03.42.03.9,0,1.32,0,.17-.06.22-.25.21-1.05-.01-2.09-.03-3.12-.03h-5.04Z"/>
          </g>
          <polyline points="369.17 219.03 364.19 219.03 364.19 198.28 369.17 198.28" fill="none" stroke="#000" stroke-miterlimit="10"/>
          <polyline points="473.89 219.03 478.87 219.03 478.87 198.28 473.89 198.28" fill="none" stroke="#000" stroke-miterlimit="10"/>
        </g>
        <g>
          <g>
            <path d="m306.1,61.42v99.84c0,.85.56,1.7,1.67,2.34l25.82,14.91c2.23,1.29,5.88,1.29,8.12,0l25.82-14.91c1.12-.64,1.67-1.49,1.67-2.34V61.42h-63.1Z" fill="#a9c8c9"/>
            <path d="m307.78,63.77c-1.12-.64-1.67-1.49-1.67-2.34,0-.85.56-1.7,1.67-2.34l25.82-14.91c2.23-1.29,5.88-1.29,8.12,0l25.82,14.91c1.12.64,1.67,1.49,1.67,2.34s-.56,1.7-1.67,2.34l-25.82,14.91c-2.23,1.29-5.88,1.29-8.12,0l-25.82-14.91Z" fill="#c8dadc"/>
          </g>
          <g>
            <path d="m312.86,56.8v4.63c0,.67.44,1.33,1.32,1.84l20.29,11.71c1.75,1.01,4.62,1.01,6.38,0l20.29-11.71c.88-.51,1.32-1.17,1.32-1.84v-4.63h-49.58Z" fill="#a9c8c9"/>
            <path d="m314.18,58.64c-.88-.51-1.32-1.17-1.32-1.84s.44-1.33,1.32-1.84l20.29-11.71c1.75-1.01,4.62-1.01,6.38,0l20.29,11.71c.88.51,1.32,1.17,1.32,1.84s-.44,1.33-1.32,1.84l-20.29,11.71c-1.75,1.01-4.62,1.01-6.38,0l-20.29-11.71Z" fill="#c8dadc"/>
          </g>
          <g>
            <path d="m318.31,52.17v4.63c0,.52.34,1.04,1.03,1.44l15.83,9.14c1.37.79,3.61.79,4.98,0l15.83-9.14c.68-.39,1.03-.92,1.03-1.44v-4.63h-38.68Z" fill="#a9c8c9"/>
            <path d="m319.34,53.6c-.68-.39-1.03-.92-1.03-1.44s.34-1.04,1.03-1.44l15.83-9.14c1.37-.79,3.61-.79,4.98,0l15.83,9.14c.68.39,1.03.92,1.03,1.44,0,.52-.34,1.04-1.03,1.44l-15.83,9.14c-1.37.79-3.61.79-4.98,0l-15.83-9.14Z" fill="#c8dadc"/>
          </g>
          <g>
            <path d="m331.87,46.69v5.48c0,.16.1.31.31.43l4.73,2.73c.41.24,1.08.24,1.49,0l4.73-2.73c.2-.12.31-.27.31-.43v-5.48h-11.55Z" fill="#a9c8c9"/>
            <path d="m332.18,47.12c-.2-.12-.31-.27-.31-.43s.1-.31.31-.43l4.73-2.73c.41-.24,1.08-.24,1.49,0l4.73,2.73c.2.12.31.27.31.43s-.1.31-.31.43l-4.73,2.73c-.41.24-1.08.24-1.49,0l-4.73-2.73Z" fill="#c8dadc"/>
          </g>
          <polygon points="314.63 159.78 308.63 156.32 308.63 70.83 314.63 74.29 314.63 159.78" fill="#dae0f5" mix-blend-mode="multiply"/>
          <polygon points="323.48 164.89 317.48 161.43 317.48 75.94 323.48 79.4 323.48 164.89" fill="#dae0f5" mix-blend-mode="multiply"/>
          <polygon points="332.33 170 326.33 166.54 326.33 81.05 332.33 84.52 332.33 170" fill="#dae0f5" mix-blend-mode="multiply"/>
          <polygon points="360.68 159.78 366.68 156.32 366.68 70.83 360.68 74.29 360.68 159.78" fill="#dae0f5" mix-blend-mode="multiply"/>
          <polygon points="351.82 164.89 357.82 161.43 357.82 75.94 351.82 79.4 351.82 164.89" fill="#dae0f5" mix-blend-mode="multiply"/>
          <polygon points="342.97 170 348.97 166.54 348.97 81.05 342.97 84.52 342.97 170" fill="#dae0f5" mix-blend-mode="multiply"/>
        </g>
        <g>
          <path d="m157.79,68.26c.17,0,.27-.01.35-.06.07-.03.13-.04.2-.04.13,0,.22.06.53.35.32.32.42.48.42.6,0,.15-.08.21-.21.29-.11.07-.24.15-.43.39-.73.85-1.42,1.55-2.14,2.17,1.41.78,3.12,1.33,5.21,1.72-.22.29-.36.64-.48,1.02-.13.45-.13.46-.56.35-.52-.13-1.01-.28-1.47-.43-.01.15-.03.55-.03,1.29v1.25c0,1.92.03,2.27.03,2.34,0,.14-.01.15-.15.15h-1.16c-.14,0-.15-.01-.15-.15v-.46h-4.85v.53c0,.14-.01.15-.15.15h-1.16c-.14,0-.15-.01-.15-.15,0-.08.03-.45.03-2.37v-1.08c0-.8-.01-1.2-.03-1.41-.49.17-1.02.35-1.58.5-.43.11-.45.13-.6-.31-.13-.36-.29-.69-.5-.94,2.28-.5,4.02-1.15,5.42-1.99-.59-.49-1.13-1.04-1.62-1.65-.6.55-1.3,1.06-2.09,1.55-.15.1-.24.15-.31.15-.08,0-.14-.1-.28-.34-.18-.29-.43-.55-.69-.74,1.81-.95,3.04-2.12,3.89-3.31.21-.34.34-.59.43-.88.53.1.98.2,1.37.29.17.04.22.13.22.21,0,.11-.07.17-.17.25-.08.07-.17.14-.38.43l-.2.29h3.45Zm-.6,6.18c.66,0,1.09,0,1.39-.01-1.22-.43-2.28-.95-3.25-1.57-.91.62-1.92,1.12-3.11,1.58h4.97Zm-4.3,3.35h4.85v-2.1h-4.85v2.1Zm.63-8.32c.53.67,1.12,1.23,1.78,1.74.64-.52,1.2-1.09,1.72-1.74h-3.5Z" fill="#e26e7a"/>
          <path d="m164.36,71.97c-.94,0-1.22.03-1.3.03-.15,0-.17-.01-.17-.15v-.98c0-.14.01-.15.17-.15.08,0,.36.03,1.3.03h.35v-1.67c-.28.08-.56.15-.84.21q-.42.08-.59-.34c-.11-.28-.25-.53-.41-.74,1.26-.2,2.26-.49,3.11-.84.24-.11.39-.2.59-.32.35.29.56.52.78.8.08.1.13.15.13.24,0,.11-.1.18-.24.18s-.27.06-.43.13c-.24.1-.49.2-.76.28v2.07c.73,0,.98-.03,1.05-.03.14,0,.15.01.15.15v.98c0,.14-.01.15-.15.15-.07,0-.29-.01-.95-.03.39.87.9,1.48,1.44,2-.22.28-.38.56-.52.88-.07.15-.11.22-.17.22s-.11-.07-.2-.2c-.25-.38-.49-.8-.7-1.32,0,3.4.08,5.77.08,6.02,0,.13-.01.14-.15.14h-1.12c-.14,0-.15-.01-.15-.14,0-.24.08-2.63.11-5.74-.35,1.23-.8,2.2-1.37,3.08-.1.14-.15.22-.22.22-.04,0-.1-.07-.14-.24-.13-.42-.31-.85-.46-1.11.8-1.04,1.43-2.14,1.95-3.84h-.17Zm4.44,7.38c-1.36,0-1.82.03-1.9.03-.15,0-.17-.01-.17-.17v-.85c0-.13.01-.14.17-.14.08,0,.55.01,1.9.01h1.71v-.78h-1.11c-1.32,0-1.78.03-1.86.03-.14,0-.15-.01-.15-.15v-.81c0-.14.01-.15.15-.15.08,0,.55.03,1.86.03h1.11v-.76h-.78c-1.27,0-1.71.03-1.79.03-.15,0-.17-.01-.17-.15,0-.08.03-.41.03-1.19v-1.74c0-.78-.03-1.11-.03-1.2,0-.13.01-.14.17-.14.08,0,.52.03,1.79.03h.78v-.74h-1.34c-1.36,0-1.82.03-1.91.03-.14,0-.15-.01-.15-.15v-.84c0-.14.01-.15.15-.15.08,0,.55.03,1.91.03h1.34v-.74c-.64.03-1.32.07-2.02.08q-.36,0-.53-.34c-.13-.28-.27-.5-.42-.7,2.2-.03,3.94-.15,5.48-.45.41-.08.59-.14.84-.24.31.2.71.53.92.76.08.08.11.14.11.24s-.1.17-.28.17c-.15,0-.35.04-.57.08-.7.13-1.44.22-2.21.29v.84h1.65c1.36,0,1.82-.03,1.89-.03.15,0,.17.01.17.15v.84c0,.14-.01.15-.17.15-.07,0-.53-.03-1.89-.03h-1.65v.74h.97c1.25,0,1.69-.03,1.79-.03.14,0,.15.01.15.14,0,.08-.03.42-.03,1.2v1.74c0,.78.03,1.12.03,1.19,0,.14-.01.15-.15.15-.1,0-.55-.03-1.79-.03h-.97v.76h1.25c1.32,0,1.77-.03,1.86-.03.14,0,.15.01.15.15v.81c0,.14-.01.15-.15.15-.1,0-.55-.03-1.86-.03h-1.25v.78h1.76c1.36,0,1.82-.01,1.91-.01.15,0,.17.01.17.14v.85c0,.15-.01.17-.17.17-.08,0-.55-.03-1.91-.03h-4.79Zm1.71-6.39v-.77h-1.46v.77h1.46Zm0,1.72v-.84h-1.46v.84h1.46Zm1.32-2.49v.77h1.58v-.77h-1.58Zm1.58,1.65h-1.58v.84h1.58v-.84Z" fill="#e26e7a"/>
          <path d="m122.66,88.72c.07-.06.13-.08.2-.08.06,0,.11.03.18.1.78.6,1.64,1.54,2.24,2.45.06.07.07.11.07.17s-.04.11-.1.2c-.29.27-.73.64-1.08.85-.04.03-.08.06-.13.06-.07,0-.14-.06-.2-.15-.55-.9-1.34-1.88-2.33-2.69.45-.36.95-.76,1.13-.9Zm8.9.48c.13.07.17.14.17.24,0,.11-.07.22-.15.32-.22.25-.35.6-.48.91-.85,2.14-1.79,3.78-2.62,4.83-1.04,1.33-2.47,2.65-3.59,3.35-.11.07-.21.11-.29.11-.1,0-.2-.06-.31-.15-.29-.24-.76-.45-1.29-.62,1.75-1.11,2.94-2.17,4.01-3.52.95-1.2,1.88-2.9,2.38-4.4.24-.73.32-1.13.36-1.86.74.25,1.43.52,1.81.78Z" fill="#e26e7a"/>
          <path d="m135.17,89.86c0-.97-.04-1.5-.15-2.05.59.07,1.33.15,1.74.29.17.04.24.13.24.22,0,.07-.03.14-.06.21-.13.27-.15.62-.15,1.33v2.83c0,.73.03,1.27.04,1.77,0,.21-.08.28-.31.28h-1.12c-.2,0-.28-.07-.27-.24,0-.49.04-1.3.04-1.91v-2.75Zm6.6,2.62c0,2.07-.31,3.46-1.13,4.57-.69.91-1.91,1.76-3.08,2.2-.11.04-.21.07-.29.07-.11,0-.21-.04-.34-.17-.34-.34-.7-.6-1.19-.85,1.5-.46,2.68-1.12,3.42-2.05.64-.8.94-1.96.94-3.74v-2.65c0-1.2-.03-1.65-.15-2.28.67.06,1.34.15,1.82.31.14.04.2.13.2.24,0,.07-.01.15-.06.22-.13.29-.13.66-.13,1.53v2.61Z" fill="#e26e7a"/>
          <path d="m152.31,96.82c.56,0,1.18-.01,1.71-.01.24-.01.29.03.31.25.01.27.01.62,0,.88-.01.27-.06.28-.27.28-.63,0-1.3-.01-1.95-.01h-5.15c-.57,0-1.12,0-1.81.03-.15,0-.21-.07-.24-.28-.06-.29-.07-.74-.07-1.18.8.06,1.32.06,2.02.06h3.25l.48-3.4h-2.26c-.55,0-1.18.03-1.54.04-.17.01-.22-.03-.25-.27-.04-.29-.07-.74-.1-1.2.94.04,1.36.07,1.95.07h1.93c.5,0,.63-.04.83-.13.06-.04.11-.06.15-.06.07,0,.14.04.21.08.25.18.63.49.85.77.08.08.13.17.13.25s-.04.17-.13.25c-.18.2-.22.35-.28.7l-.43,2.87h.66Z" fill="#e26e7a"/>
          <path d="m158.66,94.3c-1.39,0-1.92.17-2.06.17-.17,0-.28-.08-.32-.29-.07-.32-.15-.98-.21-1.7.91.14,1.61.17,3.03.17h4.51c1.06,0,2.14-.03,3.22-.04.21-.01.25.03.25.2.03.42.03.9,0,1.32,0,.17-.06.22-.25.21-1.05-.01-2.09-.03-3.12-.03h-5.04Z" fill="#e26e7a"/>
          <path d="m169.69,91.34c.07-.1.14-.17.27-.14,1.05.35,1.89.8,2.69,1.37.1.07.15.13.15.21,0,.04-.03.1-.06.15-.15.38-.39.74-.62,1.06-.07.08-.13.14-.18.14s-.1-.03-.17-.08c-.9-.66-1.81-1.12-2.83-1.53.35-.56.57-.97.74-1.19Zm2.27,5.2c1.33-.7,2.48-1.36,3.84-2.42,1.12-.85,2.62-2.2,4.03-3.91.08.62.2.97.41,1.57.04.1.07.18.07.27,0,.11-.04.21-.15.32-1.3,1.4-2.19,2.17-3.56,3.24-1.22.92-2.52,1.72-4.19,2.63-.34.18-.67.34-.81.48-.08.08-.15.11-.22.11-.1,0-.2-.06-.28-.17-.29-.29-.67-.84-1.04-1.43.59-.11,1.08-.27,1.9-.69Zm-.57-8.42c.1-.17.18-.2.35-.11.9.36,1.86.88,2.63,1.55.08.06.11.13.11.18s-.01.11-.06.18c-.2.35-.48.8-.71,1.05-.04.07-.1.08-.14.08-.07,0-.14-.04-.21-.1-.73-.6-1.82-1.32-2.72-1.72.24-.36.5-.76.74-1.12Z" fill="#e26e7a"/>
          <path d="m188.15,92.8h-3.24c-.66,0-1.33.07-1.96.08-.13.01-.2-.1-.21-.32-.03-.35-.04-.62-.07-1.15.8.07,1.23.07,2.24.07h2.44c.69,0,1.46,0,2.07-.03.17,0,.22.08.21.22,0,.63-.03,1.22-.03,1.83v3.24c0,.63.03,1.27.06,1.99,0,.21-.07.25-.31.27-.22.01-.67.03-.95.03-.22,0-.25-.04-.25-.21v-.42h-3.32c-.66,0-1.29.03-1.93.07-.14,0-.18-.07-.2-.28-.04-.28-.07-.69-.07-1.16.76.06,1.44.06,2.26.06h3.26v-1.57h-2.97c-.63,0-1.32.03-1.92.06-.17,0-.22-.08-.24-.31-.04-.28-.06-.64-.06-1.12.76.06,1.27.07,2.19.07h3v-1.41Z" fill="#e26e7a"/>
          <path d="m193.45,88.81c.06-.07.13-.11.2-.11.06,0,.11.03.18.07.71.38,1.88,1.23,2.68,1.99.08.08.13.14.13.2s-.03.11-.08.18c-.21.28-.67.84-.87,1.05-.07.07-.11.11-.17.11s-.11-.04-.18-.11c-.84-.87-1.85-1.67-2.86-2.28.31-.38.71-.81.98-1.09Zm1.22,7.38c1.71-.88,2.62-1.47,4.03-2.61,1.71-1.39,2.65-2.28,3.84-3.81.08.7.21,1.18.39,1.64.04.1.07.18.07.27,0,.13-.07.24-.22.42-.74.87-1.95,1.99-3.22,2.97-1.16.91-2.34,1.69-4.23,2.75-.63.38-.81.52-.94.64-.08.08-.17.14-.25.14-.07,0-.15-.06-.24-.15-.35-.39-.78-.97-1.12-1.55.71-.2,1.15-.32,1.89-.7Z" fill="#e26e7a"/>
        </g>
        <g>
          <path d="m145.59,176.87c-.91,0-1.71.04-2.31.07-.18.01-.24-.08-.27-.28-.04-.28-.1-1.01-.13-1.41.63.07,1.37.1,2.69.1h5c.42,0,.57-.03.77-.14.07-.04.14-.06.21-.06.08,0,.17.03.27.07.38.24.76.59,1.02.92.07.08.1.15.1.24,0,.13-.07.24-.2.35-.13.13-.2.27-.32.55-.69,1.65-1.54,3.19-2.72,4.55-1.2,1.37-2.56,2.54-3.98,3.33-.13.08-.25.13-.38.13-.11,0-.24-.04-.35-.15-.32-.31-.78-.56-1.3-.77,2.04-1.04,3.29-2,4.58-3.5,1.09-1.25,1.81-2.44,2.37-3.99h-5.06Z" fill="#e26e7a"/>
          <path d="m159.8,183.18c0,.67.03,1.57.04,2.28.01.17-.07.24-.24.25-.36.03-.77.03-1.13,0-.15-.01-.24-.08-.22-.25.01-.8.04-1.5.04-2.24v-2.4c-.95.8-2.19,1.65-2.9,2.02-.06.04-.13.06-.18.06-.1,0-.21-.06-.28-.14-.25-.29-.63-.57-1.01-.7,2.2-1.15,4.1-2.62,5.81-4.55.32-.38.56-.73.74-1.2.48.28,1.06.64,1.29.84.1.08.15.18.15.25,0,.1-.07.2-.21.27-.18.1-.5.43-.63.57-.36.42-.78.88-1.27,1.36v3.59Z" fill="#e26e7a"/>
          <path d="m166.75,180.69c-1.39,0-1.92.17-2.06.17-.17,0-.28-.08-.32-.29-.07-.32-.15-.98-.21-1.7.91.14,1.61.17,3.03.17h4.51c1.06,0,2.14-.03,3.22-.04.21-.01.25.03.25.2.03.42.03.9,0,1.32,0,.17-.06.22-.25.21-1.05-.01-2.09-.03-3.12-.03h-5.04Z" fill="#e26e7a"/>
        </g>
        <g>
          <line x1="183.18" y1="121.23" x2="131.31" y2="121.23" fill="none" stroke="#e26e7a" stroke-miterlimit="10" stroke-width="2.3"/>
          <polyline points="174.19 111.2 184.23 121.23 174.19 131.27" fill="none" stroke="#e26e7a" stroke-miterlimit="10" stroke-width="2.3"/>
        </g>
        <g>
          <line x1="132.35" y1="156.27" x2="184.23" y2="156.27" fill="none" stroke="#e26e7a" stroke-miterlimit="10" stroke-width="2.3"/>
          <polyline points="141.34 166.3 131.31 156.27 141.34 146.24" fill="none" stroke="#e26e7a" stroke-miterlimit="10" stroke-width="2.3"/>
        </g>
        <circle cx="249.92" cy="39.66" r="35.55" fill="#ffffcd"/>
        <g>
          <path d="m238.47,23.9c-1.22,0-1.64.03-1.72.03-.13,0-.14-.01-.14-.15v-.84c0-.14.01-.15.14-.15.08,0,.5.03,1.72.03h3.75v-.66h-2.31c-1.36,0-1.82.03-1.91.03-.14,0-.15-.01-.15-.14v-.77c0-.14.01-.15.15-.15.08,0,.55.03,1.91.03h2.31v-.62h-1.81c-1.37,0-1.86.03-1.95.03-.15,0-.17-.01-.17-.17,0-.08.03-.27.03-.73v-.76c0-.46-.03-.64-.03-.73,0-.15.01-.17.17-.17.08,0,.57.03,1.95.03h1.81v-.62h-3.53c-1.26,0-1.7.03-1.78.03-.14,0-.15-.01-.15-.15v-.88c0-.14.01-.15.15-.15.08,0,.52.03,1.78.03h3.53c0-.56-.03-.9-.1-1.29.52.01.97.03,1.46.08.13.01.22.07.22.15,0,.11-.04.18-.08.27-.06.15-.08.32-.08.78h3.56c1.26,0,1.69-.03,1.78-.03.14,0,.15.01.15.15v.88c0,.14-.01.15-.15.15-.08,0-.52-.03-1.78-.03h-3.56v.62h1.86c1.37,0,1.86-.03,1.96-.03.14,0,.15.01.15.17,0,.08-.03.27-.03.73v.76c0,.46.03.64.03.73,0,.15-.01.17-.15.17-.1,0-.59-.03-1.96-.03h-1.86v.62h2.27c1.37,0,1.86-.03,1.93-.03.14,0,.15.01.15.15,0,.08-.03.42-.03,1.22v.32c.83,0,1.15-.03,1.22-.03.13,0,.14.01.14.15v.84c0,.14-.01.15-.14.15-.07,0-.39-.01-1.22-.03v.71c0,.84.03,1.2.03,1.29,0,.14-.01.15-.15.15h-1.08c-.14,0-.15-.01-.15-.15v-.31h-2.96c.01.25.01.49.01.7,0,.64-.13,1.02-.5,1.25-.35.2-.97.29-1.98.31-.42,0-.42-.01-.56-.41-.13-.35-.31-.73-.55-1.06.52.06.9.07,1.41.06.6-.01.73-.11.73-.52v-.32h-2.3c-1.37,0-1.83.03-1.92.03-.14,0-.15-.01-.15-.17v-.76c0-.15.01-.17.15-.17.08,0,.55.03,1.92.03h2.3v-.66h-3.75Zm3.75-4.27v-.7h-2.54v.7h2.54Zm4.01-.7h-2.59v.7h2.59v-.7Zm-2.59,3.22v.66h2.97v-.66h-2.97Zm2.97,2.41v-.66h-2.97v.66h2.97Z" fill="#e26e7a"/>
          <path d="m252.65,24.45c-1.26,0-1.68.03-1.77.03-.15,0-.17-.01-.17-.15v-.83c0-.15.01-.17.17-.17.08,0,.5.03,1.77.03h3.46v-.76h-1.98c-1.36,0-1.85.03-1.93.03-.14,0-.14-.01-.14-.15v-.8c0-.15,0-.17.14-.17.08,0,.57.03,1.93.03h1.98v-.74h-2.63c-1.34,0-1.79.03-1.88.03-.15,0-.17-.01-.17-.14v-.83c0-.14.01-.15.17-.15.08,0,.53.03,1.88.03h.85c-.15-.34-.29-.62-.45-.88-.07-.13-.08-.18.1-.24l.91-.25h-2.24c-1.26,0-1.68.03-1.77.03-.15,0-.17-.01-.17-.15v-.87c0-.15.01-.17.17-.17.08,0,.5.03,1.77.03h.1c-.22-.45-.48-.8-.8-1.2-.08-.1-.06-.15.11-.24l.81-.38c.14-.07.18-.06.27.06.34.41.69.88.94,1.36.07.13.07.14-.11.24l-.34.17h1.3v-.92c0-.49,0-.83-.08-1.22.43.01.98.04,1.36.08.11.01.17.06.17.13,0,.08-.03.15-.06.24-.04.1-.08.31-.08.77v.92h1.13v-.91c0-.5,0-.84-.08-1.23.42.01.97.04,1.34.1.13.01.18.06.18.13s-.03.15-.06.22c-.04.1-.08.31-.08.77v.92h.87c.25-.39.45-.74.64-1.15.1-.21.18-.42.24-.76.49.1.98.24,1.36.36.13.04.18.11.18.18,0,.11-.06.17-.14.24-.1.08-.17.17-.24.27-.18.29-.38.57-.57.85h.2c1.26,0,1.68-.03,1.76-.03.14,0,.15.01.15.17v.87c0,.14-.01.15-.15.15-.08,0-.5-.03-1.76-.03h-2.45c.36.07.69.14,1.11.25.11.03.18.08.18.17,0,.1-.07.17-.15.21-.07.04-.14.2-.2.29l-.25.45h.91c1.34,0,1.79-.03,1.88-.03.14,0,.15.01.15.15v.83c0,.13-.01.14-.15.14-.08,0-.53-.03-1.88-.03h-2.83v.74h2.23c1.37,0,1.85-.03,1.93-.03.14,0,.15.01.15.17v.8c0,.14-.01.15-.15.15-.08,0-.56-.03-1.93-.03h-2.23v.76h3.68c1.26,0,1.68-.03,1.76-.03.14,0,.15.01.15.17v.83c0,.14-.01.15-.15.15-.08,0-.5-.03-1.76-.03h-2.49c1.18.83,2.65,1.37,4.66,1.82-.18.22-.38.52-.55.9-.11.27-.17.36-.31.36-.07,0-.17-.03-.32-.07-1.89-.55-3.56-1.47-4.71-2.51,0,1.67.07,2.54.07,2.77,0,.14-.01.15-.15.15h-1.19c-.13,0-.14-.01-.14-.15,0-.24.04-1.05.06-2.72-1.18,1.12-2.63,1.91-4.5,2.51-.15.06-.25.08-.32.08-.13,0-.18-.1-.31-.36-.18-.36-.38-.66-.56-.84,1.86-.46,3.29-1.04,4.47-1.95h-2.27Zm5.41-4.72c.13-.24.24-.48.38-.81.07-.15.1-.29.15-.56h-3.57s.07.06.11.11c.21.35.43.77.63,1.26h2.3Z" fill="#e26e7a"/>
          <path d="m238.59,36.7c.07,1.57.27,2.84.57,3.96.34-.55.62-1.09.84-1.64.15-.41.29-.81.38-1.29.49.14.99.35,1.3.5.14.07.21.14.21.22,0,.1-.1.18-.2.29-.1.1-.18.27-.35.69-.43.99-.97,1.96-1.6,2.84.5,1.08,1.15,1.75,1.5,1.75.32,0,.49-.42.57-1.72.18.21.49.39.78.55q.41.21.34.64c-.22,1.5-.73,2.19-1.58,2.19-.97,0-1.89-.9-2.59-2.2-.74.81-1.58,1.53-2.54,2.09-.17.1-.27.15-.34.15-.08,0-.15-.08-.29-.29-.22-.32-.48-.56-.71-.74,1.27-.67,2.37-1.6,3.25-2.63-.59-1.5-.9-3.17-1.02-5.36h-4.31v1.81h2.02c.85,0,1.11-.03,1.19-.03.14,0,.17.03.17.18-.03.53-.04,1.12-.07,1.54-.07,1.19-.11,1.95-.32,2.61-.25.73-.78,1.16-1.62,1.16-.25,0-.46,0-.71-.03-.32-.03-.34-.03-.41-.46-.07-.41-.18-.76-.34-1.01.5.08.8.11,1.15.11.32,0,.56-.08.67-.5.11-.36.17-1.13.21-2.26h-1.96c-.04.97-.13,1.75-.25,2.45-.18,1.04-.48,2.14-1.09,3.28-.1.18-.17.27-.24.27s-.15-.07-.28-.22c-.27-.31-.6-.62-.87-.78.64-.94.92-2.05,1.09-3.1.13-.87.2-1.85.2-3.39,0-1.91-.03-2.73-.03-2.82,0-.15.01-.17.17-.17.08,0,.55.03,1.88.03h3.73v-.29c-.01-.94-.01-1.27-.11-1.98.53.03,1.01.04,1.51.1.14.01.21.08.21.17,0,.11-.04.2-.07.27-.06.17-.08.46-.07,1.4v.34h2.1c1.32,0,1.78-.03,1.86-.03.14,0,.15.01.15.17v1.06c0,.14-.01.15-.15.15-.08,0-.55-.03-1.86-.03h-2.06Zm1.64-3.46c.14-.1.18-.1.29-.01.41.31.84.7,1.21,1.18.08.11.08.17-.07.27l-.67.5c-.08.06-.14.1-.18.1s-.07-.04-.11-.1c-.34-.52-.74-.91-1.13-1.23-.06-.06-.08-.08-.08-.13s.04-.07.11-.13l.64-.45Z" fill="#e26e7a"/>
          <path d="m246.2,40.71c-1.25,0-1.68.03-1.76.03-.13,0-.14-.01-.14-.15v-1.04c0-.14.01-.15.14-.15.08,0,.52.03,1.76.03h.42v-4.06c0-1.02-.03-1.5-.03-1.58,0-.14.01-.15.15-.15.08,0,.57.03,1.93.03h4.68c1.36,0,1.82-.03,1.91-.03.15,0,.17.01.17.15v1.02c0,.13-.01.14-.17.14-.08,0-.55-.03-1.91-.03h-5.25v.78h4.66c1.3,0,1.74-.03,1.82-.03.14,0,.15.01.15.17v.81c0,.14-.01.15-.15.15-.08,0-.52-.03-1.82-.03h-4.66v.77h4.66c1.3,0,1.72-.03,1.81-.03.15,0,.17.01.17.17v.81c0,.14-.01.15-.17.15-.08,0-.5-.03-1.81-.03h-4.66v.8h6.72c1.25,0,1.67-.03,1.75-.03.15,0,.17.01.17.15v1.04c0,.14-.01.15-.17.15-.08,0-.5-.03-1.75-.03h-3.95c.38.69.87,1.27,1.47,1.76.55-.38,1.04-.77,1.43-1.15.18-.17.32-.34.45-.57.45.28.77.48,1.12.74.1.07.14.13.14.21s-.07.13-.17.14c-.13.04-.25.1-.49.29-.41.32-.87.67-1.43,1.02,1.02.56,2.25.97,3.67,1.2-.22.25-.43.57-.6.97q-.21.43-.63.34c-3.11-.81-5.23-2.42-6.36-4.96h-1.37v3c.84-.2,1.69-.41,2.62-.67-.04.25-.06.59-.06.88q0,.45-.43.57c-1.54.46-3.08.85-4.47,1.15-.22.04-.41.11-.49.18-.07.06-.13.08-.21.08-.06,0-.11-.06-.17-.18-.14-.39-.29-.97-.39-1.36.59-.06,1.01-.11,1.5-.21l.62-.13v-3.32h-.42Z" fill="#e26e7a"/>
          <path d="m265.37,42.77c0,.15-.08.22-.27.25-.18.03-.6.07-1,.07-.13,0-.18-.08-.18-.22,0-.5,0-1.2.01-1.71-1.25.64-1.69,1.19-1.69,1.86,0,.59.48.97,1.95.97,1.29,0,2.41-.13,3.49-.28.13-.01.18.03.2.15.07.32.13.81.13,1.15.01.17-.04.27-.15.27-1.2.15-2.12.18-3.47.18-2.3,0-3.52-.69-3.52-2.31,0-1.34.84-2.33,2.96-3.42-.04-.71-.21-.99-.84-.97-.66.03-1.29.45-1.93,1.01-.6.59-.95.99-1.4,1.53-.07.08-.11.13-.17.13-.04,0-.1-.04-.15-.1-.2-.2-.62-.63-.8-.92-.04-.06-.06-.1-.06-.13,0-.06.03-.1.1-.15,1.08-.97,2.12-2.07,2.93-3.47-.66.03-1.42.04-2.24.04-.13,0-.17-.07-.2-.22-.04-.22-.1-.74-.14-1.16,1.06.06,2.16.04,3.22-.01.15-.38.28-.71.42-1.2.06-.24.1-.48.1-.85.62.1,1.23.25,1.6.39.11.04.17.14.17.24,0,.07-.03.15-.1.21-.08.07-.17.2-.24.34-.08.2-.15.38-.32.76.85-.1,1.71-.24,2.55-.43.15-.03.2.01.22.14.07.28.13.6.14,1.01.01.14-.04.2-.24.22-1.05.15-2.26.31-3.28.42-.32.52-.63,1.04-1.05,1.55v.03c.46-.29,1.04-.43,1.42-.43.92,0,1.57.42,1.71,1.51.55-.25,1.34-.62,2.06-.98.27-.14.71-.39,1.06-.76.46.49.83.98.98,1.23.08.13.11.22.11.31,0,.11-.07.17-.21.2-.29.04-.57.11-.85.21-.91.32-1.82.63-3.01,1.12v2.26Z" fill="#e26e7a"/>
          <path d="m238.68,54.49c-1.26,0-1.69.03-1.78.03-.14,0-.15-.01-.15-.15v-1.11c0-.15.01-.17.15-.17.08,0,.52.03,1.78.03h3.36v-.22c0-.8-.01-1.15-.11-1.79.5.01,1.11.04,1.6.1.13.01.22.08.22.15,0,.11-.06.2-.1.29-.04.14-.08.38-.08,1.11v.36h3.57c1.26,0,1.7-.03,1.78-.03.14,0,.15.01.15.17v1.11c0,.14-.01.15-.15.15-.08,0-.52-.03-1.78-.03h-3.57v1.74h2.04c.21,0,.34-.03.41-.06.06-.03.13-.06.18-.06.1,0,.21.08.56.43.32.31.43.48.43.6,0,.11-.07.15-.2.25-.13.1-.21.17-.34.38-.76,1.19-1.6,2.17-2.56,2.98,1.4.78,3.11,1.26,5.21,1.58-.22.29-.45.73-.6,1.12-.1.28-.14.36-.29.36-.07,0-.17-.01-.31-.04-2.16-.49-3.89-1.13-5.31-2.07-1.4.88-3.07,1.54-5.07,2.06-.14.04-.24.06-.31.06-.14,0-.18-.1-.28-.36-.15-.39-.38-.76-.57-.99,2.06-.42,3.71-.94,5.06-1.68-.92-.87-1.68-1.92-2.27-3.24-.95.01-1.32.03-1.39.03-.14,0-.15-.01-.15-.15v-1.08c0-.14.01-.15.15-.15.08,0,.55.03,1.91.03h2.17v-1.74h-3.36Zm2.28,3.07c.53.98,1.18,1.75,1.93,2.38.81-.64,1.5-1.43,2.07-2.38h-4.01Z" fill="#e26e7a"/>
          <path d="m253.5,59.28c0,1.34.04,2.09.04,2.79,0,.77-.11,1.15-.43,1.39-.31.24-.76.31-1.61.31-.43.01-.46.01-.53-.42s-.22-.78-.34-1.01c.31.04.55.04,1.21.04.2,0,.29-.08.29-.39v-2.79l-.55.17c-.25.08-.41.18-.49.24-.07.06-.15.08-.24.08s-.14-.06-.18-.17c-.08-.36-.17-.84-.24-1.33.41-.06.81-.13,1.3-.27l.39-.11v-2.72h-.25c-.87,0-1.13.03-1.21.03-.14,0-.15-.01-.15-.15v-1.02c0-.14.01-.15.15-.15.07,0,.34.03,1.21.03h.25v-.74c0-.9-.03-1.34-.1-1.99.5.01.95.04,1.42.1.14.01.24.1.24.15,0,.11-.06.2-.1.29-.08.17-.08.46-.08,1.41v.77c.71,0,.95-.03,1.05-.03.14,0,.15.01.15.15v1.02c0,.14-.01.15-.15.15-.1,0-.34-.03-1.05-.03v2.24c.35-.13.71-.28,1.09-.43-.04.24-.07.66-.07,1.01s-.04.38-.29.49c-.24.11-.48.21-.73.31v.57Zm7.45-.52c.15,0,.22-.03.29-.06.06-.03.11-.04.18-.04.11,0,.24.08.49.38.25.27.35.42.35.53,0,.07-.06.14-.15.2-.11.07-.18.14-.36.42-.42.59-.85,1.12-1.36,1.6.83.39,1.82.67,3,.88-.17.21-.31.52-.43.87q-.15.42-.57.31c-1.13-.29-2.13-.69-3.01-1.22-.74.52-1.61.94-2.66,1.26-.15.06-.25.08-.32.08-.13,0-.15-.1-.27-.32-.17-.34-.35-.56-.52-.74,1.08-.24,1.98-.6,2.72-1.05-.43-.39-.84-.83-1.2-1.33-.55,1.13-1.29,2.11-2.26,2.94-.15.13-.24.2-.31.2-.08,0-.15-.08-.27-.24-.22-.31-.42-.48-.67-.67,1.54-1.13,2.55-2.77,3.03-4.76-1.02.01-1.43.03-1.5.03-.14,0-.15-.01-.15-.17v-.91c0-.14.01-.15.15-.15.08,0,.52.03,1.72.03.03-.24.04-.5.06-.76-1.15,0-1.58.03-1.65.03-.14,0-.15-.01-.15-.17v-.8c0-.14.01-.15.15-.15.08,0,.53.03,1.82.03h3.01c.31-.52.56-1.04.76-1.53.08-.24.17-.5.21-.76.48.1.88.2,1.25.34.11.04.18.13.18.2,0,.08-.06.15-.13.21-.1.07-.15.14-.22.27-.22.43-.39.8-.67,1.27.91,0,1.27-.03,1.36-.03.14,0,.15.01.15.15v.8c0,.15-.01.17-.15.17-.1,0-.55-.03-1.84-.03h-2.72c-.03.27-.06.52-.1.76h3.03c1.32,0,1.78-.03,1.86-.03.13,0,.14.01.14.15v.91c0,.15,0,.17-.14.17-.08,0-.55-.03-1.86-.03h-3.24c-.06.27-.13.52-.2.77h3.18Zm1.67-6.98c.08.08.15.15.15.24,0,.1-.11.17-.29.17-.15,0-.38.04-.62.08-1.74.34-4.05.59-5.94.71-.45.03-.49.04-.63-.38-.1-.28-.27-.59-.41-.77,2.23-.01,4.3-.2,6.01-.56.32-.07.59-.17.78-.27.32.21.76.59.94.77Zm-6.14,1.29c.18-.07.21-.06.29.06.28.39.46.77.64,1.18.06.14.04.17-.14.24l-.77.32c-.18.07-.22.07-.28-.08-.15-.46-.32-.8-.59-1.2-.1-.13-.08-.14.1-.21l.74-.29Zm1.4,6.68c.41.56.87,1.01,1.4,1.39.46-.41.84-.87,1.16-1.39h-2.56Zm1.02-4.99c-.2.08-.22.08-.28-.08-.15-.48-.38-.92-.6-1.34-.06-.1,0-.14.2-.21l.63-.24c.2-.08.24-.06.31.06.28.43.48.83.64,1.27.04.13.03.17-.14.24l-.76.31Z" fill="#e26e7a"/>
        </g>
        <circle cx="249.92" cy="39.66" r="39.21" fill="none" stroke="#e26e7a" stroke-miterlimit="10" stroke-width=".9"/>
        <circle cx="421.53" cy="39.66" r="35.55" fill="#ffffcd"/>
        <g>
          <path d="m398.74,29.41c1.23-.41,2.3-.81,3.42-1.36.76-.36,1.11-.59,1.5-1.01.49.41.95.98,1.16,1.26.07.08.11.17.11.25,0,.11-.07.21-.24.25-.39.1-.78.29-1.16.46-1.39.63-2.96,1.19-4.8,1.74v1.86c0,.66.1.88.46.99.36.1.91.15,1.77.15,1.32,0,2.49-.1,3.95-.32.21-.03.24.03.25.2.04.39.08.92.08,1.22,0,.18-.08.24-.29.25-1.58.2-2.4.25-4.16.25-1.25,0-2.07-.13-2.66-.38-.7-.29-.99-.95-.99-2.1v-5.17c0-1.33-.03-1.86-.14-2.56.66.07,1.32.15,1.77.28.17.04.22.13.22.22s-.04.2-.1.29c-.11.22-.14.6-.14,1.26v1.95Zm5.86-4.05c.07-.06.13-.04.21.03.43.34.94.9,1.33,1.5.06.08.06.15-.04.22l-.59.43c-.1.07-.17.06-.24-.04-.42-.64-.87-1.18-1.41-1.62l.74-.52Zm1.25-.91c.08-.06.13-.04.21.03.52.39,1.02.95,1.33,1.44.06.08.07.17-.04.25l-.56.43c-.11.08-.18.04-.24-.04-.38-.6-.83-1.13-1.4-1.61l.7-.5Z" fill="#e26e7a"/>
          <path d="m412.07,26.91c.24.07.27.24.18.43-.15.31-.17.62-.17.95-.03,1.75-.29,3.08-.76,4.12-.36.85-.98,1.76-1.99,2.63-.14.11-.25.18-.36.18-.08,0-.17-.04-.27-.11-.35-.24-.69-.41-1.19-.59,1.09-.83,1.83-1.68,2.33-2.79.39-.95.57-1.72.59-3.96,0-.53-.03-.76-.14-1.18.8.1,1.44.2,1.78.31Zm3.11,5.93c.69-.36,1.33-.8,1.99-1.3.84-.64,1.67-1.39,2.45-2.38.06.49.2.95.43,1.41.04.1.08.17.08.24,0,.1-.06.2-.21.35-.7.71-1.34,1.29-2.07,1.83-.73.56-1.51,1.11-2.49,1.68-.25.17-.28.2-.41.29-.08.07-.18.11-.28.11-.08,0-.18-.04-.29-.11-.31-.21-.63-.57-.84-.85-.08-.13-.13-.21-.13-.29,0-.07.01-.13.06-.21.1-.18.08-.35.08-1.06v-4.38c0-1.22,0-1.79-.14-2.44.56.07,1.33.17,1.75.29.18.04.25.13.25.24,0,.08-.04.21-.11.35-.13.27-.13.55-.13,1.55v4.68Z" fill="#e26e7a"/>
          <path d="m422.82,29.95c.46-.36,1.47-1.23,2.51-2.17.46-.42.81-.59,1.22-.59.48,0,.74.13,1.22.52,1.05.84,1.65,1.4,3.03,2.41,1.25.9,2.21,1.44,3.31,2.06.14.06.21.17.14.29-.15.42-.42.95-.69,1.32-.07.1-.13.14-.18.14s-.11-.01-.2-.07c-.67-.39-2.2-1.51-3.03-2.16-1.01-.76-2.02-1.65-2.94-2.48-.27-.25-.45-.32-.62-.32-.15,0-.29.13-.48.29-.69.69-1.69,1.65-2.35,2.31-.28.29-.39.43-.5.62-.07.11-.15.17-.25.17s-.18-.04-.27-.13c-.29-.29-.81-.97-1.15-1.46.42-.17.77-.39,1.23-.76Z" fill="#e26e7a"/>
          <path d="m442.64,27.2c-.32,2.38-.91,4.57-1.75,6.04-.6,1.05-1.33,1.61-2.38,1.61-1.23,0-2.48-1.32-2.48-3.6,0-1.34.57-2.63,1.58-3.64,1.18-1.18,2.66-1.79,4.55-1.79,3.36,0,5.34,2.07,5.34,4.86,0,2.61-1.47,4.24-4.31,5.1-.29.08-.42.03-.6-.25-.15-.24-.45-.56-.98-.88,2.37-.56,4.23-1.54,4.23-4.19,0-1.67-1.26-3.25-3.14-3.25h-.06Zm-4.02,1.36c-.67.76-1.09,1.7-1.09,2.59,0,1.29.52,2,.95,2,.36,0,.67-.18,1.05-.85.62-1.13,1.25-3.15,1.48-5.01-.98.2-1.76.59-2.4,1.27Z" fill="#e26e7a"/>
          <path d="m395.69,49.68c0-.5,0-1.13.01-1.74-.21.31-.45.6-.7.91-.11.13-.2.2-.25.2-.08,0-.13-.08-.15-.24-.08-.48-.25-.98-.42-1.27,1.08-1.26,1.83-2.8,2.4-4.51.1-.34.18-.66.22-1.01.46.14.9.28,1.29.48.14.06.22.13.22.25,0,.1-.07.17-.15.25-.1.08-.15.21-.28.56-.25.71-.5,1.37-.8,2v7.09c0,1.36.03,2.04.03,2.11,0,.14-.01.15-.15.15h-1.13c-.14,0-.15-.01-.15-.15,0-.08.03-.76.03-2.11v-2.97Zm4.59-5.29c-1.37,0-1.84.03-1.92.03-.14,0-.15-.01-.15-.15v-1.04c0-.15.01-.17.15-.17.08,0,.55.03,1.92.03h4.96c1.37,0,1.83-.03,1.92-.03.14,0,.15.01.15.17v1.04c0,.14-.01.15-.15.15-.08,0-.55-.03-1.92-.03h-.9v2.16h.43c1.36,0,1.85-.03,1.95-.03.14,0,.15.01.15.15,0,.08-.03.63-.03,2.3v2.44c0,2.47.03,2.98.03,3.07,0,.14-.01.15-.15.15h-1.09c-.14,0-.15-.01-.15-.15v-.59h-5.87v.64c0,.14-.01.15-.15.15h-1.08c-.14,0-.15-.01-.15-.15,0-.08.03-.6.03-3.08v-2.21c0-1.93-.03-2.47-.03-2.56,0-.14.01-.15.15-.15.08,0,.56.03,1.92.03h.36v-2.16h-.38Zm.38,8.25v-4.86h-1.05v4.86h1.05Zm2.38-6.09v-2.16h-1.08v2.16h1.08Zm0,6.09v-4.86h-1.08v4.86h1.08Zm1.3-4.86v4.86h1.13v-4.86h-1.13Z" fill="#e26e7a"/>
          <path d="m409.79,49.56c0-.53,0-1.2.01-1.85-.25.34-.52.67-.8.99-.11.13-.18.2-.25.2-.06,0-.11-.08-.15-.25-.11-.42-.28-.9-.45-1.18,1.12-1.25,1.96-2.75,2.55-4.45.11-.34.2-.64.24-.98.45.11.87.22,1.29.39.15.06.22.1.22.21,0,.1-.04.15-.14.25-.1.08-.17.21-.29.57-.25.69-.53,1.34-.83,1.96v7.17c0,1.37.03,2.06.03,2.13,0,.14-.01.15-.15.15h-1.16c-.13,0-.14-.01-.14-.15,0-.08.03-.76.03-2.13v-3.04Zm2.51-1.82c0-.85-.03-1.29-.1-1.82.53.01.94.04,1.44.1.14.01.24.1.24.18,0,.1-.06.18-.1.31-.06.15-.08.41-.08,1.22v5.21h5.6c1.32,0,1.75-.03,1.83-.03.14,0,.15.01.15.17v.99c0,.14-.01.15-.15.15-.08,0-.52-.03-1.83-.03h-5.6v.5c0,.14-.01.15-.15.15h-1.12c-.14,0-.15-.01-.15-.15,0-.08.03-.52.03-1.48v-5.48Zm2.41-3.04c-1.37,0-1.83.03-1.92.03-.14,0-.14-.01-.14-.17v-.95c0-.13,0-.14.14-.14.08,0,.55.03,1.92.03h1.67l.06-.41c.04-.38.07-.73.06-.99.49.03.97.07,1.42.13.14,0,.21.08.21.17,0,.07-.04.15-.1.22-.07.1-.13.21-.15.41-.03.15-.06.32-.07.48h1.37c1.37,0,1.82-.03,1.91-.03.14,0,.15.01.15.14v.95c0,.15-.01.17-.15.17-.08,0-.53-.03-1.91-.03h-1.58c-.06.35-.14.69-.21,1.02h1.15c1.11,0,1.48-.03,1.57-.03.15,0,.17.01.17.15,0,.08-.03.53-.03,1.53v3.15c0,.99.03,1.43.03,1.51,0,.14-.01.15-.17.15-.08,0-.46-.03-1.57-.03h-2.07c-1.11,0-1.48.03-1.58.03-.14,0-.15-.01-.15-.15,0-.1.03-.52.03-1.51v-3.15c0-.99-.03-1.43-.03-1.53,0-.14.01-.15.15-.15.08,0,.38.03,1.12.03.08-.36.14-.7.21-1.02h-1.48Zm1.36,2.84h2.82v-.8h-2.82v.8Zm2.82,1.78v-.81h-2.82v.81h2.82Zm0,.98h-2.82v.83h2.82v-.83Z" fill="#e26e7a"/>
          <path d="m425.51,50.28c0,1.34.04,2.1.04,2.8,0,.77-.11,1.15-.45,1.39-.31.22-.66.29-1.54.31q-.43.01-.55-.42c-.08-.39-.21-.76-.34-1.01.34.04.66.04,1.02.04s.43-.13.43-.53v-2.76c-.21.07-.41.14-.6.2-.25.08-.41.17-.49.24-.07.06-.15.08-.22.08-.08,0-.14-.06-.17-.17-.1-.38-.18-.87-.24-1.34.41-.06.78-.13,1.27-.27l.45-.13v-2.62h-.18c-.95,0-1.23.03-1.32.03-.14,0-.15-.01-.15-.15v-1.02c0-.14.01-.15.15-.15.08,0,.36.03,1.32.03h.18v-.74c0-.9-.01-1.34-.1-1.99.52.01.94.04,1.43.1.13.01.22.07.22.15,0,.11-.06.2-.1.29-.08.17-.08.46-.08,1.41v.77c.83,0,1.11-.03,1.19-.03.14,0,.15.01.15.15v1.02c0,.14-.01.15-.15.15-.08,0-.36-.03-1.19-.03v2.17c.39-.15.8-.31,1.21-.5-.03.28-.04.59-.06.91,0,.46-.01.43-.42.62l-.73.32v.67Zm3.5-1.02c-1.33,0-1.81.03-1.89.03-.14,0-.15-.01-.15-.14v-.95c0-.15.01-.17.15-.17.08,0,.56.03,1.89.03h4.12c1.34,0,1.81-.03,1.89-.03.15,0,.17.01.17.17v.95c0,.13-.01.14-.17.14-.08,0-.55-.03-1.89-.03h-1.51v1.33h1.25c.98,0,1.33-.03,1.43-.03.14,0,.15.01.15.15v.91c0,.14-.01.15-.15.15-.1,0-.45-.03-1.43-.03h-1.25v1.47c.59.1,1.26.13,2.03.14.64,0,1.23-.01,1.88-.06-.11.24-.2.55-.25.9-.06.46-.11.48-.52.48h-.95c-2.62-.04-4.31-.48-5.41-2.02-.32.69-.74,1.3-1.33,1.91-.13.13-.21.2-.28.2-.1,0-.18-.08-.32-.25-.22-.28-.49-.5-.73-.64,1.27-.97,1.75-2.19,2.03-3.39.07-.31.1-.56.11-.8.45.1.76.17,1.15.28.18.06.27.1.27.21,0,.1-.04.15-.11.24-.06.07-.08.17-.14.36-.07.24-.13.48-.2.7.36.63.83,1.06,1.4,1.34v-3.56h-1.23Zm3.26-6.74c1.22,0,1.62-.03,1.71-.03.14,0,.15.01.15.17,0,.08-.03.43-.03,1.27v1.95c0,.83.03,1.19.03,1.27,0,.14-.01.15-.15.15-.08,0-.49-.03-1.71-.03h-2.73c-1.23,0-1.64.03-1.72.03-.14,0-.15-.01-.15-.15,0-.1.03-.45.03-1.27v-1.95c0-.84-.03-1.19-.03-1.27,0-.15.01-.17.15-.17.08,0,.49.03,1.72.03h2.73Zm-3.22,1.08v.81h3.68v-.81h-3.68Zm3.68,1.81h-3.68v.83h3.68v-.83Z" fill="#e26e7a"/>
          <path d="m437.94,49.39c0-.49,0-1.08.01-1.65-.28.39-.56.77-.87,1.15-.1.13-.18.18-.24.18-.07,0-.11-.07-.15-.24-.13-.52-.32-.99-.49-1.23,1.22-1.37,2.07-2.91,2.59-4.58.11-.32.18-.64.21-.98.48.13.98.27,1.37.43.15.07.24.1.24.2,0,.11-.06.17-.17.25-.08.07-.15.21-.28.56-.24.64-.5,1.29-.81,1.91v7.23c0,1.37.03,2.06.03,2.13,0,.14-.01.15-.15.15h-1.16c-.14,0-.15-.01-.15-.15,0-.08.03-.76.03-2.13v-3.22Zm3.94,2.3c.22-.32.34-.55.48-.9.45.2.87.43,1.23.66.13.08.15.15.15.22,0,.11-.08.17-.2.24-.08.04-.17.15-.35.39-.56.77-1.27,1.57-2.19,2.24-.15.11-.24.18-.31.18s-.14-.08-.28-.27c-.22-.29-.53-.57-.81-.74,1.05-.64,1.72-1.33,2.27-2.03Zm.15-1.15c-1.37,0-1.85.03-1.93.03-.15,0-.17-.01-.17-.14v-1.09c0-.14.01-.15.17-.15.08,0,.56.03,1.92.03v-2.79c-1.08.01-1.48.03-1.56.03-.14,0-.15-.01-.15-.14v-1.08c0-.15.01-.17.15-.17.07,0,.48.03,1.56.03v-.69c0-.99-.01-1.41-.1-2.13.52.01.99.04,1.48.1.13.01.21.08.21.17,0,.1-.04.17-.08.28-.06.17-.07.52-.07,1.55v.71h2.06v-.69c0-.99-.01-1.43-.1-2.13.53.01.99.04,1.48.1.14.01.22.08.22.15,0,.1-.04.18-.08.28-.07.18-.08.53-.08,1.55v.73c1.18,0,1.62-.03,1.71-.03.15,0,.17.01.17.17v1.08c0,.13-.01.14-.17.14-.08,0-.53-.03-1.71-.03v2.79h.31c1.37,0,1.85-.03,1.93-.03.14,0,.15.01.15.15v1.09c0,.13-.01.14-.15.14-.08,0-.56-.03-1.93-.03h-5.24Zm3.49-1.33v-2.79h-2.06v2.79h2.06Zm.84,1.74c.17-.1.2-.1.28.04.76,1.06,1.71,1.96,2.77,2.58-.24.22-.5.53-.7.88-.11.21-.18.29-.28.29-.07,0-.17-.07-.34-.18-1.04-.74-1.93-1.74-2.66-2.86-.08-.14-.06-.15.13-.27l.8-.49Z" fill="#e26e7a"/>
        </g>
        <circle cx="421.53" cy="39.66" r="39.21" fill="none" stroke="#e26e7a" stroke-miterlimit="10" stroke-width=".9"/>
        <g>
          <path d="m241.5,174.48c-1.44.31-3.74.79-4.69.22-1.2-.72-.95-1.5.23-2.33,2.48-1.74,4.19-2.88,5.34-4.48.58-.8.68-1.51,1.08-2.89,2.08-.07,4.09-.18,6.17-.33.61,1.77.97,1.54.89,3.79-.12,1.77-1.69,3.18-4.18,3.84-2.49.66-3.96,2-4.85,2.19Z" fill="#111214" fill-rule="evenodd"/>
          <g>
            <path d="m229.04,105.1c-.7.17-1.35-.07-1.97-.14-1.94-.22-3.42-.03-4.64.66-.3.17.84,3.24,2.19,4.22.06.05.15-.03.22-.05l1.26-.4,3.42-1.13-.49-3.17Z" fill="#db9669" fill-rule="evenodd"/>
            <path d="m241.95,107.58c-5.51.94-8.25.67-13.83,1.2.61-2.1-.53-3.97-1.38-4.17,4.71-.97,10.43-2.52,15.3-2.5l-.09,5.47Z" fill="#cee6f5" fill-rule="evenodd"/>
            <path d="m243,107.73c-5.51.94-8.51.63-14.08,1.16.79-2.23-.41-4.46-1.4-4.66,4.71-.97,10.43-2.52,15.3-2.5l.18,6Z" fill="#00263d" fill-rule="evenodd"/>
            <polygon points="216.53 93.65 224.79 98.06 235.25 117.68 226.32 112.42 216.53 93.65" fill="#0b3854" fill-rule="evenodd"/>
            <path d="m223.92,105.74c-1.41-.26-1.41-.59-1.5-.12-.12.69.85,3.26,2.21,4.23,0,0,.95.25,1.42.23.4-.01.38-.23.16-.78l-.97-2.47c-.32-.74-.46-.92-1.33-1.08Z" fill="#f1cfcd" fill-rule="evenodd"/>
          </g>
          <path d="m259.49,177.66c.07-.82.17-1.45.2-2.1.03-.63-.28-1.4-.63-2.39l-1.16.05-3.7.14c-.04.97-.42,1.83-.73,2.81-.25.79-.39,1.43-.57,2.11-.52,1.98-.64,1.87-.61,3.12.01.6.25,1.32.75,1.52,1.64.65,5.84,1.43,6.43-5.26Z" fill="#111214" fill-rule="evenodd"/>
          <path d="m245.71,145.01c1.55,7.21,1.94,12.3.95,22.98,1.42-.1,2.87-.64,3.63-1.69.24-6.15.63-11,.45-14.37-.15-2.8-.28-4.41-1.2-6.9.79-5.33,1.92-16.41,1.68-22.35l-3.23-1.28c-.98,8.79-1.6,13.32-2.29,23.6Z" fill="#00101a" fill-rule="evenodd"/>
          <path d="m260.61,157.1c-.19,3.36-.29,10.25-.36,16.4-1.54,2.05-5.57,1.71-6.64.06-.69-7.76-.88-16.82-2.12-24.54-.68-4.25-1.85-12.58-2.44-18.57-.67-.88-1.6-1.93-1.68-2.3-.09-.41-.17-.82-.22-1.22-.07-.11-.11-.21-.13-.28-.56-2.47-.43-4.92-.04-6.78l5.78.66,4.88.38c.24.22.45.51.63.88.61,2.41,2.59,31.08,2.34,35.32Z" fill="#50546b"/>
          <path d="m244.86,84.35c-1.95-.12-2.82.28-3.85,1.79-1.79,2.64-2.07,8.26-1.95,13.32.07,2.87.53,5.39.57,8.95.04,4.27-1.27,11.79-1.06,16.31.39.84,3.17,2.24,3.53,2.17-.36-4.51-.46-10.57-.28-16.76.17-6.02.6-12.18,1.74-16.75,1.67-6.71,4.55-7.43,4.25-8.34-.06-.18-2.85-.69-2.96-.69Z" fill="#00263d" fill-rule="evenodd"/>
          <path d="m252.77,111.13c-.08,1.04-.1,1.99-.08,2.86,2.8-2.52,5.43-5.74,7.88-9.23,1.26-3.49,2.39-7,2.37-9.48l-10.17,15.85Z" fill="#11101a" fill-rule="evenodd"/>
          <path d="m241.22,118.29c1.29,1.27,2.39,1.94,4.03,2.8,0,2.73,0,7.78-.1,12.83-.01,2.99-.06,6.03-.19,8.56,0,.12,0,.25-.01.37.26,2.1,1.25,3.29,1.38,6.44.14,3.52-.32,9.41-.95,13.26.02,1.69.03,3.37.02,5.05-1.09.02-2.07-.68-2.27-.93l-.13-19.12c-.12-3.05-.6-7.61-.98-12.3-.81-5.6-1.59-12.11-.8-16.96Z" fill="#001e30" fill-rule="evenodd"/>
          <path d="m250.75,151.94c.18,3.36-.21,8.22-.45,14.37-1.61,2.23-6.32,2.13-7.3.55-.47-7.77-.38-15.46-1.13-23.24-.29-3.05-.7-7.72-1-12.19-.48-2.92-.89-5.85-.98-8.73-.07-2.21.26-3.42,1.13-6.13,2.09,1.18,3.64,2.48,5.45,3.32l-.12.1c1.71.74,3.48,1.37,5.16,2.03.07,1.62-.43,8.01-.66,9.87-.33,2.86-.09,20.05-.09,20.05Z" fill="#50546b"/>
          <path d="m240.96,116.76c.02.13.07.26.16.38,1.79,2.46,13.01,6.17,15.36,5.98-1.86-16,15.1-29.62-3.08-34.89l-5.23,2.84-1.87-.33-.24-2.27c-2.53,2.49-3.7,5.78-4.15,10.36-.59,5.99.68,11.37-.95,17.94Z" fill="#cee6f5" fill-rule="evenodd"/>
          <path d="m259.11,90.33c-.98-.54-2.97-1.74-5.12-2.92,1.81,2.14-2.56,7.28-4.59,13.7-1.28,4.05-1.72,11.54-.71,16,.76,3.37,2.37,3.92,4.97,6.08,1.78,1.48,2.45,5.79,3.88,6.91,1.33-.54,2.87-1.65,3.53-2.27-.86-6.99-3.3-8-3.49-12.35-.18-4,5.53-14.65,5.48-20.17-.02-2.45-2.11-3.97-3.94-4.97Z" fill="#00263d" fill-rule="evenodd"/>
          <path d="m251.26,127.31c-.23.55-.05,3.37,2.45,2.12,2-1,2.85-1.17,3.53-2.24.5-.79.38-1.62,1.28-2.46l-2.37-2.15c-.77,1.2-1.34.65-2.39,1.23-1.16.64-1.67,1.53-2.49,3.5Z" fill="#f1cfcd" fill-rule="evenodd"/>
          <path d="m257.62,126.55c-1.49-.87-2.03-1.97-2.51-3.3.44-.34.63-.45.98-.86l2.53,2.92c-.45.45-.64.64-1.01,1.23Z" fill="#cee6f5" fill-rule="evenodd"/>
          <path d="m246.3,85.69c-1.82.84-2.42,1.17-3.68,3.1l1.1.76-1.54.64c-.55,5.56-1.13,11.75-.46,17.4.29-5.5,1.24-11.15,2.63-15.78.53-1.77,1.27-2.54,2.45-4.28.19-.29-.17-2-.51-1.84Z" fill="#003454" fill-rule="evenodd"/>
          <path d="m246.83,95.53c-.1-.67-.19-1.23-.34-1.9l-.29-.47c-.25,0-.3-.03-.44,0-.31.08-.52.75-.96,1.18-1.42,6.76-2.49,8.44-2.35,14.93l.85,2.33,1.65-2.19,1.88-13.88Z" fill="#69616b" fill-rule="evenodd"/>
          <path d="m261.97,92.52c.24.34.54.8.79,1.28,1.94,3.71,3.97,11.16,4.42,15.73.11,1.13.37,1.73.28,2.48-.2,1.51-3.93-.36-5.39.62-1.4-3.02-2.16-6.1-5.84-12.57-1.32-2.31,1.65-9.36,5.74-7.53Z" fill="#00263d" fill-rule="evenodd"/>
          <path d="m266.29,109.11c.65,1.17,1.35,1.75,1.11,3.18-.1.62-.53,1.24-.84,2.01-1.37,3.36-4.5,7.99-7.95,11.26-1.18,0-2.88-2.06-3.14-3.18,1.57-3.7,3.99-6.34,5.99-9.73.44-.75.6-1.14,1.07-1.77l3.76-1.76Z" fill="#00263d" fill-rule="evenodd"/>
          <path d="m253.99,86.72c.59.77,1.05,1.43,1.28,1.99.71,1.71.62,4.39-.24,7.35l-1.74-.64.84,1.88c-3.51,4.52-5.47,11.26-5.74,18.18-2.28-17.99,6.24-22.47,5.6-28.76Z" fill="#003454" fill-rule="evenodd"/>
          <path d="m248,91.6c-.31,1.26-.35,1.24-1.54,2.13l-.77-.4c-.36-1.46-.18-2.4.11-2.57,1.03-.04,1.46.08,2.2.84Z" fill="#69616b" fill-rule="evenodd"/>
          <path d="m246.88,90.83c-.13-.32-.19-.99-.33-1.57-.12-.52-.32-.96-.44-1.22-.72.09-1.03,2.24-1.64,3.5.95-.65,1.36-.71,2.42-.7Z" fill="#e8f6ff" fill-rule="evenodd"/>
          <path d="m253.59,86.36c.14,2.29-4.27,3.89-6.73,4.47.62.74,1.42,1.66,1.38,2.4,1.78-.48,4.79-1.3,6.01-3.55.83-1.53.15-2.71-.66-3.32Z" fill="#e8f6ff" fill-rule="evenodd"/>
          <path d="m246.41,88.79c-.08-.22-.17-.44-.26-.68-.25-.68-.26-2.11-.7-3.69l6.32-2.72,1.35-.71c-.49,2.35-.2,3.75.47,5.42.07,2.26-4.26,3.83-6.71,4.41-.22-.55-.23-1.35-.48-2.03Z" fill="#f1cfcd" fill-rule="evenodd"/>
          <g>
            <path d="m242.92,84.03c.11,1.03.42,2.21.76,2.43.3.19.62.26,1.08.46.37.15.74.21,1.79-.07.83-.33,2.72-.85,3.47-1.19,1.64-.75,1.77-2.23,2.61-4.22,1.53-.67,2.14-1.33,2.43-2.15.7-1.95-.01-4.35-1.32-5.85-1.14-1.31-2.65-1.91-4.48-1.89-3.57.05-5.27,2.38-6.28,5.19-.53,1.49-.07,7.28-.07,7.28Z" fill="#f1cfcd" fill-rule="evenodd"/>
            <path d="m247.56,76.54c.89-.32,2.2-2.02,3.64-2.62,1.48-.62,3.09-1.27,4.13-.27.85,1.35.88,3.6.52,4.81-.51,1.74-1.88,3.15-3.65,4.6-.67.54-.3-1.96-.42-2.51-.19.38-.41.78-.63,1.19l-.45-.26c.07-.5.74-5.59.51-5.98-.54-.26-1.71.62-3.64,1.04Z" fill="#361d07" fill-rule="evenodd"/>
            <path d="m252.56,79.87c1.41-.32,1.25,1.23.94,2.15-.21.63-.75.53-1,1.02-.3.58-.8.82-1.21.76-.82-.11-.18-1.27-.04-1.74-.01-.8.41-1.99,1.3-2.19Z" fill="#f1cfcd" fill-rule="evenodd"/>
            <path d="m255.42,73.77c-2.02-1.48-4.46,1.79-7.21,2.64-1.17.36-1.65.21-3.21-.43-.98-.4-1.84-.91-1.93-1.37-.52-2.6.5-3.45,2.16-3.86.68-.17,1.58-.11,2.33-.31,3.05-.8,6.89-.24,7.85,3.33Z" fill="#361d07" fill-rule="evenodd"/>
          </g>
        </g>
        <g>
          <path d="m411.26,116.46s-1,1.48-1.29,2.78c-.29,1.3,1.79,3.38,1.79,3.38l1.84-5.41-2.33-.76Z" fill="#f1cfcd"/>
          <path d="m427.41,80.62s-.43,3.09.72,4.51c0,0-4.63,6.15-8.22,5.23-3.59-.91-.95-4.83-.95-4.83l8.45-4.92Z" fill="#f1cfcd"/>
          <path d="m424.72,169.77s.18,1.47-.41,3.09c-.59,1.62-2.63,5.29-2.58,6.81.05,1.52.68,2.66,2.1,2.82,1.09.12,4.44-.92,5.57-3.57,1.13-2.65.17-3.37.76-4.49.59-1.13,1.28-3.52.89-5.29-.39-1.77-6.32.64-6.32.64Z" fill="#001135"/>
          <path d="m421.15,165.58l-7.69-.57h-.16s-.64,1.67-2.15,2.28c-1.51.61-5.45,2.21-6.57,3.72-.92,1.24,1.09,2.95,5.29,1.92,2.98-.73,3.3-2.24,6.8-2.31,2.39-.04,3.31-.47,4.32-1.73l.16-3.31Z" fill="#001135"/>
          <path d="m411.89,167.14s1.82-7.59.56-16.09c-.87-5.85-.99-21.73-.58-34.3,0,0,1.62,2.65,5.74,4.26,4.11,1.61,4.95,3.13,4.95,3.13l-.7,11.16s-.62,6.11-.42,9.25c.21,3.17-.36,3.01-.25,8.46.11,5.45-.08,14.76-.08,14.76,0,0-5.22,1.01-9.23-.64Z" fill="#633750"/>
          <path d="m431.34,155.1c-.65-5.34-1.41-10.07-1.15-13.75.25-3.68,2.05-17.58.21-21.88l-12.79,1.54s1.75,17.58,3.8,26.19c2.05,8.61,2.9,25.66,2.9,25.66,0,0,.17,2.06,2.66,2.17,2.49.11,4.05-4.4,4.05-4.4,0,0,.96-10.18.31-15.52Z" fill="#633750"/>
          <path d="m411.26,116.01s-.07,2.42,2.28,3.79c2.35,1.37,9.66,3.26,11.75,2.15,2.09-1.11,2.09-13.25,2.09-13.25l1.57-16.28-2.95-3.72s-4.18,1.17-5.83.45c-1.64-.72-1.5-3.77-1.5-3.77,0,0-2.58-.22-3.95,3.37-1.37,3.58-1.41,16.1-1.41,16.1,0,0-.66,8.55-.95,9.29-.29.74-1.11,1.89-1.11,1.89Z" fill="#e6f6ff"/>
          <path d="m416.81,83.59s-3.38-.51-4.35,2.66c-.49,1.6-.36,5.41-.12,8.8-.14,2.06-.04,3.78.13,4.6.51,2.39-.91,10.6-.91,11.68s-.88,1.91-1.83,3.62c-.96,1.71,1.86,3.25,1.86,3.25,1.75-.93,1.97-15.92,3.34-23.79.32-1.84.52-3.53,1.1-4.79,1.88-4.13,5.14-5.71,5.14-5.71l-4.36-.32Z" fill="#2a4048"/>
          <path d="m432.97,121.13c-2.07-2.6-4.06-6.94-2.94-9.79,1.12-2.85,4.5-9.78,4.5-9.78l.75-10.34-5.96-4.78-.98-1.06s.11,1.64-2.05,4.13c-3.55,4.1-5.1,10.6-4.82,17.84.29,7.24,1.24,11.57,4.41,16.3l2.88,5.19s.6,3.65.83,3.91c1.56,1.75,6.46.07,6.8-1.32,0,0-1.37-7.71-3.43-10.31Z" fill="#2a4048"/>
          <path d="m421.17,91.3l-.98-2.16-1.96,1.51.44,1.98s-3.58,10.45-3.77,21.85l1.74,3.18,1.91-1.92s.52-12.28.83-14.87c.31-2.59.48-8.06.48-8.06l1.31-1.5Z" fill="#633750"/>
          <path d="m427.98,84.66c-2.16,3.71-7.79,4.48-7.79,4.48l.88,3.27s5.99-2.49,7.9-5.87l-.98-1.89Z" fill="#fdfdfd"/>
          <path d="m417.78,90.98l2.4-1.83s-.57-2.78-.2-4.73h-.99s-1.86,3.41-1.21,6.56Z" fill="#fdfdfd"/>
          <path d="m421.74,111.33s1.96-9.19,5.25-14.86l-2.01-1.94,1.94-.63,2.8-7.35-1.75-1.89s.11.97-.36,1.89c-.47.92-4.11,5.07-5.54,10.75-1.43,5.69-.34,14.03-.34,14.03Z" fill="#2a5348"/>
          <path d="m413.35,109.67l-.89-18.3,1.78-.47-.72-2.22,5.6-5.1,2.23.66s-4.93,2.82-5.87,7.79c-.94,4.97-2.13,17.64-2.13,17.64Z" fill="#2a5348"/>
          <g>
            <path d="m416.6,77.83c-.02-.61.34-1.27.47-2.05.14-.78.58-2.52,2.59-4.06,2-1.54,4.96-1.87,6.91-.72,1.95,1.14,3.21,3.44,2.87,6.18-.34,2.74-1.92,5.55-3.52,6.99-1.59,1.44-3.35,2.07-5.19,2.3-1.81.23-2.62-.68-2.75-1.49,0,0-.33-.74-.51-1.36-.37-1.84-.78-3-.88-5.79Z" fill="#f1cfcd"/>
            <path d="m426.74,70.12c-3.02-1.84-6.37-.82-8.06.5-.59.46-1.25,1.15-1.92,2.55-.55,1.15-.42,3.43,2.21,3.47,1.42.02,3.28-.37,4.68-.73,1.59.9,1.09,2.57,1.33,3.1.24.53.51,1.22.87,1.4.22.11.59-.26.69-.39.23-.3,1.85-2.43,2.11.05.38-.93.67-1.92.79-2.9.05-.41.07-.8.05-1.19h0c.42-1.01.16-4.09-2.75-5.86Z" fill="#001e26"/>
            <path d="m424.99,79c.24.53.51,1.22.87,1.4.22.11.59-.26.69-.39.23-.3,1.85-2.43,2.11.05.38-.93.67-1.92.79-2.9.05-.41.07-.8.05-1.19-1.59.95-3.59,1.37-4.68,1.55.12.62.05,1.2.17,1.48Z" fill="#001e26"/>
            <path d="m426.57,82.29c.23.13.77.3,1.72-.85.95-1.15.87-2.18.34-2.49-.52-.31-1-.07-1.23.34-.24.41-.83,3-.83,3Z" fill="#f2a983"/>
            <path d="m426.57,82.29c.23.13.77.3,1.72-.85.95-1.15.87-2.18.34-2.49-.52-.31-1-.07-1.23.34-.24.41-.83,3-.83,3Z" fill="#f1cfcd"/>
          </g>
          <g>
            <path d="m429.32,121.42l-.33.68s-.86.28-.92.33c-.05.05-2.47,1.24-2.47,1.24,0,0,1.28,3.39,3.17,5.17,0,0,2.14-3.28,2.43-3.94.28-.66.98-1.89.98-1.89l-2.86-1.59Z" fill="#f1cfcd"/>
            <path d="m431.56,98.33c-.87-2.04-.71-6.15,1.32-6.95,2.03-.8,3.23-.84,6.25,5.25,3.02,6.09,2.58,10.41,2.94,11.46.37,1.05-.8,3.08-1.48,4.49-.68,1.42-8.43,12.43-8.43,12.43,0,0-2.28-1.66-3.75-3.14l7.2-13.68s-2.64-6.54-4.05-9.87Z" fill="#2a4048"/>
            <path d="m428.49,121.94l-.35.43,3.33,3.37.46-.9c-.61-.46-2.26-1.72-3.44-2.89Z" fill="#e2e9ed"/>
          </g>
        </g>
        <g>
          <g>
            <polygon points="79.63 98.07 87.38 114.47 84.26 117.9 73.51 100.24 79.63 98.07" fill="#f1cfcd"/>
            <path d="m59.29,181.39l.16-7.93c-.19-.75-1.19-.9-1.99-1.6-.36-.31-.87-.35-1.22-.09l-.76.55c-1.12.76-1.18.98-.94,1.97l1.46,5.87c.25.99,1.13,2.05,1.97,2.37l.24.09c.84.32,1.32-.23,1.08-1.22Z" fill="#001e26"/>
            <path d="m56.59,172.25s.75,4.85,1.99,5.16c0,0,.8.2.82-1.09.03-1.28.36-3.77.36-3.77l-3.17-.31Z" fill="#f1cfcd"/>
            <path d="m61.33,79.75s-5.81,1.14-7.24,3.36c-1.43,2.23,1.1,7.72,1.1,7.72v-2.87s-3.36-5.52,5.92-6.73c6.23-.81.23-1.49.23-1.49Z" fill="#001e26"/>
            <path d="m61.22,79.92s-9.59,6.21-6.04,12.22c3.56,6.01,13.2,8.6,13.2,8.6l3.92-20.2-11.08-.63Z" fill="#001e26"/>
            <path d="m76.55,178.57l-5.93-4.16c-.76-.31-2.36-.35-3.41-.15-.47.09-.78.47-.76.89l.06.92c.04,1.32.2,1.5,1.2,1.91l5.93,2.39c1,.4,2.42.36,3.16-.1l.21-.13c.74-.46.53-1.16-.47-1.57Z" fill="#001e26"/>
            <path d="m66.96,174.52c.07,1.84,3.81,2.5,3.88.63,4.54-17.32,5.12-33.16,5.99-51.48l-11.44-9.63c.92,15.89,2.37,29.35,2.09,43.08-.04,1.78-.92,3.66-1.02,5.37-.21,3.55.82,8.57.51,12.02Z" fill="#f1cfcd"/>
            <path d="m56.63,171.61c-.41,1.61,1.89,3.17,2.91,1.72,3.09-6.36,5.35-11.25,7.45-16.06,1.59-3.64,1.93-7.99,2.6-12.35,1.59-10.42-9.17-13.04-8.63-2.46.22,4.33.14,8.68-.39,13-.26,2.09-1.45,1.99-2.14,5.5-.7,3.57-.84,5.56-1.8,10.65Z" fill="#f1cfcd"/>
            <path d="m83.59,104.63l-7.18-12.82s-9.88,12.4-1,16l4.24,4.32,5.62-2.77-1.69-4.73Z" fill="#7285b1"/>
            <path d="m61.2,116.14c-4.98.1-.03,19.79-2,33.96,0,0,10.38,9.55,19.17,1.19l-.33-32.55-16.85-2.59Z" fill="#633750"/>
            <path d="m77.81,117.8c.29-3.48-1.38,3.47-1.32-.56.02-1.55.78-5.99,1.15-8.92.35-2.74,3.22-4.37,2.63-7.72-.08-1.82-3.3-5.2-3.44-6.53-.22-2.11-.37-4.05-4.8-6.13l-1.95.42c-.93.2-1.83.5-2.67.89-9.03,4.18-11,4.39-10.37,9.68.1,2.72,1.72.6,2.21,2.4.94,3.46,4.58,6.97,3.3,13.04-.26,1.22-1.22,2.06-.13,2.87,4.72,3.52,13.74,4.19,15.4.56Z" fill="#7285b1"/>
            <path d="m78.11,117.77c0,.13.01,0,0,0h0Z" fill="#ff5cab"/>
            <path d="m87.94,120.14l-1.71.97c-.83.47-1.91.45-2.38-.05l-.33-.35c-.48-.5-.19-1.3.65-1.78l1.71-.97c.83-.47,1.91-.45,2.38.05l.33.35c.48.5.19,1.3-.65,1.78Z" fill="#f1cfcd"/>
            <path d="m69.68,120.04l-.05-.36.61.17.09-.23,13.48-6.9c.16-.08.47-.08.69.02l6.67,2.84v-.08s1.2.36,1.2.36l.06.39h0s-.04.07-.09.1l-14.03,7.18c-.16.08-.47.08-.69-.02l-7.72-3.29c-.12-.05-.18-.12-.19-.18h0Z" fill="#bfc6c9"/>
            <path d="m78.24,123.14l14.03-7.18c.16-.08.12-.23-.1-.32l-7.72-3.29c-.22-.09-.52-.1-.69-.02l-14.03,7.18c-.16.08-.12.23.1.32l7.72,3.29c.22.09.52.1.69.02Z" fill="#dde5e8"/>
            <path d="m76.53,118.63l3.39-1.74s.03-.05-.02-.08l-1.87-.8c-.05-.02-.13-.02-.17,0l-3.39,1.74s-.03.05.02.08l1.87.8c.05.02.13.02.17,0Z" fill="#bfc6c9"/>
            <path d="m70.45,120.1c-5.03-.2-9.53-1.56-13.59-3.93-1.09-.64-1.78-1.79-1.81-3.01-.06-2.8-.03-7.76.92-8.57l4.34,4.98-.2,2.77c4.74,2.09,7.23,4.56,10.13,5.44l.21,2.31Z" fill="#f1cfcd"/>
            <path d="m62.55,91.47s3.31,7.94,8.13,5.87c4.81-2.07,1.33-9.25,1.33-9.25,0,0-5,1.03-9.45,3.38Z" fill="#cedae2"/>
            <path d="m68.14,93l.32.06c1.08.22,2.07-.44,2.21-1.46l.78-5.74c.14-1.02-.63-2.03-1.71-2.25l-.32-.06c-1.08-.22-2.07.44-2.21,1.46l-1.61,5.34c-.14,1.02,1.46,2.43,2.54,2.64Z" fill="#f1cfcd"/>
            <path d="m78.67,115.6c.06-.31.37-.68.69-.84l14.82-7.42c.13-.07.24-.08.33-.06h0s0,0,0,0c.03,0,.06.02.08.04l.49.37h-.45s-1.43,7.1-1.43,7.1c-.06.31-.37.68-.69.84l-14.02,7.02-.45.42-.06.1c-.28.07-.96-.26-.96-.26l1.64-7.29Z" fill="#fff"/>
            <path d="m79.3,112.72c.06-.31.37-.68.69-.84l14.82-7.42c.13-.07.24-.08.33-.06h0s0,0,0,0c.03,0,.06.02.08.04l.49.37h-.45s-1.43,7.1-1.43,7.1c-.06.31-.37.68-.69.84l-14.02,7.02-.45.42-.06.1c-.28.07-.96-.26-.96-.26l1.64-7.29Z" fill="#fff"/>
            <path d="m95.29,104.84l-14.82,7.42c-.32.16-.63.54-.69.84l-1.45,7.18s0,0,0,.01l-.58,2.87c-.06.31.15.42.47.27l14.82-7.42c.32-.16.63-.54.69-.84l1.45-7.18s0,0,0-.01l.58-2.87c.06-.31-.15-.42-.47-.27Z" fill="#5691bb"/>
            <path d="m86.62,114.49c-.02.52.48.69,1.1.38.62-.31,1.14-.99,1.16-1.51.02-.52-.48-.69-1.1-.38-.62.31-1.14.99-1.16,1.51Z" fill="#fff"/>
            <path d="m67.97,175.82s4.24,1.73,5,1.22c.65-.43-2.49-2.48-2.49-2.48l-2.52,1.25Z" fill="#f1cfcd"/>
            <path d="m54.21,109c-.01-6.08,1.32-10.81,2.37-13.59.45-1.21,1.68-1.55,3.14-2.49.24-.15.14,1.25.4,1.45h0c1.59,1.2,2.43,3.32,2.12,5.35l-1.62,12.38,7.54,4.39s.75,2.83-1.18,4.43c0,0-11.28-4.41-12.02-5.41s-.74-6.51-.74-6.51Z" fill="#7285b1"/>
            <path d="m69.01,118.55h0c-.15.89.45,1.74,1.34,1.89l3.09.53c.89.15,1.74-.45,1.9-1.34h0c.15-.89-.45-1.74-1.34-1.89l-3.09-.53c-.89-.15-1.74.45-1.9,1.34Z" fill="#f1cfcd"/>
            <path d="m65.89,77.07c.92-1.47,2.31-1.73,3.61-.88,1.27-.52,2.81.24,3.94,2.17,1.58,2.68,1.42,6.4.44,8.74-.53,1.27-1.16,2.15-4.19,1.62-2.05-.39-3.21-1-4.37-2.97-1.58-2.68-.76-6.52.57-8.67Z" fill="#f1cfcd"/>
            <path d="m73.06,79.39c-3.64,5.63-5.76,4.02-5.85,4.9,0,0-.71,3-.71,3.01-.37,1.75-2.04.37-3.75.94h0s-5.59-6.47,1.36-11.67c4.71-3.52,11.22-.05,10.51,4.58l-1.55-1.74Z" fill="#001e26"/>
            <ellipse cx="66.59" cy="84.46" rx="1.28" ry="1.4" transform="translate(-40.12 97.9) rotate(-58.93)" fill="#f1cfcd"/>
          </g>
          <path d="m36.82,102.7c.71.17,1.37-.07,2-.14,1.97-.23,3.47-.03,4.71.68.3.17-.85,3.33-2.23,4.34-.07.05-.15-.03-.22-.06l-1.28-.41-3.47-1.16.5-3.25Z" fill="#db9669" fill-rule="evenodd"/>
          <path d="m37.97,102.71c1.26-.22,2.11-.77,2.82-.79.73-.02,1.78.57,3.11.71-.24,1.32-1.98.46-2.61.58-.58.11-.61.82-1.16.83-.85.02-2.08-.39-2.17-1.32Z" fill="#db9669" fill-rule="evenodd"/>
          <path d="m23.72,105.25c5.6.97,8.38.69,14.04,1.23-.62-2.15.53-4.08,1.4-4.29-4.78-1-10.59-2.59-15.53-2.57l.09,5.63Z" fill="#cee6f5" fill-rule="evenodd"/>
          <path d="m22.65,105.4c5.6.97,8.64.65,14.3,1.19-.8-2.29.42-4.59,1.42-4.79-4.78-1-10.59-2.59-15.53-2.57l-.19,6.16Z" fill="#a7a9ac"/>
          <path d="m10.84,182.9c.71-.09,1.27-.1,1.98-.36.18-.07.37-.77.38-1.39.03-1.28-.09-1.17-.62-3.21-.18-.69-.33-1.36-.58-2.17-.31-1.01-.7-1.9-.74-2.89l-3.75-.15-1.18-.05c-.35,1.02-.67,1.82-.64,2.46.03.67.11,1.32.21,2.16.43,3.76,3.64,5.75,4.94,5.59Z" fill="#111214" fill-rule="evenodd"/>
          <path d="m28.93,174.26c1.42.02.96-1.55-.24-2.4-2.52-1.79-4.25-2.96-5.43-4.61-.59-.82-.69-1.56-1.09-2.97-2.11-.07-4.16-.19-6.27-.34-.62,1.82-.98,1.58-.9,3.9.19,2.68,9.73,6.37,13.92,6.42Z" fill="#111214" fill-rule="evenodd"/>
          <g>
            <g>
              <path d="m14.32,125.51c-.24-1.91-.37-3.75-.3-5.42,1.71-.68,3.5-1.33,5.24-2.09l-.12-.1c1.84-.86,3.42-2.2,5.54-3.41.89,2.79,1.21,4.04,1.15,6.31-.09,2.96-.51,5.97-.99,8.97-.31,4.6-.72,9.39-1.02,12.53-.76,8.01-.67,15.9-1.15,23.89-1.15.85-5.78,1.73-7.41-.56l-.93-40.12Z" fill="#50546b"/>
              <path d="m7.15,119.86c.18-.37.39-.68.64-.9l4.95-.39,5.87-.68c.39,1.92.53,4.44-.04,6.97-.02.07-.06.17-.13.29-.06.42-.13.83-.22,1.25-.09.38-1.03,1.46-1.71,2.37-.61,6.16-1.79,14.72-2.48,19.09-1.25,7.94-.5,17.42-1.21,25.4-1.09,1.7-6.12,1.88-7.68-.23l2.01-53.17Z" fill="#50546b"/>
            </g>
            <g>
              <path d="m14.32,125.51c-.24-1.91-.37-3.75-.3-5.42,1.71-.68,3.5-1.33,5.24-2.09l-.12-.1c1.84-.86,3.42-2.2,5.54-3.41.89,2.79,1.21,4.04,1.15,6.31-.09,2.96-.51,5.97-.99,8.97-.31,4.6-.72,9.39-1.02,12.53-.76,8.01-.67,15.9-1.15,23.89-1.15.85-5.78,1.73-7.41-.56l-.93-40.12Z" fill="#50546b"/>
              <path d="m7.15,119.86c.18-.37.39-.68.64-.9l4.95-.39,5.87-.68c.39,1.92.53,4.44-.04,6.97-.02.07-.06.17-.13.29-.06.42-.13.83-.22,1.25-.09.38-1.03,1.46-1.71,2.37-.61,6.16-1.79,14.72-2.48,19.09-1.25,7.94-.5,17.42-1.21,25.4-1.09,1.7-6.12,1.88-7.68-.23l2.01-53.17Z" fill="#50546b"/>
            </g>
          </g>
          <path d="m20.76,81.37c1.98-.13,2.86.29,3.91,1.84,1.82,2.71,2.1,8.49,1.98,13.69-.07,2.95-.54,5.54-.58,9.21-.04,4.39,1.29,12.12,1.08,16.77-.4.86-3.22,2.3-3.59,2.23.36-4.63.46-10.86.28-17.23-.17-6.19-.61-12.52-1.76-17.22-1.7-6.9-4.62-7.64-4.32-8.57.06-.19,2.89-.71,3.01-.71Z" fill="#a7a9ac"/>
          <path d="m12.73,108.9c.08,1.07.1,2.04.08,2.94-2.84-2.59-5.51-5.9-8-9.49-1.28-3.59-2.43-7.19-2.41-9.74l10.33,16.29Z" fill="#11101a" fill-rule="evenodd"/>
          <path d="m24.72,114.7c-.02.14-.07.27-.16.39-1.82,2.53-13.21,6.34-15.59,6.15,1.89-16.45-15.33-30.45,3.12-35.87l5.31,2.92,1.9-.34.24-2.34c2.57,2.56,3.76,5.94,4.22,10.65.6,6.16-.69,11.68.96,18.44Z" fill="#dadef0"/>
          <path d="m6.29,87.52c.99-.55,3.01-1.79,5.19-3.01-1.84,2.2,2.6,7.49,4.66,14.08,1.21,3.89,3,17.26-.72,29.37-6.78,2.28-10.45-1.27-11.11-1.9.88-7.18,3.35-8.23,3.55-12.7.18-4.11-5.61-15.06-5.56-20.73.02-2.52,2.14-4.08,4-5.11Z" fill="#a7a9ac"/>
          <path d="m19.3,82.74c1.85.86,2.45,1.2,3.74,3.18l-1.12.78,1.56.66c.56,5.72,1.15,12.08.46,17.88-.29-5.66-1.26-11.46-2.67-16.22-.54-1.82-1.29-2.61-2.49-4.4-.2-.29.17-2.05.52-1.89Z" fill="#c8b9c3"/>
          <path d="m11.5,83.8c-.6.79-1.06,1.47-1.3,2.04-.72,1.76-.63,4.51.24,7.56l1.77-.66-.85,1.93c3.56,4.65,5.55,11.58,5.83,18.69,2.31-18.5-6.34-23.1-5.69-29.57Z" fill="#c8b9c3"/>
          <path d="m20.41,108.39c-.53-3.6-.93-11.92-1.94-15.53.13-.66.26-1.22.44-1.86-1.11-.95-1.16-.95-1.39-2.25.8-.73,1.24-.83,2.28-.73.28.19.4,1.11,0,2.5.29.09.67.18,1.18.51,1.02,7.02,2.44,10.45,1.9,17.11l-.71,1.56-1.77-1.31Z" fill="#3e4f5e" fill-rule="evenodd"/>
          <path d="m18.71,88.03c.13-.33.2-1.02.34-1.62.13-.53.33-.99.45-1.26.73.09,1.05,2.3,1.67,3.6-.96-.67-1.38-.73-2.45-.72Z" fill="#e8f6ff" fill-rule="evenodd"/>
          <path d="m11.9,83.44c-.15,2.36,4.33,4,6.83,4.59-.63.76-1.44,1.71-1.41,2.46-1.8-.49-4.86-1.34-6.1-3.64-.85-1.58-.15-2.79.67-3.41Z" fill="#e8f6ff" fill-rule="evenodd"/>
          <path d="m19.19,85.94c.08-.23.17-.45.26-.7.26-.69.26-2.16.71-3.79l-6.41-2.8-1.37-.73c.5,2.42.21,3.86-.48,5.57-.07,2.32,4.33,3.94,6.81,4.53.22-.56.24-1.39.48-2.09Z" fill="#f1cfcd"/>
          <path d="m22.65,75.23c-.05-.27-.39-1.51-.46-1.76-.8-2.99-2.79-5.35-6.45-5.4-1.88-.03-3.43.6-4.6,1.96-1.34,1.56-2.07,4.05-1.36,6.08.3.85.92,1.54,2.5,2.24.86,2.07.99,3.79,2.68,4.57.77.36,2.72.71,3.57,1.05,1.08.29,1.46.24,1.84.07,1.73-.75,2.9-5.33,2.28-8.81Z" fill="#f1cfcd"/>
          <path d="m20.57,71.67c.4.01.89-.22,1.22.61-.24-1.36-.65-1.48-1.49-1.61l.27,1Z" fill="#361d07" fill-rule="evenodd"/>
          <path d="m16.03,73.2c-2.56-.26-5.87-2.18-6.53-3.34-1.38,2.71-1.1,6.77,1.05,8.98.62,1.17,1.22,2.33,1.8,3.52.51-1.78.68-3.26.83-5.03l.11-.16c.15.31.52,1.07.65,1.38.16,0,.42-.23.65-.37-.45-2.36.18-4.11,1.44-4.98Z" fill="#361d07" fill-rule="evenodd"/>
          <path d="m15.69,73.37c2.69-.24,6.23-1.47,7.58-3.51-2.44.37-5.21-3.27-9.07-2.91-2.24.21-4.65,1.35-4.76,3.3.73.96,4,3.32,6.24,3.12Z" fill="#361d07" fill-rule="evenodd"/>
          <path d="m12.37,76.44c-1.44-.33-1.28,1.28-.97,2.24.22.66.77.55,1.02,1.06.31.61.83.85,1.24.79.85-.11.19-1.32.04-1.81.01-.83-.42-2.07-1.34-2.28Z" fill="#f1cfcd"/>
          <path d="m2.37,91.06c-1.46,3.98-1.67,12.11-1.34,17.4.16,2.69.48,4.79,2.64,5.4,2.04.58,3.82-1.5,4.23-3.63.49-2.53.82-5.63,1.52-10.96.74-5.68-5.09-13.54-7.03-8.22Z" fill="#a7a9ac"/>
          <g>
            <path d="m19.77,114.9l-.81-1.23-.02-2.43c1.05-.87.97-1.57,1.49-1.45,1.87.45,1.7,5.72-.66,5.11Z" fill="#a7a9ac"/>
            <g>
              <path d="m19.49,110.06c2.68.24,6.03-1.1,7.54-.13,1.3.84.74,2.79.03,3.73-.58.77-2.98.91-4.54,1.1-1.38.17-2.36-.97-3.34-.77-.9-1.14-.13-2.72.3-3.93Z" fill="#f1cfcd"/>
              <path d="m26.44,109.72c1.27,0,3.31-.1,4.58-.12.89-.02.58,1.35-.23,1.45-.79.09-2.89.27-2.89.27-.83-.05-1.68-.6-1.46-1.6Z" fill="#f1cfcd"/>
            </g>
            <path d="m1.59,110.43c.6,1.38.63,2.4,2.07,3.18.62.34,1.43.44,2.36.54,3.55.38,8.71.86,13.86.79-.28-.47-.59-1.76-.53-3.06.04-.82.31-1.6,1.05-2.08-4.21-.85-9-.83-13.05-1.38-.97-.13-.75-.04-1.63-.07l-4.14,2.08Z" fill="#a7a9ac"/>
          </g>
          <polygon points="46.79 89.51 38.41 94.04 27.97 113.99 30.14 115.13 36.86 108.8 46.79 89.51" fill="#d2d6d9" fill-rule="evenodd"/>
          <polygon points="46.79 89.51 38.41 94.04 40.85 95.42 48.98 90.79 46.79 89.51" fill="#e3e6e8" fill-rule="evenodd"/>
          <polygon points="48.62 90.44 40.24 94.97 29.62 115.14 30.52 115.63 38.68 109.73 48.62 90.44" fill="#2f3133" fill-rule="evenodd"/>
          <path d="m42.02,103.36c1.43-.26,1.43-.61,1.52-.12.12.71-.87,3.35-2.24,4.35,0,0-.96.25-1.44.24-.41-.01-.38-.23-.16-.81l.98-2.54c.32-.76.47-.95,1.35-1.11Z" fill="#f1cfcd"/>
          <path d="m38.27,93.97c2.34-1.15,4.2-.95,4.73.36.97,2.38-1.07,7.5-2.17,10.35l8.38-4.42c2.48-6.47,3.79-13.32-2.79-10.71l-8.15,4.42Z" fill="#f2f4f5" fill-rule="evenodd"/>
        </g>
      </g>
    </g>
  </g>
</svg>