<?xml version="1.0" encoding="utf-8"?>
<!-- Generator: Adobe Illustrator 27.2.0, SVG Export Plug-In . SVG Version: 6.00 Build 0)  -->
<svg version="1.1" id="レイヤー_1" xmlns="http://www.w3.org/2000/svg" xmlns:xlink="http://www.w3.org/1999/xlink" x="0px"
	 y="0px" viewBox="0 0 424.5 798.3" style="enable-background:new 0 0 424.5 798.3;" xml:space="preserve">
<style type="text/css">
	.st0{fill:#0091C2;}
	.st1{fill:none;stroke:#0091C2;stroke-width:4;stroke-miterlimit:10;}
	.st2{fill:#9CA6AD;}
	.st3{fill:#B5C1B9;}
	.st4{fill:#DAE0F5;}
	.st5{fill:#99ADBF;}
	.st6{fill:#AFBFCD;}
	.st7{fill:#A0B7BD;}
	.st8{fill:#B3CCCF;}
	.st9{fill:none;stroke:#000000;stroke-width:1.96;stroke-miterlimit:10;}
	.st10{fill:#FFFFCD;}
	.st11{fill:none;stroke:#0091C2;stroke-width:2;stroke-miterlimit:10;}
	.st12{fill:#F1CFCD;}
	.st13{fill:#001135;}
	.st14{fill:#633750;}
	.st15{fill:#E6F6FF;}
	.st16{fill:#2A4048;}
	.st17{fill:#FDFDFD;}
	.st18{fill:#2A5348;}
	.st19{fill:#001E26;}
	.st20{fill:#F2A983;}
	.st21{fill:#E2E9ED;}
	.st22{fill:#7285B1;}
	.st23{fill:#FF5CAB;}
	.st24{fill:#BFC6C9;}
	.st25{fill:#DDE5E8;}
	.st26{fill:#CEDAE2;}
	.st27{fill:#FFFFFF;}
	.st28{fill:#5691BB;}
	.st29{fill-rule:evenodd;clip-rule:evenodd;fill:#DB9669;}
	.st30{fill-rule:evenodd;clip-rule:evenodd;fill:#CEE6F5;}
	.st31{fill:#A7A9AC;}
	.st32{fill-rule:evenodd;clip-rule:evenodd;fill:#111214;}
	.st33{fill:#50546B;}
	.st34{fill-rule:evenodd;clip-rule:evenodd;fill:#11101A;}
	.st35{fill:#DADEF0;}
	.st36{fill:#C8B9C3;}
	.st37{fill-rule:evenodd;clip-rule:evenodd;fill:#3E4F5E;}
	.st38{fill-rule:evenodd;clip-rule:evenodd;fill:#E8F6FF;}
	.st39{fill-rule:evenodd;clip-rule:evenodd;fill:#361D07;}
	.st40{fill-rule:evenodd;clip-rule:evenodd;fill:#D2D6D9;}
	.st41{fill-rule:evenodd;clip-rule:evenodd;fill:#E3E6E8;}
	.st42{fill-rule:evenodd;clip-rule:evenodd;fill:#2F3133;}
	.st43{fill-rule:evenodd;clip-rule:evenodd;fill:#F2F4F5;}
</style>
<g>
	<g id="_レイヤー_2">
		<g id="_デザイン">
			<g>
				<path class="st0" d="M28.3,346.4c2.3-0.8,4.3-1.5,6.3-2.5c1.4-0.7,2-1.1,2.8-1.9c0.9,0.8,1.8,1.8,2.2,2.3
					c0.1,0.2,0.2,0.3,0.2,0.5c0,0.2-0.1,0.4-0.4,0.5c-0.7,0.2-1.5,0.5-2.2,0.9c-2.6,1.2-5.5,2.2-8.9,3.2v3.5c0,1.2,0.2,1.6,0.9,1.9
					c0.7,0.2,1.7,0.3,3.3,0.3c2.4,0,4.6-0.2,7.3-0.6c0.4,0,0.4,0,0.5,0.4c0.1,0.7,0.2,1.7,0.2,2.3c0,0.3-0.2,0.4-0.5,0.5
					c-2.9,0.4-4.5,0.5-7.7,0.5c-2.3,0-3.9-0.2-4.9-0.7c-1.3-0.5-1.9-1.8-1.9-3.9v-9.6c0-2.5,0-3.5-0.3-4.8c1.2,0.1,2.4,0.3,3.3,0.5
					c0.3,0.1,0.4,0.2,0.4,0.4s-0.1,0.4-0.2,0.5c-0.2,0.4-0.3,1.1-0.3,2.3L28.3,346.4L28.3,346.4z M39.1,338.8c0.1-0.1,0.2-0.1,0.4,0
					c0.8,0.6,1.7,1.7,2.5,2.8c0.1,0.2,0.1,0.3-0.1,0.4l-1.1,0.8c-0.2,0.1-0.3,0.1-0.4-0.1c-0.8-1.2-1.6-2.2-2.6-3L39.1,338.8
					L39.1,338.8z M41.5,337.1c0.2-0.1,0.2-0.1,0.4,0c1,0.7,1.9,1.8,2.5,2.7c0.1,0.2,0.1,0.3-0.1,0.5l-1,0.8
					c-0.2,0.2-0.3,0.1-0.4-0.1c-0.7-1.1-1.5-2.1-2.6-3L41.5,337.1z"/>
				<path class="st0" d="M53,341.7c0.4,0.1,0.5,0.4,0.3,0.8c-0.3,0.6-0.3,1.1-0.3,1.8c0,3.2-0.5,5.7-1.4,7.6
					c-0.7,1.6-1.8,3.3-3.7,4.9c-0.3,0.2-0.5,0.3-0.7,0.3c-0.2,0-0.3-0.1-0.5-0.2c-0.7-0.4-1.3-0.8-2.2-1.1c2-1.5,3.4-3.1,4.3-5.2
					c0.7-1.8,1.1-3.2,1.1-7.4c0-1,0-1.4-0.3-2.2C51.2,341.3,52.4,341.5,53,341.7L53,341.7z M58.8,352.7c1.3-0.7,2.5-1.5,3.7-2.4
					c1.6-1.2,3.1-2.6,4.5-4.4c0.1,0.9,0.4,1.8,0.8,2.6c0.1,0.2,0.2,0.3,0.2,0.4c0,0.2-0.1,0.4-0.4,0.6c-1.3,1.3-2.5,2.4-3.8,3.4
					c-1.3,1-2.8,2-4.6,3.1c-0.5,0.3-0.5,0.4-0.8,0.5c-0.2,0.1-0.3,0.2-0.5,0.2c-0.2,0-0.3-0.1-0.5-0.2c-0.6-0.4-1.2-1.1-1.6-1.6
					c-0.2-0.2-0.2-0.4-0.2-0.5c0-0.1,0-0.2,0.1-0.4c0.2-0.3,0.2-0.6,0.2-2V344c0-2.3,0-3.3-0.3-4.5c1,0.1,2.5,0.3,3.2,0.5
					c0.3,0.1,0.5,0.2,0.5,0.4c0,0.2-0.1,0.4-0.2,0.6c-0.2,0.5-0.2,1-0.2,2.9L58.8,352.7L58.8,352.7z"/>
				<path class="st0" d="M79.1,344.8c0.3-0.1,0.4-0.1,0.6,0.2c0.8,1.6,1.3,3,1.7,4.7c0.1,0.3,0,0.4-0.3,0.5l-1.3,0.4
					c-0.3,0.1-0.4,0.1-0.4-0.2l-0.3-1.1l-1.6,0.2v7.1c0,2.4,0.1,3.3,0.1,3.4c0,0.3,0,0.3-0.3,0.3h-2c-0.3,0-0.3,0-0.3-0.3
					c0-0.2,0.1-1,0.1-3.4v-6.9l-2.4,0.2c-0.4,0-0.8,0.1-1,0.2c-0.1,0-0.2,0.1-0.4,0.1c-0.2,0-0.2-0.2-0.3-0.4
					c-0.2-0.7-0.3-1.4-0.4-2.2c0.8,0,1.5,0.1,2.2,0c0.5-0.6,1-1.3,1.5-2c-1-1.3-2.3-2.6-3.5-3.8c-0.1-0.1-0.2-0.2-0.2-0.2
					s0.1-0.2,0.2-0.3l0.9-1.3c0.1-0.2,0.2-0.2,0.3-0.2s0.1,0,0.2,0.2l0.7,0.7c0.5-0.9,1-1.7,1.4-2.7c0.3-0.7,0.5-1.1,0.6-1.6
					c0.7,0.3,1.6,0.6,2.2,0.9c0.3,0.1,0.3,0.3,0.3,0.4c0,0.1-0.1,0.2-0.2,0.3c-0.2,0.2-0.3,0.3-0.5,0.6c-0.8,1.4-1.5,2.5-2.3,3.6
					c0.4,0.5,0.8,0.9,1.2,1.4c0.6-1,1.2-1.9,1.7-2.9c0.3-0.6,0.6-1.2,0.8-1.8c0.8,0.4,1.6,0.8,2.2,1.1c0.2,0.1,0.3,0.2,0.3,0.4
					c0,0.2-0.1,0.3-0.3,0.4c-0.3,0.2-0.5,0.4-0.9,1c-1.3,2.1-2.7,4.1-3.9,5.6c0.9,0,1.9-0.1,2.8-0.2c-0.2-0.5-0.4-1-0.6-1.5
					c-0.1-0.3-0.1-0.3,0.3-0.5L79.1,344.8L79.1,344.8z M71.7,352.6c0.1-0.5,0.1-0.9,0-1.5c0.7,0.1,1.6,0.3,2,0.4
					c0.3,0.1,0.4,0.2,0.4,0.3s-0.1,0.2-0.1,0.4s-0.1,0.4-0.2,0.9c-0.2,1.5-0.5,3.4-0.9,4.8c-0.1,0.4-0.2,0.6-0.4,0.6
					c-0.1,0-0.3-0.1-0.5-0.2c-0.6-0.3-1-0.5-1.5-0.7C71.2,355.8,71.5,354.2,71.7,352.6L71.7,352.6z M79.8,351.1
					c0.3-0.1,0.3,0,0.4,0.2c0.4,1.3,0.8,2.8,1,4.3c0,0.3,0,0.4-0.3,0.5l-1.2,0.3c-0.4,0.1-0.4,0.1-0.5-0.2c-0.2-1.7-0.5-3.2-0.8-4.5
					c-0.1-0.3,0-0.3,0.3-0.4L79.8,351.1L79.8,351.1z M88.5,353.6v3.4h2.4c2.5,0,3.3,0,3.4,0c0.3,0,0.3,0,0.3,0.3v1.9
					c0,0.3,0,0.3-0.3,0.3c-0.1,0-1,0-3.4,0h-7.1c-2.5,0-3.3,0-3.5,0c-0.3,0-0.3,0-0.3-0.3v-1.9c0-0.2,0-0.3,0.3-0.3c0.2,0,1,0,3.5,0
					h2.1v-3.4h-0.8c-2.2,0-3,0-3.1,0c-0.3,0-0.3,0-0.3-0.3v-1.7c0-0.3,0-0.3,0.3-0.3c0.2,0,0.9,0,3.1,0h0.8v-0.6c0-1.1,0-2-0.2-2.7
					c1,0,1.7,0.1,2.6,0.2c0.3,0,0.4,0.2,0.4,0.3c0,0.2-0.1,0.3-0.1,0.5c-0.1,0.3-0.2,0.7-0.2,1.6v0.7H90c2.2,0,3,0,3.1,0
					c0.3,0,0.3,0,0.3,0.3v1.7c0,0.3,0,0.3-0.3,0.3c-0.2,0-0.9,0-3.1,0L88.5,353.6L88.5,353.6z M90.7,337.6c0.3,0,0.5,0,0.6-0.1
					c0.1,0,0.2-0.1,0.3-0.1c0.2,0,0.5,0.2,1.1,0.7c0.7,0.6,0.9,0.9,0.9,1s-0.1,0.3-0.3,0.4c-0.2,0.2-0.5,0.6-0.7,1.1
					c-0.8,1.6-1.8,3-3,4.3c1.4,0.8,3.1,1.3,5.2,1.7c-0.4,0.5-0.7,1.1-0.9,1.9c-0.1,0.5-0.2,0.6-0.4,0.6c-0.1,0-0.3,0-0.6-0.1
					c-2-0.6-3.8-1.4-5.3-2.5c-1.3,0.9-2.8,1.6-4.5,2.3c-0.3,0.1-0.5,0.2-0.7,0.2c-0.2,0-0.3-0.2-0.5-0.5c-0.3-0.7-0.7-1.1-1.1-1.6
					c1.8-0.5,3.4-1.1,4.8-2c-1.3-1.4-2.4-3-3.2-5.1c-0.9,0-1.2,0-1.3,0c-0.3,0-0.3,0-0.3-0.3v-1.7c0-0.3,0-0.3,0.3-0.3
					c0.2,0,0.9,0,3.2,0L90.7,337.6L90.7,337.6z M84.9,339.8c0.7,1.5,1.5,2.7,2.6,3.7c1.2-1,2.1-2.3,2.7-3.7H84.9z"/>
				<path class="st0" d="M102.2,336.6c0.3-0.1,0.4-0.1,0.6,0.1c0.6,0.8,1.1,1.7,1.5,2.4c0.1,0.2,0.1,0.3-0.2,0.4l-1.8,0.6h10.4
					c0.5-0.9,1-1.6,1.3-2.5c0.1-0.3,0.3-0.8,0.4-1.3c0.9,0.2,1.7,0.5,2.5,0.8c0.2,0.1,0.3,0.2,0.3,0.3c0,0.2-0.1,0.3-0.2,0.4
					c-0.2,0.1-0.4,0.3-0.6,0.6c-0.4,0.6-0.7,1.1-1,1.6h0.5c2.4,0,3.2,0,3.4,0c0.3,0,0.3,0,0.3,0.3c0,0.2-0.1,0.6-0.1,1.4v1.1
					c0,2.3,0.1,2.7,0.1,2.9c0,0.3,0,0.3-0.3,0.3h-2.1c-0.3,0-0.3,0-0.3-0.3v-3.4h-16.7v3.4c0,0.3,0,0.3-0.3,0.3h-2.1
					c-0.3,0-0.3,0-0.3-0.3c0-0.2,0.1-0.6,0.1-2.9v-0.9c0-0.9-0.1-1.4-0.1-1.6c0-0.3,0-0.3,0.3-0.3c0.2,0,1,0,3.4,0h0.6
					c-0.1,0-0.1-0.1-0.1-0.2c-0.3-0.8-0.8-1.7-1.3-2.4c-0.2-0.2-0.1-0.3,0.2-0.4L102.2,336.6L102.2,336.6z M111.5,344
					c2.3,0,3.2,0,3.3,0c0.2,0,0.3,0,0.3,0.3c0,0.1-0.1,0.6-0.1,1.8v2.3c0,1.2,0.1,1.6,0.1,1.8c0,0.3,0,0.3-0.3,0.3c-0.2,0-1,0-3.3,0
					h-2c-0.2,0.6-0.5,1.2-0.7,1.7h4.9c2.6,0,3.5,0,3.6,0c0.3,0,0.3,0,0.3,0.3c0,0.2,0,0.8,0,2v1.7c0,3.1,0,3.6,0,3.8
					c0,0.2,0,0.3-0.3,0.3h-2.2c-0.3,0-0.3,0-0.3-0.3V359h-12.5v0.9c0,0.3,0,0.3-0.3,0.3h-2.2c-0.3,0-0.3,0-0.3-0.3
					c0-0.2,0.1-0.7,0.1-3.9v-1.4c0-1.5-0.1-2.2-0.1-2.3c0-0.3,0-0.3,0.3-0.3c0.2,0,1.1,0,3.6,0h2.5c0.3-0.5,0.5-1.1,0.7-1.7h-1.1
					c-2.4,0-3.2,0-3.3,0c-0.2,0-0.3,0-0.3-0.3c0-0.2,0.1-0.6,0.1-1.8V346c0-1.2-0.1-1.6-0.1-1.8c0-0.3,0-0.3,0.3-0.3
					c0.2,0,1,0,3.3,0H111.5L111.5,344z M102.4,356.7h12.5v-2.4h-12.5V356.7z M104.8,348.3h7.7V346h-7.7V348.3z M108.4,336.3
					c0.3-0.1,0.4,0,0.5,0.2c0.4,0.7,0.9,1.7,1.3,2.6c0.1,0.2,0.1,0.3-0.3,0.4l-1.7,0.5c-0.4,0.1-0.4,0.1-0.5-0.2
					c-0.4-0.9-0.8-1.7-1.2-2.5c-0.2-0.3-0.1-0.3,0.2-0.4L108.4,336.3L108.4,336.3z"/>
			</g>
			<g>
				<path class="st0" d="M233.9,343c-1.7,0-3.2,0.1-4.3,0.1c-0.3,0-0.4-0.2-0.5-0.5c-0.1-0.5-0.2-1.9-0.2-2.6c1.2,0.1,2.6,0.2,5,0.2
					h9.3c0.8,0,1.1,0,1.4-0.3c0.1-0.1,0.3-0.1,0.4-0.1c0.2,0,0.3,0,0.5,0.1c0.7,0.4,1.4,1.1,1.9,1.7c0.1,0.2,0.2,0.3,0.2,0.4
					c0,0.2-0.1,0.4-0.4,0.6c-0.2,0.2-0.4,0.5-0.6,1c-1.3,3.1-2.9,5.9-5,8.5c-2.2,2.5-4.8,4.7-7.4,6.2c-0.2,0.2-0.5,0.2-0.7,0.2
					c-0.2,0-0.4-0.1-0.6-0.3c-0.6-0.6-1.5-1-2.4-1.4c3.8-1.9,6.1-3.7,8.5-6.5c2-2.3,3.4-4.5,4.4-7.4L233.9,343L233.9,343z"/>
				<path class="st0" d="M260.3,354.8c0,1.2,0,2.9,0.1,4.2c0,0.3-0.1,0.4-0.4,0.5c-0.7,0-1.4,0-2.1,0c-0.3,0-0.4-0.2-0.4-0.5
					c0-1.5,0.1-2.8,0.1-4.2v-4.5c-1.8,1.5-4.1,3.1-5.4,3.7c-0.1,0.1-0.2,0.1-0.3,0.1c-0.2,0-0.4-0.1-0.5-0.3
					c-0.5-0.5-1.2-1.1-1.9-1.3c4.1-2.1,7.6-4.9,10.8-8.5c0.6-0.7,1-1.4,1.4-2.2c0.9,0.5,2,1.2,2.4,1.6c0.2,0.2,0.3,0.3,0.3,0.5
					c0,0.2-0.1,0.4-0.4,0.5c-0.3,0.2-0.9,0.8-1.2,1.1c-0.7,0.8-1.5,1.6-2.4,2.5L260.3,354.8L260.3,354.8z"/>
				<path class="st0" d="M273.2,350.1c-2.6,0-3.6,0.3-3.8,0.3c-0.3,0-0.5-0.2-0.6-0.5c-0.1-0.6-0.3-1.8-0.4-3.1
					c1.7,0.3,3,0.3,5.6,0.3h8.4c2,0,4,0,6-0.1c0.4,0,0.5,0,0.5,0.4c0,0.8,0,1.7,0,2.4c0,0.3-0.1,0.4-0.5,0.4c-2,0-3.9,0-5.8,0
					L273.2,350.1L273.2,350.1z"/>
			</g>
			<g>
				<g>
					<line class="st1" x1="150" y1="384.6" x2="150" y2="312.7"/>
					<polyline class="st1" points="139.9,375.6 150,385.6 160,375.6 					"/>
				</g>
				<g>
					<line class="st1" x1="197" y1="313.7" x2="197" y2="385.6"/>
					<polyline class="st1" points="207.1,322.7 197,312.7 187,322.7 					"/>
				</g>
			</g>
			<g>
				<g>
					<path class="st2" d="M189,472.2v88.4c0,1,0.6,1.9,1.9,2.7l29.4,17c2.5,1.5,6.7,1.5,9.2,0l29.4-17c1.3-0.7,1.9-1.7,1.9-2.7
						v-88.4L189,472.2L189,472.2z"/>
					<path class="st3" d="M190.9,474.9c-1.3-0.7-1.9-1.7-1.9-2.7s0.6-1.9,1.9-2.7l29.4-17c2.5-1.5,6.7-1.5,9.2,0l29.4,17
						c1.3,0.7,1.9,1.7,1.9,2.7s-0.6,1.9-1.9,2.7l-29.4,17c-2.5,1.5-6.7,1.5-9.2,0L190.9,474.9z"/>
				</g>
				<g>
					<path class="st2" d="M196.7,445.4v26.8c0,0.8,0.5,1.5,1.5,2.1l23.1,13.4c2,1.1,5.3,1.1,7.3,0l23.1-13.4c1-0.6,1.5-1.3,1.5-2.1
						v-26.8H196.7L196.7,445.4z"/>
					<path class="st3" d="M198.2,447.5c-1-0.6-1.5-1.3-1.5-2.1s0.5-1.5,1.5-2.1l23.1-13.4c2-1.1,5.3-1.1,7.3,0l23.1,13.4
						c1,0.6,1.5,1.3,1.5,2.1s-0.5,1.5-1.5,2.1l-23.1,13.4c-2,1.1-5.3,1.1-7.3,0L198.2,447.5z"/>
				</g>
				<polygon class="st4" points="194.4,556.3 192.1,555 192.1,519.6 194.4,520.9 				"/>
				<polygon class="st4" points="200.3,559.7 198.1,558.4 198.1,523 200.3,524.3 				"/>
				<polygon class="st4" points="206.2,563.1 204,561.9 204,526.4 206.2,527.7 				"/>
				<polygon class="st4" points="212.1,566.6 209.9,565.3 209.9,529.9 212.1,531.2 				"/>
				<polygon class="st4" points="218.1,570 215.9,568.7 215.9,533.3 218.1,534.6 				"/>
				<polygon class="st4" points="194.4,515.7 192.1,514.4 192.1,483 194.4,484.2 				"/>
				<polygon class="st4" points="200.3,519.1 198.1,517.8 198.1,486.4 200.3,487.7 				"/>
				<polygon class="st4" points="206.2,522.5 204,521.3 204,489.8 206.2,491.1 				"/>
				<polygon class="st4" points="212.1,526 209.9,524.7 209.9,493.2 212.1,494.5 				"/>
				<polygon class="st4" points="218.1,529.4 215.9,528.1 215.9,496.7 218.1,498 				"/>
				<polygon class="st4" points="255.6,556.3 257.8,555 257.8,519.6 255.6,520.9 				"/>
				<polygon class="st4" points="249.7,559.7 251.9,558.4 251.9,523 249.7,524.3 				"/>
				<polygon class="st4" points="243.7,563.1 245.9,561.9 245.9,526.4 243.7,527.7 				"/>
				<polygon class="st4" points="237.8,566.6 240,565.3 240,529.9 237.8,531.2 				"/>
				<polygon class="st4" points="231.9,570 234.1,568.7 234.1,533.3 231.9,534.6 				"/>
				<polygon class="st4" points="255.6,515.7 257.8,514.4 257.8,483 255.6,484.2 				"/>
				<polygon class="st4" points="249.7,519.1 251.9,517.8 251.9,486.4 249.7,487.7 				"/>
				<polygon class="st4" points="243.7,522.5 245.9,521.3 245.9,489.8 243.7,491.1 				"/>
				<polygon class="st4" points="237.8,526 240,524.7 240,493.2 237.8,494.5 				"/>
				<polygon class="st4" points="231.9,529.4 234.1,528.1 234.1,496.7 231.9,498 				"/>
			</g>
			<g>
				<g>
					<path class="st5" d="M109.1,500.2v88.4c0,1,0.6,1.9,1.9,2.7l29.4,17c2.5,1.5,6.7,1.5,9.2,0l29.4-17c1.3-0.7,1.9-1.7,1.9-2.7
						v-88.4L109.1,500.2L109.1,500.2z"/>
					<path class="st6" d="M111,502.9c-1.3-0.7-1.9-1.7-1.9-2.7s0.6-1.9,1.9-2.7l29.4-17c2.5-1.5,6.7-1.5,9.2,0l29.4,17
						c1.3,0.7,1.9,1.7,1.9,2.7s-0.6,1.9-1.9,2.7l-29.4,17c-2.5,1.5-6.7,1.5-9.2,0C140.4,519.9,111,502.9,111,502.9z"/>
				</g>
				<g>
					<path class="st5" d="M116.8,473.5v26.8c0,0.8,0.5,1.5,1.5,2.1l23.1,13.4c2,1.2,5.3,1.2,7.3,0l23.1-13.4c1-0.6,1.5-1.3,1.5-2.1
						v-26.8H116.8L116.8,473.5z"/>
					<path class="st6" d="M118.3,475.5c-1-0.6-1.5-1.3-1.5-2.1s0.5-1.5,1.5-2.1l23.1-13.4c2-1.1,5.3-1.1,7.3,0l23.1,13.4
						c1,0.6,1.5,1.3,1.5,2.1s-0.5,1.5-1.5,2.1l-23.1,13.4c-2,1.1-5.3,1.1-7.3,0C141.4,488.9,118.3,475.5,118.3,475.5z"/>
				</g>
				<g>
					<path class="st5" d="M126.2,455.6v17.9c0,0.5,0.3,1,1,1.4l15.4,8.9c1.3,0.8,3.5,0.8,4.9,0l15.4-8.9c0.7-0.4,1-0.9,1-1.4v-17.9
						H126.2L126.2,455.6z"/>
					<path class="st5" d="M124.3,453.8v1.8c0,0.6,0.4,1.1,1.1,1.5l17,9.8c1.5,0.9,3.9,0.9,5.3,0l17-9.8c0.7-0.4,1.1-1,1.1-1.5v-1.8
						H124.3L124.3,453.8z"/>
					<path class="st6" d="M125.4,455.3c-0.7-0.4-1.1-1-1.1-1.5s0.4-1.1,1.1-1.5l17-9.8c1.5-0.9,3.9-0.9,5.3,0l17,9.8
						c0.7,0.4,1.1,1,1.1,1.5s-0.4,1.1-1.1,1.5l-17,9.8c-1.5,0.9-3.9,0.9-5.3,0L125.4,455.3z"/>
				</g>
				<polygon class="st4" points="114.4,584.3 112.2,583 112.2,547.6 114.4,548.9 				"/>
				<polygon class="st4" points="120.4,587.7 118.2,586.4 118.2,551 120.4,552.3 				"/>
				<polygon class="st4" points="126.3,591.1 124.1,589.9 124.1,554.5 126.3,555.7 				"/>
				<polygon class="st4" points="132.2,594.6 130,593.3 130,557.9 132.2,559.2 				"/>
				<polygon class="st4" points="138.1,598 135.9,596.7 135.9,561.3 138.1,562.6 				"/>
				<polygon class="st4" points="114.4,543.7 112.2,542.4 112.2,511 114.4,512.3 				"/>
				<polygon class="st4" points="120.4,547.1 118.2,545.8 118.2,514.4 120.4,515.7 				"/>
				<polygon class="st4" points="126.3,550.6 124.1,549.3 124.1,517.8 126.3,519.1 				"/>
				<polygon class="st4" points="132.2,554 130,552.7 130,521.2 132.2,522.5 				"/>
				<polygon class="st4" points="138.1,557.4 135.9,556.1 135.9,524.7 138.1,526 				"/>
				<polygon class="st4" points="175.7,584.3 177.9,583 177.9,547.6 175.7,548.9 				"/>
				<polygon class="st4" points="169.8,587.7 172,586.4 172,551 169.8,552.3 				"/>
				<polygon class="st4" points="163.8,591.1 166,589.9 166,554.5 163.8,555.7 				"/>
				<polygon class="st4" points="157.9,594.6 160.1,593.3 160.1,557.9 157.9,559.2 				"/>
				<polygon class="st4" points="152,598 154.2,596.7 154.2,561.3 152,562.6 				"/>
				<polygon class="st4" points="175.7,543.7 177.9,542.4 177.9,511 175.7,512.3 				"/>
				<polygon class="st4" points="169.8,547.1 172,545.8 172,514.4 169.8,515.7 				"/>
				<polygon class="st4" points="163.8,550.6 166,549.3 166,517.8 163.8,519.1 				"/>
				<polygon class="st4" points="157.9,554 160.1,552.7 160.1,521.2 157.9,522.5 				"/>
				<polygon class="st4" points="152,557.4 154.2,556.1 154.2,524.7 152,526 				"/>
			</g>
			<g>
				<g>
					<path class="st7" d="M173.3,528v81.6c0,0.9,0.6,1.7,1.7,2.4l26.1,15.1c2.3,1.3,6,1.3,8.2,0l26.1-15.1c1.1-0.7,1.7-1.5,1.7-2.4
						V528H173.3L173.3,528z"/>
					<path class="st8" d="M175,530.4c-1.1-0.7-1.7-1.5-1.7-2.4s0.6-1.7,1.7-2.4l26.1-15.1c2.3-1.3,6-1.3,8.2,0l26.1,15.1
						c1.1,0.7,1.7,1.5,1.7,2.4s-0.6,1.7-1.7,2.4l-26.1,15.1c-2.3,1.3-6,1.3-8.2,0L175,530.4z"/>
				</g>
				<g>
					<path class="st7" d="M180.1,523.3v4.7c0,0.7,0.4,1.3,1.3,1.9l20.6,11.9c1.8,1,4.7,1,6.5,0l20.5-11.9c0.9-0.5,1.3-1.2,1.3-1.9
						v-4.7H180.1z"/>
					<path class="st8" d="M181.5,525.2c-0.9-0.5-1.3-1.2-1.3-1.9s0.4-1.3,1.3-1.9l20.6-11.9c1.8-1,4.7-1,6.5,0l20.6,11.9
						c0.9,0.5,1.3,1.2,1.3,1.9s-0.4,1.3-1.3,1.9L208.5,537c-1.8,1-4.7,1-6.5,0L181.5,525.2z"/>
				</g>
				<g>
					<path class="st7" d="M185.6,518.6v4.7c0,0.5,0.4,1,1,1.5l16,9.2c1.4,0.8,3.6,0.8,5,0l16-9.2c0.7-0.4,1-0.9,1-1.5v-4.7H185.6
						L185.6,518.6z"/>
					<path class="st8" d="M186.7,520.1c-0.7-0.4-1-0.9-1-1.5s0.4-1,1-1.5l16-9.2c1.4-0.8,3.6-0.8,5,0l16,9.2c0.7,0.4,1,0.9,1,1.5
						c0,0.5-0.4,1-1,1.5l-16,9.2c-1.4,0.8-3.6,0.8-5,0L186.7,520.1z"/>
				</g>
				<g>
					<path class="st7" d="M199.4,513.1v5.5c0,0.2,0.1,0.3,0.3,0.4l4.8,2.8c0.4,0.2,1.1,0.2,1.5,0l4.8-2.8c0.2-0.1,0.3-0.3,0.3-0.4
						v-5.5H199.4L199.4,513.1z"/>
					<path class="st8" d="M199.7,513.5c-0.2-0.1-0.3-0.3-0.3-0.4s0.1-0.3,0.3-0.4l4.8-2.8c0.4-0.2,1.1-0.2,1.5,0l4.8,2.8
						c0.2,0.1,0.3,0.3,0.3,0.4s-0.1,0.3-0.3,0.4l-4.8,2.8c-0.4,0.2-1.1,0.2-1.5,0L199.7,513.5z"/>
				</g>
				<polygon class="st4" points="181.9,608.1 175.8,604.6 175.8,537.5 181.9,541 				"/>
				<polygon class="st4" points="190.9,613.2 184.8,609.7 184.8,542.7 190.9,546.2 				"/>
				<polygon class="st4" points="199.9,618.4 193.8,614.9 193.8,547.9 199.9,551.4 				"/>
				<polygon class="st4" points="228.6,608.1 234.6,604.6 234.6,537.5 228.6,541 				"/>
				<polygon class="st4" points="219.6,613.2 225.7,609.7 225.7,542.7 219.6,546.2 				"/>
				<polygon class="st4" points="210.6,618.4 216.7,614.9 216.7,547.9 210.6,551.4 				"/>
			</g>
			<g>
				<g>
					<path d="M154.9,262.8h-3.1v-9.4c0-2.3,0-4.4,0.1-6.6h-0.3c-0.5,2.1-0.9,4.1-1.5,6.3l-2.5,9.7h-3.8l-2.4-9.5
						c-0.6-2.2-1-4.2-1.6-6.5h-0.3c0.1,2.2,0.1,4.3,0.1,6.6v9.4h-2.9v-18.6h5.3l2.4,9.5c0.5,1.9,1,4.1,1.3,6.1h0.3
						c0.5-2,0.9-4,1.4-6.1l2.4-9.6h5.3L154.9,262.8L154.9,262.8z"/>
					<path d="M171.6,246.7h-9v5h6.8v2.6h-6.8v8.5h-3.3v-18.6h12.3V246.7L171.6,246.7z"/>
					<path d="M181.2,244.1c4.7,0,6.4,1.7,6.4,4.6c0,2.1-1.4,3.7-3.7,4.1v0.2c2.8,0.5,4.3,2.1,4.3,4.5c0,3.3-2.4,5.3-6.6,5.3h-7
						v-18.6H181.2z M177.8,251.8h2.8c2.5,0,3.8-1.1,3.8-2.7s-0.9-2.5-3.5-2.5h-3.1V251.8L177.8,251.8z M177.8,260.3h3.5
						c2.5,0,3.7-1.1,3.7-3.1s-1.5-3-4.1-3h-3.1L177.8,260.3L177.8,260.3z"/>
					<path d="M210,262.8h-3.1v-9.4c0-2.3,0-4.4,0.1-6.6h-0.3c-0.5,2.1-0.9,4.1-1.5,6.3l-2.5,9.7h-3.8l-2.4-9.5
						c-0.6-2.2-1-4.2-1.6-6.5h-0.3c0.1,2.2,0.1,4.3,0.1,6.6v9.4h-2.9v-18.6h5.3l2.4,9.5c0.5,1.9,1,4.1,1.3,6.1h0.3
						c0.5-2,0.9-4,1.4-6.1l2.4-9.6h5.3L210,262.8L210,262.8z"/>
				</g>
				<polyline class="st9" points="116.4,271.4 106.6,271.4 106.6,235.1 116.4,235.1 				"/>
				<polyline class="st9" points="230.6,271.4 240.4,271.4 240.4,235.1 230.6,235.1 				"/>
			</g>
			<g>
				<g>
					<path d="M112,664.8c2.1-0.7,3.9-1.4,5.9-2.3c1.3-0.6,1.9-1,2.6-1.7c0.8,0.7,1.6,1.7,2,2.2c0.1,0.1,0.2,0.3,0.2,0.4
						c0,0.2-0.1,0.4-0.4,0.4c-0.7,0.2-1.3,0.5-2,0.8c-2.4,1.1-5.1,2-8.2,3v3.2c0,1.1,0.2,1.5,0.8,1.7c0.6,0.2,1.6,0.3,3,0.3
						c2.3,0,4.3-0.2,6.8-0.5c0.4,0,0.4,0,0.4,0.3c0.1,0.7,0.1,1.6,0.1,2.1c0,0.3-0.1,0.4-0.5,0.4c-2.7,0.3-4.1,0.4-7.1,0.4
						c-2.1,0-3.6-0.2-4.6-0.7c-1.2-0.5-1.7-1.6-1.7-3.6v-8.9c0-2.3-0.1-3.2-0.2-4.4c1.1,0.1,2.3,0.3,3,0.5c0.3,0.1,0.4,0.2,0.4,0.4
						s-0.1,0.3-0.2,0.5c-0.2,0.4-0.2,1-0.2,2.2L112,664.8L112,664.8z M122,657.8c0.1-0.1,0.2-0.1,0.4,0c0.7,0.6,1.6,1.5,2.3,2.6
						c0.1,0.1,0.1,0.3-0.1,0.4l-1,0.7c-0.2,0.1-0.3,0.1-0.4-0.1c-0.7-1.1-1.5-2-2.4-2.8L122,657.8L122,657.8z M124.1,656.3
						c0.1-0.1,0.2-0.1,0.4,0c0.9,0.7,1.8,1.6,2.3,2.5c0.1,0.1,0.1,0.3-0.1,0.4l-1,0.7c-0.2,0.1-0.3,0.1-0.4-0.1
						c-0.7-1-1.4-1.9-2.4-2.8L124.1,656.3L124.1,656.3z"/>
					<path d="M134.8,660.5c0.4,0.1,0.5,0.4,0.3,0.7c-0.3,0.5-0.3,1.1-0.3,1.6c-0.1,3-0.5,5.3-1.3,7.1c-0.6,1.5-1.7,3-3.4,4.5
						c-0.2,0.2-0.4,0.3-0.6,0.3c-0.1,0-0.3-0.1-0.5-0.2c-0.6-0.4-1.2-0.7-2-1c1.9-1.4,3.1-2.9,4-4.8c0.7-1.6,1-3,1-6.8
						c0-0.9-0.1-1.3-0.2-2C133.1,660.1,134.2,660.3,134.8,660.5L134.8,660.5z M140.1,670.6c1.2-0.6,2.3-1.4,3.4-2.2
						c1.4-1.1,2.9-2.4,4.2-4.1c0.1,0.8,0.3,1.6,0.7,2.4c0.1,0.2,0.1,0.3,0.1,0.4c0,0.2-0.1,0.3-0.4,0.6c-1.2,1.2-2.3,2.2-3.6,3.1
						c-1.2,1-2.6,1.9-4.3,2.9c-0.4,0.3-0.5,0.3-0.7,0.5c-0.1,0.1-0.3,0.2-0.5,0.2c-0.1,0-0.3-0.1-0.5-0.2c-0.5-0.4-1.1-1-1.4-1.5
						c-0.1-0.2-0.2-0.4-0.2-0.5c0-0.1,0-0.2,0.1-0.4c0.2-0.3,0.1-0.6,0.1-1.8v-7.5c0-2.1,0-3.1-0.2-4.2c1,0.1,2.3,0.3,3,0.5
						c0.3,0.1,0.4,0.2,0.4,0.4c0,0.1-0.1,0.4-0.2,0.6c-0.2,0.5-0.2,0.9-0.2,2.7L140.1,670.6L140.1,670.6z"/>
					<path d="M162,666c-0.9,1.3-1.9,2.4-3.4,3.7c-1.2,1.1-3.1,2.5-4.5,3.4c-0.2,0.1-0.4,0.2-0.6,0.2c-0.1,0-0.3-0.1-0.4-0.2
						c-0.5-0.6-1.3-1.2-2-1.4c2.4-1.3,4-2.3,5.6-3.8c1.4-1.2,2.6-2.4,3.5-3.7l-4.2,0c-1.2,0-2.6,0-3.8,0.1c-0.2,0-0.3-0.1-0.3-0.4
						c-0.1-0.5-0.1-1.4-0.2-2.3c1.4,0.1,2.9,0.1,4.3,0.1h5.7l-0.1-2.1c-0.1-1.2-0.2-2.1-0.4-2.8c1.3,0,2.3,0.1,3,0.3
						c0.2,0,0.3,0.1,0.3,0.3c0,0.1-0.1,0.2-0.1,0.4c-0.1,0.3-0.2,0.7-0.1,2.2l0.1,1.8h2.1c1.7,0,2.9,0,4.7-0.1
						c0.2,0,0.4,0.1,0.4,0.3c0,0.7,0,1.4,0,2.1c0,0.2-0.1,0.3-0.3,0.3c-1.8-0.1-3.1-0.1-4.6-0.1h-1.9l0.4,9c0.1,1.3-0.4,2.1-1.1,2.5
						c-0.8,0.5-2.2,0.8-3.3,0.8c-0.5,0-0.6-0.1-0.7-0.4c-0.4-0.9-0.8-1.4-1.7-2.1c1.8,0,2.6-0.1,3.4-0.2c0.6-0.1,0.7-0.4,0.7-1.4
						L162,666L162,666z"/>
					<path d="M178.8,668.3c-2.4,0-3.3,0.3-3.5,0.3c-0.3,0-0.5-0.1-0.6-0.5c-0.1-0.5-0.3-1.7-0.4-2.9c1.6,0.2,2.8,0.3,5.2,0.3h7.7
						c1.8,0,3.7,0,5.5-0.1c0.4,0,0.4,0,0.4,0.3c0.1,0.7,0.1,1.5,0,2.3c0,0.3-0.1,0.4-0.4,0.4c-1.8,0-3.6,0-5.4,0L178.8,668.3
						L178.8,668.3z"/>
					<path d="M211.1,662.7c1.3,0,2.9,0,4.2,0c0.3,0,0.4,0,0.5,0.4c0.1,0.6,0.1,1.3,0,1.9c0,0.4-0.1,0.5-0.5,0.5
						c-0.9,0-2.7-0.1-4-0.1h-3.4c-0.2,3.5-0.6,4.8-1.6,6.5c-1.1,1.9-3.1,3.7-5.1,4.7c-0.2,0.1-0.4,0.2-0.6,0.2s-0.4-0.1-0.5-0.2
						c-0.6-0.5-1.2-1-2-1.3c2.7-1.3,4.3-2.6,5.4-4.3c0.9-1.4,1.3-3,1.5-5.5h-4.6c-1.2,0-2.5,0.1-3.5,0.1c-0.3,0-0.4-0.1-0.4-0.5
						c-0.1-0.5-0.1-1.5-0.2-2.4c1.6,0.1,2.9,0.1,4.1,0.1h4.7c0-1.2,0-2.5,0-3.5c0-0.8-0.1-1.5-0.3-2.4c1.2,0,2.4,0.1,3.2,0.3
						c0.3,0.1,0.4,0.2,0.4,0.3c0,0.1-0.1,0.3-0.2,0.5s-0.2,0.8-0.2,1.5c0,1.1,0,1.9,0,3.3L211.1,662.7L211.1,662.7z"/>
					<path d="M223.2,668.3c-2.4,0-3.3,0.3-3.5,0.3c-0.3,0-0.5-0.1-0.6-0.5c-0.1-0.5-0.3-1.7-0.4-2.9c1.6,0.2,2.8,0.3,5.2,0.3h7.7
						c1.8,0,3.7,0,5.5-0.1c0.4,0,0.4,0,0.4,0.3c0.1,0.7,0.1,1.5,0,2.3c0,0.3-0.1,0.4-0.4,0.4c-1.8,0-3.6,0-5.4,0L223.2,668.3
						L223.2,668.3z"/>
				</g>
				<polyline class="st9" points="87.9,685.4 78.1,685.4 78.1,649.1 87.9,649.1 				"/>
				<polyline class="st9" points="259.1,685.4 268.9,685.4 268.9,649.1 259.1,649.1 				"/>
			</g>
			<circle class="st10" cx="360.3" cy="465.7" r="57.6"/>
			<circle class="st10" cx="360.3" cy="610.1" r="57.6"/>
			<path class="st11" d="M302.1,586.2c-11.8,28.8-0.9,62.6,26.8,78.5c30.2,17.4,68.7,7.1,86.1-23.1c17.4-30.2,7.1-68.7-23.1-86.2
				c-28-16.2-63.2-8.4-82,16.8l-27.4-15.8"/>
			<path class="st11" d="M302.1,489.6c-11.8-28.8-0.9-62.6,26.8-78.5c30.2-17.4,68.7-7.1,86.1,23.1c17.4,30.2,7.1,68.7-23.1,86.1
				c-28,16.2-63.2,8.4-82-16.9l-27.4,15.8"/>
			<g>
				<path class="st0" d="M340.7,575.2c-0.1,1-0.3,2-0.5,2.8c-0.1,0.4-0.2,0.6-0.3,0.6c-0.1,0-0.3-0.1-0.5-0.2
					c-0.4-0.2-1-0.4-1.4-0.5c0.7-2.2,0.9-4.4,1-6.3c0-0.5,0-0.9,0-1.5c0.6,0.1,1.4,0.2,2,0.3c0.3,0,0.4,0.1,0.4,0.3s0,0.2-0.1,0.4
					c-0.1,0.2-0.1,0.4-0.1,0.8c0,0.4,0,0.8-0.1,1.2h1.1v-1.3c0-1.7,0-2.4-0.2-3.6c0.9,0,1.7,0.1,2.5,0.2c0.2,0,0.4,0.1,0.4,0.2
					c0,0.2-0.1,0.3-0.1,0.5c-0.1,0.3-0.1,0.9-0.1,2.7v1.4c1.3,0,1.8,0,1.9,0c0.2,0,0.3,0,0.3,0.2v1.6c1.3-1.5,2.1-3.1,2.7-4.9
					c0.2-0.6,0.3-1.2,0.4-1.9c0.6,0.1,1.6,0.2,2.3,0.4c0.3,0.1,0.4,0.2,0.4,0.3s-0.1,0.3-0.2,0.5s-0.3,0.5-0.5,1.1
					c-0.2,0.7-0.5,1.3-0.8,2h5.6c1.8,0,2.4,0,2.5,0c0.3,0,0.3,0.1,0.3,0.3c0,0.7,0,1.3,0,1.9c0,5.7-0.2,8.8-0.7,11.5
					c-0.4,2.6-1.4,3.8-3.6,3.8c-0.4,0-1.1,0-1.7,0c-0.5,0-0.8-0.3-0.9-0.8c-0.1-0.8-0.3-1.3-0.6-1.8c1.1,0.2,1.9,0.2,2.8,0.2
					c1.1,0,1.4-0.7,1.6-2c0.4-2.6,0.6-5.3,0.7-10.4c-1.7,6-4.1,10.3-8.2,13.5c-0.3,0.2-0.5,0.3-0.6,0.3c-0.2,0-0.3-0.1-0.5-0.5
					c-0.4-0.6-0.9-1-1.3-1.3c4.5-3.1,7-7.2,8.5-12.6h-1.6c-1.1,3.7-2.9,6.5-5.3,8.7c-0.3,0.3-0.4,0.4-0.6,0.4s-0.3-0.1-0.5-0.4
					c-0.4-0.5-0.9-0.9-1.3-1.2c2.5-1.8,4.3-4.3,5.4-7.5h-1.3c-0.5,0.8-1.1,1.7-1.8,2.4c-0.3,0.3-0.4,0.4-0.5,0.4
					c-0.1,0-0.3-0.1-0.5-0.4c-0.5-0.4-1-0.8-1.4-1l0.6-0.7c-0.2,0-0.8,0-1.7,0v3.9c0.7-0.3,1.4-0.7,2.2-1.1c0,0.4,0,1.1,0,1.6
					c0,0.7,0,0.7-0.6,1.1c-0.6,0.3-1.1,0.6-1.7,0.9v4.1c0,2.7,0,4.1,0,4.2c0,0.2,0,0.3-0.3,0.3h-1.9c-0.2,0-0.3,0-0.3-0.3
					c0-0.1,0-1.5,0-4.2v-3c-0.5,0.2-1.1,0.5-1.7,0.7c-0.4,0.2-0.6,0.3-0.8,0.4c-0.1,0.1-0.3,0.2-0.4,0.2c-0.2,0-0.3-0.1-0.4-0.3
					c-0.3-0.7-0.6-1.6-0.8-2.3c0.8-0.2,1.5-0.4,2.3-0.6c0.6-0.2,1.2-0.4,1.8-0.6v-4.9L340.7,575.2L340.7,575.2z"/>
				<path class="st0" d="M364.6,580.6c0-0.9,0-1.9,0-2.9c-0.5,0.7-1,1.4-1.6,2c-0.2,0.2-0.3,0.3-0.4,0.3c-0.1,0-0.2-0.1-0.3-0.4
					c-0.2-0.8-0.5-1.6-0.8-2.1c2-2.3,3.6-4.9,4.5-7.7c0.2-0.7,0.3-1.2,0.4-1.8c0.9,0.3,1.6,0.5,2.3,0.8c0.3,0.1,0.4,0.2,0.4,0.3
					c0,0.2,0,0.3-0.2,0.4c-0.1,0.1-0.3,0.4-0.5,1c-0.4,1.1-0.9,2.2-1.4,3.2v12.4c0,2.4,0,3.5,0,3.7c0,0.2,0,0.3-0.3,0.3h-2
					c-0.2,0-0.3,0-0.3-0.3c0-0.1,0-1.3,0-3.7L364.6,580.6L364.6,580.6z M375.2,571.8c0-1.7,0-2.6-0.2-3.6c0.9,0,1.8,0.1,2.6,0.1
					c0.2,0,0.4,0.1,0.4,0.3c0,0.2-0.1,0.3-0.1,0.5c-0.1,0.3-0.2,0.9-0.2,2.7v1.6h2c2.2,0,2.9,0,3.1,0c0.3,0,0.3,0,0.3,0.3v1.8
					c0,0.2,0,0.3-0.3,0.3c-0.1,0-0.9,0-3.1,0h-2v4.2h2.7c2.4,0,3.1,0,3.3,0c0.2,0,0.3,0,0.3,0.3v1.9c0,0.3,0,0.3-0.3,0.3
					c-0.1,0-0.9,0-3.3,0h-2.7v3.5c0,2.7,0,4.1,0,4.2c0,0.2,0,0.3-0.3,0.3h-2.1c-0.2,0-0.3,0-0.3-0.3c0-0.1,0-1.5,0-4.2V582H372
					c-2.4,0-3.1,0-3.3,0c-0.2,0-0.3,0-0.3-0.3v-1.9c0-0.2,0-0.3,0.3-0.3c0.1,0,0.9,0,3.3,0h3.2v-4.2h-3.6c-0.4,0.9-0.8,1.7-1.3,2.5
					c-0.2,0.3-0.3,0.5-0.4,0.5s-0.3-0.1-0.5-0.4c-0.5-0.5-1-0.7-1.5-1c1.6-2.3,2.5-4.5,3-6.4c0.2-0.5,0.2-1.1,0.3-1.6
					c0.8,0.2,1.5,0.4,2.2,0.6c0.3,0.1,0.4,0.2,0.4,0.4s-0.1,0.3-0.1,0.3c-0.1,0.1-0.3,0.4-0.4,1s-0.4,1.2-0.6,1.8h2.7L375.2,571.8
					L375.2,571.8z"/>
				<path class="st0" d="M328.3,610.1c0-0.9,0-1.9,0-3c-0.4,0.5-0.8,1-1.2,1.6c-0.2,0.2-0.3,0.3-0.4,0.3c-0.1,0-0.2-0.1-0.3-0.4
					c-0.1-0.8-0.4-1.7-0.7-2.2c1.9-2.2,3.1-4.8,4.1-7.7c0.2-0.6,0.3-1.1,0.4-1.7c0.8,0.2,1.5,0.5,2.2,0.8c0.2,0.1,0.4,0.2,0.4,0.4
					c0,0.2-0.1,0.3-0.3,0.4c-0.2,0.1-0.3,0.4-0.5,1c-0.4,1.2-0.9,2.3-1.4,3.4v12.2c0,2.3,0,3.5,0,3.6c0,0.2,0,0.3-0.3,0.3h-1.9
					c-0.2,0-0.3,0-0.3-0.3c0-0.1,0-1.3,0-3.6L328.3,610.1L328.3,610.1z M336.1,601c-2.4,0-3.1,0-3.3,0c-0.2,0-0.3,0-0.3-0.3V599
					c0-0.3,0-0.3,0.3-0.3c0.1,0,0.9,0,3.3,0h8.5c2.4,0,3.1,0,3.3,0c0.2,0,0.3,0,0.3,0.3v1.8c0,0.2,0,0.3-0.3,0.3c-0.1,0-0.9,0-3.3,0
					h-1.5v3.7h0.7c2.3,0,3.2,0,3.3,0c0.2,0,0.3,0,0.3,0.3c0,0.1,0,1.1,0,3.9v4.2c0,4.2,0,5.1,0,5.3c0,0.2,0,0.3-0.3,0.3h-1.9
					c-0.2,0-0.3,0-0.3-0.3v-1H335v1.1c0,0.2,0,0.3-0.3,0.3h-1.9c-0.2,0-0.3,0-0.3-0.3c0-0.1,0-1,0-5.3v-3.8c0-3.3,0-4.2,0-4.4
					c0-0.2,0-0.3,0.3-0.3c0.1,0,1,0,3.3,0h0.6V601L336.1,601L336.1,601z M336.8,615.2v-8.3H335v8.3H336.8z M340.9,604.7V601H339v3.7
					H340.9z M340.9,615.2v-8.3H339v8.3H340.9z M343.1,606.8v8.3h1.9v-8.3H343.1z"/>
				<path class="st0" d="M352.4,609.9c0-0.9,0-2.1,0-3.2c-0.4,0.6-0.9,1.2-1.4,1.7c-0.2,0.2-0.3,0.3-0.4,0.3c-0.1,0-0.2-0.1-0.3-0.4
					c-0.2-0.7-0.5-1.5-0.8-2c1.9-2.1,3.4-4.7,4.4-7.6c0.2-0.6,0.3-1.1,0.4-1.7c0.8,0.2,1.5,0.4,2.2,0.7c0.3,0.1,0.4,0.2,0.4,0.4
					c0,0.2-0.1,0.3-0.2,0.4c-0.2,0.1-0.3,0.4-0.5,1c-0.4,1.2-0.9,2.3-1.4,3.4v12.3c0,2.3,0,3.5,0,3.7c0,0.2,0,0.3-0.3,0.3h-2
					c-0.2,0-0.2,0-0.2-0.3c0-0.1,0-1.3,0-3.7L352.4,609.9L352.4,609.9z M356.7,606.8c0-1.5,0-2.2-0.2-3.1c0.9,0,1.6,0.1,2.5,0.2
					c0.2,0,0.4,0.2,0.4,0.3c0,0.2-0.1,0.3-0.2,0.5c-0.1,0.3-0.1,0.7-0.1,2.1v8.9h9.6c2.3,0,3,0,3.1,0c0.2,0,0.3,0,0.3,0.3v1.7
					c0,0.2,0,0.3-0.3,0.3c-0.1,0-0.9,0-3.1,0h-9.6v0.9c0,0.2,0,0.3-0.3,0.3H357c-0.2,0-0.3,0-0.3-0.3c0-0.1,0-0.9,0-2.5L356.7,606.8
					L356.7,606.8z M360.9,601.5c-2.4,0-3.1,0-3.3,0c-0.2,0-0.2,0-0.2-0.3v-1.6c0-0.2,0-0.2,0.2-0.2c0.1,0,0.9,0,3.3,0h2.9l0.1-0.7
					c0.1-0.7,0.1-1.2,0.1-1.7c0.8,0,1.7,0.1,2.4,0.2c0.2,0,0.4,0.1,0.4,0.3c0,0.1-0.1,0.3-0.2,0.4c-0.1,0.2-0.2,0.4-0.3,0.7
					c0,0.3-0.1,0.5-0.1,0.8h2.4c2.4,0,3.1,0,3.3,0c0.2,0,0.3,0,0.3,0.2v1.6c0,0.3,0,0.3-0.3,0.3c-0.1,0-0.9,0-3.3,0h-2.7
					c-0.1,0.6-0.2,1.2-0.4,1.8h2c1.9,0,2.5,0,2.7,0c0.3,0,0.3,0,0.3,0.3c0,0.1,0,0.9,0,2.6v5.4c0,1.7,0,2.5,0,2.6
					c0,0.2,0,0.3-0.3,0.3c-0.1,0-0.8,0-2.7,0h-3.5c-1.9,0-2.5,0-2.7,0c-0.2,0-0.3,0-0.3-0.3c0-0.2,0-0.9,0-2.6v-5.4
					c0-1.7,0-2.5,0-2.6c0-0.2,0-0.3,0.3-0.3c0.1,0,0.6,0,1.9,0c0.1-0.6,0.2-1.2,0.4-1.8L360.9,601.5L360.9,601.5z M363.2,606.4h4.8
					V605h-4.8V606.4z M368,609.5v-1.4h-4.8v1.4H368z M368,611.1h-4.8v1.4h4.8V611.1z"/>
				<path class="st0" d="M386.5,602.4c-0.5,4.1-1.6,7.8-3,10.3c-1,1.8-2.3,2.8-4.1,2.8c-2.1,0-4.2-2.3-4.2-6.2c0-2.3,1-4.5,2.7-6.2
					c2-2,4.6-3.1,7.8-3.1c5.8,0,9.1,3.5,9.1,8.3c0,4.5-2.5,7.3-7.4,8.7c-0.5,0.1-0.7,0-1-0.4c-0.3-0.4-0.8-1-1.7-1.5
					c4.1-1,7.2-2.6,7.2-7.2C391.9,605.1,389.8,602.4,386.5,602.4L386.5,602.4L386.5,602.4z M379.6,604.7c-1.1,1.3-1.9,2.9-1.9,4.4
					c0,2.2,0.9,3.4,1.6,3.4c0.6,0,1.1-0.3,1.8-1.5c1.1-1.9,2.1-5.4,2.5-8.6C382,602.9,380.7,603.6,379.6,604.7L379.6,604.7z"/>
				<path class="st0" d="M358.7,640.9c0,2.1,0,3.4,0,4.2c0,0.9-0.2,1.5-0.7,2c-0.5,0.4-1.4,0.5-3.4,0.6c-0.8,0-0.7,0-0.9-0.7
					c-0.2-0.7-0.4-1.3-0.7-1.8c0.7,0,1.4,0.1,2,0.1c0.7,0,1-0.2,1-0.8v-12h-14.2V644c0,2.3,0,3.4,0,3.5c0,0.2,0,0.2-0.3,0.2h-2.2
					c-0.2,0-0.3,0-0.3-0.2c0-0.2,0-1.3,0-3.8v-9.4c0-2.5,0-3.7,0-3.9c0-0.2,0-0.3,0.3-0.3c0.2,0,1,0,3.3,0h2.8
					c0.5-0.9,1-1.9,1.3-2.8c0.2-0.4,0.3-0.8,0.4-1.3c1,0.1,2,0.3,2.7,0.4c0.2,0,0.3,0.2,0.3,0.3c0,0.2-0.1,0.3-0.2,0.4
					c-0.2,0.2-0.3,0.3-0.4,0.6c-0.4,0.8-0.8,1.6-1.2,2.4h6.8c2.3,0,3.1,0,3.2,0c0.3,0,0.3,0,0.3,0.3c0,0.1,0,1.5,0,4L358.7,640.9
					L358.7,640.9z M344.7,644c-0.2,0-0.3,0-0.3-0.3c0-0.2,0-0.8,0-4v-2.1c0-1.8,0-2.5,0-2.6c0-0.2,0-0.3,0.3-0.3c0.1,0,0.7,0,2.5,0
					h3.4c1.8,0,2.4,0,2.6,0c0.2,0,0.3,0,0.3,0.3c0,0.1,0,0.8,0,2.2v2.3c0,3.2,0,3.7,0,3.9c0,0.2,0,0.3-0.3,0.3h-1.8
					c-0.3,0-0.3,0-0.3-0.3v-0.7h-4.4v1.1c0,0.2,0,0.3-0.3,0.3L344.7,644L344.7,644z M346.7,640.5h4.4v-3.6h-4.4V640.5z"/>
				<path class="st0" d="M365.8,646.7c-2.2,0-2.9,0-3,0c-0.2,0-0.3,0-0.3-0.3v-2.2c0-0.2,0-0.3,0.3-0.3c0.1,0,0.9,0,3,0h5.1v-13.5
					c0-1.9,0-2.9-0.2-4c0.9,0,2,0.1,2.8,0.2c0.2,0,0.4,0.2,0.4,0.3c0,0.2-0.1,0.4-0.2,0.5c-0.1,0.3-0.2,0.9-0.2,2.3v3.8h4.7
					c2.1,0,2.8,0,3,0c0.2,0,0.3,0,0.3,0.3v2.2c0,0.2,0,0.3-0.3,0.3c-0.1,0-0.9,0-3,0h-4.7v7.8h6.5c2.2,0,2.9,0,3,0
					c0.2,0,0.3,0,0.3,0.3v2.2c0,0.2,0,0.3-0.3,0.3c-0.1,0-0.9,0-3,0L365.8,646.7L365.8,646.7z"/>
			</g>
			<g>
				<path class="st0" d="M332.3,441.8c0-1.7,0-2.5-0.2-3.6c0.9,0,1.8,0.1,2.6,0.2c0.2,0,0.4,0.1,0.4,0.2c0,0.2-0.1,0.3-0.1,0.5
					c-0.1,0.3-0.2,0.9-0.2,2.7v13.9c0,2.7,0,4,0,4.2c0,0.2,0,0.3-0.3,0.3h-2.1c-0.2,0-0.3,0-0.3-0.3c0-0.1,0-1.5,0-4.1v-1.9
					c-1.3,0.6-2.7,1.1-4.1,1.7c-0.4,0.1-0.8,0.3-1,0.4c-0.1,0.1-0.2,0.2-0.4,0.2s-0.2-0.1-0.3-0.3c-0.2-0.6-0.5-1.4-0.7-2.3
					c0.6-0.1,1.1-0.2,1.7-0.3v-8.5c0-1.7,0-2.5-0.2-3.6c0.9,0,1.7,0.1,2.5,0.2c0.2,0,0.4,0.1,0.4,0.3c0,0.2-0.1,0.3-0.1,0.5
					c-0.1,0.3-0.2,0.9-0.2,2.7v7.7c0.8-0.3,1.5-0.5,2.3-0.9L332.3,441.8L332.3,441.8z M344.8,440c0.5,0,0.6,0,0.8-0.1
					c0.1-0.1,0.2-0.1,0.4-0.1c0.2,0,0.4,0.2,1,0.8c0.4,0.4,0.5,0.7,0.5,0.8s-0.1,0.4-0.2,0.6c-0.2,0.2-0.4,0.8-0.5,1.5
					c-0.7,3.7-1.7,6.8-3.4,9.5c1.3,1.6,3,3.1,5.1,4.4c-0.5,0.5-0.9,1.1-1.2,1.8c-0.2,0.4-0.3,0.5-0.4,0.5c-0.1,0-0.3-0.1-0.5-0.2
					c-1.8-1.3-3.3-2.7-4.6-4.2c-1.3,1.6-2.9,3-4.8,4.4c-0.3,0.2-0.4,0.3-0.6,0.3c-0.2,0-0.3-0.2-0.5-0.6c-0.3-0.6-0.6-1.1-1.1-1.5
					c2.3-1.4,4.1-2.9,5.5-4.7c-1.8-2.9-2.8-6.4-3.2-10.8c-0.7,0-1.1,0-1.1,0c-0.3,0-0.3,0-0.3-0.3v-1.8c0-0.2,0-0.3,0.3-0.3
					c0.1,0,0.8,0,2.9,0H344.8L344.8,440z M339.5,442.2c0.3,3.4,1.1,6.1,2.3,8.5c1.3-2.4,2.1-5.2,2.6-8.5H339.5z"/>
				<path class="st0" d="M354,444.9c-2.2,0-2.9,0-3.1,0c-0.2,0-0.3,0-0.3-0.3v-1.8c0-0.2,0-0.2,0.3-0.2c0.1,0,0.9,0,3.1,0h3
					c-0.1,0-0.1-0.1-0.2-0.2c-0.5-1.1-1.1-2.3-1.8-3.2c-0.1-0.2-0.1-0.2,0.2-0.4l1.6-0.6c0.3-0.1,0.4-0.1,0.5,0.1
					c0.6,0.9,1.3,2,1.8,3.2c0.1,0.2,0.1,0.3-0.2,0.4l-1.8,0.8h5.3c0.7-1.1,1.3-2.2,1.8-3.2c0.2-0.5,0.3-0.8,0.4-1.4
					c0.8,0.2,1.9,0.4,2.6,0.7c0.2,0.1,0.3,0.2,0.3,0.3c0,0.2-0.1,0.2-0.3,0.4c-0.2,0.2-0.3,0.3-0.6,0.7c-0.5,0.8-1,1.7-1.5,2.5h3
					c2.2,0,2.9,0,3.1,0c0.2,0,0.3,0,0.3,0.2v1.8c0,0.2,0,0.3-0.3,0.3c-0.1,0-0.9,0-3.1,0h-2.9c1.3,2.3,3.5,4.3,7.1,5.9
					c-0.3,0.4-0.6,0.9-1,1.5c-0.2,0.4-0.2,0.6-0.4,0.6c-0.1,0-0.3-0.1-0.5-0.2c-0.6-0.3-1.1-0.7-1.7-1v5.4c1.9,0,2.5,0,2.7,0
					c0.2,0,0.3,0,0.3,0.3v1.7c0,0.2,0,0.3-0.3,0.3c-0.1,0-0.9,0-3,0h-14.8c-2.2,0-2.9,0-3,0c-0.2,0-0.3,0-0.3-0.3v-1.7
					c0-0.2,0-0.3,0.3-0.3c0.1,0,0.8,0,2.7,0v-4.3c0-0.4,0-0.8,0-1.1c-0.5,0.3-1,0.7-1.6,1c-0.3,0.1-0.4,0.2-0.5,0.2
					c-0.2,0-0.3-0.2-0.5-0.5c-0.3-0.5-0.7-1-1.1-1.4c3.4-1.7,5.6-3.7,6.9-6.1L354,444.9L354,444.9z M366.9,450.2
					c-1.9-1.6-3.2-3.3-4.2-5.3h-3.4c-1.1,2.1-2.4,3.8-4.1,5.3H366.9L366.9,450.2z M357.8,457.1v-4.8h-2.1v4.8H357.8z M362.2,457.1
					v-4.8H360v4.8H362.2z M364.4,452.3v4.8h2.1v-4.8H364.4z"/>
				<path class="st0" d="M386.4,443.4c-0.5,4.1-1.6,7.8-3,10.4c-1,1.8-2.3,2.8-4.1,2.8c-2.1,0-4.2-2.3-4.2-6.2c0-2.3,1-4.5,2.7-6.2
					c2-2,4.6-3.1,7.8-3.1c5.8,0,9.1,3.5,9.1,8.3c0,4.5-2.5,7.3-7.4,8.7c-0.5,0.1-0.7,0-1-0.4c-0.3-0.4-0.8-1-1.7-1.5
					c4.1-1,7.2-2.6,7.2-7.2C391.9,446.1,389.7,443.4,386.4,443.4L386.4,443.4L386.4,443.4z M379.5,445.7c-1.1,1.3-1.9,2.9-1.9,4.4
					c0,2.2,0.9,3.4,1.6,3.4c0.6,0,1.1-0.3,1.8-1.5c1.1-1.9,2.1-5.4,2.5-8.6C381.9,443.9,380.6,444.5,379.5,445.7z"/>
				<path class="st0" d="M334.4,489c-0.2,0-0.3,0-0.3-0.3c0-0.1,0-0.9,0-2.4c-1.9,0.4-4.3,0.8-6.2,1.1c-0.4,0-0.7,0.2-0.9,0.2
					c-0.1,0-0.2,0.1-0.4,0.1s-0.3-0.1-0.3-0.4c-0.2-0.6-0.3-1.2-0.5-1.9c0.8,0,1.5-0.1,2.3-0.2c0.1,0,0.3,0,0.4,0v-7.5
					c-1.6,0-2.3,0-2.4,0c-0.2,0-0.3,0-0.3-0.3v-1.5c0-0.2,0-0.3,0.3-0.3c0.1,0,0.8,0,2.9,0h15.4c2.1,0,2.8,0,2.9,0
					c0.2,0,0.2,0,0.2,0.3v1.5c0,0.2,0,0.3-0.2,0.3c-0.1,0-0.8,0-2.9,0h-8.1v8c0,1.9,0,2.7,0,2.9c0,0.2,0,0.3-0.3,0.3L334.4,489
					L334.4,489z M341.2,467.9c2.4,0,3.2,0,3.4,0c0.2,0,0.3,0,0.3,0.3c0,0.1,0,0.7,0,2v2.5c0,1.3,0,1.8,0,2c0,0.3,0,0.3-0.3,0.3
					c-0.1,0-1,0-3.4,0h-8.7c-2.4,0-3.2,0-3.4,0c-0.2,0-0.3,0-0.3-0.3c0-0.1,0-0.7,0-2v-2.5c0-1.3,0-1.8,0-2c0-0.3,0-0.3,0.3-0.3
					c0.2,0,1,0,3.4,0H341.2z M334.2,479.1v-1.3h-3.4v1.3H334.2z M334.2,481.9v-1.2h-3.4v1.2H334.2z M334.2,483.5h-3.4v1.7
					c1.1-0.2,2.3-0.3,3.4-0.5V483.5z M331.2,470.7h11.1v-1h-11.1V470.7z M342.4,472.1h-11.1v1h11.1V472.1z M344,479.3
					c0.1,0,0.3,0,0.4-0.1c0.1,0,0.2-0.1,0.4-0.1c0.2,0,0.3,0,0.8,0.5c0.6,0.5,0.6,0.7,0.6,0.9c0,0.2-0.1,0.3-0.2,0.4
					c-0.2,0.1-0.4,0.4-0.6,1c-0.5,1.1-1.1,2-1.9,2.9c1.2,0.7,2.6,1.3,4.2,1.6c-0.3,0.4-0.6,0.9-0.8,1.5c-0.2,0.6-0.3,0.6-0.9,0.5
					c-1.6-0.5-3-1.2-4.1-2.1c-1.1,0.8-2.3,1.5-3.6,2.1c-0.2,0.1-0.4,0.2-0.5,0.2c-0.2,0-0.3-0.2-0.4-0.5c-0.3-0.6-0.5-1-0.9-1.4
					c1.5-0.5,2.8-1.1,3.9-1.8c-0.9-1.1-1.7-2.3-2.4-3.8c-0.4,0-0.5,0-0.6,0c-0.2,0-0.3,0-0.3-0.3v-1.4c0-0.2,0-0.3,0.3-0.3
					c0.1,0,0.7,0,2.6,0L344,479.3L344,479.3z M340.1,481.1c0.5,1,1,1.8,1.8,2.5c0.7-0.7,1.2-1.6,1.7-2.5H340.1z"/>
				<path class="st0" d="M353.7,475.8c-2.2,0-2.9,0-3,0c-0.2,0-0.3,0-0.3-0.3v-2c0-0.2,0-0.3,0.3-0.3c0.1,0,0.9,0,3,0h5.5
					c0.1-1,0.1-2.1,0.1-3.2c0-1.1,0-2-0.1-2.8c0.7,0,2,0.1,2.8,0.2c0.2,0,0.4,0.2,0.4,0.3c0,0.2,0,0.3-0.1,0.5
					c-0.1,0.2-0.2,0.6-0.2,1.7c0,1.2,0,2.3-0.1,3.3h6.2c2.2,0,2.9,0,3,0c0.2,0,0.3,0,0.3,0.3v2c0,0.3,0,0.3-0.3,0.3
					c-0.1,0-0.9,0-3,0h-5.7c1.5,4.7,4.7,8.6,9.6,10.5c-0.5,0.5-1,1.1-1.4,1.8c-0.2,0.4-0.3,0.6-0.5,0.6c-0.1,0-0.3-0.1-0.5-0.2
					c-3.8-2-6.9-5.4-8.5-9.7c-0.2,0.8-0.5,1.6-0.9,2.3c-1.7,3.4-4.1,5.8-7.7,7.5c-0.3,0.1-0.5,0.2-0.6,0.2c-0.2,0-0.3-0.1-0.5-0.5
					c-0.4-0.6-0.8-1.1-1.4-1.5c3.9-1.5,6.4-3.8,7.8-6.6c0.6-1.2,1-2.6,1.3-4.2L353.7,475.8L353.7,475.8z"/>
				<path class="st0" d="M377.7,479.6c0-0.9,0-2,0-3.1c-0.7,0.9-1.4,1.8-2.1,2.5c-0.2,0.2-0.4,0.4-0.5,0.4s-0.2-0.2-0.4-0.5
					c-0.2-0.6-0.6-1.4-0.9-2c2.5-2.3,4.3-4.9,5.5-8.1c0.2-0.5,0.4-1.1,0.5-1.7c0.9,0.2,1.6,0.5,2.3,0.8c0.3,0.1,0.4,0.2,0.4,0.4
					s-0.1,0.3-0.2,0.4c-0.2,0.1-0.3,0.4-0.6,1c-0.4,1-0.9,2.1-1.5,3.1v12.3c0,2.3,0,3.5,0,3.6c0,0.2,0,0.2-0.3,0.2h-2.1
					c-0.3,0-0.3,0-0.3-0.2c0-0.2,0-1.3,0-3.6L377.7,479.6L377.7,479.6z M386.8,484.5c0,0.9,0.1,1.2,0.7,1.4c0.4,0.1,1.1,0.2,2.4,0.2
					c1.2,0,1.9-0.1,2.5-0.6c0.4-0.3,0.6-1.4,0.7-3.6c0.5,0.4,1.2,0.7,1.9,1c0.6,0.2,0.6,0.2,0.5,0.8c-0.2,2.4-0.6,3.4-1.4,4
					c-0.8,0.5-2.2,0.8-4.3,0.8c-2.3,0-3.4-0.1-4.2-0.5c-0.8-0.4-1.3-1-1.3-2.6v-15.1c0-1.3,0-2-0.1-2.8c1,0,1.7,0.1,2.6,0.2
					c0.3,0,0.5,0.1,0.5,0.3s-0.1,0.3-0.1,0.5c-0.1,0.2-0.2,0.6-0.2,1.6v6c1.5-1,3-2.1,4.4-3.5c0.5-0.4,1-1.1,1.4-1.6
					c0.6,0.5,1.3,1.1,1.9,1.6c0.2,0.2,0.3,0.3,0.3,0.5s-0.2,0.3-0.4,0.4c-0.3,0.1-0.7,0.4-1.2,0.9c-1.8,1.6-3.9,3.2-6.3,4.7
					L386.8,484.5L386.8,484.5z"/>
			</g>
			<g>
				<path class="st12" d="M38.3,503.1c0,0-1.8,2.7-2.4,5.1s3.3,6.2,3.3,6.2l3.4-9.9L38.3,503.1L38.3,503.1z"/>
				<path class="st12" d="M67.9,437.5c0,0-0.8,5.7,1.3,8.3c0,0-8.5,11.3-15,9.6s-1.7-8.9-1.7-8.9L67.9,437.5L67.9,437.5z"/>
				<path class="st13" d="M62.9,600.8c0,0,0.3,2.7-0.8,5.7c-1.1,3-4.8,9.7-4.7,12.5c0.1,2.8,1.2,4.9,3.8,5.2c2,0.2,8.1-1.7,10.2-6.5
					c2.1-4.8,0.3-6.2,1.4-8.2s2.3-6.5,1.6-9.7S62.9,600.8,62.9,600.8L62.9,600.8z"/>
				<path class="st13" d="M56.4,593.2l-14.1-1H42c0,0-1.2,3-3.9,4.2c-2.8,1.1-10,4-12,6.8c-1.7,2.3,2,5.4,9.7,3.5
					c5.5-1.3,6-4.1,12.5-4.2c4.4-0.1,6.1-0.9,7.9-3.2L56.4,593.2L56.4,593.2z"/>
				<path class="st14" d="M39.4,596c0,0,3.3-13.9,1-29.5c-1.6-10.7-1.8-39.8-1.1-62.9c0,0,3,4.9,10.5,7.8c7.5,2.9,9.1,5.7,9.1,5.7
					l-1.3,20.5c0,0-1.1,11.2-0.8,17c0.4,5.8-0.7,5.5-0.5,15.5c0.2,10-0.1,27-0.1,27S46.8,599,39.4,596L39.4,596z"/>
				<path class="st14" d="M75.1,573.9c-1.2-9.8-2.6-18.5-2.1-25.2c0.5-6.8,3.8-32.2,0.4-40.1l-23.4,2.8c0,0,3.2,32.2,7,48
					s5.3,47,5.3,47s0.3,3.8,4.9,4c4.6,0.2,7.4-8.1,7.4-8.1S76.2,583.7,75.1,573.9L75.1,573.9z"/>
				<path class="st15" d="M38.3,502.3c0,0-0.1,4.4,4.2,6.9c4.3,2.5,17.7,6,21.5,3.9c3.8-2,3.8-24.3,3.8-24.3l2.9-29.8l-5.4-6.8
					c0,0-7.7,2.1-10.7,0.8c-3-1.3-2.8-6.9-2.8-6.9s-4.7-0.4-7.2,6.2c-2.5,6.6-2.6,29.5-2.6,29.5s-1.2,15.7-1.7,17
					C39.8,500.2,38.3,502.3,38.3,502.3L38.3,502.3z"/>
				<path class="st16" d="M48.5,442.9c0,0-6.2-0.9-8,4.9c-0.9,2.9-0.7,9.9-0.2,16.1c-0.2,3.8-0.1,6.9,0.2,8.4
					c0.9,4.4-1.7,19.4-1.7,21.4s-1.6,3.5-3.4,6.6c-1.8,3.1,3.4,6,3.4,6c3.2-1.7,3.6-29.2,6.1-43.6c0.6-3.4,1-6.5,2-8.8
					c3.5-7.6,9.4-10.5,9.4-10.5L48.5,442.9L48.5,442.9z"/>
				<path class="st16" d="M78.1,511.7c-3.8-4.8-7.4-12.7-5.4-17.9c2.1-5.2,8.2-17.9,8.2-17.9l1.4-19l-10.9-8.8l-1.8-1.9
					c0,0,0.2,3-3.8,7.6c-6.5,7.5-9.3,19.4-8.8,32.7c0.5,13.3,2.3,21.2,8.1,29.9l5.3,9.5c0,0,1.1,6.7,1.5,7.2
					c2.8,3.2,11.8,0.1,12.5-2.4C84.4,530.6,81.8,516.5,78.1,511.7L78.1,511.7z"/>
				<path class="st14" d="M56.4,457l-1.8-4l-3.6,2.8l0.8,3.6c0,0-6.6,19.1-6.9,40l3.2,5.8l3.5-3.5c0,0,1-22.5,1.5-27.2
					c0.6-4.8,0.9-14.8,0.9-14.8L56.4,457L56.4,457z"/>
				<path class="st17" d="M68.9,444.9c-4,6.8-14.3,8.2-14.3,8.2l1.6,6c0,0,11-4.6,14.5-10.8L68.9,444.9L68.9,444.9z"/>
				<path class="st17" d="M50.2,456.5l4.4-3.4c0,0-1-5.1-0.4-8.7h-1.8C52.5,444.4,49,450.7,50.2,456.5L50.2,456.5z"/>
				<path class="st18" d="M57.5,493.8c0,0,3.6-16.8,9.6-27.2l-3.7-3.6l3.6-1.1l5.1-13.5l-3.2-3.5c0,0,0.2,1.8-0.7,3.5
					c-0.9,1.7-7.5,9.3-10.2,19.7C55.5,478.5,57.5,493.8,57.5,493.8z"/>
				<path class="st18" d="M42.1,490.7l-1.6-33.5l3.3-0.9l-1.3-4.1l10.3-9.3l4.1,1.2c0,0-9,5.2-10.8,14.3
					C44.3,467.5,42.1,490.7,42.1,490.7L42.1,490.7z"/>
				<g>
					<path class="st12" d="M48.1,432.4c0-1.1,0.6-2.3,0.9-3.8c0.2-1.4,1.1-4.6,4.7-7.5c3.7-2.8,9.1-3.4,12.7-1.3
						c3.6,2.1,5.9,6.3,5.2,11.3c-0.6,5-3.5,10.2-6.4,12.8c-2.9,2.6-6.2,3.8-9.5,4.2c-3.3,0.4-4.8-1.2-5-2.7c0,0-0.6-1.4-0.9-2.5
						C49,439.6,48.2,437.4,48.1,432.4L48.1,432.4z"/>
					<path class="st19" d="M66.7,418.2c-5.5-3.4-11.7-1.5-14.8,0.9c-1.1,0.8-2.3,2.1-3.5,4.7c-1,2.1-0.8,6.3,4,6.4
						c2.6,0,6-0.7,8.6-1.3c2.9,1.6,2,4.7,2.4,5.7c0.4,1,0.9,2.2,1.6,2.6c0.4,0.2,1.1-0.5,1.3-0.7c0.4-0.6,3.4-4.5,3.9,0.1
						c0.7-1.7,1.2-3.5,1.4-5.3c0.1-0.8,0.1-1.5,0.1-2.2l0,0C72.5,427.1,72,421.5,66.7,418.2L66.7,418.2z"/>
					<path class="st19" d="M63.4,434.5c0.4,1,0.9,2.2,1.6,2.6c0.4,0.2,1.1-0.5,1.3-0.7c0.4-0.6,3.4-4.5,3.9,0.1
						c0.7-1.7,1.2-3.5,1.4-5.3c0.1-0.8,0.1-1.5,0.1-2.2c-2.9,1.7-6.6,2.5-8.6,2.8C63.3,433,63.2,434,63.4,434.5L63.4,434.5z"/>
					<path class="st20" d="M66.3,440.5c0.4,0.2,1.4,0.6,3.2-1.5s1.6-4,0.6-4.6s-1.8-0.1-2.3,0.6C67.4,435.8,66.3,440.5,66.3,440.5
						L66.3,440.5z"/>
					<path class="st12" d="M66.3,440.5c0.4,0.2,1.4,0.6,3.2-1.5s1.6-4,0.6-4.6s-1.8-0.1-2.3,0.6C67.4,435.8,66.3,440.5,66.3,440.5
						L66.3,440.5z"/>
				</g>
				<g>
					<path class="st12" d="M71.4,512.2l-0.6,1.2c0,0-1.6,0.5-1.7,0.6c-0.1,0.1-4.5,2.3-4.5,2.3s2.3,6.2,5.8,9.5c0,0,3.9-6,4.4-7.2
						c0.5-1.2,1.8-3.5,1.8-3.5L71.4,512.2L71.4,512.2z"/>
					<path class="st16" d="M75.5,469.9c-1.6-3.7-1.3-11.3,2.4-12.7c3.7-1.5,5.9-1.5,11.4,9.6s4.7,19.1,5.4,21
						c0.7,1.9-1.5,5.6-2.7,8.2s-15.4,22.8-15.4,22.8s-4.2-3-6.9-5.8L82.9,488C82.9,488,78.1,476,75.5,469.9L75.5,469.9z"/>
					<path class="st21" d="M69.8,513.2l-0.6,0.8l6.1,6.2l0.8-1.7C75,517.6,72,515.3,69.8,513.2L69.8,513.2z"/>
				</g>
			</g>
			<g>
				<g>
					<polygon class="st12" points="248.1,56.7 262.3,86.7 256.5,92.9 236.9,60.7 					"/>
					<path class="st19" d="M211,208.8l0.3-14.5c-0.3-1.4-2.2-1.6-3.6-2.9c-0.6-0.6-1.6-0.6-2.2-0.2l-1.4,1c-2.1,1.4-2.2,1.8-1.7,3.6
						l2.7,10.7c0.4,1.8,2.1,3.8,3.6,4.3l0.4,0.2C210.5,211.7,211.4,210.6,211,208.8L211,208.8z"/>
					<path class="st12" d="M206,192.1c0,0,1.4,8.9,3.6,9.4c0,0,1.4,0.4,1.5-2s0.6-6.9,0.6-6.9L206,192.1L206,192.1z"/>
					<path class="st19" d="M214.7,23.2c0,0-10.6,2.1-13.2,6.1c-2.6,4.1,2,14.1,2,14.1v-5.2c0,0-6.1-10.1,10.8-12.3
						C225.6,24.5,214.7,23.2,214.7,23.2z"/>
					<path class="st19" d="M214.5,23.6c0,0-17.5,11.3-11,22.3c6.5,11,24.1,15.7,24.1,15.7l7.1-36.9L214.5,23.6L214.5,23.6z"/>
					<path class="st19" d="M242.5,203.7l-10.8-7.6c-1.4-0.6-4.3-0.6-6.2-0.3c-0.9,0.2-1.4,0.9-1.4,1.6l0.1,1.7
						c0.1,2.4,0.4,2.8,2.2,3.5l10.8,4.4c1.8,0.7,4.4,0.6,5.8-0.2l0.4-0.2C244.7,205.7,244.3,204.4,242.5,203.7L242.5,203.7z"/>
					<path class="st12" d="M225,196.3c0.1,3.4,6.9,4.6,7.1,1.2c8.3-31.6,9.4-60.6,10.9-94l-20.9-17.6c1.7,29,4.3,53.6,3.8,78.7
						c-0.1,3.2-1.7,6.7-1.9,9.8C223.7,180.8,225.5,190,225,196.3L225,196.3z"/>
					<path class="st12" d="M206.1,191c-0.7,2.9,3.4,5.8,5.3,3.1c5.6-11.6,9.8-20.6,13.6-29.3c2.9-6.6,3.5-14.6,4.8-22.6
						c2.9-19-16.7-23.8-15.8-4.5c0.4,7.9,0.2,15.9-0.7,23.7c-0.5,3.8-2.6,3.6-3.9,10C208.1,178,207.9,181.7,206.1,191L206.1,191z"/>
					<path class="st22" d="M255.3,68.7l-13.1-23.4c0,0-18.1,22.6-1.8,29.2l7.7,7.9l10.3-5.1L255.3,68.7L255.3,68.7z"/>
					<path class="st14" d="M214.4,89.7c-9.1,0.2-0.1,36.1-3.7,62c0,0,19,17.4,35,2.2l-0.6-59.4L214.4,89.7L214.4,89.7z"/>
					<path class="st22" d="M244.8,92.7c0.5-6.4-2.5,6.3-2.4-1c0.1-2.8,1.4-10.9,2.1-16.3c0.6-5,5.9-8,4.8-14.1
						c-0.1-3.3-6-9.5-6.3-11.9c-0.4-3.8-0.7-7.4-8.8-11.2l-3.6,0.8c-1.7,0.4-3.3,0.9-4.9,1.6c-16.5,7.6-20.1,8-18.9,17.7
						c0.2,5,3.1,1.1,4,4.4c1.7,6.3,8.4,12.7,6,23.8c-0.5,2.2-2.2,3.8-0.2,5.2C225.3,98.1,241.8,99.3,244.8,92.7L244.8,92.7z"/>
					<path class="st23" d="M245.3,92.7C245.3,92.9,245.4,92.7,245.3,92.7L245.3,92.7z"/>
					<path class="st12" d="M263.3,97l-3.1,1.8c-1.5,0.9-3.5,0.8-4.4-0.1l-0.6-0.6c-0.9-0.9-0.3-2.4,1.2-3.2l3.1-1.8
						c1.5-0.9,3.5-0.8,4.4,0.1l0.6,0.6C265.3,94.7,264.8,96.1,263.3,97z"/>
					<path class="st24" d="M229.9,96.8l-0.1-0.7l1.1,0.3l0.2-0.4l24.6-12.6c0.3-0.2,0.9-0.1,1.2,0l12.2,5.2l0-0.2l2.2,0.7l0.1,0.7h0
						c0,0.1-0.1,0.1-0.2,0.2l-25.6,13.1c-0.3,0.2-0.9,0.1-1.2,0l-14.1-6C230.1,97.1,230,96.9,229.9,96.8L229.9,96.8L229.9,96.8z"/>
					<path class="st25" d="M245.6,102.5l25.6-13.1c0.3-0.2,0.2-0.4-0.2-0.6l-14.1-6c-0.4-0.2-1-0.2-1.2,0L230,95.9
						c-0.3,0.2-0.2,0.4,0.2,0.6l14.1,6C244.7,102.6,245.3,102.6,245.6,102.5L245.6,102.5z"/>
					<path class="st24" d="M242.4,94.2l6.2-3.2c0.1,0,0.1-0.1,0-0.1l-3.4-1.4c-0.1,0-0.2,0-0.3,0l-6.2,3.2c-0.1,0-0.1,0.1,0,0.1
						l3.4,1.4C242.2,94.3,242.4,94.3,242.4,94.2z"/>
					<path class="st12" d="M231.4,96.9c-9.2-0.4-17.4-2.9-24.8-7.2c-2-1.2-3.2-3.3-3.3-5.5c-0.1-5.1-0.1-14.2,1.7-15.6l7.9,9.1
						l-0.4,5.1c8.7,3.8,13.2,8.3,18.5,9.9L231.4,96.9L231.4,96.9z"/>
					<path class="st26" d="M216.9,44.7c0,0,6.1,14.5,14.8,10.7s2.4-16.9,2.4-16.9S225,40.4,216.9,44.7z"/>
					<path class="st12" d="M227.1,47.4l0.6,0.1c2,0.4,3.8-0.8,4-2.7l1.4-10.5c0.2-1.9-1.1-3.7-3.1-4.1l-0.6-0.1
						c-2-0.4-3.8,0.8-4,2.7l-2.9,9.8C222.2,44.5,225.1,47,227.1,47.4L227.1,47.4z"/>
					<path class="st27" d="M246.4,88.7c0.1-0.6,0.7-1.2,1.3-1.5l27.1-13.6c0.2-0.1,0.5-0.2,0.6-0.1l0,0l0,0c0,0,0.1,0,0.1,0.1
						l0.9,0.7h-0.8l-2.6,13c-0.1,0.6-0.7,1.2-1.3,1.5l-25.6,12.8l-0.8,0.8l-0.1,0.2c-0.5,0.1-1.8-0.5-1.8-0.5L246.4,88.7L246.4,88.7
						z"/>
					<path class="st27" d="M247.5,83.4c0.1-0.6,0.7-1.2,1.3-1.5l27.1-13.6c0.2-0.1,0.5-0.2,0.6-0.1l0,0l0,0c0,0,0.1,0,0.1,0.1
						l0.9,0.7h-0.8l-2.6,13c-0.1,0.6-0.7,1.2-1.3,1.5l-25.6,12.8l-0.8,0.8l-0.1,0.2c-0.5,0.1-1.8-0.5-1.8-0.5L247.5,83.4L247.5,83.4
						z"/>
					<path class="st28" d="M276.7,69.1l-27.1,13.6c-0.6,0.3-1.1,1-1.3,1.5l-2.6,13.1c0,0,0,0,0,0l-1.1,5.2c-0.1,0.6,0.3,0.8,0.9,0.5
						l27.1-13.6c0.6-0.3,1.1-1,1.3-1.5l2.6-13.1c0,0,0,0,0,0l1.1-5.2C277.7,69,277.3,68.8,276.7,69.1L276.7,69.1z"/>
					<path class="st27" d="M260.9,86.7c0,0.9,0.9,1.3,2,0.7c1.1-0.6,2.1-1.8,2.1-2.8c0-0.9-0.9-1.3-2-0.7
						C261.8,84.5,260.9,85.7,260.9,86.7z"/>
					<path class="st12" d="M226.8,198.7c0,0,7.7,3.2,9.1,2.2c1.2-0.8-4.5-4.5-4.5-4.5L226.8,198.7L226.8,198.7z"/>
					<path class="st22" d="M201.7,76.7c0-11.1,2.4-19.7,4.3-24.8c0.8-2.2,3.1-2.8,5.7-4.5c0.4-0.3,0.3,2.3,0.7,2.6l0,0
						c2.9,2.2,4.4,6.1,3.9,9.8l-3,22.6l13.8,8c0,0,1.4,5.2-2.2,8.1c0,0-20.6-8.1-22-9.9S201.7,76.7,201.7,76.7L201.7,76.7z"/>
					<path class="st12" d="M228.7,94.1L228.7,94.1c-0.3,1.6,0.8,3.2,2.4,3.5l5.6,1c1.6,0.3,3.2-0.8,3.5-2.4l0,0
						c0.3-1.6-0.8-3.2-2.4-3.5l-5.6-1C230.6,91.4,229,92.5,228.7,94.1z"/>
					<path class="st12" d="M223,18.4c1.7-2.7,4.2-3.2,6.6-1.6c2.3-0.9,5.1,0.4,7.2,4c2.9,4.9,2.6,11.7,0.8,16c-1,2.3-2.1,3.9-7.6,3
						c-3.8-0.7-5.9-1.8-8-5.4C219.1,29.3,220.6,22.3,223,18.4L223,18.4z"/>
					<path class="st19" d="M236.1,22.6c-6.6,10.3-10.5,7.3-10.7,8.9c0,0-1.3,5.5-1.3,5.5c-0.7,3.2-3.7,0.7-6.9,1.7l0,0
						c0,0-10.2-11.8,2.5-21.3c8.6-6.4,20.5-0.1,19.2,8.4L236.1,22.6L236.1,22.6z"/>
					
						<ellipse transform="matrix(0.5161 -0.8565 0.8565 0.5161 81.273 207.5162)" class="st12" cx="224.3" cy="31.8" rx="2.3" ry="2.6"/>
				</g>
				<path class="st29" d="M169.9,65.3c1.3,0.3,2.5-0.1,3.6-0.2c3.6-0.4,6.3-0.1,8.6,1.2c0.6,0.3-1.6,6.1-4.1,7.9
					c-0.1,0.1-0.3-0.1-0.4-0.1l-2.3-0.7l-6.3-2.1L169.9,65.3L169.9,65.3z"/>
				<path class="st29" d="M172,65.3c2.3-0.4,3.9-1.4,5.2-1.4c1.3,0,3.2,1,5.7,1.3c-0.4,2.4-3.6,0.8-4.8,1.1
					c-1.1,0.2-1.1,1.5-2.1,1.5C174.4,67.8,172.2,67.1,172,65.3L172,65.3z"/>
				<path class="st30" d="M146,70c10.2,1.8,15.3,1.2,25.6,2.3c-1.1-3.9,1-7.5,2.6-7.8c-8.7-1.8-19.3-4.7-28.4-4.7L146,70z"/>
				<path class="st31" d="M144.1,70.3c10.2,1.8,15.8,1.2,26.1,2.2c-1.5-4.2,0.8-8.4,2.6-8.7c-8.7-1.8-19.3-4.7-28.4-4.7L144.1,70.3
					L144.1,70.3z"/>
				<path class="st32" d="M122.5,211.8c1.3-0.2,2.3-0.2,3.6-0.7c0.3-0.1,0.7-1.4,0.7-2.5c0.1-2.3-0.2-2.1-1.1-5.9
					c-0.3-1.3-0.6-2.5-1.1-4c-0.6-1.8-1.3-3.5-1.3-5.3l-6.9-0.3l-2.2-0.1c-0.6,1.9-1.2,3.3-1.2,4.5c0.1,1.2,0.2,2.4,0.4,3.9
					C114.3,208.4,120.1,212.1,122.5,211.8L122.5,211.8z"/>
				<path class="st32" d="M155.5,196c2.6,0,1.8-2.8-0.4-4.4c-4.6-3.3-7.8-5.4-9.9-8.4c-1.1-1.5-1.3-2.8-2-5.4
					c-3.9-0.1-7.6-0.4-11.4-0.6c-1.1,3.3-1.8,2.9-1.6,7.1C130.4,189.2,147.8,195.9,155.5,196L155.5,196z"/>
				<g>
					<g>
						<path class="st33" d="M128.9,107c-0.4-3.5-0.7-6.8-0.6-9.9c3.1-1.2,6.4-2.4,9.6-3.8l-0.2-0.2c3.4-1.6,6.2-4,10.1-6.2
							c1.6,5.1,2.2,7.4,2.1,11.5c-0.2,5.4-0.9,10.9-1.8,16.4c-0.6,8.4-1.3,17.2-1.9,22.9c-1.4,14.6-1.2,29-2.1,43.6
							c-2.1,1.6-10.6,3.1-13.5-1L128.9,107L128.9,107z"/>
						<path class="st33" d="M115.8,96.7c0.3-0.7,0.7-1.2,1.2-1.6l9-0.7l10.7-1.2c0.7,3.5,1,8.1-0.1,12.7c0,0.1-0.1,0.3-0.2,0.5
							c-0.1,0.8-0.2,1.5-0.4,2.3c-0.2,0.7-1.9,2.7-3.1,4.3c-1.1,11.2-3.3,26.9-4.5,34.9c-2.3,14.5-0.9,31.8-2.2,46.4
							c-2,3.1-11.2,3.4-14-0.4L115.8,96.7L115.8,96.7z"/>
					</g>
					<g>
						<path class="st33" d="M128.9,107c-0.4-3.5-0.7-6.8-0.6-9.9c3.1-1.2,6.4-2.4,9.6-3.8l-0.2-0.2c3.4-1.6,6.2-4,10.1-6.2
							c1.6,5.1,2.2,7.4,2.1,11.5c-0.2,5.4-0.9,10.9-1.8,16.4c-0.6,8.4-1.3,17.2-1.9,22.9c-1.4,14.6-1.2,29-2.1,43.6
							c-2.1,1.6-10.6,3.1-13.5-1L128.9,107L128.9,107z"/>
						<path class="st33" d="M115.8,96.7c0.3-0.7,0.7-1.2,1.2-1.6l9-0.7l10.7-1.2c0.7,3.5,1,8.1-0.1,12.7c0,0.1-0.1,0.3-0.2,0.5
							c-0.1,0.8-0.2,1.5-0.4,2.3c-0.2,0.7-1.9,2.7-3.1,4.3c-1.1,11.2-3.3,26.9-4.5,34.9c-2.3,14.5-0.9,31.8-2.2,46.4
							c-2,3.1-11.2,3.4-14-0.4L115.8,96.7L115.8,96.7z"/>
					</g>
				</g>
				<path class="st31" d="M140.6,26.4c3.6-0.2,5.2,0.5,7.1,3.4c3.3,4.9,3.8,15.5,3.6,25c-0.1,5.4-1,10.1-1.1,16.8
					c-0.1,8,2.4,22.1,2,30.6c-0.7,1.6-5.9,4.2-6.6,4.1c0.7-8.5,0.8-19.8,0.5-31.5c-0.3-11.3-1.1-22.9-3.2-31.4
					c-3.1-12.6-8.4-14-7.9-15.6C135.2,27.4,140.4,26.4,140.6,26.4L140.6,26.4z"/>
				<path class="st34" d="M125.9,76.7c0.1,1.9,0.2,3.7,0.2,5.4c-5.2-4.7-10.1-10.8-14.6-17.3c-2.3-6.6-4.4-13.1-4.4-17.8L125.9,76.7
					L125.9,76.7z"/>
				<path class="st35" d="M147.8,87.2c0,0.2-0.1,0.5-0.3,0.7c-3.3,4.6-24.1,11.6-28.5,11.2c3.4-30-28-55.6,5.7-65.5l9.7,5.3l3.5-0.6
					l0.4-4.3c4.7,4.7,6.9,10.9,7.7,19.4C147.2,64.8,144.8,74.9,147.8,87.2L147.8,87.2z"/>
				<path class="st31" d="M114.2,37.6c1.8-1,5.5-3.3,9.5-5.5c-3.3,4,4.7,13.7,8.5,25.7c2.2,7.1,5.5,31.5-1.3,53.6
					c-12.4,4.2-19.1-2.3-20.3-3.5c1.6-13.1,6.1-15,6.5-23.2c0.3-7.5-10.2-27.5-10.2-37.9C106.9,42.4,110.8,39.5,114.2,37.6
					L114.2,37.6z"/>
				<path class="st36" d="M137.9,28.9c3.4,1.6,4.5,2.2,6.8,5.8l-2.1,1.4l2.9,1.2c1,10.5,2.1,22.1,0.9,32.7
					c-0.5-10.3-2.3-20.9-4.9-29.6c-1-3.3-2.4-4.8-4.5-8C136.6,31.8,137.3,28.6,137.9,28.9L137.9,28.9z"/>
				<path class="st36" d="M123.7,30.8c-1.1,1.4-1.9,2.7-2.4,3.7c-1.3,3.2-1.2,8.2,0.4,13.8l3.2-1.2l-1.6,3.5
					c6.5,8.5,10.1,21.1,10.6,34.1C138.3,51,122.5,42.6,123.7,30.8L123.7,30.8z"/>
				<path class="st37" d="M140,75.7c-1-6.6-1.7-21.8-3.5-28.4c0.2-1.2,0.5-2.2,0.8-3.4c-2-1.7-2.1-1.7-2.5-4.1
					c1.4-1.3,2.3-1.5,4.2-1.3c0.5,0.3,0.7,2,0,4.6c0.5,0.2,1.2,0.3,2.1,0.9c1.9,12.8,4.5,19.1,3.5,31.2l-1.3,2.8L140,75.7L140,75.7z
					"/>
				<path class="st38" d="M136.9,38.5c0.2-0.6,0.4-1.9,0.6-3c0.2-1,0.6-1.8,0.8-2.3c1.3,0.2,1.9,4.2,3.1,6.6
					C139.6,38.6,138.8,38.5,136.9,38.5z"/>
				<path class="st38" d="M124.4,30.2c-0.3,4.3,7.9,7.3,12.5,8.4c-1.1,1.4-2.6,3.1-2.6,4.5c-3.3-0.9-8.9-2.5-11.1-6.7
					C121.6,33.5,122.9,31.3,124.4,30.2z"/>
				<path class="st12" d="M137.8,34.7c0.1-0.4,0.3-0.8,0.5-1.3c0.5-1.3,0.5-4,1.3-6.9l-11.7-5.1l-2.5-1.3c0.9,4.4,0.4,7-0.9,10.2
					c-0.1,4.2,7.9,7.2,12.4,8.3C137.3,37.5,137.3,36,137.8,34.7L137.8,34.7z"/>
				<path class="st12" d="M144.1,15.2c-0.1-0.5-0.7-2.8-0.8-3.2c-1.5-5.5-5.1-9.8-11.8-9.9c-3.4,0-6.2,1.1-8.4,3.6
					c-2.4,2.8-3.8,7.4-2.5,11.1c0.6,1.6,1.7,2.8,4.6,4.1c1.6,3.8,1.8,6.9,4.9,8.3c1.4,0.6,5,1.3,6.5,1.9c2,0.5,2.7,0.4,3.4,0.1
					C143.1,29.9,145.2,21.5,144.1,15.2L144.1,15.2z"/>
				<path class="st39" d="M140.3,8.7c0.7,0,1.6-0.4,2.2,1.1c-0.4-2.5-1.2-2.7-2.7-2.9L140.3,8.7z"/>
				<path class="st39" d="M132,11.5c-4.7-0.5-10.7-4-11.9-6.1c-2.5,5-2,12.4,1.9,16.4c1.1,2.1,2.2,4.2,3.3,6.4
					c0.9-3.2,1.2-5.9,1.5-9.2l0.2-0.3c0.3,0.6,0.9,2,1.2,2.5c0.3,0,0.8-0.4,1.2-0.7C128.5,16.2,129.7,13.1,132,11.5L132,11.5z"/>
				<path class="st39" d="M131.4,11.8c4.9-0.4,11.4-2.7,13.9-6.4c-4.5,0.7-9.5-6-16.6-5.3c-4.1,0.4-8.5,2.5-8.7,6
					C121.3,7.8,127.3,12.1,131.4,11.8L131.4,11.8z"/>
				<path class="st12" d="M125.3,17.4c-2.6-0.6-2.3,2.3-1.8,4.1c0.4,1.2,1.4,1,1.9,1.9c0.6,1.1,1.5,1.5,2.3,1.5
					c1.5-0.2,0.3-2.4,0.1-3.3C127.7,20,127,17.8,125.3,17.4L125.3,17.4z"/>
				<path class="st31" d="M107,44.1c-2.7,7.3-3.1,22.1-2.5,31.8c0.3,4.9,0.9,8.7,4.8,9.9c3.7,1.1,7-2.7,7.7-6.6
					c0.9-4.6,1.5-10.3,2.8-20C121.2,48.7,110.6,34.4,107,44.1L107,44.1z"/>
				<g>
					<path class="st31" d="M138.8,87.6l-1.5-2.2l0-4.4c1.9-1.6,1.8-2.9,2.7-2.6C143.4,79.1,143.1,88.7,138.8,87.6z"/>
					<g>
						<path class="st12" d="M138.3,78.8c4.9,0.4,11-2,13.8-0.2c2.4,1.5,1.4,5.1,0.1,6.8c-1.1,1.4-5.4,1.7-8.3,2
							c-2.5,0.3-4.3-1.8-6.1-1.4C136.1,83.9,137.5,81,138.3,78.8L138.3,78.8z"/>
						<path class="st12" d="M151,78.2c2.3,0,6.1-0.2,8.4-0.2c1.6,0,1.1,2.5-0.4,2.6c-1.4,0.2-5.3,0.5-5.3,0.5
							C152.1,81,150.6,80,151,78.2L151,78.2z"/>
					</g>
					<path class="st31" d="M105.6,79.4c1.1,2.5,1.1,4.4,3.8,5.8c1.1,0.6,2.6,0.8,4.3,1c6.5,0.7,15.9,1.6,25.3,1.4
						c-0.5-0.8-1.1-3.2-1-5.6c0.1-1.5,0.6-2.9,1.9-3.8c-7.7-1.6-16.4-1.5-23.8-2.5c-1.8-0.2-1.4-0.1-3-0.1L105.6,79.4L105.6,79.4z"
						/>
				</g>
				<polygon class="st40" points="188.1,41.2 172.9,49.5 153.8,86 157.7,88 170,76.5 				"/>
				<polygon class="st41" points="188.1,41.2 172.9,49.5 177.3,52 192.1,43.6 				"/>
				<polygon class="st42" points="191.5,43 176.2,51.2 156.8,88.1 158.4,88.9 173.3,78.2 				"/>
				<path class="st12" d="M179.4,66.5c2.6-0.5,2.6-1.1,2.8-0.2c0.2,1.3-1.6,6.1-4.1,7.9c0,0-1.8,0.5-2.6,0.4c-0.8,0-0.7-0.4-0.3-1.5
					l1.8-4.6C177.5,67.2,177.8,66.8,179.4,66.5L179.4,66.5z"/>
				<path class="st43" d="M172.6,49.4c4.3-2.1,7.7-1.7,8.6,0.7c1.8,4.3-1.9,13.7-4,18.9l15.3-8.1c4.5-11.8,6.9-24.3-5.1-19.6
					L172.6,49.4L172.6,49.4z"/>
			</g>
		</g>
	</g>
</g>
<g>
	<path class="st0" d="M14.4,730.4c0,3.7-3,6.6-6.6,6.6c-3.7,0-6.6-3-6.6-6.6c0-3.7,3-6.6,6.6-6.6C11.5,723.7,14.4,726.7,14.4,730.4z
		"/>
	<path d="M46.1,739.6c0,0.2,0,0.2-0.2,0.2c-0.2,0-1-0.1-3.4-0.1H27.4c-2.5,0-3.3,0.1-3.4,0.1c-0.2,0-0.2,0-0.2-0.2v-1.3
		c0-0.2,0-0.2,0.2-0.2c0.1,0,1,0.1,3.4,0.1h15.1c2.5,0,3.3-0.1,3.4-0.1c0.2,0,0.2,0,0.2,0.2V739.6z M44,722.6c0,0.2,0,0.2-0.2,0.2
		c-0.2,0-1-0.1-3.7-0.1H29.7c-2.7,0-3.5,0.1-3.7,0.1c-0.2,0-0.2,0-0.2-0.2v-1.3c0-0.2,0-0.2,0.2-0.2c0.1,0,1,0.1,3.7,0.1h10.5
		c2.6,0,3.5-0.1,3.7-0.1c0.2,0,0.2,0,0.2,0.2V722.6z M42.4,730.6c0,0.2,0,0.2-0.2,0.2c-0.1,0-1-0.1-3.6-0.1h-7.4
		c-2.6,0-3.4,0.1-3.6,0.1c-0.2,0-0.2,0-0.2-0.2v-1.3c0-0.2,0-0.2,0.2-0.2c0.1,0,1,0.1,3.6,0.1h7.4c2.6,0,3.4-0.1,3.6-0.1
		c0.2,0,0.2,0,0.2,0.2V730.6z"/>
	<path d="M73.9,733.6c0,0.2,0,0.2-0.2,0.2c-0.2,0-0.9-0.1-3.4-0.1h-2.9v3.5c0,2.9,0.1,4.2,0.1,4.3c0,0.2,0,0.2-0.2,0.2h-1.3
		c-0.2,0-0.2,0-0.2-0.2c0-0.1,0.1-1.4,0.1-4.3v-3.5h-6.8c-0.1,0.7-0.3,1.4-0.5,2.2c-0.8,2.5-2.2,4.2-4.4,5.7
		c-0.2,0.1-0.3,0.2-0.4,0.2c-0.1,0-0.2-0.1-0.4-0.3c-0.3-0.3-0.7-0.6-1-0.8c2.5-1.4,4-3,4.8-5.6c0.2-0.4,0.3-0.9,0.4-1.4h-2.9
		c-2.4,0-3.2,0.1-3.4,0.1c-0.2,0-0.2,0-0.2-0.2v-1.2c0-0.2,0-0.2,0.2-0.2c0.1,0,0.9,0.1,3.4,0.1h3.1c0.1-1.2,0.2-2.5,0.2-4v-2.1h-2
		c-2.5,0-3.4,0.1-3.5,0.1c-0.2,0-0.2,0-0.2-0.2v-1.2c0-0.2,0-0.2,0.2-0.2c0.2,0,1,0.1,3.5,0.1h2v-1.5c0-1.6,0-2.7-0.2-3.9
		c0.6,0,1.2,0.1,1.8,0.2c0.2,0,0.3,0.1,0.3,0.3c0,0.1-0.1,0.3-0.2,0.5c-0.1,0.3-0.2,0.9-0.2,3v1.5h6.5v-1.9c0-1.8-0.1-2.5-0.2-3.6
		c0.7,0,1.3,0.1,1.8,0.1c0.2,0,0.3,0.1,0.3,0.2c0,0.2-0.1,0.3-0.1,0.5c-0.1,0.3-0.2,0.9-0.2,2.7v2h1.9c2.5,0,3.4-0.1,3.5-0.1
		c0.2,0,0.2,0,0.2,0.2v1.2c0,0.2,0,0.2-0.2,0.2c-0.1,0-1-0.1-3.5-0.1h-1.9v6.1h2.9c2.4,0,3.2-0.1,3.4-0.1c0.2,0,0.2,0,0.2,0.2V733.6
		z M65.9,726.2h-6.5v2.1c0,1.5,0,2.8-0.1,4h6.6V726.2z"/>
	<path d="M101.3,722.2c0,0.2,0,0.2-0.2,0.2c-0.2,0-1-0.1-3.4-0.1h-5.8c-0.4,0.9-0.9,1.7-1.3,2.5v13.1c0,2.5,0.1,3.6,0.1,3.8
		c0,0.2,0,0.2-0.2,0.2H89c-0.2,0-0.2,0-0.2-0.2c0-0.2,0.1-1.2,0.1-3.8v-10.7c-2.3,3-5.3,5.5-9.2,7.7c-0.2,0.1-0.3,0.2-0.4,0.2
		c-0.1,0-0.2-0.1-0.4-0.4c-0.3-0.4-0.5-0.6-0.9-0.9c5.2-2.7,9.6-6.6,12-11.5h-7.6c-2.5,0-3.3,0.1-3.4,0.1c-0.2,0-0.2,0-0.2-0.2V721
		c0-0.2,0-0.2,0.2-0.2c0.1,0,1,0.1,3.4,0.1h15.1c2.5,0,3.3-0.1,3.4-0.1c0.2,0,0.2,0,0.2,0.2V722.2z M93.1,726.8
		c0.2-0.2,0.3-0.1,0.4,0c2.3,3,5.6,5.5,8.6,6.8c-0.3,0.3-0.6,0.7-0.8,1c-0.2,0.3-0.2,0.4-0.3,0.4c-0.1,0-0.2-0.1-0.4-0.2
		c-3.2-1.7-6-4.2-8.3-7.1c-0.1-0.2-0.1-0.2,0.2-0.4L93.1,726.8z"/>
	<path d="M118.6,724.7c0,0.2,0,0.2-0.2,0.2c-0.1,0-0.9-0.1-3.3-0.1h-1.8v1.7h1.4c2.2,0,2.9-0.1,3.1-0.1c0.2,0,0.2,0,0.2,0.2
		c0,0.1-0.1,0.6-0.1,2.1v2.5c0,1.5,0.1,2,0.1,2.1c0,0.2,0,0.2-0.2,0.2c-0.2,0-0.7-0.1-3.1-0.1h-1.4v1.7h1.4c2.3,0,3-0.1,3.2-0.1
		c0.2,0,0.2,0,0.2,0.2v0.9c0,0.2,0,0.2-0.2,0.2c-0.2,0-0.9-0.1-3.2-0.1h-1.4v1.9c1.6-0.2,3.3-0.5,4.8-0.8c-0.1,0.3-0.2,0.5-0.2,0.8
		c-0.1,0.5-0.1,0.5-0.6,0.6c-3,0.6-6.1,1-9.3,1.4c-0.5,0.1-0.9,0.2-1,0.2c-0.1,0.1-0.2,0.1-0.3,0.1c-0.1,0-0.2-0.1-0.3-0.3
		c-0.1-0.4-0.3-1-0.4-1.5c0.9,0,1.6,0,2.7-0.1c0.9-0.1,2-0.2,3.2-0.3v-2.1h-1.8c-2.3,0-3,0.1-3.2,0.1c-0.2,0-0.2,0-0.2-0.2v-0.9
		c0-0.2,0-0.2,0.2-0.2c0.2,0,0.9,0.1,3.2,0.1h1.8v-1.7h-1.3c-2.2,0-2.9,0.1-3.1,0.1c-0.2,0-0.2,0-0.2-0.2c0-0.2,0.1-0.7,0.1-2.1
		v-2.5c0-1.5-0.1-2-0.1-2.2c0-0.2,0-0.2,0.2-0.2c0.2,0,0.9,0.1,3.1,0.1h1.3v-1.7h-2.2c-2.4,0-3.2,0.1-3.3,0.1c-0.2,0-0.2,0-0.2-0.2
		v-1c0-0.2,0-0.2,0.2-0.2c0.1,0,0.9,0.1,3.3,0.1h2.2v-1.7c-1.3,0.2-2.5,0.3-4,0.5c-0.5,0-0.5,0.1-0.7-0.3c-0.2-0.4-0.4-0.7-0.6-0.9
		c3.8-0.2,6.3-0.7,8.9-1.4c0.5-0.1,0.9-0.3,1.2-0.5c0.4,0.3,0.8,0.6,1,0.9c0.2,0.2,0.2,0.2,0.2,0.4c0,0.2-0.2,0.2-0.4,0.2
		c-0.2,0-0.6,0.1-1,0.2c-1.1,0.3-2.2,0.5-3.3,0.7v2h1.8c2.4,0,3.2-0.1,3.3-0.1c0.2,0,0.2,0,0.2,0.2V724.7z M111.9,727.6h-3.1v1.9
		h3.1V727.6z M111.9,730.6h-3.1v2h3.1V730.6z M116.6,727.6h-3.3v1.9h3.3V727.6z M116.6,730.6h-3.3v2h3.3V730.6z M125.3,724.9
		c2.1,0,2.7-0.1,2.9-0.1c0.2,0,0.2,0.1,0.2,0.2c-0.1,0.8-0.1,1.5-0.1,2.3c-0.1,4.1-0.2,8.4-0.8,11.6c-0.3,1.8-1.2,2.6-2.8,2.6
		c-0.7,0-1.3,0-1.8-0.1c-0.4,0-0.4-0.2-0.5-0.4c0-0.5-0.2-0.9-0.4-1.2c0.9,0.2,1.7,0.2,2.5,0.2c0.9,0,1.3-0.5,1.5-1.8
		c0.5-2.8,0.7-7.2,0.7-12h-3.1c-0.1,2.6-0.4,5.2-0.9,7.3c-0.9,3.3-2.2,5.9-5,8c-0.2,0.2-0.3,0.2-0.4,0.2c-0.1,0-0.2-0.1-0.3-0.2
		c-0.3-0.3-0.6-0.5-1-0.7c2.9-1.8,4.4-4.5,5.3-7.9c0.5-1.7,0.7-4.2,0.9-6.7h-0.3c-2,0-2.7,0.1-2.8,0.1c-0.2,0-0.2,0-0.2-0.2V725
		c0-0.2,0-0.2,0.2-0.2c0.1,0,0.8,0.1,2.8,0.1h0.3c0-1,0.1-2,0.1-2.9c0-1.6,0-2.2-0.2-3.2c0.6,0,1.1,0.1,1.7,0.2
		c0.2,0,0.3,0.1,0.3,0.2c0,0.2-0.1,0.3-0.1,0.5c-0.1,0.3-0.2,1-0.2,2.4c0,0.9,0,1.8,0,2.8H125.3z"/>
	<path d="M156.4,727.1c0,0.2,0,0.2-0.2,0.2s-1-0.1-3.6-0.1h-15.3v1.9c0,2-0.2,4.3-0.5,6.5c-0.3,1.9-0.9,3.9-2.1,5.9
		c-0.1,0.2-0.2,0.3-0.3,0.3c-0.1,0-0.2-0.1-0.3-0.2c-0.3-0.3-0.7-0.6-1-0.8c1.2-1.7,1.9-3.7,2.2-5.7c0.3-1.9,0.4-4.2,0.4-6
		c0-2.1-0.1-3-0.1-3.1c0-0.2,0-0.2,0.2-0.2c0.2,0,1,0.1,3.6,0.1h2c-0.3-0.9-0.7-1.7-1.1-2.3c-0.1-0.2-0.1-0.2,0.2-0.4l0.7-0.3
		c0.2-0.1,0.3-0.1,0.4,0.1c0.5,0.8,1,1.8,1.4,2.9h4.9c0.4-0.7,0.7-1.3,1-2c0.2-0.4,0.3-0.7,0.3-1.1c0.5,0.1,1.1,0.3,1.5,0.5
		c0.2,0.1,0.2,0.2,0.2,0.3c0,0.1-0.1,0.2-0.2,0.3c-0.2,0.1-0.3,0.3-0.5,0.6c-0.3,0.5-0.5,0.9-0.9,1.4h3.1c2.6,0,3.4-0.1,3.6-0.1
		s0.2,0,0.2,0.2V727.1z M155.6,722.5c0,0.2,0,0.2-0.2,0.2c-0.1,0-1-0.1-3.6-0.1h-12.5c-2.6,0-3.5,0.1-3.6,0.1c-0.2,0-0.2,0-0.2-0.2
		v-1c0-0.2,0-0.2,0.2-0.2c0.1,0,1,0.1,3.6,0.1h5.5V721c0-1.1,0-1.8-0.2-2.4c0.7,0,1.2,0.1,1.7,0.1c0.2,0,0.3,0.1,0.3,0.2
		c0,0.2-0.1,0.3-0.2,0.5c-0.1,0.2-0.1,0.6-0.1,1.6v0.4h5.5c2.6,0,3.5-0.1,3.6-0.1c0.2,0,0.2,0,0.2,0.2V722.5z M156.4,741
		c0,0.2,0,0.2-0.2,0.2c-0.1,0-1-0.1-3.7-0.1h-11.3c-2.6,0-3.5,0.1-3.6,0.1c-0.2,0-0.2,0-0.2-0.2v-1c0-0.2,0-0.2,0.2-0.2
		c0.2,0,1,0.1,3.6,0.1h4.8v-3.4h-1.8c-2.4,0-3.2,0.1-3.4,0.1c-0.2,0-0.2,0-0.2-0.2v-1c0-0.2,0-0.2,0.2-0.2c0.2,0,0.9,0.1,3.4,0.1
		h1.8v-3h-4.9c-0.6,1-1.2,2-2.1,3c-0.1,0.1-0.2,0.2-0.3,0.2c-0.1,0-0.2-0.1-0.4-0.3c-0.3-0.3-0.5-0.5-0.8-0.6
		c1.6-1.6,2.6-3.2,3.3-5.2c0.1-0.3,0.3-0.8,0.3-1.3c0.5,0.1,1.1,0.3,1.4,0.4c0.2,0.1,0.2,0.2,0.2,0.3c0,0.1-0.1,0.2-0.2,0.3
		c-0.1,0.1-0.3,0.4-0.4,0.8c-0.2,0.4-0.3,0.7-0.5,1.1h4.2v-0.4c0-1.2,0-1.6-0.2-2.4c0.6,0,1.2,0.1,1.7,0.1c0.2,0,0.3,0.1,0.3,0.2
		c0,0.2-0.1,0.3-0.2,0.5c-0.1,0.3-0.2,0.6-0.2,1.6v0.4h3.2c2.5,0,3.3-0.1,3.5-0.1c0.2,0,0.2,0,0.2,0.2v1c0,0.2,0,0.2-0.2,0.2
		c-0.2,0-1-0.1-3.5-0.1h-3.2v3h2.3c2.4,0,3.2-0.1,3.4-0.1c0.2,0,0.2,0,0.2,0.2v1c0,0.2,0,0.2-0.2,0.2c-0.1,0-0.9-0.1-3.4-0.1h-2.3
		v3.4h4.9c2.7,0,3.5-0.1,3.7-0.1c0.2,0,0.2,0,0.2,0.2V741z"/>
	<path class="st0" d="M201.7,730.4c0,3.7-3,6.6-6.6,6.6c-3.7,0-6.6-3-6.6-6.6c0-3.7,3-6.6,6.6-6.6
		C198.7,723.7,201.7,726.7,201.7,730.4z"/>
	<path d="M217.4,725.7c0,0.2,0,0.2-0.2,0.2c-0.1,0-0.6-0.1-2.1-0.1c0.7,2.1,1.2,3.5,2.3,5c-0.2,0.3-0.4,0.7-0.6,1.1
		c-0.1,0.2-0.2,0.3-0.2,0.3c-0.1,0-0.1-0.1-0.2-0.3c-0.7-1.5-1.1-2.7-1.6-4.7c0,7.9,0.3,14.4,0.3,14.7c0,0.2,0,0.2-0.2,0.2h-1.2
		c-0.2,0-0.2,0-0.2-0.2c0-0.4,0.2-6.9,0.3-14.5c-0.7,3.2-1.4,5.5-2.7,8.1c-0.1,0.2-0.2,0.3-0.3,0.3s-0.1-0.1-0.2-0.3
		c-0.2-0.4-0.4-0.7-0.7-1c1.6-2.8,2.3-5,3.3-8.8H213c-1.7,0-2.2,0.1-2.3,0.1c-0.2,0-0.2,0-0.2-0.2v-1c0-0.2,0-0.2,0.2-0.2
		c0.1,0,0.6,0.1,2.3,0.1h0.4v-2.6c0-1.6,0-2.3-0.2-3.2c0.6,0,1.1,0.1,1.6,0.2c0.2,0,0.3,0.1,0.3,0.2c0,0.2-0.1,0.3-0.2,0.5
		c-0.1,0.3-0.1,0.8-0.1,2.2v2.6c1.7,0,2.1-0.1,2.3-0.1c0.2,0,0.2,0,0.2,0.2V725.7z M227,733.3c0.1,0.6,0.3,1.1,0.5,1.6
		c0.2,0.7,0.4,1.3,0.7,1.9c0.6-0.5,1.1-1.1,1.6-1.7c0.3-0.5,0.5-0.8,0.7-1.2c0.4,0.2,0.9,0.5,1.2,0.7c0.2,0.2,0.2,0.2,0.2,0.3
		c0,0.1-0.1,0.2-0.2,0.3c-0.2,0.1-0.5,0.4-0.7,0.7c-0.5,0.7-1.2,1.4-2,2.1c0.9,1.4,1.9,2.3,2.6,2.3s1-0.8,1.2-3.3
		c0.2,0.2,0.5,0.4,0.8,0.6c0.5,0.3,0.5,0.3,0.4,0.8c-0.4,2.5-1,3.5-2.3,3.5s-2.8-1.1-3.9-2.9c-1.6,1.1-3.5,2.2-5.7,3
		c-0.5,0.2-0.5,0.2-0.7-0.3c-0.2-0.3-0.4-0.5-0.7-0.8c2.4-0.6,4.7-1.7,6.5-3c-0.3-0.6-0.6-1.3-0.8-2.1c-0.3-0.7-0.5-1.5-0.7-2.4
		h-4.7c-0.3,3.4-1.2,6.1-3.4,8.2c-0.2,0.2-0.3,0.3-0.4,0.3c-0.1,0-0.2-0.1-0.4-0.3c-0.2-0.3-0.5-0.4-0.8-0.6
		c2.3-1.9,3.3-4.3,3.5-7.6c-1.6,0-2.2,0.1-2.3,0.1c-0.2,0-0.2,0-0.2-0.2v-1c0-0.2,0-0.2,0.2-0.2c0.1,0,1,0.1,3.6,0.1h4.5
		c-0.6-3-1-6.5-1.1-9.8c-0.1-1.8-0.1-2.4-0.3-3.3c0.6,0,1.1,0.1,1.6,0.2c0.2,0,0.4,0.1,0.4,0.2c0,0.2-0.1,0.3-0.2,0.5
		c-0.1,0.2-0.1,0.8-0.1,2.4c0.1,3.5,0.5,7,1.1,9.9h3.2c2.7,0,3.5-0.1,3.7-0.1s0.2,0,0.2,0.2v1c0,0.2,0,0.2-0.2,0.2s-1-0.1-3.7-0.1
		H227z M222.7,726.8c0.2-0.1,0.2-0.1,0.3,0.1c0.5,0.8,1,2,1.3,3c0.1,0.2,0,0.2-0.2,0.3l-0.6,0.3c-0.3,0.1-0.3,0.2-0.4-0.1l-0.3-0.8
		c-1.4,0.3-2.8,0.5-3.9,0.6c-0.6,0.1-0.8,0.1-0.9,0.2c-0.1,0.1-0.2,0.1-0.3,0.1c-0.1,0-0.2-0.1-0.3-0.3c-0.1-0.4-0.2-0.9-0.3-1.3
		c0.3,0,0.6,0,0.8,0c0.6-0.8,1.3-1.7,2-2.6c-0.9-1.2-1.8-2.2-2.8-3.1c-0.1-0.1-0.2-0.1,0.1-0.4l0.5-0.5c0.1-0.2,0.2-0.2,0.3-0.1
		l0.6,0.5c0.6-0.9,1.2-1.9,1.6-2.7c0.1-0.3,0.3-0.6,0.3-1c0.4,0.2,0.9,0.4,1.2,0.6c0.2,0.1,0.2,0.2,0.2,0.3c0,0.1-0.1,0.2-0.2,0.3
		c-0.2,0.1-0.3,0.2-0.4,0.5c-0.5,0.8-1.2,2-1.9,2.9c0.4,0.5,0.9,1,1.3,1.5l0.9-1.5c0.2-0.4,0.4-0.8,0.5-1.2c0.5,0.2,0.9,0.5,1.2,0.7
		c0.1,0.1,0.2,0.2,0.2,0.3c0,0.1-0.1,0.2-0.3,0.3c-0.2,0.1-0.4,0.4-0.9,1.1c-0.8,1.1-1.9,2.7-2.8,3.9c0.9-0.1,1.8-0.2,2.8-0.3
		c-0.2-0.4-0.4-0.8-0.6-1.2c-0.1-0.2-0.1-0.2,0.2-0.3L222.7,726.8z M221.5,735.2c0.1-0.2,0.2-0.2,0.4-0.1c0.9,0.5,1.7,1.1,2.5,1.8
		c0.1,0.1,0.1,0.2,0,0.4l-0.4,0.5c-0.2,0.3-0.3,0.3-0.4,0.1c-0.8-0.7-1.6-1.4-2.5-1.9c-0.2-0.1-0.2-0.1,0.1-0.4L221.5,735.2z
		 M232,726.2c0.2-0.1,0.3-0.1,0.4,0.1c0.6,0.9,1.1,2.1,1.6,3.1c0.1,0.2,0,0.2-0.2,0.3l-0.5,0.3c-0.3,0.1-0.3,0.1-0.4-0.1
		c-0.1-0.3-0.2-0.6-0.4-1c-1.5,0.2-3,0.5-4.1,0.6c-0.6,0.1-0.8,0.2-0.9,0.3c-0.1,0.1-0.2,0.1-0.3,0.1c-0.1,0-0.2-0.1-0.3-0.3
		c-0.1-0.3-0.2-0.8-0.3-1.2c0.3,0,0.5,0,0.8,0c0.5-0.7,1.1-1.4,1.7-2.2c-0.9-1.2-1.7-2.3-2.8-3.2c-0.2-0.1-0.2-0.2,0.1-0.4l0.5-0.5
		c0.2-0.2,0.2-0.2,0.3-0.1c0.2,0.2,0.4,0.4,0.6,0.6c0.6-0.9,1.1-1.8,1.5-2.5c0.2-0.3,0.3-0.7,0.4-1c0.4,0.2,0.9,0.4,1.2,0.6
		c0.2,0.1,0.2,0.2,0.2,0.3c0,0.1-0.1,0.2-0.2,0.3c-0.2,0.1-0.3,0.2-0.4,0.5c-0.4,0.7-1.1,1.9-1.8,2.8c0.4,0.5,0.8,1,1.2,1.5
		c0.4-0.6,0.8-1.2,1.1-1.8c0.2-0.4,0.4-0.8,0.5-1.2c0.5,0.2,0.9,0.5,1.2,0.7c0.1,0.1,0.2,0.2,0.2,0.3c0,0.1-0.1,0.2-0.3,0.3
		c-0.2,0.1-0.4,0.4-0.9,1.1c-0.8,1.1-1.9,2.7-2.8,3.8c0.9-0.1,1.9-0.2,3-0.3c-0.2-0.4-0.4-0.8-0.7-1.2c-0.1-0.2-0.1-0.2,0.2-0.3
		L232,726.2z M229.5,729.7c0.2-0.2,0.3-0.2,0.4,0c0.5,0.4,1,0.8,1.4,1.3c0.2,0.2,0.1,0.2-0.1,0.3l-0.4,0.4c-0.2,0.2-0.3,0.2-0.4,0
		c-0.4-0.5-1-1-1.4-1.4c-0.2-0.1-0.2-0.2,0.1-0.4L229.5,729.7z"/>
	<path d="M248.4,724.4c0,1.7,0.1,2.4,0.1,2.5c0,0.2,0,0.2-0.2,0.2c-0.1,0-0.8-0.1-2.6-0.1h-4.7v9.5c0,3.6,0.1,5.1,0.1,5.3
		c0,0.2,0,0.2-0.2,0.2h-1.2c-0.2,0-0.2,0-0.2-0.2c0-0.2,0.1-1.7,0.1-5.3v-11.3c0-3.7-0.1-5.3-0.1-5.5c0-0.2,0-0.2,0.2-0.2
		c0.2,0,1,0.1,2.9,0.1h3.1c1.8,0,2.5-0.1,2.6-0.1c0.2,0,0.2,0,0.2,0.2c0,0.2-0.1,0.8-0.1,2.4V724.4z M246.9,720.9h-6v1.8h6V720.9z
		 M246.9,723.9h-6v1.9h6V723.9z M256.6,735.1c0,0.2,0,0.2-0.2,0.2c-0.2,0-1-0.1-3.5-0.1h-2.3c1.4,1.7,3.1,2.5,5.7,3.2
		c-0.2,0.2-0.4,0.5-0.6,0.9c-0.2,0.4-0.2,0.4-0.7,0.3c-2.3-0.8-4.1-2-5.6-4l-0.4,0.8c-0.9,1.6-2.5,3-5.6,4c-0.4,0.1-0.4,0.1-0.7-0.2
		c-0.3-0.4-0.5-0.7-0.8-0.9c3.2-0.8,5-1.9,5.9-3.5c0.1-0.2,0.2-0.5,0.3-0.7h-1.8c-2.5,0-3.4,0.1-3.5,0.1c-0.2,0-0.2,0-0.2-0.2v-0.9
		c0-0.2,0-0.2,0.2-0.2c0.1,0,1,0.1,3.5,0.1h2.2c0.1-0.6,0.2-1.3,0.2-2.2h-2c-2.4,0-3.2,0.1-3.4,0.1c-0.2,0-0.2,0-0.2-0.2v-0.9
		c0-0.2,0-0.2,0.2-0.2c0.1,0,0.9,0.1,3.2,0.1c-0.4-0.7-0.8-1.4-1.2-2c-0.1-0.2-0.1-0.2,0.2-0.3l0.6-0.3c0.3-0.1,0.3-0.1,0.4,0
		c0.5,0.7,1.1,1.6,1.6,2.5h2.8c0.3-0.6,0.6-1.2,0.9-1.7c0.2-0.3,0.3-0.7,0.4-1.1c0.5,0.1,0.9,0.2,1.3,0.4c0.2,0.1,0.3,0.2,0.3,0.3
		c0,0.1-0.1,0.2-0.2,0.3c-0.2,0.1-0.3,0.3-0.4,0.5c-0.2,0.3-0.4,0.8-0.8,1.3c2.4,0,3.1-0.1,3.3-0.1c0.2,0,0.2,0,0.2,0.2v0.9
		c0,0.2,0,0.2-0.2,0.2c-0.2,0-0.9-0.1-3.4-0.1h-2.1c0,0.7-0.1,1.4-0.3,2.2h2.8c2.5,0,3.3-0.1,3.5-0.1c0.2,0,0.2,0,0.2,0.2V735.1z
		 M260.2,735.4c0,1.4,0.1,2.9,0.1,3.8c0,1.1-0.2,1.6-0.7,2c-0.5,0.4-1.1,0.5-3.1,0.5c-0.5,0-0.5,0-0.6-0.5s-0.3-0.8-0.5-1.1
		c0.7,0.1,1.1,0.1,1.8,0.1c1.1,0,1.4-0.2,1.4-1.2V727h-4.9c-2,0-2.7,0.1-2.8,0.1c-0.2,0-0.2,0-0.2-0.2c0-0.1,0.1-0.6,0.1-2.3V722
		c0-1.6-0.1-2.1-0.1-2.2c0-0.2,0-0.2,0.2-0.2c0.1,0,0.8,0.1,2.8,0.1h3.5c2,0,2.7-0.1,2.8-0.1c0.2,0,0.2,0,0.2,0.2
		c0,0.2-0.1,1.2-0.1,3.7V735.4z M258.7,720.9h-6.4v1.8h6.4V720.9z M258.7,723.9h-6.4v1.9h6.4V723.9z"/>
	<path d="M274.1,725.5c0,0.2,0,0.2-0.2,0.2c-0.1,0-0.7-0.1-2.6-0.1h-0.4v4.8c0.9-0.4,1.7-0.9,2.6-1.4c-0.1,0.3-0.1,0.7,0,1.1
		c0,0.5,0,0.5-0.4,0.7c-0.7,0.4-1.5,0.8-2.2,1.1v3.5c0,1.4,0,3,0,4c0,1.2-0.2,1.7-0.7,2c-0.5,0.4-1,0.5-2.8,0.5
		c-0.5,0-0.5-0.1-0.7-0.5c-0.1-0.5-0.3-0.8-0.5-1.1c0.7,0.1,1.4,0.1,2,0.1c0.8,0,1-0.3,1-1.2v-6.4c-0.6,0.3-1.2,0.5-1.9,0.8
		c-0.5,0.2-0.8,0.4-0.9,0.5c-0.1,0.1-0.2,0.2-0.3,0.2c-0.1,0-0.2-0.1-0.3-0.2c-0.2-0.5-0.3-0.9-0.5-1.5c0.7-0.2,1.4-0.4,2.3-0.7
		l1.6-0.6v-5.5h-0.9c-1.9,0-2.5,0.1-2.6,0.1c-0.2,0-0.2,0-0.2-0.2v-1.1c0-0.2,0-0.2,0.2-0.2c0.1,0,0.7,0.1,2.6,0.1h0.9v-2.1
		c0-1.6,0-2.3-0.2-3.2c0.6,0,1.2,0.1,1.7,0.2c0.2,0,0.3,0.1,0.3,0.2c0,0.2-0.1,0.3-0.2,0.5c-0.1,0.3-0.1,0.8-0.1,2.3v2.1h0.4
		c1.9,0,2.4-0.1,2.6-0.1c0.2,0,0.2,0,0.2,0.2V725.5z M284.6,730c0.3,0,0.5-0.1,0.6-0.1c0.1-0.1,0.2-0.1,0.2-0.1
		c0.2,0,0.4,0.1,0.7,0.5c0.3,0.4,0.5,0.6,0.5,0.7s-0.1,0.2-0.2,0.3c-0.2,0.1-0.3,0.2-0.6,0.9c-0.9,1.8-2.1,3.4-3.6,4.8
		c2.1,1.6,4.7,2.8,7.6,3.5c-0.3,0.3-0.5,0.6-0.7,1c-0.1,0.3-0.2,0.4-0.4,0.4c-0.1,0-0.2,0-0.4-0.1c-2.7-0.9-5.2-2.1-7.3-3.9
		c-2.1,1.7-4.7,3-7.7,4c-0.2,0.1-0.3,0.1-0.4,0.1c-0.2,0-0.2-0.1-0.4-0.4c-0.2-0.3-0.4-0.7-0.7-0.8c3.1-0.9,5.8-2.2,8-3.8
		c-1.5-1.5-2.8-3.4-3.7-5.6c-1,0-1.5,0-1.6,0c-0.2,0-0.2,0-0.2-0.2v-1c0-0.2,0-0.2,0.2-0.2c0.1,0,0.9,0.1,3.4,0.1H284.6z M284,724.8
		c0,0.7,0,0.9,0.2,1.1c0.2,0.1,0.5,0.2,1.4,0.2c0.8,0,1.2-0.1,1.5-0.4c0.2-0.3,0.4-1,0.4-2.2c0.3,0.2,0.6,0.4,1,0.5
		c0.4,0.2,0.4,0.2,0.4,0.7c-0.1,1.1-0.4,1.8-0.8,2.3c-0.5,0.5-1.4,0.6-2.7,0.6c-1,0-1.9-0.1-2.2-0.3c-0.5-0.3-0.8-0.8-0.8-1.7v-4.4
		h-4.2c-0.1,4-1,5.7-3.4,7.4c-0.2,0.2-0.3,0.2-0.4,0.2c-0.1,0-0.2-0.1-0.4-0.3c-0.2-0.3-0.5-0.5-0.9-0.7c2.7-1.6,3.5-3,3.5-6.9
		c0-0.6-0.1-0.9-0.1-1c0-0.2,0-0.2,0.2-0.2c0.2,0,0.6,0.1,2.3,0.1h2.3c1.7,0,2.2-0.1,2.4-0.1c0.2,0,0.2,0,0.2,0.2
		c0,0.1-0.1,0.8-0.1,2.2V724.8z M277.6,731.3c0.8,1.8,1.9,3.4,3.3,4.7c1.5-1.4,2.7-3,3.5-4.7H277.6z"/>
	<path d="M301.8,739.8c-0.3,0.1-0.5,0.2-0.8,0.3c-1.6,0.9-3.9,1.6-6.1,2c-0.5,0.1-0.5,0.1-0.8-0.4c-0.2-0.3-0.4-0.7-0.7-0.9
		c2.2-0.3,4.5-0.9,6-1.6c0.3-0.2,0.7-0.4,1-0.7c0.6,0.3,0.9,0.4,1.4,0.7c0.2,0.1,0.3,0.2,0.3,0.3C302.1,739.7,302,739.7,301.8,739.8
		z M300.1,726c-1.5,0.8-3.1,1.5-4.3,1.9c-0.5,0.2-0.8,0.3-0.9,0.4c-0.1,0.1-0.2,0.2-0.3,0.2c-0.1,0-0.2-0.1-0.3-0.2
		c-0.2-0.4-0.4-0.9-0.6-1.4c0.5-0.1,1.2-0.2,1.9-0.4c1.5-0.5,3-1.1,4.9-2.1c0,0.3,0,0.6,0.1,0.9C300.6,725.8,300.6,725.8,300.1,726z
		 M295.2,719.7c0.2-0.2,0.3-0.3,0.5-0.2c1.2,0.4,2.7,1.2,3.9,2.1c0.2,0.1,0.2,0.2,0,0.4l-0.5,0.6c-0.3,0.3-0.3,0.3-0.5,0.2
		c-1.3-1-2.5-1.7-3.8-2.2c-0.2-0.1-0.2-0.2,0-0.4L295.2,719.7z M312.5,735.6c0,1.8,0.1,2.5,0.1,2.6c0,0.2,0,0.2-0.2,0.2
		c-0.2,0-1-0.1-3.6-0.1H301c-2.6,0-3.5,0.1-3.6,0.1c-0.2,0-0.2,0-0.2-0.2c0-0.2,0.1-0.8,0.1-2.6v-4.2c0-1.8-0.1-2.5-0.1-2.6
		c0-0.2,0-0.2,0.2-0.2c0.2,0,1,0.1,3.6,0.1h7.7c2.6,0,3.5-0.1,3.6-0.1c0.2,0,0.2,0,0.2,0.2c0,0.1-0.1,0.8-0.1,2.6V735.6z M311,729.8
		h-12.2v1.7H311V729.8z M311,732.5h-12.2v1.7H311V732.5z M311,735.3h-12.2v1.8H311V735.3z M308,722.3c1,3.5,5.2,4.9,8.5,5.4
		c-0.2,0.3-0.4,0.6-0.5,1c-0.2,0.5-0.2,0.5-0.7,0.4c-3.2-0.8-6.5-2.2-7.9-5.4c-0.9,2.5-3.2,3.9-6.4,4.6c-0.5,0.1-0.5,0.1-0.8-0.4
		c-0.2-0.3-0.4-0.5-0.6-0.7c3.8-0.7,6.3-2,7-4.9h-3c-0.5,0.6-1.1,1.2-1.8,1.8c-0.2,0.1-0.3,0.2-0.4,0.2c-0.1,0-0.2-0.1-0.4-0.3
		s-0.5-0.4-0.8-0.5c1.6-1.1,2.8-2.4,3.5-3.7c0.2-0.4,0.4-0.8,0.5-1.3c0.5,0.1,1,0.2,1.3,0.3c0.2,0.1,0.3,0.2,0.3,0.3
		c0,0.1-0.1,0.2-0.2,0.3c-0.2,0.1-0.3,0.3-0.4,0.6c-0.2,0.4-0.4,0.7-0.7,1.1h8.4c0.4,0,0.6,0,0.7-0.1c0.1-0.1,0.2-0.1,0.3-0.1
		c0.1,0,0.3,0.1,0.7,0.4c0.4,0.3,0.6,0.5,0.6,0.7c0,0.1-0.1,0.2-0.2,0.3c-0.2,0.1-0.3,0.2-0.5,0.5c-0.4,0.7-0.8,1.1-1.4,1.8
		c-0.2,0.2-0.3,0.3-0.4,0.3c-0.1,0-0.3-0.1-0.5-0.2c-0.3-0.2-0.6-0.2-0.9-0.3c0.8-0.6,1.4-1.4,1.9-2.2H308z M308.6,738.7
		c0.2-0.1,0.3-0.2,0.5-0.1c1.9,1.2,4.3,1.8,6.9,2.2c-0.3,0.2-0.5,0.5-0.7,0.9c-0.2,0.4-0.3,0.4-0.8,0.4c-2.1-0.4-4.8-1.3-6.8-2.6
		c-0.2-0.1-0.2-0.2,0.2-0.4L308.6,738.7z"/>
	<path d="M335,726.5c0.4,1.9,1,3.6,1.8,5.1c1.1-0.9,1.9-1.7,2.9-2.8c0.3-0.4,0.6-0.8,0.8-1.2c0.5,0.3,0.9,0.6,1.3,0.9
		c0.2,0.1,0.2,0.2,0.2,0.3c0,0.2-0.2,0.3-0.3,0.3c-0.3,0.2-0.5,0.4-1.2,1c-0.9,0.9-1.8,1.7-3,2.6c1.6,2.5,3.7,4.5,6.8,6.3
		c-0.4,0.3-0.7,0.6-0.9,1c-0.2,0.3-0.2,0.4-0.3,0.4s-0.2-0.1-0.4-0.2c-5-3.5-7.6-7.6-9.1-13.8H333c-0.8,0.6-1.5,1.1-2.2,1.6
		c2.4,2.5,3.7,5.6,3.7,9.2c0,3.5-0.8,4.7-3.5,4.7c-0.5,0-1,0-1.5-0.1c-0.5,0-0.5,0-0.6-0.5c-0.1-0.4-0.3-0.8-0.5-1.1
		c1.1,0.2,2,0.2,2.7,0.2c1,0,1.9-0.3,1.9-3.3c0-0.7-0.1-1.4-0.2-2c-3,2.5-6.1,4.1-10.5,5.6c-0.2,0.1-0.3,0.1-0.4,0.1
		c-0.1,0-0.2-0.1-0.4-0.4c-0.3-0.4-0.5-0.6-0.8-0.9c4.9-1.4,8.4-3,11.8-6c-0.2-0.7-0.5-1.4-0.8-2c-2.8,1.9-4.9,2.9-8.6,4.2
		c-0.2,0.1-0.3,0.1-0.4,0.1c-0.1,0-0.2-0.1-0.4-0.4c-0.2-0.4-0.4-0.6-0.8-0.8c4-1.1,6.6-2.2,9.4-4.2c-0.4-0.6-0.9-1.2-1.4-1.8
		c-1.7,1-3.5,1.7-5.7,2.4c-0.5,0.2-0.5,0.2-0.7-0.2c-0.3-0.4-0.4-0.6-0.8-0.9c3.9-1,6.3-2,8.6-3.6h-2.3c-2.6,0-3.4,0.1-3.6,0.1
		c-0.2,0-0.2,0-0.2-0.2v-1c0-0.2,0-0.2,0.2-0.2c0.2,0,1,0.1,3.6,0.1h7.5c2.6,0,3.5-0.1,3.6-0.1c0.2,0,0.2,0,0.2,0.2v1
		c0,0.2,0,0.2-0.2,0.2c-0.1,0-1-0.1-3.6-0.1H335z M342.9,723.5c0,2.2,0.1,2.5,0.1,2.7s0,0.2-0.2,0.2h-1.2c-0.2,0-0.2,0-0.2-0.2v-3.6
		h-17.9v3.6c0,0.2,0,0.2-0.2,0.2H322c-0.2,0-0.2,0-0.2-0.2s0.1-0.5,0.1-2.7v-0.8c0-0.8-0.1-1.2-0.1-1.4c0-0.2,0-0.2,0.2-0.2
		c0.2,0,1.1,0.1,3.6,0.1h5.8v-0.3c0-0.9,0-1.6-0.2-2.3c0.6,0,1.3,0.1,1.7,0.1c0.2,0,0.3,0.1,0.3,0.2c0,0.2-0.1,0.3-0.2,0.5
		c-0.1,0.2-0.1,0.6-0.1,1.4v0.3h6.2c2.5,0,3.4-0.1,3.6-0.1c0.2,0,0.2,0,0.2,0.2c0,0.2-0.1,0.5-0.1,1.2V723.5z"/>
	<path class="st0" d="M14.4,780.4c0,3.7-3,6.6-6.6,6.6c-3.7,0-6.6-3-6.6-6.6c0-3.7,3-6.6,6.6-6.6C11.5,773.7,14.4,776.7,14.4,780.4z
		"/>
	<path d="M36.2,780c-4.4,1-7.3,1.8-10.4,2.9c-0.5,0.2-0.7,0.3-0.9,0.3c-0.1,0-0.2-0.1-0.3-0.3c-0.2-0.3-0.4-0.8-0.6-1.4
		c0.4-0.1,0.7-0.2,1-0.3c1.1-0.5,2-1,2.9-1.8c2.6-2.1,5.1-4.4,8.6-7.8c-2.2,0.4-4.4,0.7-6.4,1.1c-0.4,0.1-0.7,0.2-0.9,0.2
		c-0.3,0.1-0.5,0.2-0.8,0.2c-0.2,0-0.3-0.2-0.4-0.4c-0.1-0.3-0.4-0.9-0.6-1.6c0.7,0.1,1.4,0.1,2.3,0c2.1-0.2,4.3-0.5,6.8-0.9
		c0.5-0.1,0.8-0.2,1-0.3c0.2-0.1,0.3-0.2,0.4-0.2c0.2,0,0.3,0.1,0.4,0.2c0.3,0.2,0.7,0.6,0.9,0.9c0.1,0.2,0.2,0.3,0.2,0.5
		c0,0.2-0.1,0.3-0.3,0.4c-0.3,0.1-0.6,0.3-0.9,0.6c-3.4,3.1-6.4,5.6-9.5,8l0.1,0.1c4.1-1.2,8.7-2.3,14.3-3.1c0.3,0,0.4,0,0.4,0.2
		c0.1,0.3,0.2,0.8,0.2,1.3c0,0.2-0.1,0.3-0.4,0.3c-1.7,0.1-3.2,0.4-4.7,0.9c-3,1.1-5.2,3-5.2,5.4c0,3,3.4,3.8,7,3.8
		c0.2,0,0.3,0.1,0.3,0.3c0,0.4-0.1,0.9-0.2,1.2c0,0.3-0.1,0.3-0.4,0.3c-0.5,0-1-0.1-1.6-0.1c-4.1-0.4-6.7-2.1-6.7-5.3
		C31.7,783.9,33,781.5,36.2,780L36.2,780z"/>
	<path d="M61.3,773.9c-0.5,4.4-1.8,8.7-3.4,11.4c-1.1,1.9-2.3,2.7-3.8,2.7c-1.9,0-3.8-2.1-3.8-5.9c0-2.4,1.1-4.9,3-6.7
		c1.9-1.8,4.5-2.9,7.8-2.9c5.8,0,9.3,3.4,9.3,8.4c0,4.2-2.6,7.6-8.3,9.1c-0.3,0.1-0.5,0-0.7-0.3c-0.2-0.3-0.5-0.6-1-1
		c5.1-1,8.1-3.8,8.1-8.1c0-3.8-3-6.6-6.7-6.6H61.3z M54.4,776.3c-1.7,1.7-2.5,3.8-2.5,5.6c0,2.8,1.2,4.1,2.1,4.1
		c0.9,0,1.7-0.6,2.4-1.9c1.3-2.3,2.7-6.4,3-10.2C57.4,774.2,55.6,775.1,54.4,776.3z"/>
	<path d="M79.3,781.2c0-0.9,0-2.3,0.1-3.5c-0.7,1.1-1.5,2.2-2.4,3.2c-0.1,0.2-0.2,0.3-0.3,0.3c-0.1,0-0.2-0.1-0.3-0.3
		c-0.2-0.4-0.4-0.8-0.7-1c2.5-2.9,4.2-5.8,5.4-9.3c0.2-0.6,0.3-1.2,0.4-1.8c0.6,0.2,1.1,0.3,1.6,0.5c0.2,0.1,0.3,0.2,0.3,0.3
		c0,0.1-0.1,0.2-0.3,0.4c-0.2,0.1-0.3,0.4-0.5,1c-0.5,1.4-1.1,2.7-1.8,4.1v12.7c0,2.7,0.1,3.9,0.1,4c0,0.2,0,0.2-0.2,0.2h-1.2
		c-0.2,0-0.2,0-0.2-0.2c0-0.1,0.1-1.3,0.1-4V781.2z M86.6,788c0,1.1,0.4,1.5,1.2,1.6c0.8,0.2,2,0.2,4,0.2c2.9,0,4.3-0.3,5-0.8
		c0.6-0.4,1-1.2,1.1-3.6c0.3,0.2,0.7,0.4,1.1,0.6c0.4,0.2,0.4,0.2,0.4,0.6c-0.2,1.9-0.6,3.1-1.4,3.7c-1.1,0.7-2.9,1-6.4,1
		c-2.1,0-3.8-0.1-4.7-0.3c-1-0.3-1.8-0.9-1.8-2.5v-8.6c-1.6,0.5-2.2,0.8-2.4,0.9c-0.2,0.1-0.3,0.1-0.3-0.1l-0.3-1.2
		c0-0.2,0-0.2,0.2-0.2c0.1-0.1,0.9-0.2,2.8-0.8v-3.5c0-1.2-0.1-2.1-0.2-2.9c0.7,0,1.2,0.1,1.6,0.1c0.2,0,0.3,0.1,0.3,0.2
		c0,0.2-0.1,0.3-0.1,0.5c-0.1,0.3-0.2,0.6-0.2,1.8v3.2l3.6-1.1v-4c0-1.8-0.1-2.7-0.2-3.5c0.7,0,1.2,0.1,1.7,0.2
		c0.2,0,0.3,0.1,0.3,0.2c0,0.2-0.1,0.3-0.1,0.5c-0.1,0.3-0.2,1-0.2,2.7v3.4l2.5-0.8c2.4-0.8,3.1-1.1,3.3-1.2c0.1,0,0.2,0,0.2,0.2
		l-0.1,1.9c-0.1,3.2-0.3,5.1-0.5,6.5c-0.3,1.6-1,2.1-2.2,2.1c-0.4,0-0.8,0-1.4-0.1c-0.4-0.1-0.4-0.1-0.5-0.6c-0.1-0.4-0.2-0.8-0.3-1
		c0.8,0.1,1.4,0.2,2,0.2c0.6,0,0.9-0.4,1.1-1.5c0.2-1.5,0.3-3,0.4-5.9l-4.4,1.5v4.7c0,2.6,0.1,3.7,0.1,3.9c0,0.2,0,0.2-0.2,0.2h-1.2
		c-0.2,0-0.2,0-0.2-0.2c0-0.2,0.1-1.3,0.1-3.9v-4.1l-3.6,1.2V788z"/>
	<path d="M116.2,773.9c-0.5,4.4-1.8,8.7-3.4,11.4c-1.1,1.9-2.3,2.7-3.8,2.7c-2,0-3.8-2.1-3.8-5.9c0-2.4,1.1-4.9,3-6.7
		c1.9-1.8,4.5-2.9,7.8-2.9c5.8,0,9.3,3.4,9.3,8.4c0,4.2-2.6,7.6-8.3,9.1c-0.3,0.1-0.5,0-0.7-0.3c-0.2-0.3-0.5-0.6-1-1
		c5.1-1,8.1-3.8,8.1-8.1c0-3.8-3-6.6-6.7-6.6H116.2z M109.3,776.3c-1.7,1.7-2.5,3.8-2.5,5.6c0,2.8,1.2,4.1,2.1,4.1
		c0.9,0,1.7-0.6,2.4-1.9c1.3-2.3,2.7-6.4,3-10.2C112.3,774.2,110.6,775.1,109.3,776.3z"/>
	<path d="M143.4,769.5c3.1,4.3,7.1,7.2,11.7,8.8c-0.3,0.3-0.5,0.6-0.8,1.1c-0.2,0.3-0.2,0.4-0.3,0.4c-0.1,0-0.2-0.1-0.4-0.1
		c-4.6-2-8.3-5-11-8.9c-2.9,4.1-6.3,6.9-10.6,9.1c-0.2,0.1-0.3,0.2-0.4,0.2c-0.1,0-0.2-0.1-0.3-0.4c-0.2-0.4-0.5-0.7-0.8-1
		c4.9-2.2,8.6-5.5,10.7-8.7c0.4-0.6,0.5-1,0.7-1.5c0.7,0.1,1.2,0.2,1.7,0.3c0.3,0.1,0.4,0.2,0.4,0.3s-0.1,0.2-0.2,0.3L143.4,769.5z
		 M154.1,790.9c0,0.2,0,0.2-0.2,0.2c-0.2,0-1-0.1-3.4-0.1H135c-2.4,0-3.2,0.1-3.4,0.1c-0.2,0-0.2,0-0.2-0.2v-1.1
		c0-0.2,0-0.2,0.2-0.2c0.1,0,1,0.1,3.4,0.1h1.1v-5.8c0-1.5,0-2.5-0.2-3.1c0.6,0,1.2,0.1,1.7,0.2c0.2,0,0.3,0.1,0.3,0.2
		c0,0.2-0.1,0.3-0.2,0.5c-0.1,0.3-0.1,0.9-0.1,2.3v5.8h4.8v-10.4c0-1.5,0-2.4-0.2-3.1c0.6,0,1.2,0.1,1.8,0.2c0.2,0,0.3,0.1,0.3,0.2
		c0,0.2-0.1,0.3-0.2,0.5c-0.1,0.3-0.1,0.9-0.1,2.3v2.7h3.1c2.3,0,3-0.1,3.2-0.1c0.2,0,0.2,0,0.2,0.2v1.1c0,0.2,0,0.2-0.2,0.2
		c-0.2,0-0.9-0.1-3.2-0.1H144v6.3h6.5c2.4,0,3.2-0.1,3.4-0.1c0.2,0,0.2,0,0.2,0.2V790.9z"/>
	<path d="M172,785.4c2.5,2,5.5,3.3,9.9,4.4c-0.2,0.2-0.5,0.6-0.7,0.9c-0.3,0.5-0.3,0.5-0.8,0.3c-4.2-1.1-7.2-2.7-9.8-5.1
		c0,3.9,0.1,5.6,0.1,6c0,0.2,0,0.2-0.2,0.2h-1.2c-0.2,0-0.2,0-0.2-0.2c0-0.4,0.1-2,0.1-6c-2.6,2.5-5.4,4-9.4,5.2
		c-0.5,0.2-0.5,0.2-0.8-0.3c-0.2-0.4-0.4-0.7-0.7-0.9c4.3-1.1,7.4-2.5,9.6-4.6h-5.4c-2.5,0-3.3,0.1-3.4,0.1c-0.2,0-0.2,0-0.2-0.2
		v-0.9c0-0.2,0-0.2,0.2-0.2c0.1,0,0.9,0.1,3.4,0.1h6.7V782h-3.9c-2.7,0-3.6,0.1-3.7,0.1c-0.2,0-0.2,0-0.2-0.2V781
		c0-0.2,0-0.2,0.2-0.2c0.1,0,1,0.1,3.7,0.1h3.9v-2h-5.1c-2.6,0-3.5,0.1-3.6,0.1c-0.2,0-0.2,0-0.2-0.2v-0.9c0-0.2,0-0.2,0.2-0.2
		c0.1,0,1,0.1,3.6,0.1h2.1c-0.3-0.9-0.7-1.7-1.1-2.2c-0.1-0.2-0.1-0.2,0.2-0.3l0.7-0.2c0.3-0.1,0.3-0.1,0.4,0.1
		c0.5,0.7,1,1.7,1.4,2.8h4.8c0.4-0.6,0.6-1.1,1-1.9c0.1-0.3,0.2-0.6,0.3-1c0.5,0.1,0.9,0.2,1.4,0.4c0.2,0.1,0.3,0.2,0.3,0.3
		c0,0.1-0.1,0.2-0.2,0.3c-0.1,0.1-0.3,0.3-0.4,0.5c-0.2,0.4-0.5,0.9-0.9,1.4h2.3c2.6,0,3.5-0.1,3.6-0.1c0.2,0,0.2,0,0.2,0.2v0.9
		c0,0.2,0,0.2-0.2,0.2c-0.2,0-1-0.1-3.6-0.1h-5.6v2h4.4c2.7,0,3.5-0.1,3.7-0.1c0.2,0,0.2,0,0.2,0.2v0.9c0,0.2,0,0.2-0.2,0.2
		c-0.2,0-1-0.1-3.7-0.1h-4.4v2.1h7.2c2.5,0,3.3-0.1,3.4-0.1c0.2,0,0.2,0,0.2,0.2v0.9c0,0.2,0,0.2-0.2,0.2c-0.2,0-1-0.1-3.4-0.1H172z
		 M181.6,774.2c0,0.2,0,0.2-0.2,0.2c-0.2,0-1-0.1-3.4-0.1h-15.3c-2.5,0-3.3,0.1-3.4,0.1c-0.2,0-0.2,0-0.2-0.2v-0.9
		c0-0.2,0-0.2,0.2-0.2c0.1,0,0.9,0.1,3.4,0.1h0.9c-0.6-1.1-1.1-2-1.8-2.8c-0.1-0.1-0.1-0.2,0.2-0.3l0.7-0.4c0.2-0.1,0.3-0.1,0.4,0
		c0.7,0.7,1.3,1.6,1.9,2.6c0.1,0.2,0.1,0.2-0.2,0.3l-0.9,0.5h3.4v-2c0-0.9,0-1.7-0.2-2.4c0.5,0,1.2,0.1,1.6,0.1
		c0.2,0,0.3,0.1,0.3,0.2s0,0.2-0.1,0.4c-0.1,0.2-0.2,0.7-0.2,1.6v2h2.8v-1.9c0-0.9,0-1.7-0.2-2.4c0.5,0,1.2,0.1,1.6,0.1
		c0.2,0,0.3,0.1,0.3,0.2c0,0.1-0.1,0.2-0.1,0.3c-0.1,0.2-0.2,0.7-0.2,1.6v2h2.4c0.6-0.8,1-1.6,1.5-2.4c0.2-0.4,0.3-0.7,0.4-1.2
		c0.5,0.1,1.1,0.3,1.5,0.5c0.2,0.1,0.3,0.2,0.3,0.3c0,0.2-0.1,0.2-0.2,0.3c-0.2,0.1-0.3,0.3-0.4,0.5c-0.4,0.7-0.9,1.4-1.4,2.1h1.1
		c2.5,0,3.3-0.1,3.4-0.1c0.2,0,0.2,0,0.2,0.2V774.2z"/>
	<path class="st0" d="M226.8,780.4c0,3.7-3,6.6-6.6,6.6c-3.7,0-6.6-3-6.6-6.6c0-3.7,3-6.6,6.6-6.6
		C223.8,773.7,226.8,776.7,226.8,780.4z"/>
	<path d="M238.4,781.2c0-1,0-2.5,0.1-3.8c-0.7,1.1-1.5,2.2-2.3,3.2c-0.1,0.2-0.2,0.3-0.3,0.3c-0.1,0-0.2-0.1-0.3-0.3
		c-0.2-0.5-0.4-0.8-0.7-1c2.4-2.8,4-5.6,5.3-9.1c0.2-0.7,0.4-1.1,0.4-1.8c0.5,0.1,1.1,0.3,1.5,0.5c0.2,0.1,0.3,0.2,0.3,0.3
		c0,0.2-0.1,0.2-0.2,0.4c-0.2,0.1-0.3,0.4-0.5,1c-0.5,1.4-1.1,2.7-1.7,3.9v13.1c0,2.8,0.1,4,0.1,4.1c0,0.2,0,0.2-0.2,0.2h-1.2
		c-0.2,0-0.2,0-0.2-0.2c0-0.1,0.1-1.3,0.1-4.1V781.2z M257.7,784c0,6.1,0.1,7.5,0.1,7.6c0,0.2,0,0.2-0.2,0.2h-1.1
		c-0.2,0-0.2,0-0.2-0.2v-1.3h-12v1.5c0,0.2,0,0.2-0.2,0.2h-1.1c-0.2,0-0.2,0-0.2-0.2c0-0.1,0.1-1.6,0.1-7.7v-7.6
		c0-4.3-0.1-5.8-0.1-6c0-0.2,0-0.2,0.2-0.2c0.2,0,1.1,0.1,3.6,0.1h7.4c2.6,0,3.5-0.1,3.6-0.1c0.2,0,0.2,0,0.2,0.2
		c0,0.2-0.1,1.7-0.1,5.7V784z M256.2,771.8h-12V789h12V771.8z M255,777.2c0,0.2,0,0.2-0.2,0.2c-0.1,0-0.8-0.1-2.9-0.1h-1.1v3.1h0.4
		c1.6,0,2.2-0.1,2.3-0.1c0.2,0,0.2,0,0.2,0.2c0,0.2-0.1,0.6-0.1,2v2.1c0,1.4,0.1,1.9,0.1,2c0,0.2,0,0.2-0.2,0.2c-0.1,0-0.7,0-2.3,0
		H249c-1.6,0-2.1,0-2.3,0c-0.2,0-0.2,0-0.2-0.2s0.1-0.6,0.1-2v-2.1c0-1.4-0.1-1.8-0.1-2c0-0.2,0-0.2,0.2-0.2c0.2,0,0.7,0.1,2.3,0.1
		h0.4v-3.1h-1c-2.1,0-2.8,0.1-2.9,0.1c-0.2,0-0.2,0-0.2-0.2v-0.9c0-0.2,0-0.2,0.2-0.2c0.2,0,0.8,0.1,2.9,0.1h1v-0.2
		c0-1.7,0-2.4-0.2-3.1c0.5,0,1.1,0.1,1.5,0.2c0.2,0,0.3,0.1,0.3,0.2c0,0.1-0.1,0.3-0.1,0.4c-0.1,0.3-0.1,0.8-0.1,2.3v0.3h1.1
		c2.1,0,2.8-0.1,2.9-0.1c0.2,0,0.2,0,0.2,0.2V777.2z M252.3,781.7h-4.4v4h4.4V781.7z"/>
	<path d="M285.4,791.1c-0.2,0.3-0.2,0.4-0.3,0.4c-0.1,0-0.2-0.1-0.4-0.2c-5.9-3.8-8.7-9.1-9.7-14.3c-1.1,6.5-4.6,11.3-9.9,14.3
		c-0.2,0.1-0.3,0.2-0.4,0.2c-0.1,0-0.2-0.1-0.4-0.4c-0.3-0.4-0.6-0.7-1-0.9c7-3.4,10.6-10.2,10.5-17.6c0-1.4-0.1-2.2-0.2-3.1
		c0.6,0,1.4,0.1,2,0.2c0.2,0.1,0.4,0.2,0.4,0.3c0,0.2-0.1,0.3-0.2,0.5c-0.1,0.3-0.2,0.8-0.2,1.5c0,0.5,0,0.9,0,1.4
		c1,7,4,12.9,10.8,16.8C285.9,790.4,285.6,790.7,285.4,791.1z"/>
</g>
</svg>
