<?xml version="1.0" encoding="UTF-8"?>
<svg id="_レイヤー_2" data-name="レイヤー 2" xmlns="http://www.w3.org/2000/svg" viewBox="0 0 154.25 192.02">
  <g id="_デザイン" data-name="デザイン">
    <g>
      <g>
        <path d="m47.87,151.96c-10.47,0-18.96-8.49-18.96-18.96,0-1.09.11-2.15.29-3.19h37.35c.18,1.04.29,2.1.29,3.19,0,10.47-8.49,18.96-18.96,18.96Z" fill="#d8e4ef"/>
        <path d="m24.63,131.46c0,6.97,10.47,12.63,23.39,12.63s23.39-5.65,23.39-12.63-10.47-12.63-23.39-12.63-23.39,5.65-23.39,12.63Z" fill="#eef6f7"/>
        <path d="m24.63,127.48c0,6.97,10.47,12.63,23.39,12.63s23.39-5.65,23.39-12.63-10.47-12.63-23.39-12.63-23.39,5.65-23.39,12.63Z" fill="#d8e4ef"/>
        <ellipse cx="48.02" cy="125.29" rx="23.39" ry="12.63" fill="#eef6f7"/>
        <path d="m24.63,121.31c0,6.97,10.47,12.63,23.39,12.63s23.39-5.65,23.39-12.63-10.47-12.63-23.39-12.63-23.39,5.65-23.39,12.63Z" fill="#d8e4ef"/>
        <ellipse cx="48.02" cy="119.13" rx="23.39" ry="12.63" fill="#eef6f7"/>
        <path d="m24.63,115.14c0,6.97,10.47,12.63,23.39,12.63s23.39-5.65,23.39-12.63-10.47-12.63-23.39-12.63-23.39,5.65-23.39,12.63Z" fill="#d8e4ef"/>
        <path d="m24.63,112.66c0,6.97,10.47,12.63,23.39,12.63,12.92,0,23.39-5.65,23.39-12.63s-10.47-12.63-23.39-12.63-23.39,5.65-23.39,12.63Z" fill="#eef6f7"/>
        <path d="m24.63,109.27c0,6.97,10.47,12.63,23.39,12.63s23.39-7.23,23.39-12.63c0-6.97-10.47-12.63-23.39-12.63s-23.39,5.65-23.39,12.63Z" fill="#d8e4ef"/>
      </g>
      <path d="m49.23,43.99v-.92l-.63.53c-.55-.34-.86-.53-.86-.53v1.25L9.05,76.67s11.42,14.68,13.5,18.87c2.07,4.18.52,11.45,2.73,14.48,2.47,5.55,11.71,9.67,22.74,9.67s19.98-3.99,22.62-9.41c0,0,0,0,0,0,2.25-3,1.15-7.6,3.76-14.74,2.61-7.13,9.28-12.2,13.5-18.87,3.76-5.93-30.98-27.91-38.68-32.68Z" fill="#fbe081"/>
      <path d="m0,48.46C0,21.7,21.7,0,48.46,0s48.46,21.7,48.46,48.46-21.7,48.46-48.46,48.46S0,75.22,0,48.46Z" fill="#fbe081"/>
      <ellipse cx="48.02" cy="107.06" rx="23.39" ry="12.63" fill="#d8c5d0" opacity=".65"/>
      <g>
        <path d="m25.85,63.07c.24,4.44,2.4,6.65,5.95,6.15l9.25,38.93c.04.16.13.27.23.33h0s1.25,1.13,1.25,1.13c0,0,.39-1.61.39-1.67,0-.03-.15-.22-.32-.42.13-.33.18-.67.11-.94l-9.3-39.13c0-.19-.05-.35-.13-.46l-.77-2.81.56-.83-1.1-1c-.04-.06-.1-.11-.16-.14h0s0,0,0,0c-.22-.1-.52-.02-.81.25-.46.43-.73,1.18-.59,1.66l.77,2.8c-2.86-.24-3.49-3.12-3.59-5-.07-1.36.1-2.87.44-4.34l.74-.67,2.81-3.84,5.2-5.04-1.63.26c1.04-.51,2.09-.82,3.1-.88-.1.24-.2.49-.29.73-2.24,5.85-2.23,12.11.01,14.56,1.34,1.47,2.82,1.25,4.07.35h.76l2.96-4.27.23-2.68s-.15.18-.36.47c.59-2.69.5-5.64-.67-7.88-.75-1.42-1.7-2.39-2.79-2.98,1.94-2.48,4.83-6.15,4.96-6.18.1-.03.08-.33.03-.63.53-.3,1.09-.57,1.68-.81,2.28-.91,3.83-.31,4.88.83-1.26,2.09-2.35,4.34-3.17,6.52-2.31,6.21-2.04,10.84.69,12.09.64.29,1.23.31,1.76.17h0c.09-.06,2.14-.08,2.14-.08l2.79-5.92v-.97s-.37.52-.91,1.28c.79-2.91.99-6.49.43-9.7-.22-1.27-.54-2.37-.96-3.3,1.56-1.82,5.27-6.13,5.31-6.13.03,0,.07-.28.1-.57.59-.29,1.18-.49,1.75-.57,3.96-.52,5.23,3.76,4.73,7.97-.34,2.86-1.67,6.75-4.3,8.86l.58-2.81.81-.27.58-1.34-1.15-1.06h0c-.11-.11-.26-.16-.45-.12-.46.1-.94.71-1.08,1.35l-10.04,56.07c-.09.42,0,.75.2.9h0s1.21,1.12,1.21,1.12c0,0,.49-.91.58-1.03.09-.12-.1-1.19-.1-1.19l-.36.24c.06-.13.1-.27.13-.41l8.55-48.93c.33-.21.64-.45.95-.7l1.87-.36,2.56-3.11,1.08-5.57-.4.29c.21-.85.38-1.71.48-2.59.61-5.1-.97-10.29-5.85-9.64-3.06.4-6.4,3.46-9.17,7.43-1.51-1.58-3.56-1.96-5.98-.99-3.93,1.58-7.36,4.85-9.71,9.19-3.07-.02-6.57,2.04-9.39,5.24-.69.78-1.32,1.75-1.87,2.82h0s0,.02,0,.02c-1.52,2.97-2.43,6.76-2.26,9.94Zm25.35-14.72l.39.14.91-2.59,2.54-4.7c.36.92.57,1.84.69,2.52.77,4.41-.15,9.37-1.46,11.07-.19.25-.77,1-1.92.48-2.15-.98-1.8-4.33-1.15-6.92Zm-12.52,2.4h.41l1.33-2.79s.05-.06.13-.16c1.12.46,2.1,1.35,2.84,2.77,1.73,3.29.58,7.89-.87,9.82-1.33,1.77-2.55.93-3.15.27-1.56-1.71-1.78-5.71-.68-9.9Z" fill="#fff"/>
        <g>
          <path d="m52.44,58.66c-2.73-1.25-3-5.88-.69-12.09.81-2.19,1.9-4.43,3.17-6.52-1.05-1.14-2.6-1.74-4.88-.83-3.89,1.56-6.37,4.52-7.9,7.14,1.59.42,2.99,1.52,4.01,3.46,2.02,3.85.84,9.81-1.53,12.96-1.4,1.85-3.57,3.11-5.45,1.04-2.24-2.45-2.25-8.71-.01-14.56.09-.25.19-.49.29-.73-2.5.14-5.29,1.82-7.54,4.39-1.94,2.21-3.31,6.65-3.12,10.12.12,2.2.95,5.76,5.22,4.88.46-.09.72.35.57,1-.14.64-.63,1.24-1.09,1.34-3.85.79-6.19-1.43-6.44-6.07-.23-4.33,1.55-9.83,4.14-12.78,2.81-3.2,6.31-5.26,9.38-5.24,2.35-4.34,5.77-7.62,9.71-9.19,2.42-.97,4.48-.59,5.98.99,2.77-3.97,6.12-7.03,9.17-7.43,4.88-.65,6.45,4.55,5.85,9.64-.62,5.2-3.21,9.94-6.61,12.1-.49.3-.88.08-.9-.49-.02-.58.35-1.29.83-1.59,3.08-1.95,4.6-6.25,4.97-9.34.5-4.2-.77-8.49-4.73-7.97-2.52.33-5.31,2.93-7.65,6.32.65,1.1,1.14,2.52,1.44,4.24.88,5.03-.11,10.96-2.28,13.79-.32.42-.8.93-1.4,1.29-.69.4-1.54.59-2.51.15Zm.81-11.89c-.71,1.9-2.77,8.21.31,9.61,1.14.52,1.72-.23,1.92-.48,1.3-1.7,2.22-6.66,1.46-11.07-.16-.92-.48-2.27-1.11-3.47-1.02,1.74-1.9,3.6-2.57,5.41Zm-12.6,2.73c-1.9,4.96-1.93,10.23-.07,12.26.6.66,1.82,1.5,3.15-.27,1.45-1.93,2.6-6.53.87-9.82-.91-1.73-2.17-2.69-3.61-3.02-.13.3-.24.58-.34.85Z" fill="#fff"/>
          <path d="m55.36,102.4c.38-.22.72-.72.83-1.25l10.04-56.07c.13-.64-.13-1.08-.59-.97-.46.1-.94.71-1.08,1.35l-10.04,56.07c-.13.64.13,1.08.59.97.08-.02.16-.05.24-.1Z" fill="#fff"/>
          <path d="m43.09,109.55c.08-.05.16-.11.24-.18.46-.43.73-1.18.59-1.66l-10.65-44.03c-.13-.49-.62-.53-1.07-.1-.46.43-.73,1.18-.59,1.66l10.65,44.03c.11.4.46.5.83.28Z" fill="#fff"/>
        </g>
      </g>
    </g>
    <line x1="127.83" y1="49.3" x2="128" y2="40.4" fill="none" stroke="#ffffd9" stroke-linecap="round" stroke-linejoin="round" stroke-width="2.31"/>
    <line x1="133.45" y1="50.15" x2="136.93" y2="44.31" fill="none" stroke="#ffffd9" stroke-linecap="round" stroke-linejoin="round" stroke-width="2.31"/>
    <line x1="136.96" y1="54.62" x2="145.68" y2="50.84" fill="none" stroke="#ffffd9" stroke-linecap="round" stroke-linejoin="round" stroke-width="2.31"/>
    <path d="m122.37,191.29c-4.06-.57-8.29.31-10.37-.38-1.08-.34-2.01-.83-2.78-1.48-.31-.25-.52-.54-.65-.88-.06-.15-.11-.34-.14-.56-.09-.62.05-1.14.42-1.57.03-.06.08-.12.14-.19l.6-.46h.09c.31-.15.71-.26,1.2-.32.49-.09.97-.17,1.44-.23,1.48-.25,2.64-.43,3.47-.56.43-.06.83-.17,1.2-.32.12-.06.26-.12.42-.19.22-.09.43-.2.65-.32.03-.03.08-.06.14-.09.52-.22.96-.4,1.3-.56,0,.15-.02.29-.05.42-.03.19-.06.37-.09.56.03.06.08.14.14.23,1.98,3.21,4.86,4.77,8.66,4.68.34,0,.66-.03.97-.09.22-.06.42-.12.6-.19h.09c.59-.25,1.05-.86,1.39-1.85v-.09s.05.06.05.09c.28.93.43,1.78.46,2.55-.03.46-.08.83-.14,1.11v.14c-.15.43-.4.73-.74.88-3.21.83-4.42.26-8.47-.31Z" fill="#1b2b38" fill-rule="evenodd"/>
    <path d="m135.24,128.53c.77-.59,1.59-1.2,2.45-1.85.65-.56,1.16-1.03,1.53-1.44.06.52.09,1.05.09,1.57-.03.12-.15.79-.37,1.99-.15.8-.28,1.47-.37,1.99-.06.8-.29,2.67-.69,5.6-.34,2.28-.54,4.15-.6,5.6-.03,1.11-.09,2.75-.18,4.91-.06,1.79.26,3.97.97,6.53.34,1.2.57,2.58.69,4.12.03.74.05,1.77.05,3.1.03,1.3-.03,2.58-.19,3.84-.14,1.23-.31,2.41-.51,3.56-.03.16-.06.31-.09.46-.22,1.39-.43,2.76-.65,4.12-.25,1.27-.49,2.55-.74,3.84-.11.55-.21,1.09-.3,1.64-.12.65-.22,1.31-.3,1.97-.19,1.39-.45,2.75-.79,4.08-.12.37-.25.76-.37,1.16-.03,0-.05.02-.05.05-.09.31-.25.59-.46.83-.09.12-.22.23-.37.32-.19.09-.37.19-.56.28-.62.12-1.22.17-1.81.14-.12,0-.25-.02-.37-.05,0-.03-.02-.06-.05-.09v.09c-.34.99-.8,1.61-1.39,1.85h-.09c-.19.06-.39.12-.6.19-.31.06-.63.09-.97.09-3.8.09-6.68-1.47-8.66-4.68-.06-.09-.11-.17-.14-.23.03-.18.06-.37.09-.56.03-.12.05-.26.05-.42.18-1.39.25-2.86.18-4.4v-.09c-.02-.81-.05-1.62-.09-2.43-.13-2.62-.34-5.23-.65-7.85v-.09c-.14-1.6-.29-3.14-.46-4.63-.01-.16-.03-.31-.05-.46-.37-3.3-1.22-6.5-2.55-9.58-1.3-3.06-2.55-6.14-3.75-9.26-1.45-4.45-1.99-8.66-1.62-12.64-.03-.65.03-1.47.19-2.45.12-1.05.2-1.79.23-2.22.46,1.76,1.54,3.07,3.24,3.94,2.07,1.08,4.27,1.71,6.62,1.9.25,0,.51.02.79.05.22.03.43.05.65.05.59.03,1.14.05,1.67.05.86-.03,1.65-.14,2.36-.32,1.23-.28,2.52-.71,3.84-1.3l.27-7.9,2.59-.16,2.28,5.18Z" fill="#8a768e"/>
    <path d="m119.5,183.17c-.34.15-.77.34-1.3.56-.06.03-.11.06-.14.09-.49-.59-.88-1.23-1.16-1.94-.03-.03-.05-.08-.05-.14-.25-.68-.17-1.36.23-2.04.43-.74,1.02-1.08,1.76-1.02.25.03.52.06.83.09.06,1.54,0,3.01-.18,4.4Zm12.08,7.41c.06-.28.11-.65.14-1.11-.03-.77-.18-1.62-.46-2.55.12.03.25.05.37.05.59.03,1.19-.02,1.81-.14.19-.09.37-.19.56-.28.15-.09.28-.2.37-.32.03.34.08.74.14,1.2.06.52.06,1,0,1.44-.03.15-.05.34-.05.56-.06.06-.14.12-.23.19-.06.09-.14.15-.23.19-.31.25-.68.43-1.11.56-.34.06-.77.14-1.3.23Z" fill="#1b2b38" fill-rule="evenodd"/>
    <path d="m85.42,59.59c-.03-.06-.05-.12-.05-.18-.03-.15-.05-.28-.05-.37-.06-.77-.15-1.36-.28-1.76-.06-.25-.15-.45-.28-.6-.19-.31-.37-.57-.56-.79-.59-.65-1.36-1.34-2.32-2.08l-.79-.56c-.06-.03-.11-.08-.14-.14-1.67-1.33-2.89-2.25-3.66-2.78-1.11-.93-1.79-1.48-2.04-1.67l-.32.09v.32c.09.86.65,1.71,1.67,2.55.09.09.2.17.32.23.28.25.65.54,1.11.88.12.09.22.19.28.28l.19.09c.06.03.12.08.18.14v.05h.05l.32.42c.06.09.12.19.19.28l-.19.23c-.43-.12-.74.05-.93.51-.19.65-.31,1.08-.37,1.3-.52.4-.8.97-.83,1.71-.28.59-.25,1.24.09,1.95.19.4.56.97,1.11,1.71.62.8,1.57,1.51,2.87,2.13.12.09.69.34,1.71.74l.09.05c.4.15.77.23,1.11.23.25-1.27.71-2.11,1.39-2.55.28-.15.52-.28.74-.37-.4-.59-.62-1.27-.65-2.04Z" fill="#f1cfcd" fill-rule="evenodd"/>
    <path d="m151.73,120.47c-.28-.8-.48-1.42-.6-1.85-.25-.71-.4-1.33-.46-1.85.12-.99.29-2.07.51-3.24v-.05c.03-.06.05-.11.05-.14l.09-.37c-.49.12-1.08.19-1.76.19-1.27,0-2.22-.19-2.87-.56-.03.53-.11,1.02-.23,1.48,0,.12-.02.25-.05.37-.06.03-.11.08-.14.14-.43.34-.86.76-1.3,1.25-.25.25-.48.54-.69.88-.22.34-.42.69-.6,1.07-.03.19-.09.4-.19.65-.03.03-.06.09-.09.18-.06.25-.12.49-.19.74-.09.34-.19.71-.28,1.11-.06.25-.11.51-.14.79-.03.12-.05.25-.05.37.09.12.23.17.42.14s.35-.08.51-.14c.19-.06.36-.17.51-.32.09-.09.19-.19.28-.28.06-.06.11-.12.14-.19l.14-.14c.06-.18.12-.35.18-.51.06-.12.12-.23.19-.32l.05-.05c-.09.15-.14.28-.14.37,0,.68.11,1.25.32,1.71.03.06.08.14.14.23.09.15.2.32.32.51.22.31.46.49.74.56l.56.28c.12.06.25.14.37.23.19.12.36.23.51.32.15.03.28.08.37.14.03,0,.05-.02.05-.05l.28-.09c.09,0,.18-.03.28-.09.12-.09.25-.2.37-.32.56-.46.85-.71.88-.74.49-.46.86-.82,1.11-1.07.37-.43.51-.88.42-1.34Z" fill="#f1cfcd" fill-rule="evenodd"/>
    <path d="m86.07,61.62c.77-.25,1.33-.03,1.67.65.06.03.11.08.14.14.15.4.34.85.56,1.34h-.14c-.52,0-1.16.29-1.9.88-.71.62-1.19,1.2-1.44,1.76-.09.19-.18.34-.28.46,0-.06-.02-.12-.05-.19-.25-.68-.48-1.3-.69-1.85v-.28c.25-1.27.71-2.11,1.39-2.55.28-.15.52-.28.74-.37Z" fill="#fff" fill-rule="evenodd"/>
    <path d="m121.91,77.92l-.05.23c2.53.15,4.71-.26,6.53-1.25,1.33-.74,2.38-1.44,3.15-2.08l-.19-.93v-.05s.05.02.05.05c.34.09.65.2.93.32.03.09.05.18.05.28v.23c0,.34-.12.69-.37,1.06-.22.28-.54.59-.97.93-.34.22-.73.45-1.16.69-2.04,1.08-4.51,1.62-7.41,1.62-.18,0-.37-.06-.56-.18-.19-.15-.28-.37-.28-.65,0-.06.06-.14.19-.23.03-.03.06-.05.09-.05Z" fill="#fff" fill-rule="evenodd"/>
    <path d="m115.98,83.8c.34-.8.74-1.37,1.2-1.71.34-.25.65-.46.93-.65.4-.22.8-.4,1.2-.56h.05c0,.06-.02.12-.05.19.99-.34,2.42-.54,4.31-.6,1.98-.09,3.41-.26,4.31-.51,2.01-.59,3.6-1.48,4.77-2.69.34-.37.6-.71.79-1.02.19-.31.23-.66.14-1.06-.09-.31-.53-.63-1.3-.97-.28-.12-.59-.23-.93-.32.06-.06.11-.11.14-.14.18-.03.37-.06.56-.09.46-.06.93-.12,1.39-.19.56-.06,1.05.02,1.48.23.56.28.88.66.97,1.16.06.65-.08,1.34-.42,2.08-.25.49-.65,1.07-1.2,1.71-.99,1.11-2.32,2.02-3.98,2.73-1.27.56-2.82.99-4.68,1.3-.68.12-1.79.26-3.33.42-1.11.09-3.23.34-6.34.74v-.05Z" fill="#405171" fill-rule="evenodd"/>
    <path d="m95.93,72.37c.93,1.17,1.65,2.48,2.18,3.94h.05c.22.49.54.91.97,1.25.03,0,.06.03.09.09,1.14.93,2.38,1.79,3.7,2.59,1.3.8,2.61,1.65,3.94,2.55,1.14.74,2.33,1.42,3.56,2.04h.05c1.14.53,2.27,1.07,3.38,1.62.37-.49.73-.94,1.07-1.34.37-.46.73-.9,1.06-1.3v.05c3.12-.4,5.23-.65,6.34-.74,1.54-.15,2.65-.29,3.33-.42,1.85-.31,3.41-.74,4.68-1.3,1.67-.71,2.99-1.62,3.98-2.73.56-.65.96-1.22,1.2-1.71.34-.74.48-1.44.42-2.08-.09-.49-.42-.88-.97-1.16-.43-.22-.93-.29-1.48-.23-.46.06-.93.12-1.39.19l.05-.05c.19-.09.39-.22.6-.37.68-.49,1.28-.82,1.81-.97.83-.4,1.84-.59,3.01-.56.77,0,1.79.15,3.06.46.9.4,1.62.86,2.18,1.39.15.03.29.09.42.19.49.34.97.83,1.44,1.48.22.4.54,1.02.97,1.85.31.56.6,1.27.88,2.13.15.52.37,1.27.65,2.22.31.62.74,1.44,1.3,2.45.62,1.14,1.05,1.93,1.3,2.36.49,1.08,1.37,2.64,2.64,4.68.96,1.88,1.57,3.55,1.85,5,.06.62-.03,1.39-.28,2.32-.31,1.2-.49,1.96-.56,2.27-.12.99-.19,2.53-.19,4.63v4.49c-.15.25-.31.46-.46.65-.83.99-2.01,1.47-3.52,1.44h-.32c-1.27-.15-2.36-.69-3.29-1.62-.12-.12-.25-.26-.37-.42l.05-4.54c0-1.85-.19-4.07-.56-6.67-.03-.28-.15-.6-.37-.97-.06-.09-.26-.39-.6-.88-.89-1.23-1.84-2.67-2.82-4.31-.09.28-.2.57-.32.88-.86,2.25-1.44,4-1.71,5.23-.49,2.62-.71,5.2-.65,7.73.06,1.67.6,4.32,1.62,7.96.93,3.4,1.33,6.07,1.2,8.01-.12.86-.54,1.71-1.25,2.55-.15.18-.35.37-.6.56-.37.4-.88.88-1.53,1.44-.86.65-1.68,1.27-2.45,1.85-.49.31-.99.62-1.48.93-.06-.22-.11-.43-.14-.65-.37-1.82-.8-3.32-1.3-4.49-.03.43-.11,1.2-.23,2.32-.12.99-.19,1.76-.19,2.32.03.52.06,1.03.09,1.53-.65.34-1.28.65-1.9.93-1.33.59-2.61,1.02-3.84,1.3-.71.19-1.5.29-2.36.32-.53,0-1.08-.02-1.67-.05-.22,0-.43-.02-.65-.05-.28-.03-.54-.05-.79-.05-2.35-.19-4.55-.82-6.62-1.9-1.7-.86-2.78-2.18-3.24-3.94,0-.12-.02-.23-.05-.32-.28-1.33-.35-2.67-.23-4.03.22-2.25.39-4.52.51-6.81.06-.99.11-1.96.14-2.92-.09-.34-.14-.68-.14-1.02-.03-.9-.02-1.53.05-1.9.03-.74.14-1.39.32-1.94,0,.12.02.23.05.32v-.09c.09-2.41.19-4.8.28-7.18.06-1.08.05-2.13-.05-3.15-.03-.34-.05-.65-.05-.93-.52-.22-1-.46-1.44-.74-.62-.37-1.17-.77-1.67-1.2-.9-.77-1.84-1.5-2.82-2.18-.99-.71-1.98-1.44-2.96-2.18v.05c-2.19-1.64-4.37-3.24-6.53-4.81-.49-.37-1.03-.69-1.62-.97-1.61-.65-2.93-1.59-3.98-2.82-.03,0-.05-.03-.05-.09-.56-.65-.99-1.39-1.3-2.22-.37-.71-.71-1.42-1.02-2.13-.68-1.33-1.33-2.67-1.94-4.03h-.05c-.06-.22-.14-.42-.23-.6l.05-.05c-.06-.15-.14-.32-.23-.51-.65-1.54-1.22-3.09-1.71-4.63-.06-.15-.03-.32.09-.51.03-.12.14-.32.32-.6.09-.12.19-.28.28-.46.25-.56.73-1.14,1.44-1.76.74-.59,1.37-.88,1.9-.88h.42c.12-.06.23-.08.32-.05.15.09.26.19.32.28.31.49.65,1.02,1.02,1.57.03,0,.03.02,0,.05.34.49.62.87.88,1.11,1.03.95,4.68,5.65,4.68,5.65Z" fill="#40628c" fill-rule="evenodd"/>
    <path d="m117.42,61.3s.08.03.14.09c.4.65.62,1.16.65,1.53.09.4.37.73.83.97.62.25,1.05.43,1.3.56-.25.43-.43.74-.56.93-.09.25-.17.48-.23.69v.14l.05.23s.05.02.05.05c0,.09.02.19.05.28.06.28.15.56.28.83.18.46.57,1.14,1.16,2.04,0-.59.11-1.1.32-1.53.49.28.88.65,1.16,1.11.22.37.31.73.28,1.07l.14.05c.77.12,1.42.85,1.94,2.18.52,1.2.97,1.81,1.34,1.81,1.23.34,2.32.45,3.24.32.68-.09,1.28-.34,1.81-.74v-.05s.05.02.05.05c.06-.06.11-.11.14-.14.65-.49,1.19-1.2,1.62-2.13.46-.96,1.02-2.18,1.67-3.66h.05c.19-.43.37-.86.56-1.3.03-.06.06-.12.09-.19.37-.9.51-1.82.42-2.78-.12-1.3-.68-2.62-1.67-3.98-.4-.52-.85-1.08-1.34-1.67-.59-.52-1.33-1.08-2.22-1.67-.28-.19-1.05-.68-2.32-1.48-.25-.19-.55-.34-.93-.37-2.11-.16-6.31-1.45-9.17,1.58-2.87,3.03-.87,5.18-.87,5.18" fill="#452312" fill-rule="evenodd"/>
    <path d="m152.75,110.29c.06.25.12.53.19.83,0,.49-.12.9-.37,1.2-.28.31-.69.52-1.25.65-.49.12-1.08.19-1.76.19-1.27,0-2.22-.19-2.87-.56-.28-.15-.49-.34-.65-.56-.28-.37-.42-.97-.42-1.81v-.14c.93.93,2.02,1.47,3.29,1.62h.32c1.51.03,2.69-.45,3.52-1.44Zm-33.38-29.4c.19-.71.37-1.25.56-1.62.25-.65.94-1.36,2.08-2.13.03,0,.06-.02.09-.05l-.19.83s-.06.02-.09.05c-.12.09-.19.17-.19.23,0,.28.09.49.28.65.19.12.37.18.56.18,2.9,0,5.37-.54,7.41-1.62.43-.25.82-.48,1.16-.69.43-.34.76-.65.97-.93.25-.37.37-.73.37-1.06v-.23c0-.09-.02-.19-.05-.28.77.34,1.2.66,1.3.97.09.4.05.76-.14,1.06-.19.31-.45.65-.79,1.02-1.17,1.2-2.76,2.1-4.77,2.69-.9.25-2.33.42-4.31.51-1.88.06-3.32.26-4.31.6.03-.06.05-.12.05-.19Z" fill="#e8f2fd" fill-rule="evenodd"/>
    <path d="m131.35,73.89c-.52.4-1.13.65-1.81.74-.93.12-2.01.02-3.24-.32-.37,0-.82-.6-1.34-1.81-.52-1.33-1.17-2.05-1.94-2.18l-.14-.05c.03-.34-.06-.69-.28-1.07-.28-.46-.66-.83-1.16-1.11-.22.43-.32.94-.32,1.53-.59-.9-.97-1.57-1.16-2.04-.12-.28-.22-.56-.28-.83-.03-.09-.05-.18-.05-.28,0-.03-.02-.05-.05-.05l-.05-.23v-.14c.06-.22.14-.45.23-.69.12-.18.31-.49.56-.93-.25-.12-.68-.31-1.3-.56-.46-.25-.74-.57-.83-.97-.03-.37-.25-.88-.65-1.53-.06-.06-.11-.09-.14-.09-.09.19-.2.39-.32.6-.03.12-.08.26-.14.42v.09c-.09.31-.14.62-.14.93v.05c0,.86.06,1.74.19,2.64.09.8.28,1.59.56,2.36.15.71.37,1.39.65,2.04.25.65.49,1.3.74,1.95.56,1.27,1.47,1.81,2.73,1.62.37.83.51,1.79.42,2.87,0,.03-.03.12-.09.28.03,0,.06-.02.09-.05l-.19.83-.05.23c2.53.15,4.71-.26,6.53-1.25,1.33-.74,2.38-1.44,3.15-2.08l-.19-.93Z" fill="#f1cfcd" fill-rule="evenodd"/>
  </g>
</svg>