<?xml version="1.0" encoding="UTF-8"?>
<svg xmlns="http://www.w3.org/2000/svg" xmlns:xlink="http://www.w3.org/1999/xlink" viewBox="0 0 158.9 198.46">
  <defs>
    <linearGradient id="_裼_胙琅韃_32" data-name="ﾁ裼 胙琅韃 32" x1="-3426.28" y1="56.28" x2="-3417.63" y2="60.91" gradientTransform="translate(-3316.86) rotate(-180) scale(1 -1)" gradientUnits="userSpaceOnUse">
      <stop offset="0" stop-color="#ffb0c1"/>
      <stop offset=".32" stop-color="#fab"/>
      <stop offset=".72" stop-color="#ff9bac"/>
      <stop offset="1" stop-color="#ff8d9d"/>
    </linearGradient>
    <linearGradient id="linear-gradient" x1="56.64" y1="155.04" x2="61.36" y2="155.04" gradientUnits="userSpaceOnUse">
      <stop offset="0" stop-color="#d1d7f3"/>
      <stop offset=".5" stop-color="#edf0fa"/>
      <stop offset=".88" stop-color="#fff"/>
    </linearGradient>
  </defs>
  <g isolation="isolate">
    <g id="_レイヤー_2" data-name="レイヤー 2">
      <g id="_デザイン" data-name="デザイン">
        <g>
          <g>
            <path d="m145.66,129.5s.79-.06,1.03.36c.24.42.66,4,.66,4l-1.35,2.09h-.93s-.64,2.04-1.77,3.55c-.7.94-4.38,4.83-6.16,5.48-1.79.65-4.2.88-5.45-.16-1.25-1.03-.82-2.76-.82-2.76l7.28-8.58s1.51-3.31,1.86-3.61c.34-.29,1.86-1.11,1.86-1.11l3.8.73Z" fill="#d1dee8"/>
            <path d="m124.85,116.82s-1.12.25-1.32.62c-.2.37-4.55,4.53-4.55,4.53,0,0-8.06,3.25-8.83,5.66-.3.79,1.57,2.51,1.57,2.51,0,0,1.73.81,4.46.35,2.73-.47,5.87-2.45,5.87-2.45l3.01-2.55.96.93s4.25-.82,5.12-1.87c.86-1.05,0-5.23,0-5.23,0,0-.41-1.99-1.36-2.38-.96-.4-4.92-.11-4.92-.11Z" fill="#d1dee8"/>
            <path d="m129.67,118.19s.15,1.3-2.65,1.3c-2.8,0-2.65-1.3-2.65-1.3l-.22-2.62h5.73s-.22,2.62-.22,2.62Z" fill="#ffb0c1"/>
            <path d="m145.96,130.22s.15,1.3-2.65,1.3c-2.8,0-2.65-1.3-2.65-1.3l-.22-2.62h5.73s-.22,2.62-.22,2.62Z" fill="#ffb0c1"/>
            <path d="m105.44,57.92c-.08.03-2.28.94-2.28.94,0,0-7.14,7.28-6.13,7.94.89.59,4.3-4.34,4.81-3.98.53.37-4.68,5.85-3.76,6.49.97.68,4.85-5.45,5.31-5.07.46.38-3.83,5.25-2.86,5.81,1.04.6,3.73-4.56,4.36-4.04.41.34-1.97,3.69-1.3,4.07.78.44,3.39-4.23,3.39-4.23,0,0,.76-.76,1.08-1.59.32-.84,1.65-4.26,1.65-4.26l1.75-2.21-4.27-1.93-1.75,2.05Z" fill="#ffb0c1"/>
            <path d="m121.22,63.45s-.93,3.86-1.19,8.74c-.27,4.88,1.19,18.91,1.19,18.91,0,0,.44,18.03.4,28.33,2.03,2.56,10.61,2.11,11.45,1.45-.48-9.99.91-16.72-.35-29.94,2.49-4.85,1.85-26.43,1.85-26.43l-13.35-1.06Z" fill="#091946"/>
            <path d="m106.26,56.79c-1-.02-3.51.79-3.51.79l-2.28,1.49-2,2.59s.5,1.21,1.78.5c1.07-.6,1.6-1.59,1.6-1.59.58-.42.94-.52.94-.52,0,0,2.62,1.41,4.47-.56,1.26-1.34,0-2.69-.99-2.7Z" fill="url(#_裼_胙琅韃_32)"/>
            <path d="m125.62,64.85c.08.23.54,3.67,1.36,8.98,1.49,9.63,8.51,25.75,8.51,25.75,0,0,2.23,14.37,2.15,31.94,3.1,2.32,9.34,1.13,10.65.35.7-15.4,3.73-19.47.98-35.03-1.32-9.47-1.26-17.98-2.1-26.27-.53-5.28-2.63-7.12-2.63-7.12l-18.93,1.4Z" fill="#1a3474"/>
            <path d="m106.06,56.63l4.43,3.09,11.65-15.68s7-15.83,6.86-19.23c-.14-3.4-.06-7.1-2.76-6.8-2.7.3-5.32,1.37-6.79,5.51-1.29,3.64-4.06,16.18-4.06,16.18l-9.32,16.93Z" fill="#a5c3d2"/>
            <polygon points="106.76 55.37 106.06 56.63 110.49 59.72 111.61 58.21 106.76 55.37" fill="#fff"/>
            <path d="m134.84,18.28c6.77,2.02,12.93,9.14,13.47,11.37,1.44,5.92-3.58,17.01-4.28,22.5-.54,4.25,1.21,12.14,1.21,12.14,0,0-5.63,3.87-16.83,2.96-5.95-.48-7.27-3.04-7.27-3.04,0,0,1.17-10.43.86-14.79-.31-4.36-1.64-16.11-1.4-21.68.39-8.99,7.47-11.48,14.25-9.46Z" fill="#a5c3d2"/>
            <path d="m121.99,49.42c-.31-4.36-1.64-16.11-1.4-21.68.39-8.99,7.47-11.48,14.25-9.46.85.25,1.69.6,2.51.99v3.22c-4.63-.06-8.5,2.67-9.3,9.27-.68,5.53-.84,17.44-.87,21.81-.02,3.35-1.19,10.15-1.73,13.17-3.42-.9-4.31-2.53-4.31-2.53,0,0,1.17-10.43.86-14.79Z" fill="#a5c3d2"/>
            <path d="m130.54,20.92l-.06,2.72-.43.9-2.65,1.89s-.85-3.52.78-4.85c1.63-1.32,2.35-.66,2.35-.66Z" fill="#d1dee8"/>
            <polygon points="138.64 14.59 138.64 20.5 130.48 24.65 130.48 20.92 138.64 14.59" fill="#f1cfcd"/>
            <path d="m125.09,7.53l-.14,2.9c-.02.42.04.83.17,1.23l.59,1.77c.11.34.13.71.05,1.06l-.19.85c-.06.28-.06.57,0,.84l.6,2.41s-.21,2.45.32,2.83c.53.38,1.67.88,3.86.26,2.19-.61,5.43-2.1,5.84-2.54s.82-3.8.82-3.8l-1.49-6.99-4.29-1.98-6.13,1.14Z" fill="#f1cfcd"/>
            <path d="m141.05,7.55c-.16-3.06-1.15-4.48-3.09-6.03C136.01-.04,134.23.01,132.88,0c-3-.03-5.37,3.5-8.02,3.5-.1,0-1.78,4.36,1.63,5.62,3.41,1.27,5.69.68,5.69.68v2.32s.06,1.13,1.32,1.25c1.27.12,1.09,1.71,1.09,1.71,0,0-.13,1.1,1.51.96,1.51-.13,1.95-1.27,2.05-1.06h.13v1.74s0,.02,0,.02c0,0,.76,0,.8-.69.04-.69,0-1.66,0-1.66,0,0,2.12-3.78,1.97-6.83Z" fill="#000f3c"/>
            <path d="m136.45,15.95s-.12-1.47.06-2.08c.24-.81.87-1.48,1.55-1.39s.9,1.32.79,1.72c-.11.4-1.17,1.55-1.16,1.88.01.34-.18.97-.59,1-.62.05-.66-1.12-.66-1.12Z" fill="#f1cfcd"/>
            <path d="m130.48,23.65c7.82-1.28,8.16-5.37,8.16-5.37l2.42,3.27s-.53,5.14-9.02,6.19c-1.12-1.22-1.99-3.19-1.99-3.19,0,0-.14-.52.43-.9Z" fill="#d1dee8"/>
            <path d="m128.83,26.49c-3.33,8.56-3.45,25.61-3.45,25.61l1.63,3.01,3.07-3.11s-1.87-16.15.47-25.46c-.02-1.65-1.15-1.5-1.71-.05Z" fill="#7e9290"/>
            <path d="m128.05,25.98l2.01-1.43,1.17,2.1s-1.1,1.38-1.85,1.27c-.75-.11-1.33-1.94-1.33-1.94Z" fill="#7e9290"/>
            <path d="m137.72,70.94c-.75.76-2.09,4.53-2.09,4.53l-1,1.61s-.57.38-.98.68c-.91.67-.46,1.54-.46,1.54l1.73-1.03s1.17-1.23,1.32-1.33c.04.2-1.04,2.18-1.04,2.18,0,0-1.1.74-1.55,1.09-1.04.81-.39,1.65-.39,1.65l2.66-1.77s1.27-1.65,1.71-2.05c-.04.76-1.29,2.58-1.29,2.58,0,0-1.16.87-1.6,1.45-.57.75.07,1.53.07,1.53l2.56-2.53s1.44-2.08,1.64-2.31c.09.86-1.06,2.63-1.06,2.63,0,0-1.22.98-1.57,1.74-.35.75.28,1.11.28,1.11l2.48-2.55s3.07-4.74,3.25-5.85c.13-.79.03-4.38.03-4.38l.79-2.08-2.99-1.01s-1.75,1.83-2.5,2.58Z" fill="#f1cfcd"/>
            <path d="m140.28,36.3c-.54-1.87-.5-6.56,3.02-8.11,3.51-1.55,5.37.45,6.7,2.97,1.33,2.52,7.77,17.88,8.45,21.33.68,3.45-.8,5.49-.8,5.49l-14.75,13.38-4.25-1.79,11.09-15.86s-8.91-15.54-9.46-17.41Z" fill="#a5c3d2"/>
            <path d="m139.49,68.38l-.83,1.19,4.25,1.79,1.11-1s-4.15-1.82-4.52-1.98Z" fill="#fff"/>
          </g>
          <g>
            <path d="m155.73,135.13c3.83-2.21,4.25-5.56.93-7.48l-71.2-41.11c-3.32-1.92-9.12-1.68-12.95.54l-34.67,20.02,83.22,48.05,34.67-20.02Z" fill="#f1f1f6"/>
            <g>
              <path d="m.02,131.12h0v.16c0-.05,0-.1,0-.16Z" fill="#ced3f8"/>
              <path d="m158.88,131.12c-.1,1.4-1.16,2.86-3.15,4.01l-34.67,20.02v2.47l-34.67,20.02c-3.83,2.21-9.63,2.45-12.95.54L2.24,137.06c-1.43-.82-2.16-1.91-2.23-3.06v18.33h.04c-.22,1.39.49,2.75,2.2,3.74l71.2,41.11c3.32,1.92,9.12,1.68,12.95-.54l69.34-40.03c2.12-1.22,3.19-2.79,3.17-4.27h0v-21.21h-.02Z" fill="#396f8d"/>
              <path d="m73.44,178.16L2.24,137.06c-1.43-.82-2.16-1.91-2.23-3.06v2.47c.07,1.15.8,2.24,2.23,3.06l71.2,41.11c3.32,1.92,9.12,1.68,12.95-.54l34.67-20.02v-2.47l-34.67,20.02c-3.83,2.21-9.63,2.45-12.95.54Z" fill="#6992a8"/>
              <path d="m158.88,131.12c-.1,1.4-1.16,2.86-3.15,4.01l-34.67,20.02v4.93l34.67-20.02c1.99-1.15,3.05-2.61,3.15-4.01h.02v-4.93h-.02Z" fill="#bbc0e6"/>
            </g>
            <path d="m45.72,114.11l-7.88-4.55L3.17,129.58c-3.83,2.21-4.25,5.56-.93,7.48l71.2,41.11c3.32,1.92,9.12,1.68,12.95-.54l34.67-20.02-66.48-38.38-8.87-5.12Z" fill="#819ebe"/>
            <polygon points="54.58 119.23 121.06 157.61 121.06 155.15 37.84 107.1 37.84 109.56 54.58 119.23" fill="#ced3f8"/>
            <rect x="56.64" y="154.24" width="4.71" height="1.61" fill="url(#linear-gradient)" mix-blend-mode="multiply"/>
            <g>
              <polygon points="86.02 138.89 84.72 138.14 84.72 135.67 86.02 136.42 86.02 138.89" fill="#ccd1f6"/>
              <polygon points="87.33 138.14 86.02 138.89 86.02 136.42 87.33 135.67 87.33 138.14" fill="#b9bee4"/>
              <polygon points="86.02 136.42 84.72 135.67 86.02 134.92 87.33 135.67 86.02 136.42" fill="#f4f4f9"/>
            </g>
            <g>
              <polygon points="75.31 145.07 74.01 144.32 74.01 141.86 75.31 142.61 75.31 145.07" fill="#ccd1f6"/>
              <polygon points="76.61 144.32 75.31 145.07 75.31 142.61 76.61 141.85 76.61 144.32" fill="#b9bee4"/>
              <polygon points="75.31 142.61 74.01 141.85 75.31 141.1 76.61 141.85 75.31 142.61" fill="#f4f4f9"/>
            </g>
            <g>
              <polygon points="56.64 155.85 55.34 155.1 55.34 152.63 56.64 153.38 56.64 155.85" fill="#ccd1f6"/>
              <polygon points="57.94 155.1 56.64 155.85 56.64 153.38 57.94 152.63 57.94 155.1" fill="#b9bee4"/>
              <polygon points="56.64 153.38 55.34 152.63 56.64 151.88 57.94 152.63 56.64 153.38" fill="#f4f4f9"/>
            </g>
            <g>
              <polygon points="45.72 162.16 44.42 161.41 44.42 158.94 45.72 159.69 45.72 162.16" fill="#ccd1f6"/>
              <polygon points="47.02 161.41 45.72 162.16 45.72 159.69 47.02 158.94 47.02 161.41" fill="#b9bee4"/>
              <polygon points="45.72 159.69 44.42 158.94 45.72 158.19 47.02 158.94 45.72 159.69" fill="#f4f4f9"/>
            </g>
            <g>
              <polygon points="34.9 155.91 33.6 155.16 33.6 152.7 34.9 153.45 34.9 155.91" fill="#ccd1f6"/>
              <polygon points="36.2 155.16 34.9 155.91 34.9 153.45 36.2 152.7 36.2 155.16" fill="#b9bee4"/>
              <polygon points="34.9 153.45 33.6 152.7 34.9 151.95 36.2 152.7 34.9 153.45" fill="#f4f4f9"/>
            </g>
            <g>
              <polygon points="41.41 158.07 37.9 156.05 37.9 155.18 41.41 157.21 41.41 158.07" fill="#ccd1f6"/>
              <polygon points="42.71 157.32 41.41 158.07 41.41 157.21 42.71 156.46 42.71 157.32" fill="#b9bee4"/>
              <polygon points="41.41 157.21 37.9 155.18 39.2 154.43 42.71 156.46 41.41 157.21" fill="#f4f4f9"/>
            </g>
            <g>
              <polygon points="116.82 104.03 33.6 152.08 45.72 159.07 128.93 111.03 116.82 104.03" fill="#f6f6fb"/>
              <polygon points="128.93 111.03 45.72 159.07 45.72 159.69 128.93 111.65 128.93 111.03" fill="#ced3f8"/>
              <polygon points="45.51 102.05 82.88 123.63 82.34 123.94 45.51 102.67 45.51 102.05" fill="#ced3f8"/>
              <polygon points="45.72 159.07 33.6 152.08 33.6 152.7 45.72 159.69 45.72 159.07" fill="#dfe4f4"/>
            </g>
            <g>
              <g>
                <polygon points="88.7 131.48 44.59 156.94 45.34 157.38 89.45 131.91 88.7 131.48" fill="#fff"/>
                <polygon points="89.45 131.91 45.34 157.38 45.34 158.86 89.45 133.39 89.45 131.91" fill="#ced3f8"/>
                <polygon points="45.34 157.38 44.59 156.94 44.59 158.42 45.34 158.86 45.34 157.38" fill="#dfe4f4"/>
              </g>
              <polygon points="45.94 157.45 46.48 157.14 46.48 158.2 45.94 158.51 45.94 157.45" fill="#bbc0e6"/>
              <polygon points="47 156.84 47.54 156.53 47.54 157.59 47 157.9 47 156.84" fill="#bbc0e6"/>
              <polygon points="48.06 156.23 48.59 155.92 48.59 156.98 48.06 157.29 48.06 156.23" fill="#bbc0e6"/>
              <polygon points="49.11 155.62 49.65 155.3 49.65 156.37 49.11 156.68 49.11 155.62" fill="#bbc0e6"/>
              <polygon points="50.17 155 50.71 154.69 50.71 155.76 50.17 156.07 50.17 155" fill="#bbc0e6"/>
              <polygon points="51.23 154.39 51.77 154.08 51.77 155.15 51.23 155.46 51.23 154.39" fill="#bbc0e6"/>
              <polygon points="52.29 153.78 52.83 153.47 52.83 154.54 52.29 154.85 52.29 153.78" fill="#bbc0e6"/>
              <polygon points="53.35 153.17 53.88 152.86 53.88 153.93 53.35 154.24 53.35 153.17" fill="#bbc0e6"/>
              <polygon points="54.4 152.56 54.94 152.25 54.94 153.31 54.4 153.63 54.4 152.56" fill="#bbc0e6"/>
              <polygon points="55.46 151.95 56 151.64 56 152.7 55.46 153.01 55.46 151.95" fill="#bbc0e6"/>
              <polygon points="56.52 151.34 57.06 151.03 57.06 152.09 56.52 152.4 56.52 151.34" fill="#bbc0e6"/>
              <polygon points="57.58 150.73 58.12 150.42 58.12 151.48 57.58 151.79 57.58 150.73" fill="#bbc0e6"/>
              <polygon points="58.63 150.12 59.17 149.81 59.17 150.87 58.63 151.18 58.63 150.12" fill="#bbc0e6"/>
              <polygon points="59.69 149.51 60.23 149.2 60.23 150.26 59.69 150.57 59.69 149.51" fill="#bbc0e6"/>
              <polygon points="60.75 148.9 61.29 148.59 61.29 149.65 60.75 149.96 60.75 148.9" fill="#bbc0e6"/>
              <polygon points="61.81 148.29 62.35 147.98 62.35 149.04 61.81 149.35 61.81 148.29" fill="#bbc0e6"/>
              <polygon points="62.87 147.67 63.4 147.36 63.4 148.43 62.87 148.74 62.87 147.67" fill="#bbc0e6"/>
              <polygon points="63.92 147.06 64.46 146.75 64.46 147.82 63.92 148.13 63.92 147.06" fill="#bbc0e6"/>
              <polygon points="64.98 146.45 65.52 146.14 65.52 147.21 64.98 147.52 64.98 146.45" fill="#bbc0e6"/>
              <polygon points="66.04 145.84 66.58 145.53 66.58 146.6 66.04 146.91 66.04 145.84" fill="#bbc0e6"/>
              <polygon points="67.1 145.23 67.64 144.92 67.64 145.98 67.1 146.3 67.1 145.23" fill="#bbc0e6"/>
              <polygon points="68.16 144.62 68.69 144.31 68.69 145.37 68.16 145.68 68.16 144.62" fill="#bbc0e6"/>
              <polygon points="69.21 144.01 69.75 143.7 69.75 144.76 69.21 145.07 69.21 144.01" fill="#bbc0e6"/>
              <polygon points="70.27 143.4 70.81 143.09 70.81 144.15 70.27 144.46 70.27 143.4" fill="#bbc0e6"/>
              <polygon points="71.33 142.79 71.87 142.48 71.87 143.54 71.33 143.85 71.33 142.79" fill="#bbc0e6"/>
              <polygon points="72.39 142.18 72.93 141.87 72.93 142.93 72.39 143.24 72.39 142.18" fill="#bbc0e6"/>
              <polygon points="73.45 141.57 73.98 141.26 73.98 142.32 73.45 142.63 73.45 141.57" fill="#bbc0e6"/>
              <polygon points="74.5 140.96 75.04 140.65 75.04 141.71 74.5 142.02 74.5 140.96" fill="#bbc0e6"/>
              <polygon points="75.56 140.35 76.1 140.03 76.1 141.1 75.56 141.41 75.56 140.35" fill="#bbc0e6"/>
              <polygon points="76.62 139.73 77.16 139.42 77.16 140.49 76.62 140.8 76.62 139.73" fill="#bbc0e6"/>
              <polygon points="77.68 139.12 78.22 138.81 78.22 139.88 77.68 140.19 77.68 139.12" fill="#bbc0e6"/>
              <polygon points="78.74 138.51 79.27 138.2 79.27 139.27 78.74 139.58 78.74 138.51" fill="#bbc0e6"/>
              <polygon points="79.79 137.9 80.33 137.59 80.33 138.66 79.79 138.97 79.79 137.9" fill="#bbc0e6"/>
              <polygon points="80.85 137.29 81.39 136.98 81.39 138.04 80.85 138.36 80.85 137.29" fill="#bbc0e6"/>
              <polygon points="81.91 136.68 82.45 136.37 82.45 137.43 81.91 137.74 81.91 136.68" fill="#bbc0e6"/>
              <polygon points="82.97 136.07 83.51 135.76 83.51 136.82 82.97 137.13 82.97 136.07" fill="#bbc0e6"/>
              <polygon points="84.02 135.46 84.56 135.15 84.56 136.21 84.02 136.52 84.02 135.46" fill="#bbc0e6"/>
              <polygon points="85.08 134.85 85.62 134.54 85.62 135.6 85.08 135.91 85.08 134.85" fill="#bbc0e6"/>
              <polygon points="86.14 134.24 86.68 133.93 86.68 134.99 86.14 135.3 86.14 134.24" fill="#bbc0e6"/>
              <polygon points="87.2 133.63 87.74 133.32 87.74 134.38 87.2 134.69 87.2 133.63" fill="#bbc0e6"/>
              <polygon points="88.26 133.02 88.79 132.71 88.79 133.77 88.26 134.08 88.26 133.02" fill="#bbc0e6"/>
            </g>
            <g>
              <g>
                <polygon points="78.08 125.35 33.97 150.81 34.72 151.25 78.83 125.78 78.08 125.35" fill="#fff"/>
                <polygon points="78.83 125.78 34.72 151.25 34.72 152.73 78.83 127.26 78.83 125.78" fill="#ced3f8"/>
                <polygon points="34.72 151.25 33.97 150.81 33.97 152.29 34.72 152.73 34.72 151.25" fill="#dfe4f4"/>
              </g>
              <polygon points="35.32 151.32 35.86 151.01 35.86 152.07 35.32 152.38 35.32 151.32" fill="#bbc0e6"/>
              <polygon points="36.38 150.71 36.92 150.39 36.92 151.46 36.38 151.77 36.38 150.71" fill="#bbc0e6"/>
              <polygon points="37.44 150.09 37.97 149.78 37.97 150.85 37.44 151.16 37.44 150.09" fill="#bbc0e6"/>
              <polygon points="38.49 149.48 39.03 149.17 39.03 150.24 38.49 150.55 38.49 149.48" fill="#bbc0e6"/>
              <polygon points="39.55 148.87 40.09 148.56 40.09 149.63 39.55 149.94 39.55 148.87" fill="#bbc0e6"/>
              <polygon points="40.61 148.26 41.15 147.95 41.15 149.02 40.61 149.33 40.61 148.26" fill="#bbc0e6"/>
              <polygon points="41.67 147.65 42.21 147.34 42.21 148.4 41.67 148.72 41.67 147.65" fill="#bbc0e6"/>
              <polygon points="42.73 147.04 43.26 146.73 43.26 147.79 42.73 148.1 42.73 147.04" fill="#bbc0e6"/>
              <polygon points="43.78 146.43 44.32 146.12 44.32 147.18 43.78 147.49 43.78 146.43" fill="#bbc0e6"/>
              <polygon points="44.84 145.82 45.38 145.51 45.38 146.57 44.84 146.88 44.84 145.82" fill="#bbc0e6"/>
              <polygon points="45.9 145.21 46.44 144.9 46.44 145.96 45.9 146.27 45.9 145.21" fill="#bbc0e6"/>
              <polygon points="46.96 144.6 47.5 144.29 47.5 145.35 46.96 145.66 46.96 144.6" fill="#bbc0e6"/>
              <polygon points="48.02 143.99 48.55 143.68 48.55 144.74 48.02 145.05 48.02 143.99" fill="#bbc0e6"/>
              <polygon points="49.07 143.38 49.61 143.07 49.61 144.13 49.07 144.44 49.07 143.38" fill="#bbc0e6"/>
              <polygon points="50.13 142.77 50.67 142.45 50.67 143.52 50.13 143.83 50.13 142.77" fill="#bbc0e6"/>
              <polygon points="51.19 142.15 51.73 141.84 51.73 142.91 51.19 143.22 51.19 142.15" fill="#bbc0e6"/>
              <polygon points="52.25 141.54 52.79 141.23 52.79 142.3 52.25 142.61 52.25 141.54" fill="#bbc0e6"/>
              <polygon points="53.3 140.93 53.84 140.62 53.84 141.69 53.3 142 53.3 140.93" fill="#bbc0e6"/>
              <polygon points="54.36 140.32 54.9 140.01 54.9 141.08 54.36 141.39 54.36 140.32" fill="#bbc0e6"/>
              <polygon points="55.42 139.71 55.96 139.4 55.96 140.46 55.42 140.78 55.42 139.71" fill="#bbc0e6"/>
              <polygon points="56.48 139.1 57.02 138.79 57.02 139.85 56.48 140.16 56.48 139.1" fill="#bbc0e6"/>
              <polygon points="57.54 138.49 58.07 138.18 58.07 139.24 57.54 139.55 57.54 138.49" fill="#bbc0e6"/>
              <polygon points="58.59 137.88 59.13 137.57 59.13 138.63 58.59 138.94 58.59 137.88" fill="#bbc0e6"/>
              <polygon points="59.65 137.27 60.19 136.96 60.19 138.02 59.65 138.33 59.65 137.27" fill="#bbc0e6"/>
              <polygon points="60.71 136.66 61.25 136.35 61.25 137.41 60.71 137.72 60.71 136.66" fill="#bbc0e6"/>
              <polygon points="61.77 136.05 62.31 135.74 62.31 136.8 61.77 137.11 61.77 136.05" fill="#bbc0e6"/>
              <polygon points="62.83 135.44 63.36 135.13 63.36 136.19 62.83 136.5 62.83 135.44" fill="#bbc0e6"/>
              <polygon points="63.88 134.83 64.42 134.51 64.42 135.58 63.88 135.89 63.88 134.83" fill="#bbc0e6"/>
              <polygon points="64.94 134.21 65.48 133.9 65.48 134.97 64.94 135.28 64.94 134.21" fill="#bbc0e6"/>
              <polygon points="66 133.6 66.54 133.29 66.54 134.36 66 134.67 66 133.6" fill="#bbc0e6"/>
              <polygon points="67.06 132.99 67.6 132.68 67.6 133.75 67.06 134.06 67.06 132.99" fill="#bbc0e6"/>
              <polygon points="68.12 132.38 68.65 132.07 68.65 133.13 68.12 133.45 68.12 132.38" fill="#bbc0e6"/>
              <polygon points="69.17 131.77 69.71 131.46 69.71 132.52 69.17 132.83 69.17 131.77" fill="#bbc0e6"/>
              <polygon points="70.23 131.16 70.77 130.85 70.77 131.91 70.23 132.22 70.23 131.16" fill="#bbc0e6"/>
              <polygon points="71.29 130.55 71.83 130.24 71.83 131.3 71.29 131.61 71.29 130.55" fill="#bbc0e6"/>
              <polygon points="72.35 129.94 72.89 129.63 72.89 130.69 72.35 131 72.35 129.94" fill="#bbc0e6"/>
              <polygon points="73.41 129.33 73.94 129.02 73.94 130.08 73.41 130.39 73.41 129.33" fill="#bbc0e6"/>
              <polygon points="74.46 128.72 75 128.41 75 129.47 74.46 129.78 74.46 128.72" fill="#bbc0e6"/>
              <polygon points="75.52 128.11 76.06 127.8 76.06 128.86 75.52 129.17 75.52 128.11" fill="#bbc0e6"/>
              <polygon points="76.58 127.5 77.12 127.18 77.12 128.25 76.58 128.56 76.58 127.5" fill="#bbc0e6"/>
              <polygon points="77.64 126.88 78.18 126.57 78.18 127.64 77.64 127.95 77.64 126.88" fill="#bbc0e6"/>
            </g>
            <polygon points="34.19 151.5 34.5 151.68 34.5 152.04 34.19 151.86 34.19 151.5" fill="#bbc0e6"/>
            <polygon points="44.81 157.63 45.12 157.81 45.12 158.17 44.81 157.99 44.81 157.63" fill="#bbc0e6"/>
            <polygon points="38.57 155.82 38.88 156 38.88 156.37 38.57 156.18 38.57 155.82" fill="#bbc0e6"/>
            <polygon points="39.16 156.16 39.47 156.34 39.47 156.71 39.16 156.52 39.16 156.16" fill="#bbc0e6"/>
            <polygon points="39.75 156.5 40.06 156.68 40.06 157.05 39.75 156.87 39.75 156.5" fill="#bbc0e6"/>
            <polygon points="40.34 156.84 40.65 157.02 40.65 157.39 40.34 157.21 40.34 156.84" fill="#bbc0e6"/>
            <g>
              <path d="m108.91,153.8l-5.29-7.84s-5.37,7.96-5.4,8.02c-.22.36-.33.73-.33,1.11,0,.85.56,1.69,1.68,2.34,2.24,1.29,5.87,1.29,8.11,0,1.12-.65,1.68-1.49,1.68-2.34,0-.44-.15-.87-.45-1.28Z" fill="#469280"/>
              <path d="m108.26,150.63l-4.63-6.87-4.63,6.87c-.26.36-.39.74-.39,1.12,0,.74.49,1.48,1.47,2.05,1.96,1.13,5.15,1.13,7.11,0,.98-.57,1.47-1.31,1.47-2.05,0-.38-.13-.76-.39-1.12Z" fill="#6ea178"/>
              <path d="m107.67,148.01s-4.04-6-4.04-6c0,0-4.02,5.96-4.04,6-.16.27-.25.55-.25.83,0,.63.42,1.27,1.26,1.75,1.68.97,4.39.97,6.07,0,.84-.48,1.26-1.12,1.26-1.75,0-.28-.08-.56-.25-.83Z" fill="#86b883"/>
            </g>
            <g>
              <path d="m67.98,158.68l-5.29-7.84s-5.37,7.96-5.4,8.02c-.22.36-.33.73-.33,1.11,0,.85.56,1.69,1.68,2.34,2.24,1.29,5.87,1.29,8.11,0,1.12-.65,1.68-1.49,1.68-2.34,0-.44-.15-.87-.45-1.28Z" fill="#469280"/>
              <path d="m67.33,155.51l-4.63-6.87-4.63,6.87c-.26.36-.39.74-.39,1.12,0,.74.49,1.48,1.47,2.05,1.96,1.13,5.15,1.13,7.11,0,.98-.57,1.47-1.31,1.47-2.05,0-.38-.13-.76-.39-1.12Z" fill="#6ea178"/>
              <path d="m66.74,152.89s-4.04-6-4.04-6c0,0-4.02,5.96-4.04,6-.16.27-.25.55-.25.83,0,.63.42,1.27,1.26,1.75,1.68.97,4.39.97,6.07,0,.84-.48,1.26-1.12,1.26-1.75,0-.28-.08-.56-.25-.83Z" fill="#86b883"/>
            </g>
            <g>
              <path d="m64.19,128.75l-5.29-7.84s-5.37,7.96-5.4,8.02c-.22.36-.33.73-.33,1.11,0,.85.56,1.69,1.68,2.34,2.24,1.29,5.87,1.29,8.11,0,1.12-.65,1.68-1.49,1.68-2.34,0-.44-.15-.87-.45-1.28Z" fill="#469280"/>
              <path d="m63.54,125.58l-4.63-6.87-4.63,6.87c-.26.36-.39.74-.39,1.12,0,.74.49,1.48,1.47,2.05,1.96,1.13,5.15,1.13,7.11,0,.98-.57,1.47-1.31,1.47-2.05,0-.38-.13-.76-.39-1.12Z" fill="#6ea178"/>
              <path d="m62.95,122.96s-4.04-6-4.04-6c0,0-4.02,5.96-4.04,6-.16.27-.25.55-.25.83,0,.63.42,1.27,1.26,1.75,1.68.97,4.39.97,6.07,0,.84-.48,1.26-1.12,1.26-1.75,0-.28-.08-.56-.25-.83Z" fill="#86b883"/>
            </g>
            <g>
              <path d="m19.2,129.7l-5.29-7.84s-5.37,7.96-5.4,8.02c-.22.36-.33.73-.33,1.11,0,.85.56,1.69,1.68,2.34,2.24,1.29,5.87,1.29,8.11,0,1.12-.65,1.68-1.49,1.68-2.34,0-.44-.15-.87-.45-1.28Z" fill="#469280"/>
              <path d="m18.55,126.52l-4.63-6.87-4.63,6.87c-.26.36-.39.74-.39,1.12,0,.74.49,1.48,1.47,2.05,1.96,1.13,5.15,1.13,7.11,0,.98-.57,1.47-1.31,1.47-2.05,0-.38-.13-.76-.39-1.12Z" fill="#6ea178"/>
              <path d="m17.96,123.9s-4.04-6-4.04-6c0,0-4.02,5.96-4.04,6-.16.27-.25.55-.25.83,0,.63.42,1.27,1.26,1.75,1.68.97,4.39.97,6.07,0,.84-.48,1.26-1.12,1.26-1.75,0-.28-.08-.56-.25-.83Z" fill="#86b883"/>
            </g>
            <g>
              <polygon points="87.69 108.8 70.92 99.12 70.92 92.71 87.69 102.39 87.69 108.8" fill="#ced3f8"/>
              <polygon points="96.73 103.58 87.69 108.8 87.69 102.39 96.73 97.17 96.73 103.58" fill="#bbc0e6"/>
              <polygon points="87.69 102.39 70.92 92.71 79.96 87.49 96.73 97.17 87.69 102.39" fill="#fff"/>
              <g mix-blend-mode="multiply">
                <polygon points="72.88 95.28 73.81 95.81 73.81 96.89 72.88 96.35 72.88 95.28" fill="#f1f1f6"/>
                <polygon points="75.24 96.64 76.17 97.17 76.17 98.25 75.24 97.71 75.24 96.64" fill="#f1f1f6"/>
                <polygon points="77.59 98 78.53 98.53 78.53 99.61 77.59 99.07 77.59 98" fill="#f1f1f6"/>
                <polygon points="79.95 99.36 80.88 99.9 80.88 100.97 79.95 100.43 79.95 99.36" fill="#f1f1f6"/>
                <polygon points="82.31 100.72 83.24 101.26 83.24 102.33 82.31 101.79 82.31 100.72" fill="#f1f1f6"/>
                <polygon points="84.67 102.08 85.6 102.62 85.6 103.69 84.67 103.15 84.67 102.08" fill="#f1f1f6"/>
                <polygon points="72.88 97.82 73.81 98.36 73.81 99.43 72.88 98.89 72.88 97.82" fill="#f1f1f6"/>
                <polygon points="75.24 99.18 76.17 99.72 76.17 100.79 75.24 100.26 75.24 99.18" fill="#f1f1f6"/>
                <polygon points="77.59 100.54 78.53 101.08 78.53 102.15 77.59 101.62 77.59 100.54" fill="#f1f1f6"/>
                <polygon points="79.95 101.9 80.88 102.44 80.88 103.51 79.95 102.98 79.95 101.9" fill="#f1f1f6"/>
                <polygon points="82.31 103.26 83.24 103.8 83.24 104.87 82.31 104.34 82.31 103.26" fill="#f1f1f6"/>
                <polygon points="84.67 104.62 85.6 105.16 85.6 106.23 84.67 105.7 84.67 104.62" fill="#f1f1f6"/>
              </g>
              <g mix-blend-mode="multiply">
                <polygon points="95.3 99.43 94.36 99.97 94.36 101.05 95.3 100.51 95.3 99.43" fill="#f1f1f6"/>
                <polygon points="92.94 100.79 92.01 101.33 92.01 102.41 92.94 101.87 92.94 100.79" fill="#f1f1f6"/>
                <polygon points="90.58 102.15 89.65 102.69 89.65 103.77 90.58 103.23 90.58 102.15" fill="#f1f1f6"/>
                <polygon points="95.3 101.98 94.36 102.51 94.36 103.59 95.3 103.05 95.3 101.98" fill="#f1f1f6"/>
                <polygon points="92.94 103.34 92.01 103.87 92.01 104.95 92.94 104.41 92.94 103.34" fill="#f1f1f6"/>
                <polygon points="90.58 104.7 89.65 105.24 89.65 106.31 90.58 105.77 90.58 104.7" fill="#f1f1f6"/>
              </g>
            </g>
            <g>
              <path d="m89.3,106.52c0-.7.12-1.3.33-1.79-1.68-.18-2.87,1.03-2.87,3.25,0,2.92,2.05,6.47,4.58,7.93,1.92,1.11,3.57.69,4.24-.86-.53-.06-1.11-.25-1.72-.6-2.53-1.46-4.58-5.01-4.58-7.93Z" fill="#b5402d"/>
              <path d="m100.74,105.2c-3.79-6.56-9.94-10.12-13.73-7.93l-2.53,1.46c3.79-2.19,9.94,1.36,13.73,7.93,3.79,6.56,3.79,13.65,0,15.85l2.52-1.45c3.79-2.19,3.79-9.29,0-15.85Z" fill="#b5402d"/>
              <path d="m98.21,106.67c-3.79-6.56-9.94-10.12-13.73-7.93-3.79,2.19-3.79,9.28,0,15.85l6.86,11.89,6.86-3.96c3.79-2.19,3.79-9.28,0-15.85Zm-6.86,9.25c-2.53-1.46-4.58-5.01-4.58-7.93s2.05-4.1,4.58-2.65c2.53,1.46,4.58,5.01,4.58,7.93s-2.05,4.1-4.58,2.64Z" fill="#d1554e"/>
            </g>
            <g>
              <polygon points="132.28 127.77 111.93 139.52 111.93 128.12 132.28 116.37 132.28 127.77" fill="#bbc0e6"/>
              <g mix-blend-mode="multiply">
                <polygon points="131.17 119.08 130.24 119.61 130.24 120.69 131.17 120.15 131.17 119.08" fill="#f1f1f6"/>
                <polygon points="128.81 120.44 127.88 120.98 127.88 122.05 128.81 121.51 128.81 120.44" fill="#f1f1f6"/>
                <polygon points="126.45 121.8 125.52 122.34 125.52 123.41 126.45 122.87 126.45 121.8" fill="#f1f1f6"/>
                <polygon points="124.1 123.16 123.16 123.7 123.16 124.77 124.1 124.23 124.1 123.16" fill="#f1f1f6"/>
                <polygon points="131.17 121.62 130.24 122.16 130.24 123.23 131.17 122.7 131.17 121.62" fill="#f1f1f6"/>
                <polygon points="128.81 122.98 127.88 123.52 127.88 124.59 128.81 124.06 128.81 122.98" fill="#f1f1f6"/>
                <polygon points="126.45 124.34 125.52 124.88 125.52 125.95 126.45 125.42 126.45 124.34" fill="#f1f1f6"/>
                <polygon points="124.1 125.7 123.16 126.24 123.16 127.31 124.1 126.78 124.1 125.7" fill="#f1f1f6"/>
                <polygon points="131.17 124.16 130.24 124.7 130.24 125.78 131.17 125.24 131.17 124.16" fill="#f1f1f6"/>
                <polygon points="128.81 125.52 127.88 126.06 127.88 127.14 128.81 126.6 128.81 125.52" fill="#f1f1f6"/>
                <polygon points="126.45 126.88 125.52 127.42 125.52 128.5 126.45 127.96 126.45 126.88" fill="#f1f1f6"/>
                <polygon points="124.1 128.24 123.16 128.78 123.16 129.86 124.1 129.32 124.1 128.24" fill="#f1f1f6"/>
              </g>
              <polygon points="111.93 128.12 111.93 128.12 102.19 122.5 102.19 133.9 111.93 139.52 111.93 139.52 121.66 145.14 121.66 133.74 111.93 128.12" fill="#ced3f8"/>
              <polygon points="130.7 139.92 121.66 145.14 121.66 133.74 130.7 128.52 130.7 139.92" fill="#bbc0e6"/>
              <polygon points="132.28 116.37 122.54 110.75 102.19 122.5 121.66 133.74 130.7 128.52 120.97 122.9 132.28 116.37" fill="#fff"/>
            </g>
            <g mix-blend-mode="multiply">
              <polygon points="104.11 126.3 105.04 126.84 105.04 127.91 104.11 127.38 104.11 126.3" fill="#f1f1f6"/>
              <polygon points="106.47 127.66 107.4 128.2 107.4 129.27 106.47 128.74 106.47 127.66" fill="#f1f1f6"/>
              <polygon points="108.82 129.02 109.76 129.56 109.76 130.63 108.82 130.1 108.82 129.02" fill="#f1f1f6"/>
              <polygon points="111.18 130.38 112.11 130.92 112.11 131.99 111.18 131.46 111.18 130.38" fill="#f1f1f6"/>
              <polygon points="113.54 131.74 114.47 132.28 114.47 133.35 113.54 132.82 113.54 131.74" fill="#f1f1f6"/>
              <polygon points="115.9 133.1 116.83 133.64 116.83 134.72 115.9 134.18 115.9 133.1" fill="#f1f1f6"/>
              <polygon points="118.25 134.46 119.18 135 119.18 136.08 118.25 135.54 118.25 134.46" fill="#f1f1f6"/>
              <polygon points="104.11 128.84 105.04 129.38 105.04 130.46 104.11 129.92 104.11 128.84" fill="#f1f1f6"/>
              <polygon points="106.47 130.2 107.4 130.74 107.4 131.82 106.47 131.28 106.47 130.2" fill="#f1f1f6"/>
              <polygon points="108.82 131.56 109.76 132.1 109.76 133.18 108.82 132.64 108.82 131.56" fill="#f1f1f6"/>
              <polygon points="111.18 132.92 112.11 133.46 112.11 134.54 111.18 134 111.18 132.92" fill="#f1f1f6"/>
              <polygon points="113.54 134.28 114.47 134.82 114.47 135.9 113.54 135.36 113.54 134.28" fill="#f1f1f6"/>
              <polygon points="115.9 135.64 116.83 136.18 116.83 137.26 115.9 136.72 115.9 135.64" fill="#f1f1f6"/>
              <polygon points="118.25 137 119.18 137.54 119.18 138.62 118.25 138.08 118.25 137" fill="#f1f1f6"/>
              <polygon points="104.11 131.39 105.04 131.92 105.04 133 104.11 132.46 104.11 131.39" fill="#f1f1f6"/>
              <polygon points="106.47 132.75 107.4 133.28 107.4 134.36 106.47 133.82 106.47 132.75" fill="#f1f1f6"/>
              <polygon points="108.82 134.11 109.76 134.64 109.76 135.72 108.82 135.18 108.82 134.11" fill="#f1f1f6"/>
              <polygon points="111.18 135.47 112.11 136 112.11 137.08 111.18 136.54 111.18 135.47" fill="#f1f1f6"/>
              <polygon points="113.54 136.83 114.47 137.36 114.47 138.44 113.54 137.9 113.54 136.83" fill="#f1f1f6"/>
              <polygon points="115.9 138.19 116.83 138.73 116.83 139.8 115.9 139.26 115.9 138.19" fill="#f1f1f6"/>
              <polygon points="118.25 139.55 119.18 140.09 119.18 141.16 118.25 140.62 118.25 139.55" fill="#f1f1f6"/>
            </g>
            <g mix-blend-mode="multiply">
              <polygon points="129.2 132.06 128.27 132.6 128.27 133.68 129.2 133.14 129.2 132.06" fill="#f1f1f6"/>
              <polygon points="126.85 133.42 125.91 133.96 125.91 135.04 126.85 134.5 126.85 133.42" fill="#f1f1f6"/>
              <polygon points="124.49 134.78 123.56 135.32 123.56 136.4 124.49 135.86 124.49 134.78" fill="#f1f1f6"/>
              <polygon points="129.2 134.6 128.27 135.14 128.27 136.22 129.2 135.68 129.2 134.6" fill="#f1f1f6"/>
              <polygon points="126.85 135.96 125.91 136.5 125.91 137.58 126.85 137.04 126.85 135.96" fill="#f1f1f6"/>
              <polygon points="124.49 137.33 123.56 137.86 123.56 138.94 124.49 138.4 124.49 137.33" fill="#f1f1f6"/>
              <polygon points="129.2 137.15 128.27 137.69 128.27 138.76 129.2 138.22 129.2 137.15" fill="#f1f1f6"/>
              <polygon points="126.85 138.51 125.91 139.05 125.91 140.12 126.85 139.58 126.85 138.51" fill="#f1f1f6"/>
              <polygon points="124.49 139.87 123.56 140.41 123.56 141.48 124.49 140.94 124.49 139.87" fill="#f1f1f6"/>
            </g>
            <g>
              <polygon points="143.87 137.03 136.2 132.6 136.2 126.19 143.87 130.61 143.87 137.03" fill="#ced3f8"/>
              <polygon points="151.05 133.02 143.87 137.03 143.87 130.61 151.05 126.61 151.05 133.02" fill="#bbc0e6"/>
              <polygon points="143.87 130.61 136.2 126.19 143.39 122.19 151.05 126.61 143.87 130.61" fill="#fff"/>
              <g mix-blend-mode="multiply">
                <polygon points="138.33 128.79 139.27 129.33 139.27 130.41 138.33 129.87 138.33 128.79" fill="#f1f1f6"/>
                <polygon points="140.69 130.15 141.62 130.69 141.62 131.77 140.69 131.23 140.69 130.15" fill="#f1f1f6"/>
                <polygon points="138.33 131.34 139.27 131.87 139.27 132.95 138.33 132.41 138.33 131.34" fill="#f1f1f6"/>
                <polygon points="140.69 132.7 141.62 133.23 141.62 134.31 140.69 133.77 140.69 132.7" fill="#f1f1f6"/>
              </g>
              <g mix-blend-mode="multiply">
                <polygon points="149.4 128.79 148.47 129.33 148.47 130.41 149.4 129.87 149.4 128.79" fill="#f1f1f6"/>
                <polygon points="147.05 130.15 146.12 130.69 146.12 131.77 147.05 131.23 147.05 130.15" fill="#f1f1f6"/>
                <polygon points="149.4 131.34 148.47 131.87 148.47 132.95 149.4 132.41 149.4 131.34" fill="#f1f1f6"/>
                <polygon points="147.05 132.7 146.12 133.23 146.12 134.31 147.05 133.77 147.05 132.7" fill="#f1f1f6"/>
              </g>
            </g>
          </g>
          <g>
            <polygon points="138.64 36.61 123.68 45.25 123.68 86.14 138.64 77.5 138.64 36.61" fill="#ced3f8"/>
            <polygon points="93.75 68.86 123.68 86.14 123.68 45.25 93.75 27.97 93.75 68.86" fill="#bbc0e6"/>
            <path d="m123.68,45.25l14.96-8.64-29.93-17.28-14.96,8.64,29.93,17.28Z" fill="#f6f6fb"/>
          </g>
          <g>
            <polygon points="121.53 70.13 119.78 71.14 119.78 85.91 121.53 84.9 121.53 70.13" fill="#ced3f8"/>
            <polygon points="94.36 71.23 119.78 85.91 119.78 71.14 94.36 56.46 94.36 71.23" fill="#bbc0e6"/>
            <path d="m119.78,71.14l1.75-1.01-25.42-14.68-1.75,1.01,25.42,14.68Z" fill="#f6f6fb"/>
          </g>
          <polygon points="121.53 70.13 119.78 71.14 94.36 56.46 96.11 55.45 121.53 70.13" fill="#dae0f5" mix-blend-mode="multiply"/>
          <g mix-blend-mode="multiply">
            <polygon points="116.03 83.74 116.03 71.68 117.28 72.41 117.28 84.46 116.03 83.74" fill="#d8def3"/>
            <polygon points="112.82 81.88 112.82 69.83 114.07 70.55 114.07 82.61 112.82 81.88" fill="#d8def3"/>
            <polygon points="109.61 80.03 109.61 67.98 110.86 68.7 110.86 80.75 109.61 80.03" fill="#d8def3"/>
            <polygon points="106.4 78.18 106.4 66.12 107.65 66.84 107.65 78.9 106.4 78.18" fill="#d8def3"/>
            <polygon points="103.18 76.32 103.18 64.27 104.44 64.99 104.43 77.04 103.18 76.32" fill="#d8def3"/>
            <polygon points="99.97 74.47 99.97 62.41 101.22 63.14 101.22 75.19 99.97 74.47" fill="#d8def3"/>
            <polygon points="96.76 72.61 96.76 60.56 98.01 61.28 98.01 73.34 96.76 72.61" fill="#d8def3"/>
          </g>
          <g mix-blend-mode="multiply">
            <polygon points="101.83 40.86 100.07 39.85 100.07 37.81 101.83 38.83 101.83 40.86" fill="#d8def3"/>
            <polygon points="107.02 43.86 105.26 42.85 105.26 40.81 107.02 41.83 107.02 43.86" fill="#d8def3"/>
            <polygon points="112.21 46.86 110.45 45.84 110.45 43.81 112.21 44.83 112.21 46.86" fill="#d8def3"/>
            <polygon points="117.41 49.86 115.65 48.84 115.65 46.81 117.41 47.83 117.41 49.86" fill="#d8def3"/>
            <polygon points="101.83 45.48 100.07 44.47 100.07 42.43 101.83 43.45 101.83 45.48" fill="#d8def3"/>
            <polygon points="107.02 48.48 105.26 47.46 105.26 45.43 107.02 46.45 107.02 48.48" fill="#d8def3"/>
            <polygon points="112.21 51.48 110.45 50.46 110.45 48.43 112.21 49.45 112.21 51.48" fill="#d8def3"/>
            <polygon points="117.41 54.48 115.65 53.46 115.65 51.43 117.41 52.44 117.41 54.48" fill="#d8def3"/>
            <polygon points="101.83 50.1 100.07 49.08 100.07 47.05 101.83 48.07 101.83 50.1" fill="#d8def3"/>
            <polygon points="107.02 53.1 105.26 52.08 105.26 50.05 107.02 51.07 107.02 53.1" fill="#d8def3"/>
            <polygon points="112.21 56.1 110.45 55.08 110.45 53.05 112.21 54.06 112.21 56.1" fill="#d8def3"/>
            <polygon points="117.41 59.1 115.65 58.08 115.65 56.05 117.41 57.06 117.41 59.1" fill="#d8def3"/>
            <polygon points="101.83 54.72 100.07 53.7 100.07 51.67 101.83 52.68 101.83 54.72" fill="#d8def3"/>
            <polygon points="107.02 57.72 105.26 56.7 105.26 54.67 107.02 55.68 107.02 57.72" fill="#d8def3"/>
            <polygon points="112.21 60.72 110.45 59.7 110.45 57.67 112.21 58.68 112.21 60.72" fill="#d8def3"/>
            <polygon points="117.41 63.72 115.65 62.7 115.65 60.66 117.41 61.68 117.41 63.72" fill="#d8def3"/>
            <polygon points="130.28 49.04 132.04 48.03 132.04 45.99 130.28 47.01 130.28 49.04" fill="#d8def3"/>
            <polygon points="130.28 53.66 132.04 52.64 132.04 50.61 130.28 51.63 130.28 53.66" fill="#d8def3"/>
            <polygon points="130.28 58.28 132.04 57.26 132.04 55.23 130.28 56.25 130.28 58.28" fill="#d8def3"/>
            <polygon points="130.28 62.9 132.04 61.88 132.04 59.85 130.28 60.86 130.28 62.9" fill="#d8def3"/>
            <polygon points="130.28 67.32 132.04 66.31 132.04 64.27 130.28 65.29 130.28 67.32" fill="#d8def3"/>
            <polygon points="130.28 71.75 132.04 70.73 132.04 68.7 130.28 69.72 130.28 71.75" fill="#d8def3"/>
            <polygon points="130.28 76.18 132.04 75.16 132.04 73.13 130.28 74.14 130.28 76.18" fill="#d8def3"/>
          </g>
          <path d="m141.09,71.43s-1.41-.68-2.3.45c-.56.71-.62,2.14-.62,2.14,0,0-.14.69-1.04.8-2.85.33-1.84,2.46-1.84,2.46l3.19-.91,2.37-1.53s2.79-2.29.24-3.41Z" fill="#f1cfcd"/>
        </g>
      </g>
    </g>
  </g>
</svg>