<?xml version="1.0" encoding="UTF-8"?>
<svg xmlns="http://www.w3.org/2000/svg" viewBox="0 0 86.42 132.53">
  <g isolation="isolate">
    <g id="_レイヤー_2" data-name="レイヤー 2">
      <g id="_デザイン" data-name="デザイン">
        <g>
          <path d="m27.97,125.85c0-3.69,7.39-6.68,16.5-6.68s16.5,2.99,16.5,6.68-7.39,6.68-16.5,6.68-16.5-2.99-16.5-6.68Z" fill="#8a8c8e" mix-blend-mode="multiply" opacity=".4"/>
          <path d="m74.82,12.16C66.79,4.68,58.69,1.77,52,.74,49.41.34,45.94,0,42.48,0c-2.89,0-5.78.28-8.14.65-6.69,1.04-16.35,5.11-22.79,11.41C2.03,21.36-5.42,39.63,5.19,62.84c10.29,22.5,36.44,53.85,38.03,55.74,0,0,27.33-32.44,37.95-55.65,10.62-23.21,3.38-41.72-6.35-50.78Zm-32.1,49.86c-10.18,0-18.44-8.25-18.44-18.44s8.26-18.44,18.44-18.44,18.44,8.25,18.44,18.44-8.26,18.44-18.44,18.44Z" fill="#50a76a"/>
        </g>
      </g>
    </g>
  </g>
</svg>