<?xml version="1.0" encoding="UTF-8"?>
<svg xmlns="http://www.w3.org/2000/svg" viewBox="0 0 455.81 731.39">
  <g isolation="isolate">
    <g id="_レイヤー_2" data-name="レイヤー 2">
      <g id="_デザイン" data-name="デザイン">
        <g>
          <g>
            <path d="m40.5,711.01c-.94,1.34-1.92,2.4-3.38,3.7-1.22,1.13-3.07,2.54-4.54,3.36-.22.14-.38.22-.55.22-.14,0-.29-.07-.41-.24-.48-.58-1.3-1.15-1.97-1.42,2.45-1.34,3.96-2.35,5.59-3.79,1.42-1.25,2.57-2.4,3.53-3.72l-4.2.02c-1.25,0-2.59.05-3.84.12-.22.02-.31-.14-.34-.41-.1-.46-.14-1.44-.19-2.33,1.44.1,2.86.12,4.3.12h5.71l-.1-2.14c-.05-1.2-.17-2.06-.38-2.83,1.3.05,2.28.12,3.02.26.24.05.31.14.31.29,0,.1-.05.22-.1.36-.07.29-.17.67-.1,2.21l.07,1.82h2.09c1.68,0,2.88-.05,4.66-.12.24,0,.36.12.36.29.02.67.02,1.42,0,2.09,0,.19-.1.34-.34.34-1.75-.07-3.12-.12-4.61-.12h-1.94l.43,9.02c.07,1.27-.36,2.06-1.15,2.54-.82.48-2.21.84-3.31.84-.46,0-.62-.1-.74-.41-.38-.89-.79-1.44-1.68-2.14,1.8-.02,2.57-.07,3.38-.24.55-.12.74-.36.7-1.42l-.29-6.29Z"/>
            <path d="m57.68,706.74c-1.56,0-2.93.07-3.96.12-.31.02-.41-.14-.46-.48-.07-.48-.17-1.73-.22-2.42,1.08.12,2.35.17,4.61.17h8.57c.72,0,.98-.05,1.32-.24.12-.07.24-.1.36-.1.14,0,.29.05.46.12.65.41,1.3,1.01,1.75,1.58.12.14.17.26.17.41,0,.22-.12.41-.34.6-.22.22-.34.46-.55.94-1.18,2.83-2.64,5.47-4.66,7.8-2.06,2.35-4.39,4.34-6.82,5.71-.22.14-.43.22-.65.22-.19,0-.41-.07-.6-.26-.55-.53-1.34-.96-2.23-1.32,3.5-1.78,5.64-3.43,7.85-6,1.87-2.14,3.1-4.18,4.06-6.84h-8.66Z"/>
            <path d="m82.04,717.56c0,1.15.05,2.69.07,3.91.02.29-.12.41-.41.43-.62.05-1.32.05-1.94,0-.26-.02-.41-.14-.38-.43.02-1.37.07-2.57.07-3.84v-4.1c-1.63,1.37-3.74,2.83-4.97,3.46-.1.07-.22.1-.31.1-.17,0-.36-.1-.48-.24-.43-.5-1.08-.98-1.73-1.2,3.77-1.97,7.03-4.49,9.96-7.8.55-.65.96-1.25,1.27-2.06.82.48,1.82,1.1,2.21,1.44.17.14.26.31.26.43,0,.17-.12.34-.36.46-.31.17-.86.74-1.08.98-.62.72-1.34,1.51-2.18,2.33v6.14Z"/>
            <path d="m101.86,704.03c.86,0,1.3-.02,1.66-.22.1-.07.17-.1.26-.1.14,0,.26.1.41.19.55.43,1.1,1.06,1.56,1.68.07.12.12.22.12.31,0,.14-.1.31-.31.48-.31.26-.62.62-.89,1.06-.98,1.68-1.92,3.02-3.07,4.49,2.3,1.7,4.44,3.58,6.65,5.81.12.12.19.24.19.34s-.05.22-.17.36c-.46.55-1.01,1.13-1.61,1.63-.1.1-.19.14-.29.14-.12,0-.22-.07-.34-.19-2.02-2.35-4.08-4.25-6.24-5.95-2.71,2.83-5.45,4.87-8.07,6.34-.22.1-.38.19-.55.19-.14,0-.29-.07-.41-.22-.53-.65-1.22-1.13-2.02-1.56,3.74-1.9,5.98-3.6,8.45-6.12,1.73-1.8,3.05-3.5,4.51-6.02l-6.19.02c-1.25,0-2.5.05-3.79.14-.19.02-.26-.14-.31-.41-.12-.5-.22-1.66-.22-2.5,1.3.1,2.5.1,4.06.1h6.6Z"/>
            <path d="m116.5,709.79c2.11-.7,3.94-1.39,5.86-2.33,1.3-.62,1.9-1.01,2.57-1.73.84.7,1.63,1.68,1.99,2.16.12.14.19.29.19.43,0,.19-.12.36-.41.43-.67.17-1.34.5-1.99.79-2.38,1.08-5.06,2.04-8.23,2.98v3.19c0,1.13.17,1.51.79,1.7.62.17,1.56.26,3.02.26,2.26,0,4.27-.17,6.77-.55.36-.05.41.05.43.34.07.67.14,1.58.14,2.09,0,.31-.14.41-.5.43-2.71.34-4.1.43-7.13.43-2.14,0-3.55-.22-4.56-.65-1.2-.5-1.7-1.63-1.7-3.6v-8.86c0-2.28-.05-3.19-.24-4.39,1.13.12,2.26.26,3.02.48.29.07.38.22.38.38s-.07.34-.17.5c-.19.38-.24,1.03-.24,2.16v3.34Zm10.03-6.94c.12-.1.22-.07.36.05.74.58,1.61,1.54,2.28,2.57.1.14.1.26-.07.38l-1.01.74c-.17.12-.29.1-.41-.07-.72-1.1-1.49-2.02-2.42-2.78l1.27-.89Zm2.14-1.56c.14-.1.22-.07.36.05.89.67,1.75,1.63,2.28,2.47.1.14.12.29-.07.43l-.96.74c-.19.14-.31.07-.41-.07-.65-1.03-1.42-1.94-2.4-2.76l1.2-.86Z"/>
            <path d="m139.35,705.49c.41.12.46.41.31.74-.26.53-.29,1.06-.29,1.63-.05,3-.5,5.28-1.3,7.06-.62,1.46-1.68,3.02-3.41,4.51-.24.19-.43.31-.62.31-.14,0-.29-.07-.46-.19-.6-.41-1.18-.7-2.04-1.01,1.87-1.42,3.14-2.88,3.98-4.78.67-1.63.98-2.95,1.01-6.79,0-.91-.05-1.3-.24-2.02,1.37.17,2.47.34,3.05.53Zm5.33,10.15c1.18-.62,2.28-1.37,3.41-2.23,1.44-1.1,2.86-2.38,4.2-4.08.1.84.34,1.63.74,2.42.07.17.14.29.14.41,0,.17-.1.34-.36.6-1.2,1.22-2.3,2.21-3.55,3.14-1.25.96-2.59,1.9-4.27,2.88-.43.29-.48.34-.7.5-.14.12-.31.19-.48.19-.14,0-.31-.07-.5-.19-.53-.36-1.08-.98-1.44-1.46-.14-.22-.22-.36-.22-.5,0-.12.02-.22.1-.36.17-.31.14-.6.14-1.82v-7.51c0-2.09,0-3.07-.24-4.18.96.12,2.28.29,3,.5.31.07.43.22.43.41,0,.14-.07.36-.19.6-.22.46-.22.94-.22,2.66v8.02Z"/>
            <path d="m168.13,717.25c0,.26-.14.38-.46.43-.31.05-1.03.12-1.7.12-.22,0-.31-.14-.31-.38,0-.86,0-2.06.02-2.93-2.14,1.1-2.9,2.04-2.9,3.19,0,1.01.82,1.66,3.34,1.66,2.21,0,4.13-.22,5.98-.48.22-.02.31.05.34.26.12.55.22,1.39.22,1.97.02.29-.07.46-.26.46-2.06.26-3.62.31-5.95.31-3.94,0-6.02-1.18-6.02-3.96,0-2.3,1.44-3.98,5.06-5.86-.07-1.22-.36-1.7-1.44-1.66-1.13.05-2.21.77-3.31,1.73-1.03,1.01-1.63,1.7-2.4,2.62-.12.14-.19.22-.29.22-.07,0-.17-.07-.26-.17-.34-.34-1.06-1.08-1.37-1.58-.07-.1-.1-.17-.1-.22,0-.1.05-.17.17-.26,1.85-1.66,3.62-3.55,5.02-5.95-1.13.05-2.42.07-3.84.07-.22,0-.29-.12-.34-.38-.07-.38-.17-1.27-.24-1.99,1.82.1,3.7.07,5.52-.02.26-.65.48-1.22.72-2.06.1-.41.17-.82.17-1.46,1.06.17,2.11.43,2.74.67.19.07.29.24.29.41,0,.12-.05.26-.17.36-.14.12-.29.34-.41.58-.14.34-.26.65-.55,1.3,1.46-.17,2.93-.41,4.37-.74.26-.05.34.02.38.24.12.48.22,1.03.24,1.73.02.24-.07.34-.41.38-1.8.26-3.86.53-5.62.72-.55.89-1.08,1.78-1.8,2.66l.02.05c.77-.5,1.75-.74,2.4-.74,1.58,0,2.69.72,2.93,2.59.94-.43,2.3-1.06,3.53-1.68.46-.24,1.22-.67,1.82-1.3.79.84,1.42,1.68,1.68,2.11.14.22.19.38.19.53,0,.19-.12.29-.36.34-.5.07-.98.19-1.46.36-1.56.55-3.12,1.08-5.16,1.92v3.86Z"/>
            <path d="m187.18,703.67c0-1.34-.05-2.21-.19-3.07.89.02,1.85.07,2.66.17.22.02.41.12.41.29s-.05.34-.12.48c-.12.29-.19.82-.19,1.94v1.8h4.66c2.3,0,3.1-.05,3.26-.05.24,0,.26.02.26.26,0,.14-.05.89-.05,2.98v2.78c0,3.84.05,4.54.05,4.68,0,.24-.02.26-.26.26h-2.04c-.24,0-.26-.02-.26-.26v-1.01h-5.62v2.95c0,2.86.05,4.32.05,4.44,0,.24-.02.26-.26.26h-2.14c-.24,0-.26-.02-.26-.26,0-.14.05-1.56.05-4.39v-3h-5.3v1.1c0,.26-.02.29-.26.29h-2.04c-.24,0-.26-.02-.26-.29,0-.14.05-.86.05-4.7v-2.47c0-2.45-.05-3.22-.05-3.36,0-.24.02-.26.26-.26.17,0,.96.05,3.26.05h4.34v-1.61Zm-5.3,8.93h5.3v-4.99h-5.3v4.99Zm7.87-4.99v4.99h5.62v-4.99h-5.62Z"/>
            <path d="m206.22,709.86c.34.1.38.14.36.38-.41,3.07-1.06,5.38-2.21,8.16-.1.22-.17.29-.5.14l-1.75-.79c-.34-.17-.36-.26-.26-.46,1.18-2.47,1.82-4.8,2.23-7.7.05-.29.07-.29.43-.17l1.7.43Zm4.61,8.3c0,.55.14.89.46,1.03.29.14.86.24,2.09.24s1.9-.12,2.28-.5c.53-.46.7-1.1.7-3.89.58.34,1.27.58,1.99.77q.62.17.6.79c-.1,2.71-.46,3.72-1.3,4.39-.91.74-2.16,1.01-4.46,1.01-2.42,0-3.41-.19-3.98-.58-.65-.41-.98-.98-.98-2.38v-9.22c0-1.25-.02-1.94-.14-2.74.86.02,1.75.12,2.54.24.38.05.53.19.53.36s-.05.26-.14.43c-.12.22-.17.53-.17,1.7v8.33Zm-1.18-17.02c.19-.26.24-.29.48-.22,2.14.74,4.39,1.75,6.53,3.12.24.14.24.19.07.48l-1.01,1.73c-.19.34-.24.36-.46.22-2.04-1.42-4.44-2.66-6.55-3.41-.14-.05-.19-.07-.19-.14s.05-.14.12-.29l1.01-1.49Zm10.34,7.68c.31-.12.36-.14.48.1,1.42,2.35,2.54,5.02,3.24,7.34.07.26.05.31-.26.48l-1.82.89c-.34.17-.41.17-.48-.1-.65-2.59-1.71-5.21-3.1-7.56-.12-.22-.07-.31.24-.43l1.7-.72Z"/>
            <path d="m233.1,701.96c.29.07.43.19.43.38,0,.34-.17.67-.17,1.01,0,.48.07,1.06.12,1.61.22,1.68.46,2.88.77,4.13,1.2-.65,2.06-1.1,3.41-1.82.7-.41,1.27-.82,1.66-1.3.77.79,1.39,1.63,1.75,2.26.1.14.17.34.17.5,0,.24-.14.43-.48.48-.72.12-1.54.41-2.3.72-2.06.84-3.98,1.73-5.64,2.81-2.09,1.37-2.83,2.5-2.83,3.62,0,1.42,1.06,2.02,3.82,2.02,3.02,0,5.47-.22,7.32-.55.26-.05.38,0,.43.29.12.65.19,1.51.24,2.23.02.26-.14.38-.43.41-2.18.29-4.1.36-7.15.36-4.54,0-6.94-1.49-6.94-4.61,0-2.66,1.75-4.42,4.56-6.19-.58-1.85-1.01-4.01-1.25-5.86-.17-1.27-.34-2.11-.62-2.78,1.15,0,2.26.07,3.14.29Z"/>
            <path d="m250.18,702.2c.41.1.58.22.58.46,0,.26-.14.55-.24.79-.12.34-.22,1.08-.34,2.93-.24,3.7-.36,6.14-.36,9.29,0,2.42.29,2.98,2.21,2.98,2.14,0,5.47-1.3,8.4-4.42.1.91.31,1.7.55,2.28.12.26.19.43.19.58,0,.22-.1.41-.48.74-2.59,2.38-5.98,3.6-9.1,3.6s-4.51-1.22-4.51-4.9c0-4.03.22-7.49.34-10.37.05-1.42.12-2.95-.24-4.39,1.1.12,2.26.24,3,.43Z"/>
            <path d="m275.67,704.89c.26-.07.36.05.38.24.07.53.14,1.22.17,1.73.02.31-.05.38-.36.46-1.49.41-2.71.67-4.18.91-1.63,5.33-2.86,9-4.39,12.99-.12.34-.26.31-.53.24-.24-.1-1.42-.6-1.92-.89-.19-.12-.26-.31-.19-.48,1.82-4.2,2.98-7.37,4.15-11.38-1.39.14-3.07.26-4.2.26-.36,0-.46-.07-.5-.38-.1-.5-.22-1.32-.34-2.18.5.07.79.07,1.78.07,1.2,0,2.5-.07,3.89-.24.24-.96.43-2.02.6-3,.1-.72.14-1.44.14-2.21,1.27.19,2.26.36,3.02.67.19.07.26.24.26.38,0,.1,0,.22-.12.38-.19.34-.38.58-.5.96-.24.86-.41,1.68-.58,2.28.94-.17,2.23-.48,3.41-.82Zm-.94,11.47c.24,0,.34.1.36.34.19,1.75,1.37,2.26,3.67,2.26,1.34,0,3.07-.22,4.03-.34.19-.02.26.02.29.22.1.62.19,1.44.19,2.09.02.29,0,.36-.38.38-.82.12-2.38.26-3.26.26-3.14,0-4.78-.43-5.86-1.56-.77-.77-1.03-1.9-1.08-3.29.74-.19,1.73-.36,2.04-.36Zm-.26-6.36c0-.34.07-.41.43-.48,1.51-.31,3.29-.55,4.68-.55.94,0,1.97.1,2.81.24.34.05.41.07.41.36.05.6.05,1.27.02,1.92,0,.41-.12.5-.46.43-.84-.17-1.94-.29-2.98-.29-1.44,0-3.26.24-4.82.55-.05-.84-.1-1.7-.1-2.18Z"/>
            <path d="m297.75,715.86h3.43c1.61,0,3.22-.05,4.85-.1.26-.02.38.1.38.38.02.62.02,1.3,0,1.92,0,.31-.07.43-.36.43-1.15-.05-3.29-.1-4.85-.1h-9.65c-.98,0-2.54.07-4.42.1-.38.02-.43-.07-.5-.48-.1-.53-.17-1.39-.17-2.26,1.73.1,3.55.12,5.09.12h3.26v-8.21h-1.87c-1.73,0-2.74.05-3.72.1-.29.02-.34-.14-.41-.5-.1-.48-.19-1.42-.19-2.23,1.2.12,2.16.1,4.15.1h6.79c1.46,0,2.78,0,4.2-.07.24-.02.31.12.31.38.02.6.02,1.27,0,1.87-.02.31-.07.46-.34.46-1.61-.07-2.78-.1-4.13-.1h-1.87v8.19Z"/>
            <path d="m311.41,705.68c0-1.66-.07-2.57-.26-3.5,1.01.12,2.28.26,2.98.5.29.07.41.22.41.38,0,.12-.05.24-.1.36-.22.46-.26,1.06-.26,2.28v4.85c0,1.25.05,2.18.07,3.02,0,.36-.14.48-.53.48h-1.92c-.34,0-.48-.12-.46-.41,0-.84.07-2.23.07-3.26v-4.7Zm11.3,4.49c0,3.55-.53,5.93-1.94,7.82-1.18,1.56-3.26,3.02-5.28,3.77-.19.07-.36.12-.5.12-.19,0-.36-.07-.58-.29-.58-.58-1.2-1.03-2.04-1.46,2.57-.79,4.58-1.92,5.86-3.5,1.1-1.37,1.61-3.36,1.61-6.41v-4.54c0-2.06-.05-2.83-.26-3.91,1.15.1,2.3.26,3.12.53.24.07.34.22.34.41,0,.12-.02.26-.1.38-.22.5-.22,1.13-.22,2.62v4.46Z"/>
            <path d="m332.91,705.99c-1.37,0-2.83.1-4.25.19-.29.02-.38-.14-.43-.36-.19-.67-.34-1.87-.43-2.59,1.63.12,2.95.17,4.87.17h10.3c1.01,0,1.42-.05,1.66-.14.12-.05.34-.17.46-.17.19,0,.38.14.55.34.53.46.98.96,1.44,1.51.12.14.19.29.19.43,0,.19-.12.36-.34.5-.26.19-.46.43-.65.7-1.13,1.7-2.62,3.36-4.22,4.63-.14.14-.31.22-.5.22s-.41-.1-.58-.24c-.6-.48-1.2-.74-1.99-.98,1.92-1.44,3.1-2.47,4.3-4.2h-10.37Zm1.34,9.36c.91-1.7,1.18-3.34,1.18-5.66,0-.89-.05-1.44-.24-2.26,1.18.12,2.42.29,3.1.46.31.07.41.24.41.46,0,.14-.05.29-.12.43-.17.34-.19.58-.22.98-.07,2.33-.31,4.46-1.42,6.6-.94,1.8-2.38,3.5-4.37,4.78-.22.14-.43.24-.67.24-.17,0-.34-.07-.48-.22-.58-.5-1.27-.89-2.18-1.22,2.62-1.37,3.98-2.66,5.02-4.58Z"/>
          </g>
          <polyline points="10.75 730.41 .98 730.41 .98 694.13 10.75 694.13" fill="none" stroke="#000" stroke-miterlimit="10" stroke-width="1.96"/>
          <polyline points="358.98 730.41 368.75 730.41 368.75 694.13 358.98 694.13" fill="none" stroke="#000" stroke-miterlimit="10" stroke-width="1.96"/>
        </g>
        <circle cx="391.57" cy="466.71" r="57.6" fill="#ffffcd"/>
        <circle cx="391.57" cy="611.14" r="57.6" fill="#ffffcd"/>
        <path d="m333.38,587.21c-11.84,28.77-.86,62.57,26.82,78.55,30.16,17.42,68.73,7.08,86.15-23.08,17.42-30.16,7.08-68.73-23.08-86.15-27.98-16.15-63.19-8.43-82.05,16.85l-27.37-15.8" fill="none" stroke="#50a76a" stroke-miterlimit="10" stroke-width="2"/>
        <path d="m333.38,490.64c-11.84-28.77-.86-62.57,26.82-78.55,30.16-17.42,68.73-7.08,86.15,23.08,17.42,30.16,7.08,68.73-23.08,86.15-27.98,16.15-63.19,8.43-82.05-16.85l-27.37,15.8" fill="none" stroke="#50a76a" stroke-miterlimit="10" stroke-width="2"/>
        <g>
          <path d="m348.28,603.27c0-.77.02-1.87.05-2.78-.38.36-.77.72-1.18,1.06-.24.19-.41.31-.5.31-.14,0-.24-.17-.31-.53-.12-.65-.36-1.25-.62-1.7,1.9-1.51,3.24-3.1,4.3-4.85.22-.36.41-.79.6-1.25.6.34,1.2.74,1.73,1.13.24.19.34.29.34.48,0,.17-.05.24-.26.36-.22.12-.41.38-.67.79-.29.5-.65,1.06-1.06,1.61v8.9c0,1.92.05,2.83.05,2.95,0,.24-.02.26-.26.26h-1.97c-.24,0-.26-.02-.26-.26,0-.14.05-1.03.05-2.95v-3.53Zm3.84-14.09c.22.17.34.29.34.46,0,.14-.07.24-.24.31-.24.1-.46.36-.72.7-1.03,1.39-2.18,2.57-3.79,3.89-.24.19-.38.29-.5.29-.14,0-.24-.17-.38-.55-.26-.72-.58-1.25-.89-1.63,1.61-1.08,2.62-2.09,3.6-3.46.34-.43.55-.77.67-1.1.72.31,1.3.67,1.92,1.1Zm5.9,13.78v2.38c1.03-.19,2.11-.41,3.22-.67-.1.38-.14.82-.14,1.27,0,.72-.02.74-.74.94-2.26.53-4.15.91-6.26,1.27-.53.1-.98.24-1.15.34-.14.1-.29.19-.46.19-.1,0-.19-.12-.26-.34-.19-.58-.41-1.44-.55-2.23.79,0,1.44-.05,2.16-.14l1.85-.24v-2.76h-.34c-1.78,0-2.33.05-2.47.05-.24,0-.26-.02-.26-.29v-1.61c0-.24.02-.26.26-.26.14,0,.7.05,2.47.05h.34v-.19c0-.7-.02-1.39-.17-2.18.89.02,1.58.07,2.4.19.26.02.41.12.41.26,0,.19-.07.29-.14.48-.1.22-.14.55-.14,1.01v.43h.26c1.78,0,2.33-.05,2.47-.05.24,0,.26.02.26.26v1.61c0,.26-.02.29-.26.29-.14,0-.7-.05-2.47-.05h-.26Zm.05-9.65v2.52h.41c1.9,0,2.47-.05,2.62-.05.24,0,.26.02.26.26v1.7c0,.22-.02.24-.26.24-.14,0-.72-.05-2.62-.05h-3.38c-1.87,0-2.47.05-2.64.05-.24,0-.26-.02-.26-.24v-1.7c0-.24.02-.26.26-.26.17,0,.79.05,2.66.05h.58v-2.52h-.24c-1.73,0-2.26.05-2.4.05-.24,0-.26-.02-.26-.26v-1.63c0-.24.02-.26.26-.26.14,0,.67.05,2.4.05h.24v-.77c0-.86,0-1.56-.14-2.33.86.02,1.56.07,2.4.19.24,0,.38.1.38.24,0,.19-.07.31-.14.48-.07.24-.12.6-.12,1.25v.94h.24c1.75,0,2.28-.05,2.42-.05.24,0,.26.02.26.26v1.63c0,.24-.02.26-.26.26-.14,0-.67-.05-2.42-.05h-.24Zm8.11,8.83c0,2.54.05,3.72.05,4.7,0,1.08-.17,1.87-.79,2.33-.53.41-1.25.53-3.14.53-.74,0-.77,0-.86-.79-.07-.6-.26-1.27-.48-1.75.84.14,1.37.17,1.99.17s.82-.22.82-.96v-9.27c-1.25,0-1.66.05-1.78.05-.26,0-.29-.02-.29-.29v-1.8c0-.24.02-.26.29-.26.14,0,.58.05,2.04.05h1.97c1.49,0,1.9-.05,2.04-.05.24,0,.26.02.26.26v1.8c0,.26-.02.29-.26.29-.14,0-.55-.05-1.85-.05v5.04Zm-.38-12.5c1.34,0,1.73-.05,1.87-.05.22,0,.24.02.24.26v1.82c0,.24-.02.26-.24.26-.14,0-.53-.05-1.87-.05h-1.73c-1.34,0-1.73.05-1.87.05-.24,0-.26-.02-.26-.26v-1.82c0-.24.02-.26.26-.26.14,0,.53.05,1.87.05h1.73Z" fill="#50a76a"/>
          <path d="m382.19,593.57c1.58-.5,2.81-.67,4.22-.67,3.1,0,5.06,1.8,5.06,4.44,0,3.1-2.28,4.99-6.19,4.99-.48,0-.74,0-1.06-.02-.43-.02-.55-.14-.65-.43-.29-.89-.55-1.56-1.18-2.3,1.06.17,1.75.24,2.66.24,2.21,0,3.6-.98,3.6-2.66,0-1.27-.96-1.97-2.5-1.97-1.27,0-2.28.26-3.55.67-1.39.48-2.5.91-3.96,1.58,1.27,3.6,2.47,6.96,3.72,10.68.1.31.12.41-.22.58-.6.31-1.3.55-2.06.77-.17.02-.24-.02-.31-.26-1.13-3.82-2.16-7.06-3.46-10.66-.91.43-1.68.79-2.28,1.08-.6.29-.86.46-1.25.74-.17.14-.34.24-.46.24-.14,0-.38-.12-.58-.36-.6-.72-1.01-1.56-1.46-2.35,1.08-.19,1.49-.31,2.35-.62.53-.19,1.34-.48,2.78-1.1-.29-.86-.62-1.82-1.1-3.1-.17-.43-.48-1.15-1.1-1.99,1.03-.22,2.28-.36,3.22-.36.22,0,.36.17.36.5,0,.31.05.48.1.79.14.53.22.89.48,1.85.17.6.31.96.43,1.27,1.54-.6,3.02-1.15,4.37-1.56Zm-.6-4.87c.12-.07.19-.1.26-.1s.14.02.26.1c.77.5,1.87,1.32,2.59,2.18.07.1.12.17.12.26s-.05.17-.12.26c-.43.48-.98.94-1.58,1.32-.07.05-.14.1-.22.1-.05,0-.12-.05-.19-.12-.84-.96-1.73-1.87-2.98-2.64.67-.53,1.34-1.06,1.85-1.37Z" fill="#50a76a"/>
          <path d="m399.74,602.53c.77-.31,1.51-.67,2.33-1.1-.05.43-.05.98-.02,1.49q.05.77-.62,1.1c-1.49.74-3.19,1.44-4.78,2.04-.41.17-.7.29-.79.38-.1.1-.26.17-.41.17s-.26-.07-.36-.29c-.24-.62-.43-1.32-.65-2.14.77-.14,1.51-.31,2.38-.6l.55-.17v-6.82h-.19c-1.56,0-2.04.05-2.18.05-.24,0-.24-.02-.24-.26v-1.82c0-.24,0-.26.24-.26.14,0,.62.05,2.18.05h.19v-2.26c0-1.58-.02-2.57-.19-3.53.94.02,1.68.07,2.47.17.24.02.38.14.38.29,0,.17-.07.29-.14.48-.12.29-.14.89-.14,2.28v2.57c1.37,0,1.82-.05,1.97-.05.22,0,.24.02.24.26v1.82c0,.24-.02.26-.24.26-.14,0-.6-.05-1.97-.05v5.93Zm6.05,3.34c0,.62.12.91.46,1.08.34.19,1.08.26,3.46.26,2.59,0,3.38-.12,3.86-.5.38-.34.5-.82.58-2.71.48.29,1.03.58,1.73.77q.6.17.53.79c-.22,2.09-.5,2.74-1.3,3.24-.82.55-1.97.79-5.69.79-3.26,0-4.46-.29-5.06-.67-.58-.36-.91-1.08-.91-2.38v-7.49c-1.22.43-1.73.65-1.92.7-.24.07-.26.05-.31-.19l-.31-1.87c-.05-.24-.02-.24.19-.31.19-.05.82-.19,2.35-.7v-2.64c.02-1.32-.02-2.45-.14-3.41.82.02,1.58.07,2.3.14.34.05.48.14.48.26,0,.19-.05.29-.14.5-.12.24-.14.77-.14,2.28v2.06l2.3-.77v-3.48c0-1.44-.05-2.18-.19-3.41.91.02,1.66.07,2.45.19.24.02.38.12.38.26,0,.17-.07.29-.14.48-.12.29-.14.89-.14,2.16v3.02l1.85-.62c2.26-.74,2.98-1.06,3.14-1.08s.26.05.26.24l-.07,3.07c-.05,2.42-.24,4.2-.58,5.42-.36,1.39-1.03,1.82-2.06,1.82-.29,0-.58,0-.89-.05q-.53-.05-.65-.79c-.07-.55-.26-1.25-.5-1.73.5.12.94.17,1.27.17.41,0,.58-.12.72-.89.17-.91.26-1.85.29-4.2l-2.78.96v4.18c0,2.4.05,3.58.05,3.72,0,.24-.02.26-.26.26h-1.92c-.24,0-.26-.02-.26-.26,0-.17.05-1.32.05-3.72v-3.38l-2.3.79v7.61Z" fill="#50a76a"/>
          <path d="m423.38,602.76c.7-.26,1.39-.55,2.09-.91-.05.43-.07.94-.07,1.49q0,.79-.7,1.1c-.19.1-.38.19-.58.26.96-.02,1.63-.12,2.47-.29,1.75-.36,3.86-.84,6.07-1.66-.07.48-.14.96-.17,1.44,0,.79,0,.82-.72,1.03-1.7.6-3.65,1.1-5.47,1.54-.43.14-.72.22-.86.29-.19.1-.34.19-.5.19-.14,0-.26-.1-.36-.36-.19-.62-.36-1.32-.5-2.16-1.18.5-2.5.96-3.74,1.39-.41.14-.6.24-.72.34-.12.1-.26.17-.41.17-.12,0-.24-.07-.31-.31-.19-.62-.36-1.34-.5-2.16.77-.1,1.34-.22,2.09-.43l.53-.14v-7.01h-.05c-1.49,0-1.94.05-2.09.05-.22,0-.24-.02-.24-.26v-1.8c0-.26.02-.29.24-.29.17,0,.62.05,2.14.05v-2.21c0-1.7-.02-2.45-.17-3.65.89.02,1.63.07,2.47.17.22.02.36.14.36.26,0,.19-.05.31-.1.5-.12.29-.19.89-.19,2.66v2.26c1.22,0,1.63-.05,1.78-.05.24,0,.26.02.26.29v1.8c0,.24-.02.26-.26.26-.14,0-.55-.02-1.78-.05v6.19Zm11.9-8.71c.1,2.59.31,4.9.65,6.77.41-.82.72-1.68.98-2.62.19-.7.41-1.7.46-2.45.72.19,1.46.46,2.06.7.29.14.41.22.41.43,0,.17-.1.29-.24.46-.19.19-.26.5-.53,1.3-.65,2.06-1.42,3.77-2.38,5.28.67,2.21,1.27,3,1.49,3,.38,0,.58-1.03.67-3.07.34.36.84.67,1.22.89q.62.31.55.98c-.34,3.22-1.03,4.08-2.45,4.08-.98,0-2.14-1.03-3.14-3.7-1.22,1.37-2.71,2.54-4.54,3.65-.31.17-.48.29-.62.29s-.26-.14-.5-.46c-.41-.53-.89-.96-1.37-1.22,2.69-1.32,4.73-2.9,6.22-4.8-.67-2.54-1.08-5.98-1.25-9.5h-4.27c-2.33,0-3.12.05-3.26.05-.24,0-.26-.02-.26-.29v-1.75c0-.24.02-.26.26-.26.14,0,.94.05,3.26.05h4.2v-.29c-.02-1.61-.05-2.28-.19-3.43.84.02,1.56.07,2.42.19.26.02.38.14.38.26,0,.17-.05.31-.12.48-.12.24-.17.5-.17,1.66v1.13h1.37c2.35,0,3.17-.05,3.31-.05.24,0,.26.02.26.26v1.75c0,.26-.02.29-.26.29-.14,0-.96-.05-3.31-.05h-1.32Zm-5.28,1.78c1.3,0,1.68-.05,1.82-.05.26,0,.29.02.29.26,0,.14-.05.62-.05,1.85v2.16c0,1.25.05,1.73.05,1.87,0,.24-.02.26-.29.26-.14,0-.53-.05-1.82-.05h-1.87c-1.3,0-1.68.05-1.85.05-.24,0-.26-.02-.26-.26,0-.17.05-.62.05-1.87v-2.16c0-1.22-.05-1.7-.05-1.85,0-.24.02-.26.26-.26.17,0,.55.05,1.85.05h1.87Zm.17,1.87h-2.18v2.57h2.18v-2.57Zm7.42-9.26c.29-.1.29-.07.46.12.53.6,1.03,1.34,1.37,1.97.12.22.07.29-.26.41l-1.03.48c-.34.17-.36.14-.48-.12-.36-.72-.79-1.39-1.32-2.02-.17-.19-.12-.26.19-.38l1.08-.46Z" fill="#50a76a"/>
          <path d="m370.78,622.4c-.55,4.08-1.56,7.82-3,10.35-1.03,1.8-2.28,2.76-4.08,2.76-2.11,0-4.25-2.26-4.25-6.17,0-2.3.98-4.51,2.71-6.24,2.02-2.02,4.56-3.07,7.8-3.07,5.76,0,9.14,3.55,9.14,8.33,0,4.46-2.52,7.27-7.39,8.74-.5.14-.72.05-1.03-.43-.26-.41-.77-.96-1.68-1.51,4.06-.96,7.25-2.64,7.25-7.18,0-2.86-2.16-5.57-5.38-5.57h-.1Zm-6.89,2.33c-1.15,1.3-1.87,2.9-1.87,4.44,0,2.21.89,3.43,1.63,3.43.62,0,1.15-.31,1.8-1.46,1.06-1.94,2.14-5.4,2.54-8.59-1.68.34-3.02,1.01-4.1,2.18Z" fill="#50a76a"/>
          <path d="m396.7,635.37c0,.46.07.7.26.84.22.17.67.24,1.75.24s1.61-.12,1.9-.38c.31-.29.5-.84.6-2.4.48.31,1.03.53,1.63.67.65.17.7.19.6.82-.24,1.7-.55,2.42-1.27,2.88-.67.43-1.73.6-3.46.6-1.97,0-3.1-.1-3.72-.53-.6-.41-.74-.82-.74-2.02v-3.96h-2.95c-.67,3.34-2.52,5.14-6.48,6.58-.26.1-.41.17-.53.17-.19,0-.29-.17-.53-.6-.34-.62-.79-1.2-1.22-1.56,3.74-.98,5.47-2.11,6.17-4.58h-1.8c-2.28,0-3.07.05-3.22.05-.26,0-.29-.02-.29-.26v-1.73c0-.24.02-.26.29-.26.14,0,.94.05,3.22.05h2.16c.02-.53.05-1.1.05-1.75v-.82c-1.03.02-1.46.05-1.56.05-.26,0-.29-.02-.29-.26v-.91c-1.01.65-2.09,1.22-3.22,1.78-.26.12-.43.19-.55.19-.19,0-.29-.19-.5-.62-.26-.5-.58-.91-.98-1.32,1.66-.65,3.14-1.39,4.44-2.21-.82-.91-1.56-1.63-2.42-2.33-.12-.1-.19-.17-.19-.24,0-.05.07-.12.19-.22l1.2-.96c.22-.17.26-.22.48-.05.96.79,1.78,1.56,2.62,2.42,1.06-.86,1.94-1.8,2.69-2.86h-2.69c-1.8,0-2.38.05-2.52.05-.26,0-.29-.02-.29-.26v-1.66c0-.24.02-.26.29-.26.14,0,.72.05,2.52.05h3.31c1.34,0,2.02-.05,2.18-.05.22,0,.29.02.41.29.26.74.62,1.44,1.1,2.06.1.17.22.31.34.48.58-.53,1.06-1.03,1.44-1.54.24-.29.43-.58.67-1.01.72.36,1.42.82,1.85,1.1.22.14.26.26.26.38,0,.14-.1.26-.31.36-.19.1-.43.22-.82.65-.5.53-1.01,1.03-1.66,1.58.43.38.86.77,1.32,1.1.82-.7,1.54-1.42,2.04-1.99.24-.31.46-.6.67-1.03.7.38,1.32.74,1.87,1.1.22.14.29.26.29.41s-.12.26-.31.34c-.24.1-.43.22-.84.65-.53.53-1.15,1.1-1.85,1.7,1.2.65,2.5,1.18,3.91,1.63-.36.48-.62.94-.86,1.51-.19.46-.26.62-.46.62-.12,0-.29-.05-.55-.17-1.39-.6-2.62-1.22-3.7-1.92v1.13c0,.24-.02.26-.26.26-.12,0-.58-.02-1.68-.05v2.57h2.42c2.3,0,3.07-.05,3.24-.05.24,0,.26.02.26.26v1.73c0,.24-.02.26-.26.26-.17,0-.94-.05-3.24-.05h-2.42v3.24Zm.82-10.08c-1.8-1.34-3.19-2.9-4.34-4.82-1.15,1.85-2.66,3.43-4.51,4.82h8.86Zm-3.26,4.68v-2.57h-2.64v.82c0,.62-.02,1.2-.05,1.75h2.69Z" fill="#50a76a"/>
          <path d="m410.81,624.97c0,2.23-.17,5.06-.53,7.15-.43,2.45-1.01,4.22-2.16,6.12-.19.31-.29.48-.41.48-.1,0-.19-.14-.41-.41-.5-.6-1.08-1.13-1.56-1.42,1.2-1.63,1.82-3.46,2.18-5.64.34-2.02.46-4.51.46-8.02s-.05-4.92-.05-5.06c0-.26.02-.29.26-.29.12,0,.96.05,3.26.05h11.09c2.3,0,3.14-.05,3.29-.05.24,0,.26.02.26.29,0,.14-.05.58-.05,1.7v1.8c0,1.13.05,1.56.05,1.7,0,.24-.02.26-.26.26-.14,0-.98-.05-3.29-.05h-12.15v1.37Zm4.03,4.92v-1.92c-2.02,0-2.76.05-2.88.05-.24,0-.26-.02-.26-.29v-1.54c0-.24.02-.26.26-.26.12,0,.86.05,2.88.05,0-.74-.02-1.32-.14-1.97.89.02,1.46.07,2.26.17.24.02.41.12.41.29,0,.14-.05.24-.14.41-.1.22-.14.6-.14,1.1h3.26c0-.74,0-1.34-.14-1.97.89.02,1.44.07,2.26.17.22.02.41.12.41.26s-.05.26-.14.43c-.12.22-.14.58-.14,1.1,2.16,0,2.86-.05,3-.05.24,0,.26.02.26.26v1.54c0,.26-.02.29-.26.29-.14,0-.84-.05-3-.05v1.92h1.42c2.33,0,3.14-.05,3.29-.05.24,0,.26.02.26.26v1.61c0,.24-.02.26-.26.26-.14,0-.91-.05-2.98-.05.5.26,1.03.58,1.37.84.17.12.24.22.24.34s-.12.22-.26.29c-.19.1-.38.22-.7.53-.55.5-.96.84-1.54,1.27,1.27.67,2.81,1.15,4.7,1.44-.36.36-.7.96-.96,1.56q-.29.77-1.03.6c-4.08-1.1-6.74-3.34-8.45-6.86h-1.99v3.98c1.32-.22,2.76-.48,3.98-.77-.1.41-.17.91-.22,1.39-.05.79-.12.79-.79.94-2.04.46-4.25.89-6.07,1.2-.41.05-.62.12-.77.19-.19.1-.31.14-.43.14-.14,0-.26-.07-.34-.34l-.5-2.23c.77,0,1.42-.05,2.3-.14l.5-.05v-4.32c-1.46.02-2.06.05-2.18.05-.22,0-.24-.02-.24-.26v-1.61c0-.24.02-.26.24-.26.14,0,.96.05,3.17.05h.5Zm9.14-9.89h-13.18v1.63h13.18v-1.63Zm-3.65,9.89v-1.92h-3.26v1.92h3.26Zm-.26,2.04c.46.79.98,1.49,1.66,2.09.58-.43,1.01-.84,1.54-1.42.19-.22.36-.43.53-.67h-3.72Z" fill="#50a76a"/>
        </g>
        <g>
          <path d="m361.24,457.25h3.43c1.61,0,3.22-.05,4.85-.1.26-.02.38.1.38.38.02.62.02,1.3,0,1.92,0,.31-.07.43-.36.43-1.15-.05-3.29-.1-4.85-.1h-9.65c-.98,0-2.54.07-4.42.1-.38.02-.43-.07-.5-.48-.1-.53-.17-1.39-.17-2.26,1.73.1,3.55.12,5.09.12h3.26v-8.21h-1.87c-1.73,0-2.74.05-3.72.1-.29.02-.34-.14-.41-.5-.1-.48-.19-1.42-.19-2.23,1.2.12,2.16.1,4.15.1h6.79c1.46,0,2.78,0,4.2-.07.24-.02.31.12.31.38.02.6.02,1.27,0,1.87-.02.31-.07.46-.34.46-1.61-.07-2.78-.1-4.13-.1h-1.87v8.18Z" fill="#50a76a"/>
          <path d="m374.9,447.07c0-1.66-.07-2.57-.26-3.5,1.01.12,2.28.26,2.98.5.29.07.41.22.41.38,0,.12-.05.24-.1.36-.22.46-.26,1.06-.26,2.28v4.85c0,1.25.05,2.18.07,3.02,0,.36-.14.48-.53.48h-1.92c-.34,0-.48-.12-.46-.41,0-.84.07-2.23.07-3.26v-4.7Zm11.31,4.49c0,3.55-.53,5.93-1.94,7.82-1.18,1.56-3.26,3.02-5.28,3.77-.19.07-.36.12-.5.12-.19,0-.36-.07-.58-.29-.58-.58-1.2-1.03-2.04-1.46,2.57-.79,4.58-1.92,5.86-3.5,1.1-1.37,1.61-3.36,1.61-6.41v-4.54c0-2.06-.05-2.83-.26-3.91,1.15.1,2.3.26,3.12.53.24.07.34.22.34.41,0,.12-.02.26-.1.38-.22.5-.22,1.13-.22,2.62v4.46Z" fill="#50a76a"/>
          <path d="m396.4,447.38c-1.37,0-2.83.1-4.25.19-.29.02-.38-.14-.43-.36-.19-.67-.34-1.87-.43-2.59,1.63.12,2.95.17,4.87.17h10.3c1.01,0,1.42-.05,1.66-.14.12-.05.34-.17.46-.17.19,0,.38.14.55.34.53.46.98.96,1.44,1.51.12.14.19.29.19.43,0,.19-.12.36-.34.5-.26.19-.46.43-.65.7-1.13,1.7-2.62,3.36-4.22,4.63-.14.14-.31.22-.5.22s-.41-.1-.58-.24c-.6-.48-1.2-.74-1.99-.98,1.92-1.44,3.1-2.47,4.3-4.2h-10.37Zm1.34,9.36c.91-1.7,1.18-3.34,1.18-5.66,0-.89-.05-1.44-.24-2.26,1.18.12,2.42.29,3.1.46.31.07.41.24.41.46,0,.14-.05.29-.12.43-.17.34-.19.58-.22.98-.07,2.33-.31,4.46-1.42,6.6-.94,1.8-2.38,3.5-4.37,4.78-.22.14-.43.24-.67.24-.17,0-.34-.07-.48-.22-.58-.5-1.27-.89-2.18-1.22,2.62-1.37,3.98-2.66,5.02-4.58Z" fill="#50a76a"/>
          <path d="m425.54,447.38c-.55,4.08-1.56,7.82-3,10.35-1.03,1.8-2.28,2.76-4.08,2.76-2.11,0-4.25-2.26-4.25-6.17,0-2.3.98-4.51,2.71-6.24,2.02-2.02,4.56-3.07,7.8-3.07,5.76,0,9.14,3.55,9.14,8.33,0,4.46-2.52,7.27-7.39,8.74-.5.14-.72.05-1.03-.43-.26-.41-.77-.96-1.68-1.51,4.06-.96,7.25-2.64,7.25-7.18,0-2.86-2.16-5.57-5.38-5.57h-.1Zm-6.89,2.33c-1.15,1.3-1.87,2.9-1.87,4.44,0,2.21.89,3.43,1.63,3.43.62,0,1.15-.31,1.8-1.46,1.06-1.94,2.14-5.4,2.54-8.59-1.68.34-3.02,1.01-4.1,2.18Z" fill="#50a76a"/>
          <path d="m358.55,477.58c.19-.24.26-.24.48-.12,1.18.65,2.33,1.46,3.41,2.45.1.1.14.14.14.19,0,.07-.05.14-.14.29l-1.08,1.54c-.07.12-.12.17-.19.17-.05,0-.12-.05-.22-.14-1.03-1.01-2.18-1.9-3.38-2.62-.12-.07-.17-.12-.17-.17,0-.07.05-.17.14-.29l1.01-1.3Zm.24,11.76c.67-1.32,1.51-3.19,2.4-5.52.34.38.84.86,1.3,1.22.38.29.53.41.53.6,0,.14-.07.31-.17.58-.72,1.85-1.54,3.7-2.33,5.28-.19.36-.36.67-.41.91-.05.19-.14.31-.31.31-.12,0-.26-.07-.43-.17-.55-.34-1.18-.74-1.85-1.32.5-.62.84-1.1,1.27-1.9Zm.72-17.86c.19-.22.26-.22.46-.1,1.2.67,2.3,1.54,3.34,2.47.1.07.14.14.14.22s-.05.14-.14.29l-1.08,1.51c-.1.14-.17.19-.22.19-.07,0-.12-.05-.22-.12-1.06-1.03-2.23-2.02-3.38-2.71-.12-.07-.17-.12-.17-.17,0-.07.05-.14.17-.29l1.1-1.3Zm7.46,9.19c-2.38,0-3.19.05-3.34.05-.24,0-.26-.02-.26-.26v-1.9c0-.22.02-.24.26-.24.14,0,.96.05,3.34.05h2.81v-3.14c-1.37.22-2.76.38-4.15.53-.77.07-.79.05-.98-.6-.19-.67-.43-1.22-.67-1.58,3.91-.24,8.14-.94,10.58-1.7.65-.22,1.08-.38,1.56-.67.6.48,1.15,1.06,1.58,1.54.14.17.22.29.22.48,0,.14-.1.29-.34.31-.29.02-.65.05-1.3.26-1.15.38-2.47.7-3.91.98v3.6h3.14c2.35,0,3.17-.05,3.31-.05.22,0,.24.02.24.24v1.9c0,.24-.02.26-.24.26-.14,0-.96-.05-3.31-.05h-3.14v3.1h1.73c2.21,0,2.95-.05,3.12-.05.24,0,.26.02.26.26,0,.14-.05.82-.05,2.4v2.16c0,3.31.05,3.94.05,4.08,0,.22-.02.24-.26.24h-2.04c-.24,0-.26-.02-.26-.24v-.82h-7.49v.94c0,.22-.02.24-.26.24h-1.97c-.26,0-.29-.02-.29-.24,0-.17.05-.79.05-4.13v-1.9c0-1.9-.05-2.57-.05-2.74,0-.24.02-.26.29-.26.14,0,.94.05,3.12.05h1.46v-3.1h-2.81Zm.46,8.98h7.49v-3.72h-7.49v3.72Z" fill="#50a76a"/>
          <path d="m383.32,476.26c.31.07.36.12.34.38-.1,1.97-.29,3.77-.77,5.26-.07.24-.12.19-.38.1l-1.2-.48c-.31-.12-.34-.24-.26-.48.41-1.3.67-2.95.77-4.87,0-.24.05-.22.38-.14l1.13.24Zm.96-1.66c0-1.7-.02-2.47-.19-3.62.91.02,1.73.07,2.52.17.24.02.38.14.38.26,0,.17-.05.29-.12.46-.12.31-.17.91-.17,2.66v13.95c0,2.71.05,4.08.05,4.2,0,.26-.02.29-.26.29h-1.99c-.24,0-.26-.02-.26-.29,0-.12.05-1.49.05-4.18v-13.9Zm3.74.43c.26-.1.34-.07.43.14.34.91.72,1.97.94,2.95.5-1.3.91-2.66,1.13-3.89.07-.43.14-1.01.17-1.73.79.14,1.82.43,2.3.6.31.12.41.22.41.34,0,.17-.05.22-.14.34-.14.19-.24.46-.29.74-.12.58-.26,1.18-.43,1.8h2.21v-1.73c0-1.7-.05-2.45-.19-3.62.91.02,1.8.07,2.62.17.24.02.38.12.38.24,0,.17-.07.31-.12.48-.12.36-.17.91-.17,2.66v1.8h2.02c2.14,0,2.86-.05,3-.05.24,0,.26.02.26.26v1.85c0,.24-.02.26-.26.26-.14,0-.86-.05-3-.05h-2.02v4.18h1.3c2.16,0,2.9-.05,3.05-.05.24,0,.26.02.26.26v1.87c0,.24-.02.26-.26.26-.14,0-.89-.05-3.05-.05h-1.3v4.73h2.42c2.35,0,3.14-.05,3.29-.05.24,0,.26.02.26.26v1.85c0,.26-.02.29-.26.29-.14,0-.94-.05-3.29-.05h-7.97c-2.35,0-3.17.05-3.29.05-.24,0-.26-.02-.26-.29v-1.85c0-.24.02-.26.26-.26.12,0,.94.05,3.29.05h3.02v-4.73h-1.44c-2.16,0-2.88.05-3.05.05-.24,0-.26-.02-.26-.26v-1.87c0-.24.02-.26.26-.26.17,0,.89.05,3.05.05h1.44v-4.18h-2.95c-.34.96-.74,1.92-1.15,2.76-.19.36-.29.5-.43.5-.1,0-.24-.1-.46-.24-.55-.36-1.22-.65-1.73-.79.41-.65.79-1.39,1.13-2.18l-1.01.36c-.31.12-.38.12-.43-.14-.19-1.1-.5-2.21-.86-3.12-.1-.26-.07-.31.24-.41l.94-.31Z" fill="#50a76a"/>
          <path d="m408.98,483.63c0-.91.02-2.02.05-3.07-.72.94-1.44,1.8-2.14,2.5-.24.22-.38.36-.53.36s-.24-.17-.36-.53c-.19-.65-.58-1.42-.91-1.97,2.54-2.28,4.34-4.87,5.54-8.11.22-.55.38-1.13.48-1.68.94.24,1.56.46,2.33.77.31.12.41.19.41.36s-.07.29-.22.41c-.19.14-.34.41-.6,1.03-.43,1.03-.94,2.09-1.51,3.1v12.27c0,2.33.05,3.5.05,3.65,0,.22-.02.24-.26.24h-2.09c-.26,0-.29-.02-.29-.24,0-.17.05-1.32.05-3.65v-5.42Zm9.15,4.9c0,.86.14,1.18.67,1.37.43.14,1.06.17,2.38.17,1.22,0,1.94-.14,2.47-.6.41-.34.62-1.37.72-3.65.5.38,1.2.74,1.85.98.6.22.58.22.53.84-.17,2.35-.58,3.38-1.39,3.98-.79.55-2.23.82-4.34.82-2.26,0-3.41-.1-4.18-.48-.79-.38-1.27-1.01-1.27-2.62v-15.15c0-1.34-.02-2.04-.14-2.78.96.02,1.73.07,2.57.17.31.02.46.12.46.31s-.07.31-.14.46c-.12.22-.17.6-.17,1.63v6c1.54-.96,2.95-2.09,4.44-3.53.48-.43,1.03-1.06,1.42-1.63.65.48,1.34,1.08,1.87,1.58.19.19.26.31.26.48s-.17.31-.41.38c-.26.1-.72.43-1.25.91-1.78,1.58-3.89,3.19-6.34,4.66v5.69Z" fill="#50a76a"/>
        </g>
        <g>
          <g>
            <g>
              <polygon points="108.23 558.24 108.23 493.33 122.19 485.27 122.19 550.18 108.23 558.24" fill="#bcadb8"/>
              <polygon points="94.28 550.18 94.41 485.04 108.36 493.1 108.23 558.24 94.28 550.18" fill="#bcadb8"/>
              <polygon points="108.23 493.33 108.23 470.52 94.28 485.27 108.23 493.33" fill="#bcadb8"/>
              <polygon points="122.19 485.27 108.23 470.52 108.23 493.33 122.19 485.27" fill="#bcadb8"/>
            </g>
            <polygon points="116.45 497.32 113.97 498.75 113.97 496.14 116.45 494.71 116.45 497.32" fill="#fadae5" mix-blend-mode="multiply"/>
            <polygon points="116.45 503.25 113.97 504.68 113.97 502.07 116.45 500.64 116.45 503.25" fill="#fadae5" mix-blend-mode="multiply"/>
            <polygon points="116.45 509.18 113.97 510.61 113.97 508 116.45 506.57 116.45 509.18" fill="#fadae5" mix-blend-mode="multiply"/>
            <polygon points="116.45 515.11 113.97 516.54 113.97 513.93 116.45 512.5 116.45 515.11" fill="#fadae5" mix-blend-mode="multiply"/>
            <polygon points="116.45 521.04 113.97 522.47 113.97 519.86 116.45 518.43 116.45 521.04" fill="#fadae5" mix-blend-mode="multiply"/>
            <polygon points="116.45 526.97 113.97 528.4 113.97 525.79 116.45 524.36 116.45 526.97" fill="#fadae5" mix-blend-mode="multiply"/>
            <polygon points="116.45 533.35 113.97 534.78 113.97 532.17 116.45 530.74 116.45 533.35" fill="#fadae5" mix-blend-mode="multiply"/>
            <polygon points="116.45 539.28 113.97 540.71 113.97 538.1 116.45 536.67 116.45 539.28" fill="#fadae5" mix-blend-mode="multiply"/>
            <polygon points="116.45 545.21 113.97 546.64 113.97 544.03 116.45 542.6 116.45 545.21" fill="#fadae5" mix-blend-mode="multiply"/>
            <polygon points="100.02 497.32 102.5 498.75 102.5 496.14 100.02 494.71 100.02 497.32" fill="#fadae5" mix-blend-mode="multiply"/>
            <polygon points="100.02 503.25 102.5 504.68 102.5 502.07 100.02 500.64 100.02 503.25" fill="#fadae5" mix-blend-mode="multiply"/>
            <polygon points="100.02 509.18 102.5 510.61 102.5 508 100.02 506.57 100.02 509.18" fill="#fadae5" mix-blend-mode="multiply"/>
            <polygon points="100.02 515.11 102.5 516.54 102.5 513.93 100.02 512.5 100.02 515.11" fill="#fadae5" mix-blend-mode="multiply"/>
            <polygon points="100.02 521.04 102.5 522.47 102.5 519.86 100.02 518.43 100.02 521.04" fill="#fadae5" mix-blend-mode="multiply"/>
            <polygon points="100.02 526.97 102.5 528.4 102.5 525.79 100.02 524.36 100.02 526.97" fill="#fadae5" mix-blend-mode="multiply"/>
            <polygon points="100.02 533.35 102.5 534.78 102.5 532.17 100.02 530.74 100.02 533.35" fill="#fadae5" mix-blend-mode="multiply"/>
            <polygon points="100.02 539.28 102.5 540.71 102.5 538.1 100.02 536.67 100.02 539.28" fill="#fadae5" mix-blend-mode="multiply"/>
            <polygon points="100.02 545.21 102.5 546.64 102.5 544.03 100.02 542.6 100.02 545.21" fill="#fadae5" mix-blend-mode="multiply"/>
          </g>
          <g>
            <g>
              <polygon points="51.92 600.76 51.92 562.49 85.06 581.62 85.07 619.89 51.92 600.76" fill="#7a99a1"/>
              <polygon points="85.07 619.89 85.07 581.62 118.21 562.49 118.21 600.76 85.07 619.89" fill="#7a99a1"/>
              <path d="m85.06,540.16l-38.67,22.32,38.67,22.33,38.67-22.33-38.67-22.32Zm0,41.46l-33.14-19.14,33.14-19.14,33.14,19.14-33.14,19.14Z" fill="#dce1e2"/>
              <polygon points="46.4 562.49 46.4 524.22 85.07 546.54 85.07 584.81 46.4 562.49" fill="#94a8bf"/>
              <polygon points="85.07 584.81 85.07 546.54 123.73 524.22 123.73 562.49 85.07 584.81" fill="#94a8bf"/>
              <path d="m85.06,501.89l-38.67,22.32,38.67,22.33,38.67-22.33-38.67-22.32Zm0,41.46l-33.14-19.14,33.14-19.14,33.14,19.14-33.14,19.14Z" fill="#cbc8d6"/>
            </g>
            <g>
              <path d="m85.06,498.7l-33.14,19.14,33.14,19.14,33.14-19.14-33.14-19.14Zm0,25.83l-11.6-6.7,11.6-6.7,11.6,6.7-11.6,6.7Z" fill="#cbc8d6"/>
              <polygon points="51.92 524.22 51.92 517.84 85.07 536.97 85.07 543.35 51.92 524.22" fill="#94a8bf"/>
              <polygon points="85.07 543.35 85.07 536.97 118.21 517.84 118.21 524.22 85.07 543.35" fill="#94a8bf"/>
            </g>
            <g>
              <polygon points="85.06 521.72 73.46 515.02 85.06 508.33 96.67 515.02 85.06 521.72" fill="#cbc8d6"/>
              <polygon points="85.06 524.54 73.46 517.84 73.46 515.02 85.06 521.72 85.06 524.54" fill="#94a8bf"/>
              <polygon points="96.67 517.84 85.06 524.54 85.06 521.72 96.67 515.02 96.67 517.84" fill="#94a8bf"/>
            </g>
            <g mix-blend-mode="multiply">
              <polygon points="55.53 540.75 52.93 539.25 52.93 536.25 55.53 537.75 55.53 540.75" fill="#e4ddd3"/>
              <polygon points="63.2 545.18 60.6 543.68 60.6 540.68 63.2 542.18 63.2 545.18" fill="#e4ddd3"/>
              <polygon points="70.87 549.61 68.27 548.11 68.27 545.1 70.87 546.61 70.87 549.61" fill="#e4ddd3"/>
              <polygon points="78.54 554.04 75.94 552.54 75.94 549.53 78.54 551.03 78.54 554.04" fill="#e4ddd3"/>
              <polygon points="55.53 547.57 52.93 546.07 52.93 543.07 55.53 544.57 55.53 547.57" fill="#e4ddd3"/>
              <polygon points="63.2 552 60.6 550.5 60.6 547.5 63.2 549 63.2 552" fill="#e4ddd3"/>
              <polygon points="70.87 556.43 68.27 554.93 68.27 551.92 70.87 553.42 70.87 556.43" fill="#e4ddd3"/>
              <polygon points="78.54 560.86 75.94 559.35 75.94 556.35 78.54 557.85 78.54 560.86" fill="#e4ddd3"/>
              <polygon points="55.53 554.39 52.93 552.89 52.93 549.89 55.53 551.39 55.53 554.39" fill="#e4ddd3"/>
              <polygon points="63.2 558.82 60.6 557.32 60.6 554.31 63.2 555.82 63.2 558.82" fill="#e4ddd3"/>
              <polygon points="70.87 563.25 68.27 561.75 68.27 558.74 70.87 560.24 70.87 563.25" fill="#e4ddd3"/>
              <polygon points="78.54 567.67 75.94 566.17 75.94 563.17 78.54 564.67 78.54 567.67" fill="#e4ddd3"/>
              <polygon points="55.53 561.21 52.93 559.71 52.93 556.71 55.53 558.21 55.53 561.21" fill="#e4ddd3"/>
              <polygon points="63.2 565.64 60.6 564.14 60.6 561.13 63.2 562.64 63.2 565.64" fill="#e4ddd3"/>
              <polygon points="70.87 570.07 68.27 568.57 68.27 565.56 70.87 567.06 70.87 570.07" fill="#e4ddd3"/>
              <polygon points="78.54 574.5 75.94 572.99 75.94 569.99 78.54 571.49 78.54 574.5" fill="#e4ddd3"/>
            </g>
            <g mix-blend-mode="multiply">
              <polygon points="114.6 540.75 117.2 539.25 117.2 536.25 114.6 537.75 114.6 540.75" fill="#e4ddd3"/>
              <polygon points="106.93 545.18 109.53 543.68 109.53 540.68 106.93 542.18 106.93 545.18" fill="#e4ddd3"/>
              <polygon points="99.26 549.61 101.86 548.11 101.86 545.1 99.26 546.61 99.26 549.61" fill="#e4ddd3"/>
              <polygon points="91.59 554.04 94.19 552.54 94.19 549.53 91.59 551.03 91.59 554.04" fill="#e4ddd3"/>
              <polygon points="114.6 547.57 117.2 546.07 117.2 543.07 114.6 544.57 114.6 547.57" fill="#e4ddd3"/>
              <polygon points="106.93 552 109.53 550.5 109.53 547.5 106.93 549 106.93 552" fill="#e4ddd3"/>
              <polygon points="99.26 556.43 101.86 554.93 101.86 551.92 99.26 553.42 99.26 556.43" fill="#e4ddd3"/>
              <polygon points="91.59 560.86 94.19 559.35 94.19 556.35 91.59 557.85 91.59 560.86" fill="#e4ddd3"/>
              <polygon points="114.6 554.39 117.2 552.89 117.2 549.89 114.6 551.39 114.6 554.39" fill="#e4ddd3"/>
              <polygon points="106.93 558.82 109.53 557.32 109.53 554.31 106.93 555.82 106.93 558.82" fill="#e4ddd3"/>
              <polygon points="99.26 563.25 101.86 561.75 101.86 558.74 99.26 560.24 99.26 563.25" fill="#e4ddd3"/>
              <polygon points="91.59 567.67 94.19 566.17 94.19 563.17 91.59 564.67 91.59 567.67" fill="#e4ddd3"/>
              <polygon points="114.6 561.21 117.2 559.71 117.2 556.71 114.6 558.21 114.6 561.21" fill="#e4ddd3"/>
              <polygon points="106.93 565.64 109.53 564.14 109.53 561.13 106.93 562.64 106.93 565.64" fill="#e4ddd3"/>
              <polygon points="99.26 570.07 101.86 568.57 101.86 565.56 99.26 567.06 99.26 570.07" fill="#e4ddd3"/>
              <polygon points="91.59 574.5 94.19 572.99 94.19 569.99 91.59 571.49 91.59 574.5" fill="#e4ddd3"/>
            </g>
          </g>
          <g>
            <path d="m225.81,485.89v57.64c0,4.1,2.71,8.21,8.14,11.34,5.42,3.13,12.53,4.7,19.64,4.7,7.11,0,14.22-1.57,19.64-4.7,5.42-3.13,8.13-7.23,8.13-11.34h0v-57.64h-55.55Z" fill="#a1b9a2"/>
            <path d="m225.81,485.89c0-4.1,2.71-8.21,8.14-11.34,5.42-3.13,12.53-4.7,19.64-4.7s14.21,1.57,19.64,4.7c5.42,3.13,8.14,7.23,8.14,11.34,0,4.1-2.71,8.21-8.13,11.34-5.42,3.13-12.53,4.7-19.64,4.7-7.11,0-14.22-1.57-19.64-4.7-5.42-3.13-8.13-7.23-8.14-11.34Z" fill="#b9cfb7"/>
          </g>
          <g>
            <path d="m253.58,467.72l-12.96,7.48,12.96,7.48,12.96-7.48-12.96-7.48Z" fill="#b9cfb7"/>
            <polygon points="253.58 493.37 240.62 485.89 240.62 475.2 253.58 482.69 253.58 493.37" fill="#a1b9a2"/>
            <polygon points="266.54 485.89 253.58 493.37 253.58 482.69 266.54 475.21 266.54 485.89" fill="#a1b9a2"/>
          </g>
          <g mix-blend-mode="multiply">
            <path d="m251.23,550.32c-6.31-.31-12.46-1.85-17.29-4.64-3.35-1.94-5.67-4.24-6.95-6.69v1.98c1.28,2.45,3.59,4.76,6.95,6.69,4.82,2.79,10.98,4.33,17.29,4.64v-1.98Z" fill="#d8def3"/>
            <path d="m280.16,538.99c-1.28,2.45-3.59,4.76-6.95,6.69-4.82,2.79-10.98,4.33-17.29,4.64v1.98c6.31-.31,12.46-1.85,17.29-4.64,3.35-1.94,5.67-4.24,6.95-6.69v-1.98Z" fill="#d8def3"/>
            <path d="m251.23,545.72c-6.31-.31-12.46-1.85-17.29-4.64-3.35-1.94-5.67-4.24-6.95-6.69v1.98c1.28,2.45,3.59,4.76,6.95,6.69,4.82,2.79,10.98,4.33,17.29,4.64v-1.98Z" fill="#d8def3"/>
            <path d="m280.16,534.39c-1.28,2.45-3.59,4.76-6.95,6.69-4.82,2.79-10.98,4.33-17.29,4.64v1.98c6.31-.31,12.46-1.85,17.29-4.64,3.35-1.94,5.67-4.24,6.95-6.69v-1.98Z" fill="#d8def3"/>
            <path d="m251.23,541.12c-6.31-.31-12.46-1.85-17.29-4.64-3.35-1.94-5.67-4.24-6.95-6.69v1.98c1.28,2.45,3.59,4.76,6.95,6.69,4.82,2.79,10.98,4.33,17.29,4.64v-1.98Z" fill="#d8def3"/>
            <path d="m280.16,529.79c-1.28,2.45-3.59,4.76-6.95,6.69-4.82,2.79-10.98,4.33-17.29,4.64v1.98c6.31-.31,12.46-1.85,17.29-4.64,3.35-1.94,5.67-4.24,6.95-6.69v-1.98Z" fill="#d8def3"/>
            <path d="m251.23,536.51c-6.31-.31-12.46-1.85-17.29-4.64-3.35-1.94-5.67-4.24-6.95-6.69v1.98c1.28,2.45,3.59,4.76,6.95,6.69,4.82,2.79,10.98,4.33,17.29,4.64v-1.98Z" fill="#d8def3"/>
            <path d="m280.16,525.18c-1.28,2.45-3.59,4.76-6.95,6.69-4.82,2.79-10.98,4.33-17.29,4.64v1.98c6.31-.31,12.46-1.85,17.29-4.64,3.35-1.94,5.67-4.24,6.95-6.69v-1.98Z" fill="#d8def3"/>
            <path d="m251.23,531.91c-6.31-.31-12.46-1.85-17.29-4.64-3.35-1.94-5.67-4.24-6.95-6.69v1.98c1.28,2.45,3.59,4.76,6.95,6.69,4.82,2.79,10.98,4.33,17.29,4.64v-1.98Z" fill="#d8def3"/>
            <path d="m280.16,520.58c-1.28,2.45-3.59,4.76-6.95,6.69-4.82,2.79-10.98,4.33-17.29,4.64v1.98c6.31-.31,12.46-1.85,17.29-4.64,3.35-1.94,5.67-4.24,6.95-6.69v-1.98Z" fill="#d8def3"/>
            <path d="m251.23,527.31c-6.31-.31-12.46-1.85-17.29-4.64-3.35-1.94-5.67-4.24-6.95-6.69v1.98c1.28,2.45,3.59,4.76,6.95,6.69,4.82,2.79,10.98,4.33,17.29,4.64v-1.98Z" fill="#d8def3"/>
            <path d="m280.16,515.98c-1.28,2.45-3.59,4.76-6.95,6.69-4.82,2.79-10.98,4.33-17.29,4.64v1.98c6.31-.31,12.46-1.85,17.29-4.64,3.35-1.94,5.67-4.24,6.95-6.69v-1.98Z" fill="#d8def3"/>
            <path d="m251.23,522.7c-6.31-.31-12.46-1.85-17.29-4.64-3.35-1.94-5.67-4.24-6.95-6.69v1.98c1.28,2.45,3.59,4.76,6.95,6.69,4.82,2.79,10.98,4.33,17.29,4.64v-1.98Z" fill="#d8def3"/>
            <path d="m280.16,511.37c-1.28,2.45-3.59,4.76-6.95,6.69-4.82,2.79-10.98,4.33-17.29,4.64v1.98c6.31-.31,12.46-1.85,17.29-4.64,3.35-1.94,5.67-4.24,6.95-6.69v-1.98Z" fill="#d8def3"/>
            <path d="m251.23,518.1c-6.31-.31-12.46-1.85-17.29-4.64-3.35-1.94-5.67-4.24-6.95-6.69v1.98c1.28,2.45,3.59,4.76,6.95,6.69,4.82,2.79,10.98,4.33,17.29,4.64v-1.98Z" fill="#d8def3"/>
            <path d="m280.16,506.77c-1.28,2.45-3.59,4.76-6.95,6.69-4.82,2.79-10.98,4.33-17.29,4.64v1.98c6.31-.31,12.46-1.85,17.29-4.64,3.35-1.94,5.67-4.24,6.95-6.69v-1.98Z" fill="#d8def3"/>
            <path d="m251.23,513.5c-6.31-.31-12.46-1.85-17.29-4.64-3.35-1.94-5.67-4.24-6.95-6.69v1.98c1.28,2.45,3.59,4.76,6.95,6.69,4.82,2.79,10.98,4.33,17.29,4.64v-1.98Z" fill="#d8def3"/>
            <path d="m280.16,502.17c-1.28,2.45-3.59,4.76-6.95,6.69-4.82,2.79-10.98,4.33-17.29,4.64v1.98c6.31-.31,12.46-1.85,17.29-4.64,3.35-1.94,5.67-4.24,6.95-6.69v-1.98Z" fill="#d8def3"/>
            <path d="m251.23,508.9c-6.31-.31-12.46-1.85-17.29-4.64-3.35-1.94-5.67-4.24-6.95-6.69v1.98c1.28,2.45,3.59,4.76,6.95,6.69,4.82,2.79,10.98,4.33,17.29,4.64v-1.98Z" fill="#d8def3"/>
            <path d="m280.16,497.57c-1.28,2.45-3.59,4.76-6.95,6.69-4.82,2.79-10.98,4.33-17.29,4.64v1.98c6.31-.31,12.46-1.85,17.29-4.64,3.35-1.94,5.67-4.24,6.95-6.69v-1.98Z" fill="#d8def3"/>
          </g>
          <g>
            <polygon points="134.84 576.33 134.84 449.88 167.99 469.01 167.99 595.47 134.84 576.33" fill="#7a99a1"/>
            <polygon points="167.99 595.47 167.99 469.01 201.13 449.88 201.13 576.33 167.99 595.47" fill="#7a99a1"/>
            <path d="m167.99,430.74l-33.14,19.14,33.14,19.14,33.14-19.14-33.14-19.14Zm0,35.08l-27.62-15.95,27.62-15.95,27.62,15.95-27.62,15.95Z" fill="#a8c9d1"/>
            <polygon points="140.37 444.84 167.99 460.79 167.99 465.82 140.37 449.88 140.37 444.84" fill="#8eb0bf"/>
            <polygon points="167.99 460.79 195.61 444.84 195.61 449.88 167.99 465.82 167.99 460.79" fill="#8eb0bf"/>
            <path d="m167.99,428.9l-27.62,15.95,27.62,15.95,27.62-15.95-27.62-15.95Zm0,28.7l-22.1-12.76,22.1-12.76,22.1,12.76-22.1,12.76Z" fill="#a8c9d1"/>
            <polygon points="145.89 439.57 167.99 452.33 167.99 457.6 145.89 444.84 145.89 439.57" fill="#8eb0bf"/>
            <polygon points="167.99 452.33 190.08 439.57 190.08 444.84 167.99 457.6 167.99 452.33" fill="#8eb0bf"/>
            <path d="m167.99,426.82l-22.1,12.76,22.1,12.76,22.1-12.76-22.1-12.76Z" fill="#a8c9d1"/>
          </g>
          <g mix-blend-mode="multiply">
            <g>
              <polygon points="173.37 592.36 173.37 471.49 171.52 472.55 171.52 593.43 173.37 592.36" fill="#e4d3e7"/>
              <polygon points="178.29 589.52 178.29 468.65 176.44 469.71 176.44 590.58 178.29 589.52" fill="#e4d3e7"/>
              <polygon points="183.22 586.67 183.21 465.8 181.37 466.87 181.37 587.74 183.22 586.67" fill="#e4d3e7"/>
              <polygon points="188.14 583.83 188.14 462.96 186.29 464.02 186.29 584.9 188.14 583.83" fill="#e4d3e7"/>
              <polygon points="193.07 580.99 193.06 460.11 191.22 461.18 191.22 582.05 193.07 580.99" fill="#e4d3e7"/>
              <polygon points="197.99 578.14 197.99 457.27 196.14 458.34 196.14 579.21 197.99 578.14" fill="#e4d3e7"/>
              <polygon points="162.61 592.36 162.61 471.49 164.46 472.55 164.45 593.43 162.61 592.36" fill="#e4d3e7"/>
              <polygon points="157.68 589.52 157.68 468.65 159.53 469.71 159.53 590.58 157.68 589.52" fill="#e4d3e7"/>
              <polygon points="152.76 586.67 152.76 465.8 154.61 466.87 154.6 587.74 152.76 586.67" fill="#e4d3e7"/>
              <polygon points="147.83 583.83 147.83 462.96 149.68 464.02 149.68 584.9 147.83 583.83" fill="#e4d3e7"/>
              <polygon points="142.91 580.99 142.91 460.11 144.76 461.18 144.76 582.05 142.91 580.99" fill="#e4d3e7"/>
              <polygon points="137.98 578.14 137.98 457.27 139.83 458.34 139.83 579.21 137.98 578.14" fill="#e4d3e7"/>
            </g>
            <g>
              <polygon points="173.37 592.36 173.37 471.49 171.52 472.55 171.52 593.43 173.37 592.36" fill="#d8def3"/>
              <polygon points="178.29 589.52 178.29 468.65 176.44 469.71 176.44 590.58 178.29 589.52" fill="#d8def3"/>
              <polygon points="183.22 586.67 183.21 465.8 181.37 466.87 181.37 587.74 183.22 586.67" fill="#d8def3"/>
              <polygon points="188.14 583.83 188.14 462.96 186.29 464.02 186.29 584.9 188.14 583.83" fill="#d8def3"/>
              <polygon points="193.07 580.99 193.06 460.11 191.22 461.18 191.22 582.05 193.07 580.99" fill="#d8def3"/>
              <polygon points="197.99 578.14 197.99 457.27 196.14 458.34 196.14 579.21 197.99 578.14" fill="#d8def3"/>
              <polygon points="162.61 592.36 162.61 471.49 164.46 472.55 164.45 593.43 162.61 592.36" fill="#d8def3"/>
              <polygon points="157.68 589.52 157.68 468.65 159.53 469.71 159.53 590.58 157.68 589.52" fill="#d8def3"/>
              <polygon points="152.76 586.67 152.76 465.8 154.61 466.87 154.6 587.74 152.76 586.67" fill="#d8def3"/>
              <polygon points="147.83 583.83 147.83 462.96 149.68 464.02 149.68 584.9 147.83 583.83" fill="#d8def3"/>
              <polygon points="142.91 580.99 142.91 460.11 144.76 461.18 144.76 582.05 142.91 580.99" fill="#d8def3"/>
              <polygon points="137.98 578.14 137.98 457.27 139.83 458.34 139.83 579.21 137.98 578.14" fill="#d8def3"/>
            </g>
          </g>
          <g>
            <g>
              <polygon points="97.81 570.83 119.9 583.59 119.9 643.97 97.81 631.22 97.81 570.83" fill="#a1b9a2"/>
              <polygon points="164.09 618.46 119.9 643.97 119.9 583.59 164.09 558.08 164.09 618.46" fill="#a1b9a2"/>
              <path d="m164.1,558.08l-22.1-12.76-44.19,25.51,22.1,12.76,44.19-25.51Zm-29.65,8.4l-11.6,6.7-7-4.04,11.6-6.7,7,4.04Z" fill="#b0cfa2"/>
            </g>
            <g>
              <polygon points="123.07 620.33 125.65 621.82 125.65 643.63 123.07 642.14 123.07 620.33" fill="#b0cfa2"/>
              <polygon points="163.19 621.96 125.65 643.63 125.65 621.82 163.19 600.15 163.19 621.96" fill="#a1b9a2"/>
              <path d="m163.19,600.15l-2.58-1.49-37.54,21.67,2.58,1.49,37.54-21.67Z" fill="#f6f6fb"/>
            </g>
            <g>
              <polygon points="122.85 570.36 134.45 563.66 127.45 559.62 115.85 566.32 122.85 570.36" fill="#b0cfa2"/>
              <polygon points="134.45 566.47 122.85 573.17 122.85 570.36 134.45 563.66 134.45 566.47" fill="#a1b9a2"/>
              <polygon points="122.85 573.17 115.85 569.13 115.85 566.32 122.85 570.36 122.85 573.17" fill="#a1b9a2"/>
            </g>
            <polygon points="123.07 620.33 125.65 621.82 163.19 600.15 160.61 598.66 123.07 620.33" fill="#b0cfa2"/>
            <g mix-blend-mode="multiply">
              <polygon points="131.2 640.43 131.2 622.63 129.35 623.7 129.35 641.5 131.2 640.43" fill="#d8def3"/>
              <polygon points="135.94 637.69 135.94 619.89 134.09 620.96 134.09 638.76 135.94 637.69" fill="#d8def3"/>
              <polygon points="140.68 634.95 140.68 617.15 138.83 618.22 138.83 636.02 140.68 634.95" fill="#d8def3"/>
              <polygon points="145.42 632.22 145.42 614.42 143.58 615.48 143.58 633.28 145.42 632.22" fill="#d8def3"/>
              <polygon points="150.17 629.48 150.16 611.68 148.32 612.75 148.32 630.55 150.17 629.48" fill="#d8def3"/>
              <polygon points="154.91 626.74 154.91 608.94 153.06 610.01 153.06 627.81 154.91 626.74" fill="#d8def3"/>
              <polygon points="159.65 624 159.65 606.2 157.8 607.27 157.8 625.07 159.65 624" fill="#d8def3"/>
            </g>
            <g mix-blend-mode="multiply">
              <polygon points="152.17 577.12 154.77 575.62 154.77 572.62 152.17 574.12 152.17 577.12" fill="#d8def3"/>
              <polygon points="144.5 581.55 147.1 580.05 147.1 577.04 144.5 578.54 144.5 581.55" fill="#d8def3"/>
              <polygon points="136.83 585.97 139.43 584.47 139.43 581.47 136.83 582.97 136.83 585.97" fill="#d8def3"/>
              <polygon points="129.16 590.4 131.76 588.9 131.76 585.9 129.16 587.4 129.16 590.4" fill="#d8def3"/>
              <polygon points="152.17 583.94 154.77 582.44 154.77 579.43 152.17 580.94 152.17 583.94" fill="#d8def3"/>
              <polygon points="144.5 588.37 147.1 586.87 147.1 583.86 144.5 585.36 144.5 588.37" fill="#d8def3"/>
              <polygon points="136.83 592.79 139.43 591.29 139.43 588.29 136.83 589.79 136.83 592.79" fill="#d8def3"/>
              <polygon points="129.16 597.22 131.76 595.72 131.76 592.72 129.16 594.22 129.16 597.22" fill="#d8def3"/>
              <polygon points="152.17 590.76 154.77 589.26 154.77 586.25 152.17 587.76 152.17 590.76" fill="#d8def3"/>
              <polygon points="144.5 595.19 147.1 593.69 147.1 590.68 144.5 592.18 144.5 595.19" fill="#d8def3"/>
              <polygon points="136.83 599.61 139.43 598.11 139.43 595.11 136.83 596.61 136.83 599.61" fill="#d8def3"/>
              <polygon points="129.16 604.04 131.76 602.54 131.76 599.54 129.16 601.04 129.16 604.04" fill="#d8def3"/>
              <polygon points="152.17 597.58 154.77 596.08 154.77 593.07 152.17 594.57 152.17 597.58" fill="#d8def3"/>
              <polygon points="144.5 602.01 147.1 600.5 147.1 597.5 144.5 599 144.5 602.01" fill="#d8def3"/>
              <polygon points="136.83 606.43 139.43 604.93 139.43 601.93 136.83 603.43 136.83 606.43" fill="#d8def3"/>
              <polygon points="129.16 610.86 131.76 609.36 131.76 606.36 129.16 607.86 129.16 610.86" fill="#d8def3"/>
              <polygon points="110.16 589.19 107.56 587.69 107.56 584.69 110.16 586.19 110.16 589.19" fill="#d8def3"/>
              <polygon points="110.16 596.01 107.56 594.51 107.56 591.51 110.16 593.01 110.16 596.01" fill="#d8def3"/>
              <polygon points="110.16 602.83 107.56 601.33 107.56 598.33 110.16 599.83 110.16 602.83" fill="#d8def3"/>
              <polygon points="110.16 609.65 107.56 608.15 107.56 605.15 110.16 606.65 110.16 609.65" fill="#d8def3"/>
              <polygon points="110.16 616.19 107.56 614.69 107.56 611.69 110.16 613.19 110.16 616.19" fill="#d8def3"/>
              <polygon points="110.16 622.73 107.56 621.23 107.56 618.22 110.16 619.73 110.16 622.73" fill="#d8def3"/>
              <polygon points="110.16 629.26 107.56 627.76 107.56 624.76 110.16 626.26 110.16 629.26" fill="#d8def3"/>
            </g>
          </g>
          <g>
            <g>
              <polygon points="248.67 596.51 248.67 558.24 270.77 570.99 270.77 609.26 248.67 596.51" fill="#93bec0"/>
              <polygon points="270.76 609.26 270.77 570.99 292.86 558.24 292.86 596.51 270.76 609.26" fill="#93bec0"/>
              <polygon points="292.86 558.24 270.76 545.48 248.67 558.24 270.77 570.99 292.86 558.24" fill="#c0cec9"/>
            </g>
            <g mix-blend-mode="multiply">
              <polygon points="283.03 573.55 280.6 574.95 280.6 572.39 283.03 570.99 283.03 573.55" fill="#d8def3"/>
              <polygon points="283.03 579.36 280.6 580.76 280.6 578.2 283.03 576.8 283.03 579.36" fill="#d8def3"/>
              <polygon points="283.03 585.17 280.6 586.57 280.6 584.01 283.03 582.61 283.03 585.17" fill="#d8def3"/>
              <polygon points="283.03 590.98 280.6 592.38 280.6 589.82 283.03 588.42 283.03 590.98" fill="#d8def3"/>
              <polygon points="283.03 596.78 280.6 598.19 280.6 595.63 283.03 594.23 283.03 596.78" fill="#d8def3"/>
            </g>
            <g mix-blend-mode="multiply">
              <polygon points="258.5 573.55 260.93 574.95 260.93 572.39 258.5 570.99 258.5 573.55" fill="#d8def3"/>
              <polygon points="258.5 579.36 260.93 580.76 260.93 578.2 258.5 576.8 258.5 579.36" fill="#d8def3"/>
              <polygon points="258.5 585.17 260.93 586.57 260.93 584.01 258.5 582.61 258.5 585.17" fill="#d8def3"/>
              <polygon points="258.5 590.98 260.93 592.38 260.93 589.82 258.5 588.42 258.5 590.98" fill="#d8def3"/>
              <polygon points="258.5 596.78 260.93 598.19 260.93 595.63 258.5 594.23 258.5 596.78" fill="#d8def3"/>
            </g>
          </g>
          <g>
            <g>
              <polygon points="231.77 645.67 231.77 556.37 264.92 537.24 264.92 626.54 231.77 645.67" fill="#bcadb8"/>
              <polygon points="198.63 626.54 198.63 537.24 231.77 556.37 231.77 645.67 198.63 626.54" fill="#bcadb8"/>
              <polygon points="231.77 556.37 198.63 537.24 231.77 518.1 264.92 537.24 231.77 556.37" fill="#cec0d3"/>
            </g>
            <polygon points="231.77 553.45 231.77 509.76 203.69 537.24 231.77 553.45" fill="#bcadb8"/>
            <polygon points="259.85 537.24 231.77 509.76 231.77 553.45 259.85 537.24" fill="#bcadb8"/>
            <g mix-blend-mode="multiply">
              <polygon points="260.13 549.21 236.56 562.82 236.56 560.64 260.13 547.03 260.13 549.21" fill="#fadae5"/>
              <polygon points="260.13 554.49 236.56 568.09 236.56 565.91 260.13 552.31 260.13 554.49" fill="#fadae5"/>
              <polygon points="260.13 559.76 236.56 573.37 236.56 571.19 260.13 557.58 260.13 559.76" fill="#fadae5"/>
              <polygon points="260.13 565.04 236.56 578.65 236.56 576.46 260.13 562.86 260.13 565.04" fill="#fadae5"/>
              <polygon points="260.13 570.31 236.56 583.92 236.56 581.74 260.13 568.13 260.13 570.31" fill="#fadae5"/>
              <polygon points="260.13 575.59 236.56 589.2 236.56 587.01 260.13 573.41 260.13 575.59" fill="#fadae5"/>
              <polygon points="260.13 580.86 236.56 594.47 236.56 592.29 260.13 578.68 260.13 580.86" fill="#fadae5"/>
              <polygon points="260.13 586.14 236.56 599.75 236.56 597.57 260.13 583.96 260.13 586.14" fill="#fadae5"/>
              <polygon points="260.13 591.42 236.56 605.02 236.56 602.84 260.13 589.23 260.13 591.42" fill="#fadae5"/>
              <polygon points="260.13 596.69 236.56 610.3 236.56 608.12 260.13 594.51 260.13 596.69" fill="#fadae5"/>
              <polygon points="260.13 601.97 236.56 615.57 236.56 613.39 260.13 599.79 260.13 601.97" fill="#fadae5"/>
              <polygon points="260.13 607.24 236.56 620.85 236.56 618.67 260.13 605.06 260.13 607.24" fill="#fadae5"/>
              <polygon points="260.13 612.52 236.56 626.12 236.56 623.94 260.13 610.34 260.13 612.52" fill="#fadae5"/>
              <polygon points="260.13 617.79 236.56 631.4 236.56 629.22 260.13 615.61 260.13 617.79" fill="#fadae5"/>
            </g>
            <g mix-blend-mode="multiply">
              <polygon points="203.42 549.21 226.98 562.82 226.98 560.64 203.42 547.03 203.42 549.21" fill="#fadae5"/>
              <polygon points="203.42 554.49 226.98 568.09 226.98 565.91 203.42 552.31 203.42 554.49" fill="#fadae5"/>
              <polygon points="203.42 559.76 226.98 573.37 226.98 571.19 203.42 557.58 203.42 559.76" fill="#fadae5"/>
              <polygon points="203.42 565.04 226.98 578.65 226.98 576.46 203.42 562.86 203.42 565.04" fill="#fadae5"/>
              <polygon points="203.42 570.31 226.98 583.92 226.98 581.74 203.42 568.13 203.42 570.31" fill="#fadae5"/>
              <polygon points="203.42 575.59 226.98 589.2 226.98 587.01 203.42 573.41 203.42 575.59" fill="#fadae5"/>
              <polygon points="203.42 580.86 226.98 594.47 226.98 592.29 203.42 578.68 203.42 580.86" fill="#fadae5"/>
              <polygon points="203.42 586.14 226.98 599.75 226.98 597.57 203.42 583.96 203.42 586.14" fill="#fadae5"/>
              <polygon points="203.42 591.42 226.98 605.02 226.98 602.84 203.42 589.23 203.42 591.42" fill="#fadae5"/>
              <polygon points="203.42 596.69 226.98 610.3 226.98 608.12 203.42 594.51 203.42 596.69" fill="#fadae5"/>
              <polygon points="203.42 601.97 226.98 615.57 226.98 613.39 203.42 599.79 203.42 601.97" fill="#fadae5"/>
              <polygon points="203.42 607.24 226.98 620.85 226.98 618.67 203.42 605.06 203.42 607.24" fill="#fadae5"/>
              <polygon points="203.42 612.52 226.98 626.12 226.98 623.94 203.42 610.34 203.42 612.52" fill="#fadae5"/>
              <polygon points="203.42 617.79 226.98 631.4 226.98 629.22 203.42 615.61 203.42 617.79" fill="#fadae5"/>
            </g>
          </g>
          <g>
            <g>
              <polygon points="180.74 675.13 180.74 598.59 213.89 579.46 213.89 656 180.74 675.13" fill="#93bec0"/>
              <polygon points="147.6 656 147.6 579.46 180.74 598.59 180.74 675.13 147.6 656" fill="#93bec0"/>
              <path d="m180.74,560.32l-33.14,19.13,33.14,19.14,33.14-19.13-33.14-19.14Zm-26.33,19.13l26.33-15.2,26.33,15.2-26.33,15.2-26.33-15.2Z" fill="#c0cec9"/>
              <path d="m180.74,504.03l-15.47,8.93,15.47,8.93,15.47-8.93-15.47-8.93Z" fill="#c0cec9"/>
              <polygon points="154.41 579.46 154.41 534.81 180.74 550.01 180.74 594.66 154.41 579.46" fill="#93bec0"/>
              <polygon points="154.41 534.81 165.27 525.72 180.74 534.65 180.74 550.01 154.41 534.81" fill="#c0cec9"/>
              <polygon points="180.74 534.65 165.27 525.72 165.27 512.96 180.74 521.89 180.74 534.65" fill="#93bec0"/>
              <polygon points="180.74 594.66 180.74 550.01 207.08 534.81 207.08 579.46 180.74 594.66" fill="#93bec0"/>
              <polygon points="180.74 550.01 180.74 534.65 196.21 525.72 207.08 534.81 180.74 550.01" fill="#c0cec9"/>
              <polygon points="196.21 525.72 180.74 534.65 180.74 521.89 196.21 512.96 196.21 525.72" fill="#93bec0"/>
            </g>
            <g>
              <path d="m186.1,510.73l-5.36,3.09v2.23s5.36-3.09,5.36-3.09v-2.23Z" fill="#8499a8"/>
              <path d="m175.38,512.96l5.36,3.09v-2.23s-5.36-3.09-5.36-3.09v2.23Z" fill="#8499a8"/>
              <path d="m180.74,507.64l-5.36,3.09,5.36,3.09,5.36-3.09-5.36-3.09Z" fill="#c0cec9"/>
            </g>
            <g mix-blend-mode="multiply">
              <polygon points="173.63 671.03 173.63 599.49 175.47 600.56 175.47 672.09 173.63 671.03" fill="#dae0f5"/>
              <polygon points="168.32 667.96 168.32 596.43 170.17 597.49 170.17 669.03 168.32 667.96" fill="#dae0f5"/>
              <polygon points="163.02 664.9 163.02 593.36 164.86 594.43 164.86 665.97 163.02 664.9" fill="#dae0f5"/>
              <polygon points="157.71 661.84 157.71 590.3 159.56 591.37 159.56 662.9 157.71 661.84" fill="#dae0f5"/>
              <polygon points="152.41 658.77 152.41 587.24 154.25 588.3 154.25 659.84 152.41 658.77" fill="#dae0f5"/>
            </g>
            <g mix-blend-mode="multiply">
              <polygon points="187.86 671.03 187.86 599.49 186.01 600.56 186.01 672.09 187.86 671.03" fill="#dae0f5"/>
              <polygon points="193.17 667.96 193.17 596.43 191.32 597.49 191.32 669.03 193.17 667.96" fill="#dae0f5"/>
              <polygon points="198.47 664.9 198.47 593.36 196.62 594.43 196.62 665.97 198.47 664.9" fill="#dae0f5"/>
              <polygon points="203.78 661.84 203.78 590.3 201.93 591.37 201.93 662.9 203.78 661.84" fill="#dae0f5"/>
              <polygon points="209.08 658.77 209.08 587.24 207.23 588.3 207.23 659.84 209.08 658.77" fill="#dae0f5"/>
            </g>
          </g>
          <g>
            <polygon points="134.09 666.83 133.05 666.23 133.05 654.48 134.09 655.08 134.09 666.83" fill="#b38750"/>
            <polygon points="134.09 666.83 135.14 666.23 135.14 654.48 134.09 655.08 134.09 666.83" fill="#b38750"/>
            <path d="m145.56,651.7l-11.47-17.01s-11.65,17.26-11.72,17.39c-.48.78-.72,1.59-.72,2.41,0,1.84,1.22,3.67,3.64,5.08,4.86,2.81,12.73,2.81,17.59,0,2.43-1.4,3.64-3.24,3.64-5.08,0-.95-.32-1.89-.97-2.78Z" fill="#7eb6a1"/>
            <path d="m144.15,644.81l-10.05-14.91-10.05,14.91c-.57.78-.85,1.61-.85,2.44,0,1.61,1.07,3.22,3.19,4.45,4.26,2.46,11.16,2.46,15.42,0,2.13-1.23,3.19-2.84,3.19-4.45,0-.83-.29-1.66-.85-2.44Z" fill="#7ea485"/>
            <path d="m142.86,639.14c-.06-.09-8.77-13.01-8.77-13.01,0,0-8.72,12.92-8.77,13.01-.36.58-.53,1.19-.53,1.8,0,1.38.91,2.75,2.72,3.8,3.64,2.1,9.53,2.1,13.16,0,1.82-1.05,2.73-2.42,2.73-3.8,0-.61-.18-1.22-.54-1.8Z" fill="#92b7a1"/>
          </g>
          <g>
            <polygon points="69.57 627.9 68.53 627.29 68.53 615.55 69.57 616.15 69.57 627.9" fill="#b38750"/>
            <polygon points="69.57 627.9 70.61 627.29 70.61 615.55 69.57 616.15 69.57 627.9" fill="#b38750"/>
            <path d="m81.04,612.76l-11.47-17.01s-11.65,17.26-11.72,17.39c-.48.78-.72,1.59-.72,2.41,0,1.84,1.22,3.67,3.64,5.08,4.86,2.81,12.73,2.81,17.59,0,2.43-1.4,3.64-3.24,3.64-5.08,0-.95-.32-1.89-.97-2.78Z" fill="#7eb6a1"/>
            <path d="m79.62,605.88l-10.05-14.91-10.05,14.91c-.57.78-.85,1.61-.85,2.44,0,1.61,1.07,3.22,3.19,4.45,4.26,2.46,11.16,2.46,15.42,0,2.13-1.23,3.19-2.84,3.19-4.45,0-.83-.29-1.66-.85-2.44Z" fill="#7ea485"/>
            <path d="m78.34,600.2c-.06-.09-8.77-13.01-8.77-13.01,0,0-8.72,12.92-8.77,13.01-.36.58-.53,1.19-.53,1.8,0,1.38.91,2.75,2.72,3.8,3.64,2.1,9.53,2.1,13.16,0,1.82-1.05,2.73-2.42,2.73-3.8,0-.61-.18-1.22-.54-1.8Z" fill="#92b7a1"/>
          </g>
          <g>
            <polygon points="284.41 631.64 283.5 631.12 283.5 620.9 284.41 621.42 284.41 631.64" fill="#b38750"/>
            <polygon points="284.41 631.64 285.31 631.12 285.31 620.9 284.41 621.42 284.41 631.64" fill="#b38750"/>
            <path d="m294.38,618.48l-9.97-14.8s-10.13,15.01-10.19,15.12c-.42.68-.63,1.38-.63,2.09,0,1.6,1.06,3.2,3.17,4.41,4.22,2.44,11.07,2.44,15.3,0,2.11-1.22,3.17-2.82,3.17-4.41,0-.82-.28-1.65-.84-2.42Z" fill="#7eb6a1"/>
            <path d="m293.15,612.49l-8.74-12.97-8.74,12.97c-.49.68-.74,1.4-.74,2.12,0,1.4.93,2.8,2.78,3.87,3.71,2.14,9.71,2.14,13.41,0,1.85-1.07,2.78-2.47,2.78-3.87,0-.72-.25-1.44-.74-2.12Z" fill="#7ea485"/>
            <path d="m292.04,607.55c-.05-.08-7.63-11.32-7.63-11.32,0,0-7.58,11.24-7.63,11.32-.31.51-.47,1.04-.47,1.57,0,1.2.79,2.39,2.37,3.31,3.16,1.82,8.29,1.82,11.45,0,1.58-.91,2.37-2.11,2.37-3.31,0-.53-.16-1.06-.47-1.57Z" fill="#92b7a1"/>
          </g>
        </g>
        <g>
          <path d="m18.37,331.93h3.72c1.74,0,3.48-.05,5.25-.1.29-.03.42.1.42.42.03.68.03,1.4,0,2.08,0,.34-.08.47-.39.47-1.25-.05-3.56-.1-5.25-.1h-10.45c-1.07,0-2.76.08-4.78.1-.42.03-.47-.08-.55-.52-.1-.57-.18-1.51-.18-2.44,1.87.1,3.85.13,5.51.13h3.54v-8.89h-2.03c-1.87,0-2.96.05-4.03.1-.31.03-.36-.16-.44-.55-.1-.52-.21-1.53-.21-2.42,1.3.13,2.34.1,4.5.1h7.36c1.59,0,3.02,0,4.55-.08.26-.03.34.13.34.42.03.65.03,1.38,0,2.03-.03.34-.08.49-.36.49-1.74-.08-3.02-.1-4.47-.1h-2.03v8.87Z" fill="#50a76a"/>
          <path d="m33.17,320.9c0-1.79-.08-2.78-.29-3.8,1.09.13,2.47.29,3.22.55.31.08.44.23.44.42,0,.13-.05.26-.1.39-.23.49-.29,1.14-.29,2.47v5.25c0,1.35.05,2.37.08,3.28,0,.39-.16.52-.57.52h-2.08c-.36,0-.52-.13-.49-.44,0-.91.08-2.42.08-3.54v-5.1Zm12.25,4.86c0,3.85-.57,6.42-2.11,8.48-1.27,1.69-3.54,3.28-5.72,4.08-.21.08-.39.13-.55.13-.21,0-.39-.08-.62-.31-.62-.62-1.3-1.12-2.21-1.59,2.78-.86,4.97-2.08,6.34-3.8,1.2-1.48,1.74-3.64,1.74-6.94v-4.91c0-2.24-.05-3.07-.29-4.24,1.25.1,2.5.29,3.38.57.26.08.36.23.36.44,0,.13-.03.29-.1.42-.23.55-.23,1.22-.23,2.83v4.84Z" fill="#50a76a"/>
          <path d="m56.46,321.24c-1.48,0-3.07.1-4.6.21-.31.03-.42-.16-.47-.39-.21-.73-.36-2.03-.47-2.81,1.77.13,3.2.18,5.28.18h11.15c1.09,0,1.53-.05,1.79-.16.13-.05.36-.18.49-.18.21,0,.42.16.6.36.57.49,1.07,1.04,1.56,1.64.13.16.21.31.21.47,0,.21-.13.39-.36.55-.29.21-.49.47-.7.75-1.22,1.85-2.83,3.64-4.58,5.02-.16.16-.34.23-.55.23s-.44-.1-.62-.26c-.65-.52-1.3-.81-2.16-1.07,2.08-1.56,3.35-2.68,4.65-4.55h-11.23Zm1.46,10.14c.99-1.85,1.27-3.61,1.27-6.14,0-.96-.05-1.56-.26-2.44,1.27.13,2.63.31,3.35.49.34.08.44.26.44.49,0,.16-.05.31-.13.47-.18.36-.21.62-.23,1.07-.08,2.52-.34,4.84-1.53,7.15-1.01,1.95-2.57,3.8-4.73,5.17-.23.16-.47.26-.73.26-.18,0-.36-.08-.52-.23-.62-.55-1.38-.96-2.37-1.33,2.83-1.48,4.32-2.89,5.43-4.97Z" fill="#50a76a"/>
          <path d="m77,326.34c.86-.68,2.73-2.29,4.65-4.03.86-.78,1.51-1.09,2.26-1.09.88,0,1.38.23,2.26.96,1.95,1.56,3.07,2.6,5.62,4.47,2.31,1.66,4.11,2.68,6.14,3.82.26.1.39.31.26.55-.29.78-.78,1.77-1.27,2.44-.13.18-.23.26-.34.26s-.21-.03-.36-.13c-1.25-.73-4.08-2.81-5.62-4-1.87-1.4-3.74-3.07-5.46-4.6-.49-.47-.83-.6-1.14-.6-.29,0-.55.23-.88.55-1.27,1.27-3.15,3.07-4.37,4.29-.52.55-.73.81-.94,1.14-.13.21-.29.31-.47.31s-.34-.08-.49-.23c-.55-.55-1.51-1.79-2.13-2.7.78-.31,1.43-.73,2.29-1.4Z" fill="#50a76a"/>
          <path d="m113.82,321.24c-.6,4.42-1.69,8.48-3.25,11.21-1.12,1.95-2.47,2.99-4.42,2.99-2.29,0-4.6-2.44-4.6-6.68,0-2.5,1.07-4.89,2.94-6.76,2.18-2.18,4.94-3.33,8.45-3.33,6.24,0,9.91,3.85,9.91,9.02,0,4.84-2.73,7.88-8.01,9.46-.55.16-.78.05-1.12-.47-.29-.44-.83-1.04-1.82-1.64,4.39-1.04,7.85-2.86,7.85-7.77,0-3.09-2.34-6.03-5.82-6.03h-.1Zm-7.46,2.52c-1.25,1.4-2.03,3.15-2.03,4.81,0,2.39.96,3.72,1.77,3.72.68,0,1.25-.34,1.95-1.59,1.14-2.11,2.31-5.85,2.76-9.31-1.82.36-3.28,1.09-4.45,2.37Z" fill="#50a76a"/>
          <path d="m24.33,363.56c0-.94,0-2.11.03-3.22-.39.57-.83,1.12-1.3,1.69-.21.23-.36.36-.47.36-.16,0-.23-.16-.29-.44-.16-.88-.47-1.82-.78-2.37,2-2.34,3.41-5.2,4.45-8.37.18-.62.34-1.22.42-1.87.86.26,1.66.52,2.39.88.26.1.42.23.42.47,0,.18-.13.31-.29.47-.18.16-.29.39-.52,1.04-.47,1.33-.94,2.55-1.48,3.72v13.16c0,2.52.05,3.8.05,3.93,0,.26-.03.29-.29.29h-2.11c-.26,0-.29-.03-.29-.29,0-.16.05-1.4.05-3.93v-5.51Zm8.53-9.83c-2.55,0-3.41.05-3.56.05-.26,0-.29-.03-.29-.29v-1.92c0-.29.03-.31.29-.31.16,0,1.01.05,3.56.05h9.2c2.55,0,3.41-.05,3.56-.05.26,0,.29.03.29.31v1.92c0,.26-.03.29-.29.29-.16,0-1.01-.05-3.56-.05h-1.66v4h.81c2.52,0,3.43-.05,3.61-.05.26,0,.29.03.29.29,0,.16-.05,1.17-.05,4.26v4.52c0,4.58.05,5.54.05,5.69,0,.26-.03.29-.29.29h-2.03c-.26,0-.29-.03-.29-.29v-1.09h-10.89v1.2c0,.26-.03.29-.29.29h-2c-.26,0-.29-.03-.29-.29,0-.16.05-1.12.05-5.72v-4.11c0-3.59-.05-4.58-.05-4.76,0-.26.03-.29.29-.29.16,0,1.04.05,3.56.05h.68v-4h-.7Zm.7,15.31v-9.02h-1.95v9.02h1.95Zm4.42-11.31v-4h-2v4h2Zm0,11.31v-9.02h-2v9.02h2Zm2.42-9.02v9.02h2.11v-9.02h-2.11Z" fill="#50a76a"/>
          <path d="m50.51,363.33c0-.99,0-2.24.03-3.43-.47.62-.96,1.25-1.48,1.85-.21.23-.34.36-.47.36-.1,0-.21-.16-.29-.47-.21-.78-.52-1.66-.83-2.18,2.08-2.31,3.64-5.1,4.73-8.27.21-.62.36-1.2.44-1.82.83.21,1.61.42,2.39.73.29.1.42.18.42.39,0,.18-.08.29-.26.47-.18.16-.31.39-.55,1.07-.47,1.27-.99,2.5-1.53,3.64v13.31c0,2.55.05,3.82.05,3.95,0,.26-.03.29-.29.29h-2.16c-.23,0-.26-.03-.26-.29,0-.16.05-1.4.05-3.95v-5.64Zm4.65-3.38c0-1.59-.05-2.39-.18-3.38.99.03,1.74.08,2.68.18.26.03.44.18.44.34,0,.18-.1.34-.18.57-.1.29-.16.75-.16,2.26v9.67h10.4c2.44,0,3.25-.05,3.41-.05.26,0,.29.03.29.31v1.85c0,.26-.03.29-.29.29-.16,0-.96-.05-3.41-.05h-10.4v.94c0,.26-.03.29-.29.29h-2.08c-.26,0-.29-.03-.29-.29,0-.16.05-.96.05-2.76v-10.17Zm4.47-5.64c-2.55,0-3.41.05-3.56.05-.26,0-.26-.03-.26-.31v-1.77c0-.23,0-.26.26-.26.16,0,1.01.05,3.56.05h3.09l.1-.75c.08-.7.13-1.35.1-1.85.91.05,1.79.13,2.63.23.26,0,.39.16.39.31,0,.13-.08.29-.18.42-.13.18-.23.39-.29.75-.05.29-.1.6-.13.88h2.55c2.55,0,3.38-.05,3.54-.05.26,0,.29.03.29.26v1.77c0,.29-.03.31-.29.31-.16,0-.99-.05-3.54-.05h-2.94c-.1.65-.26,1.27-.39,1.9h2.13c2.05,0,2.76-.05,2.91-.05.29,0,.31.03.31.29,0,.16-.05.99-.05,2.83v5.85c0,1.85.05,2.65.05,2.81,0,.26-.03.29-.31.29-.16,0-.86-.05-2.91-.05h-3.85c-2.05,0-2.76.05-2.94.05-.26,0-.29-.03-.29-.29,0-.18.05-.96.05-2.81v-5.85c0-1.85-.05-2.65-.05-2.83,0-.26.03-.29.29-.29.16,0,.7.05,2.08.05.16-.68.26-1.3.39-1.9h-2.76Zm2.52,5.28h5.23v-1.48h-5.23v1.48Zm5.23,3.3v-1.51h-5.23v1.51h5.23Zm0,1.82h-5.23v1.53h5.23v-1.53Z" fill="#50a76a"/>
          <path d="m79.71,364.68c0,2.5.08,3.9.08,5.2,0,1.43-.21,2.13-.83,2.57-.57.42-1.22.55-2.86.57q-.81.03-1.01-.78c-.16-.73-.39-1.4-.62-1.87.62.08,1.22.08,1.9.08s.81-.23.81-.99v-5.12c-.39.13-.75.26-1.12.36-.47.16-.75.31-.91.44-.13.1-.29.16-.42.16-.16,0-.26-.1-.31-.31-.18-.7-.34-1.61-.44-2.5.75-.1,1.46-.23,2.37-.49l.83-.23v-4.86h-.34c-1.77,0-2.29.05-2.44.05-.26,0-.29-.03-.29-.29v-1.9c0-.26.03-.29.29-.29.16,0,.68.05,2.44.05h.34v-1.38c0-1.66-.03-2.5-.18-3.69.96.03,1.74.08,2.65.18.23.03.42.13.42.29,0,.21-.1.36-.18.55-.16.31-.16.86-.16,2.63v1.43c1.53,0,2.05-.05,2.21-.05.26,0,.29.03.29.29v1.9c0,.26-.03.29-.29.29-.16,0-.68-.05-2.21-.05v4.03c.73-.29,1.48-.57,2.24-.94-.05.52-.08,1.09-.1,1.69,0,.86-.03.81-.78,1.14l-1.35.6v1.25Zm6.5-1.9c-2.47,0-3.35.05-3.51.05-.26,0-.29-.03-.29-.26v-1.77c0-.29.03-.31.29-.31.16,0,1.04.05,3.51.05h7.64c2.5,0,3.35-.05,3.51-.05.29,0,.31.03.31.31v1.77c0,.23-.03.26-.31.26-.16,0-1.01-.05-3.51-.05h-2.81v2.47h2.31c1.82,0,2.47-.05,2.65-.05.26,0,.29.03.29.29v1.69c0,.26-.03.29-.29.29-.18,0-.83-.05-2.65-.05h-2.31v2.73c1.09.18,2.34.23,3.77.26,1.2,0,2.29-.03,3.48-.1-.21.44-.36,1.01-.47,1.66-.1.86-.21.88-.96.88h-1.77c-4.86-.08-8.01-.88-10.04-3.74-.6,1.27-1.38,2.42-2.47,3.54-.23.23-.39.36-.52.36-.18,0-.34-.16-.6-.47-.42-.52-.91-.94-1.35-1.2,2.37-1.79,3.25-4.06,3.77-6.29.13-.57.18-1.04.21-1.48.83.18,1.4.31,2.13.52.34.1.49.18.49.39,0,.18-.08.29-.21.44-.1.13-.16.31-.26.68-.13.44-.23.88-.36,1.3.68,1.17,1.53,1.98,2.6,2.5v-6.6h-2.29Zm6.06-12.51c2.26,0,3.02-.05,3.17-.05.26,0,.29.03.29.31,0,.16-.05.81-.05,2.37v3.61c0,1.53.05,2.21.05,2.37,0,.26-.03.29-.29.29-.16,0-.91-.05-3.17-.05h-5.07c-2.29,0-3.04.05-3.2.05-.26,0-.29-.03-.29-.29,0-.18.05-.83.05-2.37v-3.61c0-1.56-.05-2.21-.05-2.37,0-.29.03-.31.29-.31.16,0,.91.05,3.2.05h5.07Zm-5.98,2v1.51h6.84v-1.51h-6.84Zm6.84,3.35h-6.84v1.53h6.84v-1.53Z" fill="#50a76a"/>
          <path d="m102.79,363.01c0-.91,0-2,.03-3.07-.52.73-1.04,1.43-1.61,2.13-.18.23-.34.34-.44.34-.13,0-.21-.13-.29-.44-.23-.96-.6-1.85-.91-2.29,2.26-2.55,3.85-5.41,4.81-8.5.21-.6.34-1.2.39-1.82.88.23,1.82.49,2.55.81.29.13.44.18.44.36,0,.21-.1.31-.31.47-.16.13-.29.39-.52,1.04-.44,1.2-.94,2.39-1.51,3.54v13.42c0,2.55.05,3.82.05,3.95,0,.26-.03.29-.29.29h-2.16c-.26,0-.29-.03-.29-.29,0-.16.05-1.4.05-3.95v-5.98Zm7.31,4.26c.42-.6.62-1.01.88-1.66.83.36,1.61.81,2.29,1.22.23.16.29.29.29.42,0,.21-.16.31-.36.44-.16.08-.31.29-.65.73-1.04,1.43-2.37,2.91-4.06,4.16-.29.21-.44.34-.57.34s-.26-.16-.52-.49c-.42-.55-.99-1.07-1.51-1.38,1.95-1.2,3.2-2.47,4.21-3.77Zm.29-2.13c-2.55,0-3.43.05-3.59.05-.29,0-.31-.03-.31-.26v-2.03c0-.26.03-.29.31-.29.16,0,1.04.05,3.56.05v-5.17c-2,.03-2.76.05-2.89.05-.26,0-.29-.03-.29-.26v-2c0-.29.03-.31.29-.31.13,0,.88.05,2.89.05v-1.27c0-1.85-.03-2.63-.18-3.95.96.03,1.85.08,2.76.18.23.03.39.16.39.31,0,.18-.08.31-.16.52-.1.31-.13.96-.13,2.89v1.33h3.82v-1.27c0-1.85-.03-2.65-.18-3.95.99.03,1.85.08,2.76.18.26.03.42.16.42.29,0,.18-.08.34-.16.52-.13.34-.16.99-.16,2.89v1.35c2.18,0,3.02-.05,3.17-.05.29,0,.31.03.31.31v2c0,.23-.03.26-.31.26-.16,0-.99-.05-3.17-.05v5.17h.57c2.55,0,3.43-.05,3.59-.05.26,0,.29.03.29.29v2.03c0,.23-.03.26-.29.26-.16,0-1.04-.05-3.59-.05h-9.72Zm6.47-2.47v-5.17h-3.82v5.17h3.82Zm1.56,3.22c.31-.18.36-.18.52.08,1.4,1.98,3.17,3.64,5.15,4.78-.44.42-.94.99-1.3,1.64-.21.39-.34.55-.52.55-.13,0-.31-.13-.62-.34-1.92-1.38-3.59-3.22-4.94-5.3-.16-.26-.1-.29.23-.49l1.48-.91Z" fill="#50a76a"/>
        </g>
        <g>
          <path d="m253.7,337.93h3.72c1.74,0,3.48-.05,5.25-.1.29-.03.42.1.42.42.03.68.03,1.4,0,2.08,0,.34-.08.47-.39.47-1.25-.05-3.56-.1-5.25-.1h-10.45c-1.07,0-2.76.08-4.78.1-.42.03-.47-.08-.55-.52-.1-.57-.18-1.51-.18-2.44,1.87.1,3.85.13,5.51.13h3.54v-8.89h-2.03c-1.87,0-2.96.05-4.03.1-.31.03-.36-.16-.44-.55-.1-.52-.21-1.53-.21-2.42,1.3.13,2.34.1,4.5.1h7.36c1.59,0,3.02,0,4.55-.08.26-.03.34.13.34.42.03.65.03,1.38,0,2.03-.03.34-.08.49-.36.49-1.74-.08-3.02-.1-4.47-.1h-2.03v8.87Z" fill="#50a76a"/>
          <path d="m268.49,326.9c0-1.79-.08-2.78-.29-3.8,1.09.13,2.47.29,3.22.55.31.08.44.23.44.42,0,.13-.05.26-.1.39-.23.49-.29,1.14-.29,2.47v5.25c0,1.35.05,2.37.08,3.28,0,.39-.16.52-.57.52h-2.08c-.36,0-.52-.13-.49-.44,0-.91.08-2.42.08-3.54v-5.1Zm12.25,4.86c0,3.85-.57,6.42-2.11,8.48-1.27,1.69-3.54,3.28-5.72,4.08-.21.08-.39.13-.55.13-.21,0-.39-.08-.62-.31-.62-.62-1.3-1.12-2.21-1.59,2.78-.86,4.97-2.08,6.34-3.8,1.2-1.48,1.74-3.64,1.74-6.94v-4.91c0-2.24-.05-3.07-.29-4.24,1.25.1,2.5.29,3.38.57.26.08.36.23.36.44,0,.13-.03.29-.1.42-.23.55-.23,1.22-.23,2.83v4.84Z" fill="#50a76a"/>
          <path d="m291.79,327.24c-1.48,0-3.07.1-4.6.21-.31.03-.42-.16-.47-.39-.21-.73-.36-2.03-.47-2.81,1.77.13,3.2.18,5.28.18h11.15c1.09,0,1.53-.05,1.79-.16.13-.05.36-.18.49-.18.21,0,.42.16.6.36.57.49,1.07,1.04,1.56,1.64.13.16.21.31.21.47,0,.21-.13.39-.36.55-.29.21-.49.47-.7.75-1.22,1.85-2.83,3.64-4.58,5.02-.16.16-.34.23-.55.23s-.44-.1-.62-.26c-.65-.52-1.3-.81-2.16-1.07,2.08-1.56,3.35-2.68,4.65-4.55h-11.23Zm1.46,10.14c.99-1.85,1.27-3.61,1.27-6.14,0-.96-.05-1.56-.26-2.44,1.27.13,2.63.31,3.35.49.34.08.44.26.44.49,0,.16-.05.31-.13.47-.18.36-.21.62-.23,1.07-.08,2.52-.34,4.84-1.53,7.15-1.01,1.95-2.57,3.8-4.73,5.17-.23.16-.47.26-.73.26-.18,0-.36-.08-.52-.23-.62-.55-1.38-.96-2.37-1.33,2.83-1.48,4.32-2.89,5.43-4.97Z" fill="#50a76a"/>
          <path d="m323.36,327.24c-.6,4.42-1.69,8.48-3.25,11.21-1.12,1.95-2.47,2.99-4.42,2.99-2.29,0-4.6-2.44-4.6-6.68,0-2.5,1.07-4.89,2.94-6.76,2.18-2.18,4.94-3.33,8.45-3.33,6.24,0,9.91,3.85,9.91,9.02,0,4.84-2.73,7.88-8.01,9.46-.55.16-.78.05-1.12-.47-.29-.44-.83-1.04-1.82-1.64,4.39-1.04,7.85-2.86,7.85-7.77,0-3.09-2.34-6.03-5.82-6.03h-.1Zm-7.46,2.52c-1.25,1.4-2.03,3.15-2.03,4.81,0,2.39.96,3.72,1.77,3.72.68,0,1.25-.34,1.95-1.59,1.14-2.11,2.31-5.85,2.76-9.31-1.82.36-3.28,1.09-4.45,2.37Z" fill="#50a76a"/>
          <path d="m243.33,366.56c0-.94,0-2.11.03-3.22-.39.57-.83,1.12-1.3,1.69-.21.23-.36.36-.47.36-.16,0-.23-.16-.29-.44-.16-.88-.47-1.82-.78-2.37,2-2.34,3.41-5.2,4.45-8.37.18-.62.34-1.22.42-1.87.86.26,1.66.52,2.39.88.26.1.42.23.42.47,0,.18-.13.31-.29.47-.18.16-.29.39-.52,1.04-.47,1.33-.94,2.55-1.48,3.72v13.16c0,2.52.05,3.8.05,3.93,0,.26-.03.29-.29.29h-2.11c-.26,0-.29-.03-.29-.29,0-.16.05-1.4.05-3.93v-5.51Zm8.53-9.83c-2.55,0-3.41.05-3.56.05-.26,0-.29-.03-.29-.29v-1.92c0-.29.03-.31.29-.31.16,0,1.01.05,3.56.05h9.2c2.55,0,3.41-.05,3.56-.05.26,0,.29.03.29.31v1.92c0,.26-.03.29-.29.29-.16,0-1.01-.05-3.56-.05h-1.66v4h.81c2.52,0,3.43-.05,3.61-.05.26,0,.29.03.29.29,0,.16-.05,1.17-.05,4.26v4.52c0,4.58.05,5.54.05,5.69,0,.26-.03.29-.29.29h-2.03c-.26,0-.29-.03-.29-.29v-1.09h-10.89v1.2c0,.26-.03.29-.29.29h-2c-.26,0-.29-.03-.29-.29,0-.16.05-1.12.05-5.72v-4.11c0-3.59-.05-4.58-.05-4.76,0-.26.03-.29.29-.29.16,0,1.04.05,3.56.05h.68v-4h-.7Zm.7,15.31v-9.02h-1.95v9.02h1.95Zm4.42-11.31v-4h-2v4h2Zm0,11.31v-9.02h-2v9.02h2Zm2.42-9.02v9.02h2.11v-9.02h-2.11Z" fill="#50a76a"/>
          <path d="m269.51,366.33c0-.99,0-2.24.03-3.43-.47.62-.96,1.25-1.48,1.85-.21.23-.34.36-.47.36-.1,0-.21-.16-.29-.47-.21-.78-.52-1.66-.83-2.18,2.08-2.31,3.64-5.1,4.73-8.27.21-.62.36-1.2.44-1.82.83.21,1.61.42,2.39.73.29.1.42.18.42.39,0,.18-.08.29-.26.47-.18.16-.31.39-.55,1.07-.47,1.27-.99,2.5-1.53,3.64v13.31c0,2.55.05,3.82.05,3.95,0,.26-.03.29-.29.29h-2.16c-.23,0-.26-.03-.26-.29,0-.16.05-1.4.05-3.95v-5.64Zm4.65-3.38c0-1.59-.05-2.39-.18-3.38.99.03,1.74.08,2.68.18.26.03.44.18.44.34,0,.18-.1.34-.18.57-.1.29-.16.75-.16,2.26v9.67h10.4c2.44,0,3.25-.05,3.41-.05.26,0,.29.03.29.31v1.85c0,.26-.03.29-.29.29-.16,0-.96-.05-3.41-.05h-10.4v.94c0,.26-.03.29-.29.29h-2.08c-.26,0-.29-.03-.29-.29,0-.16.05-.96.05-2.76v-10.17Zm4.47-5.64c-2.55,0-3.41.05-3.56.05-.26,0-.26-.03-.26-.31v-1.77c0-.23,0-.26.26-.26.16,0,1.01.05,3.56.05h3.09l.1-.75c.08-.7.13-1.35.1-1.85.91.05,1.79.13,2.63.23.26,0,.39.16.39.31,0,.13-.08.29-.18.42-.13.18-.23.39-.29.75-.05.29-.1.6-.13.88h2.55c2.55,0,3.38-.05,3.54-.05.26,0,.29.03.29.26v1.77c0,.29-.03.31-.29.31-.16,0-.99-.05-3.54-.05h-2.94c-.1.65-.26,1.27-.39,1.9h2.13c2.05,0,2.76-.05,2.91-.05.29,0,.31.03.31.29,0,.16-.05.99-.05,2.83v5.85c0,1.85.05,2.65.05,2.81,0,.26-.03.29-.31.29-.16,0-.86-.05-2.91-.05h-3.85c-2.05,0-2.76.05-2.94.05-.26,0-.29-.03-.29-.29,0-.18.05-.96.05-2.81v-5.85c0-1.85-.05-2.65-.05-2.83,0-.26.03-.29.29-.29.16,0,.7.05,2.08.05.16-.68.26-1.3.39-1.9h-2.76Zm2.52,5.28h5.23v-1.48h-5.23v1.48Zm5.23,3.3v-1.51h-5.23v1.51h5.23Zm0,1.82h-5.23v1.53h5.23v-1.53Z" fill="#50a76a"/>
          <path d="m315.48,368.54c0,2.26.05,3.64.05,4.55,0,.96-.23,1.66-.75,2.13-.52.44-1.51.6-3.69.65-.83,0-.81-.03-.99-.78-.18-.78-.42-1.4-.73-1.9.81.05,1.48.1,2.18.1.75,0,1.09-.18,1.09-.83v-13.05h-15.34v12.45c0,2.44.05,3.67.05,3.82,0,.23-.03.26-.29.26h-2.34c-.26,0-.29-.03-.29-.26,0-.18.05-1.43.05-4.16v-10.17c0-2.73-.05-4-.05-4.19,0-.26.03-.29.29-.29.18,0,1.07.05,3.54.05h3.04c.55-1.01,1.04-2.11,1.38-2.99.18-.47.29-.83.39-1.46,1.07.13,2.16.29,2.91.44.23.05.31.18.31.34,0,.21-.1.34-.21.44-.21.18-.34.36-.44.62-.39.83-.86,1.77-1.33,2.6h7.38c2.47,0,3.35-.05,3.51-.05.29,0,.31.03.31.29,0,.16-.05,1.59-.05,4.32v7.05Zm-15.18,3.35c-.26,0-.29-.03-.29-.29,0-.18.05-.83.05-4.34v-2.24c0-2-.05-2.68-.05-2.86,0-.26.03-.29.29-.29.16,0,.81.05,2.76.05h3.72c1.98,0,2.6-.05,2.78-.05.26,0,.29.03.29.29,0,.16-.05.83-.05,2.42v2.44c0,3.43.05,4.06.05,4.21,0,.26-.03.29-.29.29h-1.95c-.29,0-.31-.03-.31-.29v-.78h-4.76v1.14c0,.26-.03.29-.29.29h-1.95Zm2.24-3.77h4.76v-3.87h-4.76v3.87Z" fill="#50a76a"/>
          <path d="m323.25,374.78c-2.34,0-3.15.05-3.3.05-.26,0-.29-.03-.29-.29v-2.37c0-.26.03-.29.29-.29.16,0,.96.05,3.3.05h5.49v-14.67c0-2.11-.03-3.17-.21-4.34.99.03,2.16.08,3.04.18.26.03.47.18.47.34,0,.21-.1.39-.18.6-.1.29-.18.94-.18,2.5v4.11h5.1c2.26,0,3.04-.05,3.2-.05.26,0,.29.03.29.29v2.37c0,.26-.03.29-.29.29-.16,0-.94-.05-3.2-.05h-5.1v8.45h7.1c2.34,0,3.15-.05,3.3-.05.26,0,.29.03.29.29v2.37c0,.26-.03.29-.29.29-.16,0-.96-.05-3.3-.05h-15.52Z" fill="#50a76a"/>
        </g>
        <g>
          <g>
            <line x1="159.35" y1="383.57" x2="159.35" y2="311.69" fill="none" stroke="#50a76a" stroke-miterlimit="10" stroke-width="4"/>
            <polyline points="149.31 374.58 159.35 384.61 169.38 374.58" fill="none" stroke="#50a76a" stroke-miterlimit="10" stroke-width="4"/>
          </g>
          <g>
            <line x1="206.38" y1="312.74" x2="206.38" y2="384.61" fill="none" stroke="#50a76a" stroke-miterlimit="10" stroke-width="4"/>
            <polyline points="216.42 321.73 206.38 311.69 196.35 321.73" fill="none" stroke="#50a76a" stroke-miterlimit="10" stroke-width="4"/>
          </g>
        </g>
        <g>
          <g>
            <path d="m164.26,262.76h-3.1v-9.41c0-2.33.02-4.37.05-6.58h-.34c-.48,2.14-.91,4.06-1.54,6.34l-2.52,9.65h-3.79l-2.45-9.53c-.58-2.16-1.03-4.18-1.58-6.46h-.34c.05,2.16.07,4.32.07,6.62v9.36h-2.86v-18.63h5.26l2.35,9.5c.48,1.94.96,4.1,1.34,6.14h.34c.5-2.04.89-3.96,1.44-6.1l2.38-9.55h5.28v18.63Z"/>
            <path d="m180.98,246.7h-9v5.02h6.82v2.57h-6.82v8.47h-3.26v-18.63h12.26v2.57Z"/>
            <path d="m190.61,244.13c4.66,0,6.36,1.7,6.36,4.63,0,2.14-1.44,3.67-3.7,4.06v.17c2.76.46,4.27,2.09,4.27,4.49,0,3.29-2.35,5.28-6.6,5.28h-6.98v-18.63h6.65Zm-3.48,7.66h2.83c2.54,0,3.79-1.06,3.79-2.71s-.91-2.52-3.5-2.52h-3.12v5.23Zm0,8.54h3.46c2.47,0,3.7-1.15,3.7-3.1s-1.51-3.02-4.1-3.02h-3.05v6.12Z"/>
            <path d="m219.36,262.76h-3.1v-9.41c0-2.33.02-4.37.05-6.58h-.34c-.48,2.14-.91,4.06-1.54,6.34l-2.52,9.65h-3.79l-2.45-9.53c-.58-2.16-1.03-4.18-1.58-6.46h-.34c.05,2.16.07,4.32.07,6.62v9.36h-2.86v-18.63h5.26l2.35,9.5c.48,1.94.96,4.1,1.34,6.14h.34c.5-2.04.89-3.96,1.44-6.1l2.38-9.55h5.28v18.63Z"/>
          </g>
          <polyline points="125.75 271.41 115.98 271.41 115.98 235.13 125.75 235.13" fill="none" stroke="#000" stroke-miterlimit="10" stroke-width="1.96"/>
          <polyline points="239.98 271.41 249.75 271.41 249.75 235.13 239.98 235.13" fill="none" stroke="#000" stroke-miterlimit="10" stroke-width="1.96"/>
        </g>
        <g>
          <g>
            <polygon points="257.48 56.69 271.62 86.65 265.92 92.9 246.3 60.66 257.48 56.69" fill="#f1cfcd"/>
            <path d="m220.34,208.84l.29-14.49c-.34-1.37-2.17-1.65-3.63-2.93-.65-.57-1.59-.63-2.23-.16l-1.38,1.01c-2.05,1.38-2.16,1.79-1.71,3.6l2.66,10.71c.45,1.8,2.07,3.75,3.6,4.33l.43.16c1.53.58,2.42-.43,1.97-2.23Z" fill="#001e26"/>
            <path d="m215.39,192.15s1.37,8.85,3.63,9.42c0,0,1.45.36,1.5-1.98.05-2.34.65-6.88.65-6.88l-5.79-.56Z" fill="#f1cfcd"/>
            <path d="m224.05,23.25s-10.62,2.08-13.22,6.14c-2.61,4.07,2,14.1,2,14.1v-5.24s-6.13-10.08,10.8-12.29c11.37-1.48.42-2.71.42-2.71Z" fill="#001e26"/>
            <path d="m223.85,23.56s-17.52,11.34-11.02,22.32c6.49,10.98,24.09,15.71,24.09,15.71l7.15-36.89-20.23-1.15Z" fill="#001e26"/>
            <path d="m251.85,203.69l-10.82-7.6c-1.38-.56-4.31-.63-6.23-.27-.86.16-1.43.85-1.38,1.63l.11,1.68c.07,2.42.37,2.75,2.19,3.48l10.83,4.37c1.82.74,4.42.65,5.78-.19l.38-.24c1.35-.84.97-2.13-.85-2.86Z" fill="#001e26"/>
            <path d="m234.35,196.3c.13,3.36,6.95,4.57,7.08,1.16,8.28-31.62,9.35-60.56,10.93-94l-20.89-17.59c1.69,29.02,4.33,53.6,3.81,78.66-.07,3.25-1.69,6.69-1.87,9.81-.37,6.48,1.49,15.64.93,21.96Z" fill="#f1cfcd"/>
            <path d="m215.48,190.97c-.74,2.95,3.45,5.79,5.32,3.15,5.64-11.61,9.76-20.55,13.6-29.32,2.91-6.64,3.53-14.59,4.75-22.56,2.91-19.02-16.74-23.82-15.76-4.49.4,7.9.25,15.85-.72,23.74-.47,3.82-2.65,3.63-3.91,10.04-1.28,6.51-1.53,10.14-3.28,19.45Z" fill="#f1cfcd"/>
            <path d="m264.7,68.68l-13.11-23.41s-18.05,22.63-1.82,29.22l7.74,7.88,10.26-5.05-3.08-8.63Z" fill="#7285b1"/>
            <path d="m223.82,89.7c-9.09.18-.06,36.14-3.66,62,0,0,18.96,17.44,35.01,2.17l-.6-59.44-30.76-4.73Z" fill="#633750"/>
            <path d="m254.16,92.72c.53-6.36-2.53,6.33-2.41-1.03.05-2.83,1.42-10.94,2.1-16.3.64-5.01,5.87-7.99,4.79-14.09-.14-3.33-6.03-9.5-6.29-11.93-.4-3.85-.67-7.4-8.76-11.19l-3.56.77c-1.7.37-3.34.92-4.88,1.63-16.49,7.64-20.09,8.01-18.94,17.67.19,4.97,3.14,1.1,4.03,4.39,1.71,6.31,8.37,12.74,6.02,23.8-.47,2.23-2.22,3.75-.23,5.24,8.62,6.42,25.09,7.65,28.11,1.03Z" fill="#7285b1"/>
            <path d="m254.69,92.67c0,.24.02-.02,0,0h0Z" fill="#ff5cab"/>
            <path d="m272.65,97l-3.12,1.77c-1.52.87-3.48.82-4.35-.1l-.61-.64c-.87-.92-.34-2.38,1.18-3.25l3.12-1.77c1.52-.87,3.48-.82,4.35.1l.61.64c.87.92.34,2.38-1.18,3.25Z" fill="#f1cfcd"/>
            <path d="m239.31,96.82l-.09-.66,1.11.32.16-.42,24.61-12.6c.3-.15.86-.14,1.25.03l12.18,5.18-.02-.15,2.21.66.1.7h-.01c-.02.07-.07.13-.17.18l-25.61,13.12c-.3.15-.86.14-1.25-.03l-14.1-6c-.21-.09-.34-.21-.35-.32h0Z" fill="#bfc6c9"/>
            <path d="m254.93,102.47l25.61-13.12c.3-.15.22-.41-.18-.58l-14.1-6c-.39-.17-.96-.18-1.25-.03l-25.61,13.12c-.3.15-.22.41.18.58l14.1,6c.39.17.96.18,1.25.03Z" fill="#dde5e8"/>
            <path d="m251.82,94.23l6.2-3.17c.07-.04.05-.1-.04-.14l-3.41-1.45c-.1-.04-.23-.04-.3,0l-6.2,3.17c-.07.04-.05.1.04.14l3.41,1.45c.1.04.23.04.3,0Z" fill="#bfc6c9"/>
            <path d="m240.72,96.93c-9.18-.36-17.41-2.86-24.81-7.17-1.99-1.16-3.25-3.26-3.3-5.49-.11-5.11-.05-14.17,1.68-15.64l7.93,9.09-.37,5.07c8.66,3.81,13.21,8.33,18.5,9.93l.38,4.21Z" fill="#f1cfcd"/>
            <path d="m226.28,44.65s6.05,14.5,14.84,10.72c8.79-3.78,2.42-16.89,2.42-16.89,0,0-9.13,1.88-17.26,6.17Z" fill="#cedae2"/>
            <path d="m236.49,47.44l.58.12c1.97.4,3.79-.8,4.04-2.66l1.42-10.48c.25-1.86-1.15-3.7-3.12-4.1l-.58-.12c-1.97-.4-3.79.8-4.04,2.66l-2.94,9.76c-.25,1.86,2.66,4.43,4.63,4.83Z" fill="#f1cfcd"/>
            <path d="m255.72,88.7c.11-.56.68-1.25,1.26-1.54l27.07-13.55c.24-.12.45-.15.6-.11h0s0,0,0,0c.05.02.1.04.14.07l.89.67h-.81s-2.61,12.96-2.61,12.96c-.11.56-.68,1.25-1.26,1.54l-25.59,12.81-.83.77-.1.18c-.52.12-1.75-.48-1.75-.48l3-13.32Z" fill="#fff"/>
            <path d="m256.88,83.44c.11-.56.68-1.25,1.26-1.54l27.07-13.55c.24-.12.45-.15.6-.11h0s0,0,0,0c.05.02.1.04.14.07l.89.67h-.81s-2.61,12.96-2.61,12.96c-.11.56-.68,1.25-1.26,1.54l-25.59,12.81-.83.77-.1.18c-.52.12-1.75-.48-1.75-.48l3-13.32Z" fill="#fff"/>
            <path d="m286.07,69.06l-27.07,13.55c-.58.29-1.15.98-1.26,1.54l-2.64,13.1s0,.02,0,.03l-1.06,5.25c-.11.56.27.78.85.48l27.07-13.55c.58-.29,1.15-.98,1.26-1.54l2.64-13.1s0-.02,0-.03l1.06-5.25c.11-.56-.27-.78-.85-.48Z" fill="#5691bb"/>
            <path d="m270.23,86.68c-.03.95.87,1.26,2,.69,1.14-.57,2.08-1.81,2.11-2.76.03-.95-.87-1.26-2-.69-1.14.57-2.08,1.81-2.11,2.76Z" fill="#fff"/>
            <path d="m236.19,198.67s7.74,3.16,9.14,2.23c1.18-.78-4.54-4.52-4.54-4.52l-4.6,2.29Z" fill="#f1cfcd"/>
            <path d="m211.05,76.66c-.02-11.09,2.41-19.74,4.32-24.82.83-2.21,3.07-2.83,5.72-4.55.43-.28.26,2.28.74,2.64h0c2.91,2.19,4.44,6.06,3.88,9.78l-2.97,22.6,13.78,8.02s1.36,5.17-2.16,8.09c0,0-20.6-8.05-21.96-9.87-1.36-1.82-1.36-11.88-1.36-11.88Z" fill="#7285b1"/>
            <path d="m238.08,94.09h0c-.28,1.62.82,3.18,2.44,3.46l5.65.96c1.62.28,3.18-.82,3.46-2.44h0c.28-1.62-.82-3.18-2.44-3.46l-5.65-.96c-1.62-.28-3.18.82-3.46,2.44Z" fill="#f1cfcd"/>
            <path d="m232.38,18.35c1.67-2.69,4.22-3.16,6.59-1.61,2.32-.94,5.12.44,7.19,3.96,2.88,4.89,2.59,11.68.79,15.95-.97,2.31-2.12,3.92-7.65,2.96-3.75-.72-5.86-1.82-7.98-5.42-2.88-4.89-1.39-11.91,1.05-15.83Z" fill="#f1cfcd"/>
            <path d="m245.48,22.59c-6.65,10.29-10.52,7.33-10.68,8.94,0,0-1.3,5.48-1.3,5.49-.67,3.19-3.73.68-6.85,1.71h0s-10.22-11.82,2.48-21.32c8.59-6.43,20.48-.1,19.19,8.36l-2.83-3.18Z" fill="#001e26"/>
            <ellipse cx="233.67" cy="31.84" rx="2.33" ry="2.56" transform="translate(85.79 215.54) rotate(-58.93)" fill="#f1cfcd"/>
          </g>
          <path d="m179.3,65.34c1.29.31,2.49-.12,3.65-.25,3.6-.41,6.33-.06,8.6,1.25.55.32-1.56,6.09-4.07,7.92-.12.09-.28-.06-.4-.1l-2.34-.74-6.34-2.12.91-5.94Z" fill="#db9669" fill-rule="evenodd"/>
          <path d="m181.4,65.35c2.3-.39,3.86-1.41,5.16-1.44,1.33-.03,3.25,1.04,5.67,1.29-.44,2.41-3.61.84-4.76,1.06-1.06.2-1.12,1.49-2.11,1.52-1.56.04-3.8-.71-3.96-2.42Z" fill="#db9669" fill-rule="evenodd"/>
          <path d="m155.38,70c10.22,1.77,15.3,1.25,25.63,2.26-1.14-3.93.98-7.46,2.56-7.84-8.74-1.82-19.33-4.73-28.36-4.69l.17,10.27Z" fill="#cee6f5" fill-rule="evenodd"/>
          <path d="m153.43,70.28c10.22,1.77,15.77,1.18,26.1,2.18-1.46-4.19.76-8.38,2.59-8.74-8.74-1.82-19.33-4.73-28.36-4.69l-.34,11.25Z" fill="#a7a9ac"/>
          <path d="m131.87,211.78c1.29-.16,2.33-.18,3.61-.66.33-.12.67-1.41.7-2.53.05-2.34-.16-2.14-1.13-5.85-.33-1.27-.6-2.48-1.05-3.96-.57-1.84-1.27-3.47-1.35-5.28l-6.86-.27-2.15-.1c-.64,1.87-1.23,3.32-1.17,4.49.06,1.22.2,2.41.38,3.94.79,6.86,6.65,10.51,9.01,10.21Z" fill="#111214" fill-rule="evenodd"/>
          <path d="m164.89,196.01c2.6.03,1.75-2.82-.44-4.38-4.6-3.26-7.76-5.41-9.91-8.41-1.07-1.51-1.26-2.84-2-5.43-3.86-.13-7.59-.35-11.44-.63-1.13,3.31-1.8,2.88-1.64,7.12.35,4.89,17.76,11.62,25.42,11.72Z" fill="#111214" fill-rule="evenodd"/>
          <g>
            <g>
              <path d="m138.22,107c-.43-3.49-.67-6.85-.55-9.89,3.12-1.25,6.4-2.43,9.56-3.81l-.23-.19c3.35-1.57,6.24-4.02,10.11-6.24,1.62,5.09,2.22,7.37,2.09,11.52-.16,5.4-.93,10.9-1.81,16.38-.56,8.39-1.32,17.15-1.86,22.88-1.39,14.62-1.22,29.04-2.09,43.63-2.1,1.56-10.55,3.15-13.53-1.02l-1.69-73.25Z" fill="#50546b"/>
              <path d="m125.12,96.67c.33-.68.72-1.23,1.17-1.64l9.04-.71,10.72-1.25c.71,3.51.97,8.1-.08,12.73-.03.13-.12.31-.24.53-.1.76-.24,1.52-.41,2.29-.16.7-1.88,2.67-3.12,4.32-1.11,11.25-3.27,26.88-4.53,34.86-2.28,14.5-.92,31.81-2.2,46.38-1.98,3.1-11.17,3.44-14.03-.42l3.67-97.09Z" fill="#50546b"/>
            </g>
            <g>
              <path d="m138.22,107c-.43-3.49-.67-6.85-.55-9.89,3.12-1.25,6.4-2.43,9.56-3.81l-.23-.19c3.35-1.57,6.24-4.02,10.11-6.24,1.62,5.09,2.22,7.37,2.09,11.52-.16,5.4-.93,10.9-1.81,16.38-.56,8.39-1.32,17.15-1.86,22.88-1.39,14.62-1.22,29.04-2.09,43.63-2.1,1.56-10.55,3.15-13.53-1.02l-1.69-73.25Z" fill="#50546b"/>
              <path d="m125.12,96.67c.33-.68.72-1.23,1.17-1.64l9.04-.71,10.72-1.25c.71,3.51.97,8.1-.08,12.73-.03.13-.12.31-.24.53-.1.76-.24,1.52-.41,2.29-.16.7-1.88,2.67-3.12,4.32-1.11,11.25-3.27,26.88-4.53,34.86-2.28,14.5-.92,31.81-2.2,46.38-1.98,3.1-11.17,3.44-14.03-.42l3.67-97.09Z" fill="#50546b"/>
            </g>
          </g>
          <path d="m149.98,26.4c3.61-.23,5.23.53,7.13,3.36,3.32,4.95,3.84,15.5,3.61,25.01-.13,5.38-.99,10.12-1.05,16.81-.08,8.02,2.36,22.14,1.97,30.62-.73,1.57-5.87,4.21-6.55,4.07.66-8.46.84-19.83.52-31.47-.32-11.3-1.11-22.86-3.22-31.44-3.1-12.59-8.43-13.95-7.89-15.65.11-.34,5.28-1.29,5.49-1.3Z" fill="#a7a9ac"/>
          <path d="m135.31,76.66c.14,1.95.19,3.73.15,5.37-5.19-4.73-10.06-10.78-14.61-17.32-2.33-6.56-4.44-13.13-4.4-17.79l18.86,29.75Z" fill="#11101a" fill-rule="evenodd"/>
          <path d="m157.21,87.24c-.04.25-.13.49-.3.71-3.32,4.62-24.11,11.58-28.47,11.22,3.45-30.03-28-55.6,5.7-65.5l9.7,5.34,3.47-.62.44-4.27c4.69,4.67,6.86,10.85,7.7,19.44,1.09,11.25-1.27,21.34,1.75,33.68Z" fill="#dadef0"/>
          <path d="m123.56,37.61c1.81-1,5.5-3.27,9.48-5.49-3.35,4.02,4.74,13.67,8.5,25.71,2.22,7.11,5.48,31.52-1.32,53.63-12.39,4.17-19.08-2.31-20.28-3.47,1.6-13.12,6.11-15.02,6.48-23.18.34-7.5-10.25-27.5-10.15-37.86.04-4.6,3.91-7.46,7.3-9.34Z" fill="#a7a9ac"/>
          <path d="m147.32,28.9c3.37,1.57,4.48,2.2,6.82,5.81l-2.05,1.42,2.85,1.2c1.02,10.45,2.1,22.07.85,32.66-.53-10.33-2.3-20.93-4.88-29.62-.99-3.33-2.36-4.76-4.54-8.03-.36-.54.32-3.75.95-3.45Z" fill="#c8b9c3"/>
          <path d="m133.06,30.83c-1.09,1.44-1.94,2.69-2.37,3.73-1.32,3.21-1.15,8.24.44,13.8l3.23-1.2-1.56,3.52c6.5,8.49,10.14,21.14,10.64,34.14,4.22-33.78-11.57-42.18-10.38-54Z" fill="#c8b9c3"/>
          <path d="m149.34,75.72c-.98-6.57-1.71-21.77-3.54-28.36.24-1.21.48-2.22.81-3.39-2.03-1.74-2.12-1.74-2.54-4.11,1.45-1.34,2.26-1.51,4.16-1.33.51.34.73,2.03,0,4.57.53.16,1.22.34,2.15.93,1.87,12.82,4.46,19.09,3.48,31.24l-1.29,2.84-3.22-2.38Z" fill="#3e4f5e" fill-rule="evenodd"/>
          <path d="m146.23,38.55c.24-.61.36-1.86.62-2.95.23-.98.59-1.8.81-2.3,1.33.17,1.92,4.2,3.05,6.57-1.75-1.22-2.51-1.33-4.48-1.32Z" fill="#e8f6ff" fill-rule="evenodd"/>
          <path d="m133.8,30.17c-.27,4.31,7.91,7.3,12.47,8.39-1.15,1.38-2.62,3.12-2.57,4.5-3.29-.9-8.87-2.45-11.13-6.66-1.55-2.88-.27-5.09,1.23-6.23Z" fill="#e8f6ff" fill-rule="evenodd"/>
          <path d="m147.11,34.73c.15-.42.32-.83.48-1.27.47-1.27.48-3.95,1.29-6.92l-11.71-5.1-2.51-1.33c.91,4.41.37,7.04-.88,10.17-.13,4.24,7.9,7.19,12.44,8.27.4-1.03.43-2.53.88-3.81Z" fill="#f1cfcd"/>
          <path d="m153.43,15.18c-.09-.49-.71-2.75-.83-3.22-1.47-5.46-5.09-9.76-11.77-9.86-3.44-.05-6.25,1.1-8.4,3.58-2.45,2.84-3.79,7.39-2.47,11.1.55,1.56,1.68,2.81,4.56,4.09,1.58,3.77,1.81,6.92,4.89,8.34,1.41.65,4.96,1.29,6.51,1.92,1.98.54,2.67.43,3.36.13,3.16-1.38,5.29-9.72,4.16-16.09Z" fill="#f1cfcd"/>
          <path d="m149.64,8.68c.74.03,1.62-.4,2.23,1.11-.44-2.48-1.19-2.71-2.72-2.94l.49,1.83Z" fill="#361d07" fill-rule="evenodd"/>
          <path d="m141.34,11.48c-4.68-.47-10.71-3.99-11.93-6.1-2.53,4.96-2.01,12.36,1.91,16.4,1.13,2.14,2.23,4.25,3.29,6.42.92-3.25,1.24-5.95,1.52-9.18l.2-.29c.27.56.94,1.95,1.19,2.52.29,0,.77-.43,1.19-.68-.82-4.32.34-7.5,2.63-9.1Z" fill="#361d07" fill-rule="evenodd"/>
          <path d="m140.71,11.77c4.92-.43,11.38-2.68,13.85-6.41-4.46.67-9.52-5.98-16.56-5.32-4.08.38-8.49,2.47-8.68,6.03,1.33,1.76,7.3,6.06,11.4,5.7Z" fill="#361d07" fill-rule="evenodd"/>
          <path d="m134.65,17.39c-2.64-.6-2.35,2.34-1.76,4.08.4,1.2,1.4,1,1.87,1.93.56,1.11,1.51,1.55,2.27,1.45,1.54-.2.35-2.41.07-3.3.02-1.52-.77-3.78-2.44-4.16Z" fill="#f1cfcd"/>
          <path d="m116.4,44.09c-2.66,7.27-3.05,22.11-2.46,31.78.3,4.92.88,8.74,4.81,9.86,3.72,1.07,6.97-2.74,7.72-6.63.89-4.61,1.5-10.29,2.77-20.01,1.35-10.37-9.29-24.72-12.85-15Z" fill="#a7a9ac"/>
          <g>
            <path d="m148.17,87.62l-1.48-2.25-.03-4.43c1.91-1.59,1.77-2.87,2.72-2.64,3.42.81,3.1,10.44-1.21,9.32Z" fill="#a7a9ac"/>
            <g>
              <path d="m147.66,78.78c4.89.45,11.02-2.01,13.77-.23,2.38,1.54,1.35,5.1.06,6.82-1.05,1.4-5.44,1.65-8.28,2.01-2.52.31-4.32-1.77-6.1-1.41-1.65-2.09-.24-4.96.55-7.18Z" fill="#f1cfcd"/>
              <path d="m160.34,78.16c2.32,0,6.05-.18,8.36-.22,1.63-.03,1.06,2.47-.42,2.64-1.45.17-5.27.5-5.28.5-1.51-.1-3.06-1.1-2.67-2.92Z" fill="#f1cfcd"/>
            </g>
            <path d="m114.98,79.45c1.09,2.52,1.14,4.38,3.78,5.81,1.13.61,2.62.8,4.31.98,6.48.7,15.9,1.57,25.31,1.44-.51-.85-1.09-3.21-.96-5.59.08-1.49.57-2.92,1.92-3.8-7.69-1.56-16.43-1.52-23.83-2.53-1.77-.24-1.36-.08-2.98-.12l-7.55,3.8Z" fill="#a7a9ac"/>
          </g>
          <polygon points="197.52 41.25 182.21 49.52 163.14 85.96 167.1 88.03 179.37 76.47 197.52 41.25" fill="#d2d6d9" fill-rule="evenodd"/>
          <polygon points="197.52 41.25 182.21 49.52 186.67 52.05 201.5 43.59 197.52 41.25" fill="#e3e6e8" fill-rule="evenodd"/>
          <polygon points="200.85 42.95 185.55 51.22 166.15 88.05 167.81 88.95 182.7 78.18 200.85 42.95" fill="#2f3133" fill-rule="evenodd"/>
          <path d="m188.8,66.54c2.62-.48,2.62-1.12,2.77-.23.23,1.3-1.58,6.11-4.09,7.94-.01.01-1.75.46-2.64.43-.75-.03-.7-.43-.3-1.47l1.79-4.64c.59-1.39.85-1.74,2.46-2.03Z" fill="#f1cfcd"/>
          <path d="m181.95,49.39c4.28-2.09,7.67-1.74,8.64.65,1.77,4.35-1.95,13.69-3.97,18.91l15.31-8.08c4.54-11.82,6.92-24.32-5.1-19.56l-14.88,8.08Z" fill="#f2f4f5" fill-rule="evenodd"/>
        </g>
      </g>
    </g>
  </g>
</svg>