<?xml version="1.0" encoding="UTF-8"?>
<svg xmlns="http://www.w3.org/2000/svg" viewBox="0 0 534.77 695.39">
  <g isolation="isolate">
    <g id="_レイヤー_2" data-name="レイヤー 2">
      <g id="_デザイン" data-name="デザイン">
        <g>
          <g>
            <path d="m238.89,505.08v117.06c0,1,.65,1.99,1.96,2.75l30.27,17.48c2.62,1.51,6.9,1.51,9.52,0l30.27-17.48c1.31-.76,1.96-1.75,1.96-2.75v-117.06h-73.98Z" fill="#a9c8c9"/>
            <path d="m240.86,507.83c-1.31-.76-1.96-1.75-1.96-2.75,0-1,.65-1.99,1.96-2.75l30.27-17.48c2.62-1.51,6.9-1.51,9.52,0l30.27,17.48c1.31.76,1.96,1.75,1.96,2.75s-.65,1.99-1.96,2.75l-30.27,17.48c-2.62,1.51-6.9,1.51-9.52,0l-30.27-17.48Z" fill="#c8dadc"/>
          </g>
          <g>
            <path d="m246.82,499.65v5.43c0,.78.51,1.56,1.54,2.16l23.79,13.73c2.06,1.19,5.42,1.19,7.48,0l23.79-13.73c1.03-.59,1.54-1.38,1.54-2.16v-5.43h-58.13Z" fill="#a9c8c9"/>
            <path d="m248.36,501.81c-1.03-.59-1.54-1.38-1.54-2.16s.51-1.56,1.54-2.16l23.79-13.73c2.06-1.19,5.42-1.19,7.48,0l23.79,13.73c1.03.59,1.54,1.38,1.54,2.16s-.51,1.57-1.54,2.16l-23.79,13.73c-2.06,1.19-5.42,1.19-7.48,0l-23.79-13.73Z" fill="#c8dadc"/>
          </g>
          <g>
            <path d="m253.21,494.23v5.43c0,.61.4,1.22,1.2,1.68l18.56,10.71c1.6.93,4.23.93,5.83,0l18.56-10.71c.8-.46,1.2-1.07,1.2-1.68v-5.43h-45.36Z" fill="#a9c8c9"/>
            <path d="m254.41,495.91c-.8-.46-1.2-1.07-1.2-1.68s.4-1.22,1.2-1.68l18.56-10.71c1.6-.93,4.23-.93,5.83,0l18.56,10.71c.8.46,1.2,1.07,1.2,1.68,0,.61-.4,1.22-1.2,1.68l-18.56,10.71c-1.6.93-4.23.93-5.83,0l-18.56-10.71Z" fill="#c8dadc"/>
          </g>
          <g>
            <path d="m269.11,487.8v6.43c0,.18.12.36.36.5l5.54,3.2c.48.28,1.26.28,1.74,0l5.54-3.2c.24-.14.36-.32.36-.5v-6.43h-13.55Z" fill="#a9c8c9"/>
            <path d="m269.47,488.31c-.24-.14-.36-.32-.36-.5s.12-.36.36-.5l5.54-3.2c.48-.28,1.26-.28,1.74,0l5.54,3.2c.24.14.36.32.36.5s-.12.36-.36.5l-5.54,3.2c-.48.28-1.26.28-1.74,0l-5.54-3.2Z" fill="#c8dadc"/>
          </g>
          <polygon points="248.89 620.4 241.85 616.34 241.85 516.11 248.89 520.17 248.89 620.4" fill="#dae0f5" mix-blend-mode="multiply"/>
          <polygon points="259.27 626.39 252.23 622.33 252.23 522.1 259.27 526.16 259.27 626.39" fill="#dae0f5" mix-blend-mode="multiply"/>
          <polygon points="269.65 632.39 262.61 628.32 262.61 528.09 269.65 532.15 269.65 632.39" fill="#dae0f5" mix-blend-mode="multiply"/>
          <polygon points="302.88 620.4 309.92 616.34 309.92 516.11 302.88 520.17 302.88 620.4" fill="#dae0f5" mix-blend-mode="multiply"/>
          <polygon points="292.5 626.39 299.54 622.33 299.54 522.1 292.5 526.16 292.5 626.39" fill="#dae0f5" mix-blend-mode="multiply"/>
          <polygon points="282.12 632.39 289.16 628.32 289.16 528.09 282.12 532.15 282.12 632.39" fill="#dae0f5" mix-blend-mode="multiply"/>
        </g>
        <g>
          <circle cx="64.08" cy="544.54" r="57.19" fill="#ffffcd"/>
          <g>
            <path d="m44.44,519.72c-2.09,0-2.81.05-2.95.05-.22,0-.24-.02-.24-.26v-1.44c0-.24.02-.26.24-.26.14,0,.86.05,2.95.05h6.43v-1.13h-3.96c-2.33,0-3.12.05-3.26.05-.24,0-.26-.02-.26-.24v-1.32c0-.24.02-.26.26-.26.14,0,.94.05,3.26.05h3.96v-1.06h-3.1c-2.35,0-3.19.05-3.34.05-.26,0-.29-.02-.29-.29,0-.14.05-.46.05-1.25v-1.3c0-.79-.05-1.1-.05-1.25,0-.26.02-.29.29-.29.14,0,.98.05,3.34.05h3.1v-1.06h-6.05c-2.16,0-2.9.05-3.05.05-.24,0-.26-.02-.26-.26v-1.51c0-.24.02-.26.26-.26.14,0,.89.05,3.05.05h6.05c0-.96-.05-1.54-.17-2.21.89.02,1.66.05,2.5.14.22.02.38.12.38.26,0,.19-.07.31-.14.46-.1.26-.14.55-.14,1.34h6.1c2.16,0,2.9-.05,3.05-.05.24,0,.26.02.26.26v1.51c0,.24-.02.26-.26.26-.14,0-.89-.05-3.05-.05h-6.1v1.06h3.19c2.35,0,3.19-.05,3.36-.05.24,0,.26.02.26.29,0,.14-.05.46-.05,1.25v1.3c0,.79.05,1.1.05,1.25,0,.26-.02.29-.26.29-.17,0-1.01-.05-3.36-.05h-3.19v1.06h3.89c2.35,0,3.19-.05,3.31-.05.24,0,.26.02.26.26,0,.14-.05.72-.05,2.09v.55c1.42,0,1.97-.05,2.09-.05.22,0,.24.02.24.26v1.44c0,.24-.02.26-.24.26-.12,0-.67-.02-2.09-.05v1.22c0,1.44.05,2.06.05,2.21,0,.24-.02.26-.26.26h-1.85c-.24,0-.26-.02-.26-.26v-.53h-5.06c.02.43.02.84.02,1.2,0,1.1-.22,1.75-.86,2.14-.6.34-1.66.5-3.38.53-.72,0-.72-.02-.96-.7-.22-.6-.53-1.25-.94-1.82.89.1,1.54.12,2.42.1,1.03-.02,1.25-.19,1.25-.89v-.55h-3.94c-2.35,0-3.14.05-3.29.05-.24,0-.26-.02-.26-.29v-1.3c0-.26.02-.29.26-.29.14,0,.94.05,3.29.05h3.94v-1.13h-6.43Zm6.43-7.32v-1.2h-4.34v1.2h4.34Zm6.86-1.2h-4.44v1.2h4.44v-1.2Zm-4.44,5.52v1.13h5.09v-1.13h-5.09Zm5.09,4.13v-1.13h-5.09v1.13h5.09Z" fill="#e26e7a"/>
            <path d="m68.76,520.65c-2.16,0-2.88.05-3.02.05-.26,0-.29-.02-.29-.26v-1.42c0-.26.02-.29.29-.29.14,0,.86.05,3.02.05h5.93v-1.3h-3.38c-2.33,0-3.17.05-3.31.05-.24,0-.24-.02-.24-.26v-1.37c0-.26,0-.29.24-.29.14,0,.98.05,3.31.05h3.38v-1.27h-4.51c-2.3,0-3.07.05-3.22.05-.26,0-.29-.02-.29-.24v-1.42c0-.24.02-.26.29-.26.14,0,.91.05,3.22.05h1.46c-.26-.58-.5-1.06-.77-1.51-.12-.22-.14-.31.17-.41l1.56-.43h-3.84c-2.16,0-2.88.05-3.02.05-.26,0-.29-.02-.29-.26v-1.49c0-.26.02-.29.29-.29.14,0,.86.05,3.02.05h.17c-.38-.77-.82-1.37-1.37-2.06-.14-.17-.1-.26.19-.41l1.39-.65c.24-.12.31-.1.46.1.58.7,1.18,1.51,1.61,2.33.12.22.12.24-.19.41l-.58.29h2.23v-1.58c0-.84,0-1.42-.14-2.09.74.02,1.68.07,2.33.14.19.02.29.1.29.22,0,.14-.05.26-.1.41-.07.17-.14.53-.14,1.32v1.58h1.94v-1.56c0-.86,0-1.44-.14-2.11.72.02,1.66.07,2.3.17.22.02.31.1.31.22s-.05.26-.1.38c-.07.17-.14.53-.14,1.32v1.58h1.49c.43-.67.77-1.27,1.1-1.97.17-.36.31-.72.41-1.3.84.17,1.68.41,2.33.62.22.07.31.19.31.31,0,.19-.1.29-.24.41-.17.14-.29.29-.41.46-.31.5-.65.98-.98,1.46h.34c2.16,0,2.88-.05,3.02-.05.24,0,.26.02.26.29v1.49c0,.24-.02.26-.26.26-.14,0-.86-.05-3.02-.05h-4.2c.62.12,1.18.24,1.9.43.19.05.31.14.31.29,0,.17-.12.29-.26.36-.12.07-.24.34-.34.5l-.43.77h1.56c2.3,0,3.07-.05,3.22-.05.24,0,.26.02.26.26v1.42c0,.22-.02.24-.26.24-.14,0-.91-.05-3.22-.05h-4.85v1.27h3.82c2.35,0,3.17-.05,3.31-.05.24,0,.26.02.26.29v1.37c0,.24-.02.26-.26.26-.14,0-.96-.05-3.31-.05h-3.82v1.3h6.31c2.16,0,2.88-.05,3.02-.05.24,0,.26.02.26.29v1.42c0,.24-.02.26-.26.26-.14,0-.86-.05-3.02-.05h-4.27c2.02,1.42,4.54,2.35,7.99,3.12-.31.38-.65.89-.94,1.54-.19.46-.29.62-.53.62-.12,0-.29-.05-.55-.12-3.24-.94-6.1-2.52-8.06-4.3,0,2.86.12,4.34.12,4.75,0,.24-.02.26-.26.26h-2.04c-.22,0-.24-.02-.24-.26,0-.41.07-1.8.1-4.66-2.02,1.92-4.51,3.26-7.7,4.3-.26.1-.43.14-.55.14-.22,0-.31-.17-.53-.62-.31-.62-.65-1.13-.96-1.44,3.19-.79,5.64-1.78,7.66-3.34h-3.89Zm9.27-8.09c.22-.41.41-.82.65-1.39.12-.26.17-.5.26-.96h-6.12c.07.02.12.1.19.19.36.6.74,1.32,1.08,2.16h3.94Z" fill="#e26e7a"/>
            <path d="m44.65,539.81c.12,2.69.46,4.87.98,6.79.58-.94,1.06-1.87,1.44-2.81.26-.7.5-1.39.65-2.21.84.24,1.7.6,2.23.86.24.12.36.24.36.38,0,.17-.17.31-.34.5-.17.17-.31.46-.6,1.18-.74,1.7-1.66,3.36-2.74,4.87.86,1.85,1.97,3,2.57,3,.55,0,.84-.72.98-2.95.31.36.84.67,1.34.94q.7.36.58,1.1c-.38,2.57-1.25,3.74-2.71,3.74-1.66,0-3.24-1.54-4.44-3.77-1.27,1.39-2.71,2.62-4.34,3.58-.29.17-.46.26-.58.26-.14,0-.26-.14-.5-.5-.38-.55-.82-.96-1.22-1.27,2.18-1.15,4.06-2.74,5.57-4.51-1.01-2.57-1.54-5.42-1.75-9.19h-7.39v3.1h3.46c1.46,0,1.9-.05,2.04-.05.24,0,.29.05.29.31-.05.91-.07,1.92-.12,2.64-.12,2.04-.19,3.34-.55,4.46-.43,1.25-1.34,1.99-2.78,1.99-.43,0-.79,0-1.22-.05-.55-.05-.58-.05-.7-.79-.12-.7-.31-1.3-.58-1.73.86.14,1.37.19,1.97.19.55,0,.96-.14,1.15-.86.19-.62.29-1.94.36-3.86h-3.36c-.07,1.66-.22,3-.43,4.2-.31,1.78-.82,3.67-1.87,5.62-.17.31-.29.46-.41.46s-.26-.12-.48-.38c-.46-.53-1.03-1.06-1.49-1.34,1.1-1.61,1.58-3.5,1.87-5.3.22-1.49.34-3.17.34-5.81,0-3.26-.05-4.68-.05-4.82,0-.26.02-.29.29-.29.14,0,.94.05,3.22.05h6.38v-.5c-.02-1.61-.02-2.18-.19-3.38.91.05,1.73.07,2.59.17.24.02.36.14.36.29,0,.19-.07.34-.12.46-.1.29-.14.79-.12,2.4v.58h3.6c2.26,0,3.05-.05,3.19-.05.24,0,.26.02.26.29v1.82c0,.24-.02.26-.26.26-.14,0-.94-.05-3.19-.05h-3.53Zm2.81-5.93c.24-.17.31-.17.5-.02.7.53,1.44,1.2,2.06,2.02.14.19.14.29-.12.46l-1.15.86c-.14.1-.24.17-.31.17s-.12-.07-.19-.17c-.58-.89-1.27-1.56-1.94-2.11-.1-.1-.14-.14-.14-.22s.07-.12.19-.22l1.1-.77Z" fill="#e26e7a"/>
            <path d="m57.71,546.68c-2.14,0-2.88.05-3.02.05-.22,0-.24-.02-.24-.26v-1.78c0-.24.02-.26.24-.26.14,0,.89.05,3.02.05h.72v-6.96c0-1.75-.05-2.57-.05-2.71,0-.24.02-.26.26-.26.14,0,.98.05,3.31.05h8.02c2.33,0,3.12-.05,3.26-.05.26,0,.29.02.29.26v1.75c0,.22-.02.24-.29.24-.14,0-.94-.05-3.26-.05h-9v1.34h7.99c2.23,0,2.98-.05,3.12-.05.24,0,.26.02.26.29v1.39c0,.24-.02.26-.26.26-.14,0-.89-.05-3.12-.05h-7.99v1.32h7.99c2.23,0,2.95-.05,3.1-.05.26,0,.29.02.29.29v1.39c0,.24-.02.26-.29.26-.14,0-.86-.05-3.1-.05h-7.99v1.37h11.52c2.14,0,2.86-.05,3-.05.26,0,.29.02.29.26v1.78c0,.24-.02.26-.29.26-.14,0-.86-.05-3-.05h-6.77c.65,1.18,1.49,2.18,2.52,3.02.94-.65,1.78-1.32,2.45-1.97.31-.29.55-.58.77-.98.77.48,1.32.82,1.92,1.27.17.12.24.22.24.36s-.12.22-.29.24c-.22.07-.43.17-.84.5-.7.55-1.49,1.15-2.45,1.75,1.75.96,3.86,1.66,6.29,2.06-.38.43-.74.98-1.03,1.66q-.36.74-1.08.58c-5.33-1.39-8.95-4.15-10.9-8.5h-2.35v5.14c1.44-.34,2.9-.7,4.49-1.15-.07.43-.1,1.01-.1,1.51q0,.77-.74.98c-2.64.79-5.28,1.46-7.66,1.97-.38.07-.7.19-.84.31-.12.1-.22.14-.36.14-.1,0-.19-.1-.29-.31-.24-.67-.5-1.66-.67-2.33,1.01-.1,1.73-.19,2.57-.36l1.06-.22v-5.69h-.72Z" fill="#e26e7a"/>
            <path d="m90.56,550.21c0,.26-.14.38-.46.43-.31.05-1.03.12-1.7.12-.22,0-.31-.14-.31-.38,0-.86,0-2.06.02-2.93-2.14,1.1-2.9,2.04-2.9,3.19,0,1.01.82,1.66,3.34,1.66,2.21,0,4.13-.22,5.98-.48.22-.02.31.05.34.26.12.55.22,1.39.22,1.97.02.29-.07.46-.26.46-2.06.26-3.62.31-5.95.31-3.94,0-6.02-1.18-6.02-3.96,0-2.3,1.44-3.98,5.06-5.86-.07-1.22-.36-1.7-1.44-1.66-1.13.05-2.21.77-3.31,1.73-1.03,1.01-1.63,1.7-2.4,2.62-.12.14-.19.22-.29.22-.07,0-.17-.07-.26-.17-.34-.34-1.06-1.08-1.37-1.58-.07-.1-.1-.17-.1-.22,0-.1.05-.17.17-.26,1.85-1.66,3.62-3.55,5.02-5.95-1.13.05-2.42.07-3.84.07-.22,0-.29-.12-.34-.38-.07-.38-.17-1.27-.24-1.99,1.82.1,3.7.07,5.52-.02.26-.65.48-1.22.72-2.06.1-.41.17-.82.17-1.46,1.06.17,2.11.43,2.74.67.19.07.29.24.29.41,0,.12-.05.26-.17.36-.14.12-.29.34-.41.58-.14.34-.26.65-.55,1.3,1.46-.17,2.93-.41,4.37-.74.26-.05.34.02.38.24.12.48.22,1.03.24,1.73.02.24-.07.34-.41.38-1.8.26-3.86.53-5.62.72-.55.89-1.08,1.78-1.8,2.66l.02.05c.77-.5,1.75-.74,2.4-.74,1.58,0,2.69.72,2.93,2.59.94-.43,2.3-1.06,3.53-1.68.46-.24,1.22-.67,1.82-1.3.79.84,1.42,1.68,1.68,2.11.14.22.19.38.19.53,0,.19-.12.29-.36.34-.5.07-.98.19-1.46.36-1.56.55-3.12,1.08-5.16,1.92v3.86Z" fill="#e26e7a"/>
            <path d="m44.81,568.45c-2.16,0-2.9.05-3.05.05-.24,0-.26-.02-.26-.26v-1.9c0-.26.02-.29.26-.29.14,0,.89.05,3.05.05h5.76v-.38c0-1.37-.02-1.97-.19-3.07.86.02,1.9.07,2.74.17.22.02.38.14.38.26,0,.19-.1.34-.17.5-.07.24-.14.65-.14,1.9v.62h6.12c2.16,0,2.9-.05,3.05-.05.24,0,.26.02.26.29v1.9c0,.24-.02.26-.26.26-.14,0-.89-.05-3.05-.05h-6.12v2.98h3.5c.36,0,.58-.05.7-.1.1-.05.22-.1.31-.1.17,0,.36.14.96.74.55.53.74.82.74,1.03,0,.19-.12.26-.34.43-.22.17-.36.29-.58.65-1.3,2.04-2.74,3.72-4.39,5.11,2.4,1.34,5.33,2.16,8.93,2.71-.38.5-.77,1.25-1.03,1.92-.17.48-.24.62-.5.62-.12,0-.29-.02-.53-.07-3.7-.84-6.67-1.94-9.1-3.55-2.4,1.51-5.26,2.64-8.69,3.53-.24.07-.41.1-.53.1-.24,0-.31-.17-.48-.62-.26-.67-.65-1.3-.98-1.7,3.53-.72,6.36-1.61,8.67-2.88-1.58-1.49-2.88-3.29-3.89-5.54-1.63.02-2.26.05-2.38.05-.24,0-.26-.02-.26-.26v-1.85c0-.24.02-.26.26-.26.14,0,.94.05,3.26.05h3.72v-2.98h-5.76Zm3.91,5.26c.91,1.68,2.02,3,3.31,4.08,1.39-1.1,2.57-2.45,3.55-4.08h-6.86Z" fill="#e26e7a"/>
            <path d="m70.22,576.66c0,2.3.07,3.58.07,4.78,0,1.32-.19,1.97-.74,2.38-.53.41-1.3.53-2.76.53-.74.02-.79.02-.91-.72-.12-.74-.38-1.34-.58-1.73.53.07.94.07,2.06.07.34,0,.5-.14.5-.67v-4.78l-.94.29c-.43.14-.7.31-.84.41-.12.1-.26.14-.41.14s-.24-.1-.31-.29c-.14-.62-.29-1.44-.41-2.28.7-.1,1.39-.22,2.23-.46l.67-.19v-4.66h-.43c-1.49,0-1.94.05-2.06.05-.24,0-.26-.02-.26-.26v-1.75c0-.24.02-.26.26-.26.12,0,.58.05,2.06.05h.43v-1.27c0-1.54-.05-2.3-.17-3.41.86.02,1.63.07,2.42.17.24.02.41.17.41.26,0,.19-.1.34-.17.5-.14.29-.14.79-.14,2.42v1.32c1.22,0,1.63-.05,1.8-.05.24,0,.26.02.26.26v1.75c0,.24-.02.26-.26.26-.17,0-.58-.05-1.8-.05v3.84c.6-.22,1.22-.48,1.87-.74-.07.41-.12,1.13-.12,1.73s-.07.65-.5.84c-.41.19-.82.36-1.25.53v.98Zm12.77-.89c.26,0,.38-.05.5-.1.1-.05.19-.07.31-.07.19,0,.41.14.84.65.43.46.6.72.6.91,0,.12-.1.24-.26.34-.19.12-.31.24-.62.72-.72,1.01-1.46,1.92-2.33,2.74,1.42.67,3.12,1.15,5.14,1.51-.29.36-.53.89-.74,1.49q-.26.72-.98.53c-1.94-.5-3.65-1.18-5.16-2.09-1.27.89-2.76,1.61-4.56,2.16-.26.1-.43.14-.55.14-.22,0-.26-.17-.46-.55-.29-.58-.6-.96-.89-1.27,1.85-.41,3.38-1.03,4.66-1.8-.74-.67-1.44-1.42-2.06-2.28-.94,1.94-2.21,3.62-3.86,5.04-.26.22-.41.34-.53.34-.14,0-.26-.14-.46-.41-.38-.53-.72-.82-1.15-1.15,2.64-1.94,4.37-4.75,5.18-8.16-1.75.02-2.45.05-2.57.05-.24,0-.26-.02-.26-.29v-1.56c0-.24.02-.26.26-.26.14,0,.89.05,2.95.05.05-.41.07-.86.1-1.3-1.97,0-2.71.05-2.83.05-.24,0-.26-.02-.26-.29v-1.37c0-.24.02-.26.26-.26.14,0,.91.05,3.12.05h5.16c.53-.89.96-1.78,1.3-2.62.14-.41.29-.86.36-1.3.82.17,1.51.34,2.14.58.19.07.31.22.31.34,0,.14-.1.26-.22.36-.17.12-.26.24-.38.46-.38.74-.67,1.37-1.15,2.18,1.56,0,2.18-.05,2.33-.05.24,0,.26.02.26.26v1.37c0,.26-.02.29-.26.29-.17,0-.94-.05-3.14-.05h-4.66c-.05.46-.1.89-.17,1.3h5.18c2.26,0,3.05-.05,3.19-.05.22,0,.24.02.24.26v1.56c0,.26,0,.29-.24.29-.14,0-.94-.05-3.19-.05h-5.54c-.1.46-.22.89-.34,1.32h5.45Zm2.86-11.95c.14.14.26.26.26.41,0,.17-.19.29-.5.29-.26,0-.65.07-1.06.14-2.98.58-6.94,1.01-10.18,1.22-.77.05-.84.07-1.08-.65-.17-.48-.46-1.01-.7-1.32,3.82-.02,7.37-.34,10.3-.96.55-.12,1.01-.29,1.34-.46.55.36,1.3,1.01,1.61,1.32Zm-10.51,2.21c.31-.12.36-.1.5.1.48.67.79,1.32,1.1,2.02.1.24.07.29-.24.41l-1.32.55c-.31.12-.38.12-.48-.14-.26-.79-.55-1.37-1.01-2.06-.17-.22-.14-.24.17-.36l1.27-.5Zm2.4,11.45c.7.96,1.49,1.73,2.4,2.38.79-.7,1.44-1.49,1.99-2.38h-4.39Zm1.75-8.54c-.34.14-.38.14-.48-.14-.26-.82-.65-1.58-1.03-2.3-.1-.17,0-.24.34-.36l1.08-.41c.34-.14.41-.1.53.1.48.74.82,1.42,1.1,2.18.07.22.05.29-.24.41l-1.3.53Z" fill="#e26e7a"/>
          </g>
          <circle cx="64.08" cy="544.54" r="63.08" fill="none" stroke="#e26e7a" stroke-miterlimit="10" stroke-width="2"/>
        </g>
        <g>
          <circle cx="470.69" cy="544.54" r="57.19" fill="#ffffcd"/>
          <g>
            <path d="m431.01,527.74c2.11-.7,3.94-1.39,5.86-2.33,1.3-.62,1.9-1.01,2.57-1.73.84.7,1.63,1.68,1.99,2.16.12.14.19.29.19.43,0,.19-.12.36-.41.43-.67.17-1.34.5-1.99.79-2.38,1.08-5.06,2.04-8.23,2.98v3.19c0,1.13.17,1.51.79,1.7.62.17,1.56.26,3.02.26,2.26,0,4.27-.17,6.77-.55.36-.05.41.05.43.34.07.67.14,1.58.14,2.09,0,.31-.14.41-.5.43-2.71.34-4.1.43-7.13.43-2.14,0-3.55-.22-4.56-.65-1.2-.5-1.7-1.63-1.7-3.6v-8.86c0-2.28-.05-3.19-.24-4.39,1.13.12,2.26.26,3.02.48.29.07.38.22.38.38s-.07.34-.17.5c-.19.38-.24,1.03-.24,2.16v3.34Zm10.03-6.94c.12-.1.22-.07.36.05.74.58,1.61,1.54,2.28,2.57.1.14.1.26-.07.38l-1.01.74c-.17.12-.29.1-.41-.07-.72-1.1-1.49-2.02-2.42-2.78l1.27-.89Zm2.14-1.56c.14-.1.22-.07.36.05.89.67,1.75,1.63,2.28,2.47.1.14.12.29-.07.43l-.96.74c-.19.14-.31.07-.41-.07-.65-1.03-1.42-1.94-2.4-2.76l1.2-.86Z" fill="#e26e7a"/>
            <path d="m453.86,523.44c.41.12.46.41.31.74-.26.53-.29,1.06-.29,1.63-.05,3-.5,5.28-1.3,7.06-.62,1.46-1.68,3.02-3.41,4.51-.24.19-.43.31-.62.31-.14,0-.29-.07-.46-.19-.6-.41-1.18-.7-2.04-1.01,1.87-1.42,3.14-2.88,3.98-4.78.67-1.63.98-2.95,1.01-6.79,0-.91-.05-1.3-.24-2.02,1.37.17,2.47.34,3.05.53Zm5.33,10.15c1.18-.62,2.28-1.37,3.41-2.23,1.44-1.1,2.86-2.38,4.2-4.08.1.84.34,1.63.74,2.42.07.17.14.29.14.41,0,.17-.1.34-.36.6-1.2,1.22-2.3,2.21-3.55,3.14-1.25.96-2.59,1.9-4.27,2.88-.43.29-.48.34-.7.5-.14.12-.31.19-.48.19-.14,0-.31-.07-.5-.19-.53-.36-1.08-.98-1.44-1.46-.14-.22-.22-.36-.22-.5,0-.12.02-.22.1-.36.17-.31.14-.6.14-1.82v-7.51c0-2.09,0-3.07-.24-4.18.96.12,2.28.29,3,.5.31.07.43.22.43.41,0,.14-.07.36-.19.6-.22.46-.22.94-.22,2.66v8.02Z" fill="#e26e7a"/>
            <path d="m472.29,528.65c.79-.62,2.52-2.11,4.3-3.72.79-.72,1.39-1.01,2.09-1.01.82,0,1.27.22,2.09.89,1.8,1.44,2.83,2.4,5.18,4.13,2.14,1.54,3.79,2.47,5.66,3.53.24.1.36.29.24.5-.26.72-.72,1.63-1.18,2.26-.12.17-.22.24-.31.24s-.19-.02-.34-.12c-1.15-.67-3.77-2.59-5.18-3.7-1.73-1.3-3.46-2.83-5.04-4.25-.46-.43-.77-.55-1.06-.55-.26,0-.5.22-.82.5-1.18,1.18-2.9,2.83-4.03,3.96-.48.5-.67.74-.86,1.06-.12.19-.26.29-.43.29s-.31-.07-.46-.22c-.5-.5-1.39-1.66-1.97-2.5.72-.29,1.32-.67,2.11-1.3Z" fill="#e26e7a"/>
            <path d="m506.28,523.95c-.55,4.08-1.56,7.82-3,10.35-1.03,1.8-2.28,2.76-4.08,2.76-2.11,0-4.25-2.26-4.25-6.17,0-2.3.98-4.51,2.71-6.24,2.02-2.02,4.56-3.07,7.8-3.07,5.76,0,9.14,3.55,9.14,8.33,0,4.46-2.52,7.27-7.39,8.74-.5.14-.72.05-1.03-.43-.26-.41-.77-.96-1.68-1.51,4.06-.96,7.25-2.64,7.25-7.18,0-2.86-2.16-5.57-5.38-5.57h-.1Zm-6.89,2.33c-1.15,1.3-1.87,2.9-1.87,4.44,0,2.21.89,3.43,1.63,3.43.62,0,1.15-.31,1.8-1.46,1.06-1.94,2.14-5.4,2.54-8.59-1.68.34-3.02,1.01-4.1,2.18Z" fill="#e26e7a"/>
            <path d="m425.79,560.63c0-.86,0-1.94.02-2.98-.36.53-.77,1.03-1.2,1.56-.19.22-.34.34-.43.34-.14,0-.22-.14-.26-.41-.14-.82-.43-1.68-.72-2.18,1.85-2.16,3.14-4.8,4.1-7.73.17-.58.31-1.13.38-1.73.79.24,1.54.48,2.21.82.24.1.38.22.38.43,0,.17-.12.29-.26.43-.17.14-.26.36-.48.96-.43,1.22-.86,2.35-1.37,3.43v12.15c0,2.33.05,3.5.05,3.62,0,.24-.02.26-.26.26h-1.94c-.24,0-.26-.02-.26-.26,0-.14.05-1.3.05-3.62v-5.09Zm7.87-9.07c-2.35,0-3.14.05-3.29.05-.24,0-.26-.02-.26-.26v-1.78c0-.26.02-.29.26-.29.14,0,.94.05,3.29.05h8.5c2.35,0,3.14-.05,3.29-.05.24,0,.26.02.26.29v1.78c0,.24-.02.26-.26.26-.14,0-.94-.05-3.29-.05h-1.54v3.7h.74c2.33,0,3.17-.05,3.34-.05.24,0,.26.02.26.26,0,.14-.05,1.08-.05,3.94v4.18c0,4.22.05,5.11.05,5.26,0,.24-.02.26-.26.26h-1.87c-.24,0-.26-.02-.26-.26v-1.01h-10.06v1.1c0,.24-.02.26-.26.26h-1.85c-.24,0-.26-.02-.26-.26,0-.14.05-1.03.05-5.28v-3.79c0-3.31-.05-4.22-.05-4.39,0-.24.02-.26.26-.26.14,0,.96.05,3.29.05h.62v-3.7h-.65Zm.65,14.14v-8.33h-1.8v8.33h1.8Zm4.08-10.44v-3.7h-1.85v3.7h1.85Zm0,10.44v-8.33h-1.85v8.33h1.85Zm2.23-8.33v8.33h1.94v-8.33h-1.94Z" fill="#e26e7a"/>
            <path d="m449.96,560.41c0-.91,0-2.06.02-3.17-.43.58-.89,1.15-1.37,1.7-.19.22-.31.34-.43.34-.1,0-.19-.14-.26-.43-.19-.72-.48-1.54-.77-2.02,1.92-2.14,3.36-4.7,4.37-7.63.19-.58.34-1.1.41-1.68.77.19,1.49.38,2.21.67.26.1.38.17.38.36,0,.17-.07.26-.24.43-.17.14-.29.36-.5.98-.43,1.18-.91,2.3-1.42,3.36v12.29c0,2.35.05,3.53.05,3.65,0,.24-.02.26-.26.26h-1.99c-.22,0-.24-.02-.24-.26,0-.14.05-1.3.05-3.65v-5.21Zm4.3-3.12c0-1.46-.05-2.21-.17-3.12.91.02,1.61.07,2.47.17.24.02.41.17.41.31,0,.17-.1.31-.17.53-.1.26-.14.7-.14,2.09v8.93h9.6c2.26,0,3-.05,3.14-.05.24,0,.26.02.26.29v1.7c0,.24-.02.26-.26.26-.14,0-.89-.05-3.14-.05h-9.6v.86c0,.24-.02.26-.26.26h-1.92c-.24,0-.26-.02-.26-.26,0-.14.05-.89.05-2.54v-9.39Zm4.13-5.21c-2.35,0-3.14.05-3.29.05-.24,0-.24-.02-.24-.29v-1.63c0-.22,0-.24.24-.24.14,0,.94.05,3.29.05h2.86l.1-.7c.07-.65.12-1.25.1-1.7.84.05,1.66.12,2.42.22.24,0,.36.14.36.29,0,.12-.07.26-.17.38-.12.17-.22.36-.26.7-.05.26-.1.55-.12.82h2.35c2.35,0,3.12-.05,3.26-.05.24,0,.26.02.26.24v1.63c0,.26-.02.29-.26.29-.14,0-.91-.05-3.26-.05h-2.71c-.1.6-.24,1.18-.36,1.75h1.97c1.9,0,2.54-.05,2.69-.05.26,0,.29.02.29.26,0,.14-.05.91-.05,2.62v5.4c0,1.7.05,2.45.05,2.59,0,.24-.02.26-.29.26-.14,0-.79-.05-2.69-.05h-3.55c-1.9,0-2.54.05-2.71.05-.24,0-.26-.02-.26-.26,0-.17.05-.89.05-2.59v-5.4c0-1.7-.05-2.45-.05-2.62,0-.24.02-.26.26-.26.14,0,.65.05,1.92.05.14-.62.24-1.2.36-1.75h-2.54Zm2.33,4.87h4.82v-1.37h-4.82v1.37Zm4.82,3.05v-1.39h-4.82v1.39h4.82Zm0,1.68h-4.82v1.42h4.82v-1.42Z" fill="#e26e7a"/>
            <path d="m476.91,561.66c0,2.3.07,3.6.07,4.8,0,1.32-.19,1.97-.77,2.38-.53.38-1.13.5-2.64.53q-.74.02-.94-.72c-.14-.67-.36-1.3-.58-1.73.58.07,1.13.07,1.75.07s.74-.22.74-.91v-4.73c-.36.12-.7.24-1.03.34-.43.14-.7.29-.84.41-.12.1-.26.14-.38.14-.14,0-.24-.1-.29-.29-.17-.65-.31-1.49-.41-2.3.7-.1,1.34-.22,2.18-.46l.77-.22v-4.49h-.31c-1.63,0-2.11.05-2.26.05-.24,0-.26-.02-.26-.26v-1.75c0-.24.02-.26.26-.26.14,0,.62.05,2.26.05h.31v-1.27c0-1.54-.02-2.3-.17-3.41.89.02,1.61.07,2.45.17.22.02.38.12.38.26,0,.19-.1.34-.17.5-.14.29-.14.79-.14,2.42v1.32c1.42,0,1.9-.05,2.04-.05.24,0,.26.02.26.26v1.75c0,.24-.02.26-.26.26-.14,0-.62-.05-2.04-.05v3.72c.67-.26,1.37-.53,2.06-.86-.05.48-.07,1.01-.1,1.56,0,.79-.02.74-.72,1.06l-1.25.55v1.15Zm6-1.75c-2.28,0-3.1.05-3.24.05-.24,0-.26-.02-.26-.24v-1.63c0-.26.02-.29.26-.29.14,0,.96.05,3.24.05h7.06c2.3,0,3.1-.05,3.24-.05.26,0,.29.02.29.29v1.63c0,.22-.02.24-.29.24-.14,0-.94-.05-3.24-.05h-2.59v2.28h2.14c1.68,0,2.28-.05,2.45-.05.24,0,.26.02.26.26v1.56c0,.24-.02.26-.26.26-.17,0-.77-.05-2.45-.05h-2.14v2.52c1.01.17,2.16.22,3.48.24,1.1,0,2.11-.02,3.22-.1-.19.41-.34.94-.43,1.54-.1.79-.19.82-.89.82h-1.63c-4.49-.07-7.39-.82-9.26-3.46-.55,1.18-1.27,2.23-2.28,3.26-.22.22-.36.34-.48.34-.17,0-.31-.14-.55-.43-.38-.48-.84-.86-1.25-1.1,2.18-1.66,3-3.74,3.48-5.81.12-.53.17-.96.19-1.37.77.17,1.3.29,1.97.48.31.1.46.17.46.36,0,.17-.07.26-.19.41-.1.12-.14.29-.24.62-.12.41-.22.82-.34,1.2.62,1.08,1.42,1.82,2.4,2.3v-6.1h-2.11Zm5.59-11.55c2.09,0,2.78-.05,2.93-.05.24,0,.26.02.26.29,0,.14-.05.74-.05,2.18v3.34c0,1.42.05,2.04.05,2.18,0,.24-.02.26-.26.26-.14,0-.84-.05-2.93-.05h-4.68c-2.11,0-2.81.05-2.95.05-.24,0-.26-.02-.26-.26,0-.17.05-.77.05-2.18v-3.34c0-1.44-.05-2.04-.05-2.18,0-.26.02-.29.26-.29.14,0,.84.05,2.95.05h4.68Zm-5.52,1.85v1.39h6.31v-1.39h-6.31Zm6.31,3.1h-6.31v1.42h6.31v-1.42Z" fill="#e26e7a"/>
            <path d="m498.22,560.12c0-.84,0-1.85.02-2.83-.48.67-.96,1.32-1.49,1.97-.17.22-.31.31-.41.31-.12,0-.19-.12-.26-.41-.22-.89-.55-1.7-.84-2.11,2.09-2.35,3.55-4.99,4.44-7.85.19-.55.31-1.1.36-1.68.82.22,1.68.46,2.35.74.26.12.41.17.41.34,0,.19-.1.29-.29.43-.14.12-.26.36-.48.96-.41,1.1-.86,2.21-1.39,3.26v12.39c0,2.35.05,3.53.05,3.65,0,.24-.02.26-.26.26h-1.99c-.24,0-.26-.02-.26-.26,0-.14.05-1.3.05-3.65v-5.52Zm6.74,3.94c.38-.55.58-.94.82-1.54.77.34,1.49.74,2.11,1.13.22.14.26.26.26.38,0,.19-.14.29-.34.41-.14.07-.29.26-.6.67-.96,1.32-2.18,2.69-3.74,3.84-.26.19-.41.31-.53.31s-.24-.14-.48-.46c-.38-.5-.91-.98-1.39-1.27,1.8-1.1,2.95-2.28,3.89-3.48Zm.26-1.97c-2.35,0-3.17.05-3.31.05-.26,0-.29-.02-.29-.24v-1.87c0-.24.02-.26.29-.26.14,0,.96.05,3.29.05v-4.78c-1.85.02-2.54.05-2.66.05-.24,0-.26-.02-.26-.24v-1.85c0-.26.02-.29.26-.29.12,0,.82.05,2.66.05v-1.18c0-1.7-.02-2.42-.17-3.65.89.02,1.7.07,2.54.17.22.02.36.14.36.29,0,.17-.07.29-.14.48-.1.29-.12.89-.12,2.66v1.22h3.53v-1.18c0-1.7-.02-2.45-.17-3.65.91.02,1.7.07,2.54.17.24.02.38.14.38.26,0,.17-.07.31-.14.48-.12.31-.14.91-.14,2.66v1.25c2.02,0,2.78-.05,2.93-.05.26,0,.29.02.29.29v1.85c0,.22-.02.24-.29.24-.14,0-.91-.05-2.93-.05v4.78h.53c2.35,0,3.17-.05,3.31-.05.24,0,.26.02.26.26v1.87c0,.22-.02.24-.26.24-.14,0-.96-.05-3.31-.05h-8.98Zm5.98-2.28v-4.78h-3.53v4.78h3.53Zm1.44,2.98c.29-.17.34-.17.48.07,1.3,1.82,2.93,3.36,4.75,4.42-.41.38-.86.91-1.2,1.51-.19.36-.31.5-.48.5-.12,0-.29-.12-.58-.31-1.78-1.27-3.31-2.98-4.56-4.9-.14-.24-.1-.26.22-.46l1.37-.84Z" fill="#e26e7a"/>
          </g>
          <circle cx="470.69" cy="544.54" r="63.08" fill="none" stroke="#e26e7a" stroke-miterlimit="10" stroke-width="2"/>
        </g>
        <g>
          <g>
            <g>
              <path d="m64.71,674.89c-.14,2.69-.48,4.3-1.42,6.12-.96,1.87-2.69,3.62-4.22,4.54-.26.17-.5.29-.72.29-.17,0-.34-.07-.5-.24-.48-.48-1.3-.96-2.14-1.27,2.35-1.27,3.77-2.45,4.78-4.27.89-1.58,1.13-2.88,1.22-5.16h-4.56c-1.2,0-2.38.07-3.6.14-.22.02-.29-.14-.31-.46-.12-.67-.19-1.58-.19-2.3,1.34.12,2.69.12,4.08.12h10.78c1.87,0,3.26-.05,4.68-.14.24,0,.26.14.26.48.02.31.02,1.54,0,1.85,0,.31-.14.41-.36.41-1.25-.05-2.9-.1-4.56-.1h-3.22Zm-4.75-5.57c-1.1,0-2.06.05-3.41.1-.31,0-.38-.12-.41-.41-.07-.58-.1-1.44-.17-2.3,1.68.1,2.9.12,3.98.12h5.38c1.34,0,2.86-.02,4.06-.1.24,0,.29.14.29.46.05.58.05,1.18,0,1.75,0,.34-.05.46-.31.46-1.3-.05-2.71-.07-4.03-.07h-5.38Z"/>
              <path d="m90.54,671.68c1.34,0,2.93-.02,4.18-.05.34-.02.43.02.46.43.05.6.05,1.27,0,1.87,0,.38-.1.46-.46.46-.86,0-2.69-.1-4.03-.1h-3.41c-.24,3.48-.6,4.85-1.63,6.55-1.13,1.9-3.05,3.65-5.11,4.73-.19.12-.36.17-.55.17s-.36-.07-.53-.24c-.6-.55-1.18-.96-2.02-1.32,2.71-1.3,4.3-2.57,5.45-4.34.94-1.44,1.34-3,1.46-5.54h-4.63c-1.18,0-2.54.1-3.46.12-.31.02-.38-.1-.43-.46-.07-.48-.12-1.49-.17-2.38,1.56.12,2.9.12,4.08.12h4.73c0-1.2,0-2.5-.02-3.55-.02-.77-.05-1.46-.29-2.42,1.2.05,2.42.14,3.19.34.26.07.36.17.36.34,0,.14-.07.31-.17.53-.1.22-.19.79-.19,1.46,0,1.13,0,1.92-.02,3.29h3.22Z"/>
              <path d="m99.87,667.88c.1-.12.22-.19.34-.19.1,0,.19.05.31.12,1.22.65,3.22,2.11,4.58,3.41.14.14.22.24.22.34s-.05.19-.14.31c-.36.48-1.15,1.44-1.49,1.8-.12.12-.19.19-.29.19s-.19-.07-.31-.19c-1.44-1.49-3.17-2.86-4.9-3.91.53-.65,1.22-1.39,1.68-1.87Zm2.09,12.65c2.93-1.51,4.49-2.52,6.91-4.46,2.93-2.38,4.54-3.91,6.58-6.53.14,1.2.36,2.02.67,2.81.07.17.12.31.12.46,0,.22-.12.41-.38.72-1.27,1.49-3.34,3.41-5.52,5.09-1.99,1.56-4.01,2.9-7.25,4.7-1.08.65-1.39.89-1.61,1.1-.14.14-.29.24-.43.24-.12,0-.26-.1-.41-.26-.6-.67-1.34-1.66-1.92-2.66,1.22-.34,1.97-.55,3.24-1.2Z"/>
              <path d="m125.46,672.37c2.93.91,5.26,1.85,7.63,3.26.26.14.38.31.26.62-.31.79-.7,1.54-1.03,2.09-.1.17-.19.26-.31.26-.07,0-.17-.02-.26-.12-2.21-1.42-4.37-2.47-6.31-3.07v5.3c0,1.56.05,2.98.1,4.7.02.29-.1.36-.43.36-.7.05-1.44.05-2.14,0-.34,0-.46-.07-.46-.36.07-1.78.1-3.19.1-4.73v-11.81c0-1.8-.07-2.59-.24-3.55,1.1.07,2.3.19,3,.38.34.07.46.22.46.41,0,.14-.07.34-.19.55-.17.31-.17.91-.17,2.26v3.43Z"/>
              <path d="m148.38,665.72c2.69,3.48,6.14,5.76,10.27,7.27-.43.55-.79,1.1-1.08,1.85-.17.43-.24.6-.41.6-.12,0-.29-.07-.55-.19-4.08-1.87-7.25-4.3-9.6-7.58-2.57,3.46-5.69,5.86-9.22,7.68-.29.14-.46.24-.58.24-.17,0-.24-.17-.43-.58-.29-.62-.7-1.2-1.13-1.66,4.49-1.99,7.34-4.51,9.26-7.3.43-.62.67-1.13.89-1.78.94.12,1.9.36,2.59.53.26.07.43.19.43.38,0,.14-.1.26-.26.36l-.19.17Zm-8.71,19.99c-2.14,0-2.86.05-3.02.05-.22,0-.24-.02-.24-.24v-1.92c0-.24.02-.26.24-.26.17,0,.89.05,3.02.05h.65v-5.26c0-1.15-.02-1.94-.19-2.62.91.02,1.85.07,2.71.17.24.02.38.14.38.26,0,.22-.1.34-.17.5-.12.29-.14.77-.14,1.75v5.18h3.31v-9.15c0-1.13-.02-1.94-.17-2.62.89.02,1.87.07,2.69.17.24.02.38.14.38.26,0,.22-.07.36-.14.53-.14.29-.14.77-.14,1.73v2.23h2.42c2.18,0,2.95-.05,3.1-.05.24,0,.26.02.26.26v1.87c0,.24-.02.26-.26.26-.14,0-.91-.05-3.1-.05h-2.42v4.54h5.71c2.11,0,2.86-.05,3-.05.24,0,.26.02.26.26v1.92c0,.22-.02.24-.26.24-.14,0-.89-.05-3-.05h-14.88Z"/>
              <path d="m163.74,680.7c-2.16,0-2.88.05-3.02.05-.26,0-.29-.02-.29-.26v-1.42c0-.26.02-.29.29-.29.14,0,.86.05,3.02.05h5.93v-1.3h-3.38c-2.33,0-3.17.05-3.31.05-.24,0-.24-.02-.24-.26v-1.37c0-.26,0-.29.24-.29.14,0,.98.05,3.31.05h3.38v-1.27h-4.51c-2.3,0-3.07.05-3.22.05-.26,0-.29-.02-.29-.24v-1.42c0-.24.02-.26.29-.26.14,0,.91.05,3.22.05h1.46c-.26-.58-.5-1.06-.77-1.51-.12-.22-.14-.31.17-.41l1.56-.43h-3.84c-2.16,0-2.88.05-3.02.05-.26,0-.29-.02-.29-.26v-1.49c0-.26.02-.29.29-.29.14,0,.86.05,3.02.05h.17c-.38-.77-.82-1.37-1.37-2.06-.14-.17-.1-.26.19-.41l1.39-.65c.24-.12.31-.1.46.1.58.7,1.18,1.51,1.61,2.33.12.22.12.24-.19.41l-.58.29h2.23v-1.58c0-.84,0-1.42-.14-2.09.74.02,1.68.07,2.33.14.19.02.29.1.29.22,0,.14-.05.26-.1.41-.07.17-.14.53-.14,1.32v1.58h1.94v-1.56c0-.86,0-1.44-.14-2.11.72.02,1.66.07,2.3.17.22.02.31.1.31.22s-.05.26-.1.38c-.07.17-.14.53-.14,1.32v1.58h1.49c.43-.67.77-1.27,1.1-1.97.17-.36.31-.72.41-1.3.84.17,1.68.41,2.33.62.22.07.31.19.31.31,0,.19-.1.29-.24.41-.17.14-.29.29-.41.46-.31.5-.65.98-.98,1.46h.34c2.16,0,2.88-.05,3.02-.05.24,0,.26.02.26.29v1.49c0,.24-.02.26-.26.26-.14,0-.86-.05-3.02-.05h-4.2c.62.12,1.18.24,1.9.43.19.05.31.14.31.29,0,.17-.12.29-.26.36-.12.07-.24.34-.34.5l-.43.77h1.56c2.3,0,3.07-.05,3.22-.05.24,0,.26.02.26.26v1.42c0,.22-.02.24-.26.24-.14,0-.91-.05-3.22-.05h-4.85v1.27h3.82c2.35,0,3.17-.05,3.31-.05.24,0,.26.02.26.29v1.37c0,.24-.02.26-.26.26-.14,0-.96-.05-3.31-.05h-3.82v1.3h6.31c2.16,0,2.88-.05,3.02-.05.24,0,.26.02.26.29v1.42c0,.24-.02.26-.26.26-.14,0-.86-.05-3.02-.05h-4.27c2.02,1.42,4.54,2.35,7.99,3.12-.31.38-.65.89-.94,1.54-.19.46-.29.62-.53.62-.12,0-.29-.05-.55-.12-3.24-.94-6.1-2.52-8.06-4.3,0,2.86.12,4.34.12,4.75,0,.24-.02.26-.26.26h-2.04c-.22,0-.24-.02-.24-.26,0-.41.07-1.8.1-4.66-2.02,1.92-4.51,3.26-7.71,4.3-.26.1-.43.14-.55.14-.22,0-.31-.17-.53-.62-.31-.62-.65-1.13-.96-1.44,3.19-.79,5.64-1.78,7.66-3.34h-3.89Zm9.26-8.09c.22-.41.41-.82.65-1.39.12-.26.17-.5.26-.96h-6.12c.07.02.12.1.19.19.36.6.74,1.32,1.08,2.16h3.94Z"/>
            </g>
            <polyline points="31.77 694.41 22 694.41 22 658.13 31.77 658.13" fill="none" stroke="#000" stroke-miterlimit="10" stroke-width="1.96"/>
            <polyline points="203 694.41 212.77 694.41 212.77 658.13 203 658.13" fill="none" stroke="#000" stroke-miterlimit="10" stroke-width="1.96"/>
          </g>
          <g>
            <g>
              <path d="m360.85,673.79c2.11-.7,3.94-1.39,5.86-2.33,1.3-.62,1.9-1.01,2.57-1.73.84.7,1.63,1.68,1.99,2.16.12.14.19.29.19.43,0,.19-.12.36-.41.43-.67.17-1.34.5-1.99.79-2.38,1.08-5.06,2.04-8.23,2.98v3.19c0,1.13.17,1.51.79,1.7.62.17,1.56.26,3.02.26,2.26,0,4.27-.17,6.77-.55.36-.05.41.05.43.34.07.67.14,1.58.14,2.09,0,.31-.14.41-.5.43-2.71.34-4.1.43-7.13.43-2.14,0-3.55-.22-4.56-.65-1.2-.5-1.7-1.63-1.7-3.6v-8.86c0-2.28-.05-3.19-.24-4.39,1.13.12,2.26.26,3.02.48.29.07.38.22.38.38s-.07.34-.17.5c-.19.38-.24,1.03-.24,2.16v3.34Zm10.03-6.94c.12-.1.22-.07.36.05.74.58,1.61,1.54,2.28,2.57.1.14.1.26-.07.38l-1.01.74c-.17.12-.29.1-.41-.07-.72-1.1-1.49-2.02-2.42-2.78l1.27-.89Zm2.14-1.56c.14-.1.22-.07.36.05.89.67,1.75,1.63,2.28,2.47.1.14.12.29-.07.43l-.96.74c-.19.14-.31.07-.41-.07-.65-1.03-1.42-1.94-2.4-2.76l1.2-.86Z"/>
              <path d="m383.7,669.49c.41.12.46.41.31.74-.26.53-.29,1.06-.29,1.63-.05,3-.5,5.28-1.3,7.06-.62,1.46-1.68,3.02-3.41,4.51-.24.19-.43.31-.62.31-.14,0-.29-.07-.46-.19-.6-.41-1.18-.7-2.04-1.01,1.87-1.42,3.14-2.88,3.98-4.78.67-1.63.98-2.95,1.01-6.79,0-.91-.05-1.3-.24-2.02,1.37.17,2.47.34,3.05.53Zm5.33,10.15c1.18-.62,2.28-1.37,3.41-2.23,1.44-1.1,2.86-2.38,4.2-4.08.1.84.34,1.63.74,2.42.07.17.14.29.14.41,0,.17-.1.34-.36.6-1.2,1.22-2.3,2.21-3.55,3.14-1.25.96-2.59,1.9-4.27,2.88-.43.29-.48.34-.7.5-.14.12-.31.19-.48.19-.14,0-.31-.07-.5-.19-.53-.36-1.08-.98-1.44-1.46-.14-.22-.22-.36-.22-.5,0-.12.02-.22.1-.36.17-.31.14-.6.14-1.82v-7.51c0-2.09,0-3.07-.24-4.18.96.12,2.28.29,3,.5.31.07.43.22.43.41,0,.14-.07.36-.19.6-.22.46-.22.94-.22,2.66v8.02Z"/>
              <path d="m410.87,675.01c-.94,1.34-1.92,2.4-3.38,3.7-1.22,1.13-3.07,2.54-4.54,3.36-.22.14-.38.22-.55.22-.14,0-.29-.07-.41-.24-.48-.58-1.3-1.15-1.97-1.42,2.45-1.34,3.96-2.35,5.59-3.79,1.42-1.25,2.57-2.4,3.53-3.72l-4.2.02c-1.25,0-2.59.05-3.84.12-.22.02-.31-.14-.34-.41-.1-.46-.14-1.44-.19-2.33,1.44.1,2.86.12,4.3.12h5.71l-.1-2.14c-.05-1.2-.17-2.06-.38-2.83,1.3.05,2.28.12,3.02.26.24.05.31.14.31.29,0,.1-.05.22-.1.36-.07.29-.17.67-.1,2.21l.07,1.82h2.09c1.68,0,2.88-.05,4.66-.12.24,0,.36.12.36.29.02.67.02,1.42,0,2.09,0,.19-.1.34-.34.34-1.75-.07-3.12-.12-4.61-.12h-1.94l.43,9.02c.07,1.27-.36,2.06-1.15,2.54-.82.48-2.21.84-3.31.84-.46,0-.62-.1-.74-.41-.38-.89-.79-1.44-1.68-2.14,1.8-.02,2.57-.07,3.38-.24.55-.12.74-.36.7-1.42l-.29-6.29Z"/>
              <path d="m427.67,677.29c-2.38,0-3.29.29-3.53.29-.29,0-.48-.14-.55-.5-.12-.55-.26-1.68-.36-2.9,1.56.24,2.76.29,5.18.29h7.73c1.82,0,3.67-.05,5.52-.07.36-.02.43.05.43.34.05.72.05,1.54,0,2.26,0,.29-.1.38-.43.36-1.8-.02-3.58-.05-5.35-.05h-8.64Z"/>
              <path d="m460,671.68c1.34,0,2.93-.02,4.18-.05.34-.02.43.02.46.43.05.6.05,1.27,0,1.87,0,.38-.1.46-.46.46-.86,0-2.69-.1-4.03-.1h-3.41c-.24,3.48-.6,4.85-1.63,6.55-1.13,1.9-3.05,3.65-5.11,4.73-.19.12-.36.17-.55.17s-.36-.07-.53-.24c-.6-.55-1.18-.96-2.02-1.32,2.71-1.3,4.3-2.57,5.45-4.34.94-1.44,1.34-3,1.46-5.54h-4.63c-1.18,0-2.54.1-3.46.12-.31.02-.38-.1-.43-.46-.07-.48-.12-1.49-.17-2.38,1.56.12,2.9.12,4.08.12h4.73c0-1.2,0-2.5-.02-3.55-.02-.77-.05-1.46-.29-2.42,1.2.05,2.42.14,3.19.34.26.07.36.17.36.34,0,.14-.07.31-.17.53-.1.22-.19.79-.19,1.46,0,1.13,0,1.92-.02,3.29h3.22Z"/>
              <path d="m472.09,677.29c-2.38,0-3.29.29-3.53.29-.29,0-.48-.14-.55-.5-.12-.55-.26-1.68-.36-2.9,1.56.24,2.76.29,5.18.29h7.73c1.82,0,3.67-.05,5.52-.07.36-.02.43.05.43.34.05.72.05,1.54,0,2.26,0,.29-.1.38-.43.36-1.8-.02-3.58-.05-5.35-.05h-8.64Z"/>
            </g>
            <polyline points="335.77 694.41 326 694.41 326 658.13 335.77 658.13" fill="none" stroke="#000" stroke-miterlimit="10" stroke-width="1.96"/>
            <polyline points="507 694.41 516.77 694.41 516.77 658.13 507 658.13" fill="none" stroke="#000" stroke-miterlimit="10" stroke-width="1.96"/>
          </g>
        </g>
        <g>
          <path d="m181.25,323.94c.31,0,.49-.03.65-.1.13-.05.23-.08.36-.08.23,0,.42.1.99.65.6.6.78.88.78,1.12,0,.29-.16.39-.39.55-.21.13-.44.29-.81.73-1.35,1.59-2.63,2.89-3.98,4.03,2.63,1.46,5.8,2.47,9.67,3.2-.42.55-.68,1.2-.88,1.9-.23.83-.23.86-1.04.65-.96-.23-1.87-.52-2.73-.81-.03.29-.05,1.01-.05,2.39v2.31c0,3.56.05,4.21.05,4.34,0,.26-.03.29-.29.29h-2.16c-.26,0-.29-.03-.29-.29v-.86h-9v.99c0,.26-.03.29-.29.29h-2.16c-.26,0-.29-.03-.29-.29,0-.16.05-.83.05-4.39v-2c0-1.48-.03-2.24-.05-2.63-.91.31-1.9.65-2.94.94-.81.21-.83.23-1.12-.57-.23-.68-.55-1.27-.94-1.74,4.24-.94,7.46-2.13,10.06-3.69-1.09-.91-2.11-1.92-3.02-3.07-1.12,1.01-2.42,1.98-3.87,2.89-.29.18-.44.29-.57.29-.16,0-.26-.18-.52-.62-.34-.55-.81-1.01-1.27-1.38,3.35-1.77,5.64-3.93,7.23-6.14.39-.62.62-1.09.81-1.64.99.18,1.82.36,2.55.55.31.08.42.23.42.39,0,.21-.13.31-.31.47-.16.13-.31.26-.7.81l-.36.55h6.4Zm-1.12,11.47c1.22,0,2.03,0,2.57-.03-2.26-.81-4.24-1.77-6.03-2.91-1.69,1.14-3.56,2.08-5.77,2.94h9.23Zm-7.98,6.21h9v-3.9h-9v3.9Zm1.17-15.44c.99,1.25,2.08,2.29,3.3,3.22,1.2-.96,2.24-2.03,3.2-3.22h-6.5Z" fill="#e26e7a"/>
          <path d="m193.44,330.83c-1.74,0-2.26.05-2.42.05-.29,0-.31-.03-.31-.29v-1.82c0-.26.03-.29.31-.29.16,0,.68.05,2.42.05h.65v-3.09c-.52.16-1.04.29-1.56.39q-.78.16-1.09-.62c-.21-.52-.47-.99-.75-1.38,2.34-.36,4.19-.91,5.77-1.56.44-.21.73-.36,1.09-.6.65.55,1.04.96,1.46,1.48.16.18.23.29.23.44,0,.21-.18.34-.44.34s-.49.1-.81.23c-.44.18-.91.36-1.4.52v3.85c1.35,0,1.82-.05,1.95-.05.26,0,.29.03.29.29v1.82c0,.26-.03.29-.29.29-.13,0-.55-.03-1.77-.05.73,1.61,1.66,2.76,2.68,3.72-.42.52-.7,1.04-.96,1.64-.13.29-.21.42-.31.42s-.21-.13-.36-.36c-.47-.7-.91-1.48-1.3-2.44,0,6.32.16,10.71.16,11.18,0,.23-.03.26-.29.26h-2.08c-.26,0-.29-.03-.29-.26,0-.44.16-4.89.21-10.66-.65,2.29-1.48,4.08-2.55,5.72-.18.26-.29.42-.42.42-.08,0-.18-.13-.26-.44-.23-.78-.57-1.59-.86-2.05,1.48-1.92,2.65-3.98,3.61-7.12h-.31Zm8.24,13.7c-2.52,0-3.38.05-3.54.05-.29,0-.31-.03-.31-.31v-1.59c0-.23.03-.26.31-.26.16,0,1.01.03,3.54.03h3.17v-1.46h-2.05c-2.44,0-3.3.05-3.46.05-.26,0-.29-.03-.29-.29v-1.51c0-.26.03-.29.29-.29.16,0,1.01.05,3.46.05h2.05v-1.4h-1.46c-2.37,0-3.17.05-3.33.05-.29,0-.31-.03-.31-.29,0-.16.05-.75.05-2.21v-3.22c0-1.46-.05-2.05-.05-2.24,0-.23.03-.26.31-.26.16,0,.96.05,3.33.05h1.46v-1.38h-2.5c-2.52,0-3.38.05-3.54.05-.26,0-.29-.03-.29-.29v-1.56c0-.26.03-.29.29-.29.16,0,1.01.05,3.54.05h2.5v-1.38c-1.2.05-2.44.13-3.74.16q-.68,0-.99-.62c-.23-.52-.49-.94-.78-1.3,4.08-.05,7.31-.29,10.17-.83.75-.16,1.09-.26,1.56-.44.57.36,1.33.99,1.72,1.4.16.16.21.26.21.44s-.18.31-.52.31c-.29,0-.65.08-1.07.16-1.3.23-2.68.42-4.11.55v1.56h3.07c2.52,0,3.38-.05,3.51-.05.29,0,.31.03.31.29v1.56c0,.26-.03.29-.31.29-.13,0-.99-.05-3.51-.05h-3.07v1.38h1.79c2.31,0,3.15-.05,3.33-.05.26,0,.29.03.29.26,0,.16-.05.78-.05,2.24v3.22c0,1.46.05,2.08.05,2.21,0,.26-.03.29-.29.29-.18,0-1.01-.05-3.33-.05h-1.79v1.4h2.31c2.44,0,3.28-.05,3.46-.05.26,0,.29.03.29.29v1.51c0,.26-.03.29-.29.29-.18,0-1.01-.05-3.46-.05h-2.31v1.46h3.28c2.52,0,3.38-.03,3.54-.03.29,0,.31.03.31.26v1.59c0,.29-.03.31-.31.31-.16,0-1.01-.05-3.54-.05h-8.89Zm3.17-11.86v-1.43h-2.7v1.43h2.7Zm0,3.2v-1.56h-2.7v1.56h2.7Zm2.44-4.63v1.43h2.94v-1.43h-2.94Zm2.94,3.07h-2.94v1.56h2.94v-1.56Z" fill="#e26e7a"/>
          <path d="m64.72,358.8c.13-.1.23-.16.36-.16.1,0,.21.05.34.18,1.46,1.12,3.04,2.86,4.16,4.55.1.13.13.21.13.31s-.08.21-.18.36c-.55.49-1.35,1.2-2,1.59-.08.05-.16.1-.23.1-.13,0-.26-.1-.36-.29-1.01-1.66-2.5-3.48-4.32-4.99.83-.68,1.77-1.4,2.11-1.66Zm16.51.88c.23.13.31.26.31.44,0,.21-.13.42-.29.6-.42.47-.65,1.12-.88,1.69-1.59,3.98-3.33,7.02-4.86,8.97-1.92,2.47-4.58,4.91-6.66,6.21-.21.13-.39.21-.55.21-.18,0-.36-.1-.57-.29-.55-.44-1.4-.83-2.39-1.14,3.25-2.05,5.46-4.03,7.44-6.53,1.77-2.24,3.48-5.38,4.42-8.16.44-1.35.6-2.11.68-3.46,1.38.47,2.65.96,3.35,1.46Z" fill="#e26e7a"/>
          <path d="m87.93,360.9c0-1.79-.08-2.78-.29-3.8,1.09.13,2.47.29,3.22.55.31.08.44.23.44.42,0,.13-.05.26-.1.39-.23.49-.29,1.14-.29,2.47v5.25c0,1.35.05,2.37.08,3.28,0,.39-.16.52-.57.52h-2.08c-.36,0-.52-.13-.49-.44,0-.91.08-2.42.08-3.54v-5.1Zm12.25,4.86c0,3.85-.57,6.42-2.11,8.48-1.27,1.69-3.54,3.28-5.72,4.08-.21.08-.39.13-.55.13-.21,0-.39-.08-.62-.31-.62-.62-1.3-1.12-2.21-1.59,2.78-.86,4.97-2.08,6.34-3.8,1.2-1.48,1.74-3.64,1.74-6.94v-4.91c0-2.24-.05-3.07-.29-4.24,1.25.1,2.5.29,3.38.57.26.08.36.23.36.44,0,.13-.03.29-.1.42-.23.55-.23,1.22-.23,2.83v4.84Z" fill="#e26e7a"/>
          <path d="m119.76,373.82c1.04,0,2.18-.03,3.17-.03.44-.03.55.05.57.47.03.49.03,1.14,0,1.64-.03.49-.1.52-.49.52-1.17,0-2.42-.03-3.61-.03h-9.57c-1.07,0-2.08,0-3.35.05-.29,0-.39-.13-.44-.52-.1-.55-.13-1.38-.13-2.18,1.48.1,2.44.1,3.74.1h6.03l.88-6.32h-4.19c-1.01,0-2.18.05-2.86.08-.31.03-.42-.05-.47-.49-.08-.55-.13-1.38-.18-2.24,1.74.08,2.52.13,3.61.13h3.59c.94,0,1.17-.08,1.53-.23.1-.08.21-.1.29-.1.13,0,.26.08.39.16.47.34,1.17.91,1.59,1.43.16.16.23.31.23.47s-.08.31-.23.47c-.34.36-.42.65-.52,1.3l-.81,5.33h1.22Z" fill="#e26e7a"/>
          <path d="m131.56,369.14c-2.57,0-3.56.31-3.82.31-.31,0-.52-.16-.6-.55-.13-.6-.29-1.82-.39-3.15,1.69.26,2.99.31,5.62.31h8.37c1.98,0,3.98-.05,5.98-.08.39-.03.47.05.47.36.05.78.05,1.66,0,2.44,0,.31-.1.42-.47.39-1.95-.03-3.87-.05-5.8-.05h-9.36Z" fill="#e26e7a"/>
          <path d="m152.05,363.66c.13-.18.26-.31.49-.26,1.95.65,3.51,1.48,4.99,2.55.18.13.29.23.29.39,0,.08-.05.18-.1.29-.29.7-.73,1.38-1.14,1.98-.13.16-.23.26-.34.26s-.18-.05-.31-.16c-1.66-1.22-3.35-2.08-5.25-2.83.65-1.04,1.07-1.79,1.38-2.21Zm4.21,9.65c2.47-1.3,4.6-2.52,7.12-4.5,2.08-1.59,4.86-4.08,7.49-7.25.16,1.14.36,1.79.75,2.91.08.18.13.34.13.49,0,.21-.08.39-.29.6-2.42,2.6-4.06,4.03-6.6,6.01-2.26,1.72-4.68,3.2-7.77,4.89-.62.34-1.25.62-1.51.88-.16.16-.29.21-.42.21-.18,0-.36-.1-.52-.31-.55-.55-1.25-1.56-1.92-2.65,1.09-.21,2-.49,3.54-1.27Zm-1.07-15.63c.18-.31.34-.36.65-.21,1.66.68,3.46,1.64,4.89,2.89.16.1.21.23.21.34s-.03.21-.1.34c-.36.65-.88,1.48-1.33,1.95-.08.13-.18.16-.26.16-.13,0-.26-.08-.39-.18-1.35-1.12-3.38-2.44-5.04-3.2.44-.68.94-1.4,1.38-2.08Z" fill="#e26e7a"/>
          <path d="m186.32,366.36h-6.01c-1.22,0-2.47.13-3.64.16-.23.03-.36-.18-.39-.6-.05-.65-.08-1.14-.13-2.13,1.48.13,2.29.13,4.16.13h4.52c1.27,0,2.7,0,3.85-.05.31,0,.42.16.39.42,0,1.17-.05,2.26-.05,3.41v6.01c0,1.17.05,2.37.1,3.69,0,.39-.13.47-.57.49-.42.03-1.25.05-1.77.05-.42,0-.47-.08-.47-.39v-.78h-6.16c-1.22,0-2.39.05-3.59.13-.26,0-.34-.13-.36-.52-.08-.52-.13-1.27-.13-2.16,1.4.1,2.68.1,4.19.1h6.06v-2.91h-5.51c-1.17,0-2.44.05-3.56.1-.31,0-.42-.16-.44-.57-.08-.52-.1-1.2-.1-2.08,1.4.1,2.37.13,4.06.13h5.56v-2.63Z" fill="#e26e7a"/>
          <path d="m196.17,358.95c.1-.13.23-.21.36-.21.1,0,.21.05.34.13,1.33.7,3.48,2.29,4.97,3.69.16.16.23.26.23.36s-.05.21-.16.34c-.39.52-1.25,1.56-1.61,1.95-.13.13-.21.21-.31.21s-.21-.08-.34-.21c-1.56-1.61-3.43-3.09-5.3-4.24.57-.7,1.33-1.51,1.82-2.03Zm2.26,13.7c3.17-1.64,4.86-2.73,7.49-4.84,3.17-2.57,4.91-4.24,7.12-7.07.16,1.3.39,2.18.73,3.04.08.18.13.34.13.49,0,.23-.13.44-.42.78-1.38,1.61-3.61,3.69-5.98,5.51-2.16,1.69-4.34,3.15-7.85,5.1-1.17.7-1.51.96-1.74,1.2-.16.16-.31.26-.47.26-.13,0-.29-.1-.44-.29-.65-.73-1.46-1.79-2.08-2.89,1.33-.36,2.13-.6,3.51-1.3Z" fill="#e26e7a"/>
        </g>
        <g>
          <path d="m327.79,344.05c-1.69,0-3.17.08-4.29.13-.34.03-.44-.16-.49-.52-.08-.52-.18-1.87-.23-2.63,1.17.13,2.55.18,4.99.18h9.28c.78,0,1.07-.05,1.43-.26.13-.08.26-.1.39-.1.16,0,.31.05.49.13.7.44,1.4,1.09,1.9,1.72.13.16.18.29.18.44,0,.23-.13.44-.36.65-.23.23-.36.49-.6,1.01-1.27,3.07-2.86,5.93-5.04,8.45-2.24,2.55-4.76,4.71-7.38,6.19-.23.16-.47.23-.7.23-.21,0-.44-.08-.65-.29-.6-.57-1.46-1.04-2.42-1.43,3.8-1.92,6.11-3.72,8.5-6.5,2.03-2.31,3.35-4.52,4.39-7.41h-9.39Z" fill="#e26e7a"/>
          <path d="m354.18,355.77c0,1.25.05,2.91.08,4.24.03.31-.13.44-.44.47-.68.05-1.43.05-2.11,0-.29-.03-.44-.16-.42-.47.03-1.48.08-2.78.08-4.16v-4.45c-1.77,1.48-4.06,3.07-5.38,3.74-.1.08-.23.1-.34.1-.18,0-.39-.1-.52-.26-.47-.55-1.17-1.07-1.87-1.3,4.08-2.13,7.62-4.86,10.79-8.45.6-.7,1.04-1.35,1.38-2.24.88.52,1.98,1.2,2.39,1.56.18.16.29.34.29.47,0,.18-.13.36-.39.49-.34.18-.94.81-1.17,1.07-.68.78-1.46,1.64-2.37,2.52v6.66Z" fill="#e26e7a"/>
          <path d="m367.1,351.14c-2.57,0-3.56.31-3.82.31-.31,0-.52-.16-.6-.55-.13-.6-.29-1.82-.39-3.15,1.69.26,2.99.31,5.62.31h8.37c1.98,0,3.98-.05,5.98-.08.39-.03.47.05.47.36.05.78.05,1.66,0,2.44,0,.31-.1.42-.47.39-1.95-.03-3.87-.05-5.8-.05h-9.36Z" fill="#e26e7a"/>
        </g>
        <g>
          <g>
            <line x1="243.87" y1="385.57" x2="243.87" y2="313.69" fill="none" stroke="#e26e7a" stroke-miterlimit="10" stroke-width="4"/>
            <polyline points="233.83 376.58 243.87 386.61 253.9 376.58" fill="none" stroke="#e26e7a" stroke-miterlimit="10" stroke-width="4"/>
          </g>
          <g>
            <line x1="290.9" y1="314.74" x2="290.9" y2="386.61" fill="none" stroke="#e26e7a" stroke-miterlimit="10" stroke-width="4"/>
            <polyline points="300.94 323.73 290.9 313.69 280.87 323.73" fill="none" stroke="#e26e7a" stroke-miterlimit="10" stroke-width="4"/>
          </g>
        </g>
        <g>
          <path d="m168.16,613.86c-2.65.58-6.87,1.46-8.6.4-2.2-1.34-1.74-2.8.43-4.33,4.56-3.23,7.69-5.36,9.81-8.33,1.06-1.49,1.25-2.81,1.98-5.38,3.82-.13,7.52-.34,11.33-.62,1.12,3.28,1.78,2.86,1.63,7.05-.22,3.29-3.1,5.91-7.67,7.13-4.57,1.23-7.27,3.71-8.91,4.07Z" fill="#111214" fill-rule="evenodd"/>
          <g>
            <path d="m145.28,484.84c-1.28.31-2.47-.12-3.61-.25-3.57-.41-6.27-.06-8.52,1.23-.54.31,1.54,6.03,4.03,7.84.12.09.28-.05.4-.1l2.32-.74,6.28-2.1-.9-5.89Z" fill="#db9669" fill-rule="evenodd"/>
            <path d="m168.97,489.46c-10.13,1.76-15.15,1.24-25.38,2.23,1.12-3.9-.97-7.38-2.53-7.76,8.65-1.8,19.15-4.68,28.08-4.65l-.17,10.18Z" fill="#cee6f5" fill-rule="evenodd"/>
            <path d="m170.9,489.73c-10.13,1.76-15.62,1.17-25.85,2.16,1.44-4.15-.76-8.3-2.57-8.66,8.65-1.8,19.15-4.68,28.08-4.65l.34,11.15Z" fill="#00263d" fill-rule="evenodd"/>
            <polygon points="122.31 463.56 137.46 471.76 156.67 508.23 140.28 498.45 122.31 463.56" fill="#0b3854" fill-rule="evenodd"/>
            <path d="m135.87,486.03c-2.59-.48-2.59-1.1-2.75-.23-.23,1.29,1.57,6.05,4.05,7.86.01,0,1.74.46,2.61.43.74-.03.69-.42.29-1.46l-1.77-4.6c-.59-1.37-.84-1.72-2.44-2.01Z" fill="#f1cfcd" fill-rule="evenodd"/>
          </g>
          <path d="m201.18,619.77c.13-1.52.31-2.7.37-3.9.06-1.16-.52-2.6-1.15-4.45l-2.13.1-6.79.26c-.07,1.8-.77,3.4-1.33,5.23-.45,1.47-.72,2.66-1.04,3.92-.96,3.68-1.17,3.48-1.12,5.8.02,1.11.45,2.45,1.38,2.82,3,1.2,10.73,2.66,11.81-9.78Z" fill="#111214" fill-rule="evenodd"/>
          <path d="m175.88,559.06c2.84,13.41,3.56,22.88,1.74,42.73,2.61-.19,5.27-1.18,6.67-3.14.44-11.43,1.16-20.46.83-26.72-.27-5.21-.52-8.21-2.2-12.84,1.44-9.9,3.53-30.51,3.09-41.56l-5.93-2.37c-1.8,16.34-2.93,24.77-4.2,43.89Z" fill="#00101a" fill-rule="evenodd"/>
          <path d="m203.24,581.54c-.36,6.25-.54,19.05-.66,30.5-2.83,3.82-10.23,3.19-12.19.12-1.27-14.42-1.62-31.27-3.89-45.63-1.24-7.91-3.39-23.39-4.48-34.53-1.23-1.64-2.93-3.59-3.09-4.28-.17-.76-.31-1.52-.41-2.27-.12-.21-.21-.39-.24-.52-1.03-4.59-.78-9.14-.08-12.61l10.62,1.24,8.95.7c.44.4.83.96,1.16,1.63,1.11,4.48,4.75,57.79,4.3,65.67Z" fill="#50546b"/>
          <path d="m174.32,446.27c-3.57-.23-5.18.52-7.06,3.33-3.29,4.91-3.81,15.35-3.57,24.77.13,5.33.98,10.02,1.04,16.65.08,7.94-2.33,21.92-1.95,30.33.72,1.55,5.82,4.16,6.49,4.03-.65-8.38-.84-19.64-.51-31.17.32-11.19,1.1-22.64,3.19-31.14,3.07-12.47,8.35-13.82,7.81-15.5-.11-.34-5.23-1.28-5.44-1.29Z" fill="#00263d" fill-rule="evenodd"/>
          <path d="m188.85,496.06c-.14,1.93-.18,3.7-.15,5.32,5.14-4.68,9.97-10.67,14.47-17.16,2.31-6.49,4.4-13.01,4.35-17.62l-18.68,29.47Z" fill="#11101a" fill-rule="evenodd"/>
          <path d="m167.64,509.38c2.37,2.36,4.39,3.6,7.4,5.2.01,5.07,0,14.46-.18,23.85-.02,5.55-.11,11.21-.35,15.91,0,.23-.02.46-.02.69.47,3.91,2.3,6.11,2.53,11.98.26,6.54-.59,17.5-1.75,24.66.04,3.14.06,6.27.03,9.4-2.01.03-3.81-1.26-4.16-1.72l-.23-35.56c-.22-5.67-1.1-14.15-1.8-22.87-1.49-10.42-2.93-22.51-1.47-31.54Z" fill="#001e30" fill-rule="evenodd"/>
          <path d="m185.13,571.94c.32,6.26-.39,15.28-.83,26.72-2.96,4.14-11.61,3.96-13.41,1.01-.87-14.45-.7-28.74-2.07-43.21-.54-5.68-1.29-14.35-1.84-22.66-.88-5.43-1.64-10.87-1.79-16.22-.12-4.1.47-6.36,2.07-11.41,3.83,2.2,6.69,4.62,10.01,6.18l-.22.19c3.13,1.37,6.38,2.54,9.47,3.77.12,3.01-.78,14.89-1.21,18.34-.61,5.32-.17,37.29-.17,37.29Z" fill="#50546b"/>
          <path d="m167.16,506.54c.04.25.13.48.29.71,3.28,4.58,23.88,11.47,28.19,11.11-3.42-29.75,27.73-55.07-5.65-64.87l-9.6,5.29-3.44-.62-.44-4.23c-4.65,4.62-6.8,10.74-7.62,19.26-1.08,11.14,1.26,21.13-1.74,33.35Z" fill="#cee6f5" fill-rule="evenodd"/>
          <path d="m200.49,457.38c-1.79-.99-5.45-3.23-9.39-5.44,3.32,3.98-4.7,13.54-8.42,25.47-2.35,7.53-3.17,21.45-1.31,29.74,1.4,6.26,4.36,7.3,9.12,11.3,3.28,2.75,4.5,10.76,7.12,12.85,2.44-1,5.28-3.06,6.47-4.21-1.59-12.99-6.05-14.88-6.42-22.96-.33-7.43,10.15-27.24,10.06-37.5-.04-4.55-3.87-7.39-7.23-9.25Z" fill="#00263d" fill-rule="evenodd"/>
          <path d="m186.08,526.15c-.42,1.02-.1,6.26,4.51,3.94,3.67-1.85,5.23-2.17,6.48-4.17.92-1.47.71-3.01,2.34-4.57l-4.36-3.99c-1.42,2.23-2.46,1.21-4.39,2.28-2.13,1.19-3.07,2.84-4.58,6.51Z" fill="#f1cfcd" fill-rule="evenodd"/>
          <path d="m197.74,524.73c-2.73-1.63-3.73-3.66-4.61-6.13.8-.62,1.15-.83,1.81-1.6l4.65,5.44c-.83.83-1.18,1.18-1.85,2.29Z" fill="#cee6f5" fill-rule="evenodd"/>
          <path d="m176.95,448.75c-3.34,1.56-4.44,2.18-6.76,5.76l2.03,1.41-2.82,1.19c-1.02,10.35-2.08,21.86-.84,32.34.52-10.23,2.28-20.73,4.84-29.33.98-3.3,2.33-4.71,4.49-7.95.36-.53-.32-3.71-.94-3.42Z" fill="#003454" fill-rule="evenodd"/>
          <path d="m177.93,467.05c-.18-1.25-.35-2.29-.63-3.52l-.53-.88c-.46.01-.55-.06-.8,0-.56.15-.95,1.4-1.76,2.2-2.62,12.56-4.57,15.69-4.32,27.76l1.56,4.32,3.03-4.06,3.46-25.81Z" fill="#69616b" fill-rule="evenodd"/>
          <path d="m205.72,461.45c.44.63.98,1.49,1.44,2.37,3.56,6.89,7.29,20.75,8.12,29.24.21,2.11.68,3.23.51,4.6-.36,2.81-7.22-.67-9.89,1.16-2.58-5.62-3.96-11.34-10.72-23.37-2.42-4.3,3.02-17.4,10.54-14.01Z" fill="#00263d" fill-rule="evenodd"/>
          <path d="m213.66,492.3c1.2,2.18,2.49,3.25,2.04,5.92-.19,1.15-.97,2.31-1.54,3.74-2.52,6.25-8.26,14.86-14.6,20.93-2.17.01-5.29-3.83-5.77-5.92,2.88-6.87,7.33-11.79,11-18.1.81-1.39,1.11-2.12,1.97-3.3l6.9-3.27Z" fill="#00263d" fill-rule="evenodd"/>
          <path d="m191.07,450.66c1.08,1.43,1.92,2.67,2.35,3.7,1.31,3.18,1.14,8.16-.43,13.67l-3.2-1.19,1.54,3.49c-6.44,8.41-10.04,20.94-10.54,33.81-4.18-33.45,11.46-41.78,10.28-53.48Z" fill="#003454" fill-rule="evenodd"/>
          <path d="m180.09,459.74c-.56,2.35-.65,2.31-2.83,3.96l-1.41-.75c-.66-2.71-.33-4.46.21-4.78,1.89-.07,2.68.15,4.03,1.56Z" fill="#69616b" fill-rule="evenodd"/>
          <path d="m178.03,458.31c-.24-.6-.36-1.84-.61-2.93-.23-.97-.59-1.78-.81-2.28-1.32.17-1.9,4.16-3.02,6.51,1.74-1.21,2.49-1.32,4.44-1.31Z" fill="#e8f6ff" fill-rule="evenodd"/>
          <path d="m190.35,450.01c.27,4.27-7.83,7.23-12.35,8.31,1.13,1.37,2.6,3.09,2.54,4.46,3.26-.89,8.79-2.42,11.03-6.59,1.53-2.85.27-5.04-1.21-6.17Z" fill="#e8f6ff" fill-rule="evenodd"/>
          <path d="m177.16,454.53c-.15-.41-.31-.82-.48-1.26-.46-1.26-.48-3.92-1.28-6.86l11.6-5.06,2.48-1.32c-.9,4.37-.37,6.97.87,10.07.13,4.2-7.83,7.12-12.32,8.19-.4-1.02-.43-2.51-.88-3.78Z" fill="#f1cfcd" fill-rule="evenodd"/>
          <g>
            <path d="m170.76,445.68c.2,1.92.77,4.11,1.39,4.52.54.35,1.13.49,1.99.85.68.28,1.35.4,3.29-.13,1.52-.61,5-1.58,6.38-2.22,3.02-1.39,3.25-4.14,4.79-7.84,2.81-1.25,3.92-2.48,4.46-4.01,1.28-3.63-.02-8.09-2.42-10.87-2.1-2.43-4.86-3.56-8.23-3.51-6.55.09-9.68,4.43-11.54,9.66-.98,2.77-.12,13.54-.12,13.54Z" fill="#f1cfcd" fill-rule="evenodd"/>
            <path d="m179.28,431.74c1.63-.6,4.04-3.75,6.69-4.88,2.71-1.15,5.67-2.37,7.59-.5,1.56,2.51,1.61,6.69.95,8.95-.94,3.23-3.44,5.86-6.69,8.54-1.22,1.01-.55-3.64-.78-4.66-.35.71-.75,1.45-1.16,2.21l-.83-.48c.14-.93,1.37-10.39.93-11.13-.99-.48-3.14,1.15-6.69,1.94Z" fill="#361d07" fill-rule="evenodd"/>
            <path d="m188.46,437.93c2.58-.59,2.3,2.29,1.73,4-.39,1.17-1.37.98-1.83,1.89-.55,1.08-1.48,1.52-2.22,1.42-1.51-.2-.34-2.36-.06-3.23-.02-1.49.75-3.7,2.39-4.07Z" fill="#f1cfcd" fill-rule="evenodd"/>
            <path d="m193.7,426.59c-3.7-2.75-8.18,3.33-13.23,4.91-2.15.67-3.04.39-5.89-.81-1.79-.75-3.37-1.69-3.54-2.55-.96-4.84.92-6.41,3.97-7.17,1.24-.31,2.89-.2,4.28-.57,5.61-1.5,12.66-.44,14.42,6.19Z" fill="#361d07" fill-rule="evenodd"/>
          </g>
        </g>
        <g>
          <path d="m345.78,508.03s-1.85,2.74-2.39,5.16c-.53,2.41,3.31,6.26,3.31,6.26l3.4-10.02-4.32-1.4Z" fill="#f1cfcd"/>
          <path d="m375.69,441.64s-.79,5.73,1.33,8.36c0,0-8.57,11.38-15.21,9.69-6.64-1.69-1.76-8.94-1.76-8.94l15.64-9.11Z" fill="#f1cfcd"/>
          <path d="m370.69,606.75s.33,2.72-.76,5.72c-1.09,2.99-4.87,9.8-4.78,12.62.09,2.82,1.27,4.92,3.88,5.21,2.02.22,8.22-1.71,10.31-6.61,2.09-4.9.32-6.24,1.4-8.32,1.09-2.09,2.37-6.52,1.64-9.79-.72-3.27-11.7,1.18-11.7,1.18Z" fill="#001135"/>
          <path d="m364.1,599l-14.24-1.05h-.3s-1.19,3.09-3.98,4.22c-2.79,1.12-10.09,4.09-12.17,6.88-1.7,2.29,2.02,5.46,9.79,3.56,5.51-1.35,6.12-4.15,12.58-4.27,4.43-.08,6.14-.87,8.01-3.21l.3-6.12Z" fill="#001135"/>
          <path d="m346.94,601.87s3.37-14.05,1.04-29.8c-1.6-10.83-1.84-40.25-1.08-63.52,0,0,3,4.9,10.63,7.89,7.62,2.98,9.17,5.8,9.17,5.8l-1.29,20.67s-1.16,11.31-.77,17.14c.39,5.86-.66,5.58-.47,15.67.2,10.09-.14,27.34-.14,27.34,0,0-9.67,1.87-17.09-1.19Z" fill="#633750"/>
          <path d="m382.96,579.58c-1.2-9.9-2.61-18.65-2.14-25.47.47-6.82,3.8-32.56.39-40.51l-23.69,2.85s3.24,32.56,7.05,48.5c3.81,15.94,5.36,47.53,5.36,47.53,0,0,.32,3.81,4.93,4.01,4.61.2,7.51-8.16,7.51-8.16,0,0,1.78-18.85.58-28.75Z" fill="#633750"/>
          <path d="m345.78,507.18s-.12,4.47,4.23,7.01c4.35,2.54,17.89,6.03,21.76,3.98,3.87-2.05,3.87-24.53,3.87-24.53l2.91-30.15-5.46-6.89s-7.75,2.16-10.79.83c-3.04-1.34-2.78-6.99-2.78-6.99,0,0-4.77-.4-7.32,6.23-2.55,6.63-2.62,29.81-2.62,29.81,0,0-1.22,15.84-1.75,17.2-.54,1.36-2.06,3.49-2.06,3.49Z" fill="#e6f6ff"/>
          <path d="m356.05,447.14s-6.25-.95-8.05,4.92c-.9,2.95-.67,10.02-.22,16.3-.26,3.82-.08,7.01.24,8.52.95,4.43-1.68,19.63-1.68,21.64s-1.63,3.54-3.4,6.7c-1.78,3.17,3.44,6.01,3.44,6.01,3.23-1.73,3.65-29.49,6.18-44.06.59-3.41.97-6.53,2.03-8.86,3.49-7.65,9.53-10.58,9.53-10.58l-8.07-.6Z" fill="#2a4048"/>
          <path d="m385.98,516.66c-3.83-4.82-7.52-12.86-5.44-18.14,2.08-5.28,8.33-18.12,8.33-18.12l1.4-19.16-11.03-8.85-1.81-1.96s.2,3.04-3.8,7.66c-6.57,7.6-9.45,19.63-8.92,33.03.53,13.41,2.3,21.43,8.17,30.19l5.34,9.61s1.1,6.77,1.53,7.25c2.88,3.24,11.96.12,12.6-2.44,0,0-2.53-14.27-6.36-19.08Z" fill="#2a4048"/>
          <path d="m364.12,461.43l-1.82-4-3.62,2.79.81,3.66s-6.63,19.36-6.98,40.47l3.22,5.88,3.55-3.56s.96-22.74,1.53-27.54c.57-4.8.89-14.93.89-14.93l2.42-2.78Z" fill="#633750"/>
          <path d="m376.73,449.13c-4.01,6.86-14.43,8.3-14.43,8.3l1.62,6.06s11.1-4.61,14.63-10.87l-1.82-3.5Z" fill="#fdfdfd"/>
          <path d="m357.85,460.83l4.45-3.39s-1.05-5.15-.37-8.76h-1.83s-3.45,6.32-2.25,12.15Z" fill="#fdfdfd"/>
          <path d="m365.19,498.53s3.62-17.02,9.72-27.52l-3.72-3.6,3.6-1.16,5.19-13.62-3.24-3.5s.21,1.79-.66,3.5c-.88,1.71-7.6,9.39-10.25,19.91-2.65,10.53-.64,25.99-.64,25.99Z" fill="#2a5348"/>
          <path d="m349.64,495.45l-1.64-33.88,3.29-.88-1.34-4.11,10.38-9.44,4.13,1.21s-9.13,5.22-10.87,14.42c-1.73,9.2-3.95,32.67-3.95,32.67Z" fill="#2a5348"/>
          <g>
            <path d="m355.66,436.48c-.04-1.14.63-2.35.88-3.8.25-1.44,1.08-4.67,4.79-7.53,3.7-2.86,9.18-3.45,12.8-1.34,3.62,2.12,5.94,6.38,5.31,11.44-.63,5.07-3.56,10.28-6.51,12.95-2.95,2.67-6.21,3.84-9.6,4.27-3.35.42-4.86-1.26-5.1-2.75,0,0-.61-1.37-.95-2.53-.68-3.4-1.45-5.55-1.62-10.72Z" fill="#f1cfcd"/>
            <path d="m374.45,422.19c-5.59-3.41-11.79-1.51-14.92.93-1.09.85-2.31,2.13-3.55,4.72-1.02,2.13-.77,6.34,4.09,6.42,2.63.04,6.07-.68,8.67-1.35,2.95,1.66,2.01,4.76,2.46,5.74.44.99.94,2.26,1.61,2.59.4.2,1.1-.49,1.28-.72.43-.56,3.42-4.5,3.91.1.71-1.72,1.23-3.55,1.45-5.36.1-.75.12-1.49.09-2.21h0c.79-1.87.3-7.58-5.09-10.86Z" fill="#001e26"/>
            <path d="m371.2,438.65c.44.99.94,2.26,1.61,2.59.4.2,1.1-.49,1.28-.72.43-.56,3.42-4.5,3.91.1.71-1.72,1.23-3.55,1.45-5.36.1-.75.12-1.49.09-2.21-2.94,1.75-6.65,2.54-8.66,2.87.23,1.15.09,2.23.32,2.74Z" fill="#001e26"/>
            <path d="m374.13,444.74c.43.24,1.42.56,3.18-1.57,1.76-2.14,1.61-4.03.63-4.61-.97-.57-1.85-.14-2.28.63-.44.77-1.53,5.55-1.53,5.55Z" fill="#f2a983"/>
            <path d="m374.13,444.74c.43.24,1.42.56,3.18-1.57,1.76-2.14,1.61-4.03.63-4.61-.97-.57-1.85-.14-2.28.63-.44.77-1.53,5.55-1.53,5.55Z" fill="#f1cfcd"/>
          </g>
          <g>
            <path d="m379.23,517.2l-.61,1.26s-1.59.51-1.7.61c-.1.1-4.57,2.3-4.57,2.3,0,0,2.38,6.28,5.86,9.57,0,0,3.97-6.07,4.49-7.29.52-1.22,1.81-3.5,1.81-3.5l-5.29-2.95Z" fill="#f1cfcd"/>
            <path d="m383.38,474.45c-1.61-3.78-1.31-11.4,2.45-12.88,3.77-1.48,5.98-1.55,11.57,9.73,5.59,11.28,4.77,19.28,5.45,21.22.69,1.94-1.48,5.7-2.74,8.32-1.25,2.62-15.62,23.03-15.62,23.03,0,0-4.21-3.08-6.95-5.81l13.34-25.34s-4.89-12.12-7.51-18.27Z" fill="#2a4048"/>
            <path d="m377.68,518.18l-.65.79,6.17,6.24.86-1.67c-1.13-.85-4.19-3.19-6.38-5.35Z" fill="#e2e9ed"/>
          </g>
        </g>
        <g>
          <g>
            <path d="m248.77,262.76h-3.1v-9.41c0-2.33.02-4.37.05-6.58h-.34c-.48,2.14-.91,4.06-1.54,6.34l-2.52,9.65h-3.79l-2.45-9.53c-.58-2.16-1.03-4.18-1.58-6.46h-.34c.05,2.16.07,4.32.07,6.62v9.36h-2.86v-18.63h5.26l2.35,9.5c.48,1.94.96,4.1,1.34,6.14h.34c.5-2.04.89-3.96,1.44-6.1l2.38-9.55h5.28v18.63Z"/>
            <path d="m265.5,246.7h-9v5.02h6.82v2.57h-6.82v8.47h-3.26v-18.63h12.26v2.57Z"/>
            <path d="m275.13,244.13c4.66,0,6.36,1.7,6.36,4.63,0,2.14-1.44,3.67-3.7,4.06v.17c2.76.46,4.27,2.09,4.27,4.49,0,3.29-2.35,5.28-6.6,5.28h-6.98v-18.63h6.65Zm-3.48,7.66h2.83c2.54,0,3.79-1.06,3.79-2.71s-.91-2.52-3.5-2.52h-3.12v5.23Zm0,8.54h3.46c2.47,0,3.7-1.15,3.7-3.1s-1.51-3.02-4.1-3.02h-3.05v6.12Z"/>
            <path d="m303.88,262.76h-3.1v-9.41c0-2.33.02-4.37.05-6.58h-.34c-.48,2.14-.91,4.06-1.54,6.34l-2.52,9.65h-3.79l-2.45-9.53c-.58-2.16-1.03-4.18-1.58-6.46h-.34c.05,2.16.07,4.32.07,6.62v9.36h-2.86v-18.63h5.26l2.35,9.5c.48,1.94.96,4.1,1.34,6.14h.34c.5-2.04.89-3.96,1.44-6.1l2.38-9.55h5.28v18.63Z"/>
          </g>
          <polyline points="210.27 271.41 200.5 271.41 200.5 235.13 210.27 235.13" fill="none" stroke="#000" stroke-miterlimit="10" stroke-width="1.96"/>
          <polyline points="324.5 271.41 334.27 271.41 334.27 235.13 324.5 235.13" fill="none" stroke="#000" stroke-miterlimit="10" stroke-width="1.96"/>
        </g>
        <g>
          <g>
            <polygon points="342 56.69 356.14 86.65 350.44 92.9 330.82 60.66 342 56.69" fill="#f1cfcd"/>
            <path d="m304.86,208.84l.29-14.49c-.34-1.37-2.17-1.65-3.63-2.93-.65-.57-1.59-.63-2.23-.16l-1.38,1.01c-2.05,1.38-2.16,1.79-1.71,3.6l2.66,10.71c.45,1.8,2.07,3.75,3.6,4.33l.43.16c1.53.58,2.42-.43,1.97-2.23Z" fill="#001e26"/>
            <path d="m299.91,192.15s1.37,8.85,3.63,9.42c0,0,1.45.36,1.5-1.98.05-2.34.65-6.88.65-6.88l-5.79-.56Z" fill="#f1cfcd"/>
            <path d="m308.57,23.25s-10.62,2.08-13.22,6.14c-2.61,4.07,2,14.1,2,14.1v-5.24s-6.13-10.08,10.8-12.29c11.37-1.48.42-2.71.42-2.71Z" fill="#001e26"/>
            <path d="m308.37,23.56s-17.52,11.34-11.02,22.32c6.49,10.98,24.09,15.71,24.09,15.71l7.15-36.89-20.23-1.15Z" fill="#001e26"/>
            <path d="m336.37,203.69l-10.82-7.6c-1.38-.56-4.31-.63-6.23-.27-.86.16-1.43.85-1.38,1.63l.11,1.68c.07,2.42.37,2.75,2.19,3.48l10.83,4.37c1.82.74,4.42.65,5.78-.19l.38-.24c1.35-.84.97-2.13-.85-2.86Z" fill="#001e26"/>
            <path d="m318.87,196.3c.13,3.36,6.95,4.57,7.08,1.16,8.28-31.62,9.35-60.56,10.93-94l-20.89-17.59c1.69,29.02,4.33,53.6,3.81,78.66-.07,3.25-1.69,6.69-1.87,9.81-.37,6.48,1.49,15.64.93,21.96Z" fill="#f1cfcd"/>
            <path d="m300,190.97c-.74,2.95,3.45,5.79,5.32,3.15,5.64-11.61,9.76-20.55,13.6-29.32,2.91-6.64,3.53-14.59,4.75-22.56,2.91-19.02-16.74-23.82-15.76-4.49.4,7.9.25,15.85-.72,23.74-.47,3.82-2.65,3.63-3.91,10.04-1.28,6.51-1.53,10.14-3.28,19.45Z" fill="#f1cfcd"/>
            <path d="m349.22,68.68l-13.11-23.41s-18.05,22.63-1.82,29.22l7.74,7.88,10.26-5.05-3.08-8.63Z" fill="#7285b1"/>
            <path d="m308.34,89.7c-9.09.18-.06,36.14-3.66,62,0,0,18.96,17.44,35.01,2.17l-.6-59.44-30.76-4.73Z" fill="#633750"/>
            <path d="m338.68,92.72c.53-6.36-2.53,6.33-2.41-1.03.05-2.83,1.42-10.94,2.1-16.3.64-5.01,5.87-7.99,4.79-14.09-.14-3.33-6.03-9.5-6.29-11.93-.4-3.85-.67-7.4-8.76-11.19l-3.56.77c-1.7.37-3.34.92-4.88,1.63-16.49,7.64-20.09,8.01-18.94,17.67.19,4.97,3.14,1.1,4.03,4.39,1.71,6.31,8.37,12.74,6.02,23.8-.47,2.23-2.22,3.75-.23,5.24,8.62,6.42,25.09,7.65,28.11,1.03Z" fill="#7285b1"/>
            <path d="m339.21,92.67c0,.24.02-.02,0,0h0Z" fill="#ff5cab"/>
            <path d="m357.17,97l-3.12,1.77c-1.52.87-3.48.82-4.35-.1l-.61-.64c-.87-.92-.34-2.38,1.18-3.25l3.12-1.77c1.52-.87,3.48-.82,4.35.1l.61.64c.87.92.34,2.38-1.18,3.25Z" fill="#f1cfcd"/>
            <path d="m323.83,96.82l-.09-.66,1.11.32.16-.42,24.61-12.6c.3-.15.86-.14,1.25.03l12.18,5.18-.02-.15,2.21.66.1.7h-.01c-.02.07-.07.13-.17.18l-25.61,13.12c-.3.15-.86.14-1.25-.03l-14.1-6c-.21-.09-.34-.21-.35-.32h0Z" fill="#bfc6c9"/>
            <path d="m339.45,102.47l25.61-13.12c.3-.15.22-.41-.18-.58l-14.1-6c-.39-.17-.96-.18-1.25-.03l-25.61,13.12c-.3.15-.22.41.18.58l14.1,6c.39.17.96.18,1.25.03Z" fill="#dde5e8"/>
            <path d="m336.34,94.23l6.2-3.17c.07-.04.05-.1-.04-.14l-3.41-1.45c-.1-.04-.23-.04-.3,0l-6.2,3.17c-.07.04-.05.1.04.14l3.41,1.45c.1.04.23.04.3,0Z" fill="#bfc6c9"/>
            <path d="m325.24,96.93c-9.18-.36-17.41-2.86-24.81-7.17-1.99-1.16-3.25-3.26-3.3-5.49-.11-5.11-.05-14.17,1.68-15.64l7.93,9.09-.37,5.07c8.66,3.81,13.21,8.33,18.5,9.93l.38,4.21Z" fill="#f1cfcd"/>
            <path d="m310.8,44.65s6.05,14.5,14.84,10.72c8.79-3.78,2.42-16.89,2.42-16.89,0,0-9.13,1.88-17.26,6.17Z" fill="#cedae2"/>
            <path d="m321.01,47.44l.58.12c1.97.4,3.79-.8,4.04-2.66l1.42-10.48c.25-1.86-1.15-3.7-3.12-4.1l-.58-.12c-1.97-.4-3.79.8-4.04,2.66l-2.94,9.76c-.25,1.86,2.66,4.43,4.63,4.83Z" fill="#f1cfcd"/>
            <path d="m340.24,88.7c.11-.56.68-1.25,1.26-1.54l27.07-13.55c.24-.12.45-.15.6-.11h0s0,0,0,0c.05.02.1.04.14.07l.89.67h-.81s-2.61,12.96-2.61,12.96c-.11.56-.68,1.25-1.26,1.54l-25.59,12.81-.83.77-.1.18c-.52.12-1.75-.48-1.75-.48l3-13.32Z" fill="#fff"/>
            <path d="m341.4,83.44c.11-.56.68-1.25,1.26-1.54l27.07-13.55c.24-.12.45-.15.6-.11h0s0,0,0,0c.05.02.1.04.14.07l.89.67h-.81s-2.61,12.96-2.61,12.96c-.11.56-.68,1.25-1.26,1.54l-25.59,12.81-.83.77-.1.18c-.52.12-1.75-.48-1.75-.48l3-13.32Z" fill="#fff"/>
            <path d="m370.58,69.06l-27.07,13.55c-.58.29-1.15.98-1.26,1.54l-2.64,13.1s0,.02,0,.03l-1.06,5.25c-.11.56.27.78.85.48l27.07-13.55c.58-.29,1.15-.98,1.26-1.54l2.64-13.1s0-.02,0-.03l1.06-5.25c.11-.56-.27-.78-.85-.48Z" fill="#5691bb"/>
            <path d="m354.75,86.68c-.03.95.87,1.26,2,.69,1.14-.57,2.08-1.81,2.11-2.76.03-.95-.87-1.26-2-.69-1.14.57-2.08,1.81-2.11,2.76Z" fill="#fff"/>
            <path d="m320.71,198.67s7.74,3.16,9.14,2.23c1.18-.78-4.54-4.52-4.54-4.52l-4.6,2.29Z" fill="#f1cfcd"/>
            <path d="m295.57,76.66c-.02-11.09,2.41-19.74,4.32-24.82.83-2.21,3.07-2.83,5.72-4.55.43-.28.26,2.28.74,2.64h0c2.91,2.19,4.44,6.06,3.88,9.78l-2.97,22.6,13.78,8.02s1.36,5.17-2.16,8.09c0,0-20.6-8.05-21.96-9.87s-1.36-11.88-1.36-11.88Z" fill="#7285b1"/>
            <path d="m322.6,94.09h0c-.28,1.62.82,3.18,2.44,3.46l5.65.96c1.62.28,3.18-.82,3.46-2.44h0c.28-1.62-.82-3.18-2.44-3.46l-5.65-.96c-1.62-.28-3.18.82-3.46,2.44Z" fill="#f1cfcd"/>
            <path d="m316.9,18.35c1.67-2.69,4.22-3.16,6.59-1.61,2.32-.94,5.12.44,7.19,3.96,2.88,4.89,2.59,11.68.79,15.95-.97,2.31-2.12,3.92-7.65,2.96-3.75-.72-5.86-1.82-7.98-5.42-2.88-4.89-1.39-11.91,1.05-15.83Z" fill="#f1cfcd"/>
            <path d="m330,22.59c-6.65,10.29-10.52,7.33-10.68,8.94,0,0-1.3,5.48-1.3,5.49-.67,3.19-3.73.68-6.85,1.71h0s-10.22-11.82,2.48-21.32c8.59-6.43,20.48-.1,19.19,8.36l-2.83-3.18Z" fill="#001e26"/>
            <ellipse cx="318.19" cy="31.84" rx="2.33" ry="2.56" transform="translate(126.69 287.93) rotate(-58.93)" fill="#f1cfcd"/>
          </g>
          <path d="m263.82,65.34c1.29.31,2.49-.12,3.65-.25,3.6-.41,6.33-.06,8.6,1.25.55.32-1.56,6.09-4.07,7.92-.12.09-.28-.06-.4-.1l-2.34-.74-6.34-2.12.91-5.94Z" fill="#db9669" fill-rule="evenodd"/>
          <path d="m265.92,65.35c2.3-.39,3.86-1.41,5.16-1.44,1.33-.03,3.25,1.04,5.67,1.29-.44,2.41-3.61.84-4.76,1.06-1.06.2-1.12,1.49-2.11,1.52-1.56.04-3.8-.71-3.96-2.42Z" fill="#db9669" fill-rule="evenodd"/>
          <path d="m239.9,70c10.22,1.77,15.3,1.25,25.63,2.26-1.14-3.93.98-7.46,2.56-7.84-8.74-1.82-19.33-4.73-28.36-4.69l.17,10.27Z" fill="#cee6f5" fill-rule="evenodd"/>
          <path d="m237.95,70.28c10.22,1.77,15.77,1.18,26.1,2.18-1.46-4.19.76-8.38,2.59-8.74-8.74-1.82-19.33-4.73-28.36-4.69l-.34,11.25Z" fill="#a7a9ac"/>
          <path d="m216.39,211.78c1.29-.16,2.33-.18,3.61-.66.33-.12.67-1.41.7-2.53.05-2.34-.16-2.14-1.13-5.85-.33-1.27-.6-2.48-1.05-3.96-.57-1.84-1.27-3.47-1.35-5.28l-6.86-.27-2.15-.1c-.64,1.87-1.23,3.32-1.17,4.49.06,1.22.2,2.41.38,3.94.79,6.86,6.65,10.51,9.01,10.21Z" fill="#111214" fill-rule="evenodd"/>
          <path d="m249.41,196.01c2.6.03,1.75-2.82-.44-4.38-4.6-3.26-7.76-5.41-9.91-8.41-1.07-1.51-1.26-2.84-2-5.43-3.86-.13-7.59-.35-11.44-.63-1.13,3.31-1.8,2.88-1.64,7.12.35,4.89,17.76,11.62,25.42,11.72Z" fill="#111214" fill-rule="evenodd"/>
          <g>
            <g>
              <path d="m222.73,107c-.43-3.49-.67-6.85-.55-9.89,3.12-1.25,6.4-2.43,9.56-3.81l-.23-.19c3.35-1.57,6.24-4.02,10.11-6.24,1.62,5.09,2.22,7.37,2.09,11.52-.16,5.4-.93,10.9-1.81,16.38-.56,8.39-1.32,17.15-1.86,22.88-1.39,14.62-1.22,29.04-2.09,43.63-2.1,1.56-10.55,3.15-13.53-1.02l-1.69-73.25Z" fill="#50546b"/>
              <path d="m209.64,96.67c.33-.68.72-1.23,1.17-1.64l9.04-.71,10.72-1.25c.71,3.51.97,8.1-.08,12.73-.03.13-.12.31-.24.53-.1.76-.24,1.52-.41,2.29-.16.7-1.88,2.67-3.12,4.32-1.11,11.25-3.27,26.88-4.53,34.86-2.28,14.5-.92,31.81-2.2,46.38-1.98,3.1-11.17,3.44-14.03-.42l3.67-97.09Z" fill="#50546b"/>
            </g>
            <g>
              <path d="m222.73,107c-.43-3.49-.67-6.85-.55-9.89,3.12-1.25,6.4-2.43,9.56-3.81l-.23-.19c3.35-1.57,6.24-4.02,10.11-6.24,1.62,5.09,2.22,7.37,2.09,11.52-.16,5.4-.93,10.9-1.81,16.38-.56,8.39-1.32,17.15-1.86,22.88-1.39,14.62-1.22,29.04-2.09,43.63-2.1,1.56-10.55,3.15-13.53-1.02l-1.69-73.25Z" fill="#50546b"/>
              <path d="m209.64,96.67c.33-.68.72-1.23,1.17-1.64l9.04-.71,10.72-1.25c.71,3.51.97,8.1-.08,12.73-.03.13-.12.31-.24.53-.1.76-.24,1.52-.41,2.29-.16.7-1.88,2.67-3.12,4.32-1.11,11.25-3.27,26.88-4.53,34.86-2.28,14.5-.92,31.81-2.2,46.38-1.98,3.1-11.17,3.44-14.03-.42l3.67-97.09Z" fill="#50546b"/>
            </g>
          </g>
          <path d="m234.5,26.4c3.61-.23,5.23.53,7.13,3.36,3.32,4.95,3.84,15.5,3.61,25.01-.13,5.38-.99,10.12-1.05,16.81-.08,8.02,2.36,22.14,1.97,30.62-.73,1.57-5.87,4.21-6.55,4.07.66-8.46.84-19.83.52-31.47-.32-11.3-1.11-22.86-3.22-31.44-3.1-12.59-8.43-13.95-7.89-15.65.11-.34,5.28-1.29,5.49-1.3Z" fill="#a7a9ac"/>
          <path d="m219.83,76.66c.14,1.95.19,3.73.15,5.37-5.19-4.73-10.06-10.78-14.61-17.32-2.33-6.56-4.44-13.13-4.4-17.79l18.86,29.75Z" fill="#11101a" fill-rule="evenodd"/>
          <path d="m241.73,87.24c-.04.25-.13.49-.3.71-3.32,4.62-24.11,11.58-28.47,11.22,3.45-30.03-28-55.6,5.7-65.5l9.7,5.34,3.47-.62.44-4.27c4.69,4.67,6.86,10.85,7.7,19.44,1.09,11.25-1.27,21.34,1.75,33.68Z" fill="#dadef0"/>
          <path d="m208.08,37.61c1.81-1,5.5-3.27,9.48-5.49-3.35,4.02,4.74,13.67,8.5,25.71,2.22,7.11,5.48,31.52-1.32,53.63-12.39,4.17-19.08-2.31-20.28-3.47,1.6-13.12,6.11-15.02,6.48-23.18.34-7.5-10.25-27.5-10.15-37.86.04-4.6,3.91-7.46,7.3-9.34Z" fill="#a7a9ac"/>
          <path d="m231.84,28.9c3.37,1.57,4.48,2.2,6.82,5.81l-2.05,1.42,2.85,1.2c1.02,10.45,2.1,22.07.85,32.66-.53-10.33-2.3-20.93-4.88-29.62-.99-3.33-2.36-4.76-4.54-8.03-.36-.54.32-3.75.95-3.45Z" fill="#c8b9c3"/>
          <path d="m217.58,30.83c-1.09,1.44-1.94,2.69-2.37,3.73-1.32,3.21-1.15,8.24.44,13.8l3.23-1.2-1.56,3.52c6.5,8.49,10.14,21.14,10.64,34.14,4.22-33.78-11.57-42.18-10.38-54Z" fill="#c8b9c3"/>
          <path d="m233.86,75.72c-.98-6.57-1.71-21.77-3.54-28.36.24-1.21.48-2.22.81-3.39-2.03-1.74-2.12-1.74-2.54-4.11,1.45-1.34,2.26-1.51,4.16-1.33.51.34.73,2.03,0,4.57.53.16,1.22.34,2.15.93,1.87,12.82,4.46,19.09,3.48,31.24l-1.29,2.84-3.22-2.38Z" fill="#3e4f5e" fill-rule="evenodd"/>
          <path d="m230.75,38.55c.24-.61.36-1.86.62-2.95.23-.98.59-1.8.81-2.3,1.33.17,1.92,4.2,3.05,6.57-1.75-1.22-2.51-1.33-4.48-1.32Z" fill="#e8f6ff" fill-rule="evenodd"/>
          <path d="m218.32,30.17c-.27,4.31,7.91,7.3,12.47,8.39-1.15,1.38-2.62,3.12-2.57,4.5-3.29-.9-8.87-2.45-11.13-6.66-1.55-2.88-.27-5.09,1.23-6.23Z" fill="#e8f6ff" fill-rule="evenodd"/>
          <path d="m231.63,34.73c.15-.42.32-.83.48-1.27.47-1.27.48-3.95,1.29-6.92l-11.71-5.1-2.51-1.33c.91,4.41.37,7.04-.88,10.17-.13,4.24,7.9,7.19,12.44,8.27.4-1.03.43-2.53.88-3.81Z" fill="#f1cfcd"/>
          <path d="m237.95,15.18c-.09-.49-.71-2.75-.83-3.22-1.47-5.46-5.09-9.76-11.77-9.86-3.44-.05-6.25,1.1-8.4,3.58-2.45,2.84-3.79,7.39-2.47,11.1.55,1.56,1.68,2.81,4.56,4.09,1.58,3.77,1.81,6.92,4.89,8.34,1.41.65,4.96,1.29,6.51,1.92,1.98.54,2.67.43,3.36.13,3.16-1.38,5.29-9.72,4.16-16.09Z" fill="#f1cfcd"/>
          <path d="m234.16,8.68c.74.03,1.62-.4,2.23,1.11-.44-2.48-1.19-2.71-2.72-2.94l.49,1.83Z" fill="#361d07" fill-rule="evenodd"/>
          <path d="m225.86,11.48c-4.68-.47-10.71-3.99-11.93-6.1-2.53,4.96-2.01,12.36,1.91,16.4,1.13,2.14,2.23,4.25,3.29,6.42.92-3.25,1.24-5.95,1.52-9.18l.2-.29c.27.56.94,1.95,1.19,2.52.29,0,.77-.43,1.19-.68-.82-4.32.34-7.5,2.63-9.1Z" fill="#361d07" fill-rule="evenodd"/>
          <path d="m225.23,11.77c4.92-.43,11.38-2.68,13.85-6.41-4.46.67-9.52-5.98-16.56-5.32-4.08.38-8.49,2.47-8.68,6.03,1.33,1.76,7.3,6.06,11.4,5.7Z" fill="#361d07" fill-rule="evenodd"/>
          <path d="m219.17,17.39c-2.64-.6-2.35,2.34-1.76,4.08.4,1.2,1.4,1,1.87,1.93.56,1.11,1.51,1.55,2.27,1.45,1.54-.2.35-2.41.07-3.3.02-1.52-.77-3.78-2.44-4.16Z" fill="#f1cfcd"/>
          <path d="m200.92,44.09c-2.66,7.27-3.05,22.11-2.46,31.78.3,4.92.88,8.74,4.81,9.86,3.72,1.07,6.97-2.74,7.72-6.63.89-4.61,1.5-10.29,2.77-20.01,1.35-10.37-9.29-24.72-12.85-15Z" fill="#a7a9ac"/>
          <g>
            <path d="m232.69,87.62l-1.48-2.25-.03-4.43c1.91-1.59,1.77-2.87,2.72-2.64,3.42.81,3.1,10.44-1.21,9.32Z" fill="#a7a9ac"/>
            <g>
              <path d="m232.18,78.78c4.89.45,11.02-2.01,13.77-.23,2.38,1.54,1.35,5.1.06,6.82-1.05,1.4-5.44,1.65-8.28,2.01-2.52.31-4.32-1.77-6.1-1.41-1.65-2.09-.24-4.96.55-7.18Z" fill="#f1cfcd"/>
              <path d="m244.86,78.16c2.32,0,6.05-.18,8.36-.22,1.63-.03,1.06,2.47-.42,2.64-1.45.17-5.27.5-5.28.5-1.51-.1-3.06-1.1-2.67-2.92Z" fill="#f1cfcd"/>
            </g>
            <path d="m199.49,79.45c1.09,2.52,1.14,4.38,3.78,5.81,1.13.61,2.62.8,4.31.98,6.48.7,15.9,1.57,25.31,1.44-.51-.85-1.09-3.21-.96-5.59.08-1.49.57-2.92,1.92-3.8-7.69-1.56-16.43-1.52-23.83-2.53-1.77-.24-1.36-.08-2.98-.12l-7.55,3.8Z" fill="#a7a9ac"/>
          </g>
          <polygon points="282.03 41.25 266.73 49.52 247.66 85.96 251.62 88.03 263.89 76.47 282.03 41.25" fill="#d2d6d9" fill-rule="evenodd"/>
          <polygon points="282.03 41.25 266.73 49.52 271.19 52.05 286.02 43.59 282.03 41.25" fill="#e3e6e8" fill-rule="evenodd"/>
          <polygon points="285.37 42.95 270.06 51.22 250.67 88.05 252.33 88.95 267.22 78.18 285.37 42.95" fill="#2f3133" fill-rule="evenodd"/>
          <path d="m273.32,66.54c2.62-.48,2.62-1.12,2.77-.23.23,1.3-1.58,6.11-4.09,7.94-.01.01-1.75.46-2.64.43-.75-.03-.7-.43-.3-1.47l1.79-4.64c.59-1.39.85-1.74,2.46-2.03Z" fill="#f1cfcd"/>
          <path d="m266.47,49.39c4.28-2.09,7.67-1.74,8.64.65,1.77,4.35-1.95,13.69-3.97,18.91l15.31-8.08c4.54-11.82,6.92-24.32-5.1-19.56l-14.88,8.08Z" fill="#f2f4f5" fill-rule="evenodd"/>
        </g>
      </g>
    </g>
  </g>
</svg>