<?xml version="1.0" encoding="utf-8"?>
<!-- Generator: Adobe Illustrator 27.1.1, SVG Export Plug-In . SVG Version: 6.00 Build 0)  -->
<svg version="1.1" id="_レイヤー_2" xmlns="http://www.w3.org/2000/svg" xmlns:xlink="http://www.w3.org/1999/xlink" x="0px"
	 y="0px" viewBox="0 0 1400 750" style="enable-background:new 0 0 1400 750;" xml:space="preserve">
<style type="text/css">
	.st0{fill:#003383;}
	.st1{fill:none;stroke:#FFFFFF;stroke-width:13.89;stroke-linecap:round;stroke-linejoin:round;}
	.st2{fill:#FFFFFF;}
	.st3{fill:#6373BC;}
	.st4{fill:#9EB1D0;}
	.st5{fill:#1B57B1;}
	.st6{fill:#1C7584;}
	.st7{fill:#FF6961;}
	.st8{fill:#68A2C7;}
	.st9{fill:#C81212;}
	.st10{fill:#FF848B;}
	.st11{fill:#7CB8B3;}
	.st12{fill:none;stroke:#FFFFFF;stroke-width:5.39;stroke-linecap:round;stroke-linejoin:round;}
	.st13{fill:#EA615D;}
	.st14{fill:#F8A3A0;}
	.st15{clip-path:url(#SVGID_00000023262541572086866320000010149486196736521143_);}
	.st16{fill:#FFD6A5;}
	.st17{fill:#000F3C;}
	.st18{fill:#ADADAD;}
	.st19{fill:#BFCCE0;}
	.st20{fill:#800900;}
	.st21{fill:none;stroke:#FFFFFF;stroke-width:0.78;stroke-miterlimit:10;}
	.st22{fill:none;stroke:#FFFFFF;stroke-width:0.54;stroke-miterlimit:10;}
	.st23{fill:#AEAEAE;}
	.st24{fill:none;stroke:#FFFFFF;stroke-width:0.87;stroke-miterlimit:10;}
	.st25{fill:none;stroke:#FFFFFF;stroke-width:0.61;stroke-miterlimit:10;}
	.st26{fill:#4299E0;}
	.st27{fill:#1F7E48;}
	.st28{fill:#FF5462;}
	.st29{fill:#63B2E0;}
	.st30{fill:#76B2AE;}
	.st31{fill:#1C8C95;}
	.st32{clip-path:url(#SVGID_00000067940905328974899160000012730092360296763056_);}
	.st33{fill:#5F958D;}
	.st34{fill:#7DB4A9;}
	.st35{fill:none;stroke:#C81212;stroke-width:3.28;stroke-linecap:round;stroke-linejoin:round;}
	.st36{fill:none;stroke:#800900;stroke-width:3.28;stroke-linecap:round;stroke-linejoin:round;}
</style>
<g id="_背景">
	<rect class="st0" width="1400" height="750"/>
	<g>
		<path class="st1" d="M464.9,290.5c-6.6-8.5-16.9-13.9-29-13.9c-22,0-41.4,17.9-43.4,39.9c-1.9,22,14.4,39.9,36.4,39.9
			c9.4,0,18.3-3.2,25.6-8.7"/>
		<line class="st1" x1="838.9" y1="276.6" x2="827.5" y2="356.4"/>
		<path class="st1" d="M840.1,276.6h25.3c11.7,0,21.2,9.5,21.2,21.2l0,0c0,11.7-9.5,21.2-21.2,21.2h-5.5l22.1,32.7"/>
		<line class="st1" x1="647.7" y1="276.6" x2="716.2" y2="276.6"/>
		<circle class="st2" cx="952" cy="317.5" r="9.6"/>
		<line class="st1" x1="684.2" y1="276.6" x2="672.8" y2="356.4"/>
		<polyline class="st1" points="595.8,276.6 584.5,353.9 631.6,353.9 		"/>
		<polyline class="st1" points="974.2,276.6 930.2,276.6 918.8,356.4 961.9,356.4 		"/>
		<path class="st1" d="M797,276.6l-8.4,58.7c-1.7,12-12,21-24.2,21l0,0c-14.9,0-26.3-13.2-24.2-27.9l7.4-51.8"/>
		<path class="st1" d="M554.3,276.6l-8.4,58.7c-1.7,12-12,21-24.2,21l0,0c-14.9,0-26.3-13.2-24.2-27.9l7.4-51.8"/>
	</g>
</g>
<g id="_デザイン">
	<g>
		<path class="st2" d="M640.1,413c-0.1,0.8-0.9,1.2-1.7,1.2s-1.4-0.4-1.3-1.2l1.5-8.7c-0.7,0.5-1.5,1-2.2,1.4
			c-0.3,0.2-0.7,0.3-1,0.3c-0.8,0-1.2-0.7-1.1-1.4c0.1-0.4,0.4-0.9,0.9-1.2c3-1.7,6-4.5,7.6-7c0.1-0.1,0.1-0.2,0.1-0.3
			c0-0.2-0.1-0.3-0.5-0.3h-5c-0.7,0-0.9-0.7-0.8-1.3c0.1-0.6,0.6-1.3,1.3-1.3h2.5l0.7-3.8c0.1-0.8,0.9-1.1,1.7-1.1s1.4,0.4,1.3,1.1
			l-0.7,3.8h0.8c1.6,0,2.4,0.7,2.1,2c-0.1,0.4-0.3,1-0.6,1.5c-0.9,1.4-2.1,2.9-3.5,4.3c1.1,0.5,2.2,1.3,2.9,1.9
			c0.4,0.4,0.5,0.8,0.5,1.2c-0.1,0.7-0.8,1.3-1.5,1.3c-0.3,0-0.6-0.1-0.9-0.4c-0.5-0.4-1-0.9-1.7-1.3L640.1,413L640.1,413z
			 M651.7,401.1h-4c-0.8,0-1.1-0.7-1-1.4c0.1-0.7,0.7-1.4,1.5-1.4h4l1.4-8.1c0.2-0.9,1-1.4,1.8-1.4s1.5,0.4,1.3,1.4l-1.4,8.1h4.5
			c0.8,0,1.1,0.7,1,1.4c-0.1,0.7-0.6,1.4-1.5,1.4h-4.5l-1.6,8.9h5.4c0.8,0,1.1,0.7,1,1.4c-0.1,0.7-0.6,1.4-1.5,1.4h-14.3
			c-0.8,0-1.1-0.7-1-1.4c0.1-0.7,0.7-1.4,1.5-1.4h5.8L651.7,401.1L651.7,401.1z"/>
		<path class="st2" d="M684.2,389.5c2.7,0,3.7,1.1,3.3,3.3l-0.5,3.1c-1,5.8-1.5,10.2-1.4,12.7c0,1.2,0.1,1.4,0.4,1.4
			c0.2,0,0.4-0.2,0.8-1.6c0.2-0.7,0.7-1,1.3-1c0.6,0,1.1,0.4,1,1c-0.2,0.9-0.7,2.4-1.2,3.2c-0.6,0.9-1.3,1.5-2.4,1.5
			c-1.5,0-2.4-1-2.6-3.9c-0.1-2.7,0.3-7.2,1.3-13.2l0.5-2.6c0.2-1-0.2-1.3-1.3-1.3H672c-1.2,0-1.6,0.3-1.8,1.3l-0.8,4.5
			c-1.2,6.7-3,11.4-5.4,14.7c-0.5,0.6-1.1,0.9-1.6,0.9c-0.8,0-1.3-0.6-1.2-1.4c0-0.2,0.2-0.5,0.4-0.8c2.2-3,3.8-7.1,5-13.6l0.8-4.8
			c0.4-2.2,1.8-3.3,4.5-3.3L684.2,389.5L684.2,389.5z M679.3,398.2c2.4,0,3,0.7,2.7,2.6l-0.4,2.2c-0.4,2.3-1.5,2.6-3.6,2.6h-1.5
			l-0.5,2.9c0.6-0.1,1.2-0.2,1.8-0.2l-0.3-0.5c-0.1-0.2-0.2-0.5-0.1-0.7c0.1-0.6,0.8-1.1,1.5-1.1c0.4,0,0.8,0.2,1.1,0.6
			c0.7,1.1,1.4,2.5,1.8,3.8c0.1,0.2,0.1,0.5,0.1,0.7c-0.1,0.7-0.9,1.2-1.6,1.2c-0.5,0-0.9-0.2-1.1-0.8c-0.1-0.3-0.2-0.7-0.4-1
			c-3,0.6-5.8,1-9.7,1.4c-0.2,0-1,0.1-1.2,0.1c-0.9,0-1.2-0.7-1.1-1.4c0.1-0.6,0.6-1.3,1.5-1.3c1.5-0.1,3.2-0.2,4.9-0.4l0.6-3.2
			h-1.4c-2.4,0-3-0.7-2.7-2.6l0.4-2.2c0.3-1.9,1.2-2.6,3.6-2.6h1.4l0.3-1.7c-1.2,0.1-3.2,0.3-3.6,0.3c-0.8,0-1.1-0.7-1-1.3
			c0.1-0.6,0.6-1.2,1.4-1.2c2.9-0.2,6.4-0.7,9.4-1.4c0.1,0,0.3-0.1,0.4-0.1c0.8,0,1.2,0.7,1.1,1.4c-0.1,0.5-0.5,1.1-1.4,1.3
			c-1.1,0.2-2.3,0.4-3.4,0.6l-0.4,2.1H679.3L679.3,398.2z M673.6,400.4c-0.6,0-0.8,0.1-0.9,0.6l-0.3,1.7c-0.1,0.5,0.2,0.6,0.7,0.6
			h1.2l0.5-3L673.6,400.4L673.6,400.4z M676.9,403.3h1.2c0.6,0,0.8-0.1,0.9-0.6l0.3-1.7c0.1-0.5,0-0.6-0.7-0.6h-1.2L676.9,403.3
			L676.9,403.3z"/>
		<path class="st2" d="M699.3,398.7c0.8-0.3,1.6-0.5,2.5-0.5c1.9,0,3.1,0.6,3.5,2.6c2.3-0.9,4.8-1.7,7.4-2.5
			c0.2-0.1,0.4-0.1,0.6-0.1c0.9,0,1.3,0.7,1.2,1.5c-0.1,0.6-0.5,1.2-1.4,1.4c-2.6,0.7-5.2,1.5-7.7,2.5c0,1-0.2,2.2-0.4,3.7
			c-0.1,0.9-1,1.4-1.8,1.4c-0.7,0-1.4-0.4-1.3-1.3c0.2-1,0.3-1.9,0.3-2.7c-3.2,1.5-4.1,2.7-4.2,3.7c-0.2,1.1,0.7,1.7,3.9,1.7
			c1.8,0,3.6-0.2,5.5-0.5c0.1,0,0.2,0,0.3,0c1,0,1.4,0.7,1.2,1.5c-0.1,0.7-0.7,1.3-1.7,1.5c-1.9,0.3-4,0.4-5.8,0.4
			c-5.3,0-7.2-1.7-6.8-4.4c0.4-2.2,2.1-4.3,7.5-6.8c-0.2-1-0.7-1.2-1.7-1.2s-3.2,0.7-6.2,2.8c-0.4,0.2-0.7,0.4-1.1,0.4
			c-0.8,0-1.4-0.7-1.2-1.5c0.1-0.4,0.3-0.8,0.9-1.2c2-1.5,3.9-3.3,5.7-5.4c-1.1,0.1-2.1,0.1-3,0.1c-1,0-1.4-0.7-1.3-1.4
			c0.1-0.7,0.8-1.4,1.8-1.4c1.3,0,2.9-0.1,4.5-0.2c0.7-1.1,1.3-2.2,1.8-3.2c0.3-0.7,1-1,1.6-1c0.8,0,1.5,0.5,1.3,1.3
			c0,0.1,0,0.3-0.1,0.4c-0.4,0.8-0.8,1.5-1.2,2.2c1.5-0.1,2.9-0.3,4.2-0.5c0.1,0,0.2,0,0.3,0c0.9,0,1.2,0.7,1.1,1.3
			c-0.1,0.6-0.6,1.2-1.5,1.4c-1.8,0.3-4,0.6-6.1,0.8C701,396.7,700.1,397.8,699.3,398.7L699.3,398.7L699.3,398.7z"/>
		<path class="st2" d="M729.3,392.6c0.8,0,1,0.6,0.9,1.2c-0.1,0.6-0.6,1.3-1.4,1.3h-2.5l-0.5,3c-0.1,0.4-0.2,0.9-0.3,1.4h3.5
			c0.8,0,1,0.7,0.9,1.3c-0.1,0.7-0.6,1.3-1.4,1.3h-3.7c-0.3,1.1-0.8,2.2-1.2,3.2c1.5,1.1,3,2.7,3.9,4c0.2,0.4,0.3,0.7,0.3,1.1
			c-0.1,0.8-1,1.5-1.8,1.5c-0.4,0-0.8-0.2-1.1-0.6c-0.6-1-1.7-2.3-2.7-3.3c-1.3,2-2.8,3.8-4.6,5.3c-0.5,0.4-0.9,0.5-1.3,0.5
			c-0.8,0-1.4-0.6-1.2-1.4c0.1-0.4,0.3-0.8,0.8-1.2c2.8-2.3,4.8-5.2,6.1-9.1h-4c-0.7,0-1-0.7-0.9-1.3c0.1-0.7,0.6-1.3,1.3-1.3h4.3
			c0.1-0.5,0.2-1.1,0.3-1.6l0.5-2.7H722c-0.3,0.6-0.7,1.1-1.1,1.6c-0.4,0.5-1,0.8-1.5,0.8c-0.8,0-1.4-0.5-1.3-1.3
			c0-0.2,0.1-0.5,0.4-0.7c1.3-1.6,2.5-3.8,3.4-5.9c0.3-0.7,0.9-1,1.5-1c0.7,0,1.4,0.5,1.3,1.3c0,0.1-0.1,0.2-0.1,0.4
			c-0.3,0.7-0.7,1.5-1.1,2.3L729.3,392.6L729.3,392.6z M732.5,412c-2.2,0-3-1.1-2.7-3l2.5-14c0.3-1.9,1.5-3,3.7-3h4.1
			c2.2,0,3,1.1,2.7,3l-2.5,14c-0.4,2.1-1.7,3-3.7,3H732.5z M736.4,409.3c0.6,0,0.9-0.2,1-0.8l2.3-12.8c0.1-0.6-0.1-0.8-0.7-0.8h-2.7
			c-0.6,0-0.9,0.2-1,0.8l-2.3,12.8c-0.1,0.6,0.1,0.8,0.7,0.8H736.4z"/>
		<path class="st2" d="M754.2,399.5c1.3-0.5,2.6-0.7,3.7-0.7c4.4,0,6.8,2.3,6.1,6.2c-0.8,4.8-4.9,7.9-10.4,7.9
			c-3.8,0-5.9-1.9-5.5-4.4c0.4-2.1,2-3.5,4.5-3.5c2.7,0,4.2,1.8,4.6,4.5c1.9-0.8,3.1-2.4,3.5-4.5c0.3-2-1-3.5-3.6-3.5
			c-2.8,0-5.7,1-9.7,3.6c-0.5,0.3-0.9,0.4-1.2,0.4c-0.9,0-1.4-0.7-1.3-1.5c0.1-0.4,0.4-0.9,0.9-1.3c3.7-2.5,7.9-6.1,11.1-9.3
			c-1.4,0.2-3.3,0.4-4.7,0.5c-0.1,0-0.8,0.1-1.2,0.1c-0.9,0-1.3-0.7-1.1-1.5c0.1-0.7,0.7-1.4,1.6-1.4c2.3-0.1,5.3-0.5,8.1-0.9
			c0.1,0,0.3,0,0.4,0c1.2,0,1.8,0.8,1.6,1.7c-0.1,0.4-0.3,0.9-0.7,1.3C758.8,395.2,756.3,397.6,754.2,399.5L754.2,399.5L754.2,399.5
			z M754.1,410.1c-0.2-1.8-0.8-2.7-2-2.7c-0.6,0-1.1,0.5-1.2,1.1c-0.2,0.9,0.8,1.6,3,1.6L754.1,410.1L754.1,410.1z"/>
	</g>
	<g>
		<path class="st3" d="M126.9,35.5h160.2c4,0,7.2,3.2,7.2,7.2v63.8c0,4-3.2,7.2-7.2,7.2H126.9c-4,0-7.2-3.2-7.2-7.2V42.8
			C119.7,38.8,122.9,35.5,126.9,35.5z"/>
		<polygon class="st3" points="223.9,105.3 190.1,105.3 207,125 		"/>
		<path class="st4" d="M194,63.7h-45.4c-2,0-3.6-1.6-3.6-3.6v0c0-2,1.6-3.6,3.6-3.6H194c2,0,3.6,1.6,3.6,3.6v0
			C197.6,62.1,195.9,63.7,194,63.7z"/>
		<path class="st4" d="M242.9,63.7h-37.6c-2,0-3.6-1.6-3.6-3.6v0c0-2,1.6-3.6,3.6-3.6h37.6c2,0,3.6,1.6,3.6,3.6v0
			C246.5,62.1,244.9,63.7,242.9,63.7z"/>
		<circle class="st4" cx="254.2" cy="60.1" r="3.6"/>
		<circle class="st4" cx="265.5" cy="60.1" r="3.6"/>
		<path class="st4" d="M182.5,92.9h-34c-2,0-3.6-1.6-3.6-3.6l0,0c0-2,1.6-3.6,3.6-3.6h34c2,0,3.6,1.6,3.6,3.6l0,0
			C186.1,91.3,184.5,92.9,182.5,92.9z"/>
		<path class="st4" d="M207.8,92.9h-13.2c-2,0-3.6-1.6-3.6-3.6l0,0c0-2,1.6-3.6,3.6-3.6h13.2c2,0,3.6,1.6,3.6,3.6l0,0
			C211.5,91.3,209.8,92.9,207.8,92.9z"/>
		<path class="st4" d="M229.1,92.9H220c-2,0-3.6-1.6-3.6-3.6l0,0c0-2,1.6-3.6,3.6-3.6h9.1c2,0,3.6,1.6,3.6,3.6l0,0
			C232.7,91.3,231.1,92.9,229.1,92.9z"/>
		<circle class="st4" cx="241.2" cy="89.3" r="3.6"/>
		<circle class="st4" cx="253.3" cy="89.3" r="3.6"/>
		<circle class="st4" cx="265.5" cy="89.3" r="3.6"/>
		<path class="st4" d="M178.3,78.3h-28.9c-2,0-3.6-1.6-3.6-3.6l0,0c0-2,1.6-3.6,3.6-3.6h28.9c2,0,3.6,1.6,3.6,3.6l0,0
			C181.9,76.7,180.3,78.3,178.3,78.3z"/>
		<circle class="st4" cx="190.7" cy="74.6" r="3.6"/>
		<circle class="st4" cx="203.1" cy="74.6" r="3.6"/>
		<circle class="st4" cx="215.4" cy="74.6" r="3.6"/>
	</g>
	<g>
		<path class="st5" d="M312.3,593.8h160.2c4,0,7.2,3.2,7.2,7.2v63.8c0,4-3.2,7.2-7.2,7.2H312.3c-4,0-7.2-3.2-7.2-7.2V601
			C305,597,308.3,593.8,312.3,593.8z"/>
		<polygon class="st5" points="409.3,663.5 375.4,663.5 392.4,683.2 		"/>
		<path class="st4" d="M379.3,621.9h-45.4c-2,0-3.6-1.6-3.6-3.6l0,0c0-2,1.6-3.6,3.6-3.6h45.4c2,0,3.6,1.6,3.6,3.6l0,0
			C382.9,620.3,381.3,621.9,379.3,621.9z"/>
		<path class="st4" d="M428.2,621.9h-37.6c-2,0-3.6-1.6-3.6-3.6l0,0c0-2,1.6-3.6,3.6-3.6h37.6c2,0,3.6,1.6,3.6,3.6l0,0
			C431.8,620.3,430.2,621.9,428.2,621.9z"/>
		<circle class="st4" cx="439.5" cy="618.3" r="3.6"/>
		<circle class="st4" cx="450.8" cy="618.3" r="3.6"/>
		<path class="st4" d="M367.9,651.2h-34c-2,0-3.6-1.6-3.6-3.6l0,0c0-2,1.6-3.6,3.6-3.6h34c2,0,3.6,1.6,3.6,3.6l0,0
			C371.5,649.5,369.9,651.2,367.9,651.2z"/>
		<path class="st4" d="M393.2,651.2H380c-2,0-3.6-1.6-3.6-3.6l0,0c0-2,1.6-3.6,3.6-3.6h13.2c2,0,3.6,1.6,3.6,3.6l0,0
			C396.8,649.5,395.2,651.2,393.2,651.2z"/>
		<path class="st4" d="M414.4,651.2h-9.1c-2,0-3.6-1.6-3.6-3.6l0,0c0-2,1.6-3.6,3.6-3.6h9.1c2,0,3.6,1.6,3.6,3.6l0,0
			C418,649.5,416.4,651.2,414.4,651.2z"/>
		<circle class="st4" cx="426.5" cy="647.5" r="3.6"/>
		<circle class="st4" cx="438.7" cy="647.5" r="3.6"/>
		<circle class="st4" cx="450.8" cy="647.5" r="3.6"/>
		<path class="st4" d="M363.6,636.5h-28.9c-2,0-3.6-1.6-3.6-3.6l0,0c0-2,1.6-3.6,3.6-3.6h28.9c2,0,3.6,1.6,3.6,3.6l0,0
			C367.2,634.9,365.6,636.5,363.6,636.5z"/>
		<circle class="st4" cx="376" cy="632.8" r="3.6"/>
		<circle class="st4" cx="388.4" cy="632.8" r="3.6"/>
		<circle class="st4" cx="400.8" cy="632.8" r="3.6"/>
	</g>
	<path class="st6" d="M437.7,148.9h129c3.7,0,6.7,3,6.7,6.7V215c0,3.7-3,6.7-6.7,6.7h-129c-3.7,0-6.7-3-6.7-6.7v-59.3
		C430.9,152,433.9,148.9,437.7,148.9z"/>
	<polygon class="st6" points="517.9,213.8 486.4,213.8 502.1,232.1 	"/>
	<g>
		<g>
			<g id="icon">
				<g id="_グループ_2151">
					<circle id="_楕円形_154" class="st7" cx="1274" cy="209.3" r="55.9"/>
				</g>
				<g id="_グループ_2151-2">
					<circle id="_楕円形_154-2" class="st7" cx="1274" cy="209.3" r="55.9"/>
				</g>
			</g>
			<path id="_パス_2317" class="st0" d="M1274,209.3l-0.4-55.9c-14.3,0.1-27.3,5.6-37.1,14.5L1274,209.3L1274,209.3z"/>
		</g>
		<circle class="st0" cx="1274" cy="209.3" r="34.2"/>
	</g>
	<path class="st8" d="M1193.1,312.2h170c4.2,0,7.7,3.4,7.7,7.7v67.7c0,4.2-3.4,7.7-7.7,7.7h-170c-4.2,0-7.7-3.4-7.7-7.7v-67.7
		C1185.5,315.6,1188.9,312.2,1193.1,312.2z"/>
	<polygon class="st8" points="1296.1,386.2 1260.2,386.2 1278.2,407.1 	"/>
	<g id="Group_2490">
		<rect id="Rectangle_366" x="518.2" y="638.5" class="st9" width="15.9" height="78.8"/>
		<rect id="Rectangle_367" x="552.2" y="671.8" class="st10" width="15.9" height="45.5"/>
		<rect id="Rectangle_368" x="586.1" y="644.2" class="st11" width="15.9" height="73"/>
	</g>
	<g id="Group_2490-2">
		<rect id="Rectangle_366-2" x="51.5" y="184.3" class="st9" width="11.9" height="26.1"/>
		<rect id="Rectangle_367-2" x="77" y="166.5" class="st10" width="11.9" height="43.9"/>
		<rect id="Rectangle_368-2" x="102.4" y="147.5" class="st11" width="11.9" height="62.9"/>
	</g>
	<g id="Group_2490-3">
		<rect id="Rectangle_366-3" x="1263.1" y="458.6" class="st9" width="13" height="72.9"/>
		<rect id="Rectangle_367-3" x="1290.9" y="483.4" class="st10" width="13" height="48"/>
		<rect id="Rectangle_368-3" x="1318.8" y="490" class="st11" width="13" height="41.4"/>
	</g>
	<g>
		<g>
			<g id="icon-2">
				<g id="_グループ_2151-3">
					<circle id="_楕円形_154-3" class="st9" cx="105" cy="541.6" r="91.3"/>
				</g>
			</g>
			<path id="_パス_2317-2" class="st0" d="M105,541.6l-0.7-91.3c-23.3,0.2-44.6,9.1-60.6,23.6L105,541.6L105,541.6z"/>
		</g>
		
			<ellipse transform="matrix(0.9998 -1.998802e-02 1.998802e-02 0.9998 -10.8043 2.2067)" class="st0" cx="105" cy="541.6" rx="55.8" ry="55.8"/>
	</g>
	<g>
		<line class="st12" x1="878.4" y1="665.2" x2="1060.3" y2="665.2"/>
		<line class="st12" x1="878.4" y1="686.8" x2="1060.3" y2="686.8"/>
		<line class="st12" x1="878.4" y1="708.4" x2="1060.3" y2="708.4"/>
		<circle class="st9" cx="926.3" cy="664.6" r="7.2"/>
		<circle class="st13" cx="949.5" cy="708.4" r="7.2"/>
		<circle class="st14" cx="1050.9" cy="686.8" r="7.2"/>
	</g>
	<g>
		<line class="st12" x1="176.4" y1="225.3" x2="358.4" y2="225.3"/>
		<line class="st12" x1="176.4" y1="246.8" x2="358.4" y2="246.8"/>
		<line class="st12" x1="176.4" y1="268.4" x2="358.4" y2="268.4"/>
		<circle class="st13" cx="224.4" cy="224.6" r="7.2"/>
		<circle class="st9" cx="247.6" cy="268.4" r="7.2"/>
		<circle class="st14" cx="349" cy="246.8" r="7.2"/>
	</g>
	<g>
		<defs>
			<rect id="SVGID_1_" x="339.5" width="190" height="133.9"/>
		</defs>
		<clipPath id="SVGID_00000113313143988719693090000006477725966155706012_">
			<use xlink:href="#SVGID_1_"  style="overflow:visible;"/>
		</clipPath>
		<g style="clip-path:url(#SVGID_00000113313143988719693090000006477725966155706012_);">
			<g>
				<circle class="st16" cx="435" cy="43.2" r="75.3"/>
				<path class="st0" d="M435-32.1c-41.6,0-75.3,33.7-75.3,75.3H435V-32.1z"/>
				<circle class="st0" cx="435" cy="43.2" r="43.9"/>
			</g>
		</g>
	</g>
	<g id="Group_4371">
		<g id="Group_4356">
			<g id="Group_4353">
				<path id="Path_3453" class="st17" d="M256.6,734c0,0-0.5-4.3-2.6-5.1c-2.1-0.8-6.8-1.6-7.1-5.1h-13.2V734L256.6,734L256.6,734z"
					/>
			</g>
		</g>
		<g id="Group_4360">
			<g id="Group_4357">
				<path id="Path_3456" class="st17" d="M210.2,730.7c0,0,2.2-3.8,1-5.7s-4.5-5.3-2.6-8.4l-10.5-7.9l-6.2,8.2L210.2,730.7
					L210.2,730.7z"/>
			</g>
		</g>
		<g id="Group_4361">
			<path id="Path_3459" class="st2" d="M260.2,657c0,0,0.9,4.4,3.8,5.7c2.9,1.2,4.6,5.3,4,7s-2.7,1.3-3.5,0.5
				c-0.8-0.7-3.2-3.5-4.2-1.3s-6.2-8-6.6-10L260.2,657L260.2,657z"/>
		</g>
		<g id="Group_4362">
			<path id="Path_3460" class="st18" d="M247.6,661.1l-6.4-36.7l-16.2-7.2l-20.1,41.7L247.6,661.1L247.6,661.1z"/>
		</g>
		<g id="Group_4363">
			<path id="Path_3461" class="st19" d="M238.4,645.4c0,0,4.9,10.8,6.5,12.5c1.6,1.8,9.1,10.2,9.1,10.2l11.4-11.1
				c0,0-12.9-19.8-13.5-20.4c-3.1-3.2-5.1-11.9-14.9-18.9"/>
		</g>
		<path id="Path_3462" class="st2" d="M245.1,661.3c0,0-2.6-38-4.7-40.5s-6.7-6.1-12.4-6.1s-22.5,5.9-23.6,28.8s2,20.9,2,20.9
			L245.1,661.3L245.1,661.3z"/>
		<g id="Group_4366">
			<g id="Group_4364">
				<path id="Ellipse_258" class="st2" d="M230.2,599.1c3.4,0,6.1,2.7,6.1,6.1s-2.7,8.4-6.1,8.4s-6.1-5-6.1-8.4
					S226.8,599.1,230.2,599.1z"/>
			</g>
		</g>
		<path id="Path_3464" class="st17" d="M230.3,680.3c0,0,7.3,15.8-1.2,25.2c-2.8,3.1-16.4,15.1-16.4,15.1l-17.1-13
			c0,0,20.8-26.8,24.2-28.6c3.4-1.8-2-8.2-2-8.2L230.3,680.3L230.3,680.3z"/>
		<g id="Group_4367">
			<path id="Path_3466" class="st19" d="M237,617.7c1.2,0.9,2.4,1.9,3.4,3.1c1.9,2.2,7,38.8,7,38.8l-0.4,2.6
				c-8.8-7-15.9-16.6-14.7-27.5C232.8,630.5,234.7,622.9,237,617.7L237,617.7z"/>
		</g>
		<path id="Path_3467" class="st17" d="M219.8,658.4l24.7,2.7l3.6,29.9l-30.3-12.7L219.8,658.4z"/>
		<path id="Path_3468" class="st17" d="M212.1,653.4c0,0-11.7,49.1,17.1,41.4l1.8,29h21.5v-20.6c0,0-0.1-3.8-1-12
			c-0.6-5.1-4.7-18.4-16.5-22C224.3,665.7,212.1,653.4,212.1,653.4L212.1,653.4z"/>
		<path id="Path_3469" class="st19" d="M203.1,643.5c0.8-17.9,12.1-25.3,19.4-27.7c10.4,8.8,19.7,39.5,13.6,53.7
			c-3.5,8-15,2.9-26.6,4.8c-2.6-4.3-4.3-8.8-4.9-11.8C204.4,661.9,202.6,655.2,203.1,643.5L203.1,643.5z"/>
		<path id="Path_3470" class="st19" d="M234,639.1c0,0-11.4,32.6,14.9,37.9l-2.9-34.4L234,639.1L234,639.1z"/>
		<g id="Group_4368">
			<path id="Path_3471" class="st9" d="M215.2,680.3V679c0-3-2.4-5.3-5.4-5.3h-11.4c-3,0-5.4,2.4-5.4,5.3v1.3H183v28.1h42.2v-28.1
				H215.2L215.2,680.3z M196.9,679c0-0.9,0.7-1.6,1.6-1.6h11.4c0.9,0,1.6,0.7,1.6,1.6v1.3h-14.6L196.9,679L196.9,679z"/>
			<rect id="Rectangle_1180" x="183.1" y="694.4" class="st20" width="42.2" height="14"/>
		</g>
		<g id="Group_4370">
			<g id="Group_4369">
				<path id="Path_3472" class="st2" d="M199.4,664.3c0,0,2,4.1,0.4,6.8s-1.3,7.5,1.8,8.2c1.8,0.4,3.8-3.4,4-4.5s0.6-1,1-1
					c2.4,0.3,0-10.1-0.9-11.9L199.4,664.3z"/>
			</g>
		</g>
		<path id="Path_3473" class="st19" d="M206.1,630.5c0,0-9.3,16.6-9.3,36.4l18.7,2.2l4.7-32.2L206.1,630.5z"/>
	</g>
	<g>
		<g id="Group_4437">
			<g id="Group_4436">
				<path id="Path_3519" class="st2" d="M57.8,349.9c0,0-4.4-3.6-8.2-2.6s-8.7-1.6-9.4-3.9c-0.7-2.2,1.7-3.6,3-3.3
					c2.6,0.6,3.7-1.9,6.2-2.6c5.9-1.7,11.2,3.7,13.2,5.4L57.8,349.9L57.8,349.9z"/>
			</g>
		</g>
		<g id="Group_2465">
			<path id="Ellipse_177" class="st2" d="M103.3,297.6c4.2,0,7.6,3.4,7.6,7.6s-3.4,10.2-7.6,10.2s-7.6-6-7.6-10.2
				S99.1,297.6,103.3,297.6z"/>
		</g>
		<g id="Group_2466">
			<path id="Path_2520" class="st2" d="M129.9,373.7l-7.5-43.5H84.1l-7.5,43.5H129.9L129.9,373.7z"/>
		</g>
		<path id="Path_2522" class="st19" d="M80.8,349.7L62,338.3l-8.4,14.7l28.2,16c0,0,13.4-35.3,13.8-35.6
			C97.5,335.6,88.7,324.2,80.8,349.7L80.8,349.7z"/>
		<g id="Group_2470">
			<path id="Path_2523" class="st17" d="M103.8,388l7.5,65.4h28.6l-9.9-79.8H76.6l-9.9,79.8h28.6l7.5-65.4H103.8L103.8,388z"/>
		</g>
		<g id="Group_2474">
			<g id="Group_2471">
				<path id="Path_2524" class="st17" d="M149.9,466.4c0,0-0.7-5.4-3.3-6.5c-2.6-1-12-2-12.4-6.5h-19.2v12.9L149.9,466.4
					L149.9,466.4z"/>
			</g>
		</g>
		<g id="Group_2478">
			<g id="Group_2475">
				<path id="Path_2527" class="st17" d="M56.1,466.4c0,0,0.7-5.4,3.3-6.5c2.6-1,12-2,12.4-6.5H91v12.9L56.1,466.4L56.1,466.4z"/>
			</g>
		</g>
		<g id="Group_2479">
			<path id="Path_2530" class="st20" d="M129.9,373.7l-1-6H77.7l-1,6H129.9L129.9,373.7z"/>
		</g>
		<path id="Path_2531" class="st2" d="M90.7,321.1c3.9-1.9,8.2-2.8,12.6-2.7c6.7,0.3,11.5,1.5,13.8,3.1l-2.6,44.7H96.8L90.7,321.1
			L90.7,321.1z"/>
		<path id="Path_2532" class="st19" d="M129,349.7c-6.6-21.5-8-28.7-18.1-30.4c-5.1,9.5-8.6,17.2-8.6,27.9c0,7.7-1.3,27.1,1.1,32.7
			c4.7,10.8,17,7.7,28.4,9.1l-0.5-4.4L129,349.7L129,349.7z"/>
		<path id="Path_2533" class="st19" d="M73.3,350.9c6.3-18.2,12.2-29.9,22.3-31.6c5.1,9.5,7.7,20.1,7.6,30.8
			c0,9.8,3.1,25.1-0.8,31.5c-5,8.2-18.1,6.2-27.8,7.3l2.5-28.7L73.3,350.9L73.3,350.9z"/>
		<g id="Group_2482">
			<path id="Path_2534" class="st19" d="M110.9,319.3c0,0,11.1,0.6,17.8,16.5c8.3,19.8,12.6,34.7,1.3,37.9
				c-11.4,3.2-15.4,4.7-15.4,4.7l-3.1-35.2l-0.6-9.7L110.9,319.3L110.9,319.3z"/>
			<path id="Path_2534-2" class="st19" d="M110.9,319.3c0,0,11.1,0.6,17.8,16.5c8.3,19.8,12.6,34.7,1.3,37.9
				c-11.4,3.2-15.4,4.7-15.4,4.7l-3.1-35.2l-0.6-9.7L110.9,319.3L110.9,319.3z"/>
		</g>
		<g id="Group_2483">
			
				<rect id="Rectangle_364" x="87.9" y="345.2" transform="matrix(0.2736 -0.9618 0.9618 0.2736 -266.6615 365.8231)" class="st9" width="41.9" height="28.4"/>
		</g>
		<g id="Group_2486">
			<g id="Group_2485">
				<path id="Path_2535" class="st2" d="M92.4,358c0.4,2.3,0.2,4,4.1,3.8s7.5,4.3,7.5,4.3l6.2-5.8c-1.6-2.1-9.7-9.7-13.9-8.3
					C94.2,352.2,92,355.8,92.4,358L92.4,358z"/>
			</g>
		</g>
		<path id="Path_2536" class="st19" d="M104.9,353.3L99,367.7c0,0,24.2,9.2,29.6,8.4c5.4-0.9,8.8-6.7,8.3-12.2
			S104.9,353.3,104.9,353.3L104.9,353.3z"/>
		<g>
			<path class="st9" d="M93.3,301.6c0-6.4,4.5-11.5,10-11.5s10,5.2,10,11.5H93.3L93.3,301.6z"/>
			<g>
				<line class="st21" x1="101.8" y1="298.8" x2="104.8" y2="298.8"/>
				<line class="st21" x1="103.3" y1="300.2" x2="103.3" y2="297.4"/>
			</g>
			<g>
				<line class="st22" x1="96.7" y1="299.6" x2="100.6" y2="299.6"/>
				<line class="st22" x1="96.7" y1="298.1" x2="100.6" y2="298.1"/>
				<g>
					<line class="st22" x1="106" y1="299.6" x2="109.9" y2="299.6"/>
					<line class="st22" x1="106" y1="298.1" x2="109.9" y2="298.1"/>
				</g>
			</g>
			<rect x="92.5" y="300.8" class="st9" width="21.7" height="1.9"/>
		</g>
	</g>
	<g>
		<g id="Group_2516">
			<g id="Group_2495">
				<g id="Group_2492">
					<path id="Path_2538" class="st17" d="M689.9,212.9v-14.8h19c0.5,5.1,7.2,6.2,10.2,7.4c3,1.2,3.8,7.4,3.8,7.4H689.9z"/>
				</g>
			</g>
			<g id="Group_2499">
				<g id="Group_2496">
					<path id="Path_2541" class="st17" d="M630.6,193v-11.6h14.8v19c-6.7,6.4,4.9,5.5,5,8.8c0.1,2.6,0.1,3.5,0.1,3.5
						s-12.9,1.7-16.4-3.5c-2.1-3.2-3.3-6.9-3.5-10.8L630.6,193L630.6,193z"/>
				</g>
			</g>
			<g id="Group_2500">
				<path id="Path_2544" class="st23" d="M642.4,137.6l29.1-60.3L695,87.6l9.2,53.1L642.4,137.6L642.4,137.6z"/>
			</g>
			<g id="Group_2502">
				<g id="Group_2501">
					<path id="Path_2545" class="st2" d="M727.2,109.5c2.5-1.6,18.3-6.2,17-3s1-0.9,2.6-0.8c1.6,0.1,3,3.5,1.8,5.9s-4.4,6.1-8.7,4.3
						s-8.4,2.4-8.4,2.4L727.2,109.5L727.2,109.5z"/>
				</g>
			</g>
			<g id="Group_2503">
				<path id="Path_2546" class="st19" d="M688.8,78.1c14.2,10.2,17.1,22.7,21.5,27.4c0.8,0.9,20.5-2.6,20.5-2.6l2.1,20.3
					c0,0-20.8,4-24,5.2c-3.2,1.2-18.1-10.3-18.1-10.3"/>
			</g>
			<path id="Path_2547" class="st2" d="M644.6,145.4c0,0-4.5,3-2.9-30.2s25.8-41.7,34.1-41.7c8.3,0,14.8,5.3,18,8.9
				c3.2,3.6,6.8,58.5,6.8,58.5L644.6,145.4L644.6,145.4z"/>
			<g id="Group_2506">
				<g id="Group_2504">
					<path id="Ellipse_180" class="st2" d="M670.2,57.9c0,4.8,3.9,12.6,8.8,12.6s8.8-7.8,8.8-12.6s-3.9-8.8-8.8-8.8
						S670.2,53,670.2,57.9z"/>
				</g>
			</g>
			<path id="Path_2549" class="st17" d="M664.6,167.8c0,0-0.8,9-5.7,11.6c-4.8,2.6-14.3,2-14.3,2v21.9c8.6,6.3,19.1,9.7,29.8,9.6
				c18.4,0,24.6-45.1,24.6-45.1L664.6,167.8L664.6,167.8z"/>
			<rect id="Rectangle_369" x="668" y="120.5" class="st19" width="32.6" height="20.5"/>
			<g id="Group_2507">
				<path id="Path_2550" class="st19" d="M703.3,142.3l0.5-3.8c0,0-7.3-52.9-10.1-56.1c-1.5-1.7-3.1-3.2-4.9-4.4
					C678.4,96.1,684.5,127.3,703.3,142.3L703.3,142.3z"/>
			</g>
			<path id="Path_2551" class="st17" d="M687.9,137.6c17.8,0,22.8,1.7,27.4,7.5c4.8,6,2.5,21.3,2.5,21.3l-4.5,31.7h-25.7v-24.4
				c-41.7,11.1-46-36.2-46-36.2L687.9,137.6L687.9,137.6z"/>
			<path id="Path_2552" class="st19" d="M642,142.7c1.5,6,3.9,11.8,7.1,17.1c46.3-7.7,42.5-64.6,18.8-84.6
				c-10.5,3.5-26.8,14.2-28,40.1C639.1,132.3,641.8,142,642,142.7L642,142.7z"/>
			<g id="Group_2512">
				<g id="Group_2509">
					<rect id="Rectangle_370" x="709.5" y="39.9" class="st13" width="29.7" height="29.7"/>
					<g id="Group_2508">
						<rect id="Rectangle_371" x="726.5" y="48.1" class="st9" width="4.4" height="4.4"/>
						<rect id="Rectangle_372" x="717.7" y="48.1" class="st9" width="4.4" height="4.4"/>
						<rect id="Rectangle_373" x="726.5" y="56.9" class="st9" width="4.4" height="4.4"/>
						<rect id="Rectangle_374" x="717.7" y="56.9" class="st9" width="4.4" height="4.4"/>
					</g>
				</g>
				<g id="Group_2511">
					<rect id="Rectangle_376" x="703" y="69.5" class="st9" width="42.8" height="42.8"/>
					<g id="Group_2510">
						<rect id="Rectangle_377" x="730.9" y="88.7" class="st13" width="4.4" height="4.4"/>
						<rect id="Rectangle_378" x="722.1" y="88.7" class="st13" width="4.4" height="4.4"/>
						<rect id="Rectangle_379" x="730.9" y="97.5" class="st13" width="4.4" height="4.4"/>
						<rect id="Rectangle_380" x="722.1" y="97.5" class="st13" width="4.4" height="4.4"/>
						<rect id="Rectangle_381" x="713.3" y="88.7" class="st13" width="4.4" height="4.4"/>
						<rect id="Rectangle_382" x="713.3" y="97.5" class="st13" width="4.4" height="4.4"/>
						<rect id="Rectangle_383" x="730.9" y="79.9" class="st13" width="4.4" height="4.4"/>
						<rect id="Rectangle_384" x="722.1" y="79.9" class="st13" width="4.4" height="4.4"/>
						<rect id="Rectangle_385" x="713.3" y="79.9" class="st13" width="4.4" height="4.4"/>
					</g>
				</g>
			</g>
			<g id="Group_2514">
				<g id="Group_2513">
					<path id="Path_2553" class="st2" d="M691,114.9c1.8-2.4,13.6-12.1,14.8-8.8c0.2,0.6,0.4,1.1,1.9,0.6s7.7-0.3,8.3,2.3
						c1.2,4.5-4.8,7.8-9.4,7.6c-4.6-0.2-8.6,5-8.6,5L691,114.9L691,114.9z"/>
				</g>
			</g>
			<g id="Group_2515">
				<path id="Path_2554" class="st19" d="M664.1,115.5c-0.6,6.3,3.3,13,9.5,14c6.2,1,30.4-6,30.4-6l-6.8-16.6
					C697.2,106.8,664.7,109.3,664.1,115.5L664.1,115.5z"/>
			</g>
		</g>
		<g>
			<path class="st9" d="M690.2,54c0-7.1-5-12.9-11.2-12.9s-11.2,5.8-11.2,12.9H690.2z"/>
			<g>
				<line class="st24" x1="680.7" y1="50.8" x2="677.4" y2="50.8"/>
				<line class="st24" x1="679" y1="52.4" x2="679" y2="49.3"/>
			</g>
			<g>
				<line class="st25" x1="686.4" y1="51.7" x2="682" y2="51.7"/>
				<line class="st25" x1="686.4" y1="50.1" x2="682" y2="50.1"/>
				<g>
					<line class="st25" x1="676" y1="51.7" x2="671.7" y2="51.7"/>
					<line class="st25" x1="676" y1="50.1" x2="671.7" y2="50.1"/>
				</g>
			</g>
			<rect x="666.9" y="53.1" class="st9" width="24.2" height="2.1"/>
		</g>
	</g>
	<g>
		<g>
			<g id="Group_4456">
				<g id="Group_4434">
					<path id="Ellipse_278" class="st2" d="M699.9,503.7c6.2,0,11.2,5,11.2,11.2s-5,15.4-11.2,15.4s-11.2-9.2-11.2-15.4
						S693.8,503.7,699.9,503.7z"/>
				</g>
				<g id="Group_4435">
					<path id="Path_3518" class="st2" d="M738.9,613.6l-11-63.6h-56l-11,63.6H738.9z"/>
				</g>
				<g id="Group_4442">
					<g id="Group_4437-2">
						<g id="Group_4436-2">
							<path id="Path_3519-2" class="st2" d="M639.2,561.7c0,0-3-7.8-8.7-9.2c-5.7-1.4-10-8.2-9.3-11.6c0.6-3.4,4.7-3.4,6.2-2.1
								c3,2.6,6,0.2,9.9,1c8.7,2,11.7,12.7,13.1,16.2L639.2,561.7L639.2,561.7z"/>
						</g>
					</g>
					<g id="Group_4437-3">
						<g id="Group_4436-3">
							<path id="Path_3519-3" class="st2" d="M768.3,578.4c0,0,6.2-5.6,11.9-4.3c5.7,1.3,12.6-2.9,13.6-6.2s-2.7-5.1-4.6-4.6
								c-3.8,1-5.4-2.5-9.3-3.5c-8.7-2.2-16.2,6-19,8.6L768.3,578.4L768.3,578.4z"/>
						</g>
					</g>
					<g id="Group_4438">
						<path id="Path_3520" class="st19" d="M669.7,570.5l-18.6-23.4l-15.4,14.1l32.7,45.5c0,0,19.6-51.6,20.1-52
							C691.2,557.9,681.2,533.2,669.7,570.5z"/>
					</g>
					<g id="Group_4441">
						<path id="Path_3522" class="st19" d="M732.9,578.5l27.5-16.7l12.3,21.5l-41.2,23.4c0,0-19.6-51.6-20.1-52
							C708.6,557.9,721.4,541.2,732.9,578.5L732.9,578.5z"/>
					</g>
				</g>
				<g id="Group_4443">
					<path id="Path_3523" class="st17" d="M700.6,634.6l10.9,95.7h41.9l-14.5-116.7h-78l-14.5,116.7h41.9l10.9-95.7L700.6,634.6
						L700.6,634.6z"/>
				</g>
				<g id="Group_4447">
					<g id="Group_4444">
						<path id="Path_3524" class="st17" d="M768.1,749.2c0,0-1-7.9-4.8-9.5c-3.8-1.5-17.5-2.9-18.1-9.5h-28.1v18.9L768.1,749.2
							L768.1,749.2z"/>
					</g>
				</g>
				<g id="Group_4451">
					<g id="Group_4448">
						<path id="Path_3527" class="st17" d="M630.9,749.2c0,0,1-7.9,4.8-9.5c3.8-1.5,17.5-2.9,18.1-9.5h28.1v18.9L630.9,749.2
							L630.9,749.2z"/>
					</g>
				</g>
				<path id="Path_3531" class="st2" d="M681.5,536.7c5.8-2.8,12.1-4.1,18.4-4c9.8,0.5,14.4,1.9,17.7,4.1l-1.3,65.8h-26L681.5,536.7
					L681.5,536.7z"/>
				<g id="Group_4455">
					<path id="Path_3534" class="st19" d="M743.8,580.2c-9.2-26.6-17.9-43.7-32.7-46.2c-7.4,13.9-11.1,45.1-11.1,45.1
						s-6.6,34,3.1,49.8c6.9,11.3,28.2,5.8,38.7,7l-3.7-41.9L743.8,580.2L743.8,580.2z"/>
				</g>
				<g id="Group_4455-2">
					<path id="Path_3534-2" class="st19" d="M655.9,580.2c9.2-26.6,17.9-43.7,32.7-46.2c7.4,13.9,11.1,45.1,11.1,45.1
						s6.6,34-3.1,49.8c-6.9,11.3-28.2,5.8-38.7,7l3.7-41.9L655.9,580.2L655.9,580.2z"/>
				</g>
			</g>
			<polygon class="st26" points="627.5,493.5 635,527.8 659.2,504.5 			"/>
			<polygon class="st9" points="688.5,447.4 669.3,447.4 659.7,464 669.3,480.6 688.5,480.6 698.1,464 			"/>
		</g>
		
			<rect x="723.9" y="458" transform="matrix(0.7071 -0.7071 0.7071 0.7071 -116.6719 657.659)" class="st27" width="23.3" height="23.3"/>
		<circle class="st28" cx="766.1" cy="509.8" r="16.2"/>
	</g>
	<g>
		<path class="st29" d="M240.4,433.7h181.4c4.5,0,8.2,3.7,8.2,8.2v72.3c0,4.5-3.7,8.2-8.2,8.2H240.4c-4.5,0-8.2-3.7-8.2-8.2v-72.3
			C232.2,437.4,235.9,433.7,240.4,433.7z"/>
		<polygon class="st29" points="350.3,512.7 311.9,512.7 331.1,534.9 		"/>
		<g>
			<rect x="250.5" y="451.9" class="st2" width="9.4" height="9.4"/>
			<rect x="389.1" y="451.9" class="st2" width="9.4" height="9.4"/>
			<polygon class="st2" points="403.7,451.9 403.7,461.4 413.1,461.4 			"/>
			<rect x="349.9" y="451.9" class="st2" width="9.4" height="9.4"/>
			<circle class="st2" cx="268.2" cy="456.6" r="4.7"/>
			<circle class="st2" cx="315.5" cy="456.6" r="4.7"/>
			<path class="st2" d="M302.4,461.4h-8.1c-2.6,0-4.7-2.1-4.7-4.7l0,0c0-2.6,2.1-4.7,4.7-4.7h8.1c2.6,0,4.7,2.1,4.7,4.7l0,0
				C307.1,459.3,305,461.4,302.4,461.4z"/>
			<polygon class="st2" points="276.5,461.4 286,461.4 281.2,451.9 			"/>
			<circle class="st2" cx="367.6" cy="456.6" r="4.7"/>
			<polygon class="st2" points="375.9,461.4 385.4,461.4 380.6,451.9 			"/>
			<polygon class="st2" points="323.8,461.4 333.2,461.4 328.5,451.9 			"/>
			<polygon class="st2" points="346.2,451.9 336.8,451.9 341.5,461.4 			"/>
		</g>
		<g>
			<polygon class="st2" points="325.9,492.7 325.9,502.2 335.3,502.2 			"/>
			<rect x="263.4" y="492.8" class="st2" width="9.4" height="9.4"/>
			<rect x="377.8" y="492.8" class="st2" width="9.4" height="9.4"/>
			<rect x="338.9" y="492.8" class="st2" width="9.4" height="9.4"/>
			
				<ellipse transform="matrix(0.9951 -9.853745e-02 9.853745e-02 0.9951 -47.7855 27.5652)" class="st2" cx="255.2" cy="497.5" rx="4.7" ry="4.7"/>
			<path class="st2" d="M317.6,502.3h-23.5c-2.6,0-4.7-2.1-4.7-4.7v0c0-2.6,2.1-4.7,4.7-4.7h23.5c2.6,0,4.7,2.1,4.7,4.7v0
				C322.4,500.1,320.2,502.3,317.6,502.3z"/>
			<polygon class="st2" points="276.4,492.8 285.8,492.8 281.1,502.3 			"/>
			<circle class="st2" cx="356.5" cy="497.5" r="4.7"/>
			<circle class="st2" cx="395.5" cy="497.5" r="4.7"/>
			<circle class="st2" cx="408.4" cy="497.5" r="4.7"/>
			<polygon class="st2" points="364.8,492.8 374.2,492.8 369.5,502.3 			"/>
		</g>
		<g>
			<rect x="340.2" y="472.3" class="st2" width="9.4" height="9.4"/>
			<rect x="313" y="472.3" class="st2" width="9.4" height="9.4"/>
			<rect x="299.4" y="472.3" class="st2" width="9.4" height="9.4"/>
			<circle class="st2" cx="290.4" cy="477" r="4.7"/>
			<path class="st2" d="M276.1,481.8h-20.9c-2.6,0-4.7-2.1-4.7-4.7l0,0c0-2.6,2.1-4.7,4.7-4.7h20.9c2.6,0,4.7,2.1,4.7,4.7l0,0
				C280.8,479.6,278.7,481.8,276.1,481.8z"/>
			<circle class="st2" cx="380.3" cy="477" r="4.7"/>
			<path class="st2" d="M366.7,481.8h-8.1c-2.6,0-4.7-2.1-4.7-4.7l0,0c0-2.6,2.1-4.7,4.7-4.7h8.1c2.6,0,4.7,2.1,4.7,4.7l0,0
				C371.4,479.6,369.3,481.8,366.7,481.8z"/>
			<polygon class="st2" points="398.6,481.8 398.6,472.3 389.1,477 			"/>
			<polygon class="st2" points="336,472.3 326.6,472.3 331.3,481.8 			"/>
		</g>
	</g>
	<g>
		<rect x="1213.1" y="333.5" class="st2" width="12.8" height="12.8"/>
		<circle class="st2" cx="1237.2" cy="339.9" r="6.4"/>
		<circle class="st2" cx="1301.4" cy="339.9" r="6.4"/>
		<path class="st2" d="M1283.7,346.3h-11.1c-3.5,0-6.4-2.9-6.4-6.4v0c0-3.5,2.9-6.4,6.4-6.4h11.1c3.5,0,6.4,2.9,6.4,6.4v0
			C1290.1,343.4,1287.2,346.3,1283.7,346.3z"/>
		<polygon class="st2" points="1248.5,346.3 1261.3,346.3 1254.9,333.5 		"/>
		<polygon class="st2" points="1312.7,346.3 1325.5,346.3 1319.1,333.5 		"/>
		<polygon class="st2" points="1330.4,333.5 1330.4,346.3 1343.2,339.9 		"/>
		<rect x="1295" y="361.2" class="st2" width="12.8" height="12.8"/>
		<rect x="1277.3" y="361.2" class="st2" width="12.8" height="12.8"/>
		<circle class="st2" cx="1248.3" cy="367.6" r="6.4"/>
		<circle class="st2" cx="1336.8" cy="367.6" r="6.4"/>
		<path class="st2" d="M1230.6,374h-11.1c-3.5,0-6.4-2.9-6.4-6.4v0c0-3.5,2.9-6.4,6.4-6.4h11.1c3.5,0,6.4,2.9,6.4,6.4v0
			C1237,371.1,1234.1,374,1230.6,374z"/>
		<polygon class="st2" points="1272.4,374 1272.4,361.2 1259.6,367.6 		"/>
		<polygon class="st2" points="1325.5,361.2 1312.7,361.2 1319.1,374 		"/>
	</g>
	<g>
		<path class="st30" d="M935.6,445.4h234.1c5.8,0,10.6,4.7,10.6,10.6v93.3c0,5.8-4.7,10.6-10.6,10.6H935.6
			c-5.8,0-10.6-4.7-10.6-10.6V456C925,450.1,929.8,445.4,935.6,445.4z"/>
		<polygon class="st30" points="1077.4,547.3 1027.9,547.3 1052.7,576.1 		"/>
		<g>
			<rect x="948.6" y="468.9" class="st2" width="12.2" height="12.2"/>
			<rect x="1127.6" y="468.9" class="st2" width="12.2" height="12.2"/>
			<polygon class="st2" points="1146.4,468.9 1146.4,481.1 1158.6,481.1 			"/>
			<rect x="1076.9" y="468.9" class="st2" width="12.2" height="12.2"/>
			<circle class="st2" cx="971.5" cy="475" r="6.1"/>
			<circle class="st2" cx="1032.5" cy="475" r="6.1"/>
			<path class="st2" d="M1015.7,481.1h-10.5c-3.4,0-6.1-2.7-6.1-6.1v0c0-3.4,2.7-6.1,6.1-6.1h10.5c3.4,0,6.1,2.7,6.1,6.1v0
				C1021.8,478.4,1019.1,481.1,1015.7,481.1z"/>
			<polygon class="st2" points="982.3,481.1 994.4,481.1 988.3,468.9 			"/>
			<circle class="st2" cx="1099.8" cy="475" r="6.1"/>
			<polygon class="st2" points="1110.6,481.1 1122.7,481.1 1116.6,468.9 			"/>
			<polygon class="st2" points="1043.2,481.1 1055.4,481.1 1049.3,468.9 			"/>
			<polygon class="st2" points="1072.3,468.9 1060.1,468.9 1066.2,481.1 			"/>
		</g>
		<g>
			<polygon class="st2" points="1046,521.6 1046,533.8 1058.2,533.8 			"/>
			<rect x="948.6" y="521.7" class="st2" width="12.2" height="12.2"/>
			<rect x="1112.9" y="521.7" class="st2" width="12.2" height="12.2"/>
			<rect x="1062.7" y="521.7" class="st2" width="12.2" height="12.2"/>
			<circle class="st2" cx="971.4" cy="527.8" r="6.1"/>
			<path class="st2" d="M1035.3,533.9h-30.4c-3.4,0-6.1-2.7-6.1-6.1v0c0-3.4,2.7-6.1,6.1-6.1h30.4c3.4,0,6.1,2.7,6.1,6.1v0
				C1041.4,531.2,1038.7,533.9,1035.3,533.9z"/>
			<polygon class="st2" points="982.1,521.7 994.3,521.7 988.2,533.9 			"/>
			<circle class="st2" cx="1085.5" cy="527.8" r="6.1"/>
			<circle class="st2" cx="1135.8" cy="527.8" r="6.1"/>
			<circle class="st2" cx="1152.5" cy="527.8" r="6.1"/>
			<polygon class="st2" points="1096.2,521.7 1108.4,521.7 1102.3,533.9 			"/>
		</g>
		<g>
			<rect x="1011.8" y="495.2" class="st2" width="12.2" height="12.2"/>
			<circle class="st2" cx="982.8" cy="501.3" r="6.1"/>
			<path class="st2" d="M965.2,507.4h-10.5c-3.4,0-6.1-2.7-6.1-6.1v0c0-3.4,2.7-6.1,6.1-6.1h10.5c3.4,0,6.1,2.7,6.1,6.1v0
				C971.3,504.7,968.6,507.4,965.2,507.4z"/>
			<polygon class="st2" points="1006.4,507.4 1006.4,495.2 994.2,501.3 			"/>
			<circle class="st2" cx="1116.2" cy="501.3" r="6.1"/>
			<path class="st2" d="M1098.6,507.4h-28.1c-3.4,0-6.1-2.7-6.1-6.1v0c0-3.4,2.7-6.1,6.1-6.1h28.1c3.4,0,6.1,2.7,6.1,6.1v0
				C1104.7,504.7,1102,507.4,1098.6,507.4z"/>
			<polygon class="st2" points="1139.8,507.4 1139.8,495.2 1127.6,501.3 			"/>
			<polygon class="st2" points="1059.1,495.2 1046.9,495.2 1053,507.4 			"/>
			<polygon class="st2" points="1030.2,507.4 1042.4,507.4 1036.3,495.2 			"/>
		</g>
	</g>
	<path class="st29" d="M854.5,45.4h230.3c5.8,0,10.4,4.7,10.4,10.4v91.8c0,5.8-4.7,10.4-10.4,10.4H854.5c-5.8,0-10.4-4.7-10.4-10.4
		V55.8C844.1,50.1,848.7,45.4,854.5,45.4z"/>
	<polygon class="st29" points="994,145.8 945.3,145.8 969.7,174 	"/>
	<g>
		<rect x="867.3" y="68.6" class="st2" width="12" height="12"/>
		<rect x="1043.4" y="68.6" class="st2" width="12" height="12"/>
		<polygon class="st2" points="1061.9,68.6 1061.9,80.6 1073.9,80.6 		"/>
		<rect x="993.5" y="68.6" class="st2" width="12" height="12"/>
		<circle class="st2" cx="889.8" cy="74.6" r="6"/>
		<circle class="st2" cx="949.8" cy="74.6" r="6"/>
		<path class="st2" d="M933.3,80.6h-10.3c-3.3,0-6-2.7-6-6v0c0-3.3,2.7-6,6-6h10.3c3.3,0,6,2.7,6,6v0
			C939.3,77.9,936.6,80.6,933.3,80.6z"/>
		<polygon class="st2" points="900.4,80.6 912.4,80.6 906.4,68.6 		"/>
		<circle class="st2" cx="1016" cy="74.6" r="6"/>
		<polygon class="st2" points="1026.6,80.6 1038.6,80.6 1032.6,68.6 		"/>
		<polygon class="st2" points="960.4,80.6 972.4,80.6 966.4,68.6 		"/>
		<polygon class="st2" points="988.9,68.6 976.9,68.6 982.9,80.6 		"/>
	</g>
	<g>
		<polygon class="st2" points="961.3,120.4 961.3,132.4 973.3,132.4 		"/>
		<polygon class="st2" points="961.3,120.4 961.3,132.4 949.3,132.4 		"/>
	</g>
	<rect x="867.3" y="120.6" class="st2" width="12" height="12"/>
	<rect x="1028.7" y="120.5" class="st2" width="12" height="12"/>
	<rect x="978.9" y="120.6" class="st2" width="12" height="12"/>
	<circle class="st2" cx="889.9" cy="126.5" r="6"/>
	<circle class="st2" cx="923.1" cy="126.5" r="6"/>
	<polygon class="st2" points="900.5,120.5 912.5,120.5 906.5,132.5 	"/>
	<circle class="st2" cx="1001.5" cy="126.5" r="6"/>
	<circle class="st2" cx="1051.3" cy="126.5" r="6"/>
	<polygon class="st2" points="1012.1,120.5 1024.1,120.5 1018.1,132.5 	"/>
	<polygon class="st2" points="1061.9,132.5 1061.9,120.5 1073.9,126.5 	"/>
	<polygon class="st2" points="933.7,120.5 945.7,120.5 939.7,132.5 	"/>
	<g>
		<rect x="981.2" y="94.5" class="st2" width="12" height="12"/>
		<rect x="946.7" y="94.5" class="st2" width="12" height="12"/>
		<rect x="929.4" y="94.5" class="st2" width="12" height="12"/>
		<circle class="st2" cx="900.9" cy="100.5" r="6"/>
		<path class="st2" d="M883.6,106.5h-10.3c-3.3,0-6-2.7-6-6v0c0-3.3,2.7-6,6-6h10.3c3.3,0,6,2.7,6,6v0
			C889.6,103.8,886.9,106.5,883.6,106.5z"/>
		<polygon class="st2" points="924.1,106.5 924.1,94.5 912.2,100.5 		"/>
		<circle class="st2" cx="1032.1" cy="100.5" r="6"/>
		<path class="st2" d="M1014.8,106.5h-10.3c-3.3,0-6-2.7-6-6v0c0-3.3,2.7-6,6-6h10.3c3.3,0,6,2.7,6,6v0
			C1020.8,103.8,1018.2,106.5,1014.8,106.5z"/>
		<polygon class="st2" points="1055.4,106.5 1055.4,94.5 1043.4,100.5 		"/>
		<polygon class="st2" points="976,94.5 964,94.5 970,106.5 		"/>
	</g>
	<g>
		<rect x="457.1" y="171" class="st31" width="10.8" height="10.8"/>
		<rect x="473" y="188.9" class="st31" width="10.8" height="10.8"/>
		<rect x="520.5" y="188.9" class="st31" width="10.8" height="10.8"/>
		<circle class="st31" cx="478.4" cy="176.4" r="5.4"/>
		<polygon class="st31" points="488.8,181.8 499.6,181.8 494.2,171 		"/>
		<rect x="504.7" y="171" class="st31" width="10.8" height="10.8"/>
		<circle class="st31" cx="525.9" cy="176.4" r="5.4"/>
		<polygon class="st31" points="536.4,171 536.4,181.8 547.2,176.4 		"/>
		<polygon class="st31" points="467.9,199.7 467.9,188.9 457.1,194.3 		"/>
		<polygon class="st31" points="536.4,199.7 547.2,199.7 541.8,188.9 		"/>
		<circle class="st31" cx="494.2" cy="194.3" r="5.4"/>
		<polygon class="st31" points="515.5,188.9 504.7,188.9 510.1,199.7 		"/>
	</g>
	<g>
		<defs>
			<rect id="SVGID_00000064354957166780771530000012172396214119887779_" x="1224.9" y="46.6" width="175.1" height="116.7"/>
		</defs>
		<clipPath id="SVGID_00000013877113026027957110000009784401133147547828_">
			<use xlink:href="#SVGID_00000064354957166780771530000012172396214119887779_"  style="overflow:visible;"/>
		</clipPath>
		<g style="clip-path:url(#SVGID_00000013877113026027957110000009784401133147547828_);">
			<g>
				<path class="st33" d="M1247.2,41.4h189.9c4.7,0,8.6,3.8,8.6,8.6v75.6c0,4.7-3.8,8.6-8.6,8.6h-189.9c-4.7,0-8.6-3.8-8.6-8.6V50
					C1238.6,45.3,1242.5,41.4,1247.2,41.4z"/>
				<polygon class="st33" points="1362.2,124.1 1322.1,124.1 1342.1,147.4 				"/>
				<g>
					<path class="st34" d="M1305.4,68.8H1260c-2,0-3.6-1.6-3.6-3.6l0,0c0-2,1.6-3.6,3.6-3.6h45.4c2,0,3.6,1.6,3.6,3.6l0,0
						C1309,67.2,1307.4,68.8,1305.4,68.8z"/>
					<path class="st34" d="M1354.3,68.8h-37.6c-2,0-3.6-1.6-3.6-3.6l0,0c0-2,1.6-3.6,3.6-3.6h37.6c2,0,3.6,1.6,3.6,3.6l0,0
						C1357.9,67.2,1356.3,68.8,1354.3,68.8z"/>
					<circle class="st34" cx="1365.6" cy="65.2" r="3.6"/>
					<circle class="st34" cx="1376.9" cy="65.2" r="3.6"/>
				</g>
				<g>
					<path class="st34" d="M1305.4,114.8H1260c-2,0-3.6-1.6-3.6-3.6v0c0-2,1.6-3.6,3.6-3.6h45.4c2,0,3.6,1.6,3.6,3.6v0
						C1309,113.1,1307.4,114.8,1305.4,114.8z"/>
					<path class="st34" d="M1329,114.8h-12.3c-2,0-3.6-1.6-3.6-3.6v0c0-2,1.6-3.6,3.6-3.6h12.3c2,0,3.6,1.6,3.6,3.6v0
						C1332.6,113.1,1331,114.8,1329,114.8z"/>
					<circle class="st34" cx="1340.3" cy="111.1" r="3.6"/>
					<circle class="st34" cx="1351.6" cy="111.1" r="3.6"/>
				</g>
				<g>
					<path class="st34" d="M1293.9,99.4H1260c-2,0-3.6-1.6-3.6-3.6l0,0c0-2,1.6-3.6,3.6-3.6h33.9c2,0,3.6,1.6,3.6,3.6l0,0
						C1297.6,97.8,1295.9,99.4,1293.9,99.4z"/>
					<path class="st34" d="M1319.3,99.4h-13.2c-2,0-3.6-1.6-3.6-3.6l0,0c0-2,1.6-3.6,3.6-3.6h13.2c2,0,3.6,1.6,3.6,3.6l0,0
						C1322.9,97.8,1321.3,99.4,1319.3,99.4z"/>
					<path class="st34" d="M1340.5,99.4h-9.1c-2,0-3.6-1.6-3.6-3.6l0,0c0-2,1.6-3.6,3.6-3.6h9.1c2,0,3.6,1.6,3.6,3.6l0,0
						C1344.1,97.8,1342.5,99.4,1340.5,99.4z"/>
					<circle class="st34" cx="1352.6" cy="95.8" r="3.6"/>
					<circle class="st34" cx="1364.8" cy="95.8" r="3.6"/>
					<circle class="st34" cx="1376.9" cy="95.8" r="3.6"/>
				</g>
				<g>
					<path class="st34" d="M1289.7,84.1h-28.9c-2,0-3.6-1.6-3.6-3.6v0c0-2,1.6-3.6,3.6-3.6h28.9c2,0,3.6,1.6,3.6,3.6v0
						C1293.3,82.5,1291.7,84.1,1289.7,84.1z"/>
					<circle class="st34" cx="1302.1" cy="80.5" r="3.6"/>
					<circle class="st34" cx="1314.5" cy="80.5" r="3.6"/>
					<circle class="st34" cx="1326.9" cy="80.5" r="3.6"/>
				</g>
			</g>
		</g>
	</g>
	<g id="Group_2516-2">
		<g id="Group_2495-2">
			<g id="Group_2492-2">
				<path id="Path_2538-2" class="st17" d="M1301.6,725.2v-12.4h-15.9c-0.4,4.3-6,5.2-8.6,6.2s-3.2,6.2-3.2,6.2H1301.6L1301.6,725.2
					z"/>
			</g>
		</g>
		<g id="Group_2499-2">
			<g id="Group_2496-2">
				<path id="Path_2541-2" class="st17" d="M1351.2,708.6v-9.7h-12.4v15.9c5.6,5.3-4.1,4.6-4.2,7.3c-0.1,2.2-0.1,2.9-0.1,2.9
					s10.8,1.4,13.7-2.9c1.8-2.7,2.8-5.8,2.9-9L1351.2,708.6L1351.2,708.6z"/>
			</g>
		</g>
		<g id="Group_2500-2">
			<path id="Path_2544-2" class="st23" d="M1341.3,662.3L1317,612l-19.6,8.7l-7.7,44.3L1341.3,662.3L1341.3,662.3z"/>
		</g>
		<g id="Group_2502-2">
			<g id="Group_2501-2">
				<path id="Path_2545-2" class="st2" d="M1270.5,638.9c-2.1-1.3-15.3-5.2-14.2-2.5c1.1,2.7-0.9-0.8-2.2-0.7
					c-1.3,0.1-2.5,2.9-1.5,4.9c1,2,3.7,5.1,7.2,3.6c3.5-1.5,7.1,2,7.1,2L1270.5,638.9L1270.5,638.9z"/>
			</g>
		</g>
		<g id="Group_2503-2">
			<path id="Path_2546-2" class="st19" d="M1302.5,612.6c-11.8,8.5-14.2,19-18,22.9c-0.7,0.7-17.2-2.1-17.2-2.1l-1.8,17
				c0,0,17.4,3.3,20,4.3s15.1-8.6,15.1-8.6"/>
		</g>
		<path id="Path_2547-2" class="st2" d="M1339.4,668.9c0,0,3.7,2.5,2.4-25.2c-1.3-27.7-21.5-34.8-28.5-34.8c-6.9,0-12.3,4.4-15,7.4
			c-2.6,3-5.7,48.9-5.7,48.9L1339.4,668.9z"/>
		<g id="Group_2506-2">
			<g id="Group_2504-2">
				<path id="Ellipse_180-2" class="st2" d="M1318.1,595.7c0,4-3.3,10.5-7.3,10.5s-7.3-6.5-7.3-10.5s3.3-7.3,7.3-7.3
					S1318.1,591.7,1318.1,595.7z"/>
			</g>
		</g>
		<path id="Path_2549-2" class="st17" d="M1322.8,687.6c0,0,0.7,7.5,4.8,9.7c4,2.1,11.9,1.7,11.9,1.7v18.3c-7.2,5.3-15.9,8.1-24.9,8
			c-15.4,0-20.5-37.7-20.5-37.7L1322.8,687.6L1322.8,687.6z"/>
		<rect id="Rectangle_369-2" x="1292.7" y="648" class="st19" width="27.3" height="17.1"/>
		<g id="Group_2507-2">
			<path id="Path_2550-2" class="st19" d="M1290.4,666.3l-0.4-3.2c0,0,6.1-44.2,8.4-46.8c1.2-1.4,2.6-2.6,4.1-3.7
				C1311.3,627.7,1306.1,653.7,1290.4,666.3z"/>
		</g>
		<path id="Path_2551-2" class="st17" d="M1303.3,662.3c-14.9,0-19,1.5-22.9,6.2c-4,5-2.1,17.8-2.1,17.8l3.7,26.5h21.4v-20.3
			c34.8,9.3,38.4-30.2,38.4-30.2L1303.3,662.3L1303.3,662.3z"/>
		<path id="Path_2552-2" class="st19" d="M1323.2,676.7c-25-13.6-20.4-51.8-3.1-66.5c8.8,3,22.4,11.8,23.4,33.5
			c0.6,14.2-1.6,22.3-1.7,22.9c-1.2,5-3.2,9.8-5.9,14.3C1330.9,680.1,1326.8,678.6,1323.2,676.7"/>
		<g id="Group_2512-2">
			<g id="Group_2509-2">
				<rect id="Rectangle_370-2" x="1260.5" y="580.7" class="st13" width="24.8" height="24.8"/>
				<g id="Group_2508-2">
					<rect id="Rectangle_371-2" x="1267.4" y="587.6" class="st9" width="3.7" height="3.7"/>
					<rect id="Rectangle_372-2" x="1274.7" y="587.6" class="st9" width="3.7" height="3.7"/>
					<rect id="Rectangle_373-2" x="1267.4" y="594.9" class="st9" width="3.7" height="3.7"/>
					<rect id="Rectangle_374-2" x="1274.7" y="594.9" class="st9" width="3.7" height="3.7"/>
				</g>
			</g>
			<g id="Group_2511-2">
				<rect id="Rectangle_376-2" x="1255" y="605.5" class="st9" width="35.7" height="35.7"/>
				<g id="Group_2510-2">
					<rect id="Rectangle_377-2" x="1263.7" y="621.5" class="st13" width="3.7" height="3.7"/>
					<rect id="Rectangle_378-2" x="1271.1" y="621.5" class="st13" width="3.7" height="3.7"/>
					<rect id="Rectangle_379-2" x="1263.7" y="628.8" class="st13" width="3.7" height="3.7"/>
					<rect id="Rectangle_380-2" x="1271.1" y="628.8" class="st13" width="3.7" height="3.7"/>
					<rect id="Rectangle_381-2" x="1278.4" y="621.5" class="st13" width="3.7" height="3.7"/>
					<rect id="Rectangle_382-2" x="1278.4" y="628.8" class="st13" width="3.7" height="3.7"/>
					<rect id="Rectangle_383-2" x="1263.7" y="614.1" class="st13" width="3.7" height="3.7"/>
					<rect id="Rectangle_384-2" x="1271.1" y="614.1" class="st13" width="3.7" height="3.7"/>
					<rect id="Rectangle_385-2" x="1278.4" y="614.1" class="st13" width="3.7" height="3.7"/>
				</g>
			</g>
		</g>
		<g id="Group_2514-2">
			<g id="Group_2513-2">
				<path id="Path_2553-2" class="st2" d="M1300.7,643.4c-1.5-2-11.4-10.1-12.4-7.4c-0.2,0.5-0.4,0.9-1.6,0.5
					c-1.3-0.4-6.4-0.2-7,1.9c-1,3.7,4.1,6.5,7.9,6.3s7.2,4.2,7.2,4.2L1300.7,643.4L1300.7,643.4z"/>
			</g>
		</g>
		<g id="Group_2515-2">
			<path id="Path_2554-2" class="st19" d="M1323.2,643.9c0.5,5.2-2.7,10.8-7.9,11.7c-5.2,0.8-25.4-5-25.4-5l5.7-13.9
				C1295.5,636.6,1322.7,638.6,1323.2,643.9L1323.2,643.9z"/>
		</g>
	</g>
	<g>
		<path class="st2" d="M1231.7,621.9c-6.5-2.4-0.5,2-7.3,3.2c-6.9,1.2-2.6-5-8-0.6c-5.4,4.4,1.5,1.4-0.9,8s-5.7-0.2-4.5,6.6
			c1.2,6.9,2-0.6,6.4,4.8c4.4,5.4-3.1,4.8,3.5,7.2s0.5-2,7.3-3.2c6.9-1.2,2.6,5,8,0.6s-1.5-1.4,0.9-8c2.4-6.5,5.7,0.2,4.5-6.6
			c-1.2-6.9-2,0.6-6.4-4.8C1230.7,623.7,1238.2,624.3,1231.7,621.9z M1228.8,629.6c3.8,1.4,5.7,5.6,4.3,9.4
			c-1.4,3.8-5.6,5.7-9.4,4.3c-3.8-1.4-5.7-5.6-4.3-9.4C1220.8,630.1,1225,628.2,1228.8,629.6z"/>
		<path class="st2" d="M1230.5,638c-0.9,2.3-3.4,3.5-5.8,2.6c-2.3-0.9-3.5-3.4-2.6-5.8c0.9-2.3,3.4-3.5,5.8-2.6
			C1230.2,633.1,1231.3,635.7,1230.5,638L1230.5,638z"/>
	</g>
	<g>
		<path class="st16" d="M1235,657.1c-0.7,0-1.4,0-2.1,0.1c-0.9,0.1-1.6,0.8-1.6,1.7v3.1c0,0.8-0.5,1.4-1.3,1.6
			c-0.3,0.1-0.6,0.1-0.9,0.2c-0.8,0.2-1.6-0.1-2-0.8l-1.5-2.7c-0.5-0.8-1.4-1.1-2.2-0.7c-1.8,0.8-3.4,1.7-4.9,2.8
			c-0.7,0.5-0.9,1.5-0.5,2.3l1.5,2.7c0.4,0.7,0.2,1.5-0.3,2.1c-0.2,0.2-0.5,0.5-0.7,0.7c-0.6,0.6-1.4,0.7-2.1,0.3l-2.7-1.5
			c-0.8-0.5-1.8-0.2-2.3,0.5c-1,1.5-2,3.1-2.8,4.9c-0.4,0.8-0.1,1.8,0.7,2.2l2.7,1.5c0.7,0.4,1.1,1.2,0.8,2
			c-0.1,0.3-0.2,0.6-0.2,0.9c-0.2,0.7-0.8,1.3-1.6,1.3h-3.1c-0.9,0-1.6,0.7-1.7,1.6c-0.1,0.9-0.1,1.9-0.1,2.8s0,1.9,0.1,2.8
			s0.8,1.6,1.7,1.6h3.1c0.8,0,1.4,0.5,1.6,1.3c0.1,0.3,0.1,0.6,0.2,0.9c0.2,0.8-0.1,1.6-0.8,2l-2.7,1.5c-0.8,0.5-1.1,1.4-0.7,2.2
			c0.8,1.8,1.7,3.4,2.8,4.9c0.5,0.7,1.5,0.9,2.3,0.5l2.7-1.5c0.7-0.4,1.5-0.2,2.1,0.3c0.2,0.2,0.5,0.5,0.7,0.7
			c0.6,0.6,0.7,1.4,0.3,2.1l-1.5,2.7c-0.5,0.8-0.2,1.8,0.5,2.3c1.5,1,3.1,2,4.9,2.8c0.8,0.4,1.8,0.1,2.2-0.7l1.5-2.7
			c0.4-0.7,1.2-1,2-0.8c0.3,0.1,0.6,0.2,0.9,0.2c0.7,0.2,1.3,0.8,1.3,1.6v3.1c0,0.9,0.7,1.6,1.6,1.7c0.9,0.1,1.9,0.1,2.8,0.1
			s1.9,0,2.8-0.1s1.6-0.8,1.6-1.7v-3.1c0-0.8,0.5-1.4,1.3-1.6c0.3-0.1,0.6-0.1,0.9-0.2c0.8-0.2,1.6,0.1,2,0.8l1.5,2.7
			c0.5,0.8,1.4,1.1,2.2,0.7c1.8-0.8,3.4-1.7,4.9-2.8c0.7-0.5,0.9-1.5,0.5-2.3l-1.5-2.7c-0.4-0.7-0.2-1.5,0.3-2.1
			c0.2-0.2,0.5-0.5,0.7-0.7c0.6-0.6,1.4-0.7,2.1-0.3l2.7,1.5c0.8,0.5,1.8,0.2,2.3-0.5c1-1.5,2-3.1,2.8-4.9c0.4-0.8,0.1-1.7-0.7-2.2
			l-2.7-1.5c-0.7-0.4-1.1-1.2-0.8-2c0.1-0.3,0.2-0.6,0.2-0.9c0.2-0.7,0.8-1.3,1.6-1.3h3.1c0.9,0,1.6-0.7,1.7-1.6
			c0.1-0.9,0.1-1.9,0.1-2.8s0-1.9-0.1-2.8s-0.8-1.6-1.7-1.6h-3.1c-0.8,0-1.4-0.5-1.6-1.3c-0.1-0.3-0.1-0.6-0.2-0.9
			c-0.2-0.8,0.1-1.6,0.8-2l2.7-1.5c0.8-0.5,1.1-1.4,0.7-2.2c-0.8-1.8-1.7-3.4-2.8-4.9c-0.5-0.7-1.5-0.9-2.3-0.5l-2.7,1.5
			c-0.7,0.4-1.5,0.2-2.1-0.3c-0.2-0.2-0.5-0.5-0.7-0.7c-0.6-0.6-0.7-1.4-0.3-2.1l1.5-2.7c0.5-0.8,0.2-1.8-0.5-2.3
			c-1.5-1-3.1-2-4.9-2.8c-0.8-0.4-1.7-0.1-2.2,0.7l-1.5,2.7c-0.4,0.7-1.2,1.1-2,0.8c-0.3-0.1-0.6-0.2-0.9-0.2
			c-0.7-0.2-1.3-0.8-1.3-1.6V659c0-0.9-0.7-1.6-1.6-1.7s-1.9-0.1-2.8-0.1C1235.5,657.1,1235.3,657.1,1235,657.1L1235,657.1
			L1235,657.1z M1235.7,667c11,0,19.9,8.9,19.9,19.9s-8.9,19.9-19.9,19.9s-19.9-8.9-19.9-19.9S1224.7,667,1235.7,667z"/>
		<path class="st16" d="M1235.7,674.1c-7.1,0-12.8,5.7-12.8,12.8s5.7,12.8,12.8,12.8s12.8-5.7,12.8-12.8S1242.8,674.1,1235.7,674.1z
			 M1235.5,680c0.1,0,0.1,0,0.2,0c3.8,0,6.9,3.1,6.9,6.9s-3.1,6.9-6.9,6.9s-6.9-3.1-6.9-6.9S1231.8,680.1,1235.5,680z"/>
	</g>
	<g>
		<g>
			<g id="Group_2465-2">
				<path id="Ellipse_177-2" class="st2" d="M1070.3,240c2.6,0,4.8,2.1,4.8,4.8c0,2.6-2.1,6.4-4.8,6.4c-2.6,0-4.8-3.8-4.8-6.4
					S1067.7,240,1070.3,240z"/>
			</g>
			<g id="Group_2466-2">
				<path id="Path_2520-2" class="st2" d="M1086.9,287.4l-4.7-27.1h-23.8l-4.7,27.1H1086.9L1086.9,287.4z"/>
			</g>
			<g id="Group_2470-2">
				<path id="Path_2523-2" class="st17" d="M1070.6,296.3l4.7,40.8h17.8l-6.2-49.7h-33.2l-6.2,49.7h17.8l4.7-40.8H1070.6
					L1070.6,296.3z"/>
			</g>
			<g id="Group_2474-2">
				<g id="Group_2471-2">
					<path id="Path_2524-2" class="st17" d="M1099.3,345.1c0,0-0.4-3.4-2.1-4s-7.5-1.2-7.7-4h-12v8L1099.3,345.1L1099.3,345.1z"/>
				</g>
			</g>
			<g id="Group_2478-2">
				<g id="Group_2475-2">
					<path id="Path_2527-2" class="st17" d="M1040.9,345.1c0,0,0.4-3.4,2.1-4s7.5-1.2,7.7-4h12v8L1040.9,345.1L1040.9,345.1z"/>
				</g>
			</g>
			<g id="Group_2479-2">
				<path id="Path_2530-2" class="st20" d="M1086.9,287.4l-0.7-3.7h-31.9l-0.7,3.7H1086.9L1086.9,287.4z"/>
			</g>
			<path id="Path_2531-2" class="st2" d="M1062.5,254.6c2.4-1.2,5.1-1.8,7.8-1.7c4.2,0.2,7.2,1,8.6,1.9l-1.6,27.8h-11.1
				L1062.5,254.6L1062.5,254.6z"/>
			<path id="Path_2532-2" class="st19" d="M1086.3,272.4c-4.1-13.4-5-17.9-11.3-19c-3.1,5.9-5.4,10.7-5.3,17.4
				c0,4.8-0.8,16.9,0.7,20.4c2.9,6.7,10.6,4.8,17.7,5.6l-0.3-2.7L1086.3,272.4L1086.3,272.4z"/>
			<path id="Path_2533-2" class="st19" d="M1051.3,270.4c3.9-11.3,8-15.8,14.2-16.9c3.1,5.9,4.8,12.5,4.7,19.2
				c0,6.1,1.9,15.7-0.5,19.6c-3.1,5.1-11.3,3.9-17.3,4.6l1.6-17.9L1051.3,270.4z"/>
			<g id="Group_2482-2">
				<path id="Path_2534-3" class="st19" d="M1075.1,253.5c0,0,6.9,0.4,11.1,10.3c5.2,12.3,7.9,21.6,0.8,23.6c-7.1,2-9.6,2.9-9.6,2.9
					l-1.9-21.9l-0.4-6.1V253.5z"/>
			</g>
			<g id="Group_2486-2">
				<g id="Group_2485-2">
					<path id="Path_2535-2" class="st2" d="M1105.7,268.8c-1.4-0.4-2.3-1-3.2,1.3s-4.4,3.1-4.4,3.1l1.7,5c1.6-0.3,8-2.9,8.4-5.6
						C1108.5,271.3,1107,269.1,1105.7,268.8L1105.7,268.8z"/>
				</g>
			</g>
			<path id="Path_2536-2" class="st19" d="M1102.5,278.3l-4.6-8.6c0,0-14,8-15.7,11c-1.7,2.9-0.2,6.9,2.6,8.8
				C1087.6,291.4,1102.5,278.3,1102.5,278.3L1102.5,278.3z"/>
		</g>
		<g>
			
				<rect x="1017.9" y="277.5" transform="matrix(0.7071 -0.7071 0.7071 0.7071 109.8279 841.4434)" class="st9" width="105.5" height="21.3"/>
			<polygon class="st2" points="1100.4,243.3 1117,241.8 1115.5,258.4 			"/>
			<polygon class="st9" points="1111.1,242.3 1116.5,247.7 1117,241.8 			"/>
			
				<rect x="1021.7" y="286.6" transform="matrix(0.7071 -0.7071 0.7071 0.7071 108.2718 845.2223)" class="st20" width="105.5" height="10.7"/>
		</g>
		<g id="Group_2486-3">
			<g id="Group_2485-3">
				<path id="Path_2535-3" class="st2" d="M1070.5,290.5c0.4-1.4,1-2.3-1.3-3.2c-2.3-1-3.1-4.4-3.1-4.4l-5.1,1.6
					c0.3,1.6,2.9,8,5.7,8.4C1068,293.3,1070.2,291.8,1070.5,290.5L1070.5,290.5z"/>
			</g>
		</g>
		<path id="Path_2536-3" class="st19" d="M1061.1,288.8l8.6-4.6c0,0-8-14-11-15.7c-2.9-1.7-9.2-1.2-7.5,6.2
			C1052.1,278.7,1061.1,288.9,1061.1,288.8L1061.1,288.8z"/>
	</g>
	<path class="st35" d="M1131.8,276c11.3,0,20.4-9.1,20.4-20.4s-9.2-20.4-20.4-20.4c-4.2,0-8.2,1.3-11.4,3.5"/>
	<path class="st36" d="M1131.8,276c11.3,0,20.4-9.1,20.4-20.4"/>
	<path class="st35" d="M1135.8,313.5c-9.4,6.2-22.1,3.6-28.3-5.8s-3.6-22.1,5.8-28.3c3.5-2.3,7.5-3.4,11.5-3.4"/>
	<path class="st36" d="M1135.8,313.5c-9.4,6.2-22.1,3.6-28.3-5.8"/>
</g>
</svg>
