<?xml version="1.0" encoding="UTF-8"?>
<svg id="_レイヤー_2" data-name="レイヤー 2" xmlns="http://www.w3.org/2000/svg" viewBox="0 0 54.71 474.92">
  <g id="_デザイン" data-name="デザイン">
    <g>
      <path d="m54.71,68.29c0,.4-.33.79-1.45.79H20.99c-3.7,0-11.95.13-17.88.73h-.07c-1.19,0-3.04-2.57-3.04-3.43,6.8.86,17.36,1.06,21.18,1.06h4.62v-2.71c0-2.57-.07-4.29-.59-6.4-.07-.2-.07-.33-.07-.4s0-.13.13-.13c.26,0,6.47.59,6.47,2.18,0,.4-.33.73-.79.99-1.78,1.12-2.11.79-2.11,2.97v3.5h15.18c.46,0,.92-.26,1.12-.59,2.57-3.63,2.97-3.83,3.5-3.83.13,0,.26,0,.4.07,1.65.59,5.68,4.09,5.68,5.21Zm-1.25,23.1c0,.79-.99,1.32-2.05,1.85-.92.46-.99.46-.99,2.24,0,8.45.07,9.31.26,12.41v.46c0,5.48-5.21,7.92-7.46,7.92-.2,0-.33-.13-.59-.46-.86-1.12-7.33-4.29-7.33-4.75,0-.07.07-.07.13-.07.13,0,.33,0,.59.07,2.84.66,5.08.99,6.73.99,3.37,0,4.49-1.45,4.55-4.62,0-2.77.07-4.75.07-6.67,0-2.31-.07-4.55-.26-8.18,0-.33-.33-.86-.73-.86H8.84l-.33.26c-.99.73-1.19,1.06-1.19,3.43,0,4.49-.2,14.25-.2,19.8,0,1.32-1.19,2.24-2.24,2.24-.73,0-1.39-.53-1.39-1.72v-.2c.46-6.93.73-13.07.73-17.09,0-6.2-.66-10.29-.86-11.02-.07-.2-.13-.4-.13-.46,0-.13.07-.2.13-.2.26,0,4.16,1.78,5.68,3.1l.13.13h36.76c.26,0,.59-.13.86-.53.13-.2,1.19-1.85,1.91-1.85.4,0,4.75,2.31,4.75,3.76Zm-11.02-15.9c0,.73-1.06,1.25-1.58,1.45-.92.33-1.06,1.06-1.06,1.91v.46c0,1.52.2,4.29.33,5.68v.07c0,.99-1.25,1.39-2.05,1.39-.73,0-1.39-.33-1.39-1.06v-.07c0-.26.07-.59.07-.92h-19.2c0,.53,0,.86.07,1.19v.13c0,.79-1.32,1.06-2.05,1.06s-1.45-.26-1.45-.92v-.13c.26-2.38.53-6.34.53-7.52,0-.66-.2-3.83-.73-5.41-.07-.2-.07-.26-.07-.33,0-.13.07-.2.13-.2,1.32,0,4.75,1.91,4.82,1.98l.26.13h16.17c.33,0,.66-.07.86-.26.4-.33.79-1.39,1.12-1.52.13-.07.26-.07.4-.07.26,0,.53,0,.92.13.2.07,3.89,1.65,3.89,2.84Zm-3.5,22.7c0,.66-.99.99-1.45,1.25-.86.4-1.06.59-1.06,2.38s.26,3.76.4,6.14v.07c0,.79-1.06,1.32-1.98,1.32-.66,0-1.25-.26-1.25-.92v-1.78h-13.92v2.05c0,1.25-.99,1.98-1.91,1.98-.73,0-1.39-.46-1.39-1.52v-.2c.26-2.97.4-6.67.4-9.24,0-.86-.07-2.9-.53-5.08-.07-.2-.07-.33-.07-.46,0-.07.07-.13.07-.13.26,0,3.04,1.19,4.75,2.38l.33.2h10.69c.33,0,.79-.07.99-.4.86-1.25,1.12-1.45,1.58-1.45.99,0,4.36,2.05,4.36,3.43Zm-2.24-21.91c0-.13-.33-.33-.59-.33h-17.36l-.26.13c-.99.53-1.06.53-1.06,3.76,0,.92.07,1.98.07,2.97h19.27c0-2.38,0-5.21-.07-6.53Zm-2.97,25.67c0-1.32-.07-2.44-.13-3.23,0-.07-.13-.53-.59-.53h-11.88c-.13.07-.26.13-.4.26-.86.59-1.19.79-1.19,2.51,0,.66.07,2.38.07,4.03h14.06c0-1.06.07-2.11.07-3.04Z" fill="#003383"/>
      <path d="m27.19,154.68c2.84.86,3.5,1.91,3.5,2.51,0,.53-.66,1.19-1.78,1.19-.2,0-1.72-.2-3.56-.92-1.32,1.98-7.72,9.7-12.67,9.7-3.23,0-5.21-3.37-5.21-7.39,0-4.49,2.38-10.03,7-14.78-.66-1.52-1.25-3.1-1.78-4.55-1.06-2.84-2.11-5.68-2.97-7.59-.13-.33-.2-.59-.2-.79,0-.33.13-.46.4-.46.53,0,2.38.73,3.7,3.3.99,1.91,1.91,4.88,3.17,7.98,4.09-3.37,9.44-5.61,14.78-5.94.07-.86.13-1.65.13-2.38,0-2.77-.59-4.69-1.72-5.54-.46-.33-1.91-.33-1.91-.79s1.32-1.25,2.24-1.25c.4,0,4.88.07,4.88,6.47,0,1.06-.13,2.31-.4,3.56,9.44.92,15.44,8.71,15.44,16.5,0,16.04-21.25,21.84-27.45,21.84-.73,0-1.19-.13-1.19-.26,0-.26.86-.66,2.64-1.12,11.28-2.64,22.44-10.62,22.44-20.99,0-7.06-5.35-12.93-12.34-13.99-1.32,4.95-3.96,10.76-7.13,15.71Zm-11.95-8.05c-3.63,3.96-5.61,8.05-5.61,11.55,0,2.11,1.25,5.94,3.89,5.94,2.11,0,6.6-2.84,9.83-7.66-3.7-2.18-6.2-5.81-8.12-9.83Zm2.18-2.18c1.78,3.96,4.09,7.72,7.59,9.44,3.5-5.68,5.41-10.89,6.2-15.05-4.82.13-9.77,2.11-13.79,5.61Z" fill="#003383"/>
      <path d="m35.57,204.84c9.44,0,15.9,6.86,15.9,14.98,0,2.77-.73,5.61-2.31,8.38-7.52,13-27.06,14.52-27.06,14.52-.53,0-.79-.07-.79-.2,0-.33,1.39-.99,3.76-1.58,13.13-3.37,22.9-11.81,22.9-21.32,0-6.93-5.35-12.6-13.07-12.8-.73,4.88-6.34,13-10.63,17.88.26,1.19.59,2.31.99,3.5.07.26.13.59.13.86,0,1.25-.79,2.31-1.72,2.31-1.52,0-2.05-3.3-2.11-3.7-4.16,4.16-8.84,7.52-12.41,7.52-4.03,0-4.16-3.7-4.16-4.36,0-6.01,8.78-16.5,16.7-21.65.33-3.1.66-6.14.99-8.71-1.52.46-3.96.59-5.15.59-7.19,0-7.66-4.95-7.66-5.87,0-.2.13-.2.26-.2s.4.07.53.13c2.97,1.85,5.02,3.3,8.38,3.3,1.06,0,2.24-.2,3.89-.53.33-3.89.4-4.69.4-5.48,0-2.84-.46-4.03-2.44-4.22-.66-.07-1.19-.2-1.19-.53,0-.2.86-1.45,2.38-1.45s4.42,1.58,4.42,4.22c0,1.12-.33,2.31-.53,3.7l-.4,2.97c2.38-.79,4.55-1.78,6.34-2.64.99-.46,2.05-1.52,2.84-1.85.46-.2.92-.26,1.32-.26,1.12,0,1.98.59,1.98,1.32,0,2.18-9.37,5.21-12.93,6.2-.46,2.64-.99,5.35-1.32,8.25,3.1-1.72,6.07-2.71,8.84-3.1,0-1.58-.73-2.18-1.32-2.57-.26-.2-.4-.4-.4-.59s.2-.33.59-.33c.2,0,2.9.13,3.37,3.3h.66Zm-14.52,15.77c0-2.97.2-6.14.46-9.31-8.45,6.07-13.4,13.73-13.4,18.08,0,1.25.73,2.38,2.24,2.38,2.97,0,7.99-4.16,10.82-7.19-.13-1.25-.13-2.57-.13-3.96Zm2.57-10.49c-.2,1.72-.26,3.5-.26,5.28,0,2.11.13,4.22.4,6.34,5.94-7.06,8.32-13.33,8.65-14.78-4.49.59-7.92,2.64-8.78,3.17Z" fill="#003383"/>
      <path d="m15.44,309.45c-.13,0-.2-.07-.2-.13,0-.26.92-.86,1.98-1.39,9.17-4.55,19.47-17.09,19.47-28.31,0-6.4-3.04-10.82-6.47-10.82-2.11,0-4.22,1.45-6.07,2.97-1.25,1.12-2.51,1.91-3.96,1.91-2.44,0-5.02-2.18-5.02-4.82,0-1.06.59-1.78.86-1.78s.4.4.46.53c.46,1.12,1.52,1.52,2.64,1.52,1.52,0,3.3-.66,4.55-1.12,1.98-.79,4.49-1.78,7-1.78,6.53,0,9.5,7.99,9.5,13.46,0,3.1-.66,6.27-1.91,9.37-6.27,15.9-21.78,20.39-22.83,20.39Zm16.17-51.61c-1.85.26-6.07,1.32-8.91,3.04-.33.2-.59.26-.86.26-.13,0-.26-.07-.26-.13,0-.13.2-.4.59-.73,1.45-1.25,3.43-2.84,3.96-3.3.4-.33.59-.66.59-.86s-.13-.33-.46-.46c-.46-.2-4.55-.46-6.67-3.5-.13-.2-.4-.59-.4-.86,0-.13.07-.2.2-.2.2,0,.59.13,1.19.46,1.85.99,6.53,1.65,8.32,1.65.59,0,1.19-.07,1.72-.07,1.25,0,4.03.73,4.03,2.9,0,1.25-1.52,1.58-3.04,1.78Z" fill="#003383"/>
      <path d="m50.82,337.31c0,.86-.99,1.52-2.24,1.52-.26,0-.46,0-.73-.07-2.77-.59-5.28-.86-8.05-.86-2.11,0-4.36.2-7,.46-.86.07-1.65.2-2.44.26-.73,21.25-20.46,27.85-25.34,27.85-.26,0-.4-.07-.4-.13,0-.13.66-.53,2.51-1.19,9.37-3.5,18.94-12.8,20-26.13-2.9.33-5.61.73-9.04,1.32-2.38.4-4.75,1.45-7.06,1.45-2.71,0-7.66-2.18-7.66-3.96v-.13c0-.86.2-1.12.53-1.12.53,0,1.25.59,1.85.73,2.64.73,4.49,1.06,6.6,1.06,2.44,0,11.55-1.25,14.85-1.72v-.4c0-3.04-.13-3.1-.4-6.07-.13-1.91-.79-2.77-1.52-3.23-4.88,1.52-10.49,2.64-15.38,2.64-2.57,0-2.77-.26-2.77-.4,0-.2.46-.4.92-.46,11.09-1.32,25.14-6.93,25.14-9.17,0-.53-.73-1.06-2.11-1.72-.4-.2-.53-.33-.53-.53s.86-.66,1.58-.66c1.91,0,5.54,2.38,5.54,4.29,0,2.57-2.71,2.24-4.55,3.1-1.45.66-3.17,1.39-5.08,2.05.4.2.79.33,1.06.59,1.12.92,1.45,1.65,1.45,2.24,0,.73-.46,1.25-.46,1.98v.13c.2,2.84.2,2.9.26,5.21,2.84-.4,5.54-.73,8.45-1.12,2.44-.33,3.23-.92,4.82-.92,1.45,0,7.19,1.06,7.19,3.1Z" fill="#003383"/>
      <path d="m25.41,415.91c.07-4.16.26-11.35.26-18.81,0-17.22-.66-18.21-2.77-18.94-.07-.07-.79-.33-.79-.79,0-.59,1.45-.86,1.52-.86,2.31,0,6.86,3.17,6.86,4.88,0,.99-.66,1.85-.92,2.51-.4.86-.66-1.39-.66,15.18,0,11.42,0,12.27.07,14.32,0,.73.07,1.39.07,2.05,0,1.39-.07,7.52-1.91,7.52-.86,0-1.72-2.05-1.72-6.53v-.53Z" fill="#003383"/>
      <path d="m47.32,470.69c0,1.52-.86,2.51-1.91,2.51-.79,0-1.78-.73-2.44-2.31-.53-1.39-1.19-2.84-2.05-4.22-7.26,2.57-17.03,5.54-24.68,7-.53.13-1.19.46-1.91.79-.53.26-1.19.46-1.91.46-1.85,0-5.21-2.9-5.21-5.35,0-1.12,1.12-2.38,1.65-2.38.4,0,.46.59.53.86.4,1.58,1.32,2.31,3.89,2.31h.99l.07-.13c8.45-17.29,10.69-26.53,10.69-29.24,0-1.98-.99-2.44-2.9-2.84-.2-.07-.66-.26-.66-.59,0-.79,1.85-1.45,2.57-1.45,1.91,0,6.67,2.24,6.67,4.82,0,1.85-1.91,3.7-2.97,6.34-3.43,8.32-8.65,18.15-11.68,22.9.26,0,.46-.07.73-.13,6.07-.86,16.5-2.9,23.43-4.49-1.85-2.9-4.16-5.74-6.6-8.05-.79-.73-1.19-1.25-1.19-1.52,0-.07.07-.13.2-.13,1.25,0,14.72,9.31,14.72,14.85Z" fill="#003383"/>
      <path d="m40.88,35H12.88V7h28v28Z" fill="none" stroke="#424d6f" stroke-miterlimit="10"/>
      <polygon points="15.88 15.96 26.79 22.16 46.88 0 27.35 29 15.88 15.96" fill="#003383"/>
    </g>
  </g>
</svg>