<?xml version="1.0" encoding="UTF-8"?>
<svg id="_レイヤー_2" data-name="レイヤー 2" xmlns="http://www.w3.org/2000/svg" viewBox="0 0 508.38 131.67">
  <g id="_背景" data-name="背景">
    <g>
      <path d="m37.11,79.9c-10.74,0-20.52-4.21-27.51-11.84C2.56,60.39-.79,50.22.16,39.43,2.06,17.69,21.3,0,43.06,0,54.83,0,65.57,5.16,72.51,14.16c2,2.59,1.52,6.31-1.07,8.31-2.59,2-6.31,1.52-8.31-1.07-4.69-6.07-12-9.55-20.07-9.55-15.77,0-29.72,12.84-31.1,28.61-.65,7.44,1.61,14.39,6.37,19.58,4.73,5.16,11.39,8,18.77,8,6.5,0,12.82-2.15,18.29-6.23,2.62-1.96,6.34-1.41,8.29,1.21,1.96,2.62,1.41,6.34-1.21,8.29-7.53,5.61-16.3,8.57-25.37,8.57Z" fill="#fff"/>
      <path d="m377.26,79.9c-.28,0-.56-.02-.84-.06-3.24-.46-5.49-3.46-5.03-6.7l9.71-68.04c.46-3.24,3.46-5.49,6.7-5.03,3.24.46,5.49,3.46,5.03,6.7l-9.71,68.04c-.42,2.96-2.96,5.09-5.86,5.09Z" fill="#fff"/>
      <path d="m423.86,75.95c-1.9,0-3.77-.91-4.91-2.61l-18.89-27.93c-1.23-1.82-1.35-4.16-.33-6.1s3.04-3.15,5.23-3.15h4.69c6.7,0,12.15-5.45,12.15-12.15s-5.45-12.15-12.15-12.15h-21.61c-3.27,0-5.93-2.65-5.93-5.93S384.77,0,388.05,0h21.61c13.24,0,24.01,10.77,24.01,24.01,0,11.18-7.68,20.6-18.04,23.26l13.15,19.44c1.83,2.71,1.12,6.39-1.59,8.23-1.02.69-2.17,1.02-3.31,1.02Z" fill="#fff"/>
      <path d="m282.27,11.85h-58.46c-3.27,0-5.93-2.65-5.93-5.93S220.54,0,223.81,0h58.46c3.27,0,5.93,2.65,5.93,5.93s-2.65,5.93-5.93,5.93Z" fill="#fff"/>
      <circle cx="483.54" cy="40.8" r="8.2" fill="#fff"/>
      <path d="m245.27,79.9c-.28,0-.56-.02-.84-.06-3.24-.46-5.49-3.46-5.03-6.7l9.71-68.04c.46-3.24,3.46-5.49,6.7-5.03,3.24.46,5.49,3.46,5.03,6.7l-9.71,68.04c-.42,2.96-2.96,5.09-5.86,5.09Z" fill="#fff"/>
      <path d="m210.07,77.74h-40.21c-1.72,0-3.36-.75-4.49-2.05-1.13-1.3-1.63-3.03-1.38-4.74l9.71-65.89c.48-3.24,3.49-5.48,6.73-5,3.24.48,5.48,3.49,5,6.73l-8.71,59.1h33.34c3.27,0,5.93,2.65,5.93,5.93s-2.65,5.93-5.93,5.93Z" fill="#fff"/>
      <path d="m491.97,79.9h-36.76c-1.72,0-3.35-.75-4.48-2.04-1.13-1.3-1.63-3.02-1.39-4.72l9.74-68.04C459.5,2.17,462,0,464.95,0h37.5c3.27,0,5.93,2.65,5.93,5.93s-2.65,5.93-5.93,5.93h-32.36l-8.05,56.19h29.93c3.27,0,5.93,2.65,5.93,5.93s-2.65,5.93-5.93,5.93Z" fill="#fff"/>
      <path d="m323.42,79.9c-7.77,0-15.16-3.37-20.25-9.24-5.09-5.87-7.39-13.66-6.29-21.35l6.31-44.21c.46-3.24,3.46-5.49,6.7-5.03,3.24.46,5.49,3.46,5.03,6.7l-6.31,44.21c-.61,4.29.67,8.64,3.51,11.91,2.84,3.28,6.96,5.16,11.3,5.16,7.39,0,13.76-5.52,14.8-12.84l7.15-50.12c.46-3.24,3.46-5.49,6.7-5.03,3.24.46,5.49,3.46,5.03,6.7l-7.15,50.12c-1.87,13.12-13.28,23.02-26.54,23.02Z" fill="#fff"/>
      <path d="m116.29,79.9c-7.77,0-15.16-3.37-20.25-9.24-5.09-5.87-7.39-13.66-6.29-21.35l6.31-44.21c.46-3.24,3.46-5.49,6.7-5.03,3.24.46,5.49,3.46,5.03,6.7l-6.31,44.21c-.61,4.29.67,8.64,3.51,11.91,2.84,3.28,6.96,5.16,11.3,5.16,7.39,0,13.76-5.52,14.8-12.84l7.15-50.12c.46-3.24,3.46-5.49,6.7-5.03,3.24.46,5.49,3.46,5.03,6.7l-7.15,50.12c-1.87,13.12-13.28,23.02-26.54,23.02Z" fill="#fff"/>
    </g>
  </g>
  <g id="_デザイン" data-name="デザイン">
    <g>
      <path d="m187.36,130.43c-.15.83-1,1.24-1.78,1.24s-1.52-.41-1.37-1.24l1.65-9.34c-.79.56-1.57,1.06-2.34,1.54-.37.24-.75.33-1.05.33-.81,0-1.31-.71-1.18-1.45.08-.47.41-.95,1.01-1.3,3.23-1.83,6.44-4.87,8.12-7.44.09-.15.13-.24.15-.33.04-.21-.13-.3-.49-.3h-5.34c-.75,0-.99-.71-.86-1.42.12-.68.6-1.39,1.35-1.39h2.7l.72-4.08c.15-.83.99-1.21,1.8-1.21s1.49.38,1.35,1.21l-.72,4.08h.87c1.71,0,2.53.77,2.29,2.13-.08.47-.3,1.03-.68,1.65-.93,1.54-2.23,3.1-3.72,4.58,1.16.59,2.36,1.39,3.12,2.07.44.38.57.83.5,1.24-.14.77-.91,1.42-1.66,1.42-.33,0-.64-.12-.92-.38-.52-.47-1.12-.95-1.8-1.39l-1.72,9.78Zm12.36-12.76h-4.32c-.87,0-1.18-.77-1.05-1.51.14-.77.72-1.51,1.59-1.51h4.32l1.53-8.66c.17-.97,1.1-1.45,1.94-1.45s1.6.47,1.42,1.45l-1.53,8.66h4.86c.9,0,1.19.74,1.05,1.51-.13.74-.69,1.51-1.59,1.51h-4.86l-1.69,9.57h5.79c.9,0,1.19.74,1.05,1.51-.13.74-.69,1.51-1.59,1.51h-15.33c-.87,0-1.18-.77-1.05-1.51.14-.77.72-1.51,1.59-1.51h6.18l1.69-9.57Z" fill="#fff"/>
      <path d="m234.59,105.2c2.85,0,3.93,1.21,3.51,3.57l-.58,3.28c-1.1,6.23-1.56,10.9-1.52,13.56.04,1.3.12,1.54.39,1.54.24,0,.46-.24.82-1.74.19-.71.78-1.03,1.35-1.03.63,0,1.16.38,1.04,1.09-.16.92-.69,2.57-1.33,3.49-.65.95-1.39,1.57-2.56,1.57-1.65,0-2.6-1.06-2.79-4.22-.15-2.9.3-7.68,1.44-14.12l.5-2.84c.2-1.12-.17-1.42-1.43-1.42h-11.91c-1.26,0-1.73.3-1.93,1.42l-.85,4.85c-1.27,7.21-3.24,12.26-5.83,15.72-.51.68-1.13.97-1.67.97-.81,0-1.44-.65-1.3-1.48.05-.27.19-.56.39-.86,2.33-3.19,4.07-7.62,5.31-14.62l.91-5.14c.42-2.36,1.95-3.57,4.83-3.57h13.23Zm-5.22,9.34c2.61,0,3.25.77,2.9,2.81l-.41,2.33c-.43,2.42-1.65,2.75-3.87,2.75h-1.62l-.55,3.1c.65-.09,1.3-.21,1.94-.27l-.29-.56c-.14-.24-.18-.5-.15-.71.11-.65.89-1.15,1.61-1.15.45,0,.87.18,1.15.62.75,1.18,1.47,2.72,1.95,4.08.1.27.12.5.08.71-.14.77-.95,1.33-1.7,1.33-.51,0-1-.27-1.2-.86-.12-.35-.26-.74-.41-1.09-3.17.62-6.26,1.12-10.35,1.51-.22.03-1.1.09-1.31.09-.93,0-1.31-.74-1.18-1.48.12-.68.66-1.36,1.57-1.42,1.61-.09,3.4-.24,5.27-.44l.61-3.46h-1.53c-2.61,0-3.27-.71-2.91-2.75l.41-2.33c.36-2.04,1.27-2.81,3.88-2.81h1.53l.32-1.83c-1.29.15-3.42.33-3.84.33-.87,0-1.23-.71-1.11-1.39.11-.62.64-1.24,1.52-1.3,3.12-.18,6.82-.74,10.04-1.48.13-.03.28-.06.4-.06.84,0,1.28.74,1.15,1.45-.1.59-.59,1.15-1.5,1.36-1.18.24-2.42.47-3.66.68l-.4,2.25h1.62Zm-6.21,2.36c-.66,0-.84.15-.92.65l-.33,1.86c-.1.59.19.65.7.65h1.23l.56-3.16h-1.23Zm3.61,3.16h1.32c.66,0,.84-.15.92-.65l.33-1.86c.09-.5-.04-.65-.7-.65h-1.32l-.56,3.16Z" fill="#fff"/>
      <path d="m250.79,115.1c.83-.3,1.74-.5,2.67-.5,2.07,0,3.31.62,3.71,2.81,2.51-.97,5.19-1.86,7.97-2.66.22-.06.44-.09.62-.09.99,0,1.42.8,1.28,1.6-.11.62-.58,1.27-1.47,1.51-2.75.77-5.57,1.65-8.27,2.66-.04,1.09-.21,2.39-.42,3.93-.15,1-1.11,1.54-1.98,1.54-.78,0-1.48-.44-1.35-1.36.17-1.12.27-2.07.35-2.87-3.4,1.57-4.35,2.9-4.54,3.99-.2,1.15.76,1.83,4.21,1.83,1.89,0,3.9-.18,5.91-.5.13-.03.25-.03.34-.03,1.02,0,1.48.8,1.33,1.62-.12.71-.73,1.42-1.78,1.6-2.01.35-4.25.47-6.23.47-5.67,0-7.74-1.86-7.23-4.76.42-2.36,2.23-4.64,8.03-7.27-.2-1.09-.79-1.33-1.87-1.33s-3.44.8-6.69,3.04c-.41.27-.79.38-1.15.38-.87,0-1.49-.74-1.34-1.57.08-.44.37-.89.92-1.3,2.18-1.62,4.22-3.55,6.09-5.76-1.19.09-2.27.12-3.27.15-1.08.03-1.51-.77-1.38-1.54.13-.74.81-1.51,1.92-1.51,1.41,0,3.11-.09,4.87-.21.72-1.18,1.37-2.33,1.92-3.43.37-.74,1.06-1.06,1.72-1.06.84,0,1.56.53,1.41,1.36-.03.15-.05.3-.14.44-.42.83-.85,1.6-1.31,2.33,1.59-.15,3.12-.35,4.45-.59.12-.03.25-.03.37-.03.93,0,1.31.71,1.19,1.42-.11.65-.65,1.33-1.58,1.48-1.95.32-4.25.65-6.51.86-.96,1.21-1.91,2.33-2.8,3.28l.05.06Z" fill="#fff"/>
      <path d="m282.92,108.63c.81,0,1.11.68,1,1.33-.12.68-.66,1.36-1.47,1.36h-2.73l-.56,3.16c-.08.47-.2.97-.29,1.45h3.75c.81,0,1.1.71.98,1.42-.12.71-.67,1.42-1.48,1.42h-3.99c-.36,1.18-.8,2.33-1.3,3.46,1.57,1.15,3.24,2.9,4.19,4.28.26.38.34.77.28,1.15-.15.86-1.06,1.57-1.9,1.57-.45,0-.86-.21-1.18-.65-.69-1.03-1.84-2.48-2.92-3.52-1.37,2.16-3.02,4.02-4.96,5.64-.49.41-.97.59-1.42.59-.87,0-1.47-.68-1.32-1.51.07-.38.33-.83.82-1.24,2.98-2.45,5.12-5.55,6.52-9.78h-4.32c-.78,0-1.07-.71-.95-1.42.12-.71.67-1.42,1.45-1.42h4.59c.1-.56.23-1.15.33-1.71l.51-2.9h-1.47c-.38.62-.78,1.21-1.21,1.74-.46.59-1.08.83-1.59.83-.81,0-1.49-.56-1.35-1.36.05-.27.15-.53.38-.8,1.35-1.71,2.69-4.02,3.6-6.29.31-.74.97-1.06,1.63-1.06.78,0,1.5.5,1.35,1.39-.02.12-.08.27-.13.41-.32.8-.71,1.62-1.15,2.45h6.3Zm3.46,20.71c-2.34,0-3.22-1.15-2.86-3.16l2.64-14.95c.35-2.01,1.64-3.16,3.98-3.16h4.44c2.37,0,3.22,1.15,2.86,3.16l-2.64,14.95c-.39,2.22-1.79,3.16-3.98,3.16h-4.44Zm4.17-2.9c.63,0,.94-.21,1.06-.89l2.42-13.71c.12-.68-.11-.89-.74-.89h-2.88c-.6,0-.94.21-1.06.89l-2.42,13.71c-.11.62.11.89.74.89h2.88Z" fill="#fff"/>
      <path d="m309.53,115.93c1.35-.5,2.74-.74,3.94-.74,4.68,0,7.3,2.51,6.57,6.62-.91,5.17-5.27,8.48-11.12,8.48-4.11,0-6.36-2.07-5.89-4.7.39-2.22,2.17-3.78,4.84-3.78,2.88,0,4.56,1.89,4.91,4.85,2.02-.89,3.37-2.6,3.76-4.82.37-2.1-1.01-3.78-3.89-3.78-3.03,0-6.15,1.03-10.34,3.84-.48.32-.95.47-1.34.47-.93,0-1.54-.77-1.39-1.62.08-.47.38-.97.99-1.39,3.95-2.66,8.51-6.59,11.9-9.99-1.51.24-3.5.44-5.02.56-.12,0-.92.09-1.31.09-.96,0-1.36-.8-1.22-1.6.13-.74.74-1.48,1.74-1.54,2.45-.12,5.7-.5,8.66-.95.16-.03.28-.03.43-.03,1.23,0,1.92.86,1.74,1.86-.08.44-.34.92-.78,1.39-2.17,2.25-4.9,4.82-7.21,6.68l.04.09Zm-.03,11.4c-.18-1.89-.9-2.9-2.16-2.9-.63,0-1.17.5-1.28,1.15-.17.97.83,1.74,3.2,1.74h.24Z" fill="#fff"/>
    </g>
  </g>
</svg>