<?xml version="1.0" encoding="utf-8"?>
<!-- Generator: Adobe Illustrator 27.1.1, SVG Export Plug-In . SVG Version: 6.00 Build 0)  -->
<svg version="1.1" id="_レイヤー_2" xmlns="http://www.w3.org/2000/svg" xmlns:xlink="http://www.w3.org/1999/xlink" x="0px"
	 y="0px" viewBox="0 0 750 800" style="enable-background:new 0 0 750 800;" xml:space="preserve">
<style type="text/css">
	.st0{fill:#003383;}
	.st1{fill:none;stroke:#FFFFFF;stroke-width:11.85;stroke-linecap:round;stroke-linejoin:round;}
	.st2{fill:#FFFFFF;}
	.st3{fill:#C81212;}
	.st4{fill:#FF848B;}
	.st5{fill:#7CB8B3;}
	.st6{fill:none;stroke:#FFFFFF;stroke-width:4.95;stroke-linecap:round;stroke-linejoin:round;}
	.st7{fill:#EA615D;}
	.st8{fill:#F8A3A0;}
	.st9{fill:#1B57B1;}
	.st10{fill:#9EB1D0;}
	.st11{fill:#000F3C;}
	.st12{fill:#AEAEAE;}
	.st13{fill:#BFCCE0;}
	.st14{fill:none;stroke:#FFFFFF;stroke-width:0.82;stroke-miterlimit:10;}
	.st15{fill:none;stroke:#FFFFFF;stroke-width:0.58;stroke-miterlimit:10;}
	.st16{fill:#4299E0;}
	.st17{fill:#1F7E48;}
	.st18{fill:#FF5462;}
	.st19{fill:#76B2AE;}
	.st20{fill:#63B2E0;}
	.st21{clip-path:url(#SVGID_00000080917532801064800660000005319903259954276027_);}
	.st22{fill:#5F958D;}
	.st23{fill:#7DB4A9;}
	.st24{fill:#800900;}
	.st25{fill:none;stroke:#C81212;stroke-width:2.66;stroke-linecap:round;stroke-linejoin:round;}
	.st26{fill:none;stroke:#800900;stroke-width:2.66;stroke-linecap:round;stroke-linejoin:round;}
	.st27{clip-path:url(#SVGID_00000163067174845017481160000014847510635407097020_);}
	.st28{fill:#1C7584;}
	.st29{fill:#1C8C95;}
	.st30{clip-path:url(#SVGID_00000076595707163514249800000014675618833605788063_);}
	.st31{fill:#FF6961;}
	.st32{clip-path:url(#SVGID_00000002350977332004900330000006822222459853946539_);}
	.st33{clip-path:url(#SVGID_00000172415579345646867260000008067047905833922450_);}
	.st34{fill:none;stroke:#FFFFFF;stroke-width:0.65;stroke-miterlimit:10;}
	.st35{fill:none;stroke:#FFFFFF;stroke-width:0.45;stroke-miterlimit:10;}
</style>
<g id="_背景">
	<rect class="st0" width="750" height="800"/>
	<g>
		<path class="st1" d="M188.6,327.4c-5.6-7.3-14.4-11.9-24.8-11.9c-18.8,0-35.4,15.2-37,34c-1.6,18.8,12.3,34,31.1,34
			c8,0,15.6-2.8,21.8-7.4"/>
		<line class="st1" x1="507.8" y1="315.5" x2="498.1" y2="383.5"/>
		<path class="st1" d="M508.9,315.5h21.6c10,0,18.1,8.1,18.1,18.1l0,0c0,10-8.1,18.1-18.1,18.1h-4.7l18.9,27.9"/>
		<line class="st1" x1="344.6" y1="315.5" x2="403.1" y2="315.5"/>
		<circle class="st2" cx="604.4" cy="350.4" r="8.2"/>
		<line class="st1" x1="375.8" y1="315.5" x2="366.1" y2="383.5"/>
		<polyline class="st1" points="300.4,315.5 290.7,381.4 330.9,381.4 		"/>
		<polyline class="st1" points="623.3,315.5 585.8,315.5 576,383.5 612.8,383.5 		"/>
		<path class="st1" d="M472.1,315.5l-7.2,50.1c-1.5,10.3-10.3,17.9-20.7,17.9l0,0c-12.7,0-22.5-11.2-20.7-23.8l6.3-44.2"/>
		<path class="st1" d="M264.9,315.5l-7.1,50.1c-1.5,10.3-10.3,17.9-20.7,17.9l0,0c-12.7,0-22.5-11.2-20.7-23.8l6.3-44.2"/>
	</g>
</g>
<g id="_デザイン">
	<g id="Group_2490">
		<rect id="Rectangle_366" x="174.1" y="687.3" class="st3" width="15.9" height="78.8"/>
		<rect id="Rectangle_367" x="208.1" y="720.7" class="st4" width="15.9" height="45.5"/>
		<rect id="Rectangle_368" x="242" y="693.1" class="st5" width="15.9" height="73"/>
	</g>
	<g id="Group_2490-2">
		<rect id="Rectangle_366-2" x="644.4" y="440.6" class="st3" width="13" height="72.8"/>
		<rect id="Rectangle_367-2" x="672.3" y="465.5" class="st4" width="13" height="48"/>
		<rect id="Rectangle_368-2" x="700.1" y="472" class="st5" width="13" height="41.4"/>
	</g>
	<g>
		<line class="st6" x1="496" y1="721" x2="663.1" y2="721"/>
		<line class="st6" x1="496" y1="740.9" x2="663.1" y2="740.9"/>
		<line class="st6" x1="496" y1="760.7" x2="663.1" y2="760.7"/>
		<circle class="st3" cx="540" cy="720.4" r="6.6"/>
		<circle class="st7" cx="561.3" cy="760.7" r="6.6"/>
		<circle class="st8" cx="654.5" cy="740.9" r="6.6"/>
	</g>
	<g>
		<path class="st9" d="M105.3,475h146.3c3.7,0,6.6,3,6.6,6.6v58.3c0,3.7-3,6.6-6.6,6.6H105.3c-3.7,0-6.6-3-6.6-6.6v-58.3
			C98.7,478,101.6,475,105.3,475z"/>
		<polygon class="st9" points="193.9,538.7 163,538.7 178.4,556.7 		"/>
		<path class="st10" d="M166.5,500.7H125c-1.8,0-3.3-1.5-3.3-3.3l0,0c0-1.8,1.5-3.3,3.3-3.3h41.5c1.8,0,3.3,1.5,3.3,3.3l0,0
			C169.8,499.2,168.3,500.7,166.5,500.7z"/>
		<path class="st10" d="M211.2,500.7h-34.3c-1.8,0-3.3-1.5-3.3-3.3l0,0c0-1.8,1.5-3.3,3.3-3.3h34.3c1.8,0,3.3,1.5,3.3,3.3l0,0
			C214.5,499.2,213,500.7,211.2,500.7z"/>
		<circle class="st10" cx="221.5" cy="497.4" r="3.3"/>
		<circle class="st10" cx="231.8" cy="497.4" r="3.3"/>
		<path class="st10" d="M156,527.5h-31c-1.8,0-3.3-1.5-3.3-3.3l0,0c0-1.8,1.5-3.3,3.3-3.3h31c1.8,0,3.3,1.5,3.3,3.3l0,0
			C159.3,526,157.9,527.5,156,527.5z"/>
		<path class="st10" d="M179.2,527.5h-12c-1.8,0-3.3-1.5-3.3-3.3l0,0c0-1.8,1.5-3.3,3.3-3.3h12c1.8,0,3.3,1.5,3.3,3.3l0,0
			C182.5,526,181,527.5,179.2,527.5z"/>
		<path class="st10" d="M198.6,527.5h-8.3c-1.8,0-3.3-1.5-3.3-3.3l0,0c0-1.8,1.5-3.3,3.3-3.3h8.3c1.8,0,3.3,1.5,3.3,3.3l0,0
			C201.9,526,200.4,527.5,198.6,527.5z"/>
		<circle class="st10" cx="209.7" cy="524.2" r="3.3"/>
		<circle class="st10" cx="220.8" cy="524.2" r="3.3"/>
		<circle class="st10" cx="231.8" cy="524.2" r="3.3"/>
		<path class="st10" d="M152.2,514.1h-26.4c-1.8,0-3.3-1.5-3.3-3.3v0c0-1.8,1.5-3.3,3.3-3.3h26.4c1.8,0,3.3,1.5,3.3,3.3v0
			C155.5,512.6,154,514.1,152.2,514.1z"/>
		<circle class="st10" cx="163.5" cy="510.7" r="3.3"/>
		<circle class="st10" cx="174.8" cy="510.7" r="3.3"/>
		<circle class="st10" cx="186.1" cy="510.7" r="3.3"/>
	</g>
	<g>
		<g id="Group_2516">
			<g id="Group_2495">
				<g id="Group_2492">
					<path id="Path_2538" class="st11" d="M202.6,194.7v-14.1h18.1c0.4,4.9,6.9,5.9,9.7,7c2.9,1.1,3.6,7,3.6,7L202.6,194.7
						L202.6,194.7z"/>
				</g>
			</g>
			<g id="Group_2499">
				<g id="Group_2496">
					<path id="Path_2541" class="st11" d="M146.3,175.8v-11h14.1v18.1c-6.4,6.1,4.6,5.2,4.8,8.3c0.1,2.5,0.1,3.3,0.1,3.3
						s-12.2,1.6-15.6-3.3c-2-3.1-3.2-6.6-3.3-10.2L146.3,175.8L146.3,175.8z"/>
				</g>
			</g>
			<g id="Group_2500">
				<path id="Path_2544" class="st12" d="M157.5,123.2l27.7-57.3l22.3,9.9l8.7,50.4L157.5,123.2z"/>
			</g>
			<g id="Group_2502">
				<g id="Group_2501">
					<path id="Path_2545" class="st2" d="M238.1,96.5c2.4-1.5,17.4-5.9,16.2-2.8s1-0.9,2.5-0.8c1.5,0.1,2.9,3.3,1.7,5.6
						c-1.1,2.3-4.2,5.8-8.2,4.1s-8,2.2-8,2.2L238.1,96.5L238.1,96.5z"/>
				</g>
			</g>
			<g id="Group_2503">
				<path id="Path_2546" class="st13" d="M201.6,66.6c13.4,9.7,16.2,21.6,20.5,26c0.8,0.8,19.5-2.4,19.5-2.4l2,19.3
					c0,0-19.8,3.8-22.8,4.9s-17.2-9.8-17.2-9.8"/>
			</g>
			<path id="Path_2547" class="st2" d="M159.6,130.6c0,0-4.2,2.9-2.8-28.7c1.5-31.5,24.5-39.6,32.4-39.6c7.9,0,14.1,5,17.1,8.4
				c3,3.4,6.5,55.6,6.5,55.6L159.6,130.6L159.6,130.6z"/>
			<g id="Group_2506">
				<g id="Group_2504">
					<path id="Ellipse_180" class="st2" d="M183.9,47.4c0,4.6,3.7,12,8.3,12c4.6,0,8.3-7.4,8.3-12s-3.7-8.3-8.3-8.3
						S183.9,42.8,183.9,47.4L183.9,47.4z"/>
				</g>
			</g>
			<path id="Path_2549" class="st11" d="M178.6,151.9c0,0-0.8,8.5-5.4,11c-4.6,2.4-13.6,1.9-13.6,1.9v20.8c8.2,6,18.1,9.2,28.3,9.1
				c17.5,0,23.4-42.8,23.4-42.8L178.6,151.9L178.6,151.9z"/>
			<rect id="Rectangle_369" x="181.8" y="106.9" class="st13" width="31" height="19.5"/>
			<g id="Group_2507">
				<path id="Path_2550" class="st13" d="M215.3,127.7l0.5-3.6c0,0-6.9-50.2-9.6-53.2c-1.4-1.6-3-3-4.7-4.2
					C191.6,83.8,197.5,113.4,215.3,127.7L215.3,127.7z"/>
			</g>
			<path id="Path_2551" class="st11" d="M200.7,123.2c16.9,0,21.7,1.7,26,7.1c4.6,5.7,2.3,20.2,2.3,20.2l-4.2,30.1h-24.4v-23.1
				c-39.6,10.5-43.7-34.4-43.7-34.4L200.7,123.2L200.7,123.2z"/>
			<path id="Path_2552" class="st13" d="M157,128c1.4,5.7,3.7,11.2,6.8,16.2c43.9-7.3,40.4-61.3,17.8-80.3
				c-10,3.3-25.5,13.4-26.6,38C154.4,118.2,156.9,127.3,157,128L157,128z"/>
			<g id="Group_2512">
				<g id="Group_2509">
					<rect id="Rectangle_370" x="221.2" y="30.3" class="st7" width="28.2" height="28.2"/>
					<g id="Group_2508">
						<rect id="Rectangle_371" x="237.4" y="38.2" class="st3" width="4.2" height="4.2"/>
						<rect id="Rectangle_372" x="229" y="38.2" class="st3" width="4.2" height="4.2"/>
						<rect id="Rectangle_373" x="237.4" y="46.5" class="st3" width="4.2" height="4.2"/>
						<rect id="Rectangle_374" x="229" y="46.5" class="st3" width="4.2" height="4.2"/>
					</g>
				</g>
				<g id="Group_2511">
					<rect id="Rectangle_376" x="215" y="58.5" class="st3" width="40.6" height="40.6"/>
					<g id="Group_2510">
						<rect id="Rectangle_377" x="241.6" y="76.7" class="st7" width="4.2" height="4.2"/>
						<rect id="Rectangle_378" x="233.2" y="76.7" class="st7" width="4.2" height="4.2"/>
						<rect id="Rectangle_379" x="241.6" y="85.1" class="st7" width="4.2" height="4.2"/>
						<rect id="Rectangle_380" x="233.2" y="85.1" class="st7" width="4.2" height="4.2"/>
						<rect id="Rectangle_381" x="224.9" y="76.7" class="st7" width="4.2" height="4.2"/>
						<rect id="Rectangle_382" x="224.9" y="85.1" class="st7" width="4.2" height="4.2"/>
						<rect id="Rectangle_383" x="241.6" y="68.4" class="st7" width="4.2" height="4.2"/>
						<rect id="Rectangle_384" x="233.2" y="68.4" class="st7" width="4.2" height="4.2"/>
						<rect id="Rectangle_385" x="224.9" y="68.4" class="st7" width="4.2" height="4.2"/>
					</g>
				</g>
			</g>
			<g id="Group_2514">
				<g id="Group_2513">
					<path id="Path_2553" class="st2" d="M203.7,101.6c1.7-2.2,13-11.5,14.1-8.4c0.2,0.5,0.4,1,1.8,0.6s7.3-0.3,7.9,2.2
						c1.1,4.3-4.6,7.4-9,7.2c-4.4-0.2-8.1,4.7-8.1,4.7L203.7,101.6L203.7,101.6z"/>
				</g>
			</g>
			<g id="Group_2515">
				<path id="Path_2554" class="st13" d="M178.1,102.2c-0.6,6,3.1,12.3,9,13.3s28.9-5.7,28.9-5.7L209.5,94
					C209.5,94,178.6,96.3,178.1,102.2z"/>
			</g>
		</g>
		<g>
			<path class="st3" d="M202.9,43.8c0-6.8-4.8-12.3-10.6-12.3s-10.6,5.5-10.6,12.3H202.9z"/>
			<g>
				<line class="st14" x1="193.8" y1="40.8" x2="190.7" y2="40.8"/>
				<line class="st14" x1="192.2" y1="42.2" x2="192.2" y2="39.3"/>
			</g>
			<g>
				<line class="st15" x1="199.2" y1="41.6" x2="195.1" y2="41.6"/>
				<line class="st15" x1="199.2" y1="40.1" x2="195.1" y2="40.1"/>
				<g>
					<line class="st15" x1="189.4" y1="41.6" x2="185.3" y2="41.6"/>
					<line class="st15" x1="189.4" y1="40.1" x2="185.3" y2="40.1"/>
				</g>
			</g>
			<rect x="180.8" y="42.9" class="st3" width="23" height="2"/>
		</g>
	</g>
	<g>
		<g>
			<g id="Group_4456">
				<g id="Group_4434">
					<path id="Ellipse_278" class="st2" d="M367.4,550.5c6.2,0,11.2,5,11.2,11.2s-5,15.4-11.2,15.4s-11.2-9.2-11.2-15.4
						S361.3,550.5,367.4,550.5z"/>
				</g>
				<g id="Group_4435">
					<path id="Path_3518" class="st2" d="M406.4,660.4l-11-63.6h-56l-11,63.6H406.4z"/>
				</g>
				<g id="Group_4442">
					<g id="Group_4437">
						<g id="Group_4436">
							<path id="Path_3519" class="st2" d="M306.7,608.5c0,0-3-7.8-8.7-9.2c-5.7-1.4-10-8.2-9.3-11.6s4.7-3.4,6.2-2.1
								c3,2.6,6,0.2,9.9,1c8.7,2,11.7,12.7,13.1,16.2L306.7,608.5z"/>
						</g>
					</g>
					<g id="Group_4437-2">
						<g id="Group_4436-2">
							<path id="Path_3519-2" class="st2" d="M435.8,625.1c0,0,6.2-5.6,11.9-4.3c5.7,1.3,12.6-2.9,13.6-6.2s-2.7-5.1-4.6-4.6
								c-3.8,1-5.4-2.5-9.3-3.5c-8.7-2.2-16.2,6-19,8.6L435.8,625.1L435.8,625.1z"/>
						</g>
					</g>
					<g id="Group_4438">
						<path id="Path_3520" class="st13" d="M337.2,617.3l-18.6-23.4L303.2,608l32.7,45.5c0,0,19.6-51.6,20.1-52
							C358.8,604.6,348.7,580,337.2,617.3z"/>
					</g>
					<g id="Group_4441">
						<path id="Path_3522" class="st13" d="M400.4,625.2l27.5-16.7l12.3,21.5L399,653.5c0,0-19.6-51.6-20.1-52
							C376.1,604.6,389,587.9,400.4,625.2L400.4,625.2z"/>
					</g>
				</g>
				<g id="Group_4443">
					<path id="Path_3523" class="st11" d="M368.1,681.3l10.9,95.7H421l-14.5-116.7h-78L313.9,777h41.9l10.9-95.7H368.1L368.1,681.3z
						"/>
				</g>
				<g id="Group_4447">
					<g id="Group_4444">
						<path id="Path_3524" class="st11" d="M435.7,795.9c0,0-1-7.9-4.8-9.5c-3.9-1.5-17.5-2.9-18.1-9.5h-28.1v18.9L435.7,795.9
							L435.7,795.9z"/>
					</g>
				</g>
				<g id="Group_4451">
					<g id="Group_4448">
						<path id="Path_3527" class="st11" d="M298.4,795.9c0,0,1-7.9,4.8-9.5c3.9-1.5,17.5-2.9,18.1-9.5h28.1v18.9L298.4,795.9
							L298.4,795.9z"/>
					</g>
				</g>
				<path id="Path_3531" class="st2" d="M349,583.4c5.8-2.8,12.1-4.1,18.4-4c9.8,0.5,14.4,1.9,17.7,4.1l-1.3,65.8h-26L349,583.4
					L349,583.4z"/>
				<g id="Group_4455">
					<path id="Path_3534" class="st13" d="M411.3,627c-9.2-26.6-17.9-43.7-32.7-46.2c-7.4,13.9-11.1,45.1-11.1,45.1
						s-6.6,34,3.1,49.8c6.9,11.3,28.2,5.8,38.7,7l-3.7-41.9L411.3,627L411.3,627z"/>
				</g>
				<g id="Group_4455-2">
					<path id="Path_3534-2" class="st13" d="M323.4,627c9.2-26.6,17.9-43.7,32.7-46.2c7.4,13.9,11.1,45.1,11.1,45.1s6.6,34-3.1,49.8
						c-6.9,11.3-28.2,5.8-38.7,7l3.7-41.9L323.4,627L323.4,627z"/>
				</g>
			</g>
			<polygon class="st16" points="295,540.3 302.5,574.5 326.7,551.3 			"/>
			<polygon class="st3" points="356.1,494.1 336.9,494.1 327.2,510.7 336.9,527.4 356.1,527.4 365.7,510.7 			"/>
		</g>
		
			<rect x="391.4" y="504.8" transform="matrix(0.7071 -0.7071 0.7071 0.7071 -247.1117 436.2494)" class="st17" width="23.3" height="23.3"/>
		<circle class="st18" cx="433.6" cy="556.5" r="16.2"/>
	</g>
	<g>
		<path class="st19" d="M527.4,558.7h193.2c4.8,0,8.7,3.9,8.7,8.7v77c0,4.8-3.9,8.7-8.7,8.7H527.4c-4.8,0-8.7-3.9-8.7-8.7v-77
			C518.7,562.6,522.6,558.7,527.4,558.7z"/>
		<polygon class="st19" points="644.4,642.8 603.6,642.8 624,666.5 		"/>
		<g>
			<rect x="538.1" y="578.1" class="st2" width="10.1" height="10.1"/>
			<rect x="685.9" y="578.1" class="st2" width="10.1" height="10.1"/>
			<polygon class="st2" points="701.4,578.1 701.4,588.2 711.4,588.2 			"/>
			<rect x="644" y="578.1" class="st2" width="10.1" height="10.1"/>
			<circle class="st2" cx="557" cy="583.1" r="5"/>
			<circle class="st2" cx="607.4" cy="583.1" r="5"/>
			<path class="st2" d="M593.5,588.2h-8.7c-2.8,0-5-2.3-5-5v0c0-2.8,2.3-5,5-5h8.7c2.8,0,5,2.3,5,5v0
				C598.5,585.9,596.3,588.2,593.5,588.2z"/>
			<polygon class="st2" points="565.9,588.2 575.9,588.2 570.9,578.1 			"/>
			<circle class="st2" cx="662.9" cy="583.1" r="5"/>
			<polygon class="st2" points="671.8,588.2 681.8,588.2 676.8,578.1 			"/>
			<polygon class="st2" points="616.2,588.2 626.3,588.2 621.2,578.1 			"/>
			<polygon class="st2" points="640.2,578.1 630.1,578.1 635.1,588.2 			"/>
		</g>
		<g>
			<polygon class="st2" points="618.5,621.5 618.5,631.6 628.5,631.6 			"/>
			<rect x="538.1" y="621.7" class="st2" width="10.1" height="10.1"/>
			<rect x="673.7" y="621.7" class="st2" width="10.1" height="10.1"/>
			<rect x="632.3" y="621.7" class="st2" width="10.1" height="10.1"/>
			<circle class="st2" cx="557" cy="626.7" r="5"/>
			<path class="st2" d="M609.7,631.7h-25.1c-2.8,0-5-2.3-5-5v0c0-2.8,2.3-5,5-5h25.1c2.8,0,5,2.3,5,5v0
				C614.7,629.5,612.4,631.7,609.7,631.7z"/>
			<polygon class="st2" points="565.7,621.7 575.8,621.7 570.8,631.7 			"/>
			<circle class="st2" cx="651.1" cy="626.7" r="5"/>
			<circle class="st2" cx="692.6" cy="626.7" r="5"/>
			<circle class="st2" cx="706.4" cy="626.7" r="5"/>
			<polygon class="st2" points="659.9,621.7 670,621.7 665,631.7 			"/>
		</g>
		<g>
			<rect x="590.3" y="599.8" class="st2" width="10.1" height="10.1"/>
			<circle class="st2" cx="566.3" cy="604.8" r="5"/>
			<path class="st2" d="M551.8,609.9h-8.7c-2.8,0-5-2.3-5-5v0c0-2.8,2.3-5,5-5h8.7c2.8,0,5,2.3,5,5v0
				C556.8,607.6,554.6,609.9,551.8,609.9z"/>
			<polygon class="st2" points="585.8,609.9 585.8,599.8 575.8,604.8 			"/>
			<circle class="st2" cx="676.4" cy="604.8" r="5"/>
			<path class="st2" d="M661.9,609.9h-23.2c-2.8,0-5-2.3-5-5v0c0-2.8,2.3-5,5-5h23.2c2.8,0,5,2.3,5,5v0
				C667,607.6,664.7,609.9,661.9,609.9z"/>
			<polygon class="st2" points="695.9,609.9 695.9,599.8 685.9,604.8 			"/>
			<polygon class="st2" points="629.3,599.8 619.2,599.8 624.3,609.9 			"/>
			<polygon class="st2" points="605.5,609.9 615.5,609.9 610.5,599.8 			"/>
		</g>
	</g>
	<g>
		<path class="st20" d="M277.8,115.2h223.8c5.6,0,10.1,4.5,10.1,10.1v89.1c0,5.6-4.5,10.1-10.1,10.1H277.8
			c-5.6,0-10.1-4.5-10.1-10.1v-89.1C267.7,119.7,272.2,115.2,277.8,115.2z"/>
		<polygon class="st20" points="413.3,212.7 366,212.7 389.7,240.1 		"/>
		<g>
			<rect x="290.2" y="137.7" class="st2" width="11.6" height="11.6"/>
			<rect x="461.3" y="137.7" class="st2" width="11.6" height="11.7"/>
			<polygon class="st2" points="479.3,137.7 479.3,149.4 490.9,149.4 			"/>
			<rect x="412.8" y="137.7" class="st2" width="11.6" height="11.6"/>
			<circle class="st2" cx="312.1" cy="143.5" r="5.8"/>
			<circle class="st2" cx="370.4" cy="143.5" r="5.8"/>
			<path class="st2" d="M354.3,149.4h-10.1c-3.2,0-5.8-2.6-5.8-5.8v0c0-3.2,2.6-5.8,5.8-5.8h10.1c3.2,0,5.8,2.6,5.8,5.8v0
				C360.2,146.8,357.6,149.4,354.3,149.4z"/>
			<polygon class="st2" points="322.4,149.4 334,149.4 328.2,137.7 			"/>
			<circle class="st2" cx="434.7" cy="143.5" r="5.8"/>
			<polygon class="st2" points="445,149.4 456.6,149.4 450.8,137.7 			"/>
			<polygon class="st2" points="380.7,149.4 392.3,149.4 386.5,137.7 			"/>
			<polygon class="st2" points="408.4,137.7 396.8,137.7 402.6,149.4 			"/>
		</g>
		<g>
			<polygon class="st2" points="381.5,188 381.5,199.7 393.2,199.7 			"/>
			<polygon class="st2" points="381.5,188 381.5,199.7 369.9,199.7 			"/>
		</g>
		<rect x="290.2" y="188.2" class="st2" width="11.6" height="11.6"/>
		<rect x="447" y="188.2" class="st2" width="11.6" height="11.6"/>
		<rect x="398.6" y="188.2" class="st2" width="11.6" height="11.6"/>
		<circle class="st2" cx="312.2" cy="194" r="5.8"/>
		<circle class="st2" cx="344.4" cy="194" r="5.8"/>
		<polygon class="st2" points="322.5,188.2 334.1,188.2 328.3,199.8 		"/>
		<circle class="st2" cx="420.6" cy="194" r="5.8"/>
		<circle class="st2" cx="469" cy="194" r="5.8"/>
		<polygon class="st2" points="430.9,188.2 442.5,188.2 436.7,199.8 		"/>
		<polygon class="st2" points="479.3,199.8 479.3,188.2 490.9,194 		"/>
		<polygon class="st2" points="354.7,188.2 366.4,188.2 360.6,199.8 		"/>
		<g>
			<rect x="400.9" y="162.9" class="st2" width="11.6" height="11.6"/>
			<rect x="367.4" y="162.9" class="st2" width="11.6" height="11.6"/>
			<rect x="350.6" y="162.9" class="st2" width="11.6" height="11.6"/>
			<circle class="st2" cx="322.9" cy="168.7" r="5.8"/>
			<path class="st2" d="M306.1,174.5H296c-3.2,0-5.8-2.6-5.8-5.8v0c0-3.2,2.6-5.8,5.8-5.8h10.1c3.2,0,5.8,2.6,5.8,5.8v0
				C311.9,171.9,309.3,174.5,306.1,174.5z"/>
			<polygon class="st2" points="345.5,174.5 345.5,162.9 333.8,168.7 			"/>
			<circle class="st2" cx="450.4" cy="168.7" r="5.8"/>
			<path class="st2" d="M433.6,174.5h-10.1c-3.2,0-5.8-2.6-5.8-5.8v0c0-3.2,2.6-5.8,5.8-5.8h10.1c3.2,0,5.8,2.6,5.8,5.8v0
				C439.4,171.9,436.8,174.5,433.6,174.5z"/>
			<polygon class="st2" points="473,174.5 473,162.9 461.3,168.7 			"/>
			<polygon class="st2" points="395.8,162.9 384.2,162.9 390,174.5 			"/>
		</g>
	</g>
	<g>
		<defs>
			<rect id="SVGID_1_" x="605.6" y="49.2" width="144.4" height="119.6"/>
		</defs>
		<clipPath id="SVGID_00000134954321735819982070000007295675946737623222_">
			<use xlink:href="#SVGID_1_"  style="overflow:visible;"/>
		</clipPath>
		<g style="clip-path:url(#SVGID_00000134954321735819982070000007295675946737623222_);">
			<g>
				<path class="st22" d="M624,68.3h156.5c3.9,0,7.1,3.2,7.1,7.1v62.4c0,3.9-3.2,7.1-7.1,7.1H624c-3.9,0-7.1-3.2-7.1-7.1V75.4
					C617,71.5,620.1,68.3,624,68.3z"/>
				<polygon class="st22" points="718.9,136.5 685.8,136.5 702.3,155.7 				"/>
				<g>
					<path class="st23" d="M672,90.9h-37.4c-1.6,0-3-1.3-3-3v0c0-1.6,1.3-3,3-3H672c1.6,0,3,1.3,3,3v0C675,89.5,673.6,90.9,672,90.9
						z"/>
					<path class="st23" d="M712.3,90.9h-31c-1.6,0-3-1.3-3-3v0c0-1.6,1.3-3,3-3h31c1.6,0,3,1.3,3,3v0
						C715.3,89.5,714,90.9,712.3,90.9z"/>
					<circle class="st23" cx="721.7" cy="87.9" r="3"/>
					<circle class="st23" cx="731" cy="87.9" r="3"/>
				</g>
				<g>
					<path class="st23" d="M672,128.8h-37.4c-1.6,0-3-1.3-3-3v0c0-1.6,1.3-3,3-3H672c1.6,0,3,1.3,3,3v0
						C675,127.4,673.6,128.8,672,128.8z"/>
					<path class="st23" d="M691.5,128.8h-10.2c-1.6,0-3-1.3-3-3v0c0-1.6,1.3-3,3-3h10.2c1.6,0,3,1.3,3,3v0
						C694.5,127.4,693.1,128.8,691.5,128.8z"/>
					<circle class="st23" cx="700.8" cy="125.8" r="3"/>
					<circle class="st23" cx="710.1" cy="125.8" r="3"/>
				</g>
				<g>
					<path class="st23" d="M662.6,116.2h-28c-1.6,0-3-1.3-3-3v0c0-1.6,1.3-3,3-3h28c1.6,0,3,1.3,3,3v0
						C665.5,114.8,664.2,116.2,662.6,116.2z"/>
					<path class="st23" d="M683.5,116.2h-10.9c-1.6,0-3-1.3-3-3v0c0-1.6,1.3-3,3-3h10.9c1.6,0,3,1.3,3,3v0
						C686.4,114.8,685.1,116.2,683.5,116.2z"/>
					<path class="st23" d="M701,116.2h-7.5c-1.6,0-3-1.3-3-3v0c0-1.6,1.3-3,3-3h7.5c1.6,0,3,1.3,3,3v0
						C703.9,114.8,702.6,116.2,701,116.2z"/>
					<circle class="st23" cx="711" cy="113.2" r="3"/>
					<circle class="st23" cx="721" cy="113.2" r="3"/>
					<circle class="st23" cx="731" cy="113.2" r="3"/>
				</g>
				<g>
					<path class="st23" d="M659.1,103.6h-23.8c-1.6,0-3-1.3-3-3v0c0-1.6,1.3-3,3-3h23.8c1.6,0,3,1.3,3,3v0
						C662.1,102.2,660.7,103.6,659.1,103.6z"/>
					<circle class="st23" cx="669.3" cy="100.5" r="3"/>
					<circle class="st23" cx="679.5" cy="100.5" r="3"/>
					<circle class="st23" cx="689.7" cy="100.5" r="3"/>
				</g>
			</g>
		</g>
	</g>
	<g>
		<g>
			<g>
				<g id="Group_2465">
					<path id="Ellipse_177" class="st2" d="M575.8,184.4c2.1,0,3.8,1.7,3.8,3.9s-1.7,5.2-3.8,5.2s-3.8-3-3.8-5.2
						S573.6,184.4,575.8,184.4z"/>
				</g>
				<g id="Group_2466">
					<path id="Path_2520" class="st2" d="M589.2,222.8l-3.8-21.9h-19.3l-3.8,21.9H589.2L589.2,222.8z"/>
				</g>
				<g id="Group_2470">
					<path id="Path_2523" class="st11" d="M576,230l3.8,33h14.4l-5-40.2h-26.9l-5,40.2h14.4l3.8-33L576,230L576,230z"/>
				</g>
				<g id="Group_2474">
					<g id="Group_2471">
						<path id="Path_2524" class="st11" d="M599.3,269.5c0,0-0.3-2.7-1.7-3.3s-6-1-6.2-3.3h-9.7v6.5L599.3,269.5L599.3,269.5z"/>
					</g>
				</g>
				<g id="Group_2478">
					<g id="Group_2475">
						<path id="Path_2527" class="st11" d="M552,269.5c0,0,0.3-2.7,1.7-3.3c1.3-0.5,6-1,6.2-3.3h9.7v6.5L552,269.5L552,269.5z"/>
					</g>
				</g>
				<g id="Group_2479">
					<path id="Path_2530" class="st24" d="M589.2,222.8l-0.5-3h-25.8l-0.5,3H589.2L589.2,222.8z"/>
				</g>
				<path id="Path_2531" class="st2" d="M569.4,196.2c2-0.9,4.2-1.4,6.3-1.4c3.4,0.1,5.8,0.8,7,1.6l-1.3,22.5h-9L569.4,196.2
					L569.4,196.2z"/>
				<path id="Path_2532" class="st13" d="M588.7,210.6c-3.3-10.8-4-14.5-9.1-15.4c-2.5,4.8-4.3,8.7-4.3,14.1
					c0,3.9-0.7,13.7,0.6,16.5c2.4,5.4,8.6,3.9,14.3,4.6l-0.3-2.2L588.7,210.6L588.7,210.6z"/>
				<path id="Path_2533" class="st13" d="M560.4,209c3.2-9.2,6.4-12.8,11.5-13.7c2.5,4.8,3.9,10.1,3.8,15.5c0,5,1.6,12.7-0.4,15.9
					c-2.5,4.1-9.1,3.1-14,3.7l1.3-14.5L560.4,209L560.4,209z"/>
				<g id="Group_2482">
					<path id="Path_2534" class="st13" d="M579.6,195.3c0,0,5.6,0.3,9,8.3c4.2,10,6.4,17.5,0.6,19.1c-5.7,1.6-7.8,2.4-7.8,2.4
						l-1.6-17.8l-0.3-4.9V195.3L579.6,195.3z"/>
				</g>
				<g id="Group_2486">
					<g id="Group_2485">
						<path id="Path_2535" class="st2" d="M604.4,207.7c-1.2-0.3-1.9-0.8-2.6,1.1s-3.6,2.5-3.6,2.5l1.3,4.1c1.3-0.3,6.5-2.4,6.8-4.6
							C606.7,209.7,605.5,208,604.4,207.7z"/>
					</g>
				</g>
				<path id="Path_2536" class="st13" d="M601.9,215.4l-3.8-6.9c0,0-11.3,6.5-12.7,8.9c-1.4,2.4-0.2,5.6,2.1,7.1
					S601.9,215.4,601.9,215.4L601.9,215.4z"/>
			</g>
			<g>
				
					<rect x="533.3" y="214.7" transform="matrix(0.7071 -0.7071 0.7071 0.7071 10.7646 472.7243)" class="st3" width="85.4" height="17.3"/>
				<polygon class="st2" points="600.1,187.1 613.6,185.8 612.3,199.3 				"/>
				<polygon class="st3" points="608.8,186.2 613.1,190.6 613.6,185.8 				"/>
				
					<rect x="536.3" y="222.1" transform="matrix(0.7071 -0.7071 0.7071 0.7071 9.4924 475.7721)" class="st24" width="85.4" height="8.7"/>
			</g>
			<g id="Group_2486-2">
				<g id="Group_2485-2">
					<path id="Path_2535-2" class="st2" d="M575.9,225.3c0.3-1.1,0.8-1.9-1.1-2.6c-1.9-0.8-2.5-3.6-2.5-3.6l-4.1,1.3
						c0.3,1.3,2.4,6.5,4.6,6.8C573.9,227.5,575.6,226.3,575.9,225.3z"/>
				</g>
			</g>
			<path id="Path_2536-2" class="st13" d="M568.3,223.9l6.9-3.8c0,0-6.5-11.3-8.9-12.7s-7.4-1-6.1,5
				C561,215.7,568.3,223.9,568.3,223.9L568.3,223.9z"/>
		</g>
		<path class="st25" d="M625.5,213.5c9.1,0,16.5-7.4,16.5-16.5s-7.4-16.5-16.5-16.5c-3.4,0-6.6,1-9.2,2.8"/>
		<path class="st26" d="M625.5,213.5c9.1,0,16.5-7.4,16.5-16.5"/>
		<path class="st25" d="M628.8,243.9c-7.6,5-17.9,2.9-22.9-4.7c-5-7.6-2.9-17.9,4.7-22.9c2.9-1.9,6.1-2.8,9.3-2.7"/>
		<path class="st26" d="M628.8,243.9c-7.6,5-17.9,2.9-22.9-4.7"/>
	</g>
	<g>
		<defs>
			<rect id="SVGID_00000073703874345028098450000016418286464248305579_" y="155.1" width="132.1" height="114.1"/>
		</defs>
		<clipPath id="SVGID_00000165216240095691424970000015516660791565499043_">
			<use xlink:href="#SVGID_00000073703874345028098450000016418286464248305579_"  style="overflow:visible;"/>
		</clipPath>
		<g style="clip-path:url(#SVGID_00000165216240095691424970000015516660791565499043_);">
			<path class="st28" d="M-30,173.5H99c3.7,0,6.7,3,6.7,6.7v59.3c0,3.7-3,6.7-6.7,6.7H-30c-3.7,0-6.7-3-6.7-6.7v-59.3
				C-36.7,176.5-33.7,173.5-30,173.5z"/>
			<polygon class="st28" points="50.2,238.4 18.7,238.4 34.5,256.6 			"/>
			<g>
				<rect x="-10.6" y="195.5" class="st29" width="10.8" height="10.8"/>
				<rect x="5.3" y="213.4" class="st29" width="10.8" height="10.8"/>
				<rect x="52.9" y="213.4" class="st29" width="10.8" height="10.8"/>
				<circle class="st29" cx="10.7" cy="200.9" r="5.4"/>
				<polygon class="st29" points="21.1,206.3 32,206.3 26.6,195.5 				"/>
				<rect x="37" y="195.5" class="st29" width="10.8" height="10.8"/>
				<circle class="st29" cx="58.3" cy="200.9" r="5.4"/>
				<polygon class="st29" points="68.7,195.5 68.7,206.3 79.5,200.9 				"/>
				<polygon class="st29" points="0.2,224.2 0.2,213.4 -10.6,218.8 				"/>
				<polygon class="st29" points="68.7,224.2 79.5,224.2 74.1,213.4 				"/>
				<circle class="st29" cx="26.6" cy="218.8" r="5.4"/>
				<polygon class="st29" points="47.8,213.4 37,213.4 42.4,224.2 				"/>
			</g>
		</g>
	</g>
	<g>
		<defs>
			<rect id="SVGID_00000054267340912252249620000000871711447589834666_" x="646.1" y="226.2" width="103.9" height="164.2"/>
		</defs>
		<clipPath id="SVGID_00000173136222915410971050000003575187675879088270_">
			<use xlink:href="#SVGID_00000054267340912252249620000000871711447589834666_"  style="overflow:visible;"/>
		</clipPath>
		<g style="clip-path:url(#SVGID_00000173136222915410971050000003575187675879088270_);">
			<g>
				<g>
					<g id="icon">
						<g id="_グループ_2151">
							<circle id="_楕円形_154" class="st31" cx="721.3" cy="302.2" r="67"/>
						</g>
						<g id="_グループ_2151-2">
							<circle id="_楕円形_154-2" class="st31" cx="721.3" cy="302.2" r="67"/>
						</g>
					</g>
					<path id="_パス_2317" class="st0" d="M721.3,302.2l-0.5-67c-17.1,0.1-32.7,6.7-44.5,17.3L721.3,302.2z"/>
				</g>
				<circle class="st0" cx="721.3" cy="302.2" r="41"/>
			</g>
		</g>
	</g>
	<g>
		<defs>
			<rect id="SVGID_00000183931677790462689090000000237477389404876932_" y="532.2" width="143.6" height="234"/>
		</defs>
		<clipPath id="SVGID_00000014617458549036577710000010489208732361322624_">
			<use xlink:href="#SVGID_00000183931677790462689090000000237477389404876932_"  style="overflow:visible;"/>
		</clipPath>
		<g style="clip-path:url(#SVGID_00000014617458549036577710000010489208732361322624_);">
			<g>
				<g>
					<g id="icon-2">
						<g id="_グループ_2151-3">
							<circle id="_楕円形_154-3" class="st3" cx="38.8" cy="654.2" r="91.3"/>
						</g>
					</g>
					<path id="_パス_2317-2" class="st0" d="M38.8,654.2l-0.7-91.3c-23.3,0.2-44.6,9.1-60.6,23.6L38.8,654.2L38.8,654.2z"/>
				</g>
				
					<ellipse transform="matrix(0.9998 -1.998802e-02 1.998802e-02 0.9998 -13.0682 0.9062)" class="st0" cx="38.8" cy="654.2" rx="55.8" ry="55.8"/>
			</g>
		</g>
	</g>
	<g>
		<defs>
			<rect id="SVGID_00000182525613699875087660000000345123211556512685_" y="291.9" width="92.7" height="165.1"/>
		</defs>
		<clipPath id="SVGID_00000079453324778908570370000005636613671590586032_">
			<use xlink:href="#SVGID_00000182525613699875087660000000345123211556512685_"  style="overflow:visible;"/>
		</clipPath>
		<g style="clip-path:url(#SVGID_00000079453324778908570370000005636613671590586032_);">
			<g>
				<g id="Group_4437-3">
					<g id="Group_4436-3">
						<path id="Path_3519-3" class="st2" d="M0.5,347.6c0,0-3.6-3-6.8-2.2s-7.2-1.4-7.8-3.2c-0.6-1.9,1.4-3,2.5-2.7
							c2.2,0.5,3-1.6,5.2-2.2c4.9-1.4,9.3,3.1,11,4.5L0.5,347.6L0.5,347.6z"/>
					</g>
				</g>
				<g id="Group_2465-2">
					<path id="Ellipse_177-2" class="st2" d="M38.4,304c3.5,0,6.4,2.9,6.4,6.4s-2.8,8.5-6.4,8.5s-6.4-5-6.4-8.5S34.9,304,38.4,304z"
						/>
				</g>
				<g id="Group_2466-2">
					<path id="Path_2520-2" class="st2" d="M60.6,367.4l-6.3-36.2H22.5l-6.3,36.2H60.6L60.6,367.4z"/>
				</g>
				<path id="Path_2522" class="st13" d="M19.7,347.4L4,338l-7,12.3l23.5,13.3c0,0,11.2-29.4,11.5-29.6
					C33.5,335.7,26.2,326.2,19.7,347.4L19.7,347.4z"/>
				<g id="Group_2470-2">
					<path id="Path_2523-2" class="st11" d="M38.8,379.4l6.2,54.5h23.9l-8.3-66.5H16.2l-8.3,66.5h23.9l6.2-54.5H38.8L38.8,379.4z"/>
				</g>
				<g id="Group_2474-2">
					<g id="Group_2471-2">
						<path id="Path_2524-2" class="st11" d="M77.3,444.6c0,0-0.6-4.5-2.7-5.4c-2.2-0.9-10-1.7-10.3-5.4h-16v10.8H77.3L77.3,444.6z"
							/>
					</g>
				</g>
				<g id="Group_2478-2">
					<g id="Group_2475-2">
						<path id="Path_2527-2" class="st11" d="M-0.9,444.6c0,0,0.5-4.5,2.7-5.4c2.2-0.9,10-1.7,10.3-5.4h16v10.8H-0.9L-0.9,444.6z"/>
					</g>
				</g>
				<g id="Group_2479-2">
					<path id="Path_2530-2" class="st24" d="M60.6,367.4l-0.9-5H17l-0.9,5H60.6L60.6,367.4z"/>
				</g>
				<path id="Path_2531-2" class="st2" d="M27.9,323.6c3.3-1.6,6.9-2.4,10.5-2.3c5.6,0.3,9.6,1.3,11.5,2.6l-2.1,37.2H33L27.9,323.6
					L27.9,323.6z"/>
				<path id="Path_2532-2" class="st13" d="M59.8,347.4c-5.5-17.9-6.6-23.9-15.1-25.4c-4.2,7.9-7.2,14.3-7.1,23.2
					c0,6.4-1.1,22.6,0.9,27.2c3.9,9,14.2,6.4,23.6,7.5l-0.4-3.6L59.8,347.4L59.8,347.4z"/>
				<path id="Path_2533-2" class="st13" d="M13.5,348.4c5.3-15.1,10.2-24.9,18.6-26.4c4.2,7.9,6.4,16.7,6.3,25.7
					c0,8.2,2.6,21-0.6,26.3c-4.2,6.8-15.1,5.2-23.2,6.1l2.1-23.9L13.5,348.4z"/>
				<g id="Group_2482-2">
					<path id="Path_2534-2" class="st13" d="M44.8,322.1c0,0,9.2,0.5,14.8,13.8c6.9,16.5,10.5,28.9,1.1,31.6
						c-9.5,2.7-12.8,3.9-12.8,3.9L45.2,342l-0.5-8.1C44.8,333.9,44.8,322.1,44.8,322.1z"/>
					<path id="Path_2534-3" class="st13" d="M44.8,322.1c0,0,9.2,0.5,14.8,13.8c6.9,16.5,10.5,28.9,1.1,31.6
						c-9.5,2.7-12.8,3.9-12.8,3.9L45.2,342l-0.5-8.1C44.8,333.9,44.8,322.1,44.8,322.1z"/>
				</g>
				<g id="Group_2483">
					
						<rect id="Rectangle_364" x="25.6" y="343.7" transform="matrix(0.2736 -0.9618 0.9618 0.2736 -310.6993 299.6895)" class="st3" width="34.9" height="23.7"/>
				</g>
				<g id="Group_2486-3">
					<g id="Group_2485-3">
						<path id="Path_2535-3" class="st2" d="M29.4,354.3c0.4,1.9,0.1,3.3,3.4,3.2c3.3-0.1,6.2,3.6,6.2,3.6l5.2-4.9
							c-1.3-1.7-8.1-8-11.6-7C30.8,349.5,29,352.5,29.4,354.3L29.4,354.3z"/>
					</g>
				</g>
				<path id="Path_2536-3" class="st13" d="M39.8,350.4l-4.9,12.1c0,0,20.2,7.7,24.7,7c4.5-0.7,7.3-5.6,6.9-10.1
					C66,354.7,39.8,350.4,39.8,350.4L39.8,350.4z"/>
				<g>
					<path class="st3" d="M30.1,307.4c0-5.3,3.7-9.6,8.3-9.6s8.3,4.3,8.3,9.6H30.1L30.1,307.4z"/>
					<g>
						<line class="st34" x1="37.2" y1="305" x2="39.6" y2="305"/>
						<line class="st34" x1="38.4" y1="306.2" x2="38.4" y2="303.9"/>
					</g>
					<g>
						<line class="st35" x1="32.9" y1="305.7" x2="36.2" y2="305.7"/>
						<line class="st35" x1="32.9" y1="304.5" x2="36.2" y2="304.5"/>
						<g>
							<line class="st35" x1="40.6" y1="305.7" x2="43.9" y2="305.7"/>
							<line class="st35" x1="40.6" y1="304.5" x2="43.9" y2="304.5"/>
						</g>
					</g>
					<rect x="29.4" y="306.7" class="st3" width="18" height="1.5"/>
				</g>
			</g>
		</g>
	</g>
	<g>
		<path class="st2" d="M308.2,440c-0.1,0.8-1,1.2-1.8,1.2s-1.5-0.4-1.4-1.2l1.6-9.3c-0.8,0.6-1.6,1.1-2.3,1.5
			c-0.4,0.2-0.8,0.3-1,0.3c-0.8,0-1.3-0.7-1.2-1.5c0.1-0.5,0.4-1,1-1.3c3.2-1.8,6.4-4.9,8.1-7.4c0.1-0.1,0.1-0.2,0.1-0.3
			c0-0.2-0.1-0.3-0.5-0.3h-5.3c-0.8,0-1-0.7-0.9-1.4c0.1-0.7,0.6-1.4,1.4-1.4h2.7l0.7-4.1c0.1-0.8,1-1.2,1.8-1.2s1.5,0.4,1.4,1.2
			l-0.7,4.1h0.9c1.7,0,2.5,0.8,2.3,2.1c-0.1,0.5-0.3,1-0.7,1.6c-0.9,1.5-2.2,3.1-3.7,4.6c1.2,0.6,2.4,1.4,3.1,2.1
			c0.4,0.4,0.6,0.8,0.5,1.2c-0.1,0.8-0.9,1.4-1.7,1.4c-0.3,0-0.6-0.1-0.9-0.4c-0.5-0.5-1.1-1-1.8-1.4L308.2,440L308.2,440z
			 M320.5,427.2h-4.3c-0.9,0-1.2-0.8-1-1.5c0.1-0.8,0.7-1.5,1.6-1.5h4.3l1.5-8.7c0.2-1,1.1-1.5,1.9-1.5s1.6,0.5,1.4,1.5l-1.5,8.7
			h4.9c0.9,0,1.2,0.7,1,1.5c-0.1,0.7-0.7,1.5-1.6,1.5h-4.9l-1.7,9.6h5.8c0.9,0,1.2,0.7,1,1.5c-0.1,0.7-0.7,1.5-1.6,1.5h-15.3
			c-0.9,0-1.2-0.8-1-1.5c0.1-0.8,0.7-1.5,1.6-1.5h6.2L320.5,427.2L320.5,427.2z"/>
		<path class="st2" d="M355.4,414.8c2.9,0,3.9,1.2,3.5,3.6l-0.6,3.3c-1.1,6.2-1.6,10.9-1.5,13.6c0,1.3,0.1,1.5,0.4,1.5
			c0.2,0,0.5-0.2,0.8-1.7c0.2-0.7,0.8-1,1.4-1c0.6,0,1.2,0.4,1,1.1c-0.2,0.9-0.7,2.6-1.3,3.5c-0.6,1-1.4,1.6-2.6,1.6
			c-1.6,0-2.6-1.1-2.8-4.2c-0.1-2.9,0.3-7.7,1.4-14.1l0.5-2.8c0.2-1.1-0.2-1.4-1.4-1.4h-11.9c-1.3,0-1.7,0.3-1.9,1.4l-0.9,4.9
			c-1.3,7.2-3.2,12.3-5.8,15.7c-0.5,0.7-1.1,1-1.7,1c-0.8,0-1.4-0.6-1.3-1.5c0-0.3,0.2-0.6,0.4-0.9c2.3-3.2,4.1-7.6,5.3-14.6
			l0.9-5.1c0.4-2.4,2-3.6,4.8-3.6L355.4,414.8L355.4,414.8z M350.2,424.1c2.6,0,3.2,0.8,2.9,2.8l-0.4,2.3c-0.4,2.4-1.6,2.8-3.9,2.8
			h-1.6l-0.5,3.1c0.6-0.1,1.3-0.2,1.9-0.3l-0.3-0.6c-0.1-0.2-0.2-0.5-0.1-0.7c0.1-0.6,0.9-1.1,1.6-1.1c0.5,0,0.9,0.2,1.1,0.6
			c0.8,1.2,1.5,2.7,2,4.1c0.1,0.3,0.1,0.5,0.1,0.7c-0.1,0.8-1,1.3-1.7,1.3c-0.5,0-1-0.3-1.2-0.9c-0.1-0.4-0.3-0.7-0.4-1.1
			c-3.2,0.6-6.3,1.1-10.4,1.5c-0.2,0-1.1,0.1-1.3,0.1c-0.9,0-1.3-0.7-1.2-1.5c0.1-0.7,0.7-1.4,1.6-1.4c1.6-0.1,3.4-0.2,5.3-0.4
			l0.6-3.5h-1.5c-2.6,0-3.3-0.7-2.9-2.8l0.4-2.3c0.4-2,1.3-2.8,3.9-2.8h1.5l0.3-1.8c-1.3,0.1-3.4,0.3-3.8,0.3
			c-0.9,0-1.2-0.7-1.1-1.4c0.1-0.6,0.6-1.2,1.5-1.3c3.1-0.2,6.8-0.7,10-1.5c0.1,0,0.3-0.1,0.4-0.1c0.8,0,1.3,0.7,1.1,1.5
			c-0.1,0.6-0.6,1.1-1.5,1.4c-1.2,0.2-2.4,0.5-3.7,0.7l-0.4,2.2L350.2,424.1L350.2,424.1z M344,426.5c-0.7,0-0.8,0.1-0.9,0.6
			l-0.3,1.9c-0.1,0.6,0.2,0.6,0.7,0.6h1.2l0.6-3.2L344,426.5L344,426.5z M347.6,429.6h1.3c0.7,0,0.8-0.1,0.9-0.6l0.3-1.9
			c0.1-0.5,0-0.6-0.7-0.6h-1.3L347.6,429.6L347.6,429.6z"/>
		<path class="st2" d="M371.6,424.7c0.8-0.3,1.7-0.5,2.7-0.5c2.1,0,3.3,0.6,3.7,2.8c2.5-1,5.2-1.9,8-2.7c0.2-0.1,0.4-0.1,0.6-0.1
			c1,0,1.4,0.8,1.3,1.6c-0.1,0.6-0.6,1.3-1.5,1.5c-2.8,0.8-5.6,1.6-8.3,2.7c0,1.1-0.2,2.4-0.4,3.9c-0.1,1-1.1,1.5-2,1.5
			c-0.8,0-1.5-0.4-1.4-1.4c0.2-1.1,0.3-2.1,0.4-2.9c-3.4,1.6-4.4,2.9-4.5,4c-0.2,1.1,0.8,1.8,4.2,1.8c1.9,0,3.9-0.2,5.9-0.5
			c0.1,0,0.2,0,0.3,0c1,0,1.5,0.8,1.3,1.6c-0.1,0.7-0.7,1.4-1.8,1.6c-2,0.4-4.2,0.5-6.2,0.5c-5.7,0-7.7-1.9-7.2-4.8
			c0.4-2.4,2.2-4.6,8-7.3c-0.2-1.1-0.8-1.3-1.9-1.3s-3.4,0.8-6.7,3c-0.4,0.3-0.8,0.4-1.1,0.4c-0.9,0-1.5-0.7-1.3-1.6
			c0.1-0.4,0.4-0.9,0.9-1.3c2.2-1.6,4.2-3.5,6.1-5.8c-1.2,0.1-2.3,0.1-3.3,0.1c-1.1,0-1.5-0.8-1.4-1.5c0.1-0.7,0.8-1.5,1.9-1.5
			c1.4,0,3.1-0.1,4.9-0.2c0.7-1.2,1.4-2.3,1.9-3.4c0.4-0.7,1.1-1.1,1.7-1.1c0.8,0,1.6,0.5,1.4,1.4c0,0.1,0,0.3-0.1,0.4
			c-0.4,0.8-0.9,1.6-1.3,2.3c1.6-0.1,3.1-0.4,4.5-0.6c0.1,0,0.2,0,0.4,0c0.9,0,1.3,0.7,1.2,1.4c-0.1,0.6-0.6,1.3-1.6,1.5
			c-2,0.3-4.2,0.6-6.5,0.9C373.4,422.5,372.5,423.7,371.6,424.7L371.6,424.7L371.6,424.7z"/>
		<path class="st2" d="M403.7,418.2c0.8,0,1.1,0.7,1,1.3c-0.1,0.7-0.7,1.4-1.5,1.4h-2.7l-0.6,3.2c-0.1,0.5-0.2,1-0.3,1.5h3.8
			c0.8,0,1.1,0.7,1,1.4c-0.1,0.7-0.7,1.4-1.5,1.4h-4c-0.4,1.2-0.8,2.3-1.3,3.5c1.6,1.1,3.2,2.9,4.2,4.3c0.3,0.4,0.3,0.8,0.3,1.1
			c-0.1,0.9-1.1,1.6-1.9,1.6c-0.5,0-0.9-0.2-1.2-0.6c-0.7-1-1.8-2.5-2.9-3.5c-1.4,2.2-3,4-5,5.6c-0.5,0.4-1,0.6-1.4,0.6
			c-0.9,0-1.5-0.7-1.3-1.5c0.1-0.4,0.3-0.8,0.8-1.2c3-2.5,5.1-5.5,6.5-9.8h-4.3c-0.8,0-1.1-0.7-1-1.4c0.1-0.7,0.7-1.4,1.5-1.4h4.6
			c0.1-0.6,0.2-1.1,0.3-1.7l0.5-2.9h-1.5c-0.4,0.6-0.8,1.2-1.2,1.7c-0.5,0.6-1.1,0.8-1.6,0.8c-0.8,0-1.5-0.6-1.4-1.4
			c0-0.3,0.1-0.5,0.4-0.8c1.4-1.7,2.7-4,3.6-6.3c0.3-0.7,1-1.1,1.6-1.1c0.8,0,1.5,0.5,1.4,1.4c0,0.1-0.1,0.3-0.1,0.4
			c-0.3,0.8-0.7,1.6-1.1,2.5L403.7,418.2L403.7,418.2z M407.2,438.9c-2.3,0-3.2-1.1-2.9-3.2l2.6-15c0.4-2,1.6-3.2,4-3.2h4.4
			c2.4,0,3.2,1.1,2.9,3.2l-2.6,15c-0.4,2.2-1.8,3.2-4,3.2H407.2z M411.4,436c0.6,0,0.9-0.2,1.1-0.9l2.4-13.7
			c0.1-0.7-0.1-0.9-0.7-0.9h-2.9c-0.6,0-0.9,0.2-1.1,0.9l-2.4,13.7c-0.1,0.6,0.1,0.9,0.7,0.9H411.4z"/>
		<path class="st2" d="M430.4,425.5c1.4-0.5,2.7-0.7,3.9-0.7c4.7,0,7.3,2.5,6.6,6.6c-0.9,5.2-5.3,8.5-11.1,8.5
			c-4.1,0-6.4-2.1-5.9-4.7c0.4-2.2,2.2-3.8,4.8-3.8c2.9,0,4.6,1.9,4.9,4.9c2-0.9,3.4-2.6,3.8-4.8c0.4-2.1-1-3.8-3.9-3.8
			c-3,0-6.1,1-10.3,3.8c-0.5,0.3-1,0.5-1.3,0.5c-0.9,0-1.5-0.8-1.4-1.6c0.1-0.5,0.4-1,1-1.4c4-2.7,8.5-6.6,11.9-10
			c-1.5,0.2-3.5,0.4-5,0.6c-0.1,0-0.9,0.1-1.3,0.1c-1,0-1.4-0.8-1.2-1.6c0.1-0.7,0.7-1.5,1.7-1.5c2.5-0.1,5.7-0.5,8.7-1
			c0.2,0,0.3,0,0.4,0c1.2,0,1.9,0.9,1.7,1.9c-0.1,0.4-0.3,0.9-0.8,1.4c-2.2,2.2-4.9,4.8-7.2,6.7L430.4,425.5L430.4,425.5z
			 M430.3,436.9c-0.2-1.9-0.9-2.9-2.2-2.9c-0.6,0-1.2,0.5-1.3,1.1c-0.2,1,0.8,1.7,3.2,1.7L430.3,436.9L430.3,436.9z"/>
	</g>
</g>
</svg>
