<?xml version="1.0" encoding="UTF-8"?>
<svg id="_レイヤー_2" data-name="レイヤー 2" xmlns="http://www.w3.org/2000/svg" viewBox="0 0 595.7 144.47">
  <g id="_背景" data-name="背景">
    <g>
      <path d="m79.47,20.84c-6.56-8.5-16.92-13.89-29.02-13.89C28.43,6.94,9.02,24.79,7.1,46.81c-1.93,22.02,14.36,39.87,36.38,39.87,9.38,0,18.29-3.24,25.58-8.67" fill="none" stroke="#fff" stroke-linecap="round" stroke-linejoin="round" stroke-width="13.89"/>
      <line x1="453.44" y1="6.94" x2="442.05" y2="86.68" fill="none" stroke="#fff" stroke-linecap="round" stroke-linejoin="round" stroke-width="13.89"/>
      <path d="m454.7,6.94h25.32c11.7,0,21.19,9.49,21.19,21.19h0c0,11.7-9.49,21.19-21.19,21.19h-5.5s22.14,32.73,22.14,32.73" fill="none" stroke="#fff" stroke-linecap="round" stroke-linejoin="round" stroke-width="13.89"/>
      <line x1="262.25" y1="6.94" x2="330.76" y2="6.94" fill="none" stroke="#fff" stroke-linecap="round" stroke-linejoin="round" stroke-width="13.89"/>
      <circle cx="566.6" cy="47.8" r="9.61" fill="#fff"/>
      <line x1="298.77" y1="6.94" x2="287.39" y2="86.68" fill="none" stroke="#fff" stroke-linecap="round" stroke-linejoin="round" stroke-width="13.89"/>
      <polyline points="210.42 6.94 199.04 84.15 246.15 84.15" fill="none" stroke="#fff" stroke-linecap="round" stroke-linejoin="round" stroke-width="13.89"/>
      <polyline points="588.76 6.94 544.81 6.94 533.39 86.68 576.47 86.68" fill="none" stroke="#fff" stroke-linecap="round" stroke-linejoin="round" stroke-width="13.89"/>
      <path d="m411.58,6.94l-8.38,58.72c-1.72,12.05-12.04,21.01-24.22,21.01h0c-14.89,0-26.32-13.19-24.22-27.92l7.4-51.81" fill="none" stroke="#fff" stroke-linecap="round" stroke-linejoin="round" stroke-width="13.89"/>
      <path d="m168.87,6.94l-8.38,58.72c-1.72,12.05-12.04,21.01-24.22,21.01h0c-14.89,0-26.32-13.19-24.22-27.92l7.4-51.81" fill="none" stroke="#fff" stroke-linecap="round" stroke-linejoin="round" stroke-width="13.89"/>
    </g>
  </g>
  <g id="_デザイン" data-name="デザイン">
    <g>
      <path d="m254.71,143.31c-.14.77-.93,1.16-1.66,1.16s-1.42-.39-1.28-1.16l1.54-8.71c-.74.52-1.46.99-2.18,1.43-.35.22-.7.3-.98.3-.76,0-1.23-.66-1.11-1.35.08-.44.38-.88.94-1.21,3.02-1.71,6.01-4.55,7.58-6.95.08-.14.12-.22.14-.3.03-.19-.12-.28-.46-.28h-4.98c-.7,0-.92-.66-.8-1.32.11-.63.56-1.3,1.26-1.3h2.52l.67-3.81c.14-.77.93-1.13,1.68-1.13s1.39.36,1.26,1.13l-.67,3.81h.81c1.6,0,2.37.72,2.14,1.99-.08.44-.28.97-.64,1.54-.87,1.43-2.08,2.9-3.47,4.27,1.08.55,2.21,1.3,2.91,1.93.41.36.54.77.47,1.16-.13.72-.85,1.32-1.55,1.32-.31,0-.6-.11-.86-.36-.48-.44-1.05-.88-1.68-1.3l-1.61,9.13Zm11.54-11.91h-4.03c-.81,0-1.11-.72-.98-1.41.13-.72.67-1.41,1.48-1.41h4.03l1.42-8.08c.16-.91,1.02-1.35,1.81-1.35s1.49.44,1.33,1.35l-1.42,8.08h4.54c.84,0,1.11.69.98,1.41-.12.69-.64,1.41-1.48,1.41h-4.54l-1.58,8.93h5.4c.84,0,1.11.69.98,1.41-.12.69-.64,1.41-1.48,1.41h-14.31c-.81,0-1.11-.72-.98-1.41.13-.72.67-1.41,1.48-1.41h5.77l1.58-8.93Z" fill="#fff"/>
      <path d="m298.79,119.76c2.66,0,3.66,1.13,3.28,3.34l-.54,3.06c-1.03,5.82-1.46,10.18-1.42,12.66.04,1.21.11,1.43.36,1.43.22,0,.43-.22.76-1.63.17-.66.73-.97,1.26-.97.59,0,1.08.36.97,1.02-.15.85-.65,2.4-1.25,3.25-.6.88-1.29,1.46-2.39,1.46-1.54,0-2.43-.99-2.61-3.94-.14-2.7.28-7.17,1.34-13.18l.47-2.65c.18-1.05-.16-1.32-1.33-1.32h-11.12c-1.18,0-1.62.28-1.8,1.32l-.8,4.52c-1.19,6.73-3.03,11.44-5.44,14.67-.48.63-1.06.91-1.56.91-.76,0-1.35-.61-1.21-1.38.04-.25.18-.52.36-.8,2.18-2.98,3.8-7.11,4.96-13.65l.85-4.8c.39-2.21,1.82-3.34,4.51-3.34h12.35Zm-4.87,8.71c2.44,0,3.04.72,2.7,2.62l-.38,2.18c-.4,2.26-1.54,2.56-3.62,2.56h-1.51l-.51,2.9c.6-.08,1.21-.19,1.81-.25l-.27-.52c-.13-.22-.17-.47-.14-.66.11-.61.83-1.08,1.51-1.08.42,0,.81.17,1.07.58.7,1.1,1.37,2.54,1.82,3.81.1.25.11.47.08.66-.13.72-.89,1.24-1.59,1.24-.48,0-.94-.25-1.12-.8-.11-.33-.24-.69-.38-1.02-2.96.58-5.84,1.05-9.66,1.41-.2.03-1.02.08-1.22.08-.87,0-1.22-.69-1.1-1.38.11-.63.62-1.27,1.47-1.32,1.5-.08,3.18-.22,4.92-.41l.57-3.23h-1.43c-2.44,0-3.05-.66-2.71-2.56l.38-2.18c.34-1.9,1.19-2.62,3.63-2.62h1.43l.3-1.71c-1.2.14-3.19.3-3.58.3-.81,0-1.14-.66-1.03-1.3.1-.58.6-1.16,1.42-1.21,2.91-.17,6.37-.69,9.37-1.38.12-.03.26-.06.37-.06.78,0,1.19.69,1.08,1.35-.1.55-.55,1.08-1.4,1.27-1.1.22-2.26.44-3.42.63l-.37,2.1h1.51Zm-5.79,2.21c-.62,0-.78.14-.86.61l-.31,1.74c-.1.55.17.61.65.61h1.15l.52-2.95h-1.15Zm3.37,2.95h1.23c.62,0,.78-.14.86-.61l.31-1.74c.08-.47-.03-.61-.65-.61h-1.23l-.52,2.95Z" fill="#fff"/>
      <path d="m313.91,129c.78-.28,1.62-.47,2.49-.47,1.93,0,3.09.58,3.46,2.62,2.34-.91,4.84-1.74,7.44-2.48.21-.06.41-.08.57-.08.92,0,1.32.74,1.19,1.49-.1.58-.54,1.19-1.37,1.41-2.56.72-5.2,1.54-7.72,2.48-.04,1.02-.2,2.23-.39,3.67-.14.94-1.04,1.43-1.85,1.43-.73,0-1.38-.41-1.26-1.27.16-1.05.26-1.93.33-2.67-3.17,1.46-4.06,2.7-4.24,3.72-.19,1.08.71,1.71,3.93,1.71,1.76,0,3.64-.17,5.51-.47.12-.03.23-.03.31-.03.95,0,1.38.74,1.24,1.52-.12.66-.68,1.32-1.66,1.49-1.88.33-3.97.44-5.82.44-5.29,0-7.23-1.74-6.75-4.44.39-2.21,2.08-4.33,7.5-6.78-.18-1.02-.73-1.24-1.74-1.24s-3.21.74-6.24,2.84c-.38.25-.74.36-1.07.36-.81,0-1.39-.69-1.25-1.46.07-.41.34-.83.86-1.21,2.03-1.52,3.94-3.31,5.68-5.38-1.11.08-2.12.11-3.05.14-1.01.03-1.41-.72-1.29-1.43.12-.69.75-1.41,1.79-1.41,1.32,0,2.9-.08,4.54-.19.67-1.1,1.28-2.18,1.8-3.2.35-.69.99-.99,1.6-.99.78,0,1.45.5,1.32,1.27-.02.14-.05.28-.13.41-.39.77-.79,1.49-1.22,2.18,1.48-.14,2.91-.33,4.16-.55.12-.03.23-.03.34-.03.87,0,1.23.66,1.11,1.32-.11.61-.61,1.24-1.48,1.38-1.82.3-3.97.61-6.08.8-.9,1.13-1.78,2.18-2.61,3.06l.05.06Z" fill="#fff"/>
      <path d="m343.89,122.96c.76,0,1.04.63.93,1.24-.11.63-.62,1.27-1.37,1.27h-2.55l-.52,2.95c-.08.44-.19.91-.27,1.35h3.5c.76,0,1.03.66.91,1.32-.12.66-.63,1.32-1.38,1.32h-3.72c-.33,1.1-.75,2.18-1.21,3.23,1.46,1.08,3.02,2.7,3.92,4,.24.36.32.72.26,1.08-.14.8-.99,1.46-1.77,1.46-.42,0-.81-.19-1.1-.61-.64-.97-1.72-2.32-2.73-3.28-1.28,2.01-2.82,3.75-4.62,5.27-.46.39-.91.55-1.33.55-.81,0-1.37-.63-1.24-1.41.06-.36.3-.77.76-1.16,2.78-2.29,4.78-5.18,6.09-9.13h-4.03c-.73,0-1-.66-.89-1.32.12-.66.62-1.32,1.35-1.32h4.28c.09-.52.22-1.08.31-1.6l.48-2.7h-1.37c-.35.58-.73,1.13-1.13,1.63-.43.55-1,.77-1.48.77-.76,0-1.39-.52-1.26-1.27.04-.25.14-.5.36-.74,1.26-1.6,2.51-3.75,3.36-5.87.29-.69.9-.99,1.52-.99.73,0,1.4.47,1.26,1.3-.02.11-.07.25-.12.39-.3.74-.66,1.52-1.08,2.29h5.88Zm3.23,19.33c-2.18,0-3-1.08-2.67-2.95l2.46-13.95c.33-1.88,1.53-2.95,3.71-2.95h4.14c2.21,0,3,1.08,2.67,2.95l-2.46,13.95c-.36,2.07-1.67,2.95-3.71,2.95h-4.14Zm3.89-2.7c.59,0,.87-.19.99-.83l2.26-12.79c.11-.63-.11-.83-.69-.83h-2.69c-.56,0-.87.19-.99.83l-2.26,12.79c-.1.58.11.83.69.83h2.69Z" fill="#fff"/>
      <path d="m368.73,129.77c1.26-.47,2.56-.69,3.68-.69,4.37,0,6.81,2.34,6.13,6.18-.85,4.83-4.92,7.91-10.38,7.91-3.84,0-5.93-1.93-5.5-4.38.36-2.07,2.02-3.53,4.51-3.53,2.69,0,4.25,1.76,4.58,4.52,1.88-.83,3.14-2.43,3.51-4.49.35-1.96-.95-3.53-3.63-3.53-2.83,0-5.74.97-9.65,3.58-.45.3-.89.44-1.25.44-.87,0-1.44-.72-1.3-1.52.08-.44.36-.91.93-1.3,3.69-2.48,7.94-6.15,11.11-9.32-1.41.22-3.26.41-4.68.52-.11,0-.85.08-1.22.08-.9,0-1.27-.74-1.14-1.49.12-.69.69-1.38,1.62-1.43,2.29-.11,5.32-.47,8.08-.88.14-.03.26-.03.4-.03,1.15,0,1.79.8,1.63,1.74-.07.41-.32.85-.73,1.3-2.02,2.1-4.57,4.49-6.73,6.23l.04.08Zm-.03,10.64c-.16-1.76-.84-2.7-2.02-2.7-.59,0-1.09.47-1.2,1.08-.16.91.78,1.63,2.99,1.63h.22Z" fill="#fff"/>
    </g>
  </g>
</svg>