<?xml version="1.0" encoding="UTF-8"?>
<svg id="_レイヤー_2" data-name="レイヤー 2" xmlns="http://www.w3.org/2000/svg" viewBox="0 0 64.15 314.07">
  <g id="_デザイン" data-name="デザイン">
    <g>
      <path d="m60.05,76.54c0,.53-.4.99-1.32,1.58-1.39.79-1.39.99-1.39,2.9-.13,9.24.07,11.02-.33,16.37-1.06,13.79-5.54,17.82-10.82,18.02q-.2,0-.33-.33c-.59-1.25-5.68-3.96-7.26-5.02-3.89,4.22-8.51,7.26-9.44,7.26-.07,0-.13-.07-.13-.13,0-.26.53-.92,1.19-1.45,4.36-3.3,7.52-7.13,9.83-11.22-6.8,3.04-18.87,6.4-22.37,7.39-.4.13-.59.59-.92.59-.59,0-2.84-3.43-2.9-4.03,0-.13.13-.2.26-.2s.26.07.33.07c.46.13.92.13,1.39.13,1.72,0,6.2-.73,10.43-1.58,0-1.91.07-3.89.07-5.81-2.11.07-4.36.26-8.58.73h-.07c-1.12,0-2.84-2.31-2.84-2.97,5.02.4,8.65.66,11.48.66v-5.94h-5.08v1.12c0,.99-1.06,1.65-1.98,1.65-.66,0-1.19-.33-1.19-1.25v-.2c.46-4.62.59-9.83.59-12.87,0-.79-.26-4.16-.79-6.47-.07-.2-.07-.33-.07-.46,0-.07,0-.13.07-.13.4,0,3.89,1.78,4.55,2.38l.2.2h3.76v-4.88c-2.18,0-5.28.07-8.78.53h-.07c-.79,0-2.77-2.38-2.77-3.1,4.29.66,9.11.86,11.68.92,0-1.78-.07-3.7-.2-5.28-6.27.99-10.96,1.45-11.15,1.45-.33,0-.53-.13-.66-.26-1.12,2.05-2.31,4.03-3.43,6.01,3.83.79,4.16.92,4.16,1.52,0,.33-.46.73-1.25,1.06-1.72.86-1.78.66-1.85,3.37-.13,6.93-.33,15.18-.33,23.82,0,3.83,0,7.79.13,11.68v.07c0,1.72-1.85,2.44-2.38,2.44-.79,0-1.45-.53-1.45-1.91v-.4c.86-9.77,1.19-23.36,1.19-31.54v-7.19c-4.75,7.66-8.45,11.09-9.11,11.09-.13,0-.13-.07-.13-.13,0-.13.07-.4.26-.59,4.36-5.35,8.91-14.52,12.14-22.77.53-1.39.79-3.3.92-4.36.07-.26.07-.4.26-.4.4,0,4.36,1.72,5.21,2.38.2.2.4.46.4.73,0,.46-.46.99-1.85,1.45-.92.26-1.06.4-2.64,3.17l.46-.13c9.31-2.11,17.29-4.09,19.4-6.2.2-.2.33-.4.53-.4.07,0,3.3,2.38,3.3,3.83,0,.4-.26.59-.79.59-.33,0-.79-.07-1.32-.26-.13-.07-.33-.13-.53-.13s-.33.07-.53.13c-1.58.46-3.5.92-5.74,1.39,1.06.33,1.45.46,1.45.79,0,.26-.33.53-.79.79-.99.46-.99.53-1.06,3.89v.33h5.61s.33-.26.53-.53c.53-.86,1.45-1.85,2.05-2.31.13-.13.33-.2.46-.2.79,0,3.83,2.51,3.83,3.96,0,.4-.2.73-.92.73h-11.61v4.88h4.09c.33,0,.59-.2.79-.53.86-1.45,1.25-1.45,1.45-1.45.59,0,3.76,1.85,3.76,3.23,0,.86-.99,1.32-1.39,1.58-.73.53-.86.73-.86,4.09,0,2.64.26,6.27.46,9.11v.13c0,.92-.92,1.72-1.85,1.72-.59,0-1.19-.4-1.19-1.32v-.07l.07-.46h-5.35v5.87l4.29-.26s.53-.2.73-.53c.99-1.65,1.45-2.31,1.78-2.31.73,0,3.89,2.11,3.89,3.56,0,.4-.26.73-1.19.79l-9.5.33c0,1.78.07,3.5.07,5.28,3.76-.79,7.52-1.58,11.35-2.51,4.22-8.12,5.21-17.49,5.41-26.73-1.25.07-2.71.2-4.42.4h-.07c-1.06,0-2.57-2.51-2.57-3.3,2.57.33,5.02.59,7.13.73,0-3.56-.07-7.06-.07-10.49,0-2.57-.07-4.29-.26-5.41,0-.13-.07-.26-.07-.33,0-.13.07-.13.2-.13.53,0,6.07,1.39,6.07,2.51,0,.46-.59.92-1.25,1.25-.99.53-1.25.66-1.32,2.51-.13,3.43-.13,6.86-.26,10.23.86.07,1.52.07,2.05.07h2.24c.66,0,.86-.2.99-.53.13-.2.92-1.65,1.39-1.65.86,0,4.42,2.57,4.42,3.63Zm-33.66,2.71h-3.89l-.2.2c-.99.86-1.06.26-1.19,3.04v1.98h5.28v-5.21Zm0,6.8h-5.28c0,1.85.07,3.96.07,5.87h5.21v-5.87Zm2.57,0c0,1.91.07,3.83.07,5.87h5.35c.07-1.85.13-3.89.13-5.87h-5.54Zm5.35-6.2s0-.59-.66-.59h-4.62v5.21h5.41c0-1.72-.07-3.3-.13-4.62Zm20.19-1.98c0-.92-.53-.92-.86-.92h-4.75c-.46,12.14-1.98,23.69-10.03,32.8,2.77.79,5.02,1.39,6.93,1.39,4.69,0,8.65-3.3,8.65-21.32,0-10.96.07-11.29.07-11.81v-.13Z" fill="#003383"/>
      <path d="m35.5,178.44c-.66-8.98-7.99-19.07-11.15-22.57-1.32-1.52-1.91-3.04-1.91-4.62s.59-3.17,1.58-4.88c1.91-3.3,7.39-9.64,9.37-12.54.79-1.12,1.78-2.77,1.78-4.29,0-.66-.2-1.32-.66-1.91-.4-.46-.59-.86-.59-1.19,0-.4.26-.59.73-.59,1.45,0,4.69,2.44,4.69,5.15,0,2.05-1.72,3.7-2.31,4.49-2.44,3.1-8.78,8.25-11.09,12.34-.59,1.06-1.06,2.05-1.06,3.17,0,1.06.46,2.18,1.65,3.43,4.42,4.55,12.8,15.18,12.8,22.83,0,2.05-1.25,3.5-2.31,3.5-.73,0-1.39-.66-1.52-2.31Z" fill="#003383"/>
      <path d="m15.24,213.82c0,2.18-.07,4.42-.07,6.6,0,3.17.07,6.2.13,8.65,3.3-1.19,6.86-2.71,10.16-4.09.2-.07.33-.13.4-.13s.13.07.13.13c0,.86-13.07,7.52-19.34,10.49-.73.4-.99,1.12-1.45,1.12-.59,0-3.56-3.5-3.56-4.03,0-.13.13-.13.4-.13,4.42-.33,7.79-1.39,10.1-2.24,0-4.55.2-10.29.2-16.37-1.72,0-3.17.13-6.14.59h-.07c-.79,0-2.71-2.44-2.71-3.17,3.63.59,6.6.86,8.91.92,0-1.58-.07-3.23-.07-4.82,0-1.39-.07-6.67-.26-9.11-1.91.07-4.16.2-6.6.53h-.07c-.79,0-2.64-2.44-2.64-3.17,4.82.73,10.16.92,12.8.92h1.85c.2,0,.59-.2.79-.53,1.78-3.1,2.18-3.17,2.64-3.17,1.58,0,4.82,3.5,4.82,4.69,0,.4-.26.66-1.25.66h-7c.07.07.13.2.13.33,0,.33-.33.66-.79.86-1.12.53-1.19,1.06-1.25,2.84,0,1.45-.07,5.35-.13,9.96h1.12c.13,0,.53-.2.73-.53,1.45-2.57,2.11-3.3,2.44-3.3.13,0,.26.07.33.07,2.84,1.25,4.36,4.49,4.36,4.75,0,.4-.26.66-1.12.66h-7.92Zm24.48,33.06c0,.26-.07,1.72-1.98,1.72-.79,0-1.52-.46-1.52-1.39v-.2c.26-3.3.66-10.29.66-13.92,0-.73,0-1.39-.07-2.05-11.94,11.94-26.73,13.99-26.93,13.99-.4,0-.59-.07-.59-.2,0-.2.46-.53,1.45-.79,13.86-3.89,24.48-14.32,26.2-18.35h-5.41v1.06c0,1.25-1.12,2.11-2.05,2.11-.66,0-1.25-.46-1.25-1.52v-.4c.33-2.97.46-5.41.46-6.67,0-.66-.13-3.7-.59-5.68-.07-.2-.07-.26-.07-.33s0-.13.07-.13c0,0,2.38.73,4.88,2.11h15.64c.4,0,.79-.26.99-.59.86-1.32,1.52-1.32,1.58-1.32.86,0,4.69,2.44,4.69,3.43,0,.66-.92.99-1.39,1.25-1.06.59-1.19,1.06-1.19,1.91v.79c.07,1.85.26,3.23.33,4.16v.13c0,1.58-1.19,2.11-1.98,2.11s-1.52-.46-1.52-1.58v-.86h-9.24c.2.07.33.2.46.26.33.2.46.4.46.53,0,.2-.26.33-.53.46.99,3.04,2.77,5.87,5.02,8.32,4.62-2.77,6.67-5.74,7.26-6.73.07-.13.07-.2.2-.2.92,0,4.36,3.37,4.36,3.96,0,.33-.46.59-1.25.59-.26,0-.59,0-.92-.07-.26-.07-.53-.07-.79-.07-.33,0-.66.07-.99.2-.73.33-3.3,1.58-7.13,3.04,4.03,4.03,9.7,6.86,16.3,7.59.59.07.79.13.79.2,0,.4-4.09,1.06-6.27,2.51-.2.13-.33.2-.53.2-.13,0-11.09-2.51-17.03-19.2-.59.26-.66.73-1.58,1.72l-.2.2c2.71.73,2.9.79,2.9,1.32,0,.33-.33.66-.53.79-1.32.66-1.39.66-1.39,5.74,0,2.57.13,5.35.2,9.77v.07Zm1.65-35.44c-3.43,0-10.62.07-15.77.59h-.07c-1.12,0-2.97-2.24-2.97-3.04,5.94.92,15.51.92,19.07.92h11.48c.33,0,.73-.26.99-.59,2.31-2.71,2.57-2.71,2.84-2.71,1.19,0,5.15,3.1,5.15,4.03,0,.4-.33.79-1.45.79h-19.27Zm14.32-6.53c0,1.06-1.12,1.58-1.91,1.58-.66,0-1.32-.33-1.32-1.19v-.26h-22.57v.66c0,.86-1.12,1.45-2.05,1.45-.73,0-1.39-.33-1.39-1.19v-.13c.26-2.77.53-5.08.53-7.33,0-.53-.13-3.89-.59-6.27-.07-.26-.07-.4-.07-.53s.07-.13.13-.13.2,0,.4.07c.59.13,3.23,1.52,4.49,2.38h19.67c.33,0,.46-.07.73-.33.46-.46.86-1.06,1.25-1.32.13-.13.33-.2.53-.2,0,0,4.36,1.91,4.36,3.43,0,.79-.99,1.19-1.65,1.52-.53.26-.92.59-.92,1.98,0,1.25.26,2.9.4,5.74v.07Zm-20.26-1.52c.07-1.19.07-2.57.07-4.49,0-1.32,0-2.24-.13-3.23h-4.16c-.13.13-.33.2-.53.33-.99.59-.92.2-.99,1.78v.86c0,1.39.07,3.17.13,4.75h5.61Zm-2.11,14.58c-1.65.79-1.65.86-1.78,2.57v3.5h18.74c0-.46.07-.86.07-1.39,0-.92-.07-2.11-.2-4.03,0,0-.2-.66-.86-.66h-15.97Zm10.23-14.58c0-1.25.13-2.51.13-4.49,0-1.32,0-2.24-.13-3.23h-3.5c-.13.33-.66.66-1.25.79-.33.07-.4.66-.4,1.32v5.61h5.15Zm8.98,0c0-1.12.07-2.24.07-3.37,0-1.52-.07-2.84-.13-3.83,0-.07-.33-.53-.73-.53h-3.5c-.13.33-.59.66-1.19.79-.33.07-.4.66-.4,1.32,0,2.24-.07,3.37-.07,5.61h5.94Z" fill="#003383"/>
      <path d="m15.24,273.81c0,6.67.07,14.65.07,18.54,3.96-1.72,8.12-3.63,10.63-5.08.2-.13.4-.2.53-.2s.26.07.26.2c0,1.12-15.05,9.83-20.33,12.41-.66.33-.66.92-.99.92-.66,0-3.5-3.37-3.5-3.96,0-.07.07-.07.07-.07,3.43,0,7.06-1.52,10.16-2.84.07-4.09.13-13,.13-19.93-2.51.13-4.62.53-6.93.66h-.07c-1.12,0-3.04-2.31-3.04-3.17v-.07c5.02.59,7.52.86,10.03.92,0-1.85-.07-3.5-.07-4.82-.07-2.57-.07-6.47-.73-10.3v-.26c0-.07,0-.13.07-.13.73,0,6.8,1.39,6.8,2.71,0,.53-.66,1.06-1.65,1.45-1.06.46-1.45.92-1.45,11.42h2.51c.4,0,.53-.26.73-.59,1.98-2.84,2.38-2.97,2.71-2.97.13,0,.26.07.4.07,1.65.66,4.29,3.1,4.29,4.29,0,.4-.33.79-1.25.79h-9.37Zm-.66,40.12c-.79.07-1.45.13-1.85.13-.46,0-.73-.07-.73-.13,0-.2.99-.59,2.31-.86,8.38-1.65,15.97-4.22,19.73-12.01.92-1.91,1.06-3.37,1.12-4.03.07-.33.07-.46.4-.46s2.57.46,3.76.79c.4.07.66.33.66.66s-.33.79-1.12.99c-.79.2-.66,0-1.58,1.98-4.09,9.11-13.46,11.81-22.7,12.93Zm24.35-36.49c-3.63,0-9.9,0-15.71.53h-.07c-1.12,0-2.64-2.38-2.64-3.1,6.67.73,13.99.92,17.75.92h3.56l.2-.26c2.05-3.3,2.57-5.87,2.9-7.52.07-.46.07-.66.2-.66.26,0,5.41,2.44,5.41,3.7,0,.4-.4.66-1.19.66-.26,0-.53,0-.79-.07h-.2c-.53,0-.86.26-1.39.73-.66.59-3.17,2.57-4.29,3.43h9.77c.13,0,.59-.2.79-.53.66-.99,2.11-2.97,2.84-2.97,1.58,0,5.48,3.17,5.48,4.29,0,.46-.33.86-1.45.86h-21.18Zm-.33-10.96c-3.37,0-7.06.07-12.54.59h-.07c-1.19,0-2.51-2.44-2.51-3.17,6.14.73,11.61.92,15.11.92v-1.58c-.07-2.9-.07-4.22-.53-5.94-.07-.26-.13-.4-.13-.46s.07-.13.13-.13c.33,0,6.4.66,6.4,2.05,0,.33-.26.73-.79,1.06-1.72,1.19-2.05.2-2.05,2.77v2.24h7.99c.13,0,.59-.2.79-.53.4-.73,1.91-2.77,2.64-2.77,1.72,0,5.15,3.1,5.15,4.09,0,.4-.4.86-1.45.86h-18.15Zm14.25,30.62c0,1.19-.92,1.98-1.72,1.98-.66,0-1.25-.53-1.25-1.65v-1.12h-4.36c.79.2.99.4.99.59,0,.33-.4.59-.79.73-.79.26-.99.73-.99,7.98,0,3.96.26,4.03,5.61,4.03,1.19,0,2.44-.07,3.23-.13,3.1-.33,3.37-5.08,4.36-8.32,0-.13.07-.13.13-.13.4,0,1.06,6.86,2.05,7.19.73.2,1.06.66,1.06,1.12,0,.59-.4,2.9-12.54,2.9-4.49,0-6.8-.92-6.8-3.63,0-.66.2-7.06.2-8.84v-.46c-.07-.26,0-2.31-.13-3.04h-11.75c0,.66.07,1.25.07,1.85v.07c0,1.06-1.06,1.58-1.85,1.58-.66,0-1.25-.4-1.25-1.32v-.2c.33-4.09.46-7.72.53-10.16,0-.86-.2-5.68-.66-7.79v-.13c0-.13.07-.26.26-.26.07,0,.13,0,.26.07.46.2,2.97.99,4.16,1.98l.2.13h16.63c.33,0,.59-.13.79-.4.79-.92,1.12-1.32,1.72-1.32.4,0,3.04,1.58,3.63,2.51.26.33.33.59.33.86,0,.73-.92,1.06-1.45,1.32-.79.33-1.06.66-1.06,2.64v.79c0,2.84.26,6.27.4,8.45v.13Zm-21.18-13.2c-.13.07-.26.13-.4.26-.86.66-.99.46-1.12,3.1,0,.2-.07.46-.07.73h19.93c0-1.12-.07-2.24-.13-3.43,0-.07-.07-.66-.59-.66h-17.62Zm-1.58,5.87c0,1.39.07,3.04.07,4.75h19.8c0-1.72.07-3.3.07-4.75h-19.93Zm.33-21.51c2.97,0,7,1.98,7,4.82,0,1.25-.79,2.18-1.72,2.18-.66,0-1.32-.53-1.78-1.85-.53-1.52-2.11-3.56-3.17-4.69-.26-.26-.4-.4-.4-.46h.07Z" fill="#003383"/>
      <path d="m45.57,35h-28V7h28v28Z" fill="none" stroke="#424d6f" stroke-miterlimit="10"/>
      <polygon points="20.57 15.96 31.47 22.16 51.57 0 32.03 29 20.57 15.96" fill="#003383"/>
    </g>
  </g>
</svg>