<?xml version="1.0" encoding="UTF-8"?>
<svg id="_レイヤー_2" data-name="レイヤー 2" xmlns="http://www.w3.org/2000/svg" viewBox="0 0 95.14 145.58">
  <g id="_デザイン" data-name="デザイン">
    <g>
      <path id="Path_3453" data-name="Path 3453" d="m75.83,145.58s-.43-3.51-2.13-4.19c-1.71-.68-5.54-1.3-5.79-4.19h-10.77v8.38h18.7Z" fill="#000f3c"/>
      <path id="Path_3456" data-name="Path 3456" d="m37.96,142.89s1.77-3.06.82-4.63c-.96-1.57-3.64-4.37-2.11-6.83l-8.6-6.48-5.04,6.69,14.93,11.25Z" fill="#000f3c"/>
      <path id="Path_3459" data-name="Path 3459" d="m78.78,82.71s.75,3.62,3.13,4.64c2.38,1.02,3.77,4.33,3.24,5.76-.53,1.43-2.2,1.05-2.86.45-.66-.6-2.59-2.85-3.41-1.06s-5.05-6.51-5.38-8.15l5.28-1.64Z" fill="#00559a"/>
      <path id="Path_3460" data-name="Path 3460" d="m68.47,86.02l-5.18-30.01-13.25-5.87-16.46,34.09,34.9,1.79Z" fill="#adadad"/>
      <path id="Path_3461" data-name="Path 3461" d="m61.02,73.23s4.02,8.82,5.32,10.22c1.35,1.45,7.4,8.31,7.4,8.31l9.28-9.04s-10.54-16.16-11.02-16.66c-2.53-2.61-4.18-9.7-12.18-15.47" fill="#e26067"/>
      <path id="Path_3462" data-name="Path 3462" d="m66.48,86.18s-2.08-31.07-3.87-33.1c-1.79-2.03-5.46-5.02-10.15-5.02s-18.4,4.8-19.27,23.56c-.87,18.76,1.65,17.06,1.65,17.06l31.64-2.5Z" fill="#00559a"/>
      <path id="Ellipse_258" data-name="Ellipse 258" d="m54.27,35.38c2.73,0,4.95,2.22,4.95,4.95s-2.22,6.84-4.95,6.84-4.95-4.1-4.95-6.84,2.22-4.95,4.95-4.95Z" fill="#00559a"/>
      <path id="Path_3464" data-name="Path 3464" d="m54.41,101.72s5.99,12.89-1.02,20.58c-2.31,2.54-13.39,12.31-13.39,12.31l-13.95-10.66s17.01-21.9,19.74-23.35c2.76-1.47-1.61-6.72-1.61-6.72l10.24,7.83Z" fill="#000f3c"/>
      <path id="Path_3466" data-name="Path 3466" d="m59.83,50.58c1.02.73,1.96,1.57,2.79,2.51,1.57,1.79,5.69,31.69,5.69,31.69l-.28,2.15c-7.15-5.71-13.02-13.59-11.99-22.46.4-3.44,1.89-9.63,3.79-13.88Z" fill="#e26067"/>
      <path id="Path_3467" data-name="Path 3467" d="m45.8,83.82l20.2,2.22,2.95,24.42-24.78-10.34,1.64-16.3Z" fill="#000f3c"/>
      <path id="Path_3468" data-name="Path 3468" d="m39.55,79.71s-9.56,40.1,13.99,33.83l1.46,23.67h17.55v-16.85s-.07-3.15-.84-9.8c-.48-4.14-3.84-15.04-13.46-18.02-8.78-2.72-18.7-12.83-18.7-12.83Z" fill="#000f3c"/>
      <path id="Path_3469" data-name="Path 3469" d="m32.15,71.61c.64-14.64,9.88-20.65,15.81-22.65,8.54,7.21,16.12,32.31,11.12,43.85-2.85,6.58-12.24,2.39-21.73,3.97-2.09-3.49-3.51-7.19-4.03-9.66-.1-.41-1.59-5.87-1.17-15.51Z" fill="#e26067"/>
      <path id="Path_3470" data-name="Path 3470" d="m57.4,68.04s-9.34,26.65,12.17,30.94l-2.37-28.09-9.8-2.85Z" fill="#e26067"/>
      <path id="Path_3471" data-name="Path 3471" d="m42.04,101.72v-1.09c0-2.42-1.96-4.37-4.38-4.37h-9.3c-2.42,0-4.37,1.96-4.37,4.37v1.09h-8.22v22.96h34.49v-22.96h-8.22Zm-14.97-1.1c0-.72.58-1.29,1.3-1.3h9.3c.72,0,1.3.58,1.3,1.3v1.09h-11.89v-1.09Z" fill="#c81212"/>
      <rect id="Rectangle_1180" data-name="Rectangle 1180" x="15.77" y="113.2" width="34.49" height="11.48" fill="#800900"/>
      <path id="Path_3472" data-name="Path 3472" d="m29.12,88.62s1.62,3.32.36,5.59-1.1,6.17,1.47,6.69c1.49.3,3.12-2.77,3.28-3.65s.46-.86.8-.82c1.96.21,0-8.23-.73-9.74l-5.18,1.94Z" fill="#00559a"/>
      <path id="Path_3473" data-name="Path 3473" d="m34.56,61.02s-7.63,13.58-7.59,29.71l15.3,1.81,3.81-26.29-11.52-5.23Z" fill="#e26067"/>
      <path d="m86.96,35.4h2.52c.07.77.5,1.27,1.25,1.87,2.39,1.95,4.42,3.92,4.42,6.36,0,2.79-1.9,3.89-3.24,4.39l-1.07-1.47c.7-.32,1.4-.82,1.4-1.97s-.9-2.2-2.64-3.52v8.31c0,4.14-2.25,6.41-5.16,6.41-1.15,0-3.27-.72-3.27-3.02,0-2.07,1.67-3.42,5.81-3.42v-13.94Z" fill="#c81212"/>
      <path d="m12.14,56.73l-6.37-.57-.58-2.38,6.37.59.58,2.36Zm-10.35-6.1l3.41,13.9c-.51-.04-1.47.11-2.01.24-5.16,1.27-3.62,7.55,1.54,6.28,2.22-.54,4.09-2.49,3.66-4.23l-1.91-7.8,6.36.53,1.4,5.69c-.51-.04-1.47.11-2.01.24-5.16,1.27-3.62,7.55,1.54,6.28,2.22-.54,4.09-2.49,3.66-4.23l-3.08-12.55-.48-1.95-.37-1.5-11.71-.92Z" fill="#c81212"/>
      <path d="m47.25,12.5l-.91,5.79c-.46-.23-1.4-.47-1.95-.55-5.25-.82-6.25,5.57-1,6.39,2.26.35,4.74-.72,5.01-2.49l2-12.77.31-1.99.24-1.52L40.51,0l-2.22,14.14c-.46-.23-1.4-.47-1.95-.55-5.25-.82-6.25,5.57-1,6.39,2.26.35,4.74-.72,5.01-2.49l1.24-7.94.46-2.92.38-2.42,5.65,3-.38,2.4-.45,2.88Z" fill="#003383"/>
    </g>
  </g>
</svg>