<?xml version="1.0" encoding="UTF-8"?>
<svg id="_レイヤー_2" data-name="レイヤー 2" xmlns="http://www.w3.org/2000/svg" viewBox="0 0 58.27 279.09">
  <g id="_デザイン" data-name="デザイン">
    <g>
      <path d="m31.94,107.95c0,2.38-1.12,3.7-2.24,3.7-.99,0-1.98-1.12-1.98-3.5-.07-5.28-1.72-11.29-9.77-24.75-.33-.59-.73-1.25-1.19-1.91-6.07,4.82-8.12,6.14-11.15,6.14-3.56,0-5.61-2.97-5.61-3.7,0-.33.13-.53.59-.53.2,0,.4.07.73.13,1.12.4,2.18.53,3.23.53,3.37,0,5.68-1.52,10.62-4.95-1.72-2.44-3.56-4.75-4.42-5.54-1.45-1.32-2.05-2.57-2.05-3.63,0-1.72,1.45-4.88,7.99-4.88,2.38,0,5.15.2,7.06.2s3.76-.07,3.76-1.78c0-.66-.26-1.45-.79-2.57-.13-.33-.26-.53-.26-.59,0-.13.07-.13.2-.13,1.06,0,5.15,2.31,5.15,5.15,0,.13-.13,3.37-3.23,3.37-1.06,0-2.24-.33-3.23-.59-4.22-1.06-7.06-1.72-9.11-1.72-3.3,0-4.36,1.91-4.36,2.97,0,1.98,2.24,5.08,4.82,8.71,6.86-4.75,15.05-10.1,23.76-10.1,9.64,0,12.93,5.41,12.93,9.5,0,6.27-6.07,10.16-13.07,10.16-9.83,0-15.18-8.51-15.18-9.7,0-.13.07-.2.13-.2.26,0,.92.46,1.58,1.25,3.7,4.22,8.18,5.54,12.27,5.54,7.19,0,10.76-3.96,10.76-7.79,0-4.16-4.03-6.8-9.31-6.8-7.79,0-15.51,5.35-22.37,10.43,7.66,11.48,13.73,21.38,13.73,27.59Z" fill="#003383"/>
      <path d="m35.57,146.3c0-8.38-2.84-16.37-7.33-16.37-3.89,0-7.79,5.87-7.79,13.33,0,4.03,1.45,7,1.91,8.05.26.53.33,1.12.33,1.72,0,1.45-.66,2.77-1.58,2.77s-4.09-3.56-4.09-10.56c0-1.91.2-3.89.59-5.81.4-2.24,2.38-9.5,2.38-14.19,0-1.98-.33-3.5-1.32-3.96-.4-.2-.73-.53-.73-.86,0-.26.92-.92,1.65-.92.79,0,3.17.79,3.17,5.21,0,.66-.07,1.45-.2,2.31-.4,2.9-2.05,8.45-2.38,10.16-.07.46-.13.79-.13.92s0,.2.07.2.2-.33.4-1.19c1.65-6.4,5.21-9.7,8.78-9.7,6.73,0,9.83,10.62,9.83,18.87,0,21.18-17.88,31.41-20.52,31.41-.13,0-.26-.07-.26-.13,0-.26.73-.86,2.31-1.85,7.59-4.62,14.91-16.43,14.91-29.43Z" fill="#003383"/>
      <path d="m9.17,206.3c-1.52,0-5.08-.66-5.08-4.88,0-1.32.13-1.78.46-1.78.26,0,.59.4,1.06.99.99,1.32,2.57,1.72,4.22,1.72,3.1,0,6.14-.92,9.04-1.91.86-2.57,1.39-5.68,1.39-7.72s-.53-3.5-2.18-3.76c-.66-.13-1.32-.46-1.32-.99,0-.66,2.11-1.91,3.76-1.91,2.71,0,3.3,2.97,3.3,4.16,0,1.85-1.06,6.01-2.05,8.58-.07.26-.2.53-.33.79,1.52-.53,2.9-.99,4.42-.99,6.34,0,6.47,7.99,6.47,10.82,0,13.66-7.79,20.66-14.19,20.66-1.06,0-2.05-.2-2.84-.46-2.44-.86-1.72-3.23-2.18-5.02-.26-.99-.4-1.65-.4-2.05,0-.26.07-.4.2-.4.26,0,.79.59,1.65,1.78,1.19,1.72,2.84,2.84,4.75,2.84,5.81,0,10.1-9.37,10.1-18.35,0-5.15-1.45-7.92-4.03-7.92-1.25,0-1.91.2-5.21,2.18-3.04,7-8.32,17.49-12.47,25.21-.92,1.58-2.64,3.3-3.96,3.3-.66,0-1.12-.4-1.12-1.19,0-1.06.79-2.51,1.65-3.83,2.64-3.96,9.83-14.45,13.4-22.7-5.61,2.57-7.33,2.84-8.51,2.84Zm40.39,10.1c-.4-.2-1.19-.2-2.51-.2-4.69,0-5.68,0-5.68-.33,0-.2.66-.4,1.65-.59,2.84-.59,7.79-1.06,7.79-5.28,0-5.41-5.61-7.19-9.04-8.45-1.45-.53-1.98-.86-1.98-.99s.33-.2.79-.2c8.32,0,13.99,5.28,13.99,10.29,0,3.76-2.38,5.94-4.09,5.94-.33,0-.66-.07-.92-.2Zm-1.12-19.14c-1.98-1.91-4.49-3.17-6.34-4.03-.4-.2-.99-.4-.99-.53,0-.4,2.57-.4,2.71-.4,3.76,0,7.72,1.19,7.72,3.96,0,.99-.66,1.78-1.52,1.78-.46,0-1.06-.26-1.58-.79Zm6.73-3.76c-2.05-1.85-4.55-3.04-6.47-3.83-.46-.2-1.06-.33-1.06-.53,0-.26,1.65-.46,3.17-.46,5.81,0,7.46,2.38,7.46,3.89,0,.92-.59,1.65-1.52,1.65-.46,0-.99-.2-1.58-.73Z" fill="#003383"/>
      <path d="m23.76,276.52c0,.73-.2,2.57-3.23,2.57-2.31,0-4.95-1.39-6.6-2.84-6.14-5.21-7.39-11.55-7.39-18.41,0-2.51.2-5.08.33-7.66.07-.66.07-1.32.07-1.91,0-1.25-.07-2.31-.26-3.37,0-.2-.07-.33-.07-.46,0-.4.13-.59.4-.59.13,0,3.83.92,3.83,5.54,0,.79-.13,1.58-.26,2.24-.53,2.24-.99,5.35-.99,8.58,0,12.41,7.46,13.86,8.32,13.86,1.06,0,1.72-.59,2.18-1.39,1.32-2.31,2.84-6.4,3.96-8.98.59-1.32.86-1.78.99-1.78s.13.13.13.4c0,.53-.2,1.52-.26,1.85-.26,1.65-1.06,4.55-1.39,8.65v.73c0,1.19.2,1.91.26,2.77v.2Zm23.69-13.13c-.53-6.14-4.82-11.35-10.63-12.8-1.98-.46-2.9-.92-2.9-1.19,0-.2.46-.33,1.25-.33,8.98,0,16.37,7.33,16.37,13.59,0,2.05-1.12,3.1-2.18,3.1-.92,0-1.78-.79-1.91-2.38Z" fill="#003383"/>
      <path d="m40.29,35H12.29V7h28v28Z" fill="none" stroke="#424d6f" stroke-miterlimit="10"/>
      <polygon points="15.29 15.96 26.19 22.16 46.29 0 26.75 29 15.29 15.96" fill="#003383"/>
    </g>
  </g>
</svg>