<?xml version="1.0" encoding="UTF-8"?>
<svg id="_レイヤー_2" data-name="レイヤー 2" xmlns="http://www.w3.org/2000/svg" viewBox="0 0 80.19 129.15">
  <g id="_デザイン" data-name="デザイン">
    <g>
      <path id="Path_2545" data-name="Path 2545" d="m14.82,47.22c-1.7-1.06-12.42-4.23-11.53-2.03s-.69-.62-1.76-.53c-1.07.08-2.04,2.35-1.23,3.99.81,1.64,3.01,4.16,5.87,2.93,2.85-1.23,5.72,1.59,5.72,1.59l2.93-5.95Z" fill="#00559a"/>
      <path id="Path_2546" data-name="Path 2546" d="m28.54,43.78c-4,0-16.21-1.07-16.21-1.07l-1.42,13.77s11.63,3.3,16.27,3.53c2.3.11,12.25-6.96,12.25-6.96l-10.88-9.27Z" fill="#c4bb6a"/>
      <path id="Path_2546-2" data-name="Path 2546" d="m26.54,45.78c3-5,4.73-12.97,14.32-19.89l-1.43,27.16s-4.88,5.73-6.88,7.73l-6-15Z" fill="#c4bb6a"/>
      <path d="m69.06,70.85l-23-5.68-14.78,3.26-3.34,51.41h19.57l1.5-45.56h-2.38s-.24,18.88,3.27,26.95c4.27,9.8,11.69,18.3,11.69,18.3l15.11-14.88s-6.95-9.85-7.89-11.41.25-22.39.25-22.39Z" fill="#000f3c"/>
      <path id="Path_2547" data-name="Path 2547" d="m66.62,61.56s3.02,12.05,1.98-10.44c-1.04-22.49-13.29-28.25-18.92-28.25s-10.03,3.58-12.17,6.02c-2.14,2.44-4.64,29.68-4.64,29.68l33.75,3Z" fill="#00559a"/>
      <path id="Ellipse_180" data-name="Ellipse 180" d="m53.45,12.19c0,3.28-2.66,8.56-5.94,8.56-3.28,0-5.94-5.28-5.94-8.56s2.66-5.94,5.94-5.94c3.28,0,5.94,2.66,5.94,5.94Z" fill="#00559a"/>
      <path id="Path_2550" data-name="Path 2550" d="m36.53,29.57c1-1.13,3.09-2.81,4.32-3.68,7.1,12.26,11.47,52.25-10.06,46.27-1-7.11,2.52-25.23,5.74-42.59Z" fill="#c4bb6a"/>
      <path id="Path_2552" data-name="Path 2552" d="m41.55,65.94c-1.95-14.37,4.79-34.61,13.53-41.99,7.11,2.39,15.27,8.4,16.04,25.95.51,11.56-1.28,23.01-1.4,23.5l-20.44-.34c-3.93-.26-7.2-3.22-7.73-7.12Z" fill="#c4bb6a"/>
      <g>
        <rect id="Rectangle_370" data-name="Rectangle 370" x="6.73" y="0" width="20.13" height="20.13" fill="#705a92"/>
        <rect id="Rectangle_371" data-name="Rectangle 371" x="12.32" y="5.59" width="2.98" height="2.98" fill="#fff"/>
        <rect id="Rectangle_372" data-name="Rectangle 372" x="18.28" y="5.59" width="2.98" height="2.98" fill="#fff"/>
        <rect id="Rectangle_373" data-name="Rectangle 373" x="12.32" y="11.56" width="2.98" height="2.98" fill="#fff"/>
        <rect id="Rectangle_374" data-name="Rectangle 374" x="18.28" y="11.56" width="2.98" height="2.98" fill="#fff"/>
        <rect id="Rectangle_376" data-name="Rectangle 376" x="2.3" y="20.1" width="28.98" height="28.98" fill="#be5a92"/>
        <rect id="Rectangle_377" data-name="Rectangle 377" x="9.34" y="33.1" width="2.98" height="2.98" fill="#fff"/>
        <rect id="Rectangle_378" data-name="Rectangle 378" x="15.3" y="33.1" width="2.98" height="2.98" fill="#fff"/>
        <rect id="Rectangle_379" data-name="Rectangle 379" x="9.34" y="39.06" width="2.98" height="2.98" fill="#fff"/>
        <rect id="Rectangle_380" data-name="Rectangle 380" x="15.3" y="39.06" width="2.98" height="2.98" fill="#fff"/>
        <rect id="Rectangle_381" data-name="Rectangle 381" x="21.26" y="33.1" width="2.98" height="2.98" fill="#fff"/>
        <rect id="Rectangle_382" data-name="Rectangle 382" x="21.26" y="39.06" width="2.98" height="2.98" fill="#fff"/>
        <rect id="Rectangle_383" data-name="Rectangle 383" x="9.34" y="27.13" width="2.98" height="2.98" fill="#fff"/>
        <rect id="Rectangle_384" data-name="Rectangle 384" x="15.3" y="27.13" width="2.98" height="2.98" fill="#fff"/>
        <rect id="Rectangle_385" data-name="Rectangle 385" x="21.26" y="27.13" width="2.98" height="2.98" fill="#fff"/>
      </g>
      <path id="Path_3527" data-name="Path 3527" d="m21.67,128.04s.45-3.69,2.24-4.4c1.79-.71,8.16-1.37,8.43-4.4h13.1v8.81h-23.77Z" fill="#000f3c"/>
      <path id="Path_3527-2" data-name="Path 3527" d="m62.9,129.15s-2.21-2.99-1.39-4.74c.82-1.75,5-6.6,3.11-8.99l9.53-8.99,6.04,6.41-17.29,16.31Z" fill="#000f3c"/>
      <path id="Path_2553" data-name="Path 2553" d="m39.37,50.86c-1.22-1.6-9.25-8.21-10.07-5.98-.14.38-.29.72-1.31.42s-5.19-.19-5.66,1.57c-.82,3.04,3.29,5.29,6.39,5.15,3.1-.14,5.8,3.37,5.8,3.37l4.84-4.53Z" fill="#00559a"/>
      <path id="Path_2554" data-name="Path 2554" d="m57.63,51.29c.39,4.25-2.22,8.8-6.42,9.46-4.19.67-20.63-4.1-20.63-4.1l4.6-11.25s22.05,1.63,22.45,5.89Z" fill="#c4bb6a"/>
    </g>
  </g>
</svg>