<?xml version="1.0" encoding="UTF-8"?>
<svg id="_レイヤー_2" data-name="レイヤー 2" xmlns="http://www.w3.org/2000/svg" viewBox="0 0 94.18 115.52">
  <g id="_デザイン" data-name="デザイン">
    <g>
      <rect x="60.94" y="59.49" width="9.77" height="7.33" transform="translate(-25.24 57.76) rotate(-40.42)" fill="none" stroke="#c81212" stroke-miterlimit="10" stroke-width=".82"/>
      <rect x="63.24" y="59.64" width="24.28" height="29.47" transform="translate(-30.23 66.63) rotate(-40.42)" fill="#c81212"/>
      <g>
        <path id="Path_3453" data-name="Path 3453" d="m55.66,115.52s-.44-3.61-2.19-4.3c-1.75-.69-5.69-1.34-5.95-4.3h-11.05v8.6h19.19Z" fill="#000f3c"/>
        <path id="Path_3456" data-name="Path 3456" d="m16.78,112.76s1.82-3.14.84-4.75-3.74-4.49-2.17-7.01l-8.83-6.65-5.17,6.87,15.33,11.55Z" fill="#000f3c"/>
        <path id="Path_3459" data-name="Path 3459" d="m59.81,52.3s1.28,3.57,3.84,4.27c2.57.7,3.12,2.44,2.78,3.97-.33,1.53-2.09,1.38-2.85.86-.76-.51-1.4-.71-2.66.54-1.44,1.42-5.68-5.6-6.26-7.22l5.14-2.42Z" fill="#00559a"/>
        <path id="Path_3460" data-name="Path 3460" d="m48.1,54.37l-5.32-30.81-13.6-6.02L12.28,52.53l35.82,1.84Z" fill="#adadad"/>
        <path id="Path_3461" data-name="Path 3461" d="m40.45,41.24s4.12,9.05,5.47,10.49c1.39,1.49,7.59,8.53,7.59,8.53l9.53-9.28s-10.82-16.59-11.31-17.1c-2.6-2.68-4.29-9.96-12.51-15.88l1.23,23.25Z" fill="#d38522"/>
        <path id="Path_3462" data-name="Path 3462" d="m46.06,54.53s-2.14-31.89-3.97-33.98c-1.83-2.09-5.6-5.15-10.42-5.15s-18.89,4.93-19.78,24.19,1.69,17.51,1.69,17.51l32.48-2.57Z" fill="#00559a"/>
        <path id="Ellipse_258" data-name="Ellipse 258" d="m33.52,2.38c2.81,0,5.08,2.28,5.08,5.08s-2.28,7.02-5.08,7.02-5.08-4.21-5.08-7.02,2.28-5.08,5.08-5.08Z" fill="#00559a"/>
        <path id="Path_3464" data-name="Path 3464" d="m33.66,70.49s6.15,13.23-1.05,21.13c-2.38,2.61-13.75,12.64-13.75,12.64l-14.32-10.94s17.46-22.48,20.27-23.97c2.83-1.51-1.66-6.9-1.66-6.9l10.52,8.04Z" fill="#000f3c"/>
        <path id="Path_3466" data-name="Path 3466" d="m39.22,17.99c1.05.75,2.01,1.61,2.87,2.57,1.61,1.83,5.84,32.53,5.84,32.53l-.29,2.21c-7.34-5.87-13.37-13.95-12.31-23.06.41-3.53,1.95-9.88,3.89-14.25Z" fill="#d38522"/>
        <path id="Path_3467" data-name="Path 3467" d="m24.83,52.12l20.73,2.28,3.03,25.08-25.44-10.61,1.68-16.74Z" fill="#000f3c"/>
        <path id="Path_3468" data-name="Path 3468" d="m18.41,47.89s-9.81,41.17,14.36,34.73l1.5,24.3h18.02v-17.3s-.08-3.23-.86-10.06c-.49-4.25-3.94-15.44-13.81-18.5-9.01-2.79-19.19-13.17-19.19-13.17Z" fill="#000f3c"/>
        <path id="Path_3469" data-name="Path 3469" d="m10.81,39.58c.66-15.03,10.14-21.2,16.23-23.25,8.77,7.4,16.55,33.17,11.41,45.02-2.93,6.76-12.56,2.45-22.31,4.07-2.15-3.59-3.6-7.38-4.14-9.92-.1-.42-1.63-6.02-1.2-15.92Z" fill="#d38522"/>
        <path id="Path_3470" data-name="Path 3470" d="m36.74,35.91s-9.59,27.36,12.5,31.76l-2.44-28.84-10.06-2.93Z" fill="#d38522"/>
      </g>
      <path d="m28.14,5.38c0-2.97,2.41-5.38,5.38-5.38s5.38,2.41,5.38,5.38h-10.76Z" fill="#c81212"/>
      <rect x="25.39" y="4.43" width="16.27" height=".95" fill="#c81212"/>
      <path d="m27.04,16.33s4.94,5.66,12.18,1.65l1.51,13.16-18.22,6.93,4.53-21.75Z" fill="#d38522"/>
      <path d="m26.07,58.73l-3.26-2.46c3.59-4.76,12.65-29.45,15.83-38.56l3.52,2.16c-.48,1.36-11.38,32.61-16.09,38.86Z" fill="#008688"/>
      <polygon points="27.51 74.83 0 65.81 5.21 43.38 33.52 51.4 27.51 74.83" fill="#008688"/>
      <path id="Path_3472" data-name="Path 3472" d="m7.7,57.04s1.66,3.41.37,5.73c-1.29,2.33-1.13,6.33,1.51,6.86,1.53.31,3.2-2.84,3.37-3.74s.47-.88.82-.84c2.01.22,0-8.45-.75-10l-5.32,1.99Z" fill="#00559a"/>
      <path id="Path_3473" data-name="Path 3473" d="m13.28,28.7s-7.84,13.94-7.79,30.5l15.71,1.86,3.91-26.99-11.83-5.37Z" fill="#d38522"/>
    </g>
  </g>
</svg>