<?xml version="1.0" encoding="UTF-8"?>
<svg id="_レイヤー_2" data-name="レイヤー 2" xmlns="http://www.w3.org/2000/svg" viewBox="0 0 72.4 49.1">
  <g id="_デザイン" data-name="デザイン">
    <g>
      <path d="m28.43,6.17c3.64,4.34,5.95,10.64,5.95,18.34s-2.31,14-5.95,18.34c-3.36,3.99-7.42,5.74-10.99,5.74s-7.63-1.75-10.99-5.74C2.81,38.51.5,32.21.5,24.51S2.81,10.51,6.45,6.17C10.23,1.62,14.43.5,17.44.5s7.21,1.12,10.99,5.67Zm-2.31,34.86c3.01-3.71,5.04-9.1,5.04-16.52s-2.03-12.81-5.04-16.52c-1.68-2.1-4.55-4.69-8.68-4.69s-7,2.59-8.68,4.69c-3.01,3.71-5.04,9.03-5.04,16.52s2.03,12.81,5.04,16.52c3.43,4.27,7.07,4.76,8.68,4.76s5.25-.49,8.68-4.76Z" fill="#000f3c" stroke="#000f3c" stroke-miterlimit="10"/>
      <path d="m42.92,47.83l17.92-19.74c1.61-1.82,3.43-3.78,5.11-6.3,1.33-2.03,2.73-4.69,2.73-7.98,0-5.88-4.41-10.5-10.85-10.5-2.52,0-5.6.63-8.05,3.43-1.4,1.54-2.73,4.2-2.73,7.63h-3.08c0-4.2,1.61-7.63,3.71-9.8,2.03-2.1,5.32-4.06,10.36-4.06,8.05,0,13.86,5.74,13.86,13.3,0,3.99-1.54,7.07-3.36,9.59-1.05,1.47-2.8,3.57-4.13,5.04l-14.98,16.59h22.26v2.8h-28.77Z" fill="#000f3c" stroke="#000f3c" stroke-miterlimit="10"/>
    </g>
  </g>
</svg>