<?xml version="1.0" encoding="UTF-8"?>
<svg id="_レイヤー_2" data-name="レイヤー 2" xmlns="http://www.w3.org/2000/svg" viewBox="0 0 61.34 49.1">
  <g id="_デザイン" data-name="デザイン">
    <g>
      <path d="m28.43,6.17c3.64,4.34,5.95,10.64,5.95,18.34s-2.31,14-5.95,18.34c-3.36,3.99-7.42,5.74-10.99,5.74s-7.63-1.75-10.99-5.74C2.81,38.51.5,32.21.5,24.51S2.81,10.51,6.45,6.17C10.23,1.62,14.43.5,17.44.5s7.21,1.12,10.99,5.67Zm-2.31,34.86c3.01-3.71,5.04-9.1,5.04-16.52s-2.03-12.81-5.04-16.52c-1.68-2.1-4.55-4.69-8.68-4.69s-7,2.59-8.68,4.69c-3.01,3.71-5.04,9.03-5.04,16.52s2.03,12.81,5.04,16.52c3.43,4.27,7.07,4.76,8.68,4.76s5.25-.49,8.68-4.76Z" fill="#000f3c" stroke="#000f3c" stroke-miterlimit="10"/>
      <path d="m57.76,3.93h-7.28l1.4-2.8h8.96v46.69h-3.08V3.93Z" fill="#000f3c" stroke="#000f3c" stroke-miterlimit="10"/>
    </g>
  </g>
</svg>