<?xml version="1.0" encoding="UTF-8"?>
<svg id="_レイヤー_2" data-name="レイヤー 2" xmlns="http://www.w3.org/2000/svg" viewBox="0 0 290.07 40.92">
  <g id="_デザイン" data-name="デザイン">
    <g>
      <g>
        <path d="M7.02,15.09c-.53,.21-1,.66-1.42,1.04-.35,.31-.71,.63-1.02,.98-1.07,1.21-1.87,2.63-2.61,4.05-.38,.72-.75,1.44-1.04,2.2-.26,.68-.54,1.36-.64,2.08-.1,.67-.25,1.32-.28,2-.03,.73,.03,1.46,.1,2.18,.14,1.36,.65,2.68,1.15,3.93,.12,.32,.23,.63,.38,.93,.11,.23,.27,.44,.41,.66,.22,.33,.43,.66,.68,.97,.17,.21,.38,.45,.64,.55,.49,.17,.98,.3,1.48,.43,1.48,.4,3.02,.67,4.54,.76,.93,.05,1.88,.04,2.83-.02,.79-.04,1.57-.1,2.35-.2,1.61-.21,3.13-.69,4.58-1.41,.78-.38,1.53-.82,2.22-1.35,.66-.5,1.18-1.1,1.68-1.76,.75-1,1.36-2.11,1.83-3.27,.16-.38,.32-.75,.45-1.15,.09-.3,.14-.66,.04-.89-.21-.48-.57-.91-.89-1.33-.75-.99-1.56-1.93-2.34-2.91-.69-.86-1.35-1.72-2.2-2.42-.55-.45-1.08-.92-1.57-1.44-.48-.51-.88-1.11-1.33-1.65-1.16-1.41-2.61-2.65-4.43-3.07-.93-.22-1.91-.39-2.87-.33-.46,.03-.95,.08-1.43,.15-.45,.07-.89,.15-1.29,.3" fill="#004080"/>
        <path d="M13.58,0c-.68-.05-1.51,.51-2.04,.95-.43,.36-.82,.77-1.19,1.18-.48,.53-.97,1.05-1.37,1.61-.43,.6-.77,1.25-1.09,1.95-.27,.6-.59,1.19-.75,1.84-.17,.66-.27,1.31-.25,1.99,.03,.7,.12,1.43,.27,2.12,.18,.77,.45,1.19,1.25,1.38,.8,.19,1.55-.1,2.31-.34,.39-.12,.78-.26,1.17-.33,.28-.06,.56-.06,.86-.1,.87-.12,1.68-.39,2.47-.78,.7-.34,1.42-.73,1.91-1.35,.33-.42,.57-.88,.72-1.35,.19-.59,.21-1.21,.17-1.83-.05-.73-.2-1.46-.46-2.17-.37-.99-.92-1.92-1.49-2.71-.32-.44-.68-.82-1.08-1.19C14.62,.52,14.04,0,13.58,0" fill="#a40012"/>
        <path d="M28.21,29.12c1.46-1.63,4.66-5.23,5.28-5.9-.17-.23-.25-.34-.56-.75-.38,.96-3.29,4.15-5.12,6.21-2.11-2.35-10.88-12.27-14.34-16.21,1.8-1.92,3.47-3.77,3.47-5.79,0-2.39-1.97-4.33-4.41-4.33s-4.41,1.94-4.41,4.33,2.14,4.23,4,6.37c-1.88,2.08-4.17,4.66-7.28,8.17C.06,26.67,.41,33.24,4.69,37.53c4.32,4.34,11.22,4.65,15.69,.18,1.28-1.19,5.22-5.65,6.93-7.57,.68,.74,3.03,3.31,4.22,4.82,.48,.61,.62,.8,.86,1.21h2.32c-.7-.59-4.89-5.28-6.49-7.04ZM12.55,2.95c2.3,0,3.23,2.01,3.23,3.73,0,1.58-.85,3.38-2.68,5.35-1.9-2.21-3.55-3.71-3.55-5.67,0-1.72,1.28-3.4,3-3.4ZM6.22,35.82c-4.54-4.51-3.72-10.86-.19-14.92,3.25-3.73,5.22-5.95,6.51-7.39,2.82,3.13,12.01,13.5,14.38,16.2-1.63,1.84-3.38,3.76-5.32,5.73-4.34,4.73-11.03,4.7-15.37,.39Z" fill="#231815"/>
      </g>
      <path d="M221.01,28.32h-1.31c-1.17,2.75-2.81,6.42-3.47,7.85,.38-.02,.95,0,1.36,0,.21-.66,.48-1.41,.78-2.21h2.74c.26,.82,.51,1.61,.69,2.21,.66,0,1.11-.03,2.1,0-.69-1.76-2.49-6.74-2.88-7.85Zm-2.33,4.83c.38-.99,.8-2.01,1.18-2.97,.22,.61,.6,1.77,.99,2.97h-2.17Zm18.89-4.84h-1.31c-1.17,2.75-2.81,6.42-3.47,7.85,.38-.02,.95,0,1.36,0,.21-.66,.48-1.41,.78-2.21h2.74c.26,.82,.51,1.61,.69,2.21,.66,0,1.11-.03,2.1,0-.69-1.76-2.49-6.74-2.88-7.85Zm-2.33,4.83c.38-.99,.8-2.01,1.18-2.97,.22,.61,.6,1.77,.99,2.97h-2.17Zm-85.64-1.24c.93-.31,1.54-.94,1.49-2.01-.04-.86-.72-1.47-2.01-1.55-.36-.02-.76,0-1.32,0-.45,0-.64,.02-.9,.02-.41,0-.97-.01-1.43-.02,.02,.43,.05,2.27,.05,3.73,0,1.77-.02,3.05-.05,4.1,0,0,.54-.02,1.01-.02,.42,0,.82,0,.9,0h0s0,0,.01,0c0,0,0,0,0,0,0,0,0,0,0,0,.09,0,.67,0,1.02,0,.39,0,3.26,.07,3.26-2.3,0-1.29-.98-1.79-2.04-1.95Zm-.25-1.55c-.01,.69-.29,.97-.71,1.12-.33,.12-.75,.15-1.38,.16,0-.73-.02-1.65,0-2.49,.43-.01,2.12-.25,2.1,1.21Zm-1.11,4.96c-.41,.02-.81,0-.96-.02,0-.16,0-.36-.01-.59,0-.62,0-1.68-.01-2.24,1.28-.02,2.48,.04,2.48,1.34,0,1.19-.96,1.49-1.5,1.52Zm27.58-6.97c-.26,0-1.4,.02-1.76,.02-.4,0-1.41-.03-1.41-.03,.02,.99,.05,2.21,.05,3.25v1.34c0,1.51-.02,2.41-.05,3.25h0s0,0,0,0h.11c.42-.01,1-.03,1.3-.03s.87,.01,.87,.01c.31,0,.64,.01,.89,.01,1.02,0,1.94-.32,2.69-.9,.91-.71,1.39-1.8,1.39-3.17,0-2.56-1.41-3.75-4.07-3.75Zm-.28,6.94c-.39,0-.7,0-.95-.03h0c-.02-.65-.03-1.77-.03-2.39v-1.3c0-.63,0-1.68,.02-2.3,1.15-.06,2.02-.08,2.54,.36,.53,.44,.8,1.21,.8,2.47,0,2.2-.87,3.17-2.39,3.2Zm-4.29,.88c-1.49-.01-4.57-.04-5.85,0,.02-.78,.04-2.55,.05-3.47v-1.11c0-1.03-.02-2.71-.05-3.25h1.96c-.05,.66-.04,2.23-.04,3.25v1.11c0,.67,0,1.82,.04,2.53,1.32,0,3.11-.06,3.89-.16-.01,.31-.01,.67,0,1.09Zm-11.38-3.41c0,2.11-1,3.57-3.28,3.57-2.53,0-3.43-1.19-3.43-3.31,0-.98,.05-2.69-.03-4.68,.72,.01,1.22,.02,1.98,0-.06,1.08-.09,2-.11,3.26-.04,2.35,.12,3.74,1.89,3.74,1.6,0,1.91-1.28,1.91-3.02,0-1.65-.03-2.81-.1-3.98,.61,.02,.73,.02,1.26,0-.08,1.35-.08,2.93-.08,4.42Zm71.86-1.71s-.02,4.24,0,5.12h-1.18c-.68-.92-3.89-4.77-4.41-5.34,0,.7,.03,1.85,.03,2.1,.02,1.15-.01,1.67,.11,3.23-.35-.02-.83-.02-1.2,0,.08-1.57,.08-3.36,.08-4.05,0-1.81,0-2.85-.03-3.8h1.36s.98,1.19,2,2.41c1.11,1.33,2.27,2.7,2.29,2.74,0,0,0-1.26-.02-2.4-.03-1.61-.09-2.42-.13-2.73,0,0,.19,0,.58,0s.59-.02,.59-.02c-.02,.56-.07,1.19-.07,2.72Zm-39.8,0s-.02,4.24,0,5.12h-1.18c-.68-.92-3.89-4.77-4.41-5.34,0,.7,.03,1.85,.03,2.1,.02,1.15-.01,1.67,.11,3.23-.35-.02-.83-.02-1.2,0,.08-1.57,.08-3.36,.08-4.05,0-1.81,0-2.85-.03-3.8h1.36s.98,1.19,2,2.41c1.11,1.33,2.27,2.7,2.29,2.74,0,0,0-1.26-.02-2.4-.03-1.61-.09-2.42-.13-2.73,0,0,.19,0,.58,0s.59-.02,.59-.02c-.02,.56-.07,1.19-.07,2.72Zm89.54-.01s-.02,4.24,0,5.12h-1.18c-.68-.92-3.89-4.77-4.41-5.34,0,.7,.03,1.85,.03,2.1,.02,1.15-.01,1.67,.11,3.23-.35-.02-.83-.02-1.2,0,.08-1.57,.08-3.36,.08-4.05,0-1.81,0-2.85-.03-3.8h1.36s.98,1.19,2,2.41c1.11,1.33,2.27,2.7,2.29,2.74,0,0,0-1.26-.02-2.4-.03-1.61-.09-2.42-.13-2.73,0,0,.19,0,.58,0s.59-.02,.59-.02c-.02,.56-.07,1.19-.07,2.72Zm-66.15,5.13c-.88-.02-1.19-.02-1.98,0-.07-1.8-.19-3.97-.3-5.4h0s0,0,0,0c-.39,.8-.73,1.49-1.22,2.58-.48,1.08-1.11,2.68-1.11,2.68h-1c-.59-1.46-1.71-3.94-2.26-5.15-.15,1.57-.35,3.49-.4,5.29-.52-.03-.76-.03-1.25,0,.15-.99,.4-2.89,.56-4.1,.13-1.02,.28-2.27,.45-3.72h1.44s0,0,0,0c.73,1.67,1.73,3.94,2.42,5.42,.48-1.01,1.74-3.75,2.49-5.42h1.44s.1,1.47,.29,3.72c.19,2.14,.26,2.91,.4,4.1Zm51.08-.01c-.88-.02-1.19-.02-1.98,0-.07-1.8-.19-3.97-.3-5.4h0s0,0,0,0c-.39,.8-.73,1.49-1.22,2.58-.48,1.08-1.11,2.68-1.11,2.68h-1c-.59-1.46-1.71-3.94-2.26-5.15-.15,1.57-.35,3.49-.4,5.29-.52-.03-.76-.03-1.25,0,.15-.99,.4-2.89,.56-4.1,.13-1.02,.28-2.27,.45-3.72h1.44s0,0,0,0c.73,1.67,1.73,3.94,2.42,5.42,.48-1.01,1.74-3.75,2.49-5.42h1.44s.1,1.47,.29,3.72c.19,2.14,.26,2.91,.4,4.1Zm20.69-6.83c-.02,2.29,0,5.01,.06,6.83-.68-.03-1.21-.04-1.96,0,.07-1.82,.08-4.54,.06-6.83-.75,.01-1.62,.04-2.45,.08,.02-.32,0-.72,0-1.09,2.62,.02,4.33,.04,6.73,0-.02,.34,0,.77,0,1.09-.86-.05-1.69-.07-2.45-.08Zm-31.61,6.83s-1.71,0-2.04-.01c-.72-.01-1.43,0-1.92,0-.29,0-1.31,.02-1.31,.02,.03-1.11,.05-2.58,.05-3.47v-1.11c0-1.03-.02-2.43-.05-3.25,0,0,1.37,.02,1.71,.02,.75,0,1.99,0,3.48-.02-.02,.48-.01,.77,0,1.07-1.26-.09-1.98-.13-3.29-.13-.01,.46-.02,1.51-.02,2.32,1.35,0,2.02-.05,3.02-.09-.01,.33-.02,.69,0,1.08-1.24-.05-1.68-.08-3.03-.08,0,.94,0,2.27,.02,2.72,1.31,0,2.11-.07,3.37-.16,0,.21-.02,.73,0,1.1Zm17.83,0s-1.71,0-2.04-.01c-.72-.01-1.43,0-1.92,0-.29,0-1.31,.02-1.31,.02,.03-1.11,.05-2.58,.05-3.47v-1.11c0-1.03-.02-2.43-.05-3.25,0,0,1.37,.02,1.71,.02,.75,0,1.99,0,3.48-.02-.02,.48-.01,.77,0,1.07-1.26-.09-1.98-.13-3.29-.13-.01,.46-.02,1.51-.02,2.32,1.35,0,2.02-.05,3.02-.09-.01,.33-.02,.69,0,1.08-1.24-.05-1.68-.08-3.03-.08,0,.94,0,2.27,.02,2.72,1.31,0,2.11-.07,3.37-.16,0,.21-.02,.73,0,1.1Zm-109.72-4.03c0,1.48,.02,3.01,.05,4.05-.73-.01-1.22-.02-1.96,0,.03-1.04,.05-2.57,.05-4.05,0-1.53,0-2.11-.05-3.78,.73,.01,1.22,.02,1.96,0-.04,1.67-.06,2.26-.05,3.78Zm19.83,0c0,1.48,.02,3.01,.05,4.05-.73-.01-1.22-.02-1.96,0,.03-1.04,.05-2.57,.05-4.05,0-1.53,0-2.11-.05-3.78,.73,.01,1.22,.02,1.96,0-.04,1.67-.06,2.26-.05,3.78Zm-54.08-3.79h-1.31c-1.17,2.75-2.81,6.42-3.47,7.85,.38-.02,.95,0,1.36,0,.21-.66,.48-1.42,.78-2.21h2.74c.26,.82,.51,1.61,.69,2.21,.66,0,1.11-.03,2.1,0-.69-1.76-2.49-6.74-2.88-7.85Zm-2.33,4.83c.38-.99,.8-2.01,1.18-2.97,.22,.61,.6,1.77,.99,2.97h-2.17Zm-14.41,3.17c2.53,0,4.17-1.6,4.17-4.08s-1.56-4.08-4.17-4.08-4.16,1.6-4.16,4.08,1.63,4.08,4.16,4.08Zm0-7.31c1.39,0,2.19,1.18,2.19,3.24s-.78,3.22-2.19,3.22-2.18-1.14-2.18-3.22,.75-3.24,2.18-3.24Zm-9.67-.67c-.26,0-1.4,.02-1.76,.02-.4,0-1.41-.03-1.41-.03,.02,.99,.05,2.21,.05,3.25v1.34c0,1.51-.02,2.41-.05,3.25h.11c.42-.01,1-.03,1.3-.03s.87,.01,.87,.01c.31,0,.64,.01,.89,.01,1.02,0,1.94-.32,2.69-.9,.91-.71,1.39-1.8,1.39-3.17,0-2.56-1.41-3.75-4.07-3.75Zm-.28,6.94c-.39,0-.7,0-.95-.03h0c-.02-.65-.03-1.77-.03-2.39v-1.3c0-.63,0-1.68,.02-2.3,1.15-.06,2.02-.08,2.54,.36,.53,.44,.8,1.21,.8,2.47,0,2.2-.87,3.17-2.39,3.2Zm-13.27-2.7c-.8-.04-1.71-.08-3.03-.08,.01,1.13,.06,3.2,.07,3.66-.9-.02-1.12-.02-1.97,0,.03-1.11,.05-2.58,.05-3.47v-1.11c0-1.03-.02-2.43-.05-3.25,0,0,1.37,.02,1.71,.02,.75,0,2.01,0,3.51-.02-.02,.48-.01,.77,0,1.07-.92-.09-1.98-.13-3.32-.13-.01,.46,0,1.51,0,2.32,1.33,0,2.2-.05,3.04-.09-.01,.33-.02,.69,0,1.08Zm3.69-.99c-.04,2.35,.12,3.74,1.89,3.74,1.6,0,1.91-1.28,1.91-3.02,0-1.65-.03-2.81-.1-3.98,.61,.02,.73,.02,1.26,0-.08,1.35-.08,2.93-.08,4.42,0,2.11-1,3.57-3.28,3.57-2.53,0-3.43-1.19-3.43-3.31,0-.98,.05-2.69-.03-4.68,.72,.01,1.22,.02,1.98,0-.06,1.08-.09,2-.11,3.26Zm-22.52,0c-.04,2.35,.12,3.74,1.89,3.74,1.6,0,1.91-1.28,1.91-3.02,0-1.65-.03-2.81-.1-3.98,.61,.02,.73,.02,1.26,0-.08,1.35-.08,2.93-.08,4.42,0,2.11-1,3.57-3.28,3.57-2.53,0-3.43-1.19-3.43-3.31,0-.98,.05-2.69-.03-4.68,.72,.01,1.22,.02,1.98,0-.06,1.08-.09,2-.11,3.26Zm64.01,1.35c.02,1.15-.01,1.67,.11,3.23-.35-.02-.83-.02-1.2,0,.08-1.57,.08-3.36,.08-4.05,0-1.81,0-2.85-.03-3.8h1.36s.98,1.19,2,2.41c1.11,1.33,2.27,2.7,2.29,2.74,0,0,0-1.26-.02-2.4-.03-1.61-.09-2.42-.13-2.73,0,0,.19,0,.58,0s.59-.02,.59-.02c-.02,.56-.07,1.19-.07,2.72,0,0-.02,4.24,0,5.12h-1.18c-.68-.92-3.89-4.77-4.41-5.34,0,.7,.03,1.85,.03,2.1Zm-85.5,3.22c-.88-.02-1.19-.02-1.98,0-.07-1.8-.19-3.97-.3-5.4-.39,.8-.73,1.49-1.22,2.58-.48,1.08-1.11,2.68-1.11,2.68h-1c-.59-1.46-1.71-3.94-2.26-5.15-.15,1.57-.35,3.48-.4,5.29-.52-.03-.76-.03-1.25,0,.15-.99,.4-2.89,.56-4.1,.13-1.02,.28-2.27,.45-3.72h1.44c.73,1.67,1.73,3.94,2.42,5.42,.48-1.01,1.74-3.75,2.49-5.42h1.45s.1,1.47,.29,3.72c.19,2.14,.26,2.91,.4,4.1Zm9.15-6.82c-.02,2.29,0,5.01,.06,6.83-.68-.03-1.21-.04-1.96,0,.07-1.82,.08-4.54,.06-6.83-.75,.01-1.62,.04-2.45,.08,.02-.32,0-.72,0-1.09,2.62,.02,4.33,.04,6.73,0-.02,.34,0,.77,0,1.09-.86-.05-1.69-.07-2.45-.08Zm-5.6,2.78c0,1.48,.02,3.01,.05,4.05-.73-.01-1.22-.02-1.96,0,.03-1.04,.05-2.57,.05-4.05,0-1.53,0-2.11-.05-3.78,.73,.01,1.22,.02,1.96,0-.04,1.67-.06,2.26-.05,3.78Zm26.53,0c0,1.48,.02,3.01,.05,4.05-.73-.01-1.22-.02-1.96,0,.03-1.04,.05-2.57,.05-4.05,0-1.53,0-2.11-.05-3.78,.73,.01,1.22,.02,1.96,0-.04,1.67-.06,2.26-.05,3.78Zm44.56,1.75c.04,1.82-1.48,2.44-3,2.44-.79,0-2.12-.26-2.75-.75,.25-.64,.35-1.22,.39-1.63h.27c.3,1.02,1.17,1.55,2.18,1.52,.62-.01,1.14-.27,1.17-1,.02-.7-.5-1.09-1.42-1.5-.74-.33-2.21-.86-2.28-2.33-.07-1.24,.9-2.43,2.68-2.43,1.02,0,2,.34,2.69,.82,0,0,0,0,0,0-.17,.4-.29,.82-.37,1.26l-.28-.05c-.36-.77-1.09-1.28-2.08-1.19-.59,.05-1.12,.39-1.04,1,.08,.68,.63,.97,1.5,1.34,1.15,.48,2.31,1.12,2.34,2.5Zm-56.65,0c.04,1.82-1.48,2.44-3,2.44-.79,0-2.12-.26-2.75-.75,.25-.64,.35-1.22,.39-1.63h.27c.3,1.02,1.17,1.55,2.18,1.52,.62-.01,1.14-.27,1.17-1,.02-.7-.5-1.09-1.42-1.5-.74-.33-2.21-.86-2.28-2.33-.06-1.2,.76-2.43,2.54-2.43,1.02,0,1.87,.38,2.55,.82,0,0,0,0,0,0-.17,.4-.29,.82-.37,1.26l-.27-.05c-.34-.77-.96-1.28-1.94-1.19-.59,.05-.98,.39-.91,1,.08,.68,.63,.97,1.5,1.34,1.15,.48,2.31,1.12,2.34,2.5Zm181.4,1.94h0c-.67,.19-1.92,.47-2.98,.47-2.82,0-4.41-1.48-4.41-4.05,0-1.19,.38-2.19,1.09-2.9,.76-.76,1.88-1.15,3.25-1.15,1.41,0,2.43,.35,2.9,.59-.1,.23-.3,.68-.43,1.33l-.29-.05c-.38-.9-1.3-.99-1.97-.99-1.65,0-2.6,1.13-2.6,3.16,0,2.59,1.38,3.1,2.55,3.1,.45,0,.86-.04,1.15-.15-.02-.82-.08-1.96-.13-2.61,.58,0,1.3,.02,1.91,0-.06,.54-.06,2.67-.03,3.26Zm-47.6,.01h0c-.67,.19-1.92,.47-2.98,.47-2.82,0-4.41-1.48-4.41-4.05,0-1.19,.38-2.19,1.09-2.9,.76-.76,1.88-1.15,3.25-1.15,1.41,0,2.43,.35,2.9,.59-.1,.23-.3,.68-.43,1.33l-.29-.05c-.38-.9-1.3-.99-1.97-.99-1.65,0-2.6,1.13-2.6,3.16,0,2.59,1.38,3.1,2.55,3.1,.45,0,.86-.04,1.15-.15-.02-.82-.08-1.96-.13-2.61,.58,0,1.3,.02,1.91,0-.06,.54-.06,2.67-.03,3.26Zm-54.91-24.62c0-1.92-.03-3.09-.1-4.31h2.52c-.07,1.22-.1,2.38-.1,4.31v1.6c3.52-.45,8.22-1.45,10.31-2.65l.96,1.97c-3.04,1.12-6.93,1.57-11.26,2.06v4.58c0,2.01,.66,2.49,2.58,2.49h4.54c1.92,0,3.09-.03,4.31-.1v1.88c-1.22-.07-2.38-.1-4.31-.1h-4.71c-3.95,0-4.71-1.09-4.71-4.22v-7.5Zm13.83-2.44c-.47-1.05-1.18-2.13-1.64-2.63l-1.2,.51c.54,.87,.91,1.65,1.35,2.76l1.49-.63Zm2.22-.93c-.47-1.05-1.18-2.13-1.64-2.63l-1.2,.51c.54,.87,.91,1.65,1.35,2.76l1.49-.63Zm53.11,2.71h-6.71c-1.92,0-3.09,.03-4.31,.1v-1.88c1.22,.07,2.38,.1,4.31,.1h1.63c0-1.38-.04-2.34-.1-3.35h2.52c-.06,1-.09,1.97-.1,3.35h5.72v1.67c-1.45,1.71-3,3.08-4.71,4.24,2.21,.83,4.87,2.32,6.62,3.59l-1.33,2c-1.39-1.36-4.23-3.36-6.31-4.31v3.46c0,1.92,.03,3.09,.1,4.31h-2.52c.07-1.22,.1-2.38,.1-4.31v-2.8c-2.18,1.09-4.59,2.03-7.3,3.01l-.53-1.27c4.94-1.76,10.33-4.75,12.9-7.92Zm63.54,8.63V10.39c0-1.92-.03-3.09-.1-4.31h2.52c-.07,1.22-.1,2.38-.1,4.31v1.45c3.79,1.08,6.28,2.24,9.14,4.05l-1.39,1.97c-1.53-1.39-5.55-3.76-7.75-4.59v5.88c0,1.92,.03,3.09,.1,4.31h-2.52c.07-1.22,.1-2.38,.1-4.31Zm-16.74,1.42c5.9-1.3,10.48-3.96,11.94-10.11,.47,.16,.83,.27,1.32,.39-1.86,7.73-6.14,10.47-12.78,12.01-.92,.21-1.38,.33-2.15,.56l-.51-2.5c.43,0,1.36-.17,2.19-.35Zm2.84-7.56l1.34-1.62c-1.96-1.9-4.63-3.28-6.36-4.15l-.82,1.19c1.86,.92,4.53,2.72,5.83,4.57Zm-76.51-3.07c-1.92,0-3.09,.03-4.31,.1v-1.88c1.22,.07,2.38,.1,4.31,.1h12.35s0,0,0,0c-.92,5.46-3.7,8.13-7.71,10.29,1.04,1.13,1.97,2.29,2.7,3.37l-1.88,1.43c-1.88-3.2-5.14-7.06-6.94-8.38l.95-1.07c1.36,.98,2.78,2.21,4.1,3.53,2.74-1.63,4.97-3.67,6.04-7.5h-9.6Zm38.15,10.25c5.9-1.3,10.48-3.96,11.94-10.11,.47,.16,.83,.27,1.32,.39-1.86,7.73-6.14,10.47-12.78,12.01-.92,.21-1.38,.33-2.15,.56l-.51-2.5c.43,0,1.36-.17,2.19-.35Zm5.68-10.91c-2.12-1.4-4.14-2.07-6.77-2.69l-.61,1.31c2.01,.51,4.8,1.59,6.45,3.14l.93-1.76Zm-1.87,4.55c-2.29-1.33-4.66-1.99-6.92-2.35l-.56,1.34c2.04,.4,4.52,1.24,6.62,2.77l.86-1.77Zm8.73-5.3c-.47-1.05-1.18-2.13-1.64-2.63l-1.2,.51c.54,.87,.91,1.65,1.35,2.76l1.49-.63Zm2.22-.93c-.47-1.05-1.18-2.13-1.64-2.63l-1.2,.51c.54,.87,.91,1.65,1.35,2.76l1.49-.63Zm7.81,7.57c-1.81-1.18-3.66-2.12-5.58-3.04l.69-1.25c1.49,.64,3.47,1.5,5.7,2.75,.71-1.52,1.23-3.18,1.61-4.98,.18-.83,.28-1.91,.29-2.34l2.48,.59c-.2,.78-.31,1.25-.52,2.17-.49,2.12-1.11,4.02-1.96,5.7,1.45,.92,2.96,2.01,4.49,3.32l-1.53,1.8c-1.31-1.37-2.6-2.5-3.9-3.48-1.96,2.96-4.92,5.16-9.62,6.69l-.64-1.22c3.97-1.37,6.67-3.67,8.48-6.71ZM40.65,8.26v-1.88c1.22,.07,2.38,.1,4.31,.1h6.57c1.92,0,3.09-.03,4.31-.1v1.88c-1.22-.07-2.38-.1-4.31-.1h-6.57c-1.92,0-3.09,.03-4.31,.1Zm3.17,14.44h8.85c1.92,0,3.09,.03,4.31,.1v-1.88c-1.22,.07-2.38,.1-4.31,.1h-8.85c-1.92,0-3.09-.03-4.31-.1v1.88c1.22-.07,2.38-.1,4.31-.1Zm2.31-7.58h4.23c1.92,0,3.09,.03,4.31,.1v-1.88c-1.22,.07-2.38,.1-4.31,.1h-4.23c-1.92,0-3.09-.03-4.31-.1v1.88c1.22-.07,2.38-.1,4.31-.1Zm32.07,2.82v-1.64c-1.15,.07-2.25,.1-3.98,.1v-6.15c1.35,0,2.31,.04,3.3,.1v-1.64c-.99,.06-1.95,.09-3.3,.1,0-1.44,.04-2.43,.1-3.46h-2.52c.06,1.03,.09,2.03,.1,3.47h-5.69c0-1.44,.04-2.44,.1-3.47h-2.52c.06,1.03,.09,2.03,.1,3.47-1.63,0-2.7-.04-3.81-.1v1.64c1.11-.07,2.18-.1,3.81-.1-.02,1.43-.11,4.68-.2,6.15h-.11c-1.92,0-3.09-.03-4.31-.1v1.64c1.2-.07,2.36-.1,4.23-.1-.49,2.49-1.76,3.89-4,4.74l.77,1.19c1.3-.74,2.93-1.61,3.98-2.86,.74-.89,1.23-2.01,1.5-3.08h6.14v1.42c0,1.92-.03,3.09-.1,4.31h2.52c-.07-1.22-.1-2.38-.1-4.31v-1.42c1.73,0,2.83,.04,3.98,.1Zm-12.19-1.54c.13-1.45,.19-3.97,.2-6.15h5.69v6.15h-5.9Zm32.28-.09c-.69,.73-.99,1.25-1.49,2.06-3.03-2.25-4.93-4.38-6.01-7.13,.51-.32,.85-.57,1.27-1,1.31,2.49,3.39,4.64,6.23,6.07Zm.34-10.32v1.64c-1.22-.07-2.38-.1-4.31-.1h-3.86c-.01,.61-.02,1.3-.02,2.13v9.6c0,1.92,.03,3.09,.1,4.31h-2.41c.07-1.22,.1-2.38,.1-4.31v-6.72c-1.39,2.31-3.6,4.23-7.03,5.84-.21-.45-.4-.78-.65-1.21,4.37-2.04,6.39-5.45,7.13-9.64h-2.91c-1.92,0-3.09,.03-4.31,.1v-1.64c1.22,.07,2.38,.1,4.31,.1h9.53c1.92,0,3.09-.03,4.31-.1Zm18.03,2.81c0-1.43,.04-2.42,.1-3.45h-2.52c.06,1.02,.09,2.01,.1,3.44-.76-.01-1.36-.04-2-.07v1.3c.63-.04,1.23-.06,2-.07-.02,1.37-.13,6.02-.25,7.02-.24,2.01-.88,3.39-2,4.38l-.08-.62c-1.64,.17-2.89,.3-4.08,.41v-1.24h.51c1.53,0,2.33,.02,3.3,.08v-1.3c-.97,.06-1.78,.08-3.3,.08h-.51v-1.33h.34c1.52,0,2.51,.02,3.48,.08h0s0,0,0,0h0c-.05-.92-.05-2.57-.05-3.17,0-1.44,0-2.25,.05-3.17-.97,.06-1.95,.08-3.48,.08h-.34v-1.32h.64c1.53,0,2.33,.02,3.3,.08v-1.3c-.97,.06-1.78,.08-3.3,.08h-.64v-1.55c1.37-.14,2.7-.35,3.82-.64l-.59-1.69c-2.41,1-6.31,1.6-9.23,1.68l.05,.94c1.21,0,2.58-.04,3.96-.12v1.38h-.6c-1.53,0-2.45-.02-3.42-.08v1.3c.97-.06,1.89-.08,3.42-.08h.6v1.32h-.3c-1.53,0-2.57-.02-3.54-.08,.05,.92,.05,1.72,.05,3.17,0,.6,0,2.25-.05,3.17h0s0,0,0,0c.97-.06,2.02-.08,3.54-.08h.3v1.33h-.5c-1.53,0-2.45-.02-3.42-.08v1.3c.97-.06,1.89-.08,3.42-.08h.5v1.43c-1.2,.11-2.5,.22-4.2,.36l.29,1.7c3.84-.67,5.8-.98,9.48-1.6-.46,.31-.97,.57-1.56,.79l.77,1.19c1.3-.74,2.93-1.61,3.98-2.86,.9-1.08,1.44-2.5,1.65-3.76,.2-1.19,.29-4.53,.3-7.22h2.05c-.03,4.07-.15,8.74-.48,10.72-.25,1.52-.31,1.57-1.56,1.34-.39-.07-.78-.15-1.05-.21-.09,.47-.15,.78-.25,1.16,.77,.22,2.51,.66,3.31,.62,.7-.04,1.22-.43,1.44-1.59,.43-2.28,.62-9.78,.62-13.18h-4.07Zm-8.73,7.56v-1.49h.34c.6,0,1.12,0,1.59,.01,0,.6,0,1.14-.01,1.46-.47,0-.98,.01-1.58,.01h-.34Zm.34-4.03c.59,0,1.11,0,1.57,.01,0,.39,.01,.91,.01,1.46-.47,0-.99,.01-1.58,.01h-.34v-1.48h.34Zm-2.32,0v1.48h-.3c-.61,0-1.15,0-1.65-.01,0-.55,0-1.06,.01-1.46,.49,0,1.04-.01,1.64-.01h.3Zm-.3,4.03c-.6,0-1.15,0-1.64-.01,0-.33,0-.86-.01-1.46,.49,0,1.04-.01,1.65-.01h.3v1.49h-.3Zm37.09,5.23v1.42c-1.22-.07-4.63-.1-5.29-.1h-5.23c-.66,0-4.07,.03-5.29,.1v-1.42c1.22,.07,4.63,.1,5.29,.1h1.46v-2.22c-.94,0-3.58,.04-4.7,.1v-1.42c1.12,.07,3.76,.1,4.7,.1v-2.22c-.62,0-2.57,.02-3.91,.07-.39,.72-.89,1.42-1.53,2.16l-.96-.61c1.05-1.42,1.57-3.42,1.65-5.04h1.88c-.08,.78-.23,1.48-.46,2.15,1.27,.03,2.79,.05,3.32,.05,0-1.38-.04-1.09-.1-2.2h2.53c-.07,1.11-.1,.82-.1,2.2,.79,0,4.01-.03,5.19-.1v1.42c-1.19-.07-4.4-.1-5.19-.1v2.22c.94,0,3.58-.04,4.7-.09v1.41c-1.12-.08-3.76-.1-4.7-.1v2.22h1.46c.66,0,4.07-.03,5.29-.1Zm-13.49-9.78h9.06c1.92,0,3.09,.03,4.31,.1v-1.34c-1.22,.07-2.38,.1-4.31,.1h-.51c.21-.38,.91-1.76,1.15-2.33,1.41,0,2.4,.04,3.42,.1v-1.34c-1.22,.07-2.38,.1-4.31,.1h-3.05c.02-.67,.04-1.27,.08-1.87h-2.52c.04,.6,.06,1.19,.08,1.87h-2.97c-1.92,0-3.09-.03-4.31-.1v1.34c1.01-.06,1.98-.09,3.37-.1,.51,.75,.9,1.58,1.24,2.33h-.73c-1.92,0-3-.03-4.22-.1,.12,3.44,.14,9.5-2.13,12.39l.95,.8c2.73-2.98,3.41-6.14,3.43-11.94,.57-.01,1.21-.02,1.97-.02Zm1.84-3.47h5.61c-.08,.56-.45,1.84-.71,2.34h-4.27c-.14-.73-.37-1.63-.63-2.34Zm35.27-1.08h2.52c-.07,1.22-.1,3.09-.1,5.02,0,7.6-2.03,8.66-5.93,10.77l-.75-1.15c3.16-1.62,4.37-3.02,4.37-9.62,0-1.92-.03-3.79-.1-5.02Zm14.64,5.21c-1.33,3.66-3.68,5.87-6.7,7.17V11.43c0-1.92,.03-3.09,.1-4.31h-2.52c.07,1.22,.1,2.38,.1,4.31v11.37c4.73-1.2,8.08-3.82,10.27-9.8l-1.26-.54Z" fill="#231815"/>
    </g>
  </g>
</svg>