<?xml version="1.0" encoding="UTF-8"?>
<svg id="_レイヤー_2" data-name="レイヤー 2" xmlns="http://www.w3.org/2000/svg" viewBox="0 0 124.63 107.66">
  <g id="_固定" data-name="固定">
    <g>
      <path d="m9.04,21.48c-4.59,0-9.04-3.56-9.04-10.75S4.45,0,9.04,0s9.02,3.47,9.02,10.72-4.51,10.75-9.02,10.75ZM9.04.9c-.73,0-1.57.11-2.41.45-1.32.53-2.24,1.51-2.88,2.49-1.09,1.65-1.6,4.73-1.6,7.17,0,3.67,1.32,9.58,6.89,9.58,1.62,0,3.7-.56,5.21-2.86,1.23-1.9,1.65-4.4,1.65-7,0-4-1.29-9.83-6.86-9.83Z" fill="#bc1939"/>
      <path d="m30.97,20.94v-2.16c-1.06.98-2.86,2.69-4.96,2.69-1.71,0-3.78-1.2-3.78-4.06v-7.81c0-.62-.28-1.15-.95-1.15-.17,0-.25,0-.87.08l-.2-.62,3.64-.9v10.11c0,1.96,1.09,2.91,2.63,2.91.92,0,2.44-.28,4.48-2.02v-8.29c0-.62-.36-1.23-1.15-1.23-.37,0-.87.11-1.21.2l-.22-.62,4.26-1.06v11.68c0,1.06.78,1.34,1.37,1.34h.56v.9h-3.61Z" fill="#bc1939"/>
      <path d="m45.78,9.88c-.39,0-.67-.17-.81-.31-.31-.28-.39-.39-.84-.39-1.79,0-2.83,1.54-3.84,3.42v5.4c0,1.4.87,2.04,1.96,2.04h.92v.9h-7.11v-.9h.64c1.06,0,1.96-.62,1.96-2.04v-7.7c0-.76-.22-1.51-1.15-1.51-.39,0-.9.14-1.2.22l-.2-.62,4.17-1.37v3.95c1.12-1.43,3.02-3.81,5.15-3.81.64,0,1.62.42,1.62,1.43,0,.73-.59,1.29-1.29,1.29Z" fill="#bc1939"/>
      <path d="m76.75,1.43c-1.57,0-2.21,1.12-2.74,2.6l-6.33,17.44h-.53l-6.19-18.09c-.39-1.15-1.12-1.96-2.38-1.96h-.5v-.92h7.08v.92h-.76c-.95,0-1.62.45-1.62,1.2,0,.42.14.9.17.95l5.01,14.53,5.21-14.42c.14-.39.17-.84.17-1.01,0-.73-.48-1.26-1.34-1.26h-1.2v-.92h6.36v.92h-.39Z" fill="#bc1939"/>
      <path d="m86.55,21.48c-1.76,0-1.85-1.71-1.85-2.38-1.76,1.51-2.88,2.38-4.76,2.38-2.58,0-3.84-1.34-3.84-3,0-1.76,1.48-2.88,1.79-3.11,1.79-1.29,3.33-1.79,6.8-2.6v-1.85c0-.67-.14-1.54-.76-2.13-.7-.67-1.65-.78-2.27-.78-1.2,0-2.32.53-2.49,1.76-.06.53-.2,1.6-1.32,1.6-.67,0-1.26-.53-1.26-1.23,0-1.71,2.55-2.97,5.26-2.97,2.38,0,4.51.73,4.51,3.36v8.26c0,.98.5,1.34,1.23,1.34.59,0,.73-.22.95-.56l.28.2c-.62,1.29-1.48,1.71-2.3,1.71Zm-1.85-7.87c-1.65.39-3.33.81-4.96,2.16-.84.7-1.65,1.68-1.65,2.63s.87,1.93,2.35,1.93c.45,0,2.27-.14,4.26-2.18v-4.54Z" fill="#bc1939"/>
      <path d="m89.57,20.94v-.9h.48c1.23,0,1.6-.81,1.6-2.04V2.83c0-.87-.34-1.29-1.04-1.29-.11,0-.45.03-.81.14l-.14-.62,3.7-1.06v18c0,1.04.31,2.04,1.68,2.04h.39v.9h-5.85Z" fill="#bc1939"/>
      <path d="m107.43,20.94v-2.16c-1.06.98-2.86,2.69-4.96,2.69-1.71,0-3.78-1.2-3.78-4.06v-7.81c0-.62-.28-1.15-.95-1.15-.17,0-.25,0-.87.08l-.2-.62,3.64-.9v10.11c0,1.96,1.09,2.91,2.63,2.91.92,0,2.44-.28,4.48-2.02v-8.29c0-.62-.36-1.23-1.15-1.23-.36,0-.87.11-1.2.2l-.22-.62,4.26-1.06v11.68c0,1.06.78,1.34,1.37,1.34h.56v.9h-3.61Z" fill="#bc1939"/>
      <path d="m119.03,21.48c-5.24,0-6.24-4.7-6.24-7.14,0-3.58,1.9-7.17,5.96-7.17,2.46,0,3.78,1.34,4.51,2.46,1.04,1.6,1.15,3.02,1.23,3.98h-9.69c-.2,6.69,4.28,6.8,4.82,6.8,2.44,0,3.72-1.71,4.37-2.6l.64.53c-1.04,1.34-2.41,3.14-5.6,3.14Zm-.34-13.47c-3.16,0-3.64,3.39-3.84,4.68h7.48c-.2-3.61-1.93-4.68-3.64-4.68Z" fill="#bc1939"/>
    </g>
    <g>
      <path d="m42.12,107.66c-12.12,0-19.35-15.48-19.35-33.02s7.05-32.94,19.35-32.94,19.35,15.48,19.35,32.94-7.22,33.02-19.35,33.02Zm0-63.55c-6.54,0-12.99,8.17-12.99,30.53s6.62,30.62,12.99,30.62c6.02,0,12.99-7.05,12.99-30.62s-6.97-30.53-12.99-30.53Z" fill="#bc1939"/>
      <path d="m105.67,89.52c0,9.8-8.51,18.15-20.47,18.15-10.58,0-17.2-6.62-17.2-12.56,0-2.75,1.38-5.07,4.21-5.07s4.13,2.49,4.13,4.64c0,.95-.77,3.44-.77,4.13,0,2.15,3.1,5.93,9.2,5.93,7.65,0,13.85-6.11,13.85-15.57,0-8.86-5.25-15.22-13.93-15.22-.43,0-2.75.26-3.27.26s-2.32,0-2.32-1.81c0-1.29,1.03-1.55,2.24-1.55.43,0,2.75.26,3.27.26,4.82,0,12.73-4.04,12.73-13.93,0-8.34-5.76-12.56-11.44-12.56-5.16,0-8.08,3.27-8.08,5.85,0,.43.26,2.58.26,3.1,0,1.98-.95,5.07-4.04,5.07-2.49,0-3.53-2.32-3.53-4.56,0-6.36,7.4-12.38,16.17-12.38,9.63,0,17.46,6.11,17.46,14.71,0,6.19-4.9,13.5-15.05,15.91,12.81,1.72,16.6,11.27,16.6,17.2Z" fill="#bc1939"/>
    </g>
  </g>
</svg>