<?xml version="1.0" encoding="utf-8"?>
<!-- Generator: Adobe Illustrator 27.1.1, SVG Export Plug-In . SVG Version: 6.00 Build 0)  -->
<svg version="1.1" id="_レイヤー_2" xmlns="http://www.w3.org/2000/svg" xmlns:xlink="http://www.w3.org/1999/xlink" x="0px"
	 y="0px" viewBox="0 0 498 250" style="enable-background:new 0 0 498 250;" xml:space="preserve">
<style type="text/css">
	.st0{fill:#FFFFFF;}
</style>
<g id="_デザイン">
	<rect class="st0" width="436" height="80"/>
	<rect y="85" class="st0" width="314" height="80"/>
	<rect y="170" class="st0" width="498" height="80"/>
	<g>
		<path d="M81.5,62.5c0,1.6-1.5,2.8-3.2,2.8c-1.3,0-2.3-0.7-2.3-2.2V63c0-1,0.1-2,0.1-3H55.3v2.9c0,1.1-1.1,2.6-3.2,2.6
			c-1.2,0-2.2-0.7-2.2-2.2v-0.2c0.5-6.7,0.6-14.6,0.6-22c0-18-0.7-22.7-1-24.2c0-0.1-0.1-0.2-0.1-0.4s0.1-0.2,0.2-0.2
			c0.4,0,5.3,1.9,7,3.1l0.2,0.2h17.9c0.3,0,0.7-0.2,0.8-0.5c0.7-1.1,2-2.3,2.4-2.3c0.6,0,6,2.9,6,4.4c0,0.7-0.7,1.2-1.7,1.6
			c-1,0.4-1.2,0.6-1.3,1.8c-0.1,1.5-0.1,4.1-0.1,7.4c0,8.9,0.3,22.6,0.6,30.3C81.5,62.3,81.5,62.4,81.5,62.5z M56.6,21.2l-0.5,0.4
			c-0.8,0.5-0.9,1-0.9,2.4c-0.1,2.5-0.1,7.9-0.1,14.2h21.1c0-6.6-0.1-12.5-0.2-16c0-0.6-0.4-1-0.9-1C75.2,21.2,56.6,21.2,56.6,21.2z
			 M55.2,39.8c0,6,0,12.7,0.1,18.5h20.9c0.1-5.9,0.1-12.5,0.1-18.5C76.3,39.8,55.2,39.8,55.2,39.8z"/>
		<path d="M148.6,52.4c0,0.5-5.8,0.9-7.7,2.5c-0.3,0.2-0.5,0.4-0.8,0.4c-2.1,0-14.1-12.8-18.4-26.9v3.5c0,5.5,0.1,11.9,0.2,18.1h1.2
			c0.5,0,0.8-0.2,1.1-0.7c2.1-3.1,2.2-3.3,2.6-3.3c1.2,0,5,3.8,5,4.7c0,0.4-0.3,0.8-1.2,0.8h-8.7c0.1,4.4,0.2,8.6,0.3,12.2v0.1
			c0,2-2.3,2.5-3.1,2.5c-1.2,0-2.3-0.6-2.3-2.1v-0.2c0.2-3.4,0.4-7.7,0.5-12.4c-2.5,0.1-6.6,0.2-8.6,0.5c-1.3,0-2.3-2-2.3-2.6
			c2.2,0.4,7.1,0.7,10.9,0.7c0.1-5.4,0.2-11.2,0.2-16.3C107.8,50.9,92,58,90.7,58c-0.1,0-0.1,0-0.1-0.1c0-0.2,0.4-0.5,1.1-1
			c6.6-4.5,16.6-14.7,23.6-28.8H114c-3.4,0-11.8,0.1-17.1,0.7h-0.1c-1.1,0-2.7-2.3-2.7-3.1c6.2,0.7,16.6,1,20.1,1h3.1
			c0-3.5,0-10.9-0.8-14.2c-0.1-0.2-0.1-0.3-0.1-0.4s0.1-0.2,0.2-0.2c0.9,0,7.9,1.1,7.9,2.5c0,0.5-0.5,1-1.4,1.4
			c-1.1,0.6-1,0.6-1.2,2.2c-0.2,1.7-0.2,4.7-0.3,8.7h12.2c0.4,0,0.8-0.2,1-0.5c2.8-4.1,3-4.3,3.6-4.3c0.1,0,0.2,0,0.4,0.1
			c1.3,0.5,5.7,4.1,5.7,5.5c0,0.4-0.3,0.7-1.3,0.7h-20.7c4.6,8.9,14.5,20.2,25.6,24.1C148.4,52.2,148.6,52.3,148.6,52.4L148.6,52.4z
			"/>
		<path d="M173.9,28.3c0,0.3-0.2,0.7-1.1,0.7h-7v3.7c3.5,0,7.3,1.1,7.3,4c0,1.3-1,2.3-2.1,2.3c-0.7,0-1.4-0.4-2.1-1.4
			c-0.9-1.4-1.8-3.1-3.1-4c0,10.8,0.2,24,0.4,30.1v0.1c0,1.3-1.1,2.4-2.8,2.4c-1.1,0-2-0.6-2-2.2v-0.1c0.2-5.7,0.4-15.1,0.5-23.9
			c-4.3,7.7-10.7,11.2-11.2,11.2c0,0-0.1,0-0.1-0.1c0-0.1,0.2-0.5,0.9-1.2c3-3,9.3-13.4,10.4-19.9V29c-1.7,0.1-3.5,0.1-6.2,0.5h-0.1
			c-0.7,0-2.4-2.2-2.4-2.9c3.4,0.5,6.4,0.8,8.6,0.8c0-2.8-0.2-11.9-0.7-14.5c-0.1-0.2-0.1-0.3-0.1-0.4s0.1-0.2,0.2-0.2
			c0,0,7.1,0.9,7.1,2.4c0,0.4-0.5,0.8-1.2,1.2c-0.9,0.5-1.1,0.5-1.3,2c-0.1,1.7-0.2,5.1-0.2,9.4h0.5c0.2,0,0.6-0.2,0.8-0.5
			c0.5-0.8,1.9-3.2,2.6-3.2C171,23.7,173.9,27.4,173.9,28.3L173.9,28.3z M209.2,36.6c0,0.4-3.9,1-5.5,2.3c-0.3,0.2-0.5,0.4-0.8,0.4
			c-0.1,0-2.6-0.7-6.4-5.9c-0.6,0.4-0.6,0.7-0.6,1.7c0,1,0.2,2.8,0.3,3.9V39c0,1.2-1.3,1.8-2.2,1.8c-0.8,0-1.6-0.4-1.6-1.4v-0.8
			h-8.2c0,0.4,0.1,0.7,0.1,1v0.1c0,1.1-1.4,1.6-2.3,1.6s-1.7-0.4-1.7-1.3v-0.2c0.2-1.7,0.4-4.9,0.4-6v-0.2
			c-4.8,4.9-9.7,7.8-10.9,7.8c-0.1,0-0.2,0-0.2-0.1c0-0.2,0.4-0.6,1.3-1.3c4-3.1,8.5-8.3,11.5-13.7l-6.8,0.4h-0.1
			c-1,0-2.8-2.1-2.8-2.8c4.2,0.5,7.5,0.6,10.5,0.7c1-1.9,1.1-2.5,1.7-4.1c-3.6,0.4-7.3,0.6-10.1,0.6c-2.1,0-3.2-0.2-3.2-0.4
			c0-0.1,0.5-0.3,1.5-0.4c6.3-0.5,19.6-3.8,22-6.2c0.2-0.2,0.2-0.3,0.4-0.3c0.4,0,4.5,3.4,4.5,4.5c0,0.4-0.4,0.7-1,0.7
			c-0.4,0-0.7-0.1-1.2-0.2c-0.2-0.1-0.5-0.1-0.8-0.1s-0.6,0.1-0.8,0.1c-1.4,0.4-3.6,0.7-6.1,1.1h0.1c0,0,0.1,0,0.1,0.1
			c0.5,0.3,1,0.7,1,1.1c0,0.4-0.4,0.7-1.5,0.8c-0.7,0.1-0.5,0.2-0.9,0.8l-1.1,1.9h9.8c0.3,0,0.7-0.2,0.8-0.5
			c1.9-2.6,2.5-3.2,2.9-3.2c0.3,0,4.9,2.6,4.9,4.4c0,0.4-0.2,0.7-1.2,0.7h-11.2c2.6,4.2,9.1,9.1,15.2,10.4
			C209,36.5,209.2,36.5,209.2,36.6L209.2,36.6z M205.6,44.5c0,0.4-0.4,0.7-1,1.1c-1.3,0.7-1.3,0.9-1.3,5c0,1.3,0.1,2.8,0.1,4.2
			c0,1.1,0.2,3.7,0.2,4.7v0.1c0,4-3.1,6-6.4,6.1c-0.8,0-1-0.1-1.5-0.8c-0.9-1.3-6.2-3.5-6.2-4c0-0.1,0.1-0.1,0.2-0.1
			c0.1,0,0.2,0.1,0.4,0.1c2.6,0.4,4.4,0.6,5.8,0.6c2.6,0,3.4-0.7,3.4-2.4c0.1-1.6,0.1-4,0.1-6.6s-0.1-5.2-0.1-7.2
			c0-0.4-0.2-0.8-0.8-0.8h-19.6l-0.3,0.2c-0.8,0.5-0.8,1-0.8,9.8c0,3.3,0,6.9,0.1,9.7v0.1c0,1.3-1.3,2-2.5,2c-1,0-1.9-0.5-1.9-1.7
			v-0.1c0.4-5.2,0.5-11,0.5-14.6v-2.3c0-0.8-0.1-4.6-0.6-6.7c0-0.1-0.1-0.2-0.1-0.3c0-0.2,0.1-0.2,0.2-0.2c0.3,0,2.8,0.8,5.3,2.4
			l0.2,0.1h19.7c0.2,0,0.5-0.2,0.8-0.5c0.4-0.4,0.7-1.1,1.1-1.4c0.2-0.1,0.3-0.2,0.5-0.2C201.7,40.9,205.6,43.3,205.6,44.5
			L205.6,44.5z M196.2,49.4c0,0.4-0.4,0.7-0.9,1c-0.9,0.5-0.9,0.4-0.9,1.4c0,1,0.2,3.3,0.3,4.6v0.2c0,1.2-1.1,1.8-2.1,1.8
			c-0.8,0-1.6-0.5-1.6-1.5v-0.9h-5.5V58c0,1-1,1.7-2.2,1.7c-0.8,0-1.6-0.4-1.6-1.4v-0.2c0.2-1.7,0.4-4.7,0.4-6.8
			c0-0.7-0.1-2.8-0.4-4.5v-0.2c0-0.2,0.1-0.3,0.2-0.3c0.6,0,3.7,1.3,4.5,1.8c0.1,0,0.1,0.1,0.1,0.1h3.5c0.2,0,0.5-0.1,0.7-0.4
			c0.6-1.1,1.3-1.4,1.6-1.4C192.4,46.4,196.2,47.9,196.2,49.4z M192.5,26h-5.8c-1,1.4-2,2.8-3.1,4.1l1.6,0.9c0.1,0,0.1,0.1,0.1,0.1
			h6.1c0.2,0,0.4-0.1,0.7-0.3c1.1-1.3,1.5-1.3,1.6-1.3c0.1,0,0.2,0,0.4,0.1C193.4,28.3,192.8,27.1,192.5,26L192.5,26z M192.3,33.1
			c0-0.4-0.2-0.6-0.7-0.6H185l-0.3,0.2c-0.6,0.4-0.5,0.5-0.6,1.3v3.1h8.3C192.4,35.6,192.4,34.1,192.3,33.1L192.3,33.1z M191,50.4
			c0-0.4-0.2-0.7-0.7-0.7h-4l-0.3,0.2c-0.5,0.4-0.6,0.5-0.6,4.7h5.6L191,50.4L191,50.4z"/>
		<path d="M239.7,38.7c0,0.8-0.1,3.3-1.6,11c3.7-0.4,7.4-0.7,10.4-0.9c2.3-0.1,2.9-0.9,4.6-0.9c1,0,7.5,1.4,7.5,4c0,1-1,1.8-2.5,1.8
			c-0.4,0-0.7,0-1.1-0.1c-3.4-0.8-7.2-1.1-11-1.1c-7.6,0-15.2,1.2-20.3,2.3c-2,0.5-2.8,0.8-3.9,0.8c-2.8,0-7.9-2-7.9-5
			c0-0.8,0.2-1.1,0.5-1.1s0.9,0.3,1.6,0.6c1.9,0.9,4.5,1.3,6.2,1.3c0.3,0,0.8,0,12.2-1.3c0.4-2.4,0.6-6.2,0.6-8.7c0-1.9-0.2-5-1.4-6
			c-4.4,0.8-5.5,0.8-5.8,0.8c-3.4,0-5.9-1.4-5.9-3.6c0-0.6,0.2-1.6,0.7-1.6c0.3,0,0.7,0.3,1.2,0.7c1,0.7,2.6,1,4.5,1
			c5,0,11.9-1.9,13.1-2.2c2.2-0.7,2.9-1.9,5.1-1.9c2,0,5.3,1,5.3,2.6c0,1-1.1,2-3.2,2c-2.9,0.1-7.1,0.7-11.1,1.4
			C239.6,35.7,239.7,37.4,239.7,38.7L239.7,38.7z"/>
		<path d="M275,41.6c0-0.3,0.1-0.6,0.1-1c0.2-2.8,0.4-4.5,0.4-6.5c0-7.1-0.6-11-3.2-11.2c-0.8-0.1-1.5-0.3-1.5-0.8
			c0-0.4,1-1.7,3-1.7c1.2,0,6.5,1.9,6.5,4.2c0,0.4-0.2,0.8-0.4,1.3c-0.4,0.8-0.4,2.5-0.4,3.2c0,6.7,0.3,9.7,0.4,10.4
			c0.1,0.5,0.1,1,0.1,1.3c0,0.9-0.5,4.7-2.7,4.7C276.1,45.5,275,44.3,275,41.6L275,41.6z M271.2,65.3c-0.1,0-0.2-0.1-0.2-0.1
			c0-0.2,0.7-0.7,2.3-1.8c8.6-5.3,14.5-16.1,14.9-29.1c0.1-2.6,0-4.5,0.2-7.4c0.1-0.7,0.1-1.3,0.1-1.9c0-4.2-1.1-5.3-2.5-5.5
			c-0.7-0.1-1.4-0.3-1.4-0.8c0-0.3,0.8-1.7,2.8-1.7c2.6,0,7.3,3.1,7.3,4.8c0,0.7-0.5,1.4-0.8,2.3c-0.9,2.5-1.1,5-1.2,10.8
			C292.3,58.1,273,65.3,271.2,65.3z"/>
		<path d="M326,29.4c0.7,0,1.3,0.2,2.1,0.4c2,0.5,3.1,1.4,3.2,3.4c2-1.5,8.8-7,8.8-8.6c0-0.7-0.7-1-1.4-1c-2.8,0-11.5,1.1-18.2,3.3
			c-1.9,0.6-2.9,1.1-4.3,1.1c-1.1,0-7.9-1.7-7.9-5.6c0-0.6,0.2-1,0.7-1c0.3,0,0.7,0.2,1.1,0.6c1,0.9,3.1,1.3,5.5,1.3
			c1,0,2-0.1,3.1-0.2c5.8-0.6,13.3-1.7,18.5-2.1c2.2-0.2,2.3-1,3.2-1c1.6,0,7.7,3,7.7,5.6c0,1.6-3,1.9-4.2,2.6
			c-3.9,2.5-9.1,5.2-12.8,6.8c-1.6,9-11,23.8-24.1,27.8c-1.3,0.4-1.9,0.5-2.2,0.5c-0.1,0-0.2,0-0.2-0.1c0-0.2,0.7-0.6,1.8-1.3
			c11.3-6.4,19.4-21.8,19.4-27.7c0-1.7-0.7-2.4-1.7-2.4c-1.3,0-1.7-0.3-1.7-0.7c0-0.8,2-2,3.4-2H326L326,29.4z"/>
		<path d="M381.9,23c-0.7,0-1.3,0.1-2,0.1c1.5,1.2,2.5,4.3,2.5,8.2c0,12.5-10,26.3-15.7,26.3c-3.2,0-4.4-4.3-6.7-7.7
			c-1-1.4-1.4-3.4-1.4-5.6c0-9.1,7.8-23.5,24.2-23.5c13.7,0,21,9.4,21,19.3c0,5.4-2.2,11-6.7,15.2c-7.7,7.2-19.1,8-19.6,8
			c-0.6,0-0.8-0.1-0.8-0.2c0-0.3,0.9-0.7,2.7-1.2c10.5-2.9,19.9-10.4,19.9-22.1c0-8.9-6.3-16.9-17.1-16.9H381.9z M376.4,23.8
			c-9.2,2.7-14.6,11.3-14.6,18.8c0,5.3,2.7,9.3,5.3,9.3c4.1,0,12.7-12.5,12.7-23.2c0-2.7-0.4-5.2-2.2-5.2c-0.2,0-0.4,0-0.5,0.1
			c-0.2,0.1-0.4,0.1-0.5,0.1C376.7,23.7,376.4,23.7,376.4,23.8z"/>
		<path d="M69.1,113.5c0,0.4-0.5,0.8-1.6,0.8c-0.6,0-0.8,0.2-1.4,0.9c-1.1,1.3-2.2,2.5-3.4,3.6l1.3,0.3c0.7,0.2,0.9,0.5,0.9,0.8
			s-0.4,0.8-1.1,1.1c-1,0.5-1,1-1.1,2.4c-0.2,3.4-0.2,8.7-0.2,13.8c0,4,0.1,7.7,0.1,10.4v0.1c0,1.6-1.5,2.5-2.8,2.5
			c-1,0-2-0.7-2-2.2v-0.3c0.5-6,0.9-15.7,1-21.2v-4c-5.4,4.7-9.2,5.8-9.2,5.8s-0.1-0.1-0.1-0.1c0-0.1,0.3-0.4,0.9-0.8
			c5.4-4,13-14,13.8-17.5c0.1-0.2,0.1-0.4,0.2-0.4C64.4,109.4,69.1,112,69.1,113.5L69.1,113.5z M68.6,102.4c0,0.4-0.4,0.7-1.2,0.7
			h-0.7c-0.4,0-0.5,0.2-1.1,0.7c-7.3,6.8-14.2,9.5-15.1,9.5c-0.2,0-0.2,0-0.2-0.1c0-0.1,0.3-0.4,0.9-0.8c4.1-2.6,11.3-10.3,12.4-14
			c0.1-0.2,0.1-0.3,0.2-0.3C64.3,98.1,68.6,101.2,68.6,102.4z M70.2,143.8c-0.5,0.2-0.7,0.7-1.1,0.7c-0.8,0-3.7-4.5-3.7-5
			c0-0.1,0.1-0.1,0.2-0.1h0.3c0.5,0.1,1,0.1,1.6,0.1c2.2,0,4.1-0.2,8.3-0.9v-8.6c-1.7,0.1-3.8,0.2-6.5,0.5h-0.1
			c-0.7,0-2.5-2.2-2.5-2.9c3.4,0.5,6.6,0.8,9,0.8c0-1-0.1-1.9-0.1-2.4c-0.1-1.4-0.1-3.1-0.5-5.4c-0.1-0.2-0.1-0.3-0.1-0.4
			c0-0.1,0.1-0.2,0.2-0.2c0.8,0,6.8,0.9,6.8,2.2c0,0.4-0.4,0.7-1.1,1.1c-1.3,0.7-1.4,1-1.4,5h2.6c0.1,0,0.4-0.2,0.6-0.5
			c0.4-0.7,1.9-2.7,2.6-2.7c0.1,0,0.2,0,0.2,0.1c1.4,0.7,3.7,2.8,3.7,4c0,0.4-0.2,0.7-1,0.7h-8.7v7.9c4.1-0.8,8.2-1.7,10.8-2.4
			c0.5-0.1,0.8-0.2,1-0.2s0.3,0.1,0.3,0.1C91.7,136.5,78.4,141.4,70.2,143.8L70.2,143.8z M89.2,118.3c0,0.4-0.2,0.7-1,0.7h-11
			c-2.2,0-4.7,0.1-8.5,0.5h-0.1c-0.8,0-2.5-2.2-2.5-2.8c3.5,0.5,7.1,0.7,9.5,0.8v-8.2c-1.6,0.1-3.5,0.2-5.8,0.5h-0.1
			c-0.8,0-2.5-2.2-2.5-2.8c3.1,0.5,6,0.7,8.3,0.8c0-4.9-0.1-7.3-0.6-10.1c-0.1-0.2-0.1-0.3-0.1-0.4c0-0.2,0.1-0.2,0.2-0.2
			c0.6,0,6.8,0.9,6.8,2.3c0,0.4-0.4,0.8-1.1,1.1c-1,0.5-1.3,0.5-1.3,2.2c-0.1,1.1-0.1,3-0.1,5.2h1.9c0.1,0,0.5-0.2,0.7-0.5
			c0.1-0.1,1.7-2.7,2.5-2.7c0.5,0,4,2.7,4,4c0,0.4-0.2,0.7-1,0.7h-8.1v8.2H82c0.1,0,0.5-0.1,0.7-0.4c0.4-0.7,1.8-2.7,2.5-2.7
			c0.1,0,0.2,0,0.2,0.1C87.2,115.3,89.2,117.1,89.2,118.3z M106.5,117.6c0,0.4-0.3,0.7-1.1,0.7h-6.1l0.4,0.1
			c0.5,0.2,0.8,0.4,0.8,0.7s-0.3,0.5-0.8,0.8c-0.9,0.4-0.9,0.5-1,2c-0.1,2.5-0.1,5.8-0.1,8.9c0,3.9,0.1,7.3,0.3,12.1v0.2
			c0,4.4-4.3,6.6-6.7,6.6c-0.5,0-0.8-0.2-1.1-0.8c-1-1.7-5.9-4.2-5.9-4.6c0-0.1,0.1-0.1,0.2-0.1s0.3,0,0.5,0.1
			c2.3,0.5,4,0.8,5.3,0.8c2.4,0,3.4-0.9,3.5-2.6c0.1-1.3,0.1-5.3,0.1-9.5c0-8.2-0.2-12.5-0.4-14.4l-3.4,0.4H91c-1,0-2.6-2.3-2.6-3
			c4.8,0.7,7.4,0.9,8.8,0.9h0.8c0.4,0,0.7-0.2,0.8-0.5c0.4-0.6,2.2-3.5,2.9-3.5c0.1,0,0.2,0,0.3,0.1
			C103.6,113.5,106.5,116.2,106.5,117.6L106.5,117.6z M104.7,104c0,0.4-0.3,0.7-1.1,0.7h-7.2c-1.4,0-3.4,0.3-5.3,0.6H91
			c-1,0-2.6-2.3-2.6-3c3.6,0.7,5.6,0.9,6.8,0.9h1c0.3,0,0.6-0.2,0.8-0.5c0.4-0.6,2.2-3.5,2.9-3.5c0.1,0,0.2,0,0.3,0.1
			C101.8,99.9,104.7,102.7,104.7,104z"/>
		<path d="M127.7,142.8c-2.4,0-3.4-0.1-3.4-0.4s1.3-0.5,3.1-0.8c19.5-3.1,28-12.2,28-19.2c0-5.2-4.8-8.9-10.7-8.9
			c-5.4,0-12,2.8-18.1,8.9c-2.5,2.5-5.2,3.5-7.5,3.5c-3.7,0-5.7-2.6-5.7-3.4c0-0.4,0.7-0.5,1.5-0.5c2.5-0.2,6.6-2,10.4-4.4
			c5.4-3.4,12.1-6.6,18.7-6.6c8.8,0,15.8,6.1,15.8,13c0,8.9-10.9,18.8-31.8,18.8C128,142.8,127.7,142.8,127.7,142.8z M156.2,111.3
			c-1.6-1.8-3.5-3.2-5-4.1c-0.5-0.3-1-0.5-1-0.7c0-0.5,2.2-0.5,2.3-0.5c4.7,0,7.1,2.1,7.1,4.1c0,1.1-0.8,2-1.8,2
			C157.4,112.2,156.8,111.9,156.2,111.3z M162.5,108.4c-1.6-1.7-3.6-3.2-5.2-4c-0.5-0.2-1-0.4-1-0.6c0-0.3,1.4-0.5,2.8-0.5
			c3.1,0,6.7,1.2,6.7,3.9c0,1.1-0.8,2-1.7,2C163.7,109.3,163.1,109,162.5,108.4z"/>
		<path d="M186.1,146.1c-0.5-7.8-6.5-17-9.3-20.3c-1.1-1.3-1.6-2.7-1.6-4.1c0-1.3,0.4-2.5,1.1-3.9c1.5-2.9,6.1-8.9,8.2-12
			c0.7-1,1.8-2.8,1.8-4.2c0-0.5-0.1-0.9-0.4-1.3c-0.4-0.5-0.6-1-0.6-1.2c0-0.4,0.2-0.5,0.6-0.5c1,0,5.1,1.7,5.1,5
			c0,1.3-0.7,2.6-1.7,3.9c-2.9,3.4-8.9,7.7-11,11.6c-0.3,0.6-0.7,1.4-0.7,2.4c0,0.8,0.2,1.7,1.1,2.6c5,5.3,12.6,14,12.6,20.9
			c0,2.5-1.6,4.1-2.9,4.1C187.2,149.1,186.2,148.2,186.1,146.1L186.1,146.1z"/>
		<path d="M224.9,122c0-7.6-2.6-14.5-6.3-14.5c-3.2,0-6.3,4.7-6.3,10.6c0,3.5,1.1,5.8,1.8,7.4c0.2,0.6,0.4,1.2,0.4,1.8
			c0,1.8-1,3.3-2.2,3.3c-1.7,0-4.1-4.6-4.1-9.4c0-3.5,1-7.1,1.7-10.8c0.3-1.6,1.1-5.2,1.1-7.7c0-1.4-0.2-2.6-1-2.9
			c-0.5-0.2-1-0.5-1-0.9c0-0.4,0.9-1.4,1.9-1.4c1.3,0,3.5,1.2,3.5,4.8c0,1.2-0.1,1.5-2,8.8c-0.1,0.4-0.2,0.7-0.2,0.8
			c0,0.1,0.1,0.1,0.1,0.1c0.1,0,0.2-0.3,0.5-1c1.7-4.4,4.4-6.4,7.1-6.4c6.4,0,9.5,9.1,9.5,17c0,19.9-17.5,29.2-19.8,29.2
			c-0.1,0-0.1,0-0.1-0.1c0-0.2,0.5-0.7,1.9-1.6C220.1,143.2,224.9,132.3,224.9,122L224.9,122z"/>
		<path d="M244.4,133.9c0-2.1,0.2-4.1,0.6-6.1c0.8-4.1,2-7.8,2.7-11.3c0.3-1.5,0.4-2.9,0.4-4.1c0-2.6-0.5-4.6-1.1-5.7
			c-0.4-0.7-0.8-1.2-0.8-1.5s0.3-0.4,1.2-0.4c1.9,0,5,2.6,5,7.1c0,2-0.7,4-1.7,6.5c-1.5,3.7-3.3,8.2-3.3,12.3c0,1.4,0.4,3.7,0.9,3.7
			c0.2,0,0.4-0.3,0.7-0.9c1.5-3.2,5.6-11.2,6.2-11.2c0.1,0,0.1,0.1,0.1,0.2c0,0.2-0.1,0.7-0.4,1.4c-0.8,2-4.1,10.6-4.1,15.7
			c0,1.3,0.2,2.3,0.4,3.2c0.1,0.4,0.2,0.8,0.2,1.2c0,1.5-0.9,2.4-1.9,2.4C245.3,146.5,244.4,136.9,244.4,133.9z M281.1,138
			c2.3,0,3.6,1.1,3.6,2.3c0,3.7-8.5,3.8-9.5,3.8c-10.3,0-13.6-5.3-13.6-8.3c0-0.4,0.1-0.6,0.2-0.6c0.3,0,0.7,0.4,1.3,1.2
			c1.2,1.7,5.2,2.9,9.7,2.9c1.2,0,2.4-0.1,3.6-0.2c1.4-0.2,2.4-1,4.4-1L281.1,138L281.1,138z M271.9,116.6c-9,0-9.5-5.4-9.5-5.8
			c0-0.2,0.1-0.2,0.2-0.2s0.6,0.2,1.1,0.5c1.7,1,3.9,1.4,6.1,1.4c1.7,0,3.4-0.2,5-0.6c0.8-0.2,1.4-0.6,2.2-0.7
			c0.4-0.1,0.8-0.1,1.1-0.1c1.9,0,3.1,1,3.1,2.1C281.4,116.1,274.9,116.6,271.9,116.6z"/>
		<path d="M79.1,208.5v0.2c0,1.2-1.1,2.3-2.5,2.3c-1,0-1.9-0.6-1.9-1.9v-0.4c0.4-3.8,0.7-10.9,0.7-13.2v-0.8c-4.3,4.8-7.6,6.6-8,6.6
			c-0.1,0-0.1,0-0.1-0.1s0.2-0.4,0.7-0.9c1.2-1.2,2.5-2.8,3.8-4.6H65C65,199,65,202.6,65,206.1c2.9-1.1,5.6-2.2,7.7-3.1
			c0.6-0.2,1-0.4,1.1-0.4c0.1,0,0.2,0.1,0.2,0.1c0,0.7-4.9,3.9-9.1,6.7c0,3.4,0.1,6.8,0.1,9.7c0,1.6,0.2,5.6,0.2,7.1
			c0,4.8-4,6.4-6.4,6.4c-0.5,0-0.8-0.2-1.2-0.8c-1.1-1.9-5.1-4.3-5.1-4.8c0-0.1,0.1-0.1,0.2-0.1c0.1,0,0.3,0,0.5,0.1
			c2,0.4,3.5,0.7,4.6,0.7c2,0,2.8-0.8,2.9-2.5c0.1-3.7,0.1-8.6,0.2-13.7l-4.8,2.8c-0.5,0.2-0.6,1-1.1,1c-1.2,0-4.3-5-4.3-5
			c0-0.1,0.2-0.1,0.6-0.1c2.1-0.2,3.1-0.4,9.5-2.5v-11.6c-1.9,0.1-4.2,0.2-6.7,0.5h-0.1c-0.7,0-2.5-2.2-2.5-2.9
			c3.2,0.5,6.6,0.7,9.2,0.8c-0.2-9.6-0.3-10.5-0.8-13.3c-0.1-0.2-0.1-0.2-0.1-0.4s0.1-0.2,0.2-0.2c0.5,0,7.5,1,7.5,2.4
			c0,0.5-0.6,1-1.3,1.4c-1.1,0.6-1.1,0.4-1.3,2.5c-0.1,1.9-0.2,4.5-0.2,7.6h0.5c0.2,0,0.5-0.2,0.7-0.5c1.7-2.9,1.9-3.1,2.4-3.1
			c0.1,0,0.2,0,0.2,0.1c1.3,0.6,2.8,2.2,3.5,3.8c0,0.1,0.1,0.1,0.1,0.1c1.6-2.5,5.8-9.2,6.4-13c0.1-0.4,0.1-0.5,0.2-0.5
			c0.7,0,5.9,2.3,5.9,3.5c0,0.5-0.7,0.9-1.7,1c-0.9,0.1-1.1,0.2-3.2,3.5l0.4,0.1l0.3,0.2h6.1c0.6-2,1.1-4.6,1.1-7.9
			c0-0.4,0-0.5,0.2-0.5c0.2,0,6.4,1.9,6.4,3.2c0,0.5-0.6,1-1.7,1.1c-0.5,0.1-0.7,0.3-1,0.7c-1.1,1.3-2.1,2.5-3.2,3.4h6.7
			c0.2,0,0.5-0.2,0.7-0.5c0.7-1.2,2.2-2.9,2.8-2.9c0.7,0,4.8,2.8,4.8,4.1c0,0.4-0.2,0.7-1.1,0.7H91c0.7,0.4,0.8,0.4,0.8,0.6
			c0,0.3-0.4,0.7-1.2,1c-0.4,0.1-0.5,1-0.5,1.6c0,0.4-0.1,0.8-0.1,1.3h3.5c0.2,0,0.6-0.2,0.8-0.5c0.8-1.2,2-2.2,2.3-2.2
			c0.8,0,4.4,2.3,4.4,3.5c0,0.3-0.2,0.6-1.1,0.6H90c0,1.3-0.1,2.7-0.1,4.1h3.7c0.2,0,0.6-0.2,0.8-0.5c0.6-0.8,1.3-1.5,1.9-2
			c0.1-0.1,0.3-0.2,0.5-0.2c0.8,0,4.3,2.2,4.3,3.4c0,0.4-0.2,0.7-1.1,0.7h-10c0,1.7,0.1,3.4,0.1,4.9h6c0.2,0,0.6-0.2,0.8-0.5
			c0.1-0.1,2-2.9,2.8-2.9s4.9,2.6,4.9,4.1c0,0.4-0.2,0.7-1.1,0.7L79.1,208.5L79.1,208.5z M90.1,233.7c-0.7,0-1-0.4-1.3-0.8
			c-0.8-1.6-5.9-4.1-5.9-4.4H83c0.1,0,0.2,0,0.5,0.1c2.5,0.8,4.8,1.2,6.8,1.2c2.5,0,4.6-0.7,5.7-2.3c1.7-2.4,2.2-6.4,2.2-6.5
			c0-0.4-0.2-0.6-0.5-0.6h-5.4l-0.7,2.3c-0.4,1.2-1.6,1.7-2.6,1.7c-1,0-1.8-0.5-1.8-1.3c0-0.2,0.1-0.5,0.2-0.8
			c1.1-2.6,2.5-6.7,2.5-7.5c0-0.2-0.2-0.4-0.5-0.4h-6.2c1.7,0.4,2.2,0.5,2.2,0.9c0,0.2-0.2,0.5-0.7,0.7c-0.7,0.2-0.8,0.1-1.2,1.7
			c-4.1,16.1-20.1,16.3-21.1,16.3c-0.4,0-0.6-0.1-0.6-0.2s0.5-0.4,1.2-0.5c10.3-2.5,16.4-10.9,16.4-18.9c-2.5,0.1-5,0.2-7.6,0.4
			h-0.1c-0.9,0-2.5-2-2.5-2.8c5.7,0.7,12.6,0.8,14.7,0.8h5.2c0.3,0,0.7-0.2,0.9-0.5c0.4-0.4,0.9-1,1.3-1.3c0.2-0.2,0.3-0.2,0.5-0.2
			c0.5,0,4.6,2.1,4.6,3.5c0,0.6-0.8,0.9-1.4,1.1c-1.4,0.5-1.4,0.5-2.2,3.2h4.7c0.4,0,0.8-0.1,1-0.4c0.7-0.9,1.6-1.3,1.7-1.3
			c1,0,4.3,2.2,4.3,3.1c0,0.5-0.5,1-1.4,1.4c-0.5,0.2-0.9,0.3-1,1c-1.2,5.2-3,11.2-11.2,11.2L90.1,233.7L90.1,233.7z M86.4,196.7
			h-7.3c-0.1,1.3-0.1,2.7-0.1,4.1h7.3V196.7z M79.1,202.3c0,1.7,0.1,3.4,0.1,4.9h7.1c0.1-1.2,0.1-3,0.1-4.9H79.1z M80.7,190.9
			l-0.7,0.4c-0.4,0.1-0.8,0.5-0.8,4.1h7.2c0-1.4-0.1-3-0.3-4.4C86.1,190.9,80.7,190.9,80.7,190.9z"/>
		<path d="M128.2,210c6.1-6.3,12.2-8.8,17.3-8.8c8,0,13.7,6,13.7,11.9c0,12.9-19.3,19-22.6,19c-0.2,0-0.3-0.1-0.3-0.1
			c0-0.2,0.7-0.5,2.2-1.2c5.5-2.3,15.8-8.9,15.8-17.4c0-6.6-6.2-9.4-10.8-9.4c-7.4,0-12.5,5.1-15.9,8.5c-0.2,3.2-0.2,5.3-0.2,5.5
			c0,3.5,0.5,7.1,1.3,10.1c0.2,0.8,0.2,1.4,0.2,2c0,1.9-0.8,2.9-1.7,2.9c-1.1,0-2.5-1.5-2.8-4.7c-0.2-2.3-1.4-5.6-2.6-8
			c-1.3,2.8-1.9,4.7-2.3,6.1c-1,2.8-2.9,4.3-4.1,4.3c-0.7,0-1.3-0.5-1.3-1.6c0-1.1,0.6-3.7,6.2-11.8c-1.2-2.2-2.6-4.2-3.5-5.1
			c-1-1-1.4-1.8-1.4-2.6s0.5-1.4,1.6-1.9c1.4-0.6,2.4-1.4,3.2-2.2c2.1-2.2,4.7-4.1,7.1-5.6c0.1-1,0.1-1.9,0.1-2.7
			c0.1-1.1,0.1-2.1,0.1-2.9c0-4.7-0.9-5.9-3.8-7.8c-0.5-0.3-0.8-0.5-0.8-0.7c0,0,0.8-1.1,2.3-1.1c0.8,0,5.3,0.4,5.3,6.1
			c0,1.1-0.8,6.7-1,7.9h0.4c2.5,0,3.4,0.7,3.4,1.7c0,1.3-1.3,3.1-2.6,4.9c-0.8,1.1-1.7,2.5-2.7,4l-0.1,1L128.2,210L128.2,210z
			 M121.8,215.3c1.5-1.9,3.2-4.4,4.6-6.8c0.2-2.1,0.4-4.2,0.6-6.1c-1.8,1.3-3.4,3.3-4.4,5.6c-0.8,1.8-1.6,2.3-3.5,2.6
			c-0.5,0.1-0.7,0.2-0.7,0.5c0,0.5,0.8,1.9,2.6,5.2C121,216.4,121.8,215.3,121.8,215.3z M122.5,219c1.9,3.2,2.2,3.6,2.5,3.6
			c0.1,0,0.2-0.1,0.2-0.5c0-2.6,0.3-5.2,0.5-7.7c-1,1.3-2,2.6-3,4L122.5,219L122.5,219z M128.5,204.8c1.1-2,1.1-2.5,1.1-2.5
			c0-0.4-0.1-0.7-0.5-0.8L128.5,204.8L128.5,204.8z"/>
		<path d="M181.8,208.6c0.1,0,0.1-0.1,0.3-0.2c2.7-1.7,6.1-2.7,9.4-2.7c7.7,0,12.5,5.4,12.5,11.2s-5.5,13.7-16.6,13.7
			c-5.8,0-9.7-2.9-9.7-6.1c0-2.9,3-4.5,5.9-4.5c4,0,6.4,3.1,6.4,6.2c0,0.5-0.1,1-0.2,1.5c7-1.7,9.7-6.5,9.7-10.7c0-4.7-3.4-9-9.4-9
			c-2.1,0-9.1,0.5-13.1,9.1c-1.4,3.1-2.4,5-4.4,5c-1.1,0-1.9-0.8-1.9-2c0-1.7,2.2-4.3,5-7.5c3.6-4.1,12.1-15.5,14.6-19.7
			c0.3-0.4,0.4-0.8,0.4-1.1c0-0.4-0.2-1-1.5-1c-2.8,0-4.1,5.8-8.2,5.8c-2.2,0-4-1.4-4-3.7c0-0.7,0.1-1.2,0.5-1.2
			c0.3,0,0.7,0.1,1.1,0.3s1,0.2,1.4,0.2c0.8,0,1.7-0.2,2.5-0.8c2.3-1.6,5.1-3.6,8.3-3.6c3.5,0,5.7,2.5,5.7,3.8
			c0,1.2-1.3,2.3-2.6,3.2C189.6,198,181.8,208.4,181.8,208.6L181.8,208.6L181.8,208.6z M186.4,225.9c0-2.1-1.6-3.9-3.8-3.9
			c-2.6,0-2.7,2-2.7,2.3c0,0.2,0,3.1,6,3.7C186.2,227.3,186.4,226.6,186.4,225.9L186.4,225.9z"/>
		<path d="M225.1,193.8c-2.3,0-5.3,0.1-9.1,0.5H216c-0.7,0-2.5-2.2-2.5-2.9c4.4,0.7,9.2,0.8,11.7,0.8h1.9c0.2,0,0.5-0.2,0.7-0.5
			c2-3.4,2.6-3.4,2.8-3.4c0.8,0,5,3.4,5,4.8c0,0.3-0.2,0.6-1.1,0.6H225.1L225.1,193.8z M232.9,229.8c0,1.3-1.4,2.1-2.6,2.1
			c-1,0-1.9-0.5-1.9-1.7c0-0.4,0.1-0.9,0.1-1.3h-7c0,1,0.1,1.9,0.1,2.9v0.1c0,1.4-1.7,2-2.6,2c-1,0-1.9-0.5-1.9-1.7v-0.2
			c0.4-4.5,0.4-6.8,0.4-9.1c0-6.1-0.6-9.2-0.7-9.7c0-0.1-0.1-0.2-0.1-0.3c0-0.1,0.1-0.2,0.1-0.2c0.3,0,4.9,1.6,6,2.7h4.5
			c0.2,0,0.5-0.1,0.7-0.4c0.7-1.1,1.6-2,1.9-2c0.8,0,4.9,2.3,4.9,3.7c0,0.5-0.5,1-1.2,1.4c-1.1,0.7-1.1,1.1-1.1,3.1
			c0,2.2,0.2,4.9,0.4,8.6L232.9,229.8L232.9,229.8z M225.2,185.4c-1.8,0-3.2,0.1-6,0.5h-0.1c-0.8,0-2.2-2-2.2-2.9
			c3.5,0.7,6.5,0.8,8.4,0.8h0.7c0.1,0,0.4-0.2,0.6-0.5c0.5-1,1.6-2.4,2.2-3.1c0.1-0.1,0.3-0.2,0.5-0.2c0.1,0,0.2,0,0.3,0.1
			c1.6,0.7,4.2,3.3,4.2,4.4c0,0.4-0.2,0.8-1.1,0.8H225.2z M225.2,201.3c-1.8,0-3.2,0.1-6,0.5h-0.1c-0.7,0-2.2-1.9-2.2-2.9
			c3.5,0.7,6.5,0.8,8.4,0.8h0.8c0.1,0,0.5-0.2,0.7-0.5c0.1-0.1,1.6-3.1,2.6-3.1c0.1,0,0.2,0,0.2,0.1c1.4,0.7,4.1,3.2,4.1,4.2
			c0,0.4-0.2,0.8-1.1,0.8L225.2,201.3L225.2,201.3z M225.2,209.2c-1.8,0-3.2,0.1-6,0.5h-0.1c-0.7,0-2.2-2-2.2-2.9
			c3.5,0.7,6.6,0.8,8.5,0.8h0.7c0.1,0,0.5-0.2,0.7-0.5c0.4-0.7,1.8-3.1,2.6-3.1c0.2,0,0.3,0,0.4,0.1c1.3,0.6,4,3.1,4,4.2
			c0,0.4-0.2,0.8-1.1,0.8L225.2,209.2L225.2,209.2z M228.5,227.4c0.1-2.5,0.1-4.5,0.1-6.3c0-1.1-0.1-2.3-0.1-3.4
			c0-0.4-0.2-0.7-0.6-0.7h-5.3l-0.5,0.4c-0.5,0.4-0.6,0.7-0.6,1.6c0,0.6-0.1,1.4-0.1,8.4L228.5,227.4L228.5,227.4z M253.8,192.1
			c3.2,5.6,8.6,11.6,16,14.5c0.4,0.1,0.5,0.2,0.5,0.4c0,0.6-3.8,1-5.6,2.6c-0.2,0.2-0.5,0.4-0.7,0.4c-1.5,0-8.2-8.3-11.2-17.8h-4.4
			c-1.4,3.2-3.2,6.2-5.2,8.8c2.6,0.4,4.1,0.5,5.8,0.5h0.6c0.2,0,0.4-0.2,0.6-0.5c0.8-1.5,1.6-2.7,2-2.7c0.1,0,0.2,0,0.3,0.1
			c2.3,1.1,3.6,3.4,3.6,3.8c0,0.4-0.2,0.7-1,0.7h-6.4c-1.9,0-2.6,0.2-4.5,0.5h-0.1c-0.5,0-1.3-0.7-1.8-1.4
			c-5.3,6.9-10.3,9.4-10.9,9.4c-0.1,0-0.2-0.1-0.2-0.1c0-0.2,0.2-0.4,0.5-0.7c4.7-3.8,9.2-10.9,12-18.2c-1.9,0.1-3.9,0.2-6.1,0.4
			h-0.1c-0.9,0-2.6-2.2-2.6-2.9c3.1,0.4,6.5,0.7,9.3,0.8c1-3.1,1.9-6.8,1.9-9.4c0-0.7,0.1-0.7,0.1-0.7c0.1,0,7.2,1.7,7.2,3
			c0,0.5-0.6,1-1.9,1.2c-0.6,0.1-0.9,0.4-1.1,1.1c-0.5,1.6-1.1,3.2-1.7,4.8h9.3c0.2,0,0.6-0.2,0.8-0.5c0.7-1.1,2.3-3.3,2.9-3.3
			c1.1,0,5.2,3.4,5.2,4.7c0,0.3-0.3,0.6-1.2,0.6L253.8,192.1L253.8,192.1z M246.7,219l-0.9,3.2c-0.4,1.1-1.7,1.7-2.8,1.7
			c-1,0-1.8-0.4-1.8-1.3c0-0.2,0.1-0.5,0.2-0.8c0.5-1.1,2.8-7.2,2.9-10.3c-1.7,0.1-3.5,0.2-5.3,0.4h-0.1c-1,0-2.6-2-2.6-2.8
			c5,0.6,8.9,0.8,11.9,0.8h5.9c0.3,0,0.5-0.2,0.7-0.5c1.6-2.3,2-2.9,2.5-2.9c0.1,0,0.2,0.1,0.4,0.1c1.9,0.8,4.3,3.1,4.3,4.1
			c0,0.4-0.2,0.7-1.1,0.7h-11.1c0.1,0.1,0.1,0.1,0.1,0.2c0,0.2-0.2,0.5-0.8,0.8c-0.7,0.2-0.8,0.4-2,5.2h7.7c0.6,0,1.1-0.2,1.3-0.4
			c0.6-0.7,0.8-1.1,1.3-1.4c0.1-0.1,0.2-0.2,0.4-0.2c0.8,0,4.7,2.5,4.7,3.4c0,0.5-0.5,0.9-1.5,1.4c-0.8,0.4-0.9,0.4-1,1.3
			c-0.7,4.6-2.2,12.6-10.7,12.7c-0.5,0-1.1-0.3-1.3-0.8c-1-2.3-5.6-4.9-5.6-5.3c0,0,0.1-0.1,0.1-0.1s0.2,0.1,0.5,0.1
			c2.8,0.8,4.9,1.3,6.6,1.3c1.2,0,5.9-0.2,6.4-9.7c0-0.4-0.2-0.8-0.7-0.8L246.7,219L246.7,219z"/>
		<path d="M296.3,205.9c0-7.6-2.6-14.5-6.3-14.5c-3.2,0-6.3,4.7-6.3,10.6c0,3.5,1.1,5.8,1.8,7.4c0.2,0.6,0.4,1.2,0.4,1.8
			c0,1.8-1,3.3-2.2,3.3c-1.7,0-4.1-4.6-4.1-9.4c0-3.5,1-7.1,1.7-10.8c0.3-1.6,1.1-5.2,1.1-7.7c0-1.4-0.2-2.6-1-2.9
			c-0.5-0.2-1-0.5-1-0.9c0-0.4,0.9-1.4,1.9-1.4c1.3,0,3.5,1.2,3.5,4.8c0,1.2-0.1,1.5-2,8.8c-0.1,0.4-0.2,0.7-0.2,0.8
			c0,0.1,0.1,0.1,0.1,0.1c0.1,0,0.2-0.3,0.5-1c1.7-4.4,4.4-6.4,7.1-6.4c6.4,0,9.5,9.1,9.5,17c0,19.9-17.5,29.2-19.8,29.2
			c-0.1,0-0.1,0-0.1-0.1c0-0.2,0.5-0.7,1.9-1.6C291.5,227.1,296.3,216.2,296.3,205.9L296.3,205.9z"/>
		<path d="M332.3,215.4c-4.8,3-6.7,6-6.7,8.3s2.5,5.2,7.5,5.2c2.2,0,4.7-0.5,6.9-1.7c0.7-0.4,1.4-0.5,2-0.5c1.5,0,2.5,1,2.5,2.1
			c0,2.8-5.3,4.3-9.7,4.3c-6.5,0-11.8-3.9-11.8-8.5c0-3.7,3.4-7.9,9.3-11.5c0-3.7-0.5-8.9-3.8-8.9c-1.4,0-3.2,1.1-5.3,4l-1.8,3.4
			c-1.3,2.3-2.7,4.7-4.4,4.7c-0.2,0-1.8-0.1-1.8-2.2c0-1.2,0.6-2.9,2.5-4.6c5.5-5,7.3-8.2,10-14.2l0.1-0.2l-0.1,0.1
			c-1.2,0.3-2.3,0.5-3.3,0.5c-5.8,0-7.4-4.1-7.4-5.7c0-0.2,0.1-0.3,0.2-0.3c0.3,0,0.7,0.2,1.5,0.8c1.8,1.3,3.5,1.6,5,1.6
			c1.8,0,3.7-0.4,5.3-1c0.1-0.7,0.1-1.3,0.1-1.7c0-1.4-0.2-3-2.3-3.5c-0.5-0.1-1.1-0.3-1.1-0.6c0-0.2,0.9-1.5,2.9-1.5
			c1.6,0,2.8,0.5,3.4,2.8h0.5c1.1,0.1,2,0.2,2.8,0.2c0.3,0,0.5-0.1,0.8-0.1c0.4-0.2,0.7-0.2,1-0.2c1.5,0,1.5,1.4,1.5,1.6
			c0,3.2-6,5.5-8.1,6.2l-0.1,0.3c-2,4.4-3.3,6.7-4.6,9.1c1.1-0.6,2.2-0.8,3.2-0.8c3.1,0,5.4,2.6,6.2,6.2c1.7-4.4,6.4-12.8,13.3-12.8
			c3.3,0,7.4,2.2,7.4,5.3c0,2.3-2.5,4.7-6.6,6.3c-4.2,1.6-9.4,3.6-13.4,5.6c0.2,1.4,0.2,2.8,0.2,4.3c0,0.7,0,1.5-0.1,2.2
			c-0.2,2.3-1.8,3.9-3.1,3.9c-0.9,0-1.7-0.8-1.7-2.8c0-0.2,0.1-0.5,0.1-0.7c0.1-1.5,0.9-2.1,1-4.1V215.4L332.3,215.4z M332.2,187.2
			c0.1,0.2,0.1,0.5,0.1,0.7c0,0.7-0.1,1.3-0.2,2c1.4-0.7,2.1-1,2.1-1.7c0-0.3-0.2-0.6-1.7-1L332.2,187.2L332.2,187.2z M347.5,205.3
			c2.6-1.4,3.8-2.9,3.8-4.2s-1.1-2.9-3.5-2.9c-5.5,0-10.6,8.5-12.2,13.3C339.3,209.5,344,207.2,347.5,205.3z"/>
		<path d="M417.1,192.9c0,0.5-0.4,1-1.4,1.5c-1.4,0.7-1.4,0.8-1.4,2.4c0.1,1.8,0.1,3.9,0.1,6.2c0,5.8-0.2,12.4-0.7,16.5
			c-1.9,13.6-10,14.1-11.3,14.1c-0.4,0-0.9-0.2-1.1-0.7c-0.6-1.7-6.8-5-6.8-5.5h0.1c0.1,0,0.2,0,0.4,0.1c2.3,0.7,4.4,1.1,6.3,1.1
			c7.9,0,8.9-8.7,8.9-26.6c0-3.4-0.1-6.4-0.1-8.2c0-0.8-0.3-1-0.9-1h-19.5c-4,6.1-7.4,9.1-8.5,9.8l0.2,19.7c0,1.3,0.1,2.9,0.2,4v0.4
			c0,5-4.7,6.2-6.2,6.2c-0.5,0-0.8-0.2-1.1-0.8c-0.7-1.3-5.5-3.7-5.5-4.2c0-0.1,0.1-0.1,0.2-0.1s0.3,0,0.5,0.1
			c1.9,0.4,3.3,0.5,4.4,0.5c2.9,0,3.3-1.1,3.4-2.6c0.1-3.2,0.1-8.6,0.1-14.5h-6.2c-1.4,19.7-9.8,23.3-10,23.3
			c-0.1,0-0.1-0.1-0.1-0.2c0-0.2,0.2-0.6,0.8-1.3c4.6-5.6,5.6-17.2,5.6-27.3c0-11-0.2-18.7-1.1-22.6c-0.1-0.2-0.1-0.3-0.1-0.4
			s0.1-0.1,0.1-0.1c0.4,0,3.8,1.1,5.6,2.3l0.3,0.2h3.9c0.3,0,0.7-0.2,0.8-0.5c0.1-0.1,1.2-1.9,1.8-1.9c0.8,0,4.6,2.5,4.6,3.5
			c0,0.6-0.6,1.1-1.3,1.4c-0.9,0.5-0.9,1-1,1.9c-0.1,2-0.1,6.8-0.1,12.2l0.2-0.2c3.2-4.1,8.4-15.8,8.4-20.5c0-0.5,0.1-0.6,0.2-0.6
			c1.3,0,6.5,2.3,6.5,3.2c0,0.5-0.6,1-1.7,1.2c-0.8,0.2-0.8,0.4-1.2,1.1c-0.8,1.6-1.7,3.4-2.8,5.2H409c0.7,0,0.8-0.2,1-0.5
			c0.6-0.9,1.5-1.9,1.9-1.9C412.7,188.7,417.1,191.5,417.1,192.9L417.1,192.9z M377.3,187.2c0-0.4-0.2-0.7-0.7-0.7h-4.3
			c-0.1,0.1-0.2,0.2-0.3,0.3c-0.5,0.4-0.7,0.8-0.7,1.4v1.1c0,2.2,0.1,5.3,0.1,8.4h6C377.4,193,377.3,189.1,377.3,187.2z
			 M377.4,199.2h-6c0,2.6,0.1,5.2,0.1,6.9c0,1.1-0.1,2.3-0.1,3.5h6.1V199.2L377.4,199.2z M405.1,204.2c-0.1,1.7-0.2,3.4-0.2,5.3
			c0,3.4,0.2,7.2,0.4,12.1c0,0.4-0.4,2.2-2.3,2.2c-0.9,0-1.7-0.5-1.7-1.9v-0.1c0-0.6,0.1-1.3,0.1-1.9h-12.1v4.5
			c0,1.3-1.2,2.2-2.3,2.2c-0.8,0-1.6-0.5-1.6-1.9v-0.1c0.2-5.2,0.5-10.8,0.5-15.7c0-2.2-0.1-7.9-0.4-9.7V199c0-0.1,0-0.1,0.1-0.1
			c1,0,5.9,1.1,5.9,2.1c0,0.4-0.4,0.7-0.9,1c-0.9,0.5-1,0.3-1.1,1.7c1.3,0.2,3.2,0.6,5,1.3c0.8-3.3,1.3-6.8,1.3-8v-0.4
			c0-0.2-0.1-0.4-0.1-0.5s0.1-0.2,0.1-0.2c0.2,0,5.5,1.3,5.5,2.6c0,0.2-0.1,0.5-0.4,0.7h0.1c0,0,6.2,0.9,6.2,2.2
			c0,0.4-0.4,0.8-0.9,1.1C405.2,202.9,405.2,202.6,405.1,204.2L405.1,204.2z M389.4,204.4c-0.2,4.1-0.2,9-0.2,14h0.1
			c1.8-2.9,3.3-7,4.4-11C392.4,206.3,390.8,205.2,389.4,204.4z M400.9,199.2c-0.2,0.2-0.6,0.3-1,0.4c-0.5,0.2-0.9,0.3-1,0.9
			c-0.4,1.8-1,3.7-1.6,5.7c1.3,0.7,3.4,2.2,3.4,4.1c0,1.2-0.7,2.2-1.7,2.2c-0.7,0-1.4-0.5-2-1.6c-0.3-0.4-0.6-1-1-1.4
			c-1.4,3.3-3.2,6.5-5.6,8.8h11c0.1-2.9,0.1-5.6,0.1-8.1c0-8.2-0.4-10.3-0.5-10.8C400.9,199.4,400.9,199.3,400.9,199.2L400.9,199.2z
			"/>
		<path d="M427.4,217.9c0-2.1,0.2-4.1,0.6-6.1c0.8-4.1,2-7.8,2.7-11.3c0.3-1.5,0.4-2.9,0.4-4.1c0-2.6-0.5-4.6-1.1-5.7
			c-0.4-0.7-0.8-1.2-0.8-1.5s0.3-0.4,1.2-0.4c1.9,0,5,2.6,5,7.1c0,2-0.7,4-1.7,6.5c-1.5,3.7-3.3,8.2-3.3,12.3c0,1.4,0.4,3.7,0.9,3.7
			c0.2,0,0.4-0.3,0.7-0.9c1.5-3.2,5.6-11.2,6.2-11.2c0.1,0,0.1,0.1,0.1,0.2c0,0.2-0.1,0.7-0.4,1.4c-0.8,2-4.1,10.6-4.1,15.7
			c0,1.3,0.2,2.3,0.4,3.2c0.1,0.4,0.2,0.8,0.2,1.2c0,1.5-0.9,2.4-1.9,2.4C428.3,230.5,427.4,220.8,427.4,217.9L427.4,217.9z
			 M464.1,222c2.3,0,3.6,1.1,3.6,2.3c0,3.7-8.5,3.8-9.5,3.8c-10.3,0-13.6-5.3-13.6-8.3c0-0.4,0.1-0.6,0.2-0.6c0.3,0,0.7,0.4,1.3,1.2
			c1.2,1.7,5.2,2.9,9.7,2.9c1.2,0,2.4-0.1,3.6-0.2c1.4-0.2,2.4-1,4.4-1L464.1,222L464.1,222z M454.9,200.6c-9,0-9.5-5.4-9.5-5.8
			c0-0.2,0.1-0.2,0.2-0.2s0.6,0.2,1.1,0.5c1.7,1,3.9,1.4,6.1,1.4c1.7,0,3.4-0.2,5-0.6c0.8-0.2,1.4-0.6,2.2-0.7
			c0.4-0.1,0.8-0.1,1.1-0.1c1.9,0,3.1,1,3.1,2.1C464.4,200.1,457.9,200.6,454.9,200.6L454.9,200.6z"/>
	</g>
</g>
</svg>
