<?xml version="1.0" encoding="UTF-8"?>
<svg id="_レイヤー_2" data-name="レイヤー 2" xmlns="http://www.w3.org/2000/svg" viewBox="0 0 360.61 80.12">
  <g id="_デザイン" data-name="デザイン">
    <g>
      <path d="m22.71,30.42c0,.94-.9,1.66-1.91,1.66-.76,0-1.4-.4-1.4-1.3v-.04c0-.58.04-1.19.04-1.8H6.98v1.73c0,.65-.65,1.58-1.91,1.58-.72,0-1.33-.4-1.33-1.3v-.14c.29-4.03.36-8.78.36-13.21,0-10.8-.4-13.61-.61-14.54,0-.07-.04-.14-.04-.22s.04-.11.11-.11c.25,0,3.17,1.12,4.21,1.84l.14.14h10.76c.18,0,.4-.14.5-.32.43-.65,1.19-1.37,1.44-1.37.36,0,3.6,1.76,3.6,2.66,0,.4-.43.72-1.04.97-.58.25-.72.36-.76,1.08-.07.9-.07,2.45-.07,4.43,0,5.36.18,13.57.36,18.18v.07ZM7.78,5.69l-.29.22c-.5.32-.54.61-.54,1.44-.04,1.48-.04,4.72-.04,8.53h12.63c0-3.96-.04-7.49-.11-9.61,0-.36-.22-.58-.54-.58H7.78Zm-.86,11.16c0,3.6,0,7.59.04,11.12h12.53c.04-3.56.07-7.49.07-11.12H6.91Z" fill="#fff"/>
      <path d="m62.92,24.37c0,.32-3.46.54-4.64,1.51-.18.14-.32.22-.5.22-1.26,0-8.46-7.7-11.01-16.13v2.12c0,3.31.04,7.16.11,10.83h.72c.29,0,.5-.14.68-.4,1.26-1.87,1.33-1.98,1.55-1.98.72,0,2.99,2.27,2.99,2.81,0,.25-.18.47-.72.47h-5.22c.04,2.63.11,5.15.18,7.34v.04c0,1.19-1.4,1.48-1.87,1.48-.72,0-1.37-.36-1.37-1.26v-.14c.14-2.05.25-4.64.32-7.45-1.48.04-3.96.14-5.15.29-.79,0-1.4-1.22-1.4-1.58,1.33.25,4.28.4,6.55.4.07-3.24.11-6.73.11-9.79-5.76,10.33-15.23,14.58-16.05,14.58-.04,0-.07,0-.07-.04,0-.11.25-.29.68-.61,3.96-2.7,9.97-8.82,14.15-17.28h-.76c-2.02,0-7.05.07-10.26.4h-.04c-.65,0-1.62-1.4-1.62-1.87,3.71.43,9.97.58,12.06.58h1.87c0-2.12,0-6.52-.47-8.53-.04-.11-.04-.18-.04-.25s.04-.11.11-.11c.54,0,4.75.65,4.75,1.51,0,.29-.32.58-.86.86-.65.36-.61.36-.72,1.3-.11,1.01-.14,2.84-.18,5.22h7.31c.25,0,.5-.14.61-.32,1.66-2.48,1.8-2.56,2.16-2.56.07,0,.14,0,.22.04.79.29,3.42,2.45,3.42,3.31,0,.22-.18.43-.79.43h-12.42c2.77,5.33,8.67,12.13,15.37,14.43.18.07.25.11.25.14Z" fill="#fff"/>
      <path d="m78.12,9.93c0,.18-.14.4-.65.4h-4.21v2.23c2.12,0,4.36.65,4.36,2.41,0,.76-.58,1.4-1.26,1.4-.4,0-.86-.25-1.26-.86-.54-.83-1.08-1.84-1.84-2.41,0,6.48.11,14.4.22,18.03v.07c0,.76-.65,1.44-1.66,1.44-.65,0-1.22-.36-1.22-1.3v-.07c.14-3.42.25-9.03.32-14.36-2.59,4.64-6.41,6.7-6.69,6.7t-.04-.04c0-.07.14-.32.54-.72,1.8-1.8,5.58-8.06,6.23-11.95v-.54c-1.01.04-2.09.07-3.71.29h-.04c-.43,0-1.44-1.33-1.44-1.73,2.05.32,3.82.47,5.18.5,0-1.66-.14-7.16-.43-8.67-.04-.11-.04-.18-.04-.25s.04-.11.11-.11c0,0,4.28.54,4.28,1.44,0,.25-.29.47-.72.72-.54.29-.68.32-.76,1.22-.07,1.01-.14,3.06-.14,5.65h.32c.11,0,.36-.11.47-.29.29-.5,1.12-1.94,1.55-1.94.79,0,2.52,2.2,2.52,2.74Zm21.17,4.97c0,.22-2.34.58-3.31,1.37-.18.14-.32.22-.47.22-.04,0-1.58-.4-3.85-3.53-.36.25-.36.43-.36,1.01,0,.61.14,1.69.18,2.34v.04c0,.72-.79,1.08-1.33,1.08-.5,0-.97-.25-.97-.86v-.5h-4.9c0,.22.04.43.04.58v.04c0,.65-.83.97-1.37.97s-1.01-.25-1.01-.79v-.14c.14-1.04.22-2.92.22-3.6v-.14c-2.88,2.95-5.83,4.68-6.52,4.68-.07,0-.11,0-.11-.04,0-.11.25-.36.76-.76,2.38-1.87,5.08-4.97,6.88-8.24l-4.1.25h-.04c-.61,0-1.66-1.26-1.66-1.69,2.52.29,4.5.36,6.3.43.58-1.15.68-1.51,1.01-2.45-2.16.22-4.39.36-6.08.36-1.26,0-1.91-.11-1.91-.22,0-.07.29-.18.9-.22,3.78-.32,11.77-2.27,13.21-3.71.11-.11.14-.18.22-.18.22,0,2.7,2.02,2.7,2.7,0,.25-.22.4-.61.4-.22,0-.43-.04-.72-.11-.14-.04-.29-.07-.47-.07s-.36.04-.5.07c-.86.22-2.16.43-3.67.65h.07s.04,0,.04.04c.32.18.58.43.58.68,0,.22-.25.43-.9.5-.4.04-.32.11-.54.5l-.65,1.12h5.87c.18,0,.4-.11.5-.29,1.15-1.58,1.51-1.91,1.76-1.91.18,0,2.92,1.58,2.92,2.63,0,.22-.14.43-.72.43h-6.73c1.58,2.52,5.47,5.47,9.14,6.26.14.04.22.07.22.11Zm-2.16,4.72c0,.25-.22.43-.61.65-.79.43-.79.54-.79,2.99,0,.76.04,1.66.04,2.52,0,.65.11,2.2.11,2.81v.07c0,2.41-1.87,3.6-3.82,3.67-.47,0-.61-.07-.9-.47-.54-.76-3.71-2.12-3.71-2.38,0-.04.04-.07.14-.07.07,0,.14.04.25.04,1.55.22,2.66.36,3.49.36,1.55,0,2.02-.43,2.05-1.44.04-.94.07-2.41.07-3.96s-.04-3.13-.07-4.32c0-.25-.14-.47-.5-.47h-11.73l-.18.14c-.47.32-.47.61-.47,5.87,0,1.98,0,4.14.04,5.83v.04c0,.76-.76,1.22-1.51,1.22-.61,0-1.15-.32-1.15-1.01v-.07c.22-3.13.29-6.62.29-8.78v-1.37c0-.47-.07-2.77-.36-4,0-.07-.04-.14-.04-.18,0-.11.04-.11.11-.11.18,0,1.66.47,3.17,1.44l.11.07h11.84c.14,0,.32-.11.47-.29.22-.25.43-.65.68-.83.11-.07.18-.14.29-.14.36,0,2.7,1.44,2.7,2.16Zm-5.62,2.99c0,.25-.22.43-.54.61-.54.32-.54.25-.54.86,0,.58.11,1.98.18,2.77v.11c0,.72-.68,1.08-1.26,1.08-.5,0-.94-.29-.94-.9v-.54h-3.31v1.15c0,.61-.61,1.04-1.3,1.04-.5,0-.94-.25-.94-.83v-.14c.11-1.01.22-2.81.22-4.07,0-.4-.04-1.66-.25-2.7v-.11c0-.14.04-.18.14-.18.36,0,2.2.76,2.7,1.08.04,0,.07.04.07.04h2.12c.14,0,.29-.04.4-.22.36-.65.79-.86.94-.86.04,0,2.3.9,2.3,1.8Zm-2.23-14.07h-3.49c-.58.86-1.22,1.69-1.87,2.48l.97.54s.04.04.07.04h3.67c.14,0,.25-.04.4-.18.65-.79.9-.79.94-.79.07,0,.14,0,.25.07-.4-.76-.72-1.48-.94-2.16Zm-.11,4.28c0-.22-.14-.36-.4-.36h-4l-.18.11c-.36.22-.32.29-.36.76v1.87h4.97c0-.86,0-1.8-.04-2.38Zm-.76,10.37c0-.22-.14-.4-.43-.4h-2.38l-.18.14c-.32.25-.36.29-.36,2.84h3.35v-2.59Z" fill="#fff"/>
      <path d="m117.61,16.16c0,.47-.07,1.98-.97,6.62,2.23-.25,4.43-.43,6.23-.54,1.4-.07,1.76-.54,2.77-.54.58,0,4.5.83,4.5,2.41,0,.61-.61,1.08-1.51,1.08-.22,0-.43,0-.68-.07-2.05-.5-4.32-.68-6.62-.68-4.54,0-9.14.72-12.17,1.4-1.19.29-1.66.5-2.34.5-1.69,0-4.72-1.19-4.72-3.02,0-.5.11-.65.32-.65s.54.18.94.36c1.12.54,2.7.79,3.74.79.18,0,.47,0,7.34-.79.22-1.44.36-3.71.36-5.22,0-1.15-.11-3.02-.86-3.6-2.66.5-3.31.5-3.46.5-2.02,0-3.56-.86-3.56-2.16,0-.36.11-.94.4-.94.18,0,.43.18.72.4.58.4,1.55.58,2.7.58,3.02,0,7.16-1.12,7.85-1.33,1.3-.4,1.76-1.15,3.06-1.15,1.22,0,3.2.58,3.2,1.58,0,.61-.68,1.19-1.94,1.22-1.76.04-4.28.43-6.66.86,1.3.61,1.37,1.62,1.37,2.38Z" fill="#fff"/>
      <path d="m138.82,17.93c0-.18.04-.36.04-.58.14-1.66.22-2.7.22-3.89,0-4.25-.36-6.62-1.94-6.73-.5-.04-.9-.18-.9-.47,0-.22.61-1.04,1.8-1.04.72,0,3.89,1.12,3.89,2.52,0,.25-.11.5-.25.79-.25.5-.25,1.48-.25,1.91,0,4.03.18,5.83.22,6.23.04.32.07.58.07.76,0,.54-.29,2.84-1.62,2.84-.65,0-1.26-.76-1.26-2.34Zm-2.3,14.22c-.07,0-.14-.04-.14-.07,0-.14.4-.43,1.4-1.08,5.15-3.17,8.67-9.65,8.93-17.46.04-1.55,0-2.7.11-4.43.04-.43.04-.79.04-1.15,0-2.52-.65-3.17-1.51-3.31-.43-.04-.83-.18-.83-.47,0-.18.47-1.04,1.66-1.04,1.58,0,4.36,1.87,4.36,2.88,0,.43-.29.86-.47,1.37-.54,1.48-.65,3.02-.72,6.48-.18,13.93-11.73,18.29-12.81,18.29Z" fill="#fff"/>
      <path d="m169.38,10.58c.4,0,.79.14,1.26.25,1.22.29,1.87.83,1.94,2.02,1.22-.9,5.26-4.18,5.26-5.15,0-.4-.43-.61-.86-.61-1.69,0-6.91.65-10.94,1.98-1.12.36-1.76.68-2.56.68-.68,0-4.72-1.04-4.72-3.35,0-.36.14-.58.4-.58.18,0,.4.14.65.36.58.54,1.84.76,3.31.76.58,0,1.22-.04,1.87-.11,3.49-.36,7.96-1.01,11.12-1.26,1.33-.11,1.37-.58,1.94-.58.94,0,4.61,1.8,4.61,3.38,0,.97-1.8,1.12-2.52,1.55-2.34,1.48-5.47,3.13-7.67,4.1-.97,5.4-6.62,14.29-14.43,16.67-.76.22-1.15.32-1.33.32-.07,0-.11,0-.11-.04,0-.11.43-.36,1.08-.76,6.77-3.85,11.66-13.1,11.66-16.59,0-1.01-.4-1.44-1.04-1.44-.76,0-1.04-.18-1.04-.4,0-.5,1.22-1.22,2.02-1.22h.11Z" fill="#fff"/>
      <path d="m202.93,6.73c-.4,0-.79.04-1.19.07.9.72,1.48,2.59,1.48,4.93,0,7.52-5.98,15.77-9.39,15.77-1.91,0-2.63-2.56-4.03-4.61-.58-.83-.86-2.02-.86-3.35,0-5.44,4.68-14.11,14.54-14.11,8.24,0,12.6,5.65,12.6,11.59,0,3.24-1.33,6.59-4.03,9.14-4.61,4.32-11.45,4.79-11.77,4.79-.36,0-.5-.04-.5-.11,0-.18.54-.43,1.62-.72,6.3-1.73,11.95-6.23,11.95-13.25,0-5.36-3.78-10.15-10.26-10.15h-.14Zm-3.28.47c-5.54,1.62-8.75,6.77-8.75,11.27,0,3.17,1.62,5.58,3.17,5.58,2.48,0,7.63-7.52,7.63-13.89,0-1.62-.22-3.1-1.3-3.1-.11,0-.22,0-.32.04-.11.04-.22.07-.29.07l-.14.04Z" fill="#fff"/>
      <path d="m231.23,10.65c0,.25-.29.47-.97.47-.36,0-.47.14-.83.54-.65.76-1.33,1.48-2.02,2.16l.76.18c.4.14.54.29.54.5s-.25.47-.65.65c-.61.29-.61.58-.65,1.44-.11,2.02-.14,5.22-.14,8.28,0,2.38.04,4.64.07,6.23v.07c0,.97-.9,1.51-1.66,1.51-.61,0-1.19-.4-1.19-1.33v-.18c.29-3.6.54-9.39.58-12.71v-2.41c-3.24,2.81-5.51,3.49-5.54,3.49s-.07-.04-.07-.07c0-.07.18-.22.54-.5,3.24-2.38,7.81-8.39,8.28-10.51.04-.14.04-.25.11-.25.04,0,2.84,1.58,2.84,2.45Zm-.29-6.62c0,.25-.25.4-.72.4h-.4c-.25,0-.32.11-.65.4-4.39,4.1-8.5,5.72-9.07,5.72-.11,0-.14,0-.14-.04,0-.07.18-.25.54-.47,2.48-1.55,6.8-6.19,7.45-8.42.04-.11.04-.18.11-.18.32,0,2.88,1.87,2.88,2.59Zm.97,24.84c-.29.11-.43.43-.68.43-.5,0-2.23-2.7-2.23-3.02,0-.07.04-.07.14-.07h.18c.29.04.61.04.94.04,1.3,0,2.45-.14,4.97-.54v-5.18c-1.04.04-2.3.11-3.89.32h-.04c-.43,0-1.48-1.33-1.48-1.73,2.02.29,3.96.47,5.4.5,0-.58-.04-1.12-.04-1.44-.04-.86-.07-1.84-.32-3.24-.04-.11-.04-.18-.04-.22,0-.07.04-.11.11-.11.47,0,4.1.54,4.1,1.33,0,.22-.25.43-.65.65-.79.43-.86.61-.86,3.02h1.55c.07,0,.25-.11.36-.29.25-.4,1.15-1.62,1.55-1.62.04,0,.11,0,.14.04.86.43,2.23,1.69,2.23,2.38,0,.22-.14.4-.61.4h-5.22v4.75c2.45-.47,4.93-1.01,6.48-1.44.29-.07.47-.11.61-.11s.18.04.18.07c0,.68-7.96,3.64-12.89,5.08Zm11.41-15.33c0,.22-.14.4-.61.4h-6.59c-1.33,0-2.84.04-5.08.32h-.04c-.47,0-1.48-1.3-1.48-1.69,2.12.32,4.25.43,5.69.47v-4.93c-.97.04-2.09.11-3.49.29h-.04c-.47,0-1.48-1.3-1.48-1.69,1.84.29,3.6.4,5,.47,0-2.92-.07-4.36-.36-6.05-.04-.11-.04-.18-.04-.22,0-.11.04-.14.14-.14.36,0,4.07.54,4.07,1.37,0,.22-.25.47-.65.68-.58.32-.76.32-.79,1.3-.04.65-.07,1.8-.07,3.1h1.15c.07,0,.29-.11.4-.29.04-.07,1.04-1.62,1.51-1.62.32,0,2.41,1.62,2.41,2.38,0,.22-.14.43-.61.43h-4.86v4.93h1.48c.07,0,.29-.07.4-.25.25-.43,1.08-1.62,1.51-1.62.04,0,.11,0,.14.04,1.04.54,2.27,1.66,2.27,2.34Zm10.37-.43c0,.22-.18.43-.68.43h-3.67l.22.07c.32.11.5.25.5.4s-.18.32-.5.47c-.54.25-.54.32-.58,1.19-.04,1.48-.07,3.46-.07,5.36,0,2.34.04,4.36.18,7.24v.14c0,2.66-2.59,3.96-4,3.96-.32,0-.47-.11-.68-.5-.61-1.01-3.56-2.52-3.56-2.77,0-.04.04-.04.11-.04s.18,0,.32.04c1.37.29,2.41.47,3.2.47,1.44,0,2.02-.54,2.09-1.58.07-.76.07-3.17.07-5.69,0-4.93-.11-7.52-.22-8.64l-2.02.25h-.04c-.61,0-1.55-1.37-1.55-1.8,2.88.43,4.43.54,5.25.54h.47c.22,0,.4-.14.5-.32.22-.36,1.33-2.12,1.73-2.12.07,0,.14,0,.18.04.97.43,2.74,2.09,2.74,2.88Zm-1.08-8.14c0,.22-.18.43-.68.43h-4.32c-.86,0-2.02.18-3.17.36h-.07c-.61,0-1.55-1.37-1.55-1.8,2.16.43,3.38.54,4.1.54h.58c.18,0,.36-.14.47-.32.22-.36,1.33-2.12,1.73-2.12.07,0,.14,0,.18.04.97.43,2.74,2.09,2.74,2.88Z" fill="#fff"/>
      <path d="m266.44,28.22c-1.44,0-2.02-.07-2.02-.22s.76-.32,1.84-.5c11.7-1.84,16.81-7.34,16.81-11.52,0-3.13-2.88-5.36-6.41-5.36-3.24,0-7.2,1.69-10.87,5.36-1.48,1.48-3.1,2.12-4.5,2.12-2.23,0-3.42-1.58-3.42-2.05,0-.25.4-.29.9-.32,1.48-.14,3.96-1.22,6.23-2.66,3.24-2.05,7.27-3.96,11.23-3.96,5.25,0,9.47,3.64,9.47,7.81,0,5.33-6.55,11.3-19.08,11.3h-.18Zm17.1-18.86c-.94-1.08-2.09-1.94-3.02-2.45-.32-.18-.58-.32-.58-.4,0-.29,1.33-.29,1.4-.29,2.81,0,4.25,1.26,4.25,2.45,0,.68-.47,1.22-1.08,1.22-.29,0-.65-.18-.97-.54Zm3.78-1.73c-.97-1.04-2.16-1.91-3.13-2.38-.32-.14-.58-.25-.58-.36,0-.18.83-.32,1.69-.32,1.84,0,4.03.72,4.03,2.34,0,.68-.47,1.22-1.04,1.22-.29,0-.65-.14-.97-.5Z" fill="#fff"/>
      <path d="m301.43,30.24c-.32-4.68-3.89-10.19-5.58-12.17-.68-.79-.97-1.62-.97-2.45,0-.76.25-1.51.68-2.34.9-1.73,3.64-5.36,4.9-7.2.4-.58,1.08-1.66,1.08-2.52,0-.29-.07-.54-.25-.76-.25-.32-.36-.58-.36-.72,0-.22.11-.29.36-.29.58,0,3.06,1.01,3.06,2.99,0,.79-.4,1.58-1.04,2.34-1.76,2.02-5.33,4.64-6.59,6.95-.18.36-.4.86-.4,1.44,0,.47.14,1.01.65,1.55,3.02,3.2,7.56,8.39,7.56,12.53,0,1.51-.94,2.45-1.76,2.45-.65,0-1.26-.54-1.33-1.8Z" fill="#fff"/>
      <path d="m324.72,15.77c0-4.54-1.55-8.71-3.78-8.71-1.91,0-3.78,2.84-3.78,6.37,0,2.09.65,3.49,1.08,4.46.14.36.22.72.22,1.08,0,1.08-.61,1.98-1.33,1.98-1.01,0-2.45-2.74-2.45-5.62,0-2.12.58-4.28,1.01-6.48.18-.97.65-3.1.65-4.64,0-.86-.14-1.55-.58-1.76-.29-.14-.58-.32-.58-.54,0-.25.54-.83,1.15-.83.79,0,2.12.72,2.12,2.88,0,.72-.04.9-1.19,5.26-.07.25-.11.43-.11.5,0,.04.04.07.04.07.04,0,.14-.18.29-.58,1.01-2.66,2.66-3.85,4.28-3.85,3.82,0,5.72,5.44,5.72,10.22,0,11.91-10.48,17.53-11.88,17.53-.04,0-.07,0-.07-.04,0-.11.32-.43,1.12-.97,5.18-3.64,8.06-10.19,8.06-16.34Z" fill="#fff"/>
      <path d="m336.42,22.93c0-1.26.14-2.48.36-3.64.47-2.45,1.22-4.68,1.62-6.77.18-.9.25-1.73.25-2.48,0-1.58-.32-2.77-.68-3.42-.22-.4-.5-.72-.5-.9s.18-.25.72-.25c1.12,0,2.99,1.58,2.99,4.25,0,1.19-.4,2.38-1.01,3.89-.9,2.23-1.98,4.93-1.98,7.38,0,.83.22,2.23.54,2.23.11,0,.25-.18.4-.54.9-1.91,3.35-6.7,3.74-6.7.04,0,.07.07.07.14,0,.14-.07.43-.25.86-.5,1.19-2.45,6.34-2.45,9.39,0,.76.11,1.37.25,1.94.07.25.11.5.11.72,0,.9-.54,1.44-1.15,1.44-2.45,0-3.02-5.8-3.02-7.56Zm22.03,2.45c1.4,0,2.16.65,2.16,1.37,0,2.23-5.08,2.27-5.72,2.27-6.19,0-8.13-3.2-8.13-4.97,0-.25.04-.36.14-.36.18,0,.43.25.76.72.72,1.04,3.13,1.73,5.8,1.73.72,0,1.44-.04,2.16-.14.86-.14,1.44-.58,2.66-.61h.18Zm-5.51-12.81c-5.4,0-5.69-3.24-5.69-3.49,0-.11.04-.14.14-.14s.36.14.68.32c1.01.61,2.34.83,3.67.83,1.04,0,2.05-.14,2.99-.36.47-.11.86-.36,1.33-.43.25-.04.47-.07.68-.07,1.15,0,1.87.61,1.87,1.26,0,1.76-3.92,2.09-5.69,2.09Z" fill="#fff"/>
      <path d="m16.95,64.31v.11c0,.72-.68,1.4-1.51,1.4-.58,0-1.12-.36-1.12-1.12v-.22c.25-2.27.43-6.52.43-7.92v-.47c-2.59,2.88-4.54,3.96-4.82,3.96-.04,0-.07,0-.07-.07s.11-.25.4-.54c.72-.72,1.51-1.69,2.27-2.77h-4.03c-.04,1.91-.04,4.07-.04,6.19,1.76-.65,3.38-1.3,4.64-1.87.36-.14.58-.22.68-.22.07,0,.11.04.11.07,0,.4-2.92,2.34-5.44,4,0,2.05.04,4.07.07,5.83,0,.97.11,3.35.11,4.25,0,2.88-2.38,3.82-3.85,3.82-.32,0-.5-.11-.72-.47-.65-1.15-3.06-2.56-3.06-2.88,0-.04.04-.04.14-.04.07,0,.18,0,.32.04,1.19.25,2.09.4,2.77.4,1.22,0,1.69-.47,1.73-1.51.07-2.23.07-5.18.11-8.24l-2.88,1.66c-.29.14-.36.61-.65.61-.72,0-2.56-3.02-2.56-3.02,0-.07.11-.04.36-.07,1.26-.14,1.84-.22,5.72-1.51v-6.98c-1.15.04-2.52.11-4.03.29h-.04c-.43,0-1.48-1.33-1.48-1.73,1.91.29,3.96.43,5.54.47-.11-5.76-.18-6.3-.5-7.95-.04-.11-.04-.14-.04-.22s.04-.11.11-.11c.29,0,4.5.61,4.5,1.44,0,.32-.36.61-.76.83-.65.36-.68.22-.76,1.51-.07,1.15-.11,2.7-.14,4.54h.32c.11,0,.29-.11.4-.29,1.04-1.76,1.12-1.84,1.44-1.84.04,0,.11,0,.14.04.79.36,1.66,1.33,2.12,2.27,0,.04.04.04.04.07.97-1.48,3.49-5.51,3.82-7.78.04-.25.04-.32.14-.32.4,0,3.56,1.4,3.56,2.09,0,.29-.43.54-1.04.58-.54.04-.65.14-1.94,2.09l.22.07.18.11h3.64c.36-1.22.68-2.77.68-4.72,0-.22,0-.29.11-.29.14,0,3.82,1.12,3.82,1.91,0,.29-.36.58-1.04.65-.32.04-.43.18-.61.4-.65.76-1.26,1.48-1.91,2.05h4.03c.14,0,.32-.11.43-.29.4-.72,1.33-1.73,1.66-1.73.4,0,2.88,1.66,2.88,2.48,0,.22-.14.4-.68.4h-6.8c.43.22.47.22.47.36,0,.18-.25.4-.72.58-.22.07-.29.61-.29.97,0,.25-.04.5-.04.76h2.12c.14,0,.36-.14.47-.29.5-.72,1.19-1.33,1.4-1.33.47,0,2.63,1.37,2.63,2.09,0,.18-.14.36-.68.36h-5.98c0,.79-.04,1.62-.04,2.48h2.2c.14,0,.36-.11.47-.29.36-.5.79-.9,1.15-1.19.07-.07.18-.11.29-.11.47,0,2.59,1.3,2.59,2.05,0,.22-.14.4-.68.4h-6.01c0,1.04.04,2.05.04,2.92h3.6c.14,0,.36-.11.47-.29.04-.04,1.19-1.73,1.69-1.73s2.95,1.58,2.95,2.45c0,.22-.14.4-.68.4h-14.54Zm6.59,15.12c-.4,0-.61-.22-.76-.5-.47-.97-3.53-2.48-3.53-2.66h.04s.14,0,.32.07c1.48.47,2.88.72,4.1.72,1.51,0,2.74-.43,3.42-1.4,1.01-1.44,1.33-3.85,1.33-3.92,0-.22-.14-.36-.32-.36h-3.24l-.43,1.4c-.25.72-.94,1.04-1.55,1.04-.58,0-1.08-.29-1.08-.79,0-.14.04-.29.11-.47.68-1.55,1.48-4,1.48-4.5,0-.14-.11-.22-.29-.22h-3.74c1.01.22,1.3.32,1.3.54,0,.14-.14.32-.4.43-.4.14-.47.04-.72,1.04-2.45,9.65-12.06,9.79-12.63,9.79-.25,0-.36-.04-.36-.11s.32-.22.72-.32c6.16-1.51,9.86-6.55,9.86-11.34-1.51.04-3.02.11-4.57.25h-.04c-.54,0-1.51-1.22-1.51-1.69,3.42.43,7.56.5,8.82.5h3.1c.18,0,.4-.11.54-.29.22-.22.54-.61.76-.76.11-.11.18-.14.29-.14.32,0,2.77,1.26,2.77,2.09,0,.36-.47.54-.83.68-.83.29-.86.29-1.33,1.91h2.81c.25,0,.5-.07.61-.22.43-.54.94-.79,1.01-.79.61,0,2.56,1.33,2.56,1.87,0,.32-.29.58-.83.86-.29.14-.54.18-.61.58-.72,3.13-1.8,6.7-6.73,6.7h-.43Zm-2.23-22.21h-4.36c-.04.79-.04,1.62-.04,2.48h4.39v-2.48Zm-4.39,3.35c0,1.04.04,2.05.04,2.92h4.28c.04-.72.07-1.8.07-2.92h-4.39Zm.97-6.84l-.4.22c-.22.07-.5.32-.5,2.45h4.32c0-.86-.04-1.8-.18-2.66h-3.24Z" fill="#fff"/>
      <path d="m46.37,65.21c3.67-3.78,7.31-5.29,10.4-5.29,4.79,0,8.24,3.6,8.24,7.16,0,7.74-11.59,11.37-13.57,11.37-.11,0-.18-.04-.18-.07,0-.11.43-.32,1.33-.72,3.28-1.4,9.47-5.36,9.47-10.44,0-3.96-3.74-5.62-6.48-5.62-4.46,0-7.52,3.06-9.54,5.08-.14,1.91-.14,3.17-.14,3.31,0,2.09.32,4.28.76,6.05.11.47.14.86.14,1.22,0,1.15-.47,1.76-1.04,1.76-.68,0-1.48-.9-1.66-2.84-.11-1.37-.86-3.35-1.55-4.79-.76,1.66-1.12,2.81-1.4,3.64-.61,1.69-1.73,2.59-2.45,2.59-.43,0-.76-.29-.76-.94,0-.68.36-2.23,3.71-7.06-.72-1.33-1.58-2.52-2.12-3.06-.58-.58-.86-1.08-.86-1.55s.32-.83.94-1.12c.83-.36,1.44-.86,1.91-1.33,1.26-1.3,2.81-2.45,4.28-3.38.04-.58.07-1.12.07-1.62.04-.68.04-1.26.04-1.76,0-2.81-.54-3.56-2.27-4.68-.32-.18-.47-.29-.47-.43,0,0,.47-.65,1.4-.65.5,0,3.2.25,3.2,3.67,0,.68-.47,4.03-.61,4.75h.25c1.48,0,2.02.4,2.02,1.01,0,.76-.79,1.87-1.58,2.95-.5.65-1.04,1.48-1.62,2.41l-.07.58.22-.22Zm-3.82,3.17c.9-1.15,1.91-2.66,2.74-4.07.14-1.26.25-2.52.36-3.64-1.08.76-2.02,1.98-2.63,3.35-.5,1.08-.97,1.4-2.12,1.58-.32.04-.43.14-.43.32,0,.32.47,1.15,1.58,3.13l.5-.68Zm.4,2.2c1.12,1.94,1.33,2.16,1.51,2.16.07,0,.14-.07.14-.29,0-1.55.18-3.13.32-4.64-.61.79-1.22,1.58-1.8,2.38l-.18.4Zm3.64-8.49c.65-1.19.65-1.48.65-1.51,0-.25-.07-.43-.32-.47l-.32,1.98Z" fill="#fff"/>
      <path d="m78.55,64.35s.07-.04.18-.11c1.62-1.04,3.64-1.62,5.65-1.62,4.64,0,7.49,3.24,7.49,6.73s-3.31,8.21-9.94,8.21c-3.49,0-5.83-1.73-5.83-3.67,0-1.73,1.8-2.7,3.53-2.7,2.38,0,3.85,1.84,3.85,3.71,0,.29-.04.61-.11.9,4.18-1.01,5.8-3.89,5.8-6.41,0-2.84-2.02-5.4-5.65-5.4-1.26,0-5.44.32-7.85,5.44-.86,1.87-1.44,2.99-2.66,2.99-.65,0-1.15-.5-1.15-1.22,0-1.04,1.33-2.59,2.99-4.5,2.16-2.48,7.23-9.32,8.75-11.81.18-.25.25-.5.25-.68,0-.25-.14-.61-.9-.61-1.69,0-2.48,3.46-4.9,3.46-1.33,0-2.41-.86-2.41-2.2,0-.4.07-.72.32-.72.18,0,.4.07.68.18s.58.14.86.14c.5,0,1.01-.14,1.48-.5,1.4-.97,3.06-2.16,4.97-2.16,2.12,0,3.42,1.48,3.42,2.27,0,.72-.79,1.37-1.55,1.94-2.59,1.98-7.27,8.24-7.27,8.31v.04Zm2.77,10.4c0-1.26-.97-2.34-2.3-2.34-1.58,0-1.62,1.19-1.62,1.37,0,.14,0,1.84,3.6,2.2.22-.4.32-.83.32-1.22Z" fill="#fff"/>
      <path d="m104.54,55.46c-1.4,0-3.2.04-5.44.32h-.04c-.43,0-1.48-1.33-1.48-1.73,2.66.4,5.54.5,7.02.5h1.15c.11,0,.32-.11.43-.29,1.22-2.05,1.58-2.05,1.66-2.05.47,0,2.99,2.02,2.99,2.88,0,.18-.14.36-.68.36h-5.62Zm4.64,21.63c0,.79-.83,1.26-1.55,1.26-.58,0-1.12-.29-1.12-1.01,0-.25.04-.54.04-.79h-4.21c0,.58.04,1.15.04,1.73v.04c0,.86-1.04,1.19-1.55,1.19-.61,0-1.15-.29-1.15-1.04v-.11c.22-2.7.25-4.07.25-5.44,0-3.67-.36-5.51-.43-5.83,0-.07-.04-.14-.04-.18,0-.07.04-.11.07-.11.18,0,2.92.94,3.6,1.62h2.7c.14,0,.29-.04.43-.25.4-.65.97-1.19,1.12-1.19.5,0,2.95,1.4,2.95,2.2,0,.32-.32.58-.72.86-.68.43-.68.68-.68,1.84,0,1.33.11,2.95.25,5.15v.07Zm-4.57-26.64c-1.08,0-1.94.07-3.6.32h-.04c-.5,0-1.33-1.19-1.33-1.73,2.09.4,3.92.5,5.04.5h.4c.07,0,.25-.11.36-.29.32-.61.94-1.44,1.3-1.84.07-.07.18-.11.29-.11.07,0,.14,0,.18.04.94.43,2.52,1.98,2.52,2.63,0,.25-.14.47-.65.47h-4.46Zm0,9.5c-1.08,0-1.94.04-3.6.32h-.04c-.43,0-1.33-1.12-1.33-1.73,2.09.4,3.92.5,5.04.5h.47c.07,0,.29-.11.4-.29.04-.07.97-1.84,1.55-1.84.04,0,.11,0,.14.04.86.4,2.48,1.91,2.48,2.52,0,.22-.14.47-.65.47h-4.46Zm0,4.75c-1.08,0-1.94.04-3.6.32h-.04c-.43,0-1.33-1.19-1.33-1.73,2.09.4,3.96.5,5.08.5h.43c.07,0,.29-.11.4-.29.22-.4,1.08-1.84,1.55-1.84.11,0,.18,0,.22.04.76.36,2.41,1.87,2.41,2.52,0,.25-.14.47-.65.47h-4.46Zm1.94,10.91c.04-1.51.07-2.7.07-3.78,0-.68-.04-1.37-.07-2.02,0-.22-.11-.43-.36-.43h-3.17l-.29.22c-.29.22-.36.4-.36.97,0,.36-.04.83-.04,5.04h4.21Zm15.19-21.13c1.94,3.38,5.15,6.98,9.61,8.67.22.07.32.14.32.22,0,.36-2.27.58-3.38,1.55-.14.14-.29.22-.43.22-.9,0-4.9-5-6.7-10.65h-2.66c-.86,1.91-1.94,3.71-3.1,5.29,1.55.25,2.45.32,3.49.32h.36c.14,0,.25-.14.36-.32.5-.9.94-1.62,1.22-1.62.07,0,.14,0,.18.04,1.37.68,2.16,2.02,2.16,2.3,0,.22-.11.43-.58.43h-3.85c-1.15,0-1.55.11-2.7.29h-.04c-.29,0-.76-.4-1.08-.83-3.2,4.14-6.19,5.62-6.52,5.62-.07,0-.11-.04-.11-.07,0-.11.11-.25.32-.43,2.84-2.3,5.54-6.52,7.2-10.94-1.12.04-2.34.11-3.64.25h-.04c-.54,0-1.55-1.33-1.55-1.73,1.87.25,3.89.4,5.58.47.61-1.84,1.15-4.07,1.15-5.62,0-.4.04-.4.04-.4.07,0,4.32,1.04,4.32,1.8,0,.29-.36.58-1.12.72-.36.07-.54.25-.65.65-.29.97-.65,1.94-1.04,2.88h5.58c.11,0,.36-.11.47-.29.4-.65,1.37-1.98,1.76-1.98.65,0,3.1,2.02,3.1,2.81,0,.18-.18.36-.72.36h-7.34Zm-4.28,16.09l-.54,1.91c-.22.68-1.01,1.04-1.69,1.04-.58,0-1.08-.25-1.08-.79,0-.14.04-.32.11-.5.29-.65,1.66-4.32,1.76-6.19-1.04.07-2.09.14-3.17.25h-.04c-.58,0-1.58-1.22-1.58-1.69,3.02.36,5.36.5,7.16.5h3.53c.18,0,.32-.11.43-.29.97-1.4,1.22-1.76,1.51-1.76.07,0,.14.04.22.04,1.15.5,2.59,1.87,2.59,2.45,0,.22-.14.43-.68.43h-6.66s.04.07.04.14c0,.14-.14.32-.5.47-.43.14-.5.22-1.19,3.1h4.64c.36,0,.65-.11.79-.25.36-.4.5-.65.79-.86.07-.07.14-.11.25-.11.5,0,2.81,1.51,2.81,2.02,0,.29-.29.54-.9.83-.47.22-.54.25-.61.79-.4,2.74-1.33,7.56-6.41,7.63-.32,0-.65-.18-.76-.47-.61-1.4-3.38-2.95-3.38-3.17,0,0,.04-.04.07-.04s.14.04.29.07c1.66.47,2.92.79,3.96.79.72,0,3.56-.14,3.82-5.83,0-.25-.11-.5-.4-.5h-5.18Z" fill="#fff"/>
      <path d="m147.24,62.77c0-4.54-1.55-8.71-3.78-8.71-1.91,0-3.78,2.84-3.78,6.37,0,2.09.65,3.49,1.08,4.46.14.36.22.72.22,1.08,0,1.08-.61,1.98-1.33,1.98-1.01,0-2.45-2.74-2.45-5.62,0-2.12.58-4.28,1.01-6.48.18-.97.65-3.1.65-4.64,0-.86-.14-1.55-.58-1.76-.29-.14-.58-.32-.58-.54,0-.25.54-.83,1.15-.83.79,0,2.12.72,2.12,2.88,0,.72-.04.9-1.19,5.26-.07.25-.11.43-.11.5,0,.04.04.07.04.07.04,0,.14-.18.29-.58,1.01-2.66,2.66-3.85,4.28-3.85,3.82,0,5.72,5.44,5.72,10.22,0,11.91-10.48,17.53-11.88,17.53-.04,0-.07,0-.07-.04,0-.11.32-.43,1.12-.97,5.18-3.64,8.06-10.19,8.06-16.34Z" fill="#fff"/>
      <path d="m168.88,68.45c-2.88,1.8-4.03,3.6-4.03,5s1.48,3.1,4.5,3.1c1.33,0,2.84-.32,4.14-1.01.43-.22.83-.32,1.19-.32.9,0,1.51.58,1.51,1.26,0,1.66-3.2,2.59-5.79,2.59-3.89,0-7.06-2.34-7.06-5.08,0-2.23,2.02-4.75,5.58-6.88,0-2.23-.29-5.33-2.3-5.33-.86,0-1.94.68-3.2,2.38l-1.08,2.02c-.76,1.37-1.62,2.81-2.63,2.81-.14,0-1.08-.04-1.08-1.3,0-.72.36-1.76,1.48-2.77,3.31-2.99,4.39-4.93,5.98-8.49l.07-.14-.04.04c-.72.18-1.37.29-1.98.29-3.49,0-4.46-2.45-4.46-3.42,0-.14.04-.18.11-.18.18,0,.43.14.9.47,1.08.76,2.09.97,3.02.97,1.08,0,2.2-.25,3.17-.58.07-.4.07-.76.07-1.01,0-.83-.14-1.8-1.37-2.09-.32-.07-.65-.18-.65-.36,0-.11.54-.9,1.76-.9.94,0,1.69.29,2.05,1.66h.29c.68.04,1.22.11,1.66.11.18,0,.32-.04.47-.07.22-.11.43-.14.61-.14.9,0,.9.83.9.97,0,1.91-3.6,3.31-4.86,3.74l-.07.18c-1.22,2.66-1.98,4.03-2.77,5.44.68-.36,1.33-.5,1.94-.5,1.87,0,3.24,1.55,3.74,3.74,1.04-2.63,3.82-7.67,7.96-7.67,1.98,0,4.46,1.33,4.46,3.17,0,1.4-1.51,2.84-3.96,3.78-2.52.94-5.62,2.16-8.06,3.35.11.83.14,1.69.14,2.56,0,.43,0,.9-.04,1.33-.11,1.4-1.08,2.34-1.87,2.34-.54,0-1.01-.47-1.01-1.66,0-.11.04-.29.04-.43.07-.9.54-1.26.58-2.45v-.5Zm-.07-16.95c.04.14.04.29.04.43,0,.4-.07.79-.14,1.22.83-.4,1.26-.61,1.26-1.04,0-.18-.14-.36-1.04-.58l-.11-.04Zm9.14,10.87c1.58-.86,2.3-1.73,2.3-2.52s-.68-1.76-2.09-1.76c-3.31,0-6.34,5.08-7.31,7.95,2.2-1.15,5-2.52,7.09-3.67Z" fill="#fff"/>
      <path d="m219.74,54.92c0,.32-.25.61-.86.9-.83.4-.83.5-.83,1.44.04,1.08.04,2.34.04,3.71,0,3.46-.11,7.45-.43,9.9-1.15,8.14-6.01,8.46-6.77,8.46-.25,0-.54-.11-.65-.43-.36-1.04-4.1-3.02-4.1-3.28h.04c.07,0,.14,0,.25.04,1.4.4,2.66.65,3.78.65,4.75,0,5.33-5.22,5.33-15.98,0-2.02-.04-3.82-.04-4.9,0-.47-.18-.58-.54-.58h-11.7c-2.38,3.67-4.46,5.44-5.08,5.9l.11,11.84c0,.79.07,1.76.11,2.38v.22c0,2.99-2.84,3.71-3.71,3.71-.32,0-.5-.14-.68-.5-.4-.76-3.28-2.23-3.28-2.52,0-.04.04-.07.11-.07s.18,0,.32.04c1.15.22,1.98.29,2.66.29,1.76,0,1.98-.65,2.02-1.58.07-1.91.07-5.18.07-8.67h-3.71c-.83,11.81-5.87,13.97-5.98,13.97-.04,0-.07-.04-.07-.11,0-.11.14-.36.47-.76,2.77-3.35,3.35-10.29,3.35-16.38,0-6.62-.14-11.19-.65-13.57-.04-.11-.04-.18-.04-.25s.04-.07.07-.07c.22,0,2.27.65,3.38,1.4l.18.11h2.34c.18,0,.4-.14.47-.29.04-.04.72-1.15,1.08-1.15.5,0,2.74,1.48,2.74,2.12,0,.36-.36.65-.76.86-.54.29-.54.58-.58,1.12-.07,1.19-.07,4.07-.07,7.34l.11-.11c1.94-2.48,5.04-9.5,5.04-12.31,0-.32.07-.36.14-.36.76,0,3.89,1.4,3.89,1.94,0,.29-.36.58-1.04.72-.47.11-.5.25-.72.68-.47.97-1.04,2.02-1.69,3.1h10.98c.4,0,.5-.11.61-.29.36-.54.9-1.15,1.15-1.15.47,0,3.13,1.66,3.13,2.48Zm-23.9-3.42c0-.22-.11-.4-.43-.4h-2.56c-.07.04-.11.14-.18.18-.29.22-.4.47-.4.86v.65c0,1.3.04,3.17.04,5.04h3.6c0-2.81-.04-5.15-.07-6.34Zm.07,7.24h-3.6c0,1.55.04,3.1.04,4.14,0,.68-.04,1.4-.07,2.09h3.64v-6.23Zm16.59,2.99c-.07,1.01-.11,2.05-.11,3.17,0,2.02.11,4.32.22,7.24,0,.25-.25,1.3-1.37,1.3-.54,0-1.01-.32-1.01-1.12v-.04c0-.36.04-.76.04-1.12h-7.27v2.7c0,.79-.72,1.3-1.37,1.3-.5,0-.97-.32-.97-1.12v-.07c.14-3.1.29-6.48.29-9.43,0-1.33-.04-4.75-.25-5.8v-.14q0-.07.07-.07c.58,0,3.56.65,3.56,1.26,0,.22-.22.43-.54.61-.54.29-.61.18-.65,1.04.79.14,1.91.36,2.99.76.47-1.98.76-4.1.76-4.79v-.25c0-.14-.04-.22-.04-.29s.04-.11.07-.11c.14,0,3.31.76,3.31,1.55,0,.14-.07.29-.25.4h.04s3.71.54,3.71,1.3c0,.22-.22.47-.54.65-.58.32-.61.14-.68,1.08Zm-9.4.14c-.11,2.45-.11,5.4-.11,8.42h.07c1.08-1.73,1.98-4.18,2.66-6.59-.83-.72-1.8-1.4-2.63-1.84Zm6.88-3.13c-.14.11-.36.18-.58.25-.32.11-.54.18-.61.54-.25,1.08-.58,2.23-.97,3.42.76.43,2.02,1.3,2.02,2.48,0,.72-.43,1.33-1.01,1.33-.4,0-.83-.29-1.22-.94-.18-.25-.36-.58-.58-.83-.86,1.98-1.94,3.89-3.38,5.29h6.62c.04-1.76.04-3.38.04-4.86,0-4.9-.22-6.19-.29-6.48-.04-.11-.04-.18-.04-.22Z" fill="#fff"/>
      <path d="m225.9,69.93c0-1.26.14-2.48.36-3.64.47-2.45,1.22-4.68,1.62-6.77.18-.9.25-1.73.25-2.48,0-1.58-.32-2.77-.68-3.42-.22-.4-.5-.72-.5-.9s.18-.25.72-.25c1.12,0,2.99,1.58,2.99,4.25,0,1.19-.4,2.38-1.01,3.89-.9,2.23-1.98,4.93-1.98,7.38,0,.83.22,2.23.54,2.23.11,0,.25-.18.4-.54.9-1.91,3.35-6.7,3.74-6.7.04,0,.07.07.07.14,0,.14-.07.43-.25.86-.5,1.19-2.45,6.34-2.45,9.39,0,.76.11,1.37.25,1.94.07.25.11.5.11.72,0,.9-.54,1.44-1.15,1.44-2.45,0-3.02-5.8-3.02-7.56Zm22.03,2.45c1.4,0,2.16.65,2.16,1.37,0,2.23-5.08,2.27-5.72,2.27-6.19,0-8.14-3.2-8.14-4.97,0-.25.04-.36.14-.36.18,0,.43.25.76.72.72,1.04,3.13,1.73,5.79,1.73.72,0,1.44-.04,2.16-.14.86-.14,1.44-.58,2.66-.61h.18Zm-5.51-12.81c-5.4,0-5.69-3.24-5.69-3.49,0-.11.04-.14.14-.14s.36.14.68.32c1.01.61,2.34.83,3.67.83,1.04,0,2.05-.14,2.99-.36.47-.11.86-.36,1.33-.43.25-.04.47-.07.68-.07,1.15,0,1.87.61,1.87,1.26,0,1.76-3.92,2.09-5.69,2.09Z" fill="#fff"/>
    </g>
  </g>
</svg>