<?xml version="1.0" encoding="UTF-8"?>
<svg id="_レイヤー_2" data-name="レイヤー 2" xmlns="http://www.w3.org/2000/svg" viewBox="0 0 578 250">
  <g id="_デザイン" data-name="デザイン">
    <rect width="390" height="80" fill="#fff"/>
    <rect y="85" width="394" height="80" fill="#fff"/>
    <rect y="170" width="578" height="80" fill="#fff"/>
    <g>
      <path d="m98.46,61.79c0,.36-.3.66-1.32.66h-31.44c-3.36,0-12.3.12-17.64.66h-.06c-1.08,0-2.82-2.34-2.82-3.12,2.94.36,7.14.6,10.98.72.06-3.54.06-6.9.06-9.84,0-4.02,0-7.32-.06-9.42,0-2.1,0-7.08-.6-9.9-.06-.24-.12-.36-.12-.48,0-.06.06-.12.18-.12.48,0,7.5.9,7.5,2.46,0,.42-.48.96-1.38,1.44-1.26.66-1.26.9-1.26,14.64,0,3.66,0,7.62.06,11.34,2.34.06,4.32.12,5.46.12h4.44c.06-4.8.12-14.64.12-22.68,0-14.22-.12-15.6-.54-18.06h-3.42c-3.3,0-10.38.12-15.66.66h-.06c-1.08,0-2.82-2.34-2.82-3.12,6.06.72,15.36.96,18.78.96h17.76c.36,0,.78-.24.96-.54.06-.12,2.58-4.26,3.72-4.26.18,0,.3.06.42.06,2.4.84,5.52,4.86,5.52,5.58,0,.36-.3.66-1.26.66h-17.46c.6.18.84.48.84.78s-.36.66-.96.96c-1.08.48-1.08.6-1.2,3.18-.06,1.68-.12,7.2-.12,13.5h6c.36,0,.78-.24.96-.54.42-.6,2.76-4.02,3.6-4.02,1.56,0,5.7,4.26,5.7,5.34,0,.36-.24.72-1.2.72h-15.06c0,7.86,0,16.62.06,20.82h12.36c.42,0,.78-.24.96-.54.6-1.02,2.94-4.44,3.84-4.44,1.92,0,6.18,5.04,6.18,5.82Z" fill="#003383"/>
      <path d="m158.16,61.49c0,.3-.24.6-1.14.6h-22.5v1.62c0,1.14-1.14,2.52-2.7,2.52-1.08,0-1.98-.66-1.98-2.1v-.3c.48-5.22.9-18.42.9-22.08v-2.82c-2.22,2.64-4.62,4.98-7.08,6.78.06,2.88.18,5.82.3,8.22v.12c0,1.38-1.38,2.28-2.52,2.28-.96,0-1.8-.54-1.8-1.86,0-.72.06-1.44.06-2.16h-4.92c0,2.28.06,4.44.06,6.3v.06c0,1.32-1.32,2.16-2.64,2.16-.96,0-1.86-.54-1.86-1.8v-.24c.42-5.7.66-12.06.66-17.88,0-.78.06-1.8.06-2.94-3.66,5.4-8.4,9.72-8.94,9.72,0,0-.06,0-.06-.06,0-.18.24-.54.72-1.2,5.64-7.44,11.1-20.46,11.76-25.68-1.98.06-4.32.18-7.02.54h-.06c-.72,0-2.46-2.22-2.46-2.88,4.56.66,9.24.84,11.76.84h2.4c.18,0,.54-.18.78-.48.78-.9,1.56-2.46,2.4-3.36.12-.12.3-.18.48-.18,1.14,0,5.16,3.66,5.16,4.92,0,.3-.24.6-1.14.6h-7.26l.54.18c.54.24.78.48.78.72,0,.3-.42.66-1.32.96-.6.24-.78.54-1.32,1.86-1.14,2.58-2.4,5.16-3.78,7.74l1.38.84h2.76c.24,0,.54-.12.78-.48.9-1.26,1.26-1.74,1.74-1.74.66,0,4.68,2.28,4.68,3.48,0,.54-.6,1.02-1.2,1.44-1.02.72-.96.6-1.02,1.92,0,.72-.06,1.74-.06,2.88s.06,2.4.06,3.78c4.92-5.1,9.6-13.5,12.78-21.42h-5.22c0,4.02-1.8,7.32-4.5,7.32-1.38,0-2.46-1.02-2.46-2.34,0-.78.36-1.62,1.2-2.4,2.64-2.46,3.84-4.02,4.08-7.08.06-.6.18-.9.3-.9.42,0,1.08,2.1,1.26,3.9h5.94c.6-1.62,1.14-3.18,1.62-4.68.3-1.02.6-2.4.6-3.6v-.3c0-.18-.06-.3-.06-.36,0-.12.06-.24.3-.24.84,0,6.84,1.68,6.84,2.76,0,.48-.6.9-1.86,1.2-.72.18-.96.66-1.32,1.62-.48,1.2-1.02,2.4-1.56,3.6h8.52c.24,0,.78-.18.96-.42,1.32-1.56,1.8-1.62,1.98-1.62.42,0,4.98,2.88,4.98,4.74,0,.72-.66,1.32-2.34,1.5-2.46.24-4.8,2.52-6.78,3.66.12.12.18.24.18.36,0,.48-.6.9-1.56,1.08-.6.12-.9.42-1.32.84-.84.84-2.22,2.1-3.42,3.12h5.4c.24,0,.6-.18.78-.48,1.8-2.88,2.46-3.12,2.82-3.12,1.08,0,4.8,3.3,4.8,4.5,0,.3-.24.6-1.14.6h-9.78c.06,0,.12.06.18.06.42.12.6.36.6.6,0,.3-.42.66-1.14.96-.36.12-.54.6-.54,1.2-.06,1.14-.12,2.58-.12,4.14h2.34c.24,0,.6-.18.78-.48.66-1.08,1.92-2.7,2.52-2.7.36,0,4.38,2.4,4.38,4.02,0,.36-.24.66-1.14.66h-8.88v6.66h2.34c.24,0,.6-.24.78-.54.66-1.08,1.92-2.7,2.52-2.7.66,0,4.38,2.64,4.38,4.02,0,.36-.24.72-1.14.72h-8.88v7.8h4.92c.24,0,.6-.18.78-.48.72-1.14,2.34-3.3,2.88-3.3.84,0,4.98,3.06,4.98,4.68Zm-38.34-20.88c0-1.98-.06-3.84-.12-5.28,0-.42-.18-.72-.6-.72h-3.42c-.9.6-.96.72-.96,8.34,0,2.46.06,5.16.06,7.86h4.92c.06-3.48.12-7.08.12-10.2Zm30.3-17.7h-9.3c-1.86,3.9-4.02,7.74-6.36,11.16l1.26.48.3.12h5.16c1.2-4.26,1.38-5.76,1.38-7.26,0-.66.24-.66.24-.66,1.2,0,5.1,1.92,5.58,2.16.78-1.62,1.98-4.44,2.04-5.4,0-.48-.06-.6-.3-.6Zm-9.3,21.72h-6.3c0,2.04-.06,4.38-.06,6.66h6.36v-6.66Zm-.06,8.16h-6.3c0,2.88.06,5.64.06,7.8h6.24v-7.8Zm.06-10.74c0-1.56,0-4.14-.3-5.88h-4.44l-.66.36c-.72.3-.72.48-.9,6.6h6.3v-1.08Z" fill="#003383"/>
      <path d="m177.84,44.75c-3.18,0-5.7-2.52-5.7-5.7s2.52-5.7,5.7-5.7,5.7,2.52,5.7,5.7-2.52,5.7-5.7,5.7Z" fill="#003383"/>
      <path d="m252.66,57.53c.12,0,.18,0,.18.06,0,.48-4.02,3.18-5.16,5.58-.24.48-.66.96-1.32,1.08-.48.12-7.38.96-14.7.96-6.12,0-18.96,0-21.78-10.26-1.5,2.16-5.04,6.18-7.5,8.94-.18.24-.24,1.38-.84,1.38-.54,0-5.4-4.2-5.4-4.98,0-.12.12-.24.42-.3,2.58-.54,6.66-2.82,9.42-4.92.9-.66,1.02-1.86,1.02-11.28,0-1.62-.06-2.88-.06-3.54,0-.42-.3-.66-.72-.66l-.9.06c-1.02.06-3.6.6-4.74.66h-.06c-.96,0-2.64-2.34-2.64-3.18,1.98.3,5.88.84,7.32.84h.18l.78-.06c.36,0,.72-.24.96-.54,1.5-1.68,1.74-1.74,1.98-1.74.66,0,5.28,2.64,5.28,3.9,0,.6-.66.96-1.26,1.26-.96.48-1.5.36-1.62,1.68-.24,2.16-.3,5.64-.3,8.52v2.34c0,6.96,11.34,7.44,16.62,7.44,7.68,0,17.46-1.08,24.24-3.12.3-.06.48-.12.6-.12Zm-39.9-35.1c0,1.5-1.08,2.7-2.46,2.7-.9,0-1.98-.54-2.94-2.04-1.62-2.52-4.44-4.98-6.24-6.24-.3-.18-.48-.36-.48-.48,0-.06.18-.12.48-.12,1.62,0,11.64,1.08,11.64,6.18Zm23.88,13.56c0,.36-.24.72-1.08.72h-8.16c0,6,.24,12.9.42,17.34v.12c0,1.5-1.44,2.46-2.76,2.46-1.02,0-1.92-.66-1.92-2.16v-.18c.24-5.28.36-12.12.42-17.58-1.98,0-4.62.12-7.2.54h-.06c-.78,0-2.34-1.86-2.34-2.82,3.12.54,7.14.72,9.66.78,0-9.72-.48-12.06-.66-12.78-.06-.18-.06-.3-.06-.36s0-.12.12-.12c1.02,0,6.84,1.08,6.84,2.1,0,.36-.36.78-1.02,1.08-.96.48-1.02.3-1.14,1.86-.18,1.98-.3,4.98-.3,8.28h1.62c.3,0,.6-.18.78-.48,1.62-3.12,2.16-3.3,2.52-3.3,1.2,0,4.32,3.12,4.32,4.5Zm13.86,16.8c0,1.5-1.08,2.46-2.52,2.46-.72,0-1.62-.24-2.46-.9-7.5-5.52-8.34-17.28-8.34-26.22,0-2.76.06-5.22.06-7.2v-.42c0-.6-.3-1.02-.9-1.02h-7.98c-1.8,0-8.46.12-11.34.54h-.06c-.84,0-2.28-2.04-2.28-2.94,3.48.66,11.94.84,13.8.84h7.68c.3,0,.6-.12.84-.48.24-.3,1.26-1.8,2.04-1.8.72,0,5.1,2.52,5.1,3.9,0,.48-.42.96-1.14,1.26-1.14.48-1.2.36-1.32,1.8-.18,2.46-.36,5.4-.36,8.46,0,12.48,4.2,16.92,4.74,16.92.96,0,2.16-2.4,3.54-6.18.18-.54.36-.9.42-.96q.06-.06.12-.06c.06,0,.06.24.06.6,0,1.38-.36,4.74-.36,7.26,0,1.14.06,2.1.3,2.58.24.54.36,1.08.36,1.56Z" fill="#003383"/>
      <path d="m312.6,57.53c.12,0,.18,0,.18.06,0,.48-4.02,3.18-5.16,5.58-.24.48-.72.96-1.38,1.08-.48.12-7.38.96-14.64.96-3.18,0-6.42-.18-9.3-.6-6.78-1.02-11.16-4.86-12.48-9.66-1.5,2.16-5.04,6.18-7.5,8.94-.18.24-.3,1.38-.9,1.38s-5.34-4.32-5.34-4.98c0-.12.12-.24.42-.3,2.58-.54,6.6-2.82,9.36-4.92,1.02-.72,1.02-2.7,1.02-12.72v-2.22c0-.42-.3-.66-.72-.66l-.96.06c-1.02.06-3.54.54-4.68.6h-.06c-.96,0-2.64-2.28-2.64-3.12,1.98.3,5.88.84,7.26.84h.18l.84-.06c.36,0,.72-.24.96-.54,1.2-1.32,1.56-1.74,1.92-1.74s5.28,2.4,5.28,3.84c0,.6-.66.96-1.26,1.26-.96.48-1.5.42-1.62,1.74-.18,1.92-.3,4.98-.3,7.68,0,1.2.06,2.34.06,3.3,0,.36.06,1.08.24,1.62q.06-.06.12-.06h.06c5.28-2.7,10.86-7.8,16.02-15.42h-5.52v1.62c0,1.2-1.26,1.92-2.58,1.92-.96,0-1.8-.48-1.8-1.62v-.24c.3-2.94.48-5.7.48-8.46,0-1.2-.3-4.26-.72-6.36,0-.18-.06-.24-.06-.36,0-.18.06-.24.18-.24.42,0,4.2,1.68,5.58,2.64l.18.12h5.64c0-2.22-.06-4.26-.06-5.88-2.76,0-8.28.12-12.36.6h-.06c-.84,0-2.52-2.4-2.52-3.12,4.74.66,11.94.96,14.94.96-.06-1.98-.06-5.34-.6-8.04-.06-.3-.12-.42-.12-.54,0-.06.06-.06.12-.06,1.38,0,7.02.96,7.02,2.28,0,.42-.36.84-1.14,1.2-.78.42-1.14.36-1.26,1.92l-.12,3.24h7.38c.24,0,.66-.18.84-.48.72-1.08,1.92-2.76,2.76-3.42.12-.12.36-.18.54-.18,1.5,0,5.4,3.9,5.4,4.8,0,.42-.24.84-1.26.84h-15.72c-.06,1.74-.06,3.72-.06,5.88h6.24c.36,0,.66-.3.84-.54.66-.96,1.38-1.68,1.8-1.68.78,0,4.74,2.52,4.74,3.54,0,.54-.66.96-1.38,1.38-.78.42-.84.48-.84,2.76,0,2.04.18,4.32.36,6.24v.24c0,1.44-1.5,2.04-2.46,2.04-1.02,0-1.92-.54-1.92-1.8v-.06c0-.36.06-.78.06-1.14h-7.38v3.9c5.46.84,15.48,3.54,15.48,8.28,0,1.44-1.02,2.64-2.34,2.64-.84,0-1.86-.54-2.76-1.8-1.98-2.76-6.36-6.06-10.32-8.4.06,4.38.12,8.58.24,11.82v.12c0,1.08-1.02,2.28-2.64,2.28-1.02,0-1.92-.6-1.92-2.04v-.18c.18-3.12.3-7.44.36-12-4.26,5.28-10.38,9.6-17.04,11.46-.06,0-.06.06-.12.06,2.16,4.02,7.86,5.16,16.08,5.16,7.68,0,17.46-1.08,24.24-3.12.3-.06.48-.12.6-.12Zm-39.9-35.1c0,1.5-1.08,2.7-2.46,2.7-.9,0-1.98-.54-2.94-2.04-1.62-2.52-4.5-4.98-6.3-6.24-.3-.18-.42-.36-.42-.42,0-.12.12-.18.48-.18,3.48,0,11.64,1.8,11.64,6.18Zm10.5,7.62l-.48.36c-.66.48-.66.24-.72,1.74,0,.66-.06,1.56-.06,2.58,0,.96.06,2.04.06,3.18h6.9c0-2.7.06-5.4.06-7.86h-5.76Zm17.04,4.26c0-3.42-.06-4.26-.96-4.26h-6.6v7.86h7.5c.06-1.26.06-2.4.06-3.6Z" fill="#003383"/>
      <path d="m332.58,27.41c-.84.18-1.62.3-2.34.36-.36,0-.66.06-1.02.06-5.52,0-7.62-4.02-7.62-5.94,0-.24.12-.36.3-.36.3,0,.72.3,1.14.54,1.92,1.14,3.9,2.04,6.24,2.04,2.04,0,3.9-.48,4.26-.6.12-.9.18-1.8.18-2.58,0-3.48-.84-3.72-1.56-3.72-1.26,0-1.44-.3-1.44-.54,0-.12.06-.66,1.08-1.68.54-.42,1.08-.54,1.68-.54,1.08,0,3.78.6,3.78,4.44.66.06,1.38.06,1.98.06,1.86,0,3.66.06,3.66,1.68,0,1.74-3.3,4.5-7.38,5.94-1.68,4.2-3.96,9.54-9.12,20.76-1.02,2.22-2.82,3.36-4.14,3.36-.96,0-1.68-.54-1.68-1.68,0-.78.42-1.92,1.38-3.36,3.24-4.8,8.34-11.94,10.5-17.94l.12-.3Zm4.26,37.2c-4.74,0-8.1-3.66-8.1-6.72,0-3.96,5.28-6,10.8-6,1.32,0,2.7.12,4.02.36,0-2.4-.24-4.92-.24-7.02.06-5.22,1.26-7.86,5.64-10.92,1.62-1.14,3.54-2.58,3.54-4.02,0-.66-.24-.9-1.8-2.46-.6-.54-.96-.9-.96-1.2,0-.24.42-.36,1.44-.36,2.88,0,7.62,2.58,7.62,6.24,0,1.14-.72,3.36-2.58,3.36-.6,0-1.2-.12-1.92-.3-.36-.06-.72-.12-1.2-.12-.78,0-7.44.12-7.44,6.06,0,1.62.3,4.02,1.02,8.88.12.9.24,1.86.3,2.76,3.3,1.08,8.82,4.02,8.82,7.56,0,1.44-.9,2.64-2.04,2.64-.78,0-1.68-.54-2.4-1.92-.96-1.74-2.58-3.3-4.56-4.5-1.02,4.44-5.46,7.68-9.96,7.68Zm.72-10.38c-4.14,0-7.02,1.74-7.02,3.48s2.58,3.06,5.4,3.06c3.54,0,6.9-1.98,7.44-5.46-1.86-.66-3.84-1.08-5.82-1.08Zm.48-32.64c.36-.3.72-.72.72-1.14,0-.18-.06-.54-1.5-1.02-.06.9-.24,1.8-.48,2.88l1.26-.72Z" fill="#003383"/>
      <path d="m96,130.15c.12,2.64.3,6.18.42,7.74v.12c0,.96-.72,2.22-2.7,2.22-1.02,0-1.98-.54-1.98-1.8v-.06c0-.36.06-.96.06-1.56h-10.5v.66c.06,1.38.24,3.78.24,4.92v.12c0,6.42-6.78,6.96-7.86,6.96-.66,0-1.08-.24-1.5-.9-1.08-1.68-7.5-4.32-7.5-4.8,0-.06.06-.06.24-.06.12,0,.3,0,.6.06,3.12.54,5.52.84,7.26.84,2.94,0,4.08-.84,4.2-3,.06-.66.06-2.4.06-4.8h-.24c-4.98,0-9.54.18-15.18.6h-.06c-1.08,0-2.94-2.22-2.94-2.94,6.66.72,13.44.84,18.48.84v-5.16h-3c-4.74,0-13.08.12-19.26.6h-.06c-1.08,0-2.82-2.28-2.82-3,7.14.72,17.46.84,22.2.84h2.94v-4.62h-.3c-2.64,0-10.2.06-15,.54h-.06c-1.14,0-2.82-2.1-2.82-2.82,5.52.66,15.18.78,18.18.78v-5.04h-10.26v.66c0,1.44-1.56,2.04-2.64,2.04-1.02,0-1.92-.54-1.92-1.68v-.3c.24-1.8.36-5.22.36-6.3,0-.72,0-3.06-.42-4.98,0-.12-.06-.24-.06-.3,0-.12.06-.18.12-.18.48,0,4.02,1.44,5.7,2.58.06,0,.06.06.12.06h8.94c0-1.98-.06-3.6-.06-4.68h-3.96c-3.36,0-11.28.12-16.56.66h-.06c-1.02,0-2.82-2.34-2.82-3.12,6.06.72,16.2.96,19.68.96h3.66c-.06-1.98-.12-4.68-.6-6.54-.06-.24-.06-.36-.06-.48s0-.18.18-.18c.36,0,7.2.9,7.2,2.1,0,.48-.54.9-1.26,1.2-.84.3-.9.78-1.02,2.34,0,.3-.06.84-.06,1.56h11.94c.42,0,.78-.24.96-.54.72-1.02,1.98-2.88,3-3.72.12-.12.36-.18.6-.18.12,0,.24,0,.36.06,2.16.78,5.52,4.2,5.52,5.16,0,.36-.3.72-1.32.72h-21.06c0,1.26-.06,2.88-.06,4.68h8.82c.3,0,.54-.06.78-.36,1.32-1.8,1.74-1.8,1.98-1.8.54,0,4.86,2.1,4.86,3.48,0,.48-.54.84-1.2,1.26-1.14.72-1.02.24-1.08,1.38,0,.96.24,3.36.3,4.5v.12c0,1.2-1.38,1.86-2.58,1.86-.96,0-1.86-.42-1.86-1.44v-.06l.06-.54h-10.08v5.04h9.36c.3,0,.54-.06.78-.36.42-.48.84-1.14,1.26-1.5.24-.18.42-.36.72-.36.9,0,4.98,2.4,4.98,3.6,0,.54-.54.96-1.26,1.44-1.14.72-.96.66-1.08,2.04,0,.3-.06.72-.06,1.26h1.44c.24,0,.72-.18.9-.48,1.08-2.04,2.46-3.84,3-3.84.78,0,5.22,3.6,5.22,5.1,0,.42-.3.78-1.38.78h-9.12Zm-28.14-19.56c-.78.42-1.02.66-1.08,1.8v3.54h10.32c0-1.92-.06-3.72-.06-5.34h-9.18Zm13.38,0v5.34h10.08c.06-.84.06-1.74.06-2.52s0-1.5-.06-2.04c0-.48-.24-.78-.78-.78h-9.3Zm0,13.38v4.62h10.62c0-1.74-.06-3.18-.06-3.84,0-.48-.3-.78-.84-.78h-9.72Zm0,6.18c0,1.98.06,3.78.06,5.16h10.5c0-1.56.06-3.42.06-5.16h-10.62Z" fill="#003383"/>
      <path d="m167.22,122.23c0,.54-4.56,1.8-6.18,3.24-.36.3-.66.42-1.02.42-1.14,0-6.3-1.92-10.92-6.18-6.96,5.76-16.08,6.66-16.14,6.66-.36,0-.54-.12-.54-.18,0-.18.36-.42,1.26-.72,5.52-1.74,9.9-4.68,13.08-8.16-2.1-2.46-3.72-5.34-4.62-8.52-1.68,2.16-3.48,4.32-5.34,5.82,1.02.78,2.88,2.52,2.88,3.48,0,.78-.78,1.32-2.4,1.38-1.8.12-4.44,3.12-6.36,4.26-.18.12-.36.18-.42.18s-.06,0-.06-.06c0-.12,0-.24.12-.48.78-1.62,2.16-4.56,2.22-5.58,0-.48-.06-.6-.3-.6h-3.78c.78.18,1.32.3,1.32.78,0,.3-.3.6-.84.84q-.9.42-.9,8.52c0,3.54.06,7.38.18,10.02.06,1.5.24,4.92.24,6v.12c0,4.68-5.52,5.64-6.42,5.64-.54,0-.96-.24-1.26-.9-.84-1.62-5.64-3.78-5.64-4.26,0-.06.06-.06.24-.06.12,0,.3,0,.6.06,2.16.36,4.02.6,5.4.6,1.74,0,2.76-.42,2.82-1.74.12-3.48.18-7.98.18-12.12v-4.02c-4.68,8.4-12.84,13.98-14.22,13.98-.06,0-.12,0-.12-.06,0-.18.3-.54.96-1.14,4.26-3.78,11.7-15.06,13.14-21.42,0-.3,0-.6-.06-.84-2.46.06-5.64.18-8.88.6h-.06c-.9,0-2.58-2.16-2.58-3,4.8.78,10.8.9,13.44.9h6.12c.24,0,.66-.18.9-.42.24-.3,1.44-1.5,2.1-1.5.06,0,.18,0,.24.06.18.06.36.18.54.3,2.46-3.3,6.84-12.12,7.2-16.56.06-.48.06-.66.24-.66.6,0,5.94,1.8,5.94,2.94,0,.42-.48.84-1.5,1.02-.66.12-.72.24-1.08.84-.72,1.2-1.62,2.64-2.7,4.2h11.4c.18,0,.48-.18.66-.48.48-.72,2.22-3.3,2.82-3.3s4.98,3.12,4.98,4.56c0,.3-.24.6-1.14.6h-7.68c2.76,1.08,3.12,1.26,3.12,1.86,0,.42-.48.78-1.14.78h-.12c-.48,0-.84.12-1.14.78-1.26,2.46-2.64,4.68-4.32,6.54,3.78,2.4,8.76,4.14,15,4.8.36.06.54.12.54.18Zm-29.82-19.32c0,.66-.78,1.02-1.86,1.26-.66.12-1.26.3-2.28.96-1.2.78-3.36,2.58-5.4,3.96l.54.36c1.08.84,1.56,1.86,1.56,2.76,0,1.32-.9,2.4-2.1,2.4-.78,0-1.74-.48-2.58-1.68-1.68-2.28-3.9-3.84-5.34-4.74-.3-.18-.42-.3-.42-.42,0-.18.54-.18,1.14-.18,1.62,0,4.14.24,6.12,1.02,1.32-2.22,2.94-4.98,3.12-5.76.06-.12.06-.24.06-.36s-.06-.24-.42-.24h-3.24c-1.74,0-6.48.06-9.24.48h-.06c-.72,0-2.46-2.22-2.46-2.88,4.38.78,10.08.84,11.88.84h3.12c.42,0,.72-.12,1.02-.42.36-.3,1.08-1.08,1.44-1.38.18-.18.36-.24.48-.24.48,0,4.92,2.64,4.92,4.26Zm24.84,29.34c0,.48-.36.9-1.32,1.26-.96.36-1.14.54-1.2,1.5-.84,10.2-5.04,14.16-10.44,14.16-1.44,0-1.8-.24-2.04-.84-.54-1.44-4.08-3.6-5.46-4.62-5.46,4.98-13.32,6.36-14.76,6.36-.3,0-.48-.06-.48-.18,0-.18.6-.54,1.38-.78,8.46-2.52,14.1-8.94,16.32-16.86-2.46.06-5.28.24-8.76.6h-.06c-1.08,0-2.88-2.34-2.88-3.06,4.5.66,8.88.84,12.12.9.54-2.28.6-4.86.6-5.76,0-.6,0-1.14-.06-1.68v-.24q0-.12.12-.12c.54,0,6.6.9,6.6,2.16,0,.36-.42.72-1.08.96-1.14.36-1.08.36-1.32,1.74-.18,1.02-.36,1.98-.6,2.94h6.18c.48,0,.66-.24.84-.48,1.38-1.56,1.56-1.56,1.62-1.56,1.02,0,4.68,2.46,4.68,3.6Zm-7.14-.06h-6.54c-1.32,4.56-3.42,8.28-6.42,11.16,2.82.72,5.16,1.44,7.08,1.44s3.54-.72,4.68-2.94c1.2-2.28,1.86-6.06,1.98-8.76,0-.54-.12-.9-.78-.9Zm-11.88-24.9l-.18.3c1.2,2.7,3.12,5.22,5.64,7.44,2.4-3.3,3.3-5.94,3.6-7.74h-9.06Z" fill="#003383"/>
      <path d="m198.96,102.31c-11.22,17.46-26.76,24-28.44,24-.12,0-.18-.06-.18-.12,0-.12.3-.42,1.08-.9,8.58-5.52,16.68-14.64,22.2-24.6.66-1.14,1.14-3.12,1.38-4.32.06-.3,0-.42.18-.42.3,0,7.5,2.64,7.5,4.08,0,.42-.6.84-1.8,1.08-.12,0-.18.06-.3.06,4.92,6.06,15.24,15.24,27,18.18.3.06.42.18.42.24,0,.54-5.28,1.38-7.14,3.24-.24.24-.54.36-.84.36-2.1,0-14.1-8.88-20.46-21.6l-.6.72Zm-.3,27.6c.3.18.48.36.48.54,0,.36-.6.78-1.26.96-.54.18-.96.66-1.26,1.26-1.5,2.82-4.02,7.5-6,10.44,7.08-.54,13.92-1.38,18.9-2.16-1.8-2.04-3.78-4.02-5.76-5.76-.36-.3-.6-.54-.6-.66,0-.06.06-.12.12-.12.36,0,15.72,5.1,15.72,11.4,0,1.74-1.14,3.06-2.52,3.06-.96,0-2.04-.66-2.94-2.28-.78-1.44-1.8-2.94-2.94-4.38-7.32,2.34-20.4,5.04-27.84,6.42-.84.18-1.26.96-1.86.96-1.02,0-4.32-5.82-4.32-6.36,0-.12.06-.12.12-.12.12,0,.24,0,.48.06,1.92.24,3.78.36,4.98.36.54,0,1.68,0,6.54-.3.54-1.8,2.82-10.8,2.82-13.32-3.96.06-9.24.3-13.02.66h-.06c-1.08,0-2.88-2.34-2.88-3.12,6.06.72,16.74.96,20.16.96h14.52c.36,0,.78-.24.96-.54.42-.72,2.64-4.08,3.6-4.08.12,0,.24,0,.36.06,2.58.96,5.7,4.44,5.7,5.34,0,.36-.24.72-1.26.72h-20.94Zm-.18-9.66c-1.98,0-6.6.18-9.84.54h-.06c-.78,0-2.52-2.1-2.52-2.88,4.02.6,10.44.84,12.54.84h2.1c.12,0,.54-.18.72-.48,0,0,2.22-3.84,3-3.84.12,0,.24,0,.3.06,1.44.66,5.1,3.78,5.1,5.04,0,.36-.24.72-1.14.72h-10.2Z" fill="#003383"/>
      <path d="m243.84,109.81c-2.4,0-5.88.06-9.66.54h-.06c-.78,0-2.52-2.22-2.52-2.88,4.56.66,9.84.84,12.36.84h6.96c.18,0,.54-.18.72-.48.18-.3,2.04-3.42,2.94-3.42,1.08,0,5.16,3.42,5.16,4.8,0,.3-.3.6-1.2.6h-14.7Zm11.16,36.06c0,1.32-1.44,2.16-2.7,2.16-1.02,0-1.98-.54-1.98-1.74v-1.38h-9.9c0,.9.06,1.86.06,2.76,0,1.02-1.26,2.1-2.82,2.1-1.02,0-1.98-.54-1.98-1.74v-.18c.48-5.58.48-8.46.48-11.4,0-.78-.24-5.16-.72-7.26,0-.12-.06-.24-.06-.3,0-.12.06-.18.12-.18.42,0,4.44,1.56,6.12,2.7h7.5c.24,0,.54-.12.78-.48.36-.48.96-1.38,1.38-1.68.12-.12.3-.24.48-.24.54,0,5.16,2.22,5.16,3.6,0,.54-.48.9-1.2,1.38-1.2.78-1.2.9-1.2,3,0,2.22.24,5.1.48,8.76v.12Zm-10.74-44.28c-1.8,0-3.54.12-6.36.54h-.06c-.84,0-2.28-1.98-2.28-2.88,3.54.66,6.9.84,8.82.84h3.24c.12,0,.48-.18.66-.48.54-1.02,1.68-2.46,2.28-3.06.18-.12.36-.18.54-.18.06,0,.18,0,.24.06,1.74.72,4.38,3.3,4.38,4.38,0,.42-.24.78-1.14.78h-10.32Zm0,15.72c-1.8,0-3.54.06-6.36.54h-.06c-.72,0-2.28-1.86-2.28-2.88,3.54.66,6.9.84,8.82.84h3.36c.12,0,.54-.18.72-.48.36-.66,1.8-3.06,2.76-3.06.06,0,.18,0,.24.06.9.36,4.26,2.94,4.26,4.14,0,.42-.24.84-1.14.84h-10.32Zm0,7.86c-1.8,0-3.54.06-6.36.54h-.06c-.72,0-2.28-1.98-2.28-2.88,3.54.66,6.9.84,8.82.84h3.36c.12,0,.54-.18.72-.48.54-1.02,2.1-3,2.76-3,.12,0,.24,0,.3.06.6.24,4.2,2.64,4.2,4.14,0,.42-.24.78-1.14.78h-10.32Zm6.06,18.18c.06-2.46.12-4.44.12-6.24,0-1.14-.06-2.22-.12-3.36,0-.36-.18-.78-.6-.78h-8.16l-.48.36c-.66.42-.72.54-.72,6.54,0,1.14.06,2.34.06,3.48h9.9Zm22.8,4.26c0,1.38-1.56,2.34-3,2.34-1.14,0-2.1-.54-2.1-1.92v-.24c.42-6.54.6-18.48.6-28.68-2.4,0-6.36.12-9.9.6h-.06c-.72,0-2.52-2.28-2.52-2.94,4.2.66,9.78.84,12.48.84,0-12.54-.36-18.36-.78-20.28-.06-.18-.06-.3-.06-.36,0-.12.06-.18.18-.18,0,0,7.5.72,7.5,2.4,0,.42-.54.9-1.26,1.32-.84.48-1.08.54-1.2,2.04-.18,2.1-.24,7.98-.24,15.06h4.68c.18,0,.6-.18.78-.48.66-1.02,2.04-2.94,2.76-3.54.12-.12.3-.18.48-.18,1.14,0,5.34,3.84,5.34,4.98,0,.36-.24.72-1.14.72h-12.9c0,9.84.18,21.54.36,28.44v.06Z" fill="#003383"/>
      <path d="m297.72,102.73c2.22,0,6.96,5.16,6.96,9.66,0,2.22-1.08,4.08-2.28,7.02-1.62,3.96-3.24,8.28-3.24,12.12,0,.78.18,3.48.72,3.48.18,0,.36-.24.66-.84,1.32-3.06,5.7-11.88,6.6-11.88.12,0,.12.06.12.18,0,.3-.12.84-.48,1.62-2.04,4.56-4.62,12.66-4.62,17.28,0,.96.12,1.86.42,2.64.3.66.42,1.26.42,1.8,0,1.38-.84,2.28-1.86,2.28-3.18,0-4.86-7.02-4.86-12.78,0-6.12,1.86-11.58,3.24-17.28.48-2.04.9-3.9.9-5.82,0-2.52-.72-5.1-3-8.22-.3-.36-.54-.66-.54-.9,0,0,.24-.36.84-.36Zm32.7,17.04c0,4.68.3,9,.48,12.48.06.96.12,2.04.12,3.12,5.28,1.62,9.36,4.98,9.36,7.5,0,1.44-.96,2.64-2.1,2.64-.72,0-1.56-.48-2.34-1.8-1.26-2.1-3.24-3.84-5.1-4.92-1.02,5.22-5.28,8.4-9.66,8.4-4.14,0-8.22-2.94-8.22-6.54,0-3.36,4.2-6.36,11.28-6.36,1.08,0,2.22.06,3.36.24.06-.96.06-1.8.06-2.58-.06-2.58-.18-8.22-.24-13.74l-.48.12c-.78.12-1.5.18-2.28.18-7.02,0-9.84-5.34-9.84-6.06,0-.12.06-.18.18-.18.24,0,.78.18,1.5.42,1.32.48,3.24,1.38,4.5,1.74,1.26.36,2.52.54,3.78.54.66,0,1.74-.06,2.64-.24v-3.66c0-5.46-.36-5.76-2.4-6.3-.66-.18-1.14-.3-1.14-.66,0-.54,1.44-2.1,3-2.1s4.56,2.34,4.56,4.56c0,.48-.06,1.02-.18,1.62.48.18,4.98,1.62,5.7,1.74.96.18,1.62.9,1.62,1.98,0,1.74-1.68,4.02-8.16,5.64v2.22Zm-8.46,16.98c-4.14,0-7.08,1.8-7.08,3.66s2.52,3.06,5.16,3.06c3.54,0,6.54-2.16,7.26-5.88-1.68-.54-3.54-.84-5.34-.84Zm8.64-22.74c3.3-1.02,3.6-1.92,3.6-2.52,0-.72-.66-1.5-3.06-2.76,0,.12-.18.66-.54,5.28Z" fill="#003383"/>
      <path d="m355.44,148.08c-1.74-3.36-4.62-5.82-7.2-7.74-.6-.48-1.14-.84-1.14-1.02,0-.06.18-.12.48-.12,2.34,0,13.5,2.22,13.5,7.8,0,1.8-1.32,3.18-2.82,3.18-1.02,0-2.04-.6-2.82-2.1Z" fill="#003383"/>
      <path d="m71.28,224.54c0,4.44-1.86,4.98-2.64,4.98s-1.5-.6-2.04-1.56c-.84-1.44-2.82-2.4-4.92-3-2.4,1.56-4.2,2.22-5.88,2.22-1.5,0-2.1-.72-2.1-1.68,0-1.08,1.56-3.72,2.76-3.72.18,0,.42.06.66.18.18.06.36.24.72.24.66,0,2.34-.54,10.62-5.7.06-1.08.06-2.22.06-3.3,0-2.64-.12-5.28-.18-7.74-2.88,1.38-5.04,1.86-7.14,1.86-1.38,0-5.4-.3-5.4-4.26,0-.36.12-.48.3-.48.24,0,.54.12.96.3.78.3,2.34.66,4.26.66,2.4,0,3.84-.42,6.84-1.8-.48-6.9-.84-8.7-3.36-8.7-1.08,0-1.5-.24-1.5-.6,0-.84,1.2-2.1,3-2.1,1.62,0,4.86,1.26,4.86,4.26,0,.36,0,.78-.06,1.26,1.32.36,2.76.66,3.9.66h.42c1.32,0,1.98.78,1.98,1.74,0,1.92-1.62,3.3-6.48,5.88,0,3.48.12,7.14.18,10.68,4.62-2.76,9.48-5.16,14.76-5.16,7.2,0,10.02,3.54,10.02,7.14,0,6.12-7.32,10.74-12.78,10.74-3.84,0-6.3-2.22-6.3-6.06,0-3.36,2.28-7.8,2.76-7.8.12,0,.12.12.12.3,0,.36-.06,1.02-.36,2.04-.3,1.02-.42,1.98-.42,2.88,0,2.64,1.32,4.56,4.32,4.56,3.6,0,8.76-2.76,8.76-7.26,0-3.3-3.54-4.86-7.08-4.86-4.92,0-9.48,3.06-13.74,6.48l.12,6.36v.36Zm-8.58-.24c1.56.24,2.7.36,3.48.36,1.62,0,1.86-.48,1.92-1.26.12-1.26.18-2.52.24-3.78-1.98,1.68-3.84,3.36-5.64,4.68Zm8.28-24.06c.66-.36,2.1-1.2,2.1-1.92,0-.48-.84-1.14-1.98-1.74-.06.6-.12,1.38-.12,2.28v1.38Zm25.56,3.24c-1.14.3-2.58.54-3.9,1.32-.48.3-.9.48-1.2.48-.12,0-.18-.06-.18-.18s.24-.48.72-.96c.6-.6,1.86-2.28,1.86-3.6s-1.92-1.62-2.94-1.62c-1.44,0-2.82.42-3.96,1.32-.78.6-1.38.9-1.68.9-.12,0-.18-.06-.18-.18,0-.6,3-4.92,8.34-4.92,3.78,0,7.44,2.16,7.44,4.86,0,.84-.48,1.44-1.26,1.8-1.02.48-1.32.36-3.06.78Z" fill="#003383"/>
      <path d="m163.8,213.86c0,.36-5.52,1.74-7.26,3.9-.3.42-.66.54-1.2.54-.9,0-11.52-1.86-20.28-8.88-3.66,2.58-7.56,4.74-11.4,6.42,1.2.48,2.58,1.14,3.36,1.68l.12.12h15.18c.24,0,.48-.18.72-.48,1.02-1.32,1.44-1.62,1.86-1.62.24,0,4.98,1.98,4.98,3.54,0,.42-.42.78-1.08,1.2-1.14.66-1.14.96-1.14,2.76,0,2.1.18,5.34.36,8.28v.18c0,1.44-1.56,2.1-2.64,2.1s-2.04-.54-2.04-1.8v-.06c0-.66.06-1.32.06-1.92h-17.52v2.04c0,1.14-1.26,2.04-2.76,2.04-1.08,0-2.04-.48-2.04-1.62v-.3c.36-3.06.42-8.22.42-11.16,0-.6,0-2.28-.24-3.96-7.98,3.06-13.68,3.48-14.16,3.48-.42,0-.66-.06-.66-.18,0-.18.84-.6,2.46-1.02,7.14-1.98,15.6-6.06,23.22-12.3-2.04-2.1-3.78-4.44-4.86-6.96-8.88,9.84-18.06,13.86-19.26,13.86-.12,0-.18,0-.18-.06,0-.18.42-.54,1.2-1.08,6.06-3.9,13.74-12.54,18.12-19.5.6-.9.84-1.8,1.08-2.76.06-.3.12-.42.24-.42.48,0,6.12,2.34,6.12,3.54,0,.42-.6.72-1.86.72-.78,0-1.02.18-1.56.9-.42.6-.84,1.2-1.32,1.8h10.68c.48,0,.78-.24,1.02-.42.54-.42.9-.96,1.38-1.32.24-.18.36-.24.54-.24.96,0,4.86,2.58,4.86,3.78,0,.48-.48.84-1.44,1.14-.96.24-1.62.3-2.28,1.08-2.16,2.4-4.5,4.62-6.96,6.6,6.54,3.78,15.3,6.24,24.9,6.24h.72c.36,0,.54.06.54.12Zm-4.26-22.8c0,.78-.78,1.44-2.58,1.5-2.7.12-6.12,2.52-8.76,3.78-.24.12-.42.18-.48.18q-.12,0-.12-.12c0-.06.06-.18.18-.42,2.34-3.48,3.24-5.52,3.24-5.88,0-.18-.12-.24-.3-.24h-32.58c-.42,4.56-3.18,7.98-6.12,7.98-1.5,0-2.58-1.02-2.58-2.34,0-.9.54-1.98,1.8-3,3.36-2.64,4.86-4.5,5.4-7.86.12-.6.24-.9.36-.9,0,0,.96,1.08,1.14,4.62h14.22c0-.6-.06-1.26-.06-1.8-.06-2.04-.24-4.56-.66-6.24-.06-.18-.12-.36-.12-.42,0-.12.06-.12.24-.12.9,0,7.86,1.02,7.86,2.34,0,.42-.48.9-1.38,1.38-1.08.6-1.14.6-1.26,2.04l-.18,2.82h14.04c.18,0,.66-.24.9-.48.42-.42,1.2-1.26,1.68-1.56.18-.12.36-.18.48-.18,1.14,0,5.64,3.36,5.64,4.92Zm-16.08,33.42c0-1.62-.06-3.18-.12-4.56,0-.36-.24-.66-.72-.66h-15.72l-.42.3c-.42.24-.72.42-.72,4.2,0,1.32,0,2.94.06,4.5h17.58c0-1.32.06-2.58.06-3.78Zm-3.18-25.8c0-.18-.18-.3-.54-.3h-11.16c-.18.18-.24.36-.42.54,1.44,2.28,3.42,4.38,5.94,6.24,3.54-3.12,6.18-6.3,6.18-6.48Z" fill="#003383"/>
      <path d="m223.02,227.36c0,.6-4.98.96-6.3,2.4-.24.3-.6.42-.9.42-.96,0-7.5-5.76-11.34-21.12,0,5.7.06,11.52.12,13.86.06,1.26.24,3,.24,4.38v.12c0,6.18-6.42,6.48-6.48,6.48-.6,0-.96-.3-1.2-1.02-.78-1.98-5.7-4.08-5.7-4.5,0-.06.06-.06.24-.06.12,0,.36,0,.66.06,2.46.36,4.14.6,5.4.6,2.1,0,2.7-.66,2.82-2.28.06-1.44.12-4.74.12-8.76-3.48,3.78-8.4,8.16-10.98,10.44-.42.36-.36,1.26-.96,1.26-.96,0-4.86-3.36-4.86-3.84,0-.18.18-.24.48-.3,3.36-.9,12.3-6.12,16.32-8.88v-9.96c-2.82,0-6.36.12-10.74.54h-.06c-.54,0-1.26-.66-1.86-1.32.18.42.24.78.24,1.14,0,1.32-.96,2.4-2.1,2.4-.72,0-1.56-.42-2.22-1.5-.9-1.44-1.92-3.18-3.24-4.2.06,9.6.18,20.7.42,27.84v.06c0,1.44-1.44,2.46-2.88,2.46-1.08,0-2.04-.66-2.04-2.1v-.18c.3-6.36.48-15.42.6-24-4.68,8.1-11.22,11.04-11.46,11.04-.06,0-.12-.06-.12-.12,0-.18.3-.6.96-1.2,4.38-4.2,9.9-14.58,10.68-19.5v-.78c-1.8.06-3.66.18-6.54.54h-.06c-.72,0-2.4-2.22-2.4-2.88,3.54.54,6.66.72,9,.78,0-2.76-.24-11.94-.72-14.46-.06-.18-.06-.3-.06-.42s.06-.18.12-.18c.12,0,7.2,1.08,7.2,2.46,0,.36-.42.84-1.14,1.2-.9.48-1.2.48-1.32,1.98-.12,1.8-.18,5.22-.24,9.48h.66c.18,0,.6-.18.78-.48.6-1.08,1.32-2.1,2.16-3.06.12-.12.3-.18.48-.18,1.32,0,4.38,3.66,4.38,4.5,0,.36-.24.72-1.14.72h-7.32v5.58h.36c2.04,0,4.92.48,6.36,2.1-.12-.24-.24-.48-.24-.66,4.86.6,10.14.84,13.44.9v-5.64c-2.16,0-3.96.12-7.8.54h-.06c-1.02,0-2.76-2.22-2.76-2.88,4.44.54,7.8.78,10.56.84v-.84c-.06-1.14-.06-3.36-.24-4.68-2.46,0-4.86.12-9,.54h-.06c-1.08,0-2.76-2.16-2.76-2.88,5.46.72,10.14.84,13.2.84h2.28c.78-1.5,3.24-6.6,3.66-10.14.06-.48,0-.6.24-.6.78,0,6.42,3.06,6.42,4.02,0,.42-.54.78-1.8.78-.9,0-.9.24-1.44.78-1.26,1.26-3.24,3.24-5.4,5.16h4.5c.42,0,.78-.18.96-.48,1.2-1.92,2.28-3.18,2.94-3.18,1.56,0,4.98,3.18,4.98,4.44,0,.36-.3.72-1.2.72h-11.82c.36.18.6.42.6.66,0,.36-.36.66-1.02.96-.72.3-1.08.54-1.08,3.9h2.82c.42,0,.72-.18.9-.48,1.2-1.62,2.22-2.76,2.76-2.76.84,0,3.54,1.62,4.62,3.42.12.12.18.36.18.54,0,.36-.3.78-1.2.78h-10.08c-.06,1.62-.06,3.54-.06,5.64h6.3c.48,0,.84-.24,1.02-.54.78-1.2,2.52-3.42,3.12-3.42,1.56,0,5.34,3.48,5.34,4.68,0,.36-.24.78-1.2.78h-14.28c1.02,3.18,2.4,6.24,4.26,9.06,2.52-2.04,5.16-5.4,5.58-6.48.12-.3.12-.42.24-.42.36,0,4.98,3.6,4.98,5.04,0,.48-.42.72-1.08.72-.24,0-.6,0-.96-.12-.24-.06-.54-.12-.78-.12s-.48.06-.72.12c-1.32.48-3.84,1.62-6.48,2.4,3.24,4.56,7.56,8.28,12.72,10.2.3.12.48.24.48.3Zm-25.8-12.24c0,1.38-1.02,2.52-2.22,2.52-.84,0-1.74-.48-2.46-1.74-.96-1.62-2.88-3.72-4.5-4.98-.42-.3-.6-.48-.6-.6s.3-.12.9-.12h.24c2.28,0,8.64.84,8.64,4.92Zm3.54-28.5c0,1.56-1.2,2.7-2.52,2.7-.9,0-1.86-.6-2.46-2.04-.54-1.38-2.16-3.6-3.42-4.86-.3-.3-.48-.54-.48-.66s.12-.18.36-.18c1.68,0,8.52,1.2,8.52,5.04Z" fill="#003383"/>
      <path d="m248.34,215.42c-4.8,3-6.72,6-6.72,8.34s2.46,5.16,7.5,5.16c2.22,0,4.74-.54,6.9-1.68.72-.36,1.38-.54,1.98-.54,1.5,0,2.52.96,2.52,2.1,0,2.76-5.34,4.32-9.66,4.32-6.48,0-11.76-3.9-11.76-8.46,0-3.72,3.36-7.92,9.3-11.46,0-3.72-.48-8.88-3.84-8.88-1.44,0-3.24,1.14-5.34,3.96l-1.8,3.36c-1.26,2.28-2.7,4.68-4.38,4.68-.24,0-1.8-.06-1.8-2.16,0-1.2.6-2.94,2.46-4.62,5.52-4.98,7.32-8.22,9.96-14.16l.12-.24-.06.06c-1.2.3-2.28.48-3.3.48-5.82,0-7.44-4.08-7.44-5.7,0-.24.06-.3.18-.3.3,0,.72.24,1.5.78,1.8,1.26,3.48,1.62,5.04,1.62,1.8,0,3.66-.42,5.28-.96.12-.66.12-1.26.12-1.68,0-1.38-.24-3-2.28-3.48-.54-.12-1.08-.3-1.08-.6,0-.18.9-1.5,2.94-1.5,1.56,0,2.82.48,3.42,2.76h.48c1.14.06,2.04.18,2.76.18.3,0,.54-.06.78-.12.36-.18.72-.24,1.02-.24,1.5,0,1.5,1.38,1.5,1.62,0,3.18-6,5.52-8.1,6.24l-.12.3c-2.04,4.44-3.3,6.72-4.62,9.06,1.14-.6,2.22-.84,3.24-.84,3.12,0,5.4,2.58,6.24,6.24,1.74-4.38,6.36-12.78,13.26-12.78,3.3,0,7.44,2.22,7.44,5.28,0,2.34-2.52,4.74-6.6,6.3-4.2,1.56-9.36,3.6-13.44,5.58.18,1.38.24,2.82.24,4.26,0,.72,0,1.5-.06,2.22-.18,2.34-1.8,3.9-3.12,3.9-.9,0-1.68-.78-1.68-2.76,0-.18.06-.48.06-.72.12-1.5.9-2.1.96-4.08v-.84Zm-.12-28.26c.06.24.06.48.06.72,0,.66-.12,1.32-.24,2.04,1.38-.66,2.1-1.02,2.1-1.74,0-.3-.24-.6-1.74-.96l-.18-.06Zm15.24,18.12c2.64-1.44,3.84-2.88,3.84-4.2s-1.14-2.94-3.48-2.94c-5.52,0-10.56,8.46-12.18,13.26,3.66-1.92,8.34-4.2,11.82-6.12Z" fill="#003383"/>
      <path d="m334.14,228.98c0,.48-5.46,2.22-7.08,3.9-.3.36-.66.54-1.02.54-3.18,0-14.76-5.94-18.54-18.18-4.56,18.78-26.88,18.96-27.48,18.96-.66,0-.96-.12-.96-.24,0-.18.48-.42,1.32-.54,11.16-1.92,20.64-8.76,22.86-19.26h-3.18c-3.24,0-10.86.12-16.02.66h-.06c-1.08,0-2.88-2.34-2.88-3.06,5.94.72,15.9.96,19.26.96h3.12c.18-1.14.24-2.28.24-3.48,0-1.44,0-2.7-.18-4.14-3.6.18-7.32.3-10.86.3-7.02,0-7.2-.3-7.2-.66,0-.18.36-.36,1.26-.42,7.62-.36,20.88-1.98,28.02-3.96,1.26-.36,2.22-.9,2.88-1.26l.18-.12c-.36-.3-.66-.72-.9-1.32-.72-1.62-2.04-3.48-3.24-4.68-.3-.3-.42-.48-.42-.6s.12-.18.42-.18c1.14,0,8.16,1.02,8.16,4.86,0,1.44-1.14,2.52-2.4,2.58,1.14,1.14,2.94,2.94,2.94,3.9,0,.42-.36.6-.9.6-.36,0-.84-.06-1.26-.24-.3-.12-.66-.18-1.02-.18h-.24c-2.7.36-6.3.78-10.26,1.08.18.06,1.56.36,1.56.9,0,.3-.36.66-1.02.9-.78.36-.9.3-.96,2.1-.06,1.14-.06,2.28-.18,3.18,0,.3-.06.6-.12.84h13.2c.36,0,.78-.24.96-.54,2.76-3.9,3.18-4.02,3.54-4.02,1.38,0,5.94,4.02,5.94,5.28,0,.36-.24.72-1.26.72h-22.2c3.72,6.78,12.3,14.1,25.5,14.64.3,0,.48.06.48.18Zm-28.14-38.64c0,.36-.24.66-1.14.66h-14.4c-4.86,6-9.48,9.36-10.44,9.36-.12,0-.12-.06-.12-.12,0-.12.18-.48.66-.96,3.9-4.02,9.54-13.5,10.14-18.48v-.36c0-.18,0-.24.18-.24.6,0,6.84,2.46,6.84,3.78,0,.54-.78.84-1.98.9-.78.06-.96.18-1.5.96-.78,1.2-1.68,2.46-2.64,3.72h6.18c.24,0,.6-.18.78-.48.54-.96,2.1-3.24,2.76-3.24,1.08,0,4.68,3.18,4.68,4.5Zm-6.42,7.08c0,1.5-1.2,2.7-2.46,2.7-.96,0-1.92-.6-2.52-2.1-.66-1.68-2.04-3.6-3.24-4.86-.3-.3-.48-.48-.48-.66,0-.06.12-.12.48-.12,2.52,0,8.22,1.62,8.22,5.04Zm31.44-7.08c0,.36-.3.66-1.2.66h-19.56c-5.64,7.38-8.94,8.88-9.36,8.88-.06,0-.12-.06-.12-.12,0-.12.18-.42.6-.84,2.58-2.76,8.64-13.44,9-17.88.06-.54,0-.72.24-.72.48,0,6.72,2.34,6.72,3.72,0,.48-.72.78-1.86.84-.72.06-.78,0-1.32.78l-2.82,3.9h10.2c.24,0,.6-.18.78-.48,2.52-3.54,2.88-3.72,3.24-3.72.66,0,5.46,3.24,5.46,4.98Z" fill="#003383"/>
      <path d="m367.14,202.58c0,.36-.24.66-1.08.66h-18.06l-.42.3c-.54.36-.72.48-.72,1.26v1.38c.06,1.26.06,2.64.06,4.02,0,1.02,0,2.1-.06,3.12,5.7-2.82,9.66-6.84,10.44-9.24.06-.18.12-.36.24-.36.36,0,4.02,2.64,4.02,3.78,0,.36-.24.6-.84.6-.18,0-.42,0-.66-.06-.18-.06-.36-.06-.48-.06-.24,0-.36.12-.66.36-3.24,2.88-8.04,5.1-12.12,5.88-.18,2.46-.54,4.98-1.2,7.38,5.1-2.04,12.96-7.5,14.28-11.4.06-.18.12-.36.24-.36.06,0,.18,0,.3.12,1.08.6,3.84,2.94,3.84,3.78,0,.42-.24.66-.84.66-.18,0-.36,0-.6-.06-.24-.06-.36-.06-.54-.06-.3,0-.42.12-.78.42-4.26,3.84-10.32,6.9-16.14,7.74-2.28,7.14-7.26,10.86-8.1,10.86-.06,0-.12-.06-.12-.12,0-.12.24-.48.78-1.14,4.26-4.98,5.1-12.72,5.1-19.44,0-3.66-.24-10.5-.9-12.96-.06-.18-.06-.3-.06-.36q0-.12.12-.12c1.44,0,5.22,2.1,5.76,2.46l.18.12h6.12c1.38-3,2.88-7.92,2.88-10.44,0-.12,0-.18.12-.18.6,0,5.64,2.34,5.64,3.36,0,.42-.48.72-1.5.78-.78,0-.78.24-1.2.78-1.08,1.38-2.88,3.66-4.74,5.7h4.2c.18,0,.54-.18.72-.48.54-1.02,1.38-2.04,1.98-2.7.12-.12.24-.18.42-.18.06,0,.18,0,.24.06,1.62.78,4.14,2.94,4.14,4.14Zm-1.02-12.9c0,.36-.24.72-1.08.72h-11.64c-2.7,0-6.12.06-10.44.54h-.06c-.9,0-2.28-2.22-2.28-2.88,3.84.54,7.74.78,10.62.84v-1.2c-.06-2.04-.12-4.56-.54-6.36-.06-.24-.06-.36-.06-.42s0-.12.12-.12c.48,0,6.84.78,6.84,2.16,0,.36-.48.78-1.2,1.2-.96.54-1.2.66-1.2,4.74h3.24c.12,0,.54-.18.72-.48.24-.42,1.74-3.18,2.46-3.18.18,0,.3.06.36.06,1.08.48,4.14,3.12,4.14,4.38Zm1.02,30.66c0,.42-.3.66-.9.66-.18,0-.36,0-.6-.06-.3-.06-.48-.12-.6-.12-.24,0-.36.12-.6.42-8.28,9-20.46,10.08-22.32,10.08-.54,0-.9-.06-.9-.24,0-.12.3-.24.96-.42,10.98-2.7,19.08-10.32,20.28-14.34.06-.18.06-.36.12-.36.18,0,4.56,3.06,4.56,4.38Zm-14.64-22.56c0,1.38-1.02,2.46-2.1,2.46-.84,0-1.68-.6-2.16-2.1-.42-1.38-1.8-3.72-2.82-4.98-.3-.36-.48-.6-.48-.66s.06-.06.12-.06c1.44,0,7.44,1.62,7.44,5.34Zm26.76,29.1c0,.48-.48.72-1.38.72h-.96c-.48,0-.9.06-1.32.3-4.5,2.76-12.42,6.12-20.88,6.12-.66,0-1.02,0-1.02-.12s.6-.36,1.86-.66c5.16-1.26,16.2-6.24,18.18-10.56.12-.24.18-.42.36-.42.72,0,5.16,3.72,5.16,4.62Zm15-41.28c0,.36-.3.72-1.26.72h-12.3c1.32.42,1.98.84,1.98,1.26,0,.3-.42.66-1.38.9-.6.18-.78.48-1.02.9-.78,1.32-1.8,3-2.82,4.32h6.3c.36,0,.66-.24.84-.48.84-1.26,1.5-1.8,1.86-1.8.72,0,4.92,2.34,4.92,3.6,0,.6-.6,1.02-1.38,1.44-.96.54-1.08.9-1.08,4.68,0,5.1.24,14.04.48,18.54v.12c0,1.5-1.32,2.4-2.52,2.4-1.02,0-1.92-.66-1.92-2.04v-.6h-11.22v1.02c0,1.62-1.68,2.16-2.64,2.16s-1.8-.54-1.8-1.8v-.24c.36-5.04.42-12.06.42-16.8,0-5.46-.06-9.24-.78-12.42-.06-.18-.06-.3-.06-.36,0-.12.06-.18.12-.18.42,0,4.32,1.5,5.88,2.64l.24.12h.54c.3-1.8.48-4.02.54-5.28v-2.1c-2.04.06-4.2.18-7.68.54h-.06c-.96,0-2.46-2.22-2.46-2.94,5.7.72,9.72.9,12.96.9h6.12c.24,0,.66-.24.84-.54.42-.72,2.28-3.6,3.06-3.6,1.44,0,5.28,3.78,5.28,4.92Zm-9.3,10.56c0-.54-.3-.84-.72-.84h-9.3c-.18.12-.36.3-.66.48-.66.42-.66.6-.66,6.06h11.46c0-2.4-.06-4.38-.12-5.7Zm-11.34,7.26v6h11.4c0-2.04.06-4.14.06-6h-11.46Zm0,7.5c0,2.46.06,4.92.06,7.08h11.28c0-2.16.06-4.62.06-7.08h-11.4Zm19.5,19.2c0,1.56-1.14,2.76-2.46,2.76-.96,0-2.1-.66-2.94-2.34-1.62-3.24-4.02-5.52-6.36-7.44-.3-.18-.42-.36-.42-.48,0-.06.06-.12.24-.12,1.86,0,11.94,2.94,11.94,7.62Z" fill="#003383"/>
      <path d="m403.38,217.88c0-2.1.24-4.14.6-6.06.78-4.08,2.04-7.8,2.7-11.28.3-1.5.42-2.88.42-4.14,0-2.64-.54-4.62-1.14-5.7-.36-.66-.84-1.2-.84-1.5s.3-.42,1.2-.42c1.86,0,4.98,2.64,4.98,7.08,0,1.98-.66,3.96-1.68,6.48-1.5,3.72-3.3,8.22-3.3,12.3,0,1.38.36,3.72.9,3.72.18,0,.42-.3.66-.9,1.5-3.18,5.58-11.16,6.24-11.16.06,0,.12.12.12.24,0,.24-.12.72-.42,1.44-.84,1.98-4.08,10.56-4.08,15.66,0,1.26.18,2.28.42,3.24.12.42.18.84.18,1.2,0,1.5-.9,2.4-1.92,2.4-4.08,0-5.04-9.66-5.04-12.6Zm36.72,4.08c2.34,0,3.6,1.08,3.6,2.28,0,3.72-8.46,3.78-9.54,3.78-10.32,0-13.56-5.34-13.56-8.28,0-.42.06-.6.24-.6.3,0,.72.42,1.26,1.2,1.2,1.74,5.22,2.88,9.66,2.88,1.2,0,2.4-.06,3.6-.24,1.44-.24,2.4-.96,4.44-1.02h.3Zm-9.18-21.36c-9,0-9.48-5.4-9.48-5.82,0-.18.06-.24.24-.24s.6.24,1.14.54c1.68,1.02,3.9,1.38,6.12,1.38,1.74,0,3.42-.24,4.98-.6.78-.18,1.44-.6,2.22-.72.42-.06.78-.12,1.14-.12,1.92,0,3.12,1.02,3.12,2.1,0,2.94-6.54,3.48-9.48,3.48Z" fill="#003383"/>
      <path d="m479.76,197.42c-5.34.66-10.62,2.1-15,3.96-1.26.54-2.82,1.02-4.5,1.02-3.54,0-6.6-1.98-6.6-4.92,0-.9.24-1.26.6-1.26.3,0,.78.3,1.32.84.72.72,3.18.72,3.72.72,1.14,0,2.22-.12,3.18-.24,5.46-.84,11.34-1.74,17.22-2.46,0-1.86-.06-3.78-.06-5.76,0-2.52-.96-3.18-2.34-4.08-.48-.3-.66-.54-.66-.72,0-.6,1.14-1.5,2.88-1.5s4.44,1.02,4.44,4.5c0,.72-.06,1.5-.24,2.34-.3,1.68-.6,3.3-.78,4.86,2.28-.24,4.56-.36,6.78-.48.72-.06,1.08-.18,1.08-.36,0-.12-.12-.24-.3-.36-.9-.6-4.68-3.06-4.68-3.42,0-.06.06-.12.18-.12.36,0,1.14.24,1.62.48,2.82,1.38,6.12,2.46,8.28,2.76,3,.48,7.14,1.32,7.14,4.08,0,.9-.78,1.68-2.16,1.68-.54,0-1.14-.06-1.8-.3-3.66-1.14-7.86-1.68-12.18-1.68-1.38,0-2.76.06-4.14.18-.12,1.98-.24,3.72-.24,5.34,0,2.04.18,3.78.24,5.04,1.14,1.2,2.34,3.06,2.34,6.54,0,11.94-13.32,19.68-17.34,19.68-.3,0-.42-.06-.42-.18,0-.24.66-.72,1.98-1.32,2.88-1.32,8.76-6.6,10.74-13.44-1.08.9-2.28,1.26-3.24,1.26-2.22,0-3.24-1.8-4.5-4.5-.42-.9-.96-2.4-.96-4.44,0-3.96,2.58-6.12,5.7-6.12.9,0,1.86.24,2.82.6l-.12-8.22Zm.06,12.54c-1.02-2.1-2.7-2.94-3.96-2.94-1.38,0-2.58,1.02-2.58,3.12,0,1.62.96,5.64,4.02,5.64,2.7,0,2.7-3.54,2.7-4.02s0-.96-.12-1.5l-.06-.3Z" fill="#003383"/>
      <path d="m524.4,208.58c.06,0,.12-.06.3-.18,2.7-1.74,6.06-2.7,9.42-2.7,7.74,0,12.48,5.4,12.48,11.22s-5.52,13.68-16.56,13.68c-5.82,0-9.72-2.88-9.72-6.12,0-2.88,3-4.5,5.88-4.5,3.96,0,6.42,3.06,6.42,6.18,0,.48-.06,1.02-.18,1.5,6.96-1.68,9.66-6.48,9.66-10.68,0-4.74-3.36-9-9.42-9-2.1,0-9.06.54-13.08,9.06-1.44,3.12-2.4,4.98-4.44,4.98-1.08,0-1.92-.84-1.92-2.04,0-1.74,2.22-4.32,4.98-7.5,3.6-4.14,12.06-15.54,14.58-19.68.3-.42.42-.84.42-1.14,0-.42-.24-1.02-1.5-1.02-2.82,0-4.14,5.76-8.16,5.76-2.22,0-4.02-1.44-4.02-3.66,0-.66.12-1.2.54-1.2.3,0,.66.12,1.14.3.48.18.96.24,1.44.24.84,0,1.68-.24,2.46-.84,2.34-1.62,5.1-3.6,8.28-3.6,3.54,0,5.7,2.46,5.7,3.78,0,1.2-1.32,2.28-2.58,3.24-4.32,3.3-12.12,13.74-12.12,13.86v.06Zm4.62,17.34c0-2.1-1.62-3.9-3.84-3.9-2.64,0-2.7,1.98-2.7,2.28,0,.24,0,3.06,6,3.66.36-.66.54-1.38.54-2.04Z" fill="#003383"/>
    </g>
  </g>
</svg>