<?xml version="1.0" encoding="UTF-8"?>
<svg id="_レイヤー_2" data-name="レイヤー 2" xmlns="http://www.w3.org/2000/svg" viewBox="0 0 526.25 117.5">
  <g id="_デザイン" data-name="デザイン">
    <g>
      <path d="m44.4,41.75c0,.3-.25.55-1.1.55h-26.2c-2.8,0-10.25.1-14.7.55h-.05c-.9,0-2.35-1.95-2.35-2.6,2.45.3,5.95.5,9.15.6.05-2.95.05-5.75.05-8.2,0-3.35,0-6.1-.05-7.85,0-1.75,0-5.9-.5-8.25-.05-.2-.1-.3-.1-.4,0-.05.05-.1.15-.1.4,0,6.25.75,6.25,2.05,0,.35-.4.8-1.15,1.2-1.05.55-1.05.75-1.05,12.2,0,3.05,0,6.35.05,9.45,1.95.05,3.6.1,4.55.1h3.7c.05-4,.1-12.2.1-18.9,0-11.85-.1-13-.45-15.05h-2.85c-2.75,0-8.65.1-13.05.55h-.05c-.9,0-2.35-1.95-2.35-2.6,5.05.6,12.8.8,15.65.8h14.8c.3,0,.65-.2.8-.45.05-.1,2.15-3.55,3.1-3.55.15,0,.25.05.35.05,2,.7,4.6,4.05,4.6,4.65,0,.3-.25.55-1.05.55h-14.55c.5.15.7.4.7.65s-.3.55-.8.8c-.9.4-.9.5-1,2.65-.05,1.4-.1,6-.1,11.25h5c.3,0,.65-.2.8-.45.35-.5,2.3-3.35,3-3.35,1.3,0,4.75,3.55,4.75,4.45,0,.3-.2.6-1,.6h-12.55c0,6.55,0,13.85.05,17.35h10.3c.35,0,.65-.2.8-.45.5-.85,2.45-3.7,3.2-3.7,1.6,0,5.15,4.2,5.15,4.85Z" fill="#fff"/>
      <path d="m94.15,41.5c0,.25-.2.5-.95.5h-18.75v1.35c0,.95-.95,2.1-2.25,2.1-.9,0-1.65-.55-1.65-1.75v-.25c.4-4.35.75-15.35.75-18.4v-2.35c-1.85,2.2-3.85,4.15-5.9,5.65.05,2.4.15,4.85.25,6.85v.1c0,1.15-1.15,1.9-2.1,1.9-.8,0-1.5-.45-1.5-1.55,0-.6.05-1.2.05-1.8h-4.1c0,1.9.05,3.7.05,5.25v.05c0,1.1-1.1,1.8-2.2,1.8-.8,0-1.55-.45-1.55-1.5v-.2c.35-4.75.55-10.05.55-14.9,0-.65.05-1.5.05-2.45-3.05,4.5-7,8.1-7.45,8.1,0,0-.05,0-.05-.05,0-.15.2-.45.6-1,4.7-6.2,9.25-17.05,9.8-21.4-1.65.05-3.6.15-5.85.45h-.05c-.6,0-2.05-1.85-2.05-2.4,3.8.55,7.7.7,9.8.7h2c.15,0,.45-.15.65-.4.65-.75,1.3-2.05,2-2.8.1-.1.25-.15.4-.15.95,0,4.3,3.05,4.3,4.1,0,.25-.2.5-.95.5h-6.05l.45.15c.45.2.65.4.65.6,0,.25-.35.55-1.1.8-.5.2-.65.45-1.1,1.55-.95,2.15-2,4.3-3.15,6.45l1.15.7h2.3c.2,0,.45-.1.65-.4.75-1.05,1.05-1.45,1.45-1.45.55,0,3.9,1.9,3.9,2.9,0,.45-.5.85-1,1.2-.85.6-.8.5-.85,1.6,0,.6-.05,1.45-.05,2.4s.05,2,.05,3.15c4.1-4.25,8-11.25,10.65-17.85h-4.35c0,3.35-1.5,6.1-3.75,6.1-1.15,0-2.05-.85-2.05-1.95,0-.65.3-1.35,1-2,2.2-2.05,3.2-3.35,3.4-5.9.05-.5.15-.75.25-.75.35,0,.9,1.75,1.05,3.25h4.95c.5-1.35.95-2.65,1.35-3.9.25-.85.5-2,.5-3v-.25c0-.15-.05-.25-.05-.3,0-.1.05-.2.25-.2.7,0,5.7,1.4,5.7,2.3,0,.4-.5.75-1.55,1-.6.15-.8.55-1.1,1.35-.4,1-.85,2-1.3,3h7.1c.2,0,.65-.15.8-.35,1.1-1.3,1.5-1.35,1.65-1.35.35,0,4.15,2.4,4.15,3.95,0,.6-.55,1.1-1.95,1.25-2.05.2-4,2.1-5.65,3.05.1.1.15.2.15.3,0,.4-.5.75-1.3.9-.5.1-.75.35-1.1.7-.7.7-1.85,1.75-2.85,2.6h4.5c.2,0,.5-.15.65-.4,1.5-2.4,2.05-2.6,2.35-2.6.9,0,4,2.75,4,3.75,0,.25-.2.5-.95.5h-8.15s.1.05.15.05c.35.1.5.3.5.5,0,.25-.35.55-.95.8-.3.1-.45.5-.45,1-.05.95-.1,2.15-.1,3.45h1.95c.2,0,.5-.15.65-.4.55-.9,1.6-2.25,2.1-2.25.3,0,3.65,2,3.65,3.35,0,.3-.2.55-.95.55h-7.4v5.55h1.95c.2,0,.5-.2.65-.45.55-.9,1.6-2.25,2.1-2.25.55,0,3.65,2.2,3.65,3.35,0,.3-.2.6-.95.6h-7.4v6.5h4.1c.2,0,.5-.15.65-.4.6-.95,1.95-2.75,2.4-2.75.7,0,4.15,2.55,4.15,3.9Zm-31.95-17.4c0-1.65-.05-3.2-.1-4.4,0-.35-.15-.6-.5-.6h-2.85c-.75.5-.8.6-.8,6.95,0,2.05.05,4.3.05,6.55h4.1c.05-2.9.1-5.9.1-8.5Zm25.25-14.75h-7.75c-1.55,3.25-3.35,6.45-5.3,9.3l1.05.4.25.1h4.3c1-3.55,1.15-4.8,1.15-6.05,0-.55.2-.55.2-.55,1,0,4.25,1.6,4.65,1.8.65-1.35,1.65-3.7,1.7-4.5,0-.4-.05-.5-.25-.5Zm-7.75,18.1h-5.25c0,1.7-.05,3.65-.05,5.55h5.3v-5.55Zm-.05,6.8h-5.25c0,2.4.05,4.7.05,6.5h5.2v-6.5Zm.05-8.95c0-1.3,0-3.45-.25-4.9h-3.7l-.55.3c-.6.25-.6.4-.75,5.5h5.25v-.9Z" fill="#fff"/>
      <path d="m110.55,27.55c-2.65,0-4.75-2.1-4.75-4.75s2.1-4.75,4.75-4.75,4.75,2.1,4.75,4.75-2.1,4.75-4.75,4.75Z" fill="#fff"/>
      <path d="m172.9,38.2c.1,0,.15,0,.15.05,0,.4-3.35,2.65-4.3,4.65-.2.4-.55.8-1.1.9-.4.1-6.15.8-12.25.8-5.1,0-15.8,0-18.15-8.55-1.25,1.8-4.2,5.15-6.25,7.45-.15.2-.2,1.15-.7,1.15-.45,0-4.5-3.5-4.5-4.15,0-.1.1-.2.35-.25,2.15-.45,5.55-2.35,7.85-4.1.75-.55.85-1.55.85-9.4,0-1.35-.05-2.4-.05-2.95,0-.35-.25-.55-.6-.55l-.75.05c-.85.05-3,.5-3.95.55h-.05c-.8,0-2.2-1.95-2.2-2.65,1.65.25,4.9.7,6.1.7h.15l.65-.05c.3,0,.6-.2.8-.45,1.25-1.4,1.45-1.45,1.65-1.45.55,0,4.4,2.2,4.4,3.25,0,.5-.55.8-1.05,1.05-.8.4-1.25.3-1.35,1.4-.2,1.8-.25,4.7-.25,7.1v1.95c0,5.8,9.45,6.2,13.85,6.2,6.4,0,14.55-.9,20.2-2.6.25-.05.4-.1.5-.1Zm-33.25-29.25c0,1.25-.9,2.25-2.05,2.25-.75,0-1.65-.45-2.45-1.7-1.35-2.1-3.7-4.15-5.2-5.2-.25-.15-.4-.3-.4-.4,0-.05.15-.1.4-.1,1.35,0,9.7.9,9.7,5.15Zm19.9,11.3c0,.3-.2.6-.9.6h-6.8c0,5,.2,10.75.35,14.45v.1c0,1.25-1.2,2.05-2.3,2.05-.85,0-1.6-.55-1.6-1.8v-.15c.2-4.4.3-10.1.35-14.65-1.65,0-3.85.1-6,.45h-.05c-.65,0-1.95-1.55-1.95-2.35,2.6.45,5.95.6,8.05.65,0-8.1-.4-10.05-.55-10.65-.05-.15-.05-.25-.05-.3s0-.1.1-.1c.85,0,5.7.9,5.7,1.75,0,.3-.3.65-.85.9-.8.4-.85.25-.95,1.55-.15,1.65-.25,4.15-.25,6.9h1.35c.25,0,.5-.15.65-.4,1.35-2.6,1.8-2.75,2.1-2.75,1,0,3.6,2.6,3.6,3.75Zm11.55,14c0,1.25-.9,2.05-2.1,2.05-.6,0-1.35-.2-2.05-.75-6.25-4.6-6.95-14.4-6.95-21.85,0-2.3.05-4.35.05-6v-.35c0-.5-.25-.85-.75-.85h-6.65c-1.5,0-7.05.1-9.45.45h-.05c-.7,0-1.9-1.7-1.9-2.45,2.9.55,9.95.7,11.5.7h6.4c.25,0,.5-.1.7-.4.2-.25,1.05-1.5,1.7-1.5.6,0,4.25,2.1,4.25,3.25,0,.4-.35.8-.95,1.05-.95.4-1,.3-1.1,1.5-.15,2.05-.3,4.5-.3,7.05,0,10.4,3.5,14.1,3.95,14.1.8,0,1.8-2,2.95-5.15.15-.45.3-.75.35-.8q.05-.05.1-.05s.05.2.05.5c0,1.15-.3,3.95-.3,6.05,0,.95.05,1.75.25,2.15.2.45.3.9.3,1.3Z" fill="#fff"/>
      <path d="m222.85,38.2c.1,0,.15,0,.15.05,0,.4-3.35,2.65-4.3,4.65-.2.4-.6.8-1.15.9-.4.1-6.15.8-12.2.8-2.65,0-5.35-.15-7.75-.5-5.65-.85-9.3-4.05-10.4-8.05-1.25,1.8-4.2,5.15-6.25,7.45-.15.2-.25,1.15-.75,1.15s-4.45-3.6-4.45-4.15c0-.1.1-.2.35-.25,2.15-.45,5.5-2.35,7.8-4.1.85-.6.85-2.25.85-10.6v-1.85c0-.35-.25-.55-.6-.55l-.8.05c-.85.05-2.95.45-3.9.5h-.05c-.8,0-2.2-1.9-2.2-2.6,1.65.25,4.9.7,6.05.7h.15l.7-.05c.3,0,.6-.2.8-.45,1-1.1,1.3-1.45,1.6-1.45s4.4,2,4.4,3.2c0,.5-.55.8-1.05,1.05-.8.4-1.25.35-1.35,1.45-.15,1.6-.25,4.15-.25,6.4,0,1,.05,1.95.05,2.75,0,.3.05.9.2,1.35q.05-.05.1-.05h.05c4.4-2.25,9.05-6.5,13.35-12.85h-4.6v1.35c0,1-1.05,1.6-2.15,1.6-.8,0-1.5-.4-1.5-1.35v-.2c.25-2.45.4-4.75.4-7.05,0-1-.25-3.55-.6-5.3,0-.15-.05-.2-.05-.3,0-.15.05-.2.15-.2.35,0,3.5,1.4,4.65,2.2l.15.1h4.7c0-1.85-.05-3.55-.05-4.9-2.3,0-6.9.1-10.3.5h-.05c-.7,0-2.1-2-2.1-2.6,3.95.55,9.95.8,12.45.8-.05-1.65-.05-4.45-.5-6.7-.05-.25-.1-.35-.1-.45,0-.05.05-.05.1-.05,1.15,0,5.85.8,5.85,1.9,0,.35-.3.7-.95,1-.65.35-.95.3-1.05,1.6l-.1,2.7h6.15c.2,0,.55-.15.7-.4.6-.9,1.6-2.3,2.3-2.85.1-.1.3-.15.45-.15,1.25,0,4.5,3.25,4.5,4,0,.35-.2.7-1.05.7h-13.1c-.05,1.45-.05,3.1-.05,4.9h5.2c.3,0,.55-.25.7-.45.55-.8,1.15-1.4,1.5-1.4.65,0,3.95,2.1,3.95,2.95,0,.45-.55.8-1.15,1.15-.65.35-.7.4-.7,2.3,0,1.7.15,3.6.3,5.2v.2c0,1.2-1.25,1.7-2.05,1.7-.85,0-1.6-.45-1.6-1.5v-.05c0-.3.05-.65.05-.95h-6.15v3.25c4.55.7,12.9,2.95,12.9,6.9,0,1.2-.85,2.2-1.95,2.2-.7,0-1.55-.45-2.3-1.5-1.65-2.3-5.3-5.05-8.6-7,.05,3.65.1,7.15.2,9.85v.1c0,.9-.85,1.9-2.2,1.9-.85,0-1.6-.5-1.6-1.7v-.15c.15-2.6.25-6.2.3-10-3.55,4.4-8.65,8-14.2,9.55-.05,0-.05.05-.1.05,1.8,3.35,6.55,4.3,13.4,4.3,6.4,0,14.55-.9,20.2-2.6.25-.05.4-.1.5-.1Zm-33.25-29.25c0,1.25-.9,2.25-2.05,2.25-.75,0-1.65-.45-2.45-1.7-1.35-2.1-3.75-4.15-5.25-5.2-.25-.15-.35-.3-.35-.35,0-.1.1-.15.4-.15,2.9,0,9.7,1.5,9.7,5.15Zm8.75,6.35l-.4.3c-.55.4-.55.2-.6,1.45,0,.55-.05,1.3-.05,2.15,0,.8.05,1.7.05,2.65h5.75c0-2.25.05-4.5.05-6.55h-4.8Zm14.2,3.55c0-2.85-.05-3.55-.8-3.55h-5.5v6.55h6.25c.05-1.05.05-2,.05-3Z" fill="#fff"/>
      <path d="m239.5,13.1c-.7.15-1.35.25-1.95.3-.3,0-.55.05-.85.05-4.6,0-6.35-3.35-6.35-4.95,0-.2.1-.3.25-.3.25,0,.6.25.95.45,1.6.95,3.25,1.7,5.2,1.7,1.7,0,3.25-.4,3.55-.5.1-.75.15-1.5.15-2.15,0-2.9-.7-3.1-1.3-3.1-1.05,0-1.2-.25-1.2-.45,0-.1.05-.55.9-1.4.45-.35.9-.45,1.4-.45.9,0,3.15.5,3.15,3.7.55.05,1.15.05,1.65.05,1.55,0,3.05.05,3.05,1.4,0,1.45-2.75,3.75-6.15,4.95-1.4,3.5-3.3,7.95-7.6,17.3-.85,1.85-2.35,2.8-3.45,2.8-.8,0-1.4-.45-1.4-1.4,0-.65.35-1.6,1.15-2.8,2.7-4,6.95-9.95,8.75-14.95l.1-.25Zm3.55,31c-3.95,0-6.75-3.05-6.75-5.6,0-3.3,4.4-5,9-5,1.1,0,2.25.1,3.35.3,0-2-.2-4.1-.2-5.85.05-4.35,1.05-6.55,4.7-9.1,1.35-.95,2.95-2.15,2.95-3.35,0-.55-.2-.75-1.5-2.05-.5-.45-.8-.75-.8-1,0-.2.35-.3,1.2-.3,2.4,0,6.35,2.15,6.35,5.2,0,.95-.6,2.8-2.15,2.8-.5,0-1-.1-1.6-.25-.3-.05-.6-.1-1-.1-.65,0-6.2.1-6.2,5.05,0,1.35.25,3.35.85,7.4.1.75.2,1.55.25,2.3,2.75.9,7.35,3.35,7.35,6.3,0,1.2-.75,2.2-1.7,2.2-.65,0-1.4-.45-2-1.6-.8-1.45-2.15-2.75-3.8-3.75-.85,3.7-4.55,6.4-8.3,6.4Zm.6-8.65c-3.45,0-5.85,1.45-5.85,2.9s2.15,2.55,4.5,2.55c2.95,0,5.75-1.65,6.2-4.55-1.55-.55-3.2-.9-4.85-.9Zm.4-27.2c.3-.25.6-.6.6-.95,0-.15-.05-.45-1.25-.85-.05.75-.2,1.5-.4,2.4l1.05-.6Z" fill="#fff"/>
      <path d="m305.35,28.75c.1,2.2.25,5.15.35,6.45v.1c0,.8-.6,1.85-2.25,1.85-.85,0-1.65-.45-1.65-1.5v-.05c0-.3.05-.8.05-1.3h-8.75v.55c.05,1.15.2,3.15.2,4.1v.1c0,5.35-5.65,5.8-6.55,5.8-.55,0-.9-.2-1.25-.75-.9-1.4-6.25-3.6-6.25-4,0-.05.05-.05.2-.05.1,0,.25,0,.5.05,2.6.45,4.6.7,6.05.7,2.45,0,3.4-.7,3.5-2.5.05-.55.05-2,.05-4h-.2c-4.15,0-7.95.15-12.65.5h-.05c-.9,0-2.45-1.85-2.45-2.45,5.55.6,11.2.7,15.4.7v-4.3h-2.5c-3.95,0-10.9.1-16.05.5h-.05c-.9,0-2.35-1.9-2.35-2.5,5.95.6,14.55.7,18.5.7h2.45v-3.85h-.25c-2.2,0-8.5.05-12.5.45h-.05c-.95,0-2.35-1.75-2.35-2.35,4.6.55,12.65.65,15.15.65v-4.2h-8.55v.55c0,1.2-1.3,1.7-2.2,1.7-.85,0-1.6-.45-1.6-1.4v-.25c.2-1.5.3-4.35.3-5.25,0-.6,0-2.55-.35-4.15,0-.1-.05-.2-.05-.25,0-.1.05-.15.1-.15.4,0,3.35,1.2,4.75,2.15.05,0,.05.05.1.05h7.45c0-1.65-.05-3-.05-3.9h-3.3c-2.8,0-9.4.1-13.8.55h-.05c-.85,0-2.35-1.95-2.35-2.6,5.05.6,13.5.8,16.4.8h3.05c-.05-1.65-.1-3.9-.5-5.45-.05-.2-.05-.3-.05-.4s0-.15.15-.15c.3,0,6,.75,6,1.75,0,.4-.45.75-1.05,1-.7.25-.75.65-.85,1.95,0,.25-.05.7-.05,1.3h9.95c.35,0,.65-.2.8-.45.6-.85,1.65-2.4,2.5-3.1.1-.1.3-.15.5-.15.1,0,.2,0,.3.05,1.8.65,4.6,3.5,4.6,4.3,0,.3-.25.6-1.1.6h-17.55c0,1.05-.05,2.4-.05,3.9h7.35c.25,0,.45-.05.65-.3,1.1-1.5,1.45-1.5,1.65-1.5.45,0,4.05,1.75,4.05,2.9,0,.4-.45.7-1,1.05-.95.6-.85.2-.9,1.15,0,.8.2,2.8.25,3.75v.1c0,1-1.15,1.55-2.15,1.55-.8,0-1.55-.35-1.55-1.2v-.05l.05-.45h-8.4v4.2h7.8c.25,0,.45-.05.65-.3.35-.4.7-.95,1.05-1.25.2-.15.35-.3.6-.3.75,0,4.15,2,4.15,3,0,.45-.45.8-1.05,1.2-.95.6-.8.55-.9,1.7,0,.25-.05.6-.05,1.05h1.2c.2,0,.6-.15.75-.4.9-1.7,2.05-3.2,2.5-3.2.65,0,4.35,3,4.35,4.25,0,.35-.25.65-1.15.65h-7.6Zm-23.45-16.3c-.65.35-.85.55-.9,1.5v2.95h8.6c0-1.6-.05-3.1-.05-4.45h-7.65Zm11.15,0v4.45h8.4c.05-.7.05-1.45.05-2.1s0-1.25-.05-1.7c0-.4-.2-.65-.65-.65h-7.75Zm0,11.15v3.85h8.85c0-1.45-.05-2.65-.05-3.2,0-.4-.25-.65-.7-.65h-8.1Zm0,5.15c0,1.65.05,3.15.05,4.3h8.75c0-1.3.05-2.85.05-4.3h-8.85Z" fill="#fff"/>
      <path d="m364.7,22.15c0,.45-3.8,1.5-5.15,2.7-.3.25-.55.35-.85.35-.95,0-5.25-1.6-9.1-5.15-5.8,4.8-13.4,5.55-13.45,5.55-.3,0-.45-.1-.45-.15,0-.15.3-.35,1.05-.6,4.6-1.45,8.25-3.9,10.9-6.8-1.75-2.05-3.1-4.45-3.85-7.1-1.4,1.8-2.9,3.6-4.45,4.85.85.65,2.4,2.1,2.4,2.9,0,.65-.65,1.1-2,1.15-1.5.1-3.7,2.6-5.3,3.55-.15.1-.3.15-.35.15s-.05,0-.05-.05c0-.1,0-.2.1-.4.65-1.35,1.8-3.8,1.85-4.65,0-.4-.05-.5-.25-.5h-3.15c.65.15,1.1.25,1.1.65,0,.25-.25.5-.7.7q-.75.35-.75,7.1c0,2.95.05,6.15.15,8.35.05,1.25.2,4.1.2,5v.1c0,3.9-4.6,4.7-5.35,4.7-.45,0-.8-.2-1.05-.75-.7-1.35-4.7-3.15-4.7-3.55,0-.05.05-.05.2-.05.1,0,.25,0,.5.05,1.8.3,3.35.5,4.5.5,1.45,0,2.3-.35,2.35-1.45.1-2.9.15-6.65.15-10.1v-3.35c-3.9,7-10.7,11.65-11.85,11.65-.05,0-.1,0-.1-.05,0-.15.25-.45.8-.95,3.55-3.15,9.75-12.55,10.95-17.85,0-.25,0-.5-.05-.7-2.05.05-4.7.15-7.4.5h-.05c-.75,0-2.15-1.8-2.15-2.5,4,.65,9,.75,11.2.75h5.1c.2,0,.55-.15.75-.35.2-.25,1.2-1.25,1.75-1.25.05,0,.15,0,.2.05.15.05.3.15.45.25,2.05-2.75,5.7-10.1,6-13.8.05-.4.05-.55.2-.55.5,0,4.95,1.5,4.95,2.45,0,.35-.4.7-1.25.85-.55.1-.6.2-.9.7-.6,1-1.35,2.2-2.25,3.5h9.5c.15,0,.4-.15.55-.4.4-.6,1.85-2.75,2.35-2.75s4.15,2.6,4.15,3.8c0,.25-.2.5-.95.5h-6.4c2.3.9,2.6,1.05,2.6,1.55,0,.35-.4.65-.95.65h-.1c-.4,0-.7.1-.95.65-1.05,2.05-2.2,3.9-3.6,5.45,3.15,2,7.3,3.45,12.5,4,.3.05.45.1.45.15Zm-24.85-16.1c0,.55-.65.85-1.55,1.05-.55.1-1.05.25-1.9.8-1,.65-2.8,2.15-4.5,3.3l.45.3c.9.7,1.3,1.55,1.3,2.3,0,1.1-.75,2-1.75,2-.65,0-1.45-.4-2.15-1.4-1.4-1.9-3.25-3.2-4.45-3.95-.25-.15-.35-.25-.35-.35,0-.15.45-.15.95-.15,1.35,0,3.45.2,5.1.85,1.1-1.85,2.45-4.15,2.6-4.8.05-.1.05-.2.05-.3s-.05-.2-.35-.2h-2.7c-1.45,0-5.4.05-7.7.4h-.05c-.6,0-2.05-1.85-2.05-2.4,3.65.65,8.4.7,9.9.7h2.6c.35,0,.6-.1.85-.35.3-.25.9-.9,1.2-1.15.15-.15.3-.2.4-.2.4,0,4.1,2.2,4.1,3.55Zm20.7,24.45c0,.4-.3.75-1.1,1.05-.8.3-.95.45-1,1.25-.7,8.5-4.2,11.8-8.7,11.8-1.2,0-1.5-.2-1.7-.7-.45-1.2-3.4-3-4.55-3.85-4.55,4.15-11.1,5.3-12.3,5.3-.25,0-.4-.05-.4-.15,0-.15.5-.45,1.15-.65,7.05-2.1,11.75-7.45,13.6-14.05-2.05.05-4.4.2-7.3.5h-.05c-.9,0-2.4-1.95-2.4-2.55,3.75.55,7.4.7,10.1.75.45-1.9.5-4.05.5-4.8,0-.5,0-.95-.05-1.4v-.2q0-.1.1-.1c.45,0,5.5.75,5.5,1.8,0,.3-.35.6-.9.8-.95.3-.9.3-1.1,1.45-.15.85-.3,1.65-.5,2.45h5.15c.4,0,.55-.2.7-.4,1.15-1.3,1.3-1.3,1.35-1.3.85,0,3.9,2.05,3.9,3Zm-5.95-.05h-5.45c-1.1,3.8-2.85,6.9-5.35,9.3,2.35.6,4.3,1.2,5.9,1.2s2.95-.6,3.9-2.45c1-1.9,1.55-5.05,1.65-7.3,0-.45-.1-.75-.65-.75Zm-9.9-20.75l-.15.25c1,2.25,2.6,4.35,4.7,6.2,2-2.75,2.75-4.95,3-6.45h-7.55Z" fill="#fff"/>
      <path d="m391.15,5.55c-9.35,14.55-22.3,20-23.7,20-.1,0-.15-.05-.15-.1,0-.1.25-.35.9-.75,7.15-4.6,13.9-12.2,18.5-20.5.55-.95.95-2.6,1.15-3.6.05-.25,0-.35.15-.35.25,0,6.25,2.2,6.25,3.4,0,.35-.5.7-1.5.9-.1,0-.15.05-.25.05,4.1,5.05,12.7,12.7,22.5,15.15.25.05.35.15.35.2,0,.45-4.4,1.15-5.95,2.7-.2.2-.45.3-.7.3-1.75,0-11.75-7.4-17.05-18l-.5.6Zm-.25,23c.25.15.4.3.4.45,0,.3-.5.65-1.05.8-.45.15-.8.55-1.05,1.05-1.25,2.35-3.35,6.25-5,8.7,5.9-.45,11.6-1.15,15.75-1.8-1.5-1.7-3.15-3.35-4.8-4.8-.3-.25-.5-.45-.5-.55,0-.05.05-.1.1-.1.3,0,13.1,4.25,13.1,9.5,0,1.45-.95,2.55-2.1,2.55-.8,0-1.7-.55-2.45-1.9-.65-1.2-1.5-2.45-2.45-3.65-6.1,1.95-17,4.2-23.2,5.35-.7.15-1.05.8-1.55.8-.85,0-3.6-4.85-3.6-5.3,0-.1.05-.1.1-.1.1,0,.2,0,.4.05,1.6.2,3.15.3,4.15.3.45,0,1.4,0,5.45-.25.45-1.5,2.35-9,2.35-11.1-3.3.05-7.7.25-10.85.55h-.05c-.9,0-2.4-1.95-2.4-2.6,5.05.6,13.95.8,16.8.8h12.1c.3,0,.65-.2.8-.45.35-.6,2.2-3.4,3-3.4.1,0,.2,0,.3.05,2.15.8,4.75,3.7,4.75,4.45,0,.3-.2.6-1.05.6h-17.45Zm-.15-8.05c-1.65,0-5.5.15-8.2.45h-.05c-.65,0-2.1-1.75-2.1-2.4,3.35.5,8.7.7,10.45.7h1.75c.1,0,.45-.15.6-.4,0,0,1.85-3.2,2.5-3.2.1,0,.2,0,.25.05,1.2.55,4.25,3.15,4.25,4.2,0,.3-.2.6-.95.6h-8.5Z" fill="#fff"/>
      <path d="m428.55,11.8c-2,0-4.9.05-8.05.45h-.05c-.65,0-2.1-1.85-2.1-2.4,3.8.55,8.2.7,10.3.7h5.8c.15,0,.45-.15.6-.4.15-.25,1.7-2.85,2.45-2.85.9,0,4.3,2.85,4.3,4,0,.25-.25.5-1,.5h-12.25Zm9.3,30.05c0,1.1-1.2,1.8-2.25,1.8-.85,0-1.65-.45-1.65-1.45v-1.15h-8.25c0,.75.05,1.55.05,2.3,0,.85-1.05,1.75-2.35,1.75-.85,0-1.65-.45-1.65-1.45v-.15c.4-4.65.4-7.05.4-9.5,0-.65-.2-4.3-.6-6.05,0-.1-.05-.2-.05-.25,0-.1.05-.15.1-.15.35,0,3.7,1.3,5.1,2.25h6.25c.2,0,.45-.1.65-.4.3-.4.8-1.15,1.15-1.4.1-.1.25-.2.4-.2.45,0,4.3,1.85,4.3,3,0,.45-.4.75-1,1.15-1,.65-1,.75-1,2.5,0,1.85.2,4.25.4,7.3v.1Zm-8.95-36.9c-1.5,0-2.95.1-5.3.45h-.05c-.7,0-1.9-1.65-1.9-2.4,2.95.55,5.75.7,7.35.7h2.7c.1,0,.4-.15.55-.4.45-.85,1.4-2.05,1.9-2.55.15-.1.3-.15.45-.15.05,0,.15,0,.2.05,1.45.6,3.65,2.75,3.65,3.65,0,.35-.2.65-.95.65h-8.6Zm0,13.1c-1.5,0-2.95.05-5.3.45h-.05c-.6,0-1.9-1.55-1.9-2.4,2.95.55,5.75.7,7.35.7h2.8c.1,0,.45-.15.6-.4.3-.55,1.5-2.55,2.3-2.55.05,0,.15,0,.2.05.75.3,3.55,2.45,3.55,3.45,0,.35-.2.7-.95.7h-8.6Zm0,6.55c-1.5,0-2.95.05-5.3.45h-.05c-.6,0-1.9-1.65-1.9-2.4,2.95.55,5.75.7,7.35.7h2.8c.1,0,.45-.15.6-.4.45-.85,1.75-2.5,2.3-2.5.1,0,.2,0,.25.05.5.2,3.5,2.2,3.5,3.45,0,.35-.2.65-.95.65h-8.6Zm5.05,15.15c.05-2.05.1-3.7.1-5.2,0-.95-.05-1.85-.1-2.8,0-.3-.15-.65-.5-.65h-6.8l-.4.3c-.55.35-.6.45-.6,5.45,0,.95.05,1.95.05,2.9h8.25Zm19,3.55c0,1.15-1.3,1.95-2.5,1.95-.95,0-1.75-.45-1.75-1.6v-.2c.35-5.45.5-15.4.5-23.9-2,0-5.3.1-8.25.5h-.05c-.6,0-2.1-1.9-2.1-2.45,3.5.55,8.15.7,10.4.7,0-10.45-.3-15.3-.65-16.9-.05-.15-.05-.25-.05-.3,0-.1.05-.15.15-.15,0,0,6.25.6,6.25,2,0,.35-.45.75-1.05,1.1-.7.4-.9.45-1,1.7-.15,1.75-.2,6.65-.2,12.55h3.9c.15,0,.5-.15.65-.4.55-.85,1.7-2.45,2.3-2.95.1-.1.25-.15.4-.15.95,0,4.45,3.2,4.45,4.15,0,.3-.2.6-.95.6h-10.75c0,8.2.15,17.95.3,23.7v.05Z" fill="#fff"/>
      <path d="m473.45,5.9c1.85,0,5.8,4.3,5.8,8.05,0,1.85-.9,3.4-1.9,5.85-1.35,3.3-2.7,6.9-2.7,10.1,0,.65.15,2.9.6,2.9.15,0,.3-.2.55-.7,1.1-2.55,4.75-9.9,5.5-9.9.1,0,.1.05.1.15,0,.25-.1.7-.4,1.35-1.7,3.8-3.85,10.55-3.85,14.4,0,.8.1,1.55.35,2.2.25.55.35,1.05.35,1.5,0,1.15-.7,1.9-1.55,1.9-2.65,0-4.05-5.85-4.05-10.65,0-5.1,1.55-9.65,2.7-14.4.4-1.7.75-3.25.75-4.85,0-2.1-.6-4.25-2.5-6.85-.25-.3-.45-.55-.45-.75,0,0,.2-.3.7-.3Zm27.25,14.2c0,3.9.25,7.5.4,10.4.05.8.1,1.7.1,2.6,4.4,1.35,7.8,4.15,7.8,6.25,0,1.2-.8,2.2-1.75,2.2-.6,0-1.3-.4-1.95-1.5-1.05-1.75-2.7-3.2-4.25-4.1-.85,4.35-4.4,7-8.05,7-3.45,0-6.85-2.45-6.85-5.45,0-2.8,3.5-5.3,9.4-5.3.9,0,1.85.05,2.8.2.05-.8.05-1.5.05-2.15-.05-2.15-.15-6.85-.2-11.45l-.4.1c-.65.1-1.25.15-1.9.15-5.85,0-8.2-4.45-8.2-5.05,0-.1.05-.15.15-.15.2,0,.65.15,1.25.35,1.1.4,2.7,1.15,3.75,1.45,1.05.3,2.1.45,3.15.45.55,0,1.45-.05,2.2-.2v-3.05c0-4.55-.3-4.8-2-5.25-.55-.15-.95-.25-.95-.55,0-.45,1.2-1.75,2.5-1.75s3.8,1.95,3.8,3.8c0,.4-.05.85-.15,1.35.4.15,4.15,1.35,4.75,1.45.8.15,1.35.75,1.35,1.65,0,1.45-1.4,3.35-6.8,4.7v1.85Zm-7.05,14.15c-3.45,0-5.9,1.5-5.9,3.05s2.1,2.55,4.3,2.55c2.95,0,5.45-1.8,6.05-4.9-1.4-.45-2.95-.7-4.45-.7Zm7.2-18.95c2.75-.85,3-1.6,3-2.1,0-.6-.55-1.25-2.55-2.3,0,.1-.15.55-.45,4.4Z" fill="#fff"/>
      <path d="m521.55,43.7c-1.45-2.8-3.85-4.85-6-6.45-.5-.4-.95-.7-.95-.85,0-.05.15-.1.4-.1,1.95,0,11.25,1.85,11.25,6.5,0,1.5-1.1,2.65-2.35,2.65-.85,0-1.7-.5-2.35-1.75Z" fill="#fff"/>
      <path d="m75.5,109.45c0,3.7-1.55,4.15-2.2,4.15s-1.25-.5-1.7-1.3c-.7-1.2-2.35-2-4.1-2.5-2,1.3-3.5,1.85-4.9,1.85-1.25,0-1.75-.6-1.75-1.4,0-.9,1.3-3.1,2.3-3.1.15,0,.35.05.55.15.15.05.3.2.6.2.55,0,1.95-.45,8.85-4.75.05-.9.05-1.85.05-2.75,0-2.2-.1-4.4-.15-6.45-2.4,1.15-4.2,1.55-5.95,1.55-1.15,0-4.5-.25-4.5-3.55,0-.3.1-.4.25-.4.2,0,.45.1.8.25.65.25,1.95.55,3.55.55,2,0,3.2-.35,5.7-1.5-.4-5.75-.7-7.25-2.8-7.25-.9,0-1.25-.2-1.25-.5,0-.7,1-1.75,2.5-1.75,1.35,0,4.05,1.05,4.05,3.55,0,.3,0,.65-.05,1.05,1.1.3,2.3.55,3.25.55h.35c1.1,0,1.65.65,1.65,1.45,0,1.6-1.35,2.75-5.4,4.9,0,2.9.1,5.95.15,8.9,3.85-2.3,7.9-4.3,12.3-4.3,6,0,8.35,2.95,8.35,5.95,0,5.1-6.1,8.95-10.65,8.95-3.2,0-5.25-1.85-5.25-5.05,0-2.8,1.9-6.5,2.3-6.5.1,0,.1.1.1.25,0,.3-.05.85-.3,1.7s-.35,1.65-.35,2.4c0,2.2,1.1,3.8,3.6,3.8,3,0,7.3-2.3,7.3-6.05,0-2.75-2.95-4.05-5.9-4.05-4.1,0-7.9,2.55-11.45,5.4l.1,5.3v.3Zm-7.15-.2c1.3.2,2.25.3,2.9.3,1.35,0,1.55-.4,1.6-1.05.1-1.05.15-2.1.2-3.15-1.65,1.4-3.2,2.8-4.7,3.9Zm6.9-20.05c.55-.3,1.75-1,1.75-1.6,0-.4-.7-.95-1.65-1.45-.05.5-.1,1.15-.1,1.9v1.15Zm21.3,2.7c-.95.25-2.15.45-3.25,1.1-.4.25-.75.4-1,.4-.1,0-.15-.05-.15-.15s.2-.4.6-.8c.5-.5,1.55-1.9,1.55-3s-1.6-1.35-2.45-1.35c-1.2,0-2.35.35-3.3,1.1-.65.5-1.15.75-1.4.75-.1,0-.15-.05-.15-.15,0-.5,2.5-4.1,6.95-4.1,3.15,0,6.2,1.8,6.2,4.05,0,.7-.4,1.2-1.05,1.5-.85.4-1.1.3-2.55.65Z" fill="#fff"/>
      <path d="m152.6,100.55c0,.3-4.6,1.45-6.05,3.25-.25.35-.55.45-1,.45-.75,0-9.6-1.55-16.9-7.4-3.05,2.15-6.3,3.95-9.5,5.35,1,.4,2.15.95,2.8,1.4l.1.1h12.65c.2,0,.4-.15.6-.4.85-1.1,1.2-1.35,1.55-1.35.2,0,4.15,1.65,4.15,2.95,0,.35-.35.65-.9,1-.95.55-.95.8-.95,2.3,0,1.75.15,4.45.3,6.9v.15c0,1.2-1.3,1.75-2.2,1.75s-1.7-.45-1.7-1.5v-.05c0-.55.05-1.1.05-1.6h-14.6v1.7c0,.95-1.05,1.7-2.3,1.7-.9,0-1.7-.4-1.7-1.35v-.25c.3-2.55.35-6.85.35-9.3,0-.5,0-1.9-.2-3.3-6.65,2.55-11.4,2.9-11.8,2.9-.35,0-.55-.05-.55-.15,0-.15.7-.5,2.05-.85,5.95-1.65,13-5.05,19.35-10.25-1.7-1.75-3.15-3.7-4.05-5.8-7.4,8.2-15.05,11.55-16.05,11.55-.1,0-.15,0-.15-.05,0-.15.35-.45,1-.9,5.05-3.25,11.45-10.45,15.1-16.25.5-.75.7-1.5.9-2.3.05-.25.1-.35.2-.35.4,0,5.1,1.95,5.1,2.95,0,.35-.5.6-1.55.6-.65,0-.85.15-1.3.75-.35.5-.7,1-1.1,1.5h8.9c.4,0,.65-.2.85-.35.45-.35.75-.8,1.15-1.1.2-.15.3-.2.45-.2.8,0,4.05,2.15,4.05,3.15,0,.4-.4.7-1.2.95-.8.2-1.35.25-1.9.9-1.8,2-3.75,3.85-5.8,5.5,5.45,3.15,12.75,5.2,20.75,5.2h.6c.3,0,.45.05.45.1Zm-3.55-19c0,.65-.65,1.2-2.15,1.25-2.25.1-5.1,2.1-7.3,3.15-.2.1-.35.15-.4.15q-.1,0-.1-.1s.05-.15.15-.35c1.95-2.9,2.7-4.6,2.7-4.9,0-.15-.1-.2-.25-.2h-27.15c-.35,3.8-2.65,6.65-5.1,6.65-1.25,0-2.15-.85-2.15-1.95,0-.75.45-1.65,1.5-2.5,2.8-2.2,4.05-3.75,4.5-6.55.1-.5.2-.75.3-.75,0,0,.8.9.95,3.85h11.85c0-.5-.05-1.05-.05-1.5-.05-1.7-.2-3.8-.55-5.2-.05-.15-.1-.3-.1-.35,0-.1.05-.1.2-.1.75,0,6.55.85,6.55,1.95,0,.35-.4.75-1.15,1.15-.9.5-.95.5-1.05,1.7l-.15,2.35h11.7c.15,0,.55-.2.75-.4.35-.35,1-1.05,1.4-1.3.15-.1.3-.15.4-.15.95,0,4.7,2.8,4.7,4.1Zm-13.4,27.85c0-1.35-.05-2.65-.1-3.8,0-.3-.2-.55-.6-.55h-13.1l-.35.25c-.35.2-.6.35-.6,3.5,0,1.1,0,2.45.05,3.75h14.65c0-1.1.05-2.15.05-3.15Zm-2.65-21.5c0-.15-.15-.25-.45-.25h-9.3c-.15.15-.2.3-.35.45,1.2,1.9,2.85,3.65,4.95,5.2,2.95-2.6,5.15-5.25,5.15-5.4Z" fill="#fff"/>
      <path d="m201.95,111.8c0,.5-4.15.8-5.25,2-.2.25-.5.35-.75.35-.8,0-6.25-4.8-9.45-17.6,0,4.75.05,9.6.1,11.55.05,1.05.2,2.5.2,3.65v.1c0,5.15-5.35,5.4-5.4,5.4-.5,0-.8-.25-1-.85-.65-1.65-4.75-3.4-4.75-3.75,0-.05.05-.05.2-.05.1,0,.3,0,.55.05,2.05.3,3.45.5,4.5.5,1.75,0,2.25-.55,2.35-1.9.05-1.2.1-3.95.1-7.3-2.9,3.15-7,6.8-9.15,8.7-.35.3-.3,1.05-.8,1.05-.8,0-4.05-2.8-4.05-3.2,0-.15.15-.2.4-.25,2.8-.75,10.25-5.1,13.6-7.4v-8.3c-2.35,0-5.3.1-8.95.45h-.05c-.45,0-1.05-.55-1.55-1.1.15.35.2.65.2.95,0,1.1-.8,2-1.75,2-.6,0-1.3-.35-1.85-1.25-.75-1.2-1.6-2.65-2.7-3.5.05,8,.15,17.25.35,23.2v.05c0,1.2-1.2,2.05-2.4,2.05-.9,0-1.7-.55-1.7-1.75v-.15c.25-5.3.4-12.85.5-20-3.9,6.75-9.35,9.2-9.55,9.2-.05,0-.1-.05-.1-.1,0-.15.25-.5.8-1,3.65-3.5,8.25-12.15,8.9-16.25v-.65c-1.5.05-3.05.15-5.45.45h-.05c-.6,0-2-1.85-2-2.4,2.95.45,5.55.6,7.5.65,0-2.3-.2-9.95-.6-12.05-.05-.15-.05-.25-.05-.35s.05-.15.1-.15c.1,0,6,.9,6,2.05,0,.3-.35.7-.95,1-.75.4-1,.4-1.1,1.65-.1,1.5-.15,4.35-.2,7.9h.55c.15,0,.5-.15.65-.4.5-.9,1.1-1.75,1.8-2.55.1-.1.25-.15.4-.15,1.1,0,3.65,3.05,3.65,3.75,0,.3-.2.6-.95.6h-6.1v4.65h.3c1.7,0,4.1.4,5.3,1.75-.1-.2-.2-.4-.2-.55,4.05.5,8.45.7,11.2.75v-4.7c-1.8,0-3.3.1-6.5.45h-.05c-.85,0-2.3-1.85-2.3-2.4,3.7.45,6.5.65,8.8.7v-.7c-.05-.95-.05-2.8-.2-3.9-2.05,0-4.05.1-7.5.45h-.05c-.9,0-2.3-1.8-2.3-2.4,4.55.6,8.45.7,11,.7h1.9c.65-1.25,2.7-5.5,3.05-8.45.05-.4,0-.5.2-.5.65,0,5.35,2.55,5.35,3.35,0,.35-.45.65-1.5.65-.75,0-.75.2-1.2.65-1.05,1.05-2.7,2.7-4.5,4.3h3.75c.35,0,.65-.15.8-.4,1-1.6,1.9-2.65,2.45-2.65,1.3,0,4.15,2.65,4.15,3.7,0,.3-.25.6-1,.6h-9.85c.3.15.5.35.5.55,0,.3-.3.55-.85.8-.6.25-.9.45-.9,3.25h2.35c.35,0,.6-.15.75-.4,1-1.35,1.85-2.3,2.3-2.3.7,0,2.95,1.35,3.85,2.85.1.1.15.3.15.45,0,.3-.25.65-1,.65h-8.4c-.05,1.35-.05,2.95-.05,4.7h5.25c.4,0,.7-.2.85-.45.65-1,2.1-2.85,2.6-2.85,1.3,0,4.45,2.9,4.45,3.9,0,.3-.2.65-1,.65h-11.9c.85,2.65,2,5.2,3.55,7.55,2.1-1.7,4.3-4.5,4.65-5.4.1-.25.1-.35.2-.35.3,0,4.15,3,4.15,4.2,0,.4-.35.6-.9.6-.2,0-.5,0-.8-.1-.2-.05-.45-.1-.65-.1s-.4.05-.6.1c-1.1.4-3.2,1.35-5.4,2,2.7,3.8,6.3,6.9,10.6,8.5.25.1.4.2.4.25Zm-21.5-10.2c0,1.15-.85,2.1-1.85,2.1-.7,0-1.45-.4-2.05-1.45-.8-1.35-2.4-3.1-3.75-4.15-.35-.25-.5-.4-.5-.5s.25-.1.75-.1h.2c1.9,0,7.2.7,7.2,4.1Zm2.95-23.75c0,1.3-1,2.25-2.1,2.25-.75,0-1.55-.5-2.05-1.7-.45-1.15-1.8-3-2.85-4.05-.25-.25-.4-.45-.4-.55s.1-.15.3-.15c1.4,0,7.1,1,7.1,4.2Z" fill="#fff"/>
      <path d="m223.05,101.85c-4,2.5-5.6,5-5.6,6.95s2.05,4.3,6.25,4.3c1.85,0,3.95-.45,5.75-1.4.6-.3,1.15-.45,1.65-.45,1.25,0,2.1.8,2.1,1.75,0,2.3-4.45,3.6-8.05,3.6-5.4,0-9.8-3.25-9.8-7.05,0-3.1,2.8-6.6,7.75-9.55,0-3.1-.4-7.4-3.2-7.4-1.2,0-2.7.95-4.45,3.3l-1.5,2.8c-1.05,1.9-2.25,3.9-3.65,3.9-.2,0-1.5-.05-1.5-1.8,0-1,.5-2.45,2.05-3.85,4.6-4.15,6.1-6.85,8.3-11.8l.1-.2-.05.05c-1,.25-1.9.4-2.75.4-4.85,0-6.2-3.4-6.2-4.75,0-.2.05-.25.15-.25.25,0,.6.2,1.25.65,1.5,1.05,2.9,1.35,4.2,1.35,1.5,0,3.05-.35,4.4-.8.1-.55.1-1.05.1-1.4,0-1.15-.2-2.5-1.9-2.9-.45-.1-.9-.25-.9-.5,0-.15.75-1.25,2.45-1.25,1.3,0,2.35.4,2.85,2.3h.4c.95.05,1.7.15,2.3.15.25,0,.45-.05.65-.1.3-.15.6-.2.85-.2,1.25,0,1.25,1.15,1.25,1.35,0,2.65-5,4.6-6.75,5.2l-.1.25c-1.7,3.7-2.75,5.6-3.85,7.55.95-.5,1.85-.7,2.7-.7,2.6,0,4.5,2.15,5.2,5.2,1.45-3.65,5.3-10.65,11.05-10.65,2.75,0,6.2,1.85,6.2,4.4,0,1.95-2.1,3.95-5.5,5.25-3.5,1.3-7.8,3-11.2,4.65.15,1.15.2,2.35.2,3.55,0,.6,0,1.25-.05,1.85-.15,1.95-1.5,3.25-2.6,3.25-.75,0-1.4-.65-1.4-2.3,0-.15.05-.4.05-.6.1-1.25.75-1.75.8-3.4v-.7Zm-.1-23.55c.05.2.05.4.05.6,0,.55-.1,1.1-.2,1.7,1.15-.55,1.75-.85,1.75-1.45,0-.25-.2-.5-1.45-.8l-.15-.05Zm12.7,15.1c2.2-1.2,3.2-2.4,3.2-3.5s-.95-2.45-2.9-2.45c-4.6,0-8.8,7.05-10.15,11.05,3.05-1.6,6.95-3.5,9.85-5.1Z" fill="#fff"/>
      <path d="m294.55,113.15c0,.4-4.55,1.85-5.9,3.25-.25.3-.55.45-.85.45-2.65,0-12.3-4.95-15.45-15.15-3.8,15.65-22.4,15.8-22.9,15.8-.55,0-.8-.1-.8-.2,0-.15.4-.35,1.1-.45,9.3-1.6,17.2-7.3,19.05-16.05h-2.65c-2.7,0-9.05.1-13.35.55h-.05c-.9,0-2.4-1.95-2.4-2.55,4.95.6,13.25.8,16.05.8h2.6c.15-.95.2-1.9.2-2.9,0-1.2,0-2.25-.15-3.45-3,.15-6.1.25-9.05.25-5.85,0-6-.25-6-.55,0-.15.3-.3,1.05-.35,6.35-.3,17.4-1.65,23.35-3.3,1.05-.3,1.85-.75,2.4-1.05l.15-.1c-.3-.25-.55-.6-.75-1.1-.6-1.35-1.7-2.9-2.7-3.9-.25-.25-.35-.4-.35-.5s.1-.15.35-.15c.95,0,6.8.85,6.8,4.05,0,1.2-.95,2.1-2,2.15.95.95,2.45,2.45,2.45,3.25,0,.35-.3.5-.75.5-.3,0-.7-.05-1.05-.2-.25-.1-.55-.15-.85-.15h-.2c-2.25.3-5.25.65-8.55.9.15.05,1.3.3,1.3.75,0,.25-.3.55-.85.75-.65.3-.75.25-.8,1.75-.05.95-.05,1.9-.15,2.65,0,.25-.05.5-.1.7h11c.3,0,.65-.2.8-.45,2.3-3.25,2.65-3.35,2.95-3.35,1.15,0,4.95,3.35,4.95,4.4,0,.3-.2.6-1.05.6h-18.5c3.1,5.65,10.25,11.75,21.25,12.2.25,0,.4.05.4.15Zm-23.45-32.2c0,.3-.2.55-.95.55h-12c-4.05,5-7.9,7.8-8.7,7.8-.1,0-.1-.05-.1-.1,0-.1.15-.4.55-.8,3.25-3.35,7.95-11.25,8.45-15.4v-.3c0-.15,0-.2.15-.2.5,0,5.7,2.05,5.7,3.15,0,.45-.65.7-1.65.75-.65.05-.8.15-1.25.8-.65,1-1.4,2.05-2.2,3.1h5.15c.2,0,.5-.15.65-.4.45-.8,1.75-2.7,2.3-2.7.9,0,3.9,2.65,3.9,3.75Zm-5.35,5.9c0,1.25-1,2.25-2.05,2.25-.8,0-1.6-.5-2.1-1.75-.55-1.4-1.7-3-2.7-4.05-.25-.25-.4-.4-.4-.55,0-.05.1-.1.4-.1,2.1,0,6.85,1.35,6.85,4.2Zm26.2-5.9c0,.3-.25.55-1,.55h-16.3c-4.7,6.15-7.45,7.4-7.8,7.4-.05,0-.1-.05-.1-.1,0-.1.15-.35.5-.7,2.15-2.3,7.2-11.2,7.5-14.9.05-.45,0-.6.2-.6.4,0,5.6,1.95,5.6,3.1,0,.4-.6.65-1.55.7-.6.05-.65,0-1.1.65l-2.35,3.25h8.5c.2,0,.5-.15.65-.4,2.1-2.95,2.4-3.1,2.7-3.1.55,0,4.55,2.7,4.55,4.15Z" fill="#fff"/>
      <path d="m322.05,91.15c0,.3-.2.55-.9.55h-15.05l-.35.25c-.45.3-.6.4-.6,1.05v1.15c.05,1.05.05,2.2.05,3.35,0,.85,0,1.75-.05,2.6,4.75-2.35,8.05-5.7,8.7-7.7.05-.15.1-.3.2-.3.3,0,3.35,2.2,3.35,3.15,0,.3-.2.5-.7.5-.15,0-.35,0-.55-.05-.15-.05-.3-.05-.4-.05-.2,0-.3.1-.55.3-2.7,2.4-6.7,4.25-10.1,4.9-.15,2.05-.45,4.15-1,6.15,4.25-1.7,10.8-6.25,11.9-9.5.05-.15.1-.3.2-.3.05,0,.15,0,.25.1.9.5,3.2,2.45,3.2,3.15,0,.35-.2.55-.7.55-.15,0-.3,0-.5-.05-.2-.05-.3-.05-.45-.05-.25,0-.35.1-.65.35-3.55,3.2-8.6,5.75-13.45,6.45-1.9,5.95-6.05,9.05-6.75,9.05-.05,0-.1-.05-.1-.1,0-.1.2-.4.65-.95,3.55-4.15,4.25-10.6,4.25-16.2,0-3.05-.2-8.75-.75-10.8-.05-.15-.05-.25-.05-.3q0-.1.1-.1c1.2,0,4.35,1.75,4.8,2.05l.15.1h5.1c1.15-2.5,2.4-6.6,2.4-8.7,0-.1,0-.15.1-.15.5,0,4.7,1.95,4.7,2.8,0,.35-.4.6-1.25.65-.65,0-.65.2-1,.65-.9,1.15-2.4,3.05-3.95,4.75h3.5c.15,0,.45-.15.6-.4.45-.85,1.15-1.7,1.65-2.25.1-.1.2-.15.35-.15.05,0,.15,0,.2.05,1.35.65,3.45,2.45,3.45,3.45Zm-.85-10.75c0,.3-.2.6-.9.6h-9.7c-2.25,0-5.1.05-8.7.45h-.05c-.75,0-1.9-1.85-1.9-2.4,3.2.45,6.45.65,8.85.7v-1c-.05-1.7-.1-3.8-.45-5.3-.05-.2-.05-.3-.05-.35s0-.1.1-.1c.4,0,5.7.65,5.7,1.8,0,.3-.4.65-1,1-.8.45-1,.55-1,3.95h2.7c.1,0,.45-.15.6-.4.2-.35,1.45-2.65,2.05-2.65.15,0,.25.05.3.05.9.4,3.45,2.6,3.45,3.65Zm.85,25.55c0,.35-.25.55-.75.55-.15,0-.3,0-.5-.05-.25-.05-.4-.1-.5-.1-.2,0-.3.1-.5.35-6.9,7.5-17.05,8.4-18.6,8.4-.45,0-.75-.05-.75-.2,0-.1.25-.2.8-.35,9.15-2.25,15.9-8.6,16.9-11.95.05-.15.05-.3.1-.3.15,0,3.8,2.55,3.8,3.65Zm-12.2-18.8c0,1.15-.85,2.05-1.75,2.05-.7,0-1.4-.5-1.8-1.75-.35-1.15-1.5-3.1-2.35-4.15-.25-.3-.4-.5-.4-.55s.05-.05.1-.05c1.2,0,6.2,1.35,6.2,4.45Zm22.3,24.25c0,.4-.4.6-1.15.6h-.8c-.4,0-.75.05-1.1.25-3.75,2.3-10.35,5.1-17.4,5.1-.55,0-.85,0-.85-.1s.5-.3,1.55-.55c4.3-1.05,13.5-5.2,15.15-8.8.1-.2.15-.35.3-.35.6,0,4.3,3.1,4.3,3.85Zm12.5-34.4c0,.3-.25.6-1.05.6h-10.25c1.1.35,1.65.7,1.65,1.05,0,.25-.35.55-1.15.75-.5.15-.65.4-.85.75-.65,1.1-1.5,2.5-2.35,3.6h5.25c.3,0,.55-.2.7-.4.7-1.05,1.25-1.5,1.55-1.5.6,0,4.1,1.95,4.1,3,0,.5-.5.85-1.15,1.2-.8.45-.9.75-.9,3.9,0,4.25.2,11.7.4,15.45v.1c0,1.25-1.1,2-2.1,2-.85,0-1.6-.55-1.6-1.7v-.5h-9.35v.85c0,1.35-1.4,1.8-2.2,1.8s-1.5-.45-1.5-1.5v-.2c.3-4.2.35-10.05.35-14,0-4.55-.05-7.7-.65-10.35-.05-.15-.05-.25-.05-.3,0-.1.05-.15.1-.15.35,0,3.6,1.25,4.9,2.2l.2.1h.45c.25-1.5.4-3.35.45-4.4v-1.75c-1.7.05-3.5.15-6.4.45h-.05c-.8,0-2.05-1.85-2.05-2.45,4.75.6,8.1.75,10.8.75h5.1c.2,0,.55-.2.7-.45.35-.6,1.9-3,2.55-3,1.2,0,4.4,3.15,4.4,4.1Zm-7.75,8.8c0-.45-.25-.7-.6-.7h-7.75c-.15.1-.3.25-.55.4-.55.35-.55.5-.55,5.05h9.55c0-2-.05-3.65-.1-4.75Zm-9.45,6.05v5h9.5c0-1.7.05-3.45.05-5h-9.55Zm0,6.25c0,2.05.05,4.1.05,5.9h9.4c0-1.8.05-3.85.05-5.9h-9.5Zm16.25,16c0,1.3-.95,2.3-2.05,2.3-.8,0-1.75-.55-2.45-1.95-1.35-2.7-3.35-4.6-5.3-6.2-.25-.15-.35-.3-.35-.4,0-.05.05-.1.2-.1,1.55,0,9.95,2.45,9.95,6.35Z" fill="#fff"/>
      <path d="m352.25,103.9c0-1.75.2-3.45.5-5.05.65-3.4,1.7-6.5,2.25-9.4.25-1.25.35-2.4.35-3.45,0-2.2-.45-3.85-.95-4.75-.3-.55-.7-1-.7-1.25s.25-.35,1-.35c1.55,0,4.15,2.2,4.15,5.9,0,1.65-.55,3.3-1.4,5.4-1.25,3.1-2.75,6.85-2.75,10.25,0,1.15.3,3.1.75,3.1.15,0,.35-.25.55-.75,1.25-2.65,4.65-9.3,5.2-9.3.05,0,.1.1.1.2,0,.2-.1.6-.35,1.2-.7,1.65-3.4,8.8-3.4,13.05,0,1.05.15,1.9.35,2.7.1.35.15.7.15,1,0,1.25-.75,2-1.6,2-3.4,0-4.2-8.05-4.2-10.5Zm30.6,3.4c1.95,0,3,.9,3,1.9,0,3.1-7.05,3.15-7.95,3.15-8.6,0-11.3-4.45-11.3-6.9,0-.35.05-.5.2-.5.25,0,.6.35,1.05,1,1,1.45,4.35,2.4,8.05,2.4,1,0,2-.05,3-.2,1.2-.2,2-.8,3.7-.85h.25Zm-7.65-17.8c-7.5,0-7.9-4.5-7.9-4.85,0-.15.05-.2.2-.2s.5.2.95.45c1.4.85,3.25,1.15,5.1,1.15,1.45,0,2.85-.2,4.15-.5.65-.15,1.2-.5,1.85-.6.35-.05.65-.1.95-.1,1.6,0,2.6.85,2.6,1.75,0,2.45-5.45,2.9-7.9,2.9Z" fill="#fff"/>
      <path d="m415.9,86.85c-4.45.55-8.85,1.75-12.5,3.3-1.05.45-2.35.85-3.75.85-2.95,0-5.5-1.65-5.5-4.1,0-.75.2-1.05.5-1.05.25,0,.65.25,1.1.7.6.6,2.65.6,3.1.6.95,0,1.85-.1,2.65-.2,4.55-.7,9.45-1.45,14.35-2.05,0-1.55-.05-3.15-.05-4.8,0-2.1-.8-2.65-1.95-3.4-.4-.25-.55-.45-.55-.6,0-.5.95-1.25,2.4-1.25s3.7.85,3.7,3.75c0,.6-.05,1.25-.2,1.95-.25,1.4-.5,2.75-.65,4.05,1.9-.2,3.8-.3,5.65-.4.6-.05.9-.15.9-.3,0-.1-.1-.2-.25-.3-.75-.5-3.9-2.55-3.9-2.85,0-.05.05-.1.15-.1.3,0,.95.2,1.35.4,2.35,1.15,5.1,2.05,6.9,2.3,2.5.4,5.95,1.1,5.95,3.4,0,.75-.65,1.4-1.8,1.4-.45,0-.95-.05-1.5-.25-3.05-.95-6.55-1.4-10.15-1.4-1.15,0-2.3.05-3.45.15-.1,1.65-.2,3.1-.2,4.45,0,1.7.15,3.15.2,4.2.95,1,1.95,2.55,1.95,5.45,0,9.95-11.1,16.4-14.45,16.4-.25,0-.35-.05-.35-.15,0-.2.55-.6,1.65-1.1,2.4-1.1,7.3-5.5,8.95-11.2-.9.75-1.9,1.05-2.7,1.05-1.85,0-2.7-1.5-3.75-3.75-.35-.75-.8-2-.8-3.7,0-3.3,2.15-5.1,4.75-5.1.75,0,1.55.2,2.35.5l-.1-6.85Zm.05,10.45c-.85-1.75-2.25-2.45-3.3-2.45-1.15,0-2.15.85-2.15,2.6,0,1.35.8,4.7,3.35,4.7,2.25,0,2.25-2.95,2.25-3.35s0-.8-.1-1.25l-.05-.25Z" fill="#fff"/>
      <path d="m453.1,96.15s.1-.05.25-.15c2.25-1.45,5.05-2.25,7.85-2.25,6.45,0,10.4,4.5,10.4,9.35s-4.6,11.4-13.8,11.4c-4.85,0-8.1-2.4-8.1-5.1,0-2.4,2.5-3.75,4.9-3.75,3.3,0,5.35,2.55,5.35,5.15,0,.4-.05.85-.15,1.25,5.8-1.4,8.05-5.4,8.05-8.9,0-3.95-2.8-7.5-7.85-7.5-1.75,0-7.55.45-10.9,7.55-1.2,2.6-2,4.15-3.7,4.15-.9,0-1.6-.7-1.6-1.7,0-1.45,1.85-3.6,4.15-6.25,3-3.45,10.05-12.95,12.15-16.4.25-.35.35-.7.35-.95,0-.35-.2-.85-1.25-.85-2.35,0-3.45,4.8-6.8,4.8-1.85,0-3.35-1.2-3.35-3.05,0-.55.1-1,.45-1,.25,0,.55.1.95.25.4.15.8.2,1.2.2.7,0,1.4-.2,2.05-.7,1.95-1.35,4.25-3,6.9-3,2.95,0,4.75,2.05,4.75,3.15,0,1-1.1,1.9-2.15,2.7-3.6,2.75-10.1,11.45-10.1,11.55v.05Zm3.85,14.45c0-1.75-1.35-3.25-3.2-3.25-2.2,0-2.25,1.65-2.25,1.9,0,.2,0,2.55,5,3.05.3-.55.45-1.15.45-1.7Z" fill="#fff"/>
    </g>
  </g>
</svg>