<?xml version="1.0" encoding="UTF-8"?>
<svg id="_レイヤー_2" data-name="レイヤー 2" xmlns="http://www.w3.org/2000/svg" viewBox="0 0 572.96 117.7">
  <g id="_デザイン" data-name="デザイン">
    <g>
      <path d="m110.6,25.6c-.65,0-.9-.35-.9-.75,0-.35.25-.7.6-.7h.2c4.4,0,7.85-2.9,7.85-7.75,0-3-1.25-9.25-7.8-9.25-3.05,0-3.1,1.1-3.1,6.95-.05,3.4-.1,7.6-.1,11.35,0,14.25.2,14.35,5.2,14.8.3.25.4.6.4.85,0,.35-.2.6-.5.6-.05,0-4.15-.35-8.35-.35-2.1,0-4.2.1-5.85.35h-.15c-.35,0-.5-.2-.5-.5,0-.35.2-.7.5-.95,4.35-.5,4.15-1.7,4.3-8.35.05-1.95.05-6.6.05-10.75,0-3.05,0-5.8-.05-7.05-.2-6.4-.45-6.4-4.45-6.85-.3-.2-.45-.5-.45-.8,0-.35.25-.7.6-.7,1.6.1,3,.15,4.35.15,2.6,0,4.9-.15,7.9-.3h.95c6.45,0,12.4,3,12.4,9.8,0,8.65-8.15,10.2-13.1,10.2Z" fill="#fff"/>
      <path d="m167.7,19.2c0,4.3.1,9.05.2,12.5.2,5.8-.05,7.85,4.4,8.5.3.2.45.45.45.75,0,.4-.3.75-.6.75,0,0-4.05-.35-8.1-.35-2.05,0-4.05.1-5.55.35h-.1c-.3,0-.45-.3-.45-.6,0-.35.15-.7.45-.9,4.1-.55,4.5-1.5,4.5-6.4v-1.2c-.05-2.5-.1-8.6-.1-13.55,0-2.25,0-4.25.05-5.65v-.1c0-.2-.05-.25-.1-.25-.55,0-11.4,21.7-13.6,26.4-.45,1-.75,1.35-1.4,1.35-.55-.05-.85-.55-1.1-1.45-.55-1.95-2.5-6.05-4.85-10.75-2.2-4.4-5.1-10.35-7-14.55-.15-.4-.3-.55-.35-.55-.3,0-1.05,11.15-1.05,16.5,0,9.05,0,9.55,4.3,10.2.25.15.4.45.4.75,0,.4-.25.75-.6.75h-.05s-3-.35-6.25-.35c-1.6,0-3.3.1-4.7.35h-.1c-.35,0-.5-.25-.5-.6s.15-.7.45-.9c3.85-.4,4.4-2.5,4.9-9.7.1-2.35.85-13.35,1.2-17.85,0-.25.05-.5.05-.75,0-3.15-1.85-4.3-5.5-4.8-.25-.15-.4-.5-.4-.8,0-.35.2-.7.7-.7,0,0,2.7.25,5.4.25,1.35,0,2.65-.05,3.65-.25.15-.05.25-.05.3-.05.45,0,.55.3.65,1,.15.6,1,2.65,1.25,3.3,3.6,8.95,8.95,17.7,11.05,22.75.1.2.2.3.3.3.35,0,12.9-24.45,13.35-26.45.05-.4.35-.65.8-.65h.15c1.1.1,2.25.15,3.35.15,1.7,0,3.45-.1,5.05-.35h.05c.35,0,.55.35.55.75,0,.3-.15.65-.45.75-5,.65-5.05,1.85-5.05,12.1Z" fill="#fff"/>
      <path d="m207.7,7c3.7,0,5.65,1.3,5.65,2.75,0,.95-.85,1.85-2.75,1.85-.35,0-.75-.05-1.15-.1-.9-.15-1.8-.2-2.75-.2-3,0-5.95.65-7.25,1.4-3.3,1.85-5.85,9.15-5.85,15.4,0,10.2,6.5,10.5,7.75,10.5.9,0,1.85-.15,2.85-.5.5-.15.95-.25,1.4-.25,1.55,0,2.6.95,2.6,2.05,0,2.55-4.55,3-6.3,3-5.2,0-10.65-3.25-10.65-12.85,0-5.85,1.95-12.55,4.7-15.75.25-.35.5-.55.5-.6s0-.05-.05-.05c-.6,0-5.35,2-10.6,4.8-.95.5-2.1.7-3.25.7-2.4,0-4.7-1-4.7-2.85,0-.5.2-.6.45-.6s.65.1,1,.2c.7.15,1.45.25,2.25.25,1,0,2.05-.15,3.25-.6,3.45-1.25,11.2-5.5,18.55-7.5,1.25-.35,2-.95,4.1-1.05h.25Zm1.05,13.8c-1.3-1.5-2.9-2.7-4.2-3.4-.45-.25-.8-.45-.8-.55,0-.4,1.85-.4,1.95-.4,3.9,0,5.9,1.75,5.9,3.4,0,.95-.65,1.7-1.5,1.7-.4,0-.9-.25-1.35-.75Zm5.3-2.4c-1.35-1.45-3-2.65-4.35-3.3-.45-.2-.8-.4-.8-.55s.85-.45,2.25-.45c4.05,0,5.7,1.8,5.7,3.3,0,.95-.65,1.7-1.45,1.7-.4,0-.9-.2-1.35-.7Z" fill="#fff"/>
      <path d="m225.75,36.1c-.4.2-.5.8-.9.8-.85,0-3.4-4.2-3.4-4.45,0-.15.15-.15.45-.15,2,0,2.4,0,7-1.35,0-3.85.05-9.8.05-14.8-1.65.05-2.9.25-5.05.45h-.05c-.7,0-2.2-1.85-2.2-2.45,3.45.45,5.45.7,7.3.75v-6.25c-.05-2.2-.15-4.9-.65-7.2-.05-.15-.05-.3-.05-.35,0-.1.05-.1.15-.1.6,0,6.3.9,6.3,2.15,0,.45-.5.85-1.2,1.2-.95.45-1,1.1-1,10.55h.7c.25,0,.45-.2.6-.45.9-1.35,1.7-2.4,2.2-2.4.85,0,3.75,2.5,3.75,3.45,0,.3-.2.6-.95.6h-6.35c0,5,.05,10.5.05,13.7,2.65-.9,5.4-1.95,7.3-2.75.4-.2.7-.25.9-.25.1,0,.15,0,.15.1,0,.85-7.5,5.35-15.1,9.2Zm41.15-14.1c0,.3-.2.6-1,.6h-16.7c-2.45,0-6.95.1-10.85.5h-.05c-.75,0-2.15-1.9-2.15-2.45,4.55.55,10.65.7,13.2.7h2.25c1.15-2.3,2.25-5.3,2.9-7.35.3-1.05.35-2,.4-2.75.05-.4,0-.55.1-.55.4,0,5.5,2.05,5.5,3.15,0,.35-.45.7-1.5.75-.75.05-.75.25-1.15.75-1.1,1.35-2.95,3.8-4.9,6h6.4c.15,0,.45-.15.6-.4.4-.65,1.9-2.8,2.55-2.8.5,0,4.4,2.4,4.4,3.85Zm-2.15-12.9c0,.35-.2.65-1,.65h-14.15c-2.35,0-5.6.1-9.4.5h-.05c-.8,0-2.05-1.95-2.05-2.5,4,.55,8.4.7,11,.75,0-.25-.05-.55-.05-.75-.05-2.15-.1-4.65-.5-6.5-.05-.2-.1-.3-.1-.35s.05-.1.1-.1c.4,0,6.5.75,6.5,1.95,0,.35-.4.75-1.1,1.1-1.05.6-1.15.65-1.15,4.65h4.75c.15,0,.45-.15.6-.4.6-1.05,1.85-2.7,2.4-2.7,1.4,0,4.2,2.9,4.2,3.7Zm-2.6,20.4c0,.45-.45.8-1.05,1.2-.95.65-1.05.7-1.05,3.45,0,2.25.2,5.1.4,8.2v.15c0,1.25-1.4,1.9-2.3,1.9s-1.7-.45-1.7-1.55v-1.5h-10.9v1.7c0,1-1.1,1.8-2.3,1.8-.9,0-1.7-.45-1.7-1.55v-.15c.3-3.55.35-6.05.35-8,0-4.9-.3-7.45-.55-8.6,0-.15-.05-.2-.05-.3s.05-.15.1-.15c.3,0,3.5,1.15,5.2,2.3l.1.1h8.7c.25,0,.5-.1.7-.4.05-.1,1.2-1.6,1.75-1.6.4,0,4.3,1.9,4.3,3Zm-12.55-12.25c0,1.4-1.05,2.4-2.1,2.4-.85,0-1.75-.6-2.2-2.05-.4-1.3-1.65-3.5-2.65-4.75-.3-.35-.45-.55-.45-.65,0-.05.05-.05.1-.05.65,0,7.3,1.3,7.3,5.1Zm7,16.5c0-1.2-.05-2.25-.1-3.2,0-.35-.2-.75-.6-.75h-9.35l-.35.3c-.65.45-.65.65-.65,1.6-.05,1.95-.1,3.5-.1,5.05,0,1.05.05,2.15.05,3.3h11c.05-2.45.1-4.5.1-6.3Z" fill="#fff"/>
      <path d="m285.3,40.75c-1.3,0-2.9-.1-2.9-.45,0-.2.75-.5,2.2-.7,11.15-1.7,16.15-7.1,16.15-11,0-2.1-1.75-4.9-5.85-4.9-3.1,0-6.95,1.65-10.5,5.2-1.5,1.5-3.15,2.2-4.6,2.2-2.45,0-3.65-1.95-3.65-2.45,0-.35.4-.45,1.15-.5,1.4-.15,4-1.35,6.5-2.9,3.1-1.95,6.85-3.55,10.45-3.55,5.65,0,9.5,3.9,9.5,7.9,0,5.05-5.7,11.15-18.45,11.15Z" fill="#fff"/>
      <path d="m328.15,15.3c-2.55,7.3-4.8,14.6-6.45,21.95-.7,3.25-2.3,4.95-3.55,4.95-.8,0-1.65-1.1-1.65-2.55,0-1.05.5-2.25,1.3-3.75,2.15-3.95,7.8-19.65,8-20.55-1.5.35-2.3.45-3.05.45-5.35,0-6.9-3.7-6.9-4.9,0-.25.1-.35.25-.35.25,0,.6.25,1,.45,1.35.7,3.2,1.6,5.5,1.6,1.5,0,2.95-.3,3.85-.55.15-.9.2-1.85.2-2.7,0-1.8-.35-3.25-1.4-3.35-.65-.05-1.25-.25-1.25-.65,0-.3.85-1.6,2.35-1.6,2.15,0,3.35,2.1,3.5,3.9,1.4.25,2.15.35,3,.35h.6c.95,0,1.7.7,1.7,1.55,0,.65-.35,2.75-6.7,4.95l-.3.8Zm1.35-4.3c.25-.1,1.95-.95,1.95-1.7,0-.35-.2-.65-1.55-1.15,0,.85-.15,1.8-.4,2.85Zm13.3,27c.9,0,1.8-.3,3.25-.3,2.65,0,4,1,4,2.05s-1.4,2.3-5.3,2.3c-6.15,0-11.65-3.25-11.65-7,0-1.9,1.5-3.45,1.8-3.45.15,0,.2.2.2.4,0,.3-.1.75-.25,1.05-.1.25-.2.55-.2.8,0,2.1,3.5,4.15,7.9,4.15h.25Zm7.15-20c-2.8.5-4.35.95-7.45,3.35-.45.35-.75.5-.95.5-.05,0-.1-.05-.1-.1,0-.15.1-.4.35-.7,2.7-3.4,3.1-4,3.1-4.6,0-1.2-2.75-1.8-3.8-1.8-.2,0-.4,0-.55.05-.7.15-1.25.25-1.55.25-.2,0-.3,0-.3-.1,0-.15,1.4-2.05,5-2.05,4.35,0,7.95,2.35,7.95,3.75,0,.7-.6,1.25-1.7,1.45Z" fill="#fff"/>
      <path d="m400.85,14.55c0,.45-.35.85-1.2,1.25-1.2.55-1.25.65-1.3,2-.15,4.25-.2,10.2-1.4,15.55-1.75,7.55-6.45,11.15-11.9,11.15h-.1c-.45,0-1.05-.2-1.25-.65-.65-1.4-7.1-4.6-7.1-5,0,0,0-.05.1-.05s.3.05.65.15c2.7.8,5.2,1.4,7.35,1.4,9.4,0,9.6-12.4,9.75-25,0-.65-.2-.85-.7-.85h-11.15c-1.9,14.25-6.8,26.4-22.85,30.55-.7.2-1.15.25-1.4.25-.2,0-.3-.05-.3-.1,0-.2.55-.6,1.25-.85,12.4-4.95,17.5-15.8,19.2-29.85-2.95,0-10.3.1-14.55.55h-.05c-.9,0-2.35-1.95-2.35-2.6,4.9.6,13.95.75,17,.75h.1c.35-3.3.5-6.75.5-9.15,0-1.6-.1-2.9-.25-3.65,0-.1-.05-.15-.05-.25s.05-.15.2-.15c0,0,6.75.95,6.75,2.1,0,.35-.5.75-1.05,1-.85.4-1.15.5-1.25,1.9-.2,2.75-.45,5.55-.75,8.2h10.8c.6,0,.75-.15.9-.4.4-.55,1.3-1.7,1.75-1.7.4,0,4.65,2.2,4.65,3.45Z" fill="#fff"/>
      <path d="m440.2,7c3.7,0,5.65,1.3,5.65,2.75,0,.95-.85,1.85-2.75,1.85-.35,0-.75-.05-1.15-.1-.9-.15-1.8-.2-2.75-.2-3,0-5.95.65-7.25,1.4-3.3,1.85-5.85,9.15-5.85,15.4,0,10.2,6.5,10.5,7.75,10.5.9,0,1.85-.15,2.85-.5.5-.15.95-.25,1.4-.25,1.55,0,2.6.95,2.6,2.05,0,2.55-4.55,3-6.3,3-5.2,0-10.65-3.25-10.65-12.85,0-5.85,1.95-12.55,4.7-15.75.25-.35.5-.55.5-.6s0-.05-.05-.05c-.6,0-5.35,2-10.6,4.8-.95.5-2.1.7-3.25.7-2.4,0-4.7-1-4.7-2.85,0-.5.2-.6.45-.6s.65.1,1,.2c.7.15,1.45.25,2.25.25,1,0,2.05-.15,3.25-.6,3.45-1.25,11.2-5.5,18.55-7.5,1.25-.35,2-.95,4.1-1.05h.25Zm1.05,13.8c-1.3-1.5-2.9-2.7-4.2-3.4-.45-.25-.8-.45-.8-.55,0-.4,1.85-.4,1.95-.4,3.9,0,5.9,1.75,5.9,3.4,0,.95-.65,1.7-1.5,1.7-.4,0-.9-.25-1.35-.75Zm5.3-2.4c-1.35-1.45-3-2.65-4.35-3.3-.45-.2-.8-.4-.8-.55s.85-.45,2.25-.45c4.05,0,5.7,1.8,5.7,3.3,0,.95-.65,1.7-1.45,1.7-.4,0-.9-.2-1.35-.7Z" fill="#fff"/>
      <path d="m461.55,43.45c-1.45-2.8-3.85-4.85-6-6.45-.5-.4-.95-.7-.95-.85,0-.05.15-.1.4-.1,1.95,0,11.25,1.85,11.25,6.5,0,1.5-1.1,2.65-2.35,2.65-.85,0-1.7-.5-2.35-1.75Z" fill="#fff"/>
      <path d="m9.65,88.75c1.5,6.8,1.55,8.35,1.55,8.7,0,.55-.05,3-1.75,3-1,0-2.4-1.35-2.4-4.5,0-.9.15-1.3.15-2.15,0-1.4-.7-4.75-.95-5.45-.85-2.55-2.7-4.05-4.45-4.05h-.6c-.8,0-1.2-.15-1.2-.5,0-.6,1.35-2.05,3.3-2.05.85,0,4.25.6,5.45,3.45h.6c2.6,0,14.4-1.2,15.35-1.4,1.25-.3,1.7-1.45,2.9-1.45,1.3,0,6,1.95,6,3.65,0,.5-.35,1-1.1,1.45-1,.55-1.6,1.05-2.15,2.25-9.8,22.35-25.15,24.65-25.85,24.65-.15,0-.25,0-.25-.1,0-.15.6-.55,1.85-1.15,13.7-6.65,20.7-25.25,20.7-26.35,0-.55-.35-.75-1-.75-1,0-10.45.85-14.55,1.9-.65.15-1.2.2-1.7.2l.1.65Z" fill="#fff"/>
      <path d="m73.3,95.95c-2.4.05-7.55.05-12.65.25-3.6.15-7.15.4-9.55.95-1.1.25-2.05.45-2.95.45-2.25,0-6.65-2.3-6.65-4.75,0-.45.15-.65.4-.65.15,0,.4.1.7.25,1,.6,2.1,1.15,5.65,1.15,3.35,0,22.35-1.2,22.5-1.2.5-.05,1.1-.05,1.75-.05,2.95,0,4.9.55,4.9,1.7,0,1.05-2.45,1.85-4.1,1.9Z" fill="#fff"/>
      <path d="m88.7,99.6c-.7.3-1.25.5-1.45.5-.1,0-.2-.05-.2-.1,0-.15.35-.5,1.15-1.1,7.05-5.35,14.4-15.5,14.4-17.15,0-.7-.5-1.25-1.35-1.45-.6-.15-.85-.35-.85-.6,0-.1.45-1.45,2.25-1.45,2.15,0,4.7,1.85,4.7,3.65,0,.6-.3,1.2-.7,1.8,1.85-.2,4.8-.65,5.85-.9.6-.15.9-.5,1.4-.85.4-.25.7-.4,1.05-.4,1.05,0,4.5,2.25,4.5,3.4,0,.55-.5.9-1.4,1.25-1.1.4-1.6,1.25-2.5,2.6-8.4,12.45-16.15,20.45-29.3,24.25-.95.25-1.6.4-1.95.4-.2,0-.3-.05-.3-.1,0-.2.55-.55,1.7-1.05,11.05-4.65,19.2-14.15,26.85-26.2.15-.25.35-.6.35-.85s-.2-.5-.9-.5c-.45,0-2.2.1-5.55,1.2-.5.15-.95.25-1.35.25-.15,0-.3,0-.45-.05-5.7,6.7-10.15,10.95-15.95,13.45Z" fill="#fff"/>
      <path d="m124.15,112.45c-.25,0-.4-.05-.4-.15,0-.15.5-.45,1.6-.85,15.15-5.9,25.4-22.85,25.4-24.25,0-.4-.25-.65-.85-.65-1.45,0-6.75,2.1-7.95,2.6-1.6.65-2.45,1.2-3.55,1.2-2.05,0-5.65-1.9-5.65-3.65,0-1,.35-1.45.75-1.45.25,0,.5.25.7.65.25.55,1.3.75,2.6.75,3.55,0,10.4-1.5,11.5-1.8,1.25-.35,1.9-1.55,3.1-1.55,1.05,0,5.5,1.5,5.5,3.4,0,.45-.3.9-.95,1.35-.8.55-1.45,1.05-2.1,2.2-1.75,2.95-3.7,5.65-5.85,8.1,5.5,1.35,13.95,5.55,13.95,9.85,0,1.35-.85,2.3-1.95,2.3-.85,0-1.75-.5-2.55-1.8-2-3.3-5.75-7.15-9.2-9.35-.25-.15-.55-.3-.75-.45-10.1,11.15-22.1,13.55-23.35,13.55Z" fill="#fff"/>
      <path d="m167.6,113.7c-.2,0-.3-.05-.3-.15,0-.15.55-.55,1.75-1.05,7.6-3.15,14.6-9.1,20.2-15.95-1.55-1-3.2-1.85-4.65-2.5-.9-.4-1.45-.65-1.45-.75s.15-.1.5-.1c1.4,0,5.2.5,7.35,1.1,2.5-3.3,5.65-8.05,5.65-8.85,0-.45-.35-.75-1.15-.75-.95,0-3.15.5-5,1.1-.55.15-1,.3-1.45.3-.15,0-.25-.05-.4-.05-5.6,6.8-9.95,11-15.65,13.6-.75.35-1.3.5-1.55.5-.05,0-.1,0-.1-.05,0-.15.35-.5,1.1-1.05,6.8-5.1,14.3-16.05,14.3-17.55,0-.7-.5-1.25-1.45-1.45-.6-.15-.95-.3-.95-.6,0-.1.6-1.5,2.4-1.5,2.1,0,4.65,1.9,4.65,3.7,0,.65-.3,1.3-.75,1.95,5.1-.75,5.9-1.05,6.3-1.35.6-.45,1.1-.75,1.65-.75.6,0,4.75,1.8,4.75,3.35,0,.55-.55,1-1.6,1.3-.85.25-1.7,1.45-2.65,2.9-1.5,2.3-3,4.5-4.6,6.55,2.15.95,4.3,2.5,4.3,4.5,0,1.2-.8,2.1-1.9,2.1-.65,0-1.45-.35-2.2-1.2s-1.65-1.65-2.65-2.45c-11.85,13.7-24.45,15.15-24.45,15.15Z" fill="#fff"/>
      <path d="m209.15,105.9c-.1,0-.15-.05-.15-.1,0-.15.65-.6,1.55-1.1,9.9-5.35,21.25-20.1,21.25-23.45,0-.7-.4-1.2-1.45-1.5-.65-.2-.9-.45-.9-.7,0-.4.65-1.25,2.1-1.25,2.35,0,5.75,2.15,5.75,4.05,0,1.25-1.55,2.05-2.55,3.6-1.1,1.75-2.45,3.5-3.95,5.25,1.2.6,2.1,1.8,2.1,2.95,0,.35-.05.65-.2.95-.35.7-.5,3.2-.5,6,0,3.7.2,7.9.2,9.4,0,2.7-.5,5.3-2,5.3-1.15,0-2.3-2-2.3-4.9,0-.75.1-1.55.25-2.35.25-1.3.45-1.3.6-2.65.25-2.3.3-5.3.3-7.8,0-2.25,0-3.7-.35-4.8-9.9,10.4-19.35,13.1-19.75,13.1Z" fill="#fff"/>
      <path d="m244.35,111.95c-.15,0-.2,0-.2-.1s.4-.45,1.15-.9c7.65-4.7,14-15.9,14-19.85,0-2-1.3-2.65-2.8-2.8-.65-.1-1-.25-1-.6,0-.5.7-1.55,2.3-1.55,2.3,0,5.55,2.15,5.55,4.95,0,.95-.3,1.8-.55,2.45-4.45,12.45-16.1,18.4-18.45,18.4Zm25.35-3.95c-1.1,0-3.65-2.65-3.65-4.15,0-.65.45-1.4.6-2.65.6-4.2.9-7.4.9-9.75,0-4.1-.85-5.8-2.1-6.2-.95-.35-1.35-.6-1.35-.9,0-.55,1.6-1,2.5-1,2.3,0,4.7,2.9,4.7,5,0,.5-.05,1-.25,1.5-.7,2.1-1.35,11-1.35,12.15,0,.3.15.45.4.45.6,0,10.85-5.85,17.8-15.45.75-1,1.2-1.45,1.35-1.45.05,0,.05.05.05.1,0,1.25-5.7,12.45-16.75,20.4-.75.55-1.7,1.95-2.85,1.95Z" fill="#fff"/>
      <path d="m314.9,81.15c-.55,0-1.1.05-1.65.1,1.25,1,2.05,3.6,2.05,6.85,0,10.45-8.3,21.9-13.05,21.9-2.65,0-3.65-3.55-5.6-6.4-.8-1.15-1.2-2.8-1.2-4.65,0-7.55,6.5-19.6,20.2-19.6,11.45,0,17.5,7.85,17.5,16.1,0,4.5-1.85,9.15-5.6,12.7-6.4,6-15.9,6.65-16.35,6.65-.5,0-.7-.05-.7-.15,0-.25.75-.6,2.25-1,8.75-2.4,16.6-8.65,16.6-18.4,0-7.45-5.25-14.1-14.25-14.1h-.2Zm-4.55.65c-7.7,2.25-12.15,9.4-12.15,15.65,0,4.4,2.25,7.75,4.4,7.75,3.45,0,10.6-10.45,10.6-19.3,0-2.25-.3-4.3-1.8-4.3-.15,0-.3,0-.45.05-.15.05-.3.1-.4.1l-.2.05Z" fill="#fff"/>
      <path d="m353.1,86.95c-.4,0-.7.1-1.05.4-4.55,3.9-12.05,6.4-13,6.4-.15,0-.2,0-.2-.1s.25-.3.75-.55c4-2.1,9.6-7.3,10.3-9.95.05-.25.05-.4.2-.4.3,0,4.6,2.65,4.6,3.55,0,.35-.35.65-1.05.65h-.55Zm31.85,25.4c.15,0,.2,0,.2.05,0,.35-4.75,2.15-5.75,3.75-.25.4-.55.5-1,.5-2.65,0-9.35-1.75-14.65-6.3-8.3,5.95-18,6.9-19.95,6.9-.45,0-.65-.05-.65-.15,0-.15.6-.35,1.75-.6,5.9-1.25,11.7-4.25,16.6-8.4-1.5-1.7-2.7-3.65-3.5-5.85-7.9,9.3-16.65,12.8-17.8,12.8-.1,0-.2,0-.2-.05,0-.15.35-.45,1.05-.85,5.5-3.15,11.85-10.3,16.05-16.6.5-.75.7-1.45.9-2.25.05-.25.1-.35.25-.35.75,0,4.95,1.85,4.95,2.65,0,.35-.45.55-1.5.65-.65.05-.95.4-1.35,1l-.15.2h7.8c.35,0,.65-.2.85-.35.05-.05,1.2-1,1.45-1,.5,0,3.95,2.15,3.95,3.15,0,.35-.3.65-1.15.9-.75.25-1.15.2-1.65.85-1.7,2.1-3.5,3.95-5.45,5.6,4.3,2.5,9.8,3.85,16,3.85.9,0,1.8-.05,2.75-.1h.2Zm-15.6-31.95c.3.15.45.3.45.5,0,.3-.3.6-.95.8-.6.2-.7.35-.7,2.45,0,1.05,0,2.2.05,3.35.05.8.2,2.1.2,3,0,4.6-5,5.05-5.45,5.05s-.7-.2-.95-.75c-.7-1.5-4.25-3.05-4.55-3.45-4.25,6.9-14.8,9.35-15.5,9.35-.1,0-.15-.05-.15-.05,0-.15.55-.5,1.5-.9,12.8-5.55,13.1-14.1,13.1-17.25,0-.85-.05-1.5-.1-2.1-3.25.05-8.8.1-12.65.5h-.05c-.9,0-2.3-1.9-2.3-2.55,5.15.6,13.65.8,16.55.8h2.55v-.1c-.05-2.05-.2-4.85-.6-6.6-.05-.15-.05-.25-.05-.3,0-.1.05-.15.1-.15.15,0,6.6.7,6.6,2,0,.35-.35.75-1,1.1q-1.05.6-1.15,2.05l-.1,2h9.8c.35,0,.7-.2.85-.45,1.2-1.8,2.35-3.4,2.95-3.4.15,0,.25.05.35.05,1.6.55,4.75,3.4,4.75,4.45,0,.3-.25.6-1.1.6h-12.45Zm-8.2,0c.25.15.35.3.35.45,0,.25-.3.5-.75.75-.75.4-.8.45-.85,1.45-.2,3.2-.95,5.9-2.35,8.2.1,0,.3.05.7.1,1.95.3,3.3.5,4.3.5,1.95,0,2.35-.25,2.35-4.4,0-2.85-.2-6.55-.3-7.05h-3.45Zm-2,20.4c-.15.2-.3.45-.5.65,1.15,1.95,2.65,3.7,4.45,5.2,1.95-1.85,4.8-5.15,4.8-5.65,0-.15-.2-.2-.45-.2h-8.3Zm19.05-8.65c-1.4-2.15-4.65-5-7.25-6.75-.35-.25-.5-.4-.5-.5,0-.05.1-.1.25-.1.3,0,11.9,2.05,11.9,6.75,0,1.3-.85,2.3-1.95,2.3-.8,0-1.65-.5-2.45-1.7Z" fill="#fff"/>
      <path d="m434.56,107.25c0,.3-.25.6-1.1.6h-19.4l.15,7.75v.1c0,1.35-1.3,2-2.35,2-.9,0-1.7-.55-1.7-1.75v-.25c.1-1.65.2-4.55.25-7.85h-3.3c-2.75,0-10.1.1-14.55.55h-.05c-.9,0-2.2-1.95-2.2-2.6,5.1.6,14.15.8,17,.8h3.15c.05-2,.1-4.1.1-6.15h-8.1c0,.45.05.75.05,1.05v.05c0,1-1.2,1.6-2.35,1.6-.9,0-1.7-.4-1.7-1.35v-.2c.25-2.3.35-6.5.35-7.75,0-.7-.1-3.25-.5-4.85-.05-.15-.05-.2-.05-.3s.05-.1.15-.1c.7,0,3.9,1.4,5.1,2.15.05,0,.05.05.1.05h6.95v-1.65c0-1.15-.05-3.05-.2-4.2h-2.4c0,.3.05.5.05.7,0,.95-.95,1.7-2.2,1.7-.85,0-1.6-.4-1.6-1.4v-.15c.1-1.1.15-3.9.15-6.1-3.35.05-7.95.2-11.1.5h-.05c-.9,0-2.3-1.9-2.3-2.55,3.7.45,9.55.65,13.5.75v-1.35c0-1-.15-2.8-.45-4.35-.05-.15-.05-.25-.05-.35s.05-.1.15-.1c.5,0,5.8.7,5.8,1.9,0,.35-.3.7-1.15,1.05-.85.3-.85,1.2-.85,3.25h8.75v-1.25c0-1-.1-2.8-.45-4.5-.05-.15-.05-.25-.05-.3,0-.15.05-.15.2-.15,1,0,5.75.7,5.75,1.9,0,.35-.3.7-1.15,1.05-.85.3-.85,1.2-.85,3.25h5c.3,0,.65-.2.8-.45.5-.8,2.2-3.35,3-3.35.15,0,.25,0,.35.05,1.3.45,4.55,3.3,4.55,4.35,0,.3-.25.6-1.1.6h-12.55l.15,5.8v.1c0,.7-.65,1.7-2.15,1.7-.85,0-1.6-.45-1.6-1.5v-.8h-.85c.15.1.2.2.2.3,0,.3-.35.6-.85.85-.7.3-.8.4-.9,1.55-.05.75-.05,1.85-.1,3.15h7.15c.25,0,.45-.05.65-.3,1.15-1.35,1.45-1.6,1.8-1.6.9,0,4.3,2.1,4.3,2.95,0,.4-.45.7-1.1,1.1-.8.45-.95,1.05-.95,2.4,0,1.6.2,4.4.3,5.75v.1c0,1.15-1.3,1.7-2.25,1.7-.9,0-1.7-.45-1.7-1.4v-1.05h-8.25c0,2.1,0,4.15.05,6.15h11.65c.35,0,.7-.2.85-.45,1-1.5,2.35-3.4,3.05-3.4.15,0,.25,0,.35.05,1.75.6,4.65,3.65,4.65,4.45Zm-24-15.2h-7.2l-.3.2c-.6.4-.7.5-.7,3.75,0,1,.05,2.15.05,3.2h8.15v-7.15Zm-2.7-12.4c0,1.35.05,2.85.1,4.1h8.6c.05-1.25.05-2.8.05-4.1h-8.75Zm14.35,13c0-.35-.3-.6-.65-.6h-7.55c-.05,2.1-.05,4.6-.05,7.15h8.3c0-2.25,0-5.05-.05-6.55Z" fill="#fff"/>
      <path d="m443.3,103.65c0-1.75.2-3.45.5-5.05.65-3.4,1.7-6.5,2.25-9.4.25-1.25.35-2.4.35-3.45,0-2.2-.45-3.85-.95-4.75-.3-.55-.7-1-.7-1.25s.25-.35,1-.35c1.55,0,4.15,2.2,4.15,5.9,0,1.65-.55,3.3-1.4,5.4-1.25,3.1-2.75,6.85-2.75,10.25,0,1.15.3,3.1.75,3.1.15,0,.35-.25.55-.75,1.25-2.65,4.65-9.3,5.2-9.3.05,0,.1.1.1.2,0,.2-.1.6-.35,1.2-.7,1.65-3.4,8.8-3.4,13.05,0,1.05.15,1.9.35,2.7.1.35.15.7.15,1,0,1.25-.75,2-1.6,2-3.4,0-4.2-8.05-4.2-10.5Zm30.6,3.4c1.95,0,3,.9,3,1.9,0,3.1-7.05,3.15-7.95,3.15-8.6,0-11.3-4.45-11.3-6.9,0-.35.05-.5.2-.5.25,0,.6.35,1.05,1,1,1.45,4.35,2.4,8.05,2.4,1,0,2-.05,3-.2,1.2-.2,2-.8,3.7-.85h.25Zm-7.65-17.8c-7.5,0-7.9-4.5-7.9-4.85,0-.15.05-.2.2-.2s.5.2.95.45c1.4.85,3.25,1.15,5.1,1.15,1.45,0,2.85-.2,4.15-.5.65-.15,1.2-.5,1.85-.6.35-.05.65-.1.95-.1,1.6,0,2.6.85,2.6,1.75,0,2.45-5.45,2.9-7.9,2.9Z" fill="#fff"/>
      <path d="m491.5,85.9c-1.5.05-3.1.1-5.35.4h-.05c-.6,0-2.05-1.85-2.05-2.4,2.85.45,5.45.65,7.45.7-.15-9-.25-9.5-.7-11.7-.05-.15-.05-.2-.05-.3s.05-.15.15-.15c0,0,6.2.75,6.2,2,0,.45-.5.85-1.05,1.15-.9.5-.95.3-1.05,2.1-.1,1.7-.15,4.1-.2,6.9h.25c.1,0,.35-.15.5-.4,1-2,1.35-2.7,1.85-2.7.7,0,3.2,2.85,3.2,3.8,0,.25-.2.55-.85.55h-4.95c-.05,2.45-.05,5.2-.05,7.9,2.05-.75,4-1.5,5.65-2.25.5-.2.8-.3,1-.3.05,0,.1,0,.1.05,0,.6-5.8,4.3-6.75,4.95,0,2.9.05,5.75.1,8.25,0,1.45.15,4.85.15,6.15,0,4.95-4.45,5.3-5.15,5.3-.5,0-.75-.15-1.05-.65-.9-1.6-4.35-3.6-4.35-4,0-.05.1-.05.2-.05s.25,0,.45.05c1.65.35,2.9.55,3.85.55,1.7,0,2.35-.65,2.4-2.1.1-3.15.1-7.3.15-11.65-1.25.75-2.6,1.55-3.95,2.3-.4.2-.5.85-.85.85-.95,0-3.55-4.05-3.55-4.2s.15-.1.5-.15c2.5-.3,4.45-.8,7.85-2v-8.95Zm18.95-4.55c0,4.35.05,11.55.05,13.3-.1,19.5-15.05,21.55-15.65,21.55-.2,0-.3-.05-.3-.1,0-.15.35-.35,1.2-.7,7.75-3.05,11.2-11.95,11.4-19.95-1.6,2.2-3.85,5.25-5.8,7.4-.25.3-.25.85-.6.85-.75,0-3.65-3.2-3.65-3.5,0-.1.05-.15.25-.2,3.15-.75,9.45-5.85,9.8-6.1,0-13.6-.05-17.1-.85-19.8-.05-.2-.1-.3-.1-.4,0-.15.1-.15.25-.15s5.65.45,5.65,1.7c0,.3-.25.65-.85,1-.8.45-.8.5-.8,2.5v2.6Zm-7.55,7.3c-.4-1.4-1.5-3.65-2.65-5-.2-.2-.35-.4-.35-.5,0-.05.1-.1.25-.1,1,0,6.55,1.85,6.55,5.25,0,1.3-.95,2.3-1.9,2.3-.75,0-1.5-.55-1.9-1.95Zm10.85,21.25c.1-3.05.15-19.9.15-27.2v-3.2c0-1.3,0-3.75-.35-5.8-.05-.15-.05-.25-.05-.35,0-.15.05-.15.2-.15.65,0,5.5.85,5.5,1.95,0,.35-.4.7-1.15,1.1-.5.25-.65.5-.7,1.5-.05,1.05-.15,5.7-.2,11.1,3.15-3.05,5.65-5.8,6.15-7.65.05-.15.1-.25.15-.25.4,0,4.25,3.2,4.25,4.4,0,.4-.35.6-.95.6-.15,0-.35,0-.55-.05-.2-.05-.35-.05-.5-.05-.2,0-.35,0-.55.15-1.15.65-5.4,2.75-8,3.9v4.2c2.8.3,10.7,1.6,10.7,5.5,0,1.15-.75,2.15-1.8,2.15-.65,0-1.5-.45-2.3-1.45-1.85-2.3-4.3-4.05-6.6-5.4,0,3.25-.05,6.45-.05,9s.05,4.6.05,5.45c.1,2.05.55,2.55,3.2,2.55,4.55,0,5-.9,6.05-7.6.05-.35.1-.5.15-.5.3,0,.45,5.3,1.4,5.95.8.55,1.15,1.2,1.15,1.85,0,1.45-2,3.65-8.75,3.65-5.05,0-6.6-1.5-6.6-5v-.35Z" fill="#fff"/>
      <path d="m561.16,103.7c-.2-3.15-.4-5.8-.4-8,0-4.15.55-9.95,5.45-9.95,3.75,0,6.75,3.2,6.75,6.15,0,1.6-.9,2.9-2.65,2.9-.15,0-.35,0-.55-.05-.45-.05-1-.1-1.55-.1-1.1,0-2.3.1-3.2.35-.4.1-.65.15-.85.15-.25,0-.35-.05-.35-.15,0-.2.3-.5.8-.75,2.3-1.3,4.3-2.55,4.3-3.95,0-1.3-1.55-2.9-3.15-2.9-3.25,0-3.45,4.3-3.45,6.15,0,2.3.35,4.75.65,6.5.45,2.3,1.55,4.25,1.55,6.2,0,2.95-3.7,9.3-12.85,9.3-2.1,0-10.05-.55-10.05-7.6,0-1,.15-2.05.4-3.05-3.2,0-4.25-5.35-4.25-8.15,0-3.5,1.45-5.1,3.6-5.1,1,0,2.05.4,2.85,1.05v-5.65c-.65.1-1.25.15-1.8.15-4.1,0-5.8-4.3-5.8-4.8,0-.15.05-.25.2-.25.25,0,.75.25,1.5.8,1.15.85,2.65,1.1,4.1,1.1.65,0,1.25-.05,1.85-.1,0-.8,0-1.55.05-2.25v-.35c0-1.25-.5-1.9-.9-2.35-.3-.3-.6-.5-.6-.8,0-.6.5-1.45,1.55-1.45,1.35,0,3.15,1.25,3.15,3.15v.2c1.5.45,2.3.5,3,.5,1.35,0,2.85,0,2.85,1.4,0,2.7-5,4.05-6.9,4.55-.3,2.6-.45,5.55-.55,8.35.4.85.6,1.75.6,2.75,0,1.4-.4,2.9-1.3,4.5-1,1.75-1.7,3.5-1.7,5.05,0,3.9,4.55,4.95,7.35,4.95,4.4,0,10.3-2.3,10.3-7.9v-.55Zm-17.25-5.15c0-2.5-1.7-4.9-3-4.9-1.55,0-1.7,2.25-1.7,2.85,0,1.5,1,5.25,2.85,5.25,1.15,0,1.6-1.65,1.85-3v-.2Zm3-15.1c.9-.25,2.65-.8,2.65-1.35,0-.15,0-.2-2.1-1.4-.1.6-.25,1.2-.4,1.9l-.15.85Z" fill="#fff"/>
    </g>
  </g>
</svg>