<?xml version="1.0" encoding="utf-8"?>
<!-- Generator: Adobe Illustrator 27.1.1, SVG Export Plug-In . SVG Version: 6.00 Build 0)  -->
<svg version="1.1" id="_レイヤー_2" xmlns="http://www.w3.org/2000/svg" xmlns:xlink="http://www.w3.org/1999/xlink" x="0px"
	 y="0px" viewBox="0 0 616 250" style="enable-background:new 0 0 616 250;" xml:space="preserve">
<style type="text/css">
	.st0{fill:#FFFFFF;}
</style>
<g id="_デザイン">
	<rect class="st0" width="616" height="80"/>
	<rect y="85" class="st0" width="412" height="80"/>
	<rect x="0.5" y="170" class="st0" width="380" height="80"/>
	<g>
		<path d="M56.8,25.8c-2.4,0-6.5,0.1-10.3,0.5h-0.1c-0.8,0-2.5-2.2-2.5-2.9c4.6,0.7,10.4,0.8,13,0.8h2.9c0.2,0,0.6-0.2,0.8-0.5
			c0.1-0.1,2-3.4,2.9-3.4c1.4,0,5,3.5,5,4.8c0,0.3-0.2,0.6-1.1,0.6C67.4,25.8,56.8,25.8,56.8,25.8z M64.7,62.8c0,1.1-1,2.2-2.6,2.2
			c-1,0-1.9-0.5-1.9-1.8v-1.4h-7.8v2.5c0,1.3-1.4,2-2.6,2c-1,0-2-0.5-2-1.7v-0.2c0.4-4.5,0.4-7.5,0.4-10c0-4.5-0.4-7.7-0.7-9.1
			c0-0.1-0.1-0.2-0.1-0.3c0-0.1,0.1-0.2,0.1-0.2c0.5,0,4.8,1.8,6,2.6l0.1,0.1H59c0.2,0,0.5-0.1,0.8-0.5c0.2-0.4,1.4-1.9,2-1.9
			c0.3,0,4.9,2,4.9,3.5c0,0.5-0.6,1-1.3,1.4c-1.1,0.7-1.1,1.1-1.1,3.1c0,2.3,0.2,5.8,0.4,9.4C64.7,62.6,64.7,62.8,64.7,62.8z
			 M56.7,17.5c-1.9,0-3.8,0.1-6.6,0.5H50c-0.8,0-2.3-2-2.3-2.9c3.5,0.7,6.9,0.8,8.8,0.8h1c0.1,0,0.4-0.2,0.6-0.5
			c0.5-1,2-3.2,2.7-3.2c0.1,0,0.2,0,0.3,0.1c0.8,0.4,4.3,2.8,4.3,4.3c0,0.4-0.2,0.8-1.1,0.8C64.3,17.5,56.7,17.5,56.7,17.5z
			 M56.7,33.3c-1.9,0-3.8,0.1-6.6,0.5H50c-0.7,0-2.3-1.9-2.3-2.9c3.5,0.7,6.9,0.8,8.8,0.8h1.1c0.1,0,0.5-0.2,0.7-0.5
			c0.5-0.8,1.9-3,2.7-3c0.1,0,0.2,0,0.2,0.1c0.7,0.3,4.2,2.8,4.2,4.1c0,0.4-0.2,0.8-1.1,0.8H56.7z M56.7,41.2
			c-1.9,0-3.8,0.1-6.6,0.5H50c-0.8,0-2.3-2-2.3-2.9c3.5,0.7,7,0.8,8.9,0.8h1c0.1,0,0.5-0.2,0.7-0.5s1.9-3,2.6-3c0.2,0,0.3,0,0.4,0.1
			c1.5,0.7,4.1,3.1,4.1,4.1c0,0.4-0.2,0.8-1.1,0.8H56.7z M60.2,60.2c0.1-2.6,0.1-4.8,0.1-6.8c0-1.3-0.1-2.5-0.1-3.6
			c0-0.4-0.2-0.8-0.7-0.8h-6L53,49.4c-0.7,0.4-0.7,0.5-0.7,1.7c-0.1,1.7-0.1,3.5-0.1,5.3c0,1.3,0.1,2.6,0.1,3.8
			C52.3,60.2,60.2,60.2,60.2,60.2z M93.1,63.3c0,1.4-1.6,2.1-2.6,2.1s-2-0.5-2-1.8v-2.5H75.9v2.6c0,1.1-1,2.1-2.8,2.1
			c-1,0-2-0.5-2-1.7v-0.2c0.5-5.5,0.5-11.8,0.5-14.6c0-0.8-0.1-5-0.6-7.2C71,41.8,71,41.7,71,41.6s0.1-0.1,0.1-0.1
			c0.2,0,4.3,1.4,6,2.6h0.1c0,0,0.1,0,0.1,0.1h2.8c0.1-2.6,0.1-7.1,0.1-11.2c-2.9,0.1-7.6,0.2-11.3,0.5h-0.1c-0.8,0-2.5-2.2-2.5-2.9
			c4.6,0.5,10.4,0.8,13.8,0.8c0-2.8-0.1-5.2-0.1-6.3c-0.1-1.5-0.1-3.4-0.2-4.6c-3.8,0.3-7.7,0.5-11,0.5c-1,0-1.4-0.2-1.4-0.4
			s0.4-0.4,1.3-0.5c0.4-0.1,17.9-2.8,21.5-6.5c0.1-0.1,0.2-0.2,0.3-0.2c0.1,0,0.1,0.1,0.2,0.1c0,0,3.8,3.6,3.8,5.1
			c0,0.4-0.2,0.7-0.8,0.7c-0.4,0-0.8-0.1-1.5-0.4C92.2,19,91.9,19,91.6,19h-0.3c-1.7,0.4-3.8,0.8-6.2,1.1l0.4,0.1
			c0.6,0.2,0.8,0.5,0.8,0.8c0,0.4-0.4,0.8-0.8,1c-1,0.4-1.1,0.5-1.2,2s-0.1,4.4-0.1,7.6h4.9c0.3,0,0.7-0.2,0.9-0.5
			c1.6-2.5,2.7-3.8,3.2-3.8c0.1,0,0.2,0.1,0.4,0.1c0.9,0.3,5.3,3.5,5.3,5.1c0,0.4-0.3,0.7-1.3,0.7H84.3c0,4.1,0,8.5,0.1,11.2h2.9
			c0.2,0,0.5-0.1,0.8-0.4c1.3-1.7,1.7-2,2.1-2c1.1,0,5,2.5,5,3.7c0,0.5-0.5,1-1.3,1.4c-1,0.5-1.2,0.7-1.2,3.9s0.2,8.9,0.5,12.4
			C93.1,63.1,93.1,63.3,93.1,63.3z M88.5,59.5c0.1-2.5,0.1-5,0.1-7.2s0-4.3-0.1-5.7c0-0.4-0.2-0.8-0.8-0.8H77.1l-0.4,0.3
			C76,46.7,76,46.5,75.9,48c-0.1,1.7-0.1,4-0.1,6.4c0,1.7,0.1,3.5,0.1,5.1C75.8,59.5,88.5,59.5,88.5,59.5z"/>
		<path d="M160.4,57.6c0.1,0,0.2,0.1,0.2,0.1c0,0.5-4,3.4-4.9,5.4c-0.2,0.6-0.7,1-1.4,1.1C152,64.4,146.2,65,140,65
			c-7.3,0-22.1-0.2-27.2-13.8c-2.6,10-8.4,15.1-9.8,15.1c-0.1,0-0.1-0.1-0.1-0.1c0-0.2,0.2-0.6,0.7-1.1c4.2-4.8,6.2-15.2,6.2-19.1
			c0-0.7,0-1.3-0.1-2.1c0-0.1-0.1-0.2-0.1-0.4c0-0.1,0.1-0.1,0.4-0.1c1.4,0,5.9,0.8,5.9,1.9c0,0.3-0.4,0.6-1.1,0.9
			c-0.8,0.4-1,0.2-1.3,1.9c-0.1,0.5-0.1,1-0.2,1.6c0.8,2.1,2.2,4,4,5.6c0.1-1.7,0.1-4.2,0.1-6.4c0-1.5,0-6.7-0.2-8.8h-0.6
			c-1.6,0-4.9,0.1-8.8,0.5h-0.1c-0.9,0-2.5-2.1-2.5-2.8c4.9,0.8,9.8,0.8,11.4,0.8h7.6c0.2,0,0.5-0.2,0.7-0.5
			c0.6-0.9,1.5-1.9,2.2-2.5c0.2-0.1,0.4-0.2,0.5-0.2c0.1,0,0.2,0.1,0.3,0.1c1.7,0.7,4.2,2.7,4.2,3.8c0,0.4-0.2,0.8-1.1,0.8h-8.8
			c0.3,0.1,0.4,0.3,0.4,0.5c0,0.3-0.3,0.6-0.8,0.8c-0.8,0.3-0.8,0.5-0.8,6.3h2.3c0.2,0,0.5-0.2,0.7-0.5c0.5-1,1.4-2.2,1.9-2.8
			c0.1-0.1,0.2-0.2,0.4-0.2c0.1,0,0.2,0,0.2,0.1c1.4,0.7,3.9,2.9,3.9,4.3c0,0.4-0.2,0.7-1,0.7h-8.4v8.6l1.1,0.5l0.4-0.1
			c4-1.1,14.2-5.2,16.4-10c0.1-0.2,0.2-0.4,0.3-0.4c0.8,0,4.8,3.3,4.8,3.9c0,0.4-0.5,0.7-1.5,0.7H142c-0.4,0-0.8,0.1-1.2,0.3
			c-5.3,3.5-11.9,5.4-17.2,6.1c3.2,1.3,7.4,1.9,13,1.9c7.4,0,16.3-1.1,23.2-3C160.1,57.7,160.3,57.6,160.4,57.6L160.4,57.6z
			 M130.3,17.6c0,0.5-0.5,1-1.3,1.4c-0.8,0.5-1,0.5-1,4c0,2.8,0.2,5.7,0.4,9.4v0.1c0,1.3-0.9,2.4-2.5,2.4c-1,0-1.8-0.6-1.8-1.9v-0.7
			h-10.6v1.3c0,1.3-1.4,2.2-2.6,2.2c-1,0-1.8-0.5-1.8-1.7v-0.2c0.4-4.9,0.4-7.9,0.4-10.4c0-5.6-0.5-8.7-0.7-9.2
			c0-0.2-0.1-0.2-0.1-0.4s0.1-0.2,0.2-0.2s3.9,1.4,5.6,2.7l0.1,0.1h8.2c0.4,0,0.7-0.3,0.8-0.5c1-1.5,1.4-1.9,1.9-1.9
			C126.1,14,130.3,16.1,130.3,17.6L130.3,17.6z M124.2,18.8c0-0.4-0.2-0.8-0.9-0.8h-8.6l-0.4,0.3c-0.8,0.6-0.8,1-0.8,5.1h10.7
			C124.3,21.8,124.3,20.3,124.2,18.8z M113.5,25v5.8h10.7c0.1-2.2,0.1-4.1,0.1-5.8H113.5z M158.3,17.6c0,0.4-0.3,0.7-1.2,0.7H146
			c2.1,0.6,2.1,0.8,2.1,1.1c0,0.4-0.5,0.7-1.6,0.9c-0.7,0.1-1,0.5-1.2,0.8c-0.8,1.2-1.8,2.5-2.7,3.5h5.6c0.2,0,0.5-0.1,0.7-0.4
			c1.4-1.6,1.6-1.7,1.9-1.7c1.1,0,4.9,2.3,4.9,3.4c0,0.5-0.5,0.9-1.3,1.3c-1.2,0.7-1,0.9-1,2c0,0.7-0.1,1.5-0.1,2.5
			c0,3.9,0.2,10.1,0.5,14.6v0.1c0,1.7-1.7,2.2-2.7,2.2s-1.9-0.5-1.9-1.7v-0.1l0.1-0.6h-10.9l0.1,0.5v0.1c0,1.2-1.3,1.9-2.6,1.9
			c-1,0-1.9-0.5-1.9-1.7v-0.2c0.4-4.6,0.5-9.5,0.5-13.1c0-1.7-0.1-3-0.1-3.9c0-0.7-0.2-5-0.7-7.4c-0.1-0.2-0.1-0.2-0.1-0.4
			c0,0,0-0.1,0.1-0.1c0.5,0,4.5,1.6,5.9,2.6h1.1c0.4-2.1,0.6-5.2,0.6-5.7v-0.6c-2.6,0.1-5.5,0.2-8.2,0.5h-0.1
			c-0.9,0-2.5-2.1-2.5-2.8c5.2,0.7,12.4,0.8,15.4,0.8h3.1c0.2,0,0.6-0.2,0.8-0.5c0.2-0.4,2.3-3.4,3-3.4c0.1,0,0.2,0.1,0.4,0.1
			C155.2,13.7,158.3,16.4,158.3,17.6z M138.6,32.8c0,1.5-0.1,3.1-0.1,4.9h11c0-1.7,0.1-3.4,0.1-4.9H138.6z M138.5,39.1
			c0,1.9,0.1,3.7,0.1,5.5h10.9c0-1.8,0.1-3.7,0.1-5.5H138.5z M149.5,26.8c0-0.3-0.3-0.7-0.7-0.7h-9.1c-0.1,0.1-0.3,0.2-0.5,0.3
			c-0.5,0.3-0.5,0.4-0.5,1.4c0,0.9-0.1,2.1-0.1,3.5h10.9C149.5,29.4,149.5,27.8,149.5,26.8L149.5,26.8z M157.4,54.8
			c0,1.4-1.1,2.5-2.3,2.5c-0.9,0-1.9-0.5-2.8-1.9c-1.8-2.8-4.6-4.7-7.1-6.3c-0.3-0.2-0.5-0.4-0.5-0.4s0.2-0.1,0.5-0.1
			C145.6,48.6,157.4,49.7,157.4,54.8z"/>
		<path d="M190.5,23c-0.7,0-1.3,0.1-2,0.1c1.5,1.2,2.5,4.3,2.5,8.2c0,12.5-10,26.3-15.7,26.3c-3.2,0-4.4-4.3-6.7-7.7
			c-1-1.4-1.4-3.4-1.4-5.6c0-9.1,7.8-23.5,24.2-23.5c13.7,0,21,9.4,21,19.3c0,5.4-2.2,11-6.7,15.2c-7.7,7.2-19.1,8-19.6,8
			c-0.6,0-0.8-0.1-0.8-0.2c0-0.3,0.9-0.7,2.7-1.2c10.5-2.9,19.9-10.4,19.9-22.1c0-8.9-6.3-16.9-17.1-16.9H190.5z M185,23.8
			c-9.2,2.7-14.6,11.3-14.6,18.8c0,5.3,2.7,9.3,5.3,9.3c4.1,0,12.7-12.5,12.7-23.2c0-2.7-0.4-5.2-2.2-5.2c-0.2,0-0.4,0-0.5,0.1
			s-0.4,0.1-0.5,0.1C185.3,23.7,185,23.7,185,23.8z"/>
		<path d="M243.7,26c0,0.4-0.4,0.8-1.4,1.3c-0.9,0.5-1.2,0.4-1.4,2.2c-4.1,30.1-24.4,36.1-24.5,36.1c-0.1,0-0.1-0.1-0.1-0.1
			c0-0.2,0.5-0.8,1.3-1.3c14.2-9.4,17.9-29.9,17.9-37.7c0-1.1-0.1-2-0.2-3.2v-0.2c0-0.1,0-0.1,0.1-0.1C236.5,23,243.7,24.6,243.7,26
			z M274.6,60.3c0,0.7-6.5,0.7-8.3,2.5c-0.2,0.2-0.6,0.4-1,0.4c-0.2,0-0.5-0.1-0.7-0.2c-8.1-6.5-14.9-19.4-15.1-43.2
			c0-0.7-0.6-1.2-1.2-1.2H247c-1.7,0-5.6,0.2-9,0.7H238c-0.8,0-2.8-2.5-2.8-3.2c4.4,0.7,9.9,1,11.7,1h1.6c0.4,0,0.7-0.2,1-0.5
			c1-1.3,1.7-2,2.2-2c0.3,0,4.6,2.2,4.6,3.8c0,0.7-0.7,1.1-1.6,1.4c-1.9,0.6-3.5,0.5-3.5,1.5v0.1c1.9,20.3,9.2,33.2,23,38.8
			C274.4,60.1,274.6,60.2,274.6,60.3L274.6,60.3z"/>
		<path d="M332,63c0,0.4-0.2,0.8-1.3,0.8h-32.4c-3.2,0-12.1,0.1-17.2,0.7h-0.1c-1.1,0-2.9-2.3-2.9-3.1c5.9,0.7,17.1,0.9,20.5,0.9
			h3.7c0.1-1.8,0.1-3.7,0.1-5.8h-1.4c-3.2,0-8.9,0.1-14,0.6H287c-1.1,0-2.9-2.3-2.9-3C290,54.8,298,55,301.4,55h1.1
			c0-2.1,0.1-4.3,0.1-6.4h-9.2v1.3c0,1.3-1.4,2.1-2.8,2.1c-1,0-2-0.5-2-1.8V50c0.4-4.7,0.5-8.2,0.5-11c0-5-0.5-8.4-0.8-9.5
			c-0.1-0.2-0.1-0.3-0.1-0.4c0-0.1,0.1-0.2,0.1-0.2c0.7,0,4.9,1.8,6.2,2.8l0.2,0.2h7.7c0-2.2-0.1-4-0.1-5.5h-3.6
			c-3.2,0-11.8,0.1-17,0.7h-0.1c-1.1,0-2.9-2.3-2.9-3.1c5.9,0.7,16.9,0.9,20.2,0.9h3.3v-0.5c-0.1-1.6-0.1-3.2-0.3-4.7
			c-4.7,0.4-9.7,0.5-14,0.5c-5,0-5.7-0.2-5.7-0.5c0-0.2,0.4-0.4,1.3-0.4c7.9-0.5,22.1-2.7,29.3-5.1c1.3-0.4,2.2-1,2.9-1.4
			c0.3-0.2,0.4-0.3,0.5-0.3c0.6,0,4.5,4,4.5,5.3c0,0.5-0.4,0.7-1,0.7c-0.4,0-0.8-0.1-1.3-0.2c-0.3-0.1-0.7-0.2-1.1-0.2h-0.2
			c-2.3,0.4-5.5,0.8-8.9,1.2c0.4,0.2,0.5,0.4,0.5,0.7c0,0.4-0.4,0.7-1,1c-0.8,0.4-1,0.5-1,2.4c0,0.4-0.1,1-0.1,1.7h14.1
			c0.4,0,0.8-0.2,1-0.5c1.6-2.3,2.8-3.8,3.4-3.8c1.3,0,5.9,3.6,5.9,5.1c0,0.4-0.2,0.8-1.3,0.8h-23.2c0,1.6-0.1,3.4-0.1,5.5h8.8
			c0.4,0,0.7-0.2,0.8-0.5c0.4-0.5,1.1-1.3,1.4-1.6c0.2-0.2,0.4-0.3,0.7-0.3c0.9,0,5.2,2.7,5.2,3.8c0,0.5-0.7,1-1.6,1.4
			c-1.1,0.5-1.1,0.7-1.1,3.8c0,2.7,0.2,5.8,0.5,9.2v0.1c0,1.4-1.4,2.3-2.7,2.3c-1,0-1.9-0.5-2-1.7h-10.1V55h9.3c0.4,0,0.8-0.2,1-0.5
			c1.3-1.7,2.8-3.5,3.2-3.5c1.7,0,5.7,3.5,5.7,4.8c0,0.4-0.2,0.8-1.3,0.8h-18c0,2.2,0.1,4.1,0.1,5.8h14.9c0.4,0,0.8-0.2,1-0.5
			c0.5-0.7,2.7-3.9,3.5-3.9C327.8,57.8,332,61.7,332,63L332,63z M302.6,33.4h-7.8c-0.2,0.1-0.4,0.3-0.6,0.4c-0.9,0.6-1,0.7-1,5.3
			h9.4C302.6,39,302.6,33.3,302.6,33.4z M302.6,40.6h-9.4c0,2,0.1,4.3,0.1,6.5h9.2V40.6z M316.8,34.1c0-0.4-0.2-0.8-0.8-0.8h-9.2
			v5.7h10.2C316.9,37.3,316.9,35.7,316.8,34.1L316.8,34.1z M306.7,40.6v6.5h10.1c0.1-2.4,0.1-4.6,0.1-6.5H306.7L306.7,40.6z"/>
		<path d="M347.2,32.3c0,1.4-1.1,2.7-2.4,2.7c-0.7,0-1.6-0.4-2.3-1.4c-1-1.3-3.1-3.4-4.8-4.3c-0.5-0.3-0.7-0.5-0.7-0.6
			c0-0.4,3-0.4,3.1-0.4C346.7,28.3,347.2,31.4,347.2,32.3z M347.2,53.7c0,1.4,0.2,2.9,0.7,4.3c0.4,1,0.6,2,0.6,2.8
			c0,2.2-1.2,3.5-2.7,3.5c-1.4,0-2.8-1.3-2.8-4.3v-0.6c0.1-1.7,0.5-3.5,0.5-5.1c0-2.3-0.8-4.3-4.6-5.2c-1-0.2-1.6-0.5-1.6-0.7
			s0.6-0.3,1.6-0.4c2.5-0.1,4.1-0.4,4.9-2.6c3.2-8.6,11.9-30.4,13.3-30.4c0.1,0,0.1,0.1,0.1,0.2c0,0.2-0.1,0.7-0.4,1.3
			C354.2,24.2,347.2,45.2,347.2,53.7z M351.6,20c0,1.6-1.1,2.8-2.5,2.8c-0.9,0-1.8-0.5-2.6-1.9c-0.8-1.4-2.6-3.7-4.3-5
			c-0.4-0.3-0.7-0.5-0.7-0.7c0-0.2,1.4-0.2,1.5-0.2C347.2,15.1,351.6,16.7,351.6,20z M370.6,36.1c0,1.7-1.2,2.9-2.3,2.9
			c-0.8,0-1.7-0.7-1.9-2.3c-0.2-1.7-1-3.8-2-5.3c-0.1,16.7-2,28.6-16.6,34.4c-1,0.4-1.7,0.6-2.1,0.6c-0.1,0-0.2,0-0.2-0.1
			c0-0.2,0.5-0.5,1.6-1.2c10.9-6.1,13.2-16.1,13.2-33.8c0-3.3-0.1-13.4-0.8-16.7c-0.1-0.2-0.1-0.3-0.1-0.4c0-0.1,0.1-0.2,0.2-0.2
			c0.7,0,7.3,1.4,7.3,2.8c0,0.3-0.2,0.7-1,1c-1.3,0.7-1.6,0.6-1.6,2.5v0.8c0.1,3.2,0.1,6.2,0.1,9.1c0.1,0,0.1,0.1,0.2,0.1
			C366.9,31.1,370.6,33.1,370.6,36.1z M353.6,41.3c-1.1,0-2.1-0.8-2.1-2c0-0.7,0.4-1.6,1.1-2.4c2.2-2.3,3-5.3,3-7.9v-0.2
			c0-0.7,0.1-0.9,0.1-0.9c0.4,0,2,3.2,2,6.8C357.8,39,355.7,41.3,353.6,41.3z M382.4,36.2c0,1.7-1.3,2.9-2.4,2.9
			c-0.8,0-1.6-0.7-1.9-2.3c-0.3-1.8-1.2-4.2-2.3-5.7l-0.2-0.3v4c0,8.8,0.1,19,0.3,23.5v0.1c0,1.2-1.3,2.4-2.6,2.4
			c-1,0-1.9-0.6-1.9-2.1v-0.1c0.2-6.5,0.5-19.5,0.5-28.3c0-2.3,0-11.2-0.7-14.2c-0.1-0.2-0.1-0.3-0.1-0.4c0-0.1,0.1-0.2,0.2-0.2
			c1.3,0,7,1.4,7,2.6c0,0.4-0.3,0.8-0.9,1.1c-1.3,0.7-1.4,0.2-1.6,2.6c-0.1,1.9-0.2,5-0.2,8.5C376.1,30.3,382.4,32.2,382.4,36.2
			L382.4,36.2z M388.1,19.8c-0.2,2.6-0.2,7.4-0.2,13.1c0,10.1,0.2,22.9,0.4,30.2v0.1c0,1.4-1.5,2.4-2.8,2.4c-1.1,0-2-0.6-2-2.1v-0.1
			c0.2-8.1,0.5-22.5,0.5-32.5c0-7.3-0.1-14.5-0.7-16.9c-0.1-0.2-0.1-0.3-0.1-0.4s0-0.1,0.1-0.1c0.6,0,7.2,1.1,7.2,2.6
			c0,0.4-0.3,0.8-0.9,1.1C388.4,17.9,388.3,17.5,388.1,19.8z"/>
		<path d="M425.1,38.7c0,0.8-0.1,3.3-1.6,11c3.7-0.4,7.4-0.7,10.4-0.9c2.3-0.1,2.9-0.9,4.6-0.9c1,0,7.5,1.4,7.5,4c0,1-1,1.8-2.5,1.8
			c-0.4,0-0.7,0-1.1-0.1c-3.4-0.8-7.2-1.1-11-1.1c-7.6,0-15.2,1.2-20.3,2.3c-2,0.5-2.8,0.8-3.9,0.8c-2.8,0-7.9-2-7.9-5
			c0-0.8,0.2-1.1,0.5-1.1s0.9,0.3,1.6,0.6c1.9,0.9,4.5,1.3,6.2,1.3c0.3,0,0.8,0,12.2-1.3c0.4-2.4,0.6-6.2,0.6-8.7c0-1.9-0.2-5-1.4-6
			c-4.4,0.8-5.5,0.8-5.8,0.8c-3.4,0-5.9-1.4-5.9-3.6c0-0.6,0.2-1.6,0.7-1.6c0.3,0,0.7,0.3,1.2,0.7c1,0.7,2.6,1,4.5,1
			c5,0,11.9-1.9,13.1-2.2c2.2-0.7,2.9-1.9,5.1-1.9c2,0,5.3,1,5.3,2.6c0,1-1.1,2-3.2,2c-2.9,0.1-7.1,0.7-11.1,1.4
			C425,35.7,425.1,37.4,425.1,38.7z"/>
		<path d="M460.4,41.6c0-0.3,0.1-0.6,0.1-1c0.2-2.8,0.4-4.5,0.4-6.5c0-7.1-0.6-11-3.2-11.2c-0.8-0.1-1.5-0.3-1.5-0.8
			c0-0.4,1-1.7,3-1.7c1.2,0,6.5,1.9,6.5,4.2c0,0.4-0.2,0.8-0.4,1.3c-0.4,0.8-0.4,2.5-0.4,3.2c0,6.7,0.3,9.7,0.4,10.4
			c0.1,0.5,0.1,1,0.1,1.3c0,0.9-0.5,4.7-2.7,4.7C461.5,45.5,460.4,44.3,460.4,41.6L460.4,41.6z M456.6,65.3c-0.1,0-0.2-0.1-0.2-0.1
			c0-0.2,0.7-0.7,2.3-1.8c8.6-5.3,14.5-16.1,14.9-29.1c0.1-2.6,0-4.5,0.2-7.4c0.1-0.7,0.1-1.3,0.1-1.9c0-4.2-1.1-5.3-2.5-5.5
			c-0.7-0.1-1.4-0.3-1.4-0.8c0-0.3,0.8-1.7,2.8-1.7c2.6,0,7.3,3.1,7.3,4.8c0,0.7-0.5,1.4-0.8,2.3c-0.9,2.5-1.1,5-1.2,10.8
			C477.7,58.1,458.4,65.3,456.6,65.3L456.6,65.3z"/>
		<path d="M511.4,29.4c0.7,0,1.3,0.2,2.1,0.4c2,0.5,3.1,1.4,3.2,3.4c2-1.5,8.8-7,8.8-8.6c0-0.7-0.7-1-1.4-1
			c-2.8,0-11.5,1.1-18.2,3.3c-1.9,0.6-2.9,1.1-4.3,1.1c-1.1,0-7.9-1.7-7.9-5.6c0-0.6,0.2-1,0.7-1c0.3,0,0.7,0.2,1.1,0.6
			c1,0.9,3.1,1.3,5.5,1.3c1,0,2-0.1,3.1-0.2c5.8-0.6,13.3-1.7,18.5-2.1c2.2-0.2,2.3-1,3.2-1c1.6,0,7.7,3,7.7,5.6
			c0,1.6-3,1.9-4.2,2.6c-3.9,2.5-9.1,5.2-12.8,6.8c-1.6,9-11,23.8-24.1,27.8c-1.3,0.4-1.9,0.5-2.2,0.5c-0.1,0-0.2,0-0.2-0.1
			c0-0.2,0.7-0.6,1.8-1.3c11.3-6.4,19.4-21.8,19.4-27.7c0-1.7-0.7-2.4-1.7-2.4c-1.3,0-1.7-0.3-1.7-0.7c0-0.8,2-2,3.4-2H511.4
			L511.4,29.4z"/>
		<path d="M545.6,50c0-2.1,0.2-4.1,0.6-6.1c0.8-4.1,2-7.8,2.7-11.3c0.3-1.5,0.4-2.9,0.4-4.1c0-2.6-0.5-4.6-1.1-5.7
			c-0.4-0.7-0.8-1.2-0.8-1.5s0.3-0.4,1.2-0.4c1.9,0,5,2.6,5,7.1c0,2-0.7,4-1.7,6.5c-1.5,3.7-3.3,8.2-3.3,12.3c0,1.4,0.4,3.7,0.9,3.7
			c0.2,0,0.4-0.3,0.7-0.9c1.5-3.2,5.6-11.2,6.2-11.2c0.1,0,0.1,0.1,0.1,0.2c0,0.2-0.1,0.7-0.4,1.4c-0.8,2-4.1,10.6-4.1,15.7
			c0,1.3,0.2,2.3,0.4,3.2c0.1,0.4,0.2,0.8,0.2,1.2c0,1.5-0.9,2.4-1.9,2.4C546.5,62.6,545.6,52.9,545.6,50L545.6,50z M582.3,54.1
			c2.3,0,3.6,1.1,3.6,2.3c0,3.7-8.5,3.8-9.5,3.8c-10.3,0-13.6-5.3-13.6-8.3c0-0.4,0.1-0.6,0.2-0.6c0.3,0,0.7,0.4,1.3,1.2
			c1.2,1.7,5.2,2.9,9.7,2.9c1.2,0,2.4-0.1,3.6-0.2c1.4-0.2,2.4-1,4.4-1H582.3L582.3,54.1z M573.1,32.7c-9,0-9.5-5.4-9.5-5.8
			c0-0.2,0.1-0.2,0.2-0.2s0.6,0.2,1.1,0.5c1.7,1,3.9,1.4,6.1,1.4c1.7,0,3.4-0.2,5-0.6c0.8-0.2,1.4-0.6,2.2-0.7
			c0.4-0.1,0.8-0.1,1.1-0.1c1.9,0,3.1,1,3.1,2.1C582.6,32.2,576.1,32.7,573.1,32.7z"/>
		<path d="M80,128.8c0,0.4-0.3,0.7-1.3,0.7H68.3c0,1-0.1,2.2-0.1,3.4h0.1c7,0.4,8.9,2.9,8.9,4.8c0,1.2-0.9,2.2-2,2.2
			c-0.7,0-1.6-0.4-2.3-1.5c-1.4-2-3.2-3.7-4.7-4.8c0,4.7,0.1,10.2,0.4,14.1v0.1c0,1.4-1.4,2.1-2.5,2.1c-1,0-1.9-0.5-1.9-1.7V148
			c0.2-3.8,0.4-8.6,0.4-12.8c-6.1,7.9-14.2,10.2-14.5,10.2c-0.1,0-0.2-0.1-0.2-0.1c0-0.2,0.3-0.4,1-0.8c5-3.1,11.5-10.7,13.2-14.9
			c-2.5,0-4.9,0.2-8.8,0.5h-0.1c-1,0-2.5-2.2-2.5-2.9c4.9,0.6,8.8,0.8,11.9,0.8v-1.4c-0.1-1.6-0.1-3.7-0.5-5
			c-0.1-0.2-0.1-0.4-0.1-0.5c0-0.1,0.1-0.1,0.2-0.1c0.5,0,6.5,0.7,6.5,2c0,0.4-0.4,0.8-1,1.1c-1,0.5-1.2,0.3-1.3,1.9l-0.1,2h3.5
			c0.2,0,0.7-0.2,0.9-0.5c1.9-2.8,2.4-2.8,2.5-2.8C76.1,124.6,80,127.6,80,128.8L80,128.8z M80.8,119.3c0,0.4-0.3,0.8-1.1,0.8H65.5
			c-2.8,0-6.5,0.1-11,0.5h-0.1c-0.9,0-2.5-2.2-2.5-2.9c5.3,0.7,10.7,0.8,13.7,0.8h0.8c2.8-5.8,3.4-9,3.5-11c0.1-0.4,0-0.6,0.1-0.6
			c0.4,0,6.1,2.4,6.1,3.5c0,0.4-0.5,0.8-1.7,0.8c-0.8,0.1-0.8,0.2-1.3,0.8c-1.1,1.4-3.1,4-5.2,6.4h4.7c0.1,0,0.5-0.2,0.7-0.5
			c0.4-0.7,2-3.2,2.7-3.2c0.2,0,0.3,0.1,0.4,0.1C78.4,115.8,80.8,118.6,80.8,119.3L80.8,119.3z M79.2,105.3c0,0.4-0.2,0.8-1.2,0.8
			H66.5c-3.1,0-5.2,0.1-10.1,0.5h-0.1c-1,0-2.3-2.2-2.3-2.9c4.4,0.6,7.6,0.8,10.4,0.8V103c-0.1-2.1-0.1-4.7-0.5-6.5
			c-0.1-0.2-0.1-0.4-0.1-0.4c0-0.1,0.1-0.1,0.2-0.1c0.7,0,7.1,0.8,7.1,2.1c0,0.4-0.4,0.8-1.3,1.3c-1.1,0.6-1.2,0.7-1.2,5.1h2.6
			c0.2,0,0.6-0.2,0.8-0.5c0.6-1.1,1.2-2,2.1-2.9c0.1-0.1,0.3-0.2,0.5-0.2C75.3,100.9,79.2,103.7,79.2,105.3L79.2,105.3z M65.1,113.8
			c0,1.5-1.1,2.6-2.3,2.6c-0.9,0-1.9-0.7-2.3-2.2c-0.5-1.4-1.8-3.8-2.9-5.2c-0.3-0.4-0.5-0.6-0.5-0.7c0,0,0.1-0.1,0.1-0.1
			C59,108.3,65.1,110.3,65.1,113.8z M107.2,116.7c0,0.4-0.3,0.8-1.2,0.8h-7.4c0.3,0.2,0.4,0.4,0.4,0.5c0,0.4-0.5,0.7-1,0.8
			c-0.6,0.2-0.9,2.8-0.9,8c0,6.5,0.2,16.1,0.4,21v0.1c0,1.1-1.6,1.8-2.9,1.8c-1.1,0-2-0.4-2-1.6V148c0.3-3.9,0.5-15.8,0.5-22.3
			c0-3.3-0.1-6.9-0.4-8.2h-5.8v2.5c-0.4,26.5-16.5,29.5-16.6,29.5s-0.1,0-0.1-0.1c0-0.2,0.4-0.5,1.3-1.1c9.7-6.5,11.2-19.4,11.2-28
			v-0.5c0-8,0-15.6-1-18.4c-0.1-0.1-0.1-0.2-0.1-0.3s0.1-0.1,0.1-0.1c0.4,0,4,1,6.7,2.3l0.1,0.1c4.9-2.8,7.4-5,8.3-6.4
			c0.1-0.2,0.2-0.4,0.4-0.4c0.7,0,5.2,4.3,5.2,5.4c0,0.4-0.3,0.5-0.9,0.5c-0.3,0-0.7-0.1-1.1-0.2c-0.3-0.1-0.6-0.2-0.9-0.2
			c-0.2,0-0.4,0.1-0.6,0.1c-1.6,0.5-7,2-10.7,2.7c-1,0.5-1.1,0.6-1.1,3.8v7.1h11.7c0.3,0,0.6-0.2,0.8-0.5c2.3-3.3,2.6-3.4,3-3.4
			C103.4,112,107.2,115.5,107.2,116.7z"/>
		<path d="M130,114.3c-3.1,8.8-5.8,17.5-7.7,26.3c-0.8,3.9-2.8,5.9-4.3,5.9c-1,0-2-1.3-2-3.1c0-1.3,0.6-2.7,1.6-4.5
			c2.6-4.7,9.4-23.6,9.6-24.7c-1.8,0.4-2.8,0.5-3.7,0.5c-6.4,0-8.3-4.4-8.3-5.9c0-0.3,0.1-0.4,0.3-0.4c0.3,0,0.7,0.3,1.2,0.5
			c1.6,0.8,3.8,1.9,6.6,1.9c1.8,0,3.5-0.4,4.6-0.7c0.2-1.1,0.2-2.2,0.2-3.2c0-2.2-0.4-3.9-1.7-4c-0.8-0.1-1.5-0.3-1.5-0.8
			c0-0.4,1-1.9,2.8-1.9c2.6,0,4,2.5,4.2,4.7c1.7,0.3,2.6,0.4,3.6,0.4h0.7c1.1,0,2,0.8,2,1.9c0,0.8-0.4,3.3-8,5.9
			C130.3,113.4,130,114.3,130,114.3z M131.6,109.1c0.3-0.1,2.3-1.1,2.3-2c0-0.4-0.2-0.8-1.9-1.4
			C132.1,106.7,131.9,107.9,131.6,109.1z M147.5,141.5c1.1,0,2.2-0.4,3.9-0.4c3.2,0,4.8,1.2,4.8,2.5s-1.7,2.8-6.4,2.8
			c-7.4,0-14-3.9-14-8.4c0-2.3,1.8-4.1,2.2-4.1c0.2,0,0.2,0.2,0.2,0.5c0,0.4-0.1,0.9-0.3,1.3c-0.1,0.3-0.2,0.7-0.2,1
			c0,2.5,4.2,5,9.5,5H147.5z M156.1,117.5c-3.4,0.6-5.2,1.1-8.9,4c-0.5,0.4-0.9,0.6-1.1,0.6c-0.1,0-0.1-0.1-0.1-0.1
			c0-0.2,0.1-0.5,0.4-0.8c3.2-4.1,3.7-4.8,3.7-5.5c0-1.4-3.3-2.2-4.6-2.2c-0.2,0-0.5,0-0.7,0.1c-0.8,0.2-1.5,0.3-1.9,0.3
			c-0.2,0-0.4,0-0.4-0.1c0-0.2,1.7-2.5,6-2.5c5.2,0,9.5,2.8,9.5,4.5C158.2,116.6,157.4,117.3,156.1,117.5z"/>
		<path d="M182.6,111.4c-0.8,0.2-1.6,0.3-2.3,0.4c-0.4,0-0.7,0.1-1,0.1c-5.5,0-7.6-4-7.6-5.9c0-0.2,0.1-0.4,0.3-0.4
			c0.3,0,0.7,0.3,1.1,0.5c1.9,1.1,3.9,2,6.2,2c2,0,3.9-0.5,4.3-0.6c0.1-0.9,0.2-1.8,0.2-2.6c0-3.5-0.8-3.7-1.6-3.7
			c-1.3,0-1.4-0.3-1.4-0.5c0-0.1,0.1-0.7,1.1-1.7c0.5-0.4,1.1-0.5,1.7-0.5c1.1,0,3.8,0.6,3.8,4.4c0.7,0.1,1.4,0.1,2,0.1
			c1.9,0,3.7,0.1,3.7,1.7c0,1.7-3.3,4.5-7.4,5.9c-1.7,4.2-4,9.5-9.1,20.8c-1,2.2-2.8,3.4-4.1,3.4c-1,0-1.7-0.5-1.7-1.7
			c0-0.8,0.4-1.9,1.4-3.4c3.2-4.8,8.3-11.9,10.5-17.9C182.5,111.7,182.6,111.4,182.6,111.4z M186.8,148.6c-4.7,0-8.1-3.7-8.1-6.7
			c0-4,5.3-6,10.8-6c1.3,0,2.7,0.1,4,0.4c0-2.4-0.2-4.9-0.2-7c0.1-5.2,1.3-7.9,5.6-10.9c1.6-1.1,3.5-2.6,3.5-4
			c0-0.7-0.2-0.9-1.8-2.5c-0.6-0.5-1-0.9-1-1.2c0-0.2,0.4-0.4,1.4-0.4c2.9,0,7.6,2.6,7.6,6.2c0,1.1-0.7,3.4-2.6,3.4
			c-0.6,0-1.2-0.1-1.9-0.3c-0.4-0.1-0.7-0.1-1.2-0.1c-0.8,0-7.4,0.1-7.4,6.1c0,1.6,0.3,4,1,8.9c0.1,0.9,0.2,1.9,0.3,2.8
			c3.3,1.1,8.8,4,8.8,7.6c0,1.4-0.9,2.6-2,2.6c-0.8,0-1.7-0.5-2.4-1.9c-1-1.7-2.6-3.3-4.6-4.5C195.8,145.3,191.3,148.6,186.8,148.6
			L186.8,148.6z M187.6,138.2c-4.1,0-7,1.7-7,3.5s2.6,3.1,5.4,3.1c3.5,0,6.9-2,7.4-5.5C191.5,138.6,189.5,138.2,187.6,138.2
			L187.6,138.2z M188,105.6c0.4-0.3,0.7-0.7,0.7-1.1c0-0.2-0.1-0.5-1.5-1c-0.1,0.9-0.2,1.8-0.5,2.9L188,105.6z"/>
		<path d="M224.1,147.6c0.7-7.8,1-20.3,1.1-28.3c0-1.1,0.1-2.9,0.1-4.6c-4.7,5.9-9.2,9.5-10,9.5c-0.1,0-0.2-0.1-0.2-0.1
			c0-0.2,0.2-0.5,0.7-1c4.5-4.8,12.8-18.1,13.9-25.7c0.1-0.3,0-0.5,0.2-0.5c0.6,0,6.5,2.4,6.5,3.8c0,0.4-0.6,0.8-1.9,1.1
			c-0.8,0.2-1,0.4-1.6,1.4c-1.4,2.4-2.8,4.7-4.3,7c2.4,0.5,3.1,0.8,3.1,1.3c0,0.4-0.5,0.8-1.2,1.1c-1.1,0.5-1.1,0.6-1.2,2.3
			c-0.2,4.6-0.3,12.2-0.3,19.5c0,4.8,0,9.5,0.1,13c0,1.5-1.3,2.8-2.9,2.8c-1.1,0-2.1-0.7-2.1-2.3L224.1,147.6L224.1,147.6z
			 M268,147.1c0,1.4-1.4,2.3-2.7,2.3c-1.1,0-2-0.6-2-2v-3.2h-23.5v3.1c0,1.1-1.3,2.2-2.7,2.2c-1,0-1.9-0.5-1.9-1.9v-0.2
			c0.4-5.8,0.5-17.6,0.5-23.3c0-3.4,0-7.3-0.8-10.7c-0.1-0.2-0.1-0.3-0.1-0.4c0-0.1,0.1-0.2,0.1-0.2c0.5,0,4.7,1.7,6.1,2.6l0.2,0.2
			h3.7v-7c0-1.1-0.1-2.6-0.2-3.9c-2.6,0.1-5.5,0.2-8,0.5h-0.1c-1,0-2.5-2.2-2.5-2.9c5.6,0.7,13.6,0.9,16.8,0.9h10.8
			c0.2,0,0.7-0.2,0.8-0.5c2.3-3.2,2.6-3.7,3.2-3.7c0.1,0,0.2,0,0.4,0.1c1.4,0.5,5.1,3.5,5.1,4.9c0,0.4-0.3,0.7-1.3,0.7h-10.7
			c0.2,0.1,0.3,0.2,0.3,0.4c0,0.2-0.2,0.5-0.8,0.8s-0.7,0.4-0.7,1.6c0,0.6-0.1,3.8-0.1,8.2h4.2c0.4,0,0.5-0.2,0.7-0.5
			c0.1-0.1,1.3-1.9,2-1.9s5.1,2.2,5.1,3.6c0,0.6-0.7,1.1-1.4,1.5c-1,0.5-1,1-1,4.6c0,6.1,0.2,19.2,0.5,23.9V147.1L268,147.1z
			 M244.9,142.7c0.1-3.7,0.1-16.6,0.1-25.4H241l-0.7,0.5c-0.7,0.4-0.7,0.5-0.7,13.9c0,3.7,0.1,7.7,0.1,11H244.9z M253.9,142.7
			c0.1-3.8,0.1-16.6,0.1-25.4h-5.1c0,9.1-0.1,21.8-0.1,25.4H253.9z M254,108.7c0-1.2-0.1-2.6-0.2-4h-3.6c0.2,0.1,0.3,0.3,0.3,0.4
			c0,0.3-0.3,0.6-0.8,0.8s-0.7,0.4-0.7,1.6c0,0.6-0.1,3.8-0.1,8.2h5.1V108.7z M263.2,142.7c0.1-5.2,0.1-11.9,0.1-17.1
			c0-3.4-0.1-6.2-0.1-7.6c0-0.4-0.2-0.7-0.7-0.7h-4.6c0,9.1-0.1,21.7-0.1,25.4H263.2z"/>
		<path d="M290.2,147.4c0,1.7-1.7,2.6-2.9,2.6s-2.2-0.7-2.2-2.3v-0.3c0.7-8.1,1.1-20.9,1.1-29.1v-3.2c-6.5,7.7-10.8,9.7-10.8,9.7
			c-0.1,0-0.1-0.1-0.1-0.1c0-0.1,0.2-0.5,0.7-1c5.8-5.8,14.3-20.6,15.2-26.8c0.1-0.4,0-0.5,0.2-0.5c0.6,0,6.8,2.7,6.8,4
			c0,0.5-0.6,0.9-2,1.2c-0.8,0.2-1,0.4-1.6,1.4c-1.6,2.8-3.3,5.3-5,7.8c2.2,0.5,3.1,0.7,3.1,1.3c0,0.4-0.5,0.8-1.3,1.2
			c-1,0.4-1,0.6-1,2c-0.2,4.4-0.3,11.9-0.3,19.1C290.1,139.1,290.1,143.8,290.2,147.4L290.2,147.4z M324.2,138.2c0,1.3-1.3,2-2.5,2
			c-1,0-1.9-0.5-1.9-1.7l0.1-1.4H310v2.2c0,1.1-1.3,1.8-2.5,1.8c-1,0-1.8-0.5-1.8-1.5v-0.2c0.4-3.9,0.4-18.5,0.4-21.4
			c0-0.8-0.2-5.2-0.7-7.3c-0.1-0.2-0.1-0.3-0.1-0.4c0-0.2,0.1-0.2,0.2-0.2c0.4,0,4.2,1.4,5.6,2.5l0.1,0.1l0.4-6h-2
			c-3.2,0-7.2,0.1-12.1,0.7h-0.1c-1,0-2.8-2.3-2.8-3.1c5.6,0.8,12,1,15.3,1h1.8v-0.4c0.1-0.8,0.1-1.9,0.1-2.9c0-1.7-0.1-3.5-0.4-4.9
			c-0.1-0.2-0.1-0.3-0.1-0.4c0-0.2,0.1-0.2,0.2-0.2c0.9,0,6.8,0.9,6.8,2.1c0,0.5-0.6,1-1.5,1.4c-0.7,0.3-0.9,0.5-1.2,5.3h5
			c0.4,0,0.8-0.2,1-0.5c0.1-0.2,2.4-3.7,3.2-3.7c1,0,5.5,3.5,5.5,5c0,0.4-0.3,0.7-1.3,0.7h-13.5c-0.2,2.2-0.3,4.5-0.4,6h3.4
			c0.2,0,0.5-0.2,0.8-0.5c0.5-0.8,1.6-1.7,1.8-1.7c0.5,0,4.8,2,4.8,3.3c0,0.5-0.4,0.8-1.1,1.3c-1,0.7-1.1,0.8-1.1,4.2
			c0,4.5,0.1,14.8,0.4,18.7L324.2,138.2L324.2,138.2z M300.6,145.6c0,0.7,0.1,1.3,0.1,1.7v0.1c0,1.7-2,2.3-2.6,2.3
			c-1,0-1.9-0.6-1.9-2v-0.2c0.2-4,0.4-16,0.4-23.6c0-5.2-0.1-8.6-0.5-10.9c-0.1-0.2-0.1-0.3-0.1-0.4c0-0.2,0.1-0.2,0.2-0.2
			c1.6,0,6.7,1.1,6.7,2c0,0.4-0.5,0.8-0.9,1.1c-1,0.6-1.5,4.8-1.5,12.6c0,5.5,0.1,11.8,0.1,15.8h20.9c0.3,0,0.7-0.2,0.9-0.5
			c0.7-1,2-2.8,2.9-3.5c0.1-0.1,0.4-0.2,0.6-0.2c0.1,0,0.2,0,0.4,0.1c2,0.7,5.3,3.8,5.3,4.9c0,0.4-0.3,0.7-1.3,0.7L300.6,145.6
			L300.6,145.6z M311.1,114.2c-0.1,0.1-0.3,0.2-0.5,0.3c-0.7,0.4-0.7,0.7-0.7,5.5h9.9c0-2.3,0-4.1-0.1-5.1c0-0.4-0.2-0.7-0.8-0.7
			H311.1L311.1,114.2z M319.9,121.5H310v5.9h9.9V121.5z M310,128.9c0,2.5,0.1,4.9,0.1,6.8h9.8c0-1.9,0.1-4.3,0.1-6.8H310z"/>
		<path d="M358.1,131.5c-4.8,3-6.7,6-6.7,8.3s2.5,5.2,7.5,5.2c2.2,0,4.7-0.5,6.9-1.7c0.7-0.4,1.4-0.5,2-0.5c1.5,0,2.5,1,2.5,2.1
			c0,2.8-5.3,4.3-9.7,4.3c-6.5,0-11.8-3.9-11.8-8.5c0-3.7,3.4-7.9,9.3-11.5c0-3.7-0.5-8.9-3.8-8.9c-1.4,0-3.2,1.1-5.3,4l-1.8,3.4
			c-1.3,2.3-2.7,4.7-4.4,4.7c-0.2,0-1.8-0.1-1.8-2.2c0-1.2,0.6-2.9,2.5-4.6c5.5-5,7.3-8.2,10-14.2l0.1-0.2l-0.1,0.1
			c-1.2,0.3-2.3,0.5-3.3,0.5c-5.8,0-7.4-4.1-7.4-5.7c0-0.2,0.1-0.3,0.2-0.3c0.3,0,0.7,0.2,1.5,0.8c1.8,1.3,3.5,1.6,5,1.6
			c1.8,0,3.7-0.4,5.3-1c0.1-0.7,0.1-1.3,0.1-1.7c0-1.4-0.2-3-2.3-3.5c-0.5-0.1-1.1-0.3-1.1-0.6c0-0.2,0.9-1.5,2.9-1.5
			c1.6,0,2.8,0.5,3.4,2.8h0.5c1.1,0.1,2,0.2,2.8,0.2c0.3,0,0.5-0.1,0.8-0.1c0.4-0.2,0.7-0.2,1-0.2c1.5,0,1.5,1.4,1.5,1.6
			c0,3.2-6,5.5-8.1,6.2l-0.1,0.3c-2,4.4-3.3,6.7-4.6,9.1c1.1-0.6,2.2-0.8,3.2-0.8c3.1,0,5.4,2.6,6.2,6.2c1.7-4.4,6.4-12.8,13.3-12.8
			c3.3,0,7.4,2.2,7.4,5.3c0,2.3-2.5,4.7-6.6,6.3c-4.2,1.6-9.4,3.6-13.4,5.6c0.2,1.4,0.2,2.8,0.2,4.3c0,0.7,0,1.5-0.1,2.2
			c-0.2,2.3-1.8,3.9-3.1,3.9c-0.9,0-1.7-0.8-1.7-2.8c0-0.2,0.1-0.5,0.1-0.7c0.1-1.5,0.9-2.1,1-4.1V131.5L358.1,131.5z M358,103.2
			c0.1,0.2,0.1,0.5,0.1,0.7c0,0.7-0.1,1.3-0.2,2c1.4-0.7,2.1-1,2.1-1.7c0-0.3-0.2-0.6-1.7-1L358,103.2L358,103.2z M373.3,121.3
			c2.6-1.4,3.8-2.9,3.8-4.2s-1.1-2.9-3.5-2.9c-5.5,0-10.6,8.5-12.2,13.3C365.1,125.5,369.8,123.3,373.3,121.3z"/>
		<path d="M99.7,196.4c0,1.1-1.1,2.4-2.9,2.4c-1.1,0-2.1-0.6-2.1-2v-1.2H64.5c-0.1,13.2-1.6,26.8-12.4,35.3c-0.8,0.6-1.6,1-1.8,1
			c-0.1,0-0.1,0-0.1-0.1c0-0.2,0.3-0.6,1-1.4c7.4-8.3,8.7-21.2,8.7-32.6c0-6.3-0.4-12.7-1.1-16.1c-0.1-0.2-0.1-0.4-0.1-0.5
			c0-0.1,0-0.1,0.1-0.1c0.4,0,4.6,1.3,7.1,2.9c0.1,0.1,0.2,0.2,0.2,0.2h27.2c0.4,0,0.8-0.4,1-0.6c1.2-1.6,1.7-2.1,2.3-2.1
			c0.7,0,5.4,2.6,5.4,4.1c0,0.6-0.7,1.1-1.8,1.6c-0.7,0.4-1,0.6-1,2c0,1.6,0.3,5.7,0.4,7.1V196.4z M94.7,186.6c0-0.7-0.4-0.9-1-0.9
			H66.1l-0.5,0.4c-0.8,0.5-1,0.8-1,1.6v6.2h30.2C94.7,193.9,94.7,186.6,94.7,186.6z M99.8,231.1c0,1.4-1.4,2.3-2.7,2.3
			c-1,0-2-0.6-2-1.9l0.1-2.2H72.1v2.6c0,1.3-1.4,2.1-2.6,2.1c-1,0-1.9-0.5-1.9-1.7v-0.2c0.4-4.9,0.5-11,0.5-15.2
			c0-1.9-0.1-3.5-0.1-4.4c0-0.8-0.2-5-0.7-7.1c-0.1-0.2-0.1-0.3-0.1-0.4c0-0.1,0.1-0.2,0.1-0.2c0.5,0,4.2,1.5,5.7,2.5l0.4,0.2h7.7
			c0-0.7-0.1-1.3-0.1-1.9c-0.1-1.6-0.1-5.5-0.6-7.7c-0.1-0.2-0.1-0.3-0.1-0.4c0-0.1,0.1-0.1,0.1-0.1c0.4,0,7.5,1,7.5,2.3
			c0,0.5-0.6,1-1.3,1.4c-1.2,0.7-1.3,0.8-1.4,6.4h8.9c0.2,0,0.3-0.1,0.5-0.4c1.4-1.8,1.8-1.8,1.9-1.8c0.4,0,5.2,2,5.2,3.4
			c0,0.5-0.6,1-1.3,1.4c-1.2,0.8-1.2,1-1.2,4.1c0,4.3,0.2,12.1,0.5,16.8C99.8,231,99.8,231.1,99.8,231.1z M81.2,209.1h-8l-0.5,0.3
			c-0.5,0.3-0.5,0.4-0.5,1.6S72,214.3,72,217h9.2V209.1z M81.2,218.5H72c0,2.9,0.1,6.2,0.1,9.2h9.1V218.5z M85.3,209.1
			c-0.1,2.3-0.1,5.1-0.1,7.9h10c0-3.2,0-5.9-0.1-7.2c0-0.5-0.3-0.7-0.7-0.7C94.4,209.1,85.3,209.1,85.3,209.1z M85.3,218.5v9.2h9.9
			c0-2.9,0.1-6.2,0.1-9.2H85.3z"/>
		<path d="M114.4,214c0-5.5,1.3-10.7,2-15.1c0.2-1.4,0.4-2.8,0.4-4c0-2.8-1.1-4-3.6-5.3c-0.6-0.3-1-0.7-1-1.1c0-0.2,0.4-0.9,1.9-0.9
			c3.7,0,6.7,4.9,6.7,7.1c0,1.3-0.4,2.5-1,4.1c-1.4,3.9-2.9,8.6-2.9,12.7c0,1.1,0.5,4.9,1.1,4.9c0.2,0,0.4-0.3,0.7-0.9
			c1.8-4.1,6.8-14.2,7.6-14.2c0.1,0,0.1,0.1,0.1,0.2c0,0.5-0.2,1.3-0.6,2.2c-4.5,10.4-4.7,15.8-4.7,17.5c0,1.5,0.2,3.1,0.6,4.2
			c0.2,0.5,0.3,1,0.3,1.4c0,1.2-0.8,1.9-1.7,1.9C117,228.6,114.4,221.8,114.4,214L114.4,214z M141.9,209.2l-0.1-7.6
			c-0.5,0.1-1.1,0.1-1.6,0.1h-1.5c-8.2,0-9-5-9-5c0-0.2,0.1-0.2,0.2-0.2c0.2,0,0.8,0.3,1.4,0.5c2,0.8,4.7,1,7.2,1h1
			c0.7,0,1.4-0.1,2.2-0.2v-3.1c0-3.4-0.3-6.3-2.5-6.3h-0.4c-1,0-1.3-0.2-1.3-0.6c0-0.5,1.3-1.9,3.2-1.9c1.4,0,5,1.4,5,4.9
			c0,0.2-0.1,0.5-0.1,0.8c1.1,0.3,2.4,0.5,3.3,0.7c0.8,0.1,1.6,0.1,2.1,0.2c1.1,0.2,1.9,1.1,1.9,2.3c0,3.1-4.4,5.2-7.8,6.1
			c0.1,2.6,0.3,5.2,0.5,7.7c0.1,0.8,0.1,1.7,0.1,2.5c0,18.5-17,23.6-18.8,23.6c-0.1,0-0.2,0-0.2-0.1c0-0.2,0.6-0.7,2.3-1.6
			c6.9-3.8,12.9-13.2,12.9-23.2L141.9,209.2L141.9,209.2z M145.6,192.7c0,0.1,0,0.2-0.1,0.4c-0.2,1.3-0.3,2.6-0.4,3.8
			c1-0.4,3.2-1.5,3.2-2.5c0-0.7-0.9-1.3-2.8-2.1V192.7L145.6,192.7z"/>
		<path d="M172.8,208.6c0.1,0,0.1-0.1,0.3-0.2c2.7-1.7,6.1-2.7,9.4-2.7c7.7,0,12.5,5.4,12.5,11.2s-5.5,13.7-16.6,13.7
			c-5.8,0-9.7-2.9-9.7-6.1c0-2.9,3-4.5,5.9-4.5c4,0,6.4,3.1,6.4,6.2c0,0.5-0.1,1-0.2,1.5c7-1.7,9.7-6.5,9.7-10.7c0-4.7-3.4-9-9.4-9
			c-2.1,0-9.1,0.5-13.1,9.1c-1.4,3.1-2.4,5-4.4,5c-1.1,0-1.9-0.8-1.9-2c0-1.7,2.2-4.3,5-7.5c3.6-4.1,12.1-15.5,14.6-19.7
			c0.3-0.4,0.4-0.8,0.4-1.1c0-0.4-0.2-1-1.5-1c-2.8,0-4.1,5.8-8.2,5.8c-2.2,0-4-1.4-4-3.7c0-0.7,0.1-1.2,0.5-1.2
			c0.3,0,0.7,0.1,1.1,0.3s1,0.2,1.4,0.2c0.8,0,1.7-0.2,2.5-0.8c2.3-1.6,5.1-3.6,8.3-3.6c3.5,0,5.7,2.5,5.7,3.8
			c0,1.2-1.3,2.3-2.6,3.2C180.6,198,172.8,208.4,172.8,208.6L172.8,208.6L172.8,208.6z M177.4,225.9c0-2.1-1.6-3.9-3.8-3.9
			c-2.6,0-2.7,2-2.7,2.3c0,0.2,0,3.1,6,3.7C177.2,227.3,177.4,226.6,177.4,225.9L177.4,225.9z"/>
		<path d="M220.6,198.3c-3.1,8.8-5.8,17.5-7.7,26.3c-0.8,3.9-2.8,5.9-4.3,5.9c-1,0-2-1.3-2-3.1c0-1.3,0.6-2.7,1.6-4.5
			c2.6-4.7,9.4-23.6,9.6-24.7c-1.8,0.4-2.8,0.5-3.7,0.5c-6.4,0-8.3-4.4-8.3-5.9c0-0.3,0.1-0.4,0.3-0.4c0.3,0,0.7,0.3,1.2,0.5
			c1.6,0.8,3.8,1.9,6.6,1.9c1.8,0,3.5-0.4,4.6-0.7c0.2-1.1,0.2-2.2,0.2-3.2c0-2.2-0.4-3.9-1.7-4c-0.8-0.1-1.5-0.3-1.5-0.8
			c0-0.4,1-1.9,2.8-1.9c2.6,0,4,2.5,4.2,4.7c1.7,0.3,2.6,0.4,3.6,0.4h0.7c1.1,0,2,0.8,2,1.9c0,0.8-0.4,3.3-8,5.9L220.6,198.3
			L220.6,198.3z M222.2,193.1c0.3-0.1,2.3-1.1,2.3-2c0-0.4-0.2-0.8-1.9-1.4C222.7,190.7,222.5,191.8,222.2,193.1z M238.1,225.5
			c1.1,0,2.2-0.4,3.9-0.4c3.2,0,4.8,1.2,4.8,2.5s-1.7,2.8-6.4,2.8c-7.4,0-14-3.9-14-8.4c0-2.3,1.8-4.1,2.2-4.1
			c0.2,0,0.2,0.2,0.2,0.5c0,0.4-0.1,0.9-0.3,1.3c-0.1,0.3-0.2,0.7-0.2,1c0,2.5,4.2,5,9.5,5H238.1z M246.7,201.5
			c-3.4,0.6-5.2,1.1-8.9,4c-0.5,0.4-0.9,0.6-1.1,0.6c-0.1,0-0.1-0.1-0.1-0.1c0-0.2,0.1-0.5,0.4-0.8c3.2-4.1,3.7-4.8,3.7-5.5
			c0-1.4-3.3-2.2-4.6-2.2c-0.2,0-0.5,0-0.7,0.1c-0.8,0.2-1.5,0.3-1.9,0.3c-0.2,0-0.4,0-0.4-0.1c0-0.2,1.7-2.5,6-2.5
			c5.2,0,9.5,2.8,9.5,4.5C248.8,200.6,248,201.3,246.7,201.5L246.7,201.5z"/>
		<path d="M277.5,211.5c2.2,0.7,3.2,1.7,3.2,2.8c0,0.8-0.7,1.7-2.3,1.7c-0.2,0-1.4,0-3.4-0.8c-3.2,4.4-7.6,8.7-11.5,8.7
			c-2.8,0-5.1-3.1-5.1-7.2s2.2-9.1,6.3-13.3c-0.6-1.3-1.1-2.7-1.6-4c-0.9-2.4-1.7-5-2.6-6.8c-0.4-0.8-0.5-1.3-0.5-1.6
			s0.2-0.5,0.5-0.5c1,0,3.9,1.7,4.9,4.2c0.7,1.7,1.4,3.9,2.3,6.1c3.5-2.7,8-4.6,12.5-5c0.1-0.6,0.1-1.2,0.1-1.7
			c0-2.5-0.5-4.3-1.7-5.1c-0.6-0.4-1.6-0.5-1.6-1s1.2-1.4,2.7-1.4s4.6,1,4.6,6.1c0,1-0.1,2-0.3,3.2c8,0.8,14,7.3,14,15
			c0,3.8-1.5,7.9-5,11.6c-6.1,6.4-17.1,8.6-20.7,8.6c-0.7,0-1-0.1-1-0.2c0-0.2,0.9-0.7,2.7-1.1c8.9-2.3,19.6-8.9,19.6-19
			c0-5.9-3.8-11.1-10.1-12.2C282.3,202.5,280.1,207.2,277.5,211.5L277.5,211.5z M265.6,205.1c-2.8,3.3-4.1,6.8-4.1,9.6
			c0,2.5,1.1,5,3.1,5c1.1,0,4.7-1.3,8.2-5.9C269.6,211.8,267.4,208.6,265.6,205.1z M268.4,202.3c1.6,3.4,3.5,6.7,6.5,8.2
			c2.6-4.4,4.3-8.8,5-12.6C275.8,198.1,271.7,199.7,268.4,202.3L268.4,202.3z"/>
		<path d="M308.6,217.9c0-2.1,0.2-4.1,0.6-6.1c0.8-4.1,2-7.8,2.7-11.3c0.3-1.5,0.4-2.9,0.4-4.1c0-2.6-0.5-4.6-1.1-5.7
			c-0.4-0.7-0.8-1.2-0.8-1.5s0.3-0.4,1.2-0.4c1.9,0,5,2.6,5,7.1c0,2-0.7,4-1.7,6.5c-1.5,3.7-3.3,8.2-3.3,12.3c0,1.4,0.4,3.7,0.9,3.7
			c0.2,0,0.4-0.3,0.7-0.9c1.5-3.2,5.6-11.2,6.2-11.2c0.1,0,0.1,0.1,0.1,0.2c0,0.2-0.1,0.7-0.4,1.4c-0.8,2-4.1,10.6-4.1,15.7
			c0,1.3,0.2,2.3,0.4,3.2c0.1,0.4,0.2,0.8,0.2,1.2c0,1.5-0.9,2.4-1.9,2.4C309.5,230.5,308.6,220.8,308.6,217.9L308.6,217.9z
			 M345.3,222c2.3,0,3.6,1.1,3.6,2.3c0,3.7-8.5,3.8-9.5,3.8c-10.3,0-13.6-5.3-13.6-8.3c0-0.4,0.1-0.6,0.2-0.6c0.3,0,0.7,0.4,1.3,1.2
			c1.2,1.7,5.2,2.9,9.7,2.9c1.2,0,2.4-0.1,3.6-0.2c1.4-0.2,2.4-1,4.4-1L345.3,222L345.3,222z M336.1,200.6c-9,0-9.5-5.4-9.5-5.8
			c0-0.2,0.1-0.2,0.2-0.2s0.6,0.2,1.1,0.5c1.7,1,3.9,1.4,6.1,1.4c1.7,0,3.4-0.2,5-0.6c0.8-0.2,1.4-0.6,2.2-0.7
			c0.4-0.1,0.8-0.1,1.1-0.1c1.9,0,3.1,1,3.1,2.1C345.6,200.1,339.1,200.6,336.1,200.6L336.1,200.6z"/>
	</g>
</g>
</svg>
