<?xml version="1.0" encoding="utf-8"?>
<!-- Generator: Adobe Illustrator 27.1.1, SVG Export Plug-In . SVG Version: 6.00 Build 0)  -->
<svg version="1.1" id="_レイヤー_2" xmlns="http://www.w3.org/2000/svg" xmlns:xlink="http://www.w3.org/1999/xlink" x="0px"
	 y="0px" viewBox="0 0 522.9 222.2" style="enable-background:new 0 0 522.9 222.2;" xml:space="preserve">
<g id="_デザイン">
	<g>
		<path d="M32.5,13.2c-2.9,4.3-5.5,7.4-7.8,9.2c0.1,0.1,1.1,0.8,1.1,1.6c0,0.5-0.4,0.9-1.3,1.4c-0.8,0.4-1,0.7-1.1,1.8
			c-0.2,4.3-0.5,10.4-1.3,15.1c-1.2,6.8-4.7,10-8.8,10.1c-0.4,0-1-0.2-1.1-0.7C11.6,50,8.9,47.9,8,46.9c-3.9,5.8-7.7,7.6-7.9,7.6
			c-0.1,0-0.1-0.1-0.1-0.1c0-0.2,0.4-0.8,1.1-1.5C9.6,44,11.3,21.7,11.3,16.8c0-1.3-0.1-2.4-0.2-3.5c-1.7,0.1-3.6,0.2-6.1,0.5H4.9
			c-0.9,0-2.3-2.2-2.3-2.9c3.8,0.5,7.2,0.8,9.8,0.8V8.6c-0.1-2.5-0.2-6.2-0.6-7.8c-0.1-0.2-0.1-0.4-0.1-0.4c0-0.2,0.1-0.2,0.2-0.2
			c1,0,7,1.1,7,2.3c0,0.4-0.4,0.8-1.3,1.3c-1,0.5-1,0.6-1.1,2.3c-0.1,1.5-0.1,4-0.2,5.5h3.5c0.2,0,0.5-0.2,0.7-0.5
			c0.6-1,1.4-2.5,2.3-3.4c0.1-0.1,0.3-0.2,0.5-0.2c1.4,0,4.9,3.5,4.9,4.9c0,0.4-0.2,0.7-1.1,0.7H16c1,0.3,1.6,0.5,1.6,1.1
			c0,0.4-0.4,0.7-1,1c-1,0.4-1,0.7-1.1,2.1c-0.1,1.7-0.3,3.4-0.5,5.1h3.5c0.6,0,0.8-0.3,1-0.5c0.1-0.1,1.2-1.6,1.7-1.6
			s1.9,0.8,3.1,1.8c0.1-0.2,0.3-0.5,0.6-0.9c2.4-3.4,6-11.5,7.5-17c0.4-1.3,0.4-2.8,0.5-3.5C32.9,0,33.1,0,33.1,0
			C33.6,0,40,2.2,40,3.4c0,0.4-0.5,0.8-1.7,1c-0.9,0.1-0.9,0.3-1.3,1.1c-1,1.8-2.2,4-3.5,6.2h12.3c0.2,0,0.7-0.2,0.8-0.5
			c0.9-1.3,2.5-3.6,3.2-3.6c1,0,5.5,3.4,5.5,4.9c0,0.4-0.2,0.8-1.3,0.8C54.1,13.2,32.5,13.2,32.5,13.2z M14.9,23.9
			c-1,8-2.7,16.1-6.6,22.4c0.1,0,0.1,0.1,0.2,0.1c1.7,0.4,3.2,1,4.7,1c3.8,0,5.8-4.5,6.3-22.6c0-0.5-0.2-0.8-0.7-0.8
			C18.8,23.9,14.9,23.9,14.9,23.9z M42.6,43c0,1.4-1.4,2.3-2.5,2.3c-1,0-1.8-0.6-1.8-2v-0.1c0.2-4.4,0.3-9.2,0.4-13.6l-5,2.7
			l-0.3,0.2c-0.1,3.6-0.1,7.8-0.1,10.7v2.6c0,2.6,0.8,3.2,8,3.2c2.9,0,6.3-0.1,8.1-0.4c2.9-0.5,3.6-5.2,4.4-9.2
			c0.1-0.4,0.2-0.6,0.2-0.6c0.4,0,0.7,7.3,1.7,7.9c1,0.6,1.4,1.3,1.4,2c0,4.2-10.7,4.2-15.3,4.2c-7.6,0-12.4-0.4-12.4-6.1v-0.2
			l0.2-12.1c-2.8,1.9-3,1.9-3.3,1.9c-1.1,0-2.8-0.7-3.1-1.4c2.3-0.8,4.5-1.6,6.4-2.5c0-1.7,0.1-3.2,0.1-4.5c0-2-0.1-4.9-0.4-7.1
			c0-0.2-0.1-0.3-0.1-0.4s0.1-0.2,0.2-0.2c0.1,0,6.3,1,6.3,2.3c0,0.4-0.5,0.8-1.3,1.2c-1,0.4-1,0.5-1.1,6.8l5.3-2.8
			c0-2.5-0.1-9.4-0.6-11.6c-0.1-0.1-0.1-0.2-0.1-0.3c0-0.1,0.1-0.2,0.2-0.2c0.5,0,6.6,1,6.6,2.2c0,0.4-0.4,0.8-1,1.1
			c-1,0.5-1.1,0.4-1.3,1.9c-0.1,1.3-0.2,3.1-0.2,5l4-2.1c0.4-0.2,0.6-0.5,0.7-0.8c0.7-1.7,0.8-2,1.4-2c0.8,0,5.5,1.1,5.5,2.6
			c0,0.4-0.2,0.8-0.8,1.2c-0.6,0.5-1.2,0.7-1.2,1.4c-0.1,2.2-0.1,7.1-0.4,9.9c-0.6,6.2-4.1,7.5-6.1,7.5c-0.4,0-0.7-0.1-0.8-0.4
			c-0.3-0.9-1.3-1.9-2.2-2.7c0,0.9,0.1,1.6,0.1,2.3L42.6,43L42.6,43z M42.4,27.5v3.1c0,2.9,0.1,5.8,0.1,8.3c1,0.2,1.8,0.5,2.6,0.5
			c2.6,0,3-3.1,3-13.9c0-0.4-0.3-0.6-0.6-0.6c-0.1,0-0.3,0.1-0.4,0.1C47,25.1,42.4,27.5,42.4,27.5z"/>
		<path d="M88,13.3c0,0.3-0.2,0.6-1.1,0.6H74.7c-2.4,0-5.9,0.1-9.6,0.5H65c-0.7,0-2.5-2.2-2.5-2.9c4.5,0.7,9.8,0.8,12.2,0.8h4.6
			c0.2,0,0.5-0.2,0.7-0.5c0.1-0.1,2-3.4,2.8-3.4C83.9,8.5,88,11.9,88,13.3z M84.9,36.7c0,0.5-0.6,1-1.3,1.4
			c-0.9,0.6-1.1,0.9-1.1,3.1c0,2.1,0.2,4.5,0.4,8.1v0.1c0,1.3-1.4,2.1-2.6,2.1c-1,0-1.9-0.5-1.9-1.7v-1.3h-7.9
			c0,1.1,0.1,2.2,0.1,3.4V52c0,1.3-1.5,2-2.6,2c-1,0-1.9-0.5-1.9-1.7v-0.2c0.4-4.5,0.4-6.8,0.4-9.1c0-5-0.4-8.5-0.7-9.7
			c0-0.1-0.1-0.2-0.1-0.3c0-0.1,0.1-0.2,0.1-0.2c0.3,0,4.4,1.5,5.9,2.6l0.1,0.1h5.3c0.2,0,0.5-0.1,0.8-0.5c1.4-1.9,1.5-1.9,1.8-1.9
			S84.9,35.1,84.9,36.7z M84,4.7c0,0.4-0.2,0.8-1.1,0.8h-8.2c-1.8,0-3.5,0.1-6.4,0.5h-0.1c-0.8,0-2.3-2-2.3-2.9
			C69.5,3.8,73,4,74.8,4h1.4c0.1,0,0.4-0.2,0.6-0.5c0.5-1,1.6-2.3,2.2-3c0.1-0.1,0.3-0.2,0.5-0.2c0.1,0,0.2,0,0.3,0.1
			C81.2,1,84,3.4,84,4.7z M84,20.6c0,0.4-0.2,0.8-1.1,0.8h-8.2c-1.8,0-3.5,0.1-6.4,0.5h-0.1C67.6,21.9,66,20,66,19
			c3.5,0.7,7,0.8,8.8,0.8h1.5c0.1,0,0.5-0.2,0.7-0.5c0.5-1,1.9-3,2.6-3c0.1,0,0.2,0,0.2,0.1C81.5,17.2,84,19.7,84,20.6z M84,28.5
			c0,0.4-0.2,0.8-1.1,0.8h-8.2c-1.8,0-3.5,0.1-6.4,0.5h-0.1c-0.7,0-2.3-2-2.3-2.9c3.5,0.7,7,0.8,8.9,0.8h1.4c0.1,0,0.5-0.2,0.7-0.5
			s1.9-3,2.6-3c0.2,0,0.3,0,0.4,0.1C81.5,25.1,84,27.5,84,28.5z M78.5,41.1c0-1.1-0.1-2.2-0.1-3.2c0-0.4-0.2-0.7-0.6-0.7h-6.1
			c-0.1,0.1-0.3,0.2-0.5,0.3c-0.6,0.4-0.6,0.8-0.6,1.7c-0.1,2.6-0.1,5.3-0.1,7.9h7.9C78.5,44.6,78.5,42.8,78.5,41.1z M118.9,49.5
			c0,0.4-5.3,1.4-7.1,3.3c-0.2,0.2-0.4,0.3-0.7,0.3c-0.5,0-6.3-1.8-11.6-8c-9.2,8.2-20.8,9.2-21.4,9.2c-0.3,0-0.4,0-0.4-0.1
			c0-0.2,0.7-0.5,2-0.9c5.9-1.9,12.5-5.6,17.6-11.3c-2.6-4.1-4.4-8.8-5-13.7c-1.3,0.1-2.8,0.2-4.3,0.4h-0.1c-1,0-2.8-2.2-2.8-2.9
			c5.3,0.9,10.7,0.9,13.7,0.9h5.2c0.4,0,0.7-0.2,0.8-0.5c0.3-0.4,0.8-1,1.3-1.2c0.2-0.1,0.3-0.2,0.5-0.2c0.6,0,5,2.4,5,3.8
			c0,0.4-0.4,0.8-1.3,1.2c-1,0.4-1.4,0.3-1.7,1.3c-1.6,4.5-3.8,8.3-6.6,11.3c4.1,3.4,9.5,6,16.3,6.9
			C118.7,49.4,118.9,49.4,118.9,49.5z M116.5,18.7c0,2.9-4.9,3.3-8.9,3.3c-3,0-6-0.4-6-4.9c0-2.8,0.1-6.5,0.1-10
			c0-0.2-0.2-0.6-0.5-0.6H97l-0.6,0.4c-0.5,0.2-0.7,0.5-0.7,1.8c-0.1,7.1-2.2,12.5-9.1,15.5c-0.8,0.4-1.2,0.5-1.3,0.5h-0.1
			c0-0.1,0.3-0.4,0.8-0.8c5.3-4.6,5.3-10.6,5.4-15.6c0-1.3-0.2-3.5-0.5-5.5V2.6c0-0.1,0-0.1,0.1-0.1c0.6,0,4.7,1.8,5.6,2.3L97,5h4.1
			c0.3,0,0.6-0.5,0.7-0.6c0.2-0.2,0.8-1,1.1-1.3c0.1-0.1,0.2-0.1,0.4-0.1c0.7,0,4.5,2.3,4.5,3.4c0,0.4-0.2,0.7-0.7,1
			c-0.8,0.4-1.4,0.4-1.4,1.1c-0.1,1.6-0.2,3.5-0.2,5.2c0,4.5,0.4,4.7,2.6,4.7c1,0,2.3-0.1,3-0.3c1.4-0.4,1.8-3,2.6-7.3
			c0.1-0.4,0.1-0.5,0.2-0.5c0.4,0,0.7,6.1,1.3,6.4C116,17.1,116.5,17.9,116.5,18.7z M104.4,28.5c0-0.3-0.1-0.4-0.4-0.4h-5.3
			c-1.6,0-3.5,0-5.6,0.1c1.1,4,3.1,7.9,6.1,11.3C102.5,35.2,104.4,29.3,104.4,28.5z"/>
		<path d="M148.5,11c-0.7,0-1.3,0.1-2,0.1c1.5,1.2,2.5,4.3,2.5,8.2c0,12.5-10,26.3-15.7,26.3c-3.2,0-4.4-4.3-6.7-7.7
			c-1-1.4-1.4-3.4-1.4-5.6c0-9.1,7.8-23.5,24.2-23.5c13.7,0,21,9.4,21,19.3c0,5.4-2.2,11-6.7,15.2c-7.7,7.2-19.1,8-19.6,8
			c-0.6,0-0.8-0.1-0.8-0.2c0-0.3,0.9-0.7,2.7-1.2c10.5-2.9,19.9-10.4,19.9-22.1c0-8.9-6.3-16.9-17.1-16.9
			C148.7,11,148.5,11,148.5,11z M143,11.8c-9.2,2.7-14.6,11.3-14.6,18.8c0,5.3,2.7,9.3,5.3,9.3c4.1,0,12.7-12.5,12.7-23.2
			c0-2.7-0.4-5.2-2.2-5.2c-0.2,0-0.4,0-0.5,0.1s-0.4,0.1-0.5,0.1C143.3,11.8,143,11.8,143,11.8z"/>
		<path d="M232.1,48.4c0,0.4-0.3,0.7-1.3,0.7h-30.8c-3.4,0-13,0.1-18.4,0.7h-0.1c-1.1,0-2.8-2.3-2.8-3.1c6.2,0.7,18.1,1,21.5,1h5.6
			c2-5.3,8-22.2,8-29.2c0-0.5,0.1-0.5,0.1-0.5c0.5,0,8.1,1.9,8.1,3.7c0,0.5-0.6,1.1-1.9,1.3c-1,0.1-1.1,0.3-1.4,1
			c-2.8,7-8,18.4-11.3,23.8h13.7c0.4,0,0.8-0.2,1-0.5c0.4-0.5,2.8-4.4,3.8-4.4C227.8,42.7,232.1,47.6,232.1,48.4z M228.2,14.8
			c0,0.4-0.3,0.7-1.3,0.7H202c-3.3,0-11.4,0.1-16.7,0.7h-0.1c-1.1,0-2.6-2.3-2.6-3.1c6.1,0.7,16.3,1,19.7,1h1v-3.2
			c0-3.1-0.1-6.9-0.6-8.8c-0.1-0.2-0.1-0.4-0.1-0.4s0.1-0.1,0.1-0.1c0.4,0,8,0.9,8,2.3c0,0.4-0.4,0.8-1.1,1.3
			c-1.1,0.7-1.3,0.3-1.5,2.5C208,8.8,208,12.3,208,14h9.5c0.4,0,0.8-0.2,1-0.5c0.1-0.2,2.5-4.1,3.7-4.1c0.2,0,0.3,0,0.4,0.1
			C224,10,228.2,13.4,228.2,14.8z M203,38c0,2.5-1.4,4-2.9,4c-1.3,0-2.6-1.3-3.1-4.3c-0.7-5-3.2-11.6-6.2-16.3
			c-0.2-0.3-0.3-0.5-0.3-0.7c0-0.1,0.1-0.2,0.2-0.2C192.2,20.5,203,31.3,203,38L203,38z"/>
		<path d="M253.8,13.3c1.7-0.9,3.4-1.9,4.4-2.5c0.5-0.3,1.1-0.5,1.7-0.5c1.1,0,1.9,0.6,1.9,1.5c0,1.9-2.6,3.6-8.8,6.1
			c-1.1,6.8-1.8,11.3-1.8,13.9c0,1.6,0.4,1.7,0.7,1.7c0.8,0,3.9-1.7,5-2.5c2.3-1.6,5.1-2.6,7.9-2.6c4.3,0,10.4,2.9,10.4,8.9
			c0,2.4-1,4.8-2.3,6.8c-4.4,6.4-15.7,8.7-21.2,8.7c-0.7,0-1-0.1-1-0.2c0-0.2,1-0.6,3.2-1.1c6.9-1.7,16.6-6.8,16.6-14.2
			c0-3.7-3.1-6.4-6.8-6.4c-4.5,0-9.1,5-10.4,8.5c-0.5,1.6-1.4,2.4-2.3,2.4c-0.8,0-3.2-1.2-3.2-5.8c0-1.7,0.2-3.8,0.7-5.9
			c0.5-2.5,1.3-7.2,1.9-11.5c-1,0.4-1.9,0.5-2.8,0.5c-4.3,0-7.2-3.6-7.2-5.6c0-0.3,0.1-0.4,0.4-0.4s0.7,0.2,1.4,0.6
			c2.1,1.1,3.4,1.6,4.9,1.6c1,0,2-0.2,3.5-0.6l0.2-0.1c0.1-1.2,0.1-2.4,0.1-3.4c0-4.8-1.1-4.9-1.6-4.9h-0.5c-0.5,0-0.7-0.1-0.7-0.4
			c0-0.6,1.1-2.6,3.2-2.6c1.5,0,3.6,1.1,3.6,4c0,1.3-0.4,2.8-0.7,4.4C254.1,11.9,253.8,13.3,253.8,13.3z"/>
		<path d="M337,49.5c0,0.4-0.3,0.7-1.3,0.7h-30.9c-3.4,0-12.4,0.1-17.6,0.7h-0.1c-1.1,0-2.8-2.3-2.8-3.1c6.1,0.7,17.3,0.9,20.8,0.9
			h1.8c0.1-5.8,0.2-13.8,0.2-21.1c0-17.4-0.2-21.9-0.8-24.8c-0.1-0.2-0.1-0.3-0.1-0.4c0-0.2,0.1-0.2,0.2-0.2c0.3,0,8.6,1.1,8.6,2.6
			c0,0.5-0.5,1-1.3,1.5c-1.3,0.8-1.5,0.6-1.6,2.5c-0.2,2.8-0.2,8.7-0.2,15.4h9.1c0.4,0,0.8-0.2,1-0.5c0.8-1.1,3.1-4.3,3.7-4.3
			c1.6,0,6,4.5,6,5.6c0,0.4-0.3,0.8-1.3,0.8h-18.5c0,8.2,0,17.3,0.1,22.9h14c0.4,0,0.8-0.2,1-0.5c0.1-0.1,2.9-4.6,3.9-4.6
			C332.5,43.6,337,48.4,337,49.5L337,49.5z"/>
		<path d="M348.3,34c0-5.5,1.3-10.6,2-15c0.2-1.4,0.5-2.8,0.5-4.1c0-2.6-1-3.8-3.6-5.2c-0.6-0.3-1-0.7-1-1.1c0-0.8,1.3-0.9,2-0.9
			s1.4,0.1,1.9,0.4c0.8,0.4,4.7,3.6,4.7,6.7c0,1.3-0.4,2.5-1,4.1c-1.4,3.9-2.9,8.6-2.9,12.7c0,1.1,0.5,4.9,1.1,4.9
			c0.2,0,0.4-0.3,0.7-0.9c1-2.3,6.8-14.2,7.6-14.2c0.1,0,0.1,0.1,0.1,0.2c0,0.4-0.2,1.3-0.6,2.2c-2.3,5.5-4.6,12.6-4.6,17.7
			c0,1.4,0.1,2.9,0.5,4c0.2,0.5,0.3,1,0.3,1.4c0,1.2-0.7,1.9-1.7,1.9C350.4,48.8,348.3,40.3,348.3,34L348.3,34z M375.8,29.3
			l-0.2-7.6c-0.5,0.1-1.1,0.1-1.6,0.1h-1.5c-7.9,0-9-4.6-9-5c0-0.1,0.1-0.2,0.2-0.2c0.3,0,0.9,0.3,1.5,0.5c2,0.8,4.7,1,7.1,1h1
			c0.7,0,1.4-0.1,2.2-0.2v-3.1c0-3.4-0.3-6.3-2.5-6.3h-0.4c-1,0-1.3-0.2-1.3-0.6c0-0.5,1.3-1.9,3.2-1.9c2.3,0,5,2.2,5,5v0.7
			c1.1,0.3,2.3,0.5,3.2,0.7c0.8,0.1,1.6,0.1,2.1,0.2c1.1,0.2,1.9,1.1,1.9,2.3c0,3.1-4.4,5.2-7.8,6.1c0.1,2.6,0.3,5.2,0.5,7.7
			c0.1,0.8,0.1,1.7,0.1,2.5c0,18.6-16.9,23.6-18.8,23.6c-0.2,0-0.2,0-0.2-0.1c0-0.2,0.5-0.7,2.2-1.6c6.9-3.8,13-13.2,13-23.2
			L375.8,29.3L375.8,29.3z M384.4,9.5c-1.6-1.8-3.5-3.2-5-4.1c-0.5-0.3-1-0.5-1-0.7c0-0.4,2.3-0.4,2.5-0.4c6.9,0,7,4,7,4
			c0,1.1-0.8,2-1.8,2C385.6,10.4,385,10.1,384.4,9.5z M379.1,17.1c1-0.4,3.2-1.5,3.2-2.5c0-0.7-0.9-1.3-2.8-2.1
			C379.3,13.3,379.1,15.6,379.1,17.1L379.1,17.1z M390.7,6.7c-1.6-1.7-3.6-3.1-5.2-3.9c-0.5-0.2-1-0.4-1-0.6c0-0.1,0.8-0.5,2.8-0.5
			c4.9,0,6.7,2.2,6.7,3.9c0,1.1-0.8,2-1.7,2C391.8,7.5,391.2,7.3,390.7,6.7L390.7,6.7z"/>
		<path d="M419.4,31.9c-4.1,0-12.8,3.7-12.8,9.7c0,3.7,3.1,6.5,9.3,6.5c2.5,0,5.4-0.5,7.8-1.7c0.7-0.4,1.4-0.5,2-0.5
			c1.7,0,2.8,1.1,2.8,2.4c0,3.2-6.9,4.5-10.9,4.5c-10.3,0-13.8-6.5-13.8-10.4c0-5.1,4.6-10.4,10.6-13.3c-3.2-1.6-4.1-4.9-4.1-8.6
			c0-2.8,0.5-5.8,0.8-8.3c0.2-1.4,0.3-2.7,0.3-3.8c0-2.8-1-3-2.8-3.4c-0.8-0.2-1.2-0.4-1.2-0.8c0-0.3,0.8-2,3-2c2.9,0,5.8,3.3,5.8,6
			c0,1.3-0.4,2.5-0.7,3.7c-0.7,2.8-1.6,6.4-1.6,9.6c0,2.5,0.5,5.3,3.2,6.4c1.2-0.5,2-1,3.5-1.4c0.7-0.2,1.5-0.4,2.3-0.4
			c1.3,0,2.9,0.5,2.9,2.2s-2.1,3.5-5.1,3.5c-0.2,0-0.5-0.1-0.8-0.1C419.9,31.9,419.4,31.9,419.4,31.9z"/>
		<path d="M456.4,46.7c-1.9,0-4-0.8-5.8-2.2c-6.4-4.9-7.7-11.5-7.7-18.4c0-1.9,0.1-3.9,0.2-5.8c0.1-0.7,0.1-1.3,0.1-2
			c0-1.2-0.1-2.4-0.2-3.3c-0.1-0.5-0.1-0.8-0.1-1.1c0-0.4,0.1-0.5,0.4-0.5c0.4,0,4.6,1.3,4.6,6.4c0,0.8-0.1,1.6-0.2,2.3
			c-0.4,2.1-0.8,4.7-0.8,7.3c0,10.1,6.5,11.2,7,11.2c1,0,1.6-0.6,1.9-1.1c1.2-2,2.5-5.5,3.6-7.7c0.7-1.6,1.1-2.2,1.3-2.2
			c0.1,0,0.1,0.1,0.1,0.3c0,0.5-0.1,1.3-0.4,2.3c-0.5,2.3-1,4.9-1,7.9c0,1.3,0.2,2.2,0.3,3.1c0.1,0.2,0.1,0.4,0.1,0.7
			C459.7,45.6,458.5,46.7,456.4,46.7z M479.5,31.9c-0.5-5.8-4.6-10.7-9.1-11.9c-1.6-0.4-2.5-0.8-2.5-1c0-0.2,0.4-0.3,1.3-0.3
			c10,0,15.6,7.1,15.6,12.4c0,2.4-1.4,3.7-2.8,3.7C480.8,34.8,479.7,33.8,479.5,31.9L479.5,31.9z"/>
		<path d="M499.4,55.3c-0.1,0-0.2,0-0.2-0.1c0-0.2,0.7-0.7,2.2-1.6c4.6-2.5,16.9-12.7,16.9-25.6c0-5.3-2.2-9.5-5.3-9.5
			c-1.5,0-3.1,1-4.7,2.5c-1.2,1.1-2.5,2.2-4.2,2.2c-2.9,0-5-2.3-5-4.7c0-1.5,0.9-2.5,1.3-2.5c0.3,0,0.5,0.4,0.7,1
			c0.4,0.8,1.3,1.1,2.2,1.1c1.3,0,2.8-0.5,3.7-0.8c1.9-0.7,4.3-1.6,6.6-1.6c5.6,0,9.4,5.9,9.4,12.7c0,2.8-0.7,5.7-1.8,8.5
			C515.3,51,500.5,55.3,499.4,55.3L499.4,55.3z M508.5,7.9c0.3-0.3,0.5-0.5,0.5-0.7c0-0.2-0.2-0.4-0.4-0.5c-0.9-0.5-3.9-1.1-5.3-3.2
			c-0.5-0.7-0.8-1.2-0.8-1.4c0-0.1,0.1-0.2,0.2-0.2c0.4,0,1,0.2,1.9,0.7c2,1,6.9,1,7.4,1h1.4c3.2,0,4.5,2.3,4.5,3.3
			c0,1.3-1.3,2-3.5,2.1s-5.5,0.9-8.4,2.3c-0.5,0.2-0.9,0.4-1.1,0.4c-0.1,0-0.2,0-0.2-0.1s0.2-0.4,0.7-0.8
			C505.4,10.6,508.5,7.9,508.5,7.9z"/>
		<path d="M55.1,90.2c0,0.7-0.7,1.1-1.9,1.7c-1,0.5-1.1,0.5-1.1,6.1c0,9.5,0.5,30.6,0.8,37.3v0.2c0,1.6-1.5,2.5-2.9,2.5
			c-1.1,0-2.2-0.7-2.2-2.1v-2.5H11.5v2.3c0,1.5-1.6,2.5-3,2.5c-1.1,0-2.1-0.6-2.1-2v-0.2C7,128,7.1,109.7,7.1,99.7v-4.3
			c0-1.9-0.3-7-0.8-9.2c-0.1-0.2-0.1-0.3-0.1-0.4s0-0.1,0.1-0.1c0.4,0,4.9,1.6,6.7,2.8l0.4,0.2h32.8c0.4,0,0.8-0.3,1-0.5
			c1.2-1.6,1.7-2.1,2.3-2.1C50.5,86,55.1,89,55.1,90.2L55.1,90.2z M47.6,91.2c0-0.6-0.4-1-0.9-1H13.3c-1.2,0.8-1.4,1-1.5,2.4
			c-0.1,3.4-0.2,19-0.2,31.4c0.1-0.1,0.3-0.4,0.6-0.6c4.6-3.5,9.9-9.5,13.7-18.5c-2.7,0.1-5.9,0.2-9.5,0.5h-0.1
			c-1,0-2.6-2.2-2.6-2.9c4.9,0.6,10,0.8,13.4,0.9c0-7.7-0.6-10-0.7-10.4c-0.1-0.1-0.1-0.2-0.1-0.4s0.1-0.2,0.3-0.2
			c0.8,0,6.7,1,6.7,2.1c0,0.4-0.4,0.8-1.1,1.1c-1,0.5-1.1,0.2-1.2,1.9c-0.1,1.4-0.2,3.4-0.2,5.9h5.6c0.4,0,0.7-0.1,0.9-0.4
			c0.7-1.1,2.5-3.8,3.2-3.8c1.4,0,5.5,3.8,5.5,4.9c0,0.4-0.3,0.7-1.3,0.7H31.4c3.1,6.1,9.2,12.6,16.1,15.7l0.3,0.2
			C47.9,109.3,47.8,96.2,47.6,91.2z M47.9,121c-0.6,0.3-3.7,0.4-5.6,1.9c-0.2,0.2-0.5,0.3-0.8,0.3c-1,0-7.3-6.1-10.6-17.5v3
			c0,6.8,0.2,14.5,0.4,18.2v0.1c0,1.4-1.6,2.1-2.7,2.1c-1,0-2-0.5-2-1.9v-0.1c0.2-4.2,0.4-10.6,0.5-16.5
			c-6.2,10.7-15.2,13.7-15.5,13.7v7.4h36.4C47.9,131.8,47.9,121,47.9,121z"/>
		<path d="M77.5,124.7c-0.2,0.7-0.4,1.3-0.7,2c1.6,0.3,10.3,2.2,10.3,6.7c0,1.4-1,2.5-2.2,2.5c-0.8,0-1.8-0.5-2.5-1.9
			c-1.2-2.2-3.4-4.9-5.8-6.7c-4,10-14.3,11.1-14.3,11.1c-0.2,0-0.4-0.1-0.4-0.1c0-0.2,0.5-0.5,1.6-1c5.9-2.7,9.1-6.7,10.4-12.5
			c-2.9,0.1-7.3,0.2-9.4,0.5h-0.1c-0.7,0-2.3-2.1-2.3-2.9c2.8,0.5,8.8,0.8,12.1,0.8c0.2-1.5,0.4-3.2,0.5-4.9
			c-2.3,0.1-5.8,0.2-7.9,0.5h-0.1c-0.7,0-2.4-2.1-2.4-2.9c2.7,0.5,7.5,0.8,10.4,0.8v-5.2h-4.4c0,0.2,0.1,0.5,0.1,0.7v0.1
			c0,1.2-1.3,1.9-2.3,1.9c-0.8,0-1.6-0.5-1.6-1.6v-0.2c0.2-1.9,0.2-7,0.2-8.8c0-0.6-0.1-2.6-0.4-4.3c0-0.1-0.1-0.2-0.1-0.2
			c0-0.1,0.1-0.2,0.1-0.2c0.4,0,3.5,1.4,5,2.3H82c0.2,0,0.5-0.1,0.7-0.4c0.3-0.5,1.3-1.6,1.7-1.6c0.8,0,4.1,2,4.1,3
			c0,0.4-0.4,0.8-1,1.1c-0.8,0.5-0.9,0.6-0.9,1.1c0,2.8,0.3,6.7,0.3,6.8v0.1c0,0.7-0.4,1.9-2.3,1.9c-0.8,0-1.7-0.5-1.7-1.6v-0.1
			h-4.5c-0.1,2-0.1,4-0.1,5.2h2.6c0.1,0,0.5-0.2,0.7-0.5c1.3-1.8,2-2.5,2.3-2.5c0.1,0,0.2,0.1,0.3,0.1c1.6,0.7,4,2.6,4,3.6
			c0,0.4-0.2,0.8-1.1,0.8h-8.7c-0.1,1.7-0.2,3.4-0.5,4.9h4.9c0.1,0,0.5-0.2,0.7-0.5c0.1-0.2,1.8-2.8,2.6-2.8c0.1,0,0.2,0,0.3,0.1
			c2,0.9,4.1,3,4.1,3.9c0,0.4-0.3,0.8-1.1,0.8L77.5,124.7L77.5,124.7z M82.4,93.8c0,1.1,0.1,2.2,0.1,3.7c0,0.4-0.6,1.7-2.4,1.7
			c-0.8,0-1.5-0.4-1.5-1.3v-0.1c0.1-1.5,0.1-2.9,0.1-4h-4.4c0,1.1,0.1,2.3,0.1,3.8c0,1-1.3,1.7-2.3,1.7c-0.9,0-1.6-0.4-1.6-1.4v-0.1
			c0.2-1.7,0.2-2.9,0.2-3.9c-1.6,0.1-3.3,0.2-5.1,0.4h-0.1c-0.8,0-2.3-2-2.3-2.8c2.5,0.4,5.2,0.6,7.6,0.7v-2c0-0.7-0.1-2.6-0.5-4.3
			c0-0.1-0.1-0.2-0.1-0.3c0-0.2,0.1-0.2,0.2-0.2c0.5,0,5.7,0.4,5.7,1.7c0,0.3-0.2,0.8-1,1.3c-0.7,0.5-0.8,1-0.8,3.8h4.5v-2.1
			c0-0.7-0.1-2.6-0.4-4.3c0-0.1-0.1-0.2-0.1-0.3c0-0.2,0.1-0.2,0.3-0.2c0,0,5.7,0.6,5.7,1.8c0,0.3-0.2,0.7-1.1,1.3
			c-0.8,0.6-0.9,1.1-0.9,3.8h1.4c0.1,0,0.4-0.2,0.6-0.5c1.7-2.6,1.9-2.8,2.2-2.8c0.1,0,0.2,0.1,0.2,0.1c1.4,0.7,3.6,3,3.6,4
			c0,0.4-0.2,0.7-1,0.7L82.4,93.8L82.4,93.8z M74.6,108.1c0-1.1-0.1-3.6-0.2-5.4h-3.2l-0.4,0.2c-0.6,0.4-0.7,0.4-0.7,3.8
			c0,1.1,0.1,2.3,0.1,3.4h4.4C74.6,110.2,74.6,108.1,74.6,108.1z M83,103.3c0-0.4-0.2-0.7-0.7-0.7h-2.6c0.1,0.1,0.1,0.2,0.1,0.3
			c0,0.2-0.2,0.4-0.5,0.6c-0.6,0.3-0.7,0.4-0.7,1.7c0,1-0.1,2.8-0.1,4.9H83C83,110.2,83,103.3,83,103.3z M95.9,132.7
			c0,1.2,0.1,2.2,0.1,2.9v0.1c0,1.6-1.6,2.5-2.8,2.5c-1,0-1.8-0.6-1.8-2.1v-0.3c0.5-5.9,0.8-27.6,0.8-31.2V102
			c-2.2,3.3-4.8,6.2-5.3,6.2c-0.1,0-0.1-0.1-0.1-0.1c0-0.1,0.1-0.4,0.4-0.8c2.7-4,7.7-16.9,7.7-22.1c0.1-0.5,0-0.7,0.2-0.7
			c1.1,0,6.5,1.9,6.5,3c0,0.5-0.8,1-1.7,1.1c-0.8,0.1-0.9,0.2-1.3,1c-1.1,2.5-2.3,5-3.6,7.5c2,0.9,2.1,1,2.1,1h4.5
			c2.8-8.4,2.9-11.4,2.9-12c0-0.2,0-0.5-0.1-0.7v-0.4c0-0.2,0-0.3,0.2-0.3c0.5,0,6.5,2,6.5,3.1c0,0.4-0.5,0.8-1.6,1
			c-0.7,0.1-0.9,0.4-1.3,1c-1.4,2.5-3.6,6-5.3,8.3h3.9c0.2,0,0.5-0.2,0.7-0.5c0.6-1,1.6-2.5,2.3-3.1c0.1-0.1,0.3-0.2,0.5-0.2
			c1,0,4.9,3.3,4.9,4.6c0,0.4-0.2,0.7-1.1,0.7h-8.1c0.4,0.1,0.5,0.4,0.5,0.5c0,0.4-0.4,0.7-1,1c-0.4,0.1-0.5,0.5-0.5,1.1
			c-0.1,1.4-0.1,3.7-0.1,6.5h1.4c0.2,0,0.5-0.2,0.7-0.5c0.1-0.1,1.7-2.9,2.5-2.9c0.7,0,4.4,3,4.4,4.2c0,0.4-0.2,0.7-1.1,0.7h-7.9
			v8.9h1.4c0.2,0,0.5-0.2,0.7-0.5c1.3-2.2,2-2.9,2.6-2.9c0.7,0,4.4,2.8,4.4,4.3c0,0.4-0.2,0.7-1.1,0.7h-7.9v10.6h3.2
			c0.2,0,0.5-0.2,0.7-0.5c0.6-1,1.7-2.6,2.4-3.2c0.1-0.1,0.3-0.2,0.5-0.2c0.9,0,5.2,3.2,5.2,4.7c0,0.4-0.3,0.7-1.2,0.7
			C115.8,132.7,95.9,132.7,95.9,132.7z M101.5,105.3c0-1.5,0-4-0.2-5.7h-4.1c-0.1,0.1-0.3,0.2-0.5,0.3c-0.8,0.4-0.8,0.7-0.8,8.8h5.6
			C101.5,108.7,101.5,105.3,101.5,105.3z M101.5,110.2h-5.6v8.9h5.6V110.2z M101.4,131.2c0-2,0.1-6.2,0.1-10.6h-5.6
			c0,3.9,0.1,7.7,0.1,10.6C95.9,131.2,101.4,131.2,101.4,131.2z"/>
		<path d="M138.2,99.5c-0.8,0.2-1.6,0.3-2.3,0.4c-0.4,0-0.7,0.1-1,0.1c-5.5,0-7.6-4-7.6-5.9c0-0.2,0.1-0.4,0.3-0.4
			c0.3,0,0.7,0.3,1.1,0.5c1.9,1.1,3.9,2,6.2,2c2,0,3.9-0.5,4.3-0.6c0.1-0.9,0.2-1.8,0.2-2.6c0-3.5-0.8-3.7-1.6-3.7
			c-1.3,0-1.4-0.3-1.4-0.5c0-0.1,0.1-0.7,1.1-1.7c0.5-0.4,1.1-0.5,1.7-0.5c1.1,0,3.8,0.6,3.8,4.4c0.7,0.1,1.4,0.1,2,0.1
			c1.9,0,3.7,0.1,3.7,1.7c0,1.7-3.3,4.5-7.4,5.9c-1.7,4.2-4,9.5-9.1,20.8c-1,2.2-2.8,3.4-4.1,3.4c-1,0-1.7-0.5-1.7-1.7
			c0-0.8,0.4-1.9,1.4-3.4c3.2-4.8,8.3-11.9,10.5-17.9L138.2,99.5L138.2,99.5z M142.4,136.7c-4.7,0-8.1-3.7-8.1-6.7c0-4,5.3-6,10.8-6
			c1.3,0,2.7,0.1,4,0.4c0-2.4-0.2-4.9-0.2-7c0.1-5.2,1.3-7.9,5.6-10.9c1.6-1.1,3.5-2.6,3.5-4c0-0.7-0.2-0.9-1.8-2.5
			c-0.6-0.5-1-0.9-1-1.2c0-0.2,0.4-0.4,1.4-0.4c2.9,0,7.6,2.6,7.6,6.2c0,1.1-0.7,3.4-2.6,3.4c-0.6,0-1.2-0.1-1.9-0.3
			c-0.4-0.1-0.7-0.1-1.2-0.1c-0.8,0-7.4,0.1-7.4,6.1c0,1.6,0.3,4,1,8.9c0.1,0.9,0.2,1.9,0.3,2.8c3.3,1.1,8.8,4,8.8,7.6
			c0,1.4-0.9,2.6-2,2.6c-0.8,0-1.7-0.5-2.4-1.9c-1-1.7-2.6-3.3-4.6-4.5C151.4,133.4,146.9,136.7,142.4,136.7L142.4,136.7z
			 M143.2,126.3c-4.1,0-7,1.7-7,3.5s2.6,3.1,5.4,3.1c3.5,0,6.9-2,7.4-5.5C147.1,126.7,145.1,126.3,143.2,126.3L143.2,126.3z
			 M143.6,93.7c0.4-0.3,0.7-0.7,0.7-1.1c0-0.2-0.1-0.5-1.5-1c-0.1,0.9-0.2,1.8-0.5,2.9L143.6,93.7z"/>
		<path d="M228.5,132.4c0,0.5-5.2,1.9-7.1,3.8c-0.2,0.2-0.5,0.4-0.8,0.4c-2.1,0-13.6-6.4-18.7-15.2c0,5.8,0.2,11.9,0.3,14.8v0.1
			c0,1.1-1.3,2.3-2.9,2.3c-1.1,0-2-0.6-2-2v-0.3c0.2-2.6,0.4-7.2,0.5-11.8c-10.6,10.7-24.7,13.1-25.8,13.1c-0.3,0-0.5-0.1-0.5-0.2
			c0-0.2,0.4-0.5,1.2-0.7c7.3-2.5,16.4-8.1,23.1-16.2h-1.7c-3.1,0-10.3,0.1-15.4,0.6h-0.1c-1,0-2.6-2.3-2.6-3c5.8,0.7,15.1,1,18.4,1
			h3.4v-5h-1c-3,0-8,0.1-12.8,0.6h-0.1c-1,0-2.6-2.2-2.6-2.9c5.5,0.7,12.5,0.9,15.6,0.9h0.8c0-1.4-0.1-3.4-0.2-4.9h-3.1
			c-3.1,0-8.5,0.1-13.4,0.6h-0.1c-1,0-2.6-2.2-2.6-2.9c5.1,0.7,11.8,0.8,15.3,0.9c-0.5-0.3-0.9-0.8-1.2-1.7
			c-0.5-1.3-1.8-3.5-2.9-4.6c-0.3-0.3-0.5-0.5-0.5-0.5s0.1-0.1,0.2-0.1c2.8,0,7.7,1.6,7.7,4.7c0,1-0.5,1.8-1.3,2.2h6.4
			c0.2-0.5,2.6-4.7,3.1-7.7h-12.2c-3.3,0-11,0.1-16.4,0.7h-0.1c-1.1,0-2.6-2.3-2.6-3.1c6.1,0.7,16,0.8,19.4,1v-4.9
			c0-2.6-0.1-5.9-0.6-8c-0.1-0.2-0.1-0.4-0.1-0.4s0-0.1,0.1-0.1c0.3,0,6.8,0.8,6.8,2.2c0,0.4-0.4,0.7-1,1.1c-1,0.6-1.2,0.2-1.3,2.2
			c-0.1,1-0.1,5.6-0.1,7.9h4.6v-4.9c0-2.6-0.1-5.9-0.5-8c-0.1-0.2-0.1-0.4-0.1-0.5s0.1-0.1,0.1-0.1c1.5,0,6.8,1,6.8,2.2
			c0,0.4-0.4,0.7-1,1.1c-1,0.6-1.1,0.2-1.3,2.2c-0.1,1-0.1,5.6-0.1,7.9h0.8c1.4-1.9,5.1-7.4,5.9-11c0.1-0.4,0.1-0.6,0.2-0.6
			c0.3,0,5.7,3.4,5.7,4.4c0,0.4-0.5,0.7-1.5,0.7h-0.7c-0.6,0-0.7,0.2-1.2,0.7c-1.6,1.5-4.6,4.1-7.2,5.9h8.3c0.4,0,0.8-0.2,1-0.5
			c0.5-0.9,2.8-3.9,3.5-3.9c1.3,0,6,3.4,6,5.2c0,0.4-0.3,0.7-1.3,0.7h-18.4c3.1,1.4,4.5,2.5,4.5,3.1c0,0.5-0.6,0.7-1.6,0.7h-0.4
			c-0.5,0-0.7,0.2-1.1,0.6c-0.8,0.7-2.6,2.2-4.3,3.3h7.4c0.5,0,0.8-0.2,1-0.5c2-2.8,2.7-3.3,3.3-3.3c1.5,0,5.5,3.2,5.5,4.5
			c0,0.4-0.3,0.7-1.3,0.7H204c0.2,0.1,0.4,0.3,0.4,0.5c0,0.3-0.5,0.7-1.1,1c-1.1,0.5-1.1,1-1.1,3.4h5.6c0.5,0,0.8-0.2,1-0.5
			c0.1-0.1,2.1-2.9,3.1-2.9c1,0,5.3,2.7,5.3,4.1c0,0.4-0.3,0.7-1.3,0.7h-13.8c-0.1,1.4-0.1,3.2-0.1,5h12.7c0.5,0,0.9-0.2,1.1-0.5
			c2.4-3.4,3.2-3.4,3.4-3.4c1.5,0,5.7,3.4,5.7,4.7c0,0.4-0.2,0.7-1.3,0.7h-21c4.6,5.5,14.1,10.4,25.4,11.8
			C228.4,132.3,228.5,132.4,228.5,132.4L228.5,132.4z M190.7,92.5c0,1.5-1.1,2.7-2.3,2.7c-0.8,0-1.7-0.5-2.4-1.9
			c-0.7-1.4-2.4-3.8-3.8-5c-0.4-0.4-0.6-0.5-0.6-0.7c0-0.1,0.1-0.1,1-0.1C186.2,87.6,190.7,89.5,190.7,92.5L190.7,92.5z"/>
		<path d="M288.4,110.3c0,0.5-4.6,1.8-6.2,3.2c-0.4,0.3-0.7,0.4-1,0.4c-1.1,0-6.3-1.9-10.9-6.2c-7,5.8-16.1,6.7-16.1,6.7
			c-0.4,0-0.5-0.1-0.5-0.2c0-0.2,0.4-0.4,1.3-0.7c5.5-1.7,9.9-4.7,13.1-8.2c-2.1-2.5-3.7-5.3-4.6-8.5c-1.7,2.2-3.5,4.3-5.3,5.8
			c1,0.8,2.9,2.5,2.9,3.5c0,0.8-0.8,1.3-2.4,1.4c-1.8,0.1-4.4,3.1-6.4,4.3c-0.2,0.1-0.4,0.2-0.4,0.2s-0.1,0-0.1-0.1
			c0-0.1,0-0.2,0.1-0.5c0.8-1.6,2.2-4.6,2.2-5.6c0-0.5-0.1-0.6-0.3-0.6h-3.8c0.8,0.2,1.3,0.3,1.3,0.8c0,0.3-0.3,0.6-0.8,0.8
			c-0.6,0.3-0.9,3.1-0.9,8.5c0,3.5,0.1,7.4,0.2,10c0.1,1.5,0.2,4.9,0.2,6v0.1c0,4.7-5.5,5.6-6.4,5.6c-0.5,0-1-0.2-1.3-0.9
			c-0.8-1.6-5.6-3.8-5.6-4.3c0-0.1,0.1-0.1,0.2-0.1c0.1,0,0.3,0,0.6,0.1c2.2,0.4,4,0.6,5.4,0.6c1.7,0,2.8-0.4,2.8-1.7
			c0.1-3.5,0.2-8,0.2-12.1v-4c-4.7,8.4-12.8,14-14.2,14c-0.1,0-0.1,0-0.1-0.1c0-0.2,0.3-0.5,1-1.1c4.3-3.8,11.7-15.1,13.1-21.4
			c0-0.3,0-0.6-0.1-0.8c-2.5,0.1-5.6,0.2-8.9,0.6h-0.1c-0.9,0-2.6-2.2-2.6-3c4.8,0.8,10.8,0.9,13.4,0.9h6.1c0.2,0,0.7-0.2,0.9-0.4
			c0.2-0.3,1.4-1.5,2.1-1.5c0.1,0,0.2,0,0.2,0.1c0.2,0.1,0.4,0.2,0.5,0.3c2.5-3.3,6.8-12.1,7.2-16.6c0.1-0.5,0.1-0.7,0.2-0.7
			c0.6,0,5.9,1.8,5.9,2.9c0,0.4-0.5,0.8-1.5,1c-0.7,0.1-0.7,0.2-1.1,0.8c-0.7,1.2-1.6,2.6-2.7,4.2h11.4c0.2,0,0.5-0.2,0.7-0.5
			c0.5-0.7,2.2-3.3,2.8-3.3s5,3.1,5,4.6c0,0.3-0.2,0.6-1.1,0.6h-7.7c2.8,1.1,3.1,1.3,3.1,1.9c0,0.4-0.5,0.8-1.1,0.8h-0.1
			c-0.5,0-0.8,0.1-1.1,0.8c-1.3,2.5-2.6,4.7-4.3,6.5c3.8,2.4,8.8,4.1,15,4.8C288.2,110.2,288.4,110.3,288.4,110.3L288.4,110.3z
			 M258.6,91c0,0.7-0.8,1-1.9,1.3c-0.7,0.1-1.3,0.3-2.3,1c-1.2,0.8-3.4,2.6-5.4,4l0.5,0.4c1.1,0.8,1.6,1.9,1.6,2.8
			c0,1.3-0.9,2.4-2.1,2.4c-0.8,0-1.7-0.5-2.6-1.7c-1.7-2.3-3.9-3.8-5.3-4.7c-0.3-0.2-0.4-0.3-0.4-0.4c0-0.2,0.5-0.2,1.1-0.2
			c1.6,0,4.1,0.2,6.1,1c1.3-2.2,2.9-5,3.1-5.8c0.1-0.1,0.1-0.2,0.1-0.4s-0.1-0.2-0.4-0.2h-3.2c-1.7,0-6.5,0.1-9.2,0.5h-0.1
			c-0.7,0-2.5-2.2-2.5-2.9c4.4,0.8,10.1,0.8,11.9,0.8h3.1c0.4,0,0.7-0.1,1-0.4c0.4-0.3,1.1-1.1,1.4-1.4c0.2-0.2,0.4-0.2,0.5-0.2
			C254.2,86.8,258.6,89.4,258.6,91L258.6,91z M283.4,120.4c0,0.5-0.4,0.9-1.3,1.3s-1.1,0.5-1.2,1.5c-0.8,10.2-5,14.2-10.4,14.2
			c-1.4,0-1.8-0.2-2-0.8c-0.5-1.4-4.1-3.6-5.5-4.6c-5.5,5-13.3,6.4-14.8,6.4c-0.3,0-0.5-0.1-0.5-0.2c0-0.2,0.6-0.5,1.4-0.8
			c8.5-2.5,14.1-8.9,16.3-16.9c-2.5,0.1-5.3,0.2-8.8,0.6h-0.1c-1.1,0-2.9-2.3-2.9-3.1c4.5,0.7,8.9,0.8,12.1,0.9
			c0.5-2.3,0.6-4.9,0.6-5.8c0-0.6,0-1.1-0.1-1.7v-0.2c0-0.1,0-0.1,0.1-0.1c0.5,0,6.6,0.9,6.6,2.2c0,0.4-0.4,0.7-1.1,1
			c-1.1,0.4-1.1,0.4-1.3,1.7c-0.2,1-0.4,2-0.6,2.9h6.2c0.5,0,0.7-0.2,0.8-0.5c1.4-1.6,1.6-1.6,1.6-1.6
			C279.8,116.8,283.4,119.2,283.4,120.4L283.4,120.4z M276.3,120.3h-6.5c-1.3,4.6-3.4,8.3-6.4,11.2c2.8,0.7,5.2,1.4,7.1,1.4
			s3.5-0.7,4.7-2.9c1.2-2.3,1.9-6.1,2-8.8C277.1,120.7,277,120.3,276.3,120.3L276.3,120.3z M264.4,95.4l-0.2,0.3
			c1.2,2.7,3.1,5.2,5.6,7.4c2.4-3.3,3.3-5.9,3.6-7.7L264.4,95.4L264.4,95.4z"/>
		<path d="M297.2,122c0-2.1,0.2-4.1,0.6-6.1c0.8-4.1,2-7.8,2.7-11.3c0.3-1.5,0.4-2.9,0.4-4.1c0-2.6-0.5-4.6-1.1-5.7
			c-0.4-0.7-0.8-1.2-0.8-1.5s0.3-0.4,1.2-0.4c1.9,0,5,2.6,5,7.1c0,2-0.7,4-1.7,6.5c-1.5,3.7-3.3,8.2-3.3,12.3c0,1.4,0.4,3.7,0.9,3.7
			c0.2,0,0.4-0.3,0.7-0.9c1.5-3.2,5.6-11.2,6.2-11.2c0.1,0,0.1,0.1,0.1,0.2c0,0.2-0.1,0.7-0.4,1.4c-0.8,2-4.1,10.6-4.1,15.7
			c0,1.3,0.2,2.3,0.4,3.2c0.1,0.4,0.2,0.8,0.2,1.2c0,1.5-0.9,2.4-1.9,2.4C298.1,134.6,297.2,125,297.2,122L297.2,122z M333.9,126.1
			c2.3,0,3.6,1.1,3.6,2.3c0,3.7-8.5,3.8-9.5,3.8c-10.3,0-13.6-5.3-13.6-8.3c0-0.4,0.1-0.6,0.2-0.6c0.3,0,0.7,0.4,1.3,1.2
			c1.2,1.7,5.2,2.9,9.7,2.9c1.2,0,2.4-0.1,3.6-0.2c1.4-0.2,2.4-1,4.4-1C333.6,126.1,333.9,126.1,333.9,126.1z M324.7,104.8
			c-9,0-9.5-5.4-9.5-5.8c0-0.2,0.1-0.2,0.2-0.2s0.6,0.2,1.1,0.5c1.7,1,3.9,1.4,6.1,1.4c1.7,0,3.4-0.2,5-0.6c0.8-0.2,1.4-0.6,2.2-0.7
			c0.4-0.1,0.8-0.1,1.1-0.1c1.9,0,3.1,1,3.1,2.1C334.2,104.2,327.7,104.8,324.7,104.8z"/>
		<path d="M29.9,196.7v0.2c0,1.2-1.1,2.3-2.5,2.3c-1,0-1.9-0.6-1.9-1.9V197c0.4-3.8,0.7-10.9,0.7-13.2V183c-4.3,4.8-7.6,6.6-8,6.6
			c-0.1,0-0.1,0-0.1-0.1s0.2-0.4,0.7-0.9c1.2-1.2,2.5-2.8,3.8-4.6h-6.7c-0.1,3.2-0.1,6.8-0.1,10.3c2.9-1.1,5.6-2.2,7.7-3.1
			c0.6-0.2,1-0.4,1.1-0.4c0.1,0,0.2,0.1,0.2,0.1c0,0.7-4.9,3.9-9.1,6.7c0,3.4,0.1,6.8,0.1,9.7c0,1.6,0.2,5.6,0.2,7.1
			c0,4.8-4,6.4-6.4,6.4c-0.5,0-0.8-0.2-1.2-0.8c-1.1-1.9-5.1-4.3-5.1-4.8c0-0.1,0.1-0.1,0.2-0.1c0.1,0,0.3,0,0.5,0.1
			c2,0.4,3.5,0.7,4.6,0.7c2,0,2.8-0.8,2.9-2.5c0.1-3.7,0.1-8.6,0.2-13.7L7,202.3c-0.5,0.2-0.6,1-1.1,1c-1.2,0-4.3-5-4.3-5
			c0-0.1,0.2-0.1,0.6-0.1c2.1-0.2,3.1-0.4,9.5-2.5V184c-1.9,0.1-4.2,0.2-6.7,0.5H5c-0.7,0-2.5-2.2-2.5-2.9c3.2,0.5,6.6,0.7,9.2,0.8
			c-0.2-9.6-0.3-10.5-0.8-13.3c-0.1-0.2-0.1-0.2-0.1-0.4s0.1-0.2,0.2-0.2c0.5,0,7.5,1,7.5,2.4c0,0.5-0.6,1-1.3,1.4
			c-1.1,0.6-1.1,0.4-1.3,2.5c-0.1,1.9-0.2,4.5-0.2,7.6h0.5c0.2,0,0.5-0.2,0.7-0.5c1.7-2.9,1.9-3.1,2.4-3.1c0.1,0,0.2,0,0.2,0.1
			c1.3,0.6,2.8,2.2,3.5,3.8c0,0.1,0.1,0.1,0.1,0.1c1.6-2.5,5.8-9.2,6.4-13c0.1-0.4,0.1-0.5,0.2-0.5c0.7,0,5.9,2.3,5.9,3.5
			c0,0.5-0.7,0.9-1.7,1c-0.9,0.1-1.1,0.2-3.2,3.5l0.4,0.1l0.3,0.2h6.1c0.6-2,1.1-4.6,1.1-7.9c0-0.4,0-0.5,0.2-0.5
			c0.2,0,6.4,1.9,6.4,3.2c0,0.5-0.6,1-1.7,1.1c-0.5,0.1-0.7,0.3-1,0.7c-1.1,1.3-2.1,2.5-3.2,3.4H46c0.2,0,0.5-0.2,0.7-0.5
			c0.7-1.2,2.2-2.9,2.8-2.9c0.7,0,4.8,2.8,4.8,4.1c0,0.4-0.2,0.7-1.1,0.7H41.8c0.7,0.4,0.8,0.4,0.8,0.6c0,0.3-0.4,0.7-1.2,1
			c-0.4,0.1-0.5,1-0.5,1.6c0,0.4-0.1,0.8-0.1,1.3h3.5c0.2,0,0.6-0.2,0.8-0.5c0.8-1.2,2-2.2,2.3-2.2c0.8,0,4.4,2.3,4.4,3.5
			c0,0.3-0.2,0.6-1.1,0.6h-10c0,1.3-0.1,2.7-0.1,4.1h3.7c0.2,0,0.6-0.2,0.8-0.5c0.6-0.8,1.3-1.5,1.9-2c0.1-0.1,0.3-0.2,0.5-0.2
			c0.8,0,4.3,2.2,4.3,3.4c0,0.4-0.2,0.7-1.1,0.7h-10c0,1.7,0.1,3.4,0.1,4.9h6c0.2,0,0.6-0.2,0.8-0.5c0.1-0.1,2-2.9,2.8-2.9
			s4.9,2.6,4.9,4.1c0,0.4-0.2,0.7-1.1,0.7L29.9,196.7L29.9,196.7z M40.9,221.9c-0.7,0-1-0.4-1.3-0.8c-0.8-1.6-5.9-4.1-5.9-4.4h0.1
			c0.1,0,0.2,0,0.5,0.1c2.5,0.8,4.8,1.2,6.8,1.2c2.5,0,4.6-0.7,5.7-2.3c1.7-2.4,2.2-6.4,2.2-6.5c0-0.4-0.2-0.6-0.5-0.6h-5.4
			l-0.7,2.3c-0.4,1.2-1.6,1.7-2.6,1.7c-1,0-1.8-0.5-1.8-1.3c0-0.2,0.1-0.5,0.2-0.8c1.1-2.6,2.5-6.7,2.5-7.5c0-0.2-0.2-0.4-0.5-0.4
			H34c1.7,0.4,2.2,0.5,2.2,0.9c0,0.2-0.2,0.5-0.7,0.7c-0.7,0.2-0.8,0.1-1.2,1.7c-4.1,16.1-20.1,16.3-21.1,16.3
			c-0.4,0-0.6-0.1-0.6-0.2s0.5-0.4,1.2-0.5c10.3-2.5,16.4-10.9,16.4-18.9c-2.5,0.1-5,0.2-7.6,0.4h-0.1c-0.9,0-2.5-2-2.5-2.8
			c5.7,0.7,12.6,0.8,14.7,0.8H40c0.3,0,0.7-0.2,0.9-0.5c0.4-0.4,0.9-1,1.3-1.3c0.2-0.2,0.3-0.2,0.5-0.2c0.5,0,4.6,2.1,4.6,3.5
			c0,0.6-0.8,0.9-1.4,1.1c-1.4,0.5-1.4,0.5-2.2,3.2h4.7c0.4,0,0.8-0.1,1-0.4c0.7-0.9,1.6-1.3,1.7-1.3c1,0,4.3,2.2,4.3,3.1
			c0,0.5-0.5,1-1.4,1.4c-0.5,0.2-0.9,0.3-1,1c-1.2,5.2-3,11.2-11.2,11.2H40.9z M37.2,184.9h-7.3c-0.1,1.3-0.1,2.7-0.1,4.1h7.3V184.9
			z M29.9,190.4c0,1.7,0.1,3.4,0.1,4.9h7.1c0.1-1.2,0.1-3,0.1-4.9H29.9z M31.5,179l-0.7,0.4c-0.4,0.1-0.8,0.5-0.8,4.1h7.2
			c0-1.4-0.1-3-0.3-4.4H31.5z"/>
		<path d="M79,198.2c6.1-6.3,12.2-8.8,17.3-8.8c8,0,13.7,6,13.7,11.9c0,12.9-19.3,19-22.6,19c-0.2,0-0.3-0.1-0.3-0.1
			c0-0.2,0.7-0.5,2.2-1.2c5.5-2.3,15.8-8.9,15.8-17.4c0-6.6-6.2-9.4-10.8-9.4c-7.4,0-12.5,5.1-15.9,8.5c-0.2,3.2-0.2,5.3-0.2,5.5
			c0,3.5,0.5,7.1,1.3,10.1c0.2,0.8,0.2,1.4,0.2,2c0,1.9-0.8,2.9-1.7,2.9c-1.1,0-2.5-1.5-2.8-4.7c-0.2-2.3-1.4-5.6-2.6-8
			c-1.3,2.8-1.9,4.7-2.3,6.1c-1,2.8-2.9,4.3-4.1,4.3c-0.7,0-1.3-0.5-1.3-1.6c0-1.1,0.6-3.7,6.2-11.8c-1.2-2.2-2.6-4.2-3.5-5.1
			c-1-1-1.4-1.8-1.4-2.6s0.5-1.4,1.6-1.9c1.4-0.6,2.4-1.4,3.2-2.2c2.1-2.2,4.7-4.1,7.1-5.6c0.1-1,0.1-1.9,0.1-2.7
			c0.1-1.1,0.1-2.1,0.1-2.9c0-4.7-0.9-5.9-3.8-7.8c-0.5-0.3-0.8-0.5-0.8-0.7c0,0,0.8-1.1,2.3-1.1c0.8,0,5.3,0.4,5.3,6.1
			c0,1.1-0.8,6.7-1,7.9h0.4c2.5,0,3.4,0.7,3.4,1.7c0,1.3-1.3,3.1-2.6,4.9c-0.8,1.1-1.7,2.5-2.7,4l-0.1,1
			C78.6,198.5,79,198.2,79,198.2z M72.6,203.5c1.5-1.9,3.2-4.4,4.6-6.8c0.2-2.1,0.4-4.2,0.6-6.1c-1.8,1.3-3.4,3.3-4.4,5.6
			c-0.8,1.8-1.6,2.3-3.5,2.6c-0.5,0.1-0.7,0.2-0.7,0.5c0,0.5,0.8,1.9,2.6,5.2C71.8,204.6,72.6,203.5,72.6,203.5z M73.3,207.1
			c1.9,3.2,2.2,3.6,2.5,3.6c0.1,0,0.2-0.1,0.2-0.5c0-2.6,0.3-5.2,0.5-7.7c-1,1.3-2,2.6-3,4L73.3,207.1L73.3,207.1z M79.3,193
			c1.1-2,1.1-2.5,1.1-2.5c0-0.4-0.1-0.7-0.5-0.8L79.3,193z"/>
		<path d="M154.6,205c0,3.7,2,5.5,4.9,5.5c2.6,0,6.1-1.6,9.2-4.8c1.5-1.5,2.2-2,2.5-2c0.1,0,0.1,0,0.1,0.1c0,1-5.5,10.9-14,10.9
			c-4.1,0-7.3-2.8-7.3-8.8c0-0.6,0-1.2,0.1-1.8c0.4-4,2.4-8,3.3-12.2c0.2-1.3,0.4-2.4,0.4-3.4c0-3.1-1.3-4.7-3.7-4.7
			c-2.9,0-9.8,2.9-16.9,11.8c-0.4,3.9-0.6,5.5-0.6,8.5c0,3.7,0.4,7.3,1.4,10.5c0.4,1.1,0.5,2,0.5,2.8c0,1.9-0.8,2.9-1.9,2.9
			c-1.4,0-3.1-1.8-3.1-5.4c-0.1-1.5-1.4-5.5-2.4-8.5c-0.6,1.6-1.1,3.2-1.4,4.9c-0.7,3.1-2.6,4.9-4,4.9c-0.7,0-1.3-0.5-1.3-1.8
			c0-2.6,1.7-5.8,5.4-11.6c-1.1-2.5-2.1-4.9-3.4-7.3c-0.5-0.9-0.7-1.7-0.7-2.5c0-1,0.4-1.9,1.2-2.5c2.3-1.8,8-3.4,9.1-3.6l0.1-0.5
			c0.2-1.7,0.4-3.7,0.4-5.5c0-5.3-2-6.4-3.3-6.6c-1.1-0.2-1.7-0.6-1.7-1c0-0.5,1.4-1.4,2.8-1.4c2.8,0,5.6,3.4,5.6,6.7
			c0,1.2-0.2,2.6-0.6,4.3c-0.3,1.3-0.6,2.6-0.8,3.7h0.1c1.9,0.1,2.5,0.8,2.5,1.8c0,0.3-0.1,0.7-0.2,1.1c3.2-3,8.6-7.6,14-7.6
			c3.9,0,6.5,2.7,6.5,7.7c0,0.8-0.1,1.7-0.2,2.6c-0.7,4.3-2.5,8.5-2.7,12.5L154.6,205L154.6,205z M131.6,191
			c-0.1-0.1-0.3-0.1-0.4-0.1c-1.5,0-5.1,1-6.3,1.9c-0.5,0.4-0.7,1-0.7,1.6c0,0.3,0.1,2.6,2.3,7.1c1.3-1.9,3.9-6.4,5-9.1L131.6,191
			L131.6,191z M127.9,204.6c0.1,0.2,1.9,3.7,2.3,3.7c0.1,0,0.2-0.3,0.2-1c0-2.2,0.2-5.2,0.5-8.3
			C129.5,200.9,129.1,201.8,127.9,204.6L127.9,204.6z"/>
		<path d="M189.6,196.7c0.1,0,0.1-0.1,0.3-0.2c2.7-1.7,6.1-2.7,9.4-2.7c7.7,0,12.5,5.4,12.5,11.2s-5.5,13.7-16.6,13.7
			c-5.8,0-9.7-2.9-9.7-6.1c0-2.9,3-4.5,5.9-4.5c4,0,6.4,3.1,6.4,6.2c0,0.5-0.1,1-0.2,1.5c7-1.7,9.7-6.5,9.7-10.7c0-4.7-3.4-9-9.4-9
			c-2.1,0-9.1,0.5-13.1,9.1c-1.4,3.1-2.4,5-4.4,5c-1.1,0-1.9-0.8-1.9-2c0-1.7,2.2-4.3,5-7.5c3.6-4.1,12.1-15.5,14.6-19.7
			c0.3-0.4,0.4-0.8,0.4-1.1c0-0.4-0.2-1-1.5-1c-2.8,0-4.1,5.8-8.2,5.8c-2.2,0-4-1.4-4-3.7c0-0.7,0.1-1.2,0.5-1.2
			c0.3,0,0.7,0.1,1.1,0.3c0.5,0.2,1,0.2,1.4,0.2c0.8,0,1.7-0.2,2.5-0.8c2.3-1.6,5.1-3.6,8.3-3.6c3.5,0,5.7,2.5,5.7,3.8
			c0,1.2-1.3,2.3-2.6,3.2C197.4,186.1,189.6,196.6,189.6,196.7L189.6,196.7L189.6,196.7z M194.2,214.1c0-2.1-1.6-3.9-3.8-3.9
			c-2.6,0-2.7,2-2.7,2.3c0,0.2,0,3.1,6,3.7C194,215.5,194.2,214.7,194.2,214.1L194.2,214.1z"/>
		<path d="M275,203.9c0,0.4-0.3,0.8-1.3,0.8h-31.4c-3.3,0-12.1,0.1-17.3,0.6h-0.1c-1.1,0-2.9-2.3-2.9-3c6.1,0.7,16.9,0.9,20.3,0.9
			c-0.5-0.4-0.9-0.9-1.1-1.7c-0.4-1.4-1.6-3.3-2.5-4.4c-0.3-0.3-0.4-0.5-0.4-0.6c0-0.1,0.1-0.1,0.3-0.1c4.5,0,7.4,2.3,7.4,4.6
			c0,1-0.5,1.8-1.2,2.2h5.9c0.9-1.8,1.9-4.3,2.2-7.1c0.1-0.5,0-0.6,0.2-0.6c1,0,6.3,3,6.3,3.9c0,0.4-0.5,0.7-1.4,0.7h-0.6
			c-0.5,0-0.8,0.3-1.4,0.7c-0.5,0.4-2.3,1.6-3.6,2.4h12.4c0.4,0,0.7-0.2,0.9-0.5c2.6-3.3,2.8-3.5,3.3-3.5c0.2,0,0.4,0,0.5,0.1
			C271.6,200,275,202.7,275,203.9L275,203.9z M273.8,175.3c0,0.4-0.2,0.7-1.3,0.7h-21.9v4.9h7.3c0.4,0,0.8-0.2,1-0.5
			c0.7-1.1,2.6-3.4,3.3-3.4c1.5,0,5.5,3.3,5.5,4.6c0,0.4-0.2,0.7-1.2,0.7h-19.1c-3.2,0-10,0.1-15.2,0.6h-0.1c-1.1,0-2.8-2.3-2.8-3
			c5.3,0.7,12.9,0.8,16.9,0.9V176h-2.6c-3.2,0-11.9,0.1-17,0.6h-0.1c-1.1,0-2.8-2.3-2.8-3c5.9,0.7,16.9,1,20.2,1h2.3
			c-0.1-2.5-0.1-3.7-0.7-6.2c-0.1-0.2-0.1-0.4-0.1-0.4s0.1-0.1,0.1-0.1c0.5,0,7.7,0.9,7.7,2.3c0,0.4-0.4,0.9-1.1,1.3
			c-1.1,0.6-1.4,0.2-1.4,2.4c0,0.2-0.1,0.5-0.1,0.8h12.8c0.4,0,0.8-0.2,1-0.5c1-1.3,2.8-3.8,3.5-3.8
			C269.3,170.2,273.8,173.9,273.8,175.3L273.8,175.3z M266.2,210.4c0,0.5-0.5,0.9-1.3,1.3c-1,0.5-1.2,0.7-1.2,2.3
			c0,1.3,0.3,3.9,0.4,5.7v0.1c0,1.5-1.8,2-2.8,2c-1.1,0-2-0.5-2-1.6v-1.9h-22.2c0,0.8,0.1,1.5,0.1,2v0.1c0,1.3-1.7,1.9-2.9,1.9
			c-1.1,0-2.1-0.5-2.1-1.6v-0.2c0.3-2.4,0.5-6.4,0.5-7.7c0-0.7-0.2-3.9-0.7-5.6c-0.1-0.2-0.1-0.2-0.1-0.3c0-0.1,0-0.1,0.1-0.1
			c0.1,0,3.5,0.8,6.3,2.5h0.1c0,0,0.1,0,0.1,0.1h19.6c0.3,0,0.5,0,0.8-0.3c0.4-0.5,1-1.3,1.4-1.6c0.2-0.2,0.5-0.3,0.8-0.3
			C262.1,206.9,266.2,209.3,266.2,210.4L266.2,210.4z M264.9,187.7c0,0.5-0.5,0.8-1.3,1.3c-1.1,0.7-1.1,1-1.1,2.1s0.3,2.5,0.4,3.8
			v0.1c0,1.2-1.3,2-2.6,2c-1,0-2-0.5-2-1.6v-0.7H238c0,0.4,0.1,0.7,0.1,1v0.1c0,0.8-0.9,1.9-2.7,1.9c-1.1,0-2-0.5-2-1.6v-0.2
			c0.3-2.4,0.4-4.9,0.4-6.2c0-0.7-0.2-3.5-0.6-5.2c-0.1-0.2-0.1-0.2-0.1-0.3c0-0.1,0.1-0.2,0.1-0.2c0.3,0,4.3,1.3,6,2.4h0.1
			c0,0,0.1,0,0.1,0.1h17.8c0.3,0,0.5-0.1,0.8-0.4c0.4-0.5,0.9-1.1,1.3-1.4c0.2-0.2,0.4-0.3,0.7-0.3
			C260.5,184.4,264.9,186.4,264.9,187.7L264.9,187.7z M259.3,211.3c0-0.4-0.3-0.6-0.8-0.6h-20.2c-0.1,0.1-0.3,0.2-0.5,0.4
			c-0.7,0.4-0.8,0.5-0.8,3.1c0,0.8,0.1,1.7,0.1,2.6h22.3C259.3,214.7,259.3,212.5,259.3,211.3L259.3,211.3z M258.3,188.6
			c0-0.4-0.4-0.6-0.8-0.6h-18.4c-0.1,0.1-0.3,0.2-0.5,0.3c-0.5,0.4-0.8,0.5-0.8,3c0,0.6,0.1,1.3,0.1,2h20.4V188.6z"/>
		<path d="M317.2,178.7c0,5.8,3.1,12.7,9.4,16.1c1.7,0.9,2.3,2.2,2.3,3.4c0,1.3-0.8,2.3-2.2,2.3c-3.6,0-8.9-7.7-10.5-14.5
			c-0.1-0.3-0.1-0.4-0.2-0.4s-0.1,0.3-0.1,0.7c0,0.7,0.1,1.6,0.1,2.6c0,11.8-1.3,18.7-5.3,23.2c-3.6,4.1-8.6,6.8-13.3,6.8
			c-9.9,0-11.3-11.3-11.3-14.5c0-4.7,1.6-9.1,3.5-13.4c1.7-3.8,3.8-7.1,4.9-9c0.1-0.1,0.1-0.2,0.1-0.2s0-0.1-0.1-0.1
			c-0.1,0-0.2,0.1-0.4,0.1c-1.4,0.7-2.7,1-3.7,1c-2.3,0-3.4-1.5-3.4-3c0-1.4,0.9-2.5,1.4-2.5c0.2,0,0.4,0.5,0.7,0.8
			c0.4,0.5,1.3,0.7,2.5,0.7c1.6,0,4.6-0.8,5.6-1.5c1.6-1,3.1-1.5,4.4-1.5c2.3,0,3.5,1.4,3.5,2.3c0,0.7-0.6,1.4-2,1.6
			c-0.7,0.1-2.1,0.4-3,0.8c-3.4,1.4-10.6,13-10.6,22.6c0,6.1,2.8,11.2,8.5,11.2c3.6,0,7.5-1.9,10.3-4.6c2.7-2.5,4-5.7,4.8-9.5
			c0.7-3.8,1.3-14.2,1.3-15.2c0-3-1.4-6.2-1.4-9.1c0-3.8,1.5-4,2-4c1.1,0,2.2,1.5,2.2,3.1c0,1.1-0.1,2.2-0.1,3.3L317.2,178.7
			L317.2,178.7z M324.7,180.8c-1.4-1.9-3.4-3.4-4.9-4.4c-0.5-0.3-1-0.5-1-0.7c0-0.3,1.8-0.3,1.9-0.3c2.7,0,7.4,1.2,7.4,4.3
			c0,1.2-0.8,2-1.8,2C325.9,181.7,325.3,181.5,324.7,180.8L324.7,180.8z M330.4,177.1c-1.6-1.7-3.5-3.1-5.2-3.9
			c-0.5-0.2-1-0.5-1-0.7c0-0.4,1.8-0.5,2.7-0.5c3,0,6.8,1.2,6.8,4c0,1.1-0.7,2-1.7,2C331.6,178,331,177.7,330.4,177.1L330.4,177.1z"
			/>
	</g>
</g>
</svg>
