<?xml version="1.0" encoding="utf-8"?>
<!-- Generator: Adobe Illustrator 27.1.1, SVG Export Plug-In . SVG Version: 6.00 Build 0)  -->
<svg version="1.1" id="_レイヤー_2" xmlns="http://www.w3.org/2000/svg" xmlns:xlink="http://www.w3.org/1999/xlink" x="0px"
	 y="0px" viewBox="0 0 494.6 222.1" style="enable-background:new 0 0 494.6 222.1;" xml:space="preserve">
<g id="_デザイン">
	<g>
		<path d="M53.7,49.6c0,0.4-0.3,0.7-1.3,0.7H20.9c-3.4,0-12.3,0.1-17.6,0.7H3.2c-1.1,0-2.8-2.3-2.8-3.1c2.9,0.4,7.1,0.6,11,0.7
			c0.1-3.5,0.1-6.9,0.1-9.8c0-4,0-7.3-0.1-9.4c0-2.1,0-7.1-0.6-9.9c-0.1-0.2-0.1-0.4-0.1-0.5c0-0.1,0.1-0.1,0.2-0.1
			c0.5,0,7.5,0.9,7.5,2.5c0,0.4-0.5,1-1.4,1.4c-1.3,0.7-1.3,0.9-1.3,14.6c0,3.7,0,7.6,0.1,11.3c2.3,0.1,4.3,0.1,5.5,0.1h4.4
			c0.1-4.8,0.1-14.6,0.1-22.7c0-14.2-0.1-15.6-0.5-18.1h-3.4C18.5,8,11.5,8.1,6.2,8.6H6.1C5,8.6,3.3,6.3,3.3,5.5
			c6.1,0.7,15.4,1,18.8,1h17.8c0.4,0,0.8-0.2,1-0.5c0.1-0.1,2.6-4.3,3.7-4.3c0.2,0,0.3,0.1,0.4,0.1c2.4,0.8,5.5,4.9,5.5,5.6
			c0,0.4-0.3,0.7-1.3,0.7H31.7c0.6,0.2,0.8,0.5,0.8,0.8s-0.4,0.7-1,1c-1.1,0.5-1.1,0.6-1.2,3.2c-0.1,1.7-0.1,7.2-0.1,13.5h6
			c0.4,0,0.8-0.2,1-0.5c0.4-0.6,2.8-4,3.6-4c1.6,0,5.7,4.3,5.7,5.3c0,0.4-0.2,0.7-1.2,0.7H30.3c0,7.9,0,16.6,0.1,20.8h12.4
			c0.4,0,0.8-0.2,1-0.5c0.6-1,2.9-4.4,3.8-4.4C49.4,43.7,53.7,48.8,53.7,49.6z"/>
		<path d="M113.4,49.3c0,0.3-0.2,0.6-1.1,0.6H89.8v1.6c0,1.1-1.1,2.5-2.7,2.5c-1.1,0-2-0.7-2-2.1v-0.3c0.5-5.2,0.9-18.4,0.9-22.1
			v-2.8c-2.2,2.6-4.6,5-7.1,6.8c0.1,2.9,0.2,5.8,0.3,8.2v0.1c0,1.4-1.4,2.3-2.5,2.3c-1,0-1.8-0.5-1.8-1.9c0-0.7,0.1-1.4,0.1-2.2H70
			c0,2.3,0.1,4.4,0.1,6.3v0.1c0,1.3-1.3,2.2-2.6,2.2c-1,0-1.9-0.5-1.9-1.8v-0.2c0.4-5.7,0.7-12.1,0.7-17.9c0-0.8,0.1-1.8,0.1-2.9
			c-3.7,5.4-8.4,9.7-8.9,9.7c0,0-0.1,0-0.1-0.1c0-0.2,0.2-0.5,0.7-1.2c5.6-7.4,11.1-20.5,11.8-25.7c-2,0.1-4.3,0.2-7,0.5h-0.1
			c-0.7,0-2.5-2.2-2.5-2.9C64.8,6.8,69.5,7,72,7h2.4c0.2,0,0.5-0.2,0.8-0.5c0.8-0.9,1.6-2.5,2.4-3.4C77.7,3.1,77.9,3,78.1,3
			c1.1,0,5.2,3.7,5.2,4.9c0,0.3-0.2,0.6-1.1,0.6h-7.3l0.5,0.2c0.5,0.2,0.8,0.5,0.8,0.7c0,0.3-0.4,0.7-1.3,1
			c-0.6,0.2-0.8,0.5-1.3,1.9c-1.1,2.6-2.4,5.2-3.8,7.7l1.4,0.8h2.8c0.2,0,0.5-0.1,0.8-0.5c0.9-1.3,1.3-1.7,1.7-1.7
			c0.7,0,4.7,2.3,4.7,3.5c0,0.5-0.6,1-1.2,1.4c-1,0.7-1,0.6-1,1.9c0,0.7-0.1,1.7-0.1,2.9s0.1,2.4,0.1,3.8
			c4.9-5.1,9.6-13.5,12.8-21.4h-5.2c0,4-1.8,7.3-4.5,7.3c-1.4,0-2.5-1-2.5-2.3c0-0.8,0.4-1.6,1.2-2.4c2.6-2.5,3.8-4,4.1-7.1
			c0.1-0.6,0.2-0.9,0.3-0.9c0.4,0,1.1,2.1,1.3,3.9h5.9c0.6-1.6,1.1-3.2,1.6-4.7c0.3-1,0.6-2.4,0.6-3.6V0.6c0-0.2-0.1-0.3-0.1-0.4
			c0-0.1,0.1-0.2,0.3-0.2c0.8,0,6.8,1.7,6.8,2.8c0,0.5-0.6,0.9-1.9,1.2c-0.7,0.2-1,0.7-1.3,1.6c-0.5,1.2-1,2.4-1.6,3.6h8.5
			c0.2,0,0.8-0.2,1-0.4c1.3-1.6,1.8-1.6,2-1.6c0.4,0,5,2.9,5,4.7c0,0.7-0.7,1.3-2.3,1.5c-2.5,0.2-4.8,2.5-6.8,3.7
			c0.1,0.1,0.2,0.2,0.2,0.4c0,0.5-0.6,0.9-1.6,1.1c-0.6,0.1-0.9,0.4-1.3,0.8c-0.8,0.8-2.2,2.1-3.4,3.1h5.4c0.2,0,0.6-0.2,0.8-0.5
			c1.8-2.9,2.5-3.1,2.8-3.1c1.1,0,4.8,3.3,4.8,4.5c0,0.3-0.2,0.6-1.1,0.6h-9.8c0.1,0,0.1,0.1,0.2,0.1c0.4,0.1,0.6,0.4,0.6,0.6
			c0,0.3-0.4,0.7-1.1,1c-0.4,0.1-0.5,0.6-0.5,1.2c-0.1,1.1-0.1,2.6-0.1,4.1h2.3c0.2,0,0.6-0.2,0.8-0.5c0.7-1.1,1.9-2.7,2.5-2.7
			c0.4,0,4.4,2.4,4.4,4c0,0.4-0.2,0.7-1.1,0.7h-8.9v6.7h2.3c0.2,0,0.6-0.2,0.8-0.5c0.7-1.1,1.9-2.7,2.5-2.7c0.7,0,4.4,2.6,4.4,4
			c0,0.4-0.2,0.7-1.1,0.7h-8.9v7.8h4.9c0.2,0,0.6-0.2,0.8-0.5c0.7-1.1,2.3-3.3,2.9-3.3C109.3,44.6,113.4,47.6,113.4,49.3L113.4,49.3
			z M75.1,28.4c0-2-0.1-3.8-0.1-5.3c0-0.4-0.2-0.7-0.6-0.7h-3.4c-0.9,0.6-1,0.7-1,8.3c0,2.5,0.1,5.2,0.1,7.9h4.9
			C75,35.1,75.1,31.5,75.1,28.4z M105.4,10.7h-9.3c-1.9,3.9-4,7.7-6.4,11.2l1.3,0.5l0.3,0.1h5.2c1.2-4.3,1.4-5.8,1.4-7.3
			c0-0.7,0.2-0.7,0.2-0.7c1.2,0,5.1,1.9,5.6,2.2c0.8-1.6,2-4.4,2-5.4C105.7,10.8,105.6,10.7,105.4,10.7z M96.1,32.4h-6.3
			c0,2-0.1,4.4-0.1,6.7h6.4V32.4z M96,40.6h-6.3c0,2.9,0.1,5.6,0.1,7.8H96C96,48.4,96,40.6,96,40.6z M96.1,29.8c0-1.6,0-4.1-0.3-5.9
			h-4.4l-0.7,0.4c-0.7,0.3-0.7,0.5-0.9,6.6h6.3C96.1,30.9,96.1,29.8,96.1,29.8z"/>
		<path d="M133.1,32.5c-3.2,0-5.7-2.5-5.7-5.7s2.5-5.7,5.7-5.7s5.7,2.5,5.7,5.7S136.3,32.5,133.1,32.5z"/>
		<path d="M207.9,45.3c0.1,0,0.2,0,0.2,0.1c0,0.5-4,3.2-5.2,5.6c-0.2,0.5-0.7,1-1.3,1.1c-0.5,0.1-7.4,1-14.7,1
			c-6.1,0-19,0-21.8-10.3c-1.5,2.2-5,6.2-7.5,8.9c-0.2,0.2-0.2,1.4-0.8,1.4c-0.5,0-5.4-4.2-5.4-5c0-0.1,0.1-0.2,0.4-0.3
			c2.6-0.5,6.7-2.8,9.4-4.9c0.9-0.7,1-1.9,1-11.3c0-1.6-0.1-2.9-0.1-3.5c0-0.4-0.3-0.7-0.7-0.7l-0.9,0.1c-1,0.1-3.6,0.6-4.7,0.7
			h-0.1c-1,0-2.6-2.3-2.6-3.2c2,0.3,5.9,0.8,7.3,0.8h0.2l0.8-0.1c0.4,0,0.7-0.2,1-0.5c1.5-1.7,1.7-1.7,2-1.7c0.7,0,5.3,2.6,5.3,3.9
			c0,0.6-0.7,1-1.3,1.3c-1,0.5-1.5,0.4-1.6,1.7c-0.2,2.2-0.3,5.6-0.3,8.5v2.3c0,7,11.3,7.4,16.6,7.4c7.7,0,17.5-1.1,24.2-3.1
			C207.6,45.4,207.8,45.3,207.9,45.3L207.9,45.3z M168,10.2c0,1.5-1.1,2.7-2.5,2.7c-0.9,0-2-0.5-2.9-2c-1.6-2.5-4.4-5-6.2-6.2
			c-0.3-0.2-0.5-0.4-0.5-0.5c0-0.1,0.2-0.1,0.5-0.1C158,4,168,5.1,168,10.2L168,10.2z M191.9,23.8c0,0.4-0.2,0.7-1.1,0.7h-8.2
			c0,6,0.2,12.9,0.4,17.3v0.1c0,1.5-1.4,2.5-2.8,2.5c-1,0-1.9-0.7-1.9-2.2v-0.2c0.2-5.3,0.4-12.1,0.4-17.6c-2,0-4.6,0.1-7.2,0.5
			h-0.1c-0.8,0-2.3-1.9-2.3-2.8c3.1,0.5,7.1,0.7,9.7,0.8c0-9.7-0.5-12.1-0.7-12.8c-0.1-0.2-0.1-0.3-0.1-0.4s0-0.1,0.1-0.1
			c1,0,6.8,1.1,6.8,2.1c0,0.4-0.4,0.8-1,1.1c-1,0.5-1,0.3-1.1,1.9c-0.2,2-0.3,5-0.3,8.3h1.6c0.3,0,0.6-0.2,0.8-0.5
			c1.6-3.1,2.2-3.3,2.5-3.3C188.8,19.3,191.9,22.4,191.9,23.8z M205.7,40.6c0,1.5-1.1,2.5-2.5,2.5c-0.7,0-1.6-0.2-2.5-0.9
			c-7.5-5.5-8.3-17.3-8.3-26.2c0-2.8,0.1-5.2,0.1-7.2V8.3c0-0.6-0.3-1-0.9-1h-8c-1.8,0-8.5,0.1-11.3,0.5h-0.1c-0.8,0-2.3-2-2.3-2.9
			c3.5,0.7,11.9,0.8,13.8,0.8h7.7c0.3,0,0.6-0.1,0.8-0.5c0.2-0.3,1.3-1.8,2-1.8c0.7,0,5.1,2.5,5.1,3.9c0,0.5-0.4,1-1.1,1.3
			c-1.1,0.5-1.2,0.4-1.3,1.8c-0.2,2.5-0.4,5.4-0.4,8.5c0,12.5,4.2,16.9,4.7,16.9c1,0,2.2-2.4,3.5-6.2c0.2-0.5,0.4-0.9,0.4-1
			c0,0,0.1-0.1,0.1-0.1c0.1,0,0.1,0.2,0.1,0.6c0,1.4-0.4,4.7-0.4,7.3c0,1.1,0.1,2.1,0.3,2.6C205.6,39.5,205.7,40.1,205.7,40.6
			L205.7,40.6z"/>
		<path d="M267.8,45.3c0.1,0,0.2,0,0.2,0.1c0,0.5-4,3.2-5.2,5.6c-0.2,0.5-0.7,1-1.4,1.1c-0.5,0.1-7.4,1-14.6,1
			c-3.2,0-6.4-0.2-9.3-0.6c-6.8-1-11.2-4.9-12.5-9.7c-1.5,2.2-5,6.2-7.5,8.9c-0.2,0.2-0.3,1.4-0.9,1.4s-5.3-4.3-5.3-5
			c0-0.1,0.1-0.2,0.4-0.3c2.6-0.5,6.6-2.8,9.4-4.9c1-0.7,1-2.7,1-12.7v-2.2c0-0.4-0.3-0.7-0.7-0.7l-1,0.1c-1,0.1-3.5,0.5-4.7,0.6
			h-0.1c-1,0-2.6-2.3-2.6-3.1c2,0.3,5.9,0.8,7.3,0.8h0.2l0.8-0.1c0.4,0,0.7-0.2,1-0.5c1.2-1.3,1.6-1.7,1.9-1.7s5.3,2.4,5.3,3.8
			c0,0.6-0.7,1-1.3,1.3c-1,0.5-1.5,0.4-1.6,1.7c-0.2,1.9-0.3,5-0.3,7.7c0,1.2,0.1,2.3,0.1,3.3c0,0.4,0.1,1.1,0.2,1.6
			c0,0,0.1-0.1,0.1-0.1h0.1c5.3-2.7,10.9-7.8,16-15.4h-5.5v1.6c0,1.2-1.3,1.9-2.6,1.9c-1,0-1.8-0.5-1.8-1.6v-0.2
			c0.3-2.9,0.5-5.7,0.5-8.5c0-1.2-0.3-4.3-0.7-6.4c0-0.2-0.1-0.2-0.1-0.4c0-0.2,0.1-0.2,0.2-0.2c0.4,0,4.2,1.7,5.6,2.6l0.2,0.1h5.6
			c0-2.2-0.1-4.3-0.1-5.9c-2.8,0-8.3,0.1-12.4,0.6h-0.1c-0.8,0-2.5-2.4-2.5-3.1c4.7,0.7,11.9,1,14.9,1c-0.1-2-0.1-5.3-0.6-8
			c-0.1-0.3-0.1-0.4-0.1-0.5c0-0.1,0.1-0.1,0.1-0.1c1.4,0,7,1,7,2.3c0,0.4-0.4,0.8-1.1,1.2c-0.8,0.4-1.1,0.4-1.3,1.9L248,8.8h7.4
			c0.2,0,0.7-0.2,0.8-0.5c0.7-1.1,1.9-2.8,2.8-3.4c0.1-0.1,0.4-0.2,0.5-0.2c1.5,0,5.4,3.9,5.4,4.8c0,0.4-0.2,0.8-1.3,0.8H248
			c-0.1,1.7-0.1,3.7-0.1,5.9h6.2c0.4,0,0.7-0.3,0.8-0.5c0.7-1,1.4-1.7,1.8-1.7c0.8,0,4.7,2.5,4.7,3.5c0,0.5-0.7,1-1.4,1.4
			c-0.8,0.4-0.8,0.5-0.8,2.8c0,2,0.2,4.3,0.4,6.2v0.2c0,1.4-1.5,2-2.5,2c-1,0-1.9-0.5-1.9-1.8v-0.1c0-0.4,0.1-0.8,0.1-1.1H248v3.9
			c5.5,0.8,15.5,3.5,15.5,8.3c0,1.4-1,2.6-2.3,2.6c-0.8,0-1.9-0.5-2.8-1.8c-2-2.8-6.4-6.1-10.3-8.4c0.1,4.4,0.1,8.6,0.2,11.8v0.1
			c0,1.1-1,2.3-2.6,2.3c-1,0-1.9-0.6-1.9-2v-0.2c0.2-3.1,0.3-7.4,0.4-12c-4.3,5.3-10.4,9.6-17,11.5c-0.1,0-0.1,0.1-0.1,0.1
			c2.2,4,7.9,5.2,16.1,5.2c7.7,0,17.5-1.1,24.2-3.1C267.5,45.4,267.7,45.3,267.8,45.3L267.8,45.3z M227.9,10.2
			c0,1.5-1.1,2.7-2.5,2.7c-0.9,0-2-0.5-2.9-2c-1.6-2.5-4.5-5-6.3-6.2c-0.3-0.2-0.4-0.4-0.4-0.4c0-0.1,0.1-0.2,0.5-0.2
			C219.8,4,227.9,5.8,227.9,10.2L227.9,10.2z M238.4,17.8l-0.5,0.4c-0.7,0.5-0.7,0.2-0.7,1.7c0,0.7-0.1,1.6-0.1,2.6
			c0,1,0.1,2,0.1,3.2h6.9c0-2.7,0.1-5.4,0.1-7.9H238.4z M255.5,22.1c0-3.4-0.1-4.3-1-4.3h-6.6v7.9h7.5
			C255.5,24.4,255.5,23.3,255.5,22.1L255.5,22.1z"/>
		<path d="M287.8,15.2c-0.8,0.2-1.6,0.3-2.3,0.4c-0.4,0-0.7,0.1-1,0.1c-5.5,0-7.6-4-7.6-5.9c0-0.2,0.1-0.4,0.3-0.4
			c0.3,0,0.7,0.3,1.1,0.5c1.9,1.1,3.9,2,6.2,2c2,0,3.9-0.5,4.3-0.6c0.1-0.9,0.2-1.8,0.2-2.6c0-3.5-0.8-3.7-1.6-3.7
			c-1.3,0-1.4-0.3-1.4-0.5c0-0.1,0.1-0.7,1.1-1.7c0.5-0.4,1.1-0.5,1.7-0.5c1.1,0,3.8,0.6,3.8,4.4c0.7,0.1,1.4,0.1,2,0.1
			c1.9,0,3.7,0.1,3.7,1.7c0,1.7-3.3,4.5-7.4,5.9c-1.7,4.2-4,9.5-9.1,20.8c-1,2.2-2.8,3.4-4.1,3.4c-1,0-1.7-0.5-1.7-1.7
			c0-0.8,0.4-1.9,1.4-3.4c3.2-4.8,8.3-11.9,10.5-17.9C287.7,15.5,287.8,15.2,287.8,15.2z M292.1,52.4c-4.7,0-8.1-3.7-8.1-6.7
			c0-4,5.3-6,10.8-6c1.3,0,2.7,0.1,4,0.4c0-2.4-0.2-4.9-0.2-7c0.1-5.2,1.3-7.9,5.6-10.9c1.6-1.1,3.5-2.6,3.5-4
			c0-0.7-0.2-0.9-1.8-2.5c-0.6-0.5-1-0.9-1-1.2c0-0.2,0.4-0.4,1.4-0.4c2.9,0,7.6,2.6,7.6,6.2c0,1.1-0.7,3.4-2.6,3.4
			c-0.6,0-1.2-0.1-1.9-0.3c-0.4-0.1-0.7-0.1-1.2-0.1c-0.8,0-7.4,0.1-7.4,6.1c0,1.6,0.3,4,1,8.9c0.1,0.9,0.2,1.9,0.3,2.8
			c3.3,1.1,8.8,4,8.8,7.6c0,1.4-0.9,2.6-2,2.6c-0.8,0-1.7-0.5-2.4-1.9c-1-1.7-2.6-3.3-4.6-4.5C301,49.1,296.6,52.4,292.1,52.4z
			 M292.8,42c-4.1,0-7,1.7-7,3.5s2.6,3.1,5.4,3.1c3.5,0,6.9-2,7.4-5.5C296.8,42.4,294.8,42,292.8,42z M293.3,9.4
			c0.4-0.3,0.7-0.7,0.7-1.1c0-0.2-0.1-0.5-1.5-1c-0.1,0.9-0.2,1.8-0.5,2.9C292,10.1,293.3,9.4,293.3,9.4z"/>
		<path d="M44,118c0.1,2.6,0.3,6.2,0.4,7.7v0.1c0,1-0.7,2.2-2.7,2.2c-1,0-2-0.5-2-1.8v-0.1c0-0.4,0.1-1,0.1-1.6H29.3v0.7
			c0.1,1.4,0.2,3.8,0.2,4.9v0.1c0,6.4-6.8,7-7.9,7c-0.7,0-1.1-0.2-1.5-0.9c-1.1-1.7-7.5-4.3-7.5-4.8c0-0.1,0.1-0.1,0.2-0.1
			c0.1,0,0.3,0,0.6,0.1c3.1,0.5,5.5,0.8,7.3,0.8c2.9,0,4.1-0.8,4.2-3c0.1-0.7,0.1-2.4,0.1-4.8h-0.2c-5,0-9.5,0.2-15.2,0.6H9.6
			c-1.1,0-2.9-2.2-2.9-2.9c6.7,0.7,13.4,0.8,18.5,0.8V118h-3c-4.7,0-13.1,0.1-19.3,0.6H2.8c-1.1,0-2.8-2.3-2.8-3
			c7.1,0.7,17.5,0.8,22.2,0.8h2.9v-4.6h-0.3c-2.6,0-10.2,0.1-15,0.5H9.8c-1.1,0-2.8-2.1-2.8-2.8c5.5,0.7,15.2,0.8,18.2,0.8v-5H14.9
			v0.7c0,1.4-1.6,2-2.6,2c-1,0-1.9-0.5-1.9-1.7V106c0.2-1.8,0.4-5.2,0.4-6.3c0-0.7,0-3.1-0.4-5c0-0.1-0.1-0.2-0.1-0.3
			c0-0.1,0.1-0.2,0.1-0.2c0.5,0,4,1.4,5.7,2.6c0.1,0,0.1,0.1,0.1,0.1h8.9c0-2-0.1-3.6-0.1-4.7h-4c-3.4,0-11.3,0.1-16.6,0.7H4.4
			c-1,0-2.8-2.3-2.8-3.1c6.1,0.7,16.2,1,19.7,1H25c-0.1-2-0.1-4.7-0.6-6.5c-0.1-0.2-0.1-0.4-0.1-0.5s0-0.2,0.2-0.2
			c0.4,0,7.2,0.9,7.2,2.1c0,0.5-0.5,0.9-1.3,1.2c-0.8,0.3-0.9,0.8-1,2.3c0,0.3-0.1,0.8-0.1,1.6h11.9c0.4,0,0.8-0.2,1-0.5
			c0.7-1,2-2.9,3-3.7c0.1-0.1,0.4-0.2,0.6-0.2c0.1,0,0.2,0,0.4,0.1c2.2,0.8,5.5,4.2,5.5,5.2c0,0.4-0.3,0.7-1.3,0.7H29.3
			c0,1.3-0.1,2.9-0.1,4.7h8.8c0.3,0,0.5-0.1,0.8-0.4c1.3-1.8,1.7-1.8,2-1.8c0.5,0,4.9,2.1,4.9,3.5c0,0.5-0.5,0.8-1.2,1.3
			c-1.1,0.7-1,0.2-1.1,1.4c0,1,0.2,3.4,0.3,4.5v0.1c0,1.2-1.4,1.9-2.6,1.9c-1,0-1.9-0.4-1.9-1.4v-0.1l0.1-0.5H29.3v5h9.4
			c0.3,0,0.5-0.1,0.8-0.4c0.4-0.5,0.8-1.1,1.3-1.5c0.2-0.2,0.4-0.4,0.7-0.4c0.9,0,5,2.4,5,3.6c0,0.5-0.5,1-1.3,1.4
			c-1.1,0.7-1,0.7-1.1,2c0,0.3-0.1,0.7-0.1,1.3h1.4c0.2,0,0.7-0.2,0.9-0.5c1.1-2,2.5-3.8,3-3.8c0.8,0,5.2,3.6,5.2,5.1
			c0,0.4-0.3,0.8-1.4,0.8L44,118L44,118z M15.9,98.4c-0.8,0.4-1,0.7-1.1,1.8v3.5h10.3c0-1.9-0.1-3.7-0.1-5.3
			C25.1,98.4,15.9,98.4,15.9,98.4z M29.3,98.4v5.3h10.1c0.1-0.8,0.1-1.7,0.1-2.5s0-1.5-0.1-2c0-0.5-0.2-0.8-0.8-0.8
			C38.6,98.4,29.3,98.4,29.3,98.4z M29.3,111.8v4.6h10.6c0-1.7-0.1-3.2-0.1-3.8c0-0.5-0.3-0.8-0.8-0.8
			C39,111.8,29.3,111.8,29.3,111.8z M29.3,118c0,2,0.1,3.8,0.1,5.2h10.5c0-1.6,0.1-3.4,0.1-5.2C39.9,118,29.3,118,29.3,118z"/>
		<path d="M115.3,110c0,0.5-4.6,1.8-6.2,3.2c-0.4,0.3-0.7,0.4-1,0.4c-1.1,0-6.3-1.9-10.9-6.2c-7,5.8-16.1,6.7-16.1,6.7
			c-0.4,0-0.5-0.1-0.5-0.2c0-0.2,0.4-0.4,1.3-0.7c5.5-1.7,9.9-4.7,13.1-8.2c-2.1-2.5-3.7-5.3-4.6-8.5c-1.7,2.2-3.5,4.3-5.3,5.8
			c1,0.8,2.9,2.5,2.9,3.5c0,0.8-0.8,1.3-2.4,1.4c-1.8,0.1-4.4,3.1-6.4,4.3c-0.2,0.1-0.4,0.2-0.4,0.2s-0.1,0-0.1-0.1
			c0-0.1,0-0.2,0.1-0.5c0.8-1.6,2.2-4.6,2.2-5.6c0-0.5-0.1-0.6-0.3-0.6h-3.8c0.8,0.2,1.3,0.3,1.3,0.8c0,0.3-0.3,0.6-0.8,0.8
			c-0.6,0.3-0.9,3.1-0.9,8.5c0,3.5,0.1,7.4,0.2,10c0.1,1.5,0.2,4.9,0.2,6v0.1c0,4.7-5.5,5.6-6.4,5.6c-0.5,0-1-0.2-1.3-0.9
			c-0.8-1.6-5.6-3.8-5.6-4.3c0-0.1,0.1-0.1,0.2-0.1c0.1,0,0.3,0,0.6,0.1c2.2,0.4,4,0.6,5.4,0.6c1.7,0,2.8-0.4,2.8-1.7
			c0.1-3.5,0.2-8,0.2-12.1v-4c-4.7,8.4-12.8,14-14.2,14c-0.1,0-0.1,0-0.1-0.1c0-0.2,0.3-0.5,1-1.1c4.3-3.8,11.7-15.1,13.1-21.4
			c0-0.3,0-0.6-0.1-0.8c-2.5,0.1-5.6,0.2-8.9,0.6h-0.1c-0.9,0-2.6-2.2-2.6-3c4.8,0.8,10.8,0.9,13.4,0.9h6.1c0.2,0,0.7-0.2,0.9-0.4
			c0.2-0.3,1.4-1.5,2.1-1.5c0.1,0,0.2,0,0.2,0.1c0.2,0.1,0.4,0.2,0.5,0.3c2.5-3.3,6.8-12.1,7.2-16.6c0.1-0.5,0.1-0.7,0.2-0.7
			c0.6,0,5.9,1.8,5.9,2.9c0,0.4-0.5,0.8-1.5,1c-0.7,0.1-0.7,0.2-1.1,0.8c-0.7,1.2-1.6,2.6-2.7,4.2h11.4c0.2,0,0.5-0.2,0.7-0.5
			c0.5-0.7,2.2-3.3,2.8-3.3s5,3.1,5,4.6c0,0.3-0.2,0.6-1.1,0.6h-7.7c2.8,1.1,3.1,1.3,3.1,1.9c0,0.4-0.5,0.8-1.1,0.8h-0.1
			c-0.5,0-0.8,0.1-1.1,0.8c-1.3,2.5-2.6,4.7-4.3,6.5c3.8,2.4,8.8,4.1,15,4.8C115.1,109.9,115.3,110,115.3,110L115.3,110z M85.4,90.7
			c0,0.7-0.8,1-1.9,1.3c-0.7,0.1-1.3,0.3-2.3,1c-1.2,0.8-3.4,2.6-5.4,4l0.5,0.4c1.1,0.8,1.6,1.9,1.6,2.8c0,1.3-0.9,2.4-2.1,2.4
			c-0.8,0-1.7-0.5-2.6-1.7c-1.7-2.3-3.9-3.8-5.3-4.7c-0.3-0.2-0.4-0.3-0.4-0.4c0-0.2,0.5-0.2,1.1-0.2c1.6,0,4.1,0.2,6.1,1
			c1.3-2.2,2.9-5,3.1-5.8c0.1-0.1,0.1-0.2,0.1-0.4s-0.1-0.2-0.4-0.2h-3.2c-1.7,0-6.5,0.1-9.2,0.5H65c-0.7,0-2.5-2.2-2.5-2.9
			c4.4,0.8,10.1,0.8,11.9,0.8h3.1c0.4,0,0.7-0.1,1-0.4c0.4-0.3,1.1-1.1,1.4-1.4c0.2-0.2,0.4-0.2,0.5-0.2
			C81,86.5,85.4,89.1,85.4,90.7L85.4,90.7z M110.3,120.1c0,0.5-0.4,0.9-1.3,1.3s-1.1,0.5-1.2,1.5c-0.8,10.2-5,14.2-10.4,14.2
			c-1.4,0-1.8-0.2-2-0.8c-0.5-1.4-4.1-3.6-5.5-4.6c-5.5,5-13.3,6.4-14.8,6.4c-0.3,0-0.5-0.1-0.5-0.2c0-0.2,0.6-0.5,1.4-0.8
			c8.5-2.5,14.1-8.9,16.3-16.9c-2.5,0.1-5.3,0.2-8.8,0.6h-0.1c-1.1,0-2.9-2.3-2.9-3.1c4.5,0.7,8.9,0.8,12.1,0.9
			c0.5-2.3,0.6-4.9,0.6-5.8c0-0.6,0-1.1-0.1-1.7v-0.2c0-0.1,0-0.1,0.1-0.1c0.5,0,6.6,0.9,6.6,2.2c0,0.4-0.4,0.7-1.1,1
			c-1.1,0.4-1.1,0.4-1.3,1.7c-0.2,1-0.4,2-0.6,2.9h6.2c0.5,0,0.7-0.2,0.8-0.5c1.4-1.6,1.6-1.6,1.6-1.6
			C106.6,116.5,110.3,118.9,110.3,120.1L110.3,120.1z M103.1,120h-6.5c-1.3,4.6-3.4,8.3-6.4,11.2c2.8,0.7,5.2,1.4,7.1,1.4
			s3.5-0.7,4.7-2.9c1.2-2.3,1.9-6.1,2-8.8C103.9,120.4,103.8,120,103.1,120z M91.3,95.1l-0.2,0.3c1.2,2.7,3.1,5.2,5.6,7.4
			c2.4-3.3,3.3-5.9,3.6-7.7C100.3,95.1,91.3,95.1,91.3,95.1z"/>
		<path d="M147,90.1c-11.2,17.5-26.8,24-28.4,24c-0.1,0-0.2-0.1-0.2-0.1c0-0.1,0.3-0.4,1.1-0.9c8.6-5.5,16.7-14.6,22.2-24.6
			c0.7-1.1,1.1-3.1,1.4-4.3c0.1-0.3,0-0.4,0.2-0.4c0.3,0,7.5,2.6,7.5,4.1c0,0.4-0.6,0.8-1.8,1.1c-0.1,0-0.2,0.1-0.3,0.1
			c4.9,6.1,15.2,15.2,27,18.2c0.3,0.1,0.4,0.2,0.4,0.2c0,0.5-5.3,1.4-7.1,3.2c-0.2,0.2-0.5,0.4-0.8,0.4c-2.1,0-14.1-8.9-20.5-21.6
			L147,90.1z M146.7,117.7c0.3,0.2,0.5,0.4,0.5,0.5c0,0.4-0.6,0.8-1.3,1c-0.5,0.2-1,0.7-1.3,1.3c-1.5,2.8-4,7.5-6,10.4
			c7.1-0.5,13.9-1.4,18.9-2.2c-1.8-2-3.8-4-5.8-5.8c-0.4-0.3-0.6-0.5-0.6-0.7c0-0.1,0.1-0.1,0.1-0.1c0.4,0,15.7,5.1,15.7,11.4
			c0,1.7-1.1,3.1-2.5,3.1c-1,0-2-0.7-2.9-2.3c-0.8-1.4-1.8-2.9-2.9-4.4c-7.3,2.3-20.4,5-27.8,6.4c-0.8,0.2-1.3,1-1.9,1
			c-1,0-4.3-5.8-4.3-6.4c0-0.1,0.1-0.1,0.1-0.1c0.1,0,0.2,0,0.5,0.1c1.9,0.2,3.8,0.4,5,0.4c0.5,0,1.7,0,6.5-0.3
			c0.5-1.8,2.8-10.8,2.8-13.3c-4,0.1-9.2,0.3-13,0.7h-0.1c-1.1,0-2.9-2.3-2.9-3.1c6.1,0.7,16.7,1,20.2,1h14.5c0.4,0,0.8-0.2,1-0.5
			c0.4-0.7,2.6-4.1,3.6-4.1c0.1,0,0.2,0,0.4,0.1c2.6,1,5.7,4.4,5.7,5.3c0,0.4-0.2,0.7-1.3,0.7L146.7,117.7L146.7,117.7z
			 M146.5,108.1c-2,0-6.6,0.2-9.8,0.5h-0.1c-0.8,0-2.5-2.1-2.5-2.9c4,0.6,10.4,0.8,12.5,0.8h2.1c0.1,0,0.5-0.2,0.7-0.5
			c0,0,2.2-3.8,3-3.8c0.1,0,0.2,0,0.3,0.1c1.4,0.7,5.1,3.8,5.1,5c0,0.4-0.2,0.7-1.1,0.7H146.5L146.5,108.1z"/>
		<path d="M191.9,97.6c-2.4,0-5.9,0.1-9.7,0.5h-0.1c-0.8,0-2.5-2.2-2.5-2.9c4.6,0.7,9.8,0.8,12.4,0.8h7c0.2,0,0.5-0.2,0.7-0.5
			c0.2-0.3,2-3.4,2.9-3.4c1.1,0,5.2,3.4,5.2,4.8c0,0.3-0.3,0.6-1.2,0.6H191.9L191.9,97.6z M203,133.7c0,1.3-1.4,2.2-2.7,2.2
			c-1,0-2-0.5-2-1.7v-1.4h-9.9c0,0.9,0.1,1.9,0.1,2.8c0,1-1.3,2.1-2.8,2.1c-1,0-2-0.5-2-1.7v-0.2c0.5-5.6,0.5-8.5,0.5-11.4
			c0-0.8-0.2-5.2-0.7-7.3c0-0.1-0.1-0.2-0.1-0.3c0-0.1,0.1-0.2,0.1-0.2c0.4,0,4.4,1.6,6.1,2.7h7.5c0.2,0,0.5-0.1,0.8-0.5
			c0.4-0.5,1-1.4,1.4-1.7c0.1-0.1,0.3-0.2,0.5-0.2c0.5,0,5.2,2.2,5.2,3.6c0,0.5-0.5,0.9-1.2,1.4c-1.2,0.8-1.2,0.9-1.2,3
			c0,2.2,0.2,5.1,0.5,8.8V133.7L203,133.7z M192.3,89.4c-1.8,0-3.5,0.1-6.4,0.5h-0.1c-0.8,0-2.3-2-2.3-2.9c3.5,0.7,6.9,0.8,8.8,0.8
			h3.2c0.1,0,0.5-0.2,0.7-0.5c0.5-1,1.7-2.5,2.3-3.1c0.2-0.1,0.4-0.2,0.5-0.2c0.1,0,0.2,0,0.2,0.1c1.7,0.7,4.4,3.3,4.4,4.4
			c0,0.4-0.2,0.8-1.1,0.8L192.3,89.4L192.3,89.4z M192.3,105.1c-1.8,0-3.5,0.1-6.4,0.5h-0.1c-0.7,0-2.3-1.9-2.3-2.9
			c3.5,0.7,6.9,0.8,8.8,0.8h3.4c0.1,0,0.5-0.2,0.7-0.5c0.4-0.7,1.8-3.1,2.8-3.1c0.1,0,0.2,0,0.2,0.1c0.9,0.4,4.3,2.9,4.3,4.1
			c0,0.4-0.2,0.8-1.1,0.8L192.3,105.1L192.3,105.1z M192.3,113c-1.8,0-3.5,0.1-6.4,0.5h-0.1c-0.7,0-2.3-2-2.3-2.9
			c3.5,0.7,6.9,0.8,8.8,0.8h3.4c0.1,0,0.5-0.2,0.7-0.5c0.5-1,2.1-3,2.8-3c0.1,0,0.2,0,0.3,0.1c0.6,0.2,4.2,2.6,4.2,4.1
			c0,0.4-0.2,0.8-1.1,0.8L192.3,113L192.3,113z M198.4,131.2c0.1-2.5,0.1-4.4,0.1-6.2c0-1.1-0.1-2.2-0.1-3.4c0-0.4-0.2-0.8-0.6-0.8
			h-8.2l-0.5,0.4c-0.7,0.4-0.7,0.5-0.7,6.5c0,1.1,0.1,2.3,0.1,3.5H198.4L198.4,131.2z M221.2,135.4c0,1.4-1.6,2.3-3,2.3
			c-1.1,0-2.1-0.5-2.1-1.9v-0.2c0.4-6.5,0.6-18.5,0.6-28.7c-2.4,0-6.4,0.1-9.9,0.6h-0.1c-0.7,0-2.5-2.3-2.5-2.9
			c4.2,0.7,9.8,0.8,12.5,0.8c0-12.5-0.4-18.4-0.8-20.3c-0.1-0.2-0.1-0.3-0.1-0.4c0-0.1,0.1-0.2,0.2-0.2c0,0,7.5,0.7,7.5,2.4
			c0,0.4-0.5,0.9-1.3,1.3c-0.8,0.5-1.1,0.5-1.2,2c-0.2,2.1-0.2,8-0.2,15.1h4.7c0.2,0,0.6-0.2,0.8-0.5c0.7-1,2-2.9,2.8-3.5
			c0.1-0.1,0.3-0.2,0.5-0.2c1.1,0,5.3,3.8,5.3,5c0,0.4-0.2,0.7-1.1,0.7h-12.9C220.8,116.8,221,128.5,221.2,135.4L221.2,135.4
			L221.2,135.4z"/>
		<path d="M245.8,90.5c2.2,0,7,5.2,7,9.7c0,2.2-1.1,4.1-2.3,7c-1.6,4-3.2,8.3-3.2,12.1c0,0.8,0.2,3.5,0.7,3.5c0.2,0,0.4-0.2,0.7-0.8
			c1.3-3.1,5.7-11.9,6.6-11.9c0.1,0,0.1,0.1,0.1,0.2c0,0.3-0.1,0.8-0.5,1.6c-2,4.6-4.6,12.7-4.6,17.3c0,1,0.1,1.9,0.4,2.6
			c0.3,0.7,0.4,1.3,0.4,1.8c0,1.4-0.8,2.3-1.9,2.3c-3.2,0-4.9-7-4.9-12.8c0-6.1,1.9-11.6,3.2-17.3c0.5-2,0.9-3.9,0.9-5.8
			c0-2.5-0.7-5.1-3-8.2c-0.3-0.4-0.5-0.7-0.5-0.9C244.9,90.9,245.2,90.5,245.8,90.5L245.8,90.5z M278.5,107.6c0,4.7,0.3,9,0.5,12.5
			c0.1,1,0.1,2,0.1,3.1c5.3,1.6,9.4,5,9.4,7.5c0,1.4-1,2.6-2.1,2.6c-0.7,0-1.6-0.5-2.3-1.8c-1.3-2.1-3.2-3.8-5.1-4.9
			c-1,5.2-5.3,8.4-9.7,8.4c-4.1,0-8.2-2.9-8.2-6.5c0-3.4,4.2-6.4,11.3-6.4c1.1,0,2.2,0.1,3.4,0.2c0.1-1,0.1-1.8,0.1-2.6
			c-0.1-2.6-0.2-8.2-0.2-13.7l-0.5,0.1c-0.8,0.1-1.5,0.2-2.3,0.2c-7,0-9.8-5.3-9.8-6.1c0-0.1,0.1-0.2,0.2-0.2c0.2,0,0.8,0.2,1.5,0.4
			c1.3,0.5,3.2,1.4,4.5,1.7s2.5,0.5,3.8,0.5c0.7,0,1.7-0.1,2.6-0.2v-3.7c0-5.5-0.4-5.8-2.4-6.3c-0.7-0.2-1.1-0.3-1.1-0.7
			c0-0.5,1.4-2.1,3-2.1s4.6,2.3,4.6,4.6c0,0.5-0.1,1-0.2,1.6c0.5,0.2,5,1.6,5.7,1.7c1,0.2,1.6,0.9,1.6,2c0,1.7-1.7,4-8.2,5.6
			L278.5,107.6L278.5,107.6z M270,124.6c-4.1,0-7.1,1.8-7.1,3.7s2.5,3.1,5.2,3.1c3.5,0,6.5-2.2,7.3-5.9
			C273.7,124.9,271.8,124.6,270,124.6L270,124.6z M278.6,101.8c3.3-1,3.6-1.9,3.6-2.5c0-0.7-0.7-1.5-3.1-2.8
			C279.2,96.7,279,97.2,278.6,101.8z"/>
		<path d="M303.5,135.9c-1.7-3.4-4.6-5.8-7.2-7.7c-0.6-0.5-1.1-0.8-1.1-1c0-0.1,0.2-0.1,0.5-0.1c2.3,0,13.5,2.2,13.5,7.8
			c0,1.8-1.3,3.2-2.8,3.2C305.3,138,304.3,137.4,303.5,135.9L303.5,135.9z"/>
		<path d="M19.3,212.4c0,4.4-1.9,5-2.6,5s-1.5-0.6-2-1.6c-0.8-1.4-2.8-2.4-4.9-3c-2.4,1.6-4.2,2.2-5.9,2.2c-1.5,0-2.1-0.7-2.1-1.7
			c0-1.1,1.6-3.7,2.8-3.7c0.2,0,0.4,0.1,0.7,0.2c0.2,0.1,0.4,0.2,0.7,0.2c0.7,0,2.3-0.5,10.6-5.7c0.1-1.1,0.1-2.2,0.1-3.3
			c0-2.6-0.1-5.3-0.2-7.7c-2.9,1.4-5,1.9-7.1,1.9c-1.4,0-5.4-0.3-5.4-4.3c0-0.4,0.1-0.5,0.3-0.5c0.2,0,0.5,0.1,1,0.3
			c0.8,0.3,2.3,0.7,4.3,0.7c2.4,0,3.8-0.4,6.8-1.8c-0.5-6.9-0.8-8.7-3.4-8.7c-1.1,0-1.5-0.2-1.5-0.6c0-0.8,1.2-2.1,3-2.1
			c1.6,0,4.9,1.3,4.9,4.3c0,0.4,0,0.8-0.1,1.3c1.3,0.4,2.8,0.7,3.9,0.7h0.4c1.3,0,2,0.8,2,1.7c0,1.9-1.6,3.3-6.5,5.9
			c0,3.5,0.1,7.1,0.2,10.7c4.6-2.8,9.5-5.2,14.8-5.2c7.2,0,10,3.5,10,7.1c0,6.1-7.3,10.7-12.8,10.7c-3.8,0-6.3-2.2-6.3-6.1
			c0-3.4,2.3-7.8,2.8-7.8c0.1,0,0.1,0.1,0.1,0.3c0,0.4-0.1,1-0.4,2c-0.3,1-0.4,2-0.4,2.9c0,2.6,1.3,4.6,4.3,4.6
			c3.6,0,8.8-2.8,8.8-7.3c0-3.3-3.5-4.9-7.1-4.9c-4.9,0-9.5,3.1-13.7,6.5l0.1,6.4C19.3,212,19.3,212.4,19.3,212.4z M10.7,212.2
			c1.6,0.2,2.7,0.4,3.5,0.4c1.6,0,1.9-0.5,1.9-1.3c0.1-1.3,0.2-2.5,0.2-3.8C14.4,209.2,12.5,210.8,10.7,212.2z M19,188.1
			c0.7-0.4,2.1-1.2,2.1-1.9c0-0.5-0.8-1.1-2-1.7c-0.1,0.6-0.1,1.4-0.1,2.3V188.1z M44.6,191.3c-1.1,0.3-2.6,0.5-3.9,1.3
			c-0.5,0.3-0.9,0.5-1.2,0.5c-0.1,0-0.2-0.1-0.2-0.2s0.2-0.5,0.7-1c0.6-0.6,1.9-2.3,1.9-3.6s-1.9-1.6-2.9-1.6c-1.4,0-2.8,0.4-4,1.3
			c-0.8,0.6-1.4,0.9-1.7,0.9c-0.1,0-0.2-0.1-0.2-0.2c0-0.6,3-4.9,8.3-4.9c3.8,0,7.4,2.2,7.4,4.9c0,0.8-0.5,1.4-1.3,1.8
			C46.6,191,46.3,190.9,44.6,191.3L44.6,191.3z"/>
		<path d="M111.8,201.7c0,0.4-5.5,1.7-7.3,3.9c-0.3,0.4-0.7,0.5-1.2,0.5c-0.9,0-11.5-1.9-20.3-8.9c-3.7,2.6-7.6,4.7-11.4,6.4
			c1.2,0.5,2.6,1.1,3.4,1.7l0.1,0.1h15.2c0.2,0,0.5-0.2,0.7-0.5c1-1.3,1.4-1.6,1.9-1.6c0.2,0,5,2,5,3.5c0,0.4-0.4,0.8-1.1,1.2
			c-1.1,0.7-1.1,1-1.1,2.8c0,2.1,0.2,5.3,0.4,8.3v0.2c0,1.4-1.6,2.1-2.6,2.1s-2-0.5-2-1.8v-0.1c0-0.7,0.1-1.3,0.1-1.9H73.9v2
			c0,1.1-1.3,2-2.8,2c-1.1,0-2-0.5-2-1.6v-0.3c0.4-3.1,0.4-8.2,0.4-11.2c0-0.6,0-2.3-0.2-4c-8,3.1-13.7,3.5-14.2,3.5
			c-0.4,0-0.7-0.1-0.7-0.2c0-0.2,0.8-0.6,2.5-1c7.1-2,15.6-6.1,23.2-12.3c-2-2.1-3.8-4.4-4.9-7c-8.9,9.8-18.1,13.9-19.3,13.9
			c-0.1,0-0.2,0-0.2-0.1c0-0.2,0.4-0.5,1.2-1.1c6.1-3.9,13.7-12.5,18.1-19.5c0.6-0.9,0.8-1.8,1.1-2.8c0.1-0.3,0.1-0.4,0.2-0.4
			c0.5,0,6.1,2.3,6.1,3.5c0,0.4-0.6,0.7-1.9,0.7c-0.8,0-1,0.2-1.6,0.9c-0.4,0.6-0.8,1.2-1.3,1.8h10.7c0.5,0,0.8-0.2,1-0.4
			c0.5-0.4,0.9-1,1.4-1.3c0.2-0.2,0.4-0.2,0.5-0.2c1,0,4.9,2.6,4.9,3.8c0,0.5-0.5,0.8-1.4,1.1c-1,0.2-1.6,0.3-2.3,1.1
			c-2.2,2.4-4.5,4.6-7,6.6c6.5,3.8,15.3,6.2,24.9,6.2h0.7C111.7,201.6,111.8,201.7,111.8,201.7L111.8,201.7z M107.6,178.9
			c0,0.8-0.8,1.4-2.6,1.5c-2.7,0.1-6.1,2.5-8.8,3.8c-0.2,0.1-0.4,0.2-0.5,0.2c-0.1,0-0.1,0-0.1-0.1c0-0.1,0.1-0.2,0.2-0.4
			c2.3-3.5,3.2-5.5,3.2-5.9c0-0.2-0.1-0.2-0.3-0.2H66.2c-0.4,4.6-3.2,8-6.1,8c-1.5,0-2.6-1-2.6-2.3c0-0.9,0.5-2,1.8-3
			c3.4-2.6,4.9-4.5,5.4-7.9c0.1-0.6,0.2-0.9,0.4-0.9c0,0,1,1.1,1.1,4.6h14.2c0-0.6-0.1-1.3-0.1-1.8c-0.1-2-0.2-4.6-0.7-6.2
			c-0.1-0.2-0.1-0.4-0.1-0.4c0-0.1,0.1-0.1,0.2-0.1c0.9,0,7.9,1,7.9,2.3c0,0.4-0.5,0.9-1.4,1.4c-1.1,0.6-1.1,0.6-1.3,2l-0.2,2.8h14
			c0.2,0,0.7-0.2,0.9-0.5c0.4-0.4,1.2-1.3,1.7-1.6c0.2-0.1,0.4-0.2,0.5-0.2C103.1,174,107.6,177.4,107.6,178.9L107.6,178.9z
			 M91.5,212.3c0-1.6-0.1-3.2-0.1-4.6c0-0.4-0.2-0.7-0.7-0.7H74.9l-0.4,0.3c-0.4,0.2-0.7,0.4-0.7,4.2c0,1.3,0,2.9,0.1,4.5h17.6
			C91.4,214.8,91.5,213.5,91.5,212.3z M88.3,186.5c0-0.2-0.2-0.3-0.5-0.3H76.6c-0.2,0.2-0.2,0.4-0.4,0.5c1.4,2.3,3.4,4.4,5.9,6.2
			C85.7,189.9,88.3,186.7,88.3,186.5z"/>
		<path d="M171.1,215.2c0,0.6-5,1-6.3,2.4c-0.2,0.3-0.6,0.4-0.9,0.4c-1,0-7.5-5.8-11.3-21.1c0,5.7,0.1,11.5,0.1,13.9
			c0.1,1.3,0.2,3,0.2,4.4v0.1c0,6.2-6.4,6.5-6.5,6.5c-0.6,0-1-0.3-1.2-1c-0.8-2-5.7-4.1-5.7-4.5c0-0.1,0.1-0.1,0.2-0.1
			c0.1,0,0.4,0,0.7,0.1c2.5,0.4,4.1,0.6,5.4,0.6c2.1,0,2.7-0.7,2.8-2.3c0.1-1.4,0.1-4.7,0.1-8.8c-3.5,3.8-8.4,8.2-11,10.4
			c-0.4,0.4-0.4,1.3-1,1.3c-1,0-4.9-3.4-4.9-3.8c0-0.2,0.2-0.2,0.5-0.3c3.4-0.9,12.3-6.1,16.3-8.9v-10c-2.8,0-6.4,0.1-10.7,0.5h-0.1
			c-0.5,0-1.3-0.7-1.9-1.3c0.2,0.4,0.2,0.8,0.2,1.1c0,1.3-1,2.4-2.1,2.4c-0.7,0-1.6-0.4-2.2-1.5c-0.9-1.4-1.9-3.2-3.2-4.2
			c0.1,9.6,0.2,20.7,0.4,27.8v0.1c0,1.4-1.4,2.5-2.9,2.5c-1.1,0-2-0.7-2-2.1v-0.2c0.3-6.4,0.5-15.4,0.6-24c-4.7,8.1-11.2,11-11.5,11
			c-0.1,0-0.1-0.1-0.1-0.1c0-0.2,0.3-0.6,1-1.2c4.4-4.2,9.9-14.6,10.7-19.5v-0.8c-1.8,0.1-3.7,0.2-6.5,0.5h-0.1
			c-0.7,0-2.4-2.2-2.4-2.9c3.5,0.5,6.7,0.7,9,0.8c0-2.8-0.2-11.9-0.7-14.5c-0.1-0.2-0.1-0.3-0.1-0.4s0.1-0.2,0.1-0.2
			c0.1,0,7.2,1.1,7.2,2.5c0,0.4-0.4,0.8-1.1,1.2c-0.9,0.5-1.2,0.5-1.3,2c-0.1,1.8-0.2,5.2-0.2,9.5h0.7c0.2,0,0.6-0.2,0.8-0.5
			c0.6-1.1,1.3-2.1,2.2-3.1c0.1-0.1,0.3-0.2,0.5-0.2c1.3,0,4.4,3.7,4.4,4.5c0,0.4-0.2,0.7-1.1,0.7h-7.3v5.6h0.4c2,0,4.9,0.5,6.4,2.1
			c-0.1-0.2-0.2-0.5-0.2-0.7c4.9,0.6,10.1,0.8,13.4,0.9v-5.6c-2.2,0-4,0.1-7.8,0.5h-0.1c-1,0-2.8-2.2-2.8-2.9
			c4.4,0.5,7.8,0.8,10.6,0.8V185c-0.1-1.1-0.1-3.4-0.2-4.7c-2.5,0-4.9,0.1-9,0.5h-0.1c-1.1,0-2.8-2.2-2.8-2.9
			c5.5,0.7,10.1,0.8,13.2,0.8h2.3c0.8-1.5,3.2-6.6,3.7-10.1c0.1-0.5,0-0.6,0.2-0.6c0.8,0,6.4,3.1,6.4,4c0,0.4-0.5,0.8-1.8,0.8
			c-0.9,0-0.9,0.2-1.4,0.8c-1.3,1.3-3.2,3.2-5.4,5.2h4.5c0.4,0,0.8-0.2,1-0.5c1.2-1.9,2.3-3.2,2.9-3.2c1.6,0,5,3.2,5,4.4
			c0,0.4-0.3,0.7-1.2,0.7h-11.8c0.4,0.2,0.6,0.4,0.6,0.7c0,0.4-0.4,0.7-1,1c-0.7,0.3-1.1,0.5-1.1,3.9h2.8c0.4,0,0.7-0.2,0.9-0.5
			c1.2-1.6,2.2-2.8,2.8-2.8c0.8,0,3.5,1.6,4.6,3.4c0.1,0.1,0.2,0.4,0.2,0.5c0,0.4-0.3,0.8-1.2,0.8h-10.1c-0.1,1.6-0.1,3.5-0.1,5.6
			h6.3c0.5,0,0.8-0.2,1-0.5c0.8-1.2,2.5-3.4,3.1-3.4c1.6,0,5.3,3.5,5.3,4.7c0,0.4-0.2,0.8-1.2,0.8h-14.3c1,3.2,2.4,6.2,4.3,9.1
			c2.5-2,5.2-5.4,5.6-6.5c0.1-0.3,0.1-0.4,0.2-0.4c0.4,0,5,3.6,5,5c0,0.5-0.4,0.7-1.1,0.7c-0.2,0-0.6,0-1-0.1
			c-0.2-0.1-0.5-0.1-0.8-0.1s-0.5,0.1-0.7,0.1c-1.3,0.5-3.8,1.6-6.5,2.4c3.2,4.6,7.6,8.3,12.7,10.2
			C170.9,215,171.1,215.2,171.1,215.2L171.1,215.2z M145.3,203c0,1.4-1,2.5-2.2,2.5c-0.8,0-1.7-0.5-2.5-1.7c-1-1.6-2.9-3.7-4.5-5
			c-0.4-0.3-0.6-0.5-0.6-0.6s0.3-0.1,0.9-0.1h0.2C138.9,198.1,145.3,198.9,145.3,203L145.3,203z M148.8,174.5c0,1.6-1.2,2.7-2.5,2.7
			c-0.9,0-1.9-0.6-2.5-2c-0.5-1.4-2.2-3.6-3.4-4.9c-0.3-0.3-0.5-0.5-0.5-0.7s0.1-0.2,0.4-0.2C142,169.4,148.8,170.6,148.8,174.5z"/>
		<path d="M196.4,203.3c-4.8,3-6.7,6-6.7,8.3s2.5,5.2,7.5,5.2c2.2,0,4.7-0.5,6.9-1.7c0.7-0.4,1.4-0.5,2-0.5c1.5,0,2.5,1,2.5,2.1
			c0,2.8-5.3,4.3-9.7,4.3c-6.5,0-11.8-3.9-11.8-8.5c0-3.7,3.4-7.9,9.3-11.5c0-3.7-0.5-8.9-3.8-8.9c-1.4,0-3.2,1.1-5.3,4l-1.8,3.4
			c-1.3,2.3-2.7,4.7-4.4,4.7c-0.2,0-1.8-0.1-1.8-2.2c0-1.2,0.6-2.9,2.5-4.6c5.5-5,7.3-8.2,10-14.2l0.1-0.2l-0.1,0.1
			c-1.2,0.3-2.3,0.5-3.3,0.5c-5.8,0-7.4-4.1-7.4-5.7c0-0.2,0.1-0.3,0.2-0.3c0.3,0,0.7,0.2,1.5,0.8c1.8,1.3,3.5,1.6,5,1.6
			c1.8,0,3.7-0.4,5.3-1c0.1-0.7,0.1-1.3,0.1-1.7c0-1.4-0.2-3-2.3-3.5c-0.5-0.1-1.1-0.3-1.1-0.6c0-0.2,0.9-1.5,2.9-1.5
			c1.6,0,2.8,0.5,3.4,2.8h0.5c1.1,0.1,2,0.2,2.8,0.2c0.3,0,0.5-0.1,0.8-0.1c0.4-0.2,0.7-0.2,1-0.2c1.5,0,1.5,1.4,1.5,1.6
			c0,3.2-6,5.5-8.1,6.2l-0.1,0.3c-2,4.4-3.3,6.7-4.6,9.1c1.1-0.6,2.2-0.8,3.2-0.8c3.1,0,5.4,2.6,6.2,6.2c1.7-4.4,6.4-12.8,13.3-12.8
			c3.3,0,7.4,2.2,7.4,5.3c0,2.3-2.5,4.7-6.6,6.3c-4.2,1.6-9.4,3.6-13.4,5.6c0.2,1.4,0.2,2.8,0.2,4.3c0,0.7,0,1.5-0.1,2.2
			c-0.2,2.3-1.8,3.9-3.1,3.9c-0.9,0-1.7-0.8-1.7-2.8c0-0.2,0.1-0.5,0.1-0.7c0.1-1.5,0.9-2.1,1-4.1V203.3L196.4,203.3z M196.3,175
			c0.1,0.2,0.1,0.5,0.1,0.7c0,0.7-0.1,1.3-0.2,2c1.4-0.7,2.1-1,2.1-1.7c0-0.3-0.2-0.6-1.7-1L196.3,175L196.3,175z M211.5,193.1
			c2.6-1.4,3.8-2.9,3.8-4.2s-1.1-2.9-3.5-2.9c-5.5,0-10.6,8.5-12.2,13.3C203.3,197.3,208,195.1,211.5,193.1L211.5,193.1z"/>
		<path d="M282.2,216.8c0,0.5-5.5,2.2-7.1,3.9c-0.3,0.4-0.7,0.5-1,0.5c-3.2,0-14.8-5.9-18.5-18.2c-4.6,18.8-26.9,19-27.5,19
			c-0.7,0-1-0.1-1-0.2c0-0.2,0.5-0.4,1.3-0.5c11.2-1.9,20.6-8.8,22.9-19.3h-3.2c-3.2,0-10.9,0.1-16,0.7H232c-1.1,0-2.9-2.3-2.9-3.1
			c5.9,0.7,15.9,1,19.3,1h3.1c0.2-1.1,0.2-2.3,0.2-3.5c0-1.4,0-2.7-0.2-4.1c-3.6,0.2-7.3,0.3-10.9,0.3c-7,0-7.2-0.3-7.2-0.7
			c0-0.2,0.4-0.4,1.3-0.4c7.6-0.4,20.9-2,28-4c1.3-0.4,2.2-0.9,2.9-1.3l0.2-0.1c-0.4-0.3-0.7-0.7-0.9-1.3c-0.7-1.6-2-3.5-3.2-4.7
			c-0.3-0.3-0.4-0.5-0.4-0.6s0.1-0.2,0.4-0.2c1.1,0,8.2,1,8.2,4.9c0,1.4-1.1,2.5-2.4,2.6c1.1,1.1,2.9,2.9,2.9,3.9
			c0,0.4-0.4,0.6-0.9,0.6c-0.4,0-0.8-0.1-1.3-0.2c-0.3-0.1-0.7-0.2-1-0.2H267c-2.7,0.4-6.3,0.8-10.3,1.1c0.2,0.1,1.6,0.4,1.6,0.9
			c0,0.3-0.4,0.7-1,0.9c-0.8,0.4-0.9,0.3-1,2.1c-0.1,1.1-0.1,2.3-0.2,3.2c0,0.3-0.1,0.6-0.1,0.8h13.2c0.4,0,0.8-0.2,1-0.5
			c2.8-3.9,3.2-4,3.5-4c1.4,0,5.9,4,5.9,5.3c0,0.4-0.2,0.7-1.3,0.7h-22.2c3.7,6.8,12.3,14.1,25.5,14.6
			C282,216.7,282.2,216.7,282.2,216.8L282.2,216.8z M254,178.2c0,0.4-0.2,0.7-1.1,0.7h-14.4c-4.9,6-9.5,9.4-10.4,9.4
			c-0.1,0-0.1-0.1-0.1-0.1c0-0.1,0.2-0.5,0.7-1c3.9-4,9.5-13.5,10.1-18.5v-0.4c0-0.2,0-0.2,0.2-0.2c0.6,0,6.8,2.5,6.8,3.8
			c0,0.5-0.8,0.8-2,0.9c-0.8,0.1-1,0.2-1.5,1c-0.8,1.2-1.7,2.5-2.6,3.7h6.2c0.2,0,0.6-0.2,0.8-0.5c0.5-1,2.1-3.2,2.8-3.2
			C250.4,173.7,254,176.9,254,178.2L254,178.2z M247.6,185.3c0,1.5-1.2,2.7-2.5,2.7c-1,0-1.9-0.6-2.5-2.1c-0.7-1.7-2-3.6-3.2-4.9
			c-0.3-0.3-0.5-0.5-0.5-0.7c0-0.1,0.1-0.1,0.5-0.1C241.9,180.2,247.6,181.9,247.6,185.3L247.6,185.3z M279.1,178.2
			c0,0.4-0.3,0.7-1.2,0.7h-19.6c-5.6,7.4-8.9,8.9-9.4,8.9c-0.1,0-0.1-0.1-0.1-0.1c0-0.1,0.2-0.4,0.6-0.8c2.6-2.8,8.6-13.4,9-17.9
			c0.1-0.5,0-0.7,0.2-0.7c0.5,0,6.7,2.3,6.7,3.7c0,0.5-0.7,0.8-1.9,0.8c-0.7,0.1-0.8,0-1.3,0.8l-2.8,3.9h10.2c0.2,0,0.6-0.2,0.8-0.5
			c2.5-3.5,2.9-3.7,3.2-3.7C274.3,173.2,279.1,176.5,279.1,178.2L279.1,178.2z"/>
		<path d="M315.2,190.4c0,0.4-0.2,0.7-1.1,0.7H296l-0.4,0.3c-0.5,0.4-0.7,0.5-0.7,1.3v1.4c0.1,1.3,0.1,2.6,0.1,4c0,1,0,2.1-0.1,3.1
			c5.7-2.8,9.7-6.8,10.4-9.2c0.1-0.2,0.1-0.4,0.2-0.4c0.4,0,4,2.6,4,3.8c0,0.4-0.2,0.6-0.8,0.6c-0.2,0-0.4,0-0.7-0.1
			c-0.2-0.1-0.4-0.1-0.5-0.1c-0.2,0-0.4,0.1-0.7,0.4c-3.2,2.9-8,5.1-12.1,5.9c-0.2,2.5-0.5,5-1.2,7.4c5.1-2,13-7.5,14.3-11.4
			c0.1-0.2,0.1-0.4,0.2-0.4c0.1,0,0.2,0,0.3,0.1c1.1,0.6,3.8,2.9,3.8,3.8c0,0.4-0.2,0.7-0.8,0.7c-0.2,0-0.4,0-0.6-0.1
			c-0.2-0.1-0.4-0.1-0.5-0.1c-0.3,0-0.4,0.1-0.8,0.4c-4.3,3.8-10.3,6.9-16.1,7.7c-2.3,7.1-7.3,10.9-8.1,10.9c-0.1,0-0.1-0.1-0.1-0.1
			c0-0.1,0.2-0.5,0.8-1.1c4.3-5,5.1-12.7,5.1-19.4c0-3.7-0.2-10.5-0.9-13c-0.1-0.2-0.1-0.3-0.1-0.4c0-0.1,0-0.1,0.1-0.1
			c1.4,0,5.2,2.1,5.8,2.5l0.2,0.1h6.1c1.4-3,2.9-7.9,2.9-10.4c0-0.1,0-0.2,0.1-0.2c0.6,0,5.6,2.3,5.6,3.4c0,0.4-0.5,0.7-1.5,0.8
			c-0.8,0-0.8,0.2-1.2,0.8c-1.1,1.4-2.9,3.7-4.7,5.7h4.2c0.2,0,0.5-0.2,0.7-0.5c0.5-1,1.4-2,2-2.7c0.1-0.1,0.2-0.2,0.4-0.2
			c0.1,0,0.2,0,0.2,0.1C312.7,187.1,315.2,189.2,315.2,190.4L315.2,190.4z M314.2,177.5c0,0.4-0.2,0.7-1.1,0.7h-11.6
			c-2.7,0-6.1,0.1-10.4,0.5h-0.1c-0.9,0-2.3-2.2-2.3-2.9c3.8,0.5,7.7,0.8,10.6,0.8v-1.2c-0.1-2-0.1-4.6-0.5-6.4
			c-0.1-0.2-0.1-0.4-0.1-0.4s0-0.1,0.1-0.1c0.5,0,6.8,0.8,6.8,2.2c0,0.4-0.5,0.8-1.2,1.2c-1,0.5-1.2,0.7-1.2,4.7h3.2
			c0.1,0,0.5-0.2,0.7-0.5c0.2-0.4,1.7-3.2,2.5-3.2c0.2,0,0.3,0.1,0.4,0.1C311.1,173.6,314.2,176.3,314.2,177.5L314.2,177.5z
			 M315.2,208.2c0,0.4-0.3,0.7-0.9,0.7c-0.2,0-0.4,0-0.6-0.1c-0.3-0.1-0.5-0.1-0.6-0.1c-0.2,0-0.4,0.1-0.6,0.4
			c-8.3,9-20.5,10.1-22.3,10.1c-0.5,0-0.9-0.1-0.9-0.2c0-0.1,0.3-0.2,1-0.4c11-2.7,19.1-10.3,20.3-14.3c0.1-0.2,0.1-0.4,0.1-0.4
			C310.8,203.8,315.2,206.9,315.2,208.2L315.2,208.2z M300.5,185.6c0,1.4-1,2.5-2.1,2.5c-0.8,0-1.7-0.6-2.2-2.1
			c-0.4-1.4-1.8-3.7-2.8-5c-0.3-0.4-0.5-0.6-0.5-0.7s0.1-0.1,0.1-0.1C294.5,180.3,300.5,181.9,300.5,185.6L300.5,185.6z
			 M327.3,214.7c0,0.5-0.5,0.7-1.4,0.7h-1c-0.5,0-0.9,0.1-1.3,0.3c-4.5,2.8-12.4,6.1-20.9,6.1c-0.7,0-1,0-1-0.1s0.6-0.4,1.9-0.7
			c5.2-1.3,16.2-6.2,18.2-10.6c0.1-0.2,0.2-0.4,0.4-0.4C322.9,210.1,327.3,213.8,327.3,214.7L327.3,214.7z M342.3,173.5
			c0,0.4-0.3,0.7-1.3,0.7h-12.3c1.3,0.4,2,0.8,2,1.3c0,0.3-0.4,0.7-1.4,0.9c-0.6,0.2-0.8,0.5-1,0.9c-0.8,1.3-1.8,3-2.8,4.3h6.3
			c0.4,0,0.7-0.2,0.8-0.5c0.8-1.3,1.5-1.8,1.9-1.8c0.7,0,4.9,2.3,4.9,3.6c0,0.6-0.6,1-1.4,1.4c-1,0.5-1.1,0.9-1.1,4.7
			c0,5.1,0.2,14,0.5,18.5v0.1c0,1.5-1.3,2.4-2.5,2.4c-1,0-1.9-0.7-1.9-2v-0.6h-11.2v1c0,1.6-1.7,2.2-2.6,2.2s-1.8-0.5-1.8-1.8v-0.2
			c0.4-5,0.4-12.1,0.4-16.8c0-5.5-0.1-9.2-0.8-12.4c-0.1-0.2-0.1-0.3-0.1-0.4c0-0.1,0.1-0.2,0.1-0.2c0.4,0,4.3,1.5,5.9,2.6l0.2,0.1
			h0.5c0.3-1.8,0.5-4,0.5-5.3v-2.1c-2,0.1-4.2,0.2-7.7,0.5h-0.1c-1,0-2.5-2.2-2.5-2.9c5.7,0.7,9.7,0.9,13,0.9h6.1
			c0.2,0,0.7-0.2,0.8-0.5c0.4-0.7,2.3-3.6,3.1-3.6C338.5,168.5,342.3,172.3,342.3,173.5L342.3,173.5z M333,184
			c0-0.5-0.3-0.8-0.7-0.8H323c-0.2,0.1-0.4,0.3-0.7,0.5c-0.7,0.4-0.7,0.6-0.7,6.1h11.5C333.1,187.3,333.1,185.3,333,184z
			 M321.7,191.3v6h11.4c0-2,0.1-4.1,0.1-6H321.7z M321.7,198.8c0,2.5,0.1,4.9,0.1,7.1H333c0-2.2,0.1-4.6,0.1-7.1H321.7z M341.2,218
			c0,1.6-1.1,2.8-2.5,2.8c-1,0-2.1-0.7-2.9-2.3c-1.6-3.2-4-5.5-6.4-7.4c-0.3-0.2-0.4-0.4-0.4-0.5c0-0.1,0.1-0.1,0.2-0.1
			C331.1,210.4,341.2,213.3,341.2,218z"/>
		<path d="M351.4,205.7c0-2.1,0.2-4.1,0.6-6.1c0.8-4.1,2-7.8,2.7-11.3c0.3-1.5,0.4-2.9,0.4-4.1c0-2.6-0.5-4.6-1.1-5.7
			c-0.4-0.7-0.8-1.2-0.8-1.5s0.3-0.4,1.2-0.4c1.9,0,5,2.6,5,7.1c0,2-0.7,4-1.7,6.5c-1.5,3.7-3.3,8.2-3.3,12.3c0,1.4,0.4,3.7,0.9,3.7
			c0.2,0,0.4-0.3,0.7-0.9c1.5-3.2,5.6-11.2,6.2-11.2c0.1,0,0.1,0.1,0.1,0.2c0,0.2-0.1,0.7-0.4,1.4c-0.8,2-4.1,10.6-4.1,15.7
			c0,1.3,0.2,2.3,0.4,3.2c0.1,0.4,0.2,0.8,0.2,1.2c0,1.5-0.9,2.4-1.9,2.4C352.4,218.3,351.4,208.7,351.4,205.7L351.4,205.7z
			 M388.1,209.8c2.3,0,3.6,1.1,3.6,2.3c0,3.7-8.5,3.8-9.5,3.8c-10.3,0-13.6-5.3-13.6-8.3c0-0.4,0.1-0.6,0.2-0.6
			c0.3,0,0.7,0.4,1.3,1.2c1.2,1.7,5.2,2.9,9.7,2.9c1.2,0,2.4-0.1,3.6-0.2c1.4-0.2,2.4-1,4.4-1L388.1,209.8L388.1,209.8z M379,188.5
			c-9,0-9.5-5.4-9.5-5.8c0-0.2,0.1-0.2,0.2-0.2s0.6,0.2,1.1,0.5c1.7,1,3.9,1.4,6.1,1.4c1.7,0,3.4-0.2,5-0.6c0.8-0.2,1.4-0.6,2.2-0.7
			c0.4-0.1,0.8-0.1,1.1-0.1c1.9,0,3.1,1,3.1,2.1C388.4,187.9,381.9,188.5,379,188.5L379,188.5z"/>
		<path d="M427.8,185.3c-5.3,0.7-10.6,2.1-15,4c-1.3,0.5-2.8,1-4.5,1c-3.5,0-6.6-2-6.6-4.9c0-0.9,0.2-1.3,0.6-1.3
			c0.3,0,0.8,0.3,1.3,0.8c0.7,0.7,3.2,0.7,3.7,0.7c1.1,0,2.2-0.1,3.2-0.2c5.5-0.8,11.3-1.7,17.2-2.5c0-1.9-0.1-3.8-0.1-5.8
			c0-2.5-1-3.2-2.3-4.1c-0.5-0.3-0.7-0.5-0.7-0.7c0-0.6,1.1-1.5,2.9-1.5s4.4,1,4.4,4.5c0,0.7-0.1,1.5-0.2,2.3
			c-0.3,1.7-0.6,3.3-0.8,4.9c2.3-0.2,4.6-0.4,6.8-0.5c0.7-0.1,1.1-0.2,1.1-0.4c0-0.1-0.1-0.2-0.3-0.4c-0.9-0.6-4.7-3.1-4.7-3.4
			c0-0.1,0.1-0.1,0.2-0.1c0.4,0,1.1,0.2,1.6,0.5c2.8,1.4,6.1,2.5,8.3,2.8c3,0.5,7.1,1.3,7.1,4.1c0,0.9-0.8,1.7-2.2,1.7
			c-0.5,0-1.1-0.1-1.8-0.3c-3.7-1.1-7.9-1.7-12.2-1.7c-1.4,0-2.8,0.1-4.1,0.2c-0.1,2-0.2,3.7-0.2,5.3c0,2,0.2,3.8,0.2,5
			c1.1,1.2,2.3,3.1,2.3,6.5c0,11.9-13.3,19.7-17.3,19.7c-0.3,0-0.4-0.1-0.4-0.2c0-0.2,0.7-0.7,2-1.3c2.9-1.3,8.8-6.6,10.7-13.4
			c-1.1,0.9-2.3,1.3-3.2,1.3c-2.2,0-3.2-1.8-4.5-4.5c-0.4-0.9-1-2.4-1-4.4c0-4,2.6-6.1,5.7-6.1c0.9,0,1.9,0.2,2.8,0.6L427.8,185.3
			L427.8,185.3z M427.9,197.8c-1-2.1-2.7-2.9-4-2.9c-1.4,0-2.6,1-2.6,3.1c0,1.6,1,5.6,4,5.6c2.7,0,2.7-3.5,2.7-4s0-1-0.1-1.5
			L427.9,197.8L427.9,197.8z"/>
		<path d="M472.4,196.4c0.1,0,0.1-0.1,0.3-0.2c2.7-1.7,6.1-2.7,9.4-2.7c7.7,0,12.5,5.4,12.5,11.2s-5.5,13.7-16.6,13.7
			c-5.8,0-9.7-2.9-9.7-6.1c0-2.9,3-4.5,5.9-4.5c4,0,6.4,3.1,6.4,6.2c0,0.5-0.1,1-0.2,1.5c7-1.7,9.7-6.5,9.7-10.7c0-4.7-3.4-9-9.4-9
			c-2.1,0-9.1,0.5-13.1,9.1c-1.4,3.1-2.4,5-4.4,5c-1.1,0-1.9-0.8-1.9-2c0-1.7,2.2-4.3,5-7.5c3.6-4.1,12.1-15.5,14.6-19.7
			c0.3-0.4,0.4-0.8,0.4-1.1c0-0.4-0.2-1-1.5-1c-2.8,0-4.1,5.8-8.2,5.8c-2.2,0-4-1.4-4-3.7c0-0.7,0.1-1.2,0.5-1.2
			c0.3,0,0.7,0.1,1.1,0.3c0.5,0.2,1,0.2,1.4,0.2c0.8,0,1.7-0.2,2.5-0.8c2.3-1.6,5.1-3.6,8.3-3.6c3.5,0,5.7,2.5,5.7,3.8
			c0,1.2-1.3,2.3-2.6,3.2C480.2,185.8,472.4,196.3,472.4,196.4L472.4,196.4L472.4,196.4z M477.1,213.8c0-2.1-1.6-3.9-3.8-3.9
			c-2.6,0-2.7,2-2.7,2.3c0,0.2,0,3.1,6,3.7C476.9,215.2,477.1,214.4,477.1,213.8L477.1,213.8z"/>
	</g>
</g>
</svg>
