<?xml version="1.0" encoding="UTF-8"?>
<svg id="_レイヤー_2" data-name="レイヤー 2" xmlns="http://www.w3.org/2000/svg" viewBox="0 0 522.9 222.24">
  <g id="_デザイン" data-name="デザイン">
    <g>
      <path d="m32.46,13.2c-2.88,4.32-5.46,7.44-7.8,9.18.06.06,1.08.84,1.08,1.56,0,.48-.42.9-1.32,1.38-.84.42-1.02.66-1.08,1.8-.18,4.32-.54,10.44-1.32,15.06-1.2,6.78-4.68,10.02-8.82,10.14-.42,0-.96-.18-1.14-.72-.48-1.56-3.18-3.72-4.08-4.74-3.9,5.82-7.68,7.62-7.86,7.62-.06,0-.12-.06-.12-.12,0-.24.42-.78,1.08-1.5,8.52-8.88,10.2-31.14,10.2-36.06,0-1.26-.12-2.4-.24-3.48-1.68.06-3.6.18-6.12.48h-.06c-.9,0-2.34-2.22-2.34-2.88,3.84.54,7.2.78,9.84.84v-3.12c-.06-2.46-.24-6.24-.6-7.8-.06-.18-.06-.36-.06-.42,0-.18.06-.18.24-.18.96,0,7.02,1.08,7.02,2.34,0,.36-.42.84-1.26,1.32-.96.54-1.02.6-1.14,2.34-.12,1.5-.12,4.02-.18,5.52h3.48c.18,0,.54-.18.72-.48.6-1.02,1.44-2.46,2.28-3.36.12-.12.3-.18.48-.18,1.38,0,4.92,3.54,4.92,4.86,0,.36-.24.66-1.14.66h-11.1c.96.3,1.62.54,1.62,1.08,0,.36-.36.66-1.02.96-.96.42-.96.66-1.08,2.1-.12,1.68-.3,3.42-.48,5.1h3.54c.6,0,.78-.3.96-.54.12-.12,1.2-1.62,1.68-1.62s1.86.78,3.12,1.8c.12-.24.3-.48.6-.9,2.4-3.42,6-11.46,7.5-17.04.36-1.32.42-2.76.48-3.54,0-.66.12-.66.18-.66.48,0,6.9,2.16,6.9,3.36,0,.42-.54.84-1.68,1.02-.9.12-.9.3-1.32,1.08-.96,1.8-2.16,3.96-3.54,6.18h12.3c.24,0,.66-.18.84-.48.9-1.32,2.46-3.6,3.24-3.6.96,0,5.52,3.42,5.52,4.86,0,.42-.24.78-1.26.78h-21.66Zm-17.52,10.74c-.96,7.98-2.7,16.08-6.6,22.38.06,0,.12.06.24.06,1.68.42,3.24,1.02,4.68,1.02,3.84,0,5.76-4.5,6.3-22.62,0-.54-.24-.84-.72-.84h-3.9Zm27.66,19.02c0,1.44-1.38,2.28-2.46,2.28-.96,0-1.8-.6-1.8-2.04v-.12c.18-4.38.3-9.24.36-13.62l-5.04,2.7-.3.18c-.06,3.6-.12,7.8-.12,10.74v2.58c0,2.64.78,3.24,7.98,3.24,2.88,0,6.3-.12,8.1-.42,2.88-.54,3.6-5.16,4.38-9.24.06-.42.18-.6.24-.6.42,0,.66,7.26,1.74,7.92.96.6,1.44,1.32,1.44,2.04,0,4.2-10.74,4.2-15.3,4.2-7.56,0-12.36-.42-12.36-6.06v-.24l.24-12.06c-2.82,1.86-3,1.92-3.3,1.92-1.08,0-2.82-.72-3.12-1.38,2.34-.78,4.5-1.62,6.42-2.52,0-1.68.12-3.18.12-4.5,0-2.04-.12-4.92-.42-7.14,0-.18-.06-.3-.06-.42s.06-.18.24-.18c.12,0,6.3.96,6.3,2.34,0,.42-.48.84-1.32,1.2-.96.36-.96.48-1.14,6.84l5.34-2.82c0-2.46-.06-9.36-.6-11.64-.06-.12-.06-.24-.06-.3,0-.12.06-.18.18-.18.48,0,6.6,1.02,6.6,2.22,0,.42-.42.78-1.02,1.08-1.02.54-1.14.36-1.26,1.86-.12,1.32-.18,3.06-.24,4.98l4.02-2.1c.36-.18.6-.48.72-.78.66-1.68.78-1.98,1.38-1.98.78,0,5.46,1.08,5.46,2.64,0,.36-.24.78-.78,1.2-.6.48-1.2.66-1.2,1.44-.06,2.22-.06,7.08-.36,9.9-.6,6.18-4.08,7.5-6.12,7.5-.36,0-.66-.06-.78-.42-.3-.9-1.32-1.86-2.16-2.7,0,.9.06,1.62.06,2.34v.12Zm-.24-15.42v3.06c0,2.88.06,5.82.12,8.34.96.18,1.8.48,2.58.48,2.64,0,3-3.12,3-13.86,0-.36-.3-.6-.6-.6-.12,0-.3.06-.42.12l-4.68,2.46Z" fill="#003383"/>
      <path d="m87.96,13.26c0,.3-.24.6-1.14.6h-12.12c-2.4,0-5.88.06-9.6.54h-.06c-.72,0-2.46-2.22-2.46-2.88,4.5.66,9.78.84,12.24.84h4.62c.18,0,.54-.18.72-.48.06-.12,2.04-3.42,2.82-3.42.96,0,4.98,3.42,4.98,4.8Zm-3.06,23.46c0,.54-.6.96-1.26,1.44-.9.6-1.14.9-1.14,3.12,0,2.1.18,4.5.42,8.1v.12c0,1.32-1.38,2.1-2.58,2.1-1.02,0-1.92-.54-1.92-1.74v-1.26h-7.86c0,1.14.06,2.22.06,3.36v.06c0,1.26-1.5,1.98-2.64,1.98-1.02,0-1.92-.48-1.92-1.74v-.18c.36-4.5.42-6.84.42-9.06,0-5.04-.42-8.46-.72-9.72,0-.12-.06-.24-.06-.3,0-.12.06-.18.12-.18.3,0,4.38,1.5,5.94,2.58l.12.12h5.34c.24,0,.54-.12.78-.48,1.38-1.86,1.5-1.92,1.8-1.92s5.1,1.98,5.1,3.6Zm-.9-31.98c0,.42-.24.78-1.08.78h-8.22c-1.8,0-3.54.12-6.36.54h-.06c-.84,0-2.28-1.98-2.28-2.88,3.48.66,6.96.84,8.82.84h1.38c.12,0,.42-.18.6-.48.54-1.02,1.62-2.34,2.22-3,.12-.12.3-.18.48-.18.12,0,.24,0,.3.06,1.38.6,4.2,3,4.2,4.32Zm0,15.84c0,.36-.24.78-1.08.78h-8.22c-1.8,0-3.54.06-6.36.54h-.06c-.72,0-2.28-1.86-2.28-2.88,3.48.66,6.96.84,8.82.84h1.5c.12,0,.48-.18.66-.48.54-.96,1.92-3,2.64-3,.06,0,.18,0,.24.06,1.68.78,4.14,3.24,4.14,4.14Zm0,7.92c0,.42-.24.78-1.08.78h-8.22c-1.8,0-3.54.06-6.36.54h-.06c-.72,0-2.28-1.98-2.28-2.88,3.48.66,7.02.84,8.88.84h1.44c.12,0,.48-.18.66-.48.18-.3,1.86-3,2.64-3,.18,0,.3,0,.36.06,1.56.72,4.02,3.12,4.02,4.14Zm-5.46,12.6c0-1.08-.06-2.16-.12-3.24,0-.36-.18-.72-.6-.72h-6.12c-.12.12-.3.18-.48.3-.6.42-.6.84-.6,1.68-.06,2.58-.06,5.28-.06,7.92h7.86c.06-2.46.12-4.26.12-5.94Zm40.32,8.4c0,.42-5.34,1.44-7.14,3.3-.24.24-.42.3-.66.3-.48,0-6.3-1.8-11.58-8.04-9.18,8.22-20.76,9.24-21.36,9.24-.3,0-.42,0-.42-.12,0-.18.66-.48,1.98-.9,5.94-1.92,12.54-5.64,17.58-11.28-2.64-4.08-4.38-8.82-5.04-13.68-1.32.06-2.76.18-4.26.36h-.06c-.96,0-2.76-2.22-2.76-2.94,5.28.9,10.74.9,13.74.9h5.16c.42,0,.66-.24.84-.48.3-.36.84-.96,1.26-1.2.18-.12.3-.18.48-.18.6,0,5.04,2.4,5.04,3.84,0,.42-.36.84-1.26,1.2-.96.36-1.38.3-1.68,1.26-1.56,4.5-3.84,8.28-6.6,11.34,4.08,3.42,9.48,6,16.32,6.9.3.06.42.12.42.18Zm-2.4-30.84c0,2.88-4.92,3.3-8.94,3.3-3,0-6-.36-6-4.86,0-2.76.12-6.48.12-10.02,0-.24-.24-.6-.54-.6h-4.08l-.6.36c-.54.24-.72.48-.72,1.8-.12,7.08-2.22,12.48-9.06,15.54-.78.36-1.2.48-1.32.48h-.06c0-.12.3-.42.78-.84,5.34-4.56,5.28-10.62,5.4-15.6,0-1.26-.18-3.54-.48-5.46v-.18c0-.06,0-.12.06-.12.6,0,4.74,1.8,5.58,2.28l.36.24h4.14c.3,0,.6-.48.72-.6.24-.24.84-1.02,1.14-1.32.06-.06.18-.12.36-.12.66,0,4.5,2.28,4.5,3.42,0,.42-.24.72-.72.96-.78.42-1.38.42-1.44,1.14-.12,1.56-.18,3.54-.18,5.22,0,4.5.42,4.68,2.58,4.68.96,0,2.28-.12,3-.3,1.44-.36,1.8-3,2.64-7.32.06-.36.12-.48.18-.48.36,0,.66,6.06,1.32,6.42.78.42,1.26,1.2,1.26,1.98Zm-12.06,9.84c0-.3-.12-.36-.42-.36h-5.28c-1.62,0-3.48,0-5.58.12,1.08,3.96,3.12,7.92,6.12,11.34,3.3-4.38,5.16-10.26,5.16-11.1Z" fill="#003383"/>
      <path d="m148.5,11.04c-.66,0-1.32.06-1.98.12,1.5,1.2,2.46,4.32,2.46,8.22,0,12.54-9.96,26.28-15.66,26.28-3.18,0-4.38-4.26-6.72-7.68-.96-1.38-1.44-3.36-1.44-5.58,0-9.06,7.8-23.52,24.24-23.52,13.74,0,21,9.42,21,19.32,0,5.4-2.22,10.98-6.72,15.24-7.68,7.2-19.08,7.98-19.62,7.98-.6,0-.84-.06-.84-.18,0-.3.9-.72,2.7-1.2,10.5-2.88,19.92-10.38,19.92-22.08,0-8.94-6.3-16.92-17.1-16.92h-.24Zm-5.46.78c-9.24,2.7-14.58,11.28-14.58,18.78,0,5.28,2.7,9.3,5.28,9.3,4.14,0,12.72-12.54,12.72-23.16,0-2.7-.36-5.16-2.16-5.16-.18,0-.36,0-.54.06s-.36.12-.48.12l-.24.06Z" fill="#003383"/>
      <path d="m232.08,48.42c0,.36-.3.72-1.32.72h-30.84c-3.36,0-13.02.12-18.36.66h-.06c-1.08,0-2.82-2.34-2.82-3.12,6.18.72,18.06.96,21.54.96h5.58c2.04-5.28,7.98-22.2,7.98-29.16,0-.54.06-.54.06-.54.54,0,8.1,1.86,8.1,3.66,0,.54-.6,1.08-1.92,1.26-.96.12-1.14.3-1.38.96-2.82,6.96-7.98,18.36-11.28,23.82h13.74c.42,0,.84-.24,1.02-.54.36-.54,2.76-4.44,3.84-4.44,1.86,0,6.12,4.92,6.12,5.76Zm-3.84-33.6c0,.36-.3.72-1.32.72h-24.9c-3.3,0-11.4.12-16.74.66h-.06c-1.08,0-2.64-2.34-2.64-3.12,6.12.72,16.32.96,19.74.96h1.02v-3.18c0-3.12-.12-6.9-.6-8.82-.06-.24-.12-.36-.12-.42s.06-.12.12-.12c.36,0,8.04.9,8.04,2.34,0,.42-.36.84-1.14,1.26-1.08.66-1.32.3-1.5,2.46-.12,1.2-.18,4.74-.18,6.48h9.54c.42,0,.84-.24,1.02-.54.12-.18,2.52-4.14,3.66-4.14.18,0,.3,0,.42.06,1.44.54,5.64,4.02,5.64,5.4Zm-25.2,23.16c0,2.46-1.44,3.96-2.88,3.96-1.32,0-2.64-1.26-3.06-4.26-.66-5.04-3.24-11.64-6.24-16.32-.18-.3-.3-.54-.3-.72,0-.12.06-.18.18-.18,1.5,0,12.3,10.8,12.3,17.52Z" fill="#003383"/>
      <path d="m253.8,13.32c1.68-.9,3.36-1.92,4.38-2.52.54-.3,1.14-.48,1.68-.48,1.08,0,1.92.6,1.92,1.5,0,1.86-2.58,3.6-8.82,6.12-1.14,6.78-1.8,11.28-1.8,13.92,0,1.56.36,1.68.66,1.68.78,0,3.9-1.68,5.04-2.46,2.34-1.56,5.1-2.58,7.92-2.58,4.26,0,10.44,2.94,10.44,8.88,0,2.4-.96,4.8-2.34,6.78-4.38,6.36-15.72,8.7-21.24,8.7-.66,0-1.02-.06-1.02-.18,0-.24.96-.6,3.18-1.14,6.9-1.68,16.62-6.84,16.62-14.16,0-3.66-3.06-6.36-6.84-6.36-4.5,0-9.12,4.98-10.44,8.52-.54,1.56-1.44,2.4-2.34,2.4-.78,0-3.18-1.2-3.18-5.82,0-1.74.24-3.84.72-5.88.54-2.52,1.32-7.2,1.86-11.52-.96.36-1.92.48-2.76.48-4.26,0-7.2-3.6-7.2-5.64,0-.3.12-.42.36-.42s.72.24,1.44.6c2.1,1.14,3.42,1.62,4.92,1.62.96,0,2.04-.24,3.48-.6l.18-.06c.06-1.2.12-2.4.12-3.36,0-4.8-1.08-4.92-1.62-4.92h-.48c-.48,0-.66-.06-.66-.36,0-.6,1.14-2.58,3.24-2.58,1.5,0,3.6,1.08,3.6,4.02,0,1.32-.42,2.82-.72,4.44l-.3,1.38Z" fill="#003383"/>
      <path d="m337.02,49.5c0,.36-.3.66-1.32.66h-30.9c-3.36,0-12.36.12-17.64.66h-.06c-1.08,0-2.82-2.28-2.82-3.06,6.06.72,17.34.9,20.82.9h1.8c.12-5.76.18-13.8.18-21.06,0-17.4-.24-21.9-.84-24.78-.06-.18-.06-.3-.06-.36,0-.18.06-.24.18-.24.3,0,8.58,1.08,8.58,2.64,0,.48-.48,1.02-1.26,1.5-1.32.78-1.5.6-1.62,2.52-.18,2.82-.24,8.7-.24,15.36h9.06c.36,0,.78-.24.96-.54.78-1.14,3.06-4.32,3.72-4.32,1.62,0,6,4.5,6,5.58,0,.42-.3.78-1.26.78h-18.48c0,8.22,0,17.34.12,22.92h13.98c.42,0,.78-.24.96-.54.06-.12,2.88-4.56,3.9-4.56,1.68,0,6.24,4.8,6.24,5.94Z" fill="#003383"/>
      <path d="m348.3,34.02c0-5.52,1.32-10.62,1.98-15,.24-1.44.48-2.82.48-4.08,0-2.58-1.02-3.78-3.6-5.22-.6-.3-1.02-.72-1.02-1.08,0-.78,1.32-.9,1.98-.9s1.44.12,1.92.36c.84.42,4.74,3.6,4.74,6.72,0,1.26-.42,2.52-1.02,4.14-1.44,3.9-2.88,8.58-2.88,12.66,0,1.14.48,4.92,1.14,4.92.18,0,.42-.3.72-.9,1.02-2.34,6.78-14.16,7.62-14.16.12,0,.12.06.12.24,0,.42-.24,1.32-.6,2.16-2.34,5.46-4.62,12.6-4.62,17.7,0,1.44.12,2.94.54,3.96.18.54.3,1.02.3,1.38,0,1.2-.72,1.86-1.74,1.86-3.96,0-6.06-8.46-6.06-14.76Zm27.54-4.68l-.18-7.62c-.54.06-1.08.06-1.56.06h-1.5c-7.86,0-9-4.62-9-4.98,0-.12.06-.18.18-.18.3,0,.9.3,1.5.54,1.98.78,4.68,1.02,7.14,1.02h.96c.72,0,1.44-.06,2.22-.18v-3.06c0-3.42-.3-6.3-2.52-6.3h-.42c-.96,0-1.32-.24-1.32-.6,0-.54,1.32-1.86,3.18-1.86,2.28,0,5.04,2.16,5.04,4.98v.72c1.14.3,2.34.54,3.24.66.78.06,1.56.06,2.1.18,1.14.24,1.92,1.14,1.92,2.28,0,3.12-4.44,5.16-7.8,6.06.06,2.64.3,5.16.54,7.74.06.84.12,1.68.12,2.52,0,18.6-16.86,23.58-18.78,23.58-.18,0-.24,0-.24-.12,0-.18.54-.66,2.22-1.56,6.9-3.84,12.96-13.2,12.96-23.16v-.72Zm8.58-19.8c-1.56-1.8-3.48-3.24-5.04-4.08-.54-.3-.96-.48-.96-.66,0-.42,2.34-.42,2.46-.42,6.9,0,6.96,4.02,6.96,4.02,0,1.14-.78,2.04-1.8,2.04-.48,0-1.08-.3-1.62-.9Zm-5.34,7.56c1.02-.36,3.18-1.5,3.18-2.52,0-.66-.9-1.32-2.76-2.1-.18.84-.36,3.12-.42,4.62Zm11.58-10.44c-1.62-1.74-3.6-3.12-5.16-3.9-.54-.24-.96-.42-.96-.6,0-.06.84-.54,2.76-.54,4.92,0,6.72,2.22,6.72,3.9,0,1.08-.78,1.98-1.74,1.98-.48,0-1.08-.24-1.62-.84Z" fill="#003383"/>
      <path d="m419.4,31.92c-4.14,0-12.78,3.66-12.78,9.72,0,3.66,3.12,6.54,9.3,6.54,2.52,0,5.4-.48,7.8-1.68.72-.36,1.44-.54,2.04-.54,1.68,0,2.82,1.14,2.82,2.4,0,3.24-6.9,4.5-10.86,4.5-10.32,0-13.8-6.54-13.8-10.44,0-5.1,4.56-10.38,10.56-13.26-3.24-1.56-4.08-4.92-4.08-8.58,0-2.82.48-5.82.78-8.28.18-1.44.3-2.7.3-3.78,0-2.76-1.02-3-2.82-3.42-.84-.18-1.2-.42-1.2-.78,0-.3.84-1.98,3-1.98,2.88,0,5.76,3.3,5.76,6,0,1.26-.36,2.46-.66,3.72-.66,2.82-1.62,6.42-1.62,9.6,0,2.46.48,5.34,3.24,6.42,1.2-.48,1.98-.96,3.48-1.38.66-.18,1.5-.36,2.28-.36,1.26,0,2.88.48,2.88,2.16s-2.1,3.48-5.1,3.48c-.24,0-.54-.06-.78-.06h-.54Z" fill="#003383"/>
      <path d="m456.36,46.68c-1.86,0-4.02-.84-5.82-2.16-6.36-4.86-7.68-11.46-7.68-18.36,0-1.92.12-3.9.24-5.82.06-.66.06-1.32.06-2.04,0-1.2-.06-2.4-.18-3.3-.06-.48-.12-.84-.12-1.08,0-.36.12-.54.36-.54.36,0,4.62,1.32,4.62,6.42,0,.78-.06,1.62-.24,2.34-.42,2.1-.84,4.68-.84,7.32,0,10.14,6.54,11.16,7.02,11.16.96,0,1.56-.6,1.86-1.14,1.2-2.04,2.52-5.46,3.6-7.68.72-1.56,1.14-2.16,1.32-2.16.06,0,.06.12.06.3,0,.48-.12,1.32-.36,2.34-.48,2.28-.96,4.92-.96,7.92,0,1.32.18,2.22.3,3.12.06.24.06.42.06.66,0,1.62-1.2,2.7-3.3,2.7Zm23.16-14.76c-.48-5.82-4.62-10.74-9.12-11.88-1.62-.42-2.52-.78-2.52-1.02,0-.18.42-.3,1.26-.3,10.02,0,15.6,7.14,15.6,12.42,0,2.4-1.44,3.66-2.76,3.66-1.2,0-2.28-.96-2.46-2.88Z" fill="#003383"/>
      <path d="m499.38,55.26c-.12,0-.24,0-.24-.06,0-.24.72-.72,2.16-1.56,4.56-2.52,16.92-12.66,16.92-25.62,0-5.28-2.22-9.48-5.34-9.48-1.5,0-3.06.96-4.68,2.46-1.2,1.14-2.52,2.16-4.2,2.16-2.88,0-5.04-2.34-5.04-4.68,0-1.5.9-2.52,1.26-2.52.3,0,.48.42.72.96.42.84,1.26,1.14,2.22,1.14,1.26,0,2.76-.48,3.72-.84,1.86-.72,4.26-1.62,6.6-1.62,5.58,0,9.42,5.88,9.42,12.72,0,2.82-.66,5.7-1.8,8.52-5.82,14.16-20.58,18.42-21.72,18.42Zm9.12-47.34c.3-.3.48-.48.48-.72,0-.18-.18-.36-.42-.48-.9-.48-3.9-1.14-5.34-3.24-.54-.72-.78-1.2-.78-1.44,0-.12.12-.18.24-.18.36,0,.96.24,1.92.66,2.04.96,6.9.96,7.38.96h1.44c3.24,0,4.5,2.34,4.5,3.3,0,1.26-1.32,1.98-3.54,2.1s-5.46.9-8.4,2.28c-.48.24-.9.36-1.14.36-.12,0-.18,0-.18-.12s.18-.42.72-.84l3.12-2.64Z" fill="#003383"/>
      <path d="m55.08,90.18c0,.66-.72,1.14-1.86,1.68-1.02.48-1.14.54-1.14,6.06,0,9.48.48,30.6.84,37.32v.18c0,1.56-1.5,2.52-2.88,2.52-1.14,0-2.22-.66-2.22-2.1v-2.46H11.52v2.28c0,1.5-1.56,2.46-3,2.46-1.08,0-2.1-.6-2.1-2.04v-.24c.54-7.86.72-26.16.72-36.18v-4.32c0-1.92-.3-6.96-.78-9.24-.06-.18-.06-.3-.06-.42s0-.12.12-.12c.42,0,4.86,1.62,6.66,2.82l.36.24h32.76c.42,0,.78-.3.96-.54,1.2-1.56,1.74-2.1,2.28-2.1,1.08,0,5.64,3,5.64,4.2Zm-7.5,1.02c0-.6-.42-.96-.9-.96H13.26c-1.2.78-1.44,1.02-1.5,2.4-.12,3.36-.24,19.02-.24,31.38.12-.12.3-.36.6-.6,4.56-3.48,9.9-9.54,13.68-18.48-2.7.06-5.94.18-9.54.54h-.06c-1.02,0-2.58-2.22-2.58-2.94,4.86.6,9.96.84,13.44.9,0-7.68-.6-10.02-.66-10.38-.06-.12-.06-.24-.06-.36s.06-.18.3-.18c.78,0,6.72,1.02,6.72,2.1,0,.36-.42.78-1.08,1.08-.96.48-1.08.24-1.2,1.86-.12,1.38-.18,3.42-.24,5.88h5.58c.36,0,.72-.12.9-.42.72-1.14,2.52-3.78,3.24-3.78,1.44,0,5.46,3.78,5.46,4.92,0,.36-.3.72-1.26.72h-13.32c3.06,6.12,9.18,12.6,16.14,15.72l.3.18c0-11.46-.06-24.54-.3-29.58Zm.3,29.82c-.6.3-3.66.42-5.58,1.86-.24.18-.54.3-.84.3-1.02,0-7.26-6.12-10.62-17.46v3c0,6.78.18,14.46.36,18.24v.06c0,1.38-1.56,2.1-2.7,2.1-1.02,0-1.98-.54-1.98-1.86v-.12c.18-4.2.42-10.56.48-16.5-6.24,10.68-15.24,13.74-15.48,13.74v7.38h36.36v-10.74Z" fill="#003383"/>
      <path d="m77.46,124.74c-.18.66-.42,1.32-.66,1.98,1.62.3,10.32,2.16,10.32,6.72,0,1.44-.96,2.52-2.16,2.52-.84,0-1.8-.54-2.52-1.92-1.2-2.16-3.42-4.86-5.82-6.72-4.02,9.96-14.34,11.1-14.34,11.1-.24,0-.36-.06-.36-.12,0-.18.48-.54,1.56-1.02,5.94-2.7,9.06-6.72,10.38-12.54-2.88.06-7.32.18-9.42.54h-.06c-.66,0-2.34-2.1-2.34-2.88,2.76.54,8.76.78,12.12.84.24-1.5.42-3.18.48-4.92-2.34.06-5.82.18-7.92.54h-.06c-.66,0-2.4-2.1-2.4-2.88,2.7.54,7.5.78,10.38.84v-5.22h-4.38c0,.24.06.48.06.66v.06c0,1.2-1.26,1.86-2.28,1.86-.84,0-1.62-.48-1.62-1.56v-.24c.18-1.86.24-6.96.24-8.76,0-.6-.06-2.64-.42-4.32,0-.12-.06-.18-.06-.24,0-.12.06-.18.12-.18.42,0,3.54,1.38,4.98,2.28h10.74c.24,0,.48-.12.66-.42.3-.54,1.26-1.56,1.68-1.56.78,0,4.14,1.98,4.14,3,0,.42-.42.78-1.02,1.14-.84.48-.9.6-.9,1.14,0,2.82.3,6.66.3,6.78v.12c0,.66-.36,1.92-2.28,1.92-.84,0-1.68-.48-1.68-1.56v-.12h-4.5c-.06,1.98-.12,3.96-.12,5.22h2.58c.12,0,.48-.18.66-.48,1.26-1.8,1.98-2.52,2.34-2.52.12,0,.24.06.3.06,1.56.72,3.96,2.58,3.96,3.6,0,.42-.24.84-1.14.84h-8.7c-.06,1.68-.18,3.36-.48,4.92h4.92c.12,0,.54-.18.72-.48.12-.18,1.8-2.76,2.58-2.76.12,0,.24,0,.3.06,2.04.9,4.14,3,4.14,3.9,0,.42-.3.78-1.14.78h-11.88Zm4.98-30.96c0,1.08.06,2.22.12,3.66,0,.42-.6,1.74-2.4,1.74-.84,0-1.5-.36-1.5-1.26v-.12c.06-1.5.12-2.88.12-4.02h-4.44c0,1.08.06,2.28.06,3.84,0,1.02-1.26,1.68-2.34,1.68-.9,0-1.62-.36-1.62-1.38v-.12c.18-1.74.18-2.88.24-3.9-1.62.06-3.3.18-5.1.42h-.06c-.78,0-2.34-2.04-2.34-2.82,2.46.36,5.16.6,7.56.72v-1.98c0-.72-.12-2.64-.48-4.32,0-.12-.06-.24-.06-.3,0-.18.06-.18.24-.18.48,0,5.7.42,5.7,1.74,0,.3-.24.78-1.02,1.32-.66.48-.78,1.02-.78,3.84h4.5v-2.1c0-.72-.06-2.64-.36-4.32,0-.12-.06-.24-.06-.3,0-.24.12-.24.3-.24,0,0,5.7.6,5.7,1.8,0,.3-.24.72-1.08,1.32-.84.6-.9,1.08-.9,3.84h1.44c.12,0,.42-.18.6-.48,1.68-2.64,1.86-2.76,2.16-2.76.12,0,.18.06.24.06,1.38.66,3.6,3,3.6,3.96,0,.36-.24.66-.96.66h-7.08Zm-7.8,14.28c0-1.08-.06-3.6-.24-5.4h-3.18l-.36.24c-.6.36-.66.42-.66,3.84,0,1.08.06,2.34.06,3.42h4.38v-2.1Zm8.34-4.74c0-.36-.24-.66-.72-.66h-2.58c.06.06.12.18.12.3,0,.18-.18.42-.54.6-.6.3-.72.42-.72,1.74,0,.96-.06,2.82-.12,4.86h4.56v-6.84Zm12.96,29.4c0,1.2.06,2.16.06,2.88v.12c0,1.62-1.56,2.46-2.76,2.46-.96,0-1.8-.6-1.8-2.1v-.3c.48-5.88.78-27.6.78-31.2v-2.58c-2.22,3.3-4.8,6.18-5.34,6.18-.06,0-.06-.06-.06-.12,0-.12.12-.36.36-.78,2.7-3.96,7.74-16.92,7.74-22.08.06-.48,0-.66.24-.66,1.08,0,6.54,1.92,6.54,3,0,.54-.78.96-1.74,1.14-.84.12-.9.18-1.26.96-1.08,2.46-2.28,5.04-3.6,7.5,1.98.9,2.1.96,2.1.96h4.5c2.82-8.4,2.88-11.4,2.88-12,0-.24,0-.48-.06-.66v-.36c0-.18,0-.3.18-.3.48,0,6.54,2.04,6.54,3.12,0,.42-.48.84-1.62.96-.72.12-.9.36-1.26.96-1.38,2.46-3.6,6-5.28,8.28h3.9c.18,0,.54-.18.72-.48.6-1.02,1.62-2.46,2.34-3.06.12-.12.3-.18.48-.18,1.02,0,4.92,3.3,4.92,4.56,0,.36-.24.66-1.14.66h-8.1c.36.12.48.36.48.54,0,.36-.36.72-1.02.96-.36.12-.48.48-.48,1.08-.06,1.38-.12,3.72-.12,6.54h1.38c.18,0,.54-.18.72-.48.06-.12,1.74-2.88,2.52-2.88.72,0,4.44,3,4.44,4.2,0,.36-.24.66-1.14.66h-7.92v8.88h1.38c.18,0,.54-.18.72-.48,1.26-2.16,2.04-2.94,2.58-2.94.72,0,4.38,2.82,4.38,4.26,0,.36-.24.66-1.14.66h-7.92v10.62h3.18c.18,0,.54-.18.72-.48.6-1.02,1.68-2.64,2.4-3.24.12-.12.3-.18.48-.18.9,0,5.16,3.24,5.16,4.74,0,.36-.3.66-1.2.66h-19.86Zm5.52-27.42c0-1.5,0-3.96-.24-5.7h-4.08c-.12.12-.3.18-.48.3-.78.42-.78.66-.78,8.82h5.58v-3.42Zm0,4.92h-5.58v8.88h5.58v-8.88Zm-.06,21c0-1.98.06-6.18.06-10.62h-5.58c0,3.9.06,7.68.06,10.62h5.46Z" fill="#003383"/>
      <path d="m138.18,99.48c-.84.18-1.62.3-2.34.36-.36,0-.66.06-1.02.06-5.52,0-7.62-4.02-7.62-5.94,0-.24.12-.36.3-.36.3,0,.72.3,1.14.54,1.92,1.14,3.9,2.04,6.24,2.04,2.04,0,3.9-.48,4.26-.6.12-.9.18-1.8.18-2.58,0-3.48-.84-3.72-1.56-3.72-1.26,0-1.44-.3-1.44-.54,0-.12.06-.66,1.08-1.68.54-.42,1.08-.54,1.68-.54,1.08,0,3.78.6,3.78,4.44.66.06,1.38.06,1.98.06,1.86,0,3.66.06,3.66,1.68,0,1.74-3.3,4.5-7.38,5.94-1.68,4.2-3.96,9.54-9.12,20.76-1.02,2.22-2.82,3.36-4.14,3.36-.96,0-1.68-.54-1.68-1.68,0-.78.42-1.92,1.38-3.36,3.24-4.8,8.34-11.94,10.5-17.94l.12-.3Zm4.26,37.2c-4.74,0-8.1-3.66-8.1-6.72,0-3.96,5.28-6,10.8-6,1.32,0,2.7.12,4.02.36,0-2.4-.24-4.92-.24-7.02.06-5.22,1.26-7.86,5.64-10.92,1.62-1.14,3.54-2.58,3.54-4.02,0-.66-.24-.9-1.8-2.46-.6-.54-.96-.9-.96-1.2,0-.24.42-.36,1.44-.36,2.88,0,7.62,2.58,7.62,6.24,0,1.14-.72,3.36-2.58,3.36-.6,0-1.2-.12-1.92-.3-.36-.06-.72-.12-1.2-.12-.78,0-7.44.12-7.44,6.06,0,1.62.3,4.02,1.02,8.88.12.9.24,1.86.3,2.76,3.3,1.08,8.82,4.02,8.82,7.56,0,1.44-.9,2.64-2.04,2.64-.78,0-1.68-.54-2.4-1.92-.96-1.74-2.58-3.3-4.56-4.5-1.02,4.44-5.46,7.68-9.96,7.68Zm.72-10.38c-4.14,0-7.02,1.74-7.02,3.48s2.58,3.06,5.4,3.06c3.54,0,6.9-1.98,7.44-5.46-1.86-.66-3.84-1.08-5.82-1.08Zm.48-32.64c.36-.3.72-.72.72-1.14,0-.18-.06-.54-1.5-1.02-.06.9-.24,1.8-.48,2.88l1.26-.72Z" fill="#003383"/>
      <path d="m228.54,132.42c0,.54-5.16,1.92-7.08,3.84-.24.24-.48.36-.78.36-2.1,0-13.62-6.42-18.66-15.24,0,5.76.18,11.94.3,14.76v.06c0,1.14-1.26,2.34-2.88,2.34-1.08,0-2.04-.6-2.04-1.98v-.3c.24-2.58.42-7.2.48-11.82-10.56,10.68-24.66,13.08-25.8,13.08-.3,0-.48-.06-.48-.18,0-.18.42-.48,1.2-.72,7.26-2.52,16.44-8.1,23.1-16.2h-1.68c-3.12,0-10.26.12-15.36.6h-.06c-1.02,0-2.64-2.28-2.64-3,5.76.72,15.12.96,18.36.96h3.42v-4.98h-.96c-3,0-7.98.06-12.78.6h-.06c-1.02,0-2.58-2.16-2.58-2.88,5.52.72,12.48.9,15.6.9h.78c0-1.44-.06-3.42-.24-4.86h-3.12c-3.06,0-8.46.06-13.38.6h-.06c-1.02,0-2.58-2.22-2.58-2.94,5.1.66,11.76.84,15.3.9-.48-.3-.9-.84-1.2-1.68-.48-1.32-1.8-3.48-2.88-4.62-.3-.3-.48-.48-.48-.54s.06-.06.24-.06c2.82,0,7.68,1.62,7.68,4.68,0,1.02-.54,1.8-1.26,2.22h6.36c.24-.48,2.58-4.68,3.06-7.68h-12.18c-3.3,0-11.04.12-16.38.66h-.06c-1.08,0-2.64-2.28-2.64-3.06,6.12.72,15.96.84,19.38.96v-4.92c0-2.64-.12-5.88-.6-7.98-.06-.24-.06-.36-.06-.42s0-.12.06-.12c.3,0,6.84.84,6.84,2.16,0,.36-.36.72-1.02,1.14-.96.6-1.2.24-1.32,2.22-.06.96-.06,5.58-.06,7.92h4.56v-4.92c0-2.64-.06-5.88-.54-7.98-.06-.24-.12-.42-.12-.48s.06-.06.12-.06c1.5,0,6.78,1.02,6.78,2.16,0,.36-.36.72-1.02,1.14-.96.6-1.14.24-1.26,2.22-.06.96-.12,5.58-.12,7.92h.78c1.44-1.86,5.1-7.38,5.94-10.98.12-.42.12-.6.24-.6.3,0,5.7,3.36,5.7,4.38,0,.42-.54.66-1.5.66h-.66c-.6,0-.72.24-1.2.66-1.56,1.5-4.62,4.08-7.2,5.88h8.28c.36,0,.78-.24.96-.54.54-.9,2.76-3.9,3.48-3.9,1.32,0,6,3.42,6,5.16,0,.36-.3.72-1.32.72h-18.42c3.06,1.44,4.5,2.52,4.5,3.06,0,.48-.6.72-1.56.72h-.42c-.54,0-.66.18-1.14.6-.78.72-2.64,2.16-4.26,3.3h7.38c.48,0,.84-.18,1.02-.48,2.04-2.76,2.7-3.3,3.3-3.3,1.5,0,5.46,3.24,5.46,4.5,0,.36-.3.72-1.26.72h-15.84c.24.12.36.3.36.48,0,.3-.48.66-1.08.96-1.08.48-1.14.96-1.14,3.42h5.64c.48,0,.84-.24,1.02-.54.06-.12,2.1-2.88,3.06-2.88,1.02,0,5.28,2.7,5.28,4.08,0,.36-.3.72-1.26.72h-13.8c-.06,1.44-.06,3.18-.06,4.98h12.72c.48,0,.9-.24,1.08-.54,2.4-3.36,3.24-3.42,3.42-3.42,1.5,0,5.7,3.36,5.7,4.68,0,.36-.24.72-1.26.72h-21c4.56,5.52,14.1,10.44,25.38,11.82.3.06.48.12.48.18Zm-37.86-39.9c0,1.5-1.08,2.7-2.34,2.7-.84,0-1.74-.54-2.4-1.92-.66-1.38-2.4-3.84-3.78-5.04-.42-.36-.6-.54-.6-.66,0-.06.12-.12.96-.12,3.72.12,8.16,1.98,8.16,5.04Z" fill="#003383"/>
      <path d="m288.42,110.34c0,.54-4.56,1.8-6.18,3.24-.36.3-.66.42-1.02.42-1.14,0-6.3-1.92-10.92-6.18-6.96,5.76-16.08,6.66-16.14,6.66-.36,0-.54-.12-.54-.18,0-.18.36-.42,1.26-.72,5.52-1.74,9.9-4.68,13.08-8.16-2.1-2.46-3.72-5.34-4.62-8.52-1.68,2.16-3.48,4.32-5.34,5.82,1.02.78,2.88,2.52,2.88,3.48,0,.78-.78,1.32-2.4,1.38-1.8.12-4.44,3.12-6.36,4.26-.18.12-.36.18-.42.18s-.06,0-.06-.06c0-.12,0-.24.12-.48.78-1.62,2.16-4.56,2.22-5.58,0-.48-.06-.6-.3-.6h-3.78c.78.18,1.32.3,1.32.78,0,.3-.3.6-.84.84q-.9.42-.9,8.52c0,3.54.06,7.38.18,10.02.06,1.5.24,4.92.24,6v.12c0,4.68-5.52,5.64-6.42,5.64-.54,0-.96-.24-1.26-.9-.84-1.62-5.64-3.78-5.64-4.26,0-.06.06-.06.24-.06.12,0,.3,0,.6.06,2.16.36,4.02.6,5.4.6,1.74,0,2.76-.42,2.82-1.74.12-3.48.18-7.98.18-12.12v-4.02c-4.68,8.4-12.84,13.98-14.22,13.98-.06,0-.12,0-.12-.06,0-.18.3-.54.96-1.14,4.26-3.78,11.7-15.06,13.14-21.42,0-.3,0-.6-.06-.84-2.46.06-5.64.18-8.88.6h-.06c-.9,0-2.58-2.16-2.58-3,4.8.78,10.8.9,13.44.9h6.12c.24,0,.66-.18.9-.42.24-.3,1.44-1.5,2.1-1.5.06,0,.18,0,.24.06.18.06.36.18.54.3,2.46-3.3,6.84-12.12,7.2-16.56.06-.48.06-.66.24-.66.6,0,5.94,1.8,5.94,2.94,0,.42-.48.84-1.5,1.02-.66.12-.72.24-1.08.84-.72,1.2-1.62,2.64-2.7,4.2h11.4c.18,0,.48-.18.66-.48.48-.72,2.22-3.3,2.82-3.3s4.98,3.12,4.98,4.56c0,.3-.24.6-1.14.6h-7.68c2.76,1.08,3.12,1.26,3.12,1.86,0,.42-.48.78-1.14.78h-.12c-.48,0-.84.12-1.14.78-1.26,2.46-2.64,4.68-4.32,6.54,3.78,2.4,8.76,4.14,15,4.8.36.06.54.12.54.18Zm-29.82-19.32c0,.66-.78,1.02-1.86,1.26-.66.12-1.26.3-2.28.96-1.2.78-3.36,2.58-5.4,3.96l.54.36c1.08.84,1.56,1.86,1.56,2.76,0,1.32-.9,2.4-2.1,2.4-.78,0-1.74-.48-2.58-1.68-1.68-2.28-3.9-3.84-5.34-4.74-.3-.18-.42-.3-.42-.42,0-.18.54-.18,1.14-.18,1.62,0,4.14.24,6.12,1.02,1.32-2.22,2.94-4.98,3.12-5.76.06-.12.06-.24.06-.36s-.06-.24-.42-.24h-3.24c-1.74,0-6.48.06-9.24.48h-.06c-.72,0-2.46-2.22-2.46-2.88,4.38.78,10.08.84,11.88.84h3.12c.42,0,.72-.12,1.02-.42.36-.3,1.08-1.08,1.44-1.38.18-.18.36-.24.48-.24.48,0,4.92,2.64,4.92,4.26Zm24.84,29.34c0,.48-.36.9-1.32,1.26s-1.14.54-1.2,1.5c-.84,10.2-5.04,14.16-10.44,14.16-1.44,0-1.8-.24-2.04-.84-.54-1.44-4.08-3.6-5.46-4.62-5.46,4.98-13.32,6.36-14.76,6.36-.3,0-.48-.06-.48-.18,0-.18.6-.54,1.38-.78,8.46-2.52,14.1-8.94,16.32-16.86-2.46.06-5.28.24-8.76.6h-.06c-1.08,0-2.88-2.34-2.88-3.06,4.5.66,8.88.84,12.12.9.54-2.28.6-4.86.6-5.76,0-.6,0-1.14-.06-1.68v-.24q0-.12.12-.12c.54,0,6.6.9,6.6,2.16,0,.36-.42.72-1.08.96-1.14.36-1.08.36-1.32,1.74-.18,1.02-.36,1.98-.6,2.94h6.18c.48,0,.66-.24.84-.48,1.38-1.56,1.56-1.56,1.62-1.56,1.02,0,4.68,2.46,4.68,3.6Zm-7.14-.06h-6.54c-1.32,4.56-3.42,8.28-6.42,11.16,2.82.72,5.16,1.44,7.08,1.44s3.54-.72,4.68-2.94c1.2-2.28,1.86-6.06,1.98-8.76,0-.54-.12-.9-.78-.9Zm-11.88-24.9l-.18.3c1.2,2.7,3.12,5.22,5.64,7.44,2.4-3.3,3.3-5.94,3.6-7.74h-9.06Z" fill="#003383"/>
      <path d="m297.18,122.04c0-2.1.24-4.14.6-6.06.78-4.08,2.04-7.8,2.7-11.28.3-1.5.42-2.88.42-4.14,0-2.64-.54-4.62-1.14-5.7-.36-.66-.84-1.2-.84-1.5s.3-.42,1.2-.42c1.86,0,4.98,2.64,4.98,7.08,0,1.98-.66,3.96-1.68,6.48-1.5,3.72-3.3,8.22-3.3,12.3,0,1.38.36,3.72.9,3.72.18,0,.42-.3.66-.9,1.5-3.18,5.58-11.16,6.24-11.16.06,0,.12.12.12.24,0,.24-.12.72-.42,1.44-.84,1.98-4.08,10.56-4.08,15.66,0,1.26.18,2.28.42,3.24.12.42.18.84.18,1.2,0,1.5-.9,2.4-1.92,2.4-4.08,0-5.04-9.66-5.04-12.6Zm36.72,4.08c2.34,0,3.6,1.08,3.6,2.28,0,3.72-8.46,3.78-9.54,3.78-10.32,0-13.56-5.34-13.56-8.28,0-.42.06-.6.24-.6.3,0,.72.42,1.26,1.2,1.2,1.74,5.22,2.88,9.66,2.88,1.2,0,2.4-.06,3.6-.24,1.44-.24,2.4-.96,4.44-1.02h.3Zm-9.18-21.36c-9,0-9.48-5.4-9.48-5.82,0-.18.06-.24.24-.24s.6.24,1.14.54c1.68,1.02,3.9,1.38,6.12,1.38,1.74,0,3.42-.24,4.98-.6.78-.18,1.44-.6,2.22-.72.42-.06.78-.12,1.14-.12,1.92,0,3.12,1.02,3.12,2.1,0,2.94-6.54,3.48-9.48,3.48Z" fill="#003383"/>
      <path d="m29.94,196.68v.18c0,1.2-1.14,2.34-2.52,2.34-.96,0-1.86-.6-1.86-1.86v-.36c.42-3.78.72-10.86.72-13.2v-.78c-4.32,4.8-7.56,6.6-8.04,6.6-.06,0-.12,0-.12-.12s.18-.42.66-.9c1.2-1.2,2.52-2.82,3.78-4.62h-6.72c-.06,3.18-.06,6.78-.06,10.32,2.94-1.08,5.64-2.16,7.74-3.12.6-.24.96-.36,1.14-.36.12,0,.18.06.18.12,0,.66-4.86,3.9-9.06,6.66,0,3.42.06,6.78.12,9.72,0,1.62.18,5.58.18,7.08,0,4.8-3.96,6.36-6.42,6.36-.54,0-.84-.18-1.2-.78-1.08-1.92-5.1-4.26-5.1-4.8,0-.06.06-.06.24-.06.12,0,.3,0,.54.06,1.98.42,3.48.66,4.62.66,2.04,0,2.82-.78,2.88-2.52.12-3.72.12-8.64.18-13.74l-4.8,2.76c-.48.24-.6,1.02-1.08,1.02-1.2,0-4.26-5.04-4.26-5.04,0-.12.18-.06.6-.12,2.1-.24,3.06-.36,9.54-2.52v-11.64c-1.92.06-4.2.18-6.72.48h-.06c-.72,0-2.46-2.22-2.46-2.88,3.18.48,6.6.72,9.24.78-.18-9.6-.3-10.5-.84-13.26-.06-.18-.06-.24-.06-.36s.06-.18.18-.18c.48,0,7.5,1.02,7.5,2.4,0,.54-.6,1.02-1.26,1.38-1.08.6-1.14.36-1.26,2.52-.12,1.92-.18,4.5-.24,7.56h.54c.18,0,.48-.18.66-.48,1.74-2.94,1.86-3.06,2.4-3.06.06,0,.18,0,.24.06,1.32.6,2.76,2.22,3.54,3.78,0,.06.06.06.06.12,1.62-2.46,5.82-9.18,6.36-12.96.06-.42.06-.54.24-.54.66,0,5.94,2.34,5.94,3.48,0,.48-.72.9-1.74.96-.9.06-1.08.24-3.24,3.48l.36.12.3.18h6.06c.6-2.04,1.14-4.62,1.14-7.86,0-.36,0-.48.18-.48.24,0,6.36,1.86,6.36,3.18,0,.48-.6.96-1.74,1.08-.54.06-.72.3-1.02.66-1.08,1.26-2.1,2.46-3.18,3.42h6.72c.24,0,.54-.18.72-.48.66-1.2,2.22-2.88,2.76-2.88.66,0,4.8,2.76,4.8,4.14,0,.36-.24.66-1.14.66h-11.34c.72.36.78.36.78.6,0,.3-.42.66-1.2.96-.36.12-.48,1.02-.48,1.62,0,.42-.06.84-.06,1.26h3.54c.24,0,.6-.24.78-.48.84-1.2,1.98-2.22,2.34-2.22.78,0,4.38,2.28,4.38,3.48,0,.3-.24.6-1.14.6h-9.96c0,1.32-.06,2.7-.06,4.14h3.66c.24,0,.6-.18.78-.48.6-.84,1.32-1.5,1.92-1.98.12-.12.3-.18.48-.18.78,0,4.32,2.16,4.32,3.42,0,.36-.24.66-1.14.66h-10.02c0,1.74.06,3.42.06,4.86h6c.24,0,.6-.18.78-.48.06-.06,1.98-2.88,2.82-2.88s4.92,2.64,4.92,4.08c0,.36-.24.66-1.14.66h-24.24Zm10.98,25.2c-.66,0-1.02-.36-1.26-.84-.78-1.62-5.88-4.14-5.88-4.44h.06c.06,0,.24,0,.54.12,2.46.78,4.8,1.2,6.84,1.2,2.52,0,4.56-.72,5.7-2.34,1.68-2.4,2.22-6.42,2.22-6.54,0-.36-.24-.6-.54-.6h-5.4l-.72,2.34c-.42,1.2-1.56,1.74-2.58,1.74-.96,0-1.8-.48-1.8-1.32,0-.24.06-.48.18-.78,1.14-2.58,2.46-6.66,2.46-7.5,0-.24-.18-.36-.48-.36h-6.24c1.68.36,2.16.54,2.16.9,0,.24-.24.54-.66.72-.66.24-.78.06-1.2,1.74-4.08,16.08-20.1,16.32-21.06,16.32-.42,0-.6-.06-.6-.18s.54-.36,1.2-.54c10.26-2.52,16.44-10.92,16.44-18.9-2.52.06-5.04.18-7.62.42h-.06c-.9,0-2.52-2.04-2.52-2.82,5.7.72,12.6.84,14.7.84h5.16c.3,0,.66-.18.9-.48.36-.36.9-1.02,1.26-1.26.18-.18.3-.24.48-.24.54,0,4.62,2.1,4.62,3.48,0,.6-.78.9-1.38,1.14-1.38.48-1.44.48-2.22,3.18h4.68c.42,0,.84-.12,1.02-.36.72-.9,1.56-1.32,1.68-1.32,1.02,0,4.26,2.22,4.26,3.12,0,.54-.48.96-1.38,1.44-.48.24-.9.3-1.02.96-1.2,5.22-3,11.16-11.22,11.16h-.72Zm-3.72-37.02h-7.26c-.06,1.32-.06,2.7-.06,4.14h7.32v-4.14Zm-7.32,5.58c0,1.74.06,3.42.06,4.86h7.14c.06-1.2.12-3,.12-4.86h-7.32Zm1.62-11.4l-.66.36c-.36.12-.84.54-.84,4.08h7.2c0-1.44-.06-3-.3-4.44h-5.4Z" fill="#003383"/>
      <path d="m78.96,198.18c6.12-6.3,12.18-8.82,17.34-8.82,7.98,0,13.74,6,13.74,11.94,0,12.9-19.32,18.96-22.62,18.96-.18,0-.3-.06-.3-.12,0-.18.72-.54,2.22-1.2,5.46-2.34,15.78-8.94,15.78-17.4,0-6.6-6.24-9.36-10.8-9.36-7.44,0-12.54,5.1-15.9,8.46-.24,3.18-.24,5.28-.24,5.52,0,3.48.54,7.14,1.26,10.08.18.78.24,1.44.24,2.04,0,1.92-.78,2.94-1.74,2.94-1.14,0-2.46-1.5-2.76-4.74-.18-2.28-1.44-5.58-2.58-7.98-1.26,2.76-1.86,4.68-2.34,6.06-1.02,2.82-2.88,4.32-4.08,4.32-.72,0-1.26-.48-1.26-1.56,0-1.14.6-3.72,6.18-11.76-1.2-2.22-2.64-4.2-3.54-5.1-.96-.96-1.44-1.8-1.44-2.58s.54-1.38,1.56-1.86c1.38-.6,2.4-1.44,3.18-2.22,2.1-2.16,4.68-4.08,7.14-5.64.06-.96.12-1.86.12-2.7.06-1.14.06-2.1.06-2.94,0-4.68-.9-5.94-3.78-7.8-.54-.3-.78-.48-.78-.72,0,0,.78-1.08,2.34-1.08.84,0,5.34.42,5.34,6.12,0,1.14-.78,6.72-1.02,7.92h.42c2.46,0,3.36.66,3.36,1.68,0,1.26-1.32,3.12-2.64,4.92-.84,1.08-1.74,2.46-2.7,4.02l-.12.96.36-.36Zm-6.36,5.28c1.5-1.92,3.18-4.44,4.56-6.78.24-2.1.42-4.2.6-6.06-1.8,1.26-3.36,3.3-4.38,5.58-.84,1.8-1.62,2.34-3.54,2.64-.54.06-.72.24-.72.54,0,.54.78,1.92,2.64,5.22l.84-1.14Zm.66,3.66c1.86,3.24,2.22,3.6,2.52,3.6.12,0,.24-.12.24-.48,0-2.58.3-5.22.54-7.74-1.02,1.32-2.04,2.64-3,3.96l-.3.66Zm6.06-14.16c1.08-1.98,1.08-2.46,1.08-2.52,0-.42-.12-.72-.54-.78l-.54,3.3Z" fill="#003383"/>
      <path d="m154.56,205.02c0,3.66,1.98,5.52,4.86,5.52,2.64,0,6.06-1.62,9.24-4.8,1.5-1.5,2.22-2.04,2.52-2.04.06,0,.12,0,.12.12,0,.96-5.52,10.92-13.98,10.92-4.08,0-7.26-2.76-7.26-8.76,0-.6,0-1.2.06-1.8.36-4.02,2.4-7.98,3.3-12.18.24-1.26.42-2.4.42-3.36,0-3.06-1.32-4.74-3.72-4.74-2.88,0-9.84,2.94-16.86,11.82-.42,3.9-.6,5.52-.6,8.46,0,3.66.36,7.32,1.44,10.5.36,1.08.48,1.98.48,2.76,0,1.86-.84,2.88-1.86,2.88-1.38,0-3.06-1.8-3.12-5.4-.06-1.5-1.38-5.46-2.4-8.46-.6,1.56-1.08,3.24-1.44,4.86-.66,3.06-2.64,4.86-4.02,4.86-.72,0-1.32-.54-1.32-1.8,0-2.64,1.74-5.82,5.4-11.64-1.08-2.46-2.1-4.92-3.36-7.26-.48-.9-.66-1.74-.66-2.46,0-1.02.42-1.92,1.2-2.52,2.34-1.8,7.98-3.36,9.12-3.6l.06-.48c.18-1.68.42-3.66.42-5.52,0-5.28-2.04-6.36-3.3-6.6-1.14-.24-1.68-.6-1.68-1.02,0-.48,1.38-1.38,2.76-1.38,2.76,0,5.64,3.36,5.64,6.66,0,1.2-.24,2.58-.6,4.26-.3,1.32-.6,2.58-.78,3.72h.06c1.86.12,2.52.84,2.52,1.8,0,.3-.06.72-.24,1.08,3.18-3,8.64-7.62,13.98-7.62,3.9,0,6.48,2.7,6.48,7.74,0,.84-.06,1.68-.18,2.58-.66,4.32-2.52,8.46-2.7,12.48v.42Zm-22.92-13.98c-.12-.06-.3-.06-.36-.06-1.5,0-5.1.96-6.3,1.92-.54.42-.72.96-.72,1.62,0,.3.12,2.64,2.28,7.08,1.32-1.86,3.9-6.36,4.98-9.06l.12-1.5Zm-3.72,13.56c.12.24,1.86,3.66,2.28,3.66.12,0,.18-.3.18-.96,0-2.22.18-5.22.48-8.28-1.32,1.86-1.8,2.76-2.94,5.58Z" fill="#003383"/>
      <path d="m189.6,196.74c.06,0,.12-.06.3-.18,2.7-1.74,6.06-2.7,9.42-2.7,7.74,0,12.48,5.4,12.48,11.22s-5.52,13.68-16.56,13.68c-5.82,0-9.72-2.88-9.72-6.12,0-2.88,3-4.5,5.88-4.5,3.96,0,6.42,3.06,6.42,6.18,0,.48-.06,1.02-.18,1.5,6.96-1.68,9.66-6.48,9.66-10.68,0-4.74-3.36-9-9.42-9-2.1,0-9.06.54-13.08,9.06-1.44,3.12-2.4,4.98-4.44,4.98-1.08,0-1.92-.84-1.92-2.04,0-1.74,2.22-4.32,4.98-7.5,3.6-4.14,12.06-15.54,14.58-19.68.3-.42.42-.84.42-1.14,0-.42-.24-1.02-1.5-1.02-2.82,0-4.14,5.76-8.16,5.76-2.22,0-4.02-1.44-4.02-3.66,0-.66.12-1.2.54-1.2.3,0,.66.12,1.14.3.48.18.96.24,1.44.24.84,0,1.68-.24,2.46-.84,2.34-1.62,5.1-3.6,8.28-3.6,3.54,0,5.7,2.46,5.7,3.78,0,1.2-1.32,2.28-2.58,3.24-4.32,3.3-12.12,13.74-12.12,13.86v.06Zm4.62,17.34c0-2.1-1.62-3.9-3.84-3.9-2.64,0-2.7,1.98-2.7,2.28,0,.24,0,3.06,6,3.66.36-.66.54-1.38.54-2.04Z" fill="#003383"/>
      <path d="m275.04,203.94c0,.42-.3.78-1.32.78h-31.44c-3.3,0-12.06.06-17.34.6h-.06c-1.08,0-2.88-2.28-2.88-3,6.06.72,16.92.9,20.34.9-.48-.36-.9-.9-1.14-1.74-.42-1.38-1.56-3.3-2.52-4.38-.3-.3-.42-.48-.42-.6,0-.06.12-.06.3-.06,4.5,0,7.44,2.34,7.44,4.56,0,.96-.48,1.8-1.2,2.22h5.94c.9-1.8,1.92-4.26,2.22-7.08.06-.48,0-.6.18-.6,1.02,0,6.3,3,6.3,3.9,0,.42-.48.66-1.38.66h-.6c-.54,0-.84.3-1.38.72-.54.42-2.28,1.56-3.6,2.4h12.36c.36,0,.72-.18.9-.48,2.58-3.3,2.82-3.48,3.3-3.48.18,0,.42,0,.54.06,1.98.72,5.46,3.36,5.46,4.62Zm-1.26-28.68c0,.36-.24.72-1.26.72h-21.9v4.86h7.26c.36,0,.78-.18.96-.48.72-1.08,2.64-3.36,3.3-3.36,1.5,0,5.52,3.3,5.52,4.62,0,.36-.24.72-1.2.72h-19.08c-3.24,0-10.02.06-15.18.6h-.06c-1.08,0-2.82-2.28-2.82-3,5.28.66,12.9.84,16.92.9v-4.86h-2.58c-3.24,0-11.88.06-17.04.6h-.06c-1.08,0-2.82-2.28-2.82-3,5.94.72,16.86.96,20.22.96h2.28c-.06-2.52-.06-3.66-.72-6.24-.06-.24-.12-.36-.12-.42s.06-.12.12-.12c.54,0,7.74.9,7.74,2.28,0,.42-.42.9-1.14,1.32-1.08.6-1.38.24-1.44,2.4,0,.24-.06.54-.06.78h12.78c.36,0,.78-.24.96-.54.96-1.32,2.76-3.78,3.54-3.78,1.38,0,5.88,3.66,5.88,5.04Zm-7.62,35.1c0,.48-.54.9-1.32,1.32-.96.54-1.2.72-1.2,2.28,0,1.32.3,3.9.42,5.7v.12c0,1.5-1.8,1.98-2.76,1.98-1.08,0-2.04-.48-2.04-1.62v-1.92h-22.2c0,.78.06,1.5.06,1.98v.06c0,1.32-1.74,1.86-2.88,1.86-1.08,0-2.1-.48-2.1-1.56v-.24c.3-2.4.54-6.42.54-7.74,0-.72-.18-3.9-.66-5.58-.06-.18-.06-.24-.06-.3q0-.12.06-.12c.12,0,3.48.78,6.3,2.52h.12s.06,0,.06.06h19.56c.3,0,.54,0,.78-.3.42-.48,1.02-1.26,1.44-1.62.24-.18.48-.3.78-.3,1.02,0,5.1,2.4,5.1,3.42Zm-1.26-22.62c0,.48-.54.84-1.26,1.26-1.14.66-1.14.96-1.14,2.1s.3,2.46.36,3.84v.06c0,1.2-1.32,2.04-2.64,2.04-1.02,0-1.98-.48-1.98-1.62v-.72h-20.28c0,.36.06.72.06,1.02v.06c0,.78-.9,1.86-2.7,1.86-1.08,0-2.04-.48-2.04-1.56v-.24c.3-2.4.42-4.86.42-6.18,0-.72-.18-3.48-.6-5.16-.06-.18-.06-.24-.06-.3,0-.12.06-.18.12-.18.3,0,4.32,1.32,6,2.4h.12s.06,0,.06.06h17.76c.3,0,.54-.06.78-.36.42-.48.9-1.08,1.32-1.44.24-.18.42-.3.72-.3.54,0,4.98,1.98,4.98,3.36Zm-5.64,23.52c0-.36-.3-.6-.78-.6h-20.22c-.12.12-.3.24-.54.36-.66.36-.78.54-.78,3.12,0,.78.06,1.68.06,2.58h22.32c0-1.98,0-4.2-.06-5.46Zm-.96-22.68c0-.36-.36-.6-.78-.6h-18.42c-.12.12-.3.18-.48.3-.54.36-.78.54-.78,3,0,.6.06,1.26.06,1.98h20.4v-4.68Z" fill="#003383"/>
      <path d="m317.16,178.68c0,5.76,3.06,12.66,9.42,16.14,1.68.9,2.34,2.22,2.34,3.36,0,1.26-.84,2.28-2.22,2.28-3.6,0-8.88-7.74-10.5-14.46-.06-.3-.12-.36-.18-.36s-.12.3-.12.66c0,.72.06,1.62.06,2.64,0,11.82-1.32,18.66-5.28,23.22-3.6,4.08-8.64,6.84-13.26,6.84-9.9,0-11.34-11.28-11.34-14.46,0-4.68,1.62-9.12,3.54-13.44,1.68-3.78,3.84-7.08,4.86-9,.06-.12.06-.18.06-.24s0-.06-.06-.06c-.12,0-.24.06-.36.12-1.44.72-2.7,1.02-3.72,1.02-2.28,0-3.36-1.5-3.36-3,0-1.38.9-2.52,1.44-2.52.24,0,.42.48.72.78.42.48,1.32.66,2.46.66,1.56,0,4.62-.84,5.58-1.5,1.62-1.02,3.06-1.5,4.38-1.5,2.28,0,3.48,1.38,3.48,2.28,0,.72-.6,1.44-1.98,1.62-.66.12-2.1.42-3,.84-3.42,1.44-10.56,13.02-10.56,22.56,0,6.12,2.76,11.16,8.52,11.16,3.6,0,7.5-1.92,10.32-4.62,2.7-2.52,4.02-5.7,4.8-9.54.72-3.78,1.26-14.16,1.26-15.24,0-3-1.38-6.18-1.38-9.06,0-3.78,1.5-3.96,2.04-3.96,1.08,0,2.16,1.5,2.16,3.12,0,1.14-.12,2.22-.12,3.3v.36Zm7.56,2.1c-1.44-1.86-3.36-3.42-4.86-4.38-.48-.3-.96-.54-.96-.72,0-.3,1.8-.3,1.92-.3,2.7,0,7.38,1.2,7.38,4.32,0,1.2-.84,2.04-1.8,2.04-.54,0-1.14-.24-1.68-.96Zm5.7-3.66c-1.62-1.74-3.54-3.12-5.16-3.9-.54-.24-1.02-.48-1.02-.66,0-.42,1.8-.54,2.7-.54,3,0,6.84,1.2,6.84,3.96,0,1.14-.72,1.98-1.74,1.98-.48,0-1.08-.24-1.62-.84Z" fill="#003383"/>
    </g>
  </g>
</svg>