<?xml version="1.0" encoding="utf-8"?>
<!-- Generator: Adobe Illustrator 27.1.1, SVG Export Plug-In . SVG Version: 6.00 Build 0)  -->
<svg version="1.1" id="_レイヤー_2" xmlns="http://www.w3.org/2000/svg" xmlns:xlink="http://www.w3.org/1999/xlink" x="0px"
	 y="0px" viewBox="0 0 541.9 222.5" style="enable-background:new 0 0 541.9 222.5;" xml:space="preserve">
<g id="_デザイン">
	<g>
		<path d="M14,13.5c-2.4,0-6.5,0.1-10.3,0.5H3.7c-0.8,0-2.5-2.2-2.5-2.9c4.6,0.7,10.4,0.8,13,0.8H17c0.2,0,0.6-0.2,0.8-0.5
			c0.1-0.1,2-3.4,2.9-3.4c1.4,0,5,3.5,5,4.8c0,0.3-0.2,0.6-1.1,0.6C24.6,13.5,14,13.5,14,13.5z M21.9,50.5c0,1.1-1,2.2-2.6,2.2
			c-1,0-1.9-0.5-1.9-1.8v-1.4H9.6V52c0,1.3-1.4,2-2.6,2c-1,0-2-0.5-2-1.7V52c0.4-4.5,0.4-7.5,0.4-10c0-4.5-0.4-7.7-0.7-9.1
			c0-0.1-0.1-0.2-0.1-0.3c0-0.1,0.1-0.2,0.1-0.2c0.5,0,4.8,1.8,6,2.6l0.1,0.1h5.3c0.2,0,0.5-0.1,0.8-0.5s1.4-1.9,2-1.9
			c0.3,0,4.9,2,4.9,3.5c0,0.5-0.6,1-1.3,1.4c-1.1,0.7-1.1,1.1-1.1,3.1c0,2.3,0.2,5.8,0.4,9.4C21.9,50.3,21.9,50.5,21.9,50.5z
			 M13.9,5.2c-1.9,0-3.8,0.1-6.6,0.5H7.3c-0.8,0-2.3-2-2.3-2.9c3.5,0.7,6.9,0.8,8.8,0.8h1c0.1,0,0.4-0.2,0.6-0.5
			c0.5-1,2-3.2,2.7-3.2c0.1,0,0.2,0,0.3,0.1c0.8,0.4,4.3,2.8,4.3,4.3c0,0.4-0.2,0.8-1.1,0.8C21.5,5.2,13.9,5.2,13.9,5.2z M13.9,21
			c-1.9,0-3.8,0.1-6.6,0.5H7.3c-0.7,0-2.3-1.9-2.3-2.9c3.5,0.7,6.9,0.8,8.8,0.8h1.1c0.1,0,0.5-0.2,0.7-0.5c0.5-0.8,1.9-3,2.7-3
			c0.1,0,0.2,0,0.2,0.1c0.7,0.3,4.2,2.8,4.2,4.1c0,0.4-0.2,0.8-1.1,0.8C21.5,21,13.9,21,13.9,21z M13.9,28.9c-1.9,0-3.8,0.1-6.6,0.5
			H7.3c-0.8,0-2.3-2-2.3-2.9c3.5,0.7,7,0.8,8.9,0.8h1c0.1,0,0.5-0.2,0.7-0.5s1.9-3,2.6-3c0.2,0,0.3,0,0.4,0.1
			c1.5,0.7,4.1,3.1,4.1,4.1c0,0.4-0.2,0.8-1.1,0.8C21.5,28.9,13.9,28.9,13.9,28.9z M17.4,47.9c0.1-2.6,0.1-4.8,0.1-6.8
			c0-1.3-0.1-2.5-0.1-3.6c0-0.4-0.2-0.8-0.7-0.8h-6l-0.5,0.4c-0.7,0.4-0.7,0.5-0.7,1.7c-0.1,1.7-0.1,3.5-0.1,5.3
			c0,1.3,0.1,2.6,0.1,3.8C9.5,47.9,17.4,47.9,17.4,47.9z M50.3,51c0,1.4-1.6,2.1-2.6,2.1s-2-0.5-2-1.8v-2.5H33.1v2.6
			c0,1.1-1,2.1-2.8,2.1c-1,0-2-0.5-2-1.7v-0.2c0.5-5.5,0.5-11.8,0.5-14.6c0-0.8-0.1-5-0.6-7.2c-0.1-0.2-0.1-0.3-0.1-0.4
			s0.1-0.1,0.1-0.1c0.2,0,4.3,1.4,6,2.6h0.1c0,0,0.1,0,0.1,0.1h2.8c0.1-2.6,0.1-7.1,0.1-11.2c-2.9,0.1-7.6,0.2-11.3,0.5H26
			c-0.8,0-2.5-2.2-2.5-2.9c4.6,0.5,10.4,0.8,13.8,0.8c0-2.8-0.1-5.2-0.1-6.3c-0.1-1.5-0.1-3.4-0.2-4.6c-3.8,0.3-7.7,0.5-11,0.5
			c-1,0-1.4-0.2-1.4-0.4S25.1,8.1,26,8c0.4-0.1,17.9-2.8,21.5-6.5c0.1-0.1,0.2-0.2,0.3-0.2c0.1,0,0.1,0.1,0.2,0.1
			c0,0,3.8,3.6,3.8,5.1c0,0.4-0.2,0.7-0.8,0.7c-0.4,0-0.8-0.1-1.5-0.4c-0.2-0.1-0.5-0.1-0.8-0.1h-0.3c-1.7,0.4-3.8,0.8-6.2,1.1
			l0.4,0.1c0.6,0.2,0.8,0.5,0.8,0.8c0,0.4-0.4,0.8-0.8,1c-1,0.4-1.1,0.5-1.2,2s-0.1,4.4-0.1,7.6h4.9c0.3,0,0.7-0.2,0.9-0.5
			c1.6-2.5,2.7-3.8,3.2-3.8c0.1,0,0.2,0.1,0.4,0.1c0.9,0.3,5.3,3.5,5.3,5.1c0,0.4-0.3,0.7-1.3,0.7H41.5c0,4.1,0,8.5,0.1,11.2h2.9
			c0.2,0,0.5-0.1,0.8-0.4c1.3-1.7,1.7-2,2.1-2c1.1,0,5,2.5,5,3.7c0,0.5-0.5,1-1.3,1.4c-1,0.5-1.2,0.7-1.2,3.9s0.2,8.9,0.5,12.4
			C50.3,50.8,50.3,51,50.3,51z M45.7,47.2c0.1-2.5,0.1-5,0.1-7.2s0-4.3-0.1-5.7c0-0.4-0.2-0.8-0.8-0.8H34.3L34,33.8
			c-0.7,0.5-0.8,0.4-0.8,1.9c-0.1,1.7-0.1,4-0.1,6.4c0,1.7,0.1,3.5,0.1,5.1C33.1,47.2,45.7,47.2,45.7,47.2z"/>
		<path d="M117.6,45.3c0.1,0,0.2,0.1,0.2,0.1c0,0.5-4,3.4-4.9,5.4c-0.2,0.6-0.7,1-1.4,1.1c-2.3,0.2-8.2,0.8-14.3,0.8
			c-7.3,0-22.1-0.2-27.2-13.8c-2.6,10-8.4,15.1-9.8,15.1c-0.1,0-0.1-0.1-0.1-0.1c0-0.2,0.2-0.6,0.7-1.1C65,48,67,37.6,67,33.7
			c0-0.7,0-1.3-0.1-2.1c0-0.1-0.1-0.2-0.1-0.4c0-0.1,0.1-0.1,0.4-0.1c1.4,0,5.9,0.8,5.9,1.9c0,0.3-0.4,0.6-1.1,0.9
			c-0.8,0.4-1,0.2-1.3,1.9c-0.1,0.5-0.1,1-0.2,1.6c0.8,2.1,2.2,4,4,5.6c0.1-1.7,0.1-4.2,0.1-6.4c0-1.5,0-6.7-0.2-8.8h-0.6
			c-1.6,0-4.9,0.1-8.8,0.5h-0.1c-0.9,0-2.5-2.1-2.5-2.8c4.9,0.8,9.8,0.8,11.4,0.8h7.6c0.2,0,0.5-0.2,0.7-0.5
			c0.6-0.9,1.5-1.9,2.2-2.5c0.2-0.1,0.4-0.2,0.5-0.2c0.1,0,0.2,0.1,0.3,0.1c1.7,0.7,4.2,2.7,4.2,3.8c0,0.4-0.2,0.8-1.1,0.8h-8.8
			c0.3,0.1,0.4,0.3,0.4,0.5c0,0.3-0.3,0.6-0.8,0.8c-0.8,0.3-0.8,0.5-0.8,6.3h2.3c0.2,0,0.5-0.2,0.7-0.5c0.5-1,1.4-2.2,1.9-2.8
			c0.1-0.1,0.2-0.2,0.4-0.2c0.1,0,0.2,0,0.2,0.1c1.4,0.7,3.9,2.9,3.9,4.3c0,0.4-0.2,0.7-1,0.7h-8.4v8.6l1.1,0.5l0.4-0.1
			c4-1.1,14.2-5.2,16.4-10c0.1-0.2,0.2-0.4,0.3-0.4c0.8,0,4.8,3.3,4.8,3.9c0,0.4-0.5,0.7-1.5,0.7h-0.6c-0.4,0-0.8,0.1-1.2,0.3
			C92.6,44,86,45.9,80.8,46.6c3.2,1.3,7.4,1.9,13,1.9c7.4,0,16.3-1.1,23.2-3C117.3,45.4,117.5,45.3,117.6,45.3L117.6,45.3z
			 M87.5,5.3c0,0.5-0.5,1-1.3,1.4c-0.8,0.5-1,0.5-1,4c0,2.8,0.2,5.7,0.4,9.4v0.1c0,1.3-0.9,2.4-2.5,2.4c-1,0-1.8-0.6-1.8-1.9V20
			H70.8v1.3c0,1.3-1.4,2.2-2.6,2.2c-1,0-1.8-0.5-1.8-1.7v-0.2c0.4-4.9,0.4-7.9,0.4-10.4c0-5.6-0.5-8.7-0.7-9.2
			c0-0.2-0.1-0.2-0.1-0.4s0.1-0.2,0.2-0.2s3.9,1.4,5.6,2.7L72,4.1h8.2c0.4,0,0.7-0.3,0.8-0.5c1-1.5,1.4-1.9,1.9-1.9
			C83.3,1.7,87.5,3.8,87.5,5.3L87.5,5.3z M81.4,6.5c0-0.4-0.2-0.8-0.9-0.8h-8.6L71.6,6c-0.8,0.6-0.8,1-0.8,5.1h10.7
			C81.5,9.5,81.5,8,81.4,6.5z M70.7,12.7v5.8h10.7c0.1-2.2,0.1-4.1,0.1-5.8H70.7z M115.5,5.3c0,0.4-0.3,0.7-1.2,0.7h-11.1
			c2.1,0.6,2.1,0.8,2.1,1.1c0,0.4-0.5,0.7-1.6,0.9c-0.7,0.1-1,0.5-1.2,0.8c-0.8,1.2-1.8,2.5-2.7,3.5h5.6c0.2,0,0.5-0.1,0.7-0.4
			c1.4-1.6,1.6-1.7,1.9-1.7c1.1,0,4.9,2.3,4.9,3.4c0,0.5-0.5,0.9-1.3,1.3c-1.2,0.7-1,0.9-1,2c0,0.7-0.1,1.5-0.1,2.5
			c0,3.9,0.2,10.1,0.5,14.6V34c0,1.7-1.7,2.2-2.7,2.2s-1.9-0.5-1.9-1.7v-0.1l0.1-0.6H95.8l0.1,0.5v0.1c0,1.2-1.3,1.9-2.6,1.9
			c-1,0-1.9-0.5-1.9-1.7v-0.2c0.4-4.6,0.5-9.5,0.5-13.1c0-1.7-0.1-3-0.1-3.9c0-0.7-0.2-5-0.7-7.4c-0.1-0.2-0.1-0.2-0.1-0.4
			c0,0,0-0.1,0.1-0.1c0.5,0,4.5,1.6,5.9,2.6h1.1c0.4-2.1,0.6-5.2,0.6-5.7V6c-2.6,0.1-5.5,0.2-8.2,0.5h-0.1c-0.9,0-2.5-2.1-2.5-2.8
			c5.2,0.7,12.4,0.8,15.4,0.8h3.1c0.2,0,0.6-0.2,0.8-0.5c0.2-0.4,2.3-3.4,3-3.4c0.1,0,0.2,0.1,0.4,0.1
			C112.4,1.4,115.5,4.1,115.5,5.3L115.5,5.3z M95.8,20.5c0,1.5-0.1,3.1-0.1,4.9h11c0-1.7,0.1-3.4,0.1-4.9
			C106.8,20.5,95.8,20.5,95.8,20.5z M95.8,26.8c0,1.9,0.1,3.7,0.1,5.5h10.9c0-1.8,0.1-3.7,0.1-5.5C106.7,26.8,95.8,26.8,95.8,26.8z
			 M106.7,14.5c0-0.3-0.3-0.7-0.7-0.7h-9.1c-0.1,0.1-0.3,0.2-0.5,0.3c-0.5,0.3-0.5,0.4-0.5,1.4c0,0.9-0.1,2.1-0.1,3.5h10.9
			C106.7,17.1,106.7,15.5,106.7,14.5z M114.6,42.5c0,1.4-1.1,2.5-2.3,2.5c-0.9,0-1.9-0.5-2.8-1.9c-1.8-2.8-4.6-4.7-7.1-6.3
			c-0.3-0.2-0.5-0.4-0.5-0.4s0.2-0.1,0.5-0.1C102.8,36.3,114.6,37.4,114.6,42.5z"/>
		<path d="M147.7,10.7c-0.7,0-1.3,0.1-2,0.1c1.5,1.2,2.5,4.3,2.5,8.2c0,12.5-10,26.3-15.7,26.3c-3.2,0-4.4-4.3-6.7-7.7
			c-1-1.4-1.4-3.4-1.4-5.6c0-9.1,7.8-23.5,24.2-23.5c13.7,0,21,9.4,21,19.3c0,5.4-2.2,11-6.7,15.2c-7.7,7.2-19.1,8-19.6,8
			c-0.6,0-0.8-0.1-0.8-0.2c0-0.3,0.9-0.7,2.7-1.2c10.5-2.9,19.9-10.4,19.9-22.1c0-8.9-6.3-16.9-17.1-16.9H147.7z M142.3,11.5
			c-9.2,2.7-14.6,11.3-14.6,18.8c0,5.3,2.7,9.3,5.3,9.3c4.1,0,12.7-12.5,12.7-23.2c0-2.7-0.4-5.2-2.2-5.2c-0.2,0-0.4,0-0.5,0.1
			s-0.4,0.1-0.5,0.1C142.5,11.4,142.3,11.5,142.3,11.5z"/>
		<path d="M203.3,13.7c0,0.4-0.4,0.8-1.4,1.3c-0.9,0.5-1.2,0.4-1.4,2.2c-4.1,30.1-24.4,36.1-24.5,36.1c-0.1,0-0.1-0.1-0.1-0.1
			c0-0.2,0.5-0.8,1.3-1.3c14.2-9.4,17.9-29.9,17.9-37.7c0-1.1-0.1-2-0.2-3.2v-0.2c0-0.1,0-0.1,0.1-0.1
			C196.1,10.7,203.3,12.3,203.3,13.7z M234.2,48c0,0.7-6.5,0.7-8.3,2.5c-0.2,0.2-0.6,0.4-1,0.4c-0.2,0-0.5-0.1-0.7-0.2
			c-8.1-6.5-14.9-19.4-15.1-43.2c0-0.7-0.6-1.2-1.2-1.2h-1.3c-1.7,0-5.6,0.2-9,0.7h-0.1c-0.8,0-2.8-2.5-2.8-3.2
			c4.4,0.7,9.9,1,11.7,1h1.6c0.4,0,0.7-0.2,1-0.5c1-1.3,1.7-2,2.2-2c0.3,0,4.6,2.2,4.6,3.8c0,0.7-0.7,1.1-1.6,1.4
			c-1.9,0.6-3.5,0.5-3.5,1.5v0.1c1.9,20.3,9.2,33.2,23,38.8C234.1,47.8,234.2,47.9,234.2,48L234.2,48z"/>
		<path d="M291.7,50.7c0,0.4-0.2,0.8-1.3,0.8H258c-3.2,0-12.1,0.1-17.2,0.7h-0.1c-1.1,0-2.9-2.3-2.9-3.1c5.9,0.7,17.1,0.9,20.5,0.9
			h3.7c0.1-1.8,0.1-3.7,0.1-5.8h-1.4c-3.2,0-8.9,0.1-14,0.6h-0.1c-1.1,0-2.9-2.3-2.9-3c5.9,0.7,13.9,0.9,17.3,0.9h1.1
			c0-2.1,0.1-4.3,0.1-6.4H253v1.3c0,1.3-1.4,2.1-2.8,2.1c-1,0-2-0.5-2-1.8v-0.2c0.4-4.7,0.5-8.2,0.5-11c0-5-0.5-8.4-0.8-9.5
			c-0.1-0.2-0.1-0.3-0.1-0.4c0-0.1,0.1-0.2,0.1-0.2c0.7,0,4.9,1.8,6.2,2.8l0.2,0.2h7.7c0-2.2-0.1-4-0.1-5.5h-3.6
			c-3.2,0-11.8,0.1-17,0.7h-0.1c-1.1,0-2.9-2.3-2.9-3.1c5.9,0.7,16.9,0.9,20.2,0.9h3.3V12c-0.1-1.6-0.1-3.2-0.3-4.7
			c-4.7,0.4-9.7,0.5-14,0.5c-5,0-5.7-0.2-5.7-0.5c0-0.2,0.4-0.4,1.3-0.4c7.9-0.5,22.1-2.7,29.3-5.1c1.3-0.4,2.2-1,2.9-1.4
			c0.3-0.2,0.4-0.3,0.5-0.3c0.6,0,4.5,4,4.5,5.3c0,0.5-0.4,0.7-1,0.7c-0.4,0-0.8-0.1-1.3-0.2c-0.3-0.1-0.7-0.2-1.1-0.2h-0.2
			c-2.3,0.4-5.5,0.8-8.9,1.2c0.4,0.2,0.5,0.4,0.5,0.7c0,0.4-0.4,0.7-1,1c-0.8,0.4-1,0.5-1,2.4c0,0.4-0.1,1-0.1,1.7h14.1
			c0.4,0,0.8-0.2,1-0.5c1.6-2.3,2.8-3.8,3.4-3.8c1.3,0,5.9,3.6,5.9,5.1c0,0.4-0.2,0.8-1.3,0.8h-23.2c0,1.6-0.1,3.4-0.1,5.5h8.8
			c0.4,0,0.7-0.2,0.8-0.5c0.4-0.5,1.1-1.3,1.4-1.6c0.2-0.2,0.4-0.3,0.7-0.3c0.9,0,5.2,2.7,5.2,3.8c0,0.5-0.7,1-1.6,1.4
			c-1.1,0.5-1.1,0.7-1.1,3.8c0,2.7,0.2,5.8,0.5,9.2v0.1c0,1.4-1.4,2.3-2.7,2.3c-1,0-1.9-0.5-2-1.7h-10.1v6.4h9.3
			c0.4,0,0.8-0.2,1-0.5c1.3-1.7,2.8-3.5,3.2-3.5c1.7,0,5.7,3.5,5.7,4.8c0,0.4-0.2,0.8-1.3,0.8h-18c0,2.2,0.1,4.1,0.1,5.8h14.9
			c0.4,0,0.8-0.2,1-0.5c0.5-0.7,2.7-3.9,3.5-3.9C287.4,45.5,291.7,49.4,291.7,50.7L291.7,50.7z M262.2,21.1h-7.8
			c-0.2,0.1-0.4,0.3-0.6,0.4c-0.9,0.6-1,0.7-1,5.3h9.4L262.2,21.1L262.2,21.1z M262.2,28.3h-9.4c0,2,0.1,4.3,0.1,6.5h9.2V28.3z
			 M276.4,21.8c0-0.4-0.2-0.8-0.8-0.8h-9.2v5.7h10.2C276.5,25,276.5,23.4,276.4,21.8L276.4,21.8z M266.3,28.3v6.5h10.1
			c0.1-2.4,0.1-4.6,0.1-6.5H266.3L266.3,28.3z"/>
		<path d="M306.8,20c0,1.4-1.1,2.7-2.4,2.7c-0.7,0-1.6-0.4-2.3-1.4c-1-1.3-3.1-3.4-4.8-4.3c-0.5-0.3-0.7-0.5-0.7-0.6
			c0-0.4,3-0.4,3.1-0.4C306.3,16,306.8,19.1,306.8,20z M306.8,41.4c0,1.4,0.2,2.9,0.7,4.3c0.4,1,0.6,2,0.6,2.8
			c0,2.2-1.2,3.5-2.7,3.5c-1.4,0-2.8-1.3-2.8-4.3V47c0.1-1.7,0.5-3.5,0.5-5.1c0-2.3-0.8-4.3-4.6-5.2c-1-0.2-1.6-0.5-1.6-0.7
			s0.6-0.3,1.6-0.4c2.5-0.1,4.1-0.4,4.9-2.6c3.2-8.6,11.9-30.4,13.3-30.4c0.1,0,0.1,0.1,0.1,0.2c0,0.2-0.1,0.7-0.4,1.3
			C313.8,11.9,306.8,32.9,306.8,41.4z M311.2,7.7c0,1.6-1.1,2.8-2.5,2.8c-0.9,0-1.8-0.5-2.6-1.9c-0.8-1.4-2.6-3.7-4.3-5
			c-0.4-0.3-0.7-0.5-0.7-0.7c0-0.2,1.4-0.2,1.5-0.2C306.8,2.8,311.2,4.4,311.2,7.7z M330.2,23.8c0,1.7-1.2,2.9-2.3,2.9
			c-0.8,0-1.7-0.7-1.9-2.3c-0.2-1.7-1-3.8-2-5.3c-0.1,16.7-2,28.6-16.6,34.4c-1,0.4-1.7,0.6-2.1,0.6c-0.1,0-0.2,0-0.2-0.1
			c0-0.2,0.5-0.5,1.6-1.2c10.9-6.1,13.2-16.1,13.2-33.8c0-3.3-0.1-13.4-0.8-16.7C319,2.2,319,2,319,2c0-0.1,0.1-0.2,0.2-0.2
			c0.7,0,7.3,1.4,7.3,2.8c0,0.3-0.2,0.7-1,1c-1.3,0.7-1.6,0.6-1.6,2.5v0.8c0.1,3.2,0.1,6.2,0.1,9.1c0.1,0,0.1,0.1,0.2,0.1
			C326.5,18.8,330.2,20.8,330.2,23.8z M313.2,29c-1.1,0-2.1-0.8-2.1-2c0-0.7,0.4-1.6,1.1-2.4c2.2-2.3,3-5.3,3-7.9v-0.2
			c0-0.7,0.1-0.9,0.1-0.9c0.4,0,2,3.2,2,6.8C317.4,26.7,315.4,29,313.2,29z M342.1,23.9c0,1.7-1.3,2.9-2.4,2.9
			c-0.8,0-1.6-0.7-1.9-2.3c-0.3-1.8-1.2-4.2-2.3-5.7l-0.2-0.3v4c0,8.8,0.1,19,0.3,23.5V46c0,1.2-1.3,2.4-2.6,2.4
			c-1,0-1.9-0.6-1.9-2.1v-0.1c0.2-6.5,0.5-19.5,0.5-28.3c0-2.3,0-11.2-0.7-14.2c-0.1-0.2-0.1-0.3-0.1-0.4c0-0.1,0.1-0.2,0.2-0.2
			c1.3,0,7,1.4,7,2.6c0,0.4-0.3,0.8-0.9,1.1c-1.3,0.7-1.4,0.2-1.6,2.6c-0.1,1.9-0.2,5-0.2,8.5C335.8,18,342.1,19.9,342.1,23.9
			L342.1,23.9z M347.7,7.5c-0.2,2.6-0.2,7.4-0.2,13.1c0,10.1,0.2,22.9,0.4,30.2v0.1c0,1.4-1.5,2.4-2.8,2.4c-1.1,0-2-0.6-2-2.1v-0.1
			c0.2-8.1,0.5-22.5,0.5-32.5c0-7.3-0.1-14.5-0.7-16.9c-0.1-0.2-0.1-0.3-0.1-0.4s0-0.1,0.1-0.1c0.6,0,7.2,1.1,7.2,2.6
			c0,0.4-0.3,0.8-0.9,1.1C348,5.6,347.9,5.2,347.7,7.5z"/>
		<path d="M384.7,26.4c0,0.8-0.1,3.3-1.6,11c3.7-0.4,7.4-0.7,10.4-0.9c2.3-0.1,2.9-0.9,4.6-0.9c1,0,7.5,1.4,7.5,4c0,1-1,1.8-2.5,1.8
			c-0.4,0-0.7,0-1.1-0.1c-3.4-0.8-7.2-1.1-11-1.1c-7.6,0-15.2,1.2-20.3,2.3c-2,0.5-2.8,0.8-3.9,0.8c-2.8,0-7.9-2-7.9-5
			c0-0.8,0.2-1.1,0.5-1.1s0.9,0.3,1.6,0.6c1.9,0.9,4.5,1.3,6.2,1.3c0.3,0,0.8,0,12.2-1.3c0.4-2.4,0.6-6.2,0.6-8.7c0-1.9-0.2-5-1.4-6
			c-4.4,0.8-5.5,0.8-5.8,0.8c-3.4,0-5.9-1.4-5.9-3.6c0-0.6,0.2-1.6,0.7-1.6c0.3,0,0.7,0.3,1.2,0.7c1,0.7,2.6,1,4.5,1
			c5,0,11.9-1.9,13.1-2.2c2.2-0.7,2.9-1.9,5.1-1.9c2,0,5.3,1,5.3,2.6c0,1-1.1,2-3.2,2c-2.9,0.1-7.1,0.7-11.1,1.4
			C384.6,23.5,384.7,25.1,384.7,26.4z"/>
		<path d="M420.1,29.3c0-0.3,0.1-0.6,0.1-1c0.2-2.8,0.4-4.5,0.4-6.5c0-7.1-0.6-11-3.2-11.2c-0.8-0.1-1.5-0.3-1.5-0.8
			c0-0.4,1-1.7,3-1.7c1.2,0,6.5,1.9,6.5,4.2c0,0.4-0.2,0.8-0.4,1.3c-0.4,0.8-0.4,2.5-0.4,3.2c0,6.7,0.3,9.7,0.4,10.4
			c0.1,0.5,0.1,1,0.1,1.3c0,0.9-0.5,4.7-2.7,4.7C421.1,33.2,420.1,32,420.1,29.3L420.1,29.3z M416.2,53c-0.1,0-0.2-0.1-0.2-0.1
			c0-0.2,0.7-0.7,2.3-1.8c8.6-5.3,14.5-16.1,14.9-29.1c0.1-2.6,0-4.5,0.2-7.4c0.1-0.7,0.1-1.3,0.1-1.9c0-4.2-1.1-5.3-2.5-5.5
			c-0.7-0.1-1.4-0.3-1.4-0.8c0-0.3,0.8-1.7,2.8-1.7c2.6,0,7.3,3.1,7.3,4.8c0,0.7-0.5,1.4-0.8,2.3c-0.9,2.5-1.1,5-1.2,10.8
			C437.3,45.8,418,53,416.2,53L416.2,53z"/>
		<path d="M471,17.1c0.7,0,1.3,0.2,2.1,0.4c2,0.5,3.1,1.4,3.2,3.4c2-1.5,8.8-7,8.8-8.6c0-0.7-0.7-1-1.4-1c-2.8,0-11.5,1.1-18.2,3.3
			c-1.9,0.6-2.9,1.1-4.3,1.1c-1.1,0-7.9-1.7-7.9-5.6c0-0.6,0.2-1,0.7-1c0.3,0,0.7,0.2,1.1,0.6c1,0.9,3.1,1.3,5.5,1.3
			c1,0,2-0.1,3.1-0.2c5.8-0.6,13.3-1.7,18.5-2.1c2.2-0.2,2.3-1,3.2-1c1.6,0,7.7,3,7.7,5.6c0,1.6-3,1.9-4.2,2.6
			c-3.9,2.5-9.1,5.2-12.8,6.8c-1.6,9-11,23.8-24.1,27.8c-1.3,0.4-1.9,0.5-2.2,0.5c-0.1,0-0.2,0-0.2-0.1c0-0.2,0.7-0.6,1.8-1.3
			c11.3-6.4,19.4-21.8,19.4-27.7c0-1.7-0.7-2.4-1.7-2.4c-1.3,0-1.7-0.3-1.7-0.7c0-0.8,2-2,3.4-2L471,17.1L471,17.1z"/>
		<path d="M501.6,37.7c0-2.1,0.2-4.1,0.6-6.1c0.8-4.1,2-7.8,2.7-11.3c0.3-1.5,0.4-2.9,0.4-4.1c0-2.6-0.5-4.6-1.1-5.7
			c-0.4-0.7-0.8-1.2-0.8-1.5s0.3-0.4,1.2-0.4c1.9,0,5,2.6,5,7.1c0,2-0.7,4-1.7,6.5c-1.5,3.7-3.3,8.2-3.3,12.3c0,1.4,0.4,3.7,0.9,3.7
			c0.2,0,0.4-0.3,0.7-0.9c1.5-3.2,5.6-11.2,6.2-11.2c0.1,0,0.1,0.1,0.1,0.2c0,0.2-0.1,0.7-0.4,1.4c-0.8,2-4.1,10.6-4.1,15.7
			c0,1.3,0.2,2.3,0.4,3.2c0.1,0.4,0.2,0.8,0.2,1.2c0,1.5-0.9,2.4-1.9,2.4C502.6,50.3,501.6,40.6,501.6,37.7L501.6,37.7z M538.3,41.8
			c2.3,0,3.6,1.1,3.6,2.3c0,3.7-8.5,3.8-9.5,3.8c-10.3,0-13.6-5.3-13.6-8.3c0-0.4,0.1-0.6,0.2-0.6c0.3,0,0.7,0.4,1.3,1.2
			c1.2,1.7,5.2,2.9,9.7,2.9c1.2,0,2.4-0.1,3.6-0.2c1.4-0.2,2.4-1,4.4-1H538.3L538.3,41.8z M529.1,20.4c-9,0-9.5-5.4-9.5-5.8
			c0-0.2,0.1-0.2,0.2-0.2s0.6,0.2,1.1,0.5c1.7,1,3.9,1.4,6.1,1.4c1.7,0,3.4-0.2,5-0.6c0.8-0.2,1.4-0.6,2.2-0.7
			c0.4-0.1,0.8-0.1,1.1-0.1c1.9,0,3.1,1,3.1,2.1C538.6,19.9,532.1,20.4,529.1,20.4z"/>
		<path d="M30,116.5c0,0.4-0.3,0.7-1.3,0.7H18.4c0,1-0.1,2.2-0.1,3.4h0.1c7,0.4,8.9,2.9,8.9,4.8c0,1.2-0.9,2.2-2,2.2
			c-0.7,0-1.6-0.4-2.3-1.5c-1.4-2-3.2-3.7-4.7-4.8c0,4.7,0.1,10.2,0.4,14.1v0.1c0,1.4-1.4,2.1-2.5,2.1c-1,0-1.9-0.5-1.9-1.7v-0.2
			c0.2-3.8,0.4-8.6,0.4-12.8c-6.1,7.9-14.2,10.2-14.5,10.2c-0.1,0-0.2-0.1-0.2-0.1c0-0.2,0.3-0.4,1-0.8c5-3.1,11.5-10.7,13.2-14.9
			c-2.5,0-4.9,0.2-8.8,0.5H5.3c-1,0-2.5-2.2-2.5-2.9c4.9,0.6,8.8,0.8,11.9,0.8v-1.4c-0.1-1.6-0.1-3.7-0.5-5
			c-0.1-0.2-0.1-0.4-0.1-0.5c0-0.1,0.1-0.1,0.2-0.1c0.5,0,6.5,0.7,6.5,2c0,0.4-0.4,0.8-1,1.1c-1,0.5-1.2,0.3-1.3,1.9l-0.1,2h3.5
			c0.2,0,0.7-0.2,0.9-0.5c1.9-2.8,2.4-2.8,2.5-2.8C26.2,112.4,30,115.3,30,116.5z M30.8,107c0,0.4-0.3,0.8-1.1,0.8H15.5
			c-2.8,0-6.5,0.1-11,0.5H4.4c-0.9,0-2.5-2.2-2.5-2.9c5.3,0.7,10.7,0.8,13.7,0.8h0.8c2.8-5.8,3.4-9,3.5-11c0.1-0.4,0-0.6,0.1-0.6
			c0.4,0,6.1,2.4,6.1,3.5c0,0.4-0.5,0.8-1.7,0.8c-0.8,0.1-0.8,0.2-1.3,0.8c-1.1,1.4-3.1,4-5.2,6.4h4.7c0.1,0,0.5-0.2,0.7-0.5
			c0.4-0.7,2-3.2,2.7-3.2c0.2,0,0.3,0.1,0.4,0.1C28.4,103.6,30.8,106.3,30.8,107z M29.2,93c0,0.4-0.2,0.8-1.2,0.8H16.5
			c-3.1,0-5.2,0.1-10.1,0.5H6.4c-1,0-2.3-2.2-2.3-2.9c4.4,0.6,7.6,0.8,10.4,0.8v-1.5c-0.1-2.1-0.1-4.7-0.5-6.5
			c-0.1-0.2-0.1-0.4-0.1-0.4c0-0.1,0.1-0.1,0.2-0.1c0.7,0,7.1,0.8,7.1,2.1c0,0.4-0.4,0.8-1.3,1.3c-1.1,0.6-1.2,0.7-1.2,5.1h2.6
			c0.2,0,0.6-0.2,0.8-0.5c0.6-1.1,1.2-2,2.1-2.9c0.1-0.1,0.3-0.2,0.5-0.2C25.3,88.7,29.2,91.5,29.2,93L29.2,93z M15.1,101.6
			c0,1.5-1.1,2.6-2.3,2.6c-0.9,0-1.9-0.7-2.3-2.2c-0.5-1.4-1.8-3.8-2.9-5.2c-0.3-0.4-0.5-0.6-0.5-0.7c0,0,0.1-0.1,0.1-0.1
			C9,96,15.1,98,15.1,101.6z M57.2,104.4c0,0.4-0.3,0.8-1.2,0.8h-7.4c0.3,0.2,0.4,0.4,0.4,0.5c0,0.4-0.5,0.7-1,0.8
			c-0.6,0.2-0.9,2.8-0.9,8c0,6.5,0.2,16.1,0.4,21v0.1c0,1.1-1.6,1.8-2.9,1.8c-1.1,0-2-0.4-2-1.6v-0.1c0.3-3.9,0.5-15.8,0.5-22.3
			c0-3.3-0.1-6.9-0.4-8.2h-5.8v2.5c-0.4,26.5-16.5,29.5-16.6,29.5s-0.1,0-0.1-0.1c0-0.2,0.4-0.5,1.3-1.1c9.7-6.5,11.2-19.4,11.2-28
			v-0.5c0-8,0-15.6-1-18.4c-0.1-0.1-0.1-0.2-0.1-0.3s0.1-0.1,0.1-0.1c0.4,0,4,1,6.7,2.3l0.1,0.1c4.9-2.8,7.4-5,8.3-6.4
			c0.1-0.2,0.2-0.4,0.4-0.4c0.7,0,5.2,4.3,5.2,5.4c0,0.4-0.3,0.5-0.9,0.5c-0.3,0-0.7-0.1-1.1-0.2c-0.3-0.1-0.6-0.2-0.9-0.2
			c-0.2,0-0.4,0.1-0.6,0.1c-1.6,0.5-7,2-10.7,2.7c-1,0.5-1.1,0.6-1.1,3.8v7.1h11.7c0.3,0,0.6-0.2,0.8-0.5c2.3-3.3,2.6-3.4,3-3.4
			C53.4,99.8,57.2,103.2,57.2,104.4z"/>
		<path d="M80,102.1c-3.1,8.8-5.8,17.5-7.7,26.3c-0.8,3.9-2.8,5.9-4.3,5.9c-1,0-2-1.3-2-3.1c0-1.3,0.6-2.7,1.6-4.5
			c2.6-4.7,9.4-23.6,9.6-24.7c-1.8,0.4-2.8,0.5-3.7,0.5c-6.4,0-8.3-4.4-8.3-5.9c0-0.3,0.1-0.4,0.3-0.4c0.3,0,0.7,0.3,1.2,0.5
			c1.6,0.8,3.8,1.9,6.6,1.9c1.8,0,3.5-0.4,4.6-0.7c0.2-1.1,0.2-2.2,0.2-3.2c0-2.2-0.4-3.9-1.7-4c-0.8-0.1-1.5-0.3-1.5-0.8
			c0-0.4,1-1.9,2.8-1.9c2.6,0,4,2.5,4.2,4.7c1.7,0.3,2.6,0.4,3.6,0.4h0.7c1.1,0,2,0.8,2,1.9c0,0.8-0.4,3.3-8,5.9L80,102.1L80,102.1z
			 M81.6,96.9c0.3-0.1,2.3-1.1,2.3-2c0-0.4-0.2-0.8-1.9-1.4C82.1,94.5,81.9,95.6,81.6,96.9z M97.6,129.3c1.1,0,2.2-0.4,3.9-0.4
			c3.2,0,4.8,1.2,4.8,2.5s-1.7,2.8-6.4,2.8c-7.4,0-14-3.9-14-8.4c0-2.3,1.8-4.1,2.2-4.1c0.2,0,0.2,0.2,0.2,0.5
			c0,0.4-0.1,0.9-0.3,1.3c-0.1,0.3-0.2,0.7-0.2,1c0,2.5,4.2,5,9.5,5C97.3,129.3,97.6,129.3,97.6,129.3z M106.1,105.3
			c-3.4,0.6-5.2,1.1-8.9,4c-0.5,0.4-0.9,0.6-1.1,0.6c-0.1,0-0.1-0.1-0.1-0.1c0-0.2,0.1-0.5,0.4-0.8c3.2-4.1,3.7-4.8,3.7-5.5
			c0-1.4-3.3-2.2-4.6-2.2c-0.2,0-0.5,0-0.7,0.1c-0.8,0.2-1.5,0.3-1.9,0.3c-0.2,0-0.4,0-0.4-0.1c0-0.2,1.7-2.5,6-2.5
			c5.2,0,9.5,2.8,9.5,4.5C108.2,104.4,107.5,105.1,106.1,105.3z"/>
		<path d="M132.6,99.1c-0.8,0.2-1.6,0.3-2.3,0.4c-0.4,0-0.7,0.1-1,0.1c-5.5,0-7.6-4-7.6-5.9c0-0.2,0.1-0.4,0.3-0.4
			c0.3,0,0.7,0.3,1.1,0.5c1.9,1.1,3.9,2,6.2,2c2,0,3.9-0.5,4.3-0.6c0.1-0.9,0.2-1.8,0.2-2.6c0-3.5-0.8-3.7-1.6-3.7
			c-1.3,0-1.4-0.3-1.4-0.5c0-0.1,0.1-0.7,1.1-1.7c0.5-0.4,1.1-0.5,1.7-0.5c1.1,0,3.8,0.6,3.8,4.4c0.7,0.1,1.4,0.1,2,0.1
			c1.9,0,3.7,0.1,3.7,1.7c0,1.7-3.3,4.5-7.4,5.9c-1.7,4.2-4,9.5-9.1,20.8c-1,2.2-2.8,3.4-4.1,3.4c-1,0-1.7-0.5-1.7-1.7
			c0-0.8,0.4-1.9,1.4-3.4c3.2-4.8,8.3-11.9,10.5-17.9L132.6,99.1L132.6,99.1z M136.9,136.3c-4.7,0-8.1-3.7-8.1-6.7c0-4,5.3-6,10.8-6
			c1.3,0,2.7,0.1,4,0.4c0-2.4-0.2-4.9-0.2-7c0.1-5.2,1.3-7.9,5.6-10.9c1.6-1.1,3.5-2.6,3.5-4c0-0.7-0.2-0.9-1.8-2.5
			c-0.6-0.5-1-0.9-1-1.2c0-0.2,0.4-0.4,1.4-0.4c2.9,0,7.6,2.6,7.6,6.2c0,1.1-0.7,3.4-2.6,3.4c-0.6,0-1.2-0.1-1.9-0.3
			c-0.4-0.1-0.7-0.1-1.2-0.1c-0.8,0-7.4,0.1-7.4,6.1c0,1.6,0.3,4,1,8.9c0.1,0.9,0.2,1.9,0.3,2.8c3.3,1.1,8.8,4,8.8,7.6
			c0,1.4-0.9,2.6-2,2.6c-0.8,0-1.7-0.5-2.4-1.9c-1-1.7-2.6-3.3-4.6-4.5C145.8,133.1,141.4,136.3,136.9,136.3L136.9,136.3z
			 M137.6,125.9c-4.1,0-7,1.7-7,3.5s2.6,3.1,5.4,3.1c3.5,0,6.9-2,7.4-5.5C141.5,126.4,139.6,125.9,137.6,125.9L137.6,125.9z
			 M138.1,93.3c0.4-0.3,0.7-0.7,0.7-1.1c0-0.2-0.1-0.5-1.5-1c-0.1,0.9-0.2,1.8-0.5,2.9L138.1,93.3z"/>
		<path d="M174.1,135.4c0.7-7.8,1-20.3,1.1-28.3c0-1.1,0.1-2.9,0.1-4.6c-4.7,5.9-9.2,9.5-10,9.5c-0.1,0-0.2-0.1-0.2-0.1
			c0-0.2,0.2-0.5,0.7-1c4.5-4.8,12.8-18.1,13.9-25.7c0.1-0.3,0-0.5,0.2-0.5c0.6,0,6.5,2.4,6.5,3.8c0,0.4-0.6,0.8-1.9,1.1
			c-0.8,0.2-1,0.4-1.6,1.4c-1.4,2.4-2.8,4.7-4.3,7c2.4,0.5,3.1,0.8,3.1,1.3c0,0.4-0.5,0.8-1.2,1.1c-1.1,0.5-1.1,0.6-1.2,2.3
			c-0.2,4.6-0.3,12.2-0.3,19.5c0,4.8,0,9.5,0.1,13c0,1.5-1.3,2.8-2.9,2.8c-1.1,0-2.1-0.7-2.1-2.3L174.1,135.4L174.1,135.4z
			 M218,134.8c0,1.4-1.4,2.3-2.7,2.3c-1.1,0-2-0.6-2-2V132h-23.5v3.1c0,1.1-1.3,2.2-2.7,2.2c-1,0-1.9-0.5-1.9-1.9v-0.2
			c0.4-5.8,0.5-17.6,0.5-23.3c0-3.4,0-7.3-0.8-10.7c-0.1-0.2-0.1-0.3-0.1-0.4c0-0.1,0.1-0.2,0.1-0.2c0.5,0,4.7,1.7,6.1,2.6l0.2,0.2
			h3.7v-7c0-1.1-0.1-2.6-0.2-3.9c-2.6,0.1-5.5,0.2-8,0.5h-0.1c-1,0-2.5-2.2-2.5-2.9c5.6,0.7,13.6,0.9,16.8,0.9h10.8
			c0.2,0,0.7-0.2,0.8-0.5c2.3-3.2,2.6-3.7,3.2-3.7c0.1,0,0.2,0,0.4,0.1c1.4,0.5,5.1,3.5,5.1,4.9c0,0.4-0.3,0.7-1.3,0.7h-10.7
			c0.2,0.1,0.3,0.2,0.3,0.4c0,0.2-0.2,0.5-0.8,0.8s-0.7,0.4-0.7,1.6c0,0.6-0.1,3.8-0.1,8.2h4.2c0.4,0,0.5-0.2,0.7-0.5
			c0.1-0.1,1.3-1.9,2-1.9s5.1,2.2,5.1,3.6c0,0.6-0.7,1.1-1.4,1.5c-1,0.5-1,1-1,4.6c0,6.1,0.2,19.2,0.5,23.9V134.8L218,134.8z
			 M194.9,130.4c0.1-3.7,0.1-16.6,0.1-25.4H191l-0.7,0.5c-0.7,0.4-0.7,0.5-0.7,13.9c0,3.7,0.1,7.7,0.1,11H194.9z M203.9,130.4
			c0.1-3.8,0.1-16.6,0.1-25.4h-5.1c0,9.1-0.1,21.8-0.1,25.4H203.9z M204,96.5c0-1.2-0.1-2.6-0.2-4h-3.6c0.2,0.1,0.3,0.3,0.3,0.4
			c0,0.3-0.3,0.6-0.8,0.8s-0.7,0.4-0.7,1.6c0,0.6-0.1,3.8-0.1,8.2h5.1V96.5z M213.2,130.4c0.1-5.2,0.1-11.9,0.1-17.1
			c0-3.4-0.1-6.2-0.1-7.6c0-0.4-0.2-0.7-0.7-0.7H208c0,9.1-0.1,21.7-0.1,25.4H213.2z"/>
		<path d="M240.2,135.1c0,1.7-1.7,2.6-2.9,2.6s-2.2-0.7-2.2-2.3v-0.3c0.7-8.1,1.1-20.9,1.1-29.1v-3.2c-6.5,7.7-10.8,9.7-10.8,9.7
			c-0.1,0-0.1-0.1-0.1-0.1c0-0.1,0.2-0.5,0.7-1c5.8-5.8,14.3-20.6,15.2-26.8c0.1-0.4,0-0.5,0.2-0.5c0.6,0,6.8,2.7,6.8,4
			c0,0.5-0.6,0.9-2,1.2c-0.8,0.2-1,0.4-1.6,1.4c-1.6,2.8-3.3,5.3-5,7.8c2.2,0.5,3.1,0.7,3.1,1.3c0,0.4-0.5,0.8-1.3,1.2
			c-1,0.4-1,0.6-1,2c-0.2,4.4-0.3,11.9-0.3,19.1C240.1,126.8,240.1,131.5,240.2,135.1L240.2,135.1L240.2,135.1z M274.2,125.9
			c0,1.3-1.3,2-2.5,2c-1,0-1.9-0.5-1.9-1.7l0.1-1.4H260v2.2c0,1.1-1.3,1.8-2.5,1.8c-1,0-1.8-0.5-1.8-1.5v-0.2
			c0.4-3.9,0.4-18.5,0.4-21.4c0-0.8-0.2-5.2-0.7-7.3c-0.1-0.2-0.1-0.3-0.1-0.4c0-0.2,0.1-0.2,0.2-0.2c0.4,0,4.2,1.4,5.6,2.5l0.1,0.1
			l0.4-6h-2c-3.2,0-7.2,0.1-12.1,0.7h-0.1c-1,0-2.8-2.3-2.8-3.1c5.6,0.8,12,1,15.3,1h1.8v-0.4c0.1-0.8,0.1-1.9,0.1-2.9
			c0-1.7-0.1-3.5-0.4-4.9c-0.1-0.2-0.1-0.3-0.1-0.4c0-0.2,0.1-0.2,0.2-0.2c0.9,0,6.8,0.9,6.8,2.1c0,0.5-0.6,1-1.5,1.4
			c-0.7,0.3-0.9,0.5-1.2,5.3h5c0.4,0,0.8-0.2,1-0.5c0.1-0.2,2.4-3.7,3.2-3.7c1,0,5.5,3.5,5.5,5c0,0.4-0.3,0.7-1.3,0.7h-13.5
			c-0.2,2.2-0.3,4.5-0.4,6h3.4c0.2,0,0.5-0.2,0.8-0.5c0.5-0.8,1.6-1.7,1.8-1.7c0.5,0,4.8,2,4.8,3.3c0,0.5-0.4,0.8-1.1,1.3
			c-1,0.7-1.1,0.8-1.1,4.2c0,4.5,0.1,14.8,0.4,18.7L274.2,125.9L274.2,125.9z M250.6,133.3c0,0.7,0.1,1.3,0.1,1.7v0.1
			c0,1.7-2,2.3-2.6,2.3c-1,0-1.9-0.6-1.9-2v-0.2c0.2-4,0.4-16,0.4-23.6c0-5.2-0.1-8.6-0.5-10.9c-0.1-0.2-0.1-0.3-0.1-0.4
			c0-0.2,0.1-0.2,0.2-0.2c1.6,0,6.7,1.1,6.7,2c0,0.4-0.5,0.8-0.9,1.1c-1,0.6-1.5,4.8-1.5,12.6c0,5.5,0.1,11.8,0.1,15.8h20.9
			c0.3,0,0.7-0.2,0.9-0.5c0.7-1,2-2.8,2.9-3.5c0.1-0.1,0.4-0.2,0.6-0.2c0.1,0,0.2,0,0.4,0.1c2,0.7,5.3,3.8,5.3,4.9
			c0,0.4-0.3,0.7-1.3,0.7L250.6,133.3L250.6,133.3z M261.1,102c-0.1,0.1-0.3,0.2-0.5,0.3c-0.7,0.4-0.7,0.7-0.7,5.5h9.9
			c0-2.3,0-4.1-0.1-5.1c0-0.4-0.2-0.7-0.8-0.7H261.1L261.1,102z M269.9,109.3H260v5.9h9.9V109.3z M260,116.6c0,2.5,0.1,4.9,0.1,6.8
			h9.8c0-1.9,0.1-4.3,0.1-6.8H260z"/>
		<path d="M308.2,119.2c-4.8,3-6.7,6-6.7,8.3s2.5,5.2,7.5,5.2c2.2,0,4.7-0.5,6.9-1.7c0.7-0.4,1.4-0.5,2-0.5c1.5,0,2.5,1,2.5,2.1
			c0,2.8-5.3,4.3-9.7,4.3c-6.5,0-11.8-3.9-11.8-8.5c0-3.7,3.4-7.9,9.3-11.5c0-3.7-0.5-8.9-3.8-8.9c-1.4,0-3.2,1.1-5.3,4l-1.8,3.4
			c-1.3,2.3-2.7,4.7-4.4,4.7c-0.2,0-1.8-0.1-1.8-2.2c0-1.2,0.6-2.9,2.5-4.6c5.5-5,7.3-8.2,10-14.2l0.1-0.2l-0.1,0.1
			c-1.2,0.3-2.3,0.5-3.3,0.5c-5.8,0-7.4-4.1-7.4-5.7c0-0.2,0.1-0.3,0.2-0.3c0.3,0,0.7,0.2,1.5,0.8c1.8,1.3,3.5,1.6,5,1.6
			c1.8,0,3.7-0.4,5.3-1c0.1-0.7,0.1-1.3,0.1-1.7c0-1.4-0.2-3-2.3-3.5c-0.5-0.1-1.1-0.3-1.1-0.6c0-0.2,0.9-1.5,2.9-1.5
			c1.6,0,2.8,0.5,3.4,2.8h0.5c1.1,0.1,2,0.2,2.8,0.2c0.3,0,0.5-0.1,0.8-0.1c0.4-0.2,0.7-0.2,1-0.2c1.5,0,1.5,1.4,1.5,1.6
			c0,3.2-6,5.5-8.1,6.2l-0.1,0.3c-2,4.4-3.3,6.7-4.6,9.1c1.1-0.6,2.2-0.8,3.2-0.8c3.1,0,5.4,2.6,6.2,6.2c1.7-4.4,6.4-12.8,13.3-12.8
			c3.3,0,7.4,2.2,7.4,5.3c0,2.3-2.5,4.7-6.6,6.3c-4.2,1.6-9.4,3.6-13.4,5.6c0.2,1.4,0.2,2.8,0.2,4.3c0,0.7,0,1.5-0.1,2.2
			c-0.2,2.3-1.8,3.9-3.1,3.9c-0.9,0-1.7-0.8-1.7-2.8c0-0.2,0.1-0.5,0.1-0.7c0.1-1.5,0.9-2.1,1-4.1V119.2L308.2,119.2z M308,91
			c0.1,0.2,0.1,0.5,0.1,0.7c0,0.7-0.1,1.3-0.2,2c1.4-0.7,2.1-1,2.1-1.7c0-0.3-0.2-0.6-1.7-1L308,91L308,91z M323.3,109.1
			c2.6-1.4,3.8-2.9,3.8-4.2s-1.1-2.9-3.5-2.9c-5.5,0-10.6,8.5-12.2,13.3C315.1,113.3,319.8,111,323.3,109.1z"/>
		<path d="M49.7,184.2c0,1.1-1.1,2.4-2.9,2.4c-1.1,0-2.1-0.6-2.1-2v-1.2H14.5c-0.1,13.2-1.6,26.8-12.4,35.3c-0.8,0.6-1.6,1-1.8,1
			c-0.1,0-0.1,0-0.1-0.1c0-0.2,0.3-0.6,1-1.4c7.4-8.3,8.7-21.2,8.7-32.6c0-6.3-0.4-12.7-1.1-16.1c-0.1-0.2-0.1-0.4-0.1-0.5
			c0-0.1,0-0.1,0.1-0.1c0.4,0,4.6,1.3,7.1,2.9c0.1,0.1,0.2,0.2,0.2,0.2h27.2c0.4,0,0.8-0.4,1-0.6c1.2-1.6,1.7-2.1,2.3-2.1
			c0.7,0,5.4,2.6,5.4,4.1c0,0.6-0.7,1.1-1.8,1.6c-0.7,0.4-1,0.6-1,2c0,1.6,0.3,5.7,0.4,7.1V184.2z M44.8,174.4c0-0.7-0.4-0.9-1-0.9
			H16.1l-0.5,0.4c-0.8,0.5-1,0.8-1,1.6v6.2h30.2V174.4z M49.8,218.9c0,1.4-1.4,2.3-2.7,2.3c-1,0-2-0.6-2-1.9l0.1-2.2H22.1v2.6
			c0,1.3-1.4,2.1-2.6,2.1c-1,0-1.9-0.5-1.9-1.7v-0.2c0.4-4.9,0.5-11,0.5-15.2c0-1.9-0.1-3.5-0.1-4.4c0-0.8-0.2-5-0.7-7.1
			c-0.1-0.2-0.1-0.3-0.1-0.4c0-0.1,0.1-0.2,0.1-0.2c0.5,0,4.2,1.5,5.7,2.5l0.4,0.2h7.7c0-0.7-0.1-1.3-0.1-1.9
			c-0.1-1.6-0.1-5.5-0.6-7.7c-0.1-0.2-0.1-0.3-0.1-0.4c0-0.1,0.1-0.1,0.1-0.1c0.4,0,7.5,1,7.5,2.3c0,0.5-0.6,1-1.3,1.4
			c-1.2,0.7-1.3,0.8-1.4,6.4h8.9c0.2,0,0.3-0.1,0.5-0.4c1.4-1.8,1.8-1.8,1.9-1.8c0.4,0,5.2,2,5.2,3.4c0,0.5-0.6,1-1.3,1.4
			c-1.2,0.8-1.2,1-1.2,4.1c0,4.3,0.2,12.1,0.5,16.8C49.8,218.8,49.8,218.9,49.8,218.9z M31.2,196.9h-8l-0.5,0.3
			c-0.5,0.3-0.5,0.4-0.5,1.6s-0.1,3.4-0.1,6.1h9.2V196.9z M31.2,206.3H22c0,2.9,0.1,6.2,0.1,9.2h9.1
			C31.2,215.6,31.2,206.3,31.2,206.3z M35.3,196.9c-0.1,2.3-0.1,5.1-0.1,7.9h10c0-3.2,0-5.9-0.1-7.2c0-0.5-0.3-0.7-0.7-0.7
			C44.5,196.9,35.3,196.9,35.3,196.9z M35.3,206.3v9.2h9.9c0-2.9,0.1-6.2,0.1-9.2H35.3z"/>
		<path d="M66.8,201.8c0-5.5,1.3-10.7,2-15.1c0.2-1.4,0.4-2.8,0.4-4c0-2.8-1.1-4-3.6-5.3c-0.6-0.3-1-0.7-1-1.1
			c0-0.2,0.4-0.9,1.9-0.9c3.7,0,6.7,4.9,6.7,7.1c0,1.3-0.4,2.5-1,4.1c-1.4,3.9-2.9,8.6-2.9,12.7c0,1.1,0.5,4.9,1.1,4.9
			c0.2,0,0.4-0.3,0.7-0.9c1.8-4.1,6.8-14.2,7.6-14.2c0.1,0,0.1,0.1,0.1,0.2c0,0.5-0.2,1.3-0.6,2.2c-4.5,10.4-4.7,15.8-4.7,17.5
			c0,1.5,0.2,3.1,0.6,4.2c0.2,0.5,0.3,1,0.3,1.4c0,1.2-0.8,1.9-1.7,1.9C69.4,216.4,66.8,209.6,66.8,201.8L66.8,201.8z M94.3,197
			l-0.1-7.6c-0.5,0.1-1.1,0.1-1.6,0.1h-1.5c-8.2,0-9-5-9-5c0-0.2,0.1-0.2,0.2-0.2c0.2,0,0.8,0.3,1.4,0.5c2,0.8,4.7,1,7.2,1h1
			c0.7,0,1.4-0.1,2.2-0.2v-3.1c0-3.4-0.3-6.3-2.5-6.3h-0.4c-1,0-1.3-0.2-1.3-0.6c0-0.5,1.3-1.9,3.2-1.9c1.4,0,5,1.4,5,4.9
			c0,0.2-0.1,0.5-0.1,0.8c1.1,0.3,2.4,0.5,3.3,0.7c0.8,0.1,1.6,0.1,2.1,0.2c1.1,0.2,1.9,1.1,1.9,2.3c0,3.1-4.4,5.2-7.8,6.1
			c0.1,2.6,0.3,5.2,0.5,7.7c0.1,0.8,0.1,1.7,0.1,2.5c0,18.5-17,23.6-18.8,23.6c-0.1,0-0.2,0-0.2-0.1c0-0.2,0.6-0.7,2.3-1.6
			c6.9-3.8,12.9-13.2,12.9-23.2L94.3,197L94.3,197z M98,180.5c0,0.1,0,0.2-0.1,0.4c-0.2,1.3-0.3,2.6-0.4,3.8c1-0.4,3.2-1.5,3.2-2.5
			c0-0.7-0.9-1.3-2.8-2.1V180.5L98,180.5z"/>
		<path d="M127.6,196.4c0.1,0,0.1-0.1,0.3-0.2c2.7-1.7,6.1-2.7,9.4-2.7c7.7,0,12.5,5.4,12.5,11.2s-5.5,13.7-16.6,13.7
			c-5.8,0-9.7-2.9-9.7-6.1c0-2.9,3-4.5,5.9-4.5c4,0,6.4,3.1,6.4,6.2c0,0.5-0.1,1-0.2,1.5c7-1.7,9.7-6.5,9.7-10.7c0-4.7-3.4-9-9.4-9
			c-2.1,0-9.1,0.5-13.1,9.1c-1.4,3.1-2.4,5-4.4,5c-1.1,0-1.9-0.8-1.9-2c0-1.7,2.2-4.3,5-7.5c3.6-4.1,12.1-15.5,14.6-19.7
			c0.3-0.4,0.4-0.8,0.4-1.1c0-0.4-0.2-1-1.5-1c-2.8,0-4.1,5.8-8.2,5.8c-2.2,0-4-1.4-4-3.7c0-0.7,0.1-1.2,0.5-1.2
			c0.3,0,0.7,0.1,1.1,0.3c0.5,0.2,1,0.2,1.4,0.2c0.8,0,1.7-0.2,2.5-0.8c2.3-1.6,5.1-3.6,8.3-3.6c3.5,0,5.7,2.5,5.7,3.8
			c0,1.2-1.3,2.3-2.6,3.2C135.4,185.8,127.6,196.2,127.6,196.4L127.6,196.4L127.6,196.4z M132.2,213.7c0-2.1-1.6-3.9-3.8-3.9
			c-2.6,0-2.7,2-2.7,2.3c0,0.2,0,3.1,6,3.7C132.1,215.1,132.2,214.4,132.2,213.7L132.2,213.7z"/>
		<path d="M176.6,186.1c-3.1,8.8-5.8,17.5-7.7,26.3c-0.8,3.9-2.8,5.9-4.3,5.9c-1,0-2-1.3-2-3.1c0-1.3,0.6-2.7,1.6-4.5
			c2.6-4.7,9.4-23.6,9.6-24.7c-1.8,0.4-2.8,0.5-3.7,0.5c-6.4,0-8.3-4.4-8.3-5.9c0-0.3,0.1-0.4,0.3-0.4c0.3,0,0.7,0.3,1.2,0.5
			c1.6,0.8,3.8,1.9,6.6,1.9c1.8,0,3.5-0.4,4.6-0.7c0.2-1.1,0.2-2.2,0.2-3.2c0-2.2-0.4-3.9-1.7-4c-0.8-0.1-1.5-0.3-1.5-0.8
			c0-0.4,1-1.9,2.8-1.9c2.6,0,4,2.5,4.2,4.7c1.7,0.3,2.6,0.4,3.6,0.4h0.7c1.1,0,2,0.8,2,1.9c0,0.8-0.4,3.3-8,5.9L176.6,186.1
			L176.6,186.1z M178.2,180.9c0.3-0.1,2.3-1.1,2.3-2c0-0.4-0.2-0.8-1.9-1.4C178.7,178.5,178.5,179.6,178.2,180.9z M194.2,213.3
			c1.1,0,2.2-0.4,3.9-0.4c3.2,0,4.8,1.2,4.8,2.5s-1.7,2.8-6.4,2.8c-7.4,0-14-3.9-14-8.4c0-2.3,1.8-4.1,2.2-4.1
			c0.2,0,0.2,0.2,0.2,0.5c0,0.4-0.1,0.9-0.3,1.3c-0.1,0.3-0.2,0.7-0.2,1c0,2.5,4.2,5,9.5,5H194.2z M202.7,189.3
			c-3.4,0.6-5.2,1.1-8.9,4c-0.5,0.4-0.9,0.6-1.1,0.6c-0.1,0-0.1-0.1-0.1-0.1c0-0.2,0.1-0.5,0.4-0.8c3.2-4.1,3.7-4.8,3.7-5.5
			c0-1.4-3.3-2.2-4.6-2.2c-0.2,0-0.5,0-0.7,0.1c-0.8,0.2-1.5,0.3-1.9,0.3c-0.2,0-0.4,0-0.4-0.1c0-0.2,1.7-2.5,6-2.5
			c5.2,0,9.5,2.8,9.5,4.5C204.8,188.4,204.1,189.1,202.7,189.3L202.7,189.3z"/>
		<path d="M237.1,199.3c2.2,0.7,3.2,1.7,3.2,2.8c0,0.8-0.7,1.7-2.3,1.7c-0.2,0-1.4,0-3.4-0.8c-3.2,4.4-7.6,8.7-11.5,8.7
			c-2.8,0-5.1-3.1-5.1-7.2s2.2-9.1,6.3-13.3c-0.6-1.3-1.1-2.7-1.6-4c-0.9-2.4-1.7-5-2.6-6.8c-0.4-0.8-0.5-1.3-0.5-1.6
			s0.2-0.5,0.5-0.5c1,0,3.9,1.7,4.9,4.2c0.7,1.7,1.4,3.9,2.3,6.1c3.5-2.7,8-4.6,12.5-5c0.1-0.6,0.1-1.2,0.1-1.7
			c0-2.5-0.5-4.3-1.7-5.1c-0.6-0.4-1.6-0.5-1.6-1s1.2-1.4,2.7-1.4s4.6,1,4.6,6.1c0,1-0.1,2-0.3,3.2c8,0.8,14,7.3,14,15
			c0,3.8-1.5,7.9-5,11.6c-6.1,6.4-17.1,8.6-20.7,8.6c-0.7,0-1-0.1-1-0.2c0-0.2,0.9-0.7,2.7-1.1c8.9-2.3,19.6-8.9,19.6-19
			c0-5.9-3.8-11.1-10.1-12.2C241.9,190.3,239.8,195,237.1,199.3L237.1,199.3z M225.2,192.9c-2.8,3.3-4.1,6.8-4.1,9.6
			c0,2.5,1.1,5,3.1,5c1.1,0,4.7-1.3,8.2-5.9C229.3,199.6,227,196.4,225.2,192.9z M228.1,190.1c1.6,3.4,3.5,6.7,6.5,8.2
			c2.6-4.4,4.3-8.8,5-12.6C235.4,185.9,231.4,187.5,228.1,190.1L228.1,190.1z"/>
		<path d="M269.4,205.7c0-2.1,0.2-4.1,0.6-6.1c0.8-4.1,2-7.8,2.7-11.3c0.3-1.5,0.4-2.9,0.4-4.1c0-2.6-0.5-4.6-1.1-5.7
			c-0.4-0.7-0.8-1.2-0.8-1.5s0.3-0.4,1.2-0.4c1.9,0,5,2.6,5,7.1c0,2-0.7,4-1.7,6.5c-1.5,3.7-3.3,8.2-3.3,12.3c0,1.4,0.4,3.7,0.9,3.7
			c0.2,0,0.4-0.3,0.7-0.9c1.5-3.2,5.6-11.2,6.2-11.2c0.1,0,0.1,0.1,0.1,0.2c0,0.2-0.1,0.7-0.4,1.4c-0.8,2-4.1,10.6-4.1,15.7
			c0,1.3,0.2,2.3,0.4,3.2c0.1,0.4,0.2,0.8,0.2,1.2c0,1.5-0.9,2.4-1.9,2.4C270.4,218.3,269.4,208.6,269.4,205.7L269.4,205.7z
			 M306.1,209.8c2.3,0,3.6,1.1,3.6,2.3c0,3.7-8.5,3.8-9.5,3.8c-10.3,0-13.6-5.3-13.6-8.3c0-0.4,0.1-0.6,0.2-0.6
			c0.3,0,0.7,0.4,1.3,1.2c1.2,1.7,5.2,2.9,9.7,2.9c1.2,0,2.4-0.1,3.6-0.2c1.4-0.2,2.4-1,4.4-1L306.1,209.8L306.1,209.8z
			 M296.9,188.4c-9,0-9.5-5.4-9.5-5.8c0-0.2,0.1-0.2,0.2-0.2s0.6,0.2,1.1,0.5c1.7,1,3.9,1.4,6.1,1.4c1.7,0,3.4-0.2,5-0.6
			c0.8-0.2,1.4-0.6,2.2-0.7c0.4-0.1,0.8-0.1,1.1-0.1c1.9,0,3.1,1,3.1,2.1C306.4,187.9,299.9,188.4,296.9,188.4L296.9,188.4z"/>
	</g>
</g>
</svg>
