<?xml version="1.0" encoding="UTF-8"?>
<svg id="_レイヤー_2" data-name="レイヤー 2" xmlns="http://www.w3.org/2000/svg" viewBox="0 0 442.5 222.84">
  <g id="_デザイン" data-name="デザイン">
    <g>
      <path d="m15.72,30.72c-.78,0-1.08-.42-1.08-.9,0-.42.3-.84.72-.84h.24c5.28,0,9.42-3.48,9.42-9.3,0-3.6-1.5-11.1-9.36-11.1-3.66,0-3.72,1.32-3.72,8.34-.06,4.08-.12,9.12-.12,13.62,0,17.1.24,17.22,6.24,17.76.36.3.48.72.48,1.02,0,.42-.24.72-.6.72-.06,0-4.98-.42-10.02-.42-2.52,0-5.04.12-7.02.42h-.18c-.42,0-.6-.24-.6-.6,0-.42.24-.84.6-1.14,5.22-.6,4.98-2.04,5.16-10.02.06-2.34.06-7.92.06-12.9,0-3.66,0-6.96-.06-8.46-.24-7.68-.54-7.68-5.34-8.22-.36-.24-.54-.6-.54-.96,0-.42.3-.84.72-.84,1.92.12,3.6.18,5.22.18,3.12,0,5.88-.18,9.48-.36h1.14c7.74,0,14.88,3.6,14.88,11.76,0,10.38-9.78,12.24-15.72,12.24Z" fill="#003383"/>
      <path d="m84.24,23.04c0,5.16.12,10.86.24,15,.24,6.96-.06,9.42,5.28,10.2.36.24.54.54.54.9,0,.48-.36.9-.72.9,0,0-4.86-.42-9.72-.42-2.46,0-4.86.12-6.66.42h-.12c-.36,0-.54-.36-.54-.72,0-.42.18-.84.54-1.08,4.92-.66,5.4-1.8,5.4-7.68v-1.44c-.06-3-.12-10.32-.12-16.26,0-2.7,0-5.1.06-6.78v-.12c0-.24-.06-.3-.12-.3-.66,0-13.68,26.04-16.32,31.68-.54,1.2-.9,1.62-1.68,1.62-.66-.06-1.02-.66-1.32-1.74-.66-2.34-3-7.26-5.82-12.9-2.64-5.28-6.12-12.42-8.4-17.46-.18-.48-.36-.66-.42-.66-.36,0-1.26,13.38-1.26,19.8,0,10.86,0,11.46,5.16,12.24.3.18.48.54.48.9,0,.48-.3.9-.72.9h-.06s-3.6-.42-7.5-.42c-1.92,0-3.96.12-5.64.42h-.12c-.42,0-.6-.3-.6-.72s.18-.84.54-1.08c4.62-.48,5.28-3,5.88-11.64.12-2.82,1.02-16.02,1.44-21.42,0-.3.06-.6.06-.9,0-3.78-2.22-5.16-6.6-5.76-.3-.18-.48-.6-.48-.96,0-.42.24-.84.84-.84,0,0,3.24.3,6.48.3,1.62,0,3.18-.06,4.38-.3.18-.06.3-.06.36-.06.54,0,.66.36.78,1.2.18.72,1.2,3.18,1.5,3.96,4.32,10.74,10.74,21.24,13.26,27.3.12.24.24.36.36.36.42,0,15.48-29.34,16.02-31.74.06-.48.42-.78.96-.78h.18c1.32.12,2.7.18,4.02.18,2.04,0,4.14-.12,6.06-.42h.06c.42,0,.66.42.66.9,0,.36-.18.78-.54.9-6,.78-6.06,2.22-6.06,14.52Z" fill="#003383"/>
      <path d="m132.24,8.4c4.44,0,6.78,1.56,6.78,3.3,0,1.14-1.02,2.22-3.3,2.22-.42,0-.9-.06-1.38-.12-1.08-.18-2.16-.24-3.3-.24-3.6,0-7.14.78-8.7,1.68-3.96,2.22-7.02,10.98-7.02,18.48,0,12.24,7.8,12.6,9.3,12.6,1.08,0,2.22-.18,3.42-.6.6-.18,1.14-.3,1.68-.3,1.86,0,3.12,1.14,3.12,2.46,0,3.06-5.46,3.6-7.56,3.6-6.24,0-12.78-3.9-12.78-15.42,0-7.02,2.34-15.06,5.64-18.9.3-.42.6-.66.6-.72s0-.06-.06-.06c-.72,0-6.42,2.4-12.72,5.76-1.14.6-2.52.84-3.9.84-2.88,0-5.64-1.2-5.64-3.42,0-.6.24-.72.54-.72s.78.12,1.2.24c.84.18,1.74.3,2.7.3,1.2,0,2.46-.18,3.9-.72,4.14-1.5,13.44-6.6,22.26-9,1.5-.42,2.4-1.14,4.92-1.26h.3Zm1.26,16.56c-1.56-1.8-3.48-3.24-5.04-4.08-.54-.3-.96-.54-.96-.66,0-.48,2.22-.48,2.34-.48,4.68,0,7.08,2.1,7.08,4.08,0,1.14-.78,2.04-1.8,2.04-.48,0-1.08-.3-1.62-.9Zm6.36-2.88c-1.62-1.74-3.6-3.18-5.22-3.96-.54-.24-.96-.48-.96-.66s1.02-.54,2.7-.54c4.86,0,6.84,2.16,6.84,3.96,0,1.14-.78,2.04-1.74,2.04-.48,0-1.08-.24-1.62-.84Z" fill="#003383"/>
      <path d="m153.9,43.32c-.48.24-.6.96-1.08.96-1.02,0-4.08-5.04-4.08-5.34,0-.18.18-.18.54-.18,2.4,0,2.88,0,8.4-1.62,0-4.62.06-11.76.06-17.76-1.98.06-3.48.3-6.06.54h-.06c-.84,0-2.64-2.22-2.64-2.94,4.14.54,6.54.84,8.76.9v-7.5c-.06-2.64-.18-5.88-.78-8.64-.06-.18-.06-.36-.06-.42,0-.12.06-.12.18-.12.72,0,7.56,1.08,7.56,2.58,0,.54-.6,1.02-1.44,1.44-1.14.54-1.2,1.32-1.2,12.66h.84c.3,0,.54-.24.72-.54,1.08-1.62,2.04-2.88,2.64-2.88,1.02,0,4.5,3,4.5,4.14,0,.36-.24.72-1.14.72h-7.62c0,6,.06,12.6.06,16.44,3.18-1.08,6.48-2.34,8.76-3.3.48-.24.84-.3,1.08-.3.12,0,.18,0,.18.12,0,1.02-9,6.42-18.12,11.04Zm49.38-16.92c0,.36-.24.72-1.2.72h-20.04c-2.94,0-8.34.12-13.02.6h-.06c-.9,0-2.58-2.28-2.58-2.94,5.46.66,12.78.84,15.84.84h2.7c1.38-2.76,2.7-6.36,3.48-8.82.36-1.26.42-2.4.48-3.3.06-.48,0-.66.12-.66.48,0,6.6,2.46,6.6,3.78,0,.42-.54.84-1.8.9-.9.06-.9.3-1.38.9-1.32,1.62-3.54,4.56-5.88,7.2h7.68c.18,0,.54-.18.72-.48.48-.78,2.28-3.36,3.06-3.36.6,0,5.28,2.88,5.28,4.62Zm-2.58-15.48c0,.42-.24.78-1.2.78h-16.98c-2.82,0-6.72.12-11.28.6h-.06c-.96,0-2.46-2.34-2.46-3,4.8.66,10.08.84,13.2.9,0-.3-.06-.66-.06-.9-.06-2.58-.12-5.58-.6-7.8-.06-.24-.12-.36-.12-.42s.06-.12.12-.12c.48,0,7.8.9,7.8,2.34,0,.42-.48.9-1.32,1.32-1.26.72-1.38.78-1.38,5.58h5.7c.18,0,.54-.18.72-.48.72-1.26,2.22-3.24,2.88-3.24,1.68,0,5.04,3.48,5.04,4.44Zm-3.12,24.48c0,.54-.54.96-1.26,1.44-1.14.78-1.26.84-1.26,4.14,0,2.7.24,6.12.48,9.84v.18c0,1.5-1.68,2.28-2.76,2.28s-2.04-.54-2.04-1.86v-1.8h-13.08v2.04c0,1.2-1.32,2.16-2.76,2.16-1.08,0-2.04-.54-2.04-1.86v-.18c.36-4.26.42-7.26.42-9.6,0-5.88-.36-8.94-.66-10.32,0-.18-.06-.24-.06-.36s.06-.18.12-.18c.36,0,4.2,1.38,6.24,2.76l.12.12h10.44c.3,0,.6-.12.84-.48.06-.12,1.44-1.92,2.1-1.92.48,0,5.16,2.28,5.16,3.6Zm-15.06-14.7c0,1.68-1.26,2.88-2.52,2.88-1.02,0-2.1-.72-2.64-2.46-.48-1.56-1.98-4.2-3.18-5.7-.36-.42-.54-.66-.54-.78,0-.06.06-.06.12-.06.78,0,8.76,1.56,8.76,6.12Zm8.4,19.8c0-1.44-.06-2.7-.12-3.84,0-.42-.24-.9-.72-.9h-11.22l-.42.36c-.78.54-.78.78-.78,1.92-.06,2.34-.12,4.2-.12,6.06,0,1.26.06,2.58.06,3.96h13.2c.06-2.94.12-5.4.12-7.56Z" fill="#003383"/>
      <path d="m225.36,48.9c-1.56,0-3.48-.12-3.48-.54,0-.24.9-.6,2.64-.84,13.38-2.04,19.38-8.52,19.38-13.2,0-2.52-2.1-5.88-7.02-5.88-3.72,0-8.34,1.98-12.6,6.24-1.8,1.8-3.78,2.64-5.52,2.64-2.94,0-4.38-2.34-4.38-2.94,0-.42.48-.54,1.38-.6,1.68-.18,4.8-1.62,7.8-3.48,3.72-2.34,8.22-4.26,12.54-4.26,6.78,0,11.4,4.68,11.4,9.48,0,6.06-6.84,13.38-22.14,13.38Z" fill="#003383"/>
      <path d="m276.78,18.36c-3.06,8.76-5.76,17.52-7.74,26.34-.84,3.9-2.76,5.94-4.26,5.94-.96,0-1.98-1.32-1.98-3.06,0-1.26.6-2.7,1.56-4.5,2.58-4.74,9.36-23.58,9.6-24.66-1.8.42-2.76.54-3.66.54-6.42,0-8.28-4.44-8.28-5.88,0-.3.12-.42.3-.42.3,0,.72.3,1.2.54,1.62.84,3.84,1.92,6.6,1.92,1.8,0,3.54-.36,4.62-.66.18-1.08.24-2.22.24-3.24,0-2.16-.42-3.9-1.68-4.02-.78-.06-1.5-.3-1.5-.78,0-.36,1.02-1.92,2.82-1.92,2.58,0,4.02,2.52,4.2,4.68,1.68.3,2.58.42,3.6.42h.72c1.14,0,2.04.84,2.04,1.86,0,.78-.42,3.3-8.04,5.94l-.36.96Zm1.62-5.16c.3-.12,2.34-1.14,2.34-2.04,0-.42-.24-.78-1.86-1.38,0,1.02-.18,2.16-.48,3.42Zm15.96,32.4c1.08,0,2.16-.36,3.9-.36,3.18,0,4.8,1.2,4.8,2.46s-1.68,2.76-6.36,2.76c-7.38,0-13.98-3.9-13.98-8.4,0-2.28,1.8-4.14,2.16-4.14.18,0,.24.24.24.48,0,.36-.12.9-.3,1.26-.12.3-.24.66-.24.96,0,2.52,4.2,4.98,9.48,4.98h.3Zm8.58-24c-3.36.6-5.22,1.14-8.94,4.02-.54.42-.9.6-1.14.6-.06,0-.12-.06-.12-.12,0-.18.12-.48.42-.84,3.24-4.08,3.72-4.8,3.72-5.52,0-1.44-3.3-2.16-4.56-2.16-.24,0-.48,0-.66.06-.84.18-1.5.3-1.86.3-.24,0-.36,0-.36-.12,0-.18,1.68-2.46,6-2.46,5.22,0,9.54,2.82,9.54,4.5,0,.84-.72,1.5-2.04,1.74Z" fill="#003383"/>
      <path d="m364.02,17.46c0,.54-.42,1.02-1.44,1.5-1.44.66-1.5.78-1.56,2.4-.18,5.1-.24,12.24-1.68,18.66-2.1,9.06-7.74,13.38-14.28,13.38h-.12c-.54,0-1.26-.24-1.5-.78-.78-1.68-8.52-5.52-8.52-6,0,0,0-.06.12-.06s.36.06.78.18c3.24.96,6.24,1.68,8.82,1.68,11.28,0,11.52-14.88,11.7-30,0-.78-.24-1.02-.84-1.02h-13.38c-2.28,17.1-8.16,31.68-27.42,36.66-.84.24-1.38.3-1.68.3-.24,0-.36-.06-.36-.12,0-.24.66-.72,1.5-1.02,14.88-5.94,21-18.96,23.04-35.82-3.54,0-12.36.12-17.46.66h-.06c-1.08,0-2.82-2.34-2.82-3.12,5.88.72,16.74.9,20.4.9h.12c.42-3.96.6-8.1.6-10.98,0-1.92-.12-3.48-.3-4.38,0-.12-.06-.18-.06-.3s.06-.18.24-.18c0,0,8.1,1.14,8.1,2.52,0,.42-.6.9-1.26,1.2-1.02.48-1.38.6-1.5,2.28-.24,3.3-.54,6.66-.9,9.84h12.96c.72,0,.9-.18,1.08-.48.48-.66,1.56-2.04,2.1-2.04.48,0,5.58,2.64,5.58,4.14Z" fill="#003383"/>
      <path d="m411.24,8.4c4.44,0,6.78,1.56,6.78,3.3,0,1.14-1.02,2.22-3.3,2.22-.42,0-.9-.06-1.38-.12-1.08-.18-2.16-.24-3.3-.24-3.6,0-7.14.78-8.7,1.68-3.96,2.22-7.02,10.98-7.02,18.48,0,12.24,7.8,12.6,9.3,12.6,1.08,0,2.22-.18,3.42-.6.6-.18,1.14-.3,1.68-.3,1.86,0,3.12,1.14,3.12,2.46,0,3.06-5.46,3.6-7.56,3.6-6.24,0-12.78-3.9-12.78-15.42,0-7.02,2.34-15.06,5.64-18.9.3-.42.6-.66.6-.72s0-.06-.06-.06c-.72,0-6.42,2.4-12.72,5.76-1.14.6-2.52.84-3.9.84-2.88,0-5.64-1.2-5.64-3.42,0-.6.24-.72.54-.72s.78.12,1.2.24c.84.18,1.74.3,2.7.3,1.2,0,2.46-.18,3.9-.72,4.14-1.5,13.44-6.6,22.26-9,1.5-.42,2.4-1.14,4.92-1.26h.3Zm1.26,16.56c-1.56-1.8-3.48-3.24-5.04-4.08-.54-.3-.96-.54-.96-.66,0-.48,2.22-.48,2.34-.48,4.68,0,7.08,2.1,7.08,4.08,0,1.14-.78,2.04-1.8,2.04-.48,0-1.08-.3-1.62-.9Zm6.36-2.88c-1.62-1.74-3.6-3.18-5.22-3.96-.54-.24-.96-.48-.96-.66s1.02-.54,2.7-.54c4.86,0,6.84,2.16,6.84,3.96,0,1.14-.78,2.04-1.74,2.04-.48,0-1.08-.24-1.62-.84Z" fill="#003383"/>
      <path d="m436.86,52.14c-1.74-3.36-4.62-5.82-7.2-7.74-.6-.48-1.14-.84-1.14-1.02,0-.06.18-.12.48-.12,2.34,0,13.5,2.22,13.5,7.8,0,1.8-1.32,3.18-2.82,3.18-1.02,0-2.04-.6-2.82-2.1Z" fill="#003383"/>
      <path d="m13.14,104.1c1.8,8.16,1.86,10.02,1.86,10.44,0,.66-.06,3.6-2.1,3.6-1.2,0-2.88-1.62-2.88-5.4,0-1.08.18-1.56.18-2.58,0-1.68-.84-5.7-1.14-6.54-1.02-3.06-3.24-4.86-5.34-4.86h-.72c-.96,0-1.44-.18-1.44-.6,0-.72,1.62-2.46,3.96-2.46,1.02,0,5.1.72,6.54,4.14h.72c3.12,0,17.28-1.44,18.42-1.68,1.5-.36,2.04-1.74,3.48-1.74,1.56,0,7.2,2.34,7.2,4.38,0,.6-.42,1.2-1.32,1.74-1.2.66-1.92,1.26-2.58,2.7-11.76,26.82-30.18,29.58-31.02,29.58-.18,0-.3,0-.3-.12,0-.18.72-.66,2.22-1.38,16.44-7.98,24.84-30.3,24.84-31.62,0-.66-.42-.9-1.2-.9-1.2,0-12.54,1.02-17.46,2.28-.78.18-1.44.24-2.04.24l.12.78Z" fill="#003383"/>
      <path d="m89.52,112.74c-2.88.06-9.06.06-15.18.3-4.32.18-8.58.48-11.46,1.14-1.32.3-2.46.54-3.54.54-2.7,0-7.98-2.76-7.98-5.7,0-.54.18-.78.48-.78.18,0,.48.12.84.3,1.2.72,2.52,1.38,6.78,1.38,4.02,0,26.82-1.44,27-1.44.6-.06,1.32-.06,2.1-.06,3.54,0,5.88.66,5.88,2.04,0,1.26-2.94,2.22-4.92,2.28Z" fill="#003383"/>
      <path d="m108,117.12c-.84.36-1.5.6-1.74.6-.12,0-.24-.06-.24-.12,0-.18.42-.6,1.38-1.32,8.46-6.42,17.28-18.6,17.28-20.58,0-.84-.6-1.5-1.62-1.74-.72-.18-1.02-.42-1.02-.72,0-.12.54-1.74,2.7-1.74,2.58,0,5.64,2.22,5.64,4.38,0,.72-.36,1.44-.84,2.16,2.22-.24,5.76-.78,7.02-1.08.72-.18,1.08-.6,1.68-1.02.48-.3.84-.48,1.26-.48,1.26,0,5.4,2.7,5.4,4.08,0,.66-.6,1.08-1.68,1.5-1.32.48-1.92,1.5-3,3.12-10.08,14.94-19.38,24.54-35.16,29.1-1.14.3-1.92.48-2.34.48-.24,0-.36-.06-.36-.12,0-.24.66-.66,2.04-1.26,13.26-5.58,23.04-16.98,32.22-31.44.18-.3.42-.72.42-1.02s-.24-.6-1.08-.6c-.54,0-2.64.12-6.66,1.44-.6.18-1.14.3-1.62.3-.18,0-.36,0-.54-.06-6.84,8.04-12.18,13.14-19.14,16.14Z" fill="#003383"/>
      <path d="m150.54,132.54c-.3,0-.48-.06-.48-.18,0-.18.6-.54,1.92-1.02,18.18-7.08,30.48-27.42,30.48-29.1,0-.48-.3-.78-1.02-.78-1.74,0-8.1,2.52-9.54,3.12-1.92.78-2.94,1.44-4.26,1.44-2.46,0-6.78-2.28-6.78-4.38,0-1.2.42-1.74.9-1.74.3,0,.6.3.84.78.3.66,1.56.9,3.12.9,4.26,0,12.48-1.8,13.8-2.16,1.5-.42,2.28-1.86,3.72-1.86,1.26,0,6.6,1.8,6.6,4.08,0,.54-.36,1.08-1.14,1.62-.96.66-1.74,1.26-2.52,2.64-2.1,3.54-4.44,6.78-7.02,9.72,6.6,1.62,16.74,6.66,16.74,11.82,0,1.62-1.02,2.76-2.34,2.76-1.02,0-2.1-.6-3.06-2.16-2.4-3.96-6.9-8.58-11.04-11.22-.3-.18-.66-.36-.9-.54-12.12,13.38-26.52,16.26-28.02,16.26Z" fill="#003383"/>
      <path d="m202.68,134.04c-.24,0-.36-.06-.36-.18,0-.18.66-.66,2.1-1.26,9.12-3.78,17.52-10.92,24.24-19.14-1.86-1.2-3.84-2.22-5.58-3-1.08-.48-1.74-.78-1.74-.9s.18-.12.6-.12c1.68,0,6.24.6,8.82,1.32,3-3.96,6.78-9.66,6.78-10.62,0-.54-.42-.9-1.38-.9-1.14,0-3.78.6-6,1.32-.66.18-1.2.36-1.74.36-.18,0-.3-.06-.48-.06-6.72,8.16-11.94,13.2-18.78,16.32-.9.42-1.56.6-1.86.6-.06,0-.12,0-.12-.06,0-.18.42-.6,1.32-1.26,8.16-6.12,17.16-19.26,17.16-21.06,0-.84-.6-1.5-1.74-1.74-.72-.18-1.14-.36-1.14-.72,0-.12.72-1.8,2.88-1.8,2.52,0,5.58,2.28,5.58,4.44,0,.78-.36,1.56-.9,2.34,6.12-.9,7.08-1.26,7.56-1.62.72-.54,1.32-.9,1.98-.9.72,0,5.7,2.16,5.7,4.02,0,.66-.66,1.2-1.92,1.56-1.02.3-2.04,1.74-3.18,3.48-1.8,2.76-3.6,5.4-5.52,7.86,2.58,1.14,5.16,3,5.16,5.4,0,1.44-.96,2.52-2.28,2.52-.78,0-1.74-.42-2.64-1.44-.9-1.02-1.98-1.98-3.18-2.94-14.22,16.44-29.34,18.18-29.34,18.18Z" fill="#003383"/>
      <path d="m252.54,124.68c-.12,0-.18-.06-.18-.12,0-.18.78-.72,1.86-1.32,11.88-6.42,25.5-24.12,25.5-28.14,0-.84-.48-1.44-1.74-1.8-.78-.24-1.08-.54-1.08-.84,0-.48.78-1.5,2.52-1.5,2.82,0,6.9,2.58,6.9,4.86,0,1.5-1.86,2.46-3.06,4.32-1.32,2.1-2.94,4.2-4.74,6.3,1.44.72,2.52,2.16,2.52,3.54,0,.42-.06.78-.24,1.14-.42.84-.6,3.84-.6,7.2,0,4.44.24,9.48.24,11.28,0,3.24-.6,6.36-2.4,6.36-1.38,0-2.76-2.4-2.76-5.88,0-.9.12-1.86.3-2.82.3-1.56.54-1.56.72-3.18.3-2.76.36-6.36.36-9.36,0-2.7,0-4.44-.42-5.76-11.88,12.48-23.22,15.72-23.7,15.72Z" fill="#003383"/>
      <path d="m294.78,131.94c-.18,0-.24,0-.24-.12s.48-.54,1.38-1.08c9.18-5.64,16.8-19.08,16.8-23.82,0-2.4-1.56-3.18-3.36-3.36-.78-.12-1.2-.3-1.2-.72,0-.6.84-1.86,2.76-1.86,2.76,0,6.66,2.58,6.66,5.94,0,1.14-.36,2.16-.66,2.94-5.34,14.94-19.32,22.08-22.14,22.08Zm30.42-4.74c-1.32,0-4.38-3.18-4.38-4.98,0-.78.54-1.68.72-3.18.72-5.04,1.08-8.88,1.08-11.7,0-4.92-1.02-6.96-2.52-7.44-1.14-.42-1.62-.72-1.62-1.08,0-.66,1.92-1.2,3-1.2,2.76,0,5.64,3.48,5.64,6,0,.6-.06,1.2-.3,1.8-.84,2.52-1.62,13.2-1.62,14.58,0,.36.18.54.48.54.72,0,13.02-7.02,21.36-18.54.9-1.2,1.44-1.74,1.62-1.74.06,0,.06.06.06.12,0,1.5-6.84,14.94-20.1,24.48-.9.66-2.04,2.34-3.42,2.34Z" fill="#003383"/>
      <path d="m379.44,94.98c-.66,0-1.32.06-1.98.12,1.5,1.2,2.46,4.32,2.46,8.22,0,12.54-9.96,26.28-15.66,26.28-3.18,0-4.38-4.26-6.72-7.68-.96-1.38-1.44-3.36-1.44-5.58,0-9.06,7.8-23.52,24.24-23.52,13.74,0,21,9.42,21,19.32,0,5.4-2.22,10.98-6.72,15.24-7.68,7.2-19.08,7.98-19.62,7.98-.6,0-.84-.06-.84-.18,0-.3.9-.72,2.7-1.2,10.5-2.88,19.92-10.38,19.92-22.08,0-8.94-6.3-16.92-17.1-16.92h-.24Zm-5.46.78c-9.24,2.7-14.58,11.28-14.58,18.78,0,5.28,2.7,9.3,5.28,9.3,4.14,0,12.72-12.54,12.72-23.16,0-2.7-.36-5.16-2.16-5.16-.18,0-.36,0-.54.06-.18.06-.36.12-.48.12l-.24.06Z" fill="#003383"/>
      <path d="m17.28,185.94c-.48,0-.84.12-1.26.48-5.46,4.68-14.46,7.68-15.6,7.68-.18,0-.24,0-.24-.12s.3-.36.9-.66c4.8-2.52,11.52-8.76,12.36-11.94.06-.3.06-.48.24-.48.36,0,5.52,3.18,5.52,4.26,0,.42-.42.78-1.26.78h-.66Zm38.22,30.48c.18,0,.24,0,.24.06,0,.42-5.7,2.58-6.9,4.5-.3.48-.66.6-1.2.6-3.18,0-11.22-2.1-17.58-7.56-9.96,7.14-21.6,8.28-23.94,8.28-.54,0-.78-.06-.78-.18,0-.18.72-.42,2.1-.72,7.08-1.5,14.04-5.1,19.92-10.08-1.8-2.04-3.24-4.38-4.2-7.02-9.48,11.16-19.98,15.36-21.36,15.36-.12,0-.24,0-.24-.06,0-.18.42-.54,1.26-1.02,6.6-3.78,14.22-12.36,19.26-19.92.6-.9.84-1.74,1.08-2.7.06-.3.12-.42.3-.42.9,0,5.94,2.22,5.94,3.18,0,.42-.54.66-1.8.78-.78.06-1.14.48-1.62,1.2l-.18.24h9.36c.42,0,.78-.24,1.02-.42.06-.06,1.44-1.2,1.74-1.2.6,0,4.74,2.58,4.74,3.78,0,.42-.36.78-1.38,1.08-.9.3-1.38.24-1.98,1.02-2.04,2.52-4.2,4.74-6.54,6.72,5.16,3,11.76,4.62,19.2,4.62,1.08,0,2.16-.06,3.3-.12h.24Zm-18.72-38.34c.36.18.54.36.54.6,0,.36-.36.72-1.14.96-.72.24-.84.42-.84,2.94,0,1.26,0,2.64.06,4.02.06.96.24,2.52.24,3.6,0,5.52-6,6.06-6.54,6.06s-.84-.24-1.14-.9c-.84-1.8-5.1-3.66-5.46-4.14-5.1,8.28-17.76,11.22-18.6,11.22-.12,0-.18-.06-.18-.06,0-.18.66-.6,1.8-1.08,15.36-6.66,15.72-16.92,15.72-20.7,0-1.02-.06-1.8-.12-2.52-3.9.06-10.56.12-15.18.6h-.06c-1.08,0-2.76-2.28-2.76-3.06,6.18.72,16.38.96,19.86.96h3.06v-.12c-.06-2.46-.24-5.82-.72-7.92-.06-.18-.06-.3-.06-.36,0-.12.06-.18.12-.18.18,0,7.92.84,7.92,2.4,0,.42-.42.9-1.2,1.32q-1.26.72-1.38,2.46l-.12,2.4h11.76c.42,0,.84-.24,1.02-.54,1.44-2.16,2.82-4.08,3.54-4.08.18,0,.3.06.42.06,1.92.66,5.7,4.08,5.7,5.34,0,.36-.3.72-1.32.72h-14.94Zm-9.84,0c.3.18.42.36.42.54,0,.3-.36.6-.9.9-.9.48-.96.54-1.02,1.74-.24,3.84-1.14,7.08-2.82,9.84.12,0,.36.06.84.12,2.34.36,3.96.6,5.16.6,2.34,0,2.82-.3,2.82-5.28,0-3.42-.24-7.86-.36-8.46h-4.14Zm-2.4,24.48c-.18.24-.36.54-.6.78,1.38,2.34,3.18,4.44,5.34,6.24,2.34-2.22,5.76-6.18,5.76-6.78,0-.18-.24-.24-.54-.24h-9.96Zm22.86-10.38c-1.68-2.58-5.58-6-8.7-8.1-.42-.3-.6-.48-.6-.6,0-.06.12-.12.3-.12.36,0,14.28,2.46,14.28,8.1,0,1.56-1.02,2.76-2.34,2.76-.96,0-1.98-.6-2.94-2.04Z" fill="#003383"/>
      <path d="m115.02,210.3c0,.36-.3.72-1.32.72h-23.28l.18,9.3v.12c0,1.62-1.56,2.4-2.82,2.4-1.08,0-2.04-.66-2.04-2.1v-.3c.12-1.98.24-5.46.3-9.42h-3.96c-3.3,0-12.12.12-17.46.66h-.06c-1.08,0-2.64-2.34-2.64-3.12,6.12.72,16.98.96,20.4.96h3.78c.06-2.4.12-4.92.12-7.38h-9.72c0,.54.06.9.06,1.26v.06c0,1.2-1.44,1.92-2.82,1.92-1.08,0-2.04-.48-2.04-1.62v-.24c.3-2.76.42-7.8.42-9.3,0-.84-.12-3.9-.6-5.82-.06-.18-.06-.24-.06-.36s.06-.12.18-.12c.84,0,4.68,1.68,6.12,2.58.06,0,.06.06.12.06h8.34v-1.98c0-1.38-.06-3.66-.24-5.04h-2.88c0,.36.06.6.06.84,0,1.14-1.14,2.04-2.64,2.04-1.02,0-1.92-.48-1.92-1.68v-.18c.12-1.32.18-4.68.18-7.32-4.02.06-9.54.24-13.32.6h-.06c-1.08,0-2.76-2.28-2.76-3.06,4.44.54,11.46.78,16.2.9v-1.62c0-1.2-.18-3.36-.54-5.22-.06-.18-.06-.3-.06-.42s.06-.12.18-.12c.6,0,6.96.84,6.96,2.28,0,.42-.36.84-1.38,1.26-1.02.36-1.02,1.44-1.02,3.9h10.5v-1.5c0-1.2-.12-3.36-.54-5.4-.06-.18-.06-.3-.06-.36,0-.18.06-.18.24-.18,1.2,0,6.9.84,6.9,2.28,0,.42-.36.84-1.38,1.26-1.02.36-1.02,1.44-1.02,3.9h6c.36,0,.78-.24.96-.54.6-.96,2.64-4.02,3.6-4.02.18,0,.3,0,.42.06,1.56.54,5.46,3.96,5.46,5.22,0,.36-.3.72-1.32.72h-15.06l.18,6.96v.12c0,.84-.78,2.04-2.58,2.04-1.02,0-1.92-.54-1.92-1.8v-.96h-1.02c.18.12.24.24.24.36,0,.36-.42.72-1.02,1.02-.84.36-.96.48-1.08,1.86-.06.9-.06,2.22-.12,3.78h8.58c.3,0,.54-.06.78-.36,1.38-1.62,1.74-1.92,2.16-1.92,1.08,0,5.16,2.52,5.16,3.54,0,.48-.54.84-1.32,1.32-.96.54-1.14,1.26-1.14,2.88,0,1.92.24,5.28.36,6.9v.12c0,1.38-1.56,2.04-2.7,2.04-1.08,0-2.04-.54-2.04-1.68v-1.26h-9.9c0,2.52,0,4.98.06,7.38h13.98c.42,0,.84-.24,1.02-.54,1.2-1.8,2.82-4.08,3.66-4.08.18,0,.3,0,.42.06,2.1.72,5.58,4.38,5.58,5.34Zm-28.8-18.24h-8.64l-.36.24c-.72.48-.84.6-.84,4.5,0,1.2.06,2.58.06,3.84h9.78v-8.58Zm-3.24-14.88c0,1.62.06,3.42.12,4.92h10.32c.06-1.5.06-3.36.06-4.92h-10.5Zm17.22,15.6c0-.42-.36-.72-.78-.72h-9.06c-.06,2.52-.06,5.52-.06,8.58h9.96c0-2.7,0-6.06-.06-7.86Z" fill="#003383"/>
      <path d="m125.52,205.98c0-2.1.24-4.14.6-6.06.78-4.08,2.04-7.8,2.7-11.28.3-1.5.42-2.88.42-4.14,0-2.64-.54-4.62-1.14-5.7-.36-.66-.84-1.2-.84-1.5s.3-.42,1.2-.42c1.86,0,4.98,2.64,4.98,7.08,0,1.98-.66,3.96-1.68,6.48-1.5,3.72-3.3,8.22-3.3,12.3,0,1.38.36,3.72.9,3.72.18,0,.42-.3.66-.9,1.5-3.18,5.58-11.16,6.24-11.16.06,0,.12.12.12.24,0,.24-.12.72-.42,1.44-.84,1.98-4.08,10.56-4.08,15.66,0,1.26.18,2.28.42,3.24.12.42.18.84.18,1.2,0,1.5-.9,2.4-1.92,2.4-4.08,0-5.04-9.66-5.04-12.6Zm36.72,4.08c2.34,0,3.6,1.08,3.6,2.28,0,3.72-8.46,3.78-9.54,3.78-10.32,0-13.56-5.34-13.56-8.28,0-.42.06-.6.24-.6.3,0,.72.42,1.26,1.2,1.2,1.74,5.22,2.88,9.66,2.88,1.2,0,2.4-.06,3.6-.24,1.44-.24,2.4-.96,4.44-1.02h.3Zm-9.18-21.36c-9,0-9.48-5.4-9.48-5.82,0-.18.06-.24.24-.24s.6.24,1.14.54c1.68,1.02,3.9,1.38,6.12,1.38,1.74,0,3.42-.24,4.98-.6.78-.18,1.44-.6,2.22-.72.42-.06.78-.12,1.14-.12,1.92,0,3.12,1.02,3.12,2.1,0,2.94-6.54,3.48-9.48,3.48Z" fill="#003383"/>
      <path d="m183.36,184.68c-1.8.06-3.72.12-6.42.48h-.06c-.72,0-2.46-2.22-2.46-2.88,3.42.54,6.54.78,8.94.84-.18-10.8-.3-11.4-.84-14.04-.06-.18-.06-.24-.06-.36s.06-.18.18-.18c0,0,7.44.9,7.44,2.4,0,.54-.6,1.02-1.26,1.38-1.08.6-1.14.36-1.26,2.52-.12,2.04-.18,4.92-.24,8.28h.3c.12,0,.42-.18.6-.48,1.2-2.4,1.62-3.24,2.22-3.24.84,0,3.84,3.42,3.84,4.56,0,.3-.24.66-1.02.66h-5.94c-.06,2.94-.06,6.24-.06,9.48,2.46-.9,4.8-1.8,6.78-2.7.6-.24.96-.36,1.2-.36.06,0,.12,0,.12.06,0,.72-6.96,5.16-8.1,5.94,0,3.48.06,6.9.12,9.9,0,1.74.18,5.82.18,7.38,0,5.94-5.34,6.36-6.18,6.36-.6,0-.9-.18-1.26-.78-1.08-1.92-5.22-4.32-5.22-4.8,0-.06.12-.06.24-.06s.3,0,.54.06c1.98.42,3.48.66,4.62.66,2.04,0,2.82-.78,2.88-2.52.12-3.78.12-8.76.18-13.98-1.5.9-3.12,1.86-4.74,2.76-.48.24-.6,1.02-1.02,1.02-1.14,0-4.26-4.86-4.26-5.04s.18-.12.6-.18c3-.36,5.34-.96,9.42-2.4v-10.74Zm22.74-5.46c0,5.22.06,13.86.06,15.96-.12,23.4-18.06,25.86-18.78,25.86-.24,0-.36-.06-.36-.12,0-.18.42-.42,1.44-.84,9.3-3.66,13.44-14.34,13.68-23.94-1.92,2.64-4.62,6.3-6.96,8.88-.3.36-.3,1.02-.72,1.02-.9,0-4.38-3.84-4.38-4.2,0-.12.06-.18.3-.24,3.78-.9,11.34-7.02,11.76-7.32,0-16.32-.06-20.52-1.02-23.76-.06-.24-.12-.36-.12-.48,0-.18.12-.18.3-.18s6.78.54,6.78,2.04c0,.36-.3.78-1.02,1.2-.96.54-.96.6-.96,3v3.12Zm-9.06,8.76c-.48-1.68-1.8-4.38-3.18-6-.24-.24-.42-.48-.42-.6,0-.06.12-.12.3-.12,1.2,0,7.86,2.22,7.86,6.3,0,1.56-1.14,2.76-2.28,2.76-.9,0-1.8-.66-2.28-2.34Zm13.02,25.5c.12-3.66.18-23.88.18-32.64v-3.84c0-1.56,0-4.5-.42-6.96-.06-.18-.06-.3-.06-.42,0-.18.06-.18.24-.18.78,0,6.6,1.02,6.6,2.34,0,.42-.48.84-1.38,1.32-.6.3-.78.6-.84,1.8-.06,1.26-.18,6.84-.24,13.32,3.78-3.66,6.78-6.96,7.38-9.18.06-.18.12-.3.18-.3.48,0,5.1,3.84,5.1,5.28,0,.48-.42.72-1.14.72-.18,0-.42,0-.66-.06-.24-.06-.42-.06-.6-.06-.24,0-.42,0-.66.18-1.38.78-6.48,3.3-9.6,4.68v5.04c3.36.36,12.84,1.92,12.84,6.6,0,1.38-.9,2.58-2.16,2.58-.78,0-1.8-.54-2.76-1.74-2.22-2.76-5.16-4.86-7.92-6.48,0,3.9-.06,7.74-.06,10.8s.06,5.52.06,6.54c.12,2.46.66,3.06,3.84,3.06,5.46,0,6-1.08,7.26-9.12.06-.42.12-.6.18-.6.36,0,.54,6.36,1.68,7.14.96.66,1.38,1.44,1.38,2.22,0,1.74-2.4,4.38-10.5,4.38-6.06,0-7.92-1.8-7.92-6v-.42Z" fill="#003383"/>
      <path d="m266.94,206.04c-.24-3.78-.48-6.96-.48-9.6,0-4.98.66-11.94,6.54-11.94,4.5,0,8.1,3.84,8.1,7.38,0,1.92-1.08,3.48-3.18,3.48-.18,0-.42,0-.66-.06-.54-.06-1.2-.12-1.86-.12-1.32,0-2.76.12-3.84.42-.48.12-.78.18-1.02.18-.3,0-.42-.06-.42-.18,0-.24.36-.6.96-.9,2.76-1.56,5.16-3.06,5.16-4.74,0-1.56-1.86-3.48-3.78-3.48-3.9,0-4.14,5.16-4.14,7.38,0,2.76.42,5.7.78,7.8.54,2.76,1.86,5.1,1.86,7.44,0,3.54-4.44,11.16-15.42,11.16-2.52,0-12.06-.66-12.06-9.12,0-1.2.18-2.46.48-3.66-3.84,0-5.1-6.42-5.1-9.78,0-4.2,1.74-6.12,4.32-6.12,1.2,0,2.46.48,3.42,1.26v-6.78c-.78.12-1.5.18-2.16.18-4.92,0-6.96-5.16-6.96-5.76,0-.18.06-.3.24-.3.3,0,.9.3,1.8.96,1.38,1.02,3.18,1.32,4.92,1.32.78,0,1.5-.06,2.22-.12,0-.96,0-1.86.06-2.7v-.42c0-1.5-.6-2.28-1.08-2.82-.36-.36-.72-.6-.72-.96,0-.72.6-1.74,1.86-1.74,1.62,0,3.78,1.5,3.78,3.78v.24c1.8.54,2.76.6,3.6.6,1.62,0,3.42,0,3.42,1.68,0,3.24-6,4.86-8.28,5.46-.36,3.12-.54,6.66-.66,10.02.48,1.02.72,2.1.72,3.3,0,1.68-.48,3.48-1.56,5.4-1.2,2.1-2.04,4.2-2.04,6.06,0,4.68,5.46,5.94,8.82,5.94,5.28,0,12.36-2.76,12.36-9.48v-.66Zm-20.7-6.18c0-3-2.04-5.88-3.6-5.88-1.86,0-2.04,2.7-2.04,3.42,0,1.8,1.2,6.3,3.42,6.3,1.38,0,1.92-1.98,2.22-3.6v-.24Zm3.6-18.12c1.08-.3,3.18-.96,3.18-1.62,0-.18,0-.24-2.52-1.68-.12.72-.3,1.44-.48,2.28l-.18,1.02Z" fill="#003383"/>
    </g>
  </g>
</svg>