<?xml version="1.0" encoding="UTF-8"?>
<svg id="_レイヤー_2" data-name="レイヤー 2" xmlns="http://www.w3.org/2000/svg" viewBox="0 0 496.05 118">
  <g id="_デザイン" data-name="デザイン">
    <g>
      <path d="m26.75,42.25c0,1.3-1.25,2.3-2.65,2.3-1.05,0-1.95-.55-1.95-1.8v-.05c0-.8.05-1.65.05-2.5H4.9v2.4c0,.9-.9,2.2-2.65,2.2-1,0-1.85-.55-1.85-1.8v-.2c.4-5.6.5-12.2.5-18.35C.9,9.45.35,5.55.05,4.25c0-.1-.05-.2-.05-.3s.05-.15.15-.15c.35,0,4.4,1.55,5.85,2.55l.2.2h14.95c.25,0,.55-.2.7-.45.6-.9,1.65-1.9,2-1.9.5,0,5,2.45,5,3.7,0,.55-.6,1-1.45,1.35-.8.35-1,.5-1.05,1.5-.1,1.25-.1,3.4-.1,6.15,0,7.45.25,18.85.5,25.25v.1ZM6,7.9l-.4.3c-.7.45-.75.85-.75,2-.05,2.05-.05,6.55-.05,11.85h17.55c0-5.5-.05-10.4-.15-13.35,0-.5-.3-.8-.75-.8H6Zm-1.2,15.5c0,5,0,10.55.05,15.45h17.4c.05-4.95.1-10.4.1-15.45H4.8Z" fill="#fff"/>
      <path d="m82.6,33.85c0,.45-4.8.75-6.45,2.1-.25.2-.45.3-.7.3-1.75,0-11.75-10.7-15.3-22.4v2.95c0,4.6.05,9.95.15,15.05h1c.4,0,.7-.2.95-.55,1.75-2.6,1.85-2.75,2.15-2.75,1,0,4.15,3.15,4.15,3.9,0,.35-.25.65-1,.65h-7.25c.05,3.65.15,7.15.25,10.2v.05c0,1.65-1.95,2.05-2.6,2.05-1,0-1.9-.5-1.9-1.75v-.2c.2-2.85.35-6.45.45-10.35-2.05.05-5.5.2-7.15.4-1.1,0-1.95-1.7-1.95-2.2,1.85.35,5.95.55,9.1.55.1-4.5.15-9.35.15-13.6-8,14.35-21.15,20.25-22.3,20.25-.05,0-.1,0-.1-.05,0-.15.35-.4.95-.85,5.5-3.75,13.85-12.25,19.65-24h-1.05c-2.8,0-9.8.1-14.25.55h-.05c-.9,0-2.25-1.95-2.25-2.6,5.15.6,13.85.8,16.75.8h2.6c0-2.95,0-9.05-.65-11.85-.05-.15-.05-.25-.05-.35s.05-.15.15-.15c.75,0,6.6.9,6.6,2.1,0,.4-.45.8-1.2,1.2-.9.5-.85.5-1,1.8-.15,1.4-.2,3.95-.25,7.25h10.15c.35,0,.7-.2.85-.45,2.3-3.45,2.5-3.55,3-3.55.1,0,.2,0,.3.05,1.1.4,4.75,3.4,4.75,4.6,0,.3-.25.6-1.1.6h-17.25c3.85,7.4,12.05,16.85,21.35,20.05.25.1.35.15.35.2Z" fill="#fff"/>
      <path d="m103.7,13.8c0,.25-.2.55-.9.55h-5.85v3.1c2.95,0,6.05.9,6.05,3.35,0,1.05-.8,1.95-1.75,1.95-.55,0-1.2-.35-1.75-1.2-.75-1.15-1.5-2.55-2.55-3.35,0,9,.15,20,.3,25.05v.1c0,1.05-.9,2-2.3,2-.9,0-1.7-.5-1.7-1.8v-.1c.2-4.75.35-12.55.45-19.95-3.6,6.45-8.9,9.3-9.3,9.3t-.05-.05c0-.1.2-.45.75-1,2.5-2.5,7.75-11.2,8.65-16.6v-.75c-1.4.05-2.9.1-5.15.4h-.05c-.6,0-2-1.85-2-2.4,2.85.45,5.3.65,7.2.7,0-2.3-.2-9.95-.6-12.05-.05-.15-.05-.25-.05-.35s.05-.15.15-.15c0,0,5.95.75,5.95,2,0,.35-.4.65-1,1-.75.4-.95.45-1.05,1.7-.1,1.4-.2,4.25-.2,7.85h.45c.15,0,.5-.15.65-.4.4-.7,1.55-2.7,2.15-2.7,1.1,0,3.5,3.05,3.5,3.8Zm29.4,6.9c0,.3-3.25.8-4.6,1.9-.25.2-.45.3-.65.3-.05,0-2.2-.55-5.35-4.9-.5.35-.5.6-.5,1.4,0,.85.2,2.35.25,3.25v.05c0,1-1.1,1.5-1.85,1.5-.7,0-1.35-.35-1.35-1.2v-.7h-6.8c0,.3.05.6.05.8v.05c0,.9-1.15,1.35-1.9,1.35s-1.4-.35-1.4-1.1v-.2c.2-1.45.3-4.05.3-5v-.2c-4,4.1-8.1,6.5-9.05,6.5-.1,0-.15,0-.15-.05,0-.15.35-.5,1.05-1.05,3.3-2.6,7.05-6.9,9.55-11.45l-5.7.35h-.05c-.85,0-2.3-1.75-2.3-2.35,3.5.4,6.25.5,8.75.6.8-1.6.95-2.1,1.4-3.4-3,.3-6.1.5-8.45.5-1.75,0-2.65-.15-2.65-.3,0-.1.4-.25,1.25-.3,5.25-.45,16.35-3.15,18.35-5.15.15-.15.2-.25.3-.25.3,0,3.75,2.8,3.75,3.75,0,.35-.3.55-.85.55-.3,0-.6-.05-1-.15-.2-.05-.4-.1-.65-.1s-.5.05-.7.1c-1.2.3-3,.6-5.1.9h.1s.05,0,.05.05c.45.25.8.6.8.95,0,.3-.35.6-1.25.7-.55.05-.45.15-.75.7l-.9,1.55h8.15c.25,0,.55-.15.7-.4,1.6-2.2,2.1-2.65,2.45-2.65.25,0,4.05,2.2,4.05,3.65,0,.3-.2.6-1,.6h-9.35c2.2,3.5,7.6,7.6,12.7,8.7.2.05.3.1.3.15Zm-3,6.55c0,.35-.3.6-.85.9-1.1.6-1.1.75-1.1,4.15,0,1.05.05,2.3.05,3.5,0,.9.15,3.05.15,3.9v.1c0,3.35-2.6,5-5.3,5.1-.65,0-.85-.1-1.25-.65-.75-1.05-5.15-2.95-5.15-3.3,0-.05.05-.1.2-.1.1,0,.2.05.35.05,2.15.3,3.7.5,4.85.5,2.15,0,2.8-.6,2.85-2,.05-1.3.1-3.35.1-5.5s-.05-4.35-.1-6c0-.35-.2-.65-.7-.65h-16.3l-.25.2c-.65.45-.65.85-.65,8.15,0,2.75,0,5.75.05,8.1v.05c0,1.05-1.05,1.7-2.1,1.7-.85,0-1.6-.45-1.6-1.4v-.1c.3-4.35.4-9.2.4-12.2v-1.9c0-.65-.1-3.85-.5-5.55,0-.1-.05-.2-.05-.25,0-.15.05-.15.15-.15.25,0,2.3.65,4.4,2l.15.1h16.45c.2,0,.45-.15.65-.4.3-.35.6-.9.95-1.15.15-.1.25-.2.4-.2.5,0,3.75,2,3.75,3Zm-7.8,4.15c0,.35-.3.6-.75.85-.75.45-.75.35-.75,1.2,0,.8.15,2.75.25,3.85v.15c0,1-.95,1.5-1.75,1.5-.7,0-1.3-.4-1.3-1.25v-.75h-4.6v1.6c0,.85-.85,1.45-1.8,1.45-.7,0-1.3-.35-1.3-1.15v-.2c.15-1.4.3-3.9.3-5.65,0-.55-.05-2.3-.35-3.75v-.15c0-.2.05-.25.2-.25.5,0,3.05,1.05,3.75,1.5.05,0,.1.05.1.05h2.95c.2,0,.4-.05.55-.3.5-.9,1.1-1.2,1.3-1.2.05,0,3.2,1.25,3.2,2.5Zm-3.1-19.55h-4.85c-.8,1.2-1.7,2.35-2.6,3.45l1.35.75c.05,0,.05.05.1.05h5.1c.2,0,.35-.05.55-.25.9-1.1,1.25-1.1,1.3-1.1.1,0,.2,0,.35.1-.55-1.05-1-2.05-1.3-3Zm-.15,5.95c0-.3-.2-.5-.55-.5h-5.55l-.25.15c-.5.3-.45.4-.5,1.05v2.6h6.9c0-1.2,0-2.5-.05-3.3Zm-1.05,14.4c0-.3-.2-.55-.6-.55h-3.3l-.25.2c-.45.35-.5.4-.5,3.95h4.65v-3.6Z" fill="#fff"/>
      <path d="m158.55,22.45c0,.65-.1,2.75-1.35,9.2,3.1-.35,6.15-.6,8.65-.75,1.95-.1,2.45-.75,3.85-.75.8,0,6.25,1.15,6.25,3.35,0,.85-.85,1.5-2.1,1.5-.3,0-.6,0-.95-.1-2.85-.7-6-.95-9.2-.95-6.3,0-12.7,1-16.9,1.95-1.65.4-2.3.7-3.25.7-2.35,0-6.55-1.65-6.55-4.2,0-.7.15-.9.45-.9s.75.25,1.3.5c1.55.75,3.75,1.1,5.2,1.1.25,0,.65,0,10.2-1.1.3-2,.5-5.15.5-7.25,0-1.6-.15-4.2-1.2-5-3.7.7-4.6.7-4.8.7-2.8,0-4.95-1.2-4.95-3,0-.5.15-1.3.55-1.3.25,0,.6.25,1,.55.8.55,2.15.8,3.75.8,4.2,0,9.95-1.55,10.9-1.85,1.8-.55,2.45-1.6,4.25-1.6,1.7,0,4.45.8,4.45,2.2,0,.85-.95,1.65-2.7,1.7-2.45.05-5.95.6-9.25,1.2,1.8.85,1.9,2.25,1.9,3.3Z" fill="#fff"/>
      <path d="m188,24.9c0-.25.05-.5.05-.8.2-2.3.3-3.75.3-5.4,0-5.9-.5-9.2-2.7-9.35-.7-.05-1.25-.25-1.25-.65,0-.3.85-1.45,2.5-1.45,1,0,5.4,1.55,5.4,3.5,0,.35-.15.7-.35,1.1-.35.7-.35,2.05-.35,2.65,0,5.6.25,8.1.3,8.65.05.45.1.8.1,1.05,0,.75-.4,3.95-2.25,3.95-.9,0-1.75-1.05-1.75-3.25Zm-3.2,19.75c-.1,0-.2-.05-.2-.1,0-.2.55-.6,1.95-1.5,7.15-4.4,12.05-13.4,12.4-24.25.05-2.15,0-3.75.15-6.15.05-.6.05-1.1.05-1.6,0-3.5-.9-4.4-2.1-4.6-.6-.05-1.15-.25-1.15-.65,0-.25.65-1.45,2.3-1.45,2.2,0,6.05,2.6,6.05,4,0,.6-.4,1.2-.65,1.9-.75,2.05-.9,4.2-1,9-.25,19.35-16.3,25.4-17.8,25.4Z" fill="#fff"/>
      <path d="m230.45,14.7c.55,0,1.1.2,1.75.35,1.7.4,2.6,1.15,2.7,2.8,1.7-1.25,7.3-5.8,7.3-7.15,0-.55-.6-.85-1.2-.85-2.35,0-9.6.9-15.2,2.75-1.55.5-2.45.95-3.55.95-.95,0-6.55-1.45-6.55-4.65,0-.5.2-.8.55-.8.25,0,.55.2.9.5.8.75,2.55,1.05,4.6,1.05.8,0,1.7-.05,2.6-.15,4.85-.5,11.05-1.4,15.45-1.75,1.85-.15,1.9-.8,2.7-.8,1.3,0,6.4,2.5,6.4,4.7,0,1.35-2.5,1.55-3.5,2.15-3.25,2.05-7.6,4.35-10.65,5.7-1.35,7.5-9.2,19.85-20.05,23.15-1.05.3-1.6.45-1.85.45-.1,0-.15,0-.15-.05,0-.15.6-.5,1.5-1.05,9.4-5.35,16.2-18.2,16.2-23.05,0-1.4-.55-2-1.45-2-1.05,0-1.45-.25-1.45-.55,0-.7,1.7-1.7,2.8-1.7h.15Z" fill="#fff"/>
      <path d="m277.05,9.35c-.55,0-1.1.05-1.65.1,1.25,1,2.05,3.6,2.05,6.85,0,10.45-8.3,21.9-13.05,21.9-2.65,0-3.65-3.55-5.6-6.4-.8-1.15-1.2-2.8-1.2-4.65,0-7.55,6.5-19.6,20.2-19.6,11.45,0,17.5,7.85,17.5,16.1,0,4.5-1.85,9.15-5.6,12.7-6.4,6-15.9,6.65-16.35,6.65-.5,0-.7-.05-.7-.15,0-.25.75-.6,2.25-1,8.75-2.4,16.6-8.65,16.6-18.4,0-7.45-5.25-14.1-14.25-14.1h-.2Zm-4.55.65c-7.7,2.25-12.15,9.4-12.15,15.65,0,4.4,2.25,7.75,4.4,7.75,3.45,0,10.6-10.45,10.6-19.3,0-2.25-.3-4.3-1.8-4.3-.15,0-.3,0-.45.05-.15.05-.3.1-.4.1l-.2.05Z" fill="#fff"/>
      <path d="m316.35,14.8c0,.35-.4.65-1.35.65-.5,0-.65.2-1.15.75-.9,1.05-1.85,2.05-2.8,3l1.05.25c.55.2.75.4.75.7s-.35.65-.9.9c-.85.4-.85.8-.9,2-.15,2.8-.2,7.25-.2,11.5,0,3.3.05,6.45.1,8.65v.1c0,1.35-1.25,2.1-2.3,2.1-.85,0-1.65-.55-1.65-1.85v-.25c.4-5,.75-13.05.8-17.65v-3.35c-4.5,3.9-7.65,4.85-7.7,4.85s-.1-.05-.1-.1c0-.1.25-.3.75-.7,4.5-3.3,10.85-11.65,11.5-14.6.05-.2.05-.35.15-.35.05,0,3.95,2.2,3.95,3.4Zm-.4-9.2c0,.35-.35.55-1,.55h-.55c-.35,0-.45.15-.9.55-6.1,5.7-11.8,7.95-12.6,7.95-.15,0-.2,0-.2-.05,0-.1.25-.35.75-.65,3.45-2.15,9.45-8.6,10.35-11.7.05-.15.05-.25.15-.25.45,0,4,2.6,4,3.6Zm1.35,34.5c-.4.15-.6.6-.95.6-.7,0-3.1-3.75-3.1-4.2,0-.1.05-.1.2-.1h.25c.4.05.85.05,1.3.05,1.8,0,3.4-.2,6.9-.75v-7.2c-1.45.05-3.2.15-5.4.45h-.05c-.6,0-2.05-1.85-2.05-2.4,2.8.4,5.5.65,7.5.7,0-.8-.05-1.55-.05-2-.05-1.2-.1-2.55-.45-4.5-.05-.15-.05-.25-.05-.3,0-.1.05-.15.15-.15.65,0,5.7.75,5.7,1.85,0,.3-.35.6-.9.9-1.1.6-1.2.85-1.2,4.2h2.15c.1,0,.35-.15.5-.4.35-.55,1.6-2.25,2.15-2.25.05,0,.15,0,.2.05,1.2.6,3.1,2.35,3.1,3.3,0,.3-.2.55-.85.55h-7.25v6.6c3.4-.65,6.85-1.4,9-2,.4-.1.65-.15.85-.15s.25.05.25.1c0,.95-11.05,5.05-17.9,7.05Zm15.85-21.3c0,.3-.2.55-.85.55h-9.15c-1.85,0-3.95.05-7.05.45h-.05c-.65,0-2.05-1.8-2.05-2.35,2.95.45,5.9.6,7.9.65v-6.85c-1.35.05-2.9.15-4.85.4h-.05c-.65,0-2.05-1.8-2.05-2.35,2.55.4,5,.55,6.95.65,0-4.05-.1-6.05-.5-8.4-.05-.15-.05-.25-.05-.3,0-.15.05-.2.2-.2.5,0,5.65.75,5.65,1.9,0,.3-.35.65-.9.95-.8.45-1.05.45-1.1,1.8-.05.9-.1,2.5-.1,4.3h1.6c.1,0,.4-.15.55-.4.05-.1,1.45-2.25,2.1-2.25.45,0,3.35,2.25,3.35,3.3,0,.3-.2.6-.85.6h-6.75v6.85h2.05c.1,0,.4-.1.55-.35.35-.6,1.5-2.25,2.1-2.25.05,0,.15,0,.2.05,1.45.75,3.15,2.3,3.15,3.25Zm14.4-.6c0,.3-.25.6-.95.6h-5.1l.3.1c.45.15.7.35.7.55s-.25.45-.7.65c-.75.35-.75.45-.8,1.65-.05,2.05-.1,4.8-.1,7.45,0,3.25.05,6.05.25,10.05v.2c0,3.7-3.6,5.5-5.55,5.5-.45,0-.65-.15-.95-.7-.85-1.4-4.95-3.5-4.95-3.85,0-.05.05-.05.15-.05s.25,0,.45.05c1.9.4,3.35.65,4.45.65,2,0,2.8-.75,2.9-2.2.1-1.05.1-4.4.1-7.9,0-6.85-.15-10.45-.3-12l-2.8.35h-.05c-.85,0-2.15-1.9-2.15-2.5,4,.6,6.15.75,7.3.75h.65c.3,0,.55-.2.7-.45.3-.5,1.85-2.95,2.4-2.95.1,0,.2,0,.25.05,1.35.6,3.8,2.9,3.8,4Zm-1.5-11.3c0,.3-.25.6-.95.6h-6c-1.2,0-2.8.25-4.4.5h-.1c-.85,0-2.15-1.9-2.15-2.5,3,.6,4.7.75,5.7.75h.8c.25,0,.5-.2.65-.45.3-.5,1.85-2.95,2.4-2.95.1,0,.2,0,.25.05,1.35.6,3.8,2.9,3.8,4Z" fill="#fff"/>
      <path d="m365.25,39.2c-2,0-2.8-.1-2.8-.3s1.05-.45,2.55-.7c16.25-2.55,23.35-10.2,23.35-16,0-4.35-4-7.45-8.9-7.45-4.5,0-10,2.35-15.1,7.45-2.05,2.05-4.3,2.95-6.25,2.95-3.1,0-4.75-2.2-4.75-2.85,0-.35.55-.4,1.25-.45,2.05-.2,5.5-1.7,8.65-3.7,4.5-2.85,10.1-5.5,15.6-5.5,7.3,0,13.15,5.05,13.15,10.85,0,7.4-9.1,15.7-26.5,15.7h-.25Zm23.75-26.2c-1.3-1.5-2.9-2.7-4.2-3.4-.45-.25-.8-.45-.8-.55,0-.4,1.85-.4,1.95-.4,3.9,0,5.9,1.75,5.9,3.4,0,.95-.65,1.7-1.5,1.7-.4,0-.9-.25-1.35-.75Zm5.25-2.4c-1.35-1.45-3-2.65-4.35-3.3-.45-.2-.8-.35-.8-.5,0-.25,1.15-.45,2.35-.45,2.55,0,5.6,1,5.6,3.25,0,.95-.65,1.7-1.45,1.7-.4,0-.9-.2-1.35-.7Z" fill="#fff"/>
      <path d="m413.85,42c-.45-6.5-5.4-14.15-7.75-16.9-.95-1.1-1.35-2.25-1.35-3.4,0-1.05.35-2.1.95-3.25,1.25-2.4,5.05-7.45,6.8-10,.55-.8,1.5-2.3,1.5-3.5,0-.4-.1-.75-.35-1.05-.35-.45-.5-.8-.5-1,0-.3.15-.4.5-.4.8,0,4.25,1.4,4.25,4.15,0,1.1-.55,2.2-1.45,3.25-2.45,2.8-7.4,6.45-9.15,9.65-.25.5-.55,1.2-.55,2,0,.65.2,1.4.9,2.15,4.2,4.45,10.5,11.65,10.5,17.4,0,2.1-1.3,3.4-2.45,3.4-.9,0-1.75-.75-1.85-2.5Z" fill="#fff"/>
      <path d="m446.2,21.9c0-6.3-2.15-12.1-5.25-12.1-2.65,0-5.25,3.95-5.25,8.85,0,2.9.9,4.85,1.5,6.2.2.5.3,1,.3,1.5,0,1.5-.85,2.75-1.85,2.75-1.4,0-3.4-3.8-3.4-7.8,0-2.95.8-5.95,1.4-9,.25-1.35.9-4.3.9-6.45,0-1.2-.2-2.15-.8-2.45-.4-.2-.8-.45-.8-.75,0-.35.75-1.15,1.6-1.15,1.1,0,2.95,1,2.95,4,0,1-.05,1.25-1.65,7.3-.1.35-.15.6-.15.7,0,.05.05.1.05.1.05,0,.2-.25.4-.8,1.4-3.7,3.7-5.35,5.95-5.35,5.3,0,7.95,7.55,7.95,14.2,0,16.55-14.55,24.35-16.5,24.35-.05,0-.1,0-.1-.05,0-.15.45-.6,1.55-1.35,7.2-5.05,11.2-14.15,11.2-22.7Z" fill="#fff"/>
      <path d="m462.45,31.85c0-1.75.2-3.45.5-5.05.65-3.4,1.7-6.5,2.25-9.4.25-1.25.35-2.4.35-3.45,0-2.2-.45-3.85-.95-4.75-.3-.55-.7-1-.7-1.25s.25-.35,1-.35c1.55,0,4.15,2.2,4.15,5.9,0,1.65-.55,3.3-1.4,5.4-1.25,3.1-2.75,6.85-2.75,10.25,0,1.15.3,3.1.75,3.1.15,0,.35-.25.55-.75,1.25-2.65,4.65-9.3,5.2-9.3.05,0,.1.1.1.2,0,.2-.1.6-.35,1.2-.7,1.65-3.4,8.8-3.4,13.05,0,1.05.15,1.9.35,2.7.1.35.15.7.15,1,0,1.25-.75,2-1.6,2-3.4,0-4.2-8.05-4.2-10.5Zm30.6,3.4c1.95,0,3,.9,3,1.9,0,3.1-7.05,3.15-7.95,3.15-8.6,0-11.3-4.45-11.3-6.9,0-.35.05-.5.2-.5.25,0,.6.35,1.05,1,1,1.45,4.35,2.4,8.05,2.4,1,0,2-.05,3-.2,1.2-.2,2-.8,3.7-.85h.25Zm-7.65-17.8c-7.5,0-7.9-4.5-7.9-4.85,0-.15.05-.2.2-.2s.5.2.95.45c1.4.85,3.25,1.15,5.1,1.15,1.45,0,2.85-.2,4.15-.5.65-.15,1.2-.5,1.85-.6.35-.05.65-.1.95-.1,1.6,0,2.6.85,2.6,1.75,0,2.45-5.45,2.9-7.9,2.9Z" fill="#fff"/>
      <path d="m95.5,96.05v.15c0,1-.95,1.95-2.1,1.95-.8,0-1.55-.5-1.55-1.55v-.3c.35-3.15.6-9.05.6-11v-.65c-3.6,4-6.3,5.5-6.7,5.5-.05,0-.1,0-.1-.1s.15-.35.55-.75c1-1,2.1-2.35,3.15-3.85h-5.6c-.05,2.65-.05,5.65-.05,8.6,2.45-.9,4.7-1.8,6.45-2.6.5-.2.8-.3.95-.3.1,0,.15.05.15.1,0,.55-4.05,3.25-7.55,5.55,0,2.85.05,5.65.1,8.1,0,1.35.15,4.65.15,5.9,0,4-3.3,5.3-5.35,5.3-.45,0-.7-.15-1-.65-.9-1.6-4.25-3.55-4.25-4,0-.05.05-.05.2-.05.1,0,.25,0,.45.05,1.65.35,2.9.55,3.85.55,1.7,0,2.35-.65,2.4-2.1.1-3.1.1-7.2.15-11.45l-4,2.3c-.4.2-.5.85-.9.85-1,0-3.55-4.2-3.55-4.2,0-.1.15-.05.5-.1,1.75-.2,2.55-.3,7.95-2.1v-9.7c-1.6.05-3.5.15-5.6.4h-.05c-.6,0-2.05-1.85-2.05-2.4,2.65.4,5.5.6,7.7.65-.15-8-.25-8.75-.7-11.05-.05-.15-.05-.2-.05-.3s.05-.15.15-.15c.4,0,6.25.85,6.25,2,0,.45-.5.85-1.05,1.15-.9.5-.95.3-1.05,2.1-.1,1.6-.15,3.75-.2,6.3h.45c.15,0,.4-.15.55-.4,1.45-2.45,1.55-2.55,2-2.55.05,0,.15,0,.2.05,1.1.5,2.3,1.85,2.95,3.15,0,.05.05.05.05.1,1.35-2.05,4.85-7.65,5.3-10.8.05-.35.05-.45.2-.45.55,0,4.95,1.95,4.95,2.9,0,.4-.6.75-1.45.8-.75.05-.9.2-2.7,2.9l.3.1.25.15h5.05c.5-1.7.95-3.85.95-6.55,0-.3,0-.4.15-.4.2,0,5.3,1.55,5.3,2.65,0,.4-.5.8-1.45.9-.45.05-.6.25-.85.55-.9,1.05-1.75,2.05-2.65,2.85h5.6c.2,0,.45-.15.6-.4.55-1,1.85-2.4,2.3-2.4.55,0,4,2.3,4,3.45,0,.3-.2.55-.95.55h-9.45c.6.3.65.3.65.5,0,.25-.35.55-1,.8-.3.1-.4.85-.4,1.35,0,.35-.05.7-.05,1.05h2.95c.2,0,.5-.2.65-.4.7-1,1.65-1.85,1.95-1.85.65,0,3.65,1.9,3.65,2.9,0,.25-.2.5-.95.5h-8.3c0,1.1-.05,2.25-.05,3.45h3.05c.2,0,.5-.15.65-.4.5-.7,1.1-1.25,1.6-1.65.1-.1.25-.15.4-.15.65,0,3.6,1.8,3.6,2.85,0,.3-.2.55-.95.55h-8.35c0,1.45.05,2.85.05,4.05h5c.2,0,.5-.15.65-.4.05-.05,1.65-2.4,2.35-2.4s4.1,2.2,4.1,3.4c0,.3-.2.55-.95.55h-20.2Zm9.15,21c-.55,0-.85-.3-1.05-.7-.65-1.35-4.9-3.45-4.9-3.7h.05s.2,0,.45.1c2.05.65,4,1,5.7,1,2.1,0,3.8-.6,4.75-1.95,1.4-2,1.85-5.35,1.85-5.45,0-.3-.2-.5-.45-.5h-4.5l-.6,1.95c-.35,1-1.3,1.45-2.15,1.45-.8,0-1.5-.4-1.5-1.1,0-.2.05-.4.15-.65.95-2.15,2.05-5.55,2.05-6.25,0-.2-.15-.3-.4-.3h-5.2c1.4.3,1.8.45,1.8.75,0,.2-.2.45-.55.6-.55.2-.65.05-1,1.45-3.4,13.4-16.75,13.6-17.55,13.6-.35,0-.5-.05-.5-.15s.45-.3,1-.45c8.55-2.1,13.7-9.1,13.7-15.75-2.1.05-4.2.15-6.35.35h-.05c-.75,0-2.1-1.7-2.1-2.35,4.75.6,10.5.7,12.25.7h4.3c.25,0,.55-.15.75-.4.3-.3.75-.85,1.05-1.05.15-.15.25-.2.4-.2.45,0,3.85,1.75,3.85,2.9,0,.5-.65.75-1.15.95-1.15.4-1.2.4-1.85,2.65h3.9c.35,0,.7-.1.85-.3.6-.75,1.3-1.1,1.4-1.1.85,0,3.55,1.85,3.55,2.6,0,.45-.4.8-1.15,1.2-.4.2-.75.25-.85.8-1,4.35-2.5,9.3-9.35,9.3h-.6Zm-3.1-30.85h-6.05c-.05,1.1-.05,2.25-.05,3.45h6.1v-3.45Zm-6.1,4.65c0,1.45.05,2.85.05,4.05h5.95c.05-1,.1-2.5.1-4.05h-6.1Zm1.35-9.5l-.55.3c-.3.1-.7.45-.7,3.4h6c0-1.2-.05-2.5-.25-3.7h-4.5Z" fill="#fff"/>
      <path d="m136.35,97.3c5.1-5.25,10.15-7.35,14.45-7.35,6.65,0,11.45,5,11.45,9.95,0,10.75-16.1,15.8-18.85,15.8-.15,0-.25-.05-.25-.1,0-.15.6-.45,1.85-1,4.55-1.95,13.15-7.45,13.15-14.5,0-5.5-5.2-7.8-9-7.8-6.2,0-10.45,4.25-13.25,7.05-.2,2.65-.2,4.4-.2,4.6,0,2.9.45,5.95,1.05,8.4.15.65.2,1.2.2,1.7,0,1.6-.65,2.45-1.45,2.45-.95,0-2.05-1.25-2.3-3.95-.15-1.9-1.2-4.65-2.15-6.65-1.05,2.3-1.55,3.9-1.95,5.05-.85,2.35-2.4,3.6-3.4,3.6-.6,0-1.05-.4-1.05-1.3,0-.95.5-3.1,5.15-9.8-1-1.85-2.2-3.5-2.95-4.25-.8-.8-1.2-1.5-1.2-2.15s.45-1.15,1.3-1.55c1.15-.5,2-1.2,2.65-1.85,1.75-1.8,3.9-3.4,5.95-4.7.05-.8.1-1.55.1-2.25.05-.95.05-1.75.05-2.45,0-3.9-.75-4.95-3.15-6.5-.45-.25-.65-.4-.65-.6,0,0,.65-.9,1.95-.9.7,0,4.45.35,4.45,5.1,0,.95-.65,5.6-.85,6.6h.35c2.05,0,2.8.55,2.8,1.4,0,1.05-1.1,2.6-2.2,4.1-.7.9-1.45,2.05-2.25,3.35l-.1.8.3-.3Zm-5.3,4.4c1.25-1.6,2.65-3.7,3.8-5.65.2-1.75.35-3.5.5-5.05-1.5,1.05-2.8,2.75-3.65,4.65-.7,1.5-1.35,1.95-2.95,2.2-.45.05-.6.2-.6.45,0,.45.65,1.6,2.2,4.35l.7-.95Zm.55,3.05c1.55,2.7,1.85,3,2.1,3,.1,0,.2-.1.2-.4,0-2.15.25-4.35.45-6.45-.85,1.1-1.7,2.2-2.5,3.3l-.25.55Zm5.05-11.8c.9-1.65.9-2.05.9-2.1,0-.35-.1-.6-.45-.65l-.45,2.75Z" fill="#fff"/>
      <path d="m181.05,96.1s.1-.05.25-.15c2.25-1.45,5.05-2.25,7.85-2.25,6.45,0,10.4,4.5,10.4,9.35s-4.6,11.4-13.8,11.4c-4.85,0-8.1-2.4-8.1-5.1,0-2.4,2.5-3.75,4.9-3.75,3.3,0,5.35,2.55,5.35,5.15,0,.4-.05.85-.15,1.25,5.8-1.4,8.05-5.4,8.05-8.9,0-3.95-2.8-7.5-7.85-7.5-1.75,0-7.55.45-10.9,7.55-1.2,2.6-2,4.15-3.7,4.15-.9,0-1.6-.7-1.6-1.7,0-1.45,1.85-3.6,4.15-6.25,3-3.45,10.05-12.95,12.15-16.4.25-.35.35-.7.35-.95,0-.35-.2-.85-1.25-.85-2.35,0-3.45,4.8-6.8,4.8-1.85,0-3.35-1.2-3.35-3.05,0-.55.1-1,.45-1,.25,0,.55.1.95.25.4.15.8.2,1.2.2.7,0,1.4-.2,2.05-.7,1.95-1.35,4.25-3,6.9-3,2.95,0,4.75,2.05,4.75,3.15,0,1-1.1,1.9-2.15,2.7-3.6,2.75-10.1,11.45-10.1,11.55v.05Zm3.85,14.45c0-1.75-1.35-3.25-3.2-3.25-2.2,0-2.25,1.65-2.25,1.9,0,.2,0,2.55,5,3.05.3-.55.45-1.15.45-1.7Z" fill="#fff"/>
      <path d="m217.15,83.75c-1.95,0-4.45.05-7.55.45h-.05c-.6,0-2.05-1.85-2.05-2.4,3.7.55,7.7.7,9.75.7h1.6c.15,0,.45-.15.6-.4,1.7-2.85,2.2-2.85,2.3-2.85.65,0,4.15,2.8,4.15,4,0,.25-.2.5-.95.5h-7.8Zm6.45,30.05c0,1.1-1.15,1.75-2.15,1.75-.8,0-1.55-.4-1.55-1.4,0-.35.05-.75.05-1.1h-5.85c0,.8.05,1.6.05,2.4v.05c0,1.2-1.45,1.65-2.15,1.65-.85,0-1.6-.4-1.6-1.45v-.15c.3-3.75.35-5.65.35-7.55,0-5.1-.5-7.65-.6-8.1,0-.1-.05-.2-.05-.25,0-.1.05-.15.1-.15.25,0,4.05,1.3,5,2.25h3.75c.2,0,.4-.05.6-.35.55-.9,1.35-1.65,1.55-1.65.7,0,4.1,1.95,4.1,3.05,0,.45-.45.8-1,1.2-.95.6-.95.95-.95,2.55,0,1.85.15,4.1.35,7.15v.1Zm-6.35-37c-1.5,0-2.7.1-5,.45h-.05c-.7,0-1.85-1.65-1.85-2.4,2.9.55,5.45.7,7,.7h.55c.1,0,.35-.15.5-.4.45-.85,1.3-2,1.8-2.55.1-.1.25-.15.4-.15.1,0,.2,0,.25.05,1.3.6,3.5,2.75,3.5,3.65,0,.35-.2.65-.9.65h-6.2Zm0,13.2c-1.5,0-2.7.05-5,.45h-.05c-.6,0-1.85-1.55-1.85-2.4,2.9.55,5.45.7,7,.7h.65c.1,0,.4-.15.55-.4.05-.1,1.35-2.55,2.15-2.55.05,0,.15,0,.2.05,1.2.55,3.45,2.65,3.45,3.5,0,.3-.2.65-.9.65h-6.2Zm0,6.6c-1.5,0-2.7.05-5,.45h-.05c-.6,0-1.85-1.65-1.85-2.4,2.9.55,5.5.7,7.05.7h.6c.1,0,.4-.15.55-.4.3-.55,1.5-2.55,2.15-2.55.15,0,.25,0,.3.05,1.05.5,3.35,2.6,3.35,3.5,0,.35-.2.65-.9.65h-6.2Zm2.7,15.15c.05-2.1.1-3.75.1-5.25,0-.95-.05-1.9-.1-2.8,0-.3-.15-.6-.5-.6h-4.4l-.4.3c-.4.3-.5.55-.5,1.35,0,.5-.05,1.15-.05,7h5.85Zm21.1-29.35c2.7,4.7,7.15,9.7,13.35,12.05.3.1.45.2.45.3,0,.5-3.15.8-4.7,2.15-.2.2-.4.3-.6.3-1.25,0-6.8-6.95-9.3-14.8h-3.7c-1.2,2.65-2.7,5.15-4.3,7.35,2.15.35,3.4.45,4.85.45h.5c.2,0,.35-.2.5-.45.7-1.25,1.3-2.25,1.7-2.25.1,0,.2,0,.25.05,1.9.95,3,2.8,3,3.2,0,.3-.15.6-.8.6h-5.35c-1.6,0-2.15.15-3.75.4h-.05c-.4,0-1.05-.55-1.5-1.15-4.45,5.75-8.6,7.8-9.05,7.8-.1,0-.15-.05-.15-.1,0-.15.15-.35.45-.6,3.95-3.2,7.7-9.05,10-15.2-1.55.05-3.25.15-5.05.35h-.05c-.75,0-2.15-1.85-2.15-2.4,2.6.35,5.4.55,7.75.65.85-2.55,1.6-5.65,1.6-7.8,0-.55.05-.55.05-.55.1,0,6,1.45,6,2.5,0,.4-.5.8-1.55,1-.5.1-.75.35-.9.9-.4,1.35-.9,2.7-1.45,4h7.75c.15,0,.5-.15.65-.4.55-.9,1.9-2.75,2.45-2.75.9,0,4.3,2.8,4.3,3.9,0,.25-.25.5-1,.5h-10.2Zm-5.95,22.35l-.75,2.65c-.3.95-1.4,1.45-2.35,1.45-.8,0-1.5-.35-1.5-1.1,0-.2.05-.45.15-.7.4-.9,2.3-6,2.45-8.6-1.45.1-2.9.2-4.4.35h-.05c-.8,0-2.2-1.7-2.2-2.35,4.2.5,7.45.7,9.95.7h4.9c.25,0,.45-.15.6-.4,1.35-1.95,1.7-2.45,2.1-2.45.1,0,.2.05.3.05,1.6.7,3.6,2.6,3.6,3.4,0,.3-.2.6-.95.6h-9.25s.05.1.05.2c0,.2-.2.45-.7.65-.6.2-.7.3-1.65,4.3h6.45c.5,0,.9-.15,1.1-.35.5-.55.7-.9,1.1-1.2.1-.1.2-.15.35-.15.7,0,3.9,2.1,3.9,2.8,0,.4-.4.75-1.25,1.15-.65.3-.75.35-.85,1.1-.55,3.8-1.85,10.5-8.9,10.6-.45,0-.9-.25-1.05-.65-.85-1.95-4.7-4.1-4.7-4.4,0,0,.05-.05.1-.05s.2.05.4.1c2.3.65,4.05,1.1,5.5,1.1,1,0,4.95-.2,5.3-8.1,0-.35-.15-.7-.55-.7h-7.2Z" fill="#fff"/>
      <path d="m276.45,93.9c0-6.3-2.15-12.1-5.25-12.1-2.65,0-5.25,3.95-5.25,8.85,0,2.9.9,4.85,1.5,6.2.2.5.3,1,.3,1.5,0,1.5-.85,2.75-1.85,2.75-1.4,0-3.4-3.8-3.4-7.8,0-2.95.8-5.95,1.4-9,.25-1.35.9-4.3.9-6.45,0-1.2-.2-2.15-.8-2.45-.4-.2-.8-.45-.8-.75,0-.35.75-1.15,1.6-1.15,1.1,0,2.95,1,2.95,4,0,1-.05,1.25-1.65,7.3-.1.35-.15.6-.15.7,0,.05.05.1.05.1.05,0,.2-.25.4-.8,1.4-3.7,3.7-5.35,5.95-5.35,5.3,0,7.95,7.55,7.95,14.2,0,16.55-14.55,24.35-16.5,24.35-.05,0-.1,0-.1-.05,0-.15.45-.6,1.55-1.35,7.2-5.05,11.2-14.15,11.2-22.7Z" fill="#fff"/>
      <path d="m306.5,101.8c-4,2.5-5.6,5-5.6,6.95s2.05,4.3,6.25,4.3c1.85,0,3.95-.45,5.75-1.4.6-.3,1.15-.45,1.65-.45,1.25,0,2.1.8,2.1,1.75,0,2.3-4.45,3.6-8.05,3.6-5.4,0-9.8-3.25-9.8-7.05,0-3.1,2.8-6.6,7.75-9.55,0-3.1-.4-7.4-3.2-7.4-1.2,0-2.7.95-4.45,3.3l-1.5,2.8c-1.05,1.9-2.25,3.9-3.65,3.9-.2,0-1.5-.05-1.5-1.8,0-1,.5-2.45,2.05-3.85,4.6-4.15,6.1-6.85,8.3-11.8l.1-.2-.05.05c-1,.25-1.9.4-2.75.4-4.85,0-6.2-3.4-6.2-4.75,0-.2.05-.25.15-.25.25,0,.6.2,1.25.65,1.5,1.05,2.9,1.35,4.2,1.35,1.5,0,3.05-.35,4.4-.8.1-.55.1-1.05.1-1.4,0-1.15-.2-2.5-1.9-2.9-.45-.1-.9-.25-.9-.5,0-.15.75-1.25,2.45-1.25,1.3,0,2.35.4,2.85,2.3h.4c.95.05,1.7.15,2.3.15.25,0,.45-.05.65-.1.3-.15.6-.2.85-.2,1.25,0,1.25,1.15,1.25,1.35,0,2.65-5,4.6-6.75,5.2l-.1.25c-1.7,3.7-2.75,5.6-3.85,7.55.95-.5,1.85-.7,2.7-.7,2.6,0,4.5,2.15,5.2,5.2,1.45-3.65,5.3-10.65,11.05-10.65,2.75,0,6.2,1.85,6.2,4.4,0,1.95-2.1,3.95-5.5,5.25-3.5,1.3-7.8,3-11.2,4.65.15,1.15.2,2.35.2,3.55,0,.6,0,1.25-.05,1.85-.15,1.95-1.5,3.25-2.6,3.25-.75,0-1.4-.65-1.4-2.3,0-.15.05-.4.05-.6.1-1.25.75-1.75.8-3.4v-.7Zm-.1-23.55c.05.2.05.4.05.6,0,.55-.1,1.1-.2,1.7,1.15-.55,1.75-.85,1.75-1.45,0-.25-.2-.5-1.45-.8l-.15-.05Zm12.7,15.1c2.2-1.2,3.2-2.4,3.2-3.5s-.95-2.45-2.9-2.45c-4.6,0-8.8,7.05-10.15,11.05,3.05-1.6,6.95-3.5,9.85-5.1Z" fill="#fff"/>
      <path d="m377.15,83c0,.45-.35.85-1.2,1.25-1.15.55-1.15.7-1.15,2,.05,1.5.05,3.25.05,5.15,0,4.8-.15,10.35-.6,13.75-1.6,11.3-8.35,11.75-9.4,11.75-.35,0-.75-.15-.9-.6-.5-1.45-5.7-4.2-5.7-4.55h.05c.1,0,.2,0,.35.05,1.95.55,3.7.9,5.25.9,6.6,0,7.4-7.25,7.4-22.2,0-2.8-.05-5.3-.05-6.8,0-.65-.25-.8-.75-.8h-16.25c-3.3,5.1-6.2,7.55-7.05,8.2l.15,16.45c0,1.1.1,2.45.15,3.3v.3c0,4.15-3.95,5.15-5.15,5.15-.45,0-.7-.2-.95-.7-.55-1.05-4.55-3.1-4.55-3.5,0-.05.05-.1.15-.1s.25,0,.45.05c1.6.3,2.75.4,3.7.4,2.45,0,2.75-.9,2.8-2.2.1-2.65.1-7.2.1-12.05h-5.15c-1.15,16.4-8.15,19.4-8.3,19.4-.05,0-.1-.05-.1-.15,0-.15.2-.5.65-1.05,3.85-4.65,4.65-14.3,4.65-22.75,0-9.2-.2-15.55-.9-18.85-.05-.15-.05-.25-.05-.35s.05-.1.1-.1c.3,0,3.15.9,4.7,1.95l.25.15h3.25c.25,0,.55-.2.65-.4.05-.05,1-1.6,1.5-1.6.7,0,3.8,2.05,3.8,2.95,0,.5-.5.9-1.05,1.2-.75.4-.75.8-.8,1.55-.1,1.65-.1,5.65-.1,10.2l.15-.15c2.7-3.45,7-13.2,7-17.1,0-.45.1-.5.2-.5,1.05,0,5.4,1.95,5.4,2.7,0,.4-.5.8-1.45,1-.65.15-.7.35-1,.95-.65,1.35-1.45,2.8-2.35,4.3h15.25c.55,0,.7-.15.85-.4.5-.75,1.25-1.6,1.6-1.6.65,0,4.35,2.3,4.35,3.45Zm-33.2-4.75c0-.3-.15-.55-.6-.55h-3.55c-.1.05-.15.2-.25.25-.4.3-.55.65-.55,1.2v.9c0,1.8.05,4.4.05,7h5c0-3.9-.05-7.15-.1-8.8Zm.1,10.05h-5c0,2.15.05,4.3.05,5.75,0,.95-.05,1.95-.1,2.9h5.05v-8.65Zm23.05,4.15c-.1,1.4-.15,2.85-.15,4.4,0,2.8.15,6,.3,10.05,0,.35-.35,1.8-1.9,1.8-.75,0-1.4-.45-1.4-1.55v-.05c0-.5.05-1.05.05-1.55h-10.1v3.75c0,1.1-1,1.8-1.9,1.8-.7,0-1.35-.45-1.35-1.55v-.1c.2-4.3.4-9,.4-13.1,0-1.85-.05-6.6-.35-8.05v-.2q0-.1.1-.1c.8,0,4.95.9,4.95,1.75,0,.3-.3.6-.75.85-.75.4-.85.25-.9,1.45,1.1.2,2.65.5,4.15,1.05.65-2.75,1.05-5.7,1.05-6.65v-.35c0-.2-.05-.3-.05-.4s.05-.15.1-.15c.2,0,4.6,1.05,4.6,2.15,0,.2-.1.4-.35.55h.05s5.15.75,5.15,1.8c0,.3-.3.65-.75.9-.8.45-.85.2-.95,1.5Zm-13.05.2c-.15,3.4-.15,7.5-.15,11.7h.1c1.5-2.4,2.75-5.8,3.7-9.15-1.15-1-2.5-1.95-3.65-2.55Zm9.55-4.35c-.2.15-.5.25-.8.35-.45.15-.75.25-.85.75-.35,1.5-.8,3.1-1.35,4.75,1.05.6,2.8,1.8,2.8,3.45,0,1-.6,1.85-1.4,1.85-.55,0-1.15-.4-1.7-1.3-.25-.35-.5-.8-.8-1.15-1.2,2.75-2.7,5.4-4.7,7.35h9.2c.05-2.45.05-4.7.05-6.75,0-6.8-.3-8.6-.4-9-.05-.15-.05-.25-.05-.3Z" fill="#fff"/>
      <path d="m385.7,103.85c0-1.75.2-3.45.5-5.05.65-3.4,1.7-6.5,2.25-9.4.25-1.25.35-2.4.35-3.45,0-2.2-.45-3.85-.95-4.75-.3-.55-.7-1-.7-1.25s.25-.35,1-.35c1.55,0,4.15,2.2,4.15,5.9,0,1.65-.55,3.3-1.4,5.4-1.25,3.1-2.75,6.85-2.75,10.25,0,1.15.3,3.1.75,3.1.15,0,.35-.25.55-.75,1.25-2.65,4.65-9.3,5.2-9.3.05,0,.1.1.1.2,0,.2-.1.6-.35,1.2-.7,1.65-3.4,8.8-3.4,13.05,0,1.05.15,1.9.35,2.7.1.35.15.7.15,1,0,1.25-.75,2-1.6,2-3.4,0-4.2-8.05-4.2-10.5Zm30.6,3.4c1.95,0,3,.9,3,1.9,0,3.1-7.05,3.15-7.95,3.15-8.6,0-11.3-4.45-11.3-6.9,0-.35.05-.5.2-.5.25,0,.6.35,1.05,1,1,1.45,4.35,2.4,8.05,2.4,1,0,2-.05,3-.2,1.2-.2,2-.8,3.7-.85h.25Zm-7.65-17.8c-7.5,0-7.9-4.5-7.9-4.85,0-.15.05-.2.2-.2s.5.2.95.45c1.4.85,3.25,1.15,5.1,1.15,1.45,0,2.85-.2,4.15-.5.65-.15,1.2-.5,1.85-.6.35-.05.65-.1.95-.1,1.6,0,2.6.85,2.6,1.75,0,2.45-5.45,2.9-7.9,2.9Z" fill="#fff"/>
    </g>
  </g>
</svg>