<?xml version="1.0" encoding="UTF-8"?>
<svg id="_レイヤー_2" data-name="レイヤー 2" xmlns="http://www.w3.org/2000/svg" viewBox="0 0 389.59 79.72">
  <g id="_デザイン" data-name="デザイン">
    <g>
      <path d="m8.42,8.1c-1.44,0-3.89.04-6.16.32h-.04c-.47,0-1.51-1.33-1.51-1.73,2.74.4,6.26.5,7.77.5h1.73c.11,0,.36-.11.47-.29.04-.07,1.22-2.05,1.73-2.05.83,0,3.02,2.12,3.02,2.88,0,.18-.14.36-.68.36h-6.33Zm4.72,22.17c0,.68-.58,1.33-1.55,1.33-.61,0-1.15-.32-1.15-1.08v-.83h-4.68v1.48c0,.76-.83,1.19-1.58,1.19-.61,0-1.19-.29-1.19-1.04v-.11c.22-2.7.25-4.5.25-6.01,0-2.7-.22-4.61-.4-5.47,0-.07-.04-.14-.04-.18,0-.07.04-.11.07-.11.29,0,2.88,1.08,3.6,1.58l.07.07h3.17c.14,0,.32-.07.47-.29.14-.22.86-1.12,1.22-1.12.18,0,2.92,1.19,2.92,2.12,0,.32-.36.58-.76.86-.68.43-.68.68-.68,1.87,0,1.4.11,3.46.25,5.65v.07ZM8.35,3.1c-1.12,0-2.27.07-3.96.32h-.04c-.5,0-1.4-1.19-1.4-1.73,2.12.4,4.14.5,5.29.5h.58c.07,0,.25-.11.36-.29.29-.58,1.22-1.91,1.62-1.91.07,0,.14,0,.18.04.5.22,2.59,1.69,2.59,2.59,0,.25-.14.47-.65.47h-4.57Zm0,9.5c-1.12,0-2.27.04-3.96.32h-.04c-.43,0-1.4-1.12-1.4-1.73,2.12.4,4.14.5,5.29.5h.65c.07,0,.29-.11.4-.29.29-.5,1.15-1.8,1.62-1.8.04,0,.11,0,.14.04.4.18,2.52,1.66,2.52,2.48,0,.22-.14.47-.65.47h-4.57Zm0,4.75c-1.12,0-2.27.04-3.96.32h-.04c-.47,0-1.4-1.19-1.4-1.73,2.12.4,4.18.5,5.33.5h.61c.07,0,.29-.11.4-.29.11-.18,1.12-1.8,1.58-1.8.11,0,.18,0,.22.04.9.4,2.48,1.84,2.48,2.48,0,.25-.14.47-.65.47h-4.57Zm2.09,11.41c.04-1.58.07-2.88.07-4.1,0-.76-.04-1.48-.07-2.16,0-.25-.11-.47-.4-.47h-3.6l-.29.22c-.4.25-.4.32-.4,1.01-.04,1.04-.07,2.12-.07,3.2,0,.76.04,1.55.04,2.3h4.72Zm19.76,1.84c0,.86-.94,1.26-1.58,1.26s-1.22-.32-1.22-1.08v-1.51h-7.52v1.55c0,.65-.61,1.26-1.66,1.26-.61,0-1.19-.32-1.19-1.04v-.11c.29-3.31.32-7.06.32-8.78,0-.47-.07-3.02-.36-4.32-.04-.11-.04-.18-.04-.22s.04-.07.04-.07c.14,0,2.59.86,3.6,1.58h.07s.04,0,.04.04h1.69c.04-1.58.04-4.28.04-6.73-1.76.04-4.57.11-6.77.32h-.04c-.47,0-1.48-1.33-1.48-1.73,2.77.32,6.26.47,8.28.5,0-1.66-.04-3.13-.04-3.78-.04-.9-.04-2.02-.11-2.77-2.3.18-4.64.32-6.59.32-.58,0-.86-.11-.86-.22s.25-.22.76-.29c.22-.04,10.73-1.69,12.92-3.89.07-.07.11-.14.18-.14.04,0,.07.04.14.07,0,0,2.3,2.16,2.3,3.06,0,.25-.14.4-.47.4-.22,0-.5-.07-.9-.22-.14-.04-.29-.07-.47-.07h-.18c-1.04.25-2.3.47-3.71.65l.25.07c.36.11.5.29.5.47,0,.22-.25.47-.5.58-.61.25-.68.29-.72,1.19s-.04,2.63-.04,4.57h2.95c.18,0,.43-.14.54-.32.94-1.48,1.62-2.3,1.94-2.3.07,0,.14.04.22.04.54.18,3.17,2.09,3.17,3.06,0,.25-.18.43-.76.43h-8.06c0,2.48,0,5.11.04,6.73h1.73c.14,0,.32-.07.47-.25.76-1.01,1.01-1.19,1.26-1.19.65,0,2.99,1.51,2.99,2.2,0,.32-.32.58-.76.83-.61.32-.72.4-.72,2.34s.14,5.36.29,7.42v.11Zm-2.77-2.27c.04-1.48.04-2.99.04-4.32s0-2.59-.07-3.42c0-.22-.11-.47-.47-.47h-6.33l-.22.18c-.43.32-.47.22-.5,1.12-.04,1.04-.07,2.41-.07,3.85,0,1.01.04,2.09.04,3.06h7.59Z" fill="#000f3c"/>
      <path d="m70.56,27.18c.07,0,.11.04.11.07,0,.32-2.41,2.05-2.92,3.24-.14.36-.43.61-.83.65-1.37.14-4.9.47-8.57.47-4.39,0-13.28-.11-16.31-8.28-1.55,6.01-5.04,9.07-5.9,9.07-.04,0-.07-.04-.07-.07,0-.11.14-.36.4-.65,2.52-2.88,3.71-9.14,3.71-11.48,0-.4,0-.79-.07-1.26,0-.07-.04-.14-.04-.22,0-.04.04-.07.22-.07.83,0,3.56.5,3.56,1.15,0,.18-.22.36-.65.54-.47.22-.61.11-.76,1.12-.04.32-.07.61-.14.94.5,1.26,1.3,2.38,2.41,3.35.04-1.04.04-2.52.04-3.82,0-.9,0-4-.14-5.29h-.36c-.97,0-2.95.04-5.26.29h-.04c-.54,0-1.48-1.26-1.48-1.66,2.95.47,5.87.47,6.84.47h4.57c.11,0,.32-.11.43-.29.36-.54.9-1.12,1.3-1.48.11-.07.22-.11.32-.11.07,0,.14.04.18.04,1.01.4,2.52,1.62,2.52,2.27,0,.25-.14.47-.68.47h-5.26c.18.07.25.18.25.32,0,.18-.18.36-.5.5-.47.18-.47.32-.47,3.78h1.37c.14,0,.29-.14.4-.32.32-.61.83-1.33,1.15-1.69.07-.07.14-.11.25-.11.04,0,.11,0,.14.04.83.4,2.34,1.73,2.34,2.56,0,.22-.14.4-.61.4h-5.04v5.18l.65.32.25-.07c2.41-.68,8.53-3.13,9.83-5.98.07-.14.11-.22.18-.22.5,0,2.88,1.98,2.88,2.34,0,.25-.29.43-.9.43h-.36c-.25,0-.5.04-.72.18-3.2,2.09-7.16,3.24-10.29,3.64,1.94.76,4.43,1.12,7.81,1.12,4.43,0,9.75-.65,13.93-1.8.14-.04.25-.07.32-.07ZM52.49,3.2c0,.32-.32.58-.76.83-.47.29-.58.32-.58,2.41,0,1.66.14,3.42.25,5.65v.07c0,.76-.54,1.44-1.51,1.44-.58,0-1.08-.36-1.08-1.15v-.43h-6.33v.76c0,.79-.83,1.3-1.55,1.3-.58,0-1.08-.32-1.08-1.04v-.14c.22-2.92.25-4.75.25-6.26,0-3.38-.32-5.22-.4-5.51,0-.11-.04-.14-.04-.22s.04-.11.11-.11,2.34.83,3.38,1.62l.04.04h4.9c.22,0,.4-.18.5-.32.61-.9.86-1.12,1.15-1.12.22,0,2.74,1.26,2.74,2.2Zm-3.64.72c0-.25-.11-.5-.54-.5h-5.15l-.22.18c-.5.36-.5.58-.5,3.06h6.44c0-.94,0-1.84-.04-2.74Zm-6.41,3.67v3.49h6.41c.04-1.3.04-2.45.04-3.49h-6.44Zm26.85-4.43c0,.22-.18.4-.72.4h-6.66c1.26.36,1.26.47,1.26.65,0,.22-.29.43-.94.54-.4.07-.58.29-.72.5-.5.72-1.08,1.51-1.62,2.12h3.38c.14,0,.29-.07.43-.25.83-.97.94-1.04,1.15-1.04.65,0,2.95,1.37,2.95,2.02,0,.29-.32.54-.76.79-.72.43-.58.54-.61,1.19,0,.4-.04.9-.04,1.51,0,2.34.11,6.05.29,8.75v.04c0,1.04-1.04,1.33-1.62,1.33s-1.12-.32-1.12-1.01v-.04l.04-.36h-6.52l.04.32v.04c0,.72-.79,1.15-1.58,1.15-.58,0-1.12-.29-1.12-1.01v-.11c.22-2.77.29-5.72.29-7.85,0-1.01-.04-1.8-.04-2.34,0-.43-.11-3.02-.4-4.43-.04-.11-.04-.14-.04-.22t.04-.04c.32,0,2.7.97,3.56,1.55h.65c.25-1.26.36-3.1.36-3.42v-.36c-1.55.04-3.31.11-4.9.29h-.04c-.54,0-1.51-1.26-1.51-1.66,3.13.4,7.45.47,9.21.47h1.84c.11,0,.36-.11.47-.29.14-.22,1.37-2.02,1.8-2.02.07,0,.14.04.22.04,1.12.43,2.95,2.05,2.95,2.74Zm-11.81,9.11c0,.9-.04,1.87-.04,2.92h6.59c0-1.01.04-2.02.04-2.92h-6.59Zm-.04,3.82c0,1.12.04,2.23.04,3.31h6.52c0-1.08.04-2.2.04-3.31h-6.59Zm6.55-7.42c0-.18-.18-.4-.43-.4h-5.44c-.07.07-.18.11-.29.18-.29.18-.32.22-.32.86,0,.54-.04,1.26-.04,2.09h6.55c0-1.15,0-2.12-.04-2.74Zm4.75,16.85c0,.83-.65,1.48-1.4,1.48-.54,0-1.15-.32-1.69-1.12-1.08-1.66-2.77-2.84-4.25-3.78-.18-.11-.29-.22-.29-.25s.11-.07.29-.07c.25,0,7.34.65,7.34,3.74Z" fill="#000f3c"/>
      <path d="m88.63,6.41c-.4,0-.79.04-1.19.07.9.72,1.48,2.59,1.48,4.93,0,7.52-5.98,15.77-9.4,15.77-1.91,0-2.63-2.56-4.03-4.61-.58-.83-.86-2.02-.86-3.35,0-5.44,4.68-14.11,14.54-14.11,8.24,0,12.6,5.65,12.6,11.59,0,3.24-1.33,6.59-4.03,9.14-4.61,4.32-11.45,4.79-11.77,4.79-.36,0-.5-.04-.5-.11,0-.18.54-.43,1.62-.72,6.3-1.73,11.95-6.23,11.95-13.25,0-5.36-3.78-10.15-10.26-10.15h-.14Zm-3.28.47c-5.54,1.62-8.75,6.77-8.75,11.27,0,3.17,1.62,5.58,3.17,5.58,2.48,0,7.63-7.52,7.63-13.89,0-1.62-.22-3.1-1.3-3.1-.11,0-.22,0-.32.04s-.22.07-.29.07l-.14.04Z" fill="#000f3c"/>
      <path d="m122,8.24c0,.25-.25.5-.83.79-.54.29-.72.25-.86,1.33-2.48,18.03-14.61,21.63-14.72,21.63-.04,0-.07-.04-.07-.07,0-.14.32-.47.79-.76,8.53-5.65,10.73-17.96,10.73-22.61,0-.65-.04-1.19-.11-1.91v-.14q0-.07.07-.07c.65,0,5,.94,5,1.8Zm18.5,20.55c0,.4-3.89.4-4.97,1.51-.14.14-.36.25-.58.25-.14,0-.29-.04-.43-.14-4.86-3.92-8.96-11.63-9.07-25.92,0-.4-.36-.72-.72-.72h-.76c-1.04,0-3.35.14-5.4.4h-.04c-.5,0-1.66-1.48-1.66-1.91,2.63.4,5.94.58,7.02.58h.94c.22,0,.43-.14.58-.32.61-.79,1.01-1.22,1.33-1.22.18,0,2.77,1.3,2.77,2.27,0,.4-.43.68-.97.83-1.15.36-2.09.32-2.09.9v.07c1.12,12.17,5.51,19.94,13.79,23.25.18.07.25.14.25.18Z" fill="#000f3c"/>
      <path d="m174.99,30.42c0,.25-.14.47-.76.47h-19.44c-1.94,0-7.24.07-10.33.4h-.04c-.65,0-1.73-1.37-1.73-1.84,3.56.43,10.26.54,12.27.54h2.23c.04-1.08.04-2.23.04-3.46h-.83c-1.94,0-5.33.04-8.42.36h-.04c-.65,0-1.73-1.37-1.73-1.8,3.56.43,8.35.54,10.37.54h.68c0-1.26.04-2.56.04-3.85h-5.51v.79c0,.79-.83,1.26-1.66,1.26-.61,0-1.19-.32-1.19-1.08v-.14c.25-2.81.29-4.93.29-6.59,0-2.99-.32-5.04-.47-5.72-.04-.11-.04-.18-.04-.22,0-.07.04-.11.07-.11.43,0,2.92,1.08,3.74,1.66l.11.11h4.64c0-1.3-.04-2.41-.04-3.31h-2.16c-1.94,0-7.09.07-10.19.4h-.04c-.65,0-1.73-1.37-1.73-1.84,3.56.43,10.11.54,12.13.54h1.98v-.32c-.04-.94-.07-1.91-.18-2.81-2.84.22-5.79.32-8.42.32-2.99,0-3.42-.11-3.42-.32,0-.11.22-.22.76-.25,4.75-.32,13.25-1.62,17.57-3.06.76-.25,1.33-.61,1.73-.86.18-.11.25-.18.29-.18.36,0,2.7,2.41,2.7,3.17,0,.29-.25.4-.58.4-.22,0-.47-.04-.76-.14-.18-.07-.43-.11-.68-.11h-.14c-1.4.25-3.28.5-5.36.72.25.11.32.25.32.4,0,.22-.22.43-.58.58-.5.25-.58.32-.61,1.44,0,.25-.04.61-.04,1.04h8.46c.22,0,.5-.14.61-.32.97-1.37,1.69-2.3,2.05-2.3.76,0,3.53,2.16,3.53,3.06,0,.25-.14.47-.76.47h-13.93c0,.94-.04,2.05-.04,3.31h5.29c.22,0,.4-.14.5-.29.25-.32.65-.79.86-.97.14-.11.25-.18.43-.18.54,0,3.1,1.62,3.1,2.3,0,.32-.43.58-.94.86-.65.32-.65.43-.65,2.3,0,1.62.14,3.49.29,5.54v.07c0,.86-.86,1.4-1.62,1.4-.61,0-1.15-.32-1.22-1.01h-6.05v3.85h5.58c.22,0,.5-.14.61-.32.76-1.04,1.66-2.12,1.94-2.12,1.04,0,3.42,2.12,3.42,2.88,0,.25-.14.47-.76.47h-10.8c0,1.3.04,2.48.04,3.46h8.93c.22,0,.5-.14.61-.32.29-.43,1.62-2.34,2.12-2.34.94,0,3.49,2.34,3.49,3.1Zm-17.67-17.78h-4.68c-.11.07-.22.18-.36.25-.54.36-.58.43-.58,3.17h5.62v-3.42Zm0,4.32h-5.62c0,1.22.04,2.56.07,3.92h5.54v-3.92Zm8.53-3.85c0-.25-.11-.47-.5-.47h-5.54v3.42h6.12c0-1.04-.04-2.02-.07-2.95Zm-6.05,3.85v3.92h6.05c.04-1.44.07-2.74.07-3.92h-6.12Z" fill="#000f3c"/>
      <path d="m184.07,12.02c0,.86-.65,1.62-1.44,1.62-.43,0-.94-.22-1.37-.83-.58-.79-1.87-2.05-2.88-2.59-.29-.18-.43-.29-.43-.36,0-.25,1.8-.25,1.87-.25,3.96,0,4.25,1.87,4.25,2.41Zm0,12.81c0,.86.11,1.73.43,2.56.25.61.36,1.19.36,1.66,0,1.3-.72,2.12-1.62,2.12-.83,0-1.66-.79-1.66-2.59v-.36c.07-1.04.29-2.12.29-3.06,0-1.4-.5-2.56-2.74-3.1-.61-.14-.94-.29-.94-.4s.36-.18.97-.22c1.48-.04,2.45-.25,2.92-1.55,1.91-5.15,7.13-18.21,7.96-18.21.04,0,.07.04.07.11,0,.14-.07.4-.22.79-1.62,4.54-5.83,17.13-5.83,22.25Zm2.66-20.23c0,.94-.68,1.69-1.48,1.69-.54,0-1.08-.32-1.55-1.15-.47-.86-1.58-2.23-2.59-2.99-.25-.18-.4-.32-.4-.4,0-.11.83-.11.9-.11,2.45,0,5.11,1.01,5.11,2.95Zm11.37,9.68c0,1.01-.72,1.76-1.4,1.76-.5,0-1.01-.4-1.15-1.4s-.61-2.3-1.19-3.2c-.07,10.01-1.22,17.17-9.93,20.63-.58.22-1.04.36-1.26.36-.07,0-.14,0-.14-.04,0-.11.29-.32.97-.72,6.52-3.67,7.92-9.68,7.92-20.27,0-1.98-.07-8.03-.5-10.01-.04-.11-.04-.18-.04-.22,0-.07.04-.11.11-.11.43,0,4.35.83,4.35,1.69,0,.18-.14.4-.61.61-.79.4-.94.36-.94,1.48v.5c.04,1.91.07,3.74.07,5.47.04,0,.07.04.11.04,1.44.43,3.64,1.62,3.64,3.42Zm-10.19,3.1c-.68,0-1.26-.47-1.26-1.19,0-.43.22-.94.68-1.44,1.3-1.4,1.8-3.17,1.8-4.72v-.14c0-.4.04-.54.07-.54.22,0,1.22,1.94,1.22,4.1,0,2.56-1.22,3.92-2.52,3.92Zm17.31-3.06c0,1.01-.76,1.76-1.44,1.76-.5,0-.97-.4-1.15-1.4-.18-1.08-.72-2.52-1.4-3.42l-.11-.18v2.38c0,5.29.07,11.41.18,14.11v.04c0,.72-.76,1.44-1.58,1.44-.61,0-1.15-.36-1.15-1.26v-.07c.14-3.89.29-11.7.29-16.99,0-1.4,0-6.7-.4-8.53-.04-.11-.04-.18-.04-.22,0-.07.04-.11.11-.11.79,0,4.21.86,4.21,1.58,0,.25-.18.47-.54.68-.76.43-.83.14-.94,1.55-.07,1.15-.11,2.99-.14,5.11.32,0,4.1,1.12,4.1,3.53Zm3.38-9.83c-.11,1.55-.14,4.46-.14,7.88,0,6.08.11,13.75.22,18.14v.04c0,.86-.9,1.44-1.66,1.44-.65,0-1.19-.36-1.19-1.26v-.07c.14-4.86.29-13.5.29-19.51,0-4.39-.07-8.67-.4-10.15-.04-.11-.04-.18-.04-.22s0-.07.07-.07c.36,0,4.32.68,4.32,1.55,0,.25-.18.47-.54.68-.76.43-.83.14-.94,1.55Z" fill="#000f3c"/>
      <path d="m230.83,15.84c0,.47-.07,1.98-.97,6.62,2.23-.25,4.43-.43,6.23-.54,1.4-.07,1.76-.54,2.77-.54.58,0,4.5.83,4.5,2.41,0,.61-.61,1.08-1.51,1.08-.22,0-.43,0-.68-.07-2.05-.5-4.32-.68-6.62-.68-4.54,0-9.14.72-12.17,1.4-1.19.29-1.66.5-2.34.5-1.69,0-4.72-1.19-4.72-3.02,0-.5.11-.65.32-.65s.54.18.94.36c1.12.54,2.7.79,3.74.79.18,0,.47,0,7.34-.79.22-1.44.36-3.71.36-5.22,0-1.15-.11-3.02-.86-3.6-2.66.5-3.31.5-3.46.5-2.02,0-3.56-.86-3.56-2.16,0-.36.11-.94.4-.94.18,0,.43.18.72.4.58.4,1.55.58,2.7.58,3.02,0,7.16-1.12,7.85-1.33,1.3-.4,1.76-1.15,3.06-1.15,1.22,0,3.2.58,3.2,1.58,0,.61-.68,1.19-1.94,1.22-1.76.04-4.28.43-6.66.86,1.3.61,1.37,1.62,1.37,2.38Z" fill="#000f3c"/>
      <path d="m252.04,17.6c0-.18.04-.36.04-.58.14-1.66.22-2.7.22-3.89,0-4.25-.36-6.62-1.94-6.73-.5-.04-.9-.18-.9-.47,0-.22.61-1.04,1.8-1.04.72,0,3.89,1.12,3.89,2.52,0,.25-.11.5-.25.79-.25.5-.25,1.48-.25,1.91,0,4.03.18,5.83.22,6.23.04.32.07.58.07.76,0,.54-.29,2.84-1.62,2.84-.65,0-1.26-.76-1.26-2.34Zm-2.3,14.22c-.07,0-.14-.04-.14-.07,0-.14.4-.43,1.4-1.08,5.15-3.17,8.67-9.65,8.93-17.46.04-1.55,0-2.7.11-4.43.04-.43.04-.79.04-1.15,0-2.52-.65-3.17-1.51-3.31-.43-.04-.83-.18-.83-.47,0-.18.47-1.04,1.66-1.04,1.58,0,4.36,1.87,4.36,2.88,0,.43-.29.86-.47,1.37-.54,1.48-.65,3.02-.72,6.48-.18,13.93-11.73,18.29-12.81,18.29Z" fill="#000f3c"/>
      <path d="m282.6,10.26c.4,0,.79.14,1.26.25,1.22.29,1.87.83,1.94,2.02,1.22-.9,5.26-4.18,5.26-5.15,0-.4-.43-.61-.86-.61-1.69,0-6.91.65-10.94,1.98-1.12.36-1.76.68-2.56.68-.68,0-4.72-1.04-4.72-3.35,0-.36.14-.58.4-.58.18,0,.4.14.65.36.58.54,1.84.76,3.31.76.58,0,1.22-.04,1.87-.11,3.49-.36,7.95-1.01,11.12-1.26,1.33-.11,1.37-.58,1.94-.58.94,0,4.61,1.8,4.61,3.38,0,.97-1.8,1.12-2.52,1.55-2.34,1.48-5.47,3.13-7.67,4.1-.97,5.4-6.62,14.29-14.43,16.67-.76.22-1.15.32-1.33.32-.07,0-.11,0-.11-.04,0-.11.43-.36,1.08-.76,6.77-3.85,11.66-13.1,11.66-16.59,0-1.01-.4-1.44-1.04-1.44-.76,0-1.04-.18-1.04-.4,0-.5,1.22-1.22,2.02-1.22h.11Z" fill="#000f3c"/>
      <path d="m303.12,22.61c0-1.26.14-2.48.36-3.64.47-2.45,1.22-4.68,1.62-6.77.18-.9.25-1.73.25-2.48,0-1.58-.32-2.77-.68-3.42-.22-.4-.5-.72-.5-.9s.18-.25.72-.25c1.12,0,2.99,1.58,2.99,4.25,0,1.19-.4,2.38-1.01,3.89-.9,2.23-1.98,4.93-1.98,7.38,0,.83.22,2.23.54,2.23.11,0,.25-.18.4-.54.9-1.91,3.35-6.7,3.74-6.7.04,0,.07.07.07.14,0,.14-.07.43-.25.86-.5,1.19-2.45,6.34-2.45,9.4,0,.76.11,1.37.25,1.94.07.25.11.5.11.72,0,.9-.54,1.44-1.15,1.44-2.45,0-3.02-5.8-3.02-7.56Zm22.03,2.45c1.4,0,2.16.65,2.16,1.37,0,2.23-5.08,2.27-5.72,2.27-6.19,0-8.14-3.2-8.14-4.97,0-.25.04-.36.14-.36.18,0,.43.25.76.72.72,1.04,3.13,1.73,5.79,1.73.72,0,1.44-.04,2.16-.14.86-.14,1.44-.58,2.66-.61h.18Zm-5.51-12.81c-5.4,0-5.69-3.24-5.69-3.49,0-.11.04-.14.14-.14s.36.14.68.32c1.01.61,2.34.83,3.67.83,1.04,0,2.05-.14,2.99-.36.47-.11.86-.36,1.33-.43.25-.04.47-.07.68-.07,1.15,0,1.87.61,1.87,1.26,0,1.76-3.92,2.09-5.69,2.09Z" fill="#000f3c"/>
      <path d="m18,66.51c0,.22-.18.43-.76.43h-6.23c0,.61-.04,1.33-.04,2.05h.04c4.18.22,5.36,1.76,5.36,2.88,0,.72-.54,1.33-1.19,1.33-.43,0-.94-.25-1.37-.9-.83-1.22-1.91-2.23-2.84-2.88,0,2.81.07,6.12.22,8.46v.07c0,.83-.83,1.26-1.51,1.26-.58,0-1.12-.32-1.12-1.04v-.11c.14-2.27.22-5.15.25-7.7-3.64,4.72-8.53,6.12-8.67,6.12-.07,0-.14-.04-.14-.07,0-.11.18-.25.58-.5,2.99-1.87,6.91-6.44,7.92-8.96-1.51,0-2.95.11-5.29.32h-.04c-.58,0-1.48-1.33-1.48-1.73,2.92.36,5.25.47,7.16.5v-.86c-.04-.94-.07-2.2-.29-3.02-.04-.14-.07-.22-.07-.29,0-.04.04-.04.14-.04.32,0,3.89.4,3.89,1.19,0,.25-.22.5-.61.68-.61.29-.72.18-.79,1.12l-.07,1.22h2.09c.14,0,.43-.14.54-.32,1.15-1.69,1.44-1.69,1.51-1.69.5,0,2.81,1.76,2.81,2.48Zm.5-5.69c0,.25-.18.47-.68.47h-8.53c-1.69,0-3.89.04-6.62.32h-.04c-.54,0-1.48-1.33-1.48-1.73,3.2.43,6.44.5,8.21.5h.47c1.66-3.49,2.02-5.4,2.09-6.59.04-.25,0-.36.07-.36.25,0,3.67,1.44,3.67,2.09,0,.25-.32.47-1.01.5-.5.04-.47.14-.76.5-.68.86-1.84,2.41-3.1,3.85h2.81c.07,0,.29-.11.4-.29.22-.43,1.22-1.94,1.62-1.94.11,0,.18.04.22.04,1.22.54,2.66,2.2,2.66,2.63Zm-.97-8.42c0,.22-.14.47-.72.47h-6.91c-1.87,0-3.1.04-6.05.32h-.04c-.61,0-1.4-1.3-1.4-1.73,2.66.36,4.57.47,6.23.5v-.9c-.04-1.26-.07-2.81-.32-3.89-.04-.14-.07-.22-.07-.25,0-.07.04-.07.14-.07.4,0,4.28.47,4.28,1.26,0,.25-.25.5-.79.79-.65.36-.72.4-.72,3.06h1.58c.14,0,.36-.11.47-.29.36-.65.72-1.19,1.26-1.76.07-.07.18-.11.29-.11.43,0,2.77,1.69,2.77,2.59Zm-8.46,5.15c0,.9-.68,1.58-1.37,1.58-.54,0-1.12-.4-1.4-1.33-.29-.86-1.08-2.3-1.73-3.13-.18-.25-.29-.36-.29-.43,0,0,.04-.04.07-.04,1.04,0,4.72,1.22,4.72,3.35Zm25.23,1.69c0,.22-.18.47-.72.47h-4.46c.18.11.25.22.25.32,0,.22-.29.4-.61.5q-.54.14-.54,4.79c0,3.92.11,9.68.22,12.6v.04c0,.65-.94,1.08-1.76,1.08-.65,0-1.22-.25-1.22-.94v-.07c.18-2.34.29-9.5.29-13.39,0-1.98-.04-4.14-.22-4.93h-3.46v1.51c-.22,15.87-9.9,17.71-9.93,17.71s-.07,0-.07-.04c0-.11.22-.29.76-.65,5.8-3.89,6.73-11.66,6.73-16.77v-.29c0-4.82,0-9.36-.58-11.05-.04-.07-.04-.14-.04-.18s.04-.04.07-.04c.22,0,2.41.58,4,1.37l.04.04c2.92-1.66,4.46-3.02,4.97-3.85.07-.14.11-.22.22-.22.43,0,3.1,2.56,3.1,3.24,0,.22-.18.32-.54.32-.18,0-.4-.04-.68-.11-.18-.04-.36-.11-.54-.11-.11,0-.22.04-.36.07-.94.32-4.21,1.22-6.44,1.62-.61.29-.65.36-.65,2.3v4.25h7.02c.18,0,.36-.14.47-.32,1.4-1.98,1.55-2.05,1.8-2.05.65,0,2.92,2.05,2.92,2.77Z" fill="#000f3c"/>
      <path d="m47.99,57.83c-1.84,5.26-3.46,10.51-4.64,15.8-.5,2.34-1.66,3.56-2.56,3.56-.58,0-1.19-.79-1.19-1.84,0-.76.36-1.62.94-2.7,1.55-2.84,5.62-14.15,5.76-14.79-1.08.25-1.66.32-2.2.32-3.85,0-4.97-2.66-4.97-3.53,0-.18.07-.25.18-.25.18,0,.43.18.72.32.97.5,2.3,1.15,3.96,1.15,1.08,0,2.12-.22,2.77-.4.11-.65.14-1.33.14-1.94,0-1.3-.25-2.34-1.01-2.41-.47-.04-.9-.18-.9-.47,0-.22.61-1.15,1.69-1.15,1.55,0,2.41,1.51,2.52,2.81,1.01.18,1.55.25,2.16.25h.43c.68,0,1.22.5,1.22,1.12,0,.47-.25,1.98-4.82,3.56l-.22.58Zm.97-3.1c.18-.07,1.4-.68,1.4-1.22,0-.25-.14-.47-1.12-.83,0,.61-.11,1.3-.29,2.05Zm9.57,19.44c.65,0,1.3-.22,2.34-.22,1.91,0,2.88.72,2.88,1.48s-1.01,1.66-3.82,1.66c-4.43,0-8.39-2.34-8.39-5.04,0-1.37,1.08-2.48,1.3-2.48.11,0,.14.14.14.29,0,.22-.07.54-.18.76-.07.18-.14.4-.14.58,0,1.51,2.52,2.99,5.69,2.99h.18Zm5.15-14.4c-2.02.36-3.13.68-5.36,2.41-.32.25-.54.36-.68.36-.04,0-.07-.04-.07-.07,0-.11.07-.29.25-.5,1.94-2.45,2.23-2.88,2.23-3.31,0-.86-1.98-1.3-2.74-1.3-.14,0-.29,0-.4.04-.5.11-.9.18-1.12.18-.14,0-.22,0-.22-.07,0-.11,1.01-1.48,3.6-1.48,3.13,0,5.72,1.69,5.72,2.7,0,.5-.43.9-1.22,1.04Z" fill="#000f3c"/>
      <path d="m79.56,56.07c-.5.11-.97.18-1.4.22-.22,0-.4.04-.61.04-3.31,0-4.57-2.41-4.57-3.56,0-.14.07-.22.18-.22.18,0,.43.18.68.32,1.15.68,2.34,1.22,3.74,1.22,1.22,0,2.34-.29,2.56-.36.07-.54.11-1.08.11-1.55,0-2.09-.5-2.23-.94-2.23-.76,0-.86-.18-.86-.32,0-.07.04-.4.65-1.01.32-.25.65-.32,1.01-.32.65,0,2.27.36,2.27,2.66.4.04.83.04,1.19.04,1.12,0,2.2.04,2.2,1.01,0,1.04-1.98,2.7-4.43,3.56-1.01,2.52-2.38,5.72-5.47,12.45-.61,1.33-1.69,2.02-2.48,2.02-.58,0-1.01-.32-1.01-1.01,0-.47.25-1.15.83-2.02,1.94-2.88,5-7.16,6.3-10.76l.07-.18Zm2.56,22.32c-2.84,0-4.86-2.2-4.86-4.03,0-2.38,3.17-3.6,6.48-3.6.79,0,1.62.07,2.41.22,0-1.44-.14-2.95-.14-4.21.04-3.13.76-4.72,3.38-6.55.97-.68,2.12-1.55,2.12-2.41,0-.4-.14-.54-1.08-1.48-.36-.32-.58-.54-.58-.72,0-.14.25-.22.86-.22,1.73,0,4.57,1.55,4.57,3.74,0,.68-.43,2.02-1.55,2.02-.36,0-.72-.07-1.15-.18-.22-.04-.43-.07-.72-.07-.47,0-4.46.07-4.46,3.64,0,.97.18,2.41.61,5.33.07.54.14,1.12.18,1.66,1.98.65,5.29,2.41,5.29,4.54,0,.86-.54,1.58-1.22,1.58-.47,0-1.01-.32-1.44-1.15-.58-1.04-1.55-1.98-2.74-2.7-.61,2.66-3.28,4.61-5.98,4.61Zm.43-6.23c-2.48,0-4.21,1.04-4.21,2.09s1.55,1.84,3.24,1.84c2.12,0,4.14-1.19,4.46-3.28-1.12-.4-2.3-.65-3.49-.65Zm.29-19.58c.22-.18.43-.43.43-.68,0-.11-.04-.32-.9-.61-.04.54-.14,1.08-.29,1.73l.76-.43Z" fill="#000f3c"/>
      <path d="m104.47,77.81c.4-4.68.61-12.17.65-16.95,0-.68.04-1.76.04-2.77-2.81,3.53-5.54,5.69-6.01,5.69-.07,0-.11-.04-.11-.07,0-.11.11-.29.4-.58,2.7-2.88,7.7-10.83,8.35-15.44.04-.18,0-.29.14-.29.36,0,3.89,1.44,3.89,2.27,0,.25-.36.5-1.12.68-.47.11-.58.22-.94.83-.83,1.44-1.69,2.84-2.59,4.18,1.44.32,1.87.5,1.87.79,0,.25-.29.47-.72.68-.65.32-.68.36-.72,1.37-.14,2.77-.18,7.34-.18,11.7,0,2.88,0,5.69.07,7.81,0,.9-.76,1.66-1.76,1.66-.68,0-1.26-.4-1.26-1.37v-.18Zm26.31-.32c0,.86-.86,1.4-1.62,1.4-.65,0-1.22-.36-1.22-1.19v-1.91h-14.11v1.84c0,.68-.76,1.33-1.62,1.33-.61,0-1.15-.32-1.15-1.12v-.14c.25-3.49.29-10.55.29-13.97,0-2.05,0-4.39-.47-6.44-.04-.11-.04-.18-.04-.22,0-.07.04-.11.07-.11.29,0,2.81,1.01,3.67,1.58l.14.11h2.23v-4.18c0-.68-.07-1.58-.14-2.34-1.58.04-3.31.14-4.82.29h-.04c-.61,0-1.51-1.3-1.51-1.73,3.35.43,8.17.54,10.08.54h6.48c.14,0,.4-.14.5-.32,1.37-1.94,1.55-2.2,1.91-2.2.07,0,.14,0,.22.04.86.32,3.06,2.09,3.06,2.92,0,.22-.18.43-.76.43h-6.41c.11.07.18.14.18.25,0,.14-.14.32-.47.47-.32.14-.4.25-.43.94,0,.36-.04,2.3-.04,4.9h2.52c.22,0,.32-.14.43-.29.04-.07.76-1.12,1.19-1.12s3.06,1.3,3.06,2.16c0,.36-.4.65-.86.9-.61.32-.61.61-.61,2.74,0,3.67.14,11.52.29,14.33v.11Zm-13.86-2.63c.04-2.2.04-9.94.04-15.23h-2.34l-.43.29c-.43.22-.43.32-.43,8.31,0,2.23.04,4.61.04,6.62h3.13Zm5.44,0c.04-2.3.04-9.97.04-15.23h-3.06c0,5.47-.04,13.07-.04,15.23h3.06Zm.04-20.37c0-.72-.04-1.58-.14-2.38h-2.16c.14.07.18.18.18.25,0,.18-.18.36-.47.47-.29.11-.4.25-.43.94,0,.36-.04,2.3-.04,4.9h3.06v-4.18Zm5.54,20.37c.04-3.1.07-7.13.07-10.26,0-2.02-.04-3.71-.07-4.54,0-.22-.14-.43-.43-.43h-2.74c0,5.44-.04,12.99-.04,15.23h3.2Z" fill="#000f3c"/>
      <path d="m144.14,77.67c0,1.04-1.04,1.58-1.76,1.58s-1.3-.4-1.3-1.37v-.18c.4-4.86.68-12.56.68-17.46v-1.94c-3.89,4.64-6.48,5.8-6.48,5.8-.04,0-.04-.04-.04-.07,0-.07.14-.29.43-.58,3.46-3.46,8.6-12.35,9.11-16.05.04-.22,0-.32.11-.32.36,0,4.07,1.62,4.07,2.38,0,.29-.36.54-1.19.72-.47.11-.61.25-.97.86-.97,1.66-1.98,3.2-3.02,4.68,1.3.29,1.87.4,1.87.76,0,.25-.29.5-.79.72-.58.25-.58.36-.61,1.19-.14,2.66-.18,7.13-.18,11.45,0,2.88,0,5.69.07,7.81v.04Zm20.37-5.51c0,.76-.79,1.19-1.51,1.19-.61,0-1.15-.29-1.15-1.01l.04-.83h-5.87v1.33c0,.68-.76,1.08-1.48,1.08-.58,0-1.08-.29-1.08-.9v-.11c.22-2.34.22-11.09.22-12.85,0-.47-.14-3.13-.4-4.39-.04-.11-.04-.18-.04-.22,0-.11.04-.11.11-.11.22,0,2.52.86,3.35,1.48l.07.07.22-3.6h-1.22c-1.91,0-4.32.07-7.27.4h-.04c-.61,0-1.69-1.4-1.69-1.87,3.35.47,7.2.58,9.18.58h1.08v-.25c.04-.5.04-1.12.04-1.76,0-1.01-.04-2.09-.22-2.92-.04-.11-.04-.18-.04-.22,0-.11.04-.11.14-.11.54,0,4.1.54,4.1,1.26,0,.29-.36.58-.9.83-.43.18-.54.29-.72,3.17h2.99c.22,0,.47-.14.58-.32.07-.11,1.44-2.2,1.94-2.2.61,0,3.28,2.12,3.28,2.99,0,.22-.18.43-.76.43h-8.1c-.11,1.33-.18,2.7-.22,3.6h2.02c.14,0,.32-.11.47-.29.29-.47.97-1.01,1.08-1.01.32,0,2.88,1.22,2.88,1.98,0,.29-.25.5-.65.76-.61.4-.65.47-.65,2.52,0,2.7.07,8.85.22,11.23v.07Zm-14.15,4.43c0,.43.04.79.04,1.04v.04c0,1.04-1.22,1.37-1.55,1.37-.61,0-1.15-.36-1.15-1.19v-.11c.14-2.38.22-9.61.22-14.15,0-3.13-.04-5.15-.29-6.52-.04-.11-.04-.18-.04-.22,0-.11.04-.11.14-.11.94,0,4,.65,4,1.22,0,.25-.29.5-.54.65q-.9.5-.9,7.56c0,3.31.04,7.09.07,9.5h12.56c.18,0,.43-.14.54-.32.4-.61,1.19-1.66,1.76-2.09.07-.07.22-.11.36-.11.07,0,.14,0,.22.04,1.22.43,3.2,2.3,3.2,2.95,0,.22-.18.43-.79.43h-17.85Zm6.3-18.79c-.07.07-.18.11-.29.18-.4.22-.4.4-.4,3.31h5.94c0-1.37,0-2.48-.04-3.06,0-.25-.14-.43-.47-.43h-4.75Zm5.25,4.36h-5.94v3.56h5.94v-3.56Zm-5.94,4.43c0,1.48.04,2.92.04,4.07h5.87c0-1.12.04-2.56.04-4.07h-5.94Z" fill="#000f3c"/>
      <path d="m184.9,68.13c-2.88,1.8-4.03,3.6-4.03,5s1.48,3.1,4.5,3.1c1.33,0,2.84-.32,4.14-1.01.43-.22.83-.32,1.19-.32.9,0,1.51.58,1.51,1.26,0,1.66-3.2,2.59-5.8,2.59-3.89,0-7.05-2.34-7.05-5.08,0-2.23,2.02-4.75,5.58-6.88,0-2.23-.29-5.33-2.3-5.33-.86,0-1.94.68-3.2,2.38l-1.08,2.02c-.76,1.37-1.62,2.81-2.63,2.81-.14,0-1.08-.04-1.08-1.3,0-.72.36-1.76,1.48-2.77,3.31-2.99,4.39-4.93,5.98-8.5l.07-.14-.04.04c-.72.18-1.37.29-1.98.29-3.49,0-4.46-2.45-4.46-3.42,0-.14.04-.18.11-.18.18,0,.43.14.9.47,1.08.76,2.09.97,3.02.97,1.08,0,2.2-.25,3.17-.58.07-.4.07-.76.07-1.01,0-.83-.14-1.8-1.37-2.09-.32-.07-.65-.18-.65-.36,0-.11.54-.9,1.76-.9.94,0,1.69.29,2.05,1.66h.29c.68.04,1.22.11,1.66.11.18,0,.32-.04.47-.07.22-.11.43-.14.61-.14.9,0,.9.83.9.97,0,1.91-3.6,3.31-4.86,3.74l-.07.18c-1.22,2.66-1.98,4.03-2.77,5.44.68-.36,1.33-.5,1.94-.5,1.87,0,3.24,1.55,3.74,3.74,1.04-2.63,3.82-7.67,7.96-7.67,1.98,0,4.46,1.33,4.46,3.17,0,1.4-1.51,2.84-3.96,3.78-2.52.94-5.62,2.16-8.06,3.35.11.83.14,1.69.14,2.56,0,.43,0,.9-.04,1.33-.11,1.4-1.08,2.34-1.87,2.34-.54,0-1.01-.47-1.01-1.66,0-.11.04-.29.04-.43.07-.9.54-1.26.58-2.45v-.5Zm-.07-16.95c.04.14.04.29.04.43,0,.4-.07.79-.14,1.22.83-.4,1.26-.61,1.26-1.04,0-.18-.14-.36-1.04-.58l-.11-.04Zm9.14,10.87c1.58-.86,2.3-1.73,2.3-2.52s-.68-1.76-2.09-1.76c-3.31,0-6.33,5.08-7.31,7.96,2.2-1.15,5-2.52,7.09-3.67Z" fill="#000f3c"/>
      <path d="m232.12,56.72c0,.68-.65,1.44-1.73,1.44-.65,0-1.26-.36-1.26-1.22v-.72h-18.11c-.07,7.92-.94,16.09-7.45,21.17-.5.36-.94.61-1.08.61-.04,0-.07,0-.07-.07,0-.11.18-.36.61-.86,4.43-4.97,5.22-12.74,5.22-19.55,0-3.78-.25-7.59-.68-9.68-.04-.14-.04-.22-.04-.29,0-.04,0-.07.07-.07.22,0,2.77.79,4.25,1.73.07.04.11.11.14.14h16.31c.25,0,.5-.22.61-.36.72-.94,1.04-1.26,1.37-1.26.4,0,3.24,1.58,3.24,2.48,0,.36-.43.65-1.08.97-.43.22-.58.36-.58,1.22,0,.97.18,3.42.25,4.25v.07Zm-2.95-5.9c0-.4-.22-.54-.61-.54h-16.59l-.32.25c-.47.32-.58.5-.61.97v3.74h18.14v-4.43Zm3.02,26.74c0,.86-.86,1.4-1.62,1.4-.61,0-1.19-.36-1.19-1.15l.04-1.33h-13.86v1.58c0,.79-.83,1.26-1.58,1.26-.61,0-1.15-.32-1.15-1.04v-.14c.22-2.95.29-6.59.29-9.14,0-1.15-.04-2.09-.04-2.63,0-.5-.11-3.02-.4-4.28-.04-.11-.04-.18-.04-.22,0-.07.04-.11.07-.11.32,0,2.52.9,3.42,1.48l.22.14h4.64c0-.43-.04-.79-.04-1.15-.04-.94-.04-3.28-.36-4.64-.04-.11-.04-.18-.04-.22,0-.07.04-.07.07-.07.22,0,4.5.58,4.5,1.4,0,.29-.36.58-.79.83-.72.43-.76.47-.86,3.85h5.33c.14,0,.18-.07.32-.25.83-1.08,1.08-1.08,1.15-1.08.25,0,3.1,1.22,3.1,2.05,0,.32-.36.58-.76.86-.72.47-.72.61-.72,2.45,0,2.56.14,7.23.29,10.08v.07Zm-11.16-13.21h-4.82l-.32.18c-.29.18-.32.25-.32.94s-.04,2.02-.04,3.64h5.51v-4.75Zm0,5.65h-5.51c0,1.73.04,3.71.04,5.54h5.47v-5.54Zm2.45-5.65c-.04,1.4-.04,3.06-.04,4.75h6.01c0-1.91,0-3.53-.04-4.32,0-.29-.18-.43-.43-.43h-5.51Zm0,5.65v5.54h5.94c0-1.73.04-3.71.04-5.54h-5.98Z" fill="#000f3c"/>
      <path d="m242.42,67.27c0-3.31.76-6.44,1.19-9.07.14-.83.25-1.66.25-2.38,0-1.69-.65-2.38-2.16-3.2-.36-.18-.58-.43-.58-.65,0-.14.22-.54,1.15-.54,2.23,0,4.03,2.95,4.03,4.25,0,.76-.25,1.51-.61,2.48-.86,2.34-1.73,5.15-1.73,7.6,0,.68.29,2.95.68,2.95.11,0,.25-.18.43-.54,1.08-2.48,4.07-8.5,4.57-8.5.04,0,.07.07.07.14,0,.29-.14.79-.36,1.3-2.7,6.26-2.81,9.5-2.81,10.47,0,.9.11,1.87.36,2.52.11.32.18.58.18.83,0,.72-.47,1.12-1.04,1.12-2.09,0-3.64-4.07-3.64-8.78Zm16.49-2.88l-.07-4.57c-.32.04-.65.04-.94.04h-.9c-4.93,0-5.4-2.99-5.4-2.99,0-.11.04-.11.11-.11.14,0,.5.18.86.32,1.19.47,2.81.61,4.32.61h.58c.43,0,.86-.04,1.33-.11v-1.84c0-2.05-.18-3.78-1.51-3.78h-.25c-.58,0-.79-.14-.79-.36,0-.32.79-1.12,1.91-1.12.86,0,3.02.86,3.02,2.95,0,.14-.04.29-.04.47.68.18,1.44.32,1.98.4.47.04.94.04,1.26.11.68.14,1.15.68,1.15,1.37,0,1.87-2.66,3.1-4.68,3.64.04,1.58.18,3.1.32,4.64.04.5.07,1.01.07,1.51,0,11.09-10.19,14.15-11.3,14.15-.07,0-.14,0-.14-.04,0-.14.36-.43,1.37-.97,4.14-2.3,7.74-7.92,7.74-13.89v-.43Zm2.2-9.86c0,.07,0,.14-.04.25-.11.79-.18,1.55-.22,2.27.61-.22,1.91-.9,1.91-1.51,0-.4-.54-.79-1.66-1.26v.25Z" fill="#000f3c"/>
      <path d="m278.89,64.03s.07-.04.18-.11c1.62-1.04,3.64-1.62,5.65-1.62,4.64,0,7.49,3.24,7.49,6.73s-3.31,8.21-9.93,8.21c-3.49,0-5.83-1.73-5.83-3.67,0-1.73,1.8-2.7,3.53-2.7,2.38,0,3.85,1.84,3.85,3.71,0,.29-.04.61-.11.9,4.18-1.01,5.8-3.89,5.8-6.41,0-2.84-2.02-5.4-5.65-5.4-1.26,0-5.44.32-7.85,5.44-.86,1.87-1.44,2.99-2.66,2.99-.65,0-1.15-.5-1.15-1.22,0-1.04,1.33-2.59,2.99-4.5,2.16-2.48,7.23-9.32,8.75-11.81.18-.25.25-.5.25-.68,0-.25-.14-.61-.9-.61-1.69,0-2.48,3.46-4.9,3.46-1.33,0-2.41-.86-2.41-2.2,0-.4.07-.72.32-.72.18,0,.4.07.68.18.29.11.58.14.86.14.5,0,1.01-.14,1.48-.5,1.4-.97,3.06-2.16,4.97-2.16,2.12,0,3.42,1.48,3.42,2.27,0,.72-.79,1.37-1.55,1.94-2.59,1.98-7.27,8.24-7.27,8.31v.04Zm2.77,10.4c0-1.26-.97-2.34-2.3-2.34-1.58,0-1.62,1.19-1.62,1.37,0,.14,0,1.84,3.6,2.2.22-.4.32-.83.32-1.22Z" fill="#000f3c"/>
      <path d="m308.99,57.83c-1.84,5.26-3.46,10.51-4.64,15.8-.5,2.34-1.66,3.56-2.56,3.56-.58,0-1.19-.79-1.19-1.84,0-.76.36-1.62.94-2.7,1.55-2.84,5.62-14.15,5.76-14.79-1.08.25-1.66.32-2.2.32-3.85,0-4.97-2.66-4.97-3.53,0-.18.07-.25.18-.25.18,0,.43.18.72.32.97.5,2.3,1.15,3.96,1.15,1.08,0,2.12-.22,2.77-.4.11-.65.14-1.33.14-1.94,0-1.3-.25-2.34-1.01-2.41-.47-.04-.9-.18-.9-.47,0-.22.61-1.15,1.69-1.15,1.55,0,2.41,1.51,2.52,2.81,1.01.18,1.55.25,2.16.25h.43c.68,0,1.22.5,1.22,1.12,0,.47-.25,1.98-4.82,3.56l-.22.58Zm.97-3.1c.18-.07,1.4-.68,1.4-1.22,0-.25-.14-.47-1.12-.83,0,.61-.11,1.3-.29,2.05Zm9.58,19.44c.65,0,1.3-.22,2.34-.22,1.91,0,2.88.72,2.88,1.48s-1.01,1.66-3.82,1.66c-4.43,0-8.39-2.34-8.39-5.04,0-1.37,1.08-2.48,1.3-2.48.11,0,.14.14.14.29,0,.22-.07.54-.18.76-.07.18-.14.4-.14.58,0,1.51,2.52,2.99,5.69,2.99h.18Zm5.15-14.4c-2.02.36-3.13.68-5.36,2.41-.32.25-.54.36-.68.36-.04,0-.07-.04-.07-.07,0-.11.07-.29.25-.5,1.94-2.45,2.23-2.88,2.23-3.31,0-.86-1.98-1.3-2.74-1.3-.14,0-.29,0-.4.04-.5.11-.9.18-1.12.18-.14,0-.22,0-.22-.07,0-.11,1.01-1.48,3.6-1.48,3.13,0,5.72,1.69,5.72,2.7,0,.5-.43.9-1.22,1.04Z" fill="#000f3c"/>
      <path d="m345.31,65.75c1.3.43,1.91,1.01,1.91,1.66,0,.5-.43,1.04-1.37,1.04-.11,0-.86,0-2.02-.5-1.94,2.63-4.57,5.22-6.88,5.22-1.69,0-3.06-1.84-3.06-4.32s1.33-5.44,3.78-7.99c-.36-.79-.68-1.62-.97-2.38-.54-1.44-1.01-3.02-1.55-4.1-.22-.47-.32-.76-.32-.97s.11-.32.29-.32c.58,0,2.34,1.01,2.92,2.52.4,1.01.86,2.34,1.4,3.67,2.12-1.62,4.79-2.77,7.52-3.02.04-.36.04-.72.04-1.04,0-1.48-.32-2.59-1.01-3.06-.36-.25-.94-.32-.94-.58s.72-.86,1.62-.86,2.74.61,2.74,3.64c0,.61-.07,1.22-.18,1.91,4.79.5,8.42,4.36,8.42,9,0,2.3-.9,4.75-3.02,6.98-3.67,3.85-10.26,5.15-12.42,5.15-.4,0-.61-.07-.61-.14,0-.14.54-.4,1.62-.68,5.33-1.37,11.73-5.36,11.73-11.41,0-3.56-2.3-6.66-6.08-7.34-.68,2.56-1.98,5.4-3.56,7.96Zm-7.13-3.82c-1.66,1.98-2.45,4.07-2.45,5.76,0,1.48.68,3.02,1.84,3.02.68,0,2.84-.79,4.9-3.53-1.87-1.26-3.24-3.17-4.28-5.26Zm1.69-1.66c.94,2.05,2.12,4.03,3.89,4.93,1.58-2.63,2.56-5.29,2.99-7.56-2.45.07-4.9,1.04-6.88,2.63Z" fill="#000f3c"/>
      <path d="m365.4,69.61c0-1.26.14-2.48.36-3.64.47-2.45,1.22-4.68,1.62-6.77.18-.9.25-1.73.25-2.48,0-1.58-.32-2.77-.68-3.42-.22-.4-.5-.72-.5-.9s.18-.25.72-.25c1.12,0,2.99,1.58,2.99,4.25,0,1.19-.4,2.38-1.01,3.89-.9,2.23-1.98,4.93-1.98,7.38,0,.83.22,2.23.54,2.23.11,0,.25-.18.4-.54.9-1.91,3.35-6.7,3.74-6.7.04,0,.07.07.07.14,0,.14-.07.43-.25.86-.5,1.19-2.45,6.34-2.45,9.4,0,.76.11,1.37.25,1.94.07.25.11.5.11.72,0,.9-.54,1.44-1.15,1.44-2.45,0-3.02-5.8-3.02-7.56Zm22.03,2.45c1.4,0,2.16.65,2.16,1.37,0,2.23-5.08,2.27-5.72,2.27-6.19,0-8.14-3.2-8.14-4.97,0-.25.04-.36.14-.36.18,0,.43.25.76.72.72,1.04,3.13,1.73,5.79,1.73.72,0,1.44-.04,2.16-.14.86-.14,1.44-.58,2.66-.61h.18Zm-5.51-12.81c-5.4,0-5.69-3.24-5.69-3.49,0-.11.04-.14.14-.14s.36.14.68.32c1.01.61,2.34.83,3.67.83,1.04,0,2.05-.14,2.99-.36.47-.11.86-.36,1.33-.43.25-.04.47-.07.68-.07,1.15,0,1.87.61,1.87,1.26,0,1.76-3.92,2.09-5.69,2.09Z" fill="#000f3c"/>
    </g>
  </g>
</svg>