<?xml version="1.0" encoding="UTF-8"?>
<svg id="_レイヤー_2" data-name="レイヤー 2" xmlns="http://www.w3.org/2000/svg" viewBox="0 0 541.11 117.45">
  <g id="_デザイン" data-name="デザイン">
    <g>
      <path d="m54.95,11.25c-2,0-5.4.05-8.55.45h-.05c-.65,0-2.1-1.85-2.1-2.4,3.8.55,8.7.7,10.8.7h2.4c.15,0,.5-.15.65-.4.05-.1,1.7-2.85,2.4-2.85,1.15,0,4.2,2.95,4.2,4,0,.25-.2.5-.95.5h-8.8Zm6.55,30.8c0,.95-.8,1.85-2.15,1.85-.85,0-1.6-.45-1.6-1.5v-1.15h-6.5v2.05c0,1.05-1.15,1.65-2.2,1.65-.85,0-1.65-.4-1.65-1.45v-.15c.3-3.75.35-6.25.35-8.35,0-3.75-.3-6.4-.55-7.6,0-.1-.05-.2-.05-.25,0-.1.05-.15.1-.15.4,0,4,1.5,5,2.2l.1.1h4.4c.2,0,.45-.1.65-.4.2-.3,1.2-1.55,1.7-1.55.25,0,4.05,1.65,4.05,2.95,0,.45-.5.8-1.05,1.2-.95.6-.95.95-.95,2.6,0,1.95.15,4.8.35,7.85v.1Zm-6.65-37.75c-1.55,0-3.15.1-5.5.45h-.05c-.7,0-1.95-1.65-1.95-2.4,2.95.55,5.75.7,7.35.7h.8c.1,0,.35-.15.5-.4.4-.8,1.7-2.65,2.25-2.65.1,0,.2,0,.25.05.7.3,3.6,2.35,3.6,3.6,0,.35-.2.65-.9.65h-6.35Zm0,13.2c-1.55,0-3.15.05-5.5.45h-.05c-.6,0-1.95-1.55-1.95-2.4,2.95.55,5.75.7,7.35.7h.9c.1,0,.4-.15.55-.4.4-.7,1.6-2.5,2.25-2.5.05,0,.15,0,.2.05.55.25,3.5,2.3,3.5,3.45,0,.3-.2.65-.9.65h-6.35Zm0,6.6c-1.55,0-3.15.05-5.5.45h-.05c-.65,0-1.95-1.65-1.95-2.4,2.95.55,5.8.7,7.4.7h.85c.1,0,.4-.15.55-.4.15-.25,1.55-2.5,2.2-2.5.15,0,.25,0,.3.05,1.25.55,3.45,2.55,3.45,3.45,0,.35-.2.65-.9.65h-6.35Zm2.9,15.85c.05-2.2.1-4,.1-5.7,0-1.05-.05-2.05-.1-3,0-.35-.15-.65-.55-.65h-5l-.4.3c-.55.35-.55.45-.55,1.4-.05,1.45-.1,2.95-.1,4.45,0,1.05.05,2.15.05,3.2h6.55Zm27.45,2.55c0,1.2-1.3,1.75-2.2,1.75s-1.7-.45-1.7-1.5v-2.1h-10.45v2.15c0,.9-.85,1.75-2.3,1.75-.85,0-1.65-.45-1.65-1.45v-.15c.4-4.6.45-9.8.45-12.2,0-.65-.1-4.2-.5-6-.05-.15-.05-.25-.05-.3s.05-.1.05-.1c.2,0,3.6,1.2,5,2.2h.1s.05,0,.05.05h2.35c.05-2.2.05-5.95.05-9.35-2.45.05-6.35.15-9.4.45h-.05c-.65,0-2.05-1.85-2.05-2.4,3.85.45,8.7.65,11.5.7,0-2.3-.05-4.35-.05-5.25-.05-1.25-.05-2.8-.15-3.85-3.2.25-6.45.45-9.15.45-.8,0-1.2-.15-1.2-.3s.35-.3,1.05-.4c.3-.05,14.9-2.35,17.95-5.4.1-.1.15-.2.25-.2.05,0,.1.05.2.1,0,0,3.2,3,3.2,4.25,0,.35-.2.55-.65.55-.3,0-.7-.1-1.25-.3-.2-.05-.4-.1-.65-.1h-.25c-1.45.35-3.2.65-5.15.9l.35.1c.5.15.7.4.7.65,0,.3-.35.65-.7.8-.85.35-.95.4-1,1.65-.05,1.25-.05,3.65-.05,6.35h4.1c.25,0,.6-.2.75-.45,1.3-2.05,2.25-3.2,2.7-3.2.1,0,.2.05.3.05.75.25,4.4,2.9,4.4,4.25,0,.35-.25.6-1.05.6h-11.2c0,3.45,0,7.1.05,9.35h2.4c.2,0,.45-.1.65-.35,1.05-1.4,1.4-1.65,1.75-1.65.9,0,4.15,2.1,4.15,3.05,0,.45-.45.8-1.05,1.15-.85.45-1,.55-1,3.25s.2,7.45.4,10.3v.15Zm-3.85-3.15c.05-2.05.05-4.15.05-6s0-3.6-.1-4.75c0-.3-.15-.65-.65-.65h-8.8l-.3.25c-.6.45-.65.3-.7,1.55-.05,1.45-.1,3.35-.1,5.35,0,1.4.05,2.9.05,4.25h10.55Z" fill="#fff"/>
      <path d="m141.25,37.75c.1,0,.15.05.15.1,0,.45-3.35,2.85-4.05,4.5-.2.5-.6.85-1.15.9-1.9.2-6.8.65-11.9.65-6.1,0-18.45-.15-22.65-11.5-2.15,8.35-7,12.6-8.2,12.6-.05,0-.1-.05-.1-.1,0-.15.2-.5.55-.9,3.5-4,5.15-12.7,5.15-15.95,0-.55,0-1.1-.1-1.75,0-.1-.05-.2-.05-.3,0-.05.05-.1.3-.1,1.15,0,4.95.7,4.95,1.6,0,.25-.3.5-.9.75-.65.3-.85.15-1.05,1.55-.05.45-.1.85-.2,1.3.7,1.75,1.8,3.3,3.35,4.65.05-1.45.05-3.5.05-5.3,0-1.25,0-5.55-.2-7.35h-.5c-1.35,0-4.1.05-7.3.4h-.05c-.75,0-2.05-1.75-2.05-2.3,4.1.65,8.15.65,9.5.65h6.35c.15,0,.45-.15.6-.4.5-.75,1.25-1.55,1.8-2.05.15-.1.3-.15.45-.15.1,0,.2.05.25.05,1.4.55,3.5,2.25,3.5,3.15,0,.35-.2.65-.95.65h-7.3c.25.1.35.25.35.45,0,.25-.25.5-.7.7-.65.25-.65.45-.65,5.25h1.9c.2,0,.4-.2.55-.45.45-.85,1.15-1.85,1.6-2.35.1-.1.2-.15.35-.15.05,0,.15,0,.2.05,1.15.55,3.25,2.4,3.25,3.55,0,.3-.2.55-.85.55h-7v7.2l.9.45.35-.1c3.35-.95,11.85-4.35,13.65-8.3.1-.2.15-.3.25-.3.7,0,4,2.75,4,3.25,0,.35-.4.6-1.25.6h-.5c-.35,0-.7.05-1,.25-4.45,2.9-9.95,4.5-14.3,5.05,2.7,1.05,6.15,1.55,10.85,1.55,6.15,0,13.55-.9,19.35-2.5.2-.05.35-.1.45-.1ZM116.15,4.45c0,.45-.45.8-1.05,1.15-.65.4-.8.45-.8,3.35,0,2.3.2,4.75.35,7.85v.1c0,1.05-.75,2-2.1,2-.8,0-1.5-.5-1.5-1.6v-.6h-8.8v1.05c0,1.1-1.15,1.8-2.15,1.8-.8,0-1.5-.45-1.5-1.45v-.2c.3-4.05.35-6.6.35-8.7,0-4.7-.45-7.25-.55-7.65,0-.15-.05-.2-.05-.3s.05-.15.15-.15,3.25,1.15,4.7,2.25l.05.05h6.8c.3,0,.55-.25.7-.45.85-1.25,1.2-1.55,1.6-1.55.3,0,3.8,1.75,3.8,3.05Zm-5.05,1c0-.35-.15-.7-.75-.7h-7.15l-.3.25c-.7.5-.7.8-.7,4.25h8.95c0-1.3,0-2.55-.05-3.8Zm-8.9,5.1v4.85h8.9c.05-1.8.05-3.4.05-4.85h-8.95Zm37.3-6.15c0,.3-.25.55-1,.55h-9.25c1.75.5,1.75.65,1.75.9,0,.3-.4.6-1.3.75-.55.1-.8.4-1,.7-.7,1-1.5,2.1-2.25,2.95h4.7c.2,0,.4-.1.6-.35,1.15-1.35,1.3-1.45,1.6-1.45.9,0,4.1,1.9,4.1,2.8,0,.4-.45.75-1.05,1.1-1,.6-.8.75-.85,1.65,0,.55-.05,1.25-.05,2.1,0,3.25.15,8.4.4,12.15v.05c0,1.45-1.45,1.85-2.25,1.85s-1.55-.45-1.55-1.4v-.05l.05-.5h-9.05l.05.45v.05c0,1-1.1,1.6-2.2,1.6-.8,0-1.55-.4-1.55-1.4v-.15c.3-3.85.4-7.95.4-10.9,0-1.4-.05-2.5-.05-3.25,0-.6-.15-4.2-.55-6.15-.05-.15-.05-.2-.05-.3q0-.05.05-.05c.45,0,3.75,1.35,4.95,2.15h.9c.35-1.75.5-4.3.5-4.75v-.5c-2.15.05-4.6.15-6.8.4h-.05c-.75,0-2.1-1.75-2.1-2.3,4.35.55,10.35.65,12.8.65h2.55c.15,0,.5-.15.65-.4.2-.3,1.9-2.8,2.5-2.8.1,0,.2.05.3.05,1.55.6,4.1,2.85,4.1,3.8Zm-16.4,12.65c0,1.25-.05,2.6-.05,4.05h9.15c0-1.4.05-2.8.05-4.05h-9.15Zm-.05,5.3c0,1.55.05,3.1.05,4.6h9.05c0-1.5.05-3.05.05-4.6h-9.15Zm9.1-10.3c0-.25-.25-.55-.6-.55h-7.55c-.1.1-.25.15-.4.25-.4.25-.45.3-.45,1.2,0,.75-.05,1.75-.05,2.9h9.1c0-1.6,0-2.95-.05-3.8Zm6.6,23.4c0,1.15-.9,2.05-1.95,2.05-.75,0-1.6-.45-2.35-1.55-1.5-2.3-3.85-3.95-5.9-5.25-.25-.15-.4-.3-.4-.35s.15-.1.4-.1c.35,0,10.2.9,10.2,5.2Z" fill="#fff"/>
      <path d="m166.35,8.9c-.55,0-1.1.05-1.65.1,1.25,1,2.05,3.6,2.05,6.85,0,10.45-8.3,21.9-13.05,21.9-2.65,0-3.65-3.55-5.6-6.4-.8-1.15-1.2-2.8-1.2-4.65,0-7.55,6.5-19.6,20.2-19.6,11.45,0,17.5,7.85,17.5,16.1,0,4.5-1.85,9.15-5.6,12.7-6.4,6-15.9,6.65-16.35,6.65-.5,0-.7-.05-.7-.15,0-.25.75-.6,2.25-1,8.75-2.4,16.6-8.65,16.6-18.4,0-7.45-5.25-14.1-14.25-14.1h-.2Zm-4.55.65c-7.7,2.25-12.15,9.4-12.15,15.65,0,4.4,2.25,7.75,4.4,7.75,3.45,0,10.6-10.45,10.6-19.3,0-2.25-.3-4.3-1.8-4.3-.15,0-.3,0-.45.05-.15.05-.3.1-.4.1l-.2.05Z" fill="#fff"/>
      <path d="m212.7,11.45c0,.35-.35.7-1.15,1.1-.75.4-1,.35-1.2,1.85-3.45,25.05-20.3,30.05-20.45,30.05-.05,0-.1-.05-.1-.1,0-.2.45-.65,1.1-1.05,11.85-7.85,14.9-24.95,14.9-31.4,0-.9-.05-1.65-.15-2.65v-.2q0-.1.1-.1c.9,0,6.95,1.3,6.95,2.5Zm25.7,28.55c0,.55-5.4.55-6.9,2.1-.2.2-.5.35-.8.35-.2,0-.4-.05-.6-.2-6.75-5.45-12.45-16.15-12.6-36,0-.55-.5-1-1-1h-1.05c-1.45,0-4.65.2-7.5.55h-.05c-.7,0-2.3-2.05-2.3-2.65,3.65.55,8.25.8,9.75.8h1.3c.3,0,.6-.2.8-.45.85-1.1,1.4-1.7,1.85-1.7.25,0,3.85,1.8,3.85,3.15,0,.55-.6.95-1.35,1.15-1.6.5-2.9.45-2.9,1.25v.1c1.55,16.9,7.65,27.7,19.15,32.3.25.1.35.2.35.25Z" fill="#fff"/>
      <path d="m286.3,42.25c0,.35-.2.65-1.05.65h-27c-2.7,0-10.05.1-14.35.55h-.05c-.9,0-2.4-1.9-2.4-2.55,4.95.6,14.25.75,17.05.75h3.1c.05-1.5.05-3.1.05-4.8h-1.15c-2.7,0-7.4.05-11.7.5h-.05c-.9,0-2.4-1.9-2.4-2.5,4.95.6,11.6.75,14.4.75h.95c0-1.75.05-3.55.05-5.35h-7.65v1.1c0,1.1-1.15,1.75-2.3,1.75-.85,0-1.65-.45-1.65-1.5v-.2c.35-3.9.4-6.85.4-9.15,0-4.15-.45-7-.65-7.95-.05-.15-.05-.25-.05-.3,0-.1.05-.15.1-.15.6,0,4.05,1.5,5.2,2.3l.15.15h6.45c0-1.8-.05-3.35-.05-4.6h-3c-2.7,0-9.85.1-14.15.55h-.05c-.9,0-2.4-1.9-2.4-2.55,4.95.6,14.05.75,16.85.75h2.75v-.45c-.05-1.3-.1-2.65-.25-3.9-3.95.3-8.05.45-11.7.45-4.15,0-4.75-.15-4.75-.45,0-.15.3-.3,1.05-.35,6.6-.45,18.4-2.25,24.4-4.25,1.05-.35,1.85-.85,2.4-1.2.25-.15.35-.25.4-.25.5,0,3.75,3.35,3.75,4.4,0,.4-.35.55-.8.55-.3,0-.65-.05-1.05-.2-.25-.1-.6-.15-.95-.15h-.2c-1.95.35-4.55.7-7.45,1,.35.15.45.35.45.55,0,.3-.3.6-.8.8-.7.35-.8.45-.85,2,0,.35-.05.85-.05,1.45h11.75c.3,0,.7-.2.85-.45,1.35-1.9,2.35-3.2,2.85-3.2,1.05,0,4.9,3,4.9,4.25,0,.35-.2.65-1.05.65h-19.35c0,1.3-.05,2.85-.05,4.6h7.35c.3,0,.55-.2.7-.4.35-.45.9-1.1,1.2-1.35.2-.15.35-.25.6-.25.75,0,4.3,2.25,4.3,3.2,0,.45-.6.8-1.3,1.2-.9.45-.9.6-.9,3.2,0,2.25.2,4.85.4,7.7v.1c0,1.2-1.2,1.95-2.25,1.95-.85,0-1.6-.45-1.7-1.4h-8.4v5.35h7.75c.3,0,.7-.2.85-.45,1.05-1.45,2.3-2.95,2.7-2.95,1.45,0,4.75,2.95,4.75,4,0,.35-.2.65-1.05.65h-15c0,1.8.05,3.45.05,4.8h12.4c.3,0,.7-.2.85-.45.4-.6,2.25-3.25,2.95-3.25,1.3,0,4.85,3.25,4.85,4.3Zm-24.55-24.7h-6.5c-.15.1-.3.25-.5.35-.75.5-.8.6-.8,4.4h7.8v-4.75Zm0,6h-7.8c0,1.7.05,3.55.1,5.45h7.7v-5.45Zm11.85-5.35c0-.35-.15-.65-.7-.65h-7.7v4.75h8.5c0-1.45-.05-2.8-.1-4.1Zm-8.4,5.35v5.45h8.4c.05-2,.1-3.8.1-5.45h-8.5Z" fill="#fff"/>
      <path d="m298.9,16.7c0,1.2-.9,2.25-2,2.25-.6,0-1.3-.3-1.9-1.15-.8-1.1-2.6-2.85-4-3.6-.4-.25-.6-.4-.6-.5,0-.35,2.5-.35,2.6-.35,5.5,0,5.9,2.6,5.9,3.35Zm0,17.8c0,1.2.15,2.4.6,3.55.35.85.5,1.65.5,2.3,0,1.8-1,2.95-2.25,2.95-1.15,0-2.3-1.1-2.3-3.6v-.5c.1-1.45.4-2.95.4-4.25,0-1.95-.7-3.55-3.8-4.3-.85-.2-1.3-.4-1.3-.55s.5-.25,1.35-.3c2.05-.05,3.4-.35,4.05-2.15,2.65-7.15,9.9-25.3,11.05-25.3.05,0,.1.05.1.15,0,.2-.1.55-.3,1.1-2.25,6.3-8.1,23.8-8.1,30.9Zm3.7-28.1c0,1.3-.95,2.35-2.05,2.35-.75,0-1.5-.45-2.15-1.6-.65-1.2-2.2-3.1-3.6-4.15-.35-.25-.55-.45-.55-.55,0-.15,1.15-.15,1.25-.15,3.4,0,7.1,1.4,7.1,4.1Zm15.8,13.45c0,1.4-1,2.45-1.95,2.45-.7,0-1.4-.55-1.6-1.95-.2-1.4-.85-3.2-1.65-4.45-.1,13.9-1.7,23.85-13.8,28.65-.8.3-1.45.5-1.75.5-.1,0-.2,0-.2-.05,0-.15.4-.45,1.35-1,9.05-5.1,11-13.45,11-28.15,0-2.75-.1-11.15-.7-13.9-.05-.15-.05-.25-.05-.3,0-.1.05-.15.15-.15.6,0,6.05,1.15,6.05,2.35,0,.25-.2.55-.85.85-1.1.55-1.3.5-1.3,2.05v.7c.05,2.65.1,5.2.1,7.6.05,0,.1.05.15.05,2,.6,5.05,2.25,5.05,4.75Zm-14.15,4.3c-.95,0-1.75-.65-1.75-1.65,0-.6.3-1.3.95-2,1.8-1.95,2.5-4.4,2.5-6.55v-.2c0-.55.05-.75.1-.75.3,0,1.7,2.7,1.7,5.7,0,3.55-1.7,5.45-3.5,5.45Zm24.05-4.25c0,1.4-1.05,2.45-2,2.45-.7,0-1.35-.55-1.6-1.95-.25-1.5-1-3.5-1.95-4.75l-.15-.25v3.3c0,7.35.1,15.85.25,19.6v.05c0,1-1.05,2-2.2,2-.85,0-1.6-.5-1.6-1.75v-.1c.2-5.4.4-16.25.4-23.6,0-1.95,0-9.3-.55-11.85-.05-.15-.05-.25-.05-.3,0-.1.05-.15.15-.15,1.1,0,5.85,1.2,5.85,2.2,0,.35-.25.65-.75.95-1.05.6-1.15.2-1.3,2.15-.1,1.6-.15,4.15-.2,7.1.45,0,5.7,1.55,5.7,4.9Zm4.7-13.65c-.15,2.15-.2,6.2-.2,10.95,0,8.45.15,19.1.3,25.2v.05c0,1.2-1.25,2-2.3,2-.9,0-1.65-.5-1.65-1.75v-.1c.2-6.75.4-18.75.4-27.1,0-6.1-.1-12.05-.55-14.1-.05-.15-.05-.25-.05-.3s0-.1.1-.1c.5,0,6,.95,6,2.15,0,.35-.25.65-.75.95-1.05.6-1.15.2-1.3,2.15Z" fill="#fff"/>
      <path d="m363.85,22c0,.65-.1,2.75-1.35,9.2,3.1-.35,6.15-.6,8.65-.75,1.95-.1,2.45-.75,3.85-.75.8,0,6.25,1.15,6.25,3.35,0,.85-.85,1.5-2.1,1.5-.3,0-.6,0-.95-.1-2.85-.7-6-.95-9.2-.95-6.3,0-12.7,1-16.9,1.95-1.65.4-2.3.7-3.25.7-2.35,0-6.55-1.65-6.55-4.2,0-.7.15-.9.45-.9s.75.25,1.3.5c1.55.75,3.75,1.1,5.2,1.1.25,0,.65,0,10.2-1.1.3-2,.5-5.15.5-7.25,0-1.6-.15-4.2-1.2-5-3.7.7-4.6.7-4.8.7-2.8,0-4.95-1.2-4.95-3,0-.5.15-1.3.55-1.3.25,0,.6.25,1,.55.8.55,2.15.8,3.75.8,4.2,0,9.95-1.55,10.9-1.85,1.8-.55,2.45-1.6,4.25-1.6,1.7,0,4.45.8,4.45,2.2,0,.85-.95,1.65-2.7,1.7-2.45.05-5.95.6-9.25,1.2,1.8.85,1.9,2.25,1.9,3.3Z" fill="#fff"/>
      <path d="m393.3,24.45c0-.25.05-.5.05-.8.2-2.3.3-3.75.3-5.4,0-5.9-.5-9.2-2.7-9.35-.7-.05-1.25-.25-1.25-.65,0-.3.85-1.45,2.5-1.45,1,0,5.4,1.55,5.4,3.5,0,.35-.15.7-.35,1.1-.35.7-.35,2.05-.35,2.65,0,5.6.25,8.1.3,8.65.05.45.1.8.1,1.05,0,.75-.4,3.95-2.25,3.95-.9,0-1.75-1.05-1.75-3.25Zm-3.2,19.75c-.1,0-.2-.05-.2-.1,0-.2.55-.6,1.95-1.5,7.15-4.4,12.05-13.4,12.4-24.25.05-2.15,0-3.75.15-6.15.05-.6.05-1.1.05-1.6,0-3.5-.9-4.4-2.1-4.6-.6-.05-1.15-.25-1.15-.65,0-.25.65-1.45,2.3-1.45,2.2,0,6.05,2.6,6.05,4,0,.6-.4,1.2-.65,1.9-.75,2.05-.9,4.2-1,9-.25,19.35-16.3,25.4-17.8,25.4Z" fill="#fff"/>
      <path d="m435.75,14.25c.55,0,1.1.2,1.75.35,1.7.4,2.6,1.15,2.7,2.8,1.7-1.25,7.3-5.8,7.3-7.15,0-.55-.6-.85-1.2-.85-2.35,0-9.6.9-15.2,2.75-1.55.5-2.45.95-3.55.95-.95,0-6.55-1.45-6.55-4.65,0-.5.2-.8.55-.8.25,0,.55.2.9.5.8.75,2.55,1.05,4.6,1.05.8,0,1.7-.05,2.6-.15,4.85-.5,11.05-1.4,15.45-1.75,1.85-.15,1.9-.8,2.7-.8,1.3,0,6.4,2.5,6.4,4.7,0,1.35-2.5,1.55-3.5,2.15-3.25,2.05-7.6,4.35-10.65,5.7-1.35,7.5-9.2,19.85-20.05,23.15-1.05.3-1.6.45-1.85.45-.1,0-.15,0-.15-.05,0-.15.6-.5,1.5-1.05,9.4-5.35,16.2-18.2,16.2-23.05,0-1.4-.55-2-1.45-2-1.05,0-1.45-.25-1.45-.55,0-.7,1.7-1.7,2.8-1.7h.15Z" fill="#fff"/>
      <path d="m464.25,31.4c0-1.75.2-3.45.5-5.05.65-3.4,1.7-6.5,2.25-9.4.25-1.25.35-2.4.35-3.45,0-2.2-.45-3.85-.95-4.75-.3-.55-.7-1-.7-1.25s.25-.35,1-.35c1.55,0,4.15,2.2,4.15,5.9,0,1.65-.55,3.3-1.4,5.4-1.25,3.1-2.75,6.85-2.75,10.25,0,1.15.3,3.1.75,3.1.15,0,.35-.25.55-.75,1.25-2.65,4.65-9.3,5.2-9.3.05,0,.1.1.1.2,0,.2-.1.6-.35,1.2-.7,1.65-3.4,8.8-3.4,13.05,0,1.05.15,1.9.35,2.7.1.35.15.7.15,1,0,1.25-.75,2-1.6,2-3.4,0-4.2-8.05-4.2-10.5Zm30.6,3.4c1.95,0,3,.9,3,1.9,0,3.1-7.05,3.15-7.95,3.15-8.6,0-11.3-4.45-11.3-6.9,0-.35.05-.5.2-.5.25,0,.6.35,1.05,1,1,1.45,4.35,2.4,8.05,2.4,1,0,2-.05,3-.2,1.2-.2,2-.8,3.7-.85h.25Zm-7.65-17.8c-7.5,0-7.9-4.5-7.9-4.85,0-.15.05-.2.2-.2s.5.2.95.45c1.4.85,3.25,1.15,5.1,1.15,1.45,0,2.85-.2,4.15-.5.65-.15,1.2-.5,1.85-.6.35-.05.65-.1.95-.1,1.6,0,2.6.85,2.6,1.75,0,2.45-5.45,2.9-7.9,2.9Z" fill="#fff"/>
      <path d="m25,99.1c0,.3-.25.6-1.05.6h-8.65c0,.85-.05,1.85-.05,2.85h.05c5.8.3,7.45,2.45,7.45,4,0,1-.75,1.85-1.65,1.85-.6,0-1.3-.35-1.9-1.25-1.15-1.7-2.65-3.1-3.95-4,0,3.9.1,8.5.3,11.75v.1c0,1.15-1.15,1.75-2.1,1.75-.8,0-1.55-.45-1.55-1.45v-.15c.2-3.15.3-7.15.35-10.7C7.2,111,.4,112.95.2,112.95c-.1,0-.2-.05-.2-.1,0-.15.25-.35.8-.7,4.15-2.6,9.6-8.95,11-12.45-2.1,0-4.1.15-7.35.45h-.05c-.8,0-2.05-1.85-2.05-2.4,4.05.5,7.3.65,9.95.7v-1.2c-.05-1.3-.1-3.05-.4-4.2-.05-.2-.1-.3-.1-.4,0-.05.05-.05.2-.05.45,0,5.4.55,5.4,1.65,0,.35-.3.7-.85.95-.85.4-1,.25-1.1,1.55l-.1,1.7h2.9c.2,0,.6-.2.75-.45,1.6-2.35,2-2.35,2.1-2.35.7,0,3.9,2.45,3.9,3.45Zm.7-7.9c0,.35-.25.65-.95.65h-11.85c-2.35,0-5.4.05-9.2.45h-.05c-.75,0-2.05-1.85-2.05-2.4,4.45.6,8.95.7,11.4.7h.65c2.3-4.85,2.8-7.5,2.9-9.15.05-.35,0-.5.1-.5.35,0,5.1,2,5.1,2.9,0,.35-.45.65-1.4.7-.7.05-.65.2-1.05.7-.95,1.2-2.55,3.35-4.3,5.35h3.9c.1,0,.4-.15.55-.4.3-.6,1.7-2.7,2.25-2.7.15,0,.25.05.3.05,1.7.75,3.7,3.05,3.7,3.65Zm-1.35-11.7c0,.3-.2.65-1,.65h-9.6c-2.6,0-4.3.05-8.4.45h-.05c-.85,0-1.95-1.8-1.95-2.4,3.7.5,6.35.65,8.65.7v-1.25c-.05-1.75-.1-3.9-.45-5.4-.05-.2-.1-.3-.1-.35,0-.1.05-.1.2-.1.55,0,5.95.65,5.95,1.75,0,.35-.35.7-1.1,1.1-.9.5-1,.55-1,4.25h2.2c.2,0,.5-.15.65-.4.5-.9,1-1.65,1.75-2.45.1-.1.25-.15.4-.15.6,0,3.85,2.35,3.85,3.6Zm-11.75,7.15c0,1.25-.95,2.2-1.9,2.2-.75,0-1.55-.55-1.95-1.85-.4-1.2-1.5-3.2-2.4-4.35-.25-.35-.4-.5-.4-.6,0,0,.05-.05.1-.05,1.45,0,6.55,1.7,6.55,4.65Zm35.05,2.35c0,.3-.25.65-1,.65h-6.2c.25.15.35.3.35.45,0,.3-.4.55-.85.7q-.75.2-.75,6.65c0,5.45.15,13.45.3,17.5v.05c0,.9-1.3,1.5-2.45,1.5-.9,0-1.7-.35-1.7-1.3v-.1c.25-3.25.4-13.2.4-18.6,0-2.75-.05-5.75-.3-6.85h-4.8v2.1c-.3,22.05-13.75,24.6-13.8,24.6s-.1,0-.1-.05c0-.15.3-.4,1.05-.9,8.05-5.4,9.35-16.2,9.35-23.3v-.4c0-6.7,0-13-.8-15.35-.05-.1-.05-.2-.05-.25s.05-.05.1-.05c.3,0,3.35.8,5.55,1.9l.05.05c4.05-2.3,6.2-4.2,6.9-5.35.1-.2.15-.3.3-.3.6,0,4.3,3.55,4.3,4.5,0,.3-.25.45-.75.45-.25,0-.55-.05-.95-.15-.25-.05-.5-.15-.75-.15-.15,0-.3.05-.5.1-1.3.45-5.85,1.7-8.95,2.25-.85.4-.9.5-.9,3.2v5.9h9.75c.25,0,.5-.2.65-.45,1.95-2.75,2.15-2.85,2.5-2.85.9,0,4.05,2.85,4.05,3.85Z" fill="#fff"/>
      <path d="m66.65,87.05c-2.55,7.3-4.8,14.6-6.45,21.95-.7,3.25-2.3,4.95-3.55,4.95-.8,0-1.65-1.1-1.65-2.55,0-1.05.5-2.25,1.3-3.75,2.15-3.95,7.8-19.65,8-20.55-1.5.35-2.3.45-3.05.45-5.35,0-6.9-3.7-6.9-4.9,0-.25.1-.35.25-.35.25,0,.6.25,1,.45,1.35.7,3.2,1.6,5.5,1.6,1.5,0,2.95-.3,3.85-.55.15-.9.2-1.85.2-2.7,0-1.8-.35-3.25-1.4-3.35-.65-.05-1.25-.25-1.25-.65,0-.3.85-1.6,2.35-1.6,2.15,0,3.35,2.1,3.5,3.9,1.4.25,2.15.35,3,.35h.6c.95,0,1.7.7,1.7,1.55,0,.65-.35,2.75-6.7,4.95l-.3.8Zm1.35-4.3c.25-.1,1.95-.95,1.95-1.7,0-.35-.2-.65-1.55-1.15,0,.85-.15,1.8-.4,2.85Zm13.3,27c.9,0,1.8-.3,3.25-.3,2.65,0,4,1,4,2.05s-1.4,2.3-5.3,2.3c-6.15,0-11.65-3.25-11.65-7,0-1.9,1.5-3.45,1.8-3.45.15,0,.2.2.2.4,0,.3-.1.75-.25,1.05-.1.25-.2.55-.2.8,0,2.1,3.5,4.15,7.9,4.15h.25Zm7.15-20c-2.8.5-4.35.95-7.45,3.35-.45.35-.75.5-.95.5-.05,0-.1-.05-.1-.1,0-.15.1-.4.35-.7,2.7-3.4,3.1-4,3.1-4.6,0-1.2-2.75-1.8-3.8-1.8-.2,0-.4,0-.55.05-.7.15-1.25.25-1.55.25-.2,0-.3,0-.3-.1,0-.15,1.4-2.05,5-2.05,4.35,0,7.95,2.35,7.95,3.75,0,.7-.6,1.25-1.7,1.45Z" fill="#fff"/>
      <path d="m110.5,84.6c-.7.15-1.35.25-1.95.3-.3,0-.55.05-.85.05-4.6,0-6.35-3.35-6.35-4.95,0-.2.1-.3.25-.3.25,0,.6.25.95.45,1.6.95,3.25,1.7,5.2,1.7,1.7,0,3.25-.4,3.55-.5.1-.75.15-1.5.15-2.15,0-2.9-.7-3.1-1.3-3.1-1.05,0-1.2-.25-1.2-.45,0-.1.05-.55.9-1.4.45-.35.9-.45,1.4-.45.9,0,3.15.5,3.15,3.7.55.05,1.15.05,1.65.05,1.55,0,3.05.05,3.05,1.4,0,1.45-2.75,3.75-6.15,4.95-1.4,3.5-3.3,7.95-7.6,17.3-.85,1.85-2.35,2.8-3.45,2.8-.8,0-1.4-.45-1.4-1.4,0-.65.35-1.6,1.15-2.8,2.7-4,6.95-9.95,8.75-14.95l.1-.25Zm3.55,31c-3.95,0-6.75-3.05-6.75-5.6,0-3.3,4.4-5,9-5,1.1,0,2.25.1,3.35.3,0-2-.2-4.1-.2-5.85.05-4.35,1.05-6.55,4.7-9.1,1.35-.95,2.95-2.15,2.95-3.35,0-.55-.2-.75-1.5-2.05-.5-.45-.8-.75-.8-1,0-.2.35-.3,1.2-.3,2.4,0,6.35,2.15,6.35,5.2,0,.95-.6,2.8-2.15,2.8-.5,0-1-.1-1.6-.25-.3-.05-.6-.1-1-.1-.65,0-6.2.1-6.2,5.05,0,1.35.25,3.35.85,7.4.1.75.2,1.55.25,2.3,2.75.9,7.35,3.35,7.35,6.3,0,1.2-.75,2.2-1.7,2.2-.65,0-1.4-.45-2-1.6-.8-1.45-2.15-2.75-3.8-3.75-.85,3.7-4.55,6.4-8.3,6.4Zm.6-8.65c-3.45,0-5.85,1.45-5.85,2.9s2.15,2.55,4.5,2.55c2.95,0,5.75-1.65,6.2-4.55-1.55-.55-3.2-.9-4.85-.9Zm.4-27.2c.3-.25.6-.6.6-.95,0-.15-.05-.45-1.25-.85-.05.75-.2,1.5-.4,2.4l1.05-.6Z" fill="#fff"/>
      <path d="m145.1,114.8c.55-6.5.85-16.9.9-23.55,0-.95.05-2.45.05-3.85-3.9,4.9-7.7,7.9-8.35,7.9-.1,0-.15-.05-.15-.1,0-.15.15-.4.55-.8,3.75-4,10.7-15.05,11.6-21.45.05-.25,0-.4.2-.4.5,0,5.4,2,5.4,3.15,0,.35-.5.7-1.55.95-.65.15-.8.3-1.3,1.15-1.15,2-2.35,3.95-3.6,5.8,2,.45,2.6.7,2.6,1.1,0,.35-.4.65-1,.95-.9.45-.95.5-1,1.9-.2,3.85-.25,10.2-.25,16.25,0,4,0,7.9.1,10.85,0,1.25-1.05,2.3-2.45,2.3-.95,0-1.75-.55-1.75-1.9v-.25Zm36.55-.45c0,1.2-1.2,1.95-2.25,1.95-.9,0-1.7-.5-1.7-1.65v-2.65h-19.6v2.55c0,.95-1.05,1.85-2.25,1.85-.85,0-1.6-.45-1.6-1.55v-.2c.35-4.85.4-14.65.4-19.4,0-2.85,0-6.1-.65-8.95-.05-.15-.05-.25-.05-.3,0-.1.05-.15.1-.15.4,0,3.9,1.4,5.1,2.2l.2.15h3.1v-5.8c0-.95-.1-2.2-.2-3.25-2.2.05-4.6.2-6.7.4h-.05c-.85,0-2.1-1.8-2.1-2.4,4.65.6,11.35.75,14,.75h9c.2,0,.55-.2.7-.45,1.9-2.7,2.15-3.05,2.65-3.05.1,0,.2,0,.3.05,1.2.45,4.25,2.9,4.25,4.05,0,.3-.25.6-1.05.6h-8.9c.15.1.25.2.25.35,0,.2-.2.45-.65.65-.45.2-.55.35-.6,1.3,0,.5-.05,3.2-.05,6.8h3.5c.3,0,.45-.2.6-.4.05-.1,1.05-1.55,1.65-1.55s4.25,1.8,4.25,3c0,.5-.55.9-1.2,1.25-.85.45-.85.85-.85,3.8,0,5.1.2,16,.4,19.9v.15Zm-19.25-3.65c.05-3.05.05-13.8.05-21.15h-3.25l-.6.4c-.6.3-.6.45-.6,11.55,0,3.1.05,6.4.05,9.2h4.35Zm7.55,0c.05-3.2.05-13.85.05-21.15h-4.25c0,7.6-.05,18.15-.05,21.15h4.25Zm.05-28.3c0-1-.05-2.2-.2-3.3h-3c.2.1.25.25.25.35,0,.25-.25.5-.65.65-.4.15-.55.35-.6,1.3,0,.5-.05,3.2-.05,6.8h4.25v-5.8Zm7.7,28.3c.05-4.3.1-9.9.1-14.25,0-2.8-.05-5.15-.1-6.3,0-.3-.2-.6-.6-.6h-3.8c0,7.55-.05,18.05-.05,21.15h4.45Z" fill="#fff"/>
      <path d="m200.2,114.6c0,1.45-1.45,2.2-2.45,2.2s-1.8-.55-1.8-1.9v-.25c.55-6.75.95-17.45.95-24.25v-2.7c-5.4,6.45-9,8.05-9,8.05-.05,0-.05-.05-.05-.1,0-.1.2-.4.6-.8,4.8-4.8,11.95-17.15,12.65-22.3.05-.3,0-.45.15-.45.5,0,5.65,2.25,5.65,3.3,0,.4-.5.75-1.65,1-.65.15-.85.35-1.35,1.2-1.35,2.3-2.75,4.45-4.2,6.5,1.8.4,2.6.55,2.6,1.05,0,.35-.4.7-1.1,1-.8.35-.8.5-.85,1.65-.2,3.7-.25,9.9-.25,15.9,0,4,0,7.9.1,10.85v.05Zm28.3-7.65c0,1.05-1.1,1.65-2.1,1.65-.85,0-1.6-.4-1.6-1.4l.05-1.15h-8.15v1.85c0,.95-1.05,1.5-2.05,1.5-.8,0-1.5-.4-1.5-1.25v-.15c.3-3.25.3-15.4.3-17.85,0-.65-.2-4.35-.55-6.1-.05-.15-.05-.25-.05-.3,0-.15.05-.15.15-.15.3,0,3.5,1.2,4.65,2.05l.1.1.3-5h-1.7c-2.65,0-6,.1-10.1.55h-.05c-.85,0-2.35-1.95-2.35-2.6,4.65.65,10,.8,12.75.8h1.5v-.35c.05-.7.05-1.55.05-2.45,0-1.4-.05-2.9-.3-4.05-.05-.15-.05-.25-.05-.3,0-.15.05-.15.2-.15.75,0,5.7.75,5.7,1.75,0,.4-.5.8-1.25,1.15-.6.25-.75.4-1,4.4h4.15c.3,0,.65-.2.8-.45.1-.15,2-3.05,2.7-3.05.85,0,4.55,2.95,4.55,4.15,0,.3-.25.6-1.05.6h-11.25c-.15,1.85-.25,3.75-.3,5h2.8c.2,0,.45-.15.65-.4.4-.65,1.35-1.4,1.5-1.4.45,0,4,1.7,4,2.75,0,.4-.35.7-.9,1.05-.85.55-.9.65-.9,3.5,0,3.75.1,12.3.3,15.6v.1Zm-19.65,6.15c0,.6.05,1.1.05,1.45v.05c0,1.45-1.7,1.9-2.15,1.9-.85,0-1.6-.5-1.6-1.65v-.15c.2-3.3.3-13.35.3-19.65,0-4.35-.05-7.15-.4-9.05-.05-.15-.05-.25-.05-.3,0-.15.05-.15.2-.15,1.3,0,5.55.9,5.55,1.7,0,.35-.4.7-.75.9q-1.25.7-1.25,10.5c0,4.6.05,9.85.1,13.2h17.45c.25,0,.6-.2.75-.45.55-.85,1.65-2.3,2.45-2.9.1-.1.3-.15.5-.15.1,0,.2,0,.3.05,1.7.6,4.45,3.2,4.45,4.1,0,.3-.25.6-1.1.6h-24.8Zm8.75-26.1c-.1.1-.25.15-.4.25-.55.3-.55.55-.55,4.6h8.25c0-1.9,0-3.45-.05-4.25,0-.35-.2-.6-.65-.6h-6.6Zm7.3,6.05h-8.25v4.95h8.25v-4.95Zm-8.25,6.15c0,2.05.05,4.05.05,5.65h8.15c0-1.55.05-3.55.05-5.65h-8.25Z" fill="#fff"/>
      <path d="m256.8,101.35c-4,2.5-5.6,5-5.6,6.95s2.05,4.3,6.25,4.3c1.85,0,3.95-.45,5.75-1.4.6-.3,1.15-.45,1.65-.45,1.25,0,2.1.8,2.1,1.75,0,2.3-4.45,3.6-8.05,3.6-5.4,0-9.8-3.25-9.8-7.05,0-3.1,2.8-6.6,7.75-9.55,0-3.1-.4-7.4-3.2-7.4-1.2,0-2.7.95-4.45,3.3l-1.5,2.8c-1.05,1.9-2.25,3.9-3.65,3.9-.2,0-1.5-.05-1.5-1.8,0-1,.5-2.45,2.05-3.85,4.6-4.15,6.1-6.85,8.3-11.8l.1-.2-.05.05c-1,.25-1.9.4-2.75.4-4.85,0-6.2-3.4-6.2-4.75,0-.2.05-.25.15-.25.25,0,.6.2,1.25.65,1.5,1.05,2.9,1.35,4.2,1.35,1.5,0,3.05-.35,4.4-.8.1-.55.1-1.05.1-1.4,0-1.15-.2-2.5-1.9-2.9-.45-.1-.9-.25-.9-.5,0-.15.75-1.25,2.45-1.25,1.3,0,2.35.4,2.85,2.3h.4c.95.05,1.7.15,2.3.15.25,0,.45-.05.65-.1.3-.15.6-.2.85-.2,1.25,0,1.25,1.15,1.25,1.35,0,2.65-5,4.6-6.75,5.2l-.1.25c-1.7,3.7-2.75,5.6-3.85,7.55.95-.5,1.85-.7,2.7-.7,2.6,0,4.5,2.15,5.2,5.2,1.45-3.65,5.3-10.65,11.05-10.65,2.75,0,6.2,1.85,6.2,4.4,0,1.95-2.1,3.95-5.5,5.25-3.5,1.3-7.8,3-11.2,4.65.15,1.15.2,2.35.2,3.55,0,.6,0,1.25-.05,1.85-.15,1.95-1.5,3.25-2.6,3.25-.75,0-1.4-.65-1.4-2.3,0-.15.05-.4.05-.6.1-1.25.75-1.75.8-3.4v-.7Zm-.1-23.55c.05.2.05.4.05.6,0,.55-.1,1.1-.2,1.7,1.15-.55,1.75-.85,1.75-1.45,0-.25-.2-.5-1.45-.8l-.15-.05Zm12.7,15.1c2.2-1.2,3.2-2.4,3.2-3.5s-.95-2.45-2.9-2.45c-4.6,0-8.8,7.05-10.15,11.05,3.05-1.6,6.95-3.5,9.85-5.1Z" fill="#fff"/>
      <path d="m322.4,85.5c0,.95-.9,2-2.4,2-.9,0-1.75-.5-1.75-1.7v-1h-25.15c-.1,11-1.3,22.35-10.35,29.4-.7.5-1.3.85-1.5.85-.05,0-.1,0-.1-.1,0-.15.25-.5.85-1.2,6.15-6.9,7.25-17.7,7.25-27.15,0-5.25-.35-10.55-.95-13.45-.05-.2-.05-.3-.05-.4,0-.05,0-.1.1-.1.3,0,3.85,1.1,5.9,2.4.1.05.15.15.2.2h22.65c.35,0,.7-.3.85-.5,1-1.3,1.45-1.75,1.9-1.75.55,0,4.5,2.2,4.5,3.45,0,.5-.6.9-1.5,1.35-.6.3-.8.5-.8,1.7,0,1.35.25,4.75.35,5.9v.1Zm-4.1-8.2c0-.55-.3-.75-.85-.75h-23.05l-.45.35c-.65.45-.8.7-.85,1.35v5.2h25.2v-6.15Zm4.2,37.15c0,1.2-1.2,1.95-2.25,1.95-.85,0-1.65-.5-1.65-1.6l.05-1.85h-19.25v2.2c0,1.1-1.15,1.75-2.2,1.75-.85,0-1.6-.45-1.6-1.45v-.2c.3-4.1.4-9.15.4-12.7,0-1.6-.05-2.9-.05-3.65,0-.7-.15-4.2-.55-5.95-.05-.15-.05-.25-.05-.3,0-.1.05-.15.1-.15.45,0,3.5,1.25,4.75,2.05l.3.2h6.45c0-.6-.05-1.1-.05-1.6-.05-1.3-.05-4.55-.5-6.45-.05-.15-.05-.25-.05-.3,0-.1.05-.1.1-.1.3,0,6.25.8,6.25,1.95,0,.4-.5.8-1.1,1.15-1,.6-1.05.65-1.2,5.35h7.4c.2,0,.25-.1.45-.35,1.15-1.5,1.5-1.5,1.6-1.5.35,0,4.3,1.7,4.3,2.85,0,.45-.5.8-1.05,1.2-1,.65-1,.85-1,3.4,0,3.55.2,10.05.4,14v.1Zm-15.5-18.35h-6.7l-.45.25c-.4.25-.45.35-.45,1.3s-.05,2.8-.05,5.05h7.65v-6.6Zm0,7.85h-7.65c0,2.4.05,5.15.05,7.7h7.6v-7.7Zm3.4-7.85c-.05,1.95-.05,4.25-.05,6.6h8.35c0-2.65,0-4.9-.05-6,0-.4-.25-.6-.6-.6h-7.65Zm0,7.85v7.7h8.25c0-2.4.05-5.15.05-7.7h-8.3Z" fill="#fff"/>
      <path d="m336.7,100.15c0-4.6,1.05-8.95,1.65-12.6.2-1.15.35-2.3.35-3.3,0-2.35-.9-3.3-3-4.45-.5-.25-.8-.6-.8-.9,0-.2.3-.75,1.6-.75,3.1,0,5.6,4.1,5.6,5.9,0,1.05-.35,2.1-.85,3.45-1.2,3.25-2.4,7.15-2.4,10.55,0,.95.4,4.1.95,4.1.15,0,.35-.25.6-.75,1.5-3.45,5.65-11.8,6.35-11.8.05,0,.1.1.1.2,0,.4-.2,1.1-.5,1.8-3.75,8.7-3.9,13.2-3.9,14.55,0,1.25.15,2.6.5,3.5.15.45.25.8.25,1.15,0,1-.65,1.55-1.45,1.55-2.9,0-5.05-5.65-5.05-12.2Zm22.9-4l-.1-6.35c-.45.05-.9.05-1.3.05h-1.25c-6.85,0-7.5-4.15-7.5-4.15,0-.15.05-.15.15-.15.2,0,.7.25,1.2.45,1.65.65,3.9.85,6,.85h.8c.6,0,1.2-.05,1.85-.15v-2.55c0-2.85-.25-5.25-2.1-5.25h-.35c-.8,0-1.1-.2-1.1-.5,0-.45,1.1-1.55,2.65-1.55,1.2,0,4.2,1.2,4.2,4.1,0,.2-.05.4-.05.65.95.25,2,.45,2.75.55.65.05,1.3.05,1.75.15.95.2,1.6.95,1.6,1.9,0,2.6-3.7,4.3-6.5,5.05.05,2.2.25,4.3.45,6.45.05.7.1,1.4.1,2.1,0,15.4-14.15,19.65-15.7,19.65-.1,0-.2,0-.2-.05,0-.2.5-.6,1.9-1.35,5.75-3.2,10.75-11,10.75-19.3v-.6Zm3.05-13.7c0,.1,0,.2-.05.35-.15,1.1-.25,2.15-.3,3.15.85-.3,2.65-1.25,2.65-2.1,0-.55-.75-1.1-2.3-1.75v.35Z" fill="#fff"/>
      <path d="m387.35,95.65s.1-.05.25-.15c2.25-1.45,5.05-2.25,7.85-2.25,6.45,0,10.4,4.5,10.4,9.35s-4.6,11.4-13.8,11.4c-4.85,0-8.1-2.4-8.1-5.1,0-2.4,2.5-3.75,4.9-3.75,3.3,0,5.35,2.55,5.35,5.15,0,.4-.05.85-.15,1.25,5.8-1.4,8.05-5.4,8.05-8.9,0-3.95-2.8-7.5-7.85-7.5-1.75,0-7.55.45-10.9,7.55-1.2,2.6-2,4.15-3.7,4.15-.9,0-1.6-.7-1.6-1.7,0-1.45,1.85-3.6,4.15-6.25,3-3.45,10.05-12.95,12.15-16.4.25-.35.35-.7.35-.95,0-.35-.2-.85-1.25-.85-2.35,0-3.45,4.8-6.8,4.8-1.85,0-3.35-1.2-3.35-3.05,0-.55.1-1,.45-1,.25,0,.55.1.95.25.4.15.8.2,1.2.2.7,0,1.4-.2,2.05-.7,1.95-1.35,4.25-3,6.9-3,2.95,0,4.75,2.05,4.75,3.15,0,1-1.1,1.9-2.15,2.7-3.6,2.75-10.1,11.45-10.1,11.55v.05Zm3.85,14.45c0-1.75-1.35-3.25-3.2-3.25-2.2,0-2.25,1.65-2.25,1.9,0,.2,0,2.55,5,3.05.3-.55.45-1.15.45-1.7Z" fill="#fff"/>
      <path d="m429.15,87.05c-2.55,7.3-4.8,14.6-6.45,21.95-.7,3.25-2.3,4.95-3.55,4.95-.8,0-1.65-1.1-1.65-2.55,0-1.05.5-2.25,1.3-3.75,2.15-3.95,7.8-19.65,8-20.55-1.5.35-2.3.45-3.05.45-5.35,0-6.9-3.7-6.9-4.9,0-.25.1-.35.25-.35.25,0,.6.25,1,.45,1.35.7,3.2,1.6,5.5,1.6,1.5,0,2.95-.3,3.85-.55.15-.9.2-1.85.2-2.7,0-1.8-.35-3.25-1.4-3.35-.65-.05-1.25-.25-1.25-.65,0-.3.85-1.6,2.35-1.6,2.15,0,3.35,2.1,3.5,3.9,1.4.25,2.15.35,3,.35h.6c.95,0,1.7.7,1.7,1.55,0,.65-.35,2.75-6.7,4.95l-.3.8Zm1.35-4.3c.25-.1,1.95-.95,1.95-1.7,0-.35-.2-.65-1.55-1.15,0,.85-.15,1.8-.4,2.85Zm13.3,27c.9,0,1.8-.3,3.25-.3,2.65,0,4,1,4,2.05s-1.4,2.3-5.3,2.3c-6.15,0-11.65-3.25-11.65-7,0-1.9,1.5-3.45,1.8-3.45.15,0,.2.2.2.4,0,.3-.1.75-.25,1.05-.1.25-.2.55-.2.8,0,2.1,3.5,4.15,7.9,4.15h.25Zm7.15-20c-2.8.5-4.35.95-7.45,3.35-.45.35-.75.5-.95.5-.05,0-.1-.05-.1-.1,0-.15.1-.4.35-.7,2.7-3.4,3.1-4,3.1-4.6,0-1.2-2.75-1.8-3.8-1.8-.2,0-.4,0-.55.05-.7.15-1.25.25-1.55.25-.2,0-.3,0-.3-.1,0-.15,1.4-2.05,5-2.05,4.35,0,7.95,2.35,7.95,3.75,0,.7-.6,1.25-1.7,1.45Z" fill="#fff"/>
      <path d="m479.6,98.05c1.8.6,2.65,1.4,2.65,2.3,0,.7-.6,1.45-1.9,1.45-.15,0-1.2,0-2.8-.7-2.7,3.65-6.35,7.25-9.55,7.25-2.35,0-4.25-2.55-4.25-6s1.85-7.55,5.25-11.1c-.5-1.1-.95-2.25-1.35-3.3-.75-2-1.4-4.2-2.15-5.7-.3-.65-.45-1.05-.45-1.35s.15-.45.4-.45c.8,0,3.25,1.4,4.05,3.5.55,1.4,1.2,3.25,1.95,5.1,2.95-2.25,6.65-3.85,10.45-4.2.05-.5.05-1,.05-1.45,0-2.05-.45-3.6-1.4-4.25-.5-.35-1.3-.45-1.3-.8s1-1.2,2.25-1.2,3.8.85,3.8,5.05c0,.85-.1,1.7-.25,2.65,6.65.7,11.7,6.05,11.7,12.5,0,3.2-1.25,6.6-4.2,9.7-5.1,5.35-14.25,7.15-17.25,7.15-.55,0-.85-.1-.85-.2,0-.2.75-.55,2.25-.95,7.4-1.9,16.3-7.45,16.3-15.85,0-4.95-3.2-9.25-8.45-10.2-.95,3.55-2.75,7.5-4.95,11.05Zm-9.9-5.3c-2.3,2.75-3.4,5.65-3.4,8,0,2.05.95,4.2,2.55,4.2.95,0,3.95-1.1,6.8-4.9-2.6-1.75-4.5-4.4-5.95-7.3Zm2.35-2.3c1.3,2.85,2.95,5.6,5.4,6.85,2.2-3.65,3.55-7.35,4.15-10.5-3.4.1-6.8,1.45-9.55,3.65Z" fill="#fff"/>
      <path d="m507.5,103.4c0-1.75.2-3.45.5-5.05.65-3.4,1.7-6.5,2.25-9.4.25-1.25.35-2.4.35-3.45,0-2.2-.45-3.85-.95-4.75-.3-.55-.7-1-.7-1.25s.25-.35,1-.35c1.55,0,4.15,2.2,4.15,5.9,0,1.65-.55,3.3-1.4,5.4-1.25,3.1-2.75,6.85-2.75,10.25,0,1.15.3,3.1.75,3.1.15,0,.35-.25.55-.75,1.25-2.65,4.65-9.3,5.2-9.3.05,0,.1.1.1.2,0,.2-.1.6-.35,1.2-.7,1.65-3.4,8.8-3.4,13.05,0,1.05.15,1.9.35,2.7.1.35.15.7.15,1,0,1.25-.75,2-1.6,2-3.4,0-4.2-8.05-4.2-10.5Zm30.6,3.4c1.95,0,3,.9,3,1.9,0,3.1-7.05,3.15-7.95,3.15-8.6,0-11.3-4.45-11.3-6.9,0-.35.05-.5.2-.5.25,0,.6.35,1.05,1,1,1.45,4.35,2.4,8.05,2.4,1,0,2-.05,3-.2,1.2-.2,2-.8,3.7-.85h.25Zm-7.65-17.8c-7.5,0-7.9-4.5-7.9-4.85,0-.15.05-.2.2-.2s.5.2.95.45c1.4.85,3.25,1.15,5.1,1.15,1.45,0,2.85-.2,4.15-.5.65-.15,1.2-.5,1.85-.6.35-.05.65-.1.95-.1,1.6,0,2.6.85,2.6,1.75,0,2.45-5.45,2.9-7.9,2.9Z" fill="#fff"/>
    </g>
  </g>
</svg>