<?xml version="1.0" encoding="utf-8"?>
<!-- Generator: Adobe Illustrator 27.1.1, SVG Export Plug-In . SVG Version: 6.00 Build 0)  -->
<svg version="1.1" id="_レイヤー_2" xmlns="http://www.w3.org/2000/svg" xmlns:xlink="http://www.w3.org/1999/xlink" x="0px"
	 y="0px" viewBox="0 0 442.5 222.8" style="enable-background:new 0 0 442.5 222.8;" xml:space="preserve">
<g id="_デザイン">
	<g>
		<path d="M15.7,30.7c-0.8,0-1.1-0.4-1.1-0.9c0-0.4,0.3-0.8,0.7-0.8h0.2c5.3,0,9.4-3.5,9.4-9.3c0-3.6-1.5-11.1-9.4-11.1
			c-3.7,0-3.7,1.3-3.7,8.3c-0.1,4.1-0.1,9.1-0.1,13.6c0,17.1,0.2,17.2,6.2,17.8c0.4,0.3,0.5,0.7,0.5,1c0,0.4-0.2,0.7-0.6,0.7
			c-0.1,0-5-0.4-10-0.4c-2.5,0-5,0.1-7,0.4H0.7c-0.4,0-0.6-0.2-0.6-0.6c0-0.4,0.2-0.8,0.6-1.1c5.2-0.6,5-2,5.2-10
			c0.1-2.3,0.1-7.9,0.1-12.9c0-3.7,0-7-0.1-8.5C5.6,9.2,5.3,9.2,0.5,8.7C0.2,8.5,0,8.1,0,7.7c0-0.4,0.3-0.8,0.7-0.8
			C2.6,7,4.3,7.1,5.9,7.1c3.1,0,5.9-0.2,9.5-0.4h1.1c7.7,0,14.9,3.6,14.9,11.8C31.4,28.9,21.7,30.7,15.7,30.7z"/>
		<path d="M84.2,23c0,5.2,0.1,10.9,0.2,15c0.2,7-0.1,9.4,5.3,10.2c0.4,0.2,0.5,0.5,0.5,0.9c0,0.5-0.4,0.9-0.7,0.9
			c0,0-4.9-0.4-9.7-0.4c-2.5,0-4.9,0.1-6.7,0.4h-0.1c-0.4,0-0.5-0.4-0.5-0.7c0-0.4,0.2-0.8,0.5-1.1c4.9-0.7,5.4-1.8,5.4-7.7v-1.4
			c-0.1-3-0.1-10.3-0.1-16.3c0-2.7,0-5.1,0.1-6.8V16c0-0.2-0.1-0.3-0.1-0.3c-0.7,0-13.7,26-16.3,31.7c-0.5,1.2-0.9,1.6-1.7,1.6
			c-0.7-0.1-1-0.7-1.3-1.7c-0.7-2.3-3-7.3-5.8-12.9C50.5,29,47,21.9,44.8,16.9c-0.2-0.5-0.4-0.7-0.4-0.7c-0.4,0-1.3,13.4-1.3,19.8
			c0,10.9,0,11.5,5.2,12.2c0.3,0.2,0.5,0.5,0.5,0.9c0,0.5-0.3,0.9-0.7,0.9h-0.1c0,0-3.6-0.4-7.5-0.4c-1.9,0-4,0.1-5.6,0.4h-0.1
			c-0.4,0-0.6-0.3-0.6-0.7s0.2-0.8,0.5-1.1c4.6-0.5,5.3-3,5.9-11.6c0.1-2.8,1-16,1.4-21.4c0-0.3,0.1-0.6,0.1-0.9
			c0-3.8-2.2-5.2-6.6-5.8c-0.3-0.2-0.5-0.6-0.5-1c0-0.4,0.2-0.8,0.8-0.8c0,0,3.2,0.3,6.5,0.3c1.6,0,3.2-0.1,4.4-0.3
			c0.2-0.1,0.3-0.1,0.4-0.1c0.5,0,0.7,0.4,0.8,1.2c0.2,0.7,1.2,3.2,1.5,4C53.6,22.6,60,33.1,62.5,39.1c0.1,0.2,0.2,0.4,0.4,0.4
			c0.4,0,15.5-29.3,16-31.7C79,7.3,79.3,7,79.9,7H80c1.3,0.1,2.7,0.2,4,0.2c2,0,4.1-0.1,6.1-0.4h0.1c0.4,0,0.7,0.4,0.7,0.9
			c0,0.4-0.2,0.8-0.5,0.9C84.3,9.3,84.2,10.7,84.2,23z"/>
		<path d="M132.2,8.4c4.4,0,6.8,1.6,6.8,3.3c0,1.1-1,2.2-3.3,2.2c-0.4,0-0.9-0.1-1.4-0.1c-1.1-0.2-2.2-0.2-3.3-0.2
			c-3.6,0-7.1,0.8-8.7,1.7c-4,2.2-7,11-7,18.5c0,12.2,7.8,12.6,9.3,12.6c1.1,0,2.2-0.2,3.4-0.6c0.6-0.2,1.1-0.3,1.7-0.3
			c1.9,0,3.1,1.1,3.1,2.5c0,3.1-5.5,3.6-7.6,3.6c-6.2,0-12.8-3.9-12.8-15.4c0-7,2.3-15.1,5.6-18.9c0.3-0.4,0.6-0.7,0.6-0.7
			s0-0.1-0.1-0.1c-0.7,0-6.4,2.4-12.7,5.8c-1.1,0.6-2.5,0.8-3.9,0.8c-2.9,0-5.6-1.2-5.6-3.4c0-0.6,0.2-0.7,0.5-0.7s0.8,0.1,1.2,0.2
			c0.8,0.2,1.7,0.3,2.7,0.3c1.2,0,2.5-0.2,3.9-0.7c4.1-1.5,13.4-6.6,22.3-9c1.5-0.4,2.4-1.1,4.9-1.3H132.2z M133.5,25
			c-1.6-1.8-3.5-3.2-5-4.1c-0.5-0.3-1-0.5-1-0.7c0-0.5,2.2-0.5,2.3-0.5c4.7,0,7.1,2.1,7.1,4.1c0,1.1-0.8,2-1.8,2
			C134.6,25.9,134,25.6,133.5,25L133.5,25z M139.9,22.1c-1.6-1.7-3.6-3.2-5.2-4c-0.5-0.2-1-0.5-1-0.7s1-0.5,2.7-0.5
			c4.9,0,6.8,2.2,6.8,4c0,1.1-0.8,2-1.7,2C141,22.9,140.4,22.7,139.9,22.1L139.9,22.1z"/>
		<path d="M153.9,43.3c-0.5,0.2-0.6,1-1.1,1c-1,0-4.1-5-4.1-5.3c0-0.2,0.2-0.2,0.5-0.2c2.4,0,2.9,0,8.4-1.6c0-4.6,0.1-11.8,0.1-17.8
			c-2,0.1-3.5,0.3-6.1,0.5h-0.1c-0.8,0-2.6-2.2-2.6-2.9c4.1,0.5,6.5,0.8,8.8,0.9v-7.5c-0.1-2.6-0.2-5.9-0.8-8.6
			c-0.1-0.2-0.1-0.4-0.1-0.4c0-0.1,0.1-0.1,0.2-0.1c0.7,0,7.6,1.1,7.6,2.6c0,0.5-0.6,1-1.4,1.4c-1.1,0.5-1.2,1.3-1.2,12.7h0.8
			c0.3,0,0.5-0.2,0.7-0.5c1.1-1.6,2-2.9,2.6-2.9c1,0,4.5,3,4.5,4.1c0,0.4-0.2,0.7-1.1,0.7h-7.6c0,6,0.1,12.6,0.1,16.4
			c3.2-1.1,6.5-2.3,8.8-3.3c0.5-0.2,0.8-0.3,1.1-0.3c0.1,0,0.2,0,0.2,0.1C172,33.3,163,38.7,153.9,43.3L153.9,43.3z M203.3,26.4
			c0,0.4-0.2,0.7-1.2,0.7h-20c-2.9,0-8.3,0.1-13,0.6H169c-0.9,0-2.6-2.3-2.6-2.9c5.5,0.7,12.8,0.8,15.8,0.8h2.7
			c1.4-2.8,2.7-6.4,3.5-8.8c0.4-1.3,0.4-2.4,0.5-3.3c0.1-0.5,0-0.7,0.1-0.7c0.5,0,6.6,2.5,6.6,3.8c0,0.4-0.5,0.8-1.8,0.9
			c-0.9,0.1-0.9,0.3-1.4,0.9c-1.3,1.6-3.5,4.6-5.9,7.2h7.7c0.2,0,0.5-0.2,0.7-0.5c0.5-0.8,2.3-3.4,3.1-3.4
			C198.6,21.8,203.3,24.7,203.3,26.4L203.3,26.4z M200.7,10.9c0,0.4-0.2,0.8-1.2,0.8h-17c-2.8,0-6.7,0.1-11.3,0.6h-0.1
			c-1,0-2.5-2.3-2.5-3c4.8,0.7,10.1,0.8,13.2,0.9c0-0.3-0.1-0.7-0.1-0.9c-0.1-2.6-0.1-5.6-0.6-7.8c-0.1-0.2-0.1-0.4-0.1-0.4
			s0.1-0.1,0.1-0.1c0.5,0,7.8,0.9,7.8,2.3c0,0.4-0.5,0.9-1.3,1.3c-1.3,0.7-1.4,0.8-1.4,5.6h5.7c0.2,0,0.5-0.2,0.7-0.5
			c0.7-1.3,2.2-3.2,2.9-3.2C197.3,6.5,200.7,10,200.7,10.9L200.7,10.9z M197.6,35.4c0,0.5-0.5,1-1.3,1.4c-1.1,0.8-1.3,0.8-1.3,4.1
			c0,2.7,0.2,6.1,0.5,9.8V51c0,1.5-1.7,2.3-2.8,2.3s-2-0.5-2-1.9v-1.8h-13.1v2c0,1.2-1.3,2.2-2.8,2.2c-1.1,0-2-0.5-2-1.9v-0.2
			c0.4-4.3,0.4-7.3,0.4-9.6c0-5.9-0.4-8.9-0.7-10.3c0-0.2-0.1-0.2-0.1-0.4s0.1-0.2,0.1-0.2c0.4,0,4.2,1.4,6.2,2.8l0.1,0.1h10.4
			c0.3,0,0.6-0.1,0.8-0.5c0.1-0.1,1.4-1.9,2.1-1.9C192.9,31.8,197.6,34.1,197.6,35.4L197.6,35.4z M182.5,20.7c0,1.7-1.3,2.9-2.5,2.9
			c-1,0-2.1-0.7-2.6-2.5c-0.5-1.6-2-4.2-3.2-5.7c-0.4-0.4-0.5-0.7-0.5-0.8c0-0.1,0.1-0.1,0.1-0.1C174.5,14.6,182.5,16.1,182.5,20.7z
			 M190.9,40.5c0-1.4-0.1-2.7-0.1-3.8c0-0.4-0.2-0.9-0.7-0.9h-11.2l-0.4,0.4c-0.8,0.5-0.8,0.8-0.8,1.9c-0.1,2.3-0.1,4.2-0.1,6.1
			c0,1.3,0.1,2.6,0.1,4h13.2C190.9,45.1,190.9,42.7,190.9,40.5z"/>
		<path d="M225.4,48.9c-1.6,0-3.5-0.1-3.5-0.5c0-0.2,0.9-0.6,2.6-0.8c13.4-2,19.4-8.5,19.4-13.2c0-2.5-2.1-5.9-7-5.9
			c-3.7,0-8.3,2-12.6,6.2c-1.8,1.8-3.8,2.6-5.5,2.6c-2.9,0-4.4-2.3-4.4-2.9c0-0.4,0.5-0.5,1.4-0.6c1.7-0.2,4.8-1.6,7.8-3.5
			c3.7-2.3,8.2-4.3,12.5-4.3c6.8,0,11.4,4.7,11.4,9.5C247.5,41.6,240.7,48.9,225.4,48.9L225.4,48.9z"/>
		<path d="M276.8,18.4c-3.1,8.8-5.8,17.5-7.7,26.3c-0.8,3.9-2.8,5.9-4.3,5.9c-1,0-2-1.3-2-3.1c0-1.3,0.6-2.7,1.6-4.5
			c2.6-4.7,9.4-23.6,9.6-24.7c-1.8,0.4-2.8,0.5-3.7,0.5c-6.4,0-8.3-4.4-8.3-5.9c0-0.3,0.1-0.4,0.3-0.4c0.3,0,0.7,0.3,1.2,0.5
			c1.6,0.8,3.8,1.9,6.6,1.9c1.8,0,3.5-0.4,4.6-0.7c0.2-1.1,0.2-2.2,0.2-3.2c0-2.2-0.4-3.9-1.7-4c-0.8-0.1-1.5-0.3-1.5-0.8
			c0-0.4,1-1.9,2.8-1.9c2.6,0,4,2.5,4.2,4.7c1.7,0.3,2.6,0.4,3.6,0.4h0.7c1.1,0,2,0.8,2,1.9c0,0.8-0.4,3.3-8,5.9L276.8,18.4
			L276.8,18.4z M278.4,13.2c0.3-0.1,2.3-1.1,2.3-2c0-0.4-0.2-0.8-1.9-1.4C278.9,10.8,278.7,11.9,278.4,13.2z M294.4,45.6
			c1.1,0,2.2-0.4,3.9-0.4c3.2,0,4.8,1.2,4.8,2.5s-1.7,2.8-6.4,2.8c-7.4,0-14-3.9-14-8.4c0-2.3,1.8-4.1,2.2-4.1
			c0.2,0,0.2,0.2,0.2,0.5c0,0.4-0.1,0.9-0.3,1.3c-0.1,0.3-0.2,0.7-0.2,1c0,2.5,4.2,5,9.5,5C294.1,45.6,294.4,45.6,294.4,45.6z
			 M302.9,21.6c-3.4,0.6-5.2,1.1-8.9,4c-0.5,0.4-0.9,0.6-1.1,0.6c-0.1,0-0.1-0.1-0.1-0.1c0-0.2,0.1-0.5,0.4-0.8
			c3.2-4.1,3.7-4.8,3.7-5.5c0-1.4-3.3-2.2-4.6-2.2c-0.2,0-0.5,0-0.7,0.1c-0.8,0.2-1.5,0.3-1.9,0.3c-0.2,0-0.4,0-0.4-0.1
			c0-0.2,1.7-2.5,6-2.5c5.2,0,9.5,2.8,9.5,4.5C305,20.7,304.3,21.4,302.9,21.6L302.9,21.6z"/>
		<path d="M364,17.5c0,0.5-0.4,1-1.4,1.5c-1.4,0.7-1.5,0.8-1.6,2.4c-0.2,5.1-0.2,12.2-1.7,18.7c-2.1,9.1-7.7,13.4-14.3,13.4h-0.1
			c-0.5,0-1.3-0.2-1.5-0.8c-0.8-1.7-8.5-5.5-8.5-6c0,0,0-0.1,0.1-0.1s0.4,0.1,0.8,0.2c3.2,1,6.2,1.7,8.8,1.7
			c11.3,0,11.5-14.9,11.7-30c0-0.8-0.2-1-0.8-1h-13.4c-2.3,17.1-8.2,31.7-27.4,36.7c-0.8,0.2-1.4,0.3-1.7,0.3
			c-0.2,0-0.4-0.1-0.4-0.1c0-0.2,0.7-0.7,1.5-1c14.9-5.9,21-19,23-35.8c-3.5,0-12.4,0.1-17.5,0.7h-0.1c-1.1,0-2.8-2.3-2.8-3.1
			c5.9,0.7,16.7,0.9,20.4,0.9h0.1c0.4-4,0.6-8.1,0.6-11c0-1.9-0.1-3.5-0.3-4.4c0-0.1-0.1-0.2-0.1-0.3s0.1-0.2,0.2-0.2
			c0,0,8.1,1.1,8.1,2.5c0,0.4-0.6,0.9-1.3,1.2c-1,0.5-1.4,0.6-1.5,2.3c-0.2,3.3-0.5,6.7-0.9,9.8h13c0.7,0,0.9-0.2,1.1-0.5
			c0.5-0.7,1.6-2,2.1-2C358.9,13.3,364,16,364,17.5L364,17.5z"/>
		<path d="M411.2,8.4c4.4,0,6.8,1.6,6.8,3.3c0,1.1-1,2.2-3.3,2.2c-0.4,0-0.9-0.1-1.4-0.1c-1.1-0.2-2.2-0.2-3.3-0.2
			c-3.6,0-7.1,0.8-8.7,1.7c-4,2.2-7,11-7,18.5c0,12.2,7.8,12.6,9.3,12.6c1.1,0,2.2-0.2,3.4-0.6c0.6-0.2,1.1-0.3,1.7-0.3
			c1.9,0,3.1,1.1,3.1,2.5c0,3.1-5.5,3.6-7.6,3.6c-6.2,0-12.8-3.9-12.8-15.4c0-7,2.3-15.1,5.6-18.9c0.3-0.4,0.6-0.7,0.6-0.7
			s0-0.1-0.1-0.1c-0.7,0-6.4,2.4-12.7,5.8c-1.1,0.6-2.5,0.8-3.9,0.8c-2.9,0-5.6-1.2-5.6-3.4c0-0.6,0.2-0.7,0.5-0.7s0.8,0.1,1.2,0.2
			c0.8,0.2,1.7,0.3,2.7,0.3c1.2,0,2.5-0.2,3.9-0.7c4.1-1.5,13.4-6.6,22.3-9c1.5-0.4,2.4-1.1,4.9-1.3H411.2L411.2,8.4z M412.5,25
			c-1.6-1.8-3.5-3.2-5-4.1c-0.5-0.3-1-0.5-1-0.7c0-0.5,2.2-0.5,2.3-0.5c4.7,0,7.1,2.1,7.1,4.1c0,1.1-0.8,2-1.8,2
			C413.6,25.9,413,25.6,412.5,25z M418.9,22.1c-1.6-1.7-3.6-3.2-5.2-4c-0.5-0.2-1-0.5-1-0.7s1-0.5,2.7-0.5c4.9,0,6.8,2.2,6.8,4
			c0,1.1-0.8,2-1.7,2C420,22.9,419.4,22.7,418.9,22.1L418.9,22.1z"/>
		<path d="M436.9,52.1c-1.7-3.4-4.6-5.8-7.2-7.7c-0.6-0.5-1.1-0.8-1.1-1c0-0.1,0.2-0.1,0.5-0.1c2.3,0,13.5,2.2,13.5,7.8
			c0,1.8-1.3,3.2-2.8,3.2C438.7,54.2,437.6,53.6,436.9,52.1L436.9,52.1z"/>
		<path d="M13.1,104.1c1.8,8.2,1.9,10,1.9,10.4c0,0.7-0.1,3.6-2.1,3.6c-1.2,0-2.9-1.6-2.9-5.4c0-1.1,0.2-1.6,0.2-2.6
			c0-1.7-0.8-5.7-1.1-6.5c-1-3.1-3.2-4.9-5.3-4.9H3c-1,0-1.4-0.2-1.4-0.6c0-0.7,1.6-2.5,4-2.5c1,0,5.1,0.7,6.5,4.1h0.7
			c3.1,0,17.3-1.4,18.4-1.7c1.5-0.4,2-1.7,3.5-1.7c1.6,0,7.2,2.3,7.2,4.4c0,0.6-0.4,1.2-1.3,1.7c-1.2,0.7-1.9,1.3-2.6,2.7
			c-11.8,26.8-30.2,29.6-31,29.6c-0.2,0-0.3,0-0.3-0.1c0-0.2,0.7-0.7,2.2-1.4c16.4-8,24.8-30.3,24.8-31.6c0-0.7-0.4-0.9-1.2-0.9
			c-1.2,0-12.5,1-17.5,2.3c-0.8,0.2-1.4,0.2-2,0.2L13.1,104.1L13.1,104.1z"/>
		<path d="M89.5,112.7c-2.9,0.1-9.1,0.1-15.2,0.3c-4.3,0.2-8.6,0.5-11.5,1.1c-1.3,0.3-2.5,0.5-3.5,0.5c-2.7,0-8-2.8-8-5.7
			c0-0.5,0.2-0.8,0.5-0.8c0.2,0,0.5,0.1,0.8,0.3c1.2,0.7,2.5,1.4,6.8,1.4c4,0,26.8-1.4,27-1.4c0.6-0.1,1.3-0.1,2.1-0.1
			c3.5,0,5.9,0.7,5.9,2C94.4,111.7,91.5,112.7,89.5,112.7z"/>
		<path d="M108,117.1c-0.8,0.4-1.5,0.6-1.7,0.6c-0.1,0-0.2-0.1-0.2-0.1c0-0.2,0.4-0.6,1.4-1.3c8.5-6.4,17.3-18.6,17.3-20.6
			c0-0.8-0.6-1.5-1.6-1.7c-0.7-0.2-1-0.4-1-0.7c0-0.1,0.5-1.7,2.7-1.7c2.6,0,5.6,2.2,5.6,4.4c0,0.7-0.4,1.4-0.8,2.2
			c2.2-0.2,5.8-0.8,7-1.1c0.7-0.2,1.1-0.6,1.7-1c0.5-0.3,0.8-0.5,1.3-0.5c1.3,0,5.4,2.7,5.4,4.1c0,0.7-0.6,1.1-1.7,1.5
			c-1.3,0.5-1.9,1.5-3,3.1c-10.1,14.9-19.4,24.5-35.2,29.1c-1.1,0.3-1.9,0.5-2.3,0.5c-0.2,0-0.4-0.1-0.4-0.1c0-0.2,0.7-0.7,2-1.3
			c13.3-5.6,23-17,32.2-31.4c0.2-0.3,0.4-0.7,0.4-1s-0.2-0.6-1.1-0.6c-0.5,0-2.6,0.1-6.7,1.4c-0.6,0.2-1.1,0.3-1.6,0.3
			c-0.2,0-0.4,0-0.5-0.1C120.3,109,115,114.1,108,117.1L108,117.1z"/>
		<path d="M150.5,132.5c-0.3,0-0.5-0.1-0.5-0.2c0-0.2,0.6-0.5,1.9-1c18.2-7.1,30.5-27.4,30.5-29.1c0-0.5-0.3-0.8-1-0.8
			c-1.7,0-8.1,2.5-9.5,3.1c-1.9,0.8-2.9,1.4-4.3,1.4c-2.5,0-6.8-2.3-6.8-4.4c0-1.2,0.4-1.7,0.9-1.7c0.3,0,0.6,0.3,0.8,0.8
			c0.3,0.7,1.6,0.9,3.1,0.9c4.3,0,12.5-1.8,13.8-2.2c1.5-0.4,2.3-1.9,3.7-1.9c1.3,0,6.6,1.8,6.6,4.1c0,0.5-0.4,1.1-1.1,1.6
			c-1,0.7-1.7,1.3-2.5,2.6c-2.1,3.5-4.4,6.8-7,9.7c6.6,1.6,16.7,6.7,16.7,11.8c0,1.6-1,2.8-2.3,2.8c-1,0-2.1-0.6-3.1-2.2
			c-2.4-4-6.9-8.6-11-11.2c-0.3-0.2-0.7-0.4-0.9-0.5C166.4,129.7,152,132.5,150.5,132.5L150.5,132.5z"/>
		<path d="M202.7,134c-0.2,0-0.4-0.1-0.4-0.2c0-0.2,0.7-0.7,2.1-1.3c9.1-3.8,17.5-10.9,24.2-19.1c-1.9-1.2-3.8-2.2-5.6-3
			c-1.1-0.5-1.7-0.8-1.7-0.9s0.2-0.1,0.6-0.1c1.7,0,6.2,0.6,8.8,1.3c3-4,6.8-9.7,6.8-10.6c0-0.5-0.4-0.9-1.4-0.9
			c-1.1,0-3.8,0.6-6,1.3c-0.7,0.2-1.2,0.4-1.7,0.4c-0.2,0-0.3-0.1-0.5-0.1c-6.7,8.2-11.9,13.2-18.8,16.3c-0.9,0.4-1.6,0.6-1.9,0.6
			c-0.1,0-0.1,0-0.1-0.1c0-0.2,0.4-0.6,1.3-1.3c8.2-6.1,17.2-19.3,17.2-21.1c0-0.8-0.6-1.5-1.7-1.7c-0.7-0.2-1.1-0.4-1.1-0.7
			c0-0.1,0.7-1.8,2.9-1.8c2.5,0,5.6,2.3,5.6,4.4c0,0.8-0.4,1.6-0.9,2.3c6.1-0.9,7.1-1.3,7.6-1.6c0.7-0.5,1.3-0.9,2-0.9
			c0.7,0,5.7,2.2,5.7,4c0,0.7-0.7,1.2-1.9,1.6c-1,0.3-2,1.7-3.2,3.5c-1.8,2.8-3.6,5.4-5.5,7.9c2.6,1.1,5.2,3,5.2,5.4
			c0,1.4-1,2.5-2.3,2.5c-0.8,0-1.7-0.4-2.6-1.4c-0.9-1-2-2-3.2-2.9C217.8,132.3,202.7,134,202.7,134L202.7,134z"/>
		<path d="M252.5,124.7c-0.1,0-0.2-0.1-0.2-0.1c0-0.2,0.8-0.7,1.9-1.3c11.9-6.4,25.5-24.1,25.5-28.1c0-0.8-0.5-1.4-1.7-1.8
			c-0.8-0.2-1.1-0.5-1.1-0.8c0-0.5,0.8-1.5,2.5-1.5c2.8,0,6.9,2.6,6.9,4.9c0,1.5-1.9,2.5-3.1,4.3c-1.3,2.1-2.9,4.2-4.7,6.3
			c1.4,0.7,2.5,2.2,2.5,3.5c0,0.4-0.1,0.8-0.2,1.1c-0.4,0.8-0.6,3.8-0.6,7.2c0,4.4,0.2,9.5,0.2,11.3c0,3.2-0.6,6.4-2.4,6.4
			c-1.4,0-2.8-2.4-2.8-5.9c0-0.9,0.1-1.9,0.3-2.8c0.3-1.6,0.5-1.6,0.7-3.2c0.3-2.8,0.4-6.4,0.4-9.4c0-2.7,0-4.4-0.4-5.8
			C264.4,121.4,253,124.7,252.5,124.7L252.5,124.7z"/>
		<path d="M294.8,131.9c-0.2,0-0.2,0-0.2-0.1s0.5-0.5,1.4-1.1c9.2-5.6,16.8-19.1,16.8-23.8c0-2.4-1.6-3.2-3.4-3.4
			c-0.8-0.1-1.2-0.3-1.2-0.7c0-0.6,0.8-1.9,2.8-1.9c2.8,0,6.7,2.6,6.7,5.9c0,1.1-0.4,2.2-0.7,2.9
			C311.6,124.8,297.6,131.9,294.8,131.9L294.8,131.9z M325.2,127.2c-1.3,0-4.4-3.2-4.4-5c0-0.8,0.5-1.7,0.7-3.2
			c0.7-5,1.1-8.9,1.1-11.7c0-4.9-1-7-2.5-7.4c-1.1-0.4-1.6-0.7-1.6-1.1c0-0.7,1.9-1.2,3-1.2c2.8,0,5.6,3.5,5.6,6
			c0,0.6-0.1,1.2-0.3,1.8c-0.8,2.5-1.6,13.2-1.6,14.6c0,0.4,0.2,0.5,0.5,0.5c0.7,0,13-7,21.4-18.5c0.9-1.2,1.4-1.7,1.6-1.7
			c0.1,0,0.1,0.1,0.1,0.1c0,1.5-6.8,14.9-20.1,24.5C327.7,125.5,326.6,127.2,325.2,127.2z"/>
		<path d="M379.4,95c-0.7,0-1.3,0.1-2,0.1c1.5,1.2,2.5,4.3,2.5,8.2c0,12.5-10,26.3-15.7,26.3c-3.2,0-4.4-4.3-6.7-7.7
			c-1-1.4-1.4-3.4-1.4-5.6c0-9.1,7.8-23.5,24.2-23.5c13.7,0,21,9.4,21,19.3c0,5.4-2.2,11-6.7,15.2c-7.7,7.2-19.1,8-19.6,8
			c-0.6,0-0.8-0.1-0.8-0.2c0-0.3,0.9-0.7,2.7-1.2c10.5-2.9,19.9-10.4,19.9-22.1c0-8.9-6.3-16.9-17.1-16.9
			C379.7,95,379.4,95,379.4,95z M374,95.8c-9.2,2.7-14.6,11.3-14.6,18.8c0,5.3,2.7,9.3,5.3,9.3c4.1,0,12.7-12.5,12.7-23.2
			c0-2.7-0.4-5.2-2.2-5.2c-0.2,0-0.4,0-0.5,0.1c-0.2,0.1-0.4,0.1-0.5,0.1L374,95.8z"/>
		<path d="M17.3,185.9c-0.5,0-0.8,0.1-1.3,0.5c-5.5,4.7-14.5,7.7-15.6,7.7c-0.2,0-0.2,0-0.2-0.1s0.3-0.4,0.9-0.7
			c4.8-2.5,11.5-8.8,12.4-11.9c0.1-0.3,0.1-0.5,0.2-0.5c0.4,0,5.5,3.2,5.5,4.3c0,0.4-0.4,0.8-1.3,0.8L17.3,185.9L17.3,185.9z
			 M55.5,216.4c0.2,0,0.2,0,0.2,0.1c0,0.4-5.7,2.6-6.9,4.5c-0.3,0.5-0.7,0.6-1.2,0.6c-3.2,0-11.2-2.1-17.6-7.6
			c-10,7.1-21.6,8.3-23.9,8.3c-0.5,0-0.8-0.1-0.8-0.2c0-0.2,0.7-0.4,2.1-0.7c7.1-1.5,14-5.1,19.9-10.1c-1.8-2-3.2-4.4-4.2-7
			c-9.5,11.2-20,15.4-21.4,15.4c-0.1,0-0.2,0-0.2-0.1c0-0.2,0.4-0.5,1.3-1c6.6-3.8,14.2-12.4,19.3-19.9c0.6-0.9,0.8-1.7,1.1-2.7
			c0.1-0.3,0.1-0.4,0.3-0.4c0.9,0,5.9,2.2,5.9,3.2c0,0.4-0.5,0.7-1.8,0.8c-0.8,0.1-1.1,0.5-1.6,1.2l-0.2,0.2h9.4
			c0.4,0,0.8-0.2,1-0.4c0.1-0.1,1.4-1.2,1.7-1.2c0.6,0,4.7,2.6,4.7,3.8c0,0.4-0.4,0.8-1.4,1.1c-0.9,0.3-1.4,0.2-2,1
			c-2,2.5-4.2,4.7-6.5,6.7c5.2,3,11.8,4.6,19.2,4.6c1.1,0,2.2-0.1,3.3-0.1L55.5,216.4L55.5,216.4z M36.8,178.1
			c0.4,0.2,0.5,0.4,0.5,0.6c0,0.4-0.4,0.7-1.1,1c-0.7,0.2-0.8,0.4-0.8,2.9c0,1.3,0,2.6,0.1,4c0.1,1,0.2,2.5,0.2,3.6
			c0,5.5-6,6.1-6.5,6.1s-0.8-0.2-1.1-0.9c-0.8-1.8-5.1-3.7-5.5-4.1c-5.1,8.3-17.8,11.2-18.6,11.2c-0.1,0-0.2-0.1-0.2-0.1
			c0-0.2,0.7-0.6,1.8-1.1c15.4-6.7,15.7-16.9,15.7-20.7c0-1-0.1-1.8-0.1-2.5c-3.9,0.1-10.6,0.1-15.2,0.6H5.9c-1.1,0-2.8-2.3-2.8-3.1
			c6.2,0.7,16.4,1,19.9,1H26v-0.1c-0.1-2.5-0.2-5.8-0.7-7.9c-0.1-0.2-0.1-0.3-0.1-0.4c0-0.1,0.1-0.2,0.1-0.2c0.2,0,7.9,0.8,7.9,2.4
			c0,0.4-0.4,0.9-1.2,1.3c-0.8,0.5-1.3,1.3-1.4,2.5l-0.1,2.4h11.8c0.4,0,0.8-0.2,1-0.5c1.4-2.2,2.8-4.1,3.5-4.1
			c0.2,0,0.3,0.1,0.4,0.1c1.9,0.7,5.7,4.1,5.7,5.3c0,0.4-0.3,0.7-1.3,0.7L36.8,178.1L36.8,178.1z M26.9,178.1
			c0.3,0.2,0.4,0.4,0.4,0.5c0,0.3-0.4,0.6-0.9,0.9c-0.9,0.5-1,0.5-1,1.7c-0.2,3.8-1.1,7.1-2.8,9.8c0.1,0,0.4,0.1,0.8,0.1
			c2.3,0.4,4,0.6,5.2,0.6c2.3,0,2.8-0.3,2.8-5.3c0-3.4-0.2-7.9-0.4-8.5L26.9,178.1L26.9,178.1z M24.5,202.6
			c-0.2,0.2-0.4,0.5-0.6,0.8c1.4,2.3,3.2,4.4,5.3,6.2c2.3-2.2,5.8-6.2,5.8-6.8c0-0.2-0.2-0.2-0.5-0.2
			C34.5,202.6,24.5,202.6,24.5,202.6z M47.4,192.2c-1.7-2.6-5.6-6-8.7-8.1c-0.4-0.3-0.6-0.5-0.6-0.6c0-0.1,0.1-0.1,0.3-0.1
			c0.4,0,14.3,2.5,14.3,8.1c0,1.6-1,2.8-2.3,2.8C49.4,194.2,48.4,193.6,47.4,192.2z"/>
		<path d="M115,210.3c0,0.4-0.3,0.7-1.3,0.7H90.4l0.2,9.3v0.1c0,1.6-1.6,2.4-2.8,2.4c-1.1,0-2-0.7-2-2.1v-0.3c0.1-2,0.2-5.5,0.3-9.4
			h-4c-3.3,0-12.1,0.1-17.5,0.7h-0.1c-1.1,0-2.6-2.3-2.6-3.1c6.1,0.7,17,1,20.4,1h3.8c0.1-2.4,0.1-4.9,0.1-7.4h-9.7
			c0,0.5,0.1,0.9,0.1,1.3v0.1c0,1.2-1.4,1.9-2.8,1.9c-1.1,0-2-0.5-2-1.6v-0.2c0.3-2.8,0.4-7.8,0.4-9.3c0-0.8-0.1-3.9-0.6-5.8
			c-0.1-0.2-0.1-0.2-0.1-0.4s0.1-0.1,0.2-0.1c0.8,0,4.7,1.7,6.1,2.6c0.1,0,0.1,0.1,0.1,0.1h8.3v-2c0-1.4-0.1-3.7-0.2-5h-2.9
			c0,0.4,0.1,0.6,0.1,0.8c0,1.1-1.1,2-2.6,2c-1,0-1.9-0.5-1.9-1.7v-0.2c0.1-1.3,0.2-4.7,0.2-7.3c-4,0.1-9.5,0.2-13.3,0.6h-0.1
			c-1.1,0-2.8-2.3-2.8-3.1c4.4,0.5,11.5,0.8,16.2,0.9v-1.6c0-1.2-0.2-3.4-0.5-5.2c-0.1-0.2-0.1-0.3-0.1-0.4s0.1-0.1,0.2-0.1
			c0.6,0,7,0.8,7,2.3c0,0.4-0.4,0.8-1.4,1.3c-1,0.4-1,1.4-1,3.9h10.5v-1.5c0-1.2-0.1-3.4-0.5-5.4c-0.1-0.2-0.1-0.3-0.1-0.4
			c0-0.2,0.1-0.2,0.2-0.2c1.2,0,6.9,0.8,6.9,2.3c0,0.4-0.4,0.8-1.4,1.3c-1,0.4-1,1.4-1,3.9h6c0.4,0,0.8-0.2,1-0.5c0.6-1,2.6-4,3.6-4
			c0.2,0,0.3,0,0.4,0.1c1.6,0.5,5.5,4,5.5,5.2c0,0.4-0.3,0.7-1.3,0.7H97.7l0.2,7v0.1c0,0.8-0.8,2-2.6,2c-1,0-1.9-0.5-1.9-1.8v-1h-1
			c0.2,0.1,0.2,0.2,0.2,0.4c0,0.4-0.4,0.7-1,1c-0.8,0.4-1,0.5-1.1,1.9c-0.1,0.9-0.1,2.2-0.1,3.8h8.6c0.3,0,0.5-0.1,0.8-0.4
			c1.4-1.6,1.7-1.9,2.2-1.9c1.1,0,5.2,2.5,5.2,3.5c0,0.5-0.5,0.8-1.3,1.3c-1,0.5-1.1,1.3-1.1,2.9c0,1.9,0.2,5.3,0.4,6.9v0.1
			c0,1.4-1.6,2-2.7,2c-1.1,0-2-0.5-2-1.7v-1.3h-9.9c0,2.5,0,5,0.1,7.4h14c0.4,0,0.8-0.2,1-0.5c1.2-1.8,2.8-4.1,3.7-4.1
			c0.2,0,0.3,0,0.4,0.1C111.5,205.7,115,209.3,115,210.3L115,210.3z M86.2,192.1h-8.6l-0.4,0.2c-0.7,0.5-0.8,0.6-0.8,4.5
			c0,1.2,0.1,2.6,0.1,3.8h9.8V192.1z M83,177.2c0,1.6,0.1,3.4,0.1,4.9h10.3c0.1-1.5,0.1-3.4,0.1-4.9H83z M100.2,192.8
			c0-0.4-0.4-0.7-0.8-0.7h-9.1c-0.1,2.5-0.1,5.5-0.1,8.6h10C100.3,197.9,100.3,194.6,100.2,192.8z"/>
		<path d="M125.5,206c0-2.1,0.2-4.1,0.6-6.1c0.8-4.1,2-7.8,2.7-11.3c0.3-1.5,0.4-2.9,0.4-4.1c0-2.6-0.5-4.6-1.1-5.7
			c-0.4-0.7-0.8-1.2-0.8-1.5s0.3-0.4,1.2-0.4c1.9,0,5,2.6,5,7.1c0,2-0.7,4-1.7,6.5c-1.5,3.7-3.3,8.2-3.3,12.3c0,1.4,0.4,3.7,0.9,3.7
			c0.2,0,0.4-0.3,0.7-0.9c1.5-3.2,5.6-11.2,6.2-11.2c0.1,0,0.1,0.1,0.1,0.2c0,0.2-0.1,0.7-0.4,1.4c-0.8,2-4.1,10.6-4.1,15.7
			c0,1.3,0.2,2.3,0.4,3.2c0.1,0.4,0.2,0.8,0.2,1.2c0,1.5-0.9,2.4-1.9,2.4C126.5,218.6,125.5,208.9,125.5,206L125.5,206z
			 M162.2,210.1c2.3,0,3.6,1.1,3.6,2.3c0,3.7-8.5,3.8-9.5,3.8c-10.3,0-13.6-5.3-13.6-8.3c0-0.4,0.1-0.6,0.2-0.6
			c0.3,0,0.7,0.4,1.3,1.2c1.2,1.7,5.2,2.9,9.7,2.9c1.2,0,2.4-0.1,3.6-0.2c1.4-0.2,2.4-1,4.4-1L162.2,210.1L162.2,210.1z
			 M153.1,188.7c-9,0-9.5-5.4-9.5-5.8c0-0.2,0.1-0.2,0.2-0.2s0.6,0.2,1.1,0.5c1.7,1,3.9,1.4,6.1,1.4c1.7,0,3.4-0.2,5-0.6
			c0.8-0.2,1.4-0.6,2.2-0.7c0.4-0.1,0.8-0.1,1.1-0.1c1.9,0,3.1,1,3.1,2.1C162.5,188.2,156,188.7,153.1,188.7L153.1,188.7z"/>
		<path d="M183.4,184.7c-1.8,0.1-3.7,0.1-6.4,0.5h-0.1c-0.7,0-2.5-2.2-2.5-2.9c3.4,0.5,6.5,0.8,8.9,0.8c-0.2-10.8-0.3-11.4-0.8-14
			c-0.1-0.2-0.1-0.2-0.1-0.4s0.1-0.2,0.2-0.2c0,0,7.4,0.9,7.4,2.4c0,0.5-0.6,1-1.3,1.4c-1.1,0.6-1.1,0.4-1.3,2.5
			c-0.1,2-0.2,4.9-0.2,8.3h0.3c0.1,0,0.4-0.2,0.6-0.5c1.2-2.4,1.6-3.2,2.2-3.2c0.8,0,3.8,3.4,3.8,4.6c0,0.3-0.2,0.7-1,0.7h-5.9
			c-0.1,2.9-0.1,6.2-0.1,9.5c2.5-0.9,4.8-1.8,6.8-2.7c0.6-0.2,1-0.4,1.2-0.4c0.1,0,0.1,0,0.1,0.1c0,0.7-7,5.2-8.1,5.9
			c0,3.5,0.1,6.9,0.1,9.9c0,1.7,0.2,5.8,0.2,7.4c0,5.9-5.3,6.4-6.2,6.4c-0.6,0-0.9-0.2-1.3-0.8c-1.1-1.9-5.2-4.3-5.2-4.8
			c0-0.1,0.1-0.1,0.2-0.1s0.3,0,0.5,0.1c2,0.4,3.5,0.7,4.6,0.7c2,0,2.8-0.8,2.9-2.5c0.1-3.8,0.1-8.8,0.2-14
			c-1.5,0.9-3.1,1.9-4.7,2.8c-0.5,0.2-0.6,1-1,1c-1.1,0-4.3-4.9-4.3-5s0.2-0.1,0.6-0.2c3-0.4,5.3-1,9.4-2.4L183.4,184.7L183.4,184.7
			z M206.1,179.2c0,5.2,0.1,13.9,0.1,16c-0.1,23.4-18.1,25.9-18.8,25.9c-0.2,0-0.4-0.1-0.4-0.1c0-0.2,0.4-0.4,1.4-0.8
			c9.3-3.7,13.4-14.3,13.7-23.9c-1.9,2.6-4.6,6.3-7,8.9c-0.3,0.4-0.3,1-0.7,1c-0.9,0-4.4-3.8-4.4-4.2c0-0.1,0.1-0.2,0.3-0.2
			c3.8-0.9,11.3-7,11.8-7.3c0-16.3-0.1-20.5-1-23.8c-0.1-0.2-0.1-0.4-0.1-0.5c0-0.2,0.1-0.2,0.3-0.2s6.8,0.5,6.8,2
			c0,0.4-0.3,0.8-1,1.2c-1,0.5-1,0.6-1,3L206.1,179.2L206.1,179.2z M197,188c-0.5-1.7-1.8-4.4-3.2-6c-0.2-0.2-0.4-0.5-0.4-0.6
			c0-0.1,0.1-0.1,0.3-0.1c1.2,0,7.9,2.2,7.9,6.3c0,1.6-1.1,2.8-2.3,2.8C198.4,190.3,197.5,189.7,197,188L197,188z M210.1,213.5
			c0.1-3.7,0.2-23.9,0.2-32.6V177c0-1.6,0-4.5-0.4-7c-0.1-0.2-0.1-0.3-0.1-0.4c0-0.2,0.1-0.2,0.2-0.2c0.8,0,6.6,1,6.6,2.3
			c0,0.4-0.5,0.8-1.4,1.3c-0.6,0.3-0.8,0.6-0.8,1.8c-0.1,1.3-0.2,6.8-0.2,13.3c3.8-3.7,6.8-7,7.4-9.2c0.1-0.2,0.1-0.3,0.2-0.3
			c0.5,0,5.1,3.8,5.1,5.3c0,0.5-0.4,0.7-1.1,0.7c-0.2,0-0.4,0-0.7-0.1s-0.4-0.1-0.6-0.1c-0.2,0-0.4,0-0.7,0.2
			c-1.4,0.8-6.5,3.3-9.6,4.7v5c3.4,0.4,12.8,1.9,12.8,6.6c0,1.4-0.9,2.6-2.2,2.6c-0.8,0-1.8-0.5-2.8-1.7c-2.2-2.8-5.2-4.9-7.9-6.5
			c0,3.9-0.1,7.7-0.1,10.8s0.1,5.5,0.1,6.5c0.1,2.5,0.7,3.1,3.8,3.1c5.5,0,6-1.1,7.3-9.1c0.1-0.4,0.1-0.6,0.2-0.6
			c0.4,0,0.5,6.4,1.7,7.1c1,0.7,1.4,1.4,1.4,2.2c0,1.7-2.4,4.4-10.5,4.4c-6.1,0-7.9-1.8-7.9-6L210.1,213.5L210.1,213.5z"/>
		<path d="M266.9,206c-0.2-3.8-0.5-7-0.5-9.6c0-5,0.7-11.9,6.5-11.9c4.5,0,8.1,3.8,8.1,7.4c0,1.9-1.1,3.5-3.2,3.5
			c-0.2,0-0.4,0-0.7-0.1c-0.5-0.1-1.2-0.1-1.9-0.1c-1.3,0-2.8,0.1-3.8,0.4c-0.5,0.1-0.8,0.2-1,0.2c-0.3,0-0.4-0.1-0.4-0.2
			c0-0.2,0.4-0.6,1-0.9c2.8-1.6,5.2-3.1,5.2-4.7c0-1.6-1.9-3.5-3.8-3.5c-3.9,0-4.1,5.2-4.1,7.4c0,2.8,0.4,5.7,0.8,7.8
			c0.5,2.8,1.9,5.1,1.9,7.4c0,3.5-4.4,11.2-15.4,11.2c-2.5,0-12.1-0.7-12.1-9.1c0-1.2,0.2-2.5,0.5-3.7c-3.8,0-5.1-6.4-5.1-9.8
			c0-4.2,1.7-6.1,4.3-6.1c1.2,0,2.5,0.5,3.4,1.3v-6.8c-0.8,0.1-1.5,0.2-2.2,0.2c-4.9,0-7-5.2-7-5.8c0-0.2,0.1-0.3,0.2-0.3
			c0.3,0,0.9,0.3,1.8,1c1.4,1,3.2,1.3,4.9,1.3c0.8,0,1.5-0.1,2.2-0.1c0-1,0-1.9,0.1-2.7v-0.4c0-1.5-0.6-2.3-1.1-2.8
			c-0.4-0.4-0.7-0.6-0.7-1c0-0.7,0.6-1.7,1.9-1.7c1.6,0,3.8,1.5,3.8,3.8v0.2c1.8,0.5,2.8,0.6,3.6,0.6c1.6,0,3.4,0,3.4,1.7
			c0,3.2-6,4.9-8.3,5.5c-0.4,3.1-0.5,6.7-0.7,10c0.5,1,0.7,2.1,0.7,3.3c0,1.7-0.5,3.5-1.6,5.4c-1.2,2.1-2,4.2-2,6.1
			c0,4.7,5.5,5.9,8.8,5.9c5.3,0,12.4-2.8,12.4-9.5L266.9,206L266.9,206z M246.2,199.9c0-3-2-5.9-3.6-5.9c-1.9,0-2,2.7-2,3.4
			c0,1.8,1.2,6.3,3.4,6.3c1.4,0,1.9-2,2.2-3.6V199.9L246.2,199.9z M249.8,181.7c1.1-0.3,3.2-1,3.2-1.6c0-0.2,0-0.2-2.5-1.7
			c-0.1,0.7-0.3,1.4-0.5,2.3L249.8,181.7L249.8,181.7z"/>
	</g>
</g>
</svg>
