<?xml version="1.0" encoding="utf-8"?>
<!-- Generator: Adobe Illustrator 27.1.1, SVG Export Plug-In . SVG Version: 6.00 Build 0)  -->
<svg version="1.1" id="_レイヤー_2" xmlns="http://www.w3.org/2000/svg" xmlns:xlink="http://www.w3.org/1999/xlink" x="0px"
	 y="0px" viewBox="0 0 418.3 223.2" style="enable-background:new 0 0 418.3 223.2;" xml:space="preserve">
<g id="_デザイン">
	<g>
		<path d="M39.3,50.7c0,1.6-1.5,2.8-3.2,2.8c-1.3,0-2.3-0.7-2.3-2.2v-0.1c0-1,0.1-2,0.1-3H13.1v2.9c0,1.1-1.1,2.6-3.2,2.6
			c-1.2,0-2.2-0.7-2.2-2.2v-0.2c0.5-6.7,0.6-14.6,0.6-22c0-18-0.7-22.7-1-24.2c0-0.1-0.1-0.2-0.1-0.4s0.1-0.2,0.2-0.2
			c0.4,0,5.3,1.9,7,3.1l0.2,0.2h17.9c0.3,0,0.7-0.2,0.8-0.5c0.7-1.1,2-2.3,2.4-2.3c0.6,0,6,2.9,6,4.4c0,0.7-0.7,1.2-1.7,1.6
			c-1,0.4-1.2,0.6-1.3,1.8c-0.1,1.5-0.1,4.1-0.1,7.4c0,8.9,0.3,22.6,0.6,30.3C39.3,50.6,39.3,50.7,39.3,50.7z M14.4,9.5l-0.5,0.4
			c-0.8,0.5-0.9,1-0.9,2.4C13,14.7,13,20.1,13,26.5H34c0-6.6-0.1-12.5-0.2-16c0-0.6-0.4-1-0.9-1C32.9,9.5,14.4,9.5,14.4,9.5z
			 M13,28.1c0,6,0,12.7,0.1,18.5h20.9C34,40.7,34,34.1,34,28.1C34,28.1,13,28.1,13,28.1z"/>
		<path d="M106.3,40.6c0,0.5-5.8,0.9-7.7,2.5c-0.3,0.2-0.5,0.4-0.8,0.4c-2.1,0-14.1-12.8-18.4-26.9v3.5c0,5.5,0.1,11.9,0.2,18.1h1.2
			c0.5,0,0.8-0.2,1.1-0.7c2.1-3.1,2.2-3.3,2.6-3.3c1.2,0,5,3.8,5,4.7c0,0.4-0.3,0.8-1.2,0.8h-8.7c0.1,4.4,0.2,8.6,0.3,12.2V52
			c0,2-2.3,2.5-3.1,2.5c-1.2,0-2.3-0.6-2.3-2.1v-0.2c0.2-3.4,0.4-7.7,0.5-12.4c-2.5,0.1-6.6,0.2-8.6,0.5c-1.3,0-2.3-2-2.3-2.6
			c2.2,0.4,7.1,0.7,10.9,0.7c0.1-5.4,0.2-11.2,0.2-16.3c-9.6,17.2-25.4,24.3-26.8,24.3c-0.1,0-0.1,0-0.1-0.1c0-0.2,0.4-0.5,1.1-1
			C56,40.6,66.1,30.4,73,16.3h-1.3c-3.4,0-11.8,0.1-17.1,0.7h-0.1c-1.1,0-2.7-2.3-2.7-3.1c6.2,0.7,16.6,1,20.1,1h3.1
			c0-3.5,0-10.9-0.8-14.2c-0.1-0.2-0.1-0.3-0.1-0.4S74.3,0,74.5,0c0.9,0,7.9,1.1,7.9,2.5c0,0.5-0.5,1-1.4,1.4
			c-1.1,0.6-1,0.6-1.2,2.2c-0.2,1.7-0.2,4.7-0.3,8.7h12.2c0.4,0,0.8-0.2,1-0.5c2.8-4.1,3-4.3,3.6-4.3c0.1,0,0.2,0,0.4,0.1
			c1.3,0.5,5.7,4.1,5.7,5.5c0,0.4-0.3,0.7-1.3,0.7H80.3c4.6,8.9,14.5,20.2,25.6,24.1C106.2,40.5,106.3,40.6,106.3,40.6z"/>
		<path d="M131.6,16.6c0,0.3-0.2,0.7-1.1,0.7h-7v3.7c3.5,0,7.3,1.1,7.3,4c0,1.3-1,2.3-2.1,2.3c-0.7,0-1.4-0.4-2.1-1.4
			c-0.9-1.4-1.8-3.1-3.1-4c0,10.8,0.2,24,0.4,30.1V52c0,1.3-1.1,2.4-2.8,2.4c-1.1,0-2-0.6-2-2.2v-0.1c0.2-5.7,0.4-15.1,0.5-23.9
			c-4.3,7.7-10.7,11.2-11.2,11.2c0,0-0.1,0-0.1-0.1c0-0.1,0.2-0.5,0.9-1.2c3-3,9.3-13.4,10.4-19.9v-0.9c-1.7,0.1-3.5,0.1-6.2,0.5
			h-0.1c-0.7,0-2.4-2.2-2.4-2.9c3.4,0.5,6.4,0.8,8.6,0.8c0-2.8-0.2-11.9-0.7-14.5c-0.1-0.2-0.1-0.3-0.1-0.4s0.1-0.2,0.2-0.2
			c0,0,7.1,0.9,7.1,2.4c0,0.4-0.5,0.8-1.2,1.2c-0.9,0.5-1.1,0.5-1.3,2c-0.1,1.7-0.2,5.1-0.2,9.4h0.5c0.2,0,0.6-0.2,0.8-0.5
			c0.5-0.8,1.9-3.2,2.6-3.2C128.8,12,131.6,15.7,131.6,16.6z M166.9,24.8c0,0.4-3.9,1-5.5,2.3c-0.3,0.2-0.5,0.4-0.8,0.4
			c-0.1,0-2.6-0.7-6.4-5.9c-0.6,0.4-0.6,0.7-0.6,1.7c0,1,0.2,2.8,0.3,3.9v0.1c0,1.2-1.3,1.8-2.2,1.8c-0.8,0-1.6-0.4-1.6-1.4v-0.8
			h-8.2c0,0.4,0.1,0.7,0.1,1v0.1c0,1.1-1.4,1.6-2.3,1.6S138,29,138,28.1v-0.2c0.2-1.7,0.4-4.9,0.4-6v-0.2c-4.8,4.9-9.7,7.8-10.9,7.8
			c-0.1,0-0.2,0-0.2-0.1c0-0.2,0.4-0.6,1.3-1.3c4-3.1,8.5-8.3,11.5-13.7l-6.8,0.4h-0.1c-1,0-2.8-2.1-2.8-2.8
			c4.2,0.5,7.5,0.6,10.5,0.7c1-1.9,1.1-2.5,1.7-4.1c-3.6,0.4-7.3,0.6-10.1,0.6c-2.1,0-3.2-0.2-3.2-0.4c0-0.1,0.5-0.3,1.5-0.4
			c6.3-0.5,19.6-3.8,22-6.2c0.2-0.2,0.2-0.3,0.4-0.3c0.4,0,4.5,3.4,4.5,4.5c0,0.4-0.4,0.7-1,0.7c-0.4,0-0.7-0.1-1.2-0.2
			c-0.2-0.1-0.5-0.1-0.8-0.1S154,6.9,153.8,7c-1.4,0.4-3.6,0.7-6.1,1.1h0.1c0,0,0.1,0,0.1,0.1c0.5,0.3,1,0.7,1,1.1
			c0,0.4-0.4,0.7-1.5,0.8c-0.7,0.1-0.5,0.2-0.9,0.8l-1.1,1.9h9.8c0.3,0,0.7-0.2,0.8-0.5c1.9-2.6,2.5-3.2,2.9-3.2
			c0.3,0,4.9,2.6,4.9,4.4c0,0.4-0.2,0.7-1.2,0.7h-11.2c2.6,4.2,9.1,9.1,15.2,10.4C166.8,24.7,166.9,24.8,166.9,24.8L166.9,24.8z
			 M163.3,32.7c0,0.4-0.4,0.7-1,1.1c-1.3,0.7-1.3,0.9-1.3,5c0,1.3,0.1,2.8,0.1,4.2c0,1.1,0.2,3.7,0.2,4.7v0.1c0,4-3.1,6-6.4,6.1
			c-0.8,0-1-0.1-1.5-0.8c-0.9-1.3-6.2-3.5-6.2-4c0-0.1,0.1-0.1,0.2-0.1c0.1,0,0.2,0.1,0.4,0.1c2.6,0.4,4.4,0.6,5.8,0.6
			c2.6,0,3.4-0.7,3.4-2.4c0.1-1.6,0.1-4,0.1-6.6s-0.1-5.2-0.1-7.2c0-0.4-0.2-0.8-0.8-0.8h-19.6l-0.3,0.2c-0.8,0.5-0.8,1-0.8,9.8
			c0,3.3,0,6.9,0.1,9.7v0.1c0,1.3-1.3,2-2.5,2c-1,0-1.9-0.5-1.9-1.7v-0.1c0.4-5.2,0.5-11,0.5-14.6v-2.3c0-0.8-0.1-4.6-0.6-6.7
			c0-0.1-0.1-0.2-0.1-0.3c0-0.2,0.1-0.2,0.2-0.2c0.3,0,2.8,0.8,5.3,2.4l0.2,0.1h19.7c0.2,0,0.5-0.2,0.8-0.5c0.4-0.4,0.7-1.1,1.1-1.4
			c0.2-0.1,0.3-0.2,0.5-0.2C159.4,29.1,163.3,31.5,163.3,32.7L163.3,32.7z M154,37.7c0,0.4-0.4,0.7-0.9,1c-0.9,0.5-0.9,0.4-0.9,1.4
			c0,1,0.2,3.3,0.3,4.6v0.2c0,1.2-1.1,1.8-2.1,1.8c-0.8,0-1.6-0.5-1.6-1.5v-0.9h-5.5v1.9c0,1-1,1.7-2.2,1.7c-0.8,0-1.6-0.4-1.6-1.4
			v-0.2c0.2-1.7,0.4-4.7,0.4-6.8c0-0.7-0.1-2.8-0.4-4.5v-0.2c0-0.2,0.1-0.3,0.2-0.3c0.6,0,3.7,1.3,4.5,1.8c0.1,0,0.1,0.1,0.1,0.1
			h3.5c0.2,0,0.5-0.1,0.7-0.4c0.6-1.1,1.3-1.4,1.6-1.4C150.2,34.7,154,36.2,154,37.7z M150.2,14.2h-5.8c-1,1.4-2,2.8-3.1,4.1
			l1.6,0.9c0.1,0,0.1,0.1,0.1,0.1h6.1c0.2,0,0.4-0.1,0.7-0.3c1.1-1.3,1.5-1.3,1.6-1.3c0.1,0,0.2,0,0.4,0.1
			C151.1,16.6,150.6,15.4,150.2,14.2L150.2,14.2z M150.1,21.4c0-0.4-0.2-0.6-0.7-0.6h-6.7l-0.3,0.2c-0.6,0.4-0.5,0.5-0.6,1.3v3.1
			h8.3C150.1,23.9,150.1,22.3,150.1,21.4L150.1,21.4z M148.8,38.6c0-0.4-0.2-0.7-0.7-0.7h-4l-0.3,0.2c-0.5,0.4-0.6,0.5-0.6,4.7h5.6
			L148.8,38.6L148.8,38.6z"/>
		<path d="M197.5,26.9c0,0.8-0.1,3.3-1.6,11c3.7-0.4,7.4-0.7,10.4-0.9c2.3-0.1,2.9-0.9,4.6-0.9c1,0,7.5,1.4,7.5,4c0,1-1,1.8-2.5,1.8
			c-0.4,0-0.7,0-1.1-0.1c-3.4-0.8-7.2-1.1-11-1.1c-7.6,0-15.2,1.2-20.3,2.3c-2,0.5-2.8,0.8-3.9,0.8c-2.8,0-7.9-2-7.9-5
			c0-0.8,0.2-1.1,0.5-1.1s0.9,0.3,1.6,0.6c1.9,0.9,4.5,1.3,6.2,1.3c0.3,0,0.8,0,12.2-1.3c0.4-2.4,0.6-6.2,0.6-8.7c0-1.9-0.2-5-1.4-6
			c-4.4,0.8-5.5,0.8-5.8,0.8c-3.4,0-5.9-1.4-5.9-3.6c0-0.6,0.2-1.6,0.7-1.6c0.3,0,0.7,0.3,1.2,0.7c1,0.7,2.6,1,4.5,1
			c5,0,11.9-1.9,13.1-2.2c2.2-0.7,2.9-1.9,5.1-1.9c2,0,5.3,1,5.3,2.6c0,1-1.1,2-3.2,2c-2.9,0.1-7.1,0.7-11.1,1.4
			C197.3,24,197.5,25.7,197.5,26.9L197.5,26.9z"/>
		<path d="M232.8,29.9c0-0.3,0.1-0.6,0.1-1c0.2-2.8,0.4-4.5,0.4-6.5c0-7.1-0.6-11-3.2-11.2c-0.8-0.1-1.5-0.3-1.5-0.8
			c0-0.4,1-1.7,3-1.7c1.2,0,6.5,1.9,6.5,4.2c0,0.4-0.2,0.8-0.4,1.3c-0.4,0.8-0.4,2.5-0.4,3.2c0,6.7,0.3,9.7,0.4,10.4
			c0.1,0.5,0.1,1,0.1,1.3c0,0.9-0.5,4.7-2.7,4.7C233.8,33.8,232.8,32.5,232.8,29.9L232.8,29.9z M229,53.6c-0.1,0-0.2-0.1-0.2-0.1
			c0-0.2,0.7-0.7,2.3-1.8c8.6-5.3,14.5-16.1,14.9-29.1c0.1-2.6,0-4.5,0.2-7.4c0.1-0.7,0.1-1.3,0.1-1.9c0-4.2-1.1-5.3-2.5-5.5
			c-0.7-0.1-1.4-0.3-1.4-0.8c0-0.3,0.8-1.7,2.8-1.7c2.6,0,7.3,3.1,7.3,4.8c0,0.7-0.5,1.4-0.8,2.3c-0.9,2.5-1.1,5-1.2,10.8
			C250,46.3,230.8,53.6,229,53.6L229,53.6z"/>
		<path d="M283.7,17.6c0.7,0,1.3,0.2,2.1,0.4c2,0.5,3.1,1.4,3.2,3.4c2-1.5,8.8-7,8.8-8.6c0-0.7-0.7-1-1.4-1
			c-2.8,0-11.5,1.1-18.2,3.3c-1.9,0.6-2.9,1.1-4.3,1.1c-1.1,0-7.9-1.7-7.9-5.6c0-0.6,0.2-1,0.7-1c0.3,0,0.7,0.2,1.1,0.6
			c1,0.9,3.1,1.3,5.5,1.3c1,0,2-0.1,3.1-0.2c5.8-0.6,13.3-1.7,18.5-2.1c2.2-0.2,2.3-1,3.2-1c1.6,0,7.7,3,7.7,5.6
			c0,1.6-3,1.9-4.2,2.6c-3.9,2.5-9.1,5.2-12.8,6.8c-1.6,9-11,23.8-24.1,27.8c-1.3,0.4-1.9,0.5-2.2,0.5c-0.1,0-0.2,0-0.2-0.1
			c0-0.2,0.7-0.6,1.8-1.3c11.3-6.4,19.4-21.8,19.4-27.7c0-1.7-0.7-2.4-1.7-2.4c-1.3,0-1.7-0.3-1.7-0.7c0-0.8,2-2,3.4-2L283.7,17.6
			L283.7,17.6z"/>
		<path d="M339.7,11.2c-0.7,0-1.3,0.1-2,0.1c1.5,1.2,2.5,4.3,2.5,8.2c0,12.5-10,26.3-15.7,26.3c-3.2,0-4.4-4.3-6.7-7.7
			c-1-1.4-1.4-3.4-1.4-5.6c0-9.1,7.8-23.5,24.2-23.5c13.7,0,21,9.4,21,19.3c0,5.4-2.2,11-6.7,15.2c-7.7,7.2-19.1,8-19.6,8
			c-0.6,0-0.8-0.1-0.8-0.2c0-0.3,0.9-0.7,2.7-1.2c10.5-2.9,19.9-10.4,19.9-22.1c0-8.9-6.3-16.9-17.1-16.9
			C339.9,11.2,339.7,11.2,339.7,11.2z M334.2,12c-9.2,2.7-14.6,11.3-14.6,18.8c0,5.3,2.7,9.3,5.3,9.3c4.1,0,12.7-12.5,12.7-23.2
			c0-2.7-0.4-5.2-2.2-5.2c-0.2,0-0.4,0-0.5,0.1c-0.2,0.1-0.4,0.1-0.5,0.1C334.4,11.9,334.2,12,334.2,12z"/>
		<path d="M19.6,101.8c0,0.4-0.5,0.8-1.6,0.8c-0.6,0-0.8,0.2-1.4,0.9c-1.1,1.3-2.2,2.5-3.4,3.6l1.3,0.3c0.7,0.2,0.9,0.5,0.9,0.8
			s-0.4,0.8-1.1,1.1c-1,0.5-1,1-1.1,2.4c-0.2,3.4-0.2,8.7-0.2,13.8c0,4,0.1,7.7,0.1,10.4v0.1c0,1.6-1.5,2.5-2.8,2.5
			c-1,0-2-0.7-2-2.2V136c0.5-6,0.9-15.7,1-21.2v-4c-5.4,4.7-9.2,5.8-9.2,5.8S0,116.5,0,116.5c0-0.1,0.3-0.4,0.9-0.8
			c5.4-4,13-14,13.8-17.5c0.1-0.2,0.1-0.4,0.2-0.4C14.9,97.7,19.6,100.3,19.6,101.8z M19.1,90.7c0,0.4-0.4,0.7-1.2,0.7h-0.7
			c-0.4,0-0.5,0.2-1.1,0.7c-7.3,6.8-14.2,9.5-15.1,9.5c-0.2,0-0.2,0-0.2-0.1c0-0.1,0.3-0.4,0.9-0.8c4.1-2.6,11.3-10.3,12.4-14
			c0.1-0.2,0.1-0.3,0.2-0.3C14.9,86.4,19.1,89.5,19.1,90.7z M20.8,132.1c-0.5,0.2-0.7,0.7-1.1,0.7c-0.8,0-3.7-4.5-3.7-5
			c0-0.1,0.1-0.1,0.2-0.1h0.3c0.5,0.1,1,0.1,1.6,0.1c2.2,0,4.1-0.2,8.3-0.9v-8.6c-1.7,0.1-3.8,0.2-6.5,0.5h-0.1
			c-0.7,0-2.5-2.2-2.5-2.9c3.4,0.5,6.6,0.8,9,0.8c0-1-0.1-1.9-0.1-2.4c-0.1-1.4-0.1-3.1-0.5-5.4c-0.1-0.2-0.1-0.3-0.1-0.4
			c0-0.1,0.1-0.2,0.2-0.2c0.8,0,6.8,0.9,6.8,2.2c0,0.4-0.4,0.7-1.1,1.1c-1.3,0.7-1.4,1-1.4,5h2.6c0.1,0,0.4-0.2,0.6-0.5
			c0.4-0.7,1.9-2.7,2.6-2.7c0.1,0,0.2,0,0.2,0.1c1.4,0.7,3.7,2.8,3.7,4c0,0.4-0.2,0.7-1,0.7h-8.7v7.9c4.1-0.8,8.2-1.7,10.8-2.4
			c0.5-0.1,0.8-0.2,1-0.2s0.3,0.1,0.3,0.1C42.2,124.8,29,129.7,20.8,132.1z M39.8,106.6c0,0.4-0.2,0.7-1,0.7h-11
			c-2.2,0-4.7,0.1-8.5,0.5h-0.1c-0.8,0-2.5-2.2-2.5-2.8c3.5,0.5,7.1,0.7,9.5,0.8v-8.2c-1.6,0.1-3.5,0.2-5.8,0.5h-0.1
			c-0.8,0-2.5-2.2-2.5-2.8c3.1,0.5,6,0.7,8.3,0.8c0-4.9-0.1-7.3-0.6-10.1c-0.1-0.2-0.1-0.3-0.1-0.4c0-0.2,0.1-0.2,0.2-0.2
			c0.6,0,6.8,0.9,6.8,2.3c0,0.4-0.4,0.8-1.1,1.1c-1,0.5-1.3,0.5-1.3,2.2c-0.1,1.1-0.1,3-0.1,5.2H32c0.1,0,0.5-0.2,0.7-0.5
			c0.1-0.1,1.7-2.7,2.5-2.7c0.5,0,4,2.7,4,4c0,0.4-0.2,0.7-1,0.7h-8.1v8.2h2.5c0.1,0,0.5-0.1,0.7-0.4c0.4-0.7,1.8-2.7,2.5-2.7
			c0.1,0,0.2,0,0.2,0.1C37.7,103.6,39.8,105.4,39.8,106.6z M57.1,105.8c0,0.4-0.3,0.7-1.1,0.7h-6.1l0.4,0.1c0.5,0.2,0.8,0.4,0.8,0.7
			s-0.3,0.5-0.8,0.8c-0.9,0.4-0.9,0.5-1,2c-0.1,2.5-0.1,5.8-0.1,8.9c0,3.9,0.1,7.3,0.3,12.1v0.2c0,4.4-4.3,6.6-6.7,6.6
			c-0.5,0-0.8-0.2-1.1-0.8c-1-1.7-5.9-4.2-5.9-4.6c0-0.1,0.1-0.1,0.2-0.1s0.3,0,0.5,0.1c2.3,0.5,4,0.8,5.3,0.8
			c2.4,0,3.4-0.9,3.5-2.6c0.1-1.3,0.1-5.3,0.1-9.5c0-8.2-0.2-12.5-0.4-14.4l-3.4,0.4h-0.1c-1,0-2.6-2.3-2.6-3
			c4.8,0.7,7.4,0.9,8.8,0.9h0.8c0.4,0,0.7-0.2,0.8-0.5c0.4-0.6,2.2-3.5,2.9-3.5c0.1,0,0.2,0,0.3,0.1
			C54.1,101.8,57.1,104.5,57.1,105.8L57.1,105.8z M55.3,92.3c0,0.4-0.3,0.7-1.1,0.7h-7.2c-1.4,0-3.4,0.3-5.3,0.6h-0.1
			c-1,0-2.6-2.3-2.6-3c3.6,0.7,5.6,0.9,6.8,0.9h1c0.3,0,0.6-0.2,0.8-0.5c0.4-0.6,2.2-3.5,2.9-3.5c0.1,0,0.2,0,0.3,0.1
			C52.3,88.2,55.3,91,55.3,92.3z"/>
		<path d="M78.3,131c-2.4,0-3.4-0.1-3.4-0.4s1.3-0.5,3.1-0.8c19.5-3.1,28-12.2,28-19.2c0-5.2-4.8-8.9-10.7-8.9
			c-5.4,0-12,2.8-18.1,8.9c-2.5,2.5-5.2,3.5-7.5,3.5c-3.7,0-5.7-2.6-5.7-3.4c0-0.4,0.7-0.5,1.5-0.5c2.5-0.2,6.6-2,10.4-4.4
			c5.4-3.4,12.1-6.6,18.7-6.6c8.8,0,15.8,6.1,15.8,13c0,8.9-10.9,18.8-31.8,18.8H78.3z M106.8,99.6c-1.6-1.8-3.5-3.2-5-4.1
			c-0.5-0.3-1-0.5-1-0.7c0-0.5,2.2-0.5,2.3-0.5c4.7,0,7.1,2.1,7.1,4.1c0,1.1-0.8,2-1.8,2C107.9,100.5,107.3,100.2,106.8,99.6z
			 M113.1,96.7c-1.6-1.7-3.6-3.2-5.2-4c-0.5-0.2-1-0.4-1-0.6c0-0.3,1.4-0.5,2.8-0.5c3.1,0,6.7,1.2,6.7,3.9c0,1.1-0.8,2-1.7,2
			C114.2,97.6,113.6,97.3,113.1,96.7z"/>
		<path d="M136.6,134.4c-0.5-7.8-6.5-17-9.3-20.3c-1.1-1.3-1.6-2.7-1.6-4.1c0-1.3,0.4-2.5,1.1-3.9c1.5-2.9,6.1-8.9,8.2-12
			c0.7-1,1.8-2.8,1.8-4.2c0-0.5-0.1-0.9-0.4-1.3c-0.4-0.5-0.6-1-0.6-1.2c0-0.4,0.2-0.5,0.6-0.5c1,0,5.1,1.7,5.1,5
			c0,1.3-0.7,2.6-1.7,3.9c-2.9,3.4-8.9,7.7-11,11.6c-0.3,0.6-0.7,1.4-0.7,2.4c0,0.8,0.2,1.7,1.1,2.6c5,5.3,12.6,14,12.6,20.9
			c0,2.5-1.6,4.1-2.9,4.1C137.8,137.4,136.7,136.5,136.6,134.4L136.6,134.4z"/>
		<path d="M175.4,110.3c0-7.6-2.6-14.5-6.3-14.5c-3.2,0-6.3,4.7-6.3,10.6c0,3.5,1.1,5.8,1.8,7.4c0.2,0.6,0.4,1.2,0.4,1.8
			c0,1.8-1,3.3-2.2,3.3c-1.7,0-4.1-4.6-4.1-9.4c0-3.5,1-7.1,1.7-10.8c0.3-1.6,1.1-5.2,1.1-7.7c0-1.4-0.2-2.6-1-2.9
			c-0.5-0.2-1-0.5-1-0.9c0-0.4,0.9-1.4,1.9-1.4c1.3,0,3.5,1.2,3.5,4.8c0,1.2-0.1,1.5-2,8.8c-0.1,0.4-0.2,0.7-0.2,0.8
			c0,0.1,0.1,0.1,0.1,0.1c0.1,0,0.2-0.3,0.5-1c1.7-4.4,4.4-6.4,7.1-6.4c6.4,0,9.5,9.1,9.5,17c0,19.9-17.5,29.2-19.8,29.2
			c-0.1,0-0.1,0-0.1-0.1c0-0.2,0.5-0.7,1.9-1.6C170.6,131.5,175.4,120.5,175.4,110.3L175.4,110.3z"/>
		<path d="M194.9,122.2c0-2.1,0.2-4.1,0.6-6.1c0.8-4.1,2-7.8,2.7-11.3c0.3-1.5,0.4-2.9,0.4-4.1c0-2.6-0.5-4.6-1.1-5.7
			c-0.4-0.7-0.8-1.2-0.8-1.5s0.3-0.4,1.2-0.4c1.9,0,5,2.6,5,7.1c0,2-0.7,4-1.7,6.5c-1.5,3.7-3.3,8.2-3.3,12.3c0,1.4,0.4,3.7,0.9,3.7
			c0.2,0,0.4-0.3,0.7-0.9c1.5-3.2,5.6-11.2,6.2-11.2c0.1,0,0.1,0.1,0.1,0.2c0,0.2-0.1,0.7-0.4,1.4c-0.8,2-4.1,10.6-4.1,15.7
			c0,1.3,0.2,2.3,0.4,3.2c0.1,0.4,0.2,0.8,0.2,1.2c0,1.5-0.9,2.4-1.9,2.4C195.9,134.8,194.9,125.2,194.9,122.2z M231.7,126.3
			c2.3,0,3.6,1.1,3.6,2.3c0,3.7-8.5,3.8-9.5,3.8c-10.3,0-13.6-5.3-13.6-8.3c0-0.4,0.1-0.6,0.2-0.6c0.3,0,0.7,0.4,1.3,1.2
			c1.2,1.7,5.2,2.9,9.7,2.9c1.2,0,2.4-0.1,3.6-0.2c1.4-0.2,2.4-1,4.4-1H231.7L231.7,126.3z M222.5,104.9c-9,0-9.5-5.4-9.5-5.8
			c0-0.2,0.1-0.2,0.2-0.2s0.6,0.2,1.1,0.5c1.7,1,3.9,1.4,6.1,1.4c1.7,0,3.4-0.2,5-0.6c0.8-0.2,1.4-0.6,2.2-0.7
			c0.4-0.1,0.8-0.1,1.1-0.1c1.9,0,3.1,1,3.1,2.1C232,104.4,225.4,104.9,222.5,104.9z"/>
		<path d="M29.7,196.9v0.2c0,1.2-1.1,2.3-2.5,2.3c-1,0-1.9-0.6-1.9-1.9v-0.4c0.4-3.8,0.7-10.9,0.7-13.2v-0.8c-4.3,4.8-7.6,6.6-8,6.6
			c-0.1,0-0.1,0-0.1-0.1s0.2-0.4,0.7-0.9c1.2-1.2,2.5-2.8,3.8-4.6h-6.7c-0.1,3.2-0.1,6.8-0.1,10.3c2.9-1.1,5.6-2.2,7.7-3.1
			c0.6-0.2,1-0.4,1.1-0.4c0.1,0,0.2,0.1,0.2,0.1c0,0.7-4.9,3.9-9.1,6.7c0,3.4,0.1,6.8,0.1,9.7c0,1.6,0.2,5.6,0.2,7.1
			c0,4.8-4,6.4-6.4,6.4c-0.5,0-0.8-0.2-1.2-0.8c-1.1-1.9-5.1-4.3-5.1-4.8c0-0.1,0.1-0.1,0.2-0.1c0.1,0,0.3,0,0.5,0.1
			c2,0.4,3.5,0.7,4.6,0.7c2,0,2.8-0.8,2.9-2.5c0.1-3.7,0.1-8.6,0.2-13.7l-4.8,2.8c-0.5,0.2-0.6,1-1.1,1c-1.2,0-4.3-5-4.3-5
			c0-0.1,0.2-0.1,0.6-0.1c2.1-0.2,3.1-0.4,9.5-2.5v-11.6c-1.9,0.1-4.2,0.2-6.7,0.5H4.8c-0.7,0-2.5-2.2-2.5-2.9
			c3.2,0.5,6.6,0.7,9.2,0.8c-0.2-9.6-0.3-10.5-0.8-13.3c-0.1-0.2-0.1-0.2-0.1-0.4s0.1-0.2,0.2-0.2c0.5,0,7.5,1,7.5,2.4
			c0,0.5-0.6,1-1.3,1.4c-1.1,0.6-1.1,0.4-1.3,2.5c-0.1,1.9-0.2,4.5-0.2,7.6h0.5c0.2,0,0.5-0.2,0.7-0.5c1.7-2.9,1.9-3.1,2.4-3.1
			c0.1,0,0.2,0,0.2,0.1c1.3,0.6,2.8,2.2,3.5,3.8c0,0.1,0.1,0.1,0.1,0.1c1.6-2.5,5.8-9.2,6.4-13c0.1-0.4,0.1-0.5,0.2-0.5
			c0.7,0,5.9,2.3,5.9,3.5c0,0.5-0.7,0.9-1.7,1c-0.9,0.1-1.1,0.2-3.2,3.5l0.4,0.1l0.3,0.2h6.1c0.6-2,1.1-4.6,1.1-7.9
			c0-0.4,0-0.5,0.2-0.5c0.2,0,6.4,1.9,6.4,3.2c0,0.5-0.6,1-1.7,1.1c-0.5,0.1-0.7,0.3-1,0.7c-1.1,1.3-2.1,2.5-3.2,3.4h6.7
			c0.2,0,0.5-0.2,0.7-0.5c0.7-1.2,2.2-2.9,2.8-2.9c0.7,0,4.8,2.8,4.8,4.1c0,0.4-0.2,0.7-1.1,0.7H41.6c0.7,0.4,0.8,0.4,0.8,0.6
			c0,0.3-0.4,0.7-1.2,1c-0.4,0.1-0.5,1-0.5,1.6c0,0.4-0.1,0.8-0.1,1.3h3.5c0.2,0,0.6-0.2,0.8-0.5c0.8-1.2,2-2.2,2.3-2.2
			c0.8,0,4.4,2.3,4.4,3.5c0,0.3-0.2,0.6-1.1,0.6h-10c0,1.3-0.1,2.7-0.1,4.1h3.7c0.2,0,0.6-0.2,0.8-0.5c0.6-0.8,1.3-1.5,1.9-2
			c0.1-0.1,0.3-0.2,0.5-0.2c0.8,0,4.3,2.2,4.3,3.4c0,0.4-0.2,0.7-1.1,0.7h-10c0,1.7,0.1,3.4,0.1,4.9h6c0.2,0,0.6-0.2,0.8-0.5
			c0.1-0.1,2-2.9,2.8-2.9s4.9,2.6,4.9,4.1c0,0.4-0.2,0.7-1.1,0.7L29.7,196.9L29.7,196.9z M40.7,222.1c-0.7,0-1-0.4-1.3-0.8
			c-0.8-1.6-5.9-4.1-5.9-4.4h0.1c0.1,0,0.2,0,0.5,0.1c2.5,0.8,4.8,1.2,6.8,1.2c2.5,0,4.6-0.7,5.7-2.3c1.7-2.4,2.2-6.4,2.2-6.5
			c0-0.4-0.2-0.6-0.5-0.6H43l-0.7,2.3c-0.4,1.2-1.6,1.7-2.6,1.7c-1,0-1.8-0.5-1.8-1.3c0-0.2,0.1-0.5,0.2-0.8
			c1.1-2.6,2.5-6.7,2.5-7.5c0-0.2-0.2-0.4-0.5-0.4h-6.2c1.7,0.4,2.2,0.5,2.2,0.9c0,0.2-0.2,0.5-0.7,0.7c-0.7,0.2-0.8,0.1-1.2,1.7
			C30,222.2,14,222.4,13,222.4c-0.4,0-0.6-0.1-0.6-0.2s0.5-0.4,1.2-0.5c10.3-2.5,16.4-10.9,16.4-18.9c-2.5,0.1-5,0.2-7.6,0.4h-0.1
			c-0.9,0-2.5-2-2.5-2.8c5.7,0.7,12.6,0.8,14.7,0.8h5.2c0.3,0,0.7-0.2,0.9-0.5c0.4-0.4,0.9-1,1.3-1.3c0.2-0.2,0.3-0.2,0.5-0.2
			c0.5,0,4.6,2.1,4.6,3.5c0,0.6-0.8,0.9-1.4,1.1c-1.4,0.5-1.4,0.5-2.2,3.2h4.7c0.4,0,0.8-0.1,1-0.4c0.7-0.9,1.6-1.3,1.7-1.3
			c1,0,4.3,2.2,4.3,3.1c0,0.5-0.5,1-1.4,1.4c-0.5,0.2-0.9,0.3-1,1c-1.2,5.2-3,11.2-11.2,11.2L40.7,222.1L40.7,222.1z M37,185h-7.3
			c-0.1,1.3-0.1,2.7-0.1,4.1H37V185z M29.6,190.6c0,1.7,0.1,3.4,0.1,4.9h7.1c0.1-1.2,0.1-3,0.1-4.9H29.6z M31.3,179.2l-0.7,0.4
			c-0.4,0.1-0.8,0.5-0.8,4.1H37c0-1.4-0.1-3-0.3-4.4H31.3z"/>
		<path d="M78.7,198.4c6.1-6.3,12.2-8.8,17.3-8.8c8,0,13.7,6,13.7,11.9c0,12.9-19.3,19-22.6,19c-0.2,0-0.3-0.1-0.3-0.1
			c0-0.2,0.7-0.5,2.2-1.2c5.5-2.3,15.8-8.9,15.8-17.4c0-6.6-6.2-9.4-10.8-9.4c-7.4,0-12.5,5.1-15.9,8.5c-0.2,3.2-0.2,5.3-0.2,5.5
			c0,3.5,0.5,7.1,1.3,10.1c0.2,0.8,0.2,1.4,0.2,2c0,1.9-0.8,2.9-1.7,2.9c-1.1,0-2.5-1.5-2.8-4.7c-0.2-2.3-1.4-5.6-2.6-8
			c-1.3,2.8-1.9,4.7-2.3,6.1c-1,2.8-2.9,4.3-4.1,4.3c-0.7,0-1.3-0.5-1.3-1.6c0-1.1,0.6-3.7,6.2-11.8c-1.2-2.2-2.6-4.2-3.5-5.1
			c-1-1-1.4-1.8-1.4-2.6s0.5-1.4,1.6-1.9c1.4-0.6,2.4-1.4,3.2-2.2c2.1-2.2,4.7-4.1,7.1-5.6c0.1-1,0.1-1.9,0.1-2.7
			c0.1-1.1,0.1-2.1,0.1-2.9c0-4.7-0.9-5.9-3.8-7.8c-0.5-0.3-0.8-0.5-0.8-0.7c0,0,0.8-1.1,2.3-1.1c0.8,0,5.3,0.4,5.3,6.1
			c0,1.1-0.8,6.7-1,7.9h0.4c2.5,0,3.4,0.7,3.4,1.7c0,1.3-1.3,3.1-2.6,4.9c-0.8,1.1-1.7,2.5-2.7,4l-0.1,1L78.7,198.4L78.7,198.4z
			 M72.4,203.6c1.5-1.9,3.2-4.4,4.6-6.8c0.2-2.1,0.4-4.2,0.6-6.1c-1.8,1.3-3.4,3.3-4.4,5.6c-0.8,1.8-1.6,2.3-3.5,2.6
			c-0.5,0.1-0.7,0.2-0.7,0.5c0,0.5,0.8,1.9,2.6,5.2C71.5,204.8,72.4,203.6,72.4,203.6z M73,207.3c1.9,3.2,2.2,3.6,2.5,3.6
			c0.1,0,0.2-0.1,0.2-0.5c0-2.6,0.3-5.2,0.5-7.7c-1,1.3-2,2.6-3,4L73,207.3L73,207.3z M79.1,193.1c1.1-2,1.1-2.5,1.1-2.5
			c0-0.4-0.1-0.7-0.5-0.8L79.1,193.1z"/>
		<path d="M132.4,196.9c0.1,0,0.1-0.1,0.3-0.2c2.7-1.7,6.1-2.7,9.4-2.7c7.7,0,12.5,5.4,12.5,11.2s-5.5,13.7-16.6,13.7
			c-5.8,0-9.7-2.9-9.7-6.1c0-2.9,3-4.5,5.9-4.5c4,0,6.4,3.1,6.4,6.2c0,0.5-0.1,1-0.2,1.5c7-1.7,9.7-6.5,9.7-10.7c0-4.7-3.4-9-9.4-9
			c-2.1,0-9.1,0.5-13.1,9.1c-1.4,3.1-2.4,5-4.4,5c-1.1,0-1.9-0.8-1.9-2c0-1.7,2.2-4.3,5-7.5c3.6-4.1,12.1-15.5,14.6-19.7
			c0.3-0.4,0.4-0.8,0.4-1.1c0-0.4-0.2-1-1.5-1c-2.8,0-4.1,5.8-8.2,5.8c-2.2,0-4-1.4-4-3.7c0-0.7,0.1-1.2,0.5-1.2
			c0.3,0,0.7,0.1,1.1,0.3c0.5,0.2,1,0.2,1.4,0.2c0.8,0,1.7-0.2,2.5-0.8c2.3-1.6,5.1-3.6,8.3-3.6c3.5,0,5.7,2.5,5.7,3.8
			c0,1.2-1.3,2.3-2.6,3.2C140.2,186.3,132.4,196.7,132.4,196.9L132.4,196.9L132.4,196.9z M137,214.3c0-2.1-1.6-3.9-3.8-3.9
			c-2.6,0-2.7,2-2.7,2.3c0,0.2,0,3.1,6,3.7C136.8,215.6,137,214.9,137,214.3L137,214.3z"/>
		<path d="M175.7,182.1c-2.3,0-5.3,0.1-9.1,0.5h-0.1c-0.7,0-2.5-2.2-2.5-2.9c4.4,0.7,9.2,0.8,11.7,0.8h1.9c0.2,0,0.5-0.2,0.7-0.5
			c2-3.4,2.6-3.4,2.8-3.4c0.8,0,5,3.4,5,4.8c0,0.3-0.2,0.6-1.1,0.6H175.7L175.7,182.1z M183.4,218.2c0,1.3-1.4,2.1-2.6,2.1
			c-1,0-1.9-0.5-1.9-1.7c0-0.4,0.1-0.9,0.1-1.3h-7c0,1,0.1,1.9,0.1,2.9v0.1c0,1.4-1.7,2-2.6,2c-1,0-1.9-0.5-1.9-1.7v-0.2
			c0.4-4.5,0.4-6.8,0.4-9.1c0-6.1-0.6-9.2-0.7-9.7c0-0.1-0.1-0.2-0.1-0.3c0-0.1,0.1-0.2,0.1-0.2c0.3,0,4.9,1.6,6,2.7h4.5
			c0.2,0,0.5-0.1,0.7-0.4c0.7-1.1,1.6-2,1.9-2c0.8,0,4.9,2.3,4.9,3.7c0,0.5-0.5,1-1.2,1.4c-1.1,0.7-1.1,1.1-1.1,3.1
			c0,2.2,0.2,4.9,0.4,8.6L183.4,218.2L183.4,218.2z M175.8,173.8c-1.8,0-3.2,0.1-6,0.5h-0.1c-0.8,0-2.2-2-2.2-2.9
			c3.5,0.7,6.5,0.8,8.4,0.8h0.7c0.1,0,0.4-0.2,0.6-0.5c0.5-1,1.6-2.4,2.2-3.1c0.1-0.1,0.3-0.2,0.5-0.2c0.1,0,0.2,0,0.3,0.1
			c1.6,0.7,4.2,3.3,4.2,4.4c0,0.4-0.2,0.8-1.1,0.8H175.8z M175.8,189.6c-1.8,0-3.2,0.1-6,0.5h-0.1c-0.7,0-2.2-1.9-2.2-2.9
			c3.5,0.7,6.5,0.8,8.4,0.8h0.8c0.1,0,0.5-0.2,0.7-0.5c0.1-0.1,1.6-3.1,2.6-3.1c0.1,0,0.2,0,0.2,0.1c1.4,0.7,4.1,3.2,4.1,4.2
			c0,0.4-0.2,0.8-1.1,0.8L175.8,189.6L175.8,189.6z M175.8,197.5c-1.8,0-3.2,0.1-6,0.5h-0.1c-0.7,0-2.2-2-2.2-2.9
			c3.5,0.7,6.6,0.8,8.5,0.8h0.7c0.1,0,0.5-0.2,0.7-0.5c0.4-0.7,1.8-3.1,2.6-3.1c0.2,0,0.3,0,0.4,0.1c1.3,0.6,4,3.1,4,4.2
			c0,0.4-0.2,0.8-1.1,0.8L175.8,197.5L175.8,197.5z M179,215.7c0.1-2.5,0.1-4.5,0.1-6.3c0-1.1-0.1-2.3-0.1-3.4
			c0-0.4-0.2-0.7-0.6-0.7h-5.3l-0.5,0.4c-0.5,0.4-0.6,0.7-0.6,1.6c0,0.6-0.1,1.4-0.1,8.4L179,215.7L179,215.7z M204.4,180.5
			c3.2,5.6,8.6,11.6,16,14.5c0.4,0.1,0.5,0.2,0.5,0.4c0,0.6-3.8,1-5.6,2.6c-0.2,0.2-0.5,0.4-0.7,0.4c-1.5,0-8.2-8.3-11.2-17.8H199
			c-1.4,3.2-3.2,6.2-5.2,8.8c2.6,0.4,4.1,0.5,5.8,0.5h0.6c0.2,0,0.4-0.2,0.6-0.5c0.8-1.5,1.6-2.7,2-2.7c0.1,0,0.2,0,0.3,0.1
			c2.3,1.1,3.6,3.4,3.6,3.8c0,0.4-0.2,0.7-1,0.7h-6.4c-1.9,0-2.6,0.2-4.5,0.5h-0.1c-0.5,0-1.3-0.7-1.8-1.4
			c-5.3,6.9-10.3,9.4-10.9,9.4c-0.1,0-0.2-0.1-0.2-0.1c0-0.2,0.2-0.4,0.5-0.7c4.7-3.8,9.2-10.9,12-18.2c-1.9,0.1-3.9,0.2-6.1,0.4
			h-0.1c-0.9,0-2.6-2.2-2.6-2.9c3.1,0.4,6.5,0.7,9.3,0.8c1-3.1,1.9-6.8,1.9-9.4c0-0.7,0.1-0.7,0.1-0.7c0.1,0,7.2,1.7,7.2,3
			c0,0.5-0.6,1-1.9,1.2c-0.6,0.1-0.9,0.4-1.1,1.1c-0.5,1.6-1.1,3.2-1.7,4.8h9.3c0.2,0,0.6-0.2,0.8-0.5c0.7-1.1,2.3-3.3,2.9-3.3
			c1.1,0,5.2,3.4,5.2,4.7c0,0.3-0.3,0.6-1.2,0.6L204.4,180.5L204.4,180.5z M197.2,207.3l-0.9,3.2c-0.4,1.1-1.7,1.7-2.8,1.7
			c-1,0-1.8-0.4-1.8-1.3c0-0.2,0.1-0.5,0.2-0.8c0.5-1.1,2.8-7.2,2.9-10.3c-1.7,0.1-3.5,0.2-5.3,0.4h-0.1c-1,0-2.6-2-2.6-2.8
			c5,0.6,8.9,0.8,11.9,0.8h5.9c0.3,0,0.5-0.2,0.7-0.5c1.6-2.3,2-2.9,2.5-2.9c0.1,0,0.2,0.1,0.4,0.1c1.9,0.8,4.3,3.1,4.3,4.1
			c0,0.4-0.2,0.7-1.1,0.7h-11.1c0.1,0.1,0.1,0.1,0.1,0.2c0,0.2-0.2,0.5-0.8,0.8c-0.7,0.2-0.8,0.4-2,5.2h7.7c0.6,0,1.1-0.2,1.3-0.4
			c0.6-0.7,0.8-1.1,1.3-1.4c0.1-0.1,0.2-0.2,0.4-0.2c0.8,0,4.7,2.5,4.7,3.4c0,0.5-0.5,0.9-1.5,1.4c-0.8,0.4-0.9,0.4-1,1.3
			c-0.7,4.6-2.2,12.6-10.7,12.7c-0.5,0-1.1-0.3-1.3-0.8c-1-2.3-5.6-4.9-5.6-5.3c0,0,0.1-0.1,0.1-0.1s0.2,0.1,0.5,0.1
			c2.8,0.8,4.9,1.3,6.6,1.3c1.2,0,5.9-0.2,6.4-9.7c0-0.4-0.2-0.8-0.7-0.8L197.2,207.3L197.2,207.3z"/>
		<path d="M246.8,194.3c0-7.6-2.6-14.5-6.3-14.5c-3.2,0-6.3,4.7-6.3,10.6c0,3.5,1.1,5.8,1.8,7.4c0.2,0.6,0.4,1.2,0.4,1.8
			c0,1.8-1,3.3-2.2,3.3c-1.7,0-4.1-4.6-4.1-9.4c0-3.5,1-7.1,1.7-10.8c0.3-1.6,1.1-5.2,1.1-7.7c0-1.4-0.2-2.6-1-2.9
			c-0.5-0.2-1-0.5-1-0.9c0-0.4,0.9-1.4,1.9-1.4c1.3,0,3.5,1.2,3.5,4.8c0,1.2-0.1,1.5-2,8.8c-0.1,0.4-0.2,0.7-0.2,0.8
			c0,0.1,0.1,0.1,0.1,0.1c0.1,0,0.2-0.3,0.5-1c1.7-4.4,4.4-6.4,7.1-6.4c6.4,0,9.5,9.1,9.5,17c0,19.9-17.5,29.2-19.8,29.2
			c-0.1,0-0.1,0-0.1-0.1c0-0.2,0.5-0.7,1.9-1.6C242,215.5,246.8,204.5,246.8,194.3L246.8,194.3z"/>
		<path d="M282.9,203.8c-4.8,3-6.7,6-6.7,8.3s2.5,5.2,7.5,5.2c2.2,0,4.7-0.5,6.9-1.7c0.7-0.4,1.4-0.5,2-0.5c1.5,0,2.5,1,2.5,2.1
			c0,2.8-5.3,4.3-9.7,4.3c-6.5,0-11.8-3.9-11.8-8.5c0-3.7,3.4-7.9,9.3-11.5c0-3.7-0.5-8.9-3.8-8.9c-1.4,0-3.2,1.1-5.3,4L272,200
			c-1.3,2.3-2.7,4.7-4.4,4.7c-0.2,0-1.8-0.1-1.8-2.2c0-1.2,0.6-2.9,2.5-4.6c5.5-5,7.3-8.2,10-14.2l0.1-0.2l-0.1,0.1
			c-1.2,0.3-2.3,0.5-3.3,0.5c-5.8,0-7.4-4.1-7.4-5.7c0-0.2,0.1-0.3,0.2-0.3c0.3,0,0.7,0.2,1.5,0.8c1.8,1.3,3.5,1.6,5,1.6
			c1.8,0,3.7-0.4,5.3-1c0.1-0.7,0.1-1.3,0.1-1.7c0-1.4-0.2-3-2.3-3.5c-0.5-0.1-1.1-0.3-1.1-0.6c0-0.2,0.9-1.5,2.9-1.5
			c1.6,0,2.8,0.5,3.4,2.8h0.5c1.1,0.1,2,0.2,2.8,0.2c0.3,0,0.5-0.1,0.8-0.1c0.4-0.2,0.7-0.2,1-0.2c1.5,0,1.5,1.4,1.5,1.6
			c0,3.2-6,5.5-8.1,6.2l-0.1,0.3c-2,4.4-3.3,6.7-4.6,9.1c1.1-0.6,2.2-0.8,3.2-0.8c3.1,0,5.4,2.6,6.2,6.2c1.7-4.4,6.4-12.8,13.3-12.8
			c3.3,0,7.4,2.2,7.4,5.3c0,2.3-2.5,4.7-6.6,6.3c-4.2,1.6-9.4,3.6-13.4,5.6c0.2,1.4,0.2,2.8,0.2,4.3c0,0.7,0,1.5-0.1,2.2
			c-0.2,2.3-1.8,3.9-3.1,3.9c-0.9,0-1.7-0.8-1.7-2.8c0-0.2,0.1-0.5,0.1-0.7c0.1-1.5,0.9-2.1,1-4.1V203.8L282.9,203.8z M282.8,175.5
			c0.1,0.2,0.1,0.5,0.1,0.7c0,0.7-0.1,1.3-0.2,2c1.4-0.7,2.1-1,2.1-1.7c0-0.3-0.2-0.6-1.7-1L282.8,175.5L282.8,175.5z M298,193.6
			c2.6-1.4,3.8-2.9,3.8-4.2s-1.1-2.9-3.5-2.9c-5.5,0-10.6,8.5-12.2,13.3C289.9,197.8,294.5,195.5,298,193.6z"/>
		<path d="M367.7,181.2c0,0.5-0.4,1-1.4,1.5c-1.4,0.7-1.4,0.8-1.4,2.4c0.1,1.8,0.1,3.9,0.1,6.2c0,5.8-0.2,12.4-0.7,16.5
			c-1.9,13.6-10,14.1-11.3,14.1c-0.4,0-0.9-0.2-1.1-0.7c-0.6-1.7-6.8-5-6.8-5.5h0.1c0.1,0,0.2,0,0.4,0.1c2.3,0.7,4.4,1.1,6.3,1.1
			c7.9,0,8.9-8.7,8.9-26.6c0-3.4-0.1-6.4-0.1-8.2c0-0.8-0.3-1-0.9-1h-19.5c-4,6.1-7.4,9.1-8.5,9.8l0.2,19.7c0,1.3,0.1,2.9,0.2,4v0.4
			c0,5-4.7,6.2-6.2,6.2c-0.5,0-0.8-0.2-1.1-0.8c-0.7-1.3-5.5-3.7-5.5-4.2c0-0.1,0.1-0.1,0.2-0.1s0.3,0,0.5,0.1
			c1.9,0.4,3.3,0.5,4.4,0.5c2.9,0,3.3-1.1,3.4-2.6c0.1-3.2,0.1-8.6,0.1-14.5h-6.2c-1.4,19.7-9.8,23.3-10,23.3
			c-0.1,0-0.1-0.1-0.1-0.2c0-0.2,0.2-0.6,0.8-1.3c4.6-5.6,5.6-17.2,5.6-27.3c0-11-0.2-18.7-1.1-22.6c-0.1-0.2-0.1-0.3-0.1-0.4
			s0.1-0.1,0.1-0.1c0.4,0,3.8,1.1,5.6,2.3l0.3,0.2h3.9c0.3,0,0.7-0.2,0.8-0.5c0.1-0.1,1.2-1.9,1.8-1.9c0.8,0,4.6,2.5,4.6,3.5
			c0,0.6-0.6,1.1-1.3,1.4c-0.9,0.5-0.9,1-1,1.9c-0.1,2-0.1,6.8-0.1,12.2l0.2-0.2c3.2-4.1,8.4-15.8,8.4-20.5c0-0.5,0.1-0.6,0.2-0.6
			c1.3,0,6.5,2.3,6.5,3.2c0,0.5-0.6,1-1.7,1.2c-0.8,0.2-0.8,0.4-1.2,1.1c-0.8,1.6-1.7,3.4-2.8,5.2h18.3c0.7,0,0.8-0.2,1-0.5
			c0.6-0.9,1.5-1.9,1.9-1.9C363.2,177.1,367.7,179.8,367.7,181.2L367.7,181.2z M327.8,175.5c0-0.4-0.2-0.7-0.7-0.7h-4.3
			c-0.1,0.1-0.2,0.2-0.3,0.3c-0.5,0.4-0.7,0.8-0.7,1.4v1.1c0,2.2,0.1,5.3,0.1,8.4h6C328,181.4,327.9,177.5,327.8,175.5z M328,187.6
			h-6c0,2.6,0.1,5.2,0.1,6.9c0,1.1-0.1,2.3-0.1,3.5h6.1V187.6L328,187.6z M355.6,192.5c-0.1,1.7-0.2,3.4-0.2,5.3
			c0,3.4,0.2,7.2,0.4,12.1c0,0.4-0.4,2.2-2.3,2.2c-0.9,0-1.7-0.5-1.7-1.9v-0.1c0-0.6,0.1-1.3,0.1-1.9h-12.1v4.5
			c0,1.3-1.2,2.2-2.3,2.2c-0.8,0-1.6-0.5-1.6-1.9v-0.1c0.2-5.2,0.5-10.8,0.5-15.7c0-2.2-0.1-7.9-0.4-9.7v-0.2c0-0.1,0-0.1,0.1-0.1
			c1,0,5.9,1.1,5.9,2.1c0,0.4-0.4,0.7-0.9,1c-0.9,0.5-1,0.3-1.1,1.7c1.3,0.2,3.2,0.6,5,1.3c0.8-3.3,1.3-6.8,1.3-8v-0.4
			c0-0.2-0.1-0.4-0.1-0.5s0.1-0.2,0.1-0.2c0.2,0,5.5,1.3,5.5,2.6c0,0.2-0.1,0.5-0.4,0.7h0.1c0,0,6.2,0.9,6.2,2.2
			c0,0.4-0.4,0.8-0.9,1.1C355.8,191.3,355.7,191,355.6,192.5L355.6,192.5z M340,192.8c-0.2,4.1-0.2,9-0.2,14h0.1
			c1.8-2.9,3.3-7,4.4-11C343,194.6,341.3,193.5,340,192.8z M351.4,187.6c-0.2,0.2-0.6,0.3-1,0.4c-0.5,0.2-0.9,0.3-1,0.9
			c-0.4,1.8-1,3.7-1.6,5.7c1.3,0.7,3.4,2.2,3.4,4.1c0,1.2-0.7,2.2-1.7,2.2c-0.7,0-1.4-0.5-2-1.6c-0.3-0.4-0.6-1-1-1.4
			c-1.4,3.3-3.2,6.5-5.6,8.8h11c0.1-2.9,0.1-5.6,0.1-8.1c0-8.2-0.4-10.3-0.5-10.8C351.4,187.7,351.4,187.6,351.4,187.6L351.4,187.6z
			"/>
		<path d="M377.9,206.2c0-2.1,0.2-4.1,0.6-6.1c0.8-4.1,2-7.8,2.7-11.3c0.3-1.5,0.4-2.9,0.4-4.1c0-2.6-0.5-4.6-1.1-5.7
			c-0.4-0.7-0.8-1.2-0.8-1.5s0.3-0.4,1.2-0.4c1.9,0,5,2.6,5,7.1c0,2-0.7,4-1.7,6.5c-1.5,3.7-3.3,8.2-3.3,12.3c0,1.4,0.4,3.7,0.9,3.7
			c0.2,0,0.4-0.3,0.7-0.9c1.5-3.2,5.6-11.2,6.2-11.2c0.1,0,0.1,0.1,0.1,0.2c0,0.2-0.1,0.7-0.4,1.4c-0.8,2-4.1,10.6-4.1,15.7
			c0,1.3,0.2,2.3,0.4,3.2c0.1,0.4,0.2,0.8,0.2,1.2c0,1.5-0.9,2.4-1.9,2.4C378.9,218.8,377.9,209.2,377.9,206.2L377.9,206.2z
			 M414.7,210.3c2.3,0,3.6,1.1,3.6,2.3c0,3.7-8.5,3.8-9.5,3.8c-10.3,0-13.6-5.3-13.6-8.3c0-0.4,0.1-0.6,0.2-0.6
			c0.3,0,0.7,0.4,1.3,1.2c1.2,1.7,5.2,2.9,9.7,2.9c1.2,0,2.4-0.1,3.6-0.2c1.4-0.2,2.4-1,4.4-1L414.7,210.3L414.7,210.3z
			 M405.5,188.9c-9,0-9.5-5.4-9.5-5.8c0-0.2,0.1-0.2,0.2-0.2s0.6,0.2,1.1,0.5c1.7,1,3.9,1.4,6.1,1.4c1.7,0,3.4-0.2,5-0.6
			c0.8-0.2,1.4-0.6,2.2-0.7c0.4-0.1,0.8-0.1,1.1-0.1c1.9,0,3.1,1,3.1,2.1C415,188.4,408.4,188.9,405.5,188.9L405.5,188.9z"/>
	</g>
</g>
</svg>
