<?xml version="1.0" encoding="UTF-8"?>
<svg id="_レイヤー_2" data-name="レイヤー 2" xmlns="http://www.w3.org/2000/svg" viewBox="0 0 378.9 79.76">
  <g id="_デザイン" data-name="デザイン">
    <g>
      <path d="m31.96,30.06c0,.22-.18.4-.79.4H12.31c-2.02,0-7.38.07-10.58.4h-.04c-.65,0-1.69-1.4-1.69-1.87,1.76.22,4.28.36,6.59.43.04-2.12.04-4.14.04-5.9,0-2.41,0-4.39-.04-5.65,0-1.26,0-4.25-.36-5.94-.04-.14-.07-.22-.07-.29,0-.04.04-.07.11-.07.29,0,4.5.54,4.5,1.48,0,.25-.29.58-.83.86-.76.4-.76.54-.76,8.78,0,2.2,0,4.57.04,6.8,1.4.04,2.59.07,3.28.07h2.66c.04-2.88.07-8.78.07-13.61,0-8.53-.07-9.36-.32-10.83h-2.05c-1.98,0-6.23.07-9.4.4h-.04c-.65,0-1.69-1.4-1.69-1.87,3.64.43,9.21.58,11.27.58h10.65c.22,0,.47-.14.58-.32.04-.07,1.55-2.56,2.23-2.56.11,0,.18.04.25.04,1.44.5,3.31,2.92,3.31,3.35,0,.22-.18.4-.76.4h-10.48c.36.11.5.29.5.47s-.22.4-.58.58c-.65.29-.65.36-.72,1.91-.04,1.01-.07,4.32-.07,8.1h3.6c.22,0,.47-.14.58-.32.25-.36,1.66-2.41,2.16-2.41.94,0,3.42,2.56,3.42,3.2,0,.22-.14.43-.72.43h-9.04c0,4.72,0,9.97.04,12.49h7.42c.25,0,.47-.14.58-.32.36-.61,1.76-2.66,2.3-2.66,1.15,0,3.71,3.02,3.71,3.49Z" fill="#fff"/>
      <path d="m67.78,29.88c0,.18-.14.36-.68.36h-13.5v.97c0,.68-.68,1.51-1.62,1.51-.65,0-1.19-.4-1.19-1.26v-.18c.29-3.13.54-11.05.54-13.25v-1.69c-1.33,1.58-2.77,2.99-4.25,4.07.04,1.73.11,3.49.18,4.93v.07c0,.83-.83,1.37-1.51,1.37-.58,0-1.08-.32-1.08-1.12,0-.43.04-.86.04-1.3h-2.95c0,1.37.04,2.66.04,3.78v.04c0,.79-.79,1.3-1.58,1.3-.58,0-1.12-.32-1.12-1.08v-.14c.25-3.42.4-7.24.4-10.73,0-.47.04-1.08.04-1.76-2.2,3.24-5.04,5.83-5.36,5.83,0,0-.04,0-.04-.04,0-.11.14-.32.43-.72,3.38-4.46,6.66-12.27,7.06-15.41-1.19.04-2.59.11-4.21.32h-.04c-.43,0-1.48-1.33-1.48-1.73,2.74.4,5.54.5,7.06.5h1.44c.11,0,.32-.11.47-.29.47-.54.94-1.48,1.44-2.02.07-.07.18-.11.29-.11.68,0,3.1,2.2,3.1,2.95,0,.18-.14.36-.68.36h-4.36l.32.11c.32.14.47.29.47.43,0,.18-.25.4-.79.58-.36.14-.47.32-.79,1.12-.68,1.55-1.44,3.1-2.27,4.64l.83.5h1.66c.14,0,.32-.07.47-.29.54-.76.76-1.04,1.04-1.04.4,0,2.81,1.37,2.81,2.09,0,.32-.36.61-.72.86-.61.43-.58.36-.61,1.15,0,.43-.04,1.04-.04,1.73s.04,1.44.04,2.27c2.95-3.06,5.76-8.1,7.67-12.85h-3.13c0,2.41-1.08,4.39-2.7,4.39-.83,0-1.48-.61-1.48-1.4,0-.47.22-.97.72-1.44,1.58-1.48,2.3-2.41,2.45-4.25.04-.36.11-.54.18-.54.25,0,.65,1.26.76,2.34h3.56c.36-.97.68-1.91.97-2.81.18-.61.36-1.44.36-2.16v-.18c0-.11-.04-.18-.04-.22,0-.07.04-.14.18-.14.5,0,4.1,1.01,4.1,1.66,0,.29-.36.54-1.12.72-.43.11-.58.4-.79.97-.29.72-.61,1.44-.94,2.16h5.11c.14,0,.47-.11.58-.25.79-.94,1.08-.97,1.19-.97.25,0,2.99,1.73,2.99,2.84,0,.43-.4.79-1.4.9-1.48.14-2.88,1.51-4.07,2.2.07.07.11.14.11.22,0,.29-.36.54-.94.65-.36.07-.54.25-.79.5-.5.5-1.33,1.26-2.05,1.87h3.24c.14,0,.36-.11.47-.29,1.08-1.73,1.48-1.87,1.69-1.87.65,0,2.88,1.98,2.88,2.7,0,.18-.14.36-.68.36h-5.87s.07.04.11.04c.25.07.36.22.36.36,0,.18-.25.4-.68.58-.22.07-.32.36-.32.72-.04.68-.07,1.55-.07,2.48h1.4c.14,0,.36-.11.47-.29.4-.65,1.15-1.62,1.51-1.62.22,0,2.63,1.44,2.63,2.41,0,.22-.14.4-.68.4h-5.33v4h1.4c.14,0,.36-.14.47-.32.4-.65,1.15-1.62,1.51-1.62.4,0,2.63,1.58,2.63,2.41,0,.22-.14.43-.68.43h-5.33v4.68h2.95c.14,0,.36-.11.47-.29.43-.68,1.4-1.98,1.73-1.98.5,0,2.99,1.84,2.99,2.81Zm-23-12.53c0-1.19-.04-2.3-.07-3.17,0-.25-.11-.43-.36-.43h-2.05c-.54.36-.58.43-.58,5,0,1.48.04,3.1.04,4.72h2.95c.04-2.09.07-4.25.07-6.12Zm18.18-10.62h-5.58c-1.12,2.34-2.41,4.64-3.82,6.7l.76.29.18.07h3.1c.72-2.56.83-3.46.83-4.36,0-.4.14-.4.14-.4.72,0,3.06,1.15,3.35,1.3.47-.97,1.19-2.66,1.22-3.24,0-.29-.04-.36-.18-.36Zm-5.58,13.03h-3.78c0,1.22-.04,2.63-.04,4h3.82v-4Zm-.04,4.9h-3.78c0,1.73.04,3.38.04,4.68h3.74v-4.68Zm.04-6.44c0-.94,0-2.48-.18-3.53h-2.66l-.4.22c-.43.18-.43.29-.54,3.96h3.78v-.65Z" fill="#fff"/>
      <path d="m79.59,19.83c-1.91,0-3.42-1.51-3.42-3.42s1.51-3.42,3.42-3.42,3.42,1.51,3.42,3.42-1.51,3.42-3.42,3.42Z" fill="#fff"/>
      <path d="m124.48,27.5c.07,0,.11,0,.11.04,0,.29-2.41,1.91-3.1,3.35-.14.29-.4.58-.79.65-.29.07-4.43.58-8.82.58-3.67,0-11.38,0-13.07-6.16-.9,1.3-3.02,3.71-4.5,5.36-.11.14-.14.83-.5.83-.32,0-3.24-2.52-3.24-2.99,0-.07.07-.14.25-.18,1.55-.32,4-1.69,5.65-2.95.54-.4.61-1.12.61-6.77,0-.97-.04-1.73-.04-2.12,0-.25-.18-.4-.43-.4l-.54.04c-.61.04-2.16.36-2.84.4h-.04c-.58,0-1.58-1.4-1.58-1.91,1.19.18,3.53.5,4.39.5h.11l.47-.04c.22,0,.43-.14.58-.32.9-1.01,1.04-1.04,1.19-1.04.4,0,3.17,1.58,3.17,2.34,0,.36-.4.58-.76.76-.58.29-.9.22-.97,1.01-.14,1.3-.18,3.38-.18,5.11v1.4c0,4.18,6.8,4.46,9.97,4.46,4.61,0,10.47-.65,14.54-1.87.18-.04.29-.07.36-.07Zm-23.94-21.06c0,.9-.65,1.62-1.48,1.62-.54,0-1.19-.32-1.76-1.22-.97-1.51-2.66-2.99-3.74-3.74-.18-.11-.29-.22-.29-.29,0-.04.11-.07.29-.07.97,0,6.98.65,6.98,3.71Zm14.33,8.14c0,.22-.14.43-.65.43h-4.9c0,3.6.14,7.74.25,10.4v.07c0,.9-.86,1.48-1.66,1.48-.61,0-1.15-.4-1.15-1.3v-.11c.14-3.17.22-7.27.25-10.55-1.19,0-2.77.07-4.32.32h-.04c-.47,0-1.4-1.12-1.4-1.69,1.87.32,4.28.43,5.8.47,0-5.83-.29-7.23-.4-7.67-.04-.11-.04-.18-.04-.22s0-.07.07-.07c.61,0,4.1.65,4.1,1.26,0,.22-.22.47-.61.65-.58.29-.61.18-.68,1.12-.11,1.19-.18,2.99-.18,4.97h.97c.18,0,.36-.11.47-.29.97-1.87,1.3-1.98,1.51-1.98.72,0,2.59,1.87,2.59,2.7Zm8.31,10.08c0,.9-.65,1.48-1.51,1.48-.43,0-.97-.14-1.48-.54-4.5-3.31-5-10.37-5-15.73,0-1.66.04-3.13.04-4.32v-.25c0-.36-.18-.61-.54-.61h-4.79c-1.08,0-5.08.07-6.8.32h-.04c-.5,0-1.37-1.22-1.37-1.76,2.09.4,7.16.5,8.28.5h4.61c.18,0,.36-.07.5-.29.14-.18.76-1.08,1.22-1.08.43,0,3.06,1.51,3.06,2.34,0,.29-.25.58-.68.76-.68.29-.72.22-.79,1.08-.11,1.48-.22,3.24-.22,5.08,0,7.49,2.52,10.15,2.84,10.15.58,0,1.3-1.44,2.12-3.71.11-.32.22-.54.25-.58t.07-.04s.04.14.04.36c0,.83-.22,2.84-.22,4.36,0,.68.04,1.26.18,1.55.14.32.22.65.22.94Z" fill="#fff"/>
      <path d="m160.45,27.5c.07,0,.11,0,.11.04,0,.29-2.41,1.91-3.1,3.35-.14.29-.43.58-.83.65-.29.07-4.43.58-8.78.58-1.91,0-3.85-.11-5.58-.36-4.07-.61-6.7-2.92-7.49-5.8-.9,1.3-3.02,3.71-4.5,5.36-.11.14-.18.83-.54.83s-3.2-2.59-3.2-2.99c0-.07.07-.14.25-.18,1.55-.32,3.96-1.69,5.62-2.95.61-.43.61-1.62.61-7.63v-1.33c0-.25-.18-.4-.43-.4l-.58.04c-.61.04-2.12.32-2.81.36h-.04c-.58,0-1.58-1.37-1.58-1.87,1.19.18,3.53.5,4.36.5h.11l.5-.04c.22,0,.43-.14.58-.32.72-.79.94-1.04,1.15-1.04s3.17,1.44,3.17,2.3c0,.36-.4.58-.76.76-.58.29-.9.25-.97,1.04-.11,1.15-.18,2.99-.18,4.61,0,.72.04,1.4.04,1.98,0,.22.04.65.14.97t.07-.04h.04c3.17-1.62,6.52-4.68,9.61-9.25h-3.31v.97c0,.72-.76,1.15-1.55,1.15-.58,0-1.08-.29-1.08-.97v-.14c.18-1.76.29-3.42.29-5.08,0-.72-.18-2.56-.43-3.82,0-.11-.04-.14-.04-.22,0-.11.04-.14.11-.14.25,0,2.52,1.01,3.35,1.58l.11.07h3.38c0-1.33-.04-2.56-.04-3.53-1.66,0-4.97.07-7.42.36h-.04c-.5,0-1.51-1.44-1.51-1.87,2.84.4,7.16.58,8.96.58-.04-1.19-.04-3.2-.36-4.82-.04-.18-.07-.25-.07-.32,0-.04.04-.04.07-.04.83,0,4.21.58,4.21,1.37,0,.25-.22.5-.68.72-.47.25-.68.22-.76,1.15l-.07,1.94h4.43c.14,0,.4-.11.5-.29.43-.65,1.15-1.66,1.66-2.05.07-.07.22-.11.32-.11.9,0,3.24,2.34,3.24,2.88,0,.25-.14.5-.76.5h-9.43c-.04,1.04-.04,2.23-.04,3.53h3.74c.22,0,.4-.18.5-.32.4-.58.83-1.01,1.08-1.01.47,0,2.84,1.51,2.84,2.12,0,.32-.4.58-.83.83-.47.25-.5.29-.5,1.66,0,1.22.11,2.59.22,3.74v.14c0,.86-.9,1.22-1.48,1.22-.61,0-1.15-.32-1.15-1.08v-.04c0-.22.04-.47.04-.68h-4.43v2.34c3.28.5,9.29,2.12,9.29,4.97,0,.86-.61,1.58-1.4,1.58-.5,0-1.12-.32-1.66-1.08-1.19-1.66-3.82-3.64-6.19-5.04.04,2.63.07,5.15.14,7.09v.07c0,.65-.61,1.37-1.58,1.37-.61,0-1.15-.36-1.15-1.22v-.11c.11-1.87.18-4.46.22-7.2-2.56,3.17-6.23,5.76-10.22,6.88-.04,0-.04.04-.07.04,1.3,2.41,4.71,3.1,9.65,3.1,4.61,0,10.47-.65,14.54-1.87.18-.04.29-.07.36-.07Zm-23.94-21.06c0,.9-.65,1.62-1.48,1.62-.54,0-1.19-.32-1.76-1.22-.97-1.51-2.7-2.99-3.78-3.74-.18-.11-.25-.22-.25-.25,0-.07.07-.11.29-.11,2.09,0,6.98,1.08,6.98,3.71Zm6.3,4.57l-.29.22c-.4.29-.4.14-.43,1.04,0,.4-.04.94-.04,1.55,0,.58.04,1.22.04,1.91h4.14c0-1.62.04-3.24.04-4.72h-3.46Zm10.22,2.56c0-2.05-.04-2.56-.58-2.56h-3.96v4.72h4.5c.04-.76.04-1.44.04-2.16Z" fill="#fff"/>
      <path d="m172.44,9.43c-.5.11-.97.18-1.4.22-.22,0-.4.04-.61.04-3.31,0-4.57-2.41-4.57-3.56,0-.14.07-.22.18-.22.18,0,.43.18.68.32,1.15.68,2.34,1.22,3.74,1.22,1.22,0,2.34-.29,2.56-.36.07-.54.11-1.08.11-1.55,0-2.09-.5-2.23-.94-2.23-.76,0-.86-.18-.86-.32,0-.07.04-.4.65-1.01.32-.25.65-.32,1.01-.32.65,0,2.27.36,2.27,2.66.4.04.83.04,1.19.04,1.12,0,2.2.04,2.2,1.01,0,1.04-1.98,2.7-4.43,3.56-1.01,2.52-2.38,5.72-5.47,12.45-.61,1.33-1.69,2.02-2.48,2.02-.58,0-1.01-.32-1.01-1.01,0-.47.25-1.15.83-2.02,1.94-2.88,5-7.16,6.3-10.76l.07-.18Zm2.56,22.32c-2.84,0-4.86-2.2-4.86-4.03,0-2.38,3.17-3.6,6.48-3.6.79,0,1.62.07,2.41.22,0-1.44-.14-2.95-.14-4.21.04-3.13.76-4.72,3.38-6.55.97-.68,2.12-1.55,2.12-2.41,0-.4-.14-.54-1.08-1.48-.36-.32-.58-.54-.58-.72,0-.14.25-.22.86-.22,1.73,0,4.57,1.55,4.57,3.74,0,.68-.43,2.02-1.55,2.02-.36,0-.72-.07-1.15-.18-.22-.04-.43-.07-.72-.07-.47,0-4.46.07-4.46,3.64,0,.97.18,2.41.61,5.33.07.54.14,1.12.18,1.66,1.98.65,5.29,2.41,5.29,4.54,0,.86-.54,1.58-1.22,1.58-.47,0-1.01-.32-1.44-1.15-.58-1.04-1.55-1.98-2.74-2.7-.61,2.66-3.28,4.61-5.98,4.61Zm.43-6.23c-2.48,0-4.21,1.04-4.21,2.09s1.55,1.84,3.24,1.84c2.12,0,4.14-1.19,4.46-3.28-1.12-.4-2.3-.65-3.49-.65Zm.29-19.58c.22-.18.43-.43.43-.68,0-.11-.04-.32-.9-.61-.04.54-.14,1.08-.29,1.73l.76-.43Z" fill="#fff"/>
      <path d="m219.85,20.7c.07,1.58.18,3.71.25,4.64v.07c0,.58-.43,1.33-1.62,1.33-.61,0-1.19-.32-1.19-1.08v-.04c0-.22.04-.58.04-.94h-6.3v.4c.04.83.14,2.27.14,2.95v.07c0,3.85-4.07,4.18-4.71,4.18-.4,0-.65-.14-.9-.54-.65-1.01-4.5-2.59-4.5-2.88,0-.04.04-.04.14-.04.07,0,.18,0,.36.04,1.87.32,3.31.5,4.36.5,1.76,0,2.45-.5,2.52-1.8.04-.4.04-1.44.04-2.88h-.14c-2.99,0-5.72.11-9.11.36h-.04c-.65,0-1.76-1.33-1.76-1.76,4,.43,8.06.5,11.09.5v-3.1h-1.8c-2.84,0-7.85.07-11.55.36h-.04c-.65,0-1.69-1.37-1.69-1.8,4.28.43,10.47.5,13.32.5h1.76v-2.77h-.18c-1.58,0-6.12.04-9,.32h-.04c-.68,0-1.69-1.26-1.69-1.69,3.31.4,9.11.47,10.91.47v-3.02h-6.16v.4c0,.86-.94,1.22-1.58,1.22-.61,0-1.15-.32-1.15-1.01v-.18c.14-1.08.22-3.13.22-3.78,0-.43,0-1.84-.25-2.99,0-.07-.04-.14-.04-.18,0-.07.04-.11.07-.11.29,0,2.41.86,3.42,1.55.04,0,.04.04.07.04h5.36c0-1.19-.04-2.16-.04-2.81h-2.38c-2.02,0-6.77.07-9.93.4h-.04c-.61,0-1.69-1.4-1.69-1.87,3.64.43,9.72.58,11.81.58h2.2c-.04-1.19-.07-2.81-.36-3.92-.04-.14-.04-.22-.04-.29s0-.11.11-.11c.22,0,4.32.54,4.32,1.26,0,.29-.32.54-.76.72-.5.18-.54.47-.61,1.4,0,.18-.04.5-.04.94h7.16c.25,0,.47-.14.58-.32.43-.61,1.19-1.73,1.8-2.23.07-.07.22-.11.36-.11.07,0,.14,0,.22.04,1.3.47,3.31,2.52,3.31,3.1,0,.22-.18.43-.79.43h-12.63c0,.76-.04,1.73-.04,2.81h5.29c.18,0,.32-.04.47-.22.79-1.08,1.04-1.08,1.19-1.08.32,0,2.92,1.26,2.92,2.09,0,.29-.32.5-.72.76-.68.43-.61.14-.65.83,0,.58.14,2.02.18,2.7v.07c0,.72-.83,1.12-1.55,1.12-.58,0-1.12-.25-1.12-.86v-.04l.04-.32h-6.05v3.02h5.62c.18,0,.32-.04.47-.22.25-.29.5-.68.76-.9.14-.11.25-.22.43-.22.54,0,2.99,1.44,2.99,2.16,0,.32-.32.58-.76.86-.68.43-.58.4-.65,1.22,0,.18-.04.43-.04.76h.86c.14,0,.43-.11.54-.29.65-1.22,1.48-2.3,1.8-2.3.47,0,3.13,2.16,3.13,3.06,0,.25-.18.47-.83.47h-5.47Zm-16.88-11.73c-.47.25-.61.4-.65,1.08v2.12h6.19c0-1.15-.04-2.23-.04-3.2h-5.51Zm8.03,0v3.2h6.05c.04-.5.04-1.04.04-1.51s0-.9-.04-1.22c0-.29-.14-.47-.47-.47h-5.58Zm0,8.03v2.77h6.37c0-1.04-.04-1.91-.04-2.3,0-.29-.18-.47-.5-.47h-5.83Zm0,3.71c0,1.19.04,2.27.04,3.1h6.3c0-.94.04-2.05.04-3.1h-6.37Z" fill="#fff"/>
      <path d="m262.58,15.95c0,.32-2.74,1.08-3.71,1.94-.22.18-.4.25-.61.25-.68,0-3.78-1.15-6.55-3.71-4.18,3.46-9.65,4-9.68,4-.22,0-.32-.07-.32-.11,0-.11.22-.25.76-.43,3.31-1.04,5.94-2.81,7.85-4.9-1.26-1.48-2.23-3.2-2.77-5.11-1.01,1.3-2.09,2.59-3.2,3.49.61.47,1.73,1.51,1.73,2.09,0,.47-.47.79-1.44.83-1.08.07-2.66,1.87-3.82,2.56-.11.07-.22.11-.25.11s-.04,0-.04-.04c0-.07,0-.14.07-.29.47-.97,1.3-2.74,1.33-3.35,0-.29-.04-.36-.18-.36h-2.27c.47.11.79.18.79.47,0,.18-.18.36-.5.5q-.54.25-.54,5.11c0,2.12.04,4.43.11,6.01.04.9.14,2.95.14,3.6v.07c0,2.81-3.31,3.38-3.85,3.38-.32,0-.58-.14-.76-.54-.5-.97-3.38-2.27-3.38-2.56,0-.04.04-.04.14-.04.07,0,.18,0,.36.04,1.3.22,2.41.36,3.24.36,1.04,0,1.66-.25,1.69-1.04.07-2.09.11-4.79.11-7.27v-2.41c-2.81,5.04-7.7,8.39-8.53,8.39-.04,0-.07,0-.07-.04,0-.11.18-.32.58-.68,2.56-2.27,7.02-9.03,7.88-12.85,0-.18,0-.36-.04-.5-1.48.04-3.38.11-5.33.36h-.04c-.54,0-1.55-1.3-1.55-1.8,2.88.47,6.48.54,8.06.54h3.67c.14,0,.4-.11.54-.25.14-.18.86-.9,1.26-.9.04,0,.11,0,.14.04.11.04.22.11.32.18,1.48-1.98,4.1-7.27,4.32-9.93.04-.29.04-.4.14-.4.36,0,3.56,1.08,3.56,1.76,0,.25-.29.5-.9.61-.4.07-.43.14-.65.5-.43.72-.97,1.58-1.62,2.52h6.84c.11,0,.29-.11.4-.29.29-.43,1.33-1.98,1.69-1.98s2.99,1.87,2.99,2.74c0,.18-.14.36-.68.36h-4.61c1.66.65,1.87.76,1.87,1.12,0,.25-.29.47-.68.47h-.07c-.29,0-.5.07-.68.47-.76,1.48-1.58,2.81-2.59,3.92,2.27,1.44,5.26,2.48,9,2.88.22.04.32.07.32.11Zm-17.89-11.59c0,.4-.47.61-1.12.76-.4.07-.76.18-1.37.58-.72.47-2.02,1.55-3.24,2.38l.32.22c.65.5.94,1.12.94,1.66,0,.79-.54,1.44-1.26,1.44-.47,0-1.04-.29-1.55-1.01-1.01-1.37-2.34-2.3-3.2-2.84-.18-.11-.25-.18-.25-.25,0-.11.32-.11.68-.11.97,0,2.48.14,3.67.61.79-1.33,1.76-2.99,1.87-3.46.04-.07.04-.14.04-.22s-.04-.14-.25-.14h-1.94c-1.04,0-3.89.04-5.54.29h-.04c-.43,0-1.48-1.33-1.48-1.73,2.63.47,6.05.5,7.13.5h1.87c.25,0,.43-.07.61-.25.22-.18.65-.65.86-.83.11-.11.22-.14.29-.14.29,0,2.95,1.58,2.95,2.56Zm14.9,17.6c0,.29-.22.54-.79.76-.58.22-.68.32-.72.9-.5,6.12-3.02,8.49-6.26,8.49-.86,0-1.08-.14-1.22-.5-.32-.86-2.45-2.16-3.28-2.77-3.28,2.99-7.99,3.82-8.85,3.82-.18,0-.29-.04-.29-.11,0-.11.36-.32.83-.47,5.08-1.51,8.46-5.36,9.79-10.11-1.48.04-3.17.14-5.26.36h-.04c-.65,0-1.73-1.4-1.73-1.84,2.7.4,5.33.5,7.27.54.32-1.37.36-2.92.36-3.46,0-.36,0-.68-.04-1.01v-.14q0-.07.07-.07c.32,0,3.96.54,3.96,1.3,0,.22-.25.43-.65.58-.68.22-.65.22-.79,1.04-.11.61-.22,1.19-.36,1.76h3.71c.29,0,.4-.14.5-.29.83-.94.94-.94.97-.94.61,0,2.81,1.48,2.81,2.16Zm-4.28-.04h-3.92c-.79,2.74-2.05,4.97-3.85,6.7,1.69.43,3.1.86,4.25.86s2.12-.43,2.81-1.76c.72-1.37,1.12-3.64,1.19-5.26,0-.32-.07-.54-.47-.54Zm-7.13-14.94l-.11.18c.72,1.62,1.87,3.13,3.38,4.46,1.44-1.98,1.98-3.56,2.16-4.64h-5.44Z" fill="#fff"/>
      <path d="m281.63,4c-6.73,10.47-16.05,14.4-17.06,14.4-.07,0-.11-.04-.11-.07,0-.07.18-.25.65-.54,5.15-3.31,10.01-8.78,13.32-14.76.4-.68.68-1.87.83-2.59.04-.18,0-.25.11-.25.18,0,4.5,1.58,4.5,2.45,0,.25-.36.5-1.08.65-.07,0-.11.04-.18.04,2.95,3.64,9.14,9.14,16.2,10.91.18.04.25.11.25.14,0,.32-3.17.83-4.28,1.94-.14.14-.32.22-.5.22-1.26,0-8.46-5.33-12.27-12.96l-.36.43Zm-.18,16.56c.18.11.29.22.29.32,0,.22-.36.47-.76.58-.32.11-.58.4-.76.76-.9,1.69-2.41,4.5-3.6,6.26,4.25-.32,8.35-.83,11.34-1.3-1.08-1.22-2.27-2.41-3.46-3.46-.22-.18-.36-.32-.36-.4,0-.04.04-.07.07-.07.22,0,9.43,3.06,9.43,6.84,0,1.04-.68,1.84-1.51,1.84-.58,0-1.22-.4-1.76-1.37-.47-.86-1.08-1.76-1.76-2.63-4.39,1.4-12.24,3.02-16.7,3.85-.5.11-.76.58-1.12.58-.61,0-2.59-3.49-2.59-3.82,0-.07.04-.07.07-.07.07,0,.14,0,.29.04,1.15.14,2.27.22,2.99.22.32,0,1.01,0,3.92-.18.32-1.08,1.69-6.48,1.69-7.99-2.38.04-5.54.18-7.81.4h-.04c-.65,0-1.73-1.4-1.73-1.87,3.64.43,10.04.58,12.09.58h8.71c.22,0,.47-.14.58-.32.25-.43,1.58-2.45,2.16-2.45.07,0,.14,0,.22.04,1.55.58,3.42,2.66,3.42,3.2,0,.22-.14.43-.76.43h-12.56Zm-.11-5.8c-1.19,0-3.96.11-5.9.32h-.04c-.47,0-1.51-1.26-1.51-1.73,2.41.36,6.26.5,7.52.5h1.26c.07,0,.32-.11.43-.29,0,0,1.33-2.3,1.8-2.3.07,0,.14,0,.18.04.86.4,3.06,2.27,3.06,3.02,0,.22-.14.43-.68.43h-6.12Z" fill="#fff"/>
      <path d="m308.56,8.49c-1.44,0-3.53.04-5.8.32h-.04c-.47,0-1.51-1.33-1.51-1.73,2.74.4,5.9.5,7.42.5h4.18c.11,0,.32-.11.43-.29.11-.18,1.22-2.05,1.76-2.05.65,0,3.1,2.05,3.1,2.88,0,.18-.18.36-.72.36h-8.82Zm6.7,21.63c0,.79-.86,1.3-1.62,1.3-.61,0-1.19-.32-1.19-1.04v-.83h-5.94c0,.54.04,1.12.04,1.66,0,.61-.76,1.26-1.69,1.26-.61,0-1.19-.32-1.19-1.04v-.11c.29-3.35.29-5.08.29-6.84,0-.47-.14-3.1-.43-4.36,0-.07-.04-.14-.04-.18,0-.07.04-.11.07-.11.25,0,2.66.94,3.67,1.62h4.5c.14,0,.32-.07.47-.29.22-.29.58-.83.83-1.01.07-.07.18-.14.29-.14.32,0,3.1,1.33,3.1,2.16,0,.32-.29.54-.72.83-.72.47-.72.54-.72,1.8,0,1.33.14,3.06.29,5.26v.07Zm-6.44-26.56c-1.08,0-2.12.07-3.82.32h-.04c-.5,0-1.37-1.19-1.37-1.73,2.12.4,4.14.5,5.29.5h1.94c.07,0,.29-.11.4-.29.32-.61,1.01-1.48,1.37-1.84.11-.07.22-.11.32-.11.04,0,.11,0,.14.04,1.04.43,2.63,1.98,2.63,2.63,0,.25-.14.47-.68.47h-6.19Zm0,9.43c-1.08,0-2.12.04-3.82.32h-.04c-.43,0-1.37-1.12-1.37-1.73,2.12.4,4.14.5,5.29.5h2.02c.07,0,.32-.11.43-.29.22-.4,1.08-1.84,1.66-1.84.04,0,.11,0,.14.04.54.22,2.56,1.76,2.56,2.48,0,.25-.14.5-.68.5h-6.19Zm0,4.72c-1.08,0-2.12.04-3.82.32h-.04c-.43,0-1.37-1.19-1.37-1.73,2.12.4,4.14.5,5.29.5h2.02c.07,0,.32-.11.43-.29.32-.61,1.26-1.8,1.66-1.8.07,0,.14,0,.18.04.36.14,2.52,1.58,2.52,2.48,0,.25-.14.47-.68.47h-6.19Zm3.64,10.91c.04-1.48.07-2.66.07-3.74,0-.68-.04-1.33-.07-2.02,0-.22-.11-.47-.36-.47h-4.9l-.29.22c-.4.25-.43.32-.43,3.92,0,.68.04,1.4.04,2.09h5.94Zm13.68,2.56c0,.83-.94,1.4-1.8,1.4-.68,0-1.26-.32-1.26-1.15v-.14c.25-3.92.36-11.09.36-17.21-1.44,0-3.82.07-5.94.36h-.04c-.43,0-1.51-1.37-1.51-1.76,2.52.4,5.87.5,7.49.5,0-7.52-.22-11.01-.47-12.17-.04-.11-.04-.18-.04-.22,0-.07.04-.11.11-.11,0,0,4.5.43,4.5,1.44,0,.25-.32.54-.76.79-.5.29-.65.32-.72,1.22-.11,1.26-.14,4.79-.14,9.03h2.81c.11,0,.36-.11.47-.29.4-.61,1.22-1.76,1.66-2.12.07-.07.18-.11.29-.11.68,0,3.2,2.3,3.2,2.99,0,.22-.14.43-.68.43h-7.74c0,5.9.11,12.92.22,17.06v.04Z" fill="#fff"/>
      <path d="m340.88,4.25c1.33,0,4.18,3.1,4.18,5.8,0,1.33-.65,2.45-1.37,4.21-.97,2.38-1.94,4.97-1.94,7.27,0,.47.11,2.09.43,2.09.11,0,.22-.14.4-.5.79-1.84,3.42-7.13,3.96-7.13.07,0,.07.04.07.11,0,.18-.07.5-.29.97-1.22,2.74-2.77,7.6-2.77,10.37,0,.58.07,1.12.25,1.58.18.4.25.76.25,1.08,0,.83-.5,1.37-1.12,1.37-1.91,0-2.92-4.21-2.92-7.67,0-3.67,1.12-6.95,1.94-10.37.29-1.22.54-2.34.54-3.49,0-1.51-.43-3.06-1.8-4.93-.18-.22-.32-.4-.32-.54,0,0,.14-.22.5-.22Zm19.62,10.22c0,2.81.18,5.4.29,7.49.04.58.07,1.22.07,1.87,3.17.97,5.62,2.99,5.62,4.5,0,.86-.58,1.58-1.26,1.58-.43,0-.94-.29-1.4-1.08-.76-1.26-1.94-2.3-3.06-2.95-.61,3.13-3.17,5.04-5.8,5.04-2.48,0-4.93-1.76-4.93-3.92,0-2.02,2.52-3.82,6.77-3.82.65,0,1.33.04,2.02.14.04-.58.04-1.08.04-1.55-.04-1.55-.11-4.93-.14-8.24l-.29.07c-.47.07-.9.11-1.37.11-4.21,0-5.9-3.2-5.9-3.64,0-.07.04-.11.11-.11.14,0,.47.11.9.25.79.29,1.94.83,2.7,1.04.76.22,1.51.32,2.27.32.4,0,1.04-.04,1.58-.14v-2.2c0-3.28-.22-3.46-1.44-3.78-.4-.11-.68-.18-.68-.4,0-.32.86-1.26,1.8-1.26s2.74,1.4,2.74,2.74c0,.29-.04.61-.11.97.29.11,2.99.97,3.42,1.04.58.11.97.54.97,1.19,0,1.04-1.01,2.41-4.9,3.38v1.33Zm-5.08,10.19c-2.48,0-4.25,1.08-4.25,2.2s1.51,1.84,3.1,1.84c2.12,0,3.92-1.3,4.36-3.53-1.01-.32-2.12-.5-3.2-.5Zm5.18-13.64c1.98-.61,2.16-1.15,2.16-1.51,0-.43-.4-.9-1.84-1.66,0,.07-.11.4-.32,3.17Z" fill="#fff"/>
      <path d="m375.52,31.46c-1.04-2.02-2.77-3.49-4.32-4.64-.36-.29-.68-.5-.68-.61,0-.04.11-.07.29-.07,1.4,0,8.1,1.33,8.1,4.68,0,1.08-.79,1.91-1.69,1.91-.61,0-1.22-.36-1.69-1.26Z" fill="#fff"/>
      <path d="m11.34,73.96c0,2.66-1.12,2.99-1.58,2.99s-.9-.36-1.22-.94c-.5-.86-1.69-1.44-2.95-1.8-1.44.94-2.52,1.33-3.53,1.33-.9,0-1.26-.43-1.26-1.01,0-.65.94-2.23,1.66-2.23.11,0,.25.04.4.11.11.04.22.14.43.14.4,0,1.4-.32,6.37-3.42.04-.65.04-1.33.04-1.98,0-1.58-.07-3.17-.11-4.64-1.73.83-3.02,1.12-4.28,1.12-.83,0-3.24-.18-3.24-2.56,0-.22.07-.29.18-.29.14,0,.32.07.58.18.47.18,1.4.4,2.56.4,1.44,0,2.3-.25,4.1-1.08-.29-4.14-.5-5.22-2.02-5.22-.65,0-.9-.14-.9-.36,0-.5.72-1.26,1.8-1.26.97,0,2.92.76,2.92,2.56,0,.22,0,.47-.04.76.79.22,1.66.4,2.34.4h.25c.79,0,1.19.47,1.19,1.04,0,1.15-.97,1.98-3.89,3.53,0,2.09.07,4.28.11,6.41,2.77-1.66,5.69-3.1,8.85-3.1,4.32,0,6.01,2.12,6.01,4.28,0,3.67-4.39,6.44-7.67,6.44-2.3,0-3.78-1.33-3.78-3.64,0-2.02,1.37-4.68,1.66-4.68.07,0,.07.07.07.18,0,.22-.04.61-.22,1.22-.18.61-.25,1.19-.25,1.73,0,1.58.79,2.74,2.59,2.74,2.16,0,5.26-1.66,5.26-4.36,0-1.98-2.12-2.92-4.25-2.92-2.95,0-5.69,1.84-8.24,3.89l.07,3.82v.22Zm-5.15-.14c.94.14,1.62.22,2.09.22.97,0,1.12-.29,1.15-.76.07-.76.11-1.51.14-2.27-1.19,1.01-2.3,2.02-3.38,2.81Zm4.97-14.43c.4-.22,1.26-.72,1.26-1.15,0-.29-.5-.68-1.19-1.04-.04.36-.07.83-.07,1.37v.83Zm15.33,1.94c-.68.18-1.55.32-2.34.79-.29.18-.54.29-.72.29-.07,0-.11-.04-.11-.11s.14-.29.43-.58c.36-.36,1.12-1.37,1.12-2.16s-1.15-.97-1.76-.97c-.86,0-1.69.25-2.38.79-.47.36-.83.54-1.01.54-.07,0-.11-.04-.11-.11,0-.36,1.8-2.95,5-2.95,2.27,0,4.46,1.3,4.46,2.92,0,.5-.29.86-.76,1.08-.61.29-.79.22-1.84.47Z" fill="#fff"/>
      <path d="m66.85,67.55c0,.22-3.31,1.04-4.36,2.34-.18.25-.4.32-.72.32-.54,0-6.91-1.12-12.17-5.33-2.2,1.55-4.54,2.84-6.84,3.85.72.29,1.55.68,2.02,1.01l.07.07h9.11c.14,0,.29-.11.43-.29.61-.79.86-.97,1.12-.97.14,0,2.99,1.19,2.99,2.12,0,.25-.25.47-.65.72-.68.4-.68.58-.68,1.66,0,1.26.11,3.2.22,4.97v.11c0,.86-.94,1.26-1.58,1.26s-1.22-.32-1.22-1.08v-.04c0-.4.04-.79.04-1.15h-10.51v1.22c0,.68-.76,1.22-1.66,1.22-.65,0-1.22-.29-1.22-.97v-.18c.22-1.84.25-4.93.25-6.7,0-.36,0-1.37-.14-2.38-4.79,1.84-8.21,2.09-8.5,2.09-.25,0-.4-.04-.4-.11,0-.11.5-.36,1.48-.61,4.28-1.19,9.36-3.64,13.93-7.38-1.22-1.26-2.27-2.66-2.92-4.18-5.33,5.9-10.83,8.31-11.55,8.31-.07,0-.11,0-.11-.04,0-.11.25-.32.72-.65,3.64-2.34,8.24-7.52,10.87-11.7.36-.54.5-1.08.65-1.66.04-.18.07-.25.14-.25.29,0,3.67,1.4,3.67,2.12,0,.25-.36.43-1.12.43-.47,0-.61.11-.94.54-.25.36-.5.72-.79,1.08h6.41c.29,0,.47-.14.61-.25.32-.25.54-.58.83-.79.14-.11.22-.14.32-.14.58,0,2.92,1.55,2.92,2.27,0,.29-.29.5-.86.68-.58.14-.97.18-1.37.65-1.3,1.44-2.7,2.77-4.18,3.96,3.92,2.27,9.18,3.74,14.94,3.74h.43c.22,0,.32.04.32.07Zm-2.56-13.68c0,.47-.47.86-1.55.9-1.62.07-3.67,1.51-5.26,2.27-.14.07-.25.11-.29.11q-.07,0-.07-.07s.04-.11.11-.25c1.4-2.09,1.94-3.31,1.94-3.53,0-.11-.07-.14-.18-.14h-19.55c-.25,2.74-1.91,4.79-3.67,4.79-.9,0-1.55-.61-1.55-1.4,0-.54.32-1.19,1.08-1.8,2.02-1.58,2.92-2.7,3.24-4.72.07-.36.14-.54.22-.54,0,0,.58.65.68,2.77h8.53c0-.36-.04-.76-.04-1.08-.04-1.22-.14-2.74-.4-3.74-.04-.11-.07-.22-.07-.25,0-.07.04-.07.14-.07.54,0,4.72.61,4.72,1.4,0,.25-.29.54-.83.83-.65.36-.68.36-.76,1.22l-.11,1.69h8.42c.11,0,.4-.14.54-.29.25-.25.72-.76,1.01-.94.11-.07.22-.11.29-.11.68,0,3.38,2.02,3.38,2.95Zm-9.65,20.05c0-.97-.04-1.91-.07-2.74,0-.22-.14-.4-.43-.4h-9.43l-.25.18c-.25.14-.43.25-.43,2.52,0,.79,0,1.76.04,2.7h10.55c0-.79.04-1.55.04-2.27Zm-1.91-15.48c0-.11-.11-.18-.32-.18h-6.7c-.11.11-.14.22-.25.32.86,1.37,2.05,2.63,3.56,3.74,2.12-1.87,3.71-3.78,3.71-3.89Z" fill="#fff"/>
      <path d="m102.38,75.65c0,.36-2.99.58-3.78,1.44-.14.18-.36.25-.54.25-.58,0-4.5-3.46-6.8-12.67,0,3.42.04,6.91.07,8.31.04.76.14,1.8.14,2.63v.07c0,3.71-3.85,3.89-3.89,3.89-.36,0-.58-.18-.72-.61-.47-1.19-3.42-2.45-3.42-2.7,0-.04.04-.04.14-.04.07,0,.22,0,.4.04,1.48.22,2.48.36,3.24.36,1.26,0,1.62-.4,1.69-1.37.04-.86.07-2.84.07-5.26-2.09,2.27-5.04,4.9-6.59,6.26-.25.22-.22.76-.58.76-.58,0-2.92-2.02-2.92-2.3,0-.11.11-.14.29-.18,2.02-.54,7.38-3.67,9.79-5.33v-5.98c-1.69,0-3.82.07-6.44.32h-.04c-.32,0-.76-.4-1.12-.79.11.25.14.47.14.68,0,.79-.58,1.44-1.26,1.44-.43,0-.94-.25-1.33-.9-.54-.86-1.15-1.91-1.94-2.52.04,5.76.11,12.42.25,16.7v.04c0,.86-.86,1.48-1.73,1.48-.65,0-1.22-.4-1.22-1.26v-.11c.18-3.82.29-9.25.36-14.4-2.81,4.86-6.73,6.62-6.88,6.62-.04,0-.07-.04-.07-.07,0-.11.18-.36.58-.72,2.63-2.52,5.94-8.75,6.41-11.7v-.47c-1.08.04-2.2.11-3.92.32h-.04c-.43,0-1.44-1.33-1.44-1.73,2.12.32,4,.43,5.4.47,0-1.66-.14-7.16-.43-8.67-.04-.11-.04-.18-.04-.25s.04-.11.07-.11c.07,0,4.32.65,4.32,1.48,0,.22-.25.5-.68.72-.54.29-.72.29-.79,1.19-.07,1.08-.11,3.13-.14,5.69h.4c.11,0,.36-.11.47-.29.36-.65.79-1.26,1.3-1.84.07-.07.18-.11.29-.11.79,0,2.63,2.2,2.63,2.7,0,.22-.14.43-.68.43h-4.39v3.35h.22c1.22,0,2.95.29,3.82,1.26-.07-.14-.14-.29-.14-.4,2.92.36,6.08.5,8.06.54v-3.38c-1.3,0-2.38.07-4.68.32h-.04c-.61,0-1.66-1.33-1.66-1.73,2.66.32,4.68.47,6.34.5v-.5c-.04-.68-.04-2.02-.14-2.81-1.48,0-2.92.07-5.4.32h-.04c-.65,0-1.66-1.3-1.66-1.73,3.28.43,6.08.5,7.92.5h1.37c.47-.9,1.94-3.96,2.2-6.08.04-.29,0-.36.14-.36.47,0,3.85,1.84,3.85,2.41,0,.25-.32.47-1.08.47-.54,0-.54.14-.86.47-.76.76-1.94,1.94-3.24,3.1h2.7c.25,0,.47-.11.58-.29.72-1.15,1.37-1.91,1.76-1.91.94,0,2.99,1.91,2.99,2.66,0,.22-.18.43-.72.43h-7.09c.22.11.36.25.36.4,0,.22-.22.4-.61.58-.43.18-.65.32-.65,2.34h1.69c.25,0,.43-.11.54-.29.72-.97,1.33-1.66,1.66-1.66.5,0,2.12.97,2.77,2.05.07.07.11.22.11.32,0,.22-.18.47-.72.47h-6.05c-.04.97-.04,2.12-.04,3.38h3.78c.29,0,.5-.14.61-.32.47-.72,1.51-2.05,1.87-2.05.94,0,3.2,2.09,3.2,2.81,0,.22-.14.47-.72.47h-8.57c.61,1.91,1.44,3.74,2.56,5.44,1.51-1.22,3.1-3.24,3.35-3.89.07-.18.07-.25.14-.25.22,0,2.99,2.16,2.99,3.02,0,.29-.25.43-.65.43-.14,0-.36,0-.58-.07-.14-.04-.32-.07-.47-.07s-.29.04-.43.07c-.79.29-2.3.97-3.89,1.44,1.94,2.74,4.54,4.97,7.63,6.12.18.07.29.14.29.18Zm-15.48-7.34c0,.83-.61,1.51-1.33,1.51-.5,0-1.04-.29-1.48-1.04-.58-.97-1.73-2.23-2.7-2.99-.25-.18-.36-.29-.36-.36s.18-.07.54-.07h.14c1.37,0,5.18.5,5.18,2.95Zm2.12-17.1c0,.94-.72,1.62-1.51,1.62-.54,0-1.12-.36-1.48-1.22-.32-.83-1.3-2.16-2.05-2.92-.18-.18-.29-.32-.29-.4s.07-.11.22-.11c1.01,0,5.11.72,5.11,3.02Z" fill="#fff"/>
      <path d="m117.57,68.49c-2.88,1.8-4.03,3.6-4.03,5s1.48,3.1,4.5,3.1c1.33,0,2.84-.32,4.14-1.01.43-.22.83-.32,1.19-.32.9,0,1.51.58,1.51,1.26,0,1.66-3.2,2.59-5.8,2.59-3.89,0-7.06-2.34-7.06-5.08,0-2.23,2.02-4.75,5.58-6.88,0-2.23-.29-5.33-2.3-5.33-.86,0-1.94.68-3.2,2.38l-1.08,2.02c-.76,1.37-1.62,2.81-2.63,2.81-.14,0-1.08-.04-1.08-1.3,0-.72.36-1.76,1.48-2.77,3.31-2.99,4.39-4.93,5.98-8.49l.07-.14-.04.04c-.72.18-1.37.29-1.98.29-3.49,0-4.46-2.45-4.46-3.42,0-.14.04-.18.11-.18.18,0,.43.14.9.47,1.08.76,2.09.97,3.02.97,1.08,0,2.2-.25,3.17-.58.07-.4.07-.76.07-1.01,0-.83-.14-1.8-1.37-2.09-.32-.07-.65-.18-.65-.36,0-.11.54-.9,1.76-.9.94,0,1.69.29,2.05,1.66h.29c.68.04,1.22.11,1.66.11.18,0,.32-.04.47-.07.22-.11.43-.14.61-.14.9,0,.9.83.9.97,0,1.91-3.6,3.31-4.86,3.74l-.07.18c-1.22,2.66-1.98,4.03-2.77,5.44.68-.36,1.33-.5,1.94-.5,1.87,0,3.24,1.55,3.74,3.74,1.04-2.63,3.82-7.67,7.95-7.67,1.98,0,4.46,1.33,4.46,3.17,0,1.4-1.51,2.84-3.96,3.78-2.52.94-5.62,2.16-8.06,3.35.11.83.14,1.69.14,2.56,0,.43,0,.9-.04,1.33-.11,1.4-1.08,2.34-1.87,2.34-.54,0-1.01-.47-1.01-1.66,0-.11.04-.29.04-.43.07-.9.54-1.26.58-2.45v-.5Zm-.07-16.95c.04.14.04.29.04.43,0,.4-.07.79-.14,1.22.83-.4,1.26-.61,1.26-1.04,0-.18-.14-.36-1.04-.58l-.11-.04Zm9.14,10.87c1.58-.86,2.3-1.73,2.3-2.52s-.68-1.76-2.09-1.76c-3.31,0-6.33,5.08-7.31,7.95,2.2-1.15,5-2.52,7.09-3.67Z" fill="#fff"/>
      <path d="m169.05,76.62c0,.29-3.28,1.33-4.25,2.34-.18.22-.4.32-.61.32-1.91,0-8.85-3.56-11.12-10.91-2.74,11.27-16.13,11.37-16.49,11.37-.4,0-.58-.07-.58-.14,0-.11.29-.25.79-.32,6.7-1.15,12.38-5.26,13.71-11.55h-1.91c-1.94,0-6.52.07-9.61.4h-.04c-.65,0-1.73-1.4-1.73-1.84,3.56.43,9.54.58,11.55.58h1.87c.11-.68.14-1.37.14-2.09,0-.86,0-1.62-.11-2.48-2.16.11-4.39.18-6.52.18-4.21,0-4.32-.18-4.32-.4,0-.11.22-.22.76-.25,4.57-.22,12.53-1.19,16.81-2.38.76-.22,1.33-.54,1.73-.76l.11-.07c-.22-.18-.4-.43-.54-.79-.43-.97-1.22-2.09-1.94-2.81-.18-.18-.25-.29-.25-.36s.07-.11.25-.11c.68,0,4.9.61,4.9,2.92,0,.86-.68,1.51-1.44,1.55.68.68,1.76,1.76,1.76,2.34,0,.25-.22.36-.54.36-.22,0-.5-.04-.76-.14-.18-.07-.4-.11-.61-.11h-.14c-1.62.22-3.78.47-6.16.65.11.04.94.22.94.54,0,.18-.22.4-.61.54-.47.22-.54.18-.58,1.26-.04.68-.04,1.37-.11,1.91,0,.18-.04.36-.07.5h7.92c.22,0,.47-.14.58-.32,1.66-2.34,1.91-2.41,2.12-2.41.83,0,3.56,2.41,3.56,3.17,0,.22-.14.43-.76.43h-13.32c2.23,4.07,7.38,8.46,15.3,8.78.18,0,.29.04.29.11Zm-16.88-23.18c0,.22-.14.4-.68.4h-8.64c-2.92,3.6-5.69,5.62-6.26,5.62-.07,0-.07-.04-.07-.07,0-.07.11-.29.4-.58,2.34-2.41,5.72-8.1,6.08-11.09v-.22c0-.11,0-.14.11-.14.36,0,4.1,1.48,4.1,2.27,0,.32-.47.5-1.19.54-.47.04-.58.11-.9.58-.47.72-1.01,1.48-1.58,2.23h3.71c.14,0,.36-.11.47-.29.32-.58,1.26-1.94,1.66-1.94.65,0,2.81,1.91,2.81,2.7Zm-3.85,4.25c0,.9-.72,1.62-1.48,1.62-.58,0-1.15-.36-1.51-1.26-.4-1.01-1.22-2.16-1.94-2.92-.18-.18-.29-.29-.29-.4,0-.04.07-.07.29-.07,1.51,0,4.93.97,4.93,3.02Zm18.86-4.25c0,.22-.18.4-.72.4h-11.73c-3.38,4.43-5.36,5.33-5.62,5.33-.04,0-.07-.04-.07-.07,0-.07.11-.25.36-.5,1.55-1.66,5.18-8.06,5.4-10.73.04-.32,0-.43.14-.43.29,0,4.03,1.4,4.03,2.23,0,.29-.43.47-1.12.5-.43.04-.47,0-.79.47l-1.69,2.34h6.12c.14,0,.36-.11.47-.29,1.51-2.12,1.73-2.23,1.94-2.23.4,0,3.28,1.94,3.28,2.99Z" fill="#fff"/>
      <path d="m188.85,60.79c0,.22-.14.4-.65.4h-10.83l-.25.18c-.32.22-.43.29-.43.76v.83c.04.76.04,1.58.04,2.41,0,.61,0,1.26-.04,1.87,3.42-1.69,5.8-4.1,6.26-5.54.04-.11.07-.22.14-.22.22,0,2.41,1.58,2.41,2.27,0,.22-.14.36-.5.36-.11,0-.25,0-.4-.04-.11-.04-.22-.04-.29-.04-.14,0-.22.07-.4.22-1.94,1.73-4.82,3.06-7.27,3.53-.11,1.48-.32,2.99-.72,4.43,3.06-1.22,7.78-4.5,8.57-6.84.04-.11.07-.22.14-.22.04,0,.11,0,.18.07.65.36,2.3,1.76,2.3,2.27,0,.25-.14.4-.5.4-.11,0-.22,0-.36-.04-.14-.04-.22-.04-.32-.04-.18,0-.25.07-.47.25-2.56,2.3-6.19,4.14-9.68,4.64-1.37,4.28-4.35,6.52-4.86,6.52-.04,0-.07-.04-.07-.07,0-.07.14-.29.47-.68,2.56-2.99,3.06-7.63,3.06-11.66,0-2.2-.14-6.3-.54-7.78-.04-.11-.04-.18-.04-.22q0-.07.07-.07c.86,0,3.13,1.26,3.46,1.48l.11.07h3.67c.83-1.8,1.73-4.75,1.73-6.26,0-.07,0-.11.07-.11.36,0,3.38,1.4,3.38,2.02,0,.25-.29.43-.9.47-.47,0-.47.14-.72.47-.65.83-1.73,2.2-2.84,3.42h2.52c.11,0,.32-.11.43-.29.32-.61.83-1.22,1.19-1.62.07-.07.14-.11.25-.11.04,0,.11,0,.14.04.97.47,2.48,1.76,2.48,2.48Zm-.61-7.74c0,.22-.14.43-.65.43h-6.98c-1.62,0-3.67.04-6.26.32h-.04c-.54,0-1.37-1.33-1.37-1.73,2.3.32,4.64.47,6.37.5v-.72c-.04-1.22-.07-2.74-.32-3.82-.04-.14-.04-.22-.04-.25s0-.07.07-.07c.29,0,4.1.47,4.1,1.3,0,.22-.29.47-.72.72-.58.32-.72.4-.72,2.84h1.94c.07,0,.32-.11.43-.29.14-.25,1.04-1.91,1.48-1.91.11,0,.18.04.22.04.65.29,2.48,1.87,2.48,2.63Zm.61,18.39c0,.25-.18.4-.54.4-.11,0-.22,0-.36-.04-.18-.04-.29-.07-.36-.07-.14,0-.22.07-.36.25-4.97,5.4-12.27,6.05-13.39,6.05-.32,0-.54-.04-.54-.14,0-.07.18-.14.58-.25,6.59-1.62,11.45-6.19,12.17-8.6.04-.11.04-.22.07-.22.11,0,2.74,1.84,2.74,2.63Zm-8.78-13.53c0,.83-.61,1.48-1.26,1.48-.5,0-1.01-.36-1.3-1.26-.25-.83-1.08-2.23-1.69-2.99-.18-.22-.29-.36-.29-.4s.04-.04.07-.04c.86,0,4.46.97,4.46,3.2Zm16.05,17.46c0,.29-.29.43-.83.43h-.58c-.29,0-.54.04-.79.18-2.7,1.66-7.45,3.67-12.53,3.67-.4,0-.61,0-.61-.07s.36-.22,1.12-.4c3.1-.76,9.72-3.74,10.91-6.34.07-.14.11-.25.22-.25.43,0,3.1,2.23,3.1,2.77Zm9-24.77c0,.22-.18.43-.76.43h-7.38c.79.25,1.19.5,1.19.76,0,.18-.25.4-.83.54-.36.11-.47.29-.61.54-.47.79-1.08,1.8-1.69,2.59h3.78c.22,0,.4-.14.5-.29.5-.76.9-1.08,1.12-1.08.43,0,2.95,1.4,2.95,2.16,0,.36-.36.61-.83.86-.58.32-.65.54-.65,2.81,0,3.06.14,8.42.29,11.12v.07c0,.9-.79,1.44-1.51,1.44-.61,0-1.15-.4-1.15-1.22v-.36h-6.73v.61c0,.97-1.01,1.3-1.58,1.3s-1.08-.32-1.08-1.08v-.14c.22-3.02.25-7.24.25-10.08,0-3.28-.04-5.54-.47-7.45-.04-.11-.04-.18-.04-.22,0-.07.04-.11.07-.11.25,0,2.59.9,3.53,1.58l.14.07h.32c.18-1.08.29-2.41.32-3.17v-1.26c-1.22.04-2.52.11-4.61.32h-.04c-.58,0-1.48-1.33-1.48-1.76,3.42.43,5.83.54,7.78.54h3.67c.14,0,.4-.14.5-.32.25-.43,1.37-2.16,1.84-2.16.86,0,3.17,2.27,3.17,2.95Zm-5.58,6.34c0-.32-.18-.5-.43-.5h-5.58c-.11.07-.22.18-.4.29-.4.25-.4.36-.4,3.64h6.88c0-1.44-.04-2.63-.07-3.42Zm-6.8,4.36v3.6h6.84c0-1.22.04-2.48.04-3.6h-6.88Zm0,4.5c0,1.48.04,2.95.04,4.25h6.77c0-1.3.04-2.77.04-4.25h-6.84Zm11.7,11.52c0,.94-.68,1.66-1.48,1.66-.58,0-1.26-.4-1.76-1.4-.97-1.94-2.41-3.31-3.82-4.46-.18-.11-.25-.22-.25-.29,0-.04.04-.07.14-.07,1.12,0,7.16,1.76,7.16,4.57Z" fill="#fff"/>
      <path d="m210.6,69.97c0-1.26.14-2.48.36-3.64.47-2.45,1.22-4.68,1.62-6.77.18-.9.25-1.73.25-2.48,0-1.58-.32-2.77-.68-3.42-.22-.4-.5-.72-.5-.9s.18-.25.72-.25c1.12,0,2.99,1.58,2.99,4.25,0,1.19-.4,2.38-1.01,3.89-.9,2.23-1.98,4.93-1.98,7.38,0,.83.22,2.23.54,2.23.11,0,.25-.18.4-.54.9-1.91,3.35-6.7,3.74-6.7.04,0,.07.07.07.14,0,.14-.07.43-.25.86-.5,1.19-2.45,6.34-2.45,9.4,0,.76.11,1.37.25,1.94.07.25.11.5.11.72,0,.9-.54,1.44-1.15,1.44-2.45,0-3.02-5.8-3.02-7.56Zm22.03,2.45c1.4,0,2.16.65,2.16,1.37,0,2.23-5.08,2.27-5.72,2.27-6.19,0-8.13-3.2-8.13-4.97,0-.25.04-.36.14-.36.18,0,.43.25.76.72.72,1.04,3.13,1.73,5.8,1.73.72,0,1.44-.04,2.16-.14.86-.14,1.44-.58,2.66-.61h.18Zm-5.51-12.81c-5.4,0-5.69-3.24-5.69-3.49,0-.11.04-.14.14-.14s.36.14.68.32c1.01.61,2.34.83,3.67.83,1.04,0,2.05-.14,2.99-.36.47-.11.86-.36,1.33-.43.25-.04.47-.07.68-.07,1.15,0,1.87.61,1.87,1.26,0,1.76-3.92,2.09-5.69,2.09Z" fill="#fff"/>
      <path d="m256.43,57.69c-3.2.4-6.37,1.26-9,2.38-.76.32-1.69.61-2.7.61-2.12,0-3.96-1.19-3.96-2.95,0-.54.14-.76.36-.76.18,0,.47.18.79.5.43.43,1.91.43,2.23.43.68,0,1.33-.07,1.91-.14,3.28-.5,6.8-1.04,10.33-1.48,0-1.12-.04-2.27-.04-3.46,0-1.51-.58-1.91-1.4-2.45-.29-.18-.4-.32-.4-.43,0-.36.68-.9,1.73-.9s2.66.61,2.66,2.7c0,.43-.04.9-.14,1.4-.18,1.01-.36,1.98-.47,2.92,1.37-.14,2.74-.22,4.07-.29.43-.04.65-.11.65-.22,0-.07-.07-.14-.18-.22-.54-.36-2.81-1.84-2.81-2.05,0-.04.04-.07.11-.07.22,0,.68.14.97.29,1.69.83,3.67,1.48,4.97,1.66,1.8.29,4.28.79,4.28,2.45,0,.54-.47,1.01-1.3,1.01-.32,0-.68-.04-1.08-.18-2.2-.68-4.72-1.01-7.31-1.01-.83,0-1.66.04-2.48.11-.07,1.19-.14,2.23-.14,3.2,0,1.22.11,2.27.14,3.02.68.72,1.4,1.84,1.4,3.92,0,7.16-7.99,11.81-10.4,11.81-.18,0-.25-.04-.25-.11,0-.14.4-.43,1.19-.79,1.73-.79,5.26-3.96,6.44-8.06-.65.54-1.37.76-1.94.76-1.33,0-1.94-1.08-2.7-2.7-.25-.54-.58-1.44-.58-2.66,0-2.38,1.55-3.67,3.42-3.67.54,0,1.12.14,1.69.36l-.07-4.93Zm.04,7.52c-.61-1.26-1.62-1.76-2.38-1.76-.83,0-1.55.61-1.55,1.87,0,.97.58,3.38,2.41,3.38,1.62,0,1.62-2.12,1.62-2.41s0-.58-.07-.9l-.04-.18Z" fill="#fff"/>
      <path d="m283.21,64.39s.07-.04.18-.11c1.62-1.04,3.64-1.62,5.65-1.62,4.64,0,7.49,3.24,7.49,6.73s-3.31,8.21-9.93,8.21c-3.49,0-5.83-1.73-5.83-3.67,0-1.73,1.8-2.7,3.53-2.7,2.38,0,3.85,1.84,3.85,3.71,0,.29-.04.61-.11.9,4.18-1.01,5.8-3.89,5.8-6.41,0-2.84-2.02-5.4-5.65-5.4-1.26,0-5.44.32-7.85,5.44-.86,1.87-1.44,2.99-2.66,2.99-.65,0-1.15-.5-1.15-1.22,0-1.04,1.33-2.59,2.99-4.5,2.16-2.48,7.23-9.32,8.75-11.81.18-.25.25-.5.25-.68,0-.25-.14-.61-.9-.61-1.69,0-2.48,3.46-4.9,3.46-1.33,0-2.41-.86-2.41-2.2,0-.4.07-.72.32-.72.18,0,.4.07.68.18.29.11.58.14.86.14.5,0,1.01-.14,1.48-.5,1.4-.97,3.06-2.16,4.97-2.16,2.12,0,3.42,1.48,3.42,2.27,0,.72-.79,1.37-1.55,1.94-2.59,1.98-7.27,8.24-7.27,8.31v.04Zm2.77,10.4c0-1.26-.97-2.34-2.3-2.34-1.58,0-1.62,1.19-1.62,1.37,0,.14,0,1.84,3.6,2.2.22-.4.32-.83.32-1.22Z" fill="#fff"/>
    </g>
  </g>
</svg>