<?xml version="1.0" encoding="utf-8"?>
<!-- Generator: Adobe Illustrator 27.1.1, SVG Export Plug-In . SVG Version: 6.00 Build 0)  -->
<svg version="1.1" id="_レイヤー_2" xmlns="http://www.w3.org/2000/svg" xmlns:xlink="http://www.w3.org/1999/xlink" x="0px"
	 y="0px" viewBox="0 0 583 250" style="enable-background:new 0 0 583 250;" xml:space="preserve">
<style type="text/css">
	.st0{fill:#FFFFFF;}
</style>
<g id="_デザイン">
	<rect class="st0" width="583" height="80"/>
	<rect y="85" class="st0" width="417" height="80"/>
	<rect x="0.5" y="170" class="st0" width="411" height="80"/>
	<g>
		<path d="M74.5,25.1c-2.9,4.3-5.5,7.4-7.8,9.2c0.1,0.1,1.1,0.8,1.1,1.6c0,0.5-0.4,0.9-1.3,1.4c-0.8,0.4-1,0.7-1.1,1.8
			c-0.2,4.3-0.5,10.4-1.3,15.1c-1.2,6.8-4.7,10-8.8,10.1c-0.4,0-1-0.2-1.1-0.7c-0.5-1.6-3.2-3.7-4.1-4.7c-3.9,5.8-7.7,7.6-7.9,7.6
			c-0.1,0-0.1-0.1-0.1-0.1c0-0.2,0.4-0.8,1.1-1.5c8.5-8.9,10.2-31.1,10.2-36.1c0-1.3-0.1-2.4-0.2-3.5c-1.7,0.1-3.6,0.2-6.1,0.5h-0.1
			c-0.9,0-2.3-2.2-2.3-2.9c3.8,0.5,7.2,0.8,9.8,0.8v-3.1c-0.1-2.5-0.2-6.2-0.6-7.8c-0.1-0.2-0.1-0.4-0.1-0.4c0-0.2,0.1-0.2,0.2-0.2
			c1,0,7,1.1,7,2.3c0,0.4-0.4,0.8-1.3,1.3c-1,0.5-1,0.6-1.1,2.3c-0.1,1.5-0.1,4-0.2,5.5h3.5c0.2,0,0.5-0.2,0.7-0.5
			c0.6-1,1.4-2.5,2.3-3.4c0.1-0.1,0.3-0.2,0.5-0.2c1.4,0,4.9,3.5,4.9,4.9c0,0.4-0.2,0.7-1.1,0.7H58c1,0.3,1.6,0.5,1.6,1.1
			c0,0.4-0.4,0.7-1,1c-1,0.4-1,0.7-1.1,2.1c-0.1,1.7-0.3,3.4-0.5,5.1h3.5c0.6,0,0.8-0.3,1-0.5c0.1-0.1,1.2-1.6,1.7-1.6
			s1.9,0.8,3.1,1.8c0.1-0.2,0.3-0.5,0.6-0.9c2.4-3.4,6-11.5,7.5-17c0.4-1.3,0.4-2.8,0.5-3.5c0-0.7,0.1-0.7,0.2-0.7
			c0.5,0,6.9,2.2,6.9,3.4c0,0.4-0.5,0.8-1.7,1c-0.9,0.1-0.9,0.3-1.3,1.1c-1,1.8-2.2,4-3.5,6.2h12.3c0.2,0,0.7-0.2,0.8-0.5
			c0.9-1.3,2.5-3.6,3.2-3.6c1,0,5.5,3.4,5.5,4.9c0,0.4-0.2,0.8-1.3,0.8C96.1,25.1,74.5,25.1,74.5,25.1z M56.9,35.9
			c-1,8-2.7,16.1-6.6,22.4c0.1,0,0.1,0.1,0.2,0.1c1.7,0.4,3.2,1,4.7,1c3.8,0,5.8-4.5,6.3-22.6c0-0.5-0.2-0.8-0.7-0.8H56.9z
			 M84.6,54.9c0,1.4-1.4,2.3-2.5,2.3c-1,0-1.8-0.6-1.8-2V55c0.2-4.4,0.3-9.2,0.4-13.6l-5,2.7l-0.3,0.2c-0.1,3.6-0.1,7.8-0.1,10.7
			v2.6c0,2.6,0.8,3.2,8,3.2c2.9,0,6.3-0.1,8.1-0.4c2.9-0.5,3.6-5.2,4.4-9.2c0.1-0.4,0.2-0.6,0.2-0.6c0.4,0,0.7,7.3,1.7,7.9
			c1,0.6,1.4,1.3,1.4,2c0,4.2-10.7,4.2-15.3,4.2c-7.6,0-12.4-0.4-12.4-6.1v-0.2l0.2-12.1c-2.8,1.9-3,1.9-3.3,1.9
			c-1.1,0-2.8-0.7-3.1-1.4c2.3-0.8,4.5-1.6,6.4-2.5c0-1.7,0.1-3.2,0.1-4.5c0-2-0.1-4.9-0.4-7.1c0-0.2-0.1-0.3-0.1-0.4
			s0.1-0.2,0.2-0.2c0.1,0,6.3,1,6.3,2.3c0,0.4-0.5,0.8-1.3,1.2c-1,0.4-1,0.5-1.1,6.8l5.3-2.8c0-2.5-0.1-9.4-0.6-11.6
			c-0.1-0.1-0.1-0.2-0.1-0.3c0-0.1,0.1-0.2,0.2-0.2c0.5,0,6.6,1,6.6,2.2c0,0.4-0.4,0.8-1,1.1c-1,0.5-1.1,0.4-1.3,1.9
			c-0.1,1.3-0.2,3.1-0.2,5l4-2.1c0.4-0.2,0.6-0.5,0.7-0.8c0.7-1.7,0.8-2,1.4-2c0.8,0,5.5,1.1,5.5,2.6c0,0.4-0.2,0.8-0.8,1.2
			c-0.6,0.5-1.2,0.7-1.2,1.4c-0.1,2.2-0.1,7.1-0.4,9.9c-0.6,6.2-4.1,7.5-6.1,7.5c-0.4,0-0.7-0.1-0.8-0.4c-0.3-0.9-1.3-1.9-2.2-2.7
			c0,0.9,0.1,1.6,0.1,2.3L84.6,54.9L84.6,54.9z M84.4,39.5v3.1c0,2.9,0.1,5.8,0.1,8.3c1,0.2,1.8,0.5,2.6,0.5c2.6,0,3-3.1,3-13.9
			c0-0.4-0.3-0.6-0.6-0.6c-0.1,0-0.3,0.1-0.4,0.1C89,37,84.4,39.5,84.4,39.5z"/>
		<path d="M130,25.2c0,0.3-0.2,0.6-1.1,0.6h-12.1c-2.4,0-5.9,0.1-9.6,0.5H107c-0.7,0-2.5-2.2-2.5-2.9c4.5,0.7,9.8,0.8,12.2,0.8h4.6
			c0.2,0,0.5-0.2,0.7-0.5c0.1-0.1,2-3.4,2.8-3.4C125.9,20.4,130,23.8,130,25.2z M126.9,48.7c0,0.5-0.6,1-1.3,1.4
			c-0.9,0.6-1.1,0.9-1.1,3.1c0,2.1,0.2,4.5,0.4,8.1v0.1c0,1.3-1.4,2.1-2.6,2.1c-1,0-1.9-0.5-1.9-1.7v-1.3h-7.9
			c0,1.1,0.1,2.2,0.1,3.4v0.1c0,1.3-1.5,2-2.6,2c-1,0-1.9-0.5-1.9-1.7V64c0.4-4.5,0.4-6.8,0.4-9.1c0-5-0.4-8.5-0.7-9.7
			c0-0.1-0.1-0.2-0.1-0.3c0-0.1,0.1-0.2,0.1-0.2c0.3,0,4.4,1.5,5.9,2.6l0.1,0.1h5.3c0.2,0,0.5-0.1,0.8-0.5c1.4-1.9,1.5-1.9,1.8-1.9
			S126.9,47,126.9,48.7z M126,16.7c0,0.4-0.2,0.8-1.1,0.8h-8.2c-1.8,0-3.5,0.1-6.4,0.5h-0.1c-0.8,0-2.3-2-2.3-2.9
			c3.5,0.7,7,0.8,8.8,0.8h1.4c0.1,0,0.4-0.2,0.6-0.5c0.5-1,1.6-2.3,2.2-3c0.1-0.1,0.3-0.2,0.5-0.2c0.1,0,0.2,0,0.3,0.1
			C123.2,13,126,15.4,126,16.7z M126,32.5c0,0.4-0.2,0.8-1.1,0.8h-8.2c-1.8,0-3.5,0.1-6.4,0.5h-0.1c-0.7,0-2.3-1.9-2.3-2.9
			c3.5,0.7,7,0.8,8.8,0.8h1.5c0.1,0,0.5-0.2,0.7-0.5c0.5-1,1.9-3,2.6-3c0.1,0,0.2,0,0.2,0.1C123.5,29.2,126,31.6,126,32.5z
			 M126,40.4c0,0.4-0.2,0.8-1.1,0.8h-8.2c-1.8,0-3.5,0.1-6.4,0.5h-0.1c-0.7,0-2.3-2-2.3-2.9c3.5,0.7,7,0.8,8.9,0.8h1.4
			c0.1,0,0.5-0.2,0.7-0.5s1.9-3,2.6-3c0.2,0,0.3,0,0.4,0.1C123.5,37,126,39.4,126,40.4z M120.5,53c0-1.1-0.1-2.2-0.1-3.2
			c0-0.4-0.2-0.7-0.6-0.7h-6.1c-0.1,0.1-0.3,0.2-0.5,0.3c-0.6,0.4-0.6,0.8-0.6,1.7c-0.1,2.6-0.1,5.3-0.1,7.9h7.9
			C120.5,56.5,120.5,54.7,120.5,53z M160.9,61.4c0,0.4-5.3,1.4-7.1,3.3c-0.2,0.2-0.4,0.3-0.7,0.3c-0.5,0-6.3-1.8-11.6-8
			c-9.2,8.2-20.8,9.2-21.4,9.2c-0.3,0-0.4,0-0.4-0.1c0-0.2,0.7-0.5,2-0.9c5.9-1.9,12.5-5.6,17.6-11.3c-2.6-4.1-4.4-8.8-5-13.7
			c-1.3,0.1-2.8,0.2-4.3,0.4h-0.1c-1,0-2.8-2.2-2.8-2.9c5.3,0.9,10.7,0.9,13.7,0.9h5.2c0.4,0,0.7-0.2,0.8-0.5c0.3-0.4,0.8-1,1.3-1.2
			c0.2-0.1,0.3-0.2,0.5-0.2c0.6,0,5,2.4,5,3.8c0,0.4-0.4,0.8-1.3,1.2c-1,0.4-1.4,0.3-1.7,1.3c-1.6,4.5-3.8,8.3-6.6,11.3
			c4.1,3.4,9.5,6,16.3,6.9C160.7,61.3,160.9,61.4,160.9,61.4L160.9,61.4z M158.5,30.6c0,2.9-4.9,3.3-8.9,3.3c-3,0-6-0.4-6-4.9
			c0-2.8,0.1-6.5,0.1-10c0-0.2-0.2-0.6-0.5-0.6H139l-0.6,0.4c-0.5,0.2-0.7,0.5-0.7,1.8c-0.1,7.1-2.2,12.5-9.1,15.5
			c-0.8,0.4-1.2,0.5-1.3,0.5h-0.1c0-0.1,0.3-0.4,0.8-0.8c5.3-4.6,5.3-10.6,5.4-15.6c0-1.3-0.2-3.5-0.5-5.5v-0.2c0-0.1,0-0.1,0.1-0.1
			c0.6,0,4.7,1.8,5.6,2.3l0.4,0.2h4.1c0.3,0,0.6-0.5,0.7-0.6c0.2-0.2,0.8-1,1.1-1.3c0.1-0.1,0.2-0.1,0.4-0.1c0.7,0,4.5,2.3,4.5,3.4
			c0,0.4-0.2,0.7-0.7,1c-0.8,0.4-1.4,0.4-1.4,1.1c-0.1,1.6-0.2,3.5-0.2,5.2c0,4.5,0.4,4.7,2.6,4.7c1,0,2.3-0.1,3-0.3
			c1.4-0.4,1.8-3,2.6-7.3c0.1-0.4,0.1-0.5,0.2-0.5c0.4,0,0.7,6.1,1.3,6.4C158,29,158.5,29.8,158.5,30.6z M146.4,40.4
			c0-0.3-0.1-0.4-0.4-0.4h-5.3c-1.6,0-3.5,0-5.6,0.1c1.1,4,3.1,7.9,6.1,11.3C144.5,47.1,146.4,41.3,146.4,40.4z"/>
		<path d="M190.5,23c-0.7,0-1.3,0.1-2,0.1c1.5,1.2,2.5,4.3,2.5,8.2c0,12.5-10,26.3-15.7,26.3c-3.2,0-4.4-4.3-6.7-7.7
			c-1-1.4-1.4-3.4-1.4-5.6c0-9.1,7.8-23.5,24.2-23.5c13.7,0,21,9.4,21,19.3c0,5.4-2.2,11-6.7,15.2c-7.7,7.2-19.1,8-19.6,8
			c-0.6,0-0.8-0.1-0.8-0.2c0-0.3,0.9-0.7,2.7-1.2c10.5-2.9,19.9-10.4,19.9-22.1c0-8.9-6.3-16.9-17.1-16.9H190.5z M185,23.8
			c-9.2,2.7-14.6,11.3-14.6,18.8c0,5.3,2.7,9.3,5.3,9.3c4.1,0,12.7-12.5,12.7-23.2c0-2.7-0.4-5.2-2.2-5.2c-0.2,0-0.4,0-0.5,0.1
			s-0.4,0.1-0.5,0.1C185.3,23.7,185,23.7,185,23.8z"/>
		<path d="M274.1,60.3c0,0.4-0.3,0.7-1.3,0.7h-30.8c-3.4,0-13,0.1-18.4,0.7h-0.1c-1.1,0-2.8-2.3-2.8-3.1c6.2,0.7,18.1,1,21.5,1h5.6
			c2-5.3,8-22.2,8-29.2c0-0.5,0.1-0.5,0.1-0.5c0.5,0,8.1,1.9,8.1,3.7c0,0.5-0.6,1.1-1.9,1.3c-1,0.1-1.1,0.3-1.4,1
			c-2.8,7-8,18.4-11.3,23.8h13.7c0.4,0,0.8-0.2,1-0.5c0.4-0.5,2.8-4.4,3.8-4.4C269.8,54.6,274.1,59.5,274.1,60.3L274.1,60.3z
			 M270.2,26.8c0,0.4-0.3,0.7-1.3,0.7H244c-3.3,0-11.4,0.1-16.7,0.7h-0.1c-1.1,0-2.6-2.3-2.6-3.1c6.1,0.7,16.3,1,19.7,1h1v-3.2
			c0-3.1-0.1-6.9-0.6-8.8c-0.1-0.2-0.1-0.4-0.1-0.4s0.1-0.1,0.1-0.1c0.4,0,8,0.9,8,2.3c0,0.4-0.4,0.8-1.1,1.3
			c-1.1,0.7-1.3,0.3-1.5,2.5c-0.1,1.2-0.2,4.7-0.2,6.5h9.5c0.4,0,0.8-0.2,1-0.5c0.1-0.2,2.5-4.1,3.7-4.1c0.2,0,0.3,0,0.4,0.1
			C266,21.9,270.2,25.4,270.2,26.8L270.2,26.8z M245,49.9c0,2.5-1.4,4-2.9,4c-1.3,0-2.6-1.3-3.1-4.3c-0.7-5-3.2-11.6-6.2-16.3
			c-0.2-0.3-0.3-0.5-0.3-0.7c0-0.1,0.1-0.2,0.2-0.2C234.2,32.4,245,43.2,245,49.9L245,49.9z"/>
		<path d="M295.8,25.2c1.7-0.9,3.4-1.9,4.4-2.5c0.5-0.3,1.1-0.5,1.7-0.5c1.1,0,1.9,0.6,1.9,1.5c0,1.9-2.6,3.6-8.8,6.1
			c-1.1,6.8-1.8,11.3-1.8,13.9c0,1.6,0.4,1.7,0.7,1.7c0.8,0,3.9-1.7,5-2.5c2.3-1.6,5.1-2.6,7.9-2.6c4.3,0,10.4,2.9,10.4,8.9
			c0,2.4-1,4.8-2.3,6.8c-4.4,6.4-15.7,8.7-21.2,8.7c-0.7,0-1-0.1-1-0.2c0-0.2,1-0.6,3.2-1.1c6.9-1.7,16.6-6.8,16.6-14.2
			c0-3.7-3.1-6.4-6.8-6.4c-4.5,0-9.1,5-10.4,8.5c-0.5,1.6-1.4,2.4-2.3,2.4c-0.8,0-3.2-1.2-3.2-5.8c0-1.7,0.2-3.8,0.7-5.9
			c0.5-2.5,1.3-7.2,1.9-11.5c-1,0.4-1.9,0.5-2.8,0.5c-4.3,0-7.2-3.6-7.2-5.6c0-0.3,0.1-0.4,0.4-0.4s0.7,0.2,1.4,0.6
			c2.1,1.1,3.4,1.6,4.9,1.6c1,0,2-0.2,3.5-0.6l0.2-0.1c0.1-1.2,0.1-2.4,0.1-3.4c0-4.8-1.1-4.9-1.6-4.9h-0.5c-0.5,0-0.7-0.1-0.7-0.4
			c0-0.6,1.1-2.6,3.2-2.6c1.5,0,3.6,1.1,3.6,4c0,1.3-0.4,2.8-0.7,4.4L295.8,25.2L295.8,25.2z"/>
		<path d="M376.6,61.4c0,0.4-0.3,0.7-1.3,0.7h-30.9c-3.4,0-12.4,0.1-17.6,0.7h-0.1c-1.1,0-2.8-2.3-2.8-3.1
			c6.1,0.7,17.3,0.9,20.8,0.9h1.8c0.1-5.8,0.2-13.8,0.2-21.1c0-17.4-0.2-21.9-0.8-24.8c-0.1-0.2-0.1-0.3-0.1-0.4
			c0-0.2,0.1-0.2,0.2-0.2c0.3,0,8.6,1.1,8.6,2.6c0,0.5-0.5,1-1.3,1.5c-1.3,0.8-1.5,0.6-1.6,2.5c-0.2,2.8-0.2,8.7-0.2,15.4h9.1
			c0.4,0,0.8-0.2,1-0.5c0.8-1.1,3.1-4.3,3.7-4.3c1.6,0,6,4.5,6,5.6c0,0.4-0.3,0.8-1.3,0.8h-18.5c0,8.2,0,17.3,0.1,22.9h14
			c0.4,0,0.8-0.2,1-0.5c0.1-0.1,2.9-4.6,3.9-4.6C372.1,55.5,376.6,60.3,376.6,61.4L376.6,61.4z"/>
		<path d="M386.7,46c0-5.5,1.3-10.6,2-15c0.2-1.4,0.5-2.8,0.5-4.1c0-2.6-1-3.8-3.6-5.2c-0.6-0.3-1-0.7-1-1.1c0-0.8,1.3-0.9,2-0.9
			s1.4,0.1,1.9,0.4c0.8,0.4,4.7,3.6,4.7,6.7c0,1.3-0.4,2.5-1,4.1c-1.4,3.9-2.9,8.6-2.9,12.7c0,1.1,0.5,4.9,1.1,4.9
			c0.2,0,0.4-0.3,0.7-0.9c1-2.3,6.8-14.2,7.6-14.2c0.1,0,0.1,0.1,0.1,0.2c0,0.4-0.2,1.3-0.6,2.2c-2.3,5.5-4.6,12.6-4.6,17.7
			c0,1.4,0.1,2.9,0.5,4c0.2,0.5,0.3,1,0.3,1.4c0,1.2-0.7,1.9-1.7,1.9C388.8,60.7,386.7,52.3,386.7,46L386.7,46z M414.2,41.3
			l-0.2-7.6c-0.5,0.1-1.1,0.1-1.6,0.1H411c-7.9,0-9-4.6-9-5c0-0.1,0.1-0.2,0.2-0.2c0.3,0,0.9,0.3,1.5,0.5c2,0.8,4.7,1,7.1,1h1
			c0.7,0,1.4-0.1,2.2-0.2v-3.1c0-3.4-0.3-6.3-2.5-6.3h-0.4c-1,0-1.3-0.2-1.3-0.6c0-0.5,1.3-1.9,3.2-1.9c2.3,0,5,2.2,5,5v0.7
			c1.1,0.3,2.3,0.5,3.2,0.7c0.8,0.1,1.6,0.1,2.1,0.2c1.1,0.2,1.9,1.1,1.9,2.3c0,3.1-4.4,5.2-7.8,6.1c0.1,2.6,0.3,5.2,0.5,7.7
			c0.1,0.8,0.1,1.7,0.1,2.5c0,18.6-16.9,23.6-18.8,23.6c-0.2,0-0.2,0-0.2-0.1c0-0.2,0.5-0.7,2.2-1.6c6.9-3.8,13-13.2,13-23.2
			L414.2,41.3L414.2,41.3z M422.8,21.5c-1.6-1.8-3.5-3.2-5-4.1c-0.5-0.3-1-0.5-1-0.7c0-0.4,2.3-0.4,2.5-0.4c6.9,0,7,4,7,4
			c0,1.1-0.8,2-1.8,2C424,22.4,423.4,22.1,422.8,21.5z M417.5,29c1-0.4,3.2-1.5,3.2-2.5c0-0.7-0.9-1.3-2.8-2.1
			C417.7,25.2,417.5,27.5,417.5,29L417.5,29z M429.1,18.6c-1.6-1.7-3.6-3.1-5.2-3.9c-0.5-0.2-1-0.4-1-0.6c0-0.1,0.8-0.5,2.8-0.5
			c4.9,0,6.7,2.2,6.7,3.9c0,1.1-0.8,2-1.7,2C430.2,19.4,429.6,19.2,429.1,18.6L429.1,18.6z"/>
		<path d="M455.4,43.8c-4.1,0-12.8,3.7-12.8,9.7c0,3.7,3.1,6.5,9.3,6.5c2.5,0,5.4-0.5,7.8-1.7c0.7-0.4,1.4-0.5,2-0.5
			c1.7,0,2.8,1.1,2.8,2.4c0,3.2-6.9,4.5-10.9,4.5c-10.3,0-13.8-6.5-13.8-10.4c0-5.1,4.6-10.4,10.6-13.3c-3.2-1.6-4.1-4.9-4.1-8.6
			c0-2.8,0.5-5.8,0.8-8.3c0.2-1.4,0.3-2.7,0.3-3.8c0-2.8-1-3-2.8-3.4c-0.8-0.2-1.2-0.4-1.2-0.8c0-0.3,0.8-2,3-2c2.9,0,5.8,3.3,5.8,6
			c0,1.3-0.4,2.5-0.7,3.7c-0.7,2.8-1.6,6.4-1.6,9.6c0,2.5,0.5,5.3,3.2,6.4c1.2-0.5,2-1,3.5-1.4c0.7-0.2,1.5-0.4,2.3-0.4
			c1.3,0,2.9,0.5,2.9,2.2s-2.1,3.5-5.1,3.5c-0.2,0-0.5-0.1-0.8-0.1H455.4z"/>
		<path d="M490,58.6c-1.9,0-4-0.8-5.8-2.2c-6.4-4.9-7.7-11.5-7.7-18.4c0-1.9,0.1-3.9,0.2-5.8c0.1-0.7,0.1-1.3,0.1-2
			c0-1.2-0.1-2.4-0.2-3.3c-0.1-0.5-0.1-0.8-0.1-1.1c0-0.4,0.1-0.5,0.4-0.5c0.4,0,4.6,1.3,4.6,6.4c0,0.8-0.1,1.6-0.2,2.3
			c-0.4,2.1-0.8,4.7-0.8,7.3c0,10.1,6.5,11.2,7,11.2c1,0,1.6-0.6,1.9-1.1c1.2-2,2.5-5.5,3.6-7.7c0.7-1.6,1.1-2.2,1.3-2.2
			c0.1,0,0.1,0.1,0.1,0.3c0,0.5-0.1,1.3-0.4,2.3c-0.5,2.3-1,4.9-1,7.9c0,1.3,0.2,2.2,0.3,3.1c0.1,0.2,0.1,0.4,0.1,0.7
			C493.3,57.5,492.1,58.6,490,58.6z M513.1,43.8c-0.5-5.8-4.6-10.7-9.1-11.9c-1.6-0.4-2.5-0.8-2.5-1c0-0.2,0.4-0.3,1.3-0.3
			c10,0,15.6,7.1,15.6,12.4c0,2.4-1.4,3.7-2.8,3.7C514.4,46.7,513.3,45.8,513.1,43.8z"/>
		<path d="M529.4,67.2c-0.1,0-0.2,0-0.2-0.1c0-0.2,0.7-0.7,2.2-1.6c4.6-2.5,16.9-12.7,16.9-25.6c0-5.3-2.2-9.5-5.3-9.5
			c-1.5,0-3.1,1-4.7,2.5c-1.2,1.1-2.5,2.2-4.2,2.2c-2.9,0-5-2.3-5-4.7c0-1.5,0.9-2.5,1.3-2.5c0.3,0,0.5,0.4,0.7,1
			c0.4,0.8,1.3,1.1,2.2,1.1c1.3,0,2.8-0.5,3.7-0.8c1.9-0.7,4.3-1.6,6.6-1.6c5.6,0,9.4,5.9,9.4,12.7c0,2.8-0.7,5.7-1.8,8.5
			C545.3,62.9,530.5,67.2,529.4,67.2L529.4,67.2z M538.5,19.9c0.3-0.3,0.5-0.5,0.5-0.7c0-0.2-0.2-0.4-0.4-0.5
			c-0.9-0.5-3.9-1.1-5.3-3.2c-0.5-0.7-0.8-1.2-0.8-1.4c0-0.1,0.1-0.2,0.2-0.2c0.4,0,1,0.2,1.9,0.7c2,1,6.9,1,7.4,1h1.4
			c3.2,0,4.5,2.3,4.5,3.3c0,1.3-1.3,2-3.5,2.1s-5.5,0.9-8.4,2.3c-0.5,0.2-0.9,0.4-1.1,0.4c-0.1,0-0.2,0-0.2-0.1s0.2-0.4,0.7-0.8
			L538.5,19.9L538.5,19.9z"/>
		<path d="M104.3,102.1c0,0.7-0.7,1.1-1.9,1.7c-1,0.5-1.1,0.5-1.1,6.1c0,9.5,0.5,30.6,0.8,37.3v0.2c0,1.6-1.5,2.5-2.9,2.5
			c-1.1,0-2.2-0.7-2.2-2.1v-2.5H60.7v2.3c0,1.5-1.6,2.5-3,2.5c-1.1,0-2.1-0.6-2.1-2v-0.2c0.5-7.9,0.7-26.2,0.7-36.2v-4.3
			c0-1.9-0.3-7-0.8-9.2c-0.1-0.2-0.1-0.3-0.1-0.4s0-0.1,0.1-0.1c0.4,0,4.9,1.6,6.7,2.8l0.4,0.2h32.8c0.4,0,0.8-0.3,1-0.5
			c1.2-1.6,1.7-2.1,2.3-2.1C99.7,97.9,104.3,100.9,104.3,102.1z M96.8,103.1c0-0.6-0.4-1-0.9-1H62.5c-1.2,0.8-1.4,1-1.5,2.4
			c-0.1,3.4-0.2,19-0.2,31.4c0.1-0.1,0.3-0.4,0.6-0.6c4.6-3.5,9.9-9.5,13.7-18.5c-2.7,0.1-5.9,0.2-9.5,0.5h-0.1
			c-1,0-2.6-2.2-2.6-2.9c4.9,0.6,10,0.8,13.4,0.9c0-7.7-0.6-10-0.7-10.4c-0.1-0.1-0.1-0.2-0.1-0.4s0.1-0.2,0.3-0.2
			c0.8,0,6.7,1,6.7,2.1c0,0.4-0.4,0.8-1.1,1.1c-1,0.5-1.1,0.2-1.2,1.9c-0.1,1.4-0.2,3.4-0.2,5.9h5.6c0.4,0,0.7-0.1,0.9-0.4
			c0.7-1.1,2.5-3.8,3.2-3.8c1.4,0,5.5,3.8,5.5,4.9c0,0.4-0.3,0.7-1.3,0.7H80.6c3.1,6.1,9.2,12.6,16.1,15.7l0.3,0.2
			C97.1,121.2,97,108.1,96.8,103.1z M97.1,132.9c-0.6,0.3-3.7,0.4-5.6,1.9c-0.2,0.2-0.5,0.3-0.8,0.3c-1,0-7.3-6.1-10.6-17.5v3
			c0,6.8,0.2,14.5,0.4,18.2v0.1c0,1.4-1.6,2.1-2.7,2.1c-1,0-2-0.5-2-1.9V139c0.2-4.2,0.4-10.6,0.5-16.5
			C70,133.2,61,136.3,60.7,136.3v7.4h36.4V132.9L97.1,132.9z"/>
		<path d="M126.7,136.6c-0.2,0.7-0.4,1.3-0.7,2c1.6,0.3,10.3,2.2,10.3,6.7c0,1.4-1,2.5-2.2,2.5c-0.8,0-1.8-0.5-2.5-1.9
			c-1.2-2.2-3.4-4.9-5.8-6.7c-4,10-14.3,11.1-14.3,11.1c-0.2,0-0.4-0.1-0.4-0.1c0-0.2,0.5-0.5,1.6-1c5.9-2.7,9.1-6.7,10.4-12.5
			c-2.9,0.1-7.3,0.2-9.4,0.5h-0.1c-0.7,0-2.3-2.1-2.3-2.9c2.8,0.5,8.8,0.8,12.1,0.8c0.2-1.5,0.4-3.2,0.5-4.9
			c-2.3,0.1-5.8,0.2-7.9,0.5h-0.1c-0.7,0-2.4-2.1-2.4-2.9c2.7,0.5,7.5,0.8,10.4,0.8v-5.2h-4.4c0,0.2,0.1,0.5,0.1,0.7v0.1
			c0,1.2-1.3,1.9-2.3,1.9c-0.8,0-1.6-0.5-1.6-1.6v-0.2c0.2-1.9,0.2-7,0.2-8.8c0-0.6-0.1-2.6-0.4-4.3c0-0.1-0.1-0.2-0.1-0.2
			c0-0.1,0.1-0.2,0.1-0.2c0.4,0,3.5,1.4,5,2.3h10.7c0.2,0,0.5-0.1,0.7-0.4c0.3-0.5,1.3-1.6,1.7-1.6c0.8,0,4.1,2,4.1,3
			c0,0.4-0.4,0.8-1,1.1c-0.8,0.5-0.9,0.6-0.9,1.1c0,2.8,0.3,6.7,0.3,6.8v0.1c0,0.7-0.4,1.9-2.3,1.9c-0.8,0-1.7-0.5-1.7-1.6v-0.1
			h-4.5c-0.1,2-0.1,4-0.1,5.2h2.6c0.1,0,0.5-0.2,0.7-0.5c1.3-1.8,2-2.5,2.3-2.5c0.1,0,0.2,0.1,0.3,0.1c1.6,0.7,4,2.6,4,3.6
			c0,0.4-0.2,0.8-1.1,0.8h-8.7c-0.1,1.7-0.2,3.4-0.5,4.9h4.9c0.1,0,0.5-0.2,0.7-0.5c0.1-0.2,1.8-2.8,2.6-2.8c0.1,0,0.2,0,0.3,0.1
			c2,0.9,4.1,3,4.1,3.9c0,0.4-0.3,0.8-1.1,0.8H126.7L126.7,136.6z M131.6,105.7c0,1.1,0.1,2.2,0.1,3.7c0,0.4-0.6,1.7-2.4,1.7
			c-0.8,0-1.5-0.4-1.5-1.3v-0.1c0.1-1.5,0.1-2.9,0.1-4h-4.4c0,1.1,0.1,2.3,0.1,3.8c0,1-1.3,1.7-2.3,1.7c-0.9,0-1.6-0.4-1.6-1.4v-0.1
			c0.2-1.7,0.2-2.9,0.2-3.9c-1.6,0.1-3.3,0.2-5.1,0.4h-0.1c-0.8,0-2.3-2-2.3-2.8c2.5,0.4,5.2,0.6,7.6,0.7v-2c0-0.7-0.1-2.6-0.5-4.3
			c0-0.1-0.1-0.2-0.1-0.3c0-0.2,0.1-0.2,0.2-0.2c0.5,0,5.7,0.4,5.7,1.7c0,0.3-0.2,0.8-1,1.3c-0.7,0.5-0.8,1-0.8,3.8h4.5v-2.1
			c0-0.7-0.1-2.6-0.4-4.3c0-0.1-0.1-0.2-0.1-0.3c0-0.2,0.1-0.2,0.3-0.2c0,0,5.7,0.6,5.7,1.8c0,0.3-0.2,0.7-1.1,1.3s-0.9,1.1-0.9,3.8
			h1.4c0.1,0,0.4-0.2,0.6-0.5c1.7-2.6,1.9-2.8,2.2-2.8c0.1,0,0.2,0.1,0.2,0.1c1.4,0.7,3.6,3,3.6,4c0,0.4-0.2,0.7-1,0.7L131.6,105.7
			L131.6,105.7z M123.8,120c0-1.1-0.1-3.6-0.2-5.4h-3.2l-0.4,0.2c-0.6,0.4-0.7,0.4-0.7,3.8c0,1.1,0.1,2.3,0.1,3.4h4.4
			C123.8,122,123.8,119.9,123.8,120z M132.2,115.2c0-0.4-0.2-0.7-0.7-0.7h-2.6c0.1,0.1,0.1,0.2,0.1,0.3c0,0.2-0.2,0.4-0.5,0.6
			c-0.6,0.3-0.7,0.4-0.7,1.7c0,1-0.1,2.8-0.1,4.9h4.6V115.2z M145.1,144.6c0,1.2,0.1,2.2,0.1,2.9v0.1c0,1.6-1.6,2.5-2.8,2.5
			c-1,0-1.8-0.6-1.8-2.1v-0.3c0.5-5.9,0.8-27.6,0.8-31.2v-2.6c-2.2,3.3-4.8,6.2-5.3,6.2c-0.1,0-0.1-0.1-0.1-0.1
			c0-0.1,0.1-0.4,0.4-0.8c2.7-4,7.7-16.9,7.7-22.1c0.1-0.5,0-0.7,0.2-0.7c1.1,0,6.5,1.9,6.5,3c0,0.5-0.8,1-1.7,1.1
			c-0.8,0.1-0.9,0.2-1.3,1c-1.1,2.5-2.3,5-3.6,7.5c2,0.9,2.1,1,2.1,1h4.5c2.8-8.4,2.9-11.4,2.9-12c0-0.2,0-0.5-0.1-0.7V97
			c0-0.2,0-0.3,0.2-0.3c0.5,0,6.5,2,6.5,3.1c0,0.4-0.5,0.8-1.6,1c-0.7,0.1-0.9,0.4-1.3,1c-1.4,2.5-3.6,6-5.3,8.3h3.9
			c0.2,0,0.5-0.2,0.7-0.5c0.6-1,1.6-2.5,2.3-3.1c0.1-0.1,0.3-0.2,0.5-0.2c1,0,4.9,3.3,4.9,4.6c0,0.4-0.2,0.7-1.1,0.7h-8.1
			c0.4,0.1,0.5,0.4,0.5,0.5c0,0.4-0.4,0.7-1,1c-0.4,0.1-0.5,0.5-0.5,1.1c-0.1,1.4-0.1,3.7-0.1,6.5h1.4c0.2,0,0.5-0.2,0.7-0.5
			c0.1-0.1,1.7-2.9,2.5-2.9c0.7,0,4.4,3,4.4,4.2c0,0.4-0.2,0.7-1.1,0.7h-7.9v8.9h1.4c0.2,0,0.5-0.2,0.7-0.5c1.3-2.2,2-2.9,2.6-2.9
			c0.7,0,4.4,2.8,4.4,4.3c0,0.4-0.2,0.7-1.1,0.7h-7.9v10.6h3.2c0.2,0,0.5-0.2,0.7-0.5c0.6-1,1.7-2.6,2.4-3.2
			c0.1-0.1,0.3-0.2,0.5-0.2c0.9,0,5.2,3.2,5.2,4.7c0,0.4-0.3,0.7-1.2,0.7H145.1L145.1,144.6z M150.7,117.2c0-1.5,0-4-0.2-5.7h-4.1
			c-0.1,0.1-0.3,0.2-0.5,0.3c-0.8,0.4-0.8,0.7-0.8,8.8h5.6C150.7,120.6,150.7,117.2,150.7,117.2z M150.7,122.1h-5.6v8.9h5.6
			C150.7,131,150.7,122.1,150.7,122.1z M150.6,143.1c0-2,0.1-6.2,0.1-10.6h-5.6c0,3.9,0.1,7.7,0.1,10.6H150.6z"/>
		<path d="M187.4,111.4c-0.8,0.2-1.6,0.3-2.3,0.4c-0.4,0-0.7,0.1-1,0.1c-5.5,0-7.6-4-7.6-5.9c0-0.2,0.1-0.4,0.3-0.4
			c0.3,0,0.7,0.3,1.1,0.5c1.9,1.1,3.9,2,6.2,2c2,0,3.9-0.5,4.3-0.6c0.1-0.9,0.2-1.8,0.2-2.6c0-3.5-0.8-3.7-1.6-3.7
			c-1.3,0-1.4-0.3-1.4-0.5c0-0.1,0.1-0.7,1.1-1.7c0.5-0.4,1.1-0.5,1.7-0.5c1.1,0,3.8,0.6,3.8,4.4c0.7,0.1,1.4,0.1,2,0.1
			c1.9,0,3.7,0.1,3.7,1.7c0,1.7-3.3,4.5-7.4,5.9c-1.7,4.2-4,9.5-9.1,20.8c-1,2.2-2.8,3.4-4.1,3.4c-1,0-1.7-0.5-1.7-1.7
			c0-0.8,0.4-1.9,1.4-3.4c3.2-4.8,8.3-11.9,10.5-17.9C187.3,111.7,187.4,111.4,187.4,111.4z M191.6,148.6c-4.7,0-8.1-3.7-8.1-6.7
			c0-4,5.3-6,10.8-6c1.3,0,2.7,0.1,4,0.4c0-2.4-0.2-4.9-0.2-7c0.1-5.2,1.3-7.9,5.6-10.9c1.6-1.1,3.5-2.6,3.5-4
			c0-0.7-0.2-0.9-1.8-2.5c-0.6-0.5-1-0.9-1-1.2c0-0.2,0.4-0.4,1.4-0.4c2.9,0,7.6,2.6,7.6,6.2c0,1.1-0.7,3.4-2.6,3.4
			c-0.6,0-1.2-0.1-1.9-0.3c-0.4-0.1-0.7-0.1-1.2-0.1c-0.8,0-7.4,0.1-7.4,6.1c0,1.6,0.3,4,1,8.9c0.1,0.9,0.2,1.9,0.3,2.8
			c3.3,1.1,8.8,4,8.8,7.6c0,1.4-0.9,2.6-2,2.6c-0.8,0-1.7-0.5-2.4-1.9c-1-1.7-2.6-3.3-4.6-4.5C200.6,145.3,196.1,148.6,191.6,148.6
			L191.6,148.6z M192.4,138.2c-4.1,0-7,1.7-7,3.5s2.6,3.1,5.4,3.1c3.5,0,6.9-2,7.4-5.5C196.3,138.6,194.3,138.2,192.4,138.2
			L192.4,138.2z M192.8,105.6c0.4-0.3,0.7-0.7,0.7-1.1c0-0.2-0.1-0.5-1.5-1c-0.1,0.9-0.2,1.8-0.5,2.9L192.8,105.6z"/>
		<path d="M277.7,144.3c0,0.5-5.2,1.9-7.1,3.8c-0.2,0.2-0.5,0.4-0.8,0.4c-2.1,0-13.6-6.4-18.7-15.2c0,5.8,0.2,11.9,0.3,14.8v0.1
			c0,1.1-1.3,2.3-2.9,2.3c-1.1,0-2-0.6-2-2v-0.3c0.2-2.6,0.4-7.2,0.5-11.8c-10.6,10.7-24.7,13.1-25.8,13.1c-0.3,0-0.5-0.1-0.5-0.2
			c0-0.2,0.4-0.5,1.2-0.7c7.3-2.5,16.4-8.1,23.1-16.2h-1.7c-3.1,0-10.3,0.1-15.4,0.6H228c-1,0-2.6-2.3-2.6-3c5.8,0.7,15.1,1,18.4,1
			h3.4v-5h-1c-3,0-8,0.1-12.8,0.6h-0.1c-1,0-2.6-2.2-2.6-2.9c5.5,0.7,12.5,0.9,15.6,0.9h0.8c0-1.4-0.1-3.4-0.2-4.9h-3.1
			c-3.1,0-8.5,0.1-13.4,0.6h-0.1c-1,0-2.6-2.2-2.6-2.9c5.1,0.7,11.8,0.8,15.3,0.9c-0.5-0.3-0.9-0.8-1.2-1.7
			c-0.5-1.3-1.8-3.5-2.9-4.6c-0.3-0.3-0.5-0.5-0.5-0.5s0.1-0.1,0.2-0.1c2.8,0,7.7,1.6,7.7,4.7c0,1-0.5,1.8-1.3,2.2h6.4
			c0.2-0.5,2.6-4.7,3.1-7.7h-12.2c-3.3,0-11,0.1-16.4,0.7H226c-1.1,0-2.6-2.3-2.6-3.1c6.1,0.7,16,0.8,19.4,1v-4.9
			c0-2.6-0.1-5.9-0.6-8c-0.1-0.2-0.1-0.4-0.1-0.4s0-0.1,0.1-0.1c0.3,0,6.8,0.8,6.8,2.2c0,0.4-0.4,0.7-1,1.1c-1,0.6-1.2,0.2-1.3,2.2
			c-0.1,1-0.1,5.6-0.1,7.9h4.6v-4.9c0-2.6-0.1-5.9-0.5-8c-0.1-0.2-0.1-0.4-0.1-0.5s0.1-0.1,0.1-0.1c1.5,0,6.8,1,6.8,2.2
			c0,0.4-0.4,0.7-1,1.1c-1,0.6-1.1,0.2-1.3,2.2c-0.1,1-0.1,5.6-0.1,7.9h0.8c1.4-1.9,5.1-7.4,5.9-11c0.1-0.4,0.1-0.6,0.2-0.6
			c0.3,0,5.7,3.4,5.7,4.4c0,0.4-0.5,0.7-1.5,0.7h-0.7c-0.6,0-0.7,0.2-1.2,0.7c-1.6,1.5-4.6,4.1-7.2,5.9h8.3c0.4,0,0.8-0.2,1-0.5
			c0.5-0.9,2.8-3.9,3.5-3.9c1.3,0,6,3.4,6,5.2c0,0.4-0.3,0.7-1.3,0.7H256c3.1,1.4,4.5,2.5,4.5,3.1c0,0.5-0.6,0.7-1.6,0.7h-0.4
			c-0.5,0-0.7,0.2-1.1,0.6c-0.8,0.7-2.6,2.2-4.3,3.3h7.4c0.5,0,0.8-0.2,1-0.5c2-2.8,2.7-3.3,3.3-3.3c1.5,0,5.5,3.2,5.5,4.5
			c0,0.4-0.3,0.7-1.3,0.7h-15.8c0.2,0.1,0.4,0.3,0.4,0.5c0,0.3-0.5,0.7-1.1,1c-1.1,0.5-1.1,1-1.1,3.4h5.6c0.5,0,0.8-0.2,1-0.5
			c0.1-0.1,2.1-2.9,3.1-2.9c1,0,5.3,2.7,5.3,4.1c0,0.4-0.3,0.7-1.3,0.7h-13.8c-0.1,1.4-0.1,3.2-0.1,5h12.7c0.5,0,0.9-0.2,1.1-0.5
			c2.4-3.4,3.2-3.4,3.4-3.4c1.5,0,5.7,3.4,5.7,4.7c0,0.4-0.2,0.7-1.3,0.7h-21c4.6,5.5,14.1,10.4,25.4,11.8
			C277.6,144.2,277.7,144.2,277.7,144.3L277.7,144.3z M239.9,104.4c0,1.5-1.1,2.7-2.3,2.7c-0.8,0-1.7-0.5-2.4-1.9
			c-0.7-1.4-2.4-3.8-3.8-5c-0.4-0.4-0.6-0.5-0.6-0.7c0-0.1,0.1-0.1,1-0.1C235.4,99.5,239.9,101.3,239.9,104.4L239.9,104.4z"/>
		<path d="M337.6,122.2c0,0.5-4.6,1.8-6.2,3.2c-0.4,0.3-0.7,0.4-1,0.4c-1.1,0-6.3-1.9-10.9-6.2c-7,5.8-16.1,6.7-16.1,6.7
			c-0.4,0-0.5-0.1-0.5-0.2c0-0.2,0.4-0.4,1.3-0.7c5.5-1.7,9.9-4.7,13.1-8.2c-2.1-2.5-3.7-5.3-4.6-8.5c-1.7,2.2-3.5,4.3-5.3,5.8
			c1,0.8,2.9,2.5,2.9,3.5c0,0.8-0.8,1.3-2.4,1.4c-1.8,0.1-4.4,3.1-6.4,4.3c-0.2,0.1-0.4,0.2-0.4,0.2s-0.1,0-0.1-0.1
			c0-0.1,0-0.2,0.1-0.5c0.8-1.6,2.2-4.6,2.2-5.6c0-0.5-0.1-0.6-0.3-0.6h-3.8c0.8,0.2,1.3,0.3,1.3,0.8c0,0.3-0.3,0.6-0.8,0.8
			c-0.6,0.3-0.9,3.1-0.9,8.5c0,3.5,0.1,7.4,0.2,10c0.1,1.5,0.2,4.9,0.2,6v0.1c0,4.7-5.5,5.6-6.4,5.6c-0.5,0-1-0.2-1.3-0.9
			c-0.8-1.6-5.6-3.8-5.6-4.3c0-0.1,0.1-0.1,0.2-0.1c0.1,0,0.3,0,0.6,0.1c2.2,0.4,4,0.6,5.4,0.6c1.7,0,2.8-0.4,2.8-1.7
			c0.1-3.5,0.2-8,0.2-12.1v-4c-4.7,8.4-12.8,14-14.2,14c-0.1,0-0.1,0-0.1-0.1c0-0.2,0.3-0.5,1-1.1c4.3-3.8,11.7-15.1,13.1-21.4
			c0-0.3,0-0.6-0.1-0.8c-2.5,0.1-5.6,0.2-8.9,0.6h-0.1c-0.9,0-2.6-2.2-2.6-3c4.8,0.8,10.8,0.9,13.4,0.9h6.1c0.2,0,0.7-0.2,0.9-0.4
			c0.2-0.3,1.4-1.5,2.1-1.5c0.1,0,0.2,0,0.2,0.1c0.2,0.1,0.4,0.2,0.5,0.3c2.5-3.3,6.8-12.1,7.2-16.6c0.1-0.5,0.1-0.7,0.2-0.7
			c0.6,0,5.9,1.8,5.9,2.9c0,0.4-0.5,0.8-1.5,1c-0.7,0.1-0.7,0.2-1.1,0.8c-0.7,1.2-1.6,2.6-2.7,4.2H326c0.2,0,0.5-0.2,0.7-0.5
			c0.5-0.7,2.2-3.3,2.8-3.3s5,3.1,5,4.6c0,0.3-0.2,0.6-1.1,0.6h-7.7c2.8,1.1,3.1,1.3,3.1,1.9c0,0.4-0.5,0.8-1.1,0.8h-0.1
			c-0.5,0-0.8,0.1-1.1,0.8c-1.3,2.5-2.6,4.7-4.3,6.5c3.8,2.4,8.8,4.1,15,4.8C337.4,122.1,337.6,122.2,337.6,122.2L337.6,122.2z
			 M307.8,102.9c0,0.7-0.8,1-1.9,1.3c-0.7,0.1-1.3,0.3-2.3,1c-1.2,0.8-3.4,2.6-5.4,4l0.5,0.4c1.1,0.8,1.6,1.9,1.6,2.8
			c0,1.3-0.9,2.4-2.1,2.4c-0.8,0-1.7-0.5-2.6-1.7c-1.7-2.3-3.9-3.8-5.3-4.7c-0.3-0.2-0.4-0.3-0.4-0.4c0-0.2,0.5-0.2,1.1-0.2
			c1.6,0,4.1,0.2,6.1,1c1.3-2.2,2.9-5,3.1-5.8c0.1-0.1,0.1-0.2,0.1-0.4s-0.1-0.2-0.4-0.2h-3.2c-1.7,0-6.5,0.1-9.2,0.5h-0.1
			c-0.7,0-2.5-2.2-2.5-2.9c4.4,0.8,10.1,0.8,11.9,0.8h3.1c0.4,0,0.7-0.1,1-0.4c0.4-0.3,1.1-1.1,1.4-1.4c0.2-0.2,0.4-0.2,0.5-0.2
			C303.4,98.7,307.8,101.3,307.8,102.9L307.8,102.9z M332.6,132.2c0,0.5-0.4,0.9-1.3,1.3c-1,0.4-1.1,0.5-1.2,1.5
			c-0.8,10.2-5,14.2-10.4,14.2c-1.4,0-1.8-0.2-2-0.8c-0.5-1.4-4.1-3.6-5.5-4.6c-5.5,5-13.3,6.4-14.8,6.4c-0.3,0-0.5-0.1-0.5-0.2
			c0-0.2,0.6-0.5,1.4-0.8c8.5-2.5,14.1-8.9,16.3-16.9c-2.5,0.1-5.3,0.2-8.8,0.6h-0.1c-1.1,0-2.9-2.3-2.9-3.1
			c4.5,0.7,8.9,0.8,12.1,0.9c0.5-2.3,0.6-4.9,0.6-5.8c0-0.6,0-1.1-0.1-1.7V123c0-0.1,0-0.1,0.1-0.1c0.5,0,6.6,0.9,6.6,2.2
			c0,0.4-0.4,0.7-1.1,1c-1.1,0.4-1.1,0.4-1.3,1.7c-0.2,1-0.4,2-0.6,2.9h6.2c0.5,0,0.7-0.2,0.8-0.5c1.4-1.6,1.6-1.6,1.6-1.6
			C329,128.7,332.6,131.1,332.6,132.2L332.6,132.2z M325.5,132.2H319c-1.3,4.6-3.4,8.3-6.4,11.2c2.8,0.7,5.2,1.4,7.1,1.4
			s3.5-0.7,4.7-2.9c1.2-2.3,1.9-6.1,2-8.8C326.3,132.6,326.2,132.2,325.5,132.2L325.5,132.2z M313.6,107.3l-0.2,0.3
			c1.2,2.7,3.1,5.2,5.6,7.4c2.4-3.3,3.3-5.9,3.6-7.7L313.6,107.3L313.6,107.3z"/>
		<path d="M346.4,133.9c0-2.1,0.2-4.1,0.6-6.1c0.8-4.1,2-7.8,2.7-11.3c0.3-1.5,0.4-2.9,0.4-4.1c0-2.6-0.5-4.6-1.1-5.7
			c-0.4-0.7-0.8-1.2-0.8-1.5s0.3-0.4,1.2-0.4c1.9,0,5,2.6,5,7.1c0,2-0.7,4-1.7,6.5c-1.5,3.7-3.3,8.2-3.3,12.3c0,1.4,0.4,3.7,0.9,3.7
			c0.2,0,0.4-0.3,0.7-0.9c1.5-3.2,5.6-11.2,6.2-11.2c0.1,0,0.1,0.1,0.1,0.2c0,0.2-0.1,0.7-0.4,1.4c-0.8,2-4.1,10.6-4.1,15.7
			c0,1.3,0.2,2.3,0.4,3.2c0.1,0.4,0.2,0.8,0.2,1.2c0,1.5-0.9,2.4-1.9,2.4C347.3,146.5,346.4,136.9,346.4,133.9L346.4,133.9z
			 M383.1,138c2.3,0,3.6,1.1,3.6,2.3c0,3.7-8.5,3.8-9.5,3.8c-10.3,0-13.6-5.3-13.6-8.3c0-0.4,0.1-0.6,0.2-0.6c0.3,0,0.7,0.4,1.3,1.2
			c1.2,1.7,5.2,2.9,9.7,2.9c1.2,0,2.4-0.1,3.6-0.2c1.4-0.2,2.4-1,4.4-1L383.1,138L383.1,138z M373.9,116.6c-9,0-9.5-5.4-9.5-5.8
			c0-0.2,0.1-0.2,0.2-0.2s0.6,0.2,1.1,0.5c1.7,1,3.9,1.4,6.1,1.4c1.7,0,3.4-0.2,5-0.6c0.8-0.2,1.4-0.6,2.2-0.7
			c0.4-0.1,0.8-0.1,1.1-0.1c1.9,0,3.1,1,3.1,2.1C383.4,116.1,376.9,116.6,373.9,116.6z"/>
		<path d="M79.1,208.5v0.2c0,1.2-1.1,2.3-2.5,2.3c-1,0-1.9-0.6-1.9-1.9v-0.4c0.4-3.8,0.7-10.9,0.7-13.2v-0.8c-4.3,4.8-7.6,6.6-8,6.6
			c-0.1,0-0.1,0-0.1-0.1s0.2-0.4,0.7-0.9c1.2-1.2,2.5-2.8,3.8-4.6H65C65,199,65,202.6,65,206.1c2.9-1.1,5.6-2.2,7.7-3.1
			c0.6-0.2,1-0.4,1.1-0.4c0.1,0,0.2,0.1,0.2,0.1c0,0.7-4.9,3.9-9.1,6.7c0,3.4,0.1,6.8,0.1,9.7c0,1.6,0.2,5.6,0.2,7.1
			c0,4.8-4,6.4-6.4,6.4c-0.5,0-0.8-0.2-1.2-0.8c-1.1-1.9-5.1-4.3-5.1-4.8c0-0.1,0.1-0.1,0.2-0.1c0.1,0,0.3,0,0.5,0.1
			c2,0.4,3.5,0.7,4.6,0.7c2,0,2.8-0.8,2.9-2.5c0.1-3.7,0.1-8.6,0.2-13.7l-4.8,2.8c-0.5,0.2-0.6,1-1.1,1c-1.2,0-4.3-5-4.3-5
			c0-0.1,0.2-0.1,0.6-0.1c2.1-0.2,3.1-0.4,9.5-2.5v-11.6c-1.9,0.1-4.2,0.2-6.7,0.5h-0.1c-0.7,0-2.5-2.2-2.5-2.9
			c3.2,0.5,6.6,0.7,9.2,0.8c-0.2-9.6-0.3-10.5-0.8-13.3c-0.1-0.2-0.1-0.2-0.1-0.4s0.1-0.2,0.2-0.2c0.5,0,7.5,1,7.5,2.4
			c0,0.5-0.6,1-1.3,1.4c-1.1,0.6-1.1,0.4-1.3,2.5c-0.1,1.9-0.2,4.5-0.2,7.6h0.5c0.2,0,0.5-0.2,0.7-0.5c1.7-2.9,1.9-3.1,2.4-3.1
			c0.1,0,0.2,0,0.2,0.1c1.3,0.6,2.8,2.2,3.5,3.8c0,0.1,0.1,0.1,0.1,0.1c1.6-2.5,5.8-9.2,6.4-13c0.1-0.4,0.1-0.5,0.2-0.5
			c0.7,0,5.9,2.3,5.9,3.5c0,0.5-0.7,0.9-1.7,1c-0.9,0.1-1.1,0.2-3.2,3.5l0.4,0.1l0.3,0.2h6.1c0.6-2,1.1-4.6,1.1-7.9
			c0-0.4,0-0.5,0.2-0.5c0.2,0,6.4,1.9,6.4,3.2c0,0.5-0.6,1-1.7,1.1c-0.5,0.1-0.7,0.3-1,0.7c-1.1,1.3-2.1,2.5-3.2,3.4h6.7
			c0.2,0,0.5-0.2,0.7-0.5c0.7-1.2,2.2-2.9,2.8-2.9c0.7,0,4.8,2.8,4.8,4.1c0,0.4-0.2,0.7-1.1,0.7H91c0.7,0.4,0.8,0.4,0.8,0.6
			c0,0.3-0.4,0.7-1.2,1c-0.4,0.1-0.5,1-0.5,1.6c0,0.4-0.1,0.8-0.1,1.3h3.5c0.2,0,0.6-0.2,0.8-0.5c0.8-1.2,2-2.2,2.3-2.2
			c0.8,0,4.4,2.3,4.4,3.5c0,0.3-0.2,0.6-1.1,0.6H90c0,1.3-0.1,2.7-0.1,4.1h3.7c0.2,0,0.6-0.2,0.8-0.5c0.6-0.8,1.3-1.5,1.9-2
			c0.1-0.1,0.3-0.2,0.5-0.2c0.8,0,4.3,2.2,4.3,3.4c0,0.4-0.2,0.7-1.1,0.7h-10c0,1.7,0.1,3.4,0.1,4.9h6c0.2,0,0.6-0.2,0.8-0.5
			c0.1-0.1,2-2.9,2.8-2.9s4.9,2.6,4.9,4.1c0,0.4-0.2,0.7-1.1,0.7L79.1,208.5L79.1,208.5z M90.1,233.7c-0.7,0-1-0.4-1.3-0.8
			c-0.8-1.6-5.9-4.1-5.9-4.4H83c0.1,0,0.2,0,0.5,0.1c2.5,0.8,4.8,1.2,6.8,1.2c2.5,0,4.6-0.7,5.7-2.3c1.7-2.4,2.2-6.4,2.2-6.5
			c0-0.4-0.2-0.6-0.5-0.6h-5.4l-0.7,2.3c-0.4,1.2-1.6,1.7-2.6,1.7c-1,0-1.8-0.5-1.8-1.3c0-0.2,0.1-0.5,0.2-0.8
			c1.1-2.6,2.5-6.7,2.5-7.5c0-0.2-0.2-0.4-0.5-0.4h-6.2c1.7,0.4,2.2,0.5,2.2,0.9c0,0.2-0.2,0.5-0.7,0.7c-0.7,0.2-0.8,0.1-1.2,1.7
			c-4.1,16.1-20.1,16.3-21.1,16.3c-0.4,0-0.6-0.1-0.6-0.2s0.5-0.4,1.2-0.5c10.3-2.5,16.4-10.9,16.4-18.9c-2.5,0.1-5,0.2-7.6,0.4
			h-0.1c-0.9,0-2.5-2-2.5-2.8c5.7,0.7,12.6,0.8,14.7,0.8h5.2c0.3,0,0.7-0.2,0.9-0.5c0.4-0.4,0.9-1,1.3-1.3c0.2-0.2,0.3-0.2,0.5-0.2
			c0.5,0,4.6,2.1,4.6,3.5c0,0.6-0.8,0.9-1.4,1.1c-1.4,0.5-1.4,0.5-2.2,3.2h4.7c0.4,0,0.8-0.1,1-0.4c0.7-0.9,1.6-1.3,1.7-1.3
			c1,0,4.3,2.2,4.3,3.1c0,0.5-0.5,1-1.4,1.4c-0.5,0.2-0.9,0.3-1,1c-1.2,5.2-3,11.2-11.2,11.2L90.1,233.7L90.1,233.7z M86.4,196.7
			h-7.3c-0.1,1.3-0.1,2.7-0.1,4.1h7.3V196.7z M79.1,202.3c0,1.7,0.1,3.4,0.1,4.9h7.1c0.1-1.2,0.1-3,0.1-4.9H79.1z M80.7,190.9
			l-0.7,0.4c-0.4,0.1-0.8,0.5-0.8,4.1h7.2c0-1.4-0.1-3-0.3-4.4C86.1,190.9,80.7,190.9,80.7,190.9z"/>
		<path d="M128.2,210c6.1-6.3,12.2-8.8,17.3-8.8c8,0,13.7,6,13.7,11.9c0,12.9-19.3,19-22.6,19c-0.2,0-0.3-0.1-0.3-0.1
			c0-0.2,0.7-0.5,2.2-1.2c5.5-2.3,15.8-8.9,15.8-17.4c0-6.6-6.2-9.4-10.8-9.4c-7.4,0-12.5,5.1-15.9,8.5c-0.2,3.2-0.2,5.3-0.2,5.5
			c0,3.5,0.5,7.1,1.3,10.1c0.2,0.8,0.2,1.4,0.2,2c0,1.9-0.8,2.9-1.7,2.9c-1.1,0-2.5-1.5-2.8-4.7c-0.2-2.3-1.4-5.6-2.6-8
			c-1.3,2.8-1.9,4.7-2.3,6.1c-1,2.8-2.9,4.3-4.1,4.3c-0.7,0-1.3-0.5-1.3-1.6c0-1.1,0.6-3.7,6.2-11.8c-1.2-2.2-2.6-4.2-3.5-5.1
			c-1-1-1.4-1.8-1.4-2.6s0.5-1.4,1.6-1.9c1.4-0.6,2.4-1.4,3.2-2.2c2.1-2.2,4.7-4.1,7.1-5.6c0.1-1,0.1-1.9,0.1-2.7
			c0.1-1.1,0.1-2.1,0.1-2.9c0-4.7-0.9-5.9-3.8-7.8c-0.5-0.3-0.8-0.5-0.8-0.7c0,0,0.8-1.1,2.3-1.1c0.8,0,5.3,0.4,5.3,6.1
			c0,1.1-0.8,6.7-1,7.9h0.4c2.5,0,3.4,0.7,3.4,1.7c0,1.3-1.3,3.1-2.6,4.9c-0.8,1.1-1.7,2.5-2.7,4l-0.1,1L128.2,210L128.2,210z
			 M121.8,215.3c1.5-1.9,3.2-4.4,4.6-6.8c0.2-2.1,0.4-4.2,0.6-6.1c-1.8,1.3-3.4,3.3-4.4,5.6c-0.8,1.8-1.6,2.3-3.5,2.6
			c-0.5,0.1-0.7,0.2-0.7,0.5c0,0.5,0.8,1.9,2.6,5.2C121,216.4,121.8,215.3,121.8,215.3z M122.5,219c1.9,3.2,2.2,3.6,2.5,3.6
			c0.1,0,0.2-0.1,0.2-0.5c0-2.6,0.3-5.2,0.5-7.7c-1,1.3-2,2.6-3,4L122.5,219L122.5,219z M128.5,204.8c1.1-2,1.1-2.5,1.1-2.5
			c0-0.4-0.1-0.7-0.5-0.8L128.5,204.8L128.5,204.8z"/>
		<path d="M203.8,216.9c0,3.7,2,5.5,4.9,5.5c2.6,0,6.1-1.6,9.2-4.8c1.5-1.5,2.2-2,2.5-2c0.1,0,0.1,0,0.1,0.1c0,1-5.5,10.9-14,10.9
			c-4.1,0-7.3-2.8-7.3-8.8c0-0.6,0-1.2,0.1-1.8c0.4-4,2.4-8,3.3-12.2c0.2-1.3,0.4-2.4,0.4-3.4c0-3.1-1.3-4.7-3.7-4.7
			c-2.9,0-9.8,2.9-16.9,11.8c-0.4,3.9-0.6,5.5-0.6,8.5c0,3.7,0.4,7.3,1.4,10.5c0.4,1.1,0.5,2,0.5,2.8c0,1.9-0.8,2.9-1.9,2.9
			c-1.4,0-3.1-1.8-3.1-5.4c-0.1-1.5-1.4-5.5-2.4-8.5c-0.6,1.6-1.1,3.2-1.4,4.9c-0.7,3.1-2.6,4.9-4,4.9c-0.7,0-1.3-0.5-1.3-1.8
			c0-2.6,1.7-5.8,5.4-11.6c-1.1-2.5-2.1-4.9-3.4-7.3c-0.5-0.9-0.7-1.7-0.7-2.5c0-1,0.4-1.9,1.2-2.5c2.3-1.8,8-3.4,9.1-3.6l0.1-0.5
			c0.2-1.7,0.4-3.7,0.4-5.5c0-5.3-2-6.4-3.3-6.6c-1.1-0.2-1.7-0.6-1.7-1c0-0.5,1.4-1.4,2.8-1.4c2.8,0,5.6,3.4,5.6,6.7
			c0,1.2-0.2,2.6-0.6,4.3c-0.3,1.3-0.6,2.6-0.8,3.7h0.1c1.9,0.1,2.5,0.8,2.5,1.8c0,0.3-0.1,0.7-0.2,1.1c3.2-3,8.6-7.6,14-7.6
			c3.9,0,6.5,2.7,6.5,7.7c0,0.8-0.1,1.7-0.2,2.6c-0.7,4.3-2.5,8.5-2.7,12.5L203.8,216.9L203.8,216.9z M180.8,202.9
			c-0.1-0.1-0.3-0.1-0.4-0.1c-1.5,0-5.1,1-6.3,1.9c-0.5,0.4-0.7,1-0.7,1.6c0,0.3,0.1,2.6,2.3,7.1c1.3-1.9,3.9-6.4,5-9.1L180.8,202.9
			L180.8,202.9z M177.1,216.4c0.1,0.2,1.9,3.7,2.3,3.7c0.1,0,0.2-0.3,0.2-1c0-2.2,0.2-5.2,0.5-8.3
			C178.7,212.7,178.3,213.6,177.1,216.4L177.1,216.4z"/>
		<path d="M238.8,208.6c0.1,0,0.1-0.1,0.3-0.2c2.7-1.7,6.1-2.7,9.4-2.7c7.7,0,12.5,5.4,12.5,11.2s-5.5,13.7-16.6,13.7
			c-5.8,0-9.7-2.9-9.7-6.1c0-2.9,3-4.5,5.9-4.5c4,0,6.4,3.1,6.4,6.2c0,0.5-0.1,1-0.2,1.5c7-1.7,9.7-6.5,9.7-10.7c0-4.7-3.4-9-9.4-9
			c-2.1,0-9.1,0.5-13.1,9.1c-1.4,3.1-2.4,5-4.4,5c-1.1,0-1.9-0.8-1.9-2c0-1.7,2.2-4.3,5-7.5c3.6-4.1,12.1-15.5,14.6-19.7
			c0.3-0.4,0.4-0.8,0.4-1.1c0-0.4-0.2-1-1.5-1c-2.8,0-4.1,5.8-8.2,5.8c-2.2,0-4-1.4-4-3.7c0-0.7,0.1-1.2,0.5-1.2
			c0.3,0,0.7,0.1,1.1,0.3c0.5,0.2,1,0.2,1.4,0.2c0.8,0,1.7-0.2,2.5-0.8c2.3-1.6,5.1-3.6,8.3-3.6c3.5,0,5.7,2.5,5.7,3.8
			c0,1.2-1.3,2.3-2.6,3.2C246.6,198,238.8,208.4,238.8,208.6L238.8,208.6L238.8,208.6z M243.4,225.9c0-2.1-1.6-3.9-3.8-3.9
			c-2.6,0-2.7,2-2.7,2.3c0,0.2,0,3.1,6,3.7C243.2,227.3,243.4,226.6,243.4,225.9L243.4,225.9z"/>
		<path d="M323,215.8c0,0.4-0.3,0.8-1.3,0.8h-31.4c-3.3,0-12.1,0.1-17.3,0.6h-0.1c-1.1,0-2.9-2.3-2.9-3c6.1,0.7,16.9,0.9,20.3,0.9
			c-0.5-0.4-0.9-0.9-1.1-1.7c-0.4-1.4-1.6-3.3-2.5-4.4c-0.3-0.3-0.4-0.5-0.4-0.6c0-0.1,0.1-0.1,0.3-0.1c4.5,0,7.4,2.3,7.4,4.6
			c0,1-0.5,1.8-1.2,2.2h5.9c0.9-1.8,1.9-4.3,2.2-7.1c0.1-0.5,0-0.6,0.2-0.6c1,0,6.3,3,6.3,3.9c0,0.4-0.5,0.7-1.4,0.7h-0.6
			c-0.5,0-0.8,0.3-1.4,0.7s-2.3,1.6-3.6,2.4h12.4c0.4,0,0.7-0.2,0.9-0.5c2.6-3.3,2.8-3.5,3.3-3.5c0.2,0,0.4,0,0.5,0.1
			C319.6,211.9,323,214.5,323,215.8L323,215.8z M321.8,187.1c0,0.4-0.2,0.7-1.3,0.7h-21.9v4.9h7.3c0.4,0,0.8-0.2,1-0.5
			c0.7-1.1,2.6-3.4,3.3-3.4c1.5,0,5.5,3.3,5.5,4.6c0,0.4-0.2,0.7-1.2,0.7h-19.1c-3.2,0-10,0.1-15.2,0.6h-0.1c-1.1,0-2.8-2.3-2.8-3
			c5.3,0.7,12.9,0.8,16.9,0.9v-4.9h-2.6c-3.2,0-11.9,0.1-17,0.6h-0.1c-1.1,0-2.8-2.3-2.8-3c5.9,0.7,16.9,1,20.2,1h2.3
			c-0.1-2.5-0.1-3.7-0.7-6.2c-0.1-0.2-0.1-0.4-0.1-0.4s0.1-0.1,0.1-0.1c0.5,0,7.7,0.9,7.7,2.3c0,0.4-0.4,0.9-1.1,1.3
			c-1.1,0.6-1.4,0.2-1.4,2.4c0,0.2-0.1,0.5-0.1,0.8h12.8c0.4,0,0.8-0.2,1-0.5c1-1.3,2.8-3.8,3.5-3.8
			C317.3,182.1,321.8,185.7,321.8,187.1L321.8,187.1z M314.2,222.2c0,0.5-0.5,0.9-1.3,1.3c-1,0.5-1.2,0.7-1.2,2.3
			c0,1.3,0.3,3.9,0.4,5.7v0.1c0,1.5-1.8,2-2.8,2c-1.1,0-2-0.5-2-1.6v-1.9h-22.2c0,0.8,0.1,1.5,0.1,2v0.1c0,1.3-1.7,1.9-2.9,1.9
			c-1.1,0-2.1-0.5-2.1-1.6v-0.2c0.3-2.4,0.5-6.4,0.5-7.7c0-0.7-0.2-3.9-0.7-5.6c-0.1-0.2-0.1-0.2-0.1-0.3c0-0.1,0-0.1,0.1-0.1
			c0.1,0,3.5,0.8,6.3,2.5h0.1c0,0,0.1,0,0.1,0.1h19.6c0.3,0,0.5,0,0.8-0.3c0.4-0.5,1-1.3,1.4-1.6c0.2-0.2,0.5-0.3,0.8-0.3
			C310.1,218.8,314.2,221.2,314.2,222.2L314.2,222.2z M312.9,199.6c0,0.5-0.5,0.8-1.3,1.3c-1.1,0.7-1.1,1-1.1,2.1s0.3,2.5,0.4,3.8
			v0.1c0,1.2-1.3,2-2.6,2c-1,0-2-0.5-2-1.6v-0.7H286c0,0.4,0.1,0.7,0.1,1v0.1c0,0.8-0.9,1.9-2.7,1.9c-1.1,0-2-0.5-2-1.6v-0.2
			c0.3-2.4,0.4-4.9,0.4-6.2c0-0.7-0.2-3.5-0.6-5.2c-0.1-0.2-0.1-0.2-0.1-0.3c0-0.1,0.1-0.2,0.1-0.2c0.3,0,4.3,1.3,6,2.4h0.1
			c0,0,0.1,0,0.1,0.1h17.8c0.3,0,0.5-0.1,0.8-0.4c0.4-0.5,0.9-1.1,1.3-1.4c0.2-0.2,0.4-0.3,0.7-0.3
			C308.5,196.2,312.9,198.2,312.9,199.6L312.9,199.6z M307.3,223.1c0-0.4-0.3-0.6-0.8-0.6h-20.2c-0.1,0.1-0.3,0.2-0.5,0.4
			c-0.7,0.4-0.8,0.5-0.8,3.1c0,0.8,0.1,1.7,0.1,2.6h22.3C307.3,226.6,307.3,224.4,307.3,223.1L307.3,223.1z M306.3,200.4
			c0-0.4-0.4-0.6-0.8-0.6h-18.4c-0.1,0.1-0.3,0.2-0.5,0.3c-0.5,0.4-0.8,0.5-0.8,3c0,0.6,0.1,1.3,0.1,2h20.4L306.3,200.4L306.3,200.4
			z"/>
		<path d="M365.2,190.5c0,5.8,3.1,12.7,9.4,16.1c1.7,0.9,2.3,2.2,2.3,3.4c0,1.3-0.8,2.3-2.2,2.3c-3.6,0-8.9-7.7-10.5-14.5
			c-0.1-0.3-0.1-0.4-0.2-0.4s-0.1,0.3-0.1,0.7c0,0.7,0.1,1.6,0.1,2.6c0,11.8-1.3,18.7-5.3,23.2c-3.6,4.1-8.6,6.8-13.3,6.8
			c-9.9,0-11.3-11.3-11.3-14.5c0-4.7,1.6-9.1,3.5-13.4c1.7-3.8,3.8-7.1,4.9-9c0.1-0.1,0.1-0.2,0.1-0.2s0-0.1-0.1-0.1
			c-0.1,0-0.2,0.1-0.4,0.1c-1.4,0.7-2.7,1-3.7,1c-2.3,0-3.4-1.5-3.4-3c0-1.4,0.9-2.5,1.4-2.5c0.2,0,0.4,0.5,0.7,0.8
			c0.4,0.5,1.3,0.7,2.5,0.7c1.6,0,4.6-0.8,5.6-1.5c1.6-1,3.1-1.5,4.4-1.5c2.3,0,3.5,1.4,3.5,2.3c0,0.7-0.6,1.4-2,1.6
			c-0.7,0.1-2.1,0.4-3,0.8c-3.4,1.4-10.6,13-10.6,22.6c0,6.1,2.8,11.2,8.5,11.2c3.6,0,7.5-1.9,10.3-4.6c2.7-2.5,4-5.7,4.8-9.5
			c0.7-3.8,1.3-14.2,1.3-15.2c0-3-1.4-6.2-1.4-9.1c0-3.8,1.5-4,2-4c1.1,0,2.2,1.5,2.2,3.1c0,1.1-0.1,2.2-0.1,3.3L365.2,190.5
			L365.2,190.5z M372.7,192.6c-1.4-1.9-3.4-3.4-4.9-4.4c-0.5-0.3-1-0.5-1-0.7c0-0.3,1.8-0.3,1.9-0.3c2.7,0,7.4,1.2,7.4,4.3
			c0,1.2-0.8,2-1.8,2C373.9,193.6,373.3,193.3,372.7,192.6L372.7,192.6z M378.4,189c-1.6-1.7-3.5-3.1-5.2-3.9c-0.5-0.2-1-0.5-1-0.7
			c0-0.4,1.8-0.5,2.7-0.5c3,0,6.8,1.2,6.8,4c0,1.1-0.7,2-1.7,2C379.6,189.8,379,189.6,378.4,189L378.4,189z"/>
	</g>
</g>
</svg>
