<?xml version="1.0" encoding="UTF-8"?>
<svg id="_レイヤー_2" data-name="レイヤー 2" xmlns="http://www.w3.org/2000/svg" viewBox="0 0 498 250">
  <g id="_デザイン" data-name="デザイン">
    <rect width="436" height="80" fill="#fff"/>
    <rect y="85" width="314" height="80" fill="#fff"/>
    <rect y="170" width="498" height="80" fill="#fff"/>
    <g>
      <path d="m81.54,62.45c0,1.56-1.5,2.76-3.18,2.76-1.26,0-2.34-.66-2.34-2.16v-.06c0-.96.06-1.98.06-3h-20.76v2.88c0,1.08-1.08,2.64-3.18,2.64-1.2,0-2.22-.66-2.22-2.16v-.24c.48-6.72.6-14.64.6-22.02,0-18-.66-22.68-1.02-24.24,0-.12-.06-.24-.06-.36s.06-.18.18-.18c.42,0,5.28,1.86,7.02,3.06l.24.24h17.94c.3,0,.66-.24.84-.54.72-1.08,1.98-2.28,2.4-2.28.6,0,6,2.94,6,4.44,0,.66-.72,1.2-1.74,1.62-.96.42-1.2.6-1.26,1.8-.12,1.5-.12,4.08-.12,7.38,0,8.94.3,22.62.6,30.3v.12Zm-24.9-41.22l-.48.36c-.84.54-.9,1.02-.9,2.4-.06,2.46-.06,7.86-.06,14.22h21.06c0-6.6-.06-12.48-.18-16.02,0-.6-.36-.96-.9-.96h-18.54Zm-1.44,18.6c0,6,0,12.66.06,18.54h20.88c.06-5.94.12-12.48.12-18.54h-21.06Z" fill="#003383"/>
      <path d="m148.56,52.37c0,.54-5.76.9-7.74,2.52-.3.24-.54.36-.84.36-2.1,0-14.1-12.84-18.36-26.88v3.54c0,5.52.06,11.94.18,18.06h1.2c.48,0,.84-.24,1.14-.66,2.1-3.12,2.22-3.3,2.58-3.3,1.2,0,4.98,3.78,4.98,4.68,0,.42-.3.78-1.2.78h-8.7c.06,4.38.18,8.58.3,12.24v.06c0,1.98-2.34,2.46-3.12,2.46-1.2,0-2.28-.6-2.28-2.1v-.24c.24-3.42.42-7.74.54-12.42-2.46.06-6.6.24-8.58.48-1.32,0-2.34-2.04-2.34-2.64,2.22.42,7.14.66,10.92.66.12-5.4.18-11.22.18-16.32-9.6,17.22-25.38,24.3-26.76,24.3-.06,0-.12,0-.12-.06,0-.18.42-.48,1.14-1.02,6.6-4.5,16.62-14.7,23.58-28.8h-1.26c-3.36,0-11.76.12-17.1.66h-.06c-1.08,0-2.7-2.34-2.7-3.12,6.18.72,16.62.96,20.1.96h3.12c0-3.54,0-10.86-.78-14.22-.06-.18-.06-.3-.06-.42s.06-.18.18-.18c.9,0,7.92,1.08,7.92,2.52,0,.48-.54.96-1.44,1.44-1.08.6-1.02.6-1.2,2.16-.18,1.68-.24,4.74-.3,8.7h12.18c.42,0,.84-.24,1.02-.54,2.76-4.14,3-4.26,3.6-4.26.12,0,.24,0,.36.06,1.32.48,5.7,4.08,5.7,5.52,0,.36-.3.72-1.32.72h-20.7c4.62,8.88,14.46,20.22,25.62,24.06.3.12.42.18.42.24Z" fill="#003383"/>
      <path d="m173.88,28.31c0,.3-.24.66-1.08.66h-7.02v3.72c3.54,0,7.26,1.08,7.26,4.02,0,1.26-.96,2.34-2.1,2.34-.66,0-1.44-.42-2.1-1.44-.9-1.38-1.8-3.06-3.06-4.02,0,10.8.18,24,.36,30.06v.12c0,1.26-1.08,2.4-2.76,2.4-1.08,0-2.04-.6-2.04-2.16v-.12c.24-5.7.42-15.06.54-23.94-4.32,7.74-10.68,11.16-11.16,11.16q-.06,0-.06-.06c0-.12.24-.54.9-1.2,3-3,9.3-13.44,10.38-19.92v-.9c-1.68.06-3.48.12-6.18.48h-.06c-.72,0-2.4-2.22-2.4-2.88,3.42.54,6.36.78,8.64.84,0-2.76-.24-11.94-.72-14.46-.06-.18-.06-.3-.06-.42s.06-.18.18-.18c0,0,7.14.9,7.14,2.4,0,.42-.48.78-1.2,1.2-.9.48-1.14.54-1.26,2.04-.12,1.68-.24,5.1-.24,9.42h.54c.18,0,.6-.18.78-.48.48-.84,1.86-3.24,2.58-3.24,1.32,0,4.2,3.66,4.2,4.56Zm35.28,8.28c0,.36-3.9.96-5.52,2.28-.3.24-.54.36-.78.36-.06,0-2.64-.66-6.42-5.88-.6.42-.6.72-.6,1.68,0,1.02.24,2.82.3,3.9v.06c0,1.2-1.32,1.8-2.22,1.8-.84,0-1.62-.42-1.62-1.44v-.84h-8.16c0,.36.06.72.06.96v.06c0,1.08-1.38,1.62-2.28,1.62s-1.68-.42-1.68-1.32v-.24c.24-1.74.36-4.86.36-6v-.24c-4.8,4.92-9.72,7.8-10.86,7.8-.12,0-.18,0-.18-.06,0-.18.42-.6,1.26-1.26,3.96-3.12,8.46-8.28,11.46-13.74l-6.84.42h-.06c-1.02,0-2.76-2.1-2.76-2.82,4.2.48,7.5.6,10.5.72.96-1.92,1.14-2.52,1.68-4.08-3.6.36-7.32.6-10.14.6-2.1,0-3.18-.18-3.18-.36,0-.12.48-.3,1.5-.36,6.3-.54,19.62-3.78,22.02-6.18.18-.18.24-.3.36-.3.36,0,4.5,3.36,4.5,4.5,0,.42-.36.66-1.02.66-.36,0-.72-.06-1.2-.18-.24-.06-.48-.12-.78-.12s-.6.06-.84.12c-1.44.36-3.6.72-6.12,1.08h.12s.06,0,.06.06c.54.3.96.72.96,1.14,0,.36-.42.72-1.5.84-.66.06-.54.18-.9.84l-1.08,1.86h9.78c.3,0,.66-.18.84-.48,1.92-2.64,2.52-3.18,2.94-3.18.3,0,4.86,2.64,4.86,4.38,0,.36-.24.72-1.2.72h-11.22c2.64,4.2,9.12,9.12,15.24,10.44.24.06.36.12.36.18Zm-3.6,7.86c0,.42-.36.72-1.02,1.08-1.32.72-1.32.9-1.32,4.98,0,1.26.06,2.76.06,4.2,0,1.08.18,3.66.18,4.68v.12c0,4.02-3.12,6-6.36,6.12-.78,0-1.02-.12-1.5-.78-.9-1.26-6.18-3.54-6.18-3.96,0-.06.06-.12.24-.12.12,0,.24.06.42.06,2.58.36,4.44.6,5.82.6,2.58,0,3.36-.72,3.42-2.4.06-1.56.12-4.02.12-6.6s-.06-5.22-.12-7.2c0-.42-.24-.78-.84-.78h-19.56l-.3.24c-.78.54-.78,1.02-.78,9.78,0,3.3,0,6.9.06,9.72v.06c0,1.26-1.26,2.04-2.52,2.04-1.02,0-1.92-.54-1.92-1.68v-.12c.36-5.22.48-11.04.48-14.64v-2.28c0-.78-.12-4.62-.6-6.66,0-.12-.06-.24-.06-.3,0-.18.06-.18.18-.18.3,0,2.76.78,5.28,2.4l.18.12h19.74c.24,0,.54-.18.78-.48.36-.42.72-1.08,1.14-1.38.18-.12.3-.24.48-.24.6,0,4.5,2.4,4.5,3.6Zm-9.36,4.98c0,.42-.36.72-.9,1.02-.9.54-.9.42-.9,1.44,0,.96.18,3.3.3,4.62v.18c0,1.2-1.14,1.8-2.1,1.8-.84,0-1.56-.48-1.56-1.5v-.9h-5.52v1.92c0,1.02-1.02,1.74-2.16,1.74-.84,0-1.56-.42-1.56-1.38v-.24c.18-1.68.36-4.68.36-6.78,0-.66-.06-2.76-.42-4.5v-.18c0-.24.06-.3.24-.3.6,0,3.66,1.26,4.5,1.8.06,0,.12.06.12.06h3.54c.24,0,.48-.06.66-.36.6-1.08,1.32-1.44,1.56-1.44.06,0,3.84,1.5,3.84,3Zm-3.72-23.46h-5.82c-.96,1.44-2.04,2.82-3.12,4.14l1.62.9c.06,0,.06.06.12.06h6.12c.24,0,.42-.06.66-.3,1.08-1.32,1.5-1.32,1.56-1.32.12,0,.24,0,.42.12-.66-1.26-1.2-2.46-1.56-3.6Zm-.18,7.14c0-.36-.24-.6-.66-.6h-6.66l-.3.18c-.6.36-.54.48-.6,1.26v3.12h8.28c0-1.44,0-3-.06-3.96Zm-1.26,17.28c0-.36-.24-.66-.72-.66h-3.96l-.3.24c-.54.42-.6.48-.6,4.74h5.58v-4.32Z" fill="#003383"/>
      <path d="m239.7,38.69c0,.78-.12,3.3-1.62,11.04,3.72-.42,7.38-.72,10.38-.9,2.34-.12,2.94-.9,4.62-.9.96,0,7.5,1.38,7.5,4.02,0,1.02-1.02,1.8-2.52,1.8-.36,0-.72,0-1.14-.12-3.42-.84-7.2-1.14-11.04-1.14-7.56,0-15.24,1.2-20.28,2.34-1.98.48-2.76.84-3.9.84-2.82,0-7.86-1.98-7.86-5.04,0-.84.18-1.08.54-1.08s.9.3,1.56.6c1.86.9,4.5,1.32,6.24,1.32.3,0,.78,0,12.24-1.32.36-2.4.6-6.18.6-8.7,0-1.92-.18-5.04-1.44-6-4.44.84-5.52.84-5.76.84-3.36,0-5.94-1.44-5.94-3.6,0-.6.18-1.56.66-1.56.3,0,.72.3,1.2.66.96.66,2.58.96,4.5.96,5.04,0,11.94-1.86,13.08-2.22,2.16-.66,2.94-1.92,5.1-1.92,2.04,0,5.34.96,5.34,2.64,0,1.02-1.14,1.98-3.24,2.04-2.94.06-7.14.72-11.1,1.44,2.16,1.02,2.28,2.7,2.28,3.96Z" fill="#003383"/>
      <path d="m275.04,41.63c0-.3.06-.6.06-.96.24-2.76.36-4.5.36-6.48,0-7.08-.6-11.04-3.24-11.22-.84-.06-1.5-.3-1.5-.78,0-.36,1.02-1.74,3-1.74,1.2,0,6.48,1.86,6.48,4.2,0,.42-.18.84-.42,1.32-.42.84-.42,2.46-.42,3.18,0,6.72.3,9.72.36,10.38.06.54.12.96.12,1.26,0,.9-.48,4.74-2.7,4.74-1.08,0-2.1-1.26-2.1-3.9Zm-3.84,23.7c-.12,0-.24-.06-.24-.12,0-.24.66-.72,2.34-1.8,8.58-5.28,14.46-16.08,14.88-29.1.06-2.58,0-4.5.18-7.38.06-.72.06-1.32.06-1.92,0-4.2-1.08-5.28-2.52-5.52-.72-.06-1.38-.3-1.38-.78,0-.3.78-1.74,2.76-1.74,2.64,0,7.26,3.12,7.26,4.8,0,.72-.48,1.44-.78,2.28-.9,2.46-1.08,5.04-1.2,10.8-.3,23.22-19.56,30.48-21.36,30.48Z" fill="#003383"/>
      <path d="m325.98,29.39c.66,0,1.32.24,2.1.42,2.04.48,3.12,1.38,3.24,3.36,2.04-1.5,8.76-6.96,8.76-8.58,0-.66-.72-1.02-1.44-1.02-2.82,0-11.52,1.08-18.24,3.3-1.86.6-2.94,1.14-4.26,1.14-1.14,0-7.86-1.74-7.86-5.58,0-.6.24-.96.66-.96.3,0,.66.24,1.08.6.96.9,3.06,1.26,5.52,1.26.96,0,2.04-.06,3.12-.18,5.82-.6,13.26-1.68,18.54-2.1,2.22-.18,2.28-.96,3.24-.96,1.56,0,7.68,3,7.68,5.64,0,1.62-3,1.86-4.2,2.58-3.9,2.46-9.12,5.22-12.78,6.84-1.62,9-11.04,23.82-24.06,27.78-1.26.36-1.92.54-2.22.54-.12,0-.18,0-.18-.06,0-.18.72-.6,1.8-1.26,11.28-6.42,19.44-21.84,19.44-27.66,0-1.68-.66-2.4-1.74-2.4-1.26,0-1.74-.3-1.74-.66,0-.84,2.04-2.04,3.36-2.04h.18Z" fill="#003383"/>
      <path d="m381.9,22.97c-.66,0-1.32.06-1.98.12,1.5,1.2,2.46,4.32,2.46,8.22,0,12.54-9.96,26.28-15.66,26.28-3.18,0-4.38-4.26-6.72-7.68-.96-1.38-1.44-3.36-1.44-5.58,0-9.06,7.8-23.52,24.24-23.52,13.74,0,21,9.42,21,19.32,0,5.4-2.22,10.98-6.72,15.24-7.68,7.2-19.08,7.98-19.62,7.98-.6,0-.84-.06-.84-.18,0-.3.9-.72,2.7-1.2,10.5-2.88,19.92-10.38,19.92-22.08,0-8.94-6.3-16.92-17.1-16.92h-.24Zm-5.46.78c-9.24,2.7-14.58,11.28-14.58,18.78,0,5.28,2.7,9.3,5.28,9.3,4.14,0,12.72-12.54,12.72-23.16,0-2.7-.36-5.16-2.16-5.16-.18,0-.36,0-.54.06-.18.06-.36.12-.48.12l-.24.06Z" fill="#003383"/>
      <path d="m69.06,113.47c0,.42-.48.78-1.62.78-.6,0-.78.24-1.38.9-1.08,1.26-2.22,2.46-3.36,3.6l1.26.3c.66.24.9.48.9.84s-.42.78-1.08,1.08c-1.02.48-1.02.96-1.08,2.4-.18,3.36-.24,8.7-.24,13.8,0,3.96.06,7.74.12,10.38v.12c0,1.62-1.5,2.52-2.76,2.52-1.02,0-1.98-.66-1.98-2.22v-.3c.48-6,.9-15.66.96-21.18v-4.02c-5.4,4.68-9.18,5.82-9.24,5.82s-.12-.06-.12-.12c0-.12.3-.36.9-.84,5.4-3.96,13.02-13.98,13.8-17.52.06-.24.06-.42.18-.42.06,0,4.74,2.64,4.74,4.08Zm-.48-11.04c0,.42-.42.66-1.2.66h-.66c-.42,0-.54.18-1.08.66-7.32,6.84-14.16,9.54-15.12,9.54-.18,0-.24,0-.24-.06,0-.12.3-.42.9-.78,4.14-2.58,11.34-10.32,12.42-14.04.06-.18.06-.3.18-.3.54,0,4.8,3.12,4.8,4.32Zm1.62,41.4c-.48.18-.72.72-1.14.72-.84,0-3.72-4.5-3.72-5.04,0-.12.06-.12.24-.12h.3c.48.06,1.02.06,1.56.06,2.16,0,4.08-.24,8.28-.9v-8.64c-1.74.06-3.84.18-6.48.54h-.06c-.72,0-2.46-2.22-2.46-2.88,3.36.48,6.6.78,9,.84,0-.96-.06-1.86-.06-2.4-.06-1.44-.12-3.06-.54-5.4-.06-.18-.06-.3-.06-.36,0-.12.06-.18.18-.18.78,0,6.84.9,6.84,2.22,0,.36-.42.72-1.08,1.08-1.32.72-1.44,1.02-1.44,5.04h2.58c.12,0,.42-.18.6-.48.42-.66,1.92-2.7,2.58-2.7.06,0,.18,0,.24.06,1.44.72,3.72,2.82,3.72,3.96,0,.36-.24.66-1.02.66h-8.7v7.92c4.08-.78,8.22-1.68,10.8-2.4.48-.12.78-.18,1.02-.18s.3.06.3.12c0,1.14-13.26,6.06-21.48,8.46Zm19.02-25.56c0,.36-.24.66-1.02.66h-10.98c-2.22,0-4.74.06-8.46.54h-.06c-.78,0-2.46-2.16-2.46-2.82,3.54.54,7.08.72,9.48.78v-8.22c-1.62.06-3.48.18-5.82.48h-.06c-.78,0-2.46-2.16-2.46-2.82,3.06.48,6,.66,8.34.78,0-4.86-.12-7.26-.6-10.08-.06-.18-.06-.3-.06-.36,0-.18.06-.24.24-.24.6,0,6.78.9,6.78,2.28,0,.36-.42.78-1.08,1.14-.96.54-1.26.54-1.32,2.16-.06,1.08-.12,3-.12,5.16h1.92c.12,0,.48-.18.66-.48.06-.12,1.74-2.7,2.52-2.7.54,0,4.02,2.7,4.02,3.96,0,.36-.24.72-1.02.72h-8.1v8.22h2.46c.12,0,.48-.12.66-.42.42-.72,1.8-2.7,2.52-2.7.06,0,.18,0,.24.06,1.74.9,3.78,2.76,3.78,3.9Zm17.28-.72c0,.36-.3.72-1.14.72h-6.12l.36.12c.54.18.84.42.84.66s-.3.54-.84.78c-.9.42-.9.54-.96,1.98-.06,2.46-.12,5.76-.12,8.94,0,3.9.06,7.26.3,12.06v.24c0,4.44-4.32,6.6-6.66,6.6-.54,0-.78-.18-1.14-.84-1.02-1.68-5.94-4.2-5.94-4.62,0-.06.06-.06.18-.06s.3,0,.54.06c2.28.48,4.02.78,5.34.78,2.4,0,3.36-.9,3.48-2.64.12-1.26.12-5.28.12-9.48,0-8.22-.18-12.54-.36-14.4l-3.36.42h-.06c-1.02,0-2.58-2.28-2.58-3,4.8.72,7.38.9,8.76.9h.78c.36,0,.66-.24.84-.54.36-.6,2.22-3.54,2.88-3.54.12,0,.24,0,.3.06,1.62.72,4.56,3.48,4.56,4.8Zm-1.8-13.56c0,.36-.3.72-1.14.72h-7.2c-1.44,0-3.36.3-5.28.6h-.12c-1.02,0-2.58-2.28-2.58-3,3.6.72,5.64.9,6.84.9h.96c.3,0,.6-.24.78-.54.36-.6,2.22-3.54,2.88-3.54.12,0,.24,0,.3.06,1.62.72,4.56,3.48,4.56,4.8Z" fill="#003383"/>
      <path d="m127.74,142.75c-2.4,0-3.36-.12-3.36-.36s1.26-.54,3.06-.84c19.5-3.06,28.02-12.24,28.02-19.2,0-5.22-4.8-8.94-10.68-8.94-5.4,0-12,2.82-18.12,8.94-2.46,2.46-5.16,3.54-7.5,3.54-3.72,0-5.7-2.64-5.7-3.42,0-.42.66-.48,1.5-.54,2.46-.24,6.6-2.04,10.38-4.44,5.4-3.42,12.12-6.6,18.72-6.6,8.76,0,15.78,6.06,15.78,13.02,0,8.88-10.92,18.84-31.8,18.84h-.3Zm28.5-31.44c-1.56-1.8-3.48-3.24-5.04-4.08-.54-.3-.96-.54-.96-.66,0-.48,2.22-.48,2.34-.48,4.68,0,7.08,2.1,7.08,4.08,0,1.14-.78,2.04-1.8,2.04-.48,0-1.08-.3-1.62-.9Zm6.3-2.88c-1.62-1.74-3.6-3.18-5.22-3.96-.54-.24-.96-.42-.96-.6,0-.3,1.38-.54,2.82-.54,3.06,0,6.72,1.2,6.72,3.9,0,1.14-.78,2.04-1.74,2.04-.48,0-1.08-.24-1.62-.84Z" fill="#003383"/>
      <path d="m186.06,146.11c-.54-7.8-6.48-16.98-9.3-20.28-1.14-1.32-1.62-2.7-1.62-4.08,0-1.26.42-2.52,1.14-3.9,1.5-2.88,6.06-8.94,8.16-12,.66-.96,1.8-2.76,1.8-4.2,0-.48-.12-.9-.42-1.26-.42-.54-.6-.96-.6-1.2,0-.36.18-.48.6-.48.96,0,5.1,1.68,5.1,4.98,0,1.32-.66,2.64-1.74,3.9-2.94,3.36-8.88,7.74-10.98,11.58-.3.6-.66,1.44-.66,2.4,0,.78.24,1.68,1.08,2.58,5.04,5.34,12.6,13.98,12.6,20.88,0,2.52-1.56,4.08-2.94,4.08-1.08,0-2.1-.9-2.22-3Z" fill="#003383"/>
      <path d="m224.88,121.99c0-7.56-2.58-14.52-6.3-14.52-3.18,0-6.3,4.74-6.3,10.62,0,3.48,1.08,5.82,1.8,7.44.24.6.36,1.2.36,1.8,0,1.8-1.02,3.3-2.22,3.3-1.68,0-4.08-4.56-4.08-9.36,0-3.54.96-7.14,1.68-10.8.3-1.62,1.08-5.16,1.08-7.74,0-1.44-.24-2.58-.96-2.94-.48-.24-.96-.54-.96-.9,0-.42.9-1.38,1.92-1.38,1.32,0,3.54,1.2,3.54,4.8,0,1.2-.06,1.5-1.98,8.76-.12.42-.18.72-.18.84,0,.06.06.12.06.12.06,0,.24-.3.48-.96,1.68-4.44,4.44-6.42,7.14-6.42,6.36,0,9.54,9.06,9.54,17.04,0,19.86-17.46,29.22-19.8,29.22-.06,0-.12,0-.12-.06,0-.18.54-.72,1.86-1.62,8.64-6.06,13.44-16.98,13.44-27.24Z" fill="#003383"/>
      <path d="m244.38,133.93c0-2.1.24-4.14.6-6.06.78-4.08,2.04-7.8,2.7-11.28.3-1.5.42-2.88.42-4.14,0-2.64-.54-4.62-1.14-5.7-.36-.66-.84-1.2-.84-1.5s.3-.42,1.2-.42c1.86,0,4.98,2.64,4.98,7.08,0,1.98-.66,3.96-1.68,6.48-1.5,3.72-3.3,8.22-3.3,12.3,0,1.38.36,3.72.9,3.72.18,0,.42-.3.66-.9,1.5-3.18,5.58-11.16,6.24-11.16.06,0,.12.12.12.24,0,.24-.12.72-.42,1.44-.84,1.98-4.08,10.56-4.08,15.66,0,1.26.18,2.28.42,3.24.12.42.18.84.18,1.2,0,1.5-.9,2.4-1.92,2.4-4.08,0-5.04-9.66-5.04-12.6Zm36.72,4.08c2.34,0,3.6,1.08,3.6,2.28,0,3.72-8.46,3.78-9.54,3.78-10.32,0-13.56-5.34-13.56-8.28,0-.42.06-.6.24-.6.3,0,.72.42,1.26,1.2,1.2,1.74,5.22,2.88,9.66,2.88,1.2,0,2.4-.06,3.6-.24,1.44-.24,2.4-.96,4.44-1.02h.3Zm-9.18-21.36c-9,0-9.48-5.4-9.48-5.82,0-.18.06-.24.24-.24s.6.24,1.14.54c1.68,1.02,3.9,1.38,6.12,1.38,1.74,0,3.42-.24,4.98-.6.78-.18,1.44-.6,2.22-.72.42-.06.78-.12,1.14-.12,1.92,0,3.12,1.02,3.12,2.1,0,2.94-6.54,3.48-9.48,3.48Z" fill="#003383"/>
      <path d="m79.14,208.52v.18c0,1.2-1.14,2.34-2.52,2.34-.96,0-1.86-.6-1.86-1.86v-.36c.42-3.78.72-10.86.72-13.2v-.78c-4.32,4.8-7.56,6.6-8.04,6.6-.06,0-.12,0-.12-.12s.18-.42.66-.9c1.2-1.2,2.52-2.82,3.78-4.62h-6.72c-.06,3.18-.06,6.78-.06,10.32,2.94-1.08,5.64-2.16,7.74-3.12.6-.24.96-.36,1.14-.36.12,0,.18.06.18.12,0,.66-4.86,3.9-9.06,6.66,0,3.42.06,6.78.12,9.72,0,1.62.18,5.58.18,7.08,0,4.8-3.96,6.36-6.42,6.36-.54,0-.84-.18-1.2-.78-1.08-1.92-5.1-4.26-5.1-4.8,0-.06.06-.06.24-.06.12,0,.3,0,.54.06,1.98.42,3.48.66,4.62.66,2.04,0,2.82-.78,2.88-2.52.12-3.72.12-8.64.18-13.74l-4.8,2.76c-.48.24-.6,1.02-1.08,1.02-1.2,0-4.26-5.04-4.26-5.04,0-.12.18-.06.6-.12,2.1-.24,3.06-.36,9.54-2.52v-11.64c-1.92.06-4.2.18-6.72.48h-.06c-.72,0-2.46-2.22-2.46-2.88,3.18.48,6.6.72,9.24.78-.18-9.6-.3-10.5-.84-13.26-.06-.18-.06-.24-.06-.36s.06-.18.18-.18c.48,0,7.5,1.02,7.5,2.4,0,.54-.6,1.02-1.26,1.38-1.08.6-1.14.36-1.26,2.52-.12,1.92-.18,4.5-.24,7.56h.54c.18,0,.48-.18.66-.48,1.74-2.94,1.86-3.06,2.4-3.06.06,0,.18,0,.24.06,1.32.6,2.76,2.22,3.54,3.78,0,.06.06.06.06.12,1.62-2.46,5.82-9.18,6.36-12.96.06-.42.06-.54.24-.54.66,0,5.94,2.34,5.94,3.48,0,.48-.72.9-1.74.96-.9.06-1.08.24-3.24,3.48l.36.12.3.18h6.06c.6-2.04,1.14-4.62,1.14-7.86,0-.36,0-.48.18-.48.24,0,6.36,1.86,6.36,3.18,0,.48-.6.96-1.74,1.08-.54.06-.72.3-1.02.66-1.08,1.26-2.1,2.46-3.18,3.42h6.72c.24,0,.54-.18.72-.48.66-1.2,2.22-2.88,2.76-2.88.66,0,4.8,2.76,4.8,4.14,0,.36-.24.66-1.14.66h-11.34c.72.36.78.36.78.6,0,.3-.42.66-1.2.96-.36.12-.48,1.02-.48,1.62,0,.42-.06.84-.06,1.26h3.54c.24,0,.6-.24.78-.48.84-1.2,1.98-2.22,2.34-2.22.78,0,4.38,2.28,4.38,3.48,0,.3-.24.6-1.14.6h-9.96c0,1.32-.06,2.7-.06,4.14h3.66c.24,0,.6-.18.78-.48.6-.84,1.32-1.5,1.92-1.98.12-.12.3-.18.48-.18.78,0,4.32,2.16,4.32,3.42,0,.36-.24.66-1.14.66h-10.02c0,1.74.06,3.42.06,4.86h6c.24,0,.6-.18.78-.48.06-.06,1.98-2.88,2.82-2.88s4.92,2.64,4.92,4.08c0,.36-.24.66-1.14.66h-24.24Zm10.98,25.2c-.66,0-1.02-.36-1.26-.84-.78-1.62-5.88-4.14-5.88-4.44h.06c.06,0,.24,0,.54.12,2.46.78,4.8,1.2,6.84,1.2,2.52,0,4.56-.72,5.7-2.34,1.68-2.4,2.22-6.42,2.22-6.54,0-.36-.24-.6-.54-.6h-5.4l-.72,2.34c-.42,1.2-1.56,1.74-2.58,1.74-.96,0-1.8-.48-1.8-1.32,0-.24.06-.48.18-.78,1.14-2.58,2.46-6.66,2.46-7.5,0-.24-.18-.36-.48-.36h-6.24c1.68.36,2.16.54,2.16.9,0,.24-.24.54-.66.72-.66.24-.78.06-1.2,1.74-4.08,16.08-20.1,16.32-21.06,16.32-.42,0-.6-.06-.6-.18s.54-.36,1.2-.54c10.26-2.52,16.44-10.92,16.44-18.9-2.52.06-5.04.18-7.62.42h-.06c-.9,0-2.52-2.04-2.52-2.82,5.7.72,12.6.84,14.7.84h5.16c.3,0,.66-.18.9-.48.36-.36.9-1.02,1.26-1.26.18-.18.3-.24.48-.24.54,0,4.62,2.1,4.62,3.48,0,.6-.78.9-1.38,1.14-1.38.48-1.44.48-2.22,3.18h4.68c.42,0,.84-.12,1.02-.36.72-.9,1.56-1.32,1.68-1.32,1.02,0,4.26,2.22,4.26,3.12,0,.54-.48.96-1.38,1.44-.48.24-.9.3-1.02.96-1.2,5.22-3,11.16-11.22,11.16h-.72Zm-3.72-37.02h-7.26c-.06,1.32-.06,2.7-.06,4.14h7.32v-4.14Zm-7.32,5.58c0,1.74.06,3.42.06,4.86h7.14c.06-1.2.12-3,.12-4.86h-7.32Zm1.62-11.4l-.66.36c-.36.12-.84.54-.84,4.08h7.2c0-1.44-.06-3-.3-4.44h-5.4Z" fill="#003383"/>
      <path d="m128.16,210.02c6.12-6.3,12.18-8.82,17.34-8.82,7.98,0,13.74,6,13.74,11.94,0,12.9-19.32,18.96-22.62,18.96-.18,0-.3-.06-.3-.12,0-.18.72-.54,2.22-1.2,5.46-2.34,15.78-8.94,15.78-17.4,0-6.6-6.24-9.36-10.8-9.36-7.44,0-12.54,5.1-15.9,8.46-.24,3.18-.24,5.28-.24,5.52,0,3.48.54,7.14,1.26,10.08.18.78.24,1.44.24,2.04,0,1.92-.78,2.94-1.74,2.94-1.14,0-2.46-1.5-2.76-4.74-.18-2.28-1.44-5.58-2.58-7.98-1.26,2.76-1.86,4.68-2.34,6.06-1.02,2.82-2.88,4.32-4.08,4.32-.72,0-1.26-.48-1.26-1.56,0-1.14.6-3.72,6.18-11.76-1.2-2.22-2.64-4.2-3.54-5.1-.96-.96-1.44-1.8-1.44-2.58s.54-1.38,1.56-1.86c1.38-.6,2.4-1.44,3.18-2.22,2.1-2.16,4.68-4.08,7.14-5.64.06-.96.12-1.86.12-2.7.06-1.14.06-2.1.06-2.94,0-4.68-.9-5.94-3.78-7.8-.54-.3-.78-.48-.78-.72,0,0,.78-1.08,2.34-1.08.84,0,5.34.42,5.34,6.12,0,1.14-.78,6.72-1.02,7.92h.42c2.46,0,3.36.66,3.36,1.68,0,1.26-1.32,3.12-2.64,4.92-.84,1.08-1.74,2.46-2.7,4.02l-.12.96.36-.36Zm-6.36,5.28c1.5-1.92,3.18-4.44,4.56-6.78.24-2.1.42-4.2.6-6.06-1.8,1.26-3.36,3.3-4.38,5.58-.84,1.8-1.62,2.34-3.54,2.64-.54.06-.72.24-.72.54,0,.54.78,1.92,2.64,5.22l.84-1.14Zm.66,3.66c1.86,3.24,2.22,3.6,2.52,3.6.12,0,.24-.12.24-.48,0-2.58.3-5.22.54-7.74-1.02,1.32-2.04,2.64-3,3.96l-.3.66Zm6.06-14.16c1.08-1.98,1.08-2.46,1.08-2.52,0-.42-.12-.72-.54-.78l-.54,3.3Z" fill="#003383"/>
      <path d="m181.8,208.58c.06,0,.12-.06.3-.18,2.7-1.74,6.06-2.7,9.42-2.7,7.74,0,12.48,5.4,12.48,11.22s-5.52,13.68-16.56,13.68c-5.82,0-9.72-2.88-9.72-6.12,0-2.88,3-4.5,5.88-4.5,3.96,0,6.42,3.06,6.42,6.18,0,.48-.06,1.02-.18,1.5,6.96-1.68,9.66-6.48,9.66-10.68,0-4.74-3.36-9-9.42-9-2.1,0-9.06.54-13.08,9.06-1.44,3.12-2.4,4.98-4.44,4.98-1.08,0-1.92-.84-1.92-2.04,0-1.74,2.22-4.32,4.98-7.5,3.6-4.14,12.06-15.54,14.58-19.68.3-.42.42-.84.42-1.14,0-.42-.24-1.02-1.5-1.02-2.82,0-4.14,5.76-8.16,5.76-2.22,0-4.02-1.44-4.02-3.66,0-.66.12-1.2.54-1.2.3,0,.66.12,1.14.3s.96.24,1.44.24c.84,0,1.68-.24,2.46-.84,2.34-1.62,5.1-3.6,8.28-3.6,3.54,0,5.7,2.46,5.7,3.78,0,1.2-1.32,2.28-2.58,3.24-4.32,3.3-12.12,13.74-12.12,13.86v.06Zm4.62,17.34c0-2.1-1.62-3.9-3.84-3.9-2.64,0-2.7,1.98-2.7,2.28,0,.24,0,3.06,6,3.66.36-.66.54-1.38.54-2.04Z" fill="#003383"/>
      <path d="m225.12,193.76c-2.34,0-5.34.06-9.06.54h-.06c-.72,0-2.46-2.22-2.46-2.88,4.44.66,9.24.84,11.7.84h1.92c.18,0,.54-.18.72-.48,2.04-3.42,2.64-3.42,2.76-3.42.78,0,4.98,3.36,4.98,4.8,0,.3-.24.6-1.14.6h-9.36Zm7.74,36.06c0,1.32-1.38,2.1-2.58,2.1-.96,0-1.86-.48-1.86-1.68,0-.42.06-.9.06-1.32h-7.02c0,.96.06,1.92.06,2.88v.06c0,1.44-1.74,1.98-2.58,1.98-1.02,0-1.92-.48-1.92-1.74v-.18c.36-4.5.42-6.78.42-9.06,0-6.12-.6-9.18-.72-9.72,0-.12-.06-.24-.06-.3,0-.12.06-.18.12-.18.3,0,4.86,1.56,6,2.7h4.5c.24,0,.48-.06.72-.42.66-1.08,1.62-1.98,1.86-1.98.84,0,4.92,2.34,4.92,3.66,0,.54-.54.96-1.2,1.44-1.14.72-1.14,1.14-1.14,3.06,0,2.22.18,4.92.42,8.58v.12Zm-7.62-44.4c-1.8,0-3.24.12-6,.54h-.06c-.84,0-2.22-1.98-2.22-2.88,3.48.66,6.54.84,8.4.84h.66c.12,0,.42-.18.6-.48.54-1.02,1.56-2.4,2.16-3.06.12-.12.3-.18.48-.18.12,0,.24,0,.3.06,1.56.72,4.2,3.3,4.2,4.38,0,.42-.24.78-1.08.78h-7.44Zm0,15.84c-1.8,0-3.24.06-6,.54h-.06c-.72,0-2.22-1.86-2.22-2.88,3.48.66,6.54.84,8.4.84h.78c.12,0,.48-.18.66-.48.06-.12,1.62-3.06,2.58-3.06.06,0,.18,0,.24.06,1.44.66,4.14,3.18,4.14,4.2,0,.36-.24.78-1.08.78h-7.44Zm0,7.92c-1.8,0-3.24.06-6,.54h-.06c-.72,0-2.22-1.98-2.22-2.88,3.48.66,6.6.84,8.46.84h.72c.12,0,.48-.18.66-.48.36-.66,1.8-3.06,2.58-3.06.18,0,.3,0,.36.06,1.26.6,4.02,3.12,4.02,4.2,0,.42-.24.78-1.08.78h-7.44Zm3.24,18.18c.06-2.52.12-4.5.12-6.3,0-1.14-.06-2.28-.12-3.36,0-.36-.18-.72-.6-.72h-5.28l-.48.36c-.48.36-.6.66-.6,1.62,0,.6-.06,1.38-.06,8.4h7.02Zm25.32-35.22c3.24,5.64,8.58,11.64,16.02,14.46.36.12.54.24.54.36,0,.6-3.78.96-5.64,2.58-.24.24-.48.36-.72.36-1.5,0-8.16-8.34-11.16-17.76h-4.44c-1.44,3.18-3.24,6.18-5.16,8.82,2.58.42,4.08.54,5.82.54h.6c.24,0,.42-.24.6-.54.84-1.5,1.56-2.7,2.04-2.7.12,0,.24,0,.3.06,2.28,1.14,3.6,3.36,3.6,3.84,0,.36-.18.72-.96.72h-6.42c-1.92,0-2.58.18-4.5.48h-.06c-.48,0-1.26-.66-1.8-1.38-5.34,6.9-10.32,9.36-10.86,9.36-.12,0-.18-.06-.18-.12,0-.18.18-.42.54-.72,4.74-3.84,9.24-10.86,12-18.24-1.86.06-3.9.18-6.06.42h-.06c-.9,0-2.58-2.22-2.58-2.88,3.12.42,6.48.66,9.3.78,1.02-3.06,1.92-6.78,1.92-9.36,0-.66.06-.66.06-.66.12,0,7.2,1.74,7.2,3,0,.48-.6.96-1.86,1.2-.6.12-.9.42-1.08,1.08-.48,1.62-1.08,3.24-1.74,4.8h9.3c.18,0,.6-.18.78-.48.66-1.08,2.28-3.3,2.94-3.3,1.08,0,5.16,3.36,5.16,4.68,0,.3-.3.6-1.2.6h-12.24Zm-7.14,26.82l-.9,3.18c-.36,1.14-1.68,1.74-2.82,1.74-.96,0-1.8-.42-1.8-1.32,0-.24.06-.54.18-.84.48-1.08,2.76-7.2,2.94-10.32-1.74.12-3.48.24-5.28.42h-.06c-.96,0-2.64-2.04-2.64-2.82,5.04.6,8.94.84,11.94.84h5.88c.3,0,.54-.18.72-.48,1.62-2.34,2.04-2.94,2.52-2.94.12,0,.24.06.36.06,1.92.84,4.32,3.12,4.32,4.08,0,.36-.24.72-1.14.72h-11.1c.06.06.06.12.06.24,0,.24-.24.54-.84.78-.72.24-.84.36-1.98,5.16h7.74c.6,0,1.08-.18,1.32-.42.6-.66.84-1.08,1.32-1.44.12-.12.24-.18.42-.18.84,0,4.68,2.52,4.68,3.36,0,.48-.48.9-1.5,1.38-.78.36-.9.42-1.02,1.32-.66,4.56-2.22,12.6-10.68,12.72-.54,0-1.08-.3-1.26-.78-1.02-2.34-5.64-4.92-5.64-5.28,0,0,.06-.06.12-.06s.24.06.48.12c2.76.78,4.86,1.32,6.6,1.32,1.2,0,5.94-.24,6.36-9.72,0-.42-.18-.84-.66-.84h-8.64Z" fill="#003383"/>
      <path d="m296.28,205.94c0-7.56-2.58-14.52-6.3-14.52-3.18,0-6.3,4.74-6.3,10.62,0,3.48,1.08,5.82,1.8,7.44.24.6.36,1.2.36,1.8,0,1.8-1.02,3.3-2.22,3.3-1.68,0-4.08-4.56-4.08-9.36,0-3.54.96-7.14,1.68-10.8.3-1.62,1.08-5.16,1.08-7.74,0-1.44-.24-2.58-.96-2.94-.48-.24-.96-.54-.96-.9,0-.42.9-1.38,1.92-1.38,1.32,0,3.54,1.2,3.54,4.8,0,1.2-.06,1.5-1.98,8.76-.12.42-.18.72-.18.84,0,.06.06.12.06.12.06,0,.24-.3.48-.96,1.68-4.44,4.44-6.42,7.14-6.42,6.36,0,9.54,9.06,9.54,17.04,0,19.86-17.46,29.22-19.8,29.22-.06,0-.12,0-.12-.06,0-.18.54-.72,1.86-1.62,8.64-6.06,13.44-16.98,13.44-27.24Z" fill="#003383"/>
      <path d="m332.34,215.42c-4.8,3-6.72,6-6.72,8.34s2.46,5.16,7.5,5.16c2.22,0,4.74-.54,6.9-1.68.72-.36,1.38-.54,1.98-.54,1.5,0,2.52.96,2.52,2.1,0,2.76-5.34,4.32-9.66,4.32-6.48,0-11.76-3.9-11.76-8.46,0-3.72,3.36-7.92,9.3-11.46,0-3.72-.48-8.88-3.84-8.88-1.44,0-3.24,1.14-5.34,3.96l-1.8,3.36c-1.26,2.28-2.7,4.68-4.38,4.68-.24,0-1.8-.06-1.8-2.16,0-1.2.6-2.94,2.46-4.62,5.52-4.98,7.32-8.22,9.96-14.16l.12-.24-.06.06c-1.2.3-2.28.48-3.3.48-5.82,0-7.44-4.08-7.44-5.7,0-.24.06-.3.18-.3.3,0,.72.24,1.5.78,1.8,1.26,3.48,1.62,5.04,1.62,1.8,0,3.66-.42,5.28-.96.12-.66.12-1.26.12-1.68,0-1.38-.24-3-2.28-3.48-.54-.12-1.08-.3-1.08-.6,0-.18.9-1.5,2.94-1.5,1.56,0,2.82.48,3.42,2.76h.48c1.14.06,2.04.18,2.76.18.3,0,.54-.06.78-.12.36-.18.72-.24,1.02-.24,1.5,0,1.5,1.38,1.5,1.62,0,3.18-6,5.52-8.1,6.24l-.12.3c-2.04,4.44-3.3,6.72-4.62,9.06,1.14-.6,2.22-.84,3.24-.84,3.12,0,5.4,2.58,6.24,6.24,1.74-4.38,6.36-12.78,13.26-12.78,3.3,0,7.44,2.22,7.44,5.28,0,2.34-2.52,4.74-6.6,6.3-4.2,1.56-9.36,3.6-13.44,5.58.18,1.38.24,2.82.24,4.26,0,.72,0,1.5-.06,2.22-.18,2.34-1.8,3.9-3.12,3.9-.9,0-1.68-.78-1.68-2.76,0-.18.06-.48.06-.72.12-1.5.9-2.1.96-4.08v-.84Zm-.12-28.26c.06.24.06.48.06.72,0,.66-.12,1.32-.24,2.04,1.38-.66,2.1-1.02,2.1-1.74,0-.3-.24-.6-1.74-.96l-.18-.06Zm15.24,18.12c2.64-1.44,3.84-2.88,3.84-4.2s-1.14-2.94-3.48-2.94c-5.52,0-10.56,8.46-12.18,13.26,3.66-1.92,8.34-4.2,11.82-6.12Z" fill="#003383"/>
      <path d="m417.12,192.86c0,.54-.42,1.02-1.44,1.5-1.38.66-1.38.84-1.38,2.4.06,1.8.06,3.9.06,6.18,0,5.76-.18,12.42-.72,16.5-1.92,13.56-10.02,14.1-11.28,14.1-.42,0-.9-.18-1.08-.72-.6-1.74-6.84-5.04-6.84-5.46h.06c.12,0,.24,0,.42.06,2.34.66,4.44,1.08,6.3,1.08,7.92,0,8.88-8.7,8.88-26.64,0-3.36-.06-6.36-.06-8.16,0-.78-.3-.96-.9-.96h-19.5c-3.96,6.12-7.44,9.06-8.46,9.84l.18,19.74c0,1.32.12,2.94.18,3.96v.36c0,4.98-4.74,6.18-6.18,6.18-.54,0-.84-.24-1.14-.84-.66-1.26-5.46-3.72-5.46-4.2,0-.06.06-.12.18-.12s.3,0,.54.06c1.92.36,3.3.48,4.44.48,2.94,0,3.3-1.08,3.36-2.64.12-3.18.12-8.64.12-14.46h-6.18c-1.38,19.68-9.78,23.28-9.96,23.28-.06,0-.12-.06-.12-.18,0-.18.24-.6.78-1.26,4.62-5.58,5.58-17.16,5.58-27.3,0-11.04-.24-18.66-1.08-22.62-.06-.18-.06-.3-.06-.42s.06-.12.12-.12c.36,0,3.78,1.08,5.64,2.34l.3.18h3.9c.3,0,.66-.24.78-.48.06-.06,1.2-1.92,1.8-1.92.84,0,4.56,2.46,4.56,3.54,0,.6-.6,1.08-1.26,1.44-.9.48-.9.96-.96,1.86-.12,1.98-.12,6.78-.12,12.24l.18-.18c3.24-4.14,8.4-15.84,8.4-20.52,0-.54.12-.6.24-.6,1.26,0,6.48,2.34,6.48,3.24,0,.48-.6.96-1.74,1.2-.78.18-.84.42-1.2,1.14-.78,1.62-1.74,3.36-2.82,5.16h18.3c.66,0,.84-.18,1.02-.48.6-.9,1.5-1.92,1.92-1.92.78,0,5.22,2.76,5.22,4.14Zm-39.84-5.7c0-.36-.18-.66-.72-.66h-4.26c-.12.06-.18.24-.3.3-.48.36-.66.78-.66,1.44v1.08c0,2.16.06,5.28.06,8.4h6c0-4.68-.06-8.58-.12-10.56Zm.12,12.06h-6c0,2.58.06,5.16.06,6.9,0,1.14-.06,2.34-.12,3.48h6.06v-10.38Zm27.66,4.98c-.12,1.68-.18,3.42-.18,5.28,0,3.36.18,7.2.36,12.06,0,.42-.42,2.16-2.28,2.16-.9,0-1.68-.54-1.68-1.86v-.06c0-.6.06-1.26.06-1.86h-12.12v4.5c0,1.32-1.2,2.16-2.28,2.16-.84,0-1.62-.54-1.62-1.86v-.12c.24-5.16.48-10.8.48-15.72,0-2.22-.06-7.92-.42-9.66v-.24q0-.12.12-.12c.96,0,5.94,1.08,5.94,2.1,0,.36-.36.72-.9,1.02-.9.48-1.02.3-1.08,1.74,1.32.24,3.18.6,4.98,1.26.78-3.3,1.26-6.84,1.26-7.98v-.42c0-.24-.06-.36-.06-.48s.06-.18.12-.18c.24,0,5.52,1.26,5.52,2.58,0,.24-.12.48-.42.66h.06s6.18.9,6.18,2.16c0,.36-.36.78-.9,1.08-.96.54-1.02.24-1.14,1.8Zm-15.66.24c-.18,4.08-.18,9-.18,14.04h.12c1.8-2.88,3.3-6.96,4.44-10.98-1.38-1.2-3-2.34-4.38-3.06Zm11.46-5.22c-.24.18-.6.3-.96.42-.54.18-.9.3-1.02.9-.42,1.8-.96,3.72-1.62,5.7,1.26.72,3.36,2.16,3.36,4.14,0,1.2-.72,2.22-1.68,2.22-.66,0-1.38-.48-2.04-1.56-.3-.42-.6-.96-.96-1.38-1.44,3.3-3.24,6.48-5.64,8.82h11.04c.06-2.94.06-5.64.06-8.1,0-8.16-.36-10.32-.48-10.8-.06-.18-.06-.3-.06-.36Z" fill="#003383"/>
      <path d="m427.38,217.88c0-2.1.24-4.14.6-6.06.78-4.08,2.04-7.8,2.7-11.28.3-1.5.42-2.88.42-4.14,0-2.64-.54-4.62-1.14-5.7-.36-.66-.84-1.2-.84-1.5s.3-.42,1.2-.42c1.86,0,4.98,2.64,4.98,7.08,0,1.98-.66,3.96-1.68,6.48-1.5,3.72-3.3,8.22-3.3,12.3,0,1.38.36,3.72.9,3.72.18,0,.42-.3.66-.9,1.5-3.18,5.58-11.16,6.24-11.16.06,0,.12.12.12.24,0,.24-.12.72-.42,1.44-.84,1.98-4.08,10.56-4.08,15.66,0,1.26.18,2.28.42,3.24.12.42.18.84.18,1.2,0,1.5-.9,2.4-1.92,2.4-4.08,0-5.04-9.66-5.04-12.6Zm36.72,4.08c2.34,0,3.6,1.08,3.6,2.28,0,3.72-8.46,3.78-9.54,3.78-10.32,0-13.56-5.34-13.56-8.28,0-.42.06-.6.24-.6.3,0,.72.42,1.26,1.2,1.2,1.74,5.22,2.88,9.66,2.88,1.2,0,2.4-.06,3.6-.24,1.44-.24,2.4-.96,4.44-1.02h.3Zm-9.18-21.36c-9,0-9.48-5.4-9.48-5.82,0-.18.06-.24.24-.24s.6.24,1.14.54c1.68,1.02,3.9,1.38,6.12,1.38,1.74,0,3.42-.24,4.98-.6.78-.18,1.44-.6,2.22-.72.42-.06.78-.12,1.14-.12,1.92,0,3.12,1.02,3.12,2.1,0,2.94-6.54,3.48-9.48,3.48Z" fill="#003383"/>
    </g>
  </g>
</svg>