<?xml version="1.0" encoding="utf-8"?>
<!-- Generator: Adobe Illustrator 27.1.1, SVG Export Plug-In . SVG Version: 6.00 Build 0)  -->
<svg version="1.1" id="_レイヤー_2" xmlns="http://www.w3.org/2000/svg" xmlns:xlink="http://www.w3.org/1999/xlink" x="0px"
	 y="0px" viewBox="0 0 578 250" style="enable-background:new 0 0 578 250;" xml:space="preserve">
<style type="text/css">
	.st0{fill:#FFFFFF;}
</style>
<g id="_デザイン">
	<rect class="st0" width="390" height="80"/>
	<rect y="85" class="st0" width="394" height="80"/>
	<rect y="170" class="st0" width="578" height="80"/>
	<g>
		<path d="M98.5,61.8c0,0.4-0.3,0.7-1.3,0.7H65.7c-3.4,0-12.3,0.1-17.6,0.7H48c-1.1,0-2.8-2.3-2.8-3.1c2.9,0.4,7.1,0.6,11,0.7
			c0.1-3.5,0.1-6.9,0.1-9.8c0-4,0-7.3-0.1-9.4c0-2.1,0-7.1-0.6-9.9c-0.1-0.2-0.1-0.4-0.1-0.5c0-0.1,0.1-0.1,0.2-0.1
			c0.5,0,7.5,0.9,7.5,2.5c0,0.4-0.5,1-1.4,1.4c-1.3,0.7-1.3,0.9-1.3,14.6c0,3.7,0,7.6,0.1,11.3c2.3,0.1,4.3,0.1,5.5,0.1h4.4
			c0.1-4.8,0.1-14.6,0.1-22.7c0-14.2-0.1-15.6-0.5-18.1h-3.4c-3.3,0-10.4,0.1-15.7,0.7h-0.1c-1.1,0-2.8-2.3-2.8-3.1
			c6.1,0.7,15.4,1,18.8,1h17.8c0.4,0,0.8-0.2,1-0.5c0.1-0.1,2.6-4.3,3.7-4.3c0.2,0,0.3,0.1,0.4,0.1c2.4,0.8,5.5,4.9,5.5,5.6
			c0,0.4-0.3,0.7-1.3,0.7H76.5c0.6,0.2,0.8,0.5,0.8,0.8s-0.4,0.7-1,1c-1.1,0.5-1.1,0.6-1.2,3.2c-0.1,1.7-0.1,7.2-0.1,13.5h6
			c0.4,0,0.8-0.2,1-0.5c0.4-0.6,2.8-4,3.6-4c1.6,0,5.7,4.3,5.7,5.3c0,0.4-0.2,0.7-1.2,0.7H75.1c0,7.9,0,16.6,0.1,20.8h12.4
			c0.4,0,0.8-0.2,1-0.5c0.6-1,2.9-4.4,3.8-4.4C94.2,56,98.5,61,98.5,61.8z"/>
		<path d="M158.2,61.5c0,0.3-0.2,0.6-1.1,0.6h-22.5v1.6c0,1.1-1.1,2.5-2.7,2.5c-1.1,0-2-0.7-2-2.1v-0.3c0.5-5.2,0.9-18.4,0.9-22.1
			v-2.8c-2.2,2.6-4.6,5-7.1,6.8c0.1,2.9,0.2,5.8,0.3,8.2V54c0,1.4-1.4,2.3-2.5,2.3c-1,0-1.8-0.5-1.8-1.9c0-0.7,0.1-1.4,0.1-2.2h-4.9
			c0,2.3,0.1,4.4,0.1,6.3v0.1c0,1.3-1.3,2.2-2.6,2.2c-1,0-1.9-0.5-1.9-1.8v-0.2c0.4-5.7,0.7-12.1,0.7-17.9c0-0.8,0.1-1.8,0.1-2.9
			c-3.7,5.4-8.4,9.7-8.9,9.7c0,0-0.1,0-0.1-0.1c0-0.2,0.2-0.5,0.7-1.2c5.6-7.4,11.1-20.5,11.8-25.7c-2,0.1-4.3,0.2-7,0.5h-0.1
			c-0.7,0-2.5-2.2-2.5-2.9c4.6,0.7,9.2,0.8,11.8,0.8h2.4c0.2,0,0.5-0.2,0.8-0.5c0.8-0.9,1.6-2.5,2.4-3.4c0.1-0.1,0.3-0.2,0.5-0.2
			c1.1,0,5.2,3.7,5.2,4.9c0,0.3-0.2,0.6-1.1,0.6h-7.3l0.5,0.2c0.5,0.2,0.8,0.5,0.8,0.7c0,0.3-0.4,0.7-1.3,1
			c-0.6,0.2-0.8,0.5-1.3,1.9c-1.1,2.6-2.4,5.2-3.8,7.7l1.4,0.8h2.8c0.2,0,0.5-0.1,0.8-0.5c0.9-1.3,1.3-1.7,1.7-1.7
			c0.7,0,4.7,2.3,4.7,3.5c0,0.5-0.6,1-1.2,1.4c-1,0.7-1,0.6-1,1.9c0,0.7-0.1,1.7-0.1,2.9s0.1,2.4,0.1,3.8
			c4.9-5.1,9.6-13.5,12.8-21.4h-5.2c0,4-1.8,7.3-4.5,7.3c-1.4,0-2.5-1-2.5-2.3c0-0.8,0.4-1.6,1.2-2.4c2.6-2.5,3.8-4,4.1-7.1
			c0.1-0.6,0.2-0.9,0.3-0.9c0.4,0,1.1,2.1,1.3,3.9h5.9c0.6-1.6,1.1-3.2,1.6-4.7c0.3-1,0.6-2.4,0.6-3.6v-0.3c0-0.2-0.1-0.3-0.1-0.4
			c0-0.1,0.1-0.2,0.3-0.2c0.8,0,6.8,1.7,6.8,2.8c0,0.5-0.6,0.9-1.9,1.2c-0.7,0.2-1,0.7-1.3,1.6c-0.5,1.2-1,2.4-1.6,3.6h8.5
			c0.2,0,0.8-0.2,1-0.4c1.3-1.6,1.8-1.6,2-1.6c0.4,0,5,2.9,5,4.7c0,0.7-0.7,1.3-2.3,1.5c-2.5,0.2-4.8,2.5-6.8,3.7
			c0.1,0.1,0.2,0.2,0.2,0.4c0,0.5-0.6,0.9-1.6,1.1c-0.6,0.1-0.9,0.4-1.3,0.8c-0.8,0.8-2.2,2.1-3.4,3.1h5.4c0.2,0,0.6-0.2,0.8-0.5
			c1.8-2.9,2.5-3.1,2.8-3.1c1.1,0,4.8,3.3,4.8,4.5c0,0.3-0.2,0.6-1.1,0.6h-9.8c0.1,0,0.1,0.1,0.2,0.1c0.4,0.1,0.6,0.4,0.6,0.6
			c0,0.3-0.4,0.7-1.1,1c-0.4,0.1-0.5,0.6-0.5,1.2c-0.1,1.1-0.1,2.6-0.1,4.1h2.3c0.2,0,0.6-0.2,0.8-0.5c0.7-1.1,1.9-2.7,2.5-2.7
			c0.4,0,4.4,2.4,4.4,4c0,0.4-0.2,0.7-1.1,0.7h-8.9v6.7h2.3c0.2,0,0.6-0.2,0.8-0.5c0.7-1.1,1.9-2.7,2.5-2.7c0.7,0,4.4,2.6,4.4,4
			c0,0.4-0.2,0.7-1.1,0.7h-8.9v7.8h4.9c0.2,0,0.6-0.2,0.8-0.5c0.7-1.1,2.3-3.3,2.9-3.3C154,56.8,158.2,59.9,158.2,61.5L158.2,61.5z
			 M119.8,40.6c0-2-0.1-3.8-0.1-5.3c0-0.4-0.2-0.7-0.6-0.7h-3.4c-0.9,0.6-1,0.7-1,8.3c0,2.5,0.1,5.2,0.1,7.9h4.9
			C119.8,47.3,119.8,43.7,119.8,40.6z M150.1,22.9h-9.3c-1.9,3.9-4,7.7-6.4,11.2l1.3,0.5l0.3,0.1h5.2c1.2-4.3,1.4-5.8,1.4-7.3
			c0-0.7,0.2-0.7,0.2-0.7c1.2,0,5.1,1.9,5.6,2.2c0.8-1.6,2-4.4,2-5.4C150.4,23,150.4,22.9,150.1,22.9z M140.8,44.6h-6.3
			c0,2-0.1,4.4-0.1,6.7h6.4V44.6z M140.8,52.8h-6.3c0,2.9,0.1,5.6,0.1,7.8h6.2V52.8z M140.8,42c0-1.6,0-4.1-0.3-5.9h-4.4l-0.7,0.4
			c-0.7,0.3-0.7,0.5-0.9,6.6h6.3C140.8,43.1,140.8,42,140.8,42z"/>
		<path d="M177.8,44.8c-3.2,0-5.7-2.5-5.7-5.7s2.5-5.7,5.7-5.7s5.7,2.5,5.7,5.7S181,44.8,177.8,44.8z"/>
		<path d="M252.7,57.5c0.1,0,0.2,0,0.2,0.1c0,0.5-4,3.2-5.2,5.6c-0.2,0.5-0.7,1-1.3,1.1c-0.5,0.1-7.4,1-14.7,1
			c-6.1,0-19,0-21.8-10.3c-1.5,2.2-5,6.2-7.5,8.9c-0.2,0.2-0.2,1.4-0.8,1.4c-0.5,0-5.4-4.2-5.4-5c0-0.1,0.1-0.2,0.4-0.3
			c2.6-0.5,6.7-2.8,9.4-4.9c0.9-0.7,1-1.9,1-11.3c0-1.6-0.1-2.9-0.1-3.5c0-0.4-0.3-0.7-0.7-0.7l-0.9,0.1c-1,0.1-3.6,0.6-4.7,0.7
			h-0.1c-1,0-2.6-2.3-2.6-3.2c2,0.3,5.9,0.8,7.3,0.8h0.2l0.8-0.1c0.4,0,0.7-0.2,1-0.5c1.5-1.7,1.7-1.7,2-1.7c0.7,0,5.3,2.6,5.3,3.9
			c0,0.6-0.7,1-1.3,1.3c-1,0.5-1.5,0.4-1.6,1.7c-0.2,2.2-0.3,5.6-0.3,8.5v2.3c0,7,11.3,7.4,16.6,7.4c7.7,0,17.5-1.1,24.2-3.1
			C252.4,57.6,252.5,57.5,252.7,57.5L252.7,57.5z M212.8,22.4c0,1.5-1.1,2.7-2.5,2.7c-0.9,0-2-0.5-2.9-2c-1.6-2.5-4.4-5-6.2-6.2
			c-0.3-0.2-0.5-0.4-0.5-0.5c0-0.1,0.2-0.1,0.5-0.1C202.7,16.2,212.8,17.3,212.8,22.4L212.8,22.4z M236.6,36c0,0.4-0.2,0.7-1.1,0.7
			h-8.2c0,6,0.2,12.9,0.4,17.3v0.1c0,1.5-1.4,2.5-2.8,2.5c-1,0-1.9-0.7-1.9-2.2v-0.2c0.2-5.3,0.4-12.1,0.4-17.6
			c-2,0-4.6,0.1-7.2,0.5h-0.1c-0.8,0-2.3-1.9-2.3-2.8c3.1,0.5,7.1,0.7,9.7,0.8c0-9.7-0.5-12.1-0.7-12.8c-0.1-0.2-0.1-0.3-0.1-0.4
			s0-0.1,0.1-0.1c1,0,6.8,1.1,6.8,2.1c0,0.4-0.4,0.8-1,1.1c-1,0.5-1,0.3-1.1,1.9c-0.2,2-0.3,5-0.3,8.3h1.6c0.3,0,0.6-0.2,0.8-0.5
			c1.6-3.1,2.2-3.3,2.5-3.3C233.5,31.5,236.6,34.6,236.6,36z M250.5,52.8c0,1.5-1.1,2.5-2.5,2.5c-0.7,0-1.6-0.2-2.5-0.9
			c-7.5-5.5-8.3-17.3-8.3-26.2c0-2.8,0.1-5.2,0.1-7.2v-0.4c0-0.6-0.3-1-0.9-1h-8c-1.8,0-8.5,0.1-11.3,0.5H217c-0.8,0-2.3-2-2.3-2.9
			c3.5,0.7,11.9,0.8,13.8,0.8h7.7c0.3,0,0.6-0.1,0.8-0.5c0.2-0.3,1.3-1.8,2-1.8c0.7,0,5.1,2.5,5.1,3.9c0,0.5-0.4,1-1.1,1.3
			c-1.1,0.5-1.2,0.4-1.3,1.8c-0.2,2.5-0.4,5.4-0.4,8.5c0,12.5,4.2,16.9,4.7,16.9c1,0,2.2-2.4,3.5-6.2c0.2-0.5,0.4-0.9,0.4-1
			c0,0,0.1-0.1,0.1-0.1c0.1,0,0.1,0.2,0.1,0.6c0,1.4-0.4,4.7-0.4,7.3c0,1.1,0.1,2.1,0.3,2.6C250.4,51.8,250.5,52.3,250.5,52.8
			L250.5,52.8z"/>
		<path d="M312.6,57.5c0.1,0,0.2,0,0.2,0.1c0,0.5-4,3.2-5.2,5.6c-0.2,0.5-0.7,1-1.4,1.1c-0.5,0.1-7.4,1-14.6,1
			c-3.2,0-6.4-0.2-9.3-0.6c-6.8-1-11.2-4.9-12.5-9.7c-1.5,2.2-5,6.2-7.5,8.9c-0.2,0.2-0.3,1.4-0.9,1.4s-5.3-4.3-5.3-5
			c0-0.1,0.1-0.2,0.4-0.3c2.6-0.5,6.6-2.8,9.4-4.9c1-0.7,1-2.7,1-12.7v-2.2c0-0.4-0.3-0.7-0.7-0.7l-1,0.1c-1,0.1-3.5,0.5-4.7,0.6
			h-0.1c-1,0-2.6-2.3-2.6-3.1c2,0.3,5.9,0.8,7.3,0.8h0.2l0.8-0.1c0.4,0,0.7-0.2,1-0.5c1.2-1.3,1.6-1.7,1.9-1.7s5.3,2.4,5.3,3.8
			c0,0.6-0.7,1-1.3,1.3c-1,0.5-1.5,0.4-1.6,1.7c-0.2,1.9-0.3,5-0.3,7.7c0,1.2,0.1,2.3,0.1,3.3c0,0.4,0.1,1.1,0.2,1.6
			c0,0,0.1-0.1,0.1-0.1h0.1c5.3-2.7,10.9-7.8,16-15.4h-5.5v1.6c0,1.2-1.3,1.9-2.6,1.9c-1,0-1.8-0.5-1.8-1.6v-0.2
			c0.3-2.9,0.5-5.7,0.5-8.5c0-1.2-0.3-4.3-0.7-6.4c0-0.2-0.1-0.2-0.1-0.4c0-0.2,0.1-0.2,0.2-0.2c0.4,0,4.2,1.7,5.6,2.6l0.2,0.1h5.6
			c0-2.2-0.1-4.3-0.1-5.9c-2.8,0-8.3,0.1-12.4,0.6h-0.1c-0.8,0-2.5-2.4-2.5-3.1c4.7,0.7,11.9,1,14.9,1c-0.1-2-0.1-5.3-0.6-8
			c-0.1-0.3-0.1-0.4-0.1-0.5c0-0.1,0.1-0.1,0.1-0.1c1.4,0,7,1,7,2.3c0,0.4-0.4,0.8-1.1,1.2c-0.8,0.4-1.1,0.4-1.3,1.9l-0.1,3.2h7.4
			c0.2,0,0.7-0.2,0.8-0.5c0.7-1.1,1.9-2.8,2.8-3.4c0.1-0.1,0.4-0.2,0.5-0.2c1.5,0,5.4,3.9,5.4,4.8c0,0.4-0.2,0.8-1.3,0.8h-15.7
			c-0.1,1.7-0.1,3.7-0.1,5.9h6.2c0.4,0,0.7-0.3,0.8-0.5c0.7-1,1.4-1.7,1.8-1.7c0.8,0,4.7,2.5,4.7,3.5c0,0.5-0.7,1-1.4,1.4
			c-0.8,0.4-0.8,0.5-0.8,2.8c0,2,0.2,4.3,0.4,6.2v0.2c0,1.4-1.5,2-2.5,2c-1,0-1.9-0.5-1.9-1.8v-0.1c0-0.4,0.1-0.8,0.1-1.1h-7.4v3.9
			c5.5,0.8,15.5,3.5,15.5,8.3c0,1.4-1,2.6-2.3,2.6c-0.8,0-1.9-0.5-2.8-1.8c-2-2.8-6.4-6.1-10.3-8.4c0.1,4.4,0.1,8.6,0.2,11.8V56
			c0,1.1-1,2.3-2.6,2.3c-1,0-1.9-0.6-1.9-2v-0.2c0.2-3.1,0.3-7.4,0.4-12c-4.3,5.3-10.4,9.6-17,11.5c-0.1,0-0.1,0.1-0.1,0.1
			c2.2,4,7.9,5.2,16.1,5.2c7.7,0,17.5-1.1,24.2-3.1C312.3,57.6,312.5,57.5,312.6,57.5L312.6,57.5z M272.7,22.4
			c0,1.5-1.1,2.7-2.5,2.7c-0.9,0-2-0.5-2.9-2c-1.6-2.5-4.5-5-6.3-6.2c-0.3-0.2-0.4-0.4-0.4-0.4c0-0.1,0.1-0.2,0.5-0.2
			C264.5,16.2,272.7,18,272.7,22.4L272.7,22.4z M283.2,30l-0.5,0.4c-0.7,0.5-0.7,0.2-0.7,1.7c0,0.7-0.1,1.6-0.1,2.6
			c0,1,0.1,2,0.1,3.2h6.9c0-2.7,0.1-5.4,0.1-7.9L283.2,30L283.2,30z M300.2,34.3c0-3.4-0.1-4.3-1-4.3h-6.6v7.9h7.5
			C300.2,36.6,300.2,35.5,300.2,34.3z"/>
		<path d="M332.6,27.4c-0.8,0.2-1.6,0.3-2.3,0.4c-0.4,0-0.7,0.1-1,0.1c-5.5,0-7.6-4-7.6-5.9c0-0.2,0.1-0.4,0.3-0.4
			c0.3,0,0.7,0.3,1.1,0.5c1.9,1.1,3.9,2,6.2,2c2,0,3.9-0.5,4.3-0.6c0.1-0.9,0.2-1.8,0.2-2.6c0-3.5-0.8-3.7-1.6-3.7
			c-1.3,0-1.4-0.3-1.4-0.5c0-0.1,0.1-0.7,1.1-1.7c0.5-0.4,1.1-0.5,1.7-0.5c1.1,0,3.8,0.6,3.8,4.4c0.7,0.1,1.4,0.1,2,0.1
			c1.9,0,3.7,0.1,3.7,1.7c0,1.7-3.3,4.5-7.4,5.9c-1.7,4.2-4,9.5-9.1,20.8c-1,2.2-2.8,3.4-4.1,3.4c-1,0-1.7-0.5-1.7-1.7
			c0-0.8,0.4-1.9,1.4-3.4c3.2-4.8,8.3-11.9,10.5-17.9C332.5,27.7,332.6,27.4,332.6,27.4z M336.8,64.6c-4.7,0-8.1-3.7-8.1-6.7
			c0-4,5.3-6,10.8-6c1.3,0,2.7,0.1,4,0.4c0-2.4-0.2-4.9-0.2-7c0.1-5.2,1.3-7.9,5.6-10.9c1.6-1.1,3.5-2.6,3.5-4
			c0-0.7-0.2-0.9-1.8-2.5c-0.6-0.5-1-0.9-1-1.2c0-0.2,0.4-0.4,1.4-0.4c2.9,0,7.6,2.6,7.6,6.2c0,1.1-0.7,3.4-2.6,3.4
			c-0.6,0-1.2-0.1-1.9-0.3c-0.4-0.1-0.7-0.1-1.2-0.1c-0.8,0-7.4,0.1-7.4,6.1c0,1.6,0.3,4,1,8.9c0.1,0.9,0.2,1.9,0.3,2.8
			c3.3,1.1,8.8,4,8.8,7.6c0,1.4-0.9,2.6-2,2.6c-0.8,0-1.7-0.5-2.4-1.9c-1-1.7-2.6-3.3-4.6-4.5C345.8,61.4,341.3,64.6,336.8,64.6z
			 M337.6,54.2c-4.1,0-7,1.7-7,3.5s2.6,3.1,5.4,3.1c3.5,0,6.9-2,7.4-5.5C341.5,54.7,339.5,54.2,337.6,54.2z M338,21.6
			c0.4-0.3,0.7-0.7,0.7-1.1c0-0.2-0.1-0.5-1.5-1c-0.1,0.9-0.2,1.8-0.5,2.9C336.8,22.3,338,21.6,338,21.6z"/>
		<path d="M96,130.1c0.1,2.6,0.3,6.2,0.4,7.7v0.1c0,1-0.7,2.2-2.7,2.2c-1,0-2-0.5-2-1.8v-0.1c0-0.4,0.1-1,0.1-1.6H81.3v0.7
			c0.1,1.4,0.2,3.8,0.2,4.9v0.1c0,6.4-6.8,7-7.9,7c-0.7,0-1.1-0.2-1.5-0.9c-1.1-1.7-7.5-4.3-7.5-4.8c0-0.1,0.1-0.1,0.2-0.1
			c0.1,0,0.3,0,0.6,0.1c3.1,0.5,5.5,0.8,7.3,0.8c2.9,0,4.1-0.8,4.2-3c0.1-0.7,0.1-2.4,0.1-4.8h-0.2c-5,0-9.5,0.2-15.2,0.6h-0.1
			c-1.1,0-2.9-2.2-2.9-2.9c6.7,0.7,13.4,0.8,18.5,0.8v-5.2h-3c-4.7,0-13.1,0.1-19.3,0.6h-0.1c-1.1,0-2.8-2.3-2.8-3
			c7.1,0.7,17.5,0.8,22.2,0.8h2.9V124h-0.3c-2.6,0-10.2,0.1-15,0.5h-0.1c-1.1,0-2.8-2.1-2.8-2.8c5.5,0.7,15.2,0.8,18.2,0.8v-5H66.8
			v0.7c0,1.4-1.6,2-2.6,2c-1,0-1.9-0.5-1.9-1.7v-0.3c0.2-1.8,0.4-5.2,0.4-6.3c0-0.7,0-3.1-0.4-5c0-0.1-0.1-0.2-0.1-0.3
			c0-0.1,0.1-0.2,0.1-0.2c0.5,0,4,1.4,5.7,2.6c0.1,0,0.1,0.1,0.1,0.1H77c0-2-0.1-3.6-0.1-4.7h-4c-3.4,0-11.3,0.1-16.6,0.7h-0.1
			c-1,0-2.8-2.3-2.8-3.1c6.1,0.7,16.2,1,19.7,1h3.7c-0.1-2-0.1-4.7-0.6-6.5c-0.1-0.2-0.1-0.4-0.1-0.5s0-0.2,0.2-0.2
			c0.4,0,7.2,0.9,7.2,2.1c0,0.5-0.5,0.9-1.3,1.2c-0.8,0.3-0.9,0.8-1,2.3c0,0.3-0.1,0.8-0.1,1.6h11.9c0.4,0,0.8-0.2,1-0.5
			c0.7-1,2-2.9,3-3.7c0.1-0.1,0.4-0.2,0.6-0.2c0.1,0,0.2,0,0.4,0.1c2.2,0.8,5.5,4.2,5.5,5.2c0,0.4-0.3,0.7-1.3,0.7H81.3
			c0,1.3-0.1,2.9-0.1,4.7h8.8c0.3,0,0.5-0.1,0.8-0.4c1.3-1.8,1.7-1.8,2-1.8c0.5,0,4.9,2.1,4.9,3.5c0,0.5-0.5,0.8-1.2,1.3
			c-1.1,0.7-1,0.2-1.1,1.4c0,1,0.2,3.4,0.3,4.5v0.1c0,1.2-1.4,1.9-2.6,1.9c-1,0-1.9-0.4-1.9-1.4V118l0.1-0.5H81.2v5h9.4
			c0.3,0,0.5-0.1,0.8-0.4c0.4-0.5,0.8-1.1,1.3-1.5c0.2-0.2,0.4-0.4,0.7-0.4c0.9,0,5,2.4,5,3.6c0,0.5-0.5,1-1.3,1.4
			c-1.1,0.7-1,0.7-1.1,2c0,0.3-0.1,0.7-0.1,1.3h1.4c0.2,0,0.7-0.2,0.9-0.5c1.1-2,2.5-3.8,3-3.8c0.8,0,5.2,3.6,5.2,5.1
			c0,0.4-0.3,0.8-1.4,0.8L96,130.1L96,130.1z M67.9,110.6c-0.8,0.4-1,0.7-1.1,1.8v3.5h10.3c0-1.9-0.1-3.7-0.1-5.3H67.9z M81.2,110.6
			v5.3h10.1c0.1-0.8,0.1-1.7,0.1-2.5s0-1.5-0.1-2c0-0.5-0.2-0.8-0.8-0.8H81.2z M81.2,124v4.6h10.6c0-1.7-0.1-3.2-0.1-3.8
			c0-0.5-0.3-0.8-0.8-0.8C91,124,81.2,124,81.2,124z M81.2,130.1c0,2,0.1,3.8,0.1,5.2h10.5c0-1.6,0.1-3.4,0.1-5.2
			C91.9,130.1,81.2,130.1,81.2,130.1z"/>
		<path d="M167.2,122.2c0,0.5-4.6,1.8-6.2,3.2c-0.4,0.3-0.7,0.4-1,0.4c-1.1,0-6.3-1.9-10.9-6.2c-7,5.8-16.1,6.7-16.1,6.7
			c-0.4,0-0.5-0.1-0.5-0.2c0-0.2,0.4-0.4,1.3-0.7c5.5-1.7,9.9-4.7,13.1-8.2c-2.1-2.5-3.7-5.3-4.6-8.5c-1.7,2.2-3.5,4.3-5.3,5.8
			c1,0.8,2.9,2.5,2.9,3.5c0,0.8-0.8,1.3-2.4,1.4c-1.8,0.1-4.4,3.1-6.4,4.3c-0.2,0.1-0.4,0.2-0.4,0.2s-0.1,0-0.1-0.1
			c0-0.1,0-0.2,0.1-0.5c0.8-1.6,2.2-4.6,2.2-5.6c0-0.5-0.1-0.6-0.3-0.6h-3.8c0.8,0.2,1.3,0.3,1.3,0.8c0,0.3-0.3,0.6-0.8,0.8
			c-0.6,0.3-0.9,3.1-0.9,8.5c0,3.5,0.1,7.4,0.2,10c0.1,1.5,0.2,4.9,0.2,6v0.1c0,4.7-5.5,5.6-6.4,5.6c-0.5,0-1-0.2-1.3-0.9
			c-0.8-1.6-5.6-3.8-5.6-4.3c0-0.1,0.1-0.1,0.2-0.1c0.1,0,0.3,0,0.6,0.1c2.2,0.4,4,0.6,5.4,0.6c1.7,0,2.8-0.4,2.8-1.7
			c0.1-3.5,0.2-8,0.2-12.1v-4c-4.7,8.4-12.8,14-14.2,14c-0.1,0-0.1,0-0.1-0.1c0-0.2,0.3-0.5,1-1.1c4.3-3.8,11.7-15.1,13.1-21.4
			c0-0.3,0-0.6-0.1-0.8c-2.5,0.1-5.6,0.2-8.9,0.6h-0.1c-0.9,0-2.6-2.2-2.6-3c4.8,0.8,10.8,0.9,13.4,0.9h6.1c0.2,0,0.7-0.2,0.9-0.4
			c0.2-0.3,1.4-1.5,2.1-1.5c0.1,0,0.2,0,0.2,0.1c0.2,0.1,0.4,0.2,0.5,0.3c2.5-3.3,6.8-12.1,7.2-16.6c0.1-0.5,0.1-0.7,0.2-0.7
			c0.6,0,5.9,1.8,5.9,2.9c0,0.4-0.5,0.8-1.5,1c-0.7,0.1-0.7,0.2-1.1,0.8c-0.7,1.2-1.6,2.6-2.7,4.2h11.4c0.2,0,0.5-0.2,0.7-0.5
			c0.5-0.7,2.2-3.3,2.8-3.3s5,3.1,5,4.6c0,0.3-0.2,0.6-1.1,0.6h-7.7c2.8,1.1,3.1,1.3,3.1,1.9c0,0.4-0.5,0.8-1.1,0.8h-0.1
			c-0.5,0-0.8,0.1-1.1,0.8c-1.3,2.5-2.6,4.7-4.3,6.5c3.8,2.4,8.8,4.1,15,4.8C167,122.1,167.2,122.2,167.2,122.2L167.2,122.2z
			 M137.4,102.9c0,0.7-0.8,1-1.9,1.3c-0.7,0.1-1.3,0.3-2.3,1c-1.2,0.8-3.4,2.6-5.4,4l0.5,0.4c1.1,0.8,1.6,1.9,1.6,2.8
			c0,1.3-0.9,2.4-2.1,2.4c-0.8,0-1.7-0.5-2.6-1.7c-1.7-2.3-3.9-3.8-5.3-4.7c-0.3-0.2-0.4-0.3-0.4-0.4c0-0.2,0.5-0.2,1.1-0.2
			c1.6,0,4.1,0.2,6.1,1c1.3-2.2,2.9-5,3.1-5.8c0.1-0.1,0.1-0.2,0.1-0.4s-0.1-0.2-0.4-0.2h-3.2c-1.7,0-6.5,0.1-9.2,0.5H117
			c-0.7,0-2.5-2.2-2.5-2.9c4.4,0.8,10.1,0.8,11.9,0.8h3.1c0.4,0,0.7-0.1,1-0.4c0.4-0.3,1.1-1.1,1.4-1.4c0.2-0.2,0.4-0.2,0.5-0.2
			C133,98.7,137.4,101.3,137.4,102.9L137.4,102.9z M162.2,132.2c0,0.5-0.4,0.9-1.3,1.3s-1.1,0.5-1.2,1.5c-0.8,10.2-5,14.2-10.4,14.2
			c-1.4,0-1.8-0.2-2-0.8c-0.5-1.4-4.1-3.6-5.5-4.6c-5.5,5-13.3,6.4-14.8,6.4c-0.3,0-0.5-0.1-0.5-0.2c0-0.2,0.6-0.5,1.4-0.8
			c8.5-2.5,14.1-8.9,16.3-16.9c-2.5,0.1-5.3,0.2-8.8,0.6h-0.1c-1.1,0-2.9-2.3-2.9-3.1c4.5,0.7,8.9,0.8,12.1,0.9
			c0.5-2.3,0.6-4.9,0.6-5.8c0-0.6,0-1.1-0.1-1.7V123c0-0.1,0-0.1,0.1-0.1c0.5,0,6.6,0.9,6.6,2.2c0,0.4-0.4,0.7-1.1,1
			c-1.1,0.4-1.1,0.4-1.3,1.7c-0.2,1-0.4,2-0.6,2.9h6.2c0.5,0,0.7-0.2,0.8-0.5c1.4-1.6,1.6-1.6,1.6-1.6
			C158.6,128.7,162.2,131.1,162.2,132.2L162.2,132.2z M155.1,132.2h-6.5c-1.3,4.6-3.4,8.3-6.4,11.2c2.8,0.7,5.2,1.4,7.1,1.4
			s3.5-0.7,4.7-2.9c1.2-2.3,1.9-6.1,2-8.8C155.9,132.6,155.8,132.2,155.1,132.2L155.1,132.2z M143.2,107.3l-0.2,0.3
			c1.2,2.7,3.1,5.2,5.6,7.4c2.4-3.3,3.3-5.9,3.6-7.7L143.2,107.3L143.2,107.3z"/>
		<path d="M199,102.3c-11.2,17.5-26.8,24-28.4,24c-0.1,0-0.2-0.1-0.2-0.1c0-0.1,0.3-0.4,1.1-0.9c8.6-5.5,16.7-14.6,22.2-24.6
			c0.7-1.1,1.1-3.1,1.4-4.3c0.1-0.3,0-0.4,0.2-0.4c0.3,0,7.5,2.6,7.5,4.1c0,0.4-0.6,0.8-1.8,1.1c-0.1,0-0.2,0.1-0.3,0.1
			c4.9,6.1,15.2,15.2,27,18.2c0.3,0.1,0.4,0.2,0.4,0.2c0,0.5-5.3,1.4-7.1,3.2c-0.2,0.2-0.5,0.4-0.8,0.4c-2.1,0-14.1-8.9-20.5-21.6
			L199,102.3L199,102.3z M198.7,129.9c0.3,0.2,0.5,0.4,0.5,0.5c0,0.4-0.6,0.8-1.3,1c-0.5,0.2-1,0.7-1.3,1.3c-1.5,2.8-4,7.5-6,10.4
			c7.1-0.5,13.9-1.4,18.9-2.2c-1.8-2-3.8-4-5.8-5.8c-0.4-0.3-0.6-0.5-0.6-0.7c0-0.1,0.1-0.1,0.1-0.1c0.4,0,15.7,5.1,15.7,11.4
			c0,1.7-1.1,3.1-2.5,3.1c-1,0-2-0.7-2.9-2.3c-0.8-1.4-1.8-2.9-2.9-4.4c-7.3,2.3-20.4,5-27.8,6.4c-0.8,0.2-1.3,1-1.9,1
			c-1,0-4.3-5.8-4.3-6.4c0-0.1,0.1-0.1,0.1-0.1c0.1,0,0.2,0,0.5,0.1c1.9,0.2,3.8,0.4,5,0.4c0.5,0,1.7,0,6.5-0.3
			c0.5-1.8,2.8-10.8,2.8-13.3c-4,0.1-9.2,0.3-13,0.7h-0.1c-1.1,0-2.9-2.3-2.9-3.1c6.1,0.7,16.7,1,20.2,1h14.5c0.4,0,0.8-0.2,1-0.5
			c0.4-0.7,2.6-4.1,3.6-4.1c0.1,0,0.2,0,0.4,0.1c2.6,1,5.7,4.4,5.7,5.3c0,0.4-0.2,0.7-1.3,0.7H198.7L198.7,129.9z M198.5,120.2
			c-2,0-6.6,0.2-9.8,0.5h-0.1c-0.8,0-2.5-2.1-2.5-2.9c4,0.6,10.4,0.8,12.5,0.8h2.1c0.1,0,0.5-0.2,0.7-0.5c0,0,2.2-3.8,3-3.8
			c0.1,0,0.2,0,0.3,0.1c1.4,0.7,5.1,3.8,5.1,5c0,0.4-0.2,0.7-1.1,0.7H198.5L198.5,120.2z"/>
		<path d="M243.8,109.8c-2.4,0-5.9,0.1-9.7,0.5h-0.1c-0.8,0-2.5-2.2-2.5-2.9c4.6,0.7,9.8,0.8,12.4,0.8h7c0.2,0,0.5-0.2,0.7-0.5
			c0.2-0.3,2-3.4,2.9-3.4c1.1,0,5.2,3.4,5.2,4.8c0,0.3-0.3,0.6-1.2,0.6H243.8L243.8,109.8z M255,145.9c0,1.3-1.4,2.2-2.7,2.2
			c-1,0-2-0.5-2-1.7v-1.4h-9.9c0,0.9,0.1,1.9,0.1,2.8c0,1-1.3,2.1-2.8,2.1c-1,0-2-0.5-2-1.7v-0.2c0.5-5.6,0.5-8.5,0.5-11.4
			c0-0.8-0.2-5.2-0.7-7.3c0-0.1-0.1-0.2-0.1-0.3c0-0.1,0.1-0.2,0.1-0.2c0.4,0,4.4,1.6,6.1,2.7h7.5c0.2,0,0.5-0.1,0.8-0.5
			c0.4-0.5,1-1.4,1.4-1.7c0.1-0.1,0.3-0.2,0.5-0.2c0.5,0,5.2,2.2,5.2,3.6c0,0.5-0.5,0.9-1.2,1.4c-1.2,0.8-1.2,0.9-1.2,3
			c0,2.2,0.2,5.1,0.5,8.8L255,145.9L255,145.9z M244.3,101.6c-1.8,0-3.5,0.1-6.4,0.5h-0.1c-0.8,0-2.3-2-2.3-2.9
			c3.5,0.7,6.9,0.8,8.8,0.8h3.2c0.1,0,0.5-0.2,0.7-0.5c0.5-1,1.7-2.5,2.3-3.1c0.2-0.1,0.4-0.2,0.5-0.2c0.1,0,0.2,0,0.2,0.1
			c1.7,0.7,4.4,3.3,4.4,4.4c0,0.4-0.2,0.8-1.1,0.8L244.3,101.6L244.3,101.6z M244.3,117.3c-1.8,0-3.5,0.1-6.4,0.5h-0.1
			c-0.7,0-2.3-1.9-2.3-2.9c3.5,0.7,6.9,0.8,8.8,0.8h3.4c0.1,0,0.5-0.2,0.7-0.5c0.4-0.7,1.8-3.1,2.8-3.1c0.1,0,0.2,0,0.2,0.1
			c0.9,0.4,4.3,2.9,4.3,4.1c0,0.4-0.2,0.8-1.1,0.8L244.3,117.3L244.3,117.3z M244.3,125.2c-1.8,0-3.5,0.1-6.4,0.5h-0.1
			c-0.7,0-2.3-2-2.3-2.9c3.5,0.7,6.9,0.8,8.8,0.8h3.4c0.1,0,0.5-0.2,0.7-0.5c0.5-1,2.1-3,2.8-3c0.1,0,0.2,0,0.3,0.1
			c0.6,0.2,4.2,2.6,4.2,4.1c0,0.4-0.2,0.8-1.1,0.8L244.3,125.2L244.3,125.2z M250.3,143.4c0.1-2.5,0.1-4.4,0.1-6.2
			c0-1.1-0.1-2.2-0.1-3.4c0-0.4-0.2-0.8-0.6-0.8h-8.2l-0.5,0.4c-0.7,0.4-0.7,0.5-0.7,6.5c0,1.1,0.1,2.3,0.1,3.5L250.3,143.4
			L250.3,143.4z M273.1,147.6c0,1.4-1.6,2.3-3,2.3c-1.1,0-2.1-0.5-2.1-1.9v-0.2c0.4-6.5,0.6-18.5,0.6-28.7c-2.4,0-6.4,0.1-9.9,0.6
			h-0.1c-0.7,0-2.5-2.3-2.5-2.9c4.2,0.7,9.8,0.8,12.5,0.8c0-12.5-0.4-18.4-0.8-20.3c-0.1-0.2-0.1-0.3-0.1-0.4c0-0.1,0.1-0.2,0.2-0.2
			c0,0,7.5,0.7,7.5,2.4c0,0.4-0.5,0.9-1.3,1.3c-0.8,0.5-1.1,0.5-1.2,2c-0.2,2.1-0.2,8-0.2,15.1h4.7c0.2,0,0.6-0.2,0.8-0.5
			c0.7-1,2-2.9,2.8-3.5c0.1-0.1,0.3-0.2,0.5-0.2c1.1,0,5.3,3.8,5.3,5c0,0.4-0.2,0.7-1.1,0.7h-12.9
			C272.8,128.9,272.9,140.6,273.1,147.6L273.1,147.6L273.1,147.6z"/>
		<path d="M297.7,102.7c2.2,0,7,5.2,7,9.7c0,2.2-1.1,4.1-2.3,7c-1.6,4-3.2,8.3-3.2,12.1c0,0.8,0.2,3.5,0.7,3.5
			c0.2,0,0.4-0.2,0.7-0.8c1.3-3.1,5.7-11.9,6.6-11.9c0.1,0,0.1,0.1,0.1,0.2c0,0.3-0.1,0.8-0.5,1.6c-2,4.6-4.6,12.7-4.6,17.3
			c0,1,0.1,1.9,0.4,2.6c0.3,0.7,0.4,1.3,0.4,1.8c0,1.4-0.8,2.3-1.9,2.3c-3.2,0-4.9-7-4.9-12.8c0-6.1,1.9-11.6,3.2-17.3
			c0.5-2,0.9-3.9,0.9-5.8c0-2.5-0.7-5.1-3-8.2c-0.3-0.4-0.5-0.7-0.5-0.9C296.9,103.1,297.1,102.7,297.7,102.7L297.7,102.7z
			 M330.4,119.8c0,4.7,0.3,9,0.5,12.5c0.1,1,0.1,2,0.1,3.1c5.3,1.6,9.4,5,9.4,7.5c0,1.4-1,2.6-2.1,2.6c-0.7,0-1.6-0.5-2.3-1.8
			c-1.3-2.1-3.2-3.8-5.1-4.9c-1,5.2-5.3,8.4-9.7,8.4c-4.1,0-8.2-2.9-8.2-6.5c0-3.4,4.2-6.4,11.3-6.4c1.1,0,2.2,0.1,3.4,0.2
			c0.1-1,0.1-1.8,0.1-2.6c-0.1-2.6-0.2-8.2-0.2-13.7l-0.5,0.1c-0.8,0.1-1.5,0.2-2.3,0.2c-7,0-9.8-5.3-9.8-6.1c0-0.1,0.1-0.2,0.2-0.2
			c0.2,0,0.8,0.2,1.5,0.4c1.3,0.5,3.2,1.4,4.5,1.7s2.5,0.5,3.8,0.5c0.7,0,1.7-0.1,2.6-0.2v-3.7c0-5.5-0.4-5.8-2.4-6.3
			c-0.7-0.2-1.1-0.3-1.1-0.7c0-0.5,1.4-2.1,3-2.1s4.6,2.3,4.6,4.6c0,0.5-0.1,1-0.2,1.6c0.5,0.2,5,1.6,5.7,1.7c1,0.2,1.6,0.9,1.6,2
			c0,1.7-1.7,4-8.2,5.6L330.4,119.8L330.4,119.8z M322,136.8c-4.1,0-7.1,1.8-7.1,3.7s2.5,3.1,5.2,3.1c3.5,0,6.5-2.2,7.3-5.9
			C325.6,137.1,323.8,136.8,322,136.8L322,136.8z M330.6,114c3.3-1,3.6-1.9,3.6-2.5c0-0.7-0.7-1.5-3.1-2.8
			C331.1,108.9,331,109.4,330.6,114z"/>
		<path d="M355.4,148.1c-1.7-3.4-4.6-5.8-7.2-7.7c-0.6-0.5-1.1-0.8-1.1-1c0-0.1,0.2-0.1,0.5-0.1c2.3,0,13.5,2.2,13.5,7.8
			c0,1.8-1.3,3.2-2.8,3.2C357.2,150.2,356.2,149.6,355.4,148.1L355.4,148.1z"/>
		<path d="M71.3,224.5c0,4.4-1.9,5-2.6,5s-1.5-0.6-2-1.6c-0.8-1.4-2.8-2.4-4.9-3c-2.4,1.6-4.2,2.2-5.9,2.2c-1.5,0-2.1-0.7-2.1-1.7
			c0-1.1,1.6-3.7,2.8-3.7c0.2,0,0.4,0.1,0.7,0.2c0.2,0.1,0.4,0.2,0.7,0.2c0.7,0,2.3-0.5,10.6-5.7c0.1-1.1,0.1-2.2,0.1-3.3
			c0-2.6-0.1-5.3-0.2-7.7c-2.9,1.4-5,1.9-7.1,1.9c-1.4,0-5.4-0.3-5.4-4.3c0-0.4,0.1-0.5,0.3-0.5c0.2,0,0.5,0.1,1,0.3
			c0.8,0.3,2.3,0.7,4.3,0.7c2.4,0,3.8-0.4,6.8-1.8c-0.5-6.9-0.8-8.7-3.4-8.7c-1.1,0-1.5-0.2-1.5-0.6c0-0.8,1.2-2.1,3-2.1
			c1.6,0,4.9,1.3,4.9,4.3c0,0.4,0,0.8-0.1,1.3c1.3,0.4,2.8,0.7,3.9,0.7h0.4c1.3,0,2,0.8,2,1.7c0,1.9-1.6,3.3-6.5,5.9
			c0,3.5,0.1,7.1,0.2,10.7c4.6-2.8,9.5-5.2,14.8-5.2c7.2,0,10,3.5,10,7.1c0,6.1-7.3,10.7-12.8,10.7c-3.8,0-6.3-2.2-6.3-6.1
			c0-3.4,2.3-7.8,2.8-7.8c0.1,0,0.1,0.1,0.1,0.3c0,0.4-0.1,1-0.4,2c-0.3,1-0.4,2-0.4,2.9c0,2.6,1.3,4.6,4.3,4.6
			c3.6,0,8.8-2.8,8.8-7.3c0-3.3-3.5-4.9-7.1-4.9c-4.9,0-9.5,3.1-13.7,6.5l0.1,6.4V224.5L71.3,224.5z M62.7,224.3
			c1.6,0.2,2.7,0.4,3.5,0.4c1.6,0,1.9-0.5,1.9-1.3c0.1-1.3,0.2-2.5,0.2-3.8C66.4,221.3,64.5,223,62.7,224.3z M71,200.2
			c0.7-0.4,2.1-1.2,2.1-1.9c0-0.5-0.8-1.1-2-1.7c-0.1,0.6-0.1,1.4-0.1,2.3C71,198.9,71,200.2,71,200.2z M96.5,203.5
			c-1.1,0.3-2.6,0.5-3.9,1.3c-0.5,0.3-0.9,0.5-1.2,0.5c-0.1,0-0.2-0.1-0.2-0.2s0.2-0.5,0.7-1c0.6-0.6,1.9-2.3,1.9-3.6
			s-1.9-1.6-2.9-1.6c-1.4,0-2.8,0.4-4,1.3c-0.8,0.6-1.4,0.9-1.7,0.9c-0.1,0-0.2-0.1-0.2-0.2c0-0.6,3-4.9,8.3-4.9
			c3.8,0,7.4,2.2,7.4,4.9c0,0.8-0.5,1.4-1.3,1.8C98.6,203.2,98.3,203.1,96.5,203.5L96.5,203.5z"/>
		<path d="M163.8,213.9c0,0.4-5.5,1.7-7.3,3.9c-0.3,0.4-0.7,0.5-1.2,0.5c-0.9,0-11.5-1.9-20.3-8.9c-3.7,2.6-7.6,4.7-11.4,6.4
			c1.2,0.5,2.6,1.1,3.4,1.7l0.1,0.1h15.2c0.2,0,0.5-0.2,0.7-0.5c1-1.3,1.4-1.6,1.9-1.6c0.2,0,5,2,5,3.5c0,0.4-0.4,0.8-1.1,1.2
			c-1.1,0.7-1.1,1-1.1,2.8c0,2.1,0.2,5.3,0.4,8.3v0.2c0,1.4-1.6,2.1-2.6,2.1s-2-0.5-2-1.8v-0.1c0-0.7,0.1-1.3,0.1-1.9h-17.5v2
			c0,1.1-1.3,2-2.8,2c-1.1,0-2-0.5-2-1.6V232c0.4-3.1,0.4-8.2,0.4-11.2c0-0.6,0-2.3-0.2-4c-8,3.1-13.7,3.5-14.2,3.5
			c-0.4,0-0.7-0.1-0.7-0.2c0-0.2,0.8-0.6,2.5-1c7.1-2,15.6-6.1,23.2-12.3c-2-2.1-3.8-4.4-4.9-7c-8.9,9.8-18.1,13.9-19.3,13.9
			c-0.1,0-0.2,0-0.2-0.1c0-0.2,0.4-0.5,1.2-1.1c6.1-3.9,13.7-12.5,18.1-19.5c0.6-0.9,0.8-1.8,1.1-2.8c0.1-0.3,0.1-0.4,0.2-0.4
			c0.5,0,6.1,2.3,6.1,3.5c0,0.4-0.6,0.7-1.9,0.7c-0.8,0-1,0.2-1.6,0.9c-0.4,0.6-0.8,1.2-1.3,1.8h10.7c0.5,0,0.8-0.2,1-0.4
			c0.5-0.4,0.9-1,1.4-1.3c0.2-0.2,0.4-0.2,0.5-0.2c1,0,4.9,2.6,4.9,3.8c0,0.5-0.5,0.8-1.4,1.1c-1,0.2-1.6,0.3-2.3,1.1
			c-2.2,2.4-4.5,4.6-7,6.6c6.5,3.8,15.3,6.2,24.9,6.2h0.7C163.6,213.7,163.8,213.8,163.8,213.9L163.8,213.9z M159.5,191.1
			c0,0.8-0.8,1.4-2.6,1.5c-2.7,0.1-6.1,2.5-8.8,3.8c-0.2,0.1-0.4,0.2-0.5,0.2c-0.1,0-0.1,0-0.1-0.1c0-0.1,0.1-0.2,0.2-0.4
			c2.3-3.5,3.2-5.5,3.2-5.9c0-0.2-0.1-0.2-0.3-0.2h-32.6c-0.4,4.6-3.2,8-6.1,8c-1.5,0-2.6-1-2.6-2.3c0-0.9,0.5-2,1.8-3
			c3.4-2.6,4.9-4.5,5.4-7.9c0.1-0.6,0.2-0.9,0.4-0.9c0,0,1,1.1,1.1,4.6h14.2c0-0.6-0.1-1.3-0.1-1.8c-0.1-2-0.2-4.6-0.7-6.2
			c-0.1-0.2-0.1-0.4-0.1-0.4c0-0.1,0.1-0.1,0.2-0.1c0.9,0,7.9,1,7.9,2.3c0,0.4-0.5,0.9-1.4,1.4c-1.1,0.6-1.1,0.6-1.3,2l-0.2,2.8h14
			c0.2,0,0.7-0.2,0.9-0.5c0.4-0.4,1.2-1.3,1.7-1.6c0.2-0.1,0.4-0.2,0.5-0.2C155,186.1,159.5,189.5,159.5,191.1z M143.5,224.5
			c0-1.6-0.1-3.2-0.1-4.6c0-0.4-0.2-0.7-0.7-0.7h-15.7l-0.4,0.3c-0.4,0.2-0.7,0.4-0.7,4.2c0,1.3,0,2.9,0.1,4.5h17.6
			C143.4,226.9,143.5,225.7,143.5,224.5z M140.3,198.7c0-0.2-0.2-0.3-0.5-0.3h-11.2c-0.2,0.2-0.2,0.4-0.4,0.5
			c1.4,2.3,3.4,4.4,5.9,6.2C137.6,202,140.3,198.9,140.3,198.7z"/>
		<path d="M223,227.4c0,0.6-5,1-6.3,2.4c-0.2,0.3-0.6,0.4-0.9,0.4c-1,0-7.5-5.8-11.3-21.1c0,5.7,0.1,11.5,0.1,13.9
			c0.1,1.3,0.2,3,0.2,4.4v0.1c0,6.2-6.4,6.5-6.5,6.5c-0.6,0-1-0.3-1.2-1c-0.8-2-5.7-4.1-5.7-4.5c0-0.1,0.1-0.1,0.2-0.1
			c0.1,0,0.4,0,0.7,0.1c2.5,0.4,4.1,0.6,5.4,0.6c2.1,0,2.7-0.7,2.8-2.3c0.1-1.4,0.1-4.7,0.1-8.8c-3.5,3.8-8.4,8.2-11,10.4
			c-0.4,0.4-0.4,1.3-1,1.3c-1,0-4.9-3.4-4.9-3.8c0-0.2,0.2-0.2,0.5-0.3c3.4-0.9,12.3-6.1,16.3-8.9v-10c-2.8,0-6.4,0.1-10.7,0.5h-0.1
			c-0.5,0-1.3-0.7-1.9-1.3c0.2,0.4,0.2,0.8,0.2,1.1c0,1.3-1,2.4-2.1,2.4c-0.7,0-1.6-0.4-2.2-1.5c-0.9-1.4-1.9-3.2-3.2-4.2
			c0.1,9.6,0.2,20.7,0.4,27.8v0.1c0,1.4-1.4,2.5-2.9,2.5c-1.1,0-2-0.7-2-2.1v-0.2c0.3-6.4,0.5-15.4,0.6-24c-4.7,8.1-11.2,11-11.5,11
			c-0.1,0-0.1-0.1-0.1-0.1c0-0.2,0.3-0.6,1-1.2c4.4-4.2,9.9-14.6,10.7-19.5v-0.8c-1.8,0.1-3.7,0.2-6.5,0.5h-0.1
			c-0.7,0-2.4-2.2-2.4-2.9c3.5,0.5,6.7,0.7,9,0.8c0-2.8-0.2-11.9-0.7-14.5c-0.1-0.2-0.1-0.3-0.1-0.4s0.1-0.2,0.1-0.2
			c0.1,0,7.2,1.1,7.2,2.5c0,0.4-0.4,0.8-1.1,1.2c-0.9,0.5-1.2,0.5-1.3,2c-0.1,1.8-0.2,5.2-0.2,9.5h0.7c0.2,0,0.6-0.2,0.8-0.5
			c0.6-1.1,1.3-2.1,2.2-3.1c0.1-0.1,0.3-0.2,0.5-0.2c1.3,0,4.4,3.7,4.4,4.5c0,0.4-0.2,0.7-1.1,0.7h-7.3v5.6h0.4c2,0,4.9,0.5,6.4,2.1
			c-0.1-0.2-0.2-0.5-0.2-0.7c4.9,0.6,10.1,0.8,13.4,0.9v-5.6c-2.2,0-4,0.1-7.8,0.5h-0.1c-1,0-2.8-2.2-2.8-2.9
			c4.4,0.5,7.8,0.8,10.6,0.8v-0.8c-0.1-1.1-0.1-3.4-0.2-4.7c-2.5,0-4.9,0.1-9,0.5h-0.1c-1.1,0-2.8-2.2-2.8-2.9
			c5.5,0.7,10.1,0.8,13.2,0.8h2.3c0.8-1.5,3.2-6.6,3.7-10.1c0.1-0.5,0-0.6,0.2-0.6c0.8,0,6.4,3.1,6.4,4c0,0.4-0.5,0.8-1.8,0.8
			c-0.9,0-0.9,0.2-1.4,0.8c-1.3,1.3-3.2,3.2-5.4,5.2h4.5c0.4,0,0.8-0.2,1-0.5c1.2-1.9,2.3-3.2,2.9-3.2c1.6,0,5,3.2,5,4.4
			c0,0.4-0.3,0.7-1.2,0.7H206c0.4,0.2,0.6,0.4,0.6,0.7c0,0.4-0.4,0.7-1,1c-0.7,0.3-1.1,0.5-1.1,3.9h2.8c0.4,0,0.7-0.2,0.9-0.5
			c1.2-1.6,2.2-2.8,2.8-2.8c0.8,0,3.5,1.6,4.6,3.4c0.1,0.1,0.2,0.4,0.2,0.5c0,0.4-0.3,0.8-1.2,0.8h-10.1c-0.1,1.6-0.1,3.5-0.1,5.6
			h6.3c0.5,0,0.8-0.2,1-0.5c0.8-1.2,2.5-3.4,3.1-3.4c1.6,0,5.3,3.5,5.3,4.7c0,0.4-0.2,0.8-1.2,0.8h-14.3c1,3.2,2.4,6.2,4.3,9.1
			c2.5-2,5.2-5.4,5.6-6.5c0.1-0.3,0.1-0.4,0.2-0.4c0.4,0,5,3.6,5,5c0,0.5-0.4,0.7-1.1,0.7c-0.2,0-0.6,0-1-0.1
			c-0.2-0.1-0.5-0.1-0.8-0.1s-0.5,0.1-0.7,0.1c-1.3,0.5-3.8,1.6-6.5,2.4c3.2,4.6,7.6,8.3,12.7,10.2C222.8,227.2,223,227.3,223,227.4
			L223,227.4z M197.2,215.1c0,1.4-1,2.5-2.2,2.5c-0.8,0-1.7-0.5-2.5-1.7c-1-1.6-2.9-3.7-4.5-5c-0.4-0.3-0.6-0.5-0.6-0.6
			s0.3-0.1,0.9-0.1h0.2C190.9,210.2,197.2,211,197.2,215.1L197.2,215.1z M200.8,186.6c0,1.6-1.2,2.7-2.5,2.7c-0.9,0-1.9-0.6-2.5-2
			c-0.5-1.4-2.2-3.6-3.4-4.9c-0.3-0.3-0.5-0.5-0.5-0.7s0.1-0.2,0.4-0.2C193.9,181.6,200.8,182.8,200.8,186.6z"/>
		<path d="M248.3,215.4c-4.8,3-6.7,6-6.7,8.3s2.5,5.2,7.5,5.2c2.2,0,4.7-0.5,6.9-1.7c0.7-0.4,1.4-0.5,2-0.5c1.5,0,2.5,1,2.5,2.1
			c0,2.8-5.3,4.3-9.7,4.3c-6.5,0-11.8-3.9-11.8-8.5c0-3.7,3.4-7.9,9.3-11.5c0-3.7-0.5-8.9-3.8-8.9c-1.4,0-3.2,1.1-5.3,4l-1.8,3.4
			c-1.3,2.3-2.7,4.7-4.4,4.7c-0.2,0-1.8-0.1-1.8-2.2c0-1.2,0.6-2.9,2.5-4.6c5.5-5,7.3-8.2,10-14.2l0.1-0.2l-0.1,0.1
			c-1.2,0.3-2.3,0.5-3.3,0.5c-5.8,0-7.4-4.1-7.4-5.7c0-0.2,0.1-0.3,0.2-0.3c0.3,0,0.7,0.2,1.5,0.8c1.8,1.3,3.5,1.6,5,1.6
			c1.8,0,3.7-0.4,5.3-1c0.1-0.7,0.1-1.3,0.1-1.7c0-1.4-0.2-3-2.3-3.5c-0.5-0.1-1.1-0.3-1.1-0.6c0-0.2,0.9-1.5,2.9-1.5
			c1.6,0,2.8,0.5,3.4,2.8h0.5c1.1,0.1,2,0.2,2.8,0.2c0.3,0,0.5-0.1,0.8-0.1c0.4-0.2,0.7-0.2,1-0.2c1.5,0,1.5,1.4,1.5,1.6
			c0,3.2-6,5.5-8.1,6.2l-0.1,0.3c-2,4.4-3.3,6.7-4.6,9.1c1.1-0.6,2.2-0.8,3.2-0.8c3.1,0,5.4,2.6,6.2,6.2c1.7-4.4,6.4-12.8,13.3-12.8
			c3.3,0,7.4,2.2,7.4,5.3c0,2.3-2.5,4.7-6.6,6.3c-4.2,1.6-9.4,3.6-13.4,5.6c0.2,1.4,0.2,2.8,0.2,4.3c0,0.7,0,1.5-0.1,2.2
			c-0.2,2.3-1.8,3.9-3.1,3.9c-0.9,0-1.7-0.8-1.7-2.8c0-0.2,0.1-0.5,0.1-0.7c0.1-1.5,0.9-2.1,1-4.1V215.4L248.3,215.4z M248.2,187.2
			c0.1,0.2,0.1,0.5,0.1,0.7c0,0.7-0.1,1.3-0.2,2c1.4-0.7,2.1-1,2.1-1.7c0-0.3-0.2-0.6-1.7-1L248.2,187.2L248.2,187.2z M263.5,205.3
			c2.6-1.4,3.8-2.9,3.8-4.2s-1.1-2.9-3.5-2.9c-5.5,0-10.6,8.5-12.2,13.3C255.3,209.5,260,207.2,263.5,205.3z"/>
		<path d="M334.1,229c0,0.5-5.5,2.2-7.1,3.9c-0.3,0.4-0.7,0.5-1,0.5c-3.2,0-14.8-5.9-18.5-18.2c-4.6,18.8-26.9,19-27.5,19
			c-0.7,0-1-0.1-1-0.2c0-0.2,0.5-0.4,1.3-0.5c11.2-1.9,20.6-8.8,22.9-19.3h-3.2c-3.2,0-10.9,0.1-16,0.7H284c-1.1,0-2.9-2.3-2.9-3.1
			c5.9,0.7,15.9,1,19.3,1h3.1c0.2-1.1,0.2-2.3,0.2-3.5c0-1.4,0-2.7-0.2-4.1c-3.6,0.2-7.3,0.3-10.9,0.3c-7,0-7.2-0.3-7.2-0.7
			c0-0.2,0.4-0.4,1.3-0.4c7.6-0.4,20.9-2,28-4c1.3-0.4,2.2-0.9,2.9-1.3l0.2-0.1c-0.4-0.3-0.7-0.7-0.9-1.3c-0.7-1.6-2-3.5-3.2-4.7
			c-0.3-0.3-0.4-0.5-0.4-0.6s0.1-0.2,0.4-0.2c1.1,0,8.2,1,8.2,4.9c0,1.4-1.1,2.5-2.4,2.6c1.1,1.1,2.9,2.9,2.9,3.9
			c0,0.4-0.4,0.6-0.9,0.6c-0.4,0-0.8-0.1-1.3-0.2c-0.3-0.1-0.7-0.2-1-0.2H319c-2.7,0.4-6.3,0.8-10.3,1.1c0.2,0.1,1.6,0.4,1.6,0.9
			c0,0.3-0.4,0.7-1,0.9c-0.8,0.4-0.9,0.3-1,2.1c-0.1,1.1-0.1,2.3-0.2,3.2c0,0.3-0.1,0.6-0.1,0.8h13.2c0.4,0,0.8-0.2,1-0.5
			c2.8-3.9,3.2-4,3.5-4c1.4,0,5.9,4,5.9,5.3c0,0.4-0.2,0.7-1.3,0.7h-22.2c3.7,6.8,12.3,14.1,25.5,14.6
			C334,228.8,334.1,228.9,334.1,229L334.1,229z M306,190.3c0,0.4-0.2,0.7-1.1,0.7h-14.4c-4.9,6-9.5,9.4-10.4,9.4
			c-0.1,0-0.1-0.1-0.1-0.1c0-0.1,0.2-0.5,0.7-1c3.9-4,9.5-13.5,10.1-18.5v-0.4c0-0.2,0-0.2,0.2-0.2c0.6,0,6.8,2.5,6.8,3.8
			c0,0.5-0.8,0.8-2,0.9c-0.8,0.1-1,0.2-1.5,1c-0.8,1.2-1.7,2.5-2.6,3.7h6.2c0.2,0,0.6-0.2,0.8-0.5c0.5-1,2.1-3.2,2.8-3.2
			C302.4,185.8,306,189,306,190.3L306,190.3z M299.6,197.4c0,1.5-1.2,2.7-2.5,2.7c-1,0-1.9-0.6-2.5-2.1c-0.7-1.7-2-3.6-3.2-4.9
			c-0.3-0.3-0.5-0.5-0.5-0.7c0-0.1,0.1-0.1,0.5-0.1C293.9,192.4,299.6,194,299.6,197.4L299.6,197.4z M331,190.3
			c0,0.4-0.3,0.7-1.2,0.7h-19.6c-5.6,7.4-8.9,8.9-9.4,8.9c-0.1,0-0.1-0.1-0.1-0.1c0-0.1,0.2-0.4,0.6-0.8c2.6-2.8,8.6-13.4,9-17.9
			c0.1-0.5,0-0.7,0.2-0.7c0.5,0,6.7,2.3,6.7,3.7c0,0.5-0.7,0.8-1.9,0.8c-0.7,0.1-0.8,0-1.3,0.8l-2.8,3.9h10.2c0.2,0,0.6-0.2,0.8-0.5
			c2.5-3.5,2.9-3.7,3.2-3.7C326.2,185.4,331,188.6,331,190.3z"/>
		<path d="M367.1,202.6c0,0.4-0.2,0.7-1.1,0.7H348l-0.4,0.3c-0.5,0.4-0.7,0.5-0.7,1.3v1.4c0.1,1.3,0.1,2.6,0.1,4c0,1,0,2.1-0.1,3.1
			c5.7-2.8,9.7-6.8,10.4-9.2c0.1-0.2,0.1-0.4,0.2-0.4c0.4,0,4,2.6,4,3.8c0,0.4-0.2,0.6-0.8,0.6c-0.2,0-0.4,0-0.7-0.1
			c-0.2-0.1-0.4-0.1-0.5-0.1c-0.2,0-0.4,0.1-0.7,0.4c-3.2,2.9-8,5.1-12.1,5.9c-0.2,2.5-0.5,5-1.2,7.4c5.1-2,13-7.5,14.3-11.4
			c0.1-0.2,0.1-0.4,0.2-0.4c0.1,0,0.2,0,0.3,0.1c1.1,0.6,3.8,2.9,3.8,3.8c0,0.4-0.2,0.7-0.8,0.7c-0.2,0-0.4,0-0.6-0.1
			c-0.2-0.1-0.4-0.1-0.5-0.1c-0.3,0-0.4,0.1-0.8,0.4c-4.3,3.8-10.3,6.9-16.1,7.7c-2.3,7.1-7.3,10.9-8.1,10.9c-0.1,0-0.1-0.1-0.1-0.1
			c0-0.1,0.2-0.5,0.8-1.1c4.3-5,5.1-12.7,5.1-19.4c0-3.7-0.2-10.5-0.9-13c-0.1-0.2-0.1-0.3-0.1-0.4c0-0.1,0-0.1,0.1-0.1
			c1.4,0,5.2,2.1,5.8,2.5l0.2,0.1h6.1c1.4-3,2.9-7.9,2.9-10.4c0-0.1,0-0.2,0.1-0.2c0.6,0,5.6,2.3,5.6,3.4c0,0.4-0.5,0.7-1.5,0.8
			c-0.8,0-0.8,0.2-1.2,0.8c-1.1,1.4-2.9,3.7-4.7,5.7h4.2c0.2,0,0.5-0.2,0.7-0.5c0.5-1,1.4-2,2-2.7c0.1-0.1,0.2-0.2,0.4-0.2
			c0.1,0,0.2,0,0.2,0.1C364.6,199.2,367.1,201.4,367.1,202.6L367.1,202.6z M366.1,189.7c0,0.4-0.2,0.7-1.1,0.7h-11.6
			c-2.7,0-6.1,0.1-10.4,0.5h-0.1c-0.9,0-2.3-2.2-2.3-2.9c3.8,0.5,7.7,0.8,10.6,0.8v-1.2c-0.1-2-0.1-4.6-0.5-6.4
			c-0.1-0.2-0.1-0.4-0.1-0.4s0-0.1,0.1-0.1c0.5,0,6.8,0.8,6.8,2.2c0,0.4-0.5,0.8-1.2,1.2c-1,0.5-1.2,0.7-1.2,4.7h3.2
			c0.1,0,0.5-0.2,0.7-0.5c0.2-0.4,1.7-3.2,2.5-3.2c0.2,0,0.3,0.1,0.4,0.1C363.1,185.8,366.1,188.4,366.1,189.7L366.1,189.7z
			 M367.1,220.3c0,0.4-0.3,0.7-0.9,0.7c-0.2,0-0.4,0-0.6-0.1c-0.3-0.1-0.5-0.1-0.6-0.1c-0.2,0-0.4,0.1-0.6,0.4
			c-8.3,9-20.5,10.1-22.3,10.1c-0.5,0-0.9-0.1-0.9-0.2c0-0.1,0.3-0.2,1-0.4c11-2.7,19.1-10.3,20.3-14.3c0.1-0.2,0.1-0.4,0.1-0.4
			C362.8,216,367.1,219,367.1,220.3L367.1,220.3z M352.5,197.8c0,1.4-1,2.5-2.1,2.5c-0.8,0-1.7-0.6-2.2-2.1c-0.4-1.4-1.8-3.7-2.8-5
			c-0.3-0.4-0.5-0.6-0.5-0.7s0.1-0.1,0.1-0.1C346.5,192.4,352.5,194.1,352.5,197.8L352.5,197.8z M379.3,226.9c0,0.5-0.5,0.7-1.4,0.7
			h-1c-0.5,0-0.9,0.1-1.3,0.3c-4.5,2.8-12.4,6.1-20.9,6.1c-0.7,0-1,0-1-0.1s0.6-0.4,1.9-0.7c5.2-1.3,16.2-6.2,18.2-10.6
			c0.1-0.2,0.2-0.4,0.4-0.4C374.8,222.3,379.3,226,379.3,226.9L379.3,226.9z M394.3,185.6c0,0.4-0.3,0.7-1.3,0.7h-12.3
			c1.3,0.4,2,0.8,2,1.3c0,0.3-0.4,0.7-1.4,0.9c-0.6,0.2-0.8,0.5-1,0.9c-0.8,1.3-1.8,3-2.8,4.3h6.3c0.4,0,0.7-0.2,0.8-0.5
			c0.8-1.3,1.5-1.8,1.9-1.8c0.7,0,4.9,2.3,4.9,3.6c0,0.6-0.6,1-1.4,1.4c-1,0.5-1.1,0.9-1.1,4.7c0,5.1,0.2,14,0.5,18.5v0.1
			c0,1.5-1.3,2.4-2.5,2.4c-1,0-1.9-0.7-1.9-2v-0.6h-11.2v1c0,1.6-1.7,2.2-2.6,2.2s-1.8-0.5-1.8-1.8v-0.2c0.4-5,0.4-12.1,0.4-16.8
			c0-5.5-0.1-9.2-0.8-12.4c-0.1-0.2-0.1-0.3-0.1-0.4c0-0.1,0.1-0.2,0.1-0.2c0.4,0,4.3,1.5,5.9,2.6l0.2,0.1h0.5
			c0.3-1.8,0.5-4,0.5-5.3v-2.1c-2,0.1-4.2,0.2-7.7,0.5h-0.1c-1,0-2.5-2.2-2.5-2.9c5.7,0.7,9.7,0.9,13,0.9h6.1c0.2,0,0.7-0.2,0.8-0.5
			c0.4-0.7,2.3-3.6,3.1-3.6C390.4,180.7,394.3,184.5,394.3,185.6L394.3,185.6z M385,196.2c0-0.5-0.3-0.8-0.7-0.8h-9.3
			c-0.2,0.1-0.4,0.3-0.7,0.5c-0.7,0.4-0.7,0.6-0.7,6.1h11.5C385.1,199.5,385,197.5,385,196.2z M373.6,203.4v6H385c0-2,0.1-4.1,0.1-6
			H373.6z M373.6,210.9c0,2.5,0.1,4.9,0.1,7.1H385c0-2.2,0.1-4.6,0.1-7.1H373.6z M393.1,230.1c0,1.6-1.1,2.8-2.5,2.8
			c-1,0-2.1-0.7-2.9-2.3c-1.6-3.2-4-5.5-6.4-7.4c-0.3-0.2-0.4-0.4-0.4-0.5c0-0.1,0.1-0.1,0.2-0.1C383,222.5,393.1,225.4,393.1,230.1
			z"/>
		<path d="M403.4,217.9c0-2.1,0.2-4.1,0.6-6.1c0.8-4.1,2-7.8,2.7-11.3c0.3-1.5,0.4-2.9,0.4-4.1c0-2.6-0.5-4.6-1.1-5.7
			c-0.4-0.7-0.8-1.2-0.8-1.5s0.3-0.4,1.2-0.4c1.9,0,5,2.6,5,7.1c0,2-0.7,4-1.7,6.5c-1.5,3.7-3.3,8.2-3.3,12.3c0,1.4,0.4,3.7,0.9,3.7
			c0.2,0,0.4-0.3,0.7-0.9c1.5-3.2,5.6-11.2,6.2-11.2c0.1,0,0.1,0.1,0.1,0.2c0,0.2-0.1,0.7-0.4,1.4c-0.8,2-4.1,10.6-4.1,15.7
			c0,1.3,0.2,2.3,0.4,3.2c0.1,0.4,0.2,0.8,0.2,1.2c0,1.5-0.9,2.4-1.9,2.4C404.3,230.5,403.4,220.8,403.4,217.9L403.4,217.9z
			 M440.1,222c2.3,0,3.6,1.1,3.6,2.3c0,3.7-8.5,3.8-9.5,3.8c-10.3,0-13.6-5.3-13.6-8.3c0-0.4,0.1-0.6,0.2-0.6c0.3,0,0.7,0.4,1.3,1.2
			c1.2,1.7,5.2,2.9,9.7,2.9c1.2,0,2.4-0.1,3.6-0.2c1.4-0.2,2.4-1,4.4-1L440.1,222L440.1,222z M430.9,200.6c-9,0-9.5-5.4-9.5-5.8
			c0-0.2,0.1-0.2,0.2-0.2s0.6,0.2,1.1,0.5c1.7,1,3.9,1.4,6.1,1.4c1.7,0,3.4-0.2,5-0.6c0.8-0.2,1.4-0.6,2.2-0.7
			c0.4-0.1,0.8-0.1,1.1-0.1c1.9,0,3.1,1,3.1,2.1C440.4,200.1,433.9,200.6,430.9,200.6L430.9,200.6z"/>
		<path d="M479.8,197.4c-5.3,0.7-10.6,2.1-15,4c-1.3,0.5-2.8,1-4.5,1c-3.5,0-6.6-2-6.6-4.9c0-0.9,0.2-1.3,0.6-1.3
			c0.3,0,0.8,0.3,1.3,0.8c0.7,0.7,3.2,0.7,3.7,0.7c1.1,0,2.2-0.1,3.2-0.2c5.5-0.8,11.3-1.7,17.2-2.5c0-1.9-0.1-3.8-0.1-5.8
			c0-2.5-1-3.2-2.3-4.1c-0.5-0.3-0.7-0.5-0.7-0.7c0-0.6,1.1-1.5,2.9-1.5s4.4,1,4.4,4.5c0,0.7-0.1,1.5-0.2,2.3
			c-0.3,1.7-0.6,3.3-0.8,4.9c2.3-0.2,4.6-0.4,6.8-0.5c0.7-0.1,1.1-0.2,1.1-0.4c0-0.1-0.1-0.2-0.3-0.4c-0.9-0.6-4.7-3.1-4.7-3.4
			c0-0.1,0.1-0.1,0.2-0.1c0.4,0,1.1,0.2,1.6,0.5c2.8,1.4,6.1,2.5,8.3,2.8c3,0.5,7.1,1.3,7.1,4.1c0,0.9-0.8,1.7-2.2,1.7
			c-0.5,0-1.1-0.1-1.8-0.3c-3.7-1.1-7.9-1.7-12.2-1.7c-1.4,0-2.8,0.1-4.1,0.2c-0.1,2-0.2,3.7-0.2,5.3c0,2,0.2,3.8,0.2,5
			c1.1,1.2,2.3,3.1,2.3,6.5c0,11.9-13.3,19.7-17.3,19.7c-0.3,0-0.4-0.1-0.4-0.2c0-0.2,0.7-0.7,2-1.3c2.9-1.3,8.8-6.6,10.7-13.4
			c-1.1,0.9-2.3,1.3-3.2,1.3c-2.2,0-3.2-1.8-4.5-4.5c-0.4-0.9-1-2.4-1-4.4c0-4,2.6-6.1,5.7-6.1c0.9,0,1.9,0.2,2.8,0.6L479.8,197.4
			L479.8,197.4z M479.8,210c-1-2.1-2.7-2.9-4-2.9c-1.4,0-2.6,1-2.6,3.1c0,1.6,1,5.6,4,5.6c2.7,0,2.7-3.5,2.7-4s0-1-0.1-1.5
			L479.8,210L479.8,210z"/>
		<path d="M524.4,208.6c0.1,0,0.1-0.1,0.3-0.2c2.7-1.7,6.1-2.7,9.4-2.7c7.7,0,12.5,5.4,12.5,11.2s-5.5,13.7-16.6,13.7
			c-5.8,0-9.7-2.9-9.7-6.1c0-2.9,3-4.5,5.9-4.5c4,0,6.4,3.1,6.4,6.2c0,0.5-0.1,1-0.2,1.5c7-1.7,9.7-6.5,9.7-10.7c0-4.7-3.4-9-9.4-9
			c-2.1,0-9.1,0.5-13.1,9.1c-1.4,3.1-2.4,5-4.4,5c-1.1,0-1.9-0.8-1.9-2c0-1.7,2.2-4.3,5-7.5c3.6-4.1,12.1-15.5,14.6-19.7
			c0.3-0.4,0.4-0.8,0.4-1.1c0-0.4-0.2-1-1.5-1c-2.8,0-4.1,5.8-8.2,5.8c-2.2,0-4-1.4-4-3.7c0-0.7,0.1-1.2,0.5-1.2
			c0.3,0,0.7,0.1,1.1,0.3c0.5,0.2,1,0.2,1.4,0.2c0.8,0,1.7-0.2,2.5-0.8c2.3-1.6,5.1-3.6,8.3-3.6c3.5,0,5.7,2.5,5.7,3.8
			c0,1.2-1.3,2.3-2.6,3.2C532.2,198,524.4,208.4,524.4,208.6L524.4,208.6L524.4,208.6z M529,225.9c0-2.1-1.6-3.9-3.8-3.9
			c-2.6,0-2.7,2-2.7,2.3c0,0.2,0,3.1,6,3.7C528.8,227.3,529,226.6,529,225.9L529,225.9z"/>
	</g>
</g>
</svg>
