<?xml version="1.0" encoding="UTF-8"?>
<svg id="_レイヤー_2" data-name="レイヤー 2" xmlns="http://www.w3.org/2000/svg" viewBox="0 0 413.46 79.9">
  <g id="_デザイン" data-name="デザイン">
    <g>
      <path d="m9.43,18.43c-.47,0-.65-.25-.65-.54,0-.25.18-.5.43-.5h.14c3.17,0,5.65-2.09,5.65-5.58,0-2.16-.9-6.66-5.62-6.66-2.2,0-2.23.79-2.23,5-.04,2.45-.07,5.47-.07,8.17,0,10.26.14,10.33,3.74,10.65.22.18.29.43.29.61,0,.25-.14.43-.36.43-.04,0-2.99-.25-6.01-.25-1.51,0-3.02.07-4.21.25h-.11c-.25,0-.36-.14-.36-.36,0-.25.14-.5.36-.68,3.13-.36,2.99-1.22,3.1-6.01.04-1.4.04-4.75.04-7.74,0-2.2,0-4.18-.04-5.08-.14-4.61-.32-4.61-3.2-4.93-.22-.14-.32-.36-.32-.58,0-.25.18-.5.43-.5,1.15.07,2.16.11,3.13.11,1.87,0,3.53-.11,5.69-.22h.68c4.64,0,8.93,2.16,8.93,7.05,0,6.23-5.87,7.34-9.43,7.34Z" fill="#000f3c"/>
      <path d="m50.54,13.82c0,3.1.07,6.52.14,9,.14,4.18-.04,5.65,3.17,6.12.22.14.32.32.32.54,0,.29-.22.54-.43.54,0,0-2.92-.25-5.83-.25-1.48,0-2.92.07-4,.25h-.07c-.22,0-.32-.22-.32-.43,0-.25.11-.5.32-.65,2.95-.4,3.24-1.08,3.24-4.61v-.86c-.04-1.8-.07-6.19-.07-9.75,0-1.62,0-3.06.04-4.07v-.07c0-.14-.04-.18-.07-.18-.4,0-8.21,15.62-9.79,19.01-.32.72-.54.97-1.01.97-.4-.04-.61-.4-.79-1.04-.4-1.4-1.8-4.36-3.49-7.74-1.58-3.17-3.67-7.45-5.04-10.47-.11-.29-.22-.4-.25-.4-.22,0-.76,8.03-.76,11.88,0,6.52,0,6.88,3.1,7.34.18.11.29.32.29.54,0,.29-.18.54-.43.54h-.04s-2.16-.25-4.5-.25c-1.15,0-2.38.07-3.38.25h-.07c-.25,0-.36-.18-.36-.43s.11-.5.32-.65c2.77-.29,3.17-1.8,3.53-6.98.07-1.69.61-9.61.86-12.85,0-.18.04-.36.04-.54,0-2.27-1.33-3.1-3.96-3.46-.18-.11-.29-.36-.29-.58,0-.25.14-.5.5-.5,0,0,1.94.18,3.89.18.97,0,1.91-.04,2.63-.18.11-.04.18-.04.22-.04.32,0,.4.22.47.72.11.43.72,1.91.9,2.38,2.59,6.44,6.44,12.74,7.96,16.38.07.14.14.22.22.22.25,0,9.29-17.6,9.61-19.04.04-.29.25-.47.58-.47h.11c.79.07,1.62.11,2.41.11,1.22,0,2.48-.07,3.64-.25h.04c.25,0,.4.25.4.54,0,.22-.11.47-.32.54-3.6.47-3.64,1.33-3.64,8.71Z" fill="#000f3c"/>
      <path d="m79.34,5.04c2.66,0,4.07.94,4.07,1.98,0,.68-.61,1.33-1.98,1.33-.25,0-.54-.04-.83-.07-.65-.11-1.3-.14-1.98-.14-2.16,0-4.28.47-5.22,1.01-2.38,1.33-4.21,6.59-4.21,11.09,0,7.34,4.68,7.56,5.58,7.56.65,0,1.33-.11,2.05-.36.36-.11.68-.18,1.01-.18,1.12,0,1.87.68,1.87,1.48,0,1.84-3.28,2.16-4.54,2.16-3.74,0-7.67-2.34-7.67-9.25,0-4.21,1.4-9.03,3.38-11.34.18-.25.36-.4.36-.43s0-.04-.04-.04c-.43,0-3.85,1.44-7.63,3.46-.68.36-1.51.5-2.34.5-1.73,0-3.38-.72-3.38-2.05,0-.36.14-.43.32-.43s.47.07.72.14c.5.11,1.04.18,1.62.18.72,0,1.48-.11,2.34-.43,2.48-.9,8.06-3.96,13.35-5.4.9-.25,1.44-.68,2.95-.76h.18Zm.76,9.93c-.94-1.08-2.09-1.94-3.02-2.45-.32-.18-.58-.32-.58-.4,0-.29,1.33-.29,1.4-.29,2.81,0,4.25,1.26,4.25,2.45,0,.68-.47,1.22-1.08,1.22-.29,0-.65-.18-.97-.54Zm3.82-1.73c-.97-1.04-2.16-1.91-3.13-2.38-.32-.14-.58-.29-.58-.4s.61-.32,1.62-.32c2.92,0,4.1,1.3,4.1,2.38,0,.68-.47,1.22-1.04,1.22-.29,0-.65-.14-.97-.5Z" fill="#000f3c"/>
      <path d="m92.34,25.99c-.29.14-.36.58-.65.58-.61,0-2.45-3.02-2.45-3.2,0-.11.11-.11.32-.11,1.44,0,1.73,0,5.04-.97,0-2.77.04-7.06.04-10.65-1.19.04-2.09.18-3.64.32h-.04c-.5,0-1.58-1.33-1.58-1.76,2.48.32,3.92.5,5.25.54v-4.5c-.04-1.58-.11-3.53-.47-5.18-.04-.11-.04-.22-.04-.25,0-.07.04-.07.11-.07.43,0,4.54.65,4.54,1.55,0,.32-.36.61-.86.86-.68.32-.72.79-.72,7.59h.5c.18,0,.32-.14.43-.32.65-.97,1.22-1.73,1.58-1.73.61,0,2.7,1.8,2.7,2.48,0,.22-.14.43-.68.43h-4.57c0,3.6.04,7.56.04,9.86,1.91-.65,3.89-1.4,5.26-1.98.29-.14.5-.18.65-.18.07,0,.11,0,.11.07,0,.61-5.4,3.85-10.87,6.62Zm29.62-10.15c0,.22-.14.43-.72.43h-12.02c-1.76,0-5,.07-7.81.36h-.04c-.54,0-1.55-1.37-1.55-1.76,3.28.4,7.67.5,9.5.5h1.62c.83-1.66,1.62-3.82,2.09-5.29.22-.76.25-1.44.29-1.98.04-.29,0-.4.07-.4.29,0,3.96,1.48,3.96,2.27,0,.25-.32.5-1.08.54-.54.04-.54.18-.83.54-.79.97-2.12,2.74-3.53,4.32h4.61c.11,0,.32-.11.43-.29.29-.47,1.37-2.02,1.84-2.02.36,0,3.17,1.73,3.17,2.77Zm-1.55-9.29c0,.25-.14.47-.72.47h-10.19c-1.69,0-4.03.07-6.77.36h-.04c-.58,0-1.48-1.4-1.48-1.8,2.88.4,6.05.5,7.92.54,0-.18-.04-.4-.04-.54-.04-1.55-.07-3.35-.36-4.68-.04-.14-.07-.22-.07-.25s.04-.07.07-.07c.29,0,4.68.54,4.68,1.4,0,.25-.29.54-.79.79-.76.43-.83.47-.83,3.35h3.42c.11,0,.32-.11.43-.29.43-.76,1.33-1.94,1.73-1.94,1.01,0,3.02,2.09,3.02,2.66Zm-1.87,14.69c0,.32-.32.58-.76.86-.68.47-.76.5-.76,2.48,0,1.62.14,3.67.29,5.9v.11c0,.9-1.01,1.37-1.66,1.37s-1.22-.32-1.22-1.12v-1.08h-7.85v1.22c0,.72-.79,1.3-1.66,1.3-.65,0-1.22-.32-1.22-1.12v-.11c.22-2.56.25-4.36.25-5.76,0-3.53-.22-5.36-.4-6.19,0-.11-.04-.14-.04-.22s.04-.11.07-.11c.22,0,2.52.83,3.74,1.66l.07.07h6.26c.18,0,.36-.07.5-.29.04-.07.86-1.15,1.26-1.15.29,0,3.1,1.37,3.1,2.16Zm-9.04-8.82c0,1.01-.76,1.73-1.51,1.73-.61,0-1.26-.43-1.58-1.48-.29-.94-1.19-2.52-1.91-3.42-.22-.25-.32-.4-.32-.47,0-.04.04-.04.07-.04.47,0,5.25.94,5.25,3.67Zm5.04,11.88c0-.86-.04-1.62-.07-2.3,0-.25-.14-.54-.43-.54h-6.73l-.25.22c-.47.32-.47.47-.47,1.15-.04,1.4-.07,2.52-.07,3.64,0,.76.04,1.55.04,2.38h7.92c.04-1.76.07-3.24.07-4.54Z" fill="#000f3c"/>
      <path d="m135.21,29.34c-.94,0-2.09-.07-2.09-.32,0-.14.54-.36,1.58-.5,8.03-1.22,11.63-5.11,11.63-7.92,0-1.51-1.26-3.53-4.21-3.53-2.23,0-5,1.19-7.56,3.74-1.08,1.08-2.27,1.58-3.31,1.58-1.76,0-2.63-1.4-2.63-1.76,0-.25.29-.32.83-.36,1.01-.11,2.88-.97,4.68-2.09,2.23-1.4,4.93-2.56,7.52-2.56,4.07,0,6.84,2.81,6.84,5.69,0,3.64-4.1,8.03-13.28,8.03Z" fill="#000f3c"/>
      <path d="m166.07,11.01c-1.84,5.26-3.46,10.51-4.64,15.8-.5,2.34-1.66,3.56-2.56,3.56-.58,0-1.19-.79-1.19-1.84,0-.76.36-1.62.94-2.7,1.55-2.84,5.62-14.15,5.76-14.79-1.08.25-1.66.32-2.2.32-3.85,0-4.97-2.66-4.97-3.53,0-.18.07-.25.18-.25.18,0,.43.18.72.32.97.5,2.3,1.15,3.96,1.15,1.08,0,2.12-.22,2.77-.4.11-.65.14-1.33.14-1.94,0-1.3-.25-2.34-1.01-2.41-.47-.04-.9-.18-.9-.47,0-.22.61-1.15,1.69-1.15,1.55,0,2.41,1.51,2.52,2.81,1.01.18,1.55.25,2.16.25h.43c.68,0,1.22.5,1.22,1.12,0,.47-.25,1.98-4.82,3.56l-.22.58Zm.97-3.1c.18-.07,1.4-.68,1.4-1.22,0-.25-.14-.47-1.12-.83,0,.61-.11,1.3-.29,2.05Zm9.58,19.44c.65,0,1.3-.22,2.34-.22,1.91,0,2.88.72,2.88,1.48s-1.01,1.66-3.82,1.66c-4.43,0-8.39-2.34-8.39-5.04,0-1.37,1.08-2.48,1.3-2.48.11,0,.14.14.14.29,0,.22-.07.54-.18.76-.07.18-.14.4-.14.58,0,1.51,2.52,2.99,5.69,2.99h.18Zm5.15-14.4c-2.02.36-3.13.68-5.36,2.41-.32.25-.54.36-.68.36-.04,0-.07-.04-.07-.07,0-.11.07-.29.25-.5,1.94-2.45,2.23-2.88,2.23-3.31,0-.86-1.98-1.3-2.74-1.3-.14,0-.29,0-.4.04-.5.11-.9.18-1.12.18-.14,0-.22,0-.22-.07,0-.11,1.01-1.48,3.6-1.48,3.13,0,5.72,1.69,5.72,2.7,0,.5-.43.9-1.22,1.04Z" fill="#000f3c"/>
      <path d="m218.41,10.47c0,.32-.25.61-.86.9-.86.4-.9.47-.94,1.44-.11,3.06-.14,7.34-1.01,11.19-1.26,5.44-4.64,8.03-8.57,8.03h-.07c-.32,0-.76-.14-.9-.47-.47-1.01-5.11-3.31-5.11-3.6,0,0,0-.04.07-.04s.22.04.47.11c1.94.58,3.74,1.01,5.29,1.01,6.77,0,6.91-8.93,7.02-18,0-.47-.14-.61-.5-.61h-8.03c-1.37,10.26-4.9,19.01-16.45,21.99-.5.14-.83.18-1.01.18-.14,0-.22-.04-.22-.07,0-.14.4-.43.9-.61,8.93-3.56,12.6-11.37,13.82-21.49-2.12,0-7.42.07-10.47.4h-.04c-.65,0-1.69-1.4-1.69-1.87,3.53.43,10.04.54,12.24.54h.07c.25-2.38.36-4.86.36-6.59,0-1.15-.07-2.09-.18-2.63,0-.07-.04-.11-.04-.18s.04-.11.14-.11c0,0,4.86.68,4.86,1.51,0,.25-.36.54-.76.72-.61.29-.83.36-.9,1.37-.14,1.98-.32,4-.54,5.9h7.78c.43,0,.54-.11.65-.29.29-.4.94-1.22,1.26-1.22.29,0,3.35,1.58,3.35,2.48Z" fill="#000f3c"/>
      <path d="m246.74,5.04c2.66,0,4.07.94,4.07,1.98,0,.68-.61,1.33-1.98,1.33-.25,0-.54-.04-.83-.07-.65-.11-1.3-.14-1.98-.14-2.16,0-4.28.47-5.22,1.01-2.38,1.33-4.21,6.59-4.21,11.09,0,7.34,4.68,7.56,5.58,7.56.65,0,1.33-.11,2.05-.36.36-.11.68-.18,1.01-.18,1.12,0,1.87.68,1.87,1.48,0,1.84-3.28,2.16-4.54,2.16-3.74,0-7.67-2.34-7.67-9.25,0-4.21,1.4-9.03,3.38-11.34.18-.25.36-.4.36-.43s0-.04-.04-.04c-.43,0-3.85,1.44-7.63,3.46-.68.36-1.51.5-2.34.5-1.73,0-3.38-.72-3.38-2.05,0-.36.14-.43.32-.43s.47.07.72.14c.5.11,1.04.18,1.62.18.72,0,1.48-.11,2.34-.43,2.48-.9,8.06-3.96,13.35-5.4.9-.25,1.44-.68,2.95-.76h.18Zm.76,9.93c-.94-1.08-2.09-1.94-3.02-2.45-.32-.18-.58-.32-.58-.4,0-.29,1.33-.29,1.4-.29,2.81,0,4.25,1.26,4.25,2.45,0,.68-.47,1.22-1.08,1.22-.29,0-.65-.18-.97-.54Zm3.82-1.73c-.97-1.04-2.16-1.91-3.13-2.38-.32-.14-.58-.29-.58-.4s.61-.32,1.62-.32c2.92,0,4.1,1.3,4.1,2.38,0,.68-.47,1.22-1.04,1.22-.29,0-.65-.14-.97-.5Z" fill="#000f3c"/>
      <path d="m262.12,31.28c-1.04-2.02-2.77-3.49-4.32-4.64-.36-.29-.68-.5-.68-.61,0-.04.11-.07.29-.07,1.4,0,8.1,1.33,8.1,4.68,0,1.08-.79,1.91-1.69,1.91-.61,0-1.22-.36-1.69-1.26Z" fill="#000f3c"/>
      <path d="m7.88,59.06c1.08,4.9,1.12,6.01,1.12,6.26,0,.4-.04,2.16-1.26,2.16-.72,0-1.73-.97-1.73-3.24,0-.65.11-.94.11-1.55,0-1.01-.5-3.42-.68-3.92-.61-1.84-1.94-2.92-3.2-2.92h-.43c-.58,0-.86-.11-.86-.36,0-.43.97-1.48,2.38-1.48.61,0,3.06.43,3.92,2.48h.43c1.87,0,10.37-.86,11.05-1.01.9-.22,1.22-1.04,2.09-1.04.94,0,4.32,1.4,4.32,2.63,0,.36-.25.72-.79,1.04-.72.4-1.15.76-1.55,1.62-7.06,16.09-18.11,17.75-18.61,17.75-.11,0-.18,0-.18-.07,0-.11.43-.4,1.33-.83,9.86-4.79,14.9-18.18,14.9-18.97,0-.4-.25-.54-.72-.54-.72,0-7.52.61-10.47,1.37-.47.11-.86.14-1.22.14l.07.47Z" fill="#000f3c"/>
      <path d="m53.71,64.24c-1.73.04-5.44.04-9.11.18-2.59.11-5.15.29-6.88.68-.79.18-1.48.32-2.12.32-1.62,0-4.79-1.66-4.79-3.42,0-.32.11-.47.29-.47.11,0,.29.07.5.18.72.43,1.51.83,4.07.83,2.41,0,16.09-.86,16.2-.86.36-.04.79-.04,1.26-.04,2.12,0,3.53.4,3.53,1.22,0,.76-1.76,1.33-2.95,1.37Z" fill="#000f3c"/>
      <path d="m64.8,66.87c-.5.22-.9.36-1.04.36-.07,0-.14-.04-.14-.07,0-.11.25-.36.83-.79,5.08-3.85,10.37-11.16,10.37-12.35,0-.5-.36-.9-.97-1.04-.43-.11-.61-.25-.61-.43,0-.07.32-1.04,1.62-1.04,1.55,0,3.38,1.33,3.38,2.63,0,.43-.22.86-.5,1.3,1.33-.14,3.46-.47,4.21-.65.43-.11.65-.36,1.01-.61.29-.18.5-.29.76-.29.76,0,3.24,1.62,3.24,2.45,0,.4-.36.65-1.01.9-.79.29-1.15.9-1.8,1.87-6.05,8.96-11.63,14.72-21.09,17.46-.68.18-1.15.29-1.4.29-.14,0-.22-.04-.22-.07,0-.14.4-.4,1.22-.76,7.96-3.35,13.82-10.19,19.33-18.86.11-.18.25-.43.25-.61s-.14-.36-.65-.36c-.32,0-1.58.07-4,.86-.36.11-.68.18-.97.18-.11,0-.22,0-.32-.04-4.1,4.82-7.31,7.88-11.48,9.68Z" fill="#000f3c"/>
      <path d="m90.33,76.12c-.18,0-.29-.04-.29-.11,0-.11.36-.32,1.15-.61,10.91-4.25,18.29-16.45,18.29-17.46,0-.29-.18-.47-.61-.47-1.04,0-4.86,1.51-5.72,1.87-1.15.47-1.76.86-2.56.86-1.48,0-4.07-1.37-4.07-2.63,0-.72.25-1.04.54-1.04.18,0,.36.18.5.47.18.4.94.54,1.87.54,2.56,0,7.49-1.08,8.28-1.3.9-.25,1.37-1.12,2.23-1.12.76,0,3.96,1.08,3.96,2.45,0,.32-.22.65-.68.97-.58.4-1.04.76-1.51,1.58-1.26,2.12-2.66,4.07-4.21,5.83,3.96.97,10.04,4,10.04,7.09,0,.97-.61,1.66-1.4,1.66-.61,0-1.26-.36-1.84-1.3-1.44-2.38-4.14-5.15-6.62-6.73-.18-.11-.4-.22-.54-.32-7.27,8.03-15.91,9.75-16.81,9.75Z" fill="#000f3c"/>
      <path d="m121.61,77.02c-.14,0-.22-.04-.22-.11,0-.11.4-.4,1.26-.76,5.47-2.27,10.51-6.55,14.54-11.48-1.12-.72-2.3-1.33-3.35-1.8-.65-.29-1.04-.47-1.04-.54s.11-.07.36-.07c1.01,0,3.74.36,5.29.79,1.8-2.38,4.07-5.8,4.07-6.37,0-.32-.25-.54-.83-.54-.68,0-2.27.36-3.6.79-.4.11-.72.22-1.04.22-.11,0-.18-.04-.29-.04-4.03,4.9-7.16,7.92-11.27,9.79-.54.25-.94.36-1.12.36-.04,0-.07,0-.07-.04,0-.11.25-.36.79-.76,4.9-3.67,10.29-11.55,10.29-12.63,0-.5-.36-.9-1.04-1.04-.43-.11-.68-.22-.68-.43,0-.07.43-1.08,1.73-1.08,1.51,0,3.35,1.37,3.35,2.66,0,.47-.22.94-.54,1.4,3.67-.54,4.25-.76,4.54-.97.43-.32.79-.54,1.19-.54.43,0,3.42,1.3,3.42,2.41,0,.4-.4.72-1.15.94-.61.18-1.22,1.04-1.91,2.09-1.08,1.66-2.16,3.24-3.31,4.72,1.55.68,3.1,1.8,3.1,3.24,0,.86-.58,1.51-1.37,1.51-.47,0-1.04-.25-1.58-.86-.54-.61-1.19-1.19-1.91-1.76-8.53,9.86-17.6,10.91-17.6,10.91Z" fill="#000f3c"/>
      <path d="m151.53,71.4c-.07,0-.11-.04-.11-.07,0-.11.47-.43,1.12-.79,7.13-3.85,15.3-14.47,15.3-16.88,0-.5-.29-.86-1.04-1.08-.47-.14-.65-.32-.65-.5,0-.29.47-.9,1.51-.9,1.69,0,4.14,1.55,4.14,2.92,0,.9-1.12,1.48-1.84,2.59-.79,1.26-1.76,2.52-2.84,3.78.86.43,1.51,1.3,1.51,2.12,0,.25-.04.47-.14.68-.25.5-.36,2.3-.36,4.32,0,2.66.14,5.69.14,6.77,0,1.94-.36,3.82-1.44,3.82-.83,0-1.66-1.44-1.66-3.53,0-.54.07-1.12.18-1.69.18-.94.32-.94.43-1.91.18-1.66.22-3.82.22-5.62,0-1.62,0-2.66-.25-3.46-7.13,7.49-13.93,9.43-14.22,9.43Z" fill="#000f3c"/>
      <path d="m176.87,75.76c-.11,0-.14,0-.14-.07s.29-.32.83-.65c5.51-3.38,10.08-11.45,10.08-14.29,0-1.44-.94-1.91-2.02-2.02-.47-.07-.72-.18-.72-.43,0-.36.5-1.12,1.66-1.12,1.66,0,4,1.55,4,3.56,0,.68-.22,1.3-.4,1.76-3.2,8.96-11.59,13.25-13.28,13.25Zm18.25-2.84c-.79,0-2.63-1.91-2.63-2.99,0-.47.32-1.01.43-1.91.43-3.02.65-5.33.65-7.02,0-2.95-.61-4.18-1.51-4.46-.68-.25-.97-.43-.97-.65,0-.4,1.15-.72,1.8-.72,1.66,0,3.38,2.09,3.38,3.6,0,.36-.04.72-.18,1.08-.5,1.51-.97,7.92-.97,8.75,0,.22.11.32.29.32.43,0,7.81-4.21,12.81-11.12.54-.72.86-1.04.97-1.04.04,0,.04.04.04.07,0,.9-4.1,8.96-12.06,14.69-.54.4-1.22,1.4-2.05,1.4Z" fill="#000f3c"/>
      <path d="m227.66,53.59c-.4,0-.79.04-1.19.07.9.72,1.48,2.59,1.48,4.93,0,7.52-5.98,15.77-9.39,15.77-1.91,0-2.63-2.56-4.03-4.61-.58-.83-.86-2.02-.86-3.35,0-5.44,4.68-14.11,14.54-14.11,8.24,0,12.6,5.65,12.6,11.59,0,3.24-1.33,6.59-4.03,9.14-4.61,4.32-11.45,4.79-11.77,4.79-.36,0-.5-.04-.5-.11,0-.18.54-.43,1.62-.72,6.3-1.73,11.95-6.23,11.95-13.25,0-5.36-3.78-10.15-10.26-10.15h-.14Zm-3.28.47c-5.54,1.62-8.75,6.77-8.75,11.27,0,3.17,1.62,5.58,3.17,5.58,2.48,0,7.63-7.52,7.63-13.89,0-1.62-.22-3.1-1.3-3.1-.11,0-.22,0-.32.04-.11.04-.22.07-.29.07l-.14.04Z" fill="#000f3c"/>
      <path d="m255.17,57.76c-.29,0-.5.07-.76.29-3.28,2.81-8.67,4.61-9.36,4.61-.11,0-.14,0-.14-.07s.18-.22.54-.4c2.88-1.51,6.91-5.26,7.42-7.16.04-.18.04-.29.14-.29.22,0,3.31,1.91,3.31,2.56,0,.25-.25.47-.76.47h-.4Zm22.93,18.29c.11,0,.14,0,.14.04,0,.25-3.42,1.55-4.14,2.7-.18.29-.4.36-.72.36-1.91,0-6.73-1.26-10.55-4.54-5.98,4.28-12.96,4.97-14.36,4.97-.32,0-.47-.04-.47-.11,0-.11.43-.25,1.26-.43,4.25-.9,8.42-3.06,11.95-6.05-1.08-1.22-1.94-2.63-2.52-4.21-5.69,6.7-11.99,9.21-12.81,9.21-.07,0-.14,0-.14-.04,0-.11.25-.32.76-.61,3.96-2.27,8.53-7.42,11.55-11.95.36-.54.5-1.04.65-1.62.04-.18.07-.25.18-.25.54,0,3.56,1.33,3.56,1.91,0,.25-.32.4-1.08.47-.47.04-.68.29-.97.72l-.11.14h5.62c.25,0,.47-.14.61-.25.04-.04.86-.72,1.04-.72.36,0,2.84,1.55,2.84,2.27,0,.25-.22.47-.83.65-.54.18-.83.14-1.19.61-1.22,1.51-2.52,2.84-3.92,4.03,3.1,1.8,7.05,2.77,11.52,2.77.65,0,1.3-.04,1.98-.07h.14Zm-11.23-23c.22.11.32.22.32.36,0,.22-.22.43-.68.58-.43.14-.5.25-.5,1.76,0,.76,0,1.58.04,2.41.04.58.14,1.51.14,2.16,0,3.31-3.6,3.64-3.92,3.64s-.5-.14-.68-.54c-.5-1.08-3.06-2.2-3.28-2.48-3.06,4.97-10.65,6.73-11.16,6.73-.07,0-.11-.04-.11-.04,0-.11.4-.36,1.08-.65,9.21-4,9.43-10.15,9.43-12.42,0-.61-.04-1.08-.07-1.51-2.34.04-6.33.07-9.11.36h-.04c-.65,0-1.66-1.37-1.66-1.84,3.71.43,9.83.58,11.91.58h1.84v-.07c-.04-1.48-.14-3.49-.43-4.75-.04-.11-.04-.18-.04-.22,0-.07.04-.11.07-.11.11,0,4.75.5,4.75,1.44,0,.25-.25.54-.72.79q-.76.43-.83,1.48l-.07,1.44h7.06c.25,0,.5-.14.61-.32.86-1.3,1.69-2.45,2.12-2.45.11,0,.18.04.25.04,1.15.4,3.42,2.45,3.42,3.2,0,.22-.18.43-.79.43h-8.96Zm-5.9,0c.18.11.25.22.25.32,0,.18-.22.36-.54.54-.54.29-.58.32-.61,1.04-.14,2.3-.68,4.25-1.69,5.9.07,0,.22.04.5.07,1.4.22,2.38.36,3.1.36,1.4,0,1.69-.18,1.69-3.17,0-2.05-.14-4.72-.22-5.08h-2.48Zm-1.44,14.69c-.11.14-.22.32-.36.47.83,1.4,1.91,2.66,3.2,3.74,1.4-1.33,3.46-3.71,3.46-4.07,0-.11-.14-.14-.32-.14h-5.98Zm13.71-6.23c-1.01-1.55-3.35-3.6-5.22-4.86-.25-.18-.36-.29-.36-.36,0-.04.07-.07.18-.07.22,0,8.57,1.48,8.57,4.86,0,.94-.61,1.66-1.4,1.66-.58,0-1.19-.36-1.76-1.22Z" fill="#000f3c"/>
      <path d="m313.81,72.38c0,.22-.18.43-.79.43h-13.97l.11,5.58v.07c0,.97-.94,1.44-1.69,1.44-.65,0-1.22-.4-1.22-1.26v-.18c.07-1.19.14-3.28.18-5.65h-2.38c-1.98,0-7.27.07-10.47.4h-.04c-.65,0-1.58-1.4-1.58-1.87,3.67.43,10.19.58,12.24.58h2.27c.04-1.44.07-2.95.07-4.43h-5.83c0,.32.04.54.04.76v.04c0,.72-.86,1.15-1.69,1.15-.65,0-1.22-.29-1.22-.97v-.14c.18-1.66.25-4.68.25-5.58,0-.5-.07-2.34-.36-3.49-.04-.11-.04-.14-.04-.22s.04-.07.11-.07c.5,0,2.81,1.01,3.67,1.55.04,0,.04.04.07.04h5v-1.19c0-.83-.04-2.2-.14-3.02h-1.73c0,.22.04.36.04.5,0,.68-.68,1.22-1.58,1.22-.61,0-1.15-.29-1.15-1.01v-.11c.07-.79.11-2.81.11-4.39-2.41.04-5.72.14-7.99.36h-.04c-.65,0-1.66-1.37-1.66-1.84,2.66.32,6.88.47,9.72.54v-.97c0-.72-.11-2.02-.32-3.13-.04-.11-.04-.18-.04-.25s.04-.07.11-.07c.36,0,4.18.5,4.18,1.37,0,.25-.22.5-.83.76-.61.22-.61.86-.61,2.34h6.3v-.9c0-.72-.07-2.02-.32-3.24-.04-.11-.04-.18-.04-.22,0-.11.04-.11.14-.11.72,0,4.14.5,4.14,1.37,0,.25-.22.5-.83.76-.61.22-.61.86-.61,2.34h3.6c.22,0,.47-.14.58-.32.36-.58,1.58-2.41,2.16-2.41.11,0,.18,0,.25.04.94.32,3.28,2.38,3.28,3.13,0,.22-.18.43-.79.43h-9.03l.11,4.18v.07c0,.5-.47,1.22-1.55,1.22-.61,0-1.15-.32-1.15-1.08v-.58h-.61c.11.07.14.14.14.22,0,.22-.25.43-.61.61-.5.22-.58.29-.65,1.12-.04.54-.04,1.33-.07,2.27h5.15c.18,0,.32-.04.47-.22.83-.97,1.04-1.15,1.3-1.15.65,0,3.1,1.51,3.1,2.12,0,.29-.32.5-.79.79-.58.32-.68.76-.68,1.73,0,1.15.14,3.17.22,4.14v.07c0,.83-.94,1.22-1.62,1.22-.65,0-1.22-.32-1.22-1.01v-.76h-5.94c0,1.51,0,2.99.04,4.43h8.39c.25,0,.5-.14.61-.32.72-1.08,1.69-2.45,2.2-2.45.11,0,.18,0,.25.04,1.26.43,3.35,2.63,3.35,3.2Zm-17.28-10.94h-5.18l-.22.14c-.43.29-.5.36-.5,2.7,0,.72.04,1.55.04,2.3h5.87v-5.15Zm-1.94-8.93c0,.97.04,2.05.07,2.95h6.19c.04-.9.04-2.02.04-2.95h-6.3Zm10.33,9.36c0-.25-.22-.43-.47-.43h-5.44c-.04,1.51-.04,3.31-.04,5.15h5.97c0-1.62,0-3.64-.04-4.72Z" fill="#000f3c"/>
      <path d="m320.11,69.79c0-1.26.14-2.48.36-3.64.47-2.45,1.22-4.68,1.62-6.77.18-.9.25-1.73.25-2.48,0-1.58-.32-2.77-.68-3.42-.22-.4-.5-.72-.5-.9s.18-.25.72-.25c1.12,0,2.99,1.58,2.99,4.25,0,1.19-.4,2.38-1.01,3.89-.9,2.23-1.98,4.93-1.98,7.38,0,.83.22,2.23.54,2.23.11,0,.25-.18.4-.54.9-1.91,3.35-6.7,3.74-6.7.04,0,.07.07.07.14,0,.14-.07.43-.25.86-.5,1.19-2.45,6.34-2.45,9.4,0,.76.11,1.37.25,1.94.07.25.11.5.11.72,0,.9-.54,1.44-1.15,1.44-2.45,0-3.02-5.8-3.02-7.56Zm22.03,2.45c1.4,0,2.16.65,2.16,1.37,0,2.23-5.08,2.27-5.72,2.27-6.19,0-8.14-3.2-8.14-4.97,0-.25.04-.36.14-.36.18,0,.43.25.76.72.72,1.04,3.13,1.73,5.79,1.73.72,0,1.44-.04,2.16-.14.86-.14,1.44-.58,2.66-.61h.18Zm-5.51-12.81c-5.4,0-5.69-3.24-5.69-3.49,0-.11.04-.14.14-.14s.36.14.68.32c1.01.61,2.34.83,3.67.83,1.04,0,2.05-.14,2.99-.36.47-.11.86-.36,1.33-.43.25-.04.47-.07.68-.07,1.15,0,1.87.61,1.87,1.26,0,1.76-3.92,2.09-5.69,2.09Z" fill="#000f3c"/>
      <path d="m354.82,57.01c-1.08.04-2.23.07-3.85.29h-.04c-.43,0-1.48-1.33-1.48-1.73,2.05.32,3.92.47,5.36.5-.11-6.48-.18-6.84-.5-8.42-.04-.11-.04-.14-.04-.22s.04-.11.11-.11c0,0,4.46.54,4.46,1.44,0,.32-.36.61-.76.83-.65.36-.68.22-.76,1.51-.07,1.22-.11,2.95-.14,4.97h.18c.07,0,.25-.11.36-.29.72-1.44.97-1.94,1.33-1.94.5,0,2.3,2.05,2.3,2.74,0,.18-.14.4-.61.4h-3.56c-.04,1.76-.04,3.74-.04,5.69,1.48-.54,2.88-1.08,4.07-1.62.36-.14.58-.22.72-.22.04,0,.07,0,.07.04,0,.43-4.18,3.1-4.86,3.56,0,2.09.04,4.14.07,5.94,0,1.04.11,3.49.11,4.43,0,3.56-3.2,3.82-3.71,3.82-.36,0-.54-.11-.76-.47-.65-1.15-3.13-2.59-3.13-2.88,0-.04.07-.04.14-.04s.18,0,.32.04c1.19.25,2.09.4,2.77.4,1.22,0,1.69-.47,1.73-1.51.07-2.27.07-5.26.11-8.39-.9.54-1.87,1.12-2.84,1.66-.29.14-.36.61-.61.61-.68,0-2.56-2.92-2.56-3.02s.11-.07.36-.11c1.8-.22,3.2-.58,5.65-1.44v-6.44Zm13.64-3.28c0,3.13.04,8.31.04,9.57-.07,14.04-10.83,15.51-11.27,15.51-.14,0-.22-.04-.22-.07,0-.11.25-.25.86-.5,5.58-2.2,8.06-8.6,8.21-14.36-1.15,1.58-2.77,3.78-4.18,5.33-.18.22-.18.61-.43.61-.54,0-2.63-2.3-2.63-2.52,0-.07.04-.11.18-.14,2.27-.54,6.8-4.21,7.06-4.39,0-9.79-.04-12.31-.61-14.25-.04-.14-.07-.22-.07-.29,0-.11.07-.11.18-.11s4.07.32,4.07,1.22c0,.22-.18.47-.61.72-.58.32-.58.36-.58,1.8v1.87Zm-5.44,5.26c-.29-1.01-1.08-2.63-1.91-3.6-.14-.14-.25-.29-.25-.36,0-.04.07-.07.18-.07.72,0,4.72,1.33,4.72,3.78,0,.94-.68,1.66-1.37,1.66-.54,0-1.08-.4-1.37-1.4Zm7.81,15.3c.07-2.2.11-14.33.11-19.58v-2.3c0-.94,0-2.7-.25-4.18-.04-.11-.04-.18-.04-.25,0-.11.04-.11.14-.11.47,0,3.96.61,3.96,1.4,0,.25-.29.5-.83.79-.36.18-.47.36-.5,1.08-.04.76-.11,4.1-.14,7.99,2.27-2.2,4.07-4.18,4.43-5.51.04-.11.07-.18.11-.18.29,0,3.06,2.3,3.06,3.17,0,.29-.25.43-.68.43-.11,0-.25,0-.4-.04-.14-.04-.25-.04-.36-.04-.14,0-.25,0-.4.11-.83.47-3.89,1.98-5.76,2.81v3.02c2.02.22,7.7,1.15,7.7,3.96,0,.83-.54,1.55-1.3,1.55-.47,0-1.08-.32-1.66-1.04-1.33-1.66-3.1-2.92-4.75-3.89,0,2.34-.04,4.64-.04,6.48s.04,3.31.04,3.92c.07,1.48.4,1.84,2.3,1.84,3.28,0,3.6-.65,4.36-5.47.04-.25.07-.36.11-.36.22,0,.32,3.82,1.01,4.28.58.4.83.86.83,1.33,0,1.04-1.44,2.63-6.3,2.63-3.64,0-4.75-1.08-4.75-3.6v-.25Z" fill="#000f3c"/>
      <path d="m404.96,69.82c-.14-2.27-.29-4.18-.29-5.76,0-2.99.4-7.16,3.92-7.16,2.7,0,4.86,2.3,4.86,4.43,0,1.15-.65,2.09-1.91,2.09-.11,0-.25,0-.4-.04-.32-.04-.72-.07-1.12-.07-.79,0-1.66.07-2.3.25-.29.07-.47.11-.61.11-.18,0-.25-.04-.25-.11,0-.14.22-.36.58-.54,1.66-.94,3.1-1.84,3.1-2.84,0-.94-1.12-2.09-2.27-2.09-2.34,0-2.48,3.1-2.48,4.43,0,1.66.25,3.42.47,4.68.32,1.66,1.12,3.06,1.12,4.46,0,2.12-2.66,6.7-9.25,6.7-1.51,0-7.23-.4-7.23-5.47,0-.72.11-1.48.29-2.2-2.3,0-3.06-3.85-3.06-5.87,0-2.52,1.04-3.67,2.59-3.67.72,0,1.48.29,2.05.76v-4.07c-.47.07-.9.11-1.3.11-2.95,0-4.18-3.1-4.18-3.46,0-.11.04-.18.14-.18.18,0,.54.18,1.08.58.83.61,1.91.79,2.95.79.47,0,.9-.04,1.33-.07,0-.58,0-1.12.04-1.62v-.25c0-.9-.36-1.37-.65-1.69-.22-.22-.43-.36-.43-.58,0-.43.36-1.04,1.12-1.04.97,0,2.27.9,2.27,2.27v.14c1.08.32,1.66.36,2.16.36.97,0,2.05,0,2.05,1.01,0,1.94-3.6,2.92-4.97,3.28-.22,1.87-.32,4-.4,6.01.29.61.43,1.26.43,1.98,0,1.01-.29,2.09-.94,3.24-.72,1.26-1.22,2.52-1.22,3.64,0,2.81,3.28,3.56,5.29,3.56,3.17,0,7.42-1.66,7.42-5.69v-.4Zm-12.42-3.71c0-1.8-1.22-3.53-2.16-3.53-1.12,0-1.22,1.62-1.22,2.05,0,1.08.72,3.78,2.05,3.78.83,0,1.15-1.19,1.33-2.16v-.14Zm2.16-10.87c.65-.18,1.91-.58,1.91-.97,0-.11,0-.14-1.51-1.01-.07.43-.18.86-.29,1.37l-.11.61Z" fill="#000f3c"/>
    </g>
  </g>
</svg>