<?xml version="1.0" encoding="UTF-8"?>
<svg id="_レイヤー_2" data-name="レイヤー 2" xmlns="http://www.w3.org/2000/svg" viewBox="0 0 558.91 117.45">
  <g id="_デザイン" data-name="デザイン">
    <g>
      <path d="m82.55,11c-2.4,3.6-4.55,6.2-6.5,7.65.05.05.9.7.9,1.3,0,.4-.35.75-1.1,1.15-.7.35-.85.55-.9,1.5-.15,3.6-.45,8.7-1.1,12.55-1,5.65-3.9,8.35-7.35,8.45-.35,0-.8-.15-.95-.6-.4-1.3-2.65-3.1-3.4-3.95-3.25,4.85-6.4,6.35-6.55,6.35-.05,0-.1-.05-.1-.1,0-.2.35-.65.9-1.25,7.1-7.4,8.5-25.95,8.5-30.05,0-1.05-.1-2-.2-2.9-1.4.05-3,.15-5.1.4h-.05c-.75,0-1.95-1.85-1.95-2.4,3.2.45,6,.65,8.2.7v-2.6c-.05-2.05-.2-5.2-.5-6.5-.05-.15-.05-.3-.05-.35,0-.15.05-.15.2-.15.8,0,5.85.9,5.85,1.95,0,.3-.35.7-1.05,1.1-.8.45-.85.5-.95,1.95-.1,1.25-.1,3.35-.15,4.6h2.9c.15,0,.45-.15.6-.4.5-.85,1.2-2.05,1.9-2.8.1-.1.25-.15.4-.15,1.15,0,4.1,2.95,4.1,4.05,0,.3-.2.55-.95.55h-9.25c.8.25,1.35.45,1.35.9,0,.3-.3.55-.85.8-.8.35-.8.55-.9,1.75-.1,1.4-.25,2.85-.4,4.25h2.95c.5,0,.65-.25.8-.45.1-.1,1-1.35,1.4-1.35s1.55.65,2.6,1.5c.1-.2.25-.4.5-.75,2-2.85,5-9.55,6.25-14.2.3-1.1.35-2.3.4-2.95,0-.55.1-.55.15-.55.4,0,5.75,1.8,5.75,2.8,0,.35-.45.7-1.4.85-.75.1-.75.25-1.1.9-.8,1.5-1.8,3.3-2.95,5.15h10.25c.2,0,.55-.15.7-.4.75-1.1,2.05-3,2.7-3,.8,0,4.6,2.85,4.6,4.05,0,.35-.2.65-1.05.65h-18.05Zm-14.6,8.95c-.8,6.65-2.25,13.4-5.5,18.65.05,0,.1.05.2.05,1.4.35,2.7.85,3.9.85,3.2,0,4.8-3.75,5.25-18.85,0-.45-.2-.7-.6-.7h-3.25Zm23.05,15.85c0,1.2-1.15,1.9-2.05,1.9-.8,0-1.5-.5-1.5-1.7v-.1c.15-3.65.25-7.7.3-11.35l-4.2,2.25-.25.15c-.05,3-.1,6.5-.1,8.95v2.15c0,2.2.65,2.7,6.65,2.7,2.4,0,5.25-.1,6.75-.35,2.4-.45,3-4.3,3.65-7.7.05-.35.15-.5.2-.5.35,0,.55,6.05,1.45,6.6.8.5,1.2,1.1,1.2,1.7,0,3.5-8.95,3.5-12.75,3.5-6.3,0-10.3-.35-10.3-5.05v-.2l.2-10.05c-2.35,1.55-2.5,1.6-2.75,1.6-.9,0-2.35-.6-2.6-1.15,1.95-.65,3.75-1.35,5.35-2.1,0-1.4.1-2.65.1-3.75,0-1.7-.1-4.1-.35-5.95,0-.15-.05-.25-.05-.35s.05-.15.2-.15c.1,0,5.25.8,5.25,1.95,0,.35-.4.7-1.1,1-.8.3-.8.4-.95,5.7l4.45-2.35c0-2.05-.05-7.8-.5-9.7-.05-.1-.05-.2-.05-.25,0-.1.05-.15.15-.15.4,0,5.5.85,5.5,1.85,0,.35-.35.65-.85.9-.85.45-.95.3-1.05,1.55-.1,1.1-.15,2.55-.2,4.15l3.35-1.75c.3-.15.5-.4.6-.65.55-1.4.65-1.65,1.15-1.65.65,0,4.55.9,4.55,2.2,0,.3-.2.65-.65,1-.5.4-1,.55-1,1.2-.05,1.85-.05,5.9-.3,8.25-.5,5.15-3.4,6.25-5.1,6.25-.3,0-.55-.05-.65-.35-.25-.75-1.1-1.55-1.8-2.25,0,.75.05,1.35.05,1.95v.1Zm-.2-12.85v2.55c0,2.4.05,4.85.1,6.95.8.15,1.5.4,2.15.4,2.2,0,2.5-2.6,2.5-11.55,0-.3-.25-.5-.5-.5-.1,0-.25.05-.35.1l-3.9,2.05Z" fill="#fff"/>
      <path d="m128.8,11.05c0,.25-.2.5-.95.5h-10.1c-2,0-4.9.05-8,.45h-.05c-.6,0-2.05-1.85-2.05-2.4,3.75.55,8.15.7,10.2.7h3.85c.15,0,.45-.15.6-.4.05-.1,1.7-2.85,2.35-2.85.8,0,4.15,2.85,4.15,4Zm-2.55,19.55c0,.45-.5.8-1.05,1.2-.75.5-.95.75-.95,2.6,0,1.75.15,3.75.35,6.75v.1c0,1.1-1.15,1.75-2.15,1.75-.85,0-1.6-.45-1.6-1.45v-1.05h-6.55c0,.95.05,1.85.05,2.8v.05c0,1.05-1.25,1.65-2.2,1.65-.85,0-1.6-.4-1.6-1.45v-.15c.3-3.75.35-5.7.35-7.55,0-4.2-.35-7.05-.6-8.1,0-.1-.05-.2-.05-.25,0-.1.05-.15.1-.15.25,0,3.65,1.25,4.95,2.15l.1.1h4.45c.2,0,.45-.1.65-.4,1.15-1.55,1.25-1.6,1.5-1.6s4.25,1.65,4.25,3Zm-.75-26.65c0,.35-.2.65-.9.65h-6.85c-1.5,0-2.95.1-5.3.45h-.05c-.7,0-1.9-1.65-1.9-2.4,2.9.55,5.8.7,7.35.7h1.15c.1,0,.35-.15.5-.4.45-.85,1.35-1.95,1.85-2.5.1-.1.25-.15.4-.15.1,0,.2,0,.25.05,1.15.5,3.5,2.5,3.5,3.6Zm0,13.2c0,.3-.2.65-.9.65h-6.85c-1.5,0-2.95.05-5.3.45h-.05c-.6,0-1.9-1.55-1.9-2.4,2.9.55,5.8.7,7.35.7h1.25c.1,0,.4-.15.55-.4.45-.8,1.6-2.5,2.2-2.5.05,0,.15,0,.2.05,1.4.65,3.45,2.7,3.45,3.45Zm0,6.6c0,.35-.2.65-.9.65h-6.85c-1.5,0-2.95.05-5.3.45h-.05c-.6,0-1.9-1.65-1.9-2.4,2.9.55,5.85.7,7.4.7h1.2c.1,0,.4-.15.55-.4.15-.25,1.55-2.5,2.2-2.5.15,0,.25,0,.3.05,1.3.6,3.35,2.6,3.35,3.45Zm-4.55,10.5c0-.9-.05-1.8-.1-2.7,0-.3-.15-.6-.5-.6h-5.1c-.1.1-.25.15-.4.25-.5.35-.5.7-.5,1.4-.05,2.15-.05,4.4-.05,6.6h6.55c.05-2.05.1-3.55.1-4.95Zm33.6,7c0,.35-4.45,1.2-5.95,2.75-.2.2-.35.25-.55.25-.4,0-5.25-1.5-9.65-6.7-7.65,6.85-17.3,7.7-17.8,7.7-.25,0-.35,0-.35-.1,0-.15.55-.4,1.65-.75,4.95-1.6,10.45-4.7,14.65-9.4-2.2-3.4-3.65-7.35-4.2-11.4-1.1.05-2.3.15-3.55.3h-.05c-.8,0-2.3-1.85-2.3-2.45,4.4.75,8.95.75,11.45.75h4.3c.35,0,.55-.2.7-.4.25-.3.7-.8,1.05-1,.15-.1.25-.15.4-.15.5,0,4.2,2,4.2,3.2,0,.35-.3.7-1.05,1-.8.3-1.15.25-1.4,1.05-1.3,3.75-3.2,6.9-5.5,9.45,3.4,2.85,7.9,5,13.6,5.75.25.05.35.1.35.15Zm-2-25.7c0,2.4-4.1,2.75-7.45,2.75-2.5,0-5-.3-5-4.05,0-2.3.1-5.4.1-8.35,0-.2-.2-.5-.45-.5h-3.4l-.5.3c-.45.2-.6.4-.6,1.5-.1,5.9-1.85,10.4-7.55,12.95-.65.3-1,.4-1.1.4h-.05c0-.1.25-.35.65-.7,4.45-3.8,4.4-8.85,4.5-13,0-1.05-.15-2.95-.4-4.55v-.15c0-.05,0-.1.05-.1.5,0,3.95,1.5,4.65,1.9l.3.2h3.45c.25,0,.5-.4.6-.5.2-.2.7-.85.95-1.1.05-.05.15-.1.3-.1.55,0,3.75,1.9,3.75,2.85,0,.35-.2.6-.6.8-.65.35-1.15.35-1.2.95-.1,1.3-.15,2.95-.15,4.35,0,3.75.35,3.9,2.15,3.9.8,0,1.9-.1,2.5-.25,1.2-.3,1.5-2.5,2.2-6.1.05-.3.1-.4.15-.4.3,0,.55,5.05,1.1,5.35.65.35,1.05,1,1.05,1.65Zm-10.05,8.2c0-.25-.1-.3-.35-.3h-4.4c-1.35,0-2.9,0-4.65.1.9,3.3,2.6,6.6,5.1,9.45,2.75-3.65,4.3-8.55,4.3-9.25Z" fill="#fff"/>
      <path d="m179.25,9.2c-.55,0-1.1.05-1.65.1,1.25,1,2.05,3.6,2.05,6.85,0,10.45-8.3,21.9-13.05,21.9-2.65,0-3.65-3.55-5.6-6.4-.8-1.15-1.2-2.8-1.2-4.65,0-7.55,6.5-19.6,20.2-19.6,11.45,0,17.5,7.85,17.5,16.1,0,4.5-1.85,9.15-5.6,12.7-6.4,6-15.9,6.65-16.35,6.65-.5,0-.7-.05-.7-.15,0-.25.75-.6,2.25-1,8.75-2.4,16.6-8.65,16.6-18.4,0-7.45-5.25-14.1-14.25-14.1h-.2Zm-4.55.65c-7.7,2.25-12.15,9.4-12.15,15.65,0,4.4,2.25,7.75,4.4,7.75,3.45,0,10.6-10.45,10.6-19.3,0-2.25-.3-4.3-1.8-4.3-.15,0-.3,0-.45.05-.15.05-.3.1-.4.1l-.2.05Z" fill="#fff"/>
      <path d="m248.9,40.35c0,.3-.25.6-1.1.6h-25.7c-2.8,0-10.85.1-15.3.55h-.05c-.9,0-2.35-1.95-2.35-2.6,5.15.6,15.05.8,17.95.8h4.65c1.7-4.4,6.65-18.5,6.65-24.3,0-.45.05-.45.05-.45.45,0,6.75,1.55,6.75,3.05,0,.45-.5.9-1.6,1.05-.8.1-.95.25-1.15.8-2.35,5.8-6.65,15.3-9.4,19.85h11.45c.35,0,.7-.2.85-.45.3-.45,2.3-3.7,3.2-3.7,1.55,0,5.1,4.1,5.1,4.8Zm-3.2-28c0,.3-.25.6-1.1.6h-20.75c-2.75,0-9.5.1-13.95.55h-.05c-.9,0-2.2-1.95-2.2-2.6,5.1.6,13.6.8,16.45.8h.85v-2.65c0-2.6-.1-5.75-.5-7.35-.05-.2-.1-.3-.1-.35s.05-.1.1-.1c.3,0,6.7.75,6.7,1.95,0,.35-.3.7-.95,1.05-.9.55-1.1.25-1.25,2.05-.1,1-.15,3.95-.15,5.4h7.95c.35,0,.7-.2.85-.45.1-.15,2.1-3.45,3.05-3.45.15,0,.25,0,.35.05,1.2.45,4.7,3.35,4.7,4.5Zm-21,19.3c0,2.05-1.2,3.3-2.4,3.3-1.1,0-2.2-1.05-2.55-3.55-.55-4.2-2.7-9.7-5.2-13.6-.15-.25-.25-.45-.25-.6,0-.1.05-.15.15-.15,1.25,0,10.25,9,10.25,14.6Z" fill="#fff"/>
      <path d="m267,11.1c1.4-.75,2.8-1.6,3.65-2.1.45-.25.95-.4,1.4-.4.9,0,1.6.5,1.6,1.25,0,1.55-2.15,3-7.35,5.1-.95,5.65-1.5,9.4-1.5,11.6,0,1.3.3,1.4.55,1.4.65,0,3.25-1.4,4.2-2.05,1.95-1.3,4.25-2.15,6.6-2.15,3.55,0,8.7,2.45,8.7,7.4,0,2-.8,4-1.95,5.65-3.65,5.3-13.1,7.25-17.7,7.25-.55,0-.85-.05-.85-.15,0-.2.8-.5,2.65-.95,5.75-1.4,13.85-5.7,13.85-11.8,0-3.05-2.55-5.3-5.7-5.3-3.75,0-7.6,4.15-8.7,7.1-.45,1.3-1.2,2-1.95,2-.65,0-2.65-1-2.65-4.85,0-1.45.2-3.2.6-4.9.45-2.1,1.1-6,1.55-9.6-.8.3-1.6.4-2.3.4-3.55,0-6-3-6-4.7,0-.25.1-.35.3-.35s.6.2,1.2.5c1.75.95,2.85,1.35,4.1,1.35.8,0,1.7-.2,2.9-.5l.15-.05c.05-1,.1-2,.1-2.8,0-4-.9-4.1-1.35-4.1h-.4c-.4,0-.55-.05-.55-.3,0-.5.95-2.15,2.7-2.15,1.25,0,3,.9,3,3.35,0,1.1-.35,2.35-.6,3.7l-.25,1.15Z" fill="#fff"/>
      <path d="m336.35,41.25c0,.3-.25.55-1.1.55h-25.75c-2.8,0-10.3.1-14.7.55h-.05c-.9,0-2.35-1.9-2.35-2.55,5.05.6,14.45.75,17.35.75h1.5c.1-4.8.15-11.5.15-17.55,0-14.5-.2-18.25-.7-20.65-.05-.15-.05-.25-.05-.3,0-.15.05-.2.15-.2.25,0,7.15.9,7.15,2.2,0,.4-.4.85-1.05,1.25-1.1.65-1.25.5-1.35,2.1-.15,2.35-.2,7.25-.2,12.8h7.55c.3,0,.65-.2.8-.45.65-.95,2.55-3.6,3.1-3.6,1.35,0,5,3.75,5,4.65,0,.35-.25.65-1.05.65h-15.4c0,6.85,0,14.45.1,19.1h11.65c.35,0,.65-.2.8-.45.05-.1,2.4-3.8,3.25-3.8,1.4,0,5.2,4,5.2,4.95Z" fill="#fff"/>
      <path d="m345.75,28.35c0-4.6,1.1-8.85,1.65-12.5.2-1.2.4-2.35.4-3.4,0-2.15-.85-3.15-3-4.35-.5-.25-.85-.6-.85-.9,0-.65,1.1-.75,1.65-.75s1.2.1,1.6.3c.7.35,3.95,3,3.95,5.6,0,1.05-.35,2.1-.85,3.45-1.2,3.25-2.4,7.15-2.4,10.55,0,.95.4,4.1.95,4.1.15,0,.35-.25.6-.75.85-1.95,5.65-11.8,6.35-11.8.1,0,.1.05.1.2,0,.35-.2,1.1-.5,1.8-1.95,4.55-3.85,10.5-3.85,14.75,0,1.2.1,2.45.45,3.3.15.45.25.85.25,1.15,0,1-.6,1.55-1.45,1.55-3.3,0-5.05-7.05-5.05-12.3Zm22.95-3.9l-.15-6.35c-.45.05-.9.05-1.3.05h-1.25c-6.55,0-7.5-3.85-7.5-4.15,0-.1.05-.15.15-.15.25,0,.75.25,1.25.45,1.65.65,3.9.85,5.95.85h.8c.6,0,1.2-.05,1.85-.15v-2.55c0-2.85-.25-5.25-2.1-5.25h-.35c-.8,0-1.1-.2-1.1-.5,0-.45,1.1-1.55,2.65-1.55,1.9,0,4.2,1.8,4.2,4.15v.6c.95.25,1.95.45,2.7.55.65.05,1.3.05,1.75.15.95.2,1.6.95,1.6,1.9,0,2.6-3.7,4.3-6.5,5.05.05,2.2.25,4.3.45,6.45.05.7.1,1.4.1,2.1,0,15.5-14.05,19.65-15.65,19.65-.15,0-.2,0-.2-.1,0-.15.45-.55,1.85-1.3,5.75-3.2,10.8-11,10.8-19.3v-.6Zm7.15-16.5c-1.3-1.5-2.9-2.7-4.2-3.4-.45-.25-.8-.4-.8-.55,0-.35,1.95-.35,2.05-.35,5.75,0,5.8,3.35,5.8,3.35,0,.95-.65,1.7-1.5,1.7-.4,0-.9-.25-1.35-.75Zm-4.45,6.3c.85-.3,2.65-1.25,2.65-2.1,0-.55-.75-1.1-2.3-1.75-.15.7-.3,2.6-.35,3.85Zm9.65-8.7c-1.35-1.45-3-2.6-4.3-3.25-.45-.2-.8-.35-.8-.5,0-.05.7-.45,2.3-.45,4.1,0,5.6,1.85,5.6,3.25,0,.9-.65,1.65-1.45,1.65-.4,0-.9-.2-1.35-.7Z" fill="#fff"/>
      <path d="m405,26.6c-3.45,0-10.65,3.05-10.65,8.1,0,3.05,2.6,5.45,7.75,5.45,2.1,0,4.5-.4,6.5-1.4.6-.3,1.2-.45,1.7-.45,1.4,0,2.35.95,2.35,2,0,2.7-5.75,3.75-9.05,3.75-8.6,0-11.5-5.45-11.5-8.7,0-4.25,3.8-8.65,8.8-11.05-2.7-1.3-3.4-4.1-3.4-7.15,0-2.35.4-4.85.65-6.9.15-1.2.25-2.25.25-3.15,0-2.3-.85-2.5-2.35-2.85-.7-.15-1-.35-1-.65,0-.25.7-1.65,2.5-1.65,2.4,0,4.8,2.75,4.8,5,0,1.05-.3,2.05-.55,3.1-.55,2.35-1.35,5.35-1.35,8,0,2.05.4,4.45,2.7,5.35,1-.4,1.65-.8,2.9-1.15.55-.15,1.25-.3,1.9-.3,1.05,0,2.4.4,2.4,1.8s-1.75,2.9-4.25,2.9c-.2,0-.45-.05-.65-.05h-.45Z" fill="#fff"/>
      <path d="m435.8,38.9c-1.55,0-3.35-.7-4.85-1.8-5.3-4.05-6.4-9.55-6.4-15.3,0-1.6.1-3.25.2-4.85.05-.55.05-1.1.05-1.7,0-1-.05-2-.15-2.75-.05-.4-.1-.7-.1-.9,0-.3.1-.45.3-.45.3,0,3.85,1.1,3.85,5.35,0,.65-.05,1.35-.2,1.95-.35,1.75-.7,3.9-.7,6.1,0,8.45,5.45,9.3,5.85,9.3.8,0,1.3-.5,1.55-.95,1-1.7,2.1-4.55,3-6.4.6-1.3.95-1.8,1.1-1.8.05,0,.05.1.05.25,0,.4-.1,1.1-.3,1.95-.4,1.9-.8,4.1-.8,6.6,0,1.1.15,1.85.25,2.6.05.2.05.35.05.55,0,1.35-1,2.25-2.75,2.25Zm19.3-12.3c-.4-4.85-3.85-8.95-7.6-9.9-1.35-.35-2.1-.65-2.1-.85,0-.15.35-.25,1.05-.25,8.35,0,13,5.95,13,10.35,0,2-1.2,3.05-2.3,3.05-1,0-1.9-.8-2.05-2.4Z" fill="#fff"/>
      <path d="m471.65,46.05c-.1,0-.2,0-.2-.05,0-.2.6-.6,1.8-1.3,3.8-2.1,14.1-10.55,14.1-21.35,0-4.4-1.85-7.9-4.45-7.9-1.25,0-2.55.8-3.9,2.05-1,.95-2.1,1.8-3.5,1.8-2.4,0-4.2-1.95-4.2-3.9,0-1.25.75-2.1,1.05-2.1.25,0,.4.35.6.8.35.7,1.05.95,1.85.95,1.05,0,2.3-.4,3.1-.7,1.55-.6,3.55-1.35,5.5-1.35,4.65,0,7.85,4.9,7.85,10.6,0,2.35-.55,4.75-1.5,7.1-4.85,11.8-17.15,15.35-18.1,15.35Zm7.6-39.45c.25-.25.4-.4.4-.6,0-.15-.15-.3-.35-.4-.75-.4-3.25-.95-4.45-2.7-.45-.6-.65-1-.65-1.2,0-.1.1-.15.2-.15.3,0,.8.2,1.6.55,1.7.8,5.75.8,6.15.8h1.2c2.7,0,3.75,1.95,3.75,2.75,0,1.05-1.1,1.65-2.95,1.75s-4.55.75-7,1.9c-.4.2-.75.3-.95.3-.1,0-.15,0-.15-.1s.15-.35.6-.7l2.6-2.2Z" fill="#fff"/>
      <path d="m40.65,77.15c0,.55-.6.95-1.55,1.4-.85.4-.95.45-.95,5.05,0,7.9.4,25.5.7,31.1v.15c0,1.3-1.25,2.1-2.4,2.1-.95,0-1.85-.55-1.85-1.75v-2.05H4.35v1.9c0,1.25-1.3,2.05-2.5,2.05-.9,0-1.75-.5-1.75-1.7v-.2c.45-6.55.6-21.8.6-30.15v-3.6c0-1.6-.25-5.8-.65-7.7-.05-.15-.05-.25-.05-.35s0-.1.1-.1c.35,0,4.05,1.35,5.55,2.35l.3.2h27.3c.35,0,.65-.25.8-.45,1-1.3,1.45-1.75,1.9-1.75.9,0,4.7,2.5,4.7,3.5Zm-6.25.85c0-.5-.35-.8-.75-.8H5.8c-1,.65-1.2.85-1.25,2-.1,2.8-.2,15.85-.2,26.15.1-.1.25-.3.5-.5,3.8-2.9,8.25-7.95,11.4-15.4-2.25.05-4.95.15-7.95.45h-.05c-.85,0-2.15-1.85-2.15-2.45,4.05.5,8.3.7,11.2.75,0-6.4-.5-8.35-.55-8.65-.05-.1-.05-.2-.05-.3s.05-.15.25-.15c.65,0,5.6.85,5.6,1.75,0,.3-.35.65-.9.9-.8.4-.9.2-1,1.55-.1,1.15-.15,2.85-.2,4.9h4.65c.3,0,.6-.1.75-.35.6-.95,2.1-3.15,2.7-3.15,1.2,0,4.55,3.15,4.55,4.1,0,.3-.25.6-1.05.6h-11.1c2.55,5.1,7.65,10.5,13.45,13.1l.25.15c0-9.55-.05-20.45-.25-24.65Zm.25,24.85c-.5.25-3.05.35-4.65,1.55-.2.15-.45.25-.7.25-.85,0-6.05-5.1-8.85-14.55v2.5c0,5.65.15,12.05.3,15.2v.05c0,1.15-1.3,1.75-2.25,1.75-.85,0-1.65-.45-1.65-1.55v-.1c.15-3.5.35-8.8.4-13.75-5.2,8.9-12.7,11.45-12.9,11.45v6.15h30.3v-8.95Z" fill="#fff"/>
      <path d="m59.3,105.95c-.15.55-.35,1.1-.55,1.65,1.35.25,8.6,1.8,8.6,5.6,0,1.2-.8,2.1-1.8,2.1-.7,0-1.5-.45-2.1-1.6-1-1.8-2.85-4.05-4.85-5.6-3.35,8.3-11.95,9.25-11.95,9.25-.2,0-.3-.05-.3-.1,0-.15.4-.45,1.3-.85,4.95-2.25,7.55-5.6,8.65-10.45-2.4.05-6.1.15-7.85.45h-.05c-.55,0-1.95-1.75-1.95-2.4,2.3.45,7.3.65,10.1.7.2-1.25.35-2.65.4-4.1-1.95.05-4.85.15-6.6.45h-.05c-.55,0-2-1.75-2-2.4,2.25.45,6.25.65,8.65.7v-4.35h-3.65c0,.2.05.4.05.55v.05c0,1-1.05,1.55-1.9,1.55-.7,0-1.35-.4-1.35-1.3v-.2c.15-1.55.2-5.8.2-7.3,0-.5-.05-2.2-.35-3.6,0-.1-.05-.15-.05-.2,0-.1.05-.15.1-.15.35,0,2.95,1.15,4.15,1.9h8.95c.2,0,.4-.1.55-.35.25-.45,1.05-1.3,1.4-1.3.65,0,3.45,1.65,3.45,2.5,0,.35-.35.65-.85.95-.7.4-.75.5-.75.95,0,2.35.25,5.55.25,5.65v.1c0,.55-.3,1.6-1.9,1.6-.7,0-1.4-.4-1.4-1.3v-.1h-3.75c-.05,1.65-.1,3.3-.1,4.35h2.15c.1,0,.4-.15.55-.4,1.05-1.5,1.65-2.1,1.95-2.1.1,0,.2.05.25.05,1.3.6,3.3,2.15,3.3,3,0,.35-.2.7-.95.7h-7.25c-.05,1.4-.15,2.8-.4,4.1h4.1c.1,0,.45-.15.6-.4.1-.15,1.5-2.3,2.15-2.3.1,0,.2,0,.25.05,1.7.75,3.45,2.5,3.45,3.25,0,.35-.25.65-.95.65h-9.9Zm4.15-25.8c0,.9.05,1.85.1,3.05,0,.35-.5,1.45-2,1.45-.7,0-1.25-.3-1.25-1.05v-.1c.05-1.25.1-2.4.1-3.35h-3.7c0,.9.05,1.9.05,3.2,0,.85-1.05,1.4-1.95,1.4-.75,0-1.35-.3-1.35-1.15v-.1c.15-1.45.15-2.4.2-3.25-1.35.05-2.75.15-4.25.35h-.05c-.65,0-1.95-1.7-1.95-2.35,2.05.3,4.3.5,6.3.6v-1.65c0-.6-.1-2.2-.4-3.6,0-.1-.05-.2-.05-.25,0-.15.05-.15.2-.15.4,0,4.75.35,4.75,1.45,0,.25-.2.65-.85,1.1-.55.4-.65.85-.65,3.2h3.75v-1.75c0-.6-.05-2.2-.3-3.6,0-.1-.05-.2-.05-.25,0-.2.1-.2.25-.2,0,0,4.75.5,4.75,1.5,0,.25-.2.6-.9,1.1-.7.5-.75.9-.75,3.2h1.2c.1,0,.35-.15.5-.4,1.4-2.2,1.55-2.3,1.8-2.3.1,0,.15.05.2.05,1.15.55,3,2.5,3,3.3,0,.3-.2.55-.8.55h-5.9Zm-6.5,11.9c0-.9-.05-3-.2-4.5h-2.65l-.3.2c-.5.3-.55.35-.55,3.2,0,.9.05,1.95.05,2.85h3.65v-1.75Zm6.95-3.95c0-.3-.2-.55-.6-.55h-2.15c.05.05.1.15.1.25,0,.15-.15.35-.45.5-.5.25-.6.35-.6,1.45,0,.8-.05,2.35-.1,4.05h3.8v-5.7Zm10.8,24.5c0,1,.05,1.8.05,2.4v.1c0,1.35-1.3,2.05-2.3,2.05-.8,0-1.5-.5-1.5-1.75v-.25c.4-4.9.65-23,.65-26v-2.15c-1.85,2.75-4,5.15-4.45,5.15-.05,0-.05-.05-.05-.1,0-.1.1-.3.3-.65,2.25-3.3,6.45-14.1,6.45-18.4.05-.4,0-.55.2-.55.9,0,5.45,1.6,5.45,2.5,0,.45-.65.8-1.45.95-.7.1-.75.15-1.05.8-.9,2.05-1.9,4.2-3,6.25,1.65.75,1.75.8,1.75.8h3.75c2.35-7,2.4-9.5,2.4-10,0-.2,0-.4-.05-.55v-.3c0-.15,0-.25.15-.25.4,0,5.45,1.7,5.45,2.6,0,.35-.4.7-1.35.8-.6.1-.75.3-1.05.8-1.15,2.05-3,5-4.4,6.9h3.25c.15,0,.45-.15.6-.4.5-.85,1.35-2.05,1.95-2.55.1-.1.25-.15.4-.15.85,0,4.1,2.75,4.1,3.8,0,.3-.2.55-.95.55h-6.75c.3.1.4.3.4.45,0,.3-.3.6-.85.8-.3.1-.4.4-.4.9-.05,1.15-.1,3.1-.1,5.45h1.15c.15,0,.45-.15.6-.4.05-.1,1.45-2.4,2.1-2.4.6,0,3.7,2.5,3.7,3.5,0,.3-.2.55-.95.55h-6.6v7.4h1.15c.15,0,.45-.15.6-.4,1.05-1.8,1.7-2.45,2.15-2.45.6,0,3.65,2.35,3.65,3.55,0,.3-.2.55-.95.55h-6.6v8.85h2.65c.15,0,.45-.15.6-.4.5-.85,1.4-2.2,2-2.7.1-.1.25-.15.4-.15.75,0,4.3,2.7,4.3,3.95,0,.3-.25.55-1,.55h-16.55Zm4.6-22.85c0-1.25,0-3.3-.2-4.75h-3.4c-.1.1-.25.15-.4.25-.65.35-.65.55-.65,7.35h4.65v-2.85Zm0,4.1h-4.65v7.4h4.65v-7.4Zm-.05,17.5c0-1.65.05-5.15.05-8.85h-4.65c0,3.25.05,6.4.05,8.85h4.55Z" fill="#fff"/>
      <path d="m109.9,84.9c-.7.15-1.35.25-1.95.3-.3,0-.55.05-.85.05-4.6,0-6.35-3.35-6.35-4.95,0-.2.1-.3.25-.3.25,0,.6.25.95.45,1.6.95,3.25,1.7,5.2,1.7,1.7,0,3.25-.4,3.55-.5.1-.75.15-1.5.15-2.15,0-2.9-.7-3.1-1.3-3.1-1.05,0-1.2-.25-1.2-.45,0-.1.05-.55.9-1.4.45-.35.9-.45,1.4-.45.9,0,3.15.5,3.15,3.7.55.05,1.15.05,1.65.05,1.55,0,3.05.05,3.05,1.4,0,1.45-2.75,3.75-6.15,4.95-1.4,3.5-3.3,7.95-7.6,17.3-.85,1.85-2.35,2.8-3.45,2.8-.8,0-1.4-.45-1.4-1.4,0-.65.35-1.6,1.15-2.8,2.7-4,6.95-9.95,8.75-14.95l.1-.25Zm3.55,31c-3.95,0-6.75-3.05-6.75-5.6,0-3.3,4.4-5,9-5,1.1,0,2.25.1,3.35.3,0-2-.2-4.1-.2-5.85.05-4.35,1.05-6.55,4.7-9.1,1.35-.95,2.95-2.15,2.95-3.35,0-.55-.2-.75-1.5-2.05-.5-.45-.8-.75-.8-1,0-.2.35-.3,1.2-.3,2.4,0,6.35,2.15,6.35,5.2,0,.95-.6,2.8-2.15,2.8-.5,0-1-.1-1.6-.25-.3-.05-.6-.1-1-.1-.65,0-6.2.1-6.2,5.05,0,1.35.25,3.35.85,7.4.1.75.2,1.55.25,2.3,2.75.9,7.35,3.35,7.35,6.3,0,1.2-.75,2.2-1.7,2.2-.65,0-1.4-.45-2-1.6-.8-1.45-2.15-2.75-3.8-3.75-.85,3.7-4.55,6.4-8.3,6.4Zm.6-8.65c-3.45,0-5.85,1.45-5.85,2.9s2.15,2.55,4.5,2.55c2.95,0,5.75-1.65,6.2-4.55-1.55-.55-3.2-.9-4.85-.9Zm.4-27.2c.3-.25.6-.6.6-.95,0-.15-.05-.45-1.25-.85-.05.75-.2,1.5-.4,2.4l1.05-.6Z" fill="#fff"/>
      <path d="m185.2,112.35c0,.45-4.3,1.6-5.9,3.2-.2.2-.4.3-.65.3-1.75,0-11.35-5.35-15.55-12.7,0,4.8.15,9.95.25,12.3v.05c0,.95-1.05,1.95-2.4,1.95-.9,0-1.7-.5-1.7-1.65v-.25c.2-2.15.35-6,.4-9.85-8.8,8.9-20.55,10.9-21.5,10.9-.25,0-.4-.05-.4-.15,0-.15.35-.4,1-.6,6.05-2.1,13.7-6.75,19.25-13.5h-1.4c-2.6,0-8.55.1-12.8.5h-.05c-.85,0-2.2-1.9-2.2-2.5,4.8.6,12.6.8,15.3.8h2.85v-4.15h-.8c-2.5,0-6.65.05-10.65.5h-.05c-.85,0-2.15-1.8-2.15-2.4,4.6.6,10.4.75,13,.75h.65c0-1.2-.05-2.85-.2-4.05h-2.6c-2.55,0-7.05.05-11.15.5h-.05c-.85,0-2.15-1.85-2.15-2.45,4.25.55,9.8.7,12.75.75-.4-.25-.75-.7-1-1.4-.4-1.1-1.5-2.9-2.4-3.85-.25-.25-.4-.4-.4-.45s.05-.05.2-.05c2.35,0,6.4,1.35,6.4,3.9,0,.85-.45,1.5-1.05,1.85h5.3c.2-.4,2.15-3.9,2.55-6.4h-10.15c-2.75,0-9.2.1-13.65.55h-.05c-.9,0-2.2-1.9-2.2-2.55,5.1.6,13.3.7,16.15.8v-4.1c0-2.2-.1-4.9-.5-6.65-.05-.2-.05-.3-.05-.35s0-.1.05-.1c.25,0,5.7.7,5.7,1.8,0,.3-.3.6-.85.95-.8.5-1,.2-1.1,1.85-.05.8-.05,4.65-.05,6.6h3.8v-4.1c0-2.2-.05-4.9-.45-6.65-.05-.2-.1-.35-.1-.4s.05-.05.1-.05c1.25,0,5.65.85,5.65,1.8,0,.3-.3.6-.85.95-.8.5-.95.2-1.05,1.85-.05.8-.1,4.65-.1,6.6h.65c1.2-1.55,4.25-6.15,4.95-9.15.1-.35.1-.5.2-.5.25,0,4.75,2.8,4.75,3.65,0,.35-.45.55-1.25.55h-.55c-.5,0-.6.2-1,.55-1.3,1.25-3.85,3.4-6,4.9h6.9c.3,0,.65-.2.8-.45.45-.75,2.3-3.25,2.9-3.25,1.1,0,5,2.85,5,4.3,0,.3-.25.6-1.1.6h-15.35c2.55,1.2,3.75,2.1,3.75,2.55,0,.4-.5.6-1.3.6h-.35c-.45,0-.55.15-.95.5-.65.6-2.2,1.8-3.55,2.75h6.15c.4,0,.7-.15.85-.4,1.7-2.3,2.25-2.75,2.75-2.75,1.25,0,4.55,2.7,4.55,3.75,0,.3-.25.6-1.05.6h-13.2c.2.1.3.25.3.4,0,.25-.4.55-.9.8-.9.4-.95.8-.95,2.85h4.7c.4,0,.7-.2.85-.45.05-.1,1.75-2.4,2.55-2.4.85,0,4.4,2.25,4.4,3.4,0,.3-.25.6-1.05.6h-11.5c-.05,1.2-.05,2.65-.05,4.15h10.6c.4,0,.75-.2.9-.45,2-2.8,2.7-2.85,2.85-2.85,1.25,0,4.75,2.8,4.75,3.9,0,.3-.2.6-1.05.6h-17.5c3.8,4.6,11.75,8.7,21.15,9.85.25.05.4.1.4.15Zm-31.55-33.25c0,1.25-.9,2.25-1.95,2.25-.7,0-1.45-.45-2-1.6-.55-1.15-2-3.2-3.15-4.2-.35-.3-.5-.45-.5-.55,0-.05.1-.1.8-.1,3.1.1,6.8,1.65,6.8,4.2Z" fill="#fff"/>
      <path d="m235.1,93.95c0,.45-3.8,1.5-5.15,2.7-.3.25-.55.35-.85.35-.95,0-5.25-1.6-9.1-5.15-5.8,4.8-13.4,5.55-13.45,5.55-.3,0-.45-.1-.45-.15,0-.15.3-.35,1.05-.6,4.6-1.45,8.25-3.9,10.9-6.8-1.75-2.05-3.1-4.45-3.85-7.1-1.4,1.8-2.9,3.6-4.45,4.85.85.65,2.4,2.1,2.4,2.9,0,.65-.65,1.1-2,1.15-1.5.1-3.7,2.6-5.3,3.55-.15.1-.3.15-.35.15s-.05,0-.05-.05c0-.1,0-.2.1-.4.65-1.35,1.8-3.8,1.85-4.65,0-.4-.05-.5-.25-.5h-3.15c.65.15,1.1.25,1.1.65,0,.25-.25.5-.7.7q-.75.35-.75,7.1c0,2.95.05,6.15.15,8.35.05,1.25.2,4.1.2,5v.1c0,3.9-4.6,4.7-5.35,4.7-.45,0-.8-.2-1.05-.75-.7-1.35-4.7-3.15-4.7-3.55,0-.05.05-.05.2-.05.1,0,.25,0,.5.05,1.8.3,3.35.5,4.5.5,1.45,0,2.3-.35,2.35-1.45.1-2.9.15-6.65.15-10.1v-3.35c-3.9,7-10.7,11.65-11.85,11.65-.05,0-.1,0-.1-.05,0-.15.25-.45.8-.95,3.55-3.15,9.75-12.55,10.95-17.85,0-.25,0-.5-.05-.7-2.05.05-4.7.15-7.4.5h-.05c-.75,0-2.15-1.8-2.15-2.5,4,.65,9,.75,11.2.75h5.1c.2,0,.55-.15.75-.35.2-.25,1.2-1.25,1.75-1.25.05,0,.15,0,.2.05.15.05.3.15.45.25,2.05-2.75,5.7-10.1,6-13.8.05-.4.05-.55.2-.55.5,0,4.95,1.5,4.95,2.45,0,.35-.4.7-1.25.85-.55.1-.6.2-.9.7-.6,1-1.35,2.2-2.25,3.5h9.5c.15,0,.4-.15.55-.4.4-.6,1.85-2.75,2.35-2.75s4.15,2.6,4.15,3.8c0,.25-.2.5-.95.5h-6.4c2.3.9,2.6,1.05,2.6,1.55,0,.35-.4.65-.95.65h-.1c-.4,0-.7.1-.95.65-1.05,2.05-2.2,3.9-3.6,5.45,3.15,2,7.3,3.45,12.5,4,.3.05.45.1.45.15Zm-24.85-16.1c0,.55-.65.85-1.55,1.05-.55.1-1.05.25-1.9.8-1,.65-2.8,2.15-4.5,3.3l.45.3c.9.7,1.3,1.55,1.3,2.3,0,1.1-.75,2-1.75,2-.65,0-1.45-.4-2.15-1.4-1.4-1.9-3.25-3.2-4.45-3.95-.25-.15-.35-.25-.35-.35,0-.15.45-.15.95-.15,1.35,0,3.45.2,5.1.85,1.1-1.85,2.45-4.15,2.6-4.8.05-.1.05-.2.05-.3s-.05-.2-.35-.2h-2.7c-1.45,0-5.4.05-7.7.4h-.05c-.6,0-2.05-1.85-2.05-2.4,3.65.65,8.4.7,9.9.7h2.6c.35,0,.6-.1.85-.35.3-.25.9-.9,1.2-1.15.15-.15.3-.2.4-.2.4,0,4.1,2.2,4.1,3.55Zm20.7,24.45c0,.4-.3.75-1.1,1.05-.8.3-.95.45-1,1.25-.7,8.5-4.2,11.8-8.7,11.8-1.2,0-1.5-.2-1.7-.7-.45-1.2-3.4-3-4.55-3.85-4.55,4.15-11.1,5.3-12.3,5.3-.25,0-.4-.05-.4-.15,0-.15.5-.45,1.15-.65,7.05-2.1,11.75-7.45,13.6-14.05-2.05.05-4.4.2-7.3.5h-.05c-.9,0-2.4-1.95-2.4-2.55,3.75.55,7.4.7,10.1.75.45-1.9.5-4.05.5-4.8,0-.5,0-.95-.05-1.4v-.2q0-.1.1-.1c.45,0,5.5.75,5.5,1.8,0,.3-.35.6-.9.8-.95.3-.9.3-1.1,1.45-.15.85-.3,1.65-.5,2.45h5.15c.4,0,.55-.2.7-.4,1.15-1.3,1.3-1.3,1.35-1.3.85,0,3.9,2.05,3.9,3Zm-5.95-.05h-5.45c-1.1,3.8-2.85,6.9-5.35,9.3,2.35.6,4.3,1.2,5.9,1.2s2.95-.6,3.9-2.45c1-1.9,1.55-5.05,1.65-7.3,0-.45-.1-.75-.65-.75Zm-9.9-20.75l-.15.25c1,2.25,2.6,4.35,4.7,6.2,2-2.75,2.75-4.95,3-6.45h-7.55Z" fill="#fff"/>
      <path d="m242.4,103.7c0-1.75.2-3.45.5-5.05.65-3.4,1.7-6.5,2.25-9.4.25-1.25.35-2.4.35-3.45,0-2.2-.45-3.85-.95-4.75-.3-.55-.7-1-.7-1.25s.25-.35,1-.35c1.55,0,4.15,2.2,4.15,5.9,0,1.65-.55,3.3-1.4,5.4-1.25,3.1-2.75,6.85-2.75,10.25,0,1.15.3,3.1.75,3.1.15,0,.35-.25.55-.75,1.25-2.65,4.65-9.3,5.2-9.3.05,0,.1.1.1.2,0,.2-.1.6-.35,1.2-.7,1.65-3.4,8.8-3.4,13.05,0,1.05.15,1.9.35,2.7.1.35.15.7.15,1,0,1.25-.75,2-1.6,2-3.4,0-4.2-8.05-4.2-10.5Zm30.6,3.4c1.95,0,3,.9,3,1.9,0,3.1-7.05,3.15-7.95,3.15-8.6,0-11.3-4.45-11.3-6.9,0-.35.05-.5.2-.5.25,0,.6.35,1.05,1,1,1.45,4.35,2.4,8.05,2.4,1,0,2-.05,3-.2,1.2-.2,2-.8,3.7-.85h.25Zm-7.65-17.8c-7.5,0-7.9-4.5-7.9-4.85,0-.15.05-.2.2-.2s.5.2.95.45c1.4.85,3.25,1.15,5.1,1.15,1.45,0,2.85-.2,4.15-.5.65-.15,1.2-.5,1.85-.6.35-.05.65-.1.95-.1,1.6,0,2.6.85,2.6,1.75,0,2.45-5.45,2.9-7.9,2.9Z" fill="#fff"/>
      <path d="m305.7,95.9v.15c0,1-.95,1.95-2.1,1.95-.8,0-1.55-.5-1.55-1.55v-.3c.35-3.15.6-9.05.6-11v-.65c-3.6,4-6.3,5.5-6.7,5.5-.05,0-.1,0-.1-.1s.15-.35.55-.75c1-1,2.1-2.35,3.15-3.85h-5.6c-.05,2.65-.05,5.65-.05,8.6,2.45-.9,4.7-1.8,6.45-2.6.5-.2.8-.3.95-.3.1,0,.15.05.15.1,0,.55-4.05,3.25-7.55,5.55,0,2.85.05,5.65.1,8.1,0,1.35.15,4.65.15,5.9,0,4-3.3,5.3-5.35,5.3-.45,0-.7-.15-1-.65-.9-1.6-4.25-3.55-4.25-4,0-.05.05-.05.2-.05.1,0,.25,0,.45.05,1.65.35,2.9.55,3.85.55,1.7,0,2.35-.65,2.4-2.1.1-3.1.1-7.2.15-11.45l-4,2.3c-.4.2-.5.85-.9.85-1,0-3.55-4.2-3.55-4.2,0-.1.15-.05.5-.1,1.75-.2,2.55-.3,7.95-2.1v-9.7c-1.6.05-3.5.15-5.6.4h-.05c-.6,0-2.05-1.85-2.05-2.4,2.65.4,5.5.6,7.7.65-.15-8-.25-8.75-.7-11.05-.05-.15-.05-.2-.05-.3s.05-.15.15-.15c.4,0,6.25.85,6.25,2,0,.45-.5.85-1.05,1.15-.9.5-.95.3-1.05,2.1-.1,1.6-.15,3.75-.2,6.3h.45c.15,0,.4-.15.55-.4,1.45-2.45,1.55-2.55,2-2.55.05,0,.15,0,.2.05,1.1.5,2.3,1.85,2.95,3.15,0,.05.05.05.05.1,1.35-2.05,4.85-7.65,5.3-10.8.05-.35.05-.45.2-.45.55,0,4.95,1.95,4.95,2.9,0,.4-.6.75-1.45.8-.75.05-.9.2-2.7,2.9l.3.1.25.15h5.05c.5-1.7.95-3.85.95-6.55,0-.3,0-.4.15-.4.2,0,5.3,1.55,5.3,2.65,0,.4-.5.8-1.45.9-.45.05-.6.25-.85.55-.9,1.05-1.75,2.05-2.65,2.85h5.6c.2,0,.45-.15.6-.4.55-1,1.85-2.4,2.3-2.4.55,0,4,2.3,4,3.45,0,.3-.2.55-.95.55h-9.45c.6.3.65.3.65.5,0,.25-.35.55-1,.8-.3.1-.4.85-.4,1.35,0,.35-.05.7-.05,1.05h2.95c.2,0,.5-.2.65-.4.7-1,1.65-1.85,1.95-1.85.65,0,3.65,1.9,3.65,2.9,0,.25-.2.5-.95.5h-8.3c0,1.1-.05,2.25-.05,3.45h3.05c.2,0,.5-.15.65-.4.5-.7,1.1-1.25,1.6-1.65.1-.1.25-.15.4-.15.65,0,3.6,1.8,3.6,2.85,0,.3-.2.55-.95.55h-8.35c0,1.45.05,2.85.05,4.05h5c.2,0,.5-.15.65-.4.05-.05,1.65-2.4,2.35-2.4s4.1,2.2,4.1,3.4c0,.3-.2.55-.95.55h-20.2Zm9.15,21c-.55,0-.85-.3-1.05-.7-.65-1.35-4.9-3.45-4.9-3.7h.05s.2,0,.45.1c2.05.65,4,1,5.7,1,2.1,0,3.8-.6,4.75-1.95,1.4-2,1.85-5.35,1.85-5.45,0-.3-.2-.5-.45-.5h-4.5l-.6,1.95c-.35,1-1.3,1.45-2.15,1.45-.8,0-1.5-.4-1.5-1.1,0-.2.05-.4.15-.65.95-2.15,2.05-5.55,2.05-6.25,0-.2-.15-.3-.4-.3h-5.2c1.4.3,1.8.45,1.8.75,0,.2-.2.45-.55.6-.55.2-.65.05-1,1.45-3.4,13.4-16.75,13.6-17.55,13.6-.35,0-.5-.05-.5-.15s.45-.3,1-.45c8.55-2.1,13.7-9.1,13.7-15.75-2.1.05-4.2.15-6.35.35h-.05c-.75,0-2.1-1.7-2.1-2.35,4.75.6,10.5.7,12.25.7h4.3c.25,0,.55-.15.75-.4.3-.3.75-.85,1.05-1.05.15-.15.25-.2.4-.2.45,0,3.85,1.75,3.85,2.9,0,.5-.65.75-1.15.95-1.15.4-1.2.4-1.85,2.65h3.9c.35,0,.7-.1.85-.3.6-.75,1.3-1.1,1.4-1.1.85,0,3.55,1.85,3.55,2.6,0,.45-.4.8-1.15,1.2-.4.2-.75.25-.85.8-1,4.35-2.5,9.3-9.35,9.3h-.6Zm-3.1-30.85h-6.05c-.05,1.1-.05,2.25-.05,3.45h6.1v-3.45Zm-6.1,4.65c0,1.45.05,2.85.05,4.05h5.95c.05-1,.1-2.5.1-4.05h-6.1Zm1.35-9.5l-.55.3c-.3.1-.7.45-.7,3.4h6c0-1.2-.05-2.5-.25-3.7h-4.5Z" fill="#fff"/>
      <path d="m346.55,97.15c5.1-5.25,10.15-7.35,14.45-7.35,6.65,0,11.45,5,11.45,9.95,0,10.75-16.1,15.8-18.85,15.8-.15,0-.25-.05-.25-.1,0-.15.6-.45,1.85-1,4.55-1.95,13.15-7.45,13.15-14.5,0-5.5-5.2-7.8-9-7.8-6.2,0-10.45,4.25-13.25,7.05-.2,2.65-.2,4.4-.2,4.6,0,2.9.45,5.95,1.05,8.4.15.65.2,1.2.2,1.7,0,1.6-.65,2.45-1.45,2.45-.95,0-2.05-1.25-2.3-3.95-.15-1.9-1.2-4.65-2.15-6.65-1.05,2.3-1.55,3.9-1.95,5.05-.85,2.35-2.4,3.6-3.4,3.6-.6,0-1.05-.4-1.05-1.3,0-.95.5-3.1,5.15-9.8-1-1.85-2.2-3.5-2.95-4.25-.8-.8-1.2-1.5-1.2-2.15s.45-1.15,1.3-1.55c1.15-.5,2-1.2,2.65-1.85,1.75-1.8,3.9-3.4,5.95-4.7.05-.8.1-1.55.1-2.25.05-.95.05-1.75.05-2.45,0-3.9-.75-4.95-3.15-6.5-.45-.25-.65-.4-.65-.6,0,0,.65-.9,1.95-.9.7,0,4.45.35,4.45,5.1,0,.95-.65,5.6-.85,6.6h.35c2.05,0,2.8.55,2.8,1.4,0,1.05-1.1,2.6-2.2,4.1-.7.9-1.45,2.05-2.25,3.35l-.1.8.3-.3Zm-5.3,4.4c1.25-1.6,2.65-3.7,3.8-5.65.2-1.75.35-3.5.5-5.05-1.5,1.05-2.8,2.75-3.65,4.65-.7,1.5-1.35,1.95-2.95,2.2-.45.05-.6.2-.6.45,0,.45.65,1.6,2.2,4.35l.7-.95Zm.55,3.05c1.55,2.7,1.85,3,2.1,3,.1,0,.2-.1.2-.4,0-2.15.25-4.35.45-6.45-.85,1.1-1.7,2.2-2.5,3.3l-.25.55Zm5.05-11.8c.9-1.65.9-2.05.9-2.1,0-.35-.1-.6-.45-.65l-.45,2.75Z" fill="#fff"/>
      <path d="m409.55,102.85c0,3.05,1.65,4.6,4.05,4.6,2.2,0,5.05-1.35,7.7-4,1.25-1.25,1.85-1.7,2.1-1.7.05,0,.1,0,.1.1,0,.8-4.6,9.1-11.65,9.1-3.4,0-6.05-2.3-6.05-7.3,0-.5,0-1,.05-1.5.3-3.35,2-6.65,2.75-10.15.2-1.05.35-2,.35-2.8,0-2.55-1.1-3.95-3.1-3.95-2.4,0-8.2,2.45-14.05,9.85-.35,3.25-.5,4.6-.5,7.05,0,3.05.3,6.1,1.2,8.75.3.9.4,1.65.4,2.3,0,1.55-.7,2.4-1.55,2.4-1.15,0-2.55-1.5-2.6-4.5-.05-1.25-1.15-4.55-2-7.05-.5,1.3-.9,2.7-1.2,4.05-.55,2.55-2.2,4.05-3.35,4.05-.6,0-1.1-.45-1.1-1.5,0-2.2,1.45-4.85,4.5-9.7-.9-2.05-1.75-4.1-2.8-6.05-.4-.75-.55-1.45-.55-2.05,0-.85.35-1.6,1-2.1,1.95-1.5,6.65-2.8,7.6-3l.05-.4c.15-1.4.35-3.05.35-4.6,0-4.4-1.7-5.3-2.75-5.5-.95-.2-1.4-.5-1.4-.85,0-.4,1.15-1.15,2.3-1.15,2.3,0,4.7,2.8,4.7,5.55,0,1-.2,2.15-.5,3.55-.25,1.1-.5,2.15-.65,3.1h.05c1.55.1,2.1.7,2.1,1.5,0,.25-.05.6-.2.9,2.65-2.5,7.2-6.35,11.65-6.35,3.25,0,5.4,2.25,5.4,6.45,0,.7-.05,1.4-.15,2.15-.55,3.6-2.1,7.05-2.25,10.4v.35Zm-19.1-11.65c-.1-.05-.25-.05-.3-.05-1.25,0-4.25.8-5.25,1.6-.45.35-.6.8-.6,1.35,0,.25.1,2.2,1.9,5.9,1.1-1.55,3.25-5.3,4.15-7.55l.1-1.25Zm-3.1,11.3c.1.2,1.55,3.05,1.9,3.05.1,0,.15-.25.15-.8,0-1.85.15-4.35.4-6.9-1.1,1.55-1.5,2.3-2.45,4.65Z" fill="#fff"/>
      <path d="m438.75,95.95s.1-.05.25-.15c2.25-1.45,5.05-2.25,7.85-2.25,6.45,0,10.4,4.5,10.4,9.35s-4.6,11.4-13.8,11.4c-4.85,0-8.1-2.4-8.1-5.1,0-2.4,2.5-3.75,4.9-3.75,3.3,0,5.35,2.55,5.35,5.15,0,.4-.05.85-.15,1.25,5.8-1.4,8.05-5.4,8.05-8.9,0-3.95-2.8-7.5-7.85-7.5-1.75,0-7.55.45-10.9,7.55-1.2,2.6-2,4.15-3.7,4.15-.9,0-1.6-.7-1.6-1.7,0-1.45,1.85-3.6,4.15-6.25,3-3.45,10.05-12.95,12.15-16.4.25-.35.35-.7.35-.95,0-.35-.2-.85-1.25-.85-2.35,0-3.45,4.8-6.8,4.8-1.85,0-3.35-1.2-3.35-3.05,0-.55.1-1,.45-1,.25,0,.55.1.95.25.4.15.8.2,1.2.2.7,0,1.4-.2,2.05-.7,1.95-1.35,4.25-3,6.9-3,2.95,0,4.75,2.05,4.75,3.15,0,1-1.1,1.9-2.15,2.7-3.6,2.75-10.1,11.45-10.1,11.55v.05Zm3.85,14.45c0-1.75-1.35-3.25-3.2-3.25-2.2,0-2.25,1.65-2.25,1.9,0,.2,0,2.55,5,3.05.3-.55.45-1.15.45-1.7Z" fill="#fff"/>
      <path d="m509.96,101.95c0,.35-.25.65-1.1.65h-26.2c-2.75,0-10.05.05-14.45.5h-.05c-.9,0-2.4-1.9-2.4-2.5,5.05.6,14.1.75,16.95.75-.4-.3-.75-.75-.95-1.45-.35-1.15-1.3-2.75-2.1-3.65-.25-.25-.35-.4-.35-.5,0-.05.1-.05.25-.05,3.75,0,6.2,1.95,6.2,3.8,0,.8-.4,1.5-1,1.85h4.95c.75-1.5,1.6-3.55,1.85-5.9.05-.4,0-.5.15-.5.85,0,5.25,2.5,5.25,3.25,0,.35-.4.55-1.15.55h-.5c-.45,0-.7.25-1.15.6-.45.35-1.9,1.3-3,2h10.3c.3,0,.6-.15.75-.4,2.15-2.75,2.35-2.9,2.75-2.9.15,0,.35,0,.45.05,1.65.6,4.55,2.8,4.55,3.85Zm-1.05-23.9c0,.3-.2.6-1.05.6h-18.25v4.05h6.05c.3,0,.65-.15.8-.4.6-.9,2.2-2.8,2.75-2.8,1.25,0,4.6,2.75,4.6,3.85,0,.3-.2.6-1,.6h-15.9c-2.7,0-8.35.05-12.65.5h-.05c-.9,0-2.35-1.9-2.35-2.5,4.4.55,10.75.7,14.1.75v-4.05h-2.15c-2.7,0-9.9.05-14.2.5h-.05c-.9,0-2.35-1.9-2.35-2.5,4.95.6,14.05.8,16.85.8h1.9c-.05-2.1-.05-3.05-.6-5.2-.05-.2-.1-.3-.1-.35s.05-.1.1-.1c.45,0,6.45.75,6.45,1.9,0,.35-.35.75-.95,1.1-.9.5-1.15.2-1.2,2,0,.2-.05.45-.05.65h10.65c.3,0,.65-.2.8-.45.8-1.1,2.3-3.15,2.95-3.15,1.15,0,4.9,3.05,4.9,4.2Zm-6.35,29.25c0,.4-.45.75-1.1,1.1-.8.45-1,.6-1,1.9,0,1.1.25,3.25.35,4.75v.1c0,1.25-1.5,1.65-2.3,1.65-.9,0-1.7-.4-1.7-1.35v-1.6h-18.5c0,.65.05,1.25.05,1.65v.05c0,1.1-1.45,1.55-2.4,1.55-.9,0-1.75-.4-1.75-1.3v-.2c.25-2,.45-5.35.45-6.45,0-.6-.15-3.25-.55-4.65-.05-.15-.05-.2-.05-.25q0-.1.05-.1c.1,0,2.9.65,5.25,2.1h.1s.05,0,.05.05h16.3c.25,0,.45,0,.65-.25.35-.4.85-1.05,1.2-1.35.2-.15.4-.25.65-.25.85,0,4.25,2,4.25,2.85Zm-1.05-18.85c0,.4-.45.7-1.05,1.05-.95.55-.95.8-.95,1.75s.25,2.05.3,3.2v.05c0,1-1.1,1.7-2.2,1.7-.85,0-1.65-.4-1.65-1.35v-.6h-16.9c0,.3.05.6.05.85v.05c0,.65-.75,1.55-2.25,1.55-.9,0-1.7-.4-1.7-1.3v-.2c.25-2,.35-4.05.35-5.15,0-.6-.15-2.9-.5-4.3-.05-.15-.05-.2-.05-.25,0-.1.05-.15.1-.15.25,0,3.6,1.1,5,2h.1s.05,0,.05.05h14.8c.25,0,.45-.05.65-.3.35-.4.75-.9,1.1-1.2.2-.15.35-.25.6-.25.45,0,4.15,1.65,4.15,2.8Zm-4.7,19.6c0-.3-.25-.5-.65-.5h-16.85c-.1.1-.25.2-.45.3-.55.3-.65.45-.65,2.6,0,.65.05,1.4.05,2.15h18.6c0-1.65,0-3.5-.05-4.55Zm-.8-18.9c0-.3-.3-.5-.65-.5h-15.35c-.1.1-.25.15-.4.25-.45.3-.65.45-.65,2.5,0,.5.05,1.05.05,1.65h17v-3.9Z" fill="#fff"/>
      <path d="m545.06,80.9c0,4.8,2.55,10.55,7.85,13.45,1.4.75,1.95,1.85,1.95,2.8,0,1.05-.7,1.9-1.85,1.9-3,0-7.4-6.45-8.75-12.05-.05-.25-.1-.3-.15-.3s-.1.25-.1.55c0,.6.05,1.35.05,2.2,0,9.85-1.1,15.55-4.4,19.35-3,3.4-7.2,5.7-11.05,5.7-8.25,0-9.45-9.4-9.45-12.05,0-3.9,1.35-7.6,2.95-11.2,1.4-3.15,3.2-5.9,4.05-7.5.05-.1.05-.15.05-.2s0-.05-.05-.05c-.1,0-.2.05-.3.1-1.2.6-2.25.85-3.1.85-1.9,0-2.8-1.25-2.8-2.5,0-1.15.75-2.1,1.2-2.1.2,0,.35.4.6.65.35.4,1.1.55,2.05.55,1.3,0,3.85-.7,4.65-1.25,1.35-.85,2.55-1.25,3.65-1.25,1.9,0,2.9,1.15,2.9,1.9,0,.6-.5,1.2-1.65,1.35-.55.1-1.75.35-2.5.7-2.85,1.2-8.8,10.85-8.8,18.8,0,5.1,2.3,9.3,7.1,9.3,3,0,6.25-1.6,8.6-3.85,2.25-2.1,3.35-4.75,4-7.95.6-3.15,1.05-11.8,1.05-12.7,0-2.5-1.15-5.15-1.15-7.55,0-3.15,1.25-3.3,1.7-3.3.9,0,1.8,1.25,1.8,2.6,0,.95-.1,1.85-.1,2.75v.3Zm6.3,1.75c-1.2-1.55-2.8-2.85-4.05-3.65-.4-.25-.8-.45-.8-.6,0-.25,1.5-.25,1.6-.25,2.25,0,6.15,1,6.15,3.6,0,1-.7,1.7-1.5,1.7-.45,0-.95-.2-1.4-.8Zm4.75-3.05c-1.35-1.45-2.95-2.6-4.3-3.25-.45-.2-.85-.4-.85-.55,0-.35,1.5-.45,2.25-.45,2.5,0,5.7,1,5.7,3.3,0,.95-.6,1.65-1.45,1.65-.4,0-.9-.2-1.35-.7Z" fill="#fff"/>
    </g>
  </g>
</svg>