<?xml version="1.0" encoding="UTF-8"?>
<svg id="_レイヤー_2" data-name="レイヤー 2" xmlns="http://www.w3.org/2000/svg" viewBox="0 0 616 250">
  <g id="_デザイン" data-name="デザイン">
    <rect width="616" height="80" fill="#fff"/>
    <rect y="85" width="412" height="80" fill="#fff"/>
    <rect x=".5" y="170" width="380" height="80" fill="#fff"/>
    <g>
      <path d="m56.82,25.79c-2.4,0-6.48.06-10.26.54h-.06c-.78,0-2.52-2.22-2.52-2.88,4.56.66,10.44.84,12.96.84h2.88c.18,0,.6-.18.78-.48.06-.12,2.04-3.42,2.88-3.42,1.38,0,5.04,3.54,5.04,4.8,0,.3-.24.6-1.14.6h-10.56Zm7.86,36.96c0,1.14-.96,2.22-2.58,2.22-1.02,0-1.92-.54-1.92-1.8v-1.38h-7.8v2.46c0,1.26-1.38,1.98-2.64,1.98-1.02,0-1.98-.48-1.98-1.74v-.18c.36-4.5.42-7.5.42-10.02,0-4.5-.36-7.68-.66-9.12,0-.12-.06-.24-.06-.3,0-.12.06-.18.12-.18.48,0,4.8,1.8,6,2.64l.12.12h5.28c.24,0,.54-.12.78-.48.24-.36,1.44-1.86,2.04-1.86.3,0,4.86,1.98,4.86,3.54,0,.54-.6.96-1.26,1.44-1.14.72-1.14,1.14-1.14,3.12,0,2.34.18,5.76.42,9.42v.12Zm-7.98-45.3c-1.86,0-3.78.12-6.6.54h-.06c-.84,0-2.34-1.98-2.34-2.88,3.54.66,6.9.84,8.82.84h.96c.12,0,.42-.18.6-.48.48-.96,2.04-3.18,2.7-3.18.12,0,.24,0,.3.06.84.36,4.32,2.82,4.32,4.32,0,.42-.24.78-1.08.78h-7.62Zm0,15.84c-1.86,0-3.78.06-6.6.54h-.06c-.72,0-2.34-1.86-2.34-2.88,3.54.66,6.9.84,8.82.84h1.08c.12,0,.48-.18.66-.48.48-.84,1.92-3,2.7-3,.06,0,.18,0,.24.06.66.3,4.2,2.76,4.2,4.14,0,.36-.24.78-1.08.78h-7.62Zm0,7.92c-1.86,0-3.78.06-6.6.54h-.06c-.78,0-2.34-1.98-2.34-2.88,3.54.66,6.96.84,8.88.84h1.02c.12,0,.48-.18.66-.48.18-.3,1.86-3,2.64-3,.18,0,.3,0,.36.06,1.5.66,4.14,3.06,4.14,4.14,0,.42-.24.78-1.08.78h-7.62Zm3.48,19.02c.06-2.64.12-4.8.12-6.84,0-1.26-.06-2.46-.12-3.6,0-.42-.18-.78-.66-.78h-6l-.48.36c-.66.42-.66.54-.66,1.68-.06,1.74-.12,3.54-.12,5.34,0,1.26.06,2.58.06,3.84h7.86Zm32.94,3.06c0,1.44-1.56,2.1-2.64,2.1s-2.04-.54-2.04-1.8v-2.52h-12.54v2.58c0,1.08-1.02,2.1-2.76,2.1-1.02,0-1.98-.54-1.98-1.74v-.18c.48-5.52.54-11.76.54-14.64,0-.78-.12-5.04-.6-7.2-.06-.18-.06-.3-.06-.36s.06-.12.06-.12c.24,0,4.32,1.44,6,2.64h.12s.06,0,.06.06h2.82c.06-2.64.06-7.14.06-11.22-2.94.06-7.62.18-11.28.54h-.06c-.78,0-2.46-2.22-2.46-2.88,4.62.54,10.44.78,13.8.84,0-2.76-.06-5.22-.06-6.3-.06-1.5-.06-3.36-.18-4.62-3.84.3-7.74.54-10.98.54-.96,0-1.44-.18-1.44-.36s.42-.36,1.26-.48c.36-.06,17.88-2.82,21.54-6.48.12-.12.18-.24.3-.24.06,0,.12.06.24.12,0,0,3.84,3.6,3.84,5.1,0,.42-.24.66-.78.66-.36,0-.84-.12-1.5-.36-.24-.06-.48-.12-.78-.12h-.3c-1.74.42-3.84.78-6.18,1.08l.42.12c.6.18.84.48.84.78,0,.36-.42.78-.84.96-1.02.42-1.14.48-1.2,1.98s-.06,4.38-.06,7.62h4.92c.3,0,.72-.24.9-.54,1.56-2.46,2.7-3.84,3.24-3.84.12,0,.24.06.36.06.9.3,5.28,3.48,5.28,5.1,0,.42-.3.72-1.26.72h-13.44c0,4.14,0,8.52.06,11.22h2.88c.24,0,.54-.12.78-.42,1.26-1.68,1.68-1.98,2.1-1.98,1.08,0,4.98,2.52,4.98,3.66,0,.54-.54.96-1.26,1.38-1.02.54-1.2.66-1.2,3.9s.24,8.94.48,12.36v.18Zm-4.62-3.78c.06-2.46.06-4.98.06-7.2s0-4.32-.12-5.7c0-.36-.18-.78-.78-.78h-10.56l-.36.3c-.72.54-.78.36-.84,1.86-.06,1.74-.12,4.02-.12,6.42,0,1.68.06,3.48.06,5.1h12.66Z" fill="#003383"/>
      <path d="m160.38,57.59c.12,0,.18.06.18.12,0,.54-4.02,3.42-4.86,5.4-.24.6-.72,1.02-1.38,1.08-2.28.24-8.16.78-14.28.78-7.32,0-22.14-.18-27.18-13.8-2.58,10.02-8.4,15.12-9.84,15.12-.06,0-.12-.06-.12-.12,0-.18.24-.6.66-1.08,4.2-4.8,6.18-15.24,6.18-19.14,0-.66,0-1.32-.12-2.1,0-.12-.06-.24-.06-.36,0-.06.06-.12.36-.12,1.38,0,5.94.84,5.94,1.92,0,.3-.36.6-1.08.9-.78.36-1.02.18-1.26,1.86-.06.54-.12,1.02-.24,1.56.84,2.1,2.16,3.96,4.02,5.58.06-1.74.06-4.2.06-6.36,0-1.5,0-6.66-.24-8.82h-.6c-1.62,0-4.92.06-8.76.48h-.06c-.9,0-2.46-2.1-2.46-2.76,4.92.78,9.78.78,11.4.78h7.62c.18,0,.54-.18.72-.48.6-.9,1.5-1.86,2.16-2.46.18-.12.36-.18.54-.18.12,0,.24.06.3.06,1.68.66,4.2,2.7,4.2,3.78,0,.42-.24.78-1.14.78h-8.76c.3.12.42.3.42.54,0,.3-.3.6-.84.84-.78.3-.78.54-.78,6.3h2.28c.24,0,.48-.24.66-.54.54-1.02,1.38-2.22,1.92-2.82.12-.12.24-.18.42-.18.06,0,.18,0,.24.06,1.38.66,3.9,2.88,3.9,4.26,0,.36-.24.66-1.02.66h-8.4v8.64l1.08.54.42-.12c4.02-1.14,14.22-5.22,16.38-9.96.12-.24.18-.36.3-.36.84,0,4.8,3.3,4.8,3.9,0,.42-.48.72-1.5.72h-.6c-.42,0-.84.06-1.2.3-5.34,3.48-11.94,5.4-17.16,6.06,3.24,1.26,7.38,1.86,13.02,1.86,7.38,0,16.26-1.08,23.22-3,.24-.06.42-.12.54-.12Zm-30.12-39.96c0,.54-.54.96-1.26,1.38-.78.48-.96.54-.96,4.02,0,2.76.24,5.7.42,9.42v.12c0,1.26-.9,2.4-2.52,2.4-.96,0-1.8-.6-1.8-1.92v-.72h-10.56v1.26c0,1.32-1.38,2.16-2.58,2.16-.96,0-1.8-.54-1.8-1.74v-.24c.36-4.86.42-7.92.42-10.44,0-5.64-.54-8.7-.66-9.18,0-.18-.06-.24-.06-.36s.06-.18.18-.18,3.9,1.38,5.64,2.7l.06.06h8.16c.36,0,.66-.3.84-.54,1.02-1.5,1.44-1.86,1.92-1.86.36,0,4.56,2.1,4.56,3.66Zm-6.06,1.2c0-.42-.18-.84-.9-.84h-8.58l-.36.3c-.84.6-.84.96-.84,5.1h10.74c0-1.56,0-3.06-.06-4.56Zm-10.68,6.12v5.82h10.68c.06-2.16.06-4.08.06-5.82h-10.74Zm44.76-7.38c0,.36-.3.66-1.2.66h-11.1c2.1.6,2.1.78,2.1,1.08,0,.36-.48.72-1.56.9-.66.12-.96.48-1.2.84-.84,1.2-1.8,2.52-2.7,3.54h5.64c.24,0,.48-.12.72-.42,1.38-1.62,1.56-1.74,1.92-1.74,1.08,0,4.92,2.28,4.92,3.36,0,.48-.54.9-1.26,1.32-1.2.72-.96.9-1.02,1.98,0,.66-.06,1.5-.06,2.52,0,3.9.18,10.08.48,14.58v.06c0,1.74-1.74,2.22-2.7,2.22s-1.86-.54-1.86-1.68v-.06l.06-.6h-10.86l.06.54v.06c0,1.2-1.32,1.92-2.64,1.92-.96,0-1.86-.48-1.86-1.68v-.18c.36-4.62.48-9.54.48-13.08,0-1.68-.06-3-.06-3.9,0-.72-.18-5.04-.66-7.38-.06-.18-.06-.24-.06-.36q0-.06.06-.06c.54,0,4.5,1.62,5.94,2.58h1.08c.42-2.1.6-5.16.6-5.7v-.6c-2.58.06-5.52.18-8.16.48h-.06c-.9,0-2.52-2.1-2.52-2.76,5.22.66,12.42.78,15.36.78h3.06c.18,0,.6-.18.78-.48.24-.36,2.28-3.36,3-3.36.12,0,.24.06.36.06,1.86.72,4.92,3.42,4.92,4.56Zm-19.68,15.18c0,1.5-.06,3.12-.06,4.86h10.98c0-1.68.06-3.36.06-4.86h-10.98Zm-.06,6.36c0,1.86.06,3.72.06,5.52h10.86c0-1.8.06-3.66.06-5.52h-10.98Zm10.92-12.36c0-.3-.3-.66-.72-.66h-9.06c-.12.12-.3.18-.48.3-.48.3-.54.36-.54,1.44,0,.9-.06,2.1-.06,3.48h10.92c0-1.92,0-3.54-.06-4.56Zm7.92,28.08c0,1.38-1.08,2.46-2.34,2.46-.9,0-1.92-.54-2.82-1.86-1.8-2.76-4.62-4.74-7.08-6.3-.3-.18-.48-.36-.48-.42s.18-.12.48-.12c.42,0,12.24,1.08,12.24,6.24Z" fill="#003383"/>
      <path d="m190.5,22.97c-.66,0-1.32.06-1.98.12,1.5,1.2,2.46,4.32,2.46,8.22,0,12.54-9.96,26.28-15.66,26.28-3.18,0-4.38-4.26-6.72-7.68-.96-1.38-1.44-3.36-1.44-5.58,0-9.06,7.8-23.52,24.24-23.52,13.74,0,21,9.42,21,19.32,0,5.4-2.22,10.98-6.72,15.24-7.68,7.2-19.08,7.98-19.62,7.98-.6,0-.84-.06-.84-.18,0-.3.9-.72,2.7-1.2,10.5-2.88,19.92-10.38,19.92-22.08,0-8.94-6.3-16.92-17.1-16.92h-.24Zm-5.46.78c-9.24,2.7-14.58,11.28-14.58,18.78,0,5.28,2.7,9.3,5.28,9.3,4.14,0,12.72-12.54,12.72-23.16,0-2.7-.36-5.16-2.16-5.16-.18,0-.36,0-.54.06-.18.06-.36.12-.48.12l-.24.06Z" fill="#003383"/>
      <path d="m243.72,26.03c0,.42-.42.84-1.38,1.32-.9.48-1.2.42-1.44,2.22-4.14,30.06-24.36,36.06-24.54,36.06-.06,0-.12-.06-.12-.12,0-.24.54-.78,1.32-1.26,14.22-9.42,17.88-29.94,17.88-37.68,0-1.08-.06-1.98-.18-3.18v-.24q0-.12.12-.12c1.08,0,8.34,1.56,8.34,3Zm30.84,34.26c0,.66-6.48.66-8.28,2.52-.24.24-.6.42-.96.42-.24,0-.48-.06-.72-.24-8.1-6.54-14.94-19.38-15.12-43.2,0-.66-.6-1.2-1.2-1.2h-1.26c-1.74,0-5.58.24-9,.66h-.06c-.84,0-2.76-2.46-2.76-3.18,4.38.66,9.9.96,11.7.96h1.56c.36,0,.72-.24.96-.54,1.02-1.32,1.68-2.04,2.22-2.04.3,0,4.62,2.16,4.62,3.78,0,.66-.72,1.14-1.62,1.38-1.92.6-3.48.54-3.48,1.5v.12c1.86,20.28,9.18,33.24,22.98,38.76.3.12.42.24.42.3Z" fill="#003383"/>
      <path d="m332.04,62.99c0,.42-.24.78-1.26.78h-32.4c-3.24,0-12.06.12-17.22.66h-.06c-1.08,0-2.88-2.28-2.88-3.06,5.94.72,17.1.9,20.46.9h3.72c.06-1.8.06-3.72.06-5.76h-1.38c-3.24,0-8.88.06-14.04.6h-.06c-1.08,0-2.88-2.28-2.88-3,5.94.72,13.92.9,17.28.9h1.14c0-2.1.06-4.26.06-6.42h-9.18v1.32c0,1.32-1.38,2.1-2.76,2.1-1.02,0-1.98-.54-1.98-1.8v-.24c.42-4.68.48-8.22.48-10.98,0-4.98-.54-8.4-.78-9.54-.06-.18-.06-.3-.06-.36,0-.12.06-.18.12-.18.72,0,4.86,1.8,6.24,2.76l.18.18h7.74c0-2.16-.06-4.02-.06-5.52h-3.6c-3.24,0-11.82.12-16.98.66h-.06c-1.08,0-2.88-2.28-2.88-3.06,5.94.72,16.86.9,20.22.9h3.3v-.54c-.06-1.56-.12-3.18-.3-4.68-4.74.36-9.66.54-14.04.54-4.98,0-5.7-.18-5.7-.54,0-.18.36-.36,1.26-.42,7.92-.54,22.08-2.7,29.28-5.1,1.26-.42,2.22-1.02,2.88-1.44.3-.18.42-.3.48-.3.6,0,4.5,4.02,4.5,5.28,0,.48-.42.66-.96.66-.36,0-.78-.06-1.26-.24-.3-.12-.72-.18-1.14-.18h-.24c-2.34.42-5.46.84-8.94,1.2.42.18.54.42.54.66,0,.36-.36.72-.96.96-.84.42-.96.54-1.02,2.4,0,.42-.06,1.02-.06,1.74h14.1c.36,0,.84-.24,1.02-.54,1.62-2.28,2.82-3.84,3.42-3.84,1.26,0,5.88,3.6,5.88,5.1,0,.42-.24.78-1.26.78h-23.22c0,1.56-.06,3.42-.06,5.52h8.82c.36,0,.66-.24.84-.48.42-.54,1.08-1.32,1.44-1.62.24-.18.42-.3.72-.3.9,0,5.16,2.7,5.16,3.84,0,.54-.72.96-1.56,1.44-1.08.54-1.08.72-1.08,3.84,0,2.7.24,5.82.48,9.24v.12c0,1.44-1.44,2.34-2.7,2.34-1.02,0-1.92-.54-2.04-1.68h-10.08v6.42h9.3c.36,0,.84-.24,1.02-.54,1.26-1.74,2.76-3.54,3.24-3.54,1.74,0,5.7,3.54,5.7,4.8,0,.42-.24.78-1.26.78h-18c0,2.16.06,4.14.06,5.76h14.88c.36,0,.84-.24,1.02-.54.48-.72,2.7-3.9,3.54-3.9,1.56,0,5.82,3.9,5.82,5.16Zm-29.46-29.64h-7.8c-.18.12-.36.3-.6.42-.9.6-.96.72-.96,5.28h9.36v-5.7Zm0,7.2h-9.36c0,2.04.06,4.26.12,6.54h9.24v-6.54Zm14.22-6.42c0-.42-.18-.78-.84-.78h-9.24v5.7h10.2c0-1.74-.06-3.36-.12-4.92Zm-10.08,6.42v6.54h10.08c.06-2.4.12-4.56.12-6.54h-10.2Z" fill="#003383"/>
      <path d="m347.16,32.33c0,1.44-1.08,2.7-2.4,2.7-.72,0-1.56-.36-2.28-1.38-.96-1.32-3.12-3.42-4.8-4.32-.48-.3-.72-.48-.72-.6,0-.42,3-.42,3.12-.42,6.6,0,7.08,3.12,7.08,4.02Zm0,21.36c0,1.44.18,2.88.72,4.26.42,1.02.6,1.98.6,2.76,0,2.16-1.2,3.54-2.7,3.54-1.38,0-2.76-1.32-2.76-4.32v-.6c.12-1.74.48-3.54.48-5.1,0-2.34-.84-4.26-4.56-5.16-1.02-.24-1.56-.48-1.56-.66s.6-.3,1.62-.36c2.46-.06,4.08-.42,4.86-2.58,3.18-8.58,11.88-30.36,13.26-30.36.06,0,.12.06.12.18,0,.24-.12.66-.36,1.32-2.7,7.56-9.72,28.56-9.72,37.08Zm4.44-33.72c0,1.56-1.14,2.82-2.46,2.82-.9,0-1.8-.54-2.58-1.92-.78-1.44-2.64-3.72-4.32-4.98-.42-.3-.66-.54-.66-.66,0-.18,1.38-.18,1.5-.18,4.08,0,8.52,1.68,8.52,4.92Zm18.96,16.14c0,1.68-1.2,2.94-2.34,2.94-.84,0-1.68-.66-1.92-2.34-.24-1.68-1.02-3.84-1.98-5.34-.12,16.68-2.04,28.62-16.56,34.38-.96.36-1.74.6-2.1.6-.12,0-.24,0-.24-.06,0-.18.48-.54,1.62-1.2,10.86-6.12,13.2-16.14,13.2-33.78,0-3.3-.12-13.38-.84-16.68-.06-.18-.06-.3-.06-.36,0-.12.06-.18.18-.18.72,0,7.26,1.38,7.26,2.82,0,.3-.24.66-1.02,1.02-1.32.66-1.56.6-1.56,2.46v.84c.06,3.18.12,6.24.12,9.12.06,0,.12.06.18.06,2.4.72,6.06,2.7,6.06,5.7Zm-16.98,5.16c-1.14,0-2.1-.78-2.1-1.98,0-.72.36-1.56,1.14-2.4,2.16-2.34,3-5.28,3-7.86v-.24c0-.66.06-.9.12-.9.36,0,2.04,3.24,2.04,6.84,0,4.26-2.04,6.54-4.2,6.54Zm28.86-5.1c0,1.68-1.26,2.94-2.4,2.94-.84,0-1.62-.66-1.92-2.34-.3-1.8-1.2-4.2-2.34-5.7l-.18-.3v3.96c0,8.82.12,19.02.3,23.52v.06c0,1.2-1.26,2.4-2.64,2.4-1.02,0-1.92-.6-1.92-2.1v-.12c.24-6.48.48-19.5.48-28.32,0-2.34,0-11.16-.66-14.22-.06-.18-.06-.3-.06-.36,0-.12.06-.18.18-.18,1.32,0,7.02,1.44,7.02,2.64,0,.42-.3.78-.9,1.14-1.26.72-1.38.24-1.56,2.58-.12,1.92-.18,4.98-.24,8.52.54,0,6.84,1.86,6.84,5.88Zm5.64-16.38c-.18,2.58-.24,7.44-.24,13.14,0,10.14.18,22.92.36,30.24v.06c0,1.44-1.5,2.4-2.76,2.4-1.08,0-1.98-.6-1.98-2.1v-.12c.24-8.1.48-22.5.48-32.52,0-7.32-.12-14.46-.66-16.92-.06-.18-.06-.3-.06-.36s0-.12.12-.12c.6,0,7.2,1.14,7.2,2.58,0,.42-.3.78-.9,1.14-1.26.72-1.38.24-1.56,2.58Z" fill="#003383"/>
      <path d="m425.1,38.69c0,.78-.12,3.3-1.62,11.04,3.72-.42,7.38-.72,10.38-.9,2.34-.12,2.94-.9,4.62-.9.96,0,7.5,1.38,7.5,4.02,0,1.02-1.02,1.8-2.52,1.8-.36,0-.72,0-1.14-.12-3.42-.84-7.2-1.14-11.04-1.14-7.56,0-15.24,1.2-20.28,2.34-1.98.48-2.76.84-3.9.84-2.82,0-7.86-1.98-7.86-5.04,0-.84.18-1.08.54-1.08s.9.3,1.56.6c1.86.9,4.5,1.32,6.24,1.32.3,0,.78,0,12.24-1.32.36-2.4.6-6.18.6-8.7,0-1.92-.18-5.04-1.44-6-4.44.84-5.52.84-5.76.84-3.36,0-5.94-1.44-5.94-3.6,0-.6.18-1.56.66-1.56.3,0,.72.3,1.2.66.96.66,2.58.96,4.5.96,5.04,0,11.94-1.86,13.08-2.22,2.16-.66,2.94-1.92,5.1-1.92,2.04,0,5.34.96,5.34,2.64,0,1.02-1.14,1.98-3.24,2.04-2.94.06-7.14.72-11.1,1.44,2.16,1.02,2.28,2.7,2.28,3.96Z" fill="#003383"/>
      <path d="m460.44,41.63c0-.3.06-.6.06-.96.24-2.76.36-4.5.36-6.48,0-7.08-.6-11.04-3.24-11.22-.84-.06-1.5-.3-1.5-.78,0-.36,1.02-1.74,3-1.74,1.2,0,6.48,1.86,6.48,4.2,0,.42-.18.84-.42,1.32-.42.84-.42,2.46-.42,3.18,0,6.72.3,9.72.36,10.38.06.54.12.96.12,1.26,0,.9-.48,4.74-2.7,4.74-1.08,0-2.1-1.26-2.1-3.9Zm-3.84,23.7c-.12,0-.24-.06-.24-.12,0-.24.66-.72,2.34-1.8,8.58-5.28,14.46-16.08,14.88-29.1.06-2.58,0-4.5.18-7.38.06-.72.06-1.32.06-1.92,0-4.2-1.08-5.28-2.52-5.52-.72-.06-1.38-.3-1.38-.78,0-.3.78-1.74,2.76-1.74,2.64,0,7.26,3.12,7.26,4.8,0,.72-.48,1.44-.78,2.28-.9,2.46-1.08,5.04-1.2,10.8-.3,23.22-19.56,30.48-21.36,30.48Z" fill="#003383"/>
      <path d="m511.38,29.39c.66,0,1.32.24,2.1.42,2.04.48,3.12,1.38,3.24,3.36,2.04-1.5,8.76-6.96,8.76-8.58,0-.66-.72-1.02-1.44-1.02-2.82,0-11.52,1.08-18.24,3.3-1.86.6-2.94,1.14-4.26,1.14-1.14,0-7.86-1.74-7.86-5.58,0-.6.24-.96.66-.96.3,0,.66.24,1.08.6.96.9,3.06,1.26,5.52,1.26.96,0,2.04-.06,3.12-.18,5.82-.6,13.26-1.68,18.54-2.1,2.22-.18,2.28-.96,3.24-.96,1.56,0,7.68,3,7.68,5.64,0,1.62-3,1.86-4.2,2.58-3.9,2.46-9.12,5.22-12.78,6.84-1.62,9-11.04,23.82-24.06,27.78-1.26.36-1.92.54-2.22.54-.12,0-.18,0-.18-.06,0-.18.72-.6,1.8-1.26,11.28-6.42,19.44-21.84,19.44-27.66,0-1.68-.66-2.4-1.74-2.4-1.26,0-1.74-.3-1.74-.66,0-.84,2.04-2.04,3.36-2.04h.18Z" fill="#003383"/>
      <path d="m545.58,49.97c0-2.1.24-4.14.6-6.06.78-4.08,2.04-7.8,2.7-11.28.3-1.5.42-2.88.42-4.14,0-2.64-.54-4.62-1.14-5.7-.36-.66-.84-1.2-.84-1.5s.3-.42,1.2-.42c1.86,0,4.98,2.64,4.98,7.08,0,1.98-.66,3.96-1.68,6.48-1.5,3.72-3.3,8.22-3.3,12.3,0,1.38.36,3.72.9,3.72.18,0,.42-.3.66-.9,1.5-3.18,5.58-11.16,6.24-11.16.06,0,.12.12.12.24,0,.24-.12.72-.42,1.44-.84,1.98-4.08,10.56-4.08,15.66,0,1.26.18,2.28.42,3.24.12.42.18.84.18,1.2,0,1.5-.9,2.4-1.92,2.4-4.08,0-5.04-9.66-5.04-12.6Zm36.72,4.08c2.34,0,3.6,1.08,3.6,2.28,0,3.72-8.46,3.78-9.54,3.78-10.32,0-13.56-5.34-13.56-8.28,0-.42.06-.6.24-.6.3,0,.72.42,1.26,1.2,1.2,1.74,5.22,2.88,9.66,2.88,1.2,0,2.4-.06,3.6-.24,1.44-.24,2.4-.96,4.44-1.02h.3Zm-9.18-21.36c-9,0-9.48-5.4-9.48-5.82,0-.18.06-.24.24-.24s.6.24,1.14.54c1.68,1.02,3.9,1.38,6.12,1.38,1.74,0,3.42-.24,4.98-.6.78-.18,1.44-.6,2.22-.72.42-.06.78-.12,1.14-.12,1.92,0,3.12,1.02,3.12,2.1,0,2.94-6.54,3.48-9.48,3.48Z" fill="#003383"/>
      <path d="m79.98,128.77c0,.36-.3.72-1.26.72h-10.38c0,1.02-.06,2.22-.06,3.42h.06c6.96.36,8.94,2.94,8.94,4.8,0,1.2-.9,2.22-1.98,2.22-.72,0-1.56-.42-2.28-1.5-1.38-2.04-3.18-3.72-4.74-4.8,0,4.68.12,10.2.36,14.1v.12c0,1.38-1.38,2.1-2.52,2.1-.96,0-1.86-.54-1.86-1.74v-.18c.24-3.78.36-8.58.42-12.84-6.06,7.86-14.22,10.2-14.46,10.2-.12,0-.24-.06-.24-.12,0-.18.3-.42.96-.84,4.98-3.12,11.52-10.74,13.2-14.94-2.52,0-4.92.18-8.82.54h-.06c-.96,0-2.46-2.22-2.46-2.88,4.86.6,8.76.78,11.94.84v-1.44c-.06-1.56-.12-3.66-.48-5.04-.06-.24-.12-.36-.12-.48,0-.06.06-.06.24-.06.54,0,6.48.66,6.48,1.98,0,.42-.36.84-1.02,1.14-1.02.48-1.2.3-1.32,1.86l-.12,2.04h3.48c.24,0,.72-.24.9-.54,1.92-2.82,2.4-2.82,2.52-2.82.84,0,4.68,2.94,4.68,4.14Zm.84-9.48c0,.42-.3.78-1.14.78h-14.22c-2.82,0-6.48.06-11.04.54h-.06c-.9,0-2.46-2.22-2.46-2.88,5.34.72,10.74.84,13.68.84h.78c2.76-5.82,3.36-9,3.48-10.98.06-.42,0-.6.12-.6.42,0,6.12,2.4,6.12,3.48,0,.42-.54.78-1.68.84-.84.06-.78.24-1.26.84-1.14,1.44-3.06,4.02-5.16,6.42h4.68c.12,0,.48-.18.66-.48.36-.72,2.04-3.24,2.7-3.24.18,0,.3.06.36.06,2.04.9,4.44,3.66,4.44,4.38Zm-1.62-14.04c0,.36-.24.78-1.2.78h-11.52c-3.12,0-5.16.06-10.08.54h-.06c-1.02,0-2.34-2.16-2.34-2.88,4.44.6,7.62.78,10.38.84v-1.5c-.06-2.1-.12-4.68-.54-6.48-.06-.24-.12-.36-.12-.42,0-.12.06-.12.24-.12.66,0,7.14.78,7.14,2.1,0,.42-.42.84-1.32,1.32-1.08.6-1.2.66-1.2,5.1h2.64c.24,0,.6-.18.78-.48.6-1.08,1.2-1.98,2.1-2.94.12-.12.3-.18.48-.18.72,0,4.62,2.82,4.62,4.32Zm-14.1,8.58c0,1.5-1.14,2.64-2.28,2.64-.9,0-1.86-.66-2.34-2.22-.48-1.44-1.8-3.84-2.88-5.22-.3-.42-.48-.6-.48-.72,0,0,.06-.06.12-.06,1.74,0,7.86,2.04,7.86,5.58Zm42.06,2.82c0,.36-.3.78-1.2.78h-7.44c.3.18.42.36.42.54,0,.36-.48.66-1.02.84q-.9.24-.9,7.98c0,6.54.18,16.14.36,21v.06c0,1.08-1.56,1.8-2.94,1.8-1.08,0-2.04-.42-2.04-1.56v-.12c.3-3.9.48-15.84.48-22.32,0-3.3-.06-6.9-.36-8.22h-5.76v2.52c-.36,26.46-16.5,29.52-16.56,29.52s-.12,0-.12-.06c0-.18.36-.48,1.26-1.08,9.66-6.48,11.22-19.44,11.22-27.96v-.48c0-8.04,0-15.6-.96-18.42-.06-.12-.06-.24-.06-.3s.06-.06.12-.06c.36,0,4.02.96,6.66,2.28l.06.06c4.86-2.76,7.44-5.04,8.28-6.42.12-.24.18-.36.36-.36.72,0,5.16,4.26,5.16,5.4,0,.36-.3.54-.9.54-.3,0-.66-.06-1.14-.18-.3-.06-.6-.18-.9-.18-.18,0-.36.06-.6.12-1.56.54-7.02,2.04-10.74,2.7-1.02.48-1.08.6-1.08,3.84v7.08h11.7c.3,0,.6-.24.78-.54,2.34-3.3,2.58-3.42,3-3.42,1.08,0,4.86,3.42,4.86,4.62Z" fill="#003383"/>
      <path d="m129.96,114.31c-3.06,8.76-5.76,17.52-7.74,26.34-.84,3.9-2.76,5.94-4.26,5.94-.96,0-1.98-1.32-1.98-3.06,0-1.26.6-2.7,1.56-4.5,2.58-4.74,9.36-23.58,9.6-24.66-1.8.42-2.76.54-3.66.54-6.42,0-8.28-4.44-8.28-5.88,0-.3.12-.42.3-.42.3,0,.72.3,1.2.54,1.62.84,3.84,1.92,6.6,1.92,1.8,0,3.54-.36,4.62-.66.18-1.08.24-2.22.24-3.24,0-2.16-.42-3.9-1.68-4.02-.78-.06-1.5-.3-1.5-.78,0-.36,1.02-1.92,2.82-1.92,2.58,0,4.02,2.52,4.2,4.68,1.68.3,2.58.42,3.6.42h.72c1.14,0,2.04.84,2.04,1.86,0,.78-.42,3.3-8.04,5.94l-.36.96Zm1.62-5.16c.3-.12,2.34-1.14,2.34-2.04,0-.42-.24-.78-1.86-1.38,0,1.02-.18,2.16-.48,3.42Zm15.96,32.4c1.08,0,2.16-.36,3.9-.36,3.18,0,4.8,1.2,4.8,2.46s-1.68,2.76-6.36,2.76c-7.38,0-13.98-3.9-13.98-8.4,0-2.28,1.8-4.14,2.16-4.14.18,0,.24.24.24.48,0,.36-.12.9-.3,1.26-.12.3-.24.66-.24.96,0,2.52,4.2,4.98,9.48,4.98h.3Zm8.58-24c-3.36.6-5.22,1.14-8.94,4.02-.54.42-.9.6-1.14.6-.06,0-.12-.06-.12-.12,0-.18.12-.48.42-.84,3.24-4.08,3.72-4.8,3.72-5.52,0-1.44-3.3-2.16-4.56-2.16-.24,0-.48,0-.66.06-.84.18-1.5.3-1.86.3-.24,0-.36,0-.36-.12,0-.18,1.68-2.46,6-2.46,5.22,0,9.54,2.82,9.54,4.5,0,.84-.72,1.5-2.04,1.74Z" fill="#003383"/>
      <path d="m182.58,111.37c-.84.18-1.62.3-2.34.36-.36,0-.66.06-1.02.06-5.52,0-7.62-4.02-7.62-5.94,0-.24.12-.36.3-.36.3,0,.72.3,1.14.54,1.92,1.14,3.9,2.04,6.24,2.04,2.04,0,3.9-.48,4.26-.6.12-.9.18-1.8.18-2.58,0-3.48-.84-3.72-1.56-3.72-1.26,0-1.44-.3-1.44-.54,0-.12.06-.66,1.08-1.68.54-.42,1.08-.54,1.68-.54,1.08,0,3.78.6,3.78,4.44.66.06,1.38.06,1.98.06,1.86,0,3.66.06,3.66,1.68,0,1.74-3.3,4.5-7.38,5.94-1.68,4.2-3.96,9.54-9.12,20.76-1.02,2.22-2.82,3.36-4.14,3.36-.96,0-1.68-.54-1.68-1.68,0-.78.42-1.92,1.38-3.36,3.24-4.8,8.34-11.94,10.5-17.94l.12-.3Zm4.26,37.2c-4.74,0-8.1-3.66-8.1-6.72,0-3.96,5.28-6,10.8-6,1.32,0,2.7.12,4.02.36,0-2.4-.24-4.92-.24-7.02.06-5.22,1.26-7.86,5.64-10.92,1.62-1.14,3.54-2.58,3.54-4.02,0-.66-.24-.9-1.8-2.46-.6-.54-.96-.9-.96-1.2,0-.24.42-.36,1.44-.36,2.88,0,7.62,2.58,7.62,6.24,0,1.14-.72,3.36-2.58,3.36-.6,0-1.2-.12-1.92-.3-.36-.06-.72-.12-1.2-.12-.78,0-7.44.12-7.44,6.06,0,1.62.3,4.02,1.02,8.88.12.9.24,1.86.3,2.76,3.3,1.08,8.82,4.02,8.82,7.56,0,1.44-.9,2.64-2.04,2.64-.78,0-1.68-.54-2.4-1.92-.96-1.74-2.58-3.3-4.56-4.5-1.02,4.44-5.46,7.68-9.96,7.68Zm.72-10.38c-4.14,0-7.02,1.74-7.02,3.48s2.58,3.06,5.4,3.06c3.54,0,6.9-1.98,7.44-5.46-1.86-.66-3.84-1.08-5.82-1.08Zm.48-32.64c.36-.3.72-.72.72-1.14,0-.18-.06-.54-1.5-1.02-.06.9-.24,1.8-.48,2.88l1.26-.72Z" fill="#003383"/>
      <path d="m224.1,147.6c.66-7.8,1.02-20.28,1.08-28.26,0-1.14.06-2.94.06-4.62-4.68,5.88-9.24,9.48-10.02,9.48-.12,0-.18-.06-.18-.12,0-.18.18-.48.66-.96,4.5-4.8,12.84-18.06,13.92-25.74.06-.3,0-.48.24-.48.6,0,6.48,2.4,6.48,3.78,0,.42-.6.84-1.86,1.14-.78.18-.96.36-1.56,1.38-1.38,2.4-2.82,4.74-4.32,6.96,2.4.54,3.12.84,3.12,1.32,0,.42-.48.78-1.2,1.14-1.08.54-1.14.6-1.2,2.28-.24,4.62-.3,12.24-.3,19.5,0,4.8,0,9.48.12,13.02,0,1.5-1.26,2.76-2.94,2.76-1.14,0-2.1-.66-2.1-2.28v-.3Zm43.86-.54c0,1.44-1.44,2.34-2.7,2.34-1.08,0-2.04-.6-2.04-1.98v-3.18h-23.52v3.06c0,1.14-1.26,2.22-2.7,2.22-1.02,0-1.92-.54-1.92-1.86v-.24c.42-5.82.48-17.58.48-23.28,0-3.42,0-7.32-.78-10.74-.06-.18-.06-.3-.06-.36,0-.12.06-.18.12-.18.48,0,4.68,1.68,6.12,2.64l.24.18h3.72v-6.96c0-1.14-.12-2.64-.24-3.9-2.64.06-5.52.24-8.04.48h-.06c-1.02,0-2.52-2.16-2.52-2.88,5.58.72,13.62.9,16.8.9h10.8c.24,0,.66-.24.84-.54,2.28-3.24,2.58-3.66,3.18-3.66.12,0,.24,0,.36.06,1.44.54,5.1,3.48,5.1,4.86,0,.36-.3.72-1.26.72h-10.68c.18.12.3.24.3.42,0,.24-.24.54-.78.78s-.66.42-.72,1.56c0,.6-.06,3.84-.06,8.16h4.2c.36,0,.54-.24.72-.48.06-.12,1.26-1.86,1.98-1.86s5.1,2.16,5.1,3.6c0,.6-.66,1.08-1.44,1.5-1.02.54-1.02,1.02-1.02,4.56,0,6.12.24,19.2.48,23.88v.18Zm-23.1-4.38c.06-3.66.06-16.56.06-25.38h-3.9l-.72.48c-.72.36-.72.54-.72,13.86,0,3.72.06,7.68.06,11.04h5.22Zm9.06,0c.06-3.84.06-16.62.06-25.38h-5.1c0,9.12-.06,21.78-.06,25.38h5.1Zm.06-33.96c0-1.2-.06-2.64-.24-3.96h-3.6c.24.12.3.3.3.42,0,.3-.3.6-.78.78s-.66.42-.72,1.56c0,.6-.06,3.84-.06,8.16h5.1v-6.96Zm9.24,33.96c.06-5.16.12-11.88.12-17.1,0-3.36-.06-6.18-.12-7.56,0-.36-.24-.72-.72-.72h-4.56c0,9.06-.06,21.66-.06,25.38h5.34Z" fill="#003383"/>
      <path d="m290.22,147.36c0,1.74-1.74,2.64-2.94,2.64s-2.16-.66-2.16-2.28v-.3c.66-8.1,1.14-20.94,1.14-29.1v-3.24c-6.48,7.74-10.8,9.66-10.8,9.66-.06,0-.06-.06-.06-.12,0-.12.24-.48.72-.96,5.76-5.76,14.34-20.58,15.18-26.76.06-.36,0-.54.18-.54.6,0,6.78,2.7,6.78,3.96,0,.48-.6.9-1.98,1.2-.78.18-1.02.42-1.62,1.44-1.62,2.76-3.3,5.34-5.04,7.8,2.16.48,3.12.66,3.12,1.26,0,.42-.48.84-1.32,1.2-.96.42-.96.6-1.02,1.98-.24,4.44-.3,11.88-.3,19.08,0,4.8,0,9.48.12,13.02v.06Zm33.96-9.18c0,1.26-1.32,1.98-2.52,1.98-1.02,0-1.92-.48-1.92-1.68l.06-1.38h-9.78v2.22c0,1.14-1.26,1.8-2.46,1.8-.96,0-1.8-.48-1.8-1.5v-.18c.36-3.9.36-18.48.36-21.42,0-.78-.24-5.22-.66-7.32-.06-.18-.06-.3-.06-.36,0-.18.06-.18.18-.18.36,0,4.2,1.44,5.58,2.46l.12.12.36-6h-2.04c-3.18,0-7.2.12-12.12.66h-.06c-1.02,0-2.82-2.34-2.82-3.12,5.58.78,12,.96,15.3.96h1.8v-.42c.06-.84.06-1.86.06-2.94,0-1.68-.06-3.48-.36-4.86-.06-.18-.06-.3-.06-.36,0-.18.06-.18.24-.18.9,0,6.84.9,6.84,2.1,0,.48-.6.96-1.5,1.38-.72.3-.9.48-1.2,5.28h4.98c.36,0,.78-.24.96-.54.12-.18,2.4-3.66,3.24-3.66,1.02,0,5.46,3.54,5.46,4.98,0,.36-.3.72-1.26.72h-13.5c-.18,2.22-.3,4.5-.36,6h3.36c.24,0,.54-.18.78-.48.48-.78,1.62-1.68,1.8-1.68.54,0,4.8,2.04,4.8,3.3,0,.48-.42.84-1.08,1.26-1.02.66-1.08.78-1.08,4.2,0,4.5.12,14.76.36,18.72v.12Zm-23.58,7.38c0,.72.06,1.32.06,1.74v.06c0,1.74-2.04,2.28-2.58,2.28-1.02,0-1.92-.6-1.92-1.98v-.18c.24-3.96.36-16.02.36-23.58,0-5.22-.06-8.58-.48-10.86-.06-.18-.06-.3-.06-.36,0-.18.06-.18.24-.18,1.56,0,6.66,1.08,6.66,2.04,0,.42-.48.84-.9,1.08q-1.5.84-1.5,12.6c0,5.52.06,11.82.12,15.84h20.94c.3,0,.72-.24.9-.54.66-1.02,1.98-2.76,2.94-3.48.12-.12.36-.18.6-.18.12,0,.24,0,.36.06,2.04.72,5.34,3.84,5.34,4.92,0,.36-.3.72-1.32.72h-29.76Zm10.5-31.32c-.12.12-.3.18-.48.3-.66.36-.66.66-.66,5.52h9.9c0-2.28,0-4.14-.06-5.1,0-.42-.24-.72-.78-.72h-7.92Zm8.76,7.26h-9.9v5.94h9.9v-5.94Zm-9.9,7.38c0,2.46.06,4.86.06,6.78h9.78c0-1.86.06-4.26.06-6.78h-9.9Z" fill="#003383"/>
      <path d="m358.14,131.47c-4.8,3-6.72,6-6.72,8.34s2.46,5.16,7.5,5.16c2.22,0,4.74-.54,6.9-1.68.72-.36,1.38-.54,1.98-.54,1.5,0,2.52.96,2.52,2.1,0,2.76-5.34,4.32-9.66,4.32-6.48,0-11.76-3.9-11.76-8.46,0-3.72,3.36-7.92,9.3-11.46,0-3.72-.48-8.88-3.84-8.88-1.44,0-3.24,1.14-5.34,3.96l-1.8,3.36c-1.26,2.28-2.7,4.68-4.38,4.68-.24,0-1.8-.06-1.8-2.16,0-1.2.6-2.94,2.46-4.62,5.52-4.98,7.32-8.22,9.96-14.16l.12-.24-.06.06c-1.2.3-2.28.48-3.3.48-5.82,0-7.44-4.08-7.44-5.7,0-.24.06-.3.18-.3.3,0,.72.24,1.5.78,1.8,1.26,3.48,1.62,5.04,1.62,1.8,0,3.66-.42,5.28-.96.12-.66.12-1.26.12-1.68,0-1.38-.24-3-2.28-3.48-.54-.12-1.08-.3-1.08-.6,0-.18.9-1.5,2.94-1.5,1.56,0,2.82.48,3.42,2.76h.48c1.14.06,2.04.18,2.76.18.3,0,.54-.06.78-.12.36-.18.72-.24,1.02-.24,1.5,0,1.5,1.38,1.5,1.62,0,3.18-6,5.52-8.1,6.24l-.12.3c-2.04,4.44-3.3,6.72-4.62,9.06,1.14-.6,2.22-.84,3.24-.84,3.12,0,5.4,2.58,6.24,6.24,1.74-4.38,6.36-12.78,13.26-12.78,3.3,0,7.44,2.22,7.44,5.28,0,2.34-2.52,4.74-6.6,6.3-4.2,1.56-9.36,3.6-13.44,5.58.18,1.38.24,2.82.24,4.26,0,.72,0,1.5-.06,2.22-.18,2.34-1.8,3.9-3.12,3.9-.9,0-1.68-.78-1.68-2.76,0-.18.06-.48.06-.72.12-1.5.9-2.1.96-4.08v-.84Zm-.12-28.26c.06.24.06.48.06.72,0,.66-.12,1.32-.24,2.04,1.38-.66,2.1-1.02,2.1-1.74,0-.3-.24-.6-1.74-.96l-.18-.06Zm15.24,18.12c2.64-1.44,3.84-2.88,3.84-4.2s-1.14-2.94-3.48-2.94c-5.52,0-10.56,8.46-12.18,13.26,3.66-1.92,8.34-4.2,11.82-6.12Z" fill="#003383"/>
      <path d="m99.66,196.4c0,1.14-1.08,2.4-2.88,2.4-1.08,0-2.1-.6-2.1-2.04v-1.2h-30.18c-.12,13.2-1.56,26.82-12.42,35.28-.84.6-1.56,1.02-1.8,1.02-.06,0-.12,0-.12-.12,0-.18.3-.6,1.02-1.44,7.38-8.28,8.7-21.24,8.7-32.58,0-6.3-.42-12.66-1.14-16.14-.06-.24-.06-.36-.06-.48,0-.06,0-.12.12-.12.36,0,4.62,1.32,7.08,2.88.12.06.18.18.24.24h27.18c.42,0,.84-.36,1.02-.6,1.2-1.56,1.74-2.1,2.28-2.1.66,0,5.4,2.64,5.4,4.14,0,.6-.72,1.08-1.8,1.62-.72.36-.96.6-.96,2.04,0,1.62.3,5.7.42,7.08v.12Zm-4.92-9.84c0-.66-.36-.9-1.02-.9h-27.66l-.54.42c-.78.54-.96.84-1.02,1.62v6.24h30.24v-7.38Zm5.04,44.58c0,1.44-1.44,2.34-2.7,2.34-1.02,0-1.98-.6-1.98-1.92l.06-2.22h-23.1v2.64c0,1.32-1.38,2.1-2.64,2.1-1.02,0-1.92-.54-1.92-1.74v-.24c.36-4.92.48-10.98.48-15.24,0-1.92-.06-3.48-.06-4.38,0-.84-.18-5.04-.66-7.14-.06-.18-.06-.3-.06-.36,0-.12.06-.18.12-.18.54,0,4.2,1.5,5.7,2.46l.36.24h7.74c0-.72-.06-1.32-.06-1.92-.06-1.56-.06-5.46-.6-7.74-.06-.18-.06-.3-.06-.36,0-.12.06-.12.12-.12.36,0,7.5.96,7.5,2.34,0,.48-.6.96-1.32,1.38-1.2.72-1.26.78-1.44,6.42h8.88c.24,0,.3-.12.54-.42,1.38-1.8,1.8-1.8,1.92-1.8.42,0,5.16,2.04,5.16,3.42,0,.54-.6.96-1.26,1.44-1.2.78-1.2,1.02-1.2,4.08,0,4.26.24,12.06.48,16.8v.12Zm-18.6-22.02h-8.04l-.54.3c-.48.3-.54.42-.54,1.56s-.06,3.36-.06,6.06h9.18v-7.92Zm0,9.42h-9.18c0,2.88.06,6.18.06,9.24h9.12v-9.24Zm4.08-9.42c-.06,2.34-.06,5.1-.06,7.92h10.02c0-3.18,0-5.88-.06-7.2,0-.48-.3-.72-.72-.72h-9.18Zm0,9.42v9.24h9.9c0-2.88.06-6.18.06-9.24h-9.96Z" fill="#003383"/>
      <path d="m114.42,213.98c0-5.52,1.26-10.74,1.98-15.12.24-1.38.42-2.76.42-3.96,0-2.82-1.08-3.96-3.6-5.34-.6-.3-.96-.72-.96-1.08,0-.24.36-.9,1.92-.9,3.72,0,6.72,4.92,6.72,7.08,0,1.26-.42,2.52-1.02,4.14-1.44,3.9-2.88,8.58-2.88,12.66,0,1.14.48,4.92,1.14,4.92.18,0,.42-.3.72-.9,1.8-4.14,6.78-14.16,7.62-14.16.06,0,.12.12.12.24,0,.48-.24,1.32-.6,2.16-4.5,10.44-4.68,15.84-4.68,17.46,0,1.5.18,3.12.6,4.2.18.54.3.96.3,1.38,0,1.2-.78,1.86-1.74,1.86-3.48,0-6.06-6.78-6.06-14.64Zm27.48-4.8l-.12-7.62c-.54.06-1.08.06-1.56.06h-1.5c-8.22,0-9-4.98-9-4.98,0-.18.06-.18.18-.18.24,0,.84.3,1.44.54,1.98.78,4.68,1.02,7.2,1.02h.96c.72,0,1.44-.06,2.22-.18v-3.06c0-3.42-.3-6.3-2.52-6.3h-.42c-.96,0-1.32-.24-1.32-.6,0-.54,1.32-1.86,3.18-1.86,1.44,0,5.04,1.44,5.04,4.92,0,.24-.06.48-.06.78,1.14.3,2.4.54,3.3.66.78.06,1.56.06,2.1.18,1.14.24,1.92,1.14,1.92,2.28,0,3.12-4.44,5.16-7.8,6.06.06,2.64.3,5.16.54,7.74.06.84.12,1.68.12,2.52,0,18.48-16.98,23.58-18.84,23.58-.12,0-.24,0-.24-.06,0-.24.6-.72,2.28-1.62,6.9-3.84,12.9-13.2,12.9-23.16v-.72Zm3.66-16.44c0,.12,0,.24-.06.42-.18,1.32-.3,2.58-.36,3.78,1.02-.36,3.18-1.5,3.18-2.52,0-.66-.9-1.32-2.76-2.1v.42Z" fill="#003383"/>
      <path d="m172.8,208.58c.06,0,.12-.06.3-.18,2.7-1.74,6.06-2.7,9.42-2.7,7.74,0,12.48,5.4,12.48,11.22s-5.52,13.68-16.56,13.68c-5.82,0-9.72-2.88-9.72-6.12,0-2.88,3-4.5,5.88-4.5,3.96,0,6.42,3.06,6.42,6.18,0,.48-.06,1.02-.18,1.5,6.96-1.68,9.66-6.48,9.66-10.68,0-4.74-3.36-9-9.42-9-2.1,0-9.06.54-13.08,9.06-1.44,3.12-2.4,4.98-4.44,4.98-1.08,0-1.92-.84-1.92-2.04,0-1.74,2.22-4.32,4.98-7.5,3.6-4.14,12.06-15.54,14.58-19.68.3-.42.42-.84.42-1.14,0-.42-.24-1.02-1.5-1.02-2.82,0-4.14,5.76-8.16,5.76-2.22,0-4.02-1.44-4.02-3.66,0-.66.12-1.2.54-1.2.3,0,.66.12,1.14.3s.96.24,1.44.24c.84,0,1.68-.24,2.46-.84,2.34-1.62,5.1-3.6,8.28-3.6,3.54,0,5.7,2.46,5.7,3.78,0,1.2-1.32,2.28-2.58,3.24-4.32,3.3-12.12,13.74-12.12,13.86v.06Zm4.62,17.34c0-2.1-1.62-3.9-3.84-3.9-2.64,0-2.7,1.98-2.7,2.28,0,.24,0,3.06,6,3.66.36-.66.54-1.38.54-2.04Z" fill="#003383"/>
      <path d="m220.56,198.26c-3.06,8.76-5.76,17.52-7.74,26.34-.84,3.9-2.76,5.94-4.26,5.94-.96,0-1.98-1.32-1.98-3.06,0-1.26.6-2.7,1.56-4.5,2.58-4.74,9.36-23.58,9.6-24.66-1.8.42-2.76.54-3.66.54-6.42,0-8.28-4.44-8.28-5.88,0-.3.12-.42.3-.42.3,0,.72.3,1.2.54,1.62.84,3.84,1.92,6.6,1.92,1.8,0,3.54-.36,4.62-.66.18-1.08.24-2.22.24-3.24,0-2.16-.42-3.9-1.68-4.02-.78-.06-1.5-.3-1.5-.78,0-.36,1.02-1.92,2.82-1.92,2.58,0,4.02,2.52,4.2,4.68,1.68.3,2.58.42,3.6.42h.72c1.14,0,2.04.84,2.04,1.86,0,.78-.42,3.3-8.04,5.94l-.36.96Zm1.62-5.16c.3-.12,2.34-1.14,2.34-2.04,0-.42-.24-.78-1.86-1.38,0,1.02-.18,2.16-.48,3.42Zm15.96,32.4c1.08,0,2.16-.36,3.9-.36,3.18,0,4.8,1.2,4.8,2.46s-1.68,2.76-6.36,2.76c-7.38,0-13.98-3.9-13.98-8.4,0-2.28,1.8-4.14,2.16-4.14.18,0,.24.24.24.48,0,.36-.12.9-.3,1.26-.12.3-.24.66-.24.96,0,2.52,4.2,4.98,9.48,4.98h.3Zm8.58-24c-3.36.6-5.22,1.14-8.94,4.02-.54.42-.9.6-1.14.6-.06,0-.12-.06-.12-.12,0-.18.12-.48.42-.84,3.24-4.08,3.72-4.8,3.72-5.52,0-1.44-3.3-2.16-4.56-2.16-.24,0-.48,0-.66.06-.84.18-1.5.3-1.86.3-.24,0-.36,0-.36-.12,0-.18,1.68-2.46,6-2.46,5.22,0,9.54,2.82,9.54,4.5,0,.84-.72,1.5-2.04,1.74Z" fill="#003383"/>
      <path d="m277.5,211.46c2.16.72,3.18,1.68,3.18,2.76,0,.84-.72,1.74-2.28,1.74-.18,0-1.44,0-3.36-.84-3.24,4.38-7.62,8.7-11.46,8.7-2.82,0-5.1-3.06-5.1-7.2s2.22-9.06,6.3-13.32c-.6-1.32-1.14-2.7-1.62-3.96-.9-2.4-1.68-5.04-2.58-6.84-.36-.78-.54-1.26-.54-1.62s.18-.54.48-.54c.96,0,3.9,1.68,4.86,4.2.66,1.68,1.44,3.9,2.34,6.12,3.54-2.7,7.98-4.62,12.54-5.04.06-.6.06-1.2.06-1.74,0-2.46-.54-4.32-1.68-5.1-.6-.42-1.56-.54-1.56-.96s1.2-1.44,2.7-1.44,4.56,1.02,4.56,6.06c0,1.02-.12,2.04-.3,3.18,7.98.84,14.04,7.26,14.04,15,0,3.84-1.5,7.92-5.04,11.64-6.12,6.42-17.1,8.58-20.7,8.58-.66,0-1.02-.12-1.02-.24,0-.24.9-.66,2.7-1.14,8.88-2.28,19.56-8.94,19.56-19.02,0-5.94-3.84-11.1-10.14-12.24-1.14,4.26-3.3,9-5.94,13.26Zm-11.88-6.36c-2.76,3.3-4.08,6.78-4.08,9.6,0,2.46,1.14,5.04,3.06,5.04,1.14,0,4.74-1.32,8.16-5.88-3.12-2.1-5.4-5.28-7.14-8.76Zm2.82-2.76c1.56,3.42,3.54,6.72,6.48,8.22,2.64-4.38,4.26-8.82,4.98-12.6-4.08.12-8.16,1.74-11.46,4.38Z" fill="#003383"/>
      <path d="m308.58,217.88c0-2.1.24-4.14.6-6.06.78-4.08,2.04-7.8,2.7-11.28.3-1.5.42-2.88.42-4.14,0-2.64-.54-4.62-1.14-5.7-.36-.66-.84-1.2-.84-1.5s.3-.42,1.2-.42c1.86,0,4.98,2.64,4.98,7.08,0,1.98-.66,3.96-1.68,6.48-1.5,3.72-3.3,8.22-3.3,12.3,0,1.38.36,3.72.9,3.72.18,0,.42-.3.66-.9,1.5-3.18,5.58-11.16,6.24-11.16.06,0,.12.12.12.24,0,.24-.12.72-.42,1.44-.84,1.98-4.08,10.56-4.08,15.66,0,1.26.18,2.28.42,3.24.12.42.18.84.18,1.2,0,1.5-.9,2.4-1.92,2.4-4.08,0-5.04-9.66-5.04-12.6Zm36.72,4.08c2.34,0,3.6,1.08,3.6,2.28,0,3.72-8.46,3.78-9.54,3.78-10.32,0-13.56-5.34-13.56-8.28,0-.42.06-.6.24-.6.3,0,.72.42,1.26,1.2,1.2,1.74,5.22,2.88,9.66,2.88,1.2,0,2.4-.06,3.6-.24,1.44-.24,2.4-.96,4.44-1.02h.3Zm-9.18-21.36c-9,0-9.48-5.4-9.48-5.82,0-.18.06-.24.24-.24s.6.24,1.14.54c1.68,1.02,3.9,1.38,6.12,1.38,1.74,0,3.42-.24,4.98-.6.78-.18,1.44-.6,2.22-.72.42-.06.78-.12,1.14-.12,1.92,0,3.12,1.02,3.12,2.1,0,2.94-6.54,3.48-9.48,3.48Z" fill="#003383"/>
    </g>
  </g>
</svg>