<?xml version="1.0" encoding="UTF-8"?>
<svg id="_レイヤー_2" data-name="レイヤー 2" xmlns="http://www.w3.org/2000/svg" viewBox="0 0 406.19 79.72">
  <g id="_デザイン" data-name="デザイン">
    <g>
      <path d="m19.47,7.92c-1.73,2.59-3.28,4.46-4.68,5.51.04.04.65.5.65.94,0,.29-.25.54-.79.83-.5.25-.61.4-.65,1.08-.11,2.59-.32,6.26-.79,9.03-.72,4.07-2.81,6.01-5.29,6.08-.25,0-.58-.11-.68-.43-.29-.94-1.91-2.23-2.45-2.84C2.45,31.6.18,32.68.07,32.68c-.04,0-.07-.04-.07-.07,0-.14.25-.47.65-.9,5.11-5.33,6.12-18.68,6.12-21.63,0-.76-.07-1.44-.14-2.09-1.01.04-2.16.11-3.67.29h-.04c-.54,0-1.4-1.33-1.4-1.73,2.3.32,4.32.47,5.9.5v-1.87c-.04-1.48-.14-3.74-.36-4.68-.04-.11-.04-.22-.04-.25,0-.11.04-.11.14-.11.58,0,4.21.65,4.21,1.4,0,.22-.25.5-.76.79-.58.32-.61.36-.68,1.4-.07.9-.07,2.41-.11,3.31h2.09c.11,0,.32-.11.43-.29.36-.61.86-1.48,1.37-2.02.07-.07.18-.11.29-.11.83,0,2.95,2.12,2.95,2.92,0,.22-.14.4-.68.4h-6.66c.58.18.97.32.97.65,0,.22-.22.4-.61.58-.58.25-.58.4-.65,1.26-.07,1.01-.18,2.05-.29,3.06h2.12c.36,0,.47-.18.58-.32.07-.07.72-.97,1.01-.97s1.12.47,1.87,1.08c.07-.14.18-.29.36-.54,1.44-2.05,3.6-6.88,4.5-10.22.22-.79.25-1.66.29-2.12,0-.4.07-.4.11-.4.29,0,4.14,1.3,4.14,2.02,0,.25-.32.5-1.01.61-.54.07-.54.18-.79.65-.58,1.08-1.3,2.38-2.12,3.71h7.38c.14,0,.4-.11.5-.29.54-.79,1.48-2.16,1.94-2.16.58,0,3.31,2.05,3.31,2.92,0,.25-.14.47-.76.47h-12.99Zm-10.51,6.44c-.58,4.79-1.62,9.65-3.96,13.43.04,0,.07.04.14.04,1.01.25,1.94.61,2.81.61,2.3,0,3.46-2.7,3.78-13.57,0-.32-.14-.5-.43-.5h-2.34Zm16.59,11.41c0,.86-.83,1.37-1.48,1.37-.58,0-1.08-.36-1.08-1.22v-.07c.11-2.63.18-5.54.22-8.17l-3.02,1.62-.18.11c-.04,2.16-.07,4.68-.07,6.44v1.55c0,1.58.47,1.94,4.79,1.94,1.73,0,3.78-.07,4.86-.25,1.73-.32,2.16-3.1,2.63-5.54.04-.25.11-.36.14-.36.25,0,.4,4.36,1.04,4.75.58.36.86.79.86,1.22,0,2.52-6.44,2.52-9.18,2.52-4.54,0-7.42-.25-7.42-3.64v-.14l.14-7.23c-1.69,1.12-1.8,1.15-1.98,1.15-.65,0-1.69-.43-1.87-.83,1.4-.47,2.7-.97,3.85-1.51,0-1.01.07-1.91.07-2.7,0-1.22-.07-2.95-.25-4.28,0-.11-.04-.18-.04-.25s.04-.11.14-.11c.07,0,3.78.58,3.78,1.4,0,.25-.29.5-.79.72-.58.22-.58.29-.68,4.1l3.2-1.69c0-1.48-.04-5.62-.36-6.98-.04-.07-.04-.14-.04-.18,0-.07.04-.11.11-.11.29,0,3.96.61,3.96,1.33,0,.25-.25.47-.61.65-.61.32-.68.22-.76,1.12-.07.79-.11,1.84-.14,2.99l2.41-1.26c.22-.11.36-.29.43-.47.4-1.01.47-1.19.83-1.19.47,0,3.28.65,3.28,1.58,0,.22-.14.47-.47.72-.36.29-.72.4-.72.86-.04,1.33-.04,4.25-.22,5.94-.36,3.71-2.45,4.5-3.67,4.5-.22,0-.4-.04-.47-.25-.18-.54-.79-1.12-1.3-1.62,0,.54.04.97.04,1.4v.07Zm-.14-9.25v1.84c0,1.73.04,3.49.07,5,.58.11,1.08.29,1.55.29,1.58,0,1.8-1.87,1.8-8.31,0-.22-.18-.36-.36-.36-.07,0-.18.04-.25.07l-2.81,1.48Z" fill="#fff"/>
      <path d="m52.77,7.96c0,.18-.14.36-.68.36h-7.27c-1.44,0-3.53.04-5.76.32h-.04c-.43,0-1.48-1.33-1.48-1.73,2.7.4,5.87.5,7.34.5h2.77c.11,0,.32-.11.43-.29.04-.07,1.22-2.05,1.69-2.05.58,0,2.99,2.05,2.99,2.88Zm-1.84,14.07c0,.32-.36.58-.76.86-.54.36-.68.54-.68,1.87,0,1.26.11,2.7.25,4.86v.07c0,.79-.83,1.26-1.55,1.26-.61,0-1.15-.32-1.15-1.04v-.76h-4.72c0,.68.04,1.33.04,2.02v.04c0,.76-.9,1.19-1.58,1.19-.61,0-1.15-.29-1.15-1.04v-.11c.22-2.7.25-4.1.25-5.44,0-3.02-.25-5.08-.43-5.83,0-.07-.04-.14-.04-.18,0-.07.04-.11.07-.11.18,0,2.63.9,3.56,1.55l.07.07h3.2c.14,0,.32-.07.47-.29.83-1.12.9-1.15,1.08-1.15s3.06,1.19,3.06,2.16Zm-.54-19.19c0,.25-.14.47-.65.47h-4.93c-1.08,0-2.12.07-3.82.32h-.04c-.5,0-1.37-1.19-1.37-1.73,2.09.4,4.18.5,5.29.5h.83c.07,0,.25-.11.36-.29.32-.61.97-1.4,1.33-1.8.07-.07.18-.11.29-.11.07,0,.14,0,.18.04.83.36,2.52,1.8,2.52,2.59Zm0,9.5c0,.22-.14.47-.65.47h-4.93c-1.08,0-2.12.04-3.82.32h-.04c-.43,0-1.37-1.12-1.37-1.73,2.09.4,4.18.5,5.29.5h.9c.07,0,.29-.11.4-.29.32-.58,1.15-1.8,1.58-1.8.04,0,.11,0,.14.04,1.01.47,2.48,1.94,2.48,2.48Zm0,4.75c0,.25-.14.47-.65.47h-4.93c-1.08,0-2.12.04-3.82.32h-.04c-.43,0-1.37-1.19-1.37-1.73,2.09.4,4.21.5,5.33.5h.86c.07,0,.29-.11.4-.29.11-.18,1.12-1.8,1.58-1.8.11,0,.18,0,.22.04.94.43,2.41,1.87,2.41,2.48Zm-3.28,7.56c0-.65-.04-1.3-.07-1.94,0-.22-.11-.43-.36-.43h-3.67c-.07.07-.18.11-.29.18-.36.25-.36.5-.36,1.01-.04,1.55-.04,3.17-.04,4.75h4.72c.04-1.48.07-2.56.07-3.56Zm24.19,5.04c0,.25-3.2.86-4.28,1.98-.14.14-.25.18-.4.18-.29,0-3.78-1.08-6.95-4.82-5.51,4.93-12.45,5.54-12.81,5.54-.18,0-.25,0-.25-.07,0-.11.4-.29,1.19-.54,3.56-1.15,7.52-3.38,10.55-6.77-1.58-2.45-2.63-5.29-3.02-8.21-.79.04-1.66.11-2.56.22h-.04c-.58,0-1.66-1.33-1.66-1.76,3.17.54,6.44.54,8.24.54h3.1c.25,0,.4-.14.5-.29.18-.22.5-.58.76-.72.11-.07.18-.11.29-.11.36,0,3.02,1.44,3.02,2.3,0,.25-.22.5-.76.72-.58.22-.83.18-1.01.76-.94,2.7-2.3,4.97-3.96,6.8,2.45,2.05,5.69,3.6,9.79,4.14.18.04.25.07.25.11Zm-1.44-18.5c0,1.73-2.95,1.98-5.36,1.98-1.8,0-3.6-.22-3.6-2.92,0-1.66.07-3.89.07-6.01,0-.14-.14-.36-.32-.36h-2.45l-.36.22c-.32.14-.43.29-.43,1.08-.07,4.25-1.33,7.49-5.44,9.32-.47.22-.72.29-.79.29h-.04c0-.07.18-.25.47-.5,3.2-2.74,3.17-6.37,3.24-9.36,0-.76-.11-2.12-.29-3.28v-.11s0-.07.04-.07c.36,0,2.84,1.08,3.35,1.37l.22.14h2.48c.18,0,.36-.29.43-.36.14-.14.5-.61.68-.79.04-.04.11-.07.22-.07.4,0,2.7,1.37,2.7,2.05,0,.25-.14.43-.43.58-.47.25-.83.25-.86.68-.07.94-.11,2.12-.11,3.13,0,2.7.25,2.81,1.55,2.81.58,0,1.37-.07,1.8-.18.86-.22,1.08-1.8,1.58-4.39.04-.22.07-.29.11-.29.22,0,.4,3.64.79,3.85.47.25.76.72.76,1.19Zm-7.24,5.9c0-.18-.07-.22-.25-.22h-3.17c-.97,0-2.09,0-3.35.07.65,2.38,1.87,4.75,3.67,6.8,1.98-2.63,3.1-6.16,3.1-6.66Z" fill="#fff"/>
      <path d="m89.1,6.62c-.4,0-.79.04-1.19.07.9.72,1.48,2.59,1.48,4.93,0,7.52-5.98,15.77-9.4,15.77-1.91,0-2.63-2.56-4.03-4.61-.58-.83-.86-2.02-.86-3.35,0-5.44,4.68-14.11,14.54-14.11,8.24,0,12.6,5.65,12.6,11.59,0,3.24-1.33,6.59-4.03,9.14-4.61,4.32-11.45,4.79-11.77,4.79-.36,0-.5-.04-.5-.11,0-.18.54-.43,1.62-.72,6.3-1.73,11.95-6.23,11.95-13.25,0-5.36-3.78-10.15-10.26-10.15h-.14Zm-3.28.47c-5.54,1.62-8.75,6.77-8.75,11.27,0,3.17,1.62,5.58,3.17,5.58,2.48,0,7.63-7.52,7.63-13.89,0-1.62-.22-3.1-1.3-3.1-.11,0-.22,0-.32.04-.11.04-.22.07-.29.07l-.14.04Z" fill="#fff"/>
      <path d="m139.24,29.05c0,.22-.18.43-.79.43h-18.5c-2.02,0-7.81.07-11.01.4h-.04c-.65,0-1.69-1.4-1.69-1.87,3.71.43,10.83.58,12.92.58h3.35c1.22-3.17,4.79-13.32,4.79-17.49,0-.32.04-.32.04-.32.32,0,4.86,1.12,4.86,2.2,0,.32-.36.65-1.15.76-.58.07-.68.18-.83.58-1.69,4.18-4.79,11.01-6.77,14.29h8.24c.25,0,.5-.14.61-.32.22-.32,1.66-2.66,2.3-2.66,1.12,0,3.67,2.95,3.67,3.46Zm-2.3-20.16c0,.22-.18.43-.79.43h-14.94c-1.98,0-6.84.07-10.04.4h-.04c-.65,0-1.58-1.4-1.58-1.87,3.67.43,9.79.58,11.84.58h.61v-1.91c0-1.87-.07-4.14-.36-5.29-.04-.14-.07-.22-.07-.25s.04-.07.07-.07c.22,0,4.82.54,4.82,1.4,0,.25-.22.5-.68.76-.65.4-.79.18-.9,1.48-.07.72-.11,2.84-.11,3.89h5.72c.25,0,.5-.14.61-.32.07-.11,1.51-2.48,2.2-2.48.11,0,.18,0,.25.04.86.32,3.38,2.41,3.38,3.24Zm-15.12,13.89c0,1.48-.86,2.38-1.73,2.38-.79,0-1.58-.76-1.84-2.56-.4-3.02-1.94-6.98-3.74-9.79-.11-.18-.18-.32-.18-.43,0-.07.04-.11.11-.11.9,0,7.38,6.48,7.38,10.51Z" fill="#fff"/>
      <path d="m152.28,7.99c1.01-.54,2.02-1.15,2.63-1.51.32-.18.68-.29,1.01-.29.65,0,1.15.36,1.15.9,0,1.12-1.55,2.16-5.29,3.67-.68,4.07-1.08,6.77-1.08,8.35,0,.94.22,1.01.4,1.01.47,0,2.34-1.01,3.02-1.48,1.4-.94,3.06-1.55,4.75-1.55,2.56,0,6.26,1.76,6.26,5.33,0,1.44-.58,2.88-1.4,4.07-2.63,3.82-9.43,5.22-12.74,5.22-.4,0-.61-.04-.61-.11,0-.14.58-.36,1.91-.68,4.14-1.01,9.97-4.1,9.97-8.5,0-2.2-1.84-3.82-4.1-3.82-2.7,0-5.47,2.99-6.26,5.11-.32.94-.86,1.44-1.4,1.44-.47,0-1.91-.72-1.91-3.49,0-1.04.14-2.3.43-3.53.32-1.51.79-4.32,1.12-6.91-.58.22-1.15.29-1.66.29-2.56,0-4.32-2.16-4.32-3.38,0-.18.07-.25.22-.25s.43.14.86.36c1.26.68,2.05.97,2.95.97.58,0,1.22-.14,2.09-.36l.11-.04c.04-.72.07-1.44.07-2.02,0-2.88-.65-2.95-.97-2.95h-.29c-.29,0-.4-.04-.4-.22,0-.36.68-1.55,1.94-1.55.9,0,2.16.65,2.16,2.41,0,.79-.25,1.69-.43,2.66l-.18.83Z" fill="#fff"/>
      <path d="m202.21,29.7c0,.22-.18.4-.79.4h-18.54c-2.02,0-7.42.07-10.58.4h-.04c-.65,0-1.69-1.37-1.69-1.84,3.64.43,10.4.54,12.49.54h1.08c.07-3.46.11-8.28.11-12.63,0-10.44-.14-13.14-.5-14.87-.04-.11-.04-.18-.04-.22,0-.11.04-.14.11-.14.18,0,5.15.65,5.15,1.58,0,.29-.29.61-.76.9-.79.47-.9.36-.97,1.51-.11,1.69-.14,5.22-.14,9.21h5.44c.22,0,.47-.14.58-.32.47-.68,1.84-2.59,2.23-2.59.97,0,3.6,2.7,3.6,3.35,0,.25-.18.47-.76.47h-11.09c0,4.93,0,10.4.07,13.75h8.39c.25,0,.47-.14.58-.32.04-.07,1.73-2.74,2.34-2.74,1.01,0,3.74,2.88,3.74,3.56Z" fill="#fff"/>
      <path d="m208.98,20.41c0-3.31.79-6.37,1.19-9,.14-.86.29-1.69.29-2.45,0-1.55-.61-2.27-2.16-3.13-.36-.18-.61-.43-.61-.65,0-.47.79-.54,1.19-.54s.86.07,1.15.22c.5.25,2.84,2.16,2.84,4.03,0,.76-.25,1.51-.61,2.48-.86,2.34-1.73,5.15-1.73,7.59,0,.68.29,2.95.68,2.95.11,0,.25-.18.43-.54.61-1.4,4.07-8.49,4.57-8.49.07,0,.07.04.07.14,0,.25-.14.79-.36,1.3-1.4,3.28-2.77,7.56-2.77,10.62,0,.86.07,1.76.32,2.38.11.32.18.61.18.83,0,.72-.43,1.12-1.04,1.12-2.38,0-3.64-5.08-3.64-8.85Zm16.52-2.81l-.11-4.57c-.32.04-.65.04-.94.04h-.9c-4.72,0-5.4-2.77-5.4-2.99,0-.07.04-.11.11-.11.18,0,.54.18.9.32,1.19.47,2.81.61,4.28.61h.58c.43,0,.86-.04,1.33-.11v-1.84c0-2.05-.18-3.78-1.51-3.78h-.25c-.58,0-.79-.14-.79-.36,0-.32.79-1.12,1.91-1.12,1.37,0,3.02,1.3,3.02,2.99v.43c.68.18,1.4.32,1.94.4.47.04.94.04,1.26.11.68.14,1.15.68,1.15,1.37,0,1.87-2.66,3.1-4.68,3.64.04,1.58.18,3.1.32,4.64.04.5.07,1.01.07,1.51,0,11.16-10.11,14.15-11.27,14.15-.11,0-.14,0-.14-.07,0-.11.32-.4,1.33-.94,4.14-2.3,7.77-7.92,7.77-13.89v-.43Zm5.15-11.88c-.94-1.08-2.09-1.94-3.02-2.45-.32-.18-.58-.29-.58-.4,0-.25,1.4-.25,1.48-.25,4.14,0,4.18,2.41,4.18,2.41,0,.68-.47,1.22-1.08,1.22-.29,0-.65-.18-.97-.54Zm-3.2,4.54c.61-.22,1.91-.9,1.91-1.51,0-.4-.54-.79-1.66-1.26-.11.5-.22,1.87-.25,2.77Zm6.95-6.26c-.97-1.04-2.16-1.87-3.1-2.34-.32-.14-.58-.25-.58-.36,0-.04.5-.32,1.66-.32,2.95,0,4.03,1.33,4.03,2.34,0,.65-.47,1.19-1.04,1.19-.29,0-.65-.14-.97-.5Z" fill="#fff"/>
      <path d="m251.64,19.15c-2.48,0-7.67,2.2-7.67,5.83,0,2.2,1.87,3.92,5.58,3.92,1.51,0,3.24-.29,4.68-1.01.43-.22.86-.32,1.22-.32,1.01,0,1.69.68,1.69,1.44,0,1.94-4.14,2.7-6.52,2.7-6.19,0-8.28-3.92-8.28-6.26,0-3.06,2.74-6.23,6.34-7.96-1.94-.94-2.45-2.95-2.45-5.15,0-1.69.29-3.49.47-4.97.11-.86.18-1.62.18-2.27,0-1.66-.61-1.8-1.69-2.05-.5-.11-.72-.25-.72-.47,0-.18.5-1.19,1.8-1.19,1.73,0,3.46,1.98,3.46,3.6,0,.76-.22,1.48-.4,2.23-.4,1.69-.97,3.85-.97,5.76,0,1.48.29,3.2,1.94,3.85.72-.29,1.19-.58,2.09-.83.4-.11.9-.22,1.37-.22.76,0,1.73.29,1.73,1.3s-1.26,2.09-3.06,2.09c-.14,0-.32-.04-.47-.04h-.32Z" fill="#fff"/>
      <path d="m273.82,28c-1.12,0-2.41-.5-3.49-1.3-3.82-2.92-4.61-6.88-4.61-11.01,0-1.15.07-2.34.14-3.49.04-.4.04-.79.04-1.22,0-.72-.04-1.44-.11-1.98-.04-.29-.07-.5-.07-.65,0-.22.07-.32.22-.32.22,0,2.77.79,2.77,3.85,0,.47-.04.97-.14,1.4-.25,1.26-.5,2.81-.5,4.39,0,6.08,3.92,6.7,4.21,6.7.58,0,.94-.36,1.12-.68.72-1.22,1.51-3.28,2.16-4.61.43-.94.68-1.3.79-1.3.04,0,.04.07.04.18,0,.29-.07.79-.22,1.4-.29,1.37-.58,2.95-.58,4.75,0,.79.11,1.33.18,1.87.04.14.04.25.04.4,0,.97-.72,1.62-1.98,1.62Zm13.89-8.85c-.29-3.49-2.77-6.44-5.47-7.13-.97-.25-1.51-.47-1.51-.61,0-.11.25-.18.76-.18,6.01,0,9.36,4.28,9.36,7.45,0,1.44-.86,2.2-1.66,2.2-.72,0-1.37-.58-1.48-1.73Z" fill="#fff"/>
      <path d="m299.63,33.15c-.07,0-.14,0-.14-.04,0-.14.43-.43,1.3-.94,2.74-1.51,10.15-7.6,10.15-15.37,0-3.17-1.33-5.69-3.2-5.69-.9,0-1.84.58-2.81,1.48-.72.68-1.51,1.3-2.52,1.3-1.73,0-3.02-1.4-3.02-2.81,0-.9.54-1.51.76-1.51.18,0,.29.25.43.58.25.5.76.68,1.33.68.76,0,1.66-.29,2.23-.5,1.12-.43,2.56-.97,3.96-.97,3.35,0,5.65,3.53,5.65,7.63,0,1.69-.4,3.42-1.08,5.11-3.49,8.49-12.35,11.05-13.03,11.05Zm5.47-28.4c.18-.18.29-.29.29-.43,0-.11-.11-.22-.25-.29-.54-.29-2.34-.68-3.2-1.94-.32-.43-.47-.72-.47-.86,0-.07.07-.11.14-.11.22,0,.58.14,1.15.4,1.22.58,4.14.58,4.43.58h.86c1.94,0,2.7,1.4,2.7,1.98,0,.76-.79,1.19-2.12,1.26-1.33.07-3.28.54-5.04,1.37-.29.14-.54.22-.68.22-.07,0-.11,0-.11-.07s.11-.25.43-.5l1.87-1.58Z" fill="#fff"/>
      <path d="m33.04,50.71c0,.4-.43.68-1.12,1.01-.61.29-.68.32-.68,3.64,0,5.69.29,18.36.5,22.39v.11c0,.94-.9,1.51-1.73,1.51-.68,0-1.33-.4-1.33-1.26v-1.48H6.91v1.37c0,.9-.94,1.48-1.8,1.48-.65,0-1.26-.36-1.26-1.22v-.14c.32-4.72.43-15.69.43-21.71v-2.59c0-1.15-.18-4.18-.47-5.54-.04-.11-.04-.18-.04-.25s0-.07.07-.07c.25,0,2.92.97,4,1.69l.22.14h19.65c.25,0,.47-.18.58-.32.72-.94,1.04-1.26,1.37-1.26.65,0,3.38,1.8,3.38,2.52Zm-4.5.61c0-.36-.25-.58-.54-.58H7.96c-.72.47-.86.61-.9,1.44-.07,2.02-.14,11.41-.14,18.83.07-.07.18-.22.36-.36,2.74-2.09,5.94-5.72,8.21-11.09-1.62.04-3.56.11-5.72.32h-.04c-.61,0-1.55-1.33-1.55-1.76,2.92.36,5.98.5,8.06.54,0-4.61-.36-6.01-.4-6.23-.04-.07-.04-.14-.04-.22s.04-.11.18-.11c.47,0,4.03.61,4.03,1.26,0,.22-.25.47-.65.65-.58.29-.65.14-.72,1.12-.07.83-.11,2.05-.14,3.53h3.35c.22,0,.43-.07.54-.25.43-.68,1.51-2.27,1.94-2.27.86,0,3.28,2.27,3.28,2.95,0,.22-.18.43-.76.43h-7.99c1.84,3.67,5.51,7.56,9.68,9.43l.18.11c0-6.88-.04-14.72-.18-17.75Zm.18,17.89c-.36.18-2.2.25-3.35,1.12-.14.11-.32.18-.5.18-.61,0-4.36-3.67-6.37-10.47v1.8c0,4.07.11,8.67.22,10.94v.04c0,.83-.94,1.26-1.62,1.26-.61,0-1.19-.32-1.19-1.12v-.07c.11-2.52.25-6.34.29-9.9-3.74,6.41-9.14,8.24-9.29,8.24v4.43h21.81v-6.44Z" fill="#fff"/>
      <path d="m46.47,71.44c-.11.4-.25.79-.4,1.19.97.18,6.19,1.3,6.19,4.03,0,.86-.58,1.51-1.3,1.51-.5,0-1.08-.32-1.51-1.15-.72-1.3-2.05-2.92-3.49-4.03-2.41,5.98-8.6,6.66-8.6,6.66-.14,0-.22-.04-.22-.07,0-.11.29-.32.94-.61,3.56-1.62,5.44-4.03,6.23-7.52-1.73.04-4.39.11-5.65.32h-.04c-.4,0-1.4-1.26-1.4-1.73,1.66.32,5.26.47,7.27.5.14-.9.25-1.91.29-2.95-1.4.04-3.49.11-4.75.32h-.04c-.4,0-1.44-1.26-1.44-1.73,1.62.32,4.5.47,6.23.5v-3.13h-2.63c0,.14.04.29.04.4v.04c0,.72-.76,1.12-1.37,1.12-.5,0-.97-.29-.97-.94v-.14c.11-1.12.14-4.18.14-5.26,0-.36-.04-1.58-.25-2.59,0-.07-.04-.11-.04-.14,0-.07.04-.11.07-.11.25,0,2.12.83,2.99,1.37h6.44c.14,0,.29-.07.4-.25.18-.32.76-.94,1.01-.94.47,0,2.48,1.19,2.48,1.8,0,.25-.25.47-.61.68-.5.29-.54.36-.54.68,0,1.69.18,4,.18,4.07v.07c0,.4-.22,1.15-1.37,1.15-.5,0-1.01-.29-1.01-.94v-.07h-2.7c-.04,1.19-.07,2.38-.07,3.13h1.55c.07,0,.29-.11.4-.29.76-1.08,1.19-1.51,1.4-1.51.07,0,.14.04.18.04.94.43,2.38,1.55,2.38,2.16,0,.25-.14.5-.68.5h-5.22c-.04,1.01-.11,2.02-.29,2.95h2.95c.07,0,.32-.11.43-.29.07-.11,1.08-1.66,1.55-1.66.07,0,.14,0,.18.04,1.22.54,2.48,1.8,2.48,2.34,0,.25-.18.47-.68.47h-7.13Zm2.99-18.57c0,.65.04,1.33.07,2.2,0,.25-.36,1.04-1.44,1.04-.5,0-.9-.22-.9-.76v-.07c.04-.9.07-1.73.07-2.41h-2.66c0,.65.04,1.37.04,2.3,0,.61-.76,1.01-1.4,1.01-.54,0-.97-.22-.97-.83v-.07c.11-1.04.11-1.73.14-2.34-.97.04-1.98.11-3.06.25h-.04c-.47,0-1.4-1.22-1.4-1.69,1.48.22,3.1.36,4.54.43v-1.19c0-.43-.07-1.58-.29-2.59,0-.07-.04-.14-.04-.18,0-.11.04-.11.14-.11.29,0,3.42.25,3.42,1.04,0,.18-.14.47-.61.79-.4.29-.47.61-.47,2.3h2.7v-1.26c0-.43-.04-1.58-.22-2.59,0-.07-.04-.14-.04-.18,0-.14.07-.14.18-.14,0,0,3.42.36,3.42,1.08,0,.18-.14.43-.65.79s-.54.65-.54,2.3h.86c.07,0,.25-.11.36-.29,1.01-1.58,1.12-1.66,1.3-1.66.07,0,.11.04.14.04.83.4,2.16,1.8,2.16,2.38,0,.22-.14.4-.58.4h-4.25Zm-4.68,8.57c0-.65-.04-2.16-.14-3.24h-1.91l-.22.14c-.36.22-.4.25-.4,2.3,0,.65.04,1.4.04,2.05h2.63v-1.26Zm5-2.84c0-.22-.14-.4-.43-.4h-1.55s.07.11.07.18c0,.11-.11.25-.32.36-.36.18-.43.25-.43,1.04,0,.58-.04,1.69-.07,2.92h2.74v-4.1Zm7.78,17.64c0,.72.04,1.3.04,1.73v.07c0,.97-.94,1.48-1.66,1.48-.58,0-1.08-.36-1.08-1.26v-.18c.29-3.53.47-16.56.47-18.72v-1.55c-1.33,1.98-2.88,3.71-3.2,3.71-.04,0-.04-.04-.04-.07,0-.07.07-.22.22-.47,1.62-2.38,4.64-10.15,4.64-13.25.04-.29,0-.4.14-.4.65,0,3.92,1.15,3.92,1.8,0,.32-.47.58-1.04.68-.5.07-.54.11-.76.58-.65,1.48-1.37,3.02-2.16,4.5,1.19.54,1.26.58,1.26.58h2.7c1.69-5.04,1.73-6.84,1.73-7.2,0-.14,0-.29-.04-.4v-.22c0-.11,0-.18.11-.18.29,0,3.92,1.22,3.92,1.87,0,.25-.29.5-.97.58-.43.07-.54.22-.76.58-.83,1.48-2.16,3.6-3.17,4.97h2.34c.11,0,.32-.11.43-.29.36-.61.97-1.48,1.4-1.84.07-.07.18-.11.29-.11.61,0,2.95,1.98,2.95,2.74,0,.22-.14.4-.68.4h-4.86c.22.07.29.22.29.32,0,.22-.22.43-.61.58-.22.07-.29.29-.29.65-.04.83-.07,2.23-.07,3.92h.83c.11,0,.32-.11.43-.29.04-.07,1.04-1.73,1.51-1.73.43,0,2.66,1.8,2.66,2.52,0,.22-.14.4-.68.4h-4.75v5.33h.83c.11,0,.32-.11.43-.29.76-1.3,1.22-1.76,1.55-1.76.43,0,2.63,1.69,2.63,2.56,0,.22-.14.4-.68.4h-4.75v6.37h1.91c.11,0,.32-.11.43-.29.36-.61,1.01-1.58,1.44-1.94.07-.07.18-.11.29-.11.54,0,3.1,1.94,3.1,2.84,0,.22-.18.4-.72.4h-11.91Zm3.31-16.45c0-.9,0-2.38-.14-3.42h-2.45c-.07.07-.18.11-.29.18-.47.25-.47.4-.47,5.29h3.35v-2.05Zm0,2.95h-3.35v5.33h3.35v-5.33Zm-.04,12.6c0-1.19.04-3.71.04-6.37h-3.35c0,2.34.04,4.61.04,6.37h3.28Z" fill="#fff"/>
      <path d="m82.91,56.29c-.5.11-.97.18-1.4.22-.22,0-.4.04-.61.04-3.31,0-4.57-2.41-4.57-3.56,0-.14.07-.22.18-.22.18,0,.43.18.68.32,1.15.68,2.34,1.22,3.74,1.22,1.22,0,2.34-.29,2.56-.36.07-.54.11-1.08.11-1.55,0-2.09-.5-2.23-.94-2.23-.76,0-.86-.18-.86-.32,0-.07.04-.4.65-1.01.32-.25.65-.32,1.01-.32.65,0,2.27.36,2.27,2.66.4.04.83.04,1.19.04,1.12,0,2.2.04,2.2,1.01,0,1.04-1.98,2.7-4.43,3.56-1.01,2.52-2.38,5.72-5.47,12.45-.61,1.33-1.69,2.02-2.48,2.02-.58,0-1.01-.32-1.01-1.01,0-.47.25-1.15.83-2.02,1.94-2.88,5-7.16,6.3-10.76l.07-.18Zm2.56,22.32c-2.84,0-4.86-2.2-4.86-4.03,0-2.38,3.17-3.6,6.48-3.6.79,0,1.62.07,2.41.22,0-1.44-.14-2.95-.14-4.21.04-3.13.76-4.72,3.38-6.55.97-.68,2.12-1.55,2.12-2.41,0-.4-.14-.54-1.08-1.48-.36-.32-.58-.54-.58-.72,0-.14.25-.22.86-.22,1.73,0,4.57,1.55,4.57,3.74,0,.68-.43,2.02-1.55,2.02-.36,0-.72-.07-1.15-.18-.22-.04-.43-.07-.72-.07-.47,0-4.46.07-4.46,3.64,0,.97.18,2.41.61,5.33.07.54.14,1.12.18,1.66,1.98.65,5.29,2.41,5.29,4.54,0,.86-.54,1.58-1.22,1.58-.47,0-1.01-.32-1.44-1.15-.58-1.04-1.55-1.98-2.74-2.7-.61,2.66-3.28,4.61-5.98,4.61Zm.43-6.23c-2.48,0-4.21,1.04-4.21,2.09s1.55,1.84,3.24,1.84c2.12,0,4.14-1.19,4.46-3.28-1.12-.4-2.3-.65-3.49-.65Zm.29-19.58c.22-.18.43-.43.43-.68,0-.11-.04-.32-.9-.61-.04.54-.14,1.08-.29,1.73l.76-.43Z" fill="#fff"/>
      <path d="m137.12,76.05c0,.32-3.1,1.15-4.25,2.3-.14.14-.29.22-.47.22-1.26,0-8.17-3.85-11.19-9.14,0,3.46.11,7.16.18,8.85v.04c0,.68-.76,1.4-1.73,1.4-.65,0-1.22-.36-1.22-1.19v-.18c.14-1.55.25-4.32.29-7.09-6.33,6.41-14.79,7.85-15.48,7.85-.18,0-.29-.04-.29-.11,0-.11.25-.29.72-.43,4.36-1.51,9.86-4.86,13.86-9.72h-1.01c-1.87,0-6.16.07-9.21.36h-.04c-.61,0-1.58-1.37-1.58-1.8,3.46.43,9.07.58,11.01.58h2.05v-2.99h-.58c-1.8,0-4.79.04-7.67.36h-.04c-.61,0-1.55-1.3-1.55-1.73,3.31.43,7.49.54,9.36.54h.47c0-.86-.04-2.05-.14-2.92h-1.87c-1.84,0-5.08.04-8.03.36h-.04c-.61,0-1.55-1.33-1.55-1.76,3.06.4,7.06.5,9.18.54-.29-.18-.54-.5-.72-1.01-.29-.79-1.08-2.09-1.73-2.77-.18-.18-.29-.29-.29-.32s.04-.04.14-.04c1.69,0,4.61.97,4.61,2.81,0,.61-.32,1.08-.76,1.33h3.82c.14-.29,1.55-2.81,1.84-4.61h-7.31c-1.98,0-6.62.07-9.83.4h-.04c-.65,0-1.58-1.37-1.58-1.84,3.67.43,9.57.5,11.63.58v-2.95c0-1.58-.07-3.53-.36-4.79-.04-.14-.04-.22-.04-.25s0-.07.04-.07c.18,0,4.1.5,4.1,1.3,0,.22-.22.43-.61.68-.58.36-.72.14-.79,1.33-.04.58-.04,3.35-.04,4.75h2.74v-2.95c0-1.58-.04-3.53-.32-4.79-.04-.14-.07-.25-.07-.29s.04-.04.07-.04c.9,0,4.07.61,4.07,1.3,0,.22-.22.43-.61.68-.58.36-.68.14-.76,1.33-.04.58-.07,3.35-.07,4.75h.47c.86-1.12,3.06-4.43,3.56-6.59.07-.25.07-.36.14-.36.18,0,3.42,2.02,3.42,2.63,0,.25-.32.4-.9.4h-.4c-.36,0-.43.14-.72.4-.94.9-2.77,2.45-4.32,3.53h4.97c.22,0,.47-.14.58-.32.32-.54,1.66-2.34,2.09-2.34.79,0,3.6,2.05,3.6,3.1,0,.22-.18.43-.79.43h-11.05c1.84.86,2.7,1.51,2.7,1.84,0,.29-.36.43-.94.43h-.25c-.32,0-.4.11-.68.36-.47.43-1.58,1.3-2.56,1.98h4.43c.29,0,.5-.11.61-.29,1.22-1.66,1.62-1.98,1.98-1.98.9,0,3.28,1.94,3.28,2.7,0,.22-.18.43-.76.43h-9.5c.14.07.22.18.22.29,0,.18-.29.4-.65.58-.65.29-.68.58-.68,2.05h3.38c.29,0,.5-.14.61-.32.04-.07,1.26-1.73,1.84-1.73.61,0,3.17,1.62,3.17,2.45,0,.22-.18.43-.76.43h-8.28c-.04.86-.04,1.91-.04,2.99h7.63c.29,0,.54-.14.65-.32,1.44-2.02,1.94-2.05,2.05-2.05.9,0,3.42,2.02,3.42,2.81,0,.22-.14.43-.76.43h-12.6c2.74,3.31,8.46,6.26,15.23,7.09.18.04.29.07.29.11Zm-22.71-23.94c0,.9-.65,1.62-1.4,1.62-.5,0-1.04-.32-1.44-1.15-.4-.83-1.44-2.3-2.27-3.02-.25-.22-.36-.32-.36-.4,0-.04.07-.07.58-.07,2.23.07,4.9,1.19,4.9,3.02Z" fill="#fff"/>
      <path d="m173.05,62.8c0,.32-2.74,1.08-3.71,1.94-.22.18-.4.25-.61.25-.68,0-3.78-1.15-6.55-3.71-4.18,3.46-9.65,4-9.68,4-.22,0-.32-.07-.32-.11,0-.11.22-.25.76-.43,3.31-1.04,5.94-2.81,7.85-4.9-1.26-1.48-2.23-3.2-2.77-5.11-1.01,1.3-2.09,2.59-3.2,3.49.61.47,1.73,1.51,1.73,2.09,0,.47-.47.79-1.44.83-1.08.07-2.66,1.87-3.82,2.56-.11.07-.22.11-.25.11s-.04,0-.04-.04c0-.07,0-.14.07-.29.47-.97,1.3-2.74,1.33-3.35,0-.29-.04-.36-.18-.36h-2.27c.47.11.79.18.79.47,0,.18-.18.36-.5.5q-.54.25-.54,5.11c0,2.12.04,4.43.11,6.01.04.9.14,2.95.14,3.6v.07c0,2.81-3.31,3.38-3.85,3.38-.32,0-.58-.14-.76-.54-.5-.97-3.38-2.27-3.38-2.56,0-.04.04-.04.14-.04.07,0,.18,0,.36.04,1.3.22,2.41.36,3.24.36,1.04,0,1.66-.25,1.69-1.04.07-2.09.11-4.79.11-7.27v-2.41c-2.81,5.04-7.7,8.39-8.53,8.39-.04,0-.07,0-.07-.04,0-.11.18-.32.58-.68,2.56-2.27,7.02-9.03,7.88-12.85,0-.18,0-.36-.04-.5-1.48.04-3.38.11-5.33.36h-.04c-.54,0-1.55-1.3-1.55-1.8,2.88.47,6.48.54,8.06.54h3.67c.14,0,.4-.11.54-.25.14-.18.86-.9,1.26-.9.04,0,.11,0,.14.04.11.04.22.11.32.18,1.48-1.98,4.1-7.27,4.32-9.93.04-.29.04-.4.14-.4.36,0,3.56,1.08,3.56,1.76,0,.25-.29.5-.9.61-.4.07-.43.14-.65.5-.43.72-.97,1.58-1.62,2.52h6.84c.11,0,.29-.11.4-.29.29-.43,1.33-1.98,1.69-1.98s2.99,1.87,2.99,2.74c0,.18-.14.36-.68.36h-4.61c1.66.65,1.87.76,1.87,1.12,0,.25-.29.47-.68.47h-.07c-.29,0-.5.07-.68.47-.76,1.48-1.58,2.81-2.59,3.92,2.27,1.44,5.25,2.48,9,2.88.22.04.32.07.32.11Zm-17.89-11.59c0,.4-.47.61-1.12.76-.4.07-.76.18-1.37.58-.72.47-2.02,1.55-3.24,2.38l.32.22c.65.5.94,1.12.94,1.66,0,.79-.54,1.44-1.26,1.44-.47,0-1.04-.29-1.55-1.01-1.01-1.37-2.34-2.3-3.2-2.84-.18-.11-.25-.18-.25-.25,0-.11.32-.11.68-.11.97,0,2.48.14,3.67.61.79-1.33,1.76-2.99,1.87-3.46.04-.07.04-.14.04-.22s-.04-.14-.25-.14h-1.94c-1.04,0-3.89.04-5.54.29h-.04c-.43,0-1.48-1.33-1.48-1.73,2.63.47,6.05.5,7.13.5h1.87c.25,0,.43-.07.61-.25.22-.18.65-.65.86-.83.11-.11.22-.14.29-.14.29,0,2.95,1.58,2.95,2.56Zm14.9,17.6c0,.29-.22.54-.79.76-.58.22-.68.32-.72.9-.5,6.12-3.02,8.49-6.26,8.49-.86,0-1.08-.14-1.22-.5-.32-.86-2.45-2.16-3.28-2.77-3.28,2.99-7.99,3.82-8.85,3.82-.18,0-.29-.04-.29-.11,0-.11.36-.32.83-.47,5.08-1.51,8.46-5.36,9.79-10.11-1.48.04-3.17.14-5.25.36h-.04c-.65,0-1.73-1.4-1.73-1.84,2.7.4,5.33.5,7.27.54.32-1.37.36-2.92.36-3.46,0-.36,0-.68-.04-1.01v-.14q0-.07.07-.07c.32,0,3.96.54,3.96,1.3,0,.22-.25.43-.65.58-.68.22-.65.22-.79,1.04-.11.61-.22,1.19-.36,1.76h3.71c.29,0,.4-.14.5-.29.83-.94.94-.94.97-.94.61,0,2.81,1.48,2.81,2.16Zm-4.28-.04h-3.92c-.79,2.74-2.05,4.97-3.85,6.7,1.69.43,3.1.86,4.25.86s2.12-.43,2.81-1.76c.72-1.37,1.12-3.64,1.19-5.26,0-.32-.07-.54-.47-.54Zm-7.13-14.94l-.11.18c.72,1.62,1.87,3.13,3.38,4.46,1.44-1.98,1.98-3.56,2.16-4.64h-5.44Z" fill="#fff"/>
      <path d="m178.31,69.82c0-1.26.14-2.48.36-3.64.47-2.45,1.22-4.68,1.62-6.77.18-.9.25-1.73.25-2.48,0-1.58-.32-2.77-.68-3.42-.22-.4-.5-.72-.5-.9s.18-.25.72-.25c1.12,0,2.99,1.58,2.99,4.25,0,1.19-.4,2.38-1.01,3.89-.9,2.23-1.98,4.93-1.98,7.38,0,.83.22,2.23.54,2.23.11,0,.25-.18.4-.54.9-1.91,3.35-6.7,3.74-6.7.04,0,.07.07.07.14,0,.14-.07.43-.25.86-.5,1.19-2.45,6.34-2.45,9.4,0,.76.11,1.37.25,1.94.07.25.11.5.11.72,0,.9-.54,1.44-1.15,1.44-2.45,0-3.02-5.8-3.02-7.56Zm22.03,2.45c1.4,0,2.16.65,2.16,1.37,0,2.23-5.08,2.27-5.72,2.27-6.19,0-8.13-3.2-8.13-4.97,0-.25.04-.36.14-.36.18,0,.43.25.76.72.72,1.04,3.13,1.73,5.8,1.73.72,0,1.44-.04,2.16-.14.86-.14,1.44-.58,2.66-.61h.18Zm-5.51-12.81c-5.4,0-5.69-3.24-5.69-3.49,0-.11.04-.14.14-.14s.36.14.68.32c1.01.61,2.34.83,3.67.83,1.04,0,2.05-.14,2.99-.36.47-.11.86-.36,1.33-.43.25-.04.47-.07.68-.07,1.15,0,1.87.61,1.87,1.26,0,1.76-3.92,2.09-5.69,2.09Z" fill="#fff"/>
      <path d="m223.88,64.21v.11c0,.72-.68,1.4-1.51,1.4-.58,0-1.12-.36-1.12-1.12v-.22c.25-2.27.43-6.52.43-7.92v-.47c-2.59,2.88-4.54,3.96-4.82,3.96-.04,0-.07,0-.07-.07s.11-.25.4-.54c.72-.72,1.51-1.69,2.27-2.77h-4.03c-.04,1.91-.04,4.07-.04,6.19,1.76-.65,3.38-1.3,4.64-1.87.36-.14.58-.22.68-.22.07,0,.11.04.11.07,0,.4-2.92,2.34-5.44,4,0,2.05.04,4.07.07,5.83,0,.97.11,3.35.11,4.25,0,2.88-2.38,3.82-3.85,3.82-.32,0-.5-.11-.72-.47-.65-1.15-3.06-2.56-3.06-2.88,0-.04.04-.04.14-.04.07,0,.18,0,.32.04,1.19.25,2.09.4,2.77.4,1.22,0,1.69-.47,1.73-1.51.07-2.23.07-5.18.11-8.24l-2.88,1.66c-.29.14-.36.61-.65.61-.72,0-2.56-3.02-2.56-3.02,0-.07.11-.04.36-.07,1.26-.14,1.84-.22,5.72-1.51v-6.98c-1.15.04-2.52.11-4.03.29h-.04c-.43,0-1.48-1.33-1.48-1.73,1.91.29,3.96.43,5.54.47-.11-5.76-.18-6.3-.5-7.96-.04-.11-.04-.14-.04-.22s.04-.11.11-.11c.29,0,4.5.61,4.5,1.44,0,.32-.36.61-.76.83-.65.36-.68.22-.76,1.51-.07,1.15-.11,2.7-.14,4.54h.32c.11,0,.29-.11.4-.29,1.04-1.76,1.12-1.84,1.44-1.84.04,0,.11,0,.14.04.79.36,1.66,1.33,2.12,2.27,0,.04.04.04.04.07.97-1.48,3.49-5.51,3.82-7.78.04-.25.04-.32.14-.32.4,0,3.56,1.4,3.56,2.09,0,.29-.43.54-1.04.58-.54.04-.65.14-1.94,2.09l.22.07.18.11h3.64c.36-1.22.68-2.77.68-4.72,0-.22,0-.29.11-.29.14,0,3.82,1.12,3.82,1.91,0,.29-.36.58-1.04.65-.32.04-.43.18-.61.4-.65.76-1.26,1.48-1.91,2.05h4.03c.14,0,.32-.11.43-.29.4-.72,1.33-1.73,1.66-1.73.4,0,2.88,1.66,2.88,2.48,0,.22-.14.4-.68.4h-6.8c.43.22.47.22.47.36,0,.18-.25.4-.72.58-.22.07-.29.61-.29.97,0,.25-.04.5-.04.76h2.12c.14,0,.36-.14.47-.29.5-.72,1.19-1.33,1.4-1.33.47,0,2.63,1.37,2.63,2.09,0,.18-.14.36-.68.36h-5.98c0,.79-.04,1.62-.04,2.48h2.2c.14,0,.36-.11.47-.29.36-.5.79-.9,1.15-1.19.07-.07.18-.11.29-.11.47,0,2.59,1.3,2.59,2.05,0,.22-.14.4-.68.4h-6.01c0,1.04.04,2.05.04,2.92h3.6c.14,0,.36-.11.47-.29.04-.04,1.19-1.73,1.69-1.73s2.95,1.58,2.95,2.45c0,.22-.14.4-.68.4h-14.54Zm6.59,15.12c-.4,0-.61-.22-.76-.5-.47-.97-3.53-2.48-3.53-2.66h.04s.14,0,.32.07c1.48.47,2.88.72,4.1.72,1.51,0,2.74-.43,3.42-1.4,1.01-1.44,1.33-3.85,1.33-3.92,0-.22-.14-.36-.32-.36h-3.24l-.43,1.4c-.25.72-.94,1.04-1.55,1.04-.58,0-1.08-.29-1.08-.79,0-.14.04-.29.11-.47.68-1.55,1.48-4,1.48-4.5,0-.14-.11-.22-.29-.22h-3.74c1.01.22,1.3.32,1.3.54,0,.14-.14.32-.4.43-.4.14-.47.04-.72,1.04-2.45,9.65-12.06,9.79-12.63,9.79-.25,0-.36-.04-.36-.11s.32-.22.72-.32c6.16-1.51,9.86-6.55,9.86-11.34-1.51.04-3.02.11-4.57.25h-.04c-.54,0-1.51-1.22-1.51-1.69,3.42.43,7.56.5,8.82.5h3.1c.18,0,.4-.11.54-.29.22-.22.54-.61.76-.76.11-.11.18-.14.29-.14.32,0,2.77,1.26,2.77,2.09,0,.36-.47.54-.83.68-.83.29-.86.29-1.33,1.91h2.81c.25,0,.5-.07.61-.22.43-.54.94-.79,1.01-.79.61,0,2.56,1.33,2.56,1.87,0,.32-.29.58-.83.86-.29.14-.54.18-.61.58-.72,3.13-1.8,6.7-6.73,6.7h-.43Zm-2.23-22.21h-4.36c-.04.79-.04,1.62-.04,2.48h4.39v-2.48Zm-4.39,3.35c0,1.04.04,2.05.04,2.92h4.28c.04-.72.07-1.8.07-2.92h-4.39Zm.97-6.84l-.4.22c-.22.07-.5.32-.5,2.45h4.32c0-.86-.04-1.8-.18-2.66h-3.24Z" fill="#fff"/>
      <path d="m253.29,65.11c3.67-3.78,7.31-5.29,10.4-5.29,4.79,0,8.24,3.6,8.24,7.16,0,7.74-11.59,11.37-13.57,11.37-.11,0-.18-.04-.18-.07,0-.11.43-.32,1.33-.72,3.28-1.4,9.47-5.36,9.47-10.44,0-3.96-3.74-5.62-6.48-5.62-4.46,0-7.52,3.06-9.54,5.08-.14,1.91-.14,3.17-.14,3.31,0,2.09.32,4.28.76,6.05.11.47.14.86.14,1.22,0,1.15-.47,1.76-1.04,1.76-.68,0-1.48-.9-1.66-2.84-.11-1.37-.86-3.35-1.55-4.79-.76,1.66-1.12,2.81-1.4,3.64-.61,1.69-1.73,2.59-2.45,2.59-.43,0-.76-.29-.76-.94,0-.68.36-2.23,3.71-7.06-.72-1.33-1.58-2.52-2.12-3.06-.58-.58-.86-1.08-.86-1.55s.32-.83.94-1.12c.83-.36,1.44-.86,1.91-1.33,1.26-1.3,2.81-2.45,4.28-3.38.04-.58.07-1.12.07-1.62.04-.68.04-1.26.04-1.76,0-2.81-.54-3.56-2.27-4.68-.32-.18-.47-.29-.47-.43,0,0,.47-.65,1.4-.65.5,0,3.2.25,3.2,3.67,0,.68-.47,4.03-.61,4.75h.25c1.48,0,2.02.4,2.02,1.01,0,.76-.79,1.87-1.58,2.95-.5.65-1.04,1.48-1.62,2.41l-.07.58.22-.22Zm-3.82,3.17c.9-1.15,1.91-2.66,2.74-4.07.14-1.26.25-2.52.36-3.64-1.08.76-2.02,1.98-2.63,3.35-.5,1.08-.97,1.4-2.12,1.58-.32.04-.43.14-.43.32,0,.32.47,1.15,1.58,3.13l.5-.68Zm.4,2.2c1.12,1.94,1.33,2.16,1.51,2.16.07,0,.14-.07.14-.29,0-1.55.18-3.13.32-4.64-.61.79-1.22,1.58-1.8,2.38l-.18.4Zm3.64-8.5c.65-1.19.65-1.48.65-1.51,0-.25-.07-.43-.32-.47l-.32,1.98Z" fill="#fff"/>
      <path d="m298.65,69.21c0,2.2,1.19,3.31,2.92,3.31,1.58,0,3.64-.97,5.54-2.88.9-.9,1.33-1.22,1.51-1.22.04,0,.07,0,.07.07,0,.58-3.31,6.55-8.39,6.55-2.45,0-4.36-1.66-4.36-5.26,0-.36,0-.72.04-1.08.22-2.41,1.44-4.79,1.98-7.31.14-.76.25-1.44.25-2.02,0-1.84-.79-2.84-2.23-2.84-1.73,0-5.9,1.76-10.11,7.09-.25,2.34-.36,3.31-.36,5.08,0,2.2.22,4.39.86,6.3.22.65.29,1.19.29,1.66,0,1.12-.5,1.73-1.12,1.73-.83,0-1.84-1.08-1.87-3.24-.04-.9-.83-3.28-1.44-5.08-.36.94-.65,1.94-.86,2.92-.4,1.84-1.58,2.92-2.41,2.92-.43,0-.79-.32-.79-1.08,0-1.58,1.04-3.49,3.24-6.98-.65-1.48-1.26-2.95-2.02-4.36-.29-.54-.4-1.04-.4-1.48,0-.61.25-1.15.72-1.51,1.4-1.08,4.79-2.02,5.47-2.16l.04-.29c.11-1.01.25-2.2.25-3.31,0-3.17-1.22-3.82-1.98-3.96-.68-.14-1.01-.36-1.01-.61,0-.29.83-.83,1.66-.83,1.66,0,3.38,2.02,3.38,4,0,.72-.14,1.55-.36,2.56-.18.79-.36,1.55-.47,2.23h.04c1.12.07,1.51.5,1.51,1.08,0,.18-.04.43-.14.65,1.91-1.8,5.18-4.57,8.39-4.57,2.34,0,3.89,1.62,3.89,4.64,0,.5-.04,1.01-.11,1.55-.4,2.59-1.51,5.08-1.62,7.49v.25Zm-13.75-8.39c-.07-.04-.18-.04-.22-.04-.9,0-3.06.58-3.78,1.15-.32.25-.43.58-.43.97,0,.18.07,1.58,1.37,4.25.79-1.12,2.34-3.82,2.99-5.44l.07-.9Zm-2.23,8.14c.07.14,1.12,2.2,1.37,2.2.07,0,.11-.18.11-.58,0-1.33.11-3.13.29-4.97-.79,1.12-1.08,1.66-1.76,3.35Z" fill="#fff"/>
      <path d="m319.68,64.24s.07-.04.18-.11c1.62-1.04,3.64-1.62,5.65-1.62,4.64,0,7.49,3.24,7.49,6.73s-3.31,8.21-9.93,8.21c-3.49,0-5.83-1.73-5.83-3.67,0-1.73,1.8-2.7,3.53-2.7,2.38,0,3.85,1.84,3.85,3.71,0,.29-.04.61-.11.9,4.18-1.01,5.8-3.89,5.8-6.41,0-2.84-2.02-5.4-5.65-5.4-1.26,0-5.44.32-7.85,5.44-.86,1.87-1.44,2.99-2.66,2.99-.65,0-1.15-.5-1.15-1.22,0-1.04,1.33-2.59,2.99-4.5,2.16-2.48,7.23-9.32,8.75-11.81.18-.25.25-.5.25-.68,0-.25-.14-.61-.9-.61-1.69,0-2.48,3.46-4.9,3.46-1.33,0-2.41-.86-2.41-2.2,0-.4.07-.72.32-.72.18,0,.4.07.68.18.29.11.58.14.86.14.5,0,1.01-.14,1.48-.5,1.4-.97,3.06-2.16,4.97-2.16,2.12,0,3.42,1.48,3.42,2.27,0,.72-.79,1.37-1.55,1.94-2.59,1.98-7.27,8.24-7.27,8.31v.04Zm2.77,10.4c0-1.26-.97-2.34-2.3-2.34-1.58,0-1.62,1.19-1.62,1.37,0,.14,0,1.84,3.6,2.2.22-.4.32-.83.32-1.22Z" fill="#fff"/>
      <path d="m370.94,68.56c0,.25-.18.47-.79.47h-18.86c-1.98,0-7.23.04-10.4.36h-.04c-.65,0-1.73-1.37-1.73-1.8,3.64.43,10.15.54,12.2.54-.29-.22-.54-.54-.68-1.04-.25-.83-.94-1.98-1.51-2.63-.18-.18-.25-.29-.25-.36,0-.04.07-.04.18-.04,2.7,0,4.46,1.4,4.46,2.74,0,.58-.29,1.08-.72,1.33h3.56c.54-1.08,1.15-2.56,1.33-4.25.04-.29,0-.36.11-.36.61,0,3.78,1.8,3.78,2.34,0,.25-.29.4-.83.4h-.36c-.32,0-.5.18-.83.43s-1.37.94-2.16,1.44h7.42c.22,0,.43-.11.54-.29,1.55-1.98,1.69-2.09,1.98-2.09.11,0,.25,0,.32.04,1.19.43,3.28,2.02,3.28,2.77Zm-.76-17.21c0,.22-.14.43-.76.43h-13.14v2.92h4.36c.22,0,.47-.11.58-.29.43-.65,1.58-2.02,1.98-2.02.9,0,3.31,1.98,3.31,2.77,0,.22-.14.43-.72.43h-11.45c-1.94,0-6.01.04-9.11.36h-.04c-.65,0-1.69-1.37-1.69-1.8,3.17.4,7.74.5,10.15.54v-2.92h-1.55c-1.94,0-7.13.04-10.22.36h-.04c-.65,0-1.69-1.37-1.69-1.8,3.56.43,10.11.58,12.13.58h1.37c-.04-1.51-.04-2.2-.43-3.74-.04-.14-.07-.22-.07-.25s.04-.07.07-.07c.32,0,4.64.54,4.64,1.37,0,.25-.25.54-.68.79-.65.36-.83.14-.86,1.44,0,.14-.04.32-.04.47h7.67c.22,0,.47-.14.58-.32.58-.79,1.66-2.27,2.12-2.27.83,0,3.53,2.2,3.53,3.02Zm-4.57,21.06c0,.29-.32.54-.79.79-.58.32-.72.43-.72,1.37,0,.79.18,2.34.25,3.42v.07c0,.9-1.08,1.19-1.66,1.19-.65,0-1.22-.29-1.22-.97v-1.15h-13.32c0,.47.04.9.04,1.19v.04c0,.79-1.04,1.12-1.73,1.12-.65,0-1.26-.29-1.26-.94v-.14c.18-1.44.32-3.85.32-4.64,0-.43-.11-2.34-.4-3.35-.04-.11-.04-.14-.04-.18q0-.07.04-.07c.07,0,2.09.47,3.78,1.51h.07s.04,0,.04.04h11.73c.18,0,.32,0,.47-.18.25-.29.61-.76.86-.97.14-.11.29-.18.47-.18.61,0,3.06,1.44,3.06,2.05Zm-.76-13.57c0,.29-.32.5-.76.76-.68.4-.68.58-.68,1.26s.18,1.48.22,2.3v.04c0,.72-.79,1.22-1.58,1.22-.61,0-1.19-.29-1.19-.97v-.43h-12.17c0,.22.04.43.04.61v.04c0,.47-.54,1.12-1.62,1.12-.65,0-1.22-.29-1.22-.94v-.14c.18-1.44.25-2.92.25-3.71,0-.43-.11-2.09-.36-3.1-.04-.11-.04-.14-.04-.18,0-.07.04-.11.07-.11.18,0,2.59.79,3.6,1.44h.07s.04,0,.04.04h10.65c.18,0,.32-.04.47-.22.25-.29.54-.65.79-.86.14-.11.25-.18.43-.18.32,0,2.99,1.19,2.99,2.02Zm-3.38,14.11c0-.22-.18-.36-.47-.36h-12.13c-.07.07-.18.14-.32.22-.4.22-.47.32-.47,1.87,0,.47.04,1.01.04,1.55h13.39c0-1.19,0-2.52-.04-3.28Zm-.58-13.61c0-.22-.22-.36-.47-.36h-11.05c-.07.07-.18.11-.29.18-.32.22-.47.32-.47,1.8,0,.36.04.76.04,1.19h12.24v-2.81Z" fill="#fff"/>
      <path d="m396.22,53.41c0,3.46,1.84,7.6,5.65,9.68,1.01.54,1.4,1.33,1.4,2.02,0,.76-.5,1.37-1.33,1.37-2.16,0-5.33-4.64-6.3-8.67-.04-.18-.07-.22-.11-.22s-.07.18-.07.4c0,.43.04.97.04,1.58,0,7.09-.79,11.19-3.17,13.93-2.16,2.45-5.18,4.1-7.95,4.1-5.94,0-6.8-6.77-6.8-8.67,0-2.81.97-5.47,2.12-8.06,1.01-2.27,2.3-4.25,2.92-5.4.04-.07.04-.11.04-.14s0-.04-.04-.04c-.07,0-.14.04-.22.07-.86.43-1.62.61-2.23.61-1.37,0-2.02-.9-2.02-1.8,0-.83.54-1.51.86-1.51.14,0,.25.29.43.47.25.29.79.4,1.48.4.94,0,2.77-.5,3.35-.9.97-.61,1.84-.9,2.63-.9,1.37,0,2.09.83,2.09,1.37,0,.43-.36.86-1.19.97-.4.07-1.26.25-1.8.5-2.05.86-6.33,7.81-6.33,13.53,0,3.67,1.66,6.7,5.11,6.7,2.16,0,4.5-1.15,6.19-2.77,1.62-1.51,2.41-3.42,2.88-5.72.43-2.27.76-8.49.76-9.14,0-1.8-.83-3.71-.83-5.44,0-2.27.9-2.38,1.22-2.38.65,0,1.3.9,1.3,1.87,0,.68-.07,1.33-.07,1.98v.22Zm4.54,1.26c-.86-1.12-2.02-2.05-2.92-2.63-.29-.18-.58-.32-.58-.43,0-.18,1.08-.18,1.15-.18,1.62,0,4.43.72,4.43,2.59,0,.72-.5,1.22-1.08,1.22-.32,0-.68-.14-1.01-.58Zm3.42-2.2c-.97-1.04-2.12-1.87-3.1-2.34-.32-.14-.61-.29-.61-.4,0-.25,1.08-.32,1.62-.32,1.8,0,4.1.72,4.1,2.38,0,.68-.43,1.19-1.04,1.19-.29,0-.65-.14-.97-.5Z" fill="#fff"/>
    </g>
  </g>
</svg>