<?xml version="1.0" encoding="UTF-8"?>
<svg id="_レイヤー_2" data-name="レイヤー 2" xmlns="http://www.w3.org/2000/svg" viewBox="0 0 515.38 264.54">
  <g id="_デザイン" data-name="デザイン">
    <g>
      <path d="m.53,3.37h4.7c11.2,0,19.94,2.97,26.2,8.9,6.27,5.93,9.4,13.88,9.4,23.85,0,6.93-1.52,13.08-4.56,18.44-3.04,5.36-7.17,9.49-12.39,12.39-5.22,2.9-11.06,4.34-17.51,4.34h-1.14v38.87H.53V3.37Zm6.12,63.79c8.64,0,15.71-2.68,21.22-8.05,5.5-5.36,8.26-12.93,8.26-22.71s-2.59-16.45-7.76-21.43c-5.18-4.98-12.51-7.48-22-7.48h-1.14v59.66h1.42Z" fill="#fff" stroke="#fff" stroke-miterlimit="10" stroke-width="1.05"/>
      <path d="m59.9,3.37h6.12c11.11,0,19.67,2.94,25.7,8.83,6.03,5.89,9.04,14.29,9.04,25.2,0,6.27-1.5,12.01-4.49,17.23-2.99,5.22-7.05,9.33-12.17,12.32-5.13,2.99-10.78,4.49-16.95,4.49h-1l36.74,38.73h-6.12l-32.32-33.89v33.89h-4.56V3.37Zm7.12,63.94c5.41,0,10.35-1.33,14.81-3.99,4.46-2.66,7.97-6.24,10.54-10.75,2.56-4.51,3.84-9.52,3.84-15.02,0-9.59-2.59-16.99-7.76-22.21-5.18-5.22-12.56-7.83-22.14-7.83h-1.85v59.81h2.56Z" fill="#fff" stroke="#fff" stroke-miterlimit="10" stroke-width="1.05"/>
      <path d="m147.62,105.19c-8.54-5.22-15.31-12.17-20.29-20.86s-7.48-18.01-7.48-27.98,2.51-19.1,7.55-27.7c5.03-8.59,11.82-15.43,20.36-20.51,8.54-5.08,17.8-7.62,27.77-7.62s19.32,2.52,27.77,7.55c8.45,5.03,15.17,11.84,20.15,20.43,4.98,8.59,7.48,17.87,7.48,27.84s-2.49,19.72-7.48,28.41c-4.98,8.69-11.73,15.57-20.22,20.65-8.5,5.08-17.78,7.62-27.84,7.62s-19.22-2.61-27.77-7.83Zm53.11-3.35c7.78-4.7,13.98-11.06,18.58-19.08,4.6-8.02,6.91-16.73,6.91-26.13s-2.28-17.94-6.84-25.92c-4.56-7.97-10.73-14.31-18.51-19.01-7.79-4.7-16.23-7.05-25.35-7.05s-17.71,2.35-25.49,7.05c-7.78,4.7-13.98,11.04-18.58,19.01-4.61,7.97-6.91,16.61-6.91,25.92s2.3,18.11,6.91,26.13c4.6,8.02,10.8,14.38,18.58,19.08,7.78,4.7,16.23,7.05,25.35,7.05s17.56-2.35,25.35-7.05Z" fill="#fff" stroke="#fff" stroke-miterlimit="10" stroke-width="1.05"/>
      <path d="m245.23,110.38c-3.56-1.28-7-3.35-10.32-6.19v-5.84c5.98,6.55,13.43,9.83,22.36,9.83,8.16,0,14.52-2.54,19.08-7.62,4.56-5.08,6.84-12.6,6.84-22.57V7.5h-26.34V3.37h31.04v74.05c0,11.39-2.75,20.06-8.26,25.99-5.51,5.93-13.05,8.9-22.64,8.9-4.27,0-8.19-.64-11.75-1.92Z" fill="#fff" stroke="#fff" stroke-miterlimit="10" stroke-width="1.05"/>
      <path d="m310.37,3.37h38.3v4.13h-33.61v58.1h28.05v4.13h-28.05v36.31h33.61v4.13h-38.3V3.37Z" fill="#fff" stroke="#fff" stroke-miterlimit="10" stroke-width="1.05"/>
      <path d="m389.12,105.68c-8.35-4.89-14.98-11.63-19.86-20.22-4.89-8.59-7.33-18.25-7.33-28.98s2.54-19.79,7.62-28.34c5.08-8.54,11.87-15.28,20.36-20.22,8.49-4.93,17.54-7.4,27.13-7.4,6.64,0,11.91.59,15.81,1.78,3.89,1.19,8.4,3.25,13.53,6.19v5.27c-4.84-3.32-9.33-5.67-13.46-7.05-4.13-1.38-9.28-2.06-15.45-2.06-9.4,0-17.97,2.4-25.7,7.19-7.74,4.79-13.86,11.2-18.37,19.22-4.51,8.02-6.76,16.64-6.76,25.84s2.28,17.94,6.83,25.92c4.56,7.97,10.61,14.31,18.16,19.01,7.55,4.7,15.69,7.05,24.42,7.05,6.27,0,11.72-.73,16.38-2.21,4.65-1.47,9.3-3.77,13.95-6.91v5.27c-4.56,2.75-9.23,4.77-14.03,6.05-4.79,1.28-10.04,1.92-15.73,1.92-9.97,0-19.13-2.45-27.48-7.33Z" fill="#fff" stroke="#fff" stroke-miterlimit="10" stroke-width="1.05"/>
      <path d="m485.8,7.5h-24.63V3.37h53.68v4.13h-24.35v102.67h-4.7V7.5Z" fill="#fff" stroke="#fff" stroke-miterlimit="10" stroke-width="1.05"/>
      <path d="m72.22,248.5v-7.69c2.56,5.7,6.29,10.16,11.18,13.39,4.89,3.23,10.75,4.84,17.59,4.84,4.75,0,9.14-1.04,13.17-3.13,4.03-2.09,7.24-5.03,9.61-8.83,2.37-3.8,3.56-8.16,3.56-13.1,0-4.46-.76-8.31-2.28-11.53-1.52-3.23-4.04-6.34-7.55-9.33-3.51-2.99-8.59-6.53-15.24-10.61l-4.56-2.85c-4.18-2.56-7.55-4.84-10.11-6.83-2.56-1.99-4.79-4.32-6.69-6.98-2.47-3.7-3.7-7.97-3.7-12.82,0-6.45,2.09-11.49,6.27-15.09,4.18-3.61,9.49-5.41,15.95-5.41,8.73,0,15.66,3.23,20.79,9.68v7.26c-2.18-3.99-5.17-7.12-8.97-9.4-3.8-2.28-7.97-3.42-12.53-3.42s-8.74,1.47-11.96,4.41c-3.23,2.94-4.84,6.88-4.84,11.82s1.5,9,4.49,12.46c2.99,3.47,8.05,7.24,15.17,11.32,8.73,5.13,15.52,9.78,20.36,13.95,3.42,3.13,5.91,6.6,7.48,10.39,1.57,3.8,2.35,8.02,2.35,12.67,0,5.89-1.38,11.06-4.13,15.52-2.75,4.46-6.55,7.9-11.39,10.32-4.84,2.42-10.3,3.63-16.38,3.63-11.87,0-21.07-4.89-27.62-14.67Z" fill="#fff" stroke="#fff" stroke-miterlimit="10" stroke-width="1.05"/>
      <path d="m165.35,158.5h-24.63v-4.13h53.68v4.13h-24.35v102.67h-4.7v-102.67Z" fill="#fff" stroke="#fff" stroke-miterlimit="10" stroke-width="1.05"/>
      <path d="m226.15,256.19c-8.54-5.22-15.31-12.17-20.29-20.86-4.98-8.69-7.48-18.01-7.48-27.98s2.51-19.1,7.55-27.7c5.03-8.59,11.82-15.43,20.36-20.51,8.54-5.08,17.8-7.62,27.77-7.62s19.32,2.52,27.77,7.55c8.45,5.03,15.17,11.84,20.15,20.43,4.98,8.59,7.48,17.87,7.48,27.84s-2.49,19.72-7.48,28.41c-4.98,8.69-11.73,15.57-20.22,20.65-8.5,5.08-17.78,7.62-27.84,7.62s-19.22-2.61-27.77-7.83Zm53.11-3.35c7.78-4.7,13.98-11.06,18.58-19.08,4.6-8.02,6.91-16.73,6.91-26.13s-2.28-17.94-6.84-25.92c-4.56-7.97-10.73-14.31-18.51-19.01-7.79-4.7-16.23-7.05-25.35-7.05s-17.71,2.35-25.49,7.05c-7.78,4.7-13.98,11.04-18.58,19.01-4.61,7.97-6.91,16.61-6.91,25.92s2.3,18.11,6.91,26.13c4.6,8.02,10.8,14.38,18.58,19.08,7.78,4.7,16.23,7.05,25.35,7.05s17.56-2.35,25.35-7.05Z" fill="#fff" stroke="#fff" stroke-miterlimit="10" stroke-width="1.05"/>
      <path d="m327.39,154.37h6.12c11.11,0,19.67,2.94,25.7,8.83,6.03,5.89,9.04,14.29,9.04,25.2,0,6.27-1.5,12.01-4.49,17.23-2.99,5.22-7.05,9.33-12.17,12.32-5.13,2.99-10.78,4.49-16.95,4.49h-1l36.74,38.73h-6.12l-32.32-33.89v33.89h-4.56v-106.8Zm7.12,63.94c5.41,0,10.35-1.33,14.81-3.99,4.46-2.66,7.97-6.24,10.54-10.75,2.56-4.51,3.84-9.52,3.84-15.02,0-9.59-2.59-16.99-7.76-22.21-5.18-5.22-12.56-7.83-22.14-7.83h-1.85v59.81h2.56Z" fill="#fff" stroke="#fff" stroke-miterlimit="10" stroke-width="1.05"/>
      <path d="m449.57,154.37l-31.75,64.08v42.72h-4.7v-42.72l-32.47-64.08h5.13l29.76,58.52,29.19-58.52h4.84Z" fill="#fff" stroke="#fff" stroke-miterlimit="10" stroke-width="1.05"/>
    </g>
  </g>
</svg>