<?xml version="1.0" encoding="UTF-8"?>
<svg id="_レイヤー_2" data-name="レイヤー 2" xmlns="http://www.w3.org/2000/svg" viewBox="0 0 405.37 209.31">
  <g id="_デザイン" data-name="デザイン">
    <g>
      <path d="m.42,2.66h3.7c8.81,0,15.68,2.33,20.61,7,4.93,4.67,7.39,10.92,7.39,18.76,0,5.45-1.2,10.29-3.58,14.5-2.39,4.22-5.64,7.47-9.74,9.74-4.11,2.28-8.7,3.42-13.78,3.42h-.9v30.58H.42V2.66Zm4.82,50.18c6.79,0,12.36-2.11,16.69-6.33,4.33-4.22,6.5-10.17,6.5-17.86s-2.04-12.94-6.1-16.86c-4.07-3.92-9.84-5.88-17.3-5.88h-.9v46.93h1.12Z" fill="#fff" stroke="#fff" stroke-miterlimit="10" stroke-width=".83"/>
      <path d="m47.12,2.66h4.82c8.74,0,15.47,2.32,20.22,6.94,4.74,4.63,7.11,11.24,7.11,19.82,0,4.93-1.18,9.45-3.53,13.55-2.35,4.11-5.54,7.34-9.58,9.69-4.03,2.35-8.48,3.53-13.33,3.53h-.78l28.9,30.46h-4.82l-25.42-26.66v26.66h-3.58V2.66Zm5.6,50.29c4.26,0,8.14-1.04,11.65-3.14,3.51-2.09,6.27-4.91,8.29-8.46,2.02-3.55,3.02-7.48,3.02-11.82,0-7.54-2.04-13.36-6.1-17.47-4.07-4.11-9.88-6.16-17.42-6.16h-1.46v47.04h2.02Z" fill="#fff" stroke="#fff" stroke-miterlimit="10" stroke-width=".83"/>
      <path d="m116.11,82.74c-6.72-4.11-12.04-9.58-15.96-16.41s-5.88-14.17-5.88-22.01,1.98-15.03,5.94-21.78c3.96-6.76,9.3-12.13,16.02-16.13,6.72-3.99,14-5.99,21.84-5.99s15.19,1.98,21.84,5.94c6.64,3.96,11.93,9.32,15.85,16.07,3.92,6.76,5.88,14.06,5.88,21.9s-1.96,15.51-5.88,22.34c-3.92,6.83-9.22,12.25-15.9,16.24-6.68,3.99-13.98,5.99-21.9,5.99s-15.12-2.05-21.84-6.16Zm41.78-2.63c6.12-3.7,10.99-8.7,14.62-15.01,3.62-6.31,5.43-13.16,5.43-20.55s-1.79-14.11-5.38-20.38c-3.58-6.27-8.44-11.26-14.56-14.95-6.12-3.7-12.77-5.54-19.94-5.54s-13.93,1.85-20.05,5.54c-6.12,3.7-11,8.68-14.62,14.95-3.62,6.27-5.43,13.07-5.43,20.38s1.81,14.24,5.43,20.55c3.62,6.31,8.49,11.31,14.62,15.01,6.12,3.7,12.77,5.54,19.94,5.54s13.81-1.85,19.94-5.54Z" fill="#fff" stroke="#fff" stroke-miterlimit="10" stroke-width=".83"/>
      <path d="m192.89,86.82c-2.8-1.01-5.51-2.63-8.12-4.87v-4.59c4.7,5.15,10.56,7.73,17.58,7.73,6.42,0,11.42-2,15.01-5.99,3.58-3.99,5.38-9.91,5.38-17.75V5.9h-20.72v-3.25h24.42v58.24c0,8.96-2.17,15.77-6.5,20.44-4.33,4.67-10.27,7-17.81,7-3.36,0-6.44-.5-9.24-1.51Z" fill="#fff" stroke="#fff" stroke-miterlimit="10" stroke-width=".83"/>
      <path d="m244.12,2.66h30.13v3.25h-26.43v45.7h22.06v3.25h-22.06v28.56h26.43v3.25h-30.13V2.66Z" fill="#fff" stroke="#fff" stroke-miterlimit="10" stroke-width=".83"/>
      <path d="m306.06,83.13c-6.57-3.84-11.78-9.15-15.62-15.9-3.85-6.76-5.77-14.35-5.77-22.79s2-15.57,5.99-22.29c3.99-6.72,9.33-12.02,16.02-15.9,6.68-3.88,13.79-5.82,21.34-5.82,5.23,0,9.37.47,12.43,1.4,3.06.93,6.61,2.56,10.64,4.87v4.14c-3.81-2.61-7.34-4.46-10.58-5.54-3.25-1.08-7.3-1.62-12.15-1.62-7.39,0-14.13,1.89-20.22,5.66-6.09,3.77-10.9,8.81-14.45,15.12-3.55,6.31-5.32,13.09-5.32,20.33s1.79,14.11,5.38,20.38,8.34,11.26,14.28,14.95,12.34,5.54,19.21,5.54c4.93,0,9.22-.58,12.88-1.74,3.66-1.16,7.32-2.97,10.98-5.43v4.14c-3.58,2.17-7.26,3.75-11.03,4.76-3.77,1.01-7.9,1.51-12.38,1.51-7.84,0-15.05-1.92-21.62-5.77Z" fill="#fff" stroke="#fff" stroke-miterlimit="10" stroke-width=".83"/>
      <path d="m382.11,5.9h-19.38v-3.25h42.22v3.25h-19.15v80.75h-3.7V5.9Z" fill="#fff" stroke="#fff" stroke-miterlimit="10" stroke-width=".83"/>
      <path d="m56.81,196.69v-6.05c2.02,4.48,4.95,7.99,8.79,10.53,3.84,2.54,8.46,3.81,13.83,3.81,3.73,0,7.19-.82,10.36-2.46,3.17-1.64,5.69-3.96,7.56-6.94,1.87-2.99,2.8-6.42,2.8-10.3,0-3.51-.6-6.53-1.79-9.07-1.2-2.54-3.17-4.98-5.94-7.34-2.76-2.35-6.76-5.13-11.98-8.34l-3.58-2.24c-3.29-2.02-5.94-3.81-7.95-5.38-2.02-1.57-3.77-3.4-5.26-5.49-1.94-2.91-2.91-6.27-2.91-10.08,0-5.08,1.64-9.03,4.93-11.87,3.28-2.84,7.47-4.26,12.54-4.26,6.87,0,12.32,2.54,16.35,7.62v5.71c-1.72-3.14-4.07-5.6-7.06-7.39-2.99-1.79-6.27-2.69-9.86-2.69s-6.87,1.16-9.41,3.47c-2.54,2.32-3.81,5.41-3.81,9.3s1.18,7.08,3.53,9.8c2.35,2.73,6.33,5.69,11.93,8.9,6.87,4.03,12.21,7.69,16.02,10.98,2.69,2.46,4.65,5.19,5.88,8.18,1.23,2.99,1.85,6.31,1.85,9.97,0,4.63-1.08,8.7-3.25,12.21-2.17,3.51-5.15,6.22-8.96,8.12-3.81,1.9-8.1,2.86-12.88,2.86-9.33,0-16.58-3.84-21.73-11.54Z" fill="#fff" stroke="#fff" stroke-miterlimit="10" stroke-width=".83"/>
      <path d="m130.05,125.9h-19.38v-3.25h42.22v3.25h-19.15v80.75h-3.7v-80.75Z" fill="#fff" stroke="#fff" stroke-miterlimit="10" stroke-width=".83"/>
      <path d="m177.88,202.74c-6.72-4.11-12.04-9.58-15.96-16.41s-5.88-14.17-5.88-22.01,1.98-15.03,5.94-21.78c3.96-6.76,9.3-12.13,16.02-16.13,6.72-3.99,14-5.99,21.84-5.99s15.19,1.98,21.84,5.94c6.64,3.96,11.93,9.32,15.85,16.07,3.92,6.76,5.88,14.06,5.88,21.9s-1.96,15.51-5.88,22.34c-3.92,6.83-9.22,12.25-15.9,16.24-6.68,3.99-13.98,5.99-21.9,5.99s-15.12-2.05-21.84-6.16Zm41.78-2.63c6.12-3.7,10.99-8.7,14.62-15.01,3.62-6.31,5.43-13.16,5.43-20.55s-1.79-14.11-5.38-20.38c-3.58-6.27-8.44-11.26-14.56-14.95-6.12-3.7-12.77-5.54-19.94-5.54s-13.93,1.85-20.05,5.54c-6.12,3.7-11,8.68-14.62,14.95-3.62,6.27-5.43,13.07-5.43,20.38s1.81,14.24,5.43,20.55c3.62,6.31,8.49,11.31,14.62,15.01,6.12,3.7,12.77,5.54,19.94,5.54s13.81-1.85,19.94-5.54Z" fill="#fff" stroke="#fff" stroke-miterlimit="10" stroke-width=".83"/>
      <path d="m257.51,122.66h4.82c8.74,0,15.47,2.32,20.22,6.94,4.74,4.63,7.11,11.24,7.11,19.82,0,4.93-1.18,9.45-3.53,13.55-2.35,4.11-5.54,7.34-9.58,9.69-4.03,2.35-8.48,3.53-13.33,3.53h-.78l28.9,30.46h-4.82l-25.42-26.66v26.66h-3.58v-84Zm5.6,50.29c4.26,0,8.14-1.04,11.65-3.14,3.51-2.09,6.27-4.91,8.29-8.46,2.02-3.55,3.02-7.48,3.02-11.82,0-7.54-2.04-13.36-6.1-17.47-4.07-4.11-9.88-6.16-17.42-6.16h-1.46v47.04h2.02Z" fill="#fff" stroke="#fff" stroke-miterlimit="10" stroke-width=".83"/>
      <path d="m353.6,122.66l-24.98,50.4v33.6h-3.7v-33.6l-25.54-50.4h4.03l23.41,46.03,22.96-46.03h3.81Z" fill="#fff" stroke="#fff" stroke-miterlimit="10" stroke-width=".83"/>
    </g>
  </g>
</svg>