<?xml version="1.0" encoding="UTF-8"?>
<svg id="_レイヤー_2" data-name="レイヤー 2" xmlns="http://www.w3.org/2000/svg" viewBox="0 0 492 110">
  <g id="_デザイン" data-name="デザイン">
    <g>
      <rect x="0" y="0" width="492" height="110" fill="#c81212"/>
      <g>
        <path d="m103.37,66.78c0,.26-2.83.83-3.63,1.63-.1.13-.19.16-.29.16-.74,0-7.11-3.23-10.9-8.9.03,3.26.13,6.53.23,9.5v.03c0,.9-.9,1.18-1.38,1.18-.51,0-.93-.26-.93-.96v-.13c.16-2.46.29-5.15.35-7.87-5.47,6.02-13.47,7.78-14.44,7.78-.13,0-.19,0-.19-.06s.23-.22.64-.38c4.21-1.47,9.61-4.96,13.5-9.79h-4.98l.03,1.25c0,.58-.68.96-1.25.96-.45,0-.84-.22-.84-.77v-.1c.19-2.4.23-4.8.23-6.5,0-3.01-.29-4.8-.39-5.22,0-.1-.03-.16-.03-.19,0-.06.03-.1.06-.1.32,0,2.44,1.06,2.96,1.41l.06.03h4.66l-.06-3.17h-2.06c-1.8,0-5.92.06-8.78.35h-.03c-.58,0-1.51-1.18-1.51-1.63v-.03c3.31.38,8.58.51,10.45.51h1.9c-.03-1.28-.1-3.23-.32-4.26-.03-.1-.03-.16-.03-.19,0-.06.03-.06.06-.06.23,0,3.63.51,3.63,1.22,0,.22-.19.42-.51.64-.68.45-.77.19-.84,1.57l-.06,1.09h6.88c.23,0,.45-.13.55-.29,1.22-1.73,1.45-1.95,1.8-1.95.06,0,.13,0,.19.03,1.09.38,2.86,2.11,2.86,2.62,0,.19-.16.38-.71.38h-11.61l-.1,3.17h4.95c.16,0,.29-.03.42-.19.61-.8.74-.83.9-.83.64,0,2.73,1.41,2.73,1.89,0,.32-.39.54-.74.74-.58.32-.71.26-.74,1.02,0,.26-.03.58-.03.96,0,1.66.13,4.22.26,6.14v.03c0,.58-.58,1.06-1.22,1.06-.45,0-.87-.26-.87-.83v-.77h-5.47c2.73,3.17,7.91,6.78,14.34,7.68.23.03.29.06.29.13Zm-16.49-16.22h-4.79l-.23.13c-.45.29-.48.16-.51,1.22-.03.51-.03,1.12-.03,1.86h5.56v-3.2Zm0,4h-5.56c0,1.12.03,2.4.03,3.62h5.53v-3.62Zm7.33-3.65c0-.1-.13-.35-.42-.35h-5.24c0,1.02-.03,2.11-.03,3.2h5.75c0-1.12,0-2.11-.06-2.85Zm-5.69,3.65c0,1.18.03,2.4.03,3.62h5.66c.03-1.25.06-2.46.06-3.62h-5.75Z" fill="#fff"/>
        <path d="m122.6,64.06c0,.16-.16.29-.51.29-.13,0-.32-.03-.51-.06-.13-.03-.23-.03-.29-.03-.19,0-.29.06-.58.32-3.5,2.82-8.94,4.58-9.9,4.58-.16,0-.26-.03-.26-.1,0-.1.19-.22.61-.38,2.76-1.12,7.97-4.67,8.65-6.72.03-.16.06-.29.16-.29.22,0,2.64,1.86,2.64,2.4Zm17.33-16.89c0,.19-.16.38-.71.38h-16.07c-1.8,0-5.98.06-8.87.35h-.03c-.61,0-1.51-1.25-1.51-1.66,3.31.42,8.71.51,10.58.51h2.03v-.58c0-1.57-.1-3.36-.35-4.45-.03-.1-.03-.16-.03-.22t.03-.03c.16,0,3.83.45,3.83,1.18,0,.22-.19.42-.51.64-.74.48-.84.13-.93,1.66-.03.51-.06,1.18-.06,1.79h7.11c.23,0,.45-.13.55-.29.45-.7,1.51-2.11,1.86-2.11.68,0,3.12,2.18,3.12,2.82Zm-4.5,5.02c0,.32-.39.54-.77.74q-.64.32-.64,1.73c0,1.28.13,3.07.26,5.06v.06c0,.67-.64,1.06-1.25,1.06-.51,0-.96-.29-.96-.9v-.74h-3.7c.23.06.32.16.32.29s-.13.26-.39.35c-.61.26-.51.22-.61,1.22-.03.61-.06,1.15-.06,1.76,0,.58.03,1.18.03,1.92,0,.54.13,1.47.13,2.14,0,2.82-3.05,3.39-3.57,3.39-.29,0-.42-.16-.61-.45-.42-.61-3.54-1.92-3.54-2.14,0-.03.06-.06.13-.06.1,0,.23.03.42.06,1.32.22,2.35.35,3.12.35,1.35,0,1.96-.38,2.03-1.28.03-.58.06-1.41.06-2.27,0-2.24-.06-4.48-.19-5.28h-4.89v.96c0,.54-.64.93-1.29.93-.48,0-.9-.22-.9-.77v-.1c.23-2.5.26-4,.26-5.31,0-1.09,0-2.78-.39-4.58-.03-.1-.03-.16-.03-.19,0-.06,0-.1.06-.1.13,0,2.03.67,3.09,1.41l.03.03h9.74c.16,0,.35-.1.48-.26.29-.48.77-.96,1-.96.42,0,2.64,1.31,2.64,1.92Zm-3.31,2.78c0-.83,0-1.6-.06-2.34,0-.13-.06-.35-.35-.35h-10.16l-.16.1q-.71.45-.71,3.01c0,.9,0,1.98.03,3.01h11.38c.03-1.34.03-2.43.03-3.42Zm6.56,12.06c0,.77-.51,1.41-1.16,1.41-.42,0-.87-.26-1.29-.9-1.03-1.57-3.6-3.52-5.75-4.86-.13-.1-.19-.16-.19-.19s.03-.06.13-.06c.32,0,8.26,1.63,8.26,4.61Z" fill="#fff"/>
        <path d="m164.39,66.4c0,.7-.45,1.22-1.16,1.22-.42,0-.93-.19-1.48-.7-2.06-1.89-5.3-3.71-9-5.02-.61-.22-.93-.38-.93-.51,0-.06.13-.1.42-.1,2.44,0,12.15,1.82,12.15,5.12Zm-3.38-10.14c0,.64-.48,1.15-1.13,1.15-.35,0-.74-.13-1.16-.45-1.74-1.34-3.47-2.37-5.69-2.88-.48-.1-.74-.22-.74-.29,0-.1.42-.19,1.77-.19,3.12,0,6.94.74,6.94,2.66Zm2.22-6.91c0,.61-.42,1.09-1.06,1.09-.35,0-.77-.13-1.22-.45-1.99-1.38-4.6-2.27-7.17-2.69-.58-.1-.87-.19-.87-.29,0-.19,1.96-.35,3.6-.35,5.4,0,6.72,1.63,6.72,2.69Z" fill="#fff"/>
        <path d="m181.31,59.42c0,.61-.35,1.06-.84,1.06-.32,0-.71-.22-1.09-.7-.61-.77-1.64-1.82-2.35-2.4-.16-.13-.26-.26-.26-.35,0-.13.16-.22.45-.22,1.41.03,4.08.93,4.08,2.62Zm10.22-3.36c0,.64-.77,1.15-1.06,1.73-5.21,9.73-12.09,10.94-12.67,10.94-.16,0-.23-.03-.23-.1,0-.13.26-.32.77-.54,6.46-2.82,10.55-10.91,10.55-11.94,0-.38-.26-.54-.77-.67-.39-.06-.51-.22-.51-.38,0-.22.35-.8,1.19-.8,1.09,0,2.73.99,2.73,1.76Zm-6.33,1.79c0,.64-.39,1.09-.87,1.09-.35,0-.74-.22-1.09-.83-.48-.86-1.35-2.05-1.99-2.72-.13-.16-.19-.29-.19-.35,0-.13.1-.19.29-.19,1.16,0,3.86,1.31,3.86,3.01Z" fill="#fff"/>
        <path d="m213.46,57.22c0,.64-.45,1.15-1.13,1.15-.35,0-.8-.16-1.25-.51-1.67-1.34-3.67-2.5-5.47-2.94v2.3c0,3.97.1,8,.13,8.48.06,2.11-.48,3.17-1.13,3.17-.68,0-1.41-1.09-1.41-2.85,0-.45.06-.96.16-1.47.19-1.02.26-.86.39-1.98.19-1.54.29-5.54.29-8.93,0-6.4-.39-7.62-1.51-7.68-.45-.03-.64-.16-.64-.38,0-.13.26-.74,1-.74,1.03,0,3.41,1.31,3.41,2.88,0,.67-.32,1.41-.45,2.62-.13,1.02-.19,2.56-.23,4.26.13,0,.29-.03.45-.03.48,0,1-.03,1.51-.03,4.76,0,5.88,1.7,5.88,2.69Zm.84-6.5c0,.61-.42,1.06-.93,1.06-.26,0-.58-.16-.87-.48-.84-.99-1.9-1.76-2.76-2.24-.26-.13-.48-.22-.48-.32,0-.03.45-.19,1.25-.19,1.74,0,3.79.74,3.79,2.18Zm3.34-1.57c0,.58-.42,1.02-.93,1.02-.26,0-.55-.13-.84-.42-.9-.96-1.96-1.73-2.83-2.18-.26-.13-.51-.22-.51-.29,0-.26,1.35-.26,1.41-.26,1.77,0,3.7.74,3.7,2.11Z" fill="#fff"/>
        <path d="m244.74,49.54c0,.32-.32.61-.93.8-.58.16-1.06.86-1.74,1.86-1.03,1.54-2.06,2.98-3.12,4.35,1.16.54,2.86,1.57,2.86,2.88,0,.64-.39,1.12-.96,1.12-.39,0-.84-.22-1.29-.7-.55-.58-1.19-1.12-1.93-1.66-7.52,8.86-15.56,9.82-15.59,9.82-.13,0-.19-.03-.19-.06,0-.13.35-.35,1-.61,4.98-2.05,9.55-5.86,13.18-10.24-1.03-.61-2.09-1.15-3.09-1.57-.51-.19-.77-.35-.77-.42s.13-.1.39-.1c.51,0,2.31.16,4.47.83,1.51-1.92,3.79-5.31,3.79-5.92,0-.32-.26-.48-.84-.48-.68,0-1.74.22-3.28.7-.32.1-.58.16-.8.16-.13,0-.29-.03-.42-.06-3.6,4.38-6.37,7.26-10,8.9-.39.16-.64.26-.77.26-.06,0-.1,0-.1-.03,0-.1.19-.29.58-.58,4.73-3.52,9.32-10.3,9.32-11.26,0-.51-.45-.83-1.13-.99-.29-.06-.42-.19-.42-.35,0-.13.32-.86,1.32-.86,1.32,0,2.86,1.22,2.86,2.21,0,.48-.26.93-.61,1.38.06,0,3.73-.42,4.44-.9.35-.22.61-.42.9-.42.35,0,2.86,1.15,2.86,1.95Z" fill="#fff"/>
        <path d="m276.21,51.62c0,.29-.19.61-.58.83-.55.35-1,.45-1.41,1.38-3.41,7.42-8.07,12.45-15.08,14.65-.55.16-.87.22-1.06.22-.1,0-.16,0-.16-.06,0-.1.35-.35,1-.64,9.29-4.38,13.57-15.29,13.57-15.84,0-.42-.35-.58-.77-.58-1.61,0-7.46.74-9.58,1.31-.39.1-.68.16-.96.16-.13,0-.22-.03-.35-.03l.1.58c.84,4.1.93,4.7.93,5.38,0,.13,0,1.54-.93,1.54-.84,0-1.29-1.34-1.29-2.5,0-.58.13-.8.13-1.47,0-.74-.48-2.82-.64-3.26-.51-1.47-1.77-2.5-3.02-2.5h-.29c-.35,0-.64-.1-.64-.29,0-.06.35-.99,1.8-.99.35,0,2.73.32,3.44,2.02h.29c.8,0,3.38-.26,4.79-.42v-2.27c-.03-1.95-.9-2.69-1.9-2.78-.51-.06-.8-.16-.8-.38,0,0,.23-.83,1.54-.83.06,0,3.57.32,3.57,1.89,0,.67-.61,1.47-.68,2.3-.03.7-.1,1.31-.13,1.92,1.64-.16,3.18-.32,3.67-.38.93-.13,1.22-.93,1.99-.93s3.47,1.06,3.47,1.98Z" fill="#fff"/>
        <path d="m294.06,54.37c-.35,0-.77-.16-1.22-.58-1.67-1.57-3.38-2.34-5.4-3.1-.29-.1-.42-.19-.42-.26,0-.1.87-.26,2.15-.26,4.28,0,6.04,1.47,6.04,2.85,0,.35-.13,1.34-1.16,1.34Zm.51,11.01c-.87.54-1.03,1.41-1.93,1.41-.96,0-3.83-1.47-3.83-3.01,0-.1.06-.99.35-.99.13,0,.26.16.48.42.39.45.9.7,1.58.7,3.95,0,15.21-10.56,18.78-14.69.39-.45.58-.61.64-.61l.03.03c0,.64-4.95,9.6-16.11,16.73Z" fill="#fff"/>
        <path d="m339.1,46.31c0,.38-.42.64-1,.93-.64.32-.68.38-.68,4.77,0,4.7.16,12.29.29,16.25v.06c0,.64-.58,1.28-1.41,1.28-.51,0-1-.29-1-.96v-.03c0-.51.03-1.06.03-1.6h-11.54v1.54c0,.74-.77,1.22-1.45,1.22-.51,0-.96-.29-.96-.99v-.1c.23-3.62.29-7.97.29-12.1,0-9.38-.26-11.26-.51-12.35-.03-.13-.03-.19-.03-.22,0-.06,0-.1.03-.1.32,0,2.6.9,3.44,1.5l.13.1h9.77c.19,0,.39-.13.51-.29.35-.45,1-1.06,1.22-1.06.32,0,2.86,1.44,2.86,2.14Zm-3.79.54c0-.22-.16-.45-.42-.45h-10.29l-.26.19c-.55.35-.58.51-.58,1.38,0,1.28-.03,4.1-.03,7.42h11.67c0-3.55,0-6.69-.1-8.54Zm-11.57,9.41c0,3.17,0,6.72.03,9.89h11.57c.03-3.2.06-6.69.06-9.89h-11.67Z" fill="#fff"/>
        <path d="m351.32,68.96c-.32.13-.48.54-.74.54-.42,0-2.09-2.34-2.09-2.72,0-.03.03-.03.13-.03,1.61,0,2.8-.13,5.47-.8v-18.59c0-1.22-.1-3.46-.32-4.54-.03-.13-.03-.19-.03-.22s0-.03.03-.03c.39,0,3.73.51,3.73,1.18,0,.19-.23.42-.55.64-.71.45-.8.13-.84,1.5,0,.58-.03,3.62-.03,7.23h2.09c.19,0,.39-.13.48-.29.55-.77,1.29-1.66,1.61-1.66.06,0,.13.03.19.03,1,.42,2.51,1.76,2.51,2.3,0,.22-.13.42-.64.42h-6.24c-.03,4.22-.06,8.99-.06,11.52,2.38-.64,5.08-1.47,7.17-2.3.13-.06.26-.1.32-.1.13,0,.19.06.19.13,0,.7-8.2,4.29-12.38,5.79Zm25.82-1.98c0,.83-1.29,1.76-3.86,1.95-.8.06-2.38.1-3.67.1-4.02,0-5.21-.8-5.21-3.17v-.22c.06-3.71.13-15.77.16-18.59,0-1.09-.06-2.94-.23-4.19,0-.1-.03-.19-.03-.22,0-.1.03-.13.13-.13.35,0,3.41.58,3.41,1.31,0,.22-.23.48-.64.67-.42.19-.61.06-.68,1.12-.06.7-.1,4.77-.13,9.06,1.86-1.22,6.49-4.45,6.91-6.05.03-.13.03-.16.1-.16.35,0,2.76,2.08,2.76,2.62,0,.26-.19.42-.68.42-.13,0-.29,0-.45-.03-.13-.03-.26-.03-.35-.03-.13,0-.23,0-.39.1-1.86,1.15-5.43,2.91-7.91,3.87-.03,4.32-.03,8.64-.03,9.73.03,1.76.13,2.02,3.95,2.02.96,0,1.96-.03,2.64-.13,1.58-.22,2.03-2.82,2.76-6.27.06-.26.1-.35.13-.35.23,0,.06,5.31.64,5.66.42.26.64.58.64.93Z" fill="#fff"/>
        <path d="m415.97,59.14c0,.29-2.76,1.09-3.38,1.86-.1.13-.19.16-.29.16-.93,0-7.78-3.78-11.9-9.92l-.23.29c-1.9,2.37-4.12,4.51-6.37,6.24.64.26,1.61.67,2.12,1.02l.03.03h8.26c.16,0,.32-.03.45-.19.64-.74.77-.74.8-.74.42,0,2.73,1.66,2.73,2.11,0,.22-.23.42-.55.58-.61.32-.64.35-.64,2.21,0,1.57.13,3.94.26,5.82v.06c0,.64-.64,1.02-1.22,1.02-.48,0-.93-.26-.93-.86v-.99h-9.97l.03,1.25c0,.48-.45.96-1.29.96-.45,0-.87-.22-.87-.77v-.1c.23-2.43.26-5.02.26-6.75,0-2.34-.1-3.52-.19-4.13-3.63,2.66-7.11,3.78-7.84,3.78-.1,0-.16-.03-.16-.06,0-.06.16-.19.51-.35,4.24-2.08,8.87-5.89,12.57-11.14.39-.58.71-1.41.9-1.92.03-.13.03-.22.13-.22.06,0,2.86,1.44,2.86,2.11,0,.26-.29.48-1,.48h-.16c2.44,2.98,9.42,7.68,14.79,8.06.19,0,.26.03.26.1Zm-18.29-14.17c0,.26-.26.45-.84.45h-.42c-.23,0-.29.06-.61.38-4.79,4.61-8.65,5.73-9,5.73-.06,0-.13,0-.13-.06s.19-.22.55-.45c2.12-1.25,7.07-5.79,7.49-7.94.03-.16,0-.32.13-.32.16,0,2.83,1.63,2.83,2.21Zm7.52,18.11c0-1.22,0-2.3-.06-3.07,0-.1-.06-.35-.39-.35h-8.84q-.71.35-.74,1.34c-.03.58-.03,1.34-.03,2.21,0,1.15,0,2.5.03,3.81h10c.03-1.34.03-2.72.03-3.94Zm6.11-14.33c0,.77-.48,1.38-1.13,1.38-.45,0-1-.32-1.48-1.15-.96-1.7-3.44-3.94-5.59-5.5-.13-.1-.19-.16-.19-.22,0-.03.03-.06.1-.06.29,0,8.29,2.37,8.29,5.57Z" fill="#fff"/>
      </g>
      <line x1="48" y1="56" y2="56" fill="none" stroke="#fff" stroke-miterlimit="10" stroke-width=".92"/>
      <line x1="492" y1="56" x2="444" y2="56" fill="none" stroke="#fff" stroke-miterlimit="10" stroke-width=".92"/>
    </g>
  </g>
</svg>