<svg aria-hidden="true" style="position: absolute; width: 0; height: 0; overflow: hidden;" version="1.1" xmlns="http://www.w3.org/2000/svg" xmlns:xlink="http://www.w3.org/1999/xlink">
<defs>
<symbol id="ryumin-mypage" viewBox="0 0 182 32">
<path d="M28.414 2.291l-11.199 28.923h-1.249l-10.458-26.632v22.421c0 1.874 1.157 2.869 2.962 2.869h0.787v1.342h-9.255v-1.342h1.203c1.758 0 2.962-0.949 2.962-2.869v-21.958c0-1.874-1.157-2.869-2.962-2.869h-1.203v-1.388h7.705l9.926 25.66 9.949-25.66h8.214v1.388h-1.134c-2.291 0-2.962 1.041-2.962 2.869v21.958c0 1.782 1.088 2.869 2.962 2.869h1.134v1.342h-11.662v-1.342h1.296c1.782 0 3.008-0.995 3.008-2.869v-24.712z"></path>
<path d="M65.944 2.175c-2.036 0-4.003 0.532-5.623 3.448l-6.988 12.657v8.7c0 1.782 1.087 2.869 3.008 2.869h2.082v1.342h-13.466v-1.342h2.082c1.828 0 3.008-1.041 3.008-2.869v-8.26l-7.427-13.004c-1.99-3.448-3.864-3.586-5.206-3.586v-1.342h11.384v1.388h-1.157c-1.249 0-2.036 0.417-2.036 1.504 0 0.671 0.255 1.157 0.324 1.296l6.756 11.754 6.155-11.199c0.208-0.37 0.509-1.203 0.509-1.758 0-1.342-1.504-1.573-2.291-1.573h-1.666v-1.411h10.574v1.388z"></path>
<path d="M82.557 0.787h11.708c5.738 0 11.87 1.828 11.87 7.913 0 4.281-3.239 8.075-10.782 8.075h-5.090v10.204c0 1.828 1.157 2.869 2.962 2.869h1.342v1.342h-12.009v-1.342h1.458c1.758 0 2.962-0.949 2.962-2.869v-21.935c0-1.874-1.157-2.869-2.962-2.869h-1.458v-1.388zM90.262 15.456h4.257c4.535 0 7.659-2.175 7.659-6.664 0-4.211-3.031-6.617-7.173-6.617h-1.782c-1.782 0-2.962 0.995-2.962 2.869v10.412z"></path>
<path d="M108.657 20.5l-2.036 6.34c-0.116 0.324-0.255 0.74-0.255 1.365 0 1.55 1.157 1.666 1.758 1.666h1.157v1.342h-9.047v-1.342h1.365c1.758 0 3.239-1.782 3.91-3.841l8.237-25.244 3.656-0.787 9.116 27.048c0.833 2.406 1.92 2.823 3.077 2.823h0.926v1.342h-10.25v-1.342h1.249c0.625 0 1.712-0.578 1.712-1.828 0-0.463-0.116-0.74-0.37-1.55l-1.99-5.993h-12.217zM114.649 2.175l-5.53 17.006h11.291l-5.738-17.006z"></path>
<path d="M151.971 30.288c-0.787-0.208-1.134-0.324-1.712-0.324-0.324 0-0.833 0.046-2.545 0.74-2.823 1.203-4.327 1.296-5.623 1.296-8.283 0-12.911-6.826-12.911-15.757 0-9.463 5.16-16.243 12.379-16.243 0.74 0 1.782 0.046 4.003 0.717 1.342 0.416 1.666 0.416 1.967 0.416 0.417 0 1.458 0 2.753-1.041l2.707 8.006-1.249 0.532c-0.787-1.504-1.411-2.615-2.869-4.049-0.926-0.833-3.656-3.216-7.127-3.216-5.623 0-8.792 7.404-8.792 14.67 0 7.659 3.494 14.623 9.533 14.623 3.286 0 6.294-2.198 6.294-5.715v-2.406c0-2.198-1.55-3.031-3.124-3.031h-1.712v-1.342h11.037v1.342c-0.74 0-1.134 0-1.758 0.416-1.088 0.74-1.249 2.036-1.249 2.753v7.612z"></path>
<path d="M163.471 16.127v10.875c0 1.782 1.041 2.869 2.962 2.869h3.216c6.988 0 9.209-3.841 10.991-6.872l1.203 0.532-2.915 7.659h-23.277v-1.342h1.55c1.712 0 2.962-0.926 2.962-2.869v-21.935c0-1.874-1.157-2.869-2.962-2.869h-1.55v-1.388h22.745l2.707 6.756-1.134 0.717c-2.291-3.656-4.952-6.085-8.908-6.085h-4.628c-1.758 0-2.962 0.949-2.962 2.869v9.741h4.743c3.17 0 4.697-1.342 4.697-4.119v-1.088h1.342v11.916h-1.342v-1.249c0-3.008-2.175-4.119-4.697-4.119h-4.743z"></path>
</symbol>
<symbol id="ryumin-entry" viewBox="0 0 146 32">
<path d="M8.256 16.146v11.446c0 1.875 1.096 3.020 3.117 3.020h3.385c7.355 0 9.693-4.043 11.568-7.233l1.266 0.56-3.069 8.061h-24.524v-1.412h1.632c1.802 0 3.117-0.974 3.117-3.020v-23.087c-0.024-1.973-1.242-3.044-3.117-3.044h-1.632v-1.437h23.939l2.849 7.111-1.193 0.755c-2.411-3.848-5.212-6.405-9.376-6.405h-4.871c-1.851 0-3.117 0.998-3.117 3.020v10.253h4.992c3.336 0 4.944-1.412 4.944-4.335v-1.145h1.412v12.542h-1.412v-1.315c0-3.166-2.289-4.335-4.944-4.335h-4.968z"></path>
<path d="M53.577 32l-18.387-28.177v22.965c0 2.289 1.412 3.823 3.823 3.823h1.193v1.412h-11.397v-1.412h1.412c2.143 0 3.604-1.266 3.604-3.823v-21.918c0-2.143-1.583-3.409-3.604-3.409h-1.412v-1.461h8.11l16.487 25.571v-20.651c0-2.094-1.486-3.458-3.409-3.458h-1.583v-1.461h11.446v1.437h-1.656c-2.070 0-3.336 1.193-3.336 3.458v27.105h-1.266z"></path>
<path d="M86.892 0l3.069 8.329-1.266 0.56c-1.583-2.752-4.262-7.452-8.913-7.452-2.24 0-3.117 1.266-3.117 3.020v23.135c0 1.924 1.218 3.020 3.166 3.020h2.192v1.412h-14.174v-1.412h2.24c1.851 0 3.117-0.998 3.117-3.020v-23.111c0-2.143-1.218-3.020-3.069-3.020-4.7 0-7.355 4.724-8.938 7.452l-1.266-0.56 3.069-8.329h23.89z"></path>
<path d="M103.769 0c5.382 0 12.103 1.534 12.103 7.623 0 2.021-0.755 4.067-2.898 5.869-1.802 1.486-3.409 1.973-5.212 2.46l4.992 10.959c0.998 2.192 2.752 3.677 5.26 3.677h0.755v1.412h-7.501l-7.111-15.659h-5.090v11.227c0 1.924 1.218 3.020 3.117 3.020h1.412v1.412h-12.493v-1.412h1.364c1.924 0 3.166-1.096 3.166-3.020v-23.087c0-1.875-1.145-3.020-3.166-3.020h-1.364v-1.461h12.664zM99.069 14.953h4.7c4.067 0 7.939-2.192 7.939-6.916 0-3.020-1.632-6.575-7.355-6.575h-2.143c-1.875 0-3.117 1.047-3.117 3.020v10.472z"></path>
<path d="M146.46 1.437c-2.143 0-4.213 0.56-5.918 3.629l-7.355 13.321v9.157c0 1.875 1.145 3.020 3.166 3.020h2.192v1.412h-14.174v-1.412h2.192c1.924 0 3.166-1.096 3.166-3.020v-8.694l-7.793-13.686c-2.094-3.629-4.067-3.775-5.479-3.775v-1.388h11.982v1.437h-1.218c-1.315 0-2.143 0.438-2.143 1.583 0 0.706 0.268 1.218 0.341 1.364l7.111 12.371 6.478-11.787c0.219-0.39 0.536-1.266 0.536-1.851 0-1.412-1.583-1.656-2.411-1.656h-1.753v-1.461h11.129v1.437z"></path>
</symbol>
<symbol id="site-title" viewBox="0 0 397 32">
<path d="M24.912 31.21v-1.339h1.173c1.67 0 2.92-0.956 2.92-3.047v-24.325l-11.436 28.711h-1.173l-10.964-28.711v24.338c0 2.167 1.377 3.047 2.92 3.047h0.829v1.339h-9.179v-1.339h1.045c1.581 0 2.92-0.918 2.92-3.047v-21.661c0-2.002-1.173-3.047-2.92-3.047h-1.045v-1.377h7.675l10.097 26.454 10.518-26.454h7.598v1.377h-1.249c-1.798 0-2.958 1.084-2.958 3.047v21.661c0 1.963 1.211 3.047 2.958 3.047h1.249v1.339h-10.977z"></path>
<path d="M64.178 8.516c-1.708-2.665-2.499-3.506-3.417-4.169-2.129-1.504-3.761-2.206-6.629-2.206h-4.628c-1.925 0-3.085 1.007-3.085 2.792v9.804h4.794c2.461 0 3.379-1.466 3.799-2.040 0.497-0.714 0.752-1.543 0.752-2.881h1.339v11.806h-1.339v-0.625c0-2.843-1.466-4.883-4.551-4.883h-4.794v10.352c0 1.67 0.625 3.417 3.085 3.417h1.415v1.339h-11.602v-1.339h1.339c0.918 0 3.085-0.752 3.085-3.468v-21.571c0-1.007-0.331-2.716-2.55-2.716h-1.874v-1.377h23.407l2.461 7.178-1.007 0.586z"></path>
<path d="M80.65 31.21h-14.19v-1.339h1.249c1.045 0 2.958-0.829 2.958-3.927v-20.564c0-2.002-0.79-3.251-2.792-3.251h-1.415v-1.377h13.603c5.712 0 10.059 2.295 10.059 7.050s-4.59 6.387-6.719 7.050c1.67 0.331 3.544 0.714 5.597 2.384 1.747 1.415 2.92 3.468 2.92 5.712 0 3.927-3.468 8.261-11.27 8.261zM80.65 2.129h-4.003c-2.55 0-3.34 1.045-3.34 2.881v9.307h7.382c3.251 0 6.26-1.874 6.26-6.298 0-3.544-2.002-5.877-6.298-5.877zM80.943 15.643h-7.637v11.104c0 1.708 0.548 3.123 4.092 3.123h3.251c4.551 0 7.93-1.963 7.93-6.846 0-3.34-1.67-7.382-7.637-7.382z"></path>
<path d="M118.12 31.21v-1.339h1.173c1.67 0 2.92-0.956 2.92-3.047v-24.325l-11.436 28.711h-1.173l-10.964-28.711v24.338c0 2.167 1.377 3.047 2.92 3.047h0.829v1.339h-9.179v-1.339h1.045c1.581 0 2.92-0.918 2.92-3.047v-21.661c0-2.002-1.173-3.047-2.92-3.047h-1.045v-1.377h7.675l10.097 26.454 10.531-26.454h7.598v1.377h-1.249c-1.798 0-2.958 1.084-2.958 3.047v21.661c0 1.963 1.211 3.047 2.958 3.047h1.249v1.339h-10.977z"></path>
<path d="M166.528 31.21l-8.516-14.98h-4.845v10.594c0 2.091 1.288 3.047 2.958 3.047h1.288v1.339h-11.143v-1.339h1.249c1.708 0 2.958-1.045 2.958-3.047v-21.648c0-2.002-1.173-3.047-2.958-3.047h-1.249v-1.377h12.851c5.010 0 10.645 1.798 10.645 7.343 0 2.422-1.173 4.386-2.843 5.673-2.040 1.581-4.041 1.963-6.005 2.295l6.26 10.939c1.211 2.091 2.588 2.881 4.628 2.881h0.625v1.339h-5.928zM159.426 2.129h-3.302c-1.874 0-2.958 1.173-2.958 3.047v9.677h6.005c3.965 0 7.343-2.167 7.343-6.425s-3.174-6.298-7.088-6.298z"></path>
<path d="M197.444 31.21h-22.706v-1.339h1.045c1.377 0 3.009-0.918 3.009-3.009v-21.775c0-1.874-1.045-2.958-2.792-2.958h-1.249v-1.377h22.030l2.754 6.974-1.084 0.497c-1.415-2.002-4.22-6.094-9.766-6.094h-3.927c-2.422 0-3.302 1.045-3.302 2.881v9.842h5.342c2.040 0 4.003-1.798 4.003-4.5v-0.663h1.339v11.933h-1.339v-1.466c0-2.002-1.339-3.927-4.003-3.927h-5.342v10.76c0 1.708 1.211 2.881 3.009 2.881h2.92c3.417 0 6.132-1.045 7.471-1.874 2.588-1.632 3.582-3.582 4.335-5.010l1.122 0.497-2.881 7.726z"></path>
<path d="M227.2 23.165c-1.67 3.213-4.551 8.848-12.392 8.848-9.727 0-12.889-8.185-12.889-15.732 0-11.767 7.267-16.268 13.399-16.268 0.625 0 1.504 0 3.506 0.663 1.288 0.459 1.67 0.459 1.925 0.459s1.504 0 3.047-1.122l3.009 7.598-1.543 0.663c-1.466-2.206-4.462-6.808-10.135-6.808-7.726 0-10.225 7.802-10.225 13.807 0 8.465 4.5 14.687 11.27 14.687 5.877 0 8.465-4.921 9.842-7.547l1.211 0.752z"></path>
<path d="M248.096 31.21l-8.516-14.98h-4.845v10.594c0 2.091 1.288 3.047 2.958 3.047h1.288v1.339h-11.143v-1.339h1.249c1.708 0 2.958-1.045 2.958-3.047v-21.648c0-2.002-1.173-3.047-2.958-3.047h-1.249v-1.377h12.851c5.010 0 10.645 1.798 10.645 7.343 0 2.422-1.173 4.386-2.843 5.673-2.040 1.581-4.041 1.963-6.005 2.295l6.26 10.939c1.211 2.091 2.588 2.881 4.628 2.881h0.625v1.339h-5.928zM241.007 2.129h-3.302c-1.874 0-2.958 1.173-2.958 3.047v9.677h6.005c3.965 0 7.343-2.167 7.343-6.425s-3.174-6.298-7.088-6.298z"></path>
<path d="M279.649 2.129c-1.747 0-2.92 1.045-2.92 3.047v16.153c0 6.591-3.468 10.684-10.059 10.684-2.792 0-5.597-0.79-7.598-2.754-2.167-2.129-2.754-5.253-2.754-8.3v-15.783c0-1.925-1.084-3.047-2.92-3.047h-1.045v-1.377h10.811v1.377h-1.288c-1.747 0-2.92 1.045-2.92 3.047v15.732c0 5.508 2.295 9.638 8.427 9.638 5.214 0 8.006-3.672 8.006-8.516v-16.854c0-1.874-1.045-3.047-2.92-3.047h-1.173v-1.377h9.473v1.377h-1.122z"></path>
<path d="M282.773 31.21v-1.339h2.257c1.504 0 2.92-0.829 2.92-3.047v-21.648c0-1.925-1.084-3.047-2.92-3.047h-2.257v-1.377h13.017v1.377h-2.206c-1.747 0-2.92 1.045-2.92 3.047v21.661c0 2.040 1.249 3.047 2.92 3.047h2.206v1.339h-13.017z"></path>
<path d="M323.659 9.103c-1.836-3.009-4.22-6.974-8.848-6.974-1.339 0-3.175 0.421-3.175 3.047v21.661c0 2.091 1.288 3.047 2.92 3.047h2.167v1.339h-12.685v-1.339h2.040c1.67 0 2.92-1.007 2.92-3.047v-21.661c0-2.499-1.67-3.047-3.213-3.047-4.551 0-7.012 3.965-8.81 6.974l-1.045-0.548 3.085-7.802h22.579l3.085 7.802-1.045 0.548z"></path>
<path d="M325.712 31.21v-1.339h2.257c1.504 0 2.92-0.829 2.92-3.047v-21.648c0-1.925-1.084-3.047-2.92-3.047h-2.257v-1.377h13.017v1.377h-2.206c-1.747 0-2.92 1.045-2.92 3.047v21.661c0 2.040 1.249 3.047 2.92 3.047h2.206v1.339h-13.017z"></path>
<path d="M370.894 2.129c-2.333 0-3.799 1.747-3.799 4.628v24.453h-1.288l-17.772-27.793v22.617c0 2.129 1.249 3.837 2.92 3.837h2.040v1.339h-11.143v-1.339h1.798c1.708 0 2.92-1.836 2.92-3.837v-20.488c0-2.167-1.708-3.417-3.302-3.417h-1.415v-1.377h7.547l16.268 25.371v-19.366c0-4.628-3.123-4.628-4.335-4.628v-1.377h10.186v1.377h-0.625z"></path>
<path d="M394.39 22.413v7.802c-0.37-0.089-0.956-0.255-1.67-0.255-0.548 0-1.632 0.421-2.206 0.663-2.461 0.956-4.296 1.377-6.094 1.377-5.928 0-12.774-4.335-12.774-15.771 0-10.76 6.005-16.229 12.226-16.229 0.548 0 1.543 0 3.799 0.625 1.249 0.37 1.581 0.37 1.836 0.37 1.581 0 2.333-0.497 3.047-0.956l2.716 7.892-1.339 0.663c-1.249-2.384-1.925-3.302-3.085-4.386-2.091-1.925-4.462-2.754-6.591-2.754-6.26 0-9.511 7.305-9.511 14.687 0 8.465 4.092 14.394 10.021 14.394 3.009 0 6.974-1.747 6.974-6.094v-2.040c0-1.963-1.122-3.047-2.92-3.047h-1.798v-1.339h10.48v1.339c-1.084 0-3.085 0-3.085 3.047z"></path>
</symbol>
</defs>
</svg>
