<svg aria-hidden="true" style="position: absolute; width: 0; height: 0; overflow: hidden;" version="1.1" xmlns="http://www.w3.org/2000/svg" xmlns:xlink="http://www.w3.org/1999/xlink">
<defs>
<symbol id="arrow-big" viewBox="0 0 34 32">
<path d="M17.114 32l-0.384-0.412 16.702-15.585-16.702-15.591 0.384-0.412 17.142 16.003-17.142 15.997z"></path>
<path d="M0 15.721h33.845v0.564h-33.845v-0.564z"></path>
</symbol>
<symbol id="arrow-small" viewBox="0 0 34 32">
<path d="M16.696 0l-1.623 1.623 14.145 13.217h-29.217v2.319h28.985l-13.913 13.217 1.623 1.623 16.928-16z"></path>
</symbol>
<symbol id="chevron" viewBox="0 0 56 32">
<path d="M2.669 32c-0.667 0-1.308-0.24-1.842-0.721-1.068-1.014-1.121-2.696-0.107-3.763l25.221-26.716c1.014-1.068 2.882-1.068 3.87 0l25.194 26.716c1.014 1.068 0.961 2.749-0.107 3.763s-2.749 0.961-3.763-0.107l-23.273-24.661-23.246 24.661c-0.534 0.56-1.228 0.827-1.948 0.827z"></path>
</symbol>
<symbol id="ryumin-top" viewBox="0 0 80 32">
<path d="M27.695 9.088c-1.832-3.009-4.216-6.972-8.849-6.972-1.341 0-3.173 0.417-3.173 3.039v21.646c0 2.086 1.296 3.039 2.92 3.039h2.175v1.341h-12.678v-1.341h2.041c1.669 0 2.92-0.998 2.92-3.039v-21.631c0-2.503-1.669-3.039-3.218-3.039-4.529 0-7.002 3.963-8.79 6.957l-1.043-0.536 3.084-7.806h22.57l3.084 7.806-1.043 0.536z"></path>
<path d="M42.711 32c-6.838 0-13.467-5.304-13.467-16.015s6.629-15.985 13.467-15.985 13.438 5.169 13.438 15.97-6.719 16.015-13.438 16.015zM42.711 1.341c-1.088 0-2.339 0.164-3.59 0.67-1.966 0.79-3.337 2.25-4.291 3.71-1.624 2.458-2.384 7.047-2.384 10.682 0 5.467 1.966 14.272 10.264 14.272 2.413 0 5.512-0.834 7.762-4.261 1.832-2.831 2.458-6.555 2.458-10.428 0-5.959-1.922-14.644-10.22-14.644z"></path>
<path d="M69.825 16.775h-6.302v10.056c0 2.205 1.46 3.039 2.92 3.039h1.296v1.341h-11.099v-1.341h1.341c1.713 0 2.92-1.043 2.92-3.039v-21.661c0-1.966-1.132-3.039-2.92-3.039h-1.341v-1.371h11.978c2.875 0 11.352 0.507 11.352 7.926 0 4.842-3.635 8.089-10.13 8.089zM69.706 2.13h-3.248c-1.758 0-2.92 1.088-2.92 3.039v10.264h6.302c5.467 0 6.972-3.501 6.972-6.555 0-5.050-3.918-6.763-7.091-6.763z"></path>
</symbol>
<symbol id="ryumin-mypage" viewBox="0 0 182 32">
<path d="M28.414 2.291l-11.199 28.923h-1.249l-10.458-26.632v22.421c0 1.874 1.157 2.869 2.962 2.869h0.787v1.342h-9.255v-1.342h1.203c1.758 0 2.962-0.949 2.962-2.869v-21.958c0-1.874-1.157-2.869-2.962-2.869h-1.203v-1.388h7.705l9.926 25.66 9.949-25.66h8.214v1.388h-1.134c-2.291 0-2.962 1.041-2.962 2.869v21.958c0 1.782 1.088 2.869 2.962 2.869h1.134v1.342h-11.662v-1.342h1.296c1.782 0 3.008-0.995 3.008-2.869v-24.712z"></path>
<path d="M65.944 2.175c-2.036 0-4.003 0.532-5.623 3.448l-6.988 12.657v8.7c0 1.782 1.087 2.869 3.008 2.869h2.082v1.342h-13.466v-1.342h2.082c1.828 0 3.008-1.041 3.008-2.869v-8.26l-7.427-13.004c-1.99-3.448-3.864-3.586-5.206-3.586v-1.342h11.384v1.388h-1.157c-1.249 0-2.036 0.417-2.036 1.504 0 0.671 0.255 1.157 0.324 1.296l6.756 11.754 6.155-11.199c0.208-0.37 0.509-1.203 0.509-1.758 0-1.342-1.504-1.573-2.291-1.573h-1.666v-1.411h10.574v1.388z"></path>
<path d="M82.557 0.787h11.708c5.738 0 11.87 1.828 11.87 7.913 0 4.281-3.239 8.075-10.782 8.075h-5.090v10.204c0 1.828 1.157 2.869 2.962 2.869h1.342v1.342h-12.009v-1.342h1.458c1.758 0 2.962-0.949 2.962-2.869v-21.935c0-1.874-1.157-2.869-2.962-2.869h-1.458v-1.388zM90.262 15.456h4.257c4.535 0 7.659-2.175 7.659-6.664 0-4.211-3.031-6.617-7.173-6.617h-1.782c-1.782 0-2.962 0.995-2.962 2.869v10.412z"></path>
<path d="M108.657 20.5l-2.036 6.34c-0.116 0.324-0.255 0.74-0.255 1.365 0 1.55 1.157 1.666 1.758 1.666h1.157v1.342h-9.047v-1.342h1.365c1.758 0 3.239-1.782 3.91-3.841l8.237-25.244 3.656-0.787 9.116 27.048c0.833 2.406 1.92 2.823 3.077 2.823h0.926v1.342h-10.25v-1.342h1.249c0.625 0 1.712-0.578 1.712-1.828 0-0.463-0.116-0.74-0.37-1.55l-1.99-5.993h-12.217zM114.649 2.175l-5.53 17.006h11.291l-5.738-17.006z"></path>
<path d="M151.971 30.288c-0.787-0.208-1.134-0.324-1.712-0.324-0.324 0-0.833 0.046-2.545 0.74-2.823 1.203-4.327 1.296-5.623 1.296-8.283 0-12.911-6.826-12.911-15.757 0-9.463 5.16-16.243 12.379-16.243 0.74 0 1.782 0.046 4.003 0.717 1.342 0.416 1.666 0.416 1.967 0.416 0.417 0 1.458 0 2.753-1.041l2.707 8.006-1.249 0.532c-0.787-1.504-1.411-2.615-2.869-4.049-0.926-0.833-3.656-3.216-7.127-3.216-5.623 0-8.792 7.404-8.792 14.67 0 7.659 3.494 14.623 9.533 14.623 3.286 0 6.294-2.198 6.294-5.715v-2.406c0-2.198-1.55-3.031-3.124-3.031h-1.712v-1.342h11.037v1.342c-0.74 0-1.134 0-1.758 0.416-1.088 0.74-1.249 2.036-1.249 2.753v7.612z"></path>
<path d="M163.471 16.127v10.875c0 1.782 1.041 2.869 2.962 2.869h3.216c6.988 0 9.209-3.841 10.991-6.872l1.203 0.532-2.915 7.659h-23.277v-1.342h1.55c1.712 0 2.962-0.926 2.962-2.869v-21.935c0-1.874-1.157-2.869-2.962-2.869h-1.55v-1.388h22.745l2.707 6.756-1.134 0.717c-2.291-3.656-4.952-6.085-8.908-6.085h-4.628c-1.758 0-2.962 0.949-2.962 2.869v9.741h4.743c3.17 0 4.697-1.342 4.697-4.119v-1.088h1.342v11.916h-1.342v-1.249c0-3.008-2.175-4.119-4.697-4.119h-4.743z"></path>
</symbol>
<symbol id="ryumin-entry" viewBox="0 0 146 32">
<path d="M8.256 16.146v11.446c0 1.875 1.096 3.020 3.117 3.020h3.385c7.355 0 9.693-4.043 11.568-7.233l1.266 0.56-3.069 8.061h-24.524v-1.412h1.632c1.802 0 3.117-0.974 3.117-3.020v-23.087c-0.024-1.973-1.242-3.044-3.117-3.044h-1.632v-1.437h23.939l2.849 7.111-1.193 0.755c-2.411-3.848-5.212-6.405-9.376-6.405h-4.871c-1.851 0-3.117 0.998-3.117 3.020v10.253h4.992c3.336 0 4.944-1.412 4.944-4.335v-1.145h1.412v12.542h-1.412v-1.315c0-3.166-2.289-4.335-4.944-4.335h-4.968z"></path>
<path d="M53.577 32l-18.387-28.177v22.965c0 2.289 1.412 3.823 3.823 3.823h1.193v1.412h-11.397v-1.412h1.412c2.143 0 3.604-1.266 3.604-3.823v-21.918c0-2.143-1.583-3.409-3.604-3.409h-1.412v-1.461h8.11l16.487 25.571v-20.651c0-2.094-1.486-3.458-3.409-3.458h-1.583v-1.461h11.446v1.437h-1.656c-2.070 0-3.336 1.193-3.336 3.458v27.105h-1.266z"></path>
<path d="M86.892 0l3.069 8.329-1.266 0.56c-1.583-2.752-4.262-7.452-8.913-7.452-2.24 0-3.117 1.266-3.117 3.020v23.135c0 1.924 1.218 3.020 3.166 3.020h2.192v1.412h-14.174v-1.412h2.24c1.851 0 3.117-0.998 3.117-3.020v-23.111c0-2.143-1.218-3.020-3.069-3.020-4.7 0-7.355 4.724-8.938 7.452l-1.266-0.56 3.069-8.329h23.89z"></path>
<path d="M103.769 0c5.382 0 12.103 1.534 12.103 7.623 0 2.021-0.755 4.067-2.898 5.869-1.802 1.486-3.409 1.973-5.212 2.46l4.992 10.959c0.998 2.192 2.752 3.677 5.26 3.677h0.755v1.412h-7.501l-7.111-15.659h-5.090v11.227c0 1.924 1.218 3.020 3.117 3.020h1.412v1.412h-12.493v-1.412h1.364c1.924 0 3.166-1.096 3.166-3.020v-23.087c0-1.875-1.145-3.020-3.166-3.020h-1.364v-1.461h12.664zM99.069 14.953h4.7c4.067 0 7.939-2.192 7.939-6.916 0-3.020-1.632-6.575-7.355-6.575h-2.143c-1.875 0-3.117 1.047-3.117 3.020v10.472z"></path>
<path d="M146.46 1.437c-2.143 0-4.213 0.56-5.918 3.629l-7.355 13.321v9.157c0 1.875 1.145 3.020 3.166 3.020h2.192v1.412h-14.174v-1.412h2.192c1.924 0 3.166-1.096 3.166-3.020v-8.694l-7.793-13.686c-2.094-3.629-4.067-3.775-5.479-3.775v-1.388h11.982v1.437h-1.218c-1.315 0-2.143 0.438-2.143 1.583 0 0.706 0.268 1.218 0.341 1.364l7.111 12.371 6.478-11.787c0.219-0.39 0.536-1.266 0.536-1.851 0-1.412-1.583-1.656-2.411-1.656h-1.753v-1.461h11.129v1.437z"></path>
</symbol>
<symbol id="site-title" viewBox="0 0 397 32">
<path d="M24.912 31.21v-1.339h1.173c1.67 0 2.92-0.956 2.92-3.047v-24.325l-11.436 28.711h-1.173l-10.964-28.711v24.338c0 2.167 1.377 3.047 2.92 3.047h0.829v1.339h-9.179v-1.339h1.045c1.581 0 2.92-0.918 2.92-3.047v-21.661c0-2.002-1.173-3.047-2.92-3.047h-1.045v-1.377h7.675l10.097 26.454 10.518-26.454h7.598v1.377h-1.249c-1.798 0-2.958 1.084-2.958 3.047v21.661c0 1.963 1.211 3.047 2.958 3.047h1.249v1.339h-10.977z"></path>
<path d="M64.178 8.516c-1.708-2.665-2.499-3.506-3.417-4.169-2.129-1.504-3.761-2.206-6.629-2.206h-4.628c-1.925 0-3.085 1.007-3.085 2.792v9.804h4.794c2.461 0 3.379-1.466 3.799-2.040 0.497-0.714 0.752-1.543 0.752-2.881h1.339v11.806h-1.339v-0.625c0-2.843-1.466-4.883-4.551-4.883h-4.794v10.352c0 1.67 0.625 3.417 3.085 3.417h1.415v1.339h-11.602v-1.339h1.339c0.918 0 3.085-0.752 3.085-3.468v-21.571c0-1.007-0.331-2.716-2.55-2.716h-1.874v-1.377h23.407l2.461 7.178-1.007 0.586z"></path>
<path d="M80.65 31.21h-14.19v-1.339h1.249c1.045 0 2.958-0.829 2.958-3.927v-20.564c0-2.002-0.79-3.251-2.792-3.251h-1.415v-1.377h13.603c5.712 0 10.059 2.295 10.059 7.050s-4.59 6.387-6.719 7.050c1.67 0.331 3.544 0.714 5.597 2.384 1.747 1.415 2.92 3.468 2.92 5.712 0 3.927-3.468 8.261-11.27 8.261zM80.65 2.129h-4.003c-2.55 0-3.34 1.045-3.34 2.881v9.307h7.382c3.251 0 6.26-1.874 6.26-6.298 0-3.544-2.002-5.877-6.298-5.877zM80.943 15.643h-7.637v11.104c0 1.708 0.548 3.123 4.092 3.123h3.251c4.551 0 7.93-1.963 7.93-6.846 0-3.34-1.67-7.382-7.637-7.382z"></path>
<path d="M118.12 31.21v-1.339h1.173c1.67 0 2.92-0.956 2.92-3.047v-24.325l-11.436 28.711h-1.173l-10.964-28.711v24.338c0 2.167 1.377 3.047 2.92 3.047h0.829v1.339h-9.179v-1.339h1.045c1.581 0 2.92-0.918 2.92-3.047v-21.661c0-2.002-1.173-3.047-2.92-3.047h-1.045v-1.377h7.675l10.097 26.454 10.531-26.454h7.598v1.377h-1.249c-1.798 0-2.958 1.084-2.958 3.047v21.661c0 1.963 1.211 3.047 2.958 3.047h1.249v1.339h-10.977z"></path>
<path d="M166.528 31.21l-8.516-14.98h-4.845v10.594c0 2.091 1.288 3.047 2.958 3.047h1.288v1.339h-11.143v-1.339h1.249c1.708 0 2.958-1.045 2.958-3.047v-21.648c0-2.002-1.173-3.047-2.958-3.047h-1.249v-1.377h12.851c5.010 0 10.645 1.798 10.645 7.343 0 2.422-1.173 4.386-2.843 5.673-2.040 1.581-4.041 1.963-6.005 2.295l6.26 10.939c1.211 2.091 2.588 2.881 4.628 2.881h0.625v1.339h-5.928zM159.426 2.129h-3.302c-1.874 0-2.958 1.173-2.958 3.047v9.677h6.005c3.965 0 7.343-2.167 7.343-6.425s-3.174-6.298-7.088-6.298z"></path>
<path d="M197.444 31.21h-22.706v-1.339h1.045c1.377 0 3.009-0.918 3.009-3.009v-21.775c0-1.874-1.045-2.958-2.792-2.958h-1.249v-1.377h22.030l2.754 6.974-1.084 0.497c-1.415-2.002-4.22-6.094-9.766-6.094h-3.927c-2.422 0-3.302 1.045-3.302 2.881v9.842h5.342c2.040 0 4.003-1.798 4.003-4.5v-0.663h1.339v11.933h-1.339v-1.466c0-2.002-1.339-3.927-4.003-3.927h-5.342v10.76c0 1.708 1.211 2.881 3.009 2.881h2.92c3.417 0 6.132-1.045 7.471-1.874 2.588-1.632 3.582-3.582 4.335-5.010l1.122 0.497-2.881 7.726z"></path>
<path d="M227.2 23.165c-1.67 3.213-4.551 8.848-12.392 8.848-9.727 0-12.889-8.185-12.889-15.732 0-11.767 7.267-16.268 13.399-16.268 0.625 0 1.504 0 3.506 0.663 1.288 0.459 1.67 0.459 1.925 0.459s1.504 0 3.047-1.122l3.009 7.598-1.543 0.663c-1.466-2.206-4.462-6.808-10.135-6.808-7.726 0-10.225 7.802-10.225 13.807 0 8.465 4.5 14.687 11.27 14.687 5.877 0 8.465-4.921 9.842-7.547l1.211 0.752z"></path>
<path d="M248.096 31.21l-8.516-14.98h-4.845v10.594c0 2.091 1.288 3.047 2.958 3.047h1.288v1.339h-11.143v-1.339h1.249c1.708 0 2.958-1.045 2.958-3.047v-21.648c0-2.002-1.173-3.047-2.958-3.047h-1.249v-1.377h12.851c5.010 0 10.645 1.798 10.645 7.343 0 2.422-1.173 4.386-2.843 5.673-2.040 1.581-4.041 1.963-6.005 2.295l6.26 10.939c1.211 2.091 2.588 2.881 4.628 2.881h0.625v1.339h-5.928zM241.007 2.129h-3.302c-1.874 0-2.958 1.173-2.958 3.047v9.677h6.005c3.965 0 7.343-2.167 7.343-6.425s-3.174-6.298-7.088-6.298z"></path>
<path d="M279.649 2.129c-1.747 0-2.92 1.045-2.92 3.047v16.153c0 6.591-3.468 10.684-10.059 10.684-2.792 0-5.597-0.79-7.598-2.754-2.167-2.129-2.754-5.253-2.754-8.3v-15.783c0-1.925-1.084-3.047-2.92-3.047h-1.045v-1.377h10.811v1.377h-1.288c-1.747 0-2.92 1.045-2.92 3.047v15.732c0 5.508 2.295 9.638 8.427 9.638 5.214 0 8.006-3.672 8.006-8.516v-16.854c0-1.874-1.045-3.047-2.92-3.047h-1.173v-1.377h9.473v1.377h-1.122z"></path>
<path d="M282.773 31.21v-1.339h2.257c1.504 0 2.92-0.829 2.92-3.047v-21.648c0-1.925-1.084-3.047-2.92-3.047h-2.257v-1.377h13.017v1.377h-2.206c-1.747 0-2.92 1.045-2.92 3.047v21.661c0 2.040 1.249 3.047 2.92 3.047h2.206v1.339h-13.017z"></path>
<path d="M323.659 9.103c-1.836-3.009-4.22-6.974-8.848-6.974-1.339 0-3.175 0.421-3.175 3.047v21.661c0 2.091 1.288 3.047 2.92 3.047h2.167v1.339h-12.685v-1.339h2.040c1.67 0 2.92-1.007 2.92-3.047v-21.661c0-2.499-1.67-3.047-3.213-3.047-4.551 0-7.012 3.965-8.81 6.974l-1.045-0.548 3.085-7.802h22.579l3.085 7.802-1.045 0.548z"></path>
<path d="M325.712 31.21v-1.339h2.257c1.504 0 2.92-0.829 2.92-3.047v-21.648c0-1.925-1.084-3.047-2.92-3.047h-2.257v-1.377h13.017v1.377h-2.206c-1.747 0-2.92 1.045-2.92 3.047v21.661c0 2.040 1.249 3.047 2.92 3.047h2.206v1.339h-13.017z"></path>
<path d="M370.894 2.129c-2.333 0-3.799 1.747-3.799 4.628v24.453h-1.288l-17.772-27.793v22.617c0 2.129 1.249 3.837 2.92 3.837h2.040v1.339h-11.143v-1.339h1.798c1.708 0 2.92-1.836 2.92-3.837v-20.488c0-2.167-1.708-3.417-3.302-3.417h-1.415v-1.377h7.547l16.268 25.371v-19.366c0-4.628-3.123-4.628-4.335-4.628v-1.377h10.186v1.377h-0.625z"></path>
<path d="M394.39 22.413v7.802c-0.37-0.089-0.956-0.255-1.67-0.255-0.548 0-1.632 0.421-2.206 0.663-2.461 0.956-4.296 1.377-6.094 1.377-5.928 0-12.774-4.335-12.774-15.771 0-10.76 6.005-16.229 12.226-16.229 0.548 0 1.543 0 3.799 0.625 1.249 0.37 1.581 0.37 1.836 0.37 1.581 0 2.333-0.497 3.047-0.956l2.716 7.892-1.339 0.663c-1.249-2.384-1.925-3.302-3.085-4.386-2.091-1.925-4.462-2.754-6.591-2.754-6.26 0-9.511 7.305-9.511 14.687 0 8.465 4.092 14.394 10.021 14.394 3.009 0 6.974-1.747 6.974-6.094v-2.040c0-1.963-1.122-3.047-2.92-3.047h-1.798v-1.339h10.48v1.339c-1.084 0-3.085 0-3.085 3.047z"></path>
</symbol>
<symbol id="ryumin-project" viewBox="0 0 150 32">
<path d="M11.102 14.118h-5.306v8.467c0 1.863 1.229 2.565 2.459 2.565h1.091v1.123h-9.345v-1.123h1.123c1.443 0 2.459-0.878 2.459-2.565v-18.233c0-1.65-0.947-2.565-2.459-2.565h-1.123v-1.16h10.079c2.421 0 9.552 0.42 9.552 6.673 0 4.077-3.055 6.811-8.536 6.811zM10.995 1.788h-2.741c-1.474 0-2.459 0.916-2.459 2.565v8.643h5.306c4.604 0 5.864-2.948 5.864-5.513 0-4.252-3.299-5.689-5.971-5.689z"></path>
<path d="M36.422 26.274l-7.163-12.607h-4.077v8.919c0 1.756 1.091 2.565 2.496 2.565h1.091v1.123h-9.377v-1.123h1.054c1.443 0 2.496-0.878 2.496-2.565v-18.233c0-1.687-0.985-2.565-2.496-2.565h-1.054v-1.16h10.819c4.215 0 8.957 1.512 8.957 6.184 0 2.038-0.985 3.688-2.39 4.779-1.719 1.336-3.406 1.65-5.055 1.932l5.269 9.201c1.016 1.756 2.176 2.421 3.901 2.421h0.527v1.123h-4.986zM30.451 1.794h-2.772c-1.581 0-2.496 0.985-2.496 2.565v8.147h5.055c3.337 0 6.184-1.825 6.184-5.407s-2.672-5.306-5.971-5.306z"></path>
<path d="M54.090 26.938c-5.758 0-11.346-4.459-11.346-13.485s5.582-13.454 11.346-13.454 11.309 4.353 11.309 13.454-5.657 13.485-11.309 13.485zM54.090 1.123c-0.916 0-1.969 0.138-3.023 0.565-1.65 0.665-2.81 1.894-3.619 3.123-1.367 2.070-2.001 5.933-2.001 8.994 0 4.604 1.65 12.011 8.643 12.011 2.038 0 4.635-0.702 6.535-3.581 1.543-2.39 2.070-5.513 2.070-8.781 0-5.024-1.618-12.331-8.605-12.331z"></path>
<path d="M76.325 1.794c-1.443 0-2.459 0.84-2.459 2.565v19.531c0 6.078-3.864 8.116-6.887 8.116-1.894 0-3.023-0.985-3.023-2.214 0-1.123 0.878-1.894 1.969-1.894 0.878 0 1.443 0.527 1.618 1.123 0.138 0.564 0.351 1.229 1.367 1.229 1.123 0 2.672-1.229 2.672-5.407v-20.491c0-1.581-0.878-2.565-2.459-2.565h-1.65v-1.16h10.292v1.16h-1.443z"></path>
<path d="M99.080 26.274h-19.105v-1.123h0.878c1.16 0 2.528-0.771 2.528-2.528v-18.339c0-1.581-0.878-2.496-2.352-2.496h-1.054v-1.16h18.546l2.321 5.864-0.916 0.42c-1.192-1.687-3.55-5.131-8.216-5.131h-3.299c-2.038 0-2.772 0.878-2.772 2.421v8.292h4.497c1.719 0 3.374-1.512 3.374-3.795v-0.565h1.123v10.048h-1.123v-1.229c0-1.687-1.123-3.299-3.374-3.299h-4.497v9.063c0 1.443 1.016 2.421 2.528 2.421h2.459c2.879 0 5.162-0.878 6.285-1.581 2.176-1.367 3.023-3.023 3.65-4.215l0.947 0.42-2.421 6.498z"></path>
<path d="M124.826 19.494c-1.405 2.703-3.826 7.445-10.43 7.445-8.185 0-10.851-6.887-10.851-13.24 0-9.904 6.109-13.698 11.277-13.698 0.527 0 1.267 0 2.948 0.565 1.091 0.389 1.405 0.389 1.618 0.389s1.267 0 2.565-0.947l2.528 6.391-1.298 0.564c-1.229-1.863-3.757-5.726-8.536-5.726-6.498 0-8.605 6.567-8.605 11.628 0 7.131 3.795 12.362 9.483 12.362 4.955 0 7.131-4.146 8.292-6.36l1.016 0.633z"></path>
<path d="M149.344 7.658c-1.543-2.528-3.55-5.864-7.445-5.864-1.123 0-2.672 0.351-2.672 2.565v18.227c0 1.756 1.091 2.565 2.459 2.565h1.825v1.123h-10.675v-1.123h1.719c1.405 0 2.459-0.84 2.459-2.565v-18.233c0-2.107-1.405-2.565-2.703-2.565-3.826 0-5.902 3.337-7.414 5.864l-0.878-0.458 2.597-6.567h19.004l2.597 6.567-0.878 0.458z"></path>
</symbol>
<symbol id="ryumin-person" viewBox="0 0 159 32">
<path d="M13.187 16.771h-6.303v10.058c0 2.213 1.46 3.047 2.921 3.047h1.296v1.334h-11.101v-1.334h1.334c1.714 0 2.921-1.043 2.921-3.047v-21.659c0-1.96-1.125-3.047-2.921-3.047h-1.334v-1.378h11.973c2.876 0 11.347 0.499 11.347 7.927 0 4.843-3.628 8.091-10.14 8.091zM13.061 2.123h-3.256c-1.751 0-2.921 1.088-2.921 3.047v10.267h6.303c5.469 0 6.966-3.502 6.966-6.549 0-5.051-3.919-6.758-7.093-6.758z"></path>
<path d="M46.439 31.21h-22.694v-1.334h1.043c1.378 0 3.003-0.916 3.003-3.003v-21.785c0-1.878-1.043-2.965-2.794-2.965h-1.252v-1.378h22.031l2.757 6.966-1.088 0.499c-1.416-2.004-4.217-6.095-9.76-6.095h-3.919c-2.421 0-3.293 1.043-3.293 2.876v9.85h5.342c2.041 0 4.008-1.796 4.008-4.508v-0.671h1.334v11.936h-1.334v-1.46c0-2.004-1.334-3.919-4.008-3.919h-5.342v10.766c0 1.714 1.207 2.876 3.003 2.876h2.921c3.42 0 6.132-1.043 7.465-1.878 2.585-1.624 3.591-3.591 4.336-5.007l1.125 0.499-2.876 7.719z"></path>
<path d="M71.845 31.21l-8.508-14.976h-4.843v10.595c0 2.086 1.296 3.047 2.965 3.047h1.296v1.334h-11.139v-1.334h1.252c1.714 0 2.965-1.043 2.965-3.047v-21.659c0-2.004-1.17-3.047-2.965-3.047h-1.252v-1.378h12.852c5.007 0 10.639 1.796 10.639 7.346 0 2.421-1.17 4.381-2.839 5.677-2.041 1.587-4.046 1.96-6.005 2.295l6.258 10.93c1.207 2.086 2.585 2.876 4.634 2.876h0.626v1.334h-5.923zM64.752 2.131h-3.293c-1.878 0-2.965 1.17-2.965 3.047v9.678h6.005c3.964 0 7.346-2.168 7.346-6.422s-3.174-6.303-7.093-6.303z"></path>
<path d="M90.874 32c-1.751 0-3.174-0.335-4.753-0.879-1.125-0.373-1.378-0.373-1.624-0.373-0.961 0-2.131 0.79-2.839 1.252l-3.383-8.054 1.587-0.753c1.542 2.459 4.545 7.346 10.721 7.346 4.671 0 6.549-3.673 6.549-6.676 0-5.171-4.843-6.385-8.635-7.302-4.336-1.088-9.015-2.63-9.015-8.717 0-1.088 0.209-3.755 2.131-5.677 2.041-2.004 4.962-2.168 6.385-2.168s2.503 0.164 3.919 0.581c0.879 0.291 1.088 0.291 1.296 0.291 0.916 0 1.796-0.373 2.585-0.834l2.876 7.22-1.252 0.626c-1.296-2.168-3.882-6.549-9.514-6.549-5.007 0-6.095 3.755-6.095 5.923 0 4.254 3.837 5.379 8.009 6.467 5.342 1.378 10.058 3.003 10.058 9.514 0 2.839-1.334 8.762-9.015 8.762z"></path>
<path d="M116.027 32c-6.84 0-13.478-5.297-13.478-16.019s6.638-15.981 13.478-15.981 13.433 5.171 13.433 15.981-6.72 16.019-13.433 16.019zM116.027 1.334c-1.088 0-2.339 0.164-3.591 0.671-1.96 0.79-3.338 2.25-4.299 3.71-1.624 2.459-2.377 7.048-2.377 10.684 0 5.469 1.96 14.268 10.267 14.268 2.421 0 5.506-0.834 7.763-4.254 1.833-2.839 2.459-6.549 2.459-10.431 0-5.968-1.922-14.648-10.222-14.648z"></path>
<path d="M158.629 2.131c-2.339 0-3.8 1.751-3.8 4.634v24.453h-1.296l-17.777-27.79v22.612c0 2.131 1.252 3.837 2.921 3.837h2.041v1.334h-11.139v-1.334h1.796c1.714 0 2.921-1.833 2.921-3.837v-20.489c0-2.168-1.714-3.42-3.293-3.42h-1.416v-1.378h7.555l16.272 25.369v-19.364c0-4.634-3.129-4.634-4.336-4.634v-1.378h10.177v1.378h-0.626z"></path>
</symbol>
<symbol id="ryumin-job" viewBox="0 0 58 32">
<path d="M12.362 1.794c-1.443 0-2.459 0.84-2.459 2.565v19.531c0 6.078-3.864 8.116-6.887 8.116-1.894 0-3.023-0.985-3.023-2.214 0-1.123 0.878-1.894 1.969-1.894 0.878 0 1.443 0.527 1.618 1.123 0.138 0.564 0.351 1.229 1.367 1.229 1.123 0 2.672-1.229 2.672-5.407v-20.491c0-1.581-0.878-2.565-2.459-2.565h-1.65v-1.16h10.292v1.16h-1.443z"></path>
<path d="M25.358 26.938c-5.758 0-11.346-4.459-11.346-13.485s5.588-13.454 11.346-13.454 11.309 4.353 11.309 13.454-5.657 13.485-11.309 13.485zM25.358 1.123c-0.916 0-1.969 0.138-3.023 0.565-1.65 0.665-2.81 1.894-3.619 3.123-1.367 2.070-2.001 5.933-2.001 8.994 0 4.604 1.65 12.011 8.643 12.011 2.038 0 4.635-0.702 6.535-3.581 1.543-2.39 2.070-5.513 2.070-8.781 0-5.024-1.618-12.331-8.605-12.331z"></path>
<path d="M48.715 26.274h-11.942v-1.123h1.054c0.878 0 2.496-0.702 2.496-3.299v-17.323c0-1.687-0.665-2.741-2.352-2.741h-1.192v-1.16h11.453c4.811 0 8.467 1.932 8.467 5.933s-3.864 5.375-5.657 5.933c1.405 0.282 2.986 0.596 4.704 2.001 1.474 1.192 2.459 2.916 2.459 4.811 0 3.299-2.916 6.956-9.483 6.956zM48.715 1.794h-3.374c-2.145 0-2.81 0.878-2.81 2.421v7.834h6.216c2.741 0 5.269-1.581 5.269-5.306 0-2.986-1.687-4.955-5.306-4.955zM48.96 13.171h-6.429v9.345c0 1.443 0.458 2.634 3.443 2.634h2.741c3.826 0 6.673-1.65 6.673-5.758 0-2.81-1.405-6.216-6.429-6.216z"></path>
</symbol>
<symbol id="ryumin-culture" viewBox="0 0 190 32">
<path d="M25.287 23.156c-1.669 3.211-4.545 8.844-12.39 8.844-9.723 0-12.897-8.173-12.897-15.728 0-11.764 7.257-16.272 13.396-16.272 0.626 0 1.505 0 3.502 0.671 1.296 0.462 1.669 0.462 1.922 0.462s1.505 0 3.047-1.125l3.003 7.592-1.542 0.671c-1.46-2.213-4.463-6.802-10.14-6.802-7.719-0.007-10.222 7.793-10.222 13.806 0 8.471 4.508 14.685 11.265 14.685 5.886 0 8.471-4.925 9.85-7.555l1.207 0.753z"></path>
<path d="M53.323 2.131c-1.751 0-2.921 1.043-2.921 3.047v16.145c0 6.594-3.465 10.684-10.058 10.684-2.794 0-5.588-0.79-7.592-2.757-2.168-2.131-2.757-5.26-2.757-8.3v-15.78c0-1.922-1.088-3.047-2.921-3.047h-1.043v-1.378h10.803v1.378h-1.296c-1.751 0-2.921 1.043-2.921 3.047v15.728c0 5.506 2.295 9.641 8.427 9.641 5.215 0 8.009-3.673 8.009-8.508v-16.861c0-1.878-1.043-3.047-2.921-3.047h-1.17v-1.378h9.47v1.378h-1.125z"></path>
<path d="M77.523 31.21h-20.817v-1.334h1.088c1.624 0 2.921-0.998 2.921-3.047v-21.659c0-1.878-1.043-3.047-2.921-3.047h-1.088v-1.378h11.057v1.378h-1.505c-1.751 0-2.921 1.043-2.921 3.047v21.651c0 2.004 1.252 3.047 2.921 3.047h2.213c2.667 0 4.962-0.79 7.763-2.965 1.296-0.998 2.421-2.63 3.129-3.837l1.088 0.544-2.921 7.592z"></path>
<path d="M103.182 9.097c-1.833-3.003-4.217-6.966-8.844-6.966-1.334 0-3.174 0.417-3.174 3.047v21.651c0 2.086 1.296 3.047 2.921 3.047h2.168v1.334h-12.681v-1.334h2.041c1.669 0 2.921-0.998 2.921-3.047v-21.659c0-2.503-1.669-3.047-3.211-3.047-4.545 0-7.011 3.964-8.807 6.966l-1.043-0.544 3.085-7.801h22.575l3.085 7.801-1.043 0.544z"></path>
<path d="M132.925 2.131c-1.751 0-2.921 1.043-2.921 3.047v16.145c0 6.594-3.465 10.684-10.058 10.684-2.794 0-5.588-0.79-7.592-2.757-2.168-2.131-2.757-5.26-2.757-8.3v-15.78c0-1.922-1.088-3.047-2.921-3.047h-1.043v-1.378h10.803v1.378h-1.296c-1.751 0-2.921 1.043-2.921 3.047v15.728c0 5.506 2.295 9.641 8.427 9.641 5.215 0 8.009-3.673 8.009-8.508v-16.861c0-1.878-1.043-3.047-2.921-3.047h-1.17v-1.378h9.47v1.378h-1.125z"></path>
<path d="M156.625 31.21l-8.508-14.976h-4.843v10.595c0 2.086 1.296 3.047 2.965 3.047h1.296v1.334h-11.139v-1.334h1.252c1.714 0 2.965-1.043 2.965-3.047v-21.659c0-2.004-1.17-3.047-2.965-3.047h-1.252v-1.378h12.852c5.007 0 10.639 1.796 10.639 7.346 0 2.421-1.17 4.381-2.839 5.677-2.041 1.587-4.046 1.96-6.005 2.295l6.258 10.93c1.207 2.086 2.585 2.876 4.634 2.876h0.626v1.334h-5.923zM149.532 2.131h-3.293c-1.878 0-2.965 1.17-2.965 3.047v9.678h6.005c3.964 0 7.346-2.168 7.346-6.422s-3.174-6.303-7.093-6.303z"></path>
<path d="M186.71 31.21h-22.694v-1.334h1.043c1.378 0 3.003-0.916 3.003-3.003v-21.785c0-1.878-1.043-2.965-2.794-2.965h-1.252v-1.378h22.031l2.757 6.966-1.088 0.499c-1.416-2.004-4.217-6.095-9.76-6.095h-3.919c-2.421 0-3.293 1.043-3.293 2.876v9.85h5.342c2.041 0 4.008-1.796 4.008-4.508v-0.671h1.334v11.936h-1.334v-1.46c0-2.004-1.334-3.919-4.008-3.919h-5.342v10.766c0 1.714 1.207 2.876 3.003 2.876h2.921c3.42 0 6.132-1.043 7.465-1.878 2.585-1.624 3.591-3.591 4.336-5.007l1.125 0.499-2.876 7.719z"></path>
</symbol>
<symbol id="ryumin-business" viewBox="0 0 193 32">
<path d="M14.186 31.21h-14.186v-1.334h1.252c1.043 0 2.965-0.834 2.965-3.919v-20.578c0-2.004-0.79-3.256-2.794-3.256h-1.423v-1.378h13.605c5.715 0 10.058 2.295 10.058 7.048s-4.59 6.385-6.72 7.048c1.669 0.335 3.546 0.708 5.588 2.377 1.751 1.416 2.921 3.465 2.921 5.715 0 3.919-3.465 8.263-11.265 8.263zM14.186 2.131h-4.008c-2.548 0-3.338 1.043-3.338 2.876v9.306h7.383c3.256 0 6.258-1.878 6.258-6.303 0-3.546-2.004-5.886-6.303-5.886zM14.476 15.646h-7.637v11.101c0 1.714 0.544 3.129 4.090 3.129h3.256c4.545 0 7.927-1.959 7.927-6.84 0-3.338-1.669-7.383-7.637-7.383z"></path>
<path d="M52.236 2.131c-1.751 0-2.921 1.043-2.921 3.047v16.145c0 6.594-3.465 10.684-10.058 10.684-2.794 0-5.588-0.79-7.592-2.757-2.168-2.131-2.757-5.26-2.757-8.3v-15.78c0-1.922-1.088-3.047-2.921-3.047h-1.043v-1.378h10.803v1.378h-1.296c-1.751 0-2.921 1.043-2.921 3.047v15.728c0 5.506 2.295 9.641 8.427 9.641 5.215 0 8.009-3.673 8.009-8.508v-16.861c0-1.878-1.043-3.047-2.921-3.047h-1.17v-1.378h9.47v1.378h-1.125z"></path>
<path d="M65.55 32c-1.751 0-3.174-0.335-4.753-0.879-1.125-0.373-1.378-0.373-1.624-0.373-0.961 0-2.131 0.79-2.839 1.252l-3.383-8.054 1.587-0.753c1.542 2.459 4.545 7.346 10.721 7.346 4.671 0 6.549-3.673 6.549-6.676 0-5.171-4.843-6.385-8.635-7.302-4.336-1.088-9.015-2.63-9.015-8.717 0-1.088 0.209-3.755 2.131-5.677 2.041-2.004 4.962-2.168 6.385-2.168s2.503 0.164 3.919 0.581c0.879 0.291 1.088 0.291 1.296 0.291 0.916 0 1.796-0.373 2.585-0.834l2.876 7.22-1.252 0.626c-1.296-2.168-3.882-6.549-9.514-6.549-5.007 0-6.095 3.755-6.095 5.923 0 4.254 3.837 5.379 8.009 6.467 5.342 1.378 10.058 3.003 10.058 9.514 0 2.839-1.334 8.762-9.015 8.762z"></path>
<path d="M75.228 31.21v-1.334h2.25c1.505 0 2.921-0.834 2.921-3.047v-21.659c0-1.922-1.088-3.047-2.921-3.047h-2.25v-1.378h13.016v1.378h-2.213c-1.751 0-2.921 1.043-2.921 3.047v21.651c0 2.041 1.252 3.047 2.921 3.047h2.213v1.334h-13.016z"></path>
<path d="M119.573 2.131c-2.339 0-3.8 1.751-3.8 4.634v24.453h-1.296l-17.777-27.79v22.612c0 2.131 1.252 3.837 2.921 3.837h2.041v1.334h-11.139v-1.334h1.796c1.714 0 2.921-1.833 2.921-3.837v-20.489c0-2.168-1.714-3.42-3.293-3.42h-1.416v-1.378h7.555l16.272 25.369v-19.364c0-4.634-3.129-4.634-4.336-4.634v-1.378h10.177v1.378h-0.626z"></path>
<path d="M144.399 31.21h-22.694v-1.334h1.043c1.378 0 3.003-0.916 3.003-3.003v-21.785c0-1.878-1.043-2.965-2.794-2.965h-1.252v-1.378h22.031l2.757 6.966-1.088 0.499c-1.416-2.004-4.217-6.095-9.76-6.095h-3.919c-2.421 0-3.293 1.043-3.293 2.876v9.85h5.342c2.041 0 4.008-1.796 4.008-4.508v-0.671h1.334v11.936h-1.334v-1.46c0-2.004-1.334-3.919-4.008-3.919h-5.342v10.766c0 1.714 1.207 2.876 3.003 2.876h2.921c3.42 0 6.132-1.043 7.465-1.878 2.585-1.624 3.591-3.591 4.336-5.007l1.125 0.499-2.876 7.719z"></path>
<path d="M161.088 32c-1.751 0-3.174-0.335-4.753-0.879-1.125-0.373-1.378-0.373-1.624-0.373-0.961 0-2.131 0.79-2.839 1.252l-3.383-8.054 1.587-0.753c1.542 2.459 4.545 7.346 10.721 7.346 4.671 0 6.549-3.673 6.549-6.676 0-5.171-4.843-6.385-8.635-7.302-4.336-1.088-9.015-2.63-9.015-8.717 0-1.088 0.209-3.755 2.131-5.677 2.041-2.004 4.962-2.168 6.385-2.168s2.503 0.164 3.919 0.581c0.879 0.291 1.088 0.291 1.296 0.291 0.916 0 1.796-0.373 2.585-0.834l2.876 7.22-1.252 0.626c-1.296-2.168-3.882-6.549-9.514-6.549-5.007 0-6.095 3.755-6.095 5.923 0 4.254 3.837 5.379 8.009 6.467 5.342 1.378 10.058 3.003 10.058 9.514 0 2.839-1.334 8.762-9.015 8.762z"></path>
<path d="M184.289 32c-1.751 0-3.174-0.335-4.753-0.879-1.125-0.373-1.378-0.373-1.624-0.373-0.961 0-2.131 0.79-2.839 1.252l-3.383-8.054 1.587-0.753c1.542 2.459 4.545 7.346 10.721 7.346 4.671 0 6.549-3.673 6.549-6.676 0-5.171-4.843-6.385-8.635-7.302-4.336-1.088-9.015-2.63-9.015-8.717 0-1.088 0.209-3.755 2.131-5.677 2.041-2.004 4.962-2.168 6.385-2.168s2.503 0.164 3.919 0.581c0.879 0.291 1.088 0.291 1.296 0.291 0.916 0 1.796-0.373 2.585-0.834l2.876 7.22-1.252 0.626c-1.296-2.168-3.882-6.549-9.514-6.549-5.007 0-6.095 3.755-6.095 5.923 0 4.254 3.837 5.379 8.009 6.467 5.342 1.378 10.058 3.003 10.058 9.514 0 2.839-1.334 8.762-9.015 8.762z"></path>
</symbol>
<symbol id="ryumin-about" viewBox="0 0 143 32">
<path d="M20.027 31.21v-1.334h1.46c1.505 0 1.714-0.834 1.714-1.587 0-0.209 0-0.581-0.291-1.416l-2.213-6.512h-12.562l-2.168 6.095c-0.045 0.082-0.335 0.961-0.335 1.714s0.209 1.714 1.922 1.714h0.671v1.334h-8.225v-1.334h0.79c1.669 0 3.003-1.207 3.591-2.876l9.343-26.382 2.921-0.626 9.261 27.202c0.499 1.505 1.542 2.667 3.338 2.667h1.296v1.334h-10.513zM14.558 2.168l-5.968 16.853h11.638l-5.67-16.853z"></path>
<path d="M45.016 31.21h-14.186v-1.334h1.252c1.043 0 2.965-0.834 2.965-3.919v-20.578c0-2.004-0.79-3.256-2.794-3.256h-1.416v-1.378h13.605c5.715 0 10.058 2.295 10.058 7.048s-4.59 6.385-6.72 7.048c1.669 0.335 3.546 0.708 5.588 2.377 1.751 1.416 2.921 3.465 2.921 5.715 0 3.919-3.465 8.263-11.265 8.263zM45.016 2.131h-4.008c-2.548 0-3.338 1.043-3.338 2.876v9.306h7.383c3.256 0 6.258-1.878 6.258-6.303 0-3.546-2.004-5.886-6.303-5.886zM45.307 15.646h-7.637v11.101c0 1.714 0.544 3.129 4.090 3.129h3.256c4.545 0 7.927-1.959 7.927-6.84 0-3.338-1.669-7.383-7.637-7.383z"></path>
<path d="M72.516 32c-6.84 0-13.478-5.297-13.478-16.019s6.631-15.981 13.478-15.981 13.433 5.171 13.433 15.981-6.72 16.019-13.433 16.019zM72.516 1.334c-1.088 0-2.339 0.164-3.591 0.671-1.96 0.79-3.338 2.25-4.299 3.71-1.624 2.459-2.377 7.048-2.377 10.684 0 5.469 1.959 14.268 10.267 14.268 2.421 0 5.506-0.834 7.763-4.254 1.833-2.839 2.459-6.549 2.459-10.431 0-5.968-1.922-14.648-10.222-14.648z"></path>
<path d="M113.486 2.131c-1.751 0-2.921 1.043-2.921 3.047v16.145c0 6.594-3.465 10.684-10.058 10.684-2.794 0-5.588-0.79-7.592-2.757-2.168-2.131-2.757-5.26-2.757-8.3v-15.78c0-1.922-1.088-3.047-2.921-3.047h-1.043v-1.378h10.803v1.378h-1.296c-1.751 0-2.921 1.043-2.921 3.047v15.728c0 5.506 2.295 9.641 8.427 9.641 5.215 0 8.009-3.673 8.009-8.508v-16.861c0-1.878-1.043-3.047-2.921-3.047h-1.17v-1.378h9.47v1.378h-1.125z"></path>
<path d="M142.067 9.097c-1.833-3.003-4.217-6.966-8.844-6.966-1.334 0-3.174 0.417-3.174 3.047v21.651c0 2.086 1.296 3.047 2.921 3.047h2.168v1.334h-12.681v-1.334h2.041c1.669 0 2.921-0.998 2.921-3.047v-21.659c0-2.503-1.669-3.047-3.211-3.047-4.545 0-7.011 3.964-8.807 6.966l-1.043-0.544 3.085-7.801h22.575l3.085 7.801-1.043 0.544z"></path>
</symbol>
<symbol id="ryumin-recruit" viewBox="0 0 190 32">
<path d="M20.227 31.202l-8.508-14.984h-4.844v10.594c0 2.086 1.288 3.048 2.957 3.048h1.288v1.342h-11.12v-1.342h1.252c1.705 0 2.957-1.034 2.957-3.048v-21.642c0-1.995-1.161-3.048-2.957-3.048h-1.252v-1.379h12.844c5.007 0 10.63 1.796 10.63 7.347 0 2.413-1.161 4.372-2.83 5.678-2.050 1.578-4.045 1.959-6.005 2.286l6.258 10.921c1.215 2.086 2.594 2.884 4.626 2.884h0.617v1.342h-5.932zM13.134 2.122h-3.302c-1.868 0-2.957 1.161-2.957 3.048v9.669h6.005c3.955 0 7.347-2.177 7.347-6.422s-3.175-6.295-7.093-6.295z"></path>
<path d="M51.156 31.202h-22.694v-1.342h1.034c1.379 0 3.011-0.925 3.011-3.011v-21.751c0-1.868-1.034-2.957-2.794-2.957h-1.252v-1.397h22.023l2.757 6.966-1.088 0.508c-1.415-1.995-4.209-6.095-9.76-6.095h-3.918c-2.413 0-3.302 1.034-3.302 2.884v9.85h5.333c2.050 0 4.009-1.796 4.009-4.499v-0.671h1.342v11.936h-1.342v-1.451c0-1.995-1.342-3.918-4.009-3.918h-5.333v10.757c0 1.705 1.215 2.884 3.011 2.884h2.921c3.429 0 6.132-1.034 7.474-1.868 2.594-1.633 3.592-3.592 4.336-5.007l1.125 0.508-2.884 7.71z"></path>
<path d="M82.558 23.147c-1.669 3.211-4.553 8.853-12.39 8.853-9.723 0-12.898-8.181-12.898-15.728 0-11.755 7.256-16.272 13.388-16.272 0.617 0 1.506 0 3.501 0.671 1.288 0.454 1.669 0.454 1.923 0.454s1.506 0 3.048-1.125l3.011 7.601-1.542 0.671c-1.451-2.213-4.463-6.803-10.141-6.803-7.71 0-10.213 7.8-10.213 13.805 0 8.472 4.499 14.676 11.265 14.676 5.878 0 8.472-4.916 9.85-7.547l1.215 0.744z"></path>
<path d="M105.977 31.202l-8.508-14.984h-4.844v10.594c0 2.086 1.288 3.048 2.957 3.048h1.288v1.342h-11.138v-1.342h1.252c1.705 0 2.957-1.034 2.957-3.048v-21.642c0-1.995-1.161-3.048-2.957-3.048h-1.252v-1.379h12.844c5.007 0 10.63 1.796 10.63 7.347 0 2.413-1.161 4.372-2.83 5.678-2.050 1.578-4.045 1.959-6.005 2.286l6.258 10.921c1.215 2.086 2.594 2.884 4.626 2.884h0.617v1.342h-5.932zM98.884 2.122h-3.302c-1.868 0-2.957 1.161-2.957 3.048v9.669h6.005c3.955 0 7.347-2.177 7.347-6.422s-3.175-6.295-7.093-6.295z"></path>
<path d="M141.678 2.122c-1.76 0-2.921 1.034-2.921 3.048v16.145c0 6.585-3.465 10.685-10.050 10.685-2.794 0-5.587-0.798-7.601-2.757-2.177-2.122-2.757-5.261-2.757-8.308v-15.764c0-1.923-1.088-3.048-2.921-3.048h-1.034v-1.379h10.812v1.379h-1.288c-1.76 0-2.921 1.034-2.921 3.048v15.728c0 5.515 2.286 9.633 8.435 9.633 5.206 0 8.018-3.664 8.018-8.508v-16.853c0-1.887-1.034-3.048-2.921-3.048h-1.161v-1.379h9.469v1.379h-1.125z"></path>
<path d="M145.651 31.202v-1.342h2.249c1.506 0 2.921-0.834 2.921-3.048v-21.642c0-1.923-1.088-3.048-2.921-3.048h-2.249v-1.379h13.007v1.379h-2.213c-1.76 0-2.921 1.034-2.921 3.048v21.642c0 2.050 1.252 3.048 2.921 3.048h2.213v1.342h-13.007z"></path>
<path d="M189.043 9.088c-1.832-3.011-4.209-6.966-8.853-6.966-1.342 0-3.175 0.417-3.175 3.048v21.642c0 2.086 1.288 3.048 2.921 3.048h2.177v1.342h-12.68v-1.342h2.050c1.669 0 2.921-0.998 2.921-3.048v-21.642c0-2.503-1.669-3.048-3.211-3.048-4.553 0-7.002 3.955-8.798 6.966l-1.034-0.544 3.084-7.8h22.567l3.084 7.8-1.034 0.544z"></path>
</symbol>
<symbol id="ryumin-movie" viewBox="0 0 143 32">
<path d="M24.907 31.202v-1.342h1.161c1.669 0 2.921-0.961 2.921-3.048v-24.308l-11.429 28.698h-1.161l-10.975-28.698v24.327c0 2.177 1.379 3.048 2.921 3.048h0.834v1.342h-9.179v-1.342h1.034c1.578 0 2.921-0.925 2.921-3.048v-21.66c0-1.995-1.161-3.048-2.921-3.048h-1.034v-1.379h7.673l10.086 26.449 10.522-26.449h7.601v1.379h-1.252c-1.796 0-2.957 1.088-2.957 3.048v21.642c0 1.959 1.215 3.048 2.957 3.048h1.252v1.342h-10.975z"></path>
<path d="M53.478 32c-6.839 0-13.478-5.297-13.478-16.018s6.639-15.982 13.478-15.982 13.424 5.17 13.424 15.982-6.712 16.018-13.424 16.018zM53.478 1.342c-1.088 0-2.34 0.163-3.592 0.671-1.959 0.798-3.338 2.249-4.299 3.719-1.633 2.467-2.376 7.057-2.376 10.685 0 5.46 1.959 14.259 10.268 14.259 2.413 0 5.515-0.834 7.764-4.263 1.832-2.83 2.467-6.549 2.467-10.431 0-5.968-1.923-14.639-10.213-14.639z"></path>
<path d="M98.757 2.122c-2.34 0-3.302 1.669-4.082 3.882l-9.433 25.995h-0.798l-9.215-26.939c-0.581-1.705-1.669-2.921-3.537-2.921h-0.744v-1.397h10.558v1.379h-1.125c-1.415 0-2.413 0.671-2.413 1.796 0 0.617 0.2 1.342 0.254 1.415l7.474 21.642 7.764-21.478c0.2-0.58 0.254-1.252 0.254-1.506 0-1.088-0.707-1.868-1.995-1.868h-1.796v-1.379h9.469v1.379h-0.581z"></path>
<path d="M102.186 31.202v-1.342h2.249c1.506 0 2.921-0.834 2.921-3.048v-21.642c0-1.923-1.088-3.048-2.921-3.048h-2.249v-1.379h13.007v1.379h-2.213c-1.76 0-2.921 1.034-2.921 3.048v21.642c0 2.050 1.252 3.048 2.921 3.048h2.213v1.342h-13.007z"></path>
<path d="M140.517 31.202h-22.694v-1.342h1.034c1.379 0 3.011-0.925 3.011-3.011v-21.751c0-1.868-1.034-2.957-2.794-2.957h-1.252v-1.397h22.023l2.757 6.966-1.088 0.508c-1.415-1.995-4.209-6.095-9.76-6.095h-3.918c-2.413 0-3.302 1.034-3.302 2.884v9.85h5.333c2.050 0 4.009-1.796 4.009-4.499v-0.671h1.342v11.936h-1.342v-1.451c0-1.995-1.342-3.918-4.009-3.918h-5.333v10.757c0 1.705 1.215 2.884 3.011 2.884h2.921c3.429 0 6.132-1.034 7.474-1.868 2.594-1.633 3.592-3.592 4.336-5.007l1.125 0.508-2.884 7.71z"></path>
</symbol>
<symbol id="ryumin-internship" viewBox="0 0 256 32">
<path d="M0 31.202v-1.342h2.249c1.506 0 2.921-0.834 2.921-3.048v-21.642c0-1.923-1.088-3.048-2.921-3.048h-2.249v-1.379h13.007v1.379h-2.213c-1.76 0-2.921 1.034-2.921 3.048v21.642c0 2.050 1.252 3.048 2.921 3.048h2.213v1.342h-13.007z"></path>
<path d="M45.188 2.122c-2.34 0-3.791 1.76-3.791 4.626v24.453h-1.288l-17.796-27.773v22.603c0 2.122 1.252 3.846 2.921 3.846h2.050v1.342h-11.138v-1.342h1.796c1.705 0 2.921-1.832 2.921-3.846v-20.481c0-2.177-1.705-3.429-3.302-3.429h-1.415v-1.379h7.546l16.272 25.361v-19.338c0-4.626-3.12-4.626-4.336-4.626v-1.397h10.177v1.379h-0.617z"></path>
<path d="M75.048 9.088c-1.832-3.011-4.209-6.966-8.853-6.966-1.342 0-3.175 0.417-3.175 3.048v21.642c0 2.086 1.288 3.048 2.921 3.048h2.177v1.342h-12.68v-1.342h2.050c1.669 0 2.921-0.998 2.921-3.048v-21.642c0-2.503-1.669-3.048-3.211-3.048-4.553 0-7.002 3.955-8.798 6.966l-1.034-0.544 3.084-7.8h22.567l3.084 7.8-1.034 0.544z"></path>
<path d="M100.009 31.202h-22.694v-1.342h1.034c1.379 0 3.011-0.925 3.011-3.011v-21.751c0-1.868-1.034-2.957-2.794-2.957h-1.252v-1.397h22.023l2.757 6.966-1.088 0.508c-1.415-1.995-4.209-6.095-9.76-6.095h-3.918c-2.413 0-3.302 1.034-3.302 2.884v9.85h5.333c2.050 0 4.009-1.796 4.009-4.499v-0.671h1.342v11.936h-1.342v-1.451c0-1.995-1.342-3.918-4.009-3.918h-5.333v10.757c0 1.705 1.215 2.884 3.011 2.884h2.921c3.429 0 6.132-1.034 7.474-1.868 2.594-1.633 3.592-3.592 4.336-5.007l1.125 0.508-2.884 7.71z"></path>
<path d="M124.571 31.202l-8.508-14.984h-4.844v10.594c0 2.086 1.288 3.048 2.957 3.048h1.288v1.342h-11.138v-1.342h1.252c1.705 0 2.957-1.034 2.957-3.048v-21.642c0-1.995-1.161-3.048-2.957-3.048h-1.252v-1.379h12.844c5.007 0 10.63 1.796 10.63 7.347 0 2.413-1.161 4.372-2.83 5.678-2.050 1.578-4.045 1.959-6.005 2.286l6.258 10.921c1.215 2.086 2.594 2.884 4.626 2.884h0.617v1.342h-5.932zM117.478 2.122h-3.302c-1.868 0-2.957 1.161-2.957 3.048v9.669h6.005c3.955 0 7.347-2.177 7.347-6.422s-3.175-6.295-7.093-6.295z"></path>
<path d="M161.506 2.122c-2.34 0-3.791 1.76-3.791 4.626v24.453h-1.288l-17.778-27.773v22.603c0 2.122 1.252 3.846 2.921 3.846h2.050v1.342h-11.138v-1.342h1.796c1.705 0 2.921-1.832 2.921-3.846v-20.481c0-2.177-1.705-3.429-3.302-3.429h-1.415v-1.379h7.547l16.272 25.361v-19.338c0-4.626-3.12-4.626-4.336-4.626v-1.397h10.177v1.379h-0.617z"></path>
<path d="M174.44 32c-1.76 0-3.175-0.327-4.753-0.871-1.125-0.381-1.379-0.381-1.633-0.381-0.961 0-2.122 0.798-2.83 1.252l-3.374-8.054 1.578-0.744c1.542 2.467 4.553 7.347 10.721 7.347 4.68 0 6.549-3.664 6.549-6.676 0-5.17-4.844-6.386-8.635-7.293-4.336-1.088-9.016-2.63-9.016-8.726 0-1.088 0.2-3.755 2.122-5.678 2.050-1.995 4.971-2.177 6.386-2.177s2.503 0.163 3.918 0.581c0.871 0.29 1.088 0.29 1.288 0.29 0.925 0 1.796-0.381 2.594-0.834l2.884 7.22-1.252 0.635c-1.288-2.177-3.882-6.549-9.506-6.549-5.007 0-6.095 3.755-6.095 5.932 0 4.263 3.846 5.388 8.018 6.458 5.333 1.379 10.050 3.011 10.050 9.506 0 2.83-1.342 8.762-9.016 8.762z"></path>
<path d="M201.85 31.202v-1.342h1.252c1.669 0 2.921-0.961 2.921-3.048v-10.395h-14.512v10.395c0 1.995 1.161 3.048 2.921 3.048h1.252v1.342h-11.265v-1.342h1.506c1.633 0 2.921-0.961 2.921-3.048v-21.642c0-1.832-1.034-3.048-2.921-3.048h-1.506v-1.379h11.265v1.379h-1.252c-1.923 0-2.921 1.161-2.921 3.048v9.923h14.512v-9.923c0-1.832-0.998-3.048-2.921-3.048h-1.252v-1.379h11.229v1.379h-1.451c-1.796 0-2.921 1.034-2.921 3.048v21.642c0 2.122 1.288 3.048 2.921 3.048h1.451v1.342h-11.229z"></path>
<path d="M216.617 31.202v-1.342h2.249c1.506 0 2.921-0.834 2.921-3.048v-21.642c0-1.923-1.088-3.048-2.921-3.048h-2.249v-1.379h13.007v1.379h-2.213c-1.76 0-2.921 1.034-2.921 3.048v21.642c0 2.050 1.252 3.048 2.921 3.048h2.213v1.342h-13.007z"></path>
<path d="M246.331 16.762h-6.295v10.050c0 2.213 1.451 3.048 2.921 3.048h1.288v1.342h-11.102v-1.342h1.342c1.705 0 2.921-1.034 2.921-3.048v-21.642c0-1.959-1.125-3.048-2.921-3.048h-1.342v-1.379h11.973c2.884 0 11.338 0.508 11.338 7.927 0 4.844-3.628 8.091-10.141 8.091zM246.204 2.122h-3.247c-1.76 0-2.921 1.088-2.921 3.048v10.268h6.295c5.46 0 6.966-3.501 6.966-6.549 0-5.043-3.918-6.766-7.093-6.766z"></path>
</symbol>
<symbol id="external" viewBox="0 0 39 32">
<path d="M7.649 0v8.41h-7.649v23.59h31.577v-8.41h7.649v-23.59h-31.577zM29.563 21.576v8.41h-27.549v-19.579h27.566v11.169zM37.212 21.576h-5.652v-13.182h-21.897v-6.38h27.566v19.579z"></path>
</symbol>
<symbol id="double-colon" viewBox="0 0 41 32">
<path d="M9.442 13.944c-0.991 0-1.942 0.163-2.836 0.463 1.487-2.95 4.282-6.322 9.312-9.824 1.138-0.796 1.422-2.365 0.626-3.502s-2.365-1.422-3.502-0.626c-14.375 9.995-13.652 19.957-12.465 24.183 0.78 4.193 4.453 7.37 8.865 7.37 4.989 0 9.028-4.039 9.028-9.028s-4.039-9.028-9.028-9.028z"></path>
<path d="M31.821 13.944c-0.991 0-1.942 0.163-2.836 0.463 1.487-2.95 4.282-6.322 9.312-9.824 1.138-0.796 1.422-2.365 0.626-3.502s-2.365-1.422-3.502-0.626c-14.383 10.003-13.66 19.965-12.473 24.183 0.78 4.193 4.453 7.37 8.865 7.37 4.989 0 9.028-4.039 9.028-9.028s-4.039-9.028-9.028-9.028z"></path>
</symbol>
<symbol id="futura-pt-real-voice" viewBox="0 0 270 32">
<path d="M4.635 1.387c1.949 0 4.852 0.129 7.017 1.604 1.692 1.123 3.16 3.336 3.16 6.408 0 4.419-2.903 7.667-7.274 7.971l9.182 12.904h-3.898l-8.797-12.647h-0.826v12.647h-3.201v-28.887h4.635zM3.207 14.765h2.037c3.986 0 6.368-1.908 6.368-5.285 0-1.604-0.474-3.207-2.294-4.243-1.299-0.738-2.774-0.826-4.155-0.826h-1.949v10.346z"></path>
<path d="M43.652 4.419h-11.781v8.573h11.429v3.032h-11.429v11.213h11.781v3.032h-14.982v-28.881h14.982v3.031z"></path>
<path d="M72.411 22.127h-12.295l-3.465 8.14h-3.553l13.29-30.268 12.945 30.268h-3.553l-3.377-8.14zM71.152 19.096l-4.852-11.564-4.94 11.564h9.785z"></path>
<path d="M93.544 1.387v25.856h7.971v3.032h-11.172v-28.887h3.207z"></path>
<path d="M129.962 1.387l8.14 22.039 8.14-22.039h3.553l-11.693 30.613-11.693-30.613h3.553z"></path>
<path d="M159.242 15.848c0-8.614 6.713-14.941 15.029-14.941s15.029 6.32 15.029 14.941-6.672 14.941-15.029 14.941-15.029-6.368-15.029-14.941zM162.531 15.848c0 6.625 5.237 11.909 11.734 11.909s11.734-5.285 11.734-11.909-5.237-11.909-11.734-11.909-11.734 5.285-11.734 11.909z"></path>
<path d="M205.317 1.387v28.881h-3.207v-28.881h3.207z"></path>
<path d="M241.783 7.755c-0.907-0.907-2.294-1.989-3.769-2.686-1.516-0.69-3.289-1.123-4.98-1.123-6.672 0-11.605 5.373-11.605 12.038 0 7.836 6.368 11.781 11.646 11.781 1.949 0 3.857-0.562 5.373-1.34 1.644-0.826 2.815-1.908 3.336-2.422v3.986c-3.207 2.294-6.537 2.815-8.702 2.815-8.573 0-14.941-6.496-14.941-14.853s6.456-15.029 15.11-15.029c1.732 0 5.068 0.217 8.533 2.856v3.986z"></path>
<path d="M269.581 4.419h-11.781v8.573h11.429v3.032h-11.429v11.213h11.781v3.032h-14.982v-28.881h14.982v3.031z"></path>
</symbol>
<symbol id="balloon-leg" viewBox="0 0 47 32">
<path d="M17.639 0.241s-4.693 19.656-17.639 31.759c0 0 31.823-6.598 46.795-32l-29.155 0.241z"></path>
</symbol>
<symbol id="movie-play" viewBox="0 0 32 32">
<path d="M15.998 32c-8.822 0-15.998-7.176-15.998-16.002s7.176-15.998 15.998-15.998 15.998 7.176 15.998 15.998-7.176 15.998-15.998 15.998zM15.998 0.817c-8.37 0-15.181 6.811-15.181 15.181s6.811 15.186 15.186 15.186 15.186-6.811 15.186-15.186-6.815-15.181-15.19-15.181z"></path>
<path d="M13.536 11.485v9.437l6.565-4.719-6.565-4.719z"></path>
</symbol>
</defs>
</svg>
