<?xml version="1.0" encoding="UTF-8"?>
<svg id="_レイヤー_2" data-name="レイヤー 2" xmlns="http://www.w3.org/2000/svg" viewBox="0 0 350.01 107.02">
  <g id="_デザイン" data-name="デザイン">
    <path d="M25.47,32.45c-.95-.04-1.25-.04-1.48-.04q-.31,0-1.52,.04c-2.66,.15-5.84,.19-10.13,.19-6.64,0-8.46-.3-10.1-1.63C.83,29.91,.23,28.13,.23,25.09V5.16c0-.83-.08-1.37-.23-2.12H4.67c-.19,.8-.27,1.44-.27,2.12V14.12c5.66-.91,12.18-2.66,16.32-4.4,.91-.42,1.71-.84,2.24-1.18l2.28,4.52c-1.06,.15-1.82,.3-2.58,.49-4.33,1.18-11.77,2.2-18.26,2.58v8.54c0,2.13,.57,3.23,1.97,3.76,1.02,.38,1.74,.45,5.24,.45,5.62,0,9.11-.08,11.81-.3,.72-.04,1.29-.11,2.05-.3v4.17ZM23.76,0V5.96h-2.39V0h2.39Zm4.29,0V5.96h-2.39V0h2.39Zm26.44,19.43c-1.82-1.86-9.37-5.24-12.07-5.35l1.02-2.28c.53,.23,.68,.27,2.28,.61,4.1,.8,7.59,1.86,10.93,3.26l-2.16,3.76Zm-9.07,9.03c.34,.04,.53,.04,.72,.04,2.96,0,7.93-1.14,11.2-2.58,5.43-2.39,9.72-6.41,12.41-11.73,.88-1.75,1.41-3.26,1.56-4.4l2.13,.99c-.27,.45-.61,1.25-.76,1.71-3.83,11.95-10.47,17.53-23.57,19.81-1.02,.19-1.78,.42-2.31,.61l-1.37-4.44Zm12.56-17.19c-1.6-1.82-6.07-4.48-9.64-5.77-.15-.08-.3-.11-.49-.19-.49-.15-.99-.31-1.56-.38l1.18-2.13c.34,.19,.83,.34,1.71,.57,4.02,.99,7.89,2.39,10.97,4.06l-2.16,3.83ZM70.77,.61V6.57h-2.39V.61h2.39Zm4.29,0V6.57h-2.39V.61h2.39Zm27.16,2.73c0-.76-.08-1.56-.23-2.13h4.48c-.12,.57-.23,1.48-.23,2.13V7.63h10.7v2.09c-2.43,3-5.81,6-9.56,8.58,4.52,1.52,8.35,3.15,10.97,4.71,.99,.57,1.75,.95,2.2,1.1l-2.88,3.87c-2.43-2.62-6.83-5.65-11.42-7.97v12.26c0,.76,.08,1.59,.23,2.12h-4.44c.15-.68,.23-1.37,.23-2.12v-10.89c-3.83,2.01-8.05,3.76-11.73,4.82-.87,.26-1.41,.49-1.86,.83l-.95-2.16c6.64-1.02,19.02-8.88,23.95-15.22h-18.52c-.65,0-1.29,.08-2.12,.23v-2.47c.76,.15,1.48,.23,2.12,.23h9.07V3.34Zm36.95,4.36c-.65,0-1.29,.08-2.13,.23v-2.47c.76,.15,1.48,.23,2.13,.23h20.34c-1.06,5.46-2.85,9.9-5.54,13.81,4.36,2.77,7.74,5.43,10.55,8.24,.72,.65,1.41,1.25,1.82,1.6l-3.6,3.64c-1.37-2.81-6.26-8.43-10.13-11.65-.45,.57-.84,.99-1.33,1.55-3.64,4.1-8.46,7.02-15.07,9.11-.68,.23-1.18,.42-1.97,.84l-.95-2.13c2.43-.15,7.59-2.88,10.82-5.77,5.2-4.48,8.69-10.4,10.13-17.23h-15.07Zm53.61,11.73c-1.82-1.86-9.37-5.24-12.07-5.35l1.02-2.28c.53,.23,.68,.27,2.28,.61,4.1,.8,7.59,1.86,10.93,3.26l-2.16,3.76Zm-9.07,9.03c.34,.04,.53,.04,.72,.04,2.96,0,7.93-1.14,11.2-2.58,5.43-2.39,9.72-6.41,12.41-11.73,.88-1.75,1.41-3.26,1.56-4.4l2.13,.99c-.27,.45-.61,1.25-.76,1.71-3.83,11.95-10.47,17.53-23.57,19.81-1.02,.19-1.78,.42-2.31,.61l-1.37-4.44Zm12.56-17.19c-1.6-1.82-6.07-4.48-9.64-5.77-.15-.08-.3-.11-.49-.19-.49-.15-.99-.31-1.56-.38l1.18-2.13c.34,.19,.83,.34,1.71,.57,4.03,.99,7.9,2.39,10.97,4.06l-2.16,3.83Zm61.81,7.59c-.87-.15-1.4-.23-2.01-.23h-26.95c-.95,0-1.44,.08-2.01,.27v-3.19c.65,.15,1.33,.23,2.01,.23h26.95c.53,0,1.14-.08,2.01-.23v3.15Zm25.3-3.68c-1.78-2.85-8.5-8.65-10.4-9.03l1.48-2.13c.68,.57,.95,.72,2.09,1.21,2.31,1.06,6.15,3.38,8.31,5.01,.68,.57,1.29,.98,1.67,1.21l-3.15,3.72Zm-9.07,13.09c6.64,.04,15.18-3.15,19.24-7.17,3.41-3.04,6.34-8.09,6.87-11.81l2.2,.99c-.53,.91-.61,1.14-.95,2.39-3,10.93-10.47,17.12-23.49,19.43-.83,.15-1.63,.38-2.43,.68l-1.44-4.52Zm59.88,3.15c1.75,0,2.92-.3,4.75-1.25,4.17-2.27,6.64-6.75,6.64-12.11,0-3.6-1.1-6.83-3.04-9-1.74-1.94-3.68-2.85-6.72-3.26-.26,7.9-1.33,13.63-3.38,18.03-2.01,4.25-4.67,6.6-7.59,6.6-3.99,0-7.14-4.56-7.14-10.32,0-9.3,7.1-16.17,16.74-16.17s15.56,5.62,15.56,14.27c0,8.01-4.25,12.75-13.17,14.77-.8,.19-1.37,.38-1.97,.65l-.68-2.2Zm-10.25-19.93c-1.52,2.35-2.31,5.32-2.31,8.65,0,4.36,1.55,8.24,3.34,8.24,3.3,0,6.79-11.46,6.79-22.36-3.68,.98-6.03,2.62-7.82,5.46ZM13.56,96.28c0,.72,.08,1.62,.23,2.49-1.32-.15-1.47-.15-3.13-.15H2.67c-.87,0-1.21,.04-2.49,.15,.19-1.13,.23-1.77,.23-3.2v-18.04c0-.94-.04-1.66-.23-2.79,1.09,.15,1.7,.19,3.09,.19h7.38c1.43,0,1.88-.04,3.13-.19-.19,1.09-.23,1.77-.23,3.2v18.35Zm-3.96-10.85v-8.59H4.37v8.59h5.24Zm-5.24,1.92v9.34h5.24v-9.34H4.37Zm17.71,17.37l-.34-2.07c1.77,.23,3.43,.34,5.35,.34,.83,0,.98-.15,.98-.94v-8.25h-7.76c-.83,5.16-3.39,8.82-8.51,12.02l-1.21,.94-1.43-1.66,1.36-.72c4.26-3.47,5.99-7.76,5.99-14.88v-13.56c0-.87-.04-1.17-.15-2.49,1.09,.11,1.58,.15,3.05,.15h9.87c1.39,0,1.96-.04,3.13-.15-.19,1.09-.23,1.66-.23,3.09v27.28c0,1.47-.79,2.34-2.07,2.34-1.09,0-2.56-.26-6.07-1.13l-1.96-.3Zm5.99-20.16h-7.46v4.94c0,.87-.04,1.92-.08,2.37h7.53v-7.31Zm0-9.04h-7.46v7.12h7.46v-7.12Zm45.68-.9c1.39,0,1.96-.04,3.13-.15-.19,1.24-.23,1.77-.23,3.32v24.37c0,.87,.08,1.55,.23,2.6-1.32-.15-1.47-.15-3.13-.15h-21.32c-.94,0-1.51,.04-2.6,.15,.19-1.32,.23-1.77,.23-3.32v-24.07c0-1.09-.04-1.58-.23-2.9,1.13,.11,1.73,.15,3.13,.15h20.8Zm-19.1,1.92v11.87h17.4v-11.87h-17.4Zm0,13.79v12.36h17.4v-12.36h-17.4Zm38.94-12.17c.98,.15,1.47,.19,2.3,.19h7.84c2.19-3.88,2.86-5.28,3.2-6.56l4.07,1.81c-.49,.6-.83,1.17-1.17,1.81-.49,1.02-.98,1.92-1.62,2.94h9.79c.83,0,1.36-.04,2.34-.19v2.37c-.08,0-.34-.04-.79-.08-.38-.08-.9-.11-1.55-.11h-11c-1.13,1.88-2.19,3.54-3.73,5.73,1.51-1.02,3.28-1.55,5.35-1.55,3.24,0,5.39,1.32,6.59,4.03,3.13-.98,5.91-1.73,7.84-2.19,.45-.08,.94-.3,1.54-.72l.83,2.49c-.68-.11-4.86,.94-9.72,2.41,.08,.53,.11,1.09,.11,1.62v3.58c0,.68,.08,1.28,.23,2.11h-4.41c.19-.87,.26-1.32,.26-2.11v-3.96c-2.19,.83-2.98,1.13-3.88,1.62-2.22,1.21-3.32,2.68-3.32,4.48,0,2.64,2.22,3.73,7.65,3.73,1.73,0,5.69-.11,6.89-.15l.34-.04h.15c.6-.04,1.85-.19,2.56-.38v4.07h-1.62c-.83,0-.9,0-1.88,.08-.94,.08-2,.11-3.54,.11-5.5,0-7.42-.26-9.87-1.28-2.45-1.06-3.73-2.94-3.73-5.5,0-3.31,2.45-5.87,7.5-7.87,.56-.23,1.32-.49,2.49-.9-.6-2.22-1.77-3.17-3.96-3.17-3.77,0-6.63,2.34-9.12,7.46l-3.58-2.26c.45-.15,3.47-4.71,7.57-11.45h-6.67c-.83,0-1.36,.04-2.3,.19v-2.37Zm48.95,26.6c4.86-.98,9.08-2.45,12.81-4.48-1.73-1.32-3.2-2.75-4.6-4.56-2.3,1.54-4.48,2.64-7.16,3.65l-1.24,.68-1.09-1.88,1.55-.49c3.92-2.07,7.65-5.09,9.57-7.83l.83-1.21,4.41,1.36-1.28,1.21c-.26,.26-.53,.53-.83,.75-.08,.11-.11,.15-.26,.26h9.49c2.53,0,3.58-.04,4.45-.15v1.47c-1.77,2.41-4.26,4.71-7.38,6.74,3.39,1.17,7.08,1.85,11.04,2.07l2.3,.04-2.04,4.29-2.03-.45c-5.05-.83-9.34-2.19-12.66-4-4.18,2.07-9.34,3.54-15.37,4.41l-1.62,.38-.75-2.07,1.88-.19Zm7.72-23.77l-1.17,1.39c-1.32,2.11-3.77,4.75-5.88,6.37l-.9,.79-1.47-1.17,1.05-.98c1.55-2.04,2.98-4.6,3.69-6.63l.45-1.66,4.22,1.88Zm6.1-3.09c.08,6.37-2.03,9.83-7.38,12.17l-1.13,.75-1.28-1.66,1.36-.57c3.24-2.52,4.49-5.42,4.37-10.32v-.38h-8.7c-.94,0-1.32,.04-2.52,.19v-2.3c1.17,.15,1.7,.23,2.52,.19h11.98v-1.81c0-.49-.04-.94-.08-1.39l-.11-.72-.04-.38h4.82c-.19,1.47-.23,1.73-.23,2.49v1.81h12.28c.87,0,1.43-.04,2.49-.19v2.3l-.41-.04-.53-.08c-.41-.04-.9-.08-1.55-.08h-8.17v9.61c0,1.55-.72,2.34-2.11,2.34-.9,0-2.64-.34-4.9-.98l-1.47-.26-.26-1.85c1.36,.23,2.79,.34,3.77,.34,.72,0,.9-.19,.9-.9v-8.29h-3.62Zm-3.43,16.24c-.15,.11-.23,.19-.3,.26-.08,.04-.11,.08-.19,.15,1.58,1.62,3.39,2.98,5.54,4.11,2.3-1.58,4.11-3.13,5.24-4.52h-10.28Zm14.92-14.2c2.07,1.88,4,3.81,5.46,5.42l1.24,1.17-3.92,2.79-.64-1.66c-.98-2.11-2.22-4.33-3.69-6.44l-.9-.94,1.66-1.24,.79,.9Zm25.11,1.43c.68,.11,1.32,.19,2.15,.19l17.1-.41c1.06,0,1.51-.04,2.37-.15l.19,1.96c-.34,.26-.53,.45-1.21,1.13-.98,1.02-1.32,1.32-4.18,4.11-1.96,1.92-2.94,2.9-3.84,3.81,1.09-.53,1.92-.72,3.05-.72,1.51,0,2.64,.57,3.24,1.7,.53,.98,.53,1.02,.53,4.86,0,2.07,.11,2.75,.57,3.17,.49,.45,1.47,.64,3.2,.64,2.19,0,4.26-.26,6.11-.79v4.07c-2,.3-4.52,.49-6.67,.49-3.09,0-4.93-.45-5.99-1.43-1.09-1.06-1.32-2.04-1.32-6.25,0-.6,0-1.58,.04-2.07v-.34c0-1.28-.41-1.85-1.43-1.85-1.24,0-3.02,1.17-5.28,3.54-3.31,3.39-7.04,7.65-7.68,8.7l-3.28-2.82c1.06-.75,1.17-.87,2.52-2.34,2.94-3.2,5.92-6.41,8.89-9.61,1.96-2.15,3.92-4.26,5.91-6.4l1.36-1.47-14.24,.45c-.79,.04-1.43,.11-2.11,.23v-2.37Zm18.84-1.88c-2.26-1.47-8.29-3.96-11.23-4.6-1.09-.26-1.39-.34-2.04-.41l1.13-2.11c.53,.19,.9,.26,2.41,.53,2.9,.45,6.67,1.39,9.34,2.3l.11,.04,.64,.23c.53,.19,.87,.3,1.06,.34,.19,.08,.26,.11,.53,.19l-1.96,3.51Zm20.59-1.7c.64,.15,1.13,.19,2.15,.19l26-.68c.83-.04,1.62-.11,2.22-.23v2.52c-.6-.08-.98-.11-1.39-.11-.15,0-.41,0-.75,.04-2.19,.08-4.52,.57-6.78,1.51-4.9,1.96-7.76,5.65-7.76,9.98,0,4.79,3.09,7.91,9.3,9.42,.87,.23,1.81,.34,2.49,.34l-1.47,4.6-.15-.04-.49-.15c-.38-.11-1.02-.26-1.85-.49-3.88-1.21-6.03-2.37-7.95-4.41-2.15-2.19-3.24-5.01-3.24-8.17,0-3.69,1.66-7.16,4.59-9.64,1.81-1.51,3.43-2.34,6.07-3.02l-18.87,.57c-.98,.04-1.39,.11-2.11,.26v-2.49Zm63.24,16.99c-.38,.53-.68,1.13-.9,2-.68,2.11-1.73,4.03-2.9,5.35-1.13,1.28-2.19,1.81-3.51,1.81-2.41,0-4.44-1.7-5.95-4.97-1.77-3.84-2.49-8.7-2.49-16.73v-2.82c0-.79-.08-1.51-.19-2.26l4.56,.15c-.15,.75-.23,1.73-.23,2.56v2.68c0,6.89,.53,10.96,1.85,14.09,.98,2.34,2.11,3.51,3.35,3.51,.94,0,1.77-.72,2.9-2.56,.9-1.47,1.32-2.56,1.51-4l2,1.21Zm10.93,3.39c0-.75-.04-1.36-.19-2.37-.6-6.07-4.56-13.87-7.8-15.52l1.85-1.92c.3,.38,.87,.98,1.28,1.32,4.97,4.41,7.95,9.38,9.15,15.33,.04,.26,.23,1.06,.45,1.81l-4.74,1.36Zm20.51-10.85c4.59-1.36,12.77-7.35,17.25-12.58,.64-.75,1.13-1.43,1.55-2.07l3.31,3.62c-.53,.41-.9,.72-1.09,.9-.19,.11-.38,.3-.6,.49l-.83,.72c-5.24,4.37-11.75,8.21-16.99,9.98,6.41,1.85,13.87,7.16,18.87,13.45,.38,.45,.94,1.13,1.47,1.73l-4.22,2.98-.08-.11c-.45-.94-.64-1.32-1.09-2.03-3.96-5.92-9.79-11.38-14.69-13.75-1.13-.57-1.85-.83-2.86-1.06v-2.26ZM10.55,55.23c.24,.06,.46,.09,.7,.09h3.03c.01-.18,.08-.75,.13-1.17,.01-.15,.03-.28,.03-.39,0-.08,0-.13-.01-.26l1.46,.1c-.08,.21-.08,.25-.14,.63-.04,.25-.08,.58-.13,1.09h4.02c.2,0,.45-.03,.7-.08v.83c-.25-.06-.4-.09-.7-.09h-4.09c-.03,.25-.06,.74-.09,1.29,.16-.01,.29-.01,.53-.01,1.58,0,2.69,.25,3.55,.8,.97,.63,1.47,1.58,1.47,2.79,0,2.07-1.5,3.38-4.19,3.67-.15,.01-.34,.06-.57,.14l-.18-.72c.13,.03,.19,.03,.28,.03,.43,0,.95-.14,1.47-.38,1.16-.54,1.77-1.5,1.77-2.73s-.46-1.96-1.6-2.55c-1.11,1.77-2.33,3.45-3.18,4.35-.84,.92-1.47,1.29-2.17,1.29-1.23,0-2.1-1.03-2.1-2.51,0-1.01,.44-1.99,1.23-2.73,.63-.6,1.29-.94,2.35-1.24,.01-.21,.05-.85,.1-1.5h-2.98c-.3,0-.46,.03-.7,.09v-.84Zm1.27,6.26c0,.99,.43,1.72,.99,1.72,.44,0,1.03-.38,1.58-1.02-.2-.77-.31-1.8-.31-2.9,0-.3,0-.54,.03-1.12-1.48,.62-2.29,1.78-2.29,3.32Zm3.62-3.62c-.03,.34-.04,.92-.04,1.28,0,.58,.04,1.17,.1,1.71,.67-.88,1.41-1.97,1.89-2.8-.53-.15-.91-.21-1.38-.21-.15,0-.23,0-.52,.03h-.05Zm48.4-3.65c0-.23-.03-.41-.08-.7h1.52c-.05,.25-.08,.49-.08,.7v1.19h2.66c.21,0,.41-.03,.7-.08v.82c-.31-.06-.46-.08-.7-.08h-2.66v4.08c.01,2.49-1.41,3.91-4.41,4.4-.21,.04-.24,.04-.57,.18l-.25-.7c2.11-.13,3.63-1.36,3.85-3.13-.45,.48-1.01,.7-1.68,.7-1.36,0-2.36-.94-2.36-2.25s1.03-2.26,2.35-2.26c.7,0,1.28,.25,1.74,.75v-1.76h-5.56c-.21,0-.43,.03-.72,.08v-.82c.26,.05,.52,.08,.72,.08h5.54v-1.19Zm-2.88,5.14c0,.94,.58,1.57,1.45,1.57,.82,0,1.46-.7,1.46-1.6s-.62-1.58-1.46-1.58-1.45,.68-1.45,1.61Z" fill="#fff"/>
  </g>
</svg>