<?xml version="1.0" encoding="UTF-8"?>
<svg xmlns="http://www.w3.org/2000/svg" xmlns:xlink="http://www.w3.org/1999/xlink" viewBox="0 0 95.36 179.82">
  <defs>
    <linearGradient id="_名称未設定グラデーション_1626" data-name="名称未設定グラデーション 1626" x1="47.6" y1="104.86" x2="95.36" y2="104.86" gradientUnits="userSpaceOnUse">
      <stop offset="0" stop-color="#31787e"/>
      <stop offset=".34" stop-color="#337a81"/>
      <stop offset=".67" stop-color="#39828d"/>
      <stop offset="1" stop-color="#438ea0"/>
      <stop offset="1" stop-color="#448fa1"/>
    </linearGradient>
    <linearGradient id="_名称未設定グラデーション_610" data-name="名称未設定グラデーション 610" x1="0" y1="104.86" x2="48.08" y2="104.86" gradientUnits="userSpaceOnUse">
      <stop offset="0" stop-color="#7bb4ab"/>
      <stop offset="1" stop-color="#b9dbd7"/>
    </linearGradient>
  </defs>
  <g isolation="isolate">
    <g id="_レイヤー_2" data-name="レイヤー 2">
      <g id="_デザイン" data-name="デザイン">
        <g id="top-section-03-building-02">
          <polygon points="95.36 29.9 94.88 152.34 47.6 179.82 48.08 57.38 95.36 29.9" fill="url(#_名称未設定グラデーション_1626)"/>
          <polygon points="48.08 57.38 47.6 179.82 0 152.34 .48 29.9 48.08 57.38" fill="url(#_名称未設定グラデーション_610)"/>
          <polygon points="95.36 29.9 48.08 57.38 .48 29.9 47.77 2.42 95.36 29.9" fill="#fff"/>
          <polygon points="47.87 3.3 47.85 0 93.68 26.46 88.57 26.8 47.87 3.3" fill="#c6eae5"/>
          <polygon points="7.43 26.8 2.31 26.46 47.85 0 47.87 3.3 7.43 26.8" fill="#c6eae5"/>
          <polygon points="88.56 29.41 88.55 31.79 48.12 55.29 48.12 52.91 88.56 29.41" fill="#a0b9d9"/>
          <polygon points="48.15 52.92 48.14 56.21 2.31 29.74 2.31 26.46 48.15 52.92" fill="#b0dbd7"/>
          <polygon points="93.68 26.46 93.68 29.74 48.14 56.21 48.15 52.92 93.68 26.46" fill="#5a8c8b"/>
          <polygon points="88.57 26.8 93.68 26.46 48.15 52.92 48.13 50.29 88.57 26.8" fill="#c6eae5"/>
          <polygon points="48.13 50.29 48.15 52.92 2.31 26.46 7.43 26.8 48.13 50.29" fill="#c6eae5"/>
          <polygon points="88.57 24.42 88.57 26.8 48.13 50.29 48.14 47.92 88.57 24.42" fill="#5a8c8b"/>
          <polygon points="48.14 47.92 48.13 50.29 7.43 26.8 7.44 24.42 48.14 47.92" fill="#b0dbd7"/>
          <polygon points="88.57 24.42 48.14 47.92 7.44 24.42 47.87 .92 88.57 24.42" fill="#deedf1"/>
          <polygon points="73.09 22.12 73.09 23.6 48.08 38.13 48.09 36.66 73.09 22.12" fill="#5a8c8b"/>
          <polygon points="48.09 36.66 48.08 38.13 22.91 23.6 22.91 22.12 48.09 36.66" fill="#b0dbd7"/>
          <polygon points="73.09 22.12 48.09 36.66 22.91 22.12 47.92 7.59 73.09 22.12" fill="#e6f1f4"/>
          <polygon points="52.79 7.19 58.96 22.03 48.48 28.12 48.48 9.7 52.79 7.19" fill="#5a8c8b"/>
          <polygon points="48.48 9.45 48.48 28.12 37.92 22.03 44.1 7.19 48.48 9.45" fill="#b0dbd7"/>
          <path d="M8.35,54.26l-6.29-3.63v-11.34l6.29,3.63v11.34Zm9.31-5.97l-6.29-3.63v11.34l6.29,3.63v-11.34Zm9.31,16.71l-6.29-3.63v-11.34l6.29,3.63v11.34Zm9.31-5.97l-6.29-3.63v11.34l6.29,3.63v-11.34Zm9.05,16.57l-6.29-3.63v-11.34l6.29,3.63v11.34Zm-36.97-6.28l-6.29-3.63v-11.34l6.29,3.63v11.34Zm9.31-5.97l-6.29-3.63v11.34l6.29,3.63v-11.34Zm9.31,16.71l-6.29-3.63v-11.34l6.29,3.63v11.34Zm9.31-5.97l-6.29-3.63v11.34l6.29,3.63v-11.34Zm9.05,16.57l-6.29-3.63v-11.34l6.29,3.63v11.34Zm-36.97-6.28l-6.29-3.63v-11.34l6.29,3.63v11.34Zm9.31-5.97l-6.29-3.63v11.34l6.29,3.63v-11.34Zm9.31,16.71l-6.29-3.63v-11.34l6.29,3.63v11.34Zm9.31-5.97l-6.29-3.63v11.34l6.29,3.63v-11.34Zm9.05,16.57l-6.29-3.63v-11.34l6.29,3.63v11.34Zm-36.97-6.28l-6.29-3.63v-11.34l6.29,3.63v11.34Zm9.31-5.97l-6.29-3.63v11.34l6.29,3.63v-11.34Zm9.31,16.72l-6.29-3.63v-11.34l6.29,3.63v11.34Zm9.31-5.97l-6.29-3.63v11.34l6.29,3.63v-11.34Zm9.05,16.57l-6.29-3.63v-11.34l6.29,3.63v11.34Zm-36.97-6.28l-6.29-3.63v-11.34l6.29,3.63v11.34Zm9.31-5.97l-6.29-3.63v11.34l6.29,3.63v-11.34Zm9.31,16.71l-6.29-3.63v-11.34l6.29,3.63v11.34Zm9.31-5.97l-6.29-3.63v11.34l6.29,3.63v-11.34Zm9.05,16.57l-6.29-3.63v-11.34l6.29,3.63v11.34Zm-36.97-6.28l-6.29-3.63v-11.34l6.29,3.63v11.34Zm9.31-5.97l-6.29-3.63v11.34l6.29,3.63v-11.34Zm9.31,16.71l-6.29-3.63v-11.34l6.29,3.63v11.34Zm9.31-5.97l-6.29-3.63v11.34l6.29,3.63v-11.34Zm9.05,16.57l-6.29-3.63v-11.34l6.29,3.63v11.34Zm-36.97-6.28l-6.29-3.63v-11.34l6.29,3.63v11.34Zm9.31-5.97l-6.29-3.63v11.34l6.29,3.63v-11.34Zm10.17,29.75l-7.97-4.6v-18.55l7.97,4.6v18.55Zm8.44-19l-6.29-3.63v11.34l6.29,3.63v-11.34Zm9.05,16.57l-6.29-3.63v-11.34l6.29,3.63v11.34Z" fill="#fff" opacity=".6"/>
          <polygon points="39.03 151 39.03 151.57 39.23 151.12 39.03 151" fill="#92e0ff" mix-blend-mode="overlay" opacity=".43"/>
          <polygon points="59.64 73.59 57.23 72.18 57.19 60.85 59.61 62.26 59.64 73.59" fill="#a0c9c8"/>
          <polygon points="59.61 62.26 57.19 60.85 86.15 44.14 88.57 45.54 59.61 62.26" fill="#b9d8e0"/>
          <polygon points="88.57 45.54 88.6 56.87 59.64 73.59 59.61 62.26 88.57 45.54" fill="#427477"/>
          <polygon points="59.64 88.51 57.23 87.11 57.19 75.78 59.61 77.18 59.64 88.51" fill="#a0c9c8"/>
          <polygon points="59.61 77.18 57.19 75.78 86.15 59.06 88.57 60.46 59.61 77.18" fill="#b9d8e0"/>
          <polygon points="88.57 60.46 88.6 71.79 59.64 88.51 59.61 77.18 88.57 60.46" fill="#427477"/>
          <polygon points="59.64 103.43 57.23 102.03 57.19 90.7 59.61 92.1 59.64 103.43" fill="#a0c9c8"/>
          <polygon points="59.61 92.1 57.19 90.7 86.15 73.98 88.57 75.38 59.61 92.1" fill="#b9d8e0"/>
          <polygon points="88.57 75.38 88.6 86.71 59.64 103.43 59.61 92.1 88.57 75.38" fill="#427477"/>
          <polygon points="59.64 118.35 57.23 116.95 57.19 105.62 59.61 107.02 59.64 118.35" fill="#a0c9c8"/>
          <polygon points="59.61 107.02 57.19 105.62 86.15 88.9 88.57 90.31 59.61 107.02" fill="#b9d8e0"/>
          <polygon points="88.57 90.31 88.6 101.64 59.64 118.35 59.61 107.02 88.57 90.31" fill="#427477"/>
          <polygon points="59.64 133.27 57.23 131.87 57.19 120.54 59.61 121.94 59.64 133.27" fill="#a0c9c8"/>
          <polygon points="59.61 121.94 57.19 120.54 86.15 103.82 88.57 105.23 59.61 121.94" fill="#b9d8e0"/>
          <polygon points="88.57 105.23 88.6 116.56 59.64 133.27 59.61 121.94 88.57 105.23" fill="#427477"/>
          <polygon points="59.64 148.2 57.23 146.79 57.19 135.46 59.61 136.87 59.64 148.2" fill="#a0c9c8"/>
          <polygon points="59.61 136.87 57.19 135.46 86.15 118.74 88.57 120.15 59.61 136.87" fill="#b9d8e0"/>
          <polygon points="88.57 120.15 88.6 131.48 59.64 148.2 59.61 136.87 88.57 120.15" fill="#427477"/>
          <polygon points="59.64 163.12 57.23 161.71 57.19 150.38 59.61 151.79 59.64 163.12" fill="#a0c9c8"/>
          <polygon points="59.61 151.79 57.19 150.38 86.15 133.67 88.57 135.07 59.61 151.79" fill="#b9d8e0"/>
          <polygon points="88.57 135.07 88.6 146.4 59.64 163.12 59.61 151.79 88.57 135.07" fill="#427477"/>
          <polygon points="59.61 136.87 59.61 138.04 60.28 136.48 59.61 136.87" fill="#92e0ff" mix-blend-mode="overlay" opacity=".25"/>
        </g>
      </g>
    </g>
  </g>
</svg>