<?xml version="1.0" encoding="UTF-8"?>
<svg id="_レイヤー_2" data-name="レイヤー 2" xmlns="http://www.w3.org/2000/svg" viewBox="0 0 593.57 266.48">
  <g id="_デザイン" data-name="デザイン">
    <g>
      <path d="m46.7,172.18c.26-6.54.52-14.62.69-21.24-6.28,10.58-19.52,17.37-21.58,17.37-.26,0-.34-.09-.34-.26,0-.26.43-.69,1.46-1.2,7.14-3.7,16.94-14.96,19.52-21.24-3.96,0-8.43.09-13.59.6h-.09c-1.38,0-3.53-3.1-3.53-3.96,6.54.86,13.24,1.12,18.23,1.2v-1.2c-.09-2.75,0-5.5-.77-8.08-.09-.26-.09-.43-.09-.52s0-.09.17-.09c2.49,0,8.51,1.29,8.51,2.75,0,.52-.52,1.12-1.38,1.55-2.24,1.12-2.41.26-2.67,3.7,0,.6-.09,1.29-.09,1.89h6.62c.17,0,.77-.34,1.12-.77.6-.77,1.46-2.32,2.32-3.1.17-.17.43-.26.69-.26.17,0,.34.09.52.09,3.01,1.12,5.68,4.73,5.68,5.16,0,.52-.43,1.03-1.89,1.03h-15.14c-.09,1.63-.09,3.35-.09,5.16,10.32.95,12.9,4.9,12.9,6.88,0,1.29-.86,2.24-2.06,2.24-.86,0-1.89-.52-2.84-1.81-2.58-3.61-5.5-4.9-8-6.71v3.61c0,5.59.17,11.52.34,17.11,0,1.29-1.2,2.67-2.67,2.67-1.03,0-1.98-.69-1.98-2.41v-.17Zm1.72-40.08c-5.16,0-8.26.09-16.51.77h-.09c-1.63,0-3.7-3.1-3.7-4.13,9.46,1.2,15.31,1.2,20.55,1.2,4.73-8.69,5.33-12.3,5.85-15.65.09-.6.09-.77.17-.77s.26.09.6.17c.17.09,3.87,1.72,5.68,2.84.52.26.77.6.77.95,0,.6-.77,1.12-2.41,1.29-1.29.17-1.2.43-1.81,1.38-1.55,2.32-4.04,6.11-6.88,9.8h7.65c.26,0,.77-.26,1.03-.69.69-1.29,2.32-3.96,3.35-3.96,1.89,0,6.54,4.04,6.54,5.59,0,.6-.43,1.2-1.81,1.2h-19.01Zm2.15-20.12c-4.21,0-8.77.09-15.82.77h-.09c-1.55,0-3.35-3.18-3.35-4.13,6.02.86,11.44,1.12,15.65,1.2v-.52c-.09-3.27-.17-8.17-.77-10.66-.09-.26-.09-.52-.09-.6s0-.09.09-.09c.43,0,8.86,1.03,8.86,2.92,0,.52-.6,1.12-1.29,1.55-2.49,1.63-2.15,1.12-2.41,4.64-.09,1.03-.17,1.89-.17,2.75h5.59c.09,0,.69-.26.95-.69.6-1.2,2.24-3.78,3.1-3.78.17,0,.43.09.52.09.77.34,5.5,3.27,5.5,5.33,0,.6-.43,1.2-1.63,1.2h-14.62Zm-14.62,3.53c2.58,0,10.84,3.96,10.84,8.43,0,1.72-1.12,3.01-2.41,3.01-.95,0-1.98-.77-2.67-2.67-.77-2.24-3.35-5.93-5.16-7.91-.43-.52-.69-.77-.69-.86h.09Zm50.91,56.59c.43-5.33.6-20.9.6-30.44,0-5.59-.09-10.92-.6-13.33h-9.98v4.82c-.6,35.43-21.5,41.02-22.62,41.02-.09,0-.17,0-.17-.09,0-.17.52-.69,1.81-1.46,14.02-9.29,16.77-26.32,16.77-38.79v-1.12c0-16.51,0-22.7-1.2-26.66-.09-.17-.09-.34-.09-.43,0-.17.09-.17.17-.17.95,0,5.59,1.81,7.65,2.92l.43.34c10.32-4.64,12.81-7.22,13.93-8.77.09-.17.17-.26.26-.26.26,0,5.68,5.5,5.68,6.97,0,.43-.34.69-1.03.69-.52,0-1.12-.09-1.89-.34-.52-.17-.95-.26-1.46-.26-.26,0-.52,0-.86.09-1.03.17-9.03,2.84-14.62,3.87h-.17c-.17,0-.34,0-.52-.09l-.34.17c-1.63.77-1.63.86-1.63,5.5,0,.95-.09,5.68-.09,9.98h19.52c.52,0,.95-.6,1.29-.95.77-.86,2.06-3.1,2.75-3.61.26-.17.43-.26.6-.26,1.46,0,5.68,4.39,5.68,5.76,0,.6-.43,1.12-1.63,1.12h-11.27c.26.26.34.43.34.69,0,.43-.52.86-1.29,1.03-1.2.34-1.29.34-1.29,15.31,0,9.12.17,20.47.34,26.49,0,1.03-1.03,2.32-3.01,2.32-1.12,0-2.06-.52-2.06-1.81v-.26Z" fill="#fff"/>
      <path d="m137.6,123.5c-4.56,13.59-9.37,27-12.56,40.59-.52,2.41-2.06,5.68-4.3,5.68s-2.41-2.75-2.41-3.35c0-1.29.43-2.84,1.46-4.47,1.89-2.92,12.12-29.07,14.88-39.13-3.78.95-5.5,1.03-6.36,1.03-9.03,0-11.35-6.11-11.35-7.31,0-.34.09-.43.34-.43.43,0,1.2.52,1.63.86,1.29,1.03,5.07,2.92,9.37,2.92,2.41,0,5.42-.52,7.14-.95.34-1.89.52-3.87.52-5.59,0-3.18-.69-5.68-2.67-5.93-1.29-.17-2.24-.52-2.24-1.03,0-.77,2.06-1.98,3.61-1.98,1.81,0,5.16,1.38,5.5,6.36,2.75.86,4.73,1.29,6.11,1.55,1.2.26,1.81,1.2,1.81,2.06,0,3.78-8.08,6.71-9.98,7.4l-.52,1.72Zm1.72-5.85c2.49-1.12,4.56-2.58,4.56-3.53,0-.86-2.58-2.15-3.7-2.67,0,1.81-.26,3.96-.86,6.19Zm30.1,46.44c3.44,0,5.25,1.12,5.25,2.41,0,.86-1.03,2.75-7.22,2.75-10.41,0-20.47-5.16-20.47-11.27,0-3.35,2.24-5.07,2.67-5.07.17,0,.26.17.26.52s-.09.86-.43,1.46c-.26.6-.43,1.12-.43,1.72,0,3.87,6.02,7.65,14.36,7.83,1.55,0,3.18-.26,5.68-.34h.34Zm-6.54-30.01c-.43.34-.69.52-.86.52s-.26-.17-.26-.34.09-.52.34-.77c2.15-2.58,2.84-3.1,4.3-4.99.6-.77,1.81-1.98,1.81-3.1,0-1.81-3.27-2.92-7.14-2.92-.69,0-1.29,0-1.63.09-.43.09-.86.17-1.2.17-.6,0-1.03-.17-1.03-.43,0-.09,1.46-2.15,6.62-2.15,7.22,0,13.76,3.96,13.76,5.68,0,.86-.95,1.46-1.72,1.72-4.3,1.2-7.57,2.06-12.99,6.54Z" fill="#fff"/>
      <path d="m215.17,107.59c4.3.95,4.47,1.03,4.47,2.58s-2.32,4.82-9.12,7.31c-.34,1.03-.69,2.06-1.12,3.1-2.49,6.19-10.23,21.93-12.99,27.95-1.2,2.49-3.35,3.78-4.82,3.78-.95,0-1.63-.43-1.63-1.55,0-.86.52-2.15,1.63-3.78,9.72-14.36,14.02-23.05,15.82-28.55-3.35.77-4.64.86-5.76.86-9.03,0-10.66-6.97-10.66-7.31,0-.26.09-.43.26-.43.52,0,1.46.77,1.72.95,1.46,1.12,5.33,2.75,8.86,2.75,2.41,0,4.99-.52,6.54-.95.17-1.46.34-2.92.34-4.21,0-5.59-1.55-5.68-2.49-5.68-1.38,0-2.15-.17-2.15-.77,0-.34.95-2.24,3.18-2.24,4.9,0,5.16,4.99,5.16,5.5l2.75.69Zm22.19,22.96c-1.03,0-4.21.26-5.68.86-5.68,2.24-6.88,5.25-6.88,9.98,0,1.46.09,3.01.26,4.82,0,0,.69,7.4.95,11.27,6.45,2.24,12.56,6.71,12.56,10.58,0,1.63-.86,2.84-1.98,2.84-.77,0-1.72-.6-2.49-2.06-1.46-2.67-4.47-5.42-8.26-7.4-1.03,6.36-7.31,11.01-13.5,11.01-6.62,0-11.18-5.25-11.18-9.2,0-6.11,9.72-7.57,14.71-7.57,2.32,0,4.56.26,6.71.77,0-3.78-.43-7.74-.43-11.09v-.52c0-6.97,1.89-11.35,8.26-15.22,3.18-1.89,5.25-3.78,5.25-5.68,0-.77-.34-1.55-1.03-2.32-.52-.6-1.63-1.46-1.89-1.72-.52-.52-.77-.86-.77-1.12s.26-.34.86-.34c4.13,0,10.32,3.7,10.32,8.26,0,2.32-1.46,4.3-2.92,4.3-.77,0-1.63-.34-2.49-.43h-.34Zm-23.65,27.78c-6.97,0-10.15,2.58-10.15,5.07,0,3.01,4.3,4.73,8,4.73,5.59,0,10.06-3.87,10.75-8.26-2.75-.95-5.68-1.55-8.6-1.55Zm-1.98-45.24c2.24-.95,4.3-2.15,4.3-3.27,0-.52-.43-.86-3.61-2.15,0,1.55-.26,3.44-.69,5.42Z" fill="#fff"/>
      <path d="m287.84,112.92c0,1.46-.95,2.58-2.06,2.58-.86,0-1.81-.6-2.67-1.98-1.03-1.72-5.76-6.45-9.8-8.51-2.58,4.13-6.19,10.58-10.92,16.43,5.07.95,8.6,1.03,11.44,1.03h1.72c.17,0,.52-.26.77-.69,2.15-3.35,2.32-3.44,2.58-3.44.09,0,.26,0,.34.09,4.13,2.15,4.82,5.16,4.82,5.42,0,.43-.26.77-1.29.77h-9.12c-2.84,0-4.39,0-8.77.69-.77,0-2.41-2.41-2.75-3.53-4.64,5.59-10.49,10.41-11.52,10.41-.09,0-.17-.09-.17-.09,0-.17.26-.52.77-1.03,6.97-6.97,18.06-24.34,19.44-32.68.09-.6.09-.86.26-.86.43,0,7.48,3.53,7.48,4.99,0,.69-1.03,1.2-2.15,1.2h-.17c-.43,0-.77-.09-1.03-.09-.6,0-.95.17-1.38.86l-.26.34c.17,0,.43,0,.77.09,3.44.52,13.67,3.35,13.67,8Zm.34,22.53c0,.69-.69,1.2-1.46,1.63-1.63.95-1.72.34-1.81,3.44v1.38c0,2.06.09,4.73.09,5.76,0,1.29.09,4.04.09,5.85-.09,4.3-3.7,6.19-6.62,6.28-.69,0-.69-.34-.95-.95-.52-1.29-3.7-3.18-5.16-4.3.09,5.07.26,10.66.6,16.08v.17c0,1.98-1.89,2.92-2.92,2.92-.95,0-1.72-.6-1.72-2.15v-.34c.34-5.25.43-10.23.43-15.14,0-4.21-.09-8.43-.09-12.9,0-.77,0-4.82-.34-6.97-3.44.17-7.05.34-9.03.52h-.09c-1.29,0-3.7-3.1-3.7-4.21v-.09c6.71.86,16.08,1.2,19.87,1.2h4.9c.52,0,.86-.26,1.03-.69.26-.52.77-1.29,1.03-1.63.09-.09.34-.17.6-.17s5.25,2.58,5.25,4.3Zm18.66,28.81c0,.52-.52,1.12-1.89,1.12h-.86c-1.12,0-2.06.34-2.84.77-13.76,8.08-25.89,8.77-28.29,8.77-.86,0-1.29-.17-1.29-.34s.43-.34,1.29-.52c9.2-1.46,25.03-9.03,27.35-14.53.17-.34.09-.6.26-.6.95,0,6.28,4.39,6.28,5.33Zm-25.46-17.03c0-3.78-.09-7.91-.09-10.23,0-.34,0-1.03-.86-1.03h-5.33c-.69,0-1.46.09-2.41.09l1.46.34c.26.09.34.26.34.52,0,.43-.43.95-1.12,1.2-.95.34-1.03.77-1.03,1.89-.09,2.84-.09,6.02-.09,9.37v4.39c.26,0,.52,0,.95.09,1.98.43,3.87.86,5.25.86,2.75,0,2.92-.6,2.92-7.48Zm48.5-41.37c0,.6-.43,1.12-1.89,1.12h-18.23l1.29.69c.43.26.69.6.69.86,0,.43-.6.86-1.89,1.2-.95.17-1.03.77-1.38,1.38-1.12,2.06-2.32,4.64-3.53,6.54h10.49c.43,0,.86-.26,1.12-.6,1.03-1.38,1.63-1.72,2.24-1.72,1.46,0,5.85,2.32,5.85,4.04,0,1.03-1.38,1.63-1.98,1.98-1.55.86-1.63,1.55-1.63,7.65,0,7.57.43,19.52.69,25.63v.17c0,1.81-1.38,3.01-2.58,3.01-.95,0-1.81-.77-1.81-2.41v-1.29h-19.52v2.06c0,1.38-1.46,2.41-2.75,2.41-.95,0-1.72-.52-1.72-1.98v-.17c.6-10.75.52-26.32.6-30.44,0-1.12-.43-8.17-1.03-10.75-.09-.26-.09-.43-.09-.6,0-.09,0-.17.09-.17.6,0,5.25,1.72,7.05,3.01l.26.17h3.01c.86-4.21,1.12-8.26,1.12-10.66-4.04,0-8.77.17-14.36.69h-.09c-1.46,0-3.44-3.1-3.44-4.04,8.51.95,17.29,1.2,22.1,1.2h9.37c.26,0,.86-.26,1.12-.69,2.84-4.3,3.78-4.3,3.96-4.3s.34,0,.52.09c2.75,1.03,6.36,4.99,6.36,5.93Zm-12.56,14.96c0-.09-.26-.86-.77-.86h-16.94c-.17.17-.52.34-.77.52-.86.52-1.03.17-1.03,2.84,0,1.2-.09,3.18-.09,5.68h19.78c0-3.53-.09-6.45-.17-8.17Zm-19.61,10.41v8.34h19.69c0-2.92.09-5.76.09-8.34h-19.78Zm0,10.58c0,3.35.09,6.79.09,10.06h19.52c0-3.18.09-6.71.09-10.06h-19.69Zm28.81,28.04c0,1.81-1.2,3.18-2.67,3.18-1.12,0-2.32-.77-3.35-2.84-2.32-4.9-6.02-8.08-9.98-11.18-.17-.17-.26-.26-.26-.34,0-.17.17-.26.43-.26,2.24,0,15.82,5.33,15.82,11.44Z" fill="#fff"/>
      <path d="m342.02,159.71c-.77.34-.86,1.03-1.29,1.03-.69,0-3.53-3.1-4.04-4.3,0-.09-.09-.17-.09-.17,0-.09.09-.09.09-.09,2.06-.17,4.99-.69,11.7-3.01.09-5.76.17-17.2.17-26.57-2.75.17-5.07.6-7.74.77h-.09c-1.46,0-4.04-3.01-4.04-4.13v-.09c5.76.69,8.94,1.03,11.87,1.2v-8.77c-.09-3.35-.17-8.43-1.03-13.42v-.26c0-.17,0-.26.17-.26s8.94,1.63,8.94,3.44c0,.69-.95,1.38-2.24,1.89-1.46.69-1.81,1.55-1.81,17.46h1.98c.52,0,.6-.34.86-.77.86-1.38,1.72-2.49,2.67-3.53.17-.17.43-.26.69-.26.17,0,.43.09.52.09,2.84,1.2,5.33,4.47,5.33,5.59,0,.52-.34.95-1.55.95h-10.49c0,9.2.09,19.95.09,25.28,4.39-1.55,8.77-3.27,12.04-4.56.26-.09.52-.17.69-.17s.34.09.34.26c0,1.29-16.25,9.29-23.74,12.38Zm23.22,3.01c-.69.17-1.2.77-1.72.77-.86,0-4.13-4.13-4.13-4.99,0-.09.09-.09.26-.09,6.36,0,17.37-1.89,30.7-6.62.09,0,.26-.09.34-.09.34,0,.52.17.52.43,0,.17-.17.43-.6.6-6.19,2.58-14.19,6.45-25.37,9.98Zm49.28,9.37c0,1.12-.95,1.72-2.15,1.72-1.72,0-10.84-2.49-17.2-16.51-12.64,15.65-30.7,17.29-30.79,17.29-.52,0-.86-.17-.86-.26,0-.17.34-.43,1.12-.6,9.8-2.75,20.98-8.17,29.07-20.04-4.56-12.04-5.59-26.23-6.11-35h-1.12c-4.47,0-13.5.17-20.73.95h-.09c-1.55,0-3.96-3.27-3.96-4.39v-.09c8.17,1.12,20.47,1.38,25.11,1.38h.6l-.26-3.87c-.17-1.46-.43-9.46-1.46-12.73-.09-.34-.17-.52-.17-.6,0-.17.17-.17.77-.17.95.09,7.65.69,7.65,2.84,0,.6-.43,1.2-1.12,1.72-1.55,1.03-1.72.34-1.89,4.04,0,1.29-.09,2.75-.09,4.21s.09,3.01.09,4.56h10.23c.6,0,1.03-.34,1.29-.77,1.72-2.49,3.1-4.04,3.87-4.04,1.38,0,6.36,3.87,6.36,5.76,0,.6-.43,1.2-1.72,1.2h-19.95c.43,10.15,1.89,21.67,5.07,31.13,2.75-4.99,5.07-10.84,6.62-17.97.34-1.55.34-4.73.34-5.93,0-.17.09-.43.26-.43.26,0,7.48,2.06,7.48,3.87,0,.52-.6,1.03-2.32,1.72-1.12.43-1.38.43-1.72,1.72-2.15,8.51-5.25,15.57-9.12,21.24,4.73,10.84,9.8,12.56,10.49,12.56,1.2,0,2.49-1.98,5.59-10.23.43-1.2.69-1.55.86-1.55s.17.43.17.69c0,2.49-1.2,10.06-1.2,13.16,0,.6.09,1.03.17,1.2.52.95.77,1.63.77,2.24Zm-29.58-42.14c0,.77-1.12,1.29-1.55,1.46-1.38.69-1.46,1.29-1.46,3.01,0,3.1.52,8.26.52,12.21v.69c0,.95-1.38,1.63-2.49,1.63-.77,0-1.46-.34-1.46-1.03v-2.32h-7.57c0,1.29.09,2.67.09,3.96,0,.69-1.55,1.29-2.75,1.29-.77,0-1.38-.17-1.38-.77v-.09c.43-5.07.6-12.3.6-15.74,0-.77-.43-5.85-1.03-7.83-.09-.17-.09-.34-.09-.43,0,0,0-.09.09-.09.77,0,3.96,1.55,5.93,2.67h4.82c.43,0,.77-.34,1.03-.77.26-.34.95-1.12,1.38-1.2.09,0,.17-.09.34-.09s.43.09.77.17c.77.34,4.21,2.15,4.21,3.27Zm-6.28,7.57c0-1.81,0-3.7-.17-5.85,0-.09-.26-.86-.77-.86h-6.19c-.43.26-.69.52-.69,2.15v3.1c0,2.41,0,4.9.09,7.31h7.65c.09-2.24.09-4.04.09-5.85Zm26.06-29.41c0,1.46-1.03,2.58-2.15,2.58-.77,0-1.55-.43-2.15-1.46-1.12-1.89-3.18-3.44-4.99-4.9-.26-.26-.43-.34-.43-.43,0-.17,1.89-.17,1.98-.17,3.18,0,7.74,1.12,7.74,4.39Z" fill="#fff"/>
      <path d="m495.44,157.56c-.77,0-1.72-.09-2.75-.34-16.6-3.96-24.77-18.4-39.65-27.86-1.03-.6-1.98-.86-2.92-.86-2.06,0-3.96,1.12-5.16,2.24-2.67,2.41-7.4,10.06-8.6,11.61-1.72,2.24-3.61,3.01-5.33,3.01-3.44,0-7.05-3.27-7.05-5.68,0-.69.34-.95.77-.95.26,0,.6.17.77.52.34.6,1.38.95,2.58.95,1.29,0,2.75-.34,3.87-1.12,1.12-.69,6.36-6.54,11.09-10.15,1.72-1.29,4.21-2.49,6.97-2.49,1.63,0,3.35.34,5.07,1.38,17.63,10.32,26.14,22.27,39.13,23.91,3.01.34,4.64,2.15,4.64,3.61,0,1.2-1.12,2.24-3.44,2.24Z" fill="#fff"/>
      <path d="m540.94,123.85c0,20.47-15.91,38.27-22.62,38.27-3.96,0-5.16-5.33-8.86-10.49-1.38-1.89-1.98-4.64-1.98-7.74,0-12.99,11.35-33.63,34.4-33.63,19.44,0,29.15,13.5,29.15,27.43,0,26.57-30.36,33.54-36.38,33.54-.77,0-1.2-.17-1.2-.34,0-.43,1.38-1.12,3.61-1.81,24.42-6.88,29.33-21.59,29.33-31.82,0-12.56-8.34-24.34-25.37-24.51-1.12,0-2.24.17-3.35.26,2.15,1.2,3.27,5.42,3.27,10.84Zm-29.67,18.66c0,7.22,4.21,13.5,8,13.5,5.25,0,19.09-17.29,19.09-34.31,0-6.71-1.55-8-3.44-8-.69,0-1.38.17-2.41.43-12.38,3.87-21.24,17.11-21.24,28.38Z" fill="#fff"/>
      <path d="m227.81,261.92c-.95-1.46-7.4-5.25-7.4-6.02,0-.09,0-.17.26-.17.17,0,.43.09.77.17,2.92.77,5.16,1.12,6.79,1.12,3.35,0,4.39-1.46,4.47-3.78.09-5.5.09-13.76.09-22.19-2.41,1.38-6.11,3.44-8.69,4.73-.77.43-.95,1.2-1.46,1.2-.95,0-4.47-4.64-4.47-5.07,0-.09.17-.09.6-.17,3.78-.34,6.19-.86,14.02-4.13,0-5.85,0-11.61-.09-16.6-3.18,0-4.82.09-9.98.77h-.09c-1.03,0-3.35-3.18-3.35-4.13,6.19.95,9.98,1.2,13.42,1.2,0-3.18-.17-6.02-.17-8,0-2.15-.09-7.14-.95-11.27-.09-.26-.17-.52-.17-.6s.09-.17.26-.17c.6,0,8.69,1.2,8.69,3.01,0,.6-.69,1.29-1.46,1.72-2.06,1.03-1.98-.09-2.15,5.16l-.26,10.15h1.2c.26,0,.77-.43,1.03-.86,2.06-3.53,2.67-3.61,3.01-3.61.17,0,.34,0,.43.09,1.98,1.03,4.99,4.13,4.99,5.33,0,.52-.26,1.2-1.46,1.2h-9.29c-.09,5.07-.09,10.23-.09,15.22,4.3-1.81,7.74-3.61,10.23-4.99.34-.17.6-.26.69-.26.17,0,.26.09.26.17,0,.26-.17.6-.43.77-2.58,1.72-6.19,4.3-10.75,7.14,0,5.33.09,10.41.17,14.79,0,.69.43,8.69.43,10.23,0,5.25-4.73,8.43-7.91,8.6-.95,0-.77-.09-1.2-.77Zm38.61-68.63c0,.43-.34.95-1.38,1.46-1.29.69-1.55.6-1.55,3.01,0,.86.09,1.98.09,3.53,0,3.01.17,24.6.17,24.85v.34c0,17.63-6.28,31.39-24.08,36.29-1.03.26-1.81.34-2.32.34-.34,0-.6,0-.6-.17,0-.26.77-.69,2.49-1.29,14.62-5.07,20.12-20.21,20.47-34.49-2.92,3.61-7.22,8.77-11.27,12.9-.43.43-.6,1.55-1.2,1.55-.52,0-5.33-4.3-5.33-4.82,0-.09.09-.09.34-.17,5.85-1.29,14.36-8.69,17.46-11.44v-.26c0-11.01-.09-30.1-1.29-33.45-.09-.26-.17-.43-.17-.52,0-.17.17-.26.52-.26h.34c.26,0,4.9.69,6.54,1.55.17.09.77.52.77,1.03Zm-9.12,23.31c0,1.89-1.12,3.18-2.32,3.18-1.03,0-2.06-.77-2.67-2.84-.69-2.15-3.53-6.71-5.25-8.43-.43-.43-.6-.69-.6-.86,0-.09.09-.17.26-.17.69,0,10.58,3.53,10.58,9.12Zm23.05,44.63c-7.91,0-9.8-2.75-9.8-6.45v-.86c.09-.86.09-11.35.09-54.61,0-.26.09-1.2.09-2.58,0-1.72-.09-4.04-.52-5.85-.09-.26-.09-.52-.09-.6,0-.26.09-.34.52-.34s7.22,1.03,7.22,2.84c0,.43-.43.95-1.46,1.55-1.46.86-1.63,1.12-1.72,3.7-.09,1.98-.09,10.23-.17,19.69,10.15-8.51,12.13-11.95,12.73-14.02.09-.26.17-.43.34-.43.86,0,5.59,5.59,5.59,6.62,0,.6-.52.95-1.55.95-.34,0-.6,0-.95-.09-.34-.09-.69-.09-.95-.09s-.52,0-.95.26c-2.15,1.29-10.32,5.85-14.28,7.91,0,2.15-.09,4.3-.09,6.45,3.96.52,19.44,3.27,19.44,10.06,0,1.38-.77,2.49-2.06,2.49-.95,0-2.06-.6-3.35-2.15-3.87-4.56-9.37-7.31-14.02-9.89,0,4.9-.09,9.8-.09,14.1,0,6.11.09,11.01.17,12.9.17,3.1.17,4.39,5.59,4.39,1.98,0,4.73-.17,6.54-.52,4.21-.86,4.21-6.36,5.33-13.07.09-.34.09-.52.17-.52.43,0,.86,9.63,2.15,10.49.95.6,1.55,1.46,1.55,2.32,0,.77-.43,5.33-15.48,5.33Z" fill="#fff"/>
      <path d="m383.73,262.26c0,1.2-1.12,1.72-2.67,1.72-3.18,0-12.99-2.41-18.75-16.6-12.81,14.45-31.3,17.37-31.91,17.37-.26,0-.43,0-.6-.09-.43,1.12-1.46,1.81-2.41,1.81s-1.72-.77-1.72-2.49v-.43c.17-3.18.34-9.2.43-15.74-4.47.09-10.32.34-15.91.95h-.09c-1.38,0-3.87-3.44-3.87-4.47,6.45.86,14.53,1.2,19.95,1.29.09-3.27.09-6.62.09-9.89h-9.8l.09,1.89c0,1.29-1.29,2.06-2.41,2.06-.86,0-1.63-.52-1.63-1.63v-.26c.43-5.33.6-15.39.6-19.01,0-.95-.26-7.05-.86-10.32-.09-.26-.09-.52-.09-.6,0-.17.09-.26.17-.26.69,0,5.16,2.32,5.93,2.92l.26.17h13.42c2.84-4.56,5.76-10.49,7.05-13.59.77-1.81.86-3.53,1.12-4.64.09-.43.09-.69.26-.69.26,0,7.31,3.27,7.31,4.56,0,.52-.6,1.03-2.49,1.12-1.55.09-1.29.43-2.15,1.46-1.63,2.06-5.33,7.31-9.12,11.78h4.21c.43,0,.77-.17,1.03-.52.52-.6.95-1.46,1.38-1.72.17-.17.52-.34.86-.34,1.12,0,4.64,3.01,5.07,3.61.34.43.43.86.43,1.2,0,1.12-1.29,1.63-1.98,2.06-1.2.69-1.38,1.38-1.38,3.78v1.2c0,4.47.34,13.42.52,16.68v.17c0,1.46-1.29,2.41-2.41,2.41-.86,0-1.72-.6-1.72-1.98v-1.55h-10.15v9.98h8.43c.6,0,.77-.43,1.03-.86.43-.69,3.53-4.73,4.47-4.73,2.06,0,7.05,5.33,7.05,6.62,0,.6-.34,1.12-1.63,1.12h-19.26c0,6.62.09,12.56.17,15.57v.34c.09,0,.17-.09.26-.09,12.21-4.04,22.79-9.63,30.62-19.95-2.67-8.26-3.61-17.63-4.04-25.63-2.32.34-4.73.77-6.88,1.29h-.17c-1.12,0-3.7-2.67-3.78-3.61.95.09,1.98.09,3.01.09,2.49,0,5.25-.17,7.74-.26-.26-5.93-.17-10.92-.34-13.5-.09-1.46-.34-9.63-1.29-12.81-.09-.34-.17-.52-.17-.6s0-.09.09-.09c0,0,8.43.17,8.43,2.92,0,.52-.43,1.12-1.2,1.63-1.55.95-1.72.34-1.89,4.04-.17,3.27-.34,7.48-.34,12.21,0,1.89,0,3.87.09,5.93,1.98-.17,3.61-.26,4.64-.43l6.79-.86c.17,0,.86-.34,1.03-.77.69-1.55,1.2-2.41,2.15-3.96.17-.26.43-.34.69-.34,1.72,0,6.62,4.04,6.62,5.25,0,.43-.34.77-1.55.95l-15.65,1.89c-1.2.17-2.84.26-4.64.52.34,7.57,1.2,15.57,3.1,22.45,2.49-3.96,4.82-8.86,6.54-14.1.26-.86.6-3.53.69-5.07,0-.17,0-.26.17-.26.09,0,6.36,2.58,6.97,3.18.26.26.52.6.52.95,0,.52-.6,1.03-2.49,1.55-1.63.43-1.29.09-1.89,1.55-2.49,6.45-5.5,11.95-9.12,16.6,3.87,10.41,9.72,12.9,11.44,12.9s3.1-2.15,6.79-10.32c.43-1.03.77-1.46.95-1.46s.26.34.26.95c0,2.58-1.29,9.72-1.29,12.64,0,.52.09.95.17,1.12.52.86.69,1.55.69,2.06Zm-64.24-60.11c0,1.72-1.12,2.92-2.32,2.92-.86,0-1.89-.69-2.49-2.49-1.03-2.84-4.21-7.4-5.68-8.6-.09-.09-.09-.17-.09-.26s.09-.17.34-.17c1.38,0,10.23,4.21,10.23,8.6Zm6.79,17.89c0-1.12-.09-5.25-.26-7.14h-7.57l-.6.43c-1.12.86-1.29.6-1.46,3.96v4.56h9.89v-1.81Zm0,4.04h-9.89c0,3.01.09,6.45.09,9.37h9.8v-9.37Zm4.64-23.22c0,1.81-1.2,3.18-2.41,3.18-1.03,0-1.98-.86-2.41-3.01-.6-3.01-3.1-8-4.47-9.37q-.09-.09-.09-.17c0-.17.09-.26.26-.26.95,0,9.12,5.07,9.12,9.63Zm-.95,23.22c-.09,2.75-.09,6.02-.09,9.37h10.06c.09-3.01.17-6.28.17-9.37h-10.15Zm9.89-10.41c0-.09,0-.77-.69-.77h-6.19c.09.09.09.26.09.34,0,.52-.43,1.03-.95,1.2-1.72.86-2.15,1.03-2.15,7.4h10.15c0-3.18-.09-6.02-.26-8.17Zm35.52-10.49c0,1.38-1.03,2.49-2.15,2.49-.86,0-1.81-.6-2.58-1.98-1.29-2.41-4.39-4.99-6.79-6.62-.26-.17-.43-.34-.43-.34,0-.17.43-.17.77-.17,4.3.09,11.18,2.75,11.18,6.62Z" fill="#fff"/>
    </g>
    <g>
      <path d="m43.86,52.11c6.88,8,20.81,15.82,37.41,18.32.77.09,1.03.26,1.03.43,0,.69-5.93,1.89-8.69,3.78-.43.26-.6.43-.95.43-2.15,0-19.44-8.69-29.5-21.33,0,7.83.17,16,.26,20.9v.17c0,1.98-1.63,2.84-2.84,2.84-1.03,0-1.98-.69-1.98-2.49v-.34c.34-4.99.52-12.13.69-19.01C27.26,69.92,4.04,76.19.69,76.19c-.43,0-.69-.09-.69-.26s.6-.52,1.72-.86c9.72-2.92,23.65-9.2,35-22.96h-.86c-4.73,0-16.43.09-23.99.95h-.09c-1.55,0-3.87-3.27-3.87-4.39,8.77,1.12,23.48,1.38,28.38,1.38h3.1v-7.14h-1.98c-4.39,0-11.18.09-18.23.86h-.09c-1.46,0-3.78-3.01-3.78-4.13,8.08,1.12,17.89,1.2,22.45,1.2h1.63v-.6c0-1.2-.17-4.56-.26-6.28h-6.45c-4.56,0-10.23.17-17.63.95h-.09c-1.55,0-4.04-3.27-4.04-4.39,8.43,1.12,17.46,1.38,22.19,1.38h1.03c-.69-.26-1.38-.95-1.89-2.24-.77-2.06-3.27-5.16-4.99-6.97-.43-.43-.69-.69-.69-.77h.09c2.24,0,10.23,3.01,10.23,7.4,0,1.2-.69,2.24-1.55,2.58h9.46c4.13-6.02,5.16-8.94,5.76-11.01h-19.52c-4.73,0-14.88.17-22.53.95h-.09c-1.63,0-3.78-3.27-3.78-4.3,8.77,1.03,21.93,1.29,26.83,1.29h1.38v-8.51c0-3.7-.17-7.57-.69-9.72,0-.17-.09-.34-.09-.43s.09-.17.17-.17c1.2,0,7.65.95,7.65,2.75,0,.43-.43.86-.95,1.29-1.98,1.55-2.06.26-2.41,4.64-.09,1.2-.17,8.26-.17,10.15h8.17v-8.51c0-3.7-.17-7.57-.69-9.72,0-.17-.09-.34-.09-.43s.09-.17.17-.17c1.2,0,7.65.95,7.65,2.75,0,.43-.43.86-.95,1.29-1.98,1.55-2.06.26-2.41,4.64-.09,1.2-.17,8.26-.17,10.15h1.81l.34-.43c.86-1.03,6.79-8.26,9.03-14.96.17-.52.17-.77.34-.77.09,0,6.28,4.04,6.28,5.33,0,.43-.43.77-1.72.77h-1.03c-1.03,0-.95.43-1.63,1.12-2.06,1.98-5.42,5.5-9.72,8.94h13.67c.6,0,1.2-.34,1.46-.77,3.53-4.9,4.04-4.99,4.47-4.99,2.06,0,7.83,5.25,7.83,6.79,0,.52-.43,1.03-1.89,1.03h-24.85c1.72,1.12,4.13,2.75,4.13,3.7,0,.43-.34.77-1.38.77-.26,0-.52,0-.86-.09-.17,0-.34-.09-.52-.09-.6,0-.52.34-1.12.95l-5.93,5.76h11.78c.34,0,.95-.34,1.29-.77,1.2-1.55,3.35-3.7,4.13-3.7,1.38,0,7.05,3.7,7.05,5.5,0,.52-.34,1.03-1.72,1.03h-22.96c0,.09.09.17.09.26,0,.43-.52.77-.95,1.03-1.63.77-1.89.77-2.06,3.35,0,.69-.09,1.46-.09,2.24h10.15c.34,0,.86-.34,1.2-.77.86-1.12,2.92-3.53,3.96-3.53.6,0,6.71,3.01,6.71,5.33,0,.52-.34,1.03-1.63,1.03h-20.47c-.09,2.15-.09,4.64-.09,7.14h19.95c.43,0,1.03-.34,1.38-.77.09-.17,2.92-4.13,4.3-4.13s7.65,3.96,7.65,6.02c0,.52-.43.95-1.81.95h-30.79ZM22.1,13.07c-.95-2.24-3.53-5.5-5.42-7.4-.43-.43-.6-.6-.6-.69s0-.09.09-.09c2.92,0,11.35,3.01,11.35,7.65,0,1.72-1.2,3.1-2.58,3.1-1.03,0-2.06-.77-2.84-2.58Z" fill="#003383"/>
      <path d="m138.89,74.22c0,1.38-1.38,2.58-2.84,2.58-1.12,0-2.15-.69-2.15-2.41v-.17c.17-6.19.34-12.64.34-17.29,0-1.46,0-9.63-.77-12.3-.09-.26-.17-.43-.17-.52s.09-.09.26-.09h.43c.77,0,2.32.17,3.78.34-3.61-2.92-6.88-6.11-9.12-9.29-.86.17-1.29.43-2.41,1.81-1.89,2.41-4.04,4.64-6.54,6.79,1.12.09,2.32.34,3.18.52.17.09.86.34.86.95,0,.43-.34.95-1.38,1.55-1.46.95-1.38.95-1.46,4.04-.26,10.84-4.3,24.25-31.13,27.35-.43.09-.86.09-1.2.09-.77,0-1.29-.09-1.29-.34,0-.17.6-.43,2.15-.77,20.73-4.21,27.09-16,27.09-25.03,0-.6,0-1.12-.09-1.72,0-.43-.17-2.06-.43-3.61-12.13,9.29-25.28,13.5-27.69,13.5-.43,0-.6-.09-.6-.17,0-.17.34-.43,1.2-.77,17.8-6.62,33.71-23.13,34.23-26.66h-16v2.24c0,1.38-1.46,2.41-2.75,2.41-.95,0-1.89-.6-1.89-2.15v-.17c.43-7.48.69-15.22.69-21.67,0-2.32-.34-6.62-1.03-9.89-.09-.34-.17-.52-.17-.69,0-.09.09-.17.17-.17.69,0,6.11,2.67,6.79,3.1h35.78c.6,0,.77-.09,1.03-.34,1.72-1.72,1.98-1.81,2.32-1.81.77,0,6.02,2.58,6.02,4.39,0,.95-1.2,1.46-1.89,1.89-1.46.86-1.72,1.72-1.72,3.87v3.35c0,6.71.34,12.21.52,17.29v.09c0,1.63-1.55,2.92-2.75,2.92-.86,0-1.55-.6-1.55-1.98v-2.67h-18.23c1.46.52,2.15.69,2.15,1.2,0,.26-.09.43-.26.6,7.4,7.83,20.9,15.57,37.5,16.6.86.09,1.2.17,1.2.34,0,.6-5.68,2.15-8.17,4.47-.26.26-.6.34-1.03.34-1.46,0-10.06-2.75-19.26-9.55-1.98.86-1.98.6-2.06,3.35-.09,2.15-.09,4.56-.09,7.22,0,4.64.09,10.23.43,16.86v.17ZM109.31,7.83c-2.32,1.12-2.32,2.24-2.32,9.63h17.37c0-6.54-.17-8.43-.34-9.63h-14.71Zm15.14,11.87h-17.46c0,3.18.09,6.88.17,10.66h17.2c.09-3.01.09-4.21.09-6.71v-3.96Zm5.5-11.87c.09.09.17.26.17.34,0,.6-.77,1.2-1.38,1.46-.6.26-.6.77-.6,1.63v6.19h18.75c0-3.18,0-6.11-.17-8.94,0-.26-.26-.69-.77-.69h-16Zm-1.81,11.87v10.66h18.66c0-3.78.09-7.4.09-10.66h-18.75Z" fill="#003383"/>
      <path d="m210.7,26.32c0,20.47-15.91,38.27-22.62,38.27-3.96,0-5.16-5.33-8.86-10.49-1.38-1.89-1.98-4.64-1.98-7.74,0-12.99,11.35-33.63,34.4-33.63,19.44,0,29.15,13.5,29.15,27.43,0,26.57-30.36,33.54-36.38,33.54-.77,0-1.2-.17-1.2-.34,0-.43,1.38-1.12,3.61-1.81,24.42-6.88,29.33-21.59,29.33-31.82,0-12.56-8.34-24.34-25.37-24.51-1.12,0-2.24.17-3.35.26,2.15,1.2,3.27,5.42,3.27,10.84Zm-29.67,18.66c0,7.22,4.21,13.5,8,13.5,5.25,0,19.09-17.29,19.09-34.31,0-6.71-1.55-8-3.44-8-.69,0-1.38.17-2.41.43-12.38,3.87-21.24,17.11-21.24,28.38Z" fill="#003383"/>
      <path d="m280.53,23.05c0,.52-.26,1.12-1.46,1.12h-11.35v8.08c4.04.09,11.01,2.15,11.01,6.54,0,1.29-.69,2.24-1.81,2.24-.77,0-1.72-.52-2.67-1.89-1.55-2.24-4.13-4.56-6.54-6.02.09,12.21.34,26.75.77,40.76,0,.6-.34,3.1-3.01,3.1-1.12,0-2.06-.77-2.06-2.58v-.17c.52-10.66.86-25.97,1.03-38.79-6.02,13.42-17.11,20.3-18.23,20.3-.09,0-.17-.09-.17-.09,0-.17.34-.6,1.12-1.2,4.3-3.35,15.65-19.61,17.29-29.07l.09-1.2h-.52c-3.44,0-4.3.09-9.63.77h-.09c-1.03,0-3.35-3.18-3.35-4.13,6.45,1.03,9.72,1.2,13.24,1.2h.34c0-1.81-.09-3.53-.09-4.9,0-10.58,0-11.61-.69-15.22-.09-.34-.09-.52-.09-.6s0-.17.09-.17c.95,0,7.74,1.03,7.74,2.84,0,.34-.43.86-1.29,1.29-1.55.77-2.15.52-2.24,3.87-.09,3.18-.26,7.57-.26,12.9h2.84c.26,0,.86-.26,1.12-.69,2.24-3.78,3.18-3.78,3.35-3.78,1.38,0,5.5,4.3,5.5,5.5Zm45.32,30.7c0,.52-.43,1.03-1.89,1.03h-22.27v4.47c0,5.07.09,10.66.34,16.25v.09c0,1.12-1.38,1.89-2.58,1.89-1.81,0-1.81-1.12-1.81-3.61,0-4.3.17-12.21.17-19.09h-3.27c-4.73,0-9.2.09-16.08.86h-.09c-1.38,0-3.87-3.27-3.87-4.3,8,1.03,15.48,1.29,20.38,1.29h2.92c0-1.63-.17-10.32-.95-12.38,0-.17-.09-.26-.09-.34,0-.17.17-.26.52-.26,1.03,0,8.6,1.29,8.6,2.84,0,.6-.6,1.12-1.29,1.46-2.32,1.12-2.41.26-2.67,3.61l-.26,5.07h10.84c.52,0,.95-.34,1.29-.77.86-1.12,3.7-4.21,4.56-4.21.17,0,.34,0,.52.09,2.67.95,6.97,4.47,6.97,6.02Zm.43-19.18c0,2.75-5.59,3.78-11.61,3.78-4.21,0-9.37-.09-9.37-6.88v-.34c.17-3.78,1.12-8.43,1.98-14.28v-.17c0-.26-.26-.6-.69-.6l-7.4.09c-3.87,23.05-19.52,26.92-21.93,26.92-.17,0-.26,0-.26-.09,0-.17.77-.69,1.81-1.12,10.06-4.39,14.62-15.22,16.17-25.63-3.53.09-8.08.34-10.84.69-.86,0-4.13-3.27-4.13-3.87,4.73.52,11.87.69,15.31.69.34-3.27.34-5.25.34-5.42,0-2.06-.17-4.39-.43-6.28-.09-.09-.09-.17-.09-.26h.09c.17,0,5.5.95,6.36,1.2,1.12.52,1.55.95,1.55,1.29,0,.52-.86.95-1.89,1.38-.95.34-1.2.26-1.29,2.58-.09,1.81-.17,3.7-.43,5.5l7.14-.09c.52,0,.86-.6,1.12-.77.17-.09.6-.34.6-.34.17-.17.52-.26.77-.26s4.99,1.98,4.99,3.53c0,.52-.43,1.03-1.2,1.29-1.46.52-1.72.6-1.98,1.63-.86,3.44-1.63,8.08-1.63,11.35s.69,4.56,6.02,4.56c4.47,0,4.82-.09,7.22-10.66.09-.26.09-.43.17-.43.52,0,.86,8.6,2.06,9.12.86.34,1.46,1.12,1.46,1.89Z" fill="#003383"/>
      <path d="m360.86,50.22c-7.74,4.56-10.84,9.2-10.84,12.9,0,4.04,4.21,8,11.87,8,3.27,0,6.79-.69,9.72-2.24.86-.43,1.63-.6,2.32-.6,1.55,0,2.67.95,2.67,2.06,0,3.87-9.8,5.07-13.16,5.07-11.35,0-16.43-7.22-16.43-11.7,0-6.02,6.62-12.04,13.85-16.25,0-9.12-2.84-12.64-6.11-12.64-2.41,0-5.59,1.98-9.2,7.05-2.92,5.42-5.5,9.37-7.57,9.37-1.38,0-1.89-1.38-1.89-2.24,0-1.55.86-3.61,3.1-5.76,7.4-7.14,10.41-11.61,15.13-22.7-.43.09-.77.26-1.12.34-2.06.52-3.7.77-5.07.77-7.65,0-9.8-5.85-9.8-7.05q0-.17.17-.17c.17,0,.77.26,1.81,1.03,2.92,1.98,5.42,2.58,7.74,2.58s4.9-.6,7.48-1.29c.34-1.46.43-2.67.43-3.7,0-3.44-1.46-4.21-3.96-4.9-.52-.09-.86-.34-.86-.69,0-.17,1.03-1.46,3.35-1.46,4.56,0,4.9,4.3,4.9,5.93,0,1.2-.17,2.41-.43,3.61.52-.17,4.21-1.89,4.21-3.35,0-.17-.09-.69-1.81-1.29-1.03-.43-1.46-.69-1.46-.86s.26-.26.77-.26c.26,0,.52.09.86.09.69.09,1.46.09,2.06.09.95,0,1.63,0,1.81-.09.26-.09.43-.17.6-.17,1.29,0,1.38,1.72,1.38,1.89,0,1.29-.52,4.56-9.72,7.83-2.49,6.19-6.28,12.47-7.74,14.96,1.81-1.12,3.53-1.55,5.16-1.55,4.39,0,7.65,3.87,8.77,8.86,3.78-9.12,10.92-18.23,19.18-18.23,3.61,0,10.41,3.1,10.41,7.4,0,3.35-4.13,6.62-9.46,8.86-5.76,2.41-13.42,5.5-19.35,8.51.09,1.29.09,2.67.09,4.04,0,1.63,0,3.35-.17,5.07-.17,2.58-1.98,4.73-3.35,4.73-.86,0-1.55-.86-1.55-2.92,0-.34.09-.69.09-1.03.17-2.24,1.03-2.41,1.12-6.02v-1.89Zm3.53-4.64c4.82-2.49,12.04-6.02,17.2-8.6,3.61-1.81,6.71-4.04,6.71-6.54,0-.6-1.12-4.56-5.85-4.56-7.14,0-14.88,9.46-18.06,19.44v.26Z" fill="#003383"/>
      <path d="m471.71,16.51c0,.52-.43,1.12-1.89,1.12h-55.64l-.17.17c-.86.52-1.29.52-1.29,3.1,0,.43.09.86.09,1.46.17,4.04.52,8.77.52,13.85,0,12.81-2.15,27.69-14.79,38.53-1.2,1.03-2.15,1.55-2.58,1.55-.17,0-.26-.09-.26-.26,0-.26.43-.95,1.38-1.89,9.37-9.8,11.52-23.22,11.52-37.15,0-9.29-.95-20.73-2.15-24.77-.09-.17-.09-.34-.09-.52s.09-.26.26-.26c.69,0,7.14,2.92,8.17,3.61l.34.26h19.87v-2.84c0-4.04-.09-6.97-.86-9.89-.09-.26-.09-.43-.09-.52,0-.17.09-.26.26-.26,2.41,0,8.94,1.55,8.94,2.84,0,.52-.52,1.03-1.12,1.46-2.32,1.63-2.67.34-2.75,3.96,0,.95-.09,3.7-.09,5.25h18.75c.6,0,1.2-.34,1.46-.77,3.18-4.47,3.7-4.73,4.47-4.73.26,0,.43,0,.6.09,2.84.95,7.14,5.25,7.14,6.62Zm-5.85,52.46c0,2.75-1.55,4.99-3.1,4.99-1.12,0-2.24-1.12-2.84-3.7-.52-1.98-1.46-4.3-2.67-6.62-10.49,3.01-24.08,5.25-38.79,8.17-1.38.26-2.06,1.55-2.84,1.55-1.29,0-4.56-7.31-4.56-7.48s.09-.17.26-.17c.09,0,.34,0,.6.09,2.24.34,4.82.52,6.71.52,1.2,0,4.99-.26,6.28-.43,3.18-9.46,7.74-25.8,9.03-31.91.43-2.15.52-5.68.69-7.14.09-.43,0-.52.17-.52.43,0,9.2,2.49,9.2,4.47,0,.77-.69,1.55-2.49,2.24-.86.34-1.29.43-1.63.77-.52.43-.95,1.12-12.21,31.73,11.18-1.12,20.9-2.41,28.55-3.7-2.75-4.82-6.36-9.8-9.46-13.93-.17-.26-.26-.43-.26-.52h.09s.09.09.26.17c1.29.86,19.01,12.56,19.01,21.41Z" fill="#003383"/>
      <path d="m482.55,48.5c0-8.6,2.06-16,2.84-21.16.26-1.89.43-3.61.43-5.07,0-3.7-.95-6.19-5.25-8.6-.95-.6-1.29-1.03-1.29-1.29,0-.69,1.12-.95,2.15-.95,1.12,0,2.49.17,3.18.6.09.09,5.93,4.47,5.93,8.86,0,1.98-.86,3.96-1.55,6.02-1.98,6.02-4.04,13.59-4.04,19.78,0,5.76,1.89,8.34,2.41,8.34.43,0,.86-.43,1.29-1.63,4.21-11.01,10.06-21.5,10.75-21.5.17,0,.26.17.26.52,0,.52-.26,1.46-.43,1.81-4.64,10.23-8.17,19.78-8.17,26.23,0,2.24.26,4.56.86,6.11.26.6.34,1.12.34,1.55,0,1.12-.69,1.63-1.63,1.63-4.04,0-8.08-9.63-8.08-21.24Zm40.08-6.36l-.26-12.13c-1.2.17-2.32.26-3.44.26h-2.06c-10.92,0-12.3-5.16-12.3-5.25,0-.17.09-.26.34-.26.52,0,1.72.6,2.41.77,3.1.95,6.71,1.12,9.89,1.12h1.89c1.03,0,2.15-.17,3.27-.34v-5.07c0-3.87-.69-9.37-3.7-9.37h-.52c-1.98,0-2.75-.43-2.75-.95,0-1.03,1.89-2.06,3.7-2.06,1.55,0,7.05,1.46,7.05,7.31v.69c1.72.52,4.21,1.2,5.42,1.46,1.12.26,2.32.26,2.92.34.86.17,2.41,1.12,2.41,2.75,0,.26-.34,5.59-11.35,8.08.09,4.21.43,8,.69,11.87.09,1.2.09,2.32.09,3.44,0,16.43-8.69,27.52-22.02,32.68-.09.09-2.84.86-3.78.86-.26,0-.43-.09-.43-.17,0-.26.86-.86,3.35-2.06,9.98-4.9,19.18-19.18,19.18-33.02v-.95Zm11.52-28.12c-2.32-2.75-5.42-4.73-7.74-6.02-.52-.26-1.29-.6-1.29-.77,0-.26,1.81-.26,1.98-.26,4.99,0,11.35,2.06,11.35,5.93,0,1.29-.95,2.32-2.06,2.32-.77,0-1.55-.34-2.24-1.2Zm-8.17,4.73c-.26,2.41-.34,4.64-.43,6.79,3.53-1.12,5.93-2.92,5.93-4.13,0-.86-.69-1.29-5.42-3.7,0,.34-.09.69-.09,1.03Zm17.29-8.94c-2.41-2.67-5.59-4.56-8-5.76-.52-.26-1.29-.6-1.29-.77s.86-.34,2.41-.34c4.04,0,11.18,1.46,11.18,5.76,0,1.29-.95,2.24-2.06,2.24-.69,0-1.46-.34-2.24-1.12Z" fill="#003383"/>
      <path d="m573.79,69.23c10.66-2.24,15.14-9.37,15.14-15.74,0-7.48-6.11-13.42-14.36-13.42-11.09,0-17.2,8.94-19.09,11.61-.95,1.38-2.67,5.07-3.35,6.11-1.12,1.55-2.32,2.15-3.35,2.15-1.2,0-2.06-.86-2.06-2.15,0-2.24,5.76-9.12,6.97-10.49,2.75-3.18,5.16-6.62,7.83-10.58,2.75-4.04,8.94-11.7,12.73-17.46.77-1.2,1.29-2.15,1.29-2.84,0-1.2-1.63-1.46-2.32-1.46-4.13,0-6.79,7.65-12.3,7.65-1.63,0-5.07-.77-5.07-4.56,0-.69.17-.95.52-.95.43,0,1.03.34,1.72.6.69.26,1.46.34,2.24.34,1.29,0,2.67-.43,3.7-1.29,1.38-1.2,6.36-5.25,11.18-5.25,5.25,0,7.22,3.7,7.22,4.82,0,1.29-1.12,2.58-2.92,3.87-7.65,5.76-18.23,21.24-18.23,21.5h.09c.09,0,.17,0,.43-.17,4.13-2.49,9.12-4.04,14.02-4.04,10.66,0,17.8,7.22,17.8,15.91,0,10.15-9.72,18.92-23.82,18.92-6.71,0-13.24-3.18-13.24-8.34s5.07-6.36,7.83-6.36c4.9,0,9.12,3.96,9.12,8.51,0,1.03-.26,2.15-.77,3.27l1.12-.17Zm-4.3-3.1c0-3.18-2.49-5.68-5.68-5.68-2.06,0-4.3,1.03-4.3,3.53,0,3.1,4.39,5.33,9.03,5.59.69-1.2.95-2.32.95-3.44Z" fill="#003383"/>
    </g>
  </g>
</svg>