<?xml version="1.0" encoding="UTF-8"?>
<svg id="_レイヤー_2" data-name="レイヤー 2" xmlns="http://www.w3.org/2000/svg" viewBox="0 0 403.62 253.63">
  <g id="_デザイン" data-name="デザイン">
    <g>
      <g>
        <path d="M100.71,71.07c0,.66-.11,1.21-.66,1.53-6.79,.77-11.4,2.74-12.05,8.77-.44,4.49-.55,11.07-.55,18.19,0,8.88,.22,18.63,.44,26.08,.33,12.49,0,16.66,9.42,17.53,.44,.44,.88,1.32,.88,2.08,0,.66-.33,1.1-1.21,1.1,0,0-8.11-.66-16.33-.66-4.05,0-8.11,.22-11.18,.66h-.22c-.77,0-1.21-.44-1.21-.99,0-.66,.44-1.42,1.21-2.19,8.99-1.21,10.3-2.19,10.3-12.6v-3.29c-.11-5.15-.22-14.36-.22-23.12,0-7.67,.11-14.9,.33-18.74,0-.44-.11-.66-.33-.66-.55,0-18.3,34.74-28.16,56.55-1.42,3.29-1.97,4.16-3.73,4.16h-.11c-1.21,0-1.64-1.21-2.3-3.4-1.21-4.49-5.59-13.81-10.63-24.22-5.26-11.18-10.3-20.71-14.47-31.01-.55-1.42-.88-1.97-1.1-1.97-.99,0-2.41,34.63-2.41,36.49,.11,20.71,.77,20.6,9.31,21.81,.66,.66,.88,1.32,.88,1.97s-.44,1.1-1.1,1.21c-.11,0-7.01-.77-14.25-.77-3.62,0-7.23,.22-10.19,.77h-.22c-.55,0-.88-.44-.88-1.1,0-.55,.33-1.42,.99-2.08,9.21-.88,10.41-4.71,11.29-20.6,.22-5.26,1.75-28.93,2.63-38.9,0-.66,.11-1.21,.11-1.75,0-7.89-5.04-8.66-12.82-9.42-.55-.55-.88-1.21-.88-1.86,0-.77,.44-1.42,1.64-1.42,0,0,6.14,.55,12.05,.55,2.3,0,4.6-.11,6.47-.33h.33c.55,0,.66,.22,.77,1.21,.11,1.32,2.19,6.14,2.96,8.11,8.66,22.14,20.93,41.31,24.88,52.38,.11,.44,.22,.77,.33,.77,0,0,.11-.22,.33-.44,22.58-43.95,28.05-54.9,29.04-59.4,.33-1.21,.77-2.08,1.42-2.19,0,0,3.4,.11,7.56,.11,3.73,0,8.11-.11,11.07-.55,.22,0,.55,.88,.55,1.64Z" fill="#003383"/>
        <path d="M157.59,85.1c-.55,0-.99-.22-1.21-.66-4.71-9.86-6.25-11.51-19.51-11.51-2.52,0-4.71,.11-6.68,.33-2.96,.55-3.4,.88-3.4,23.56v6.14c0,1.53,2.85,1.75,7.56,1.75,10.74,0,15.78-1.31,17.1-9.53,.11-.88,1.1-1.31,1.86-1.31,.66,0,1.32,.33,1.32,1.21v.44c-.44,2.74-.55,6.25-.55,9.64,0,6.79,.55,13.26,.55,13.26v.11c0,.66-.77,1.1-1.64,1.1-.66,0-1.42-.44-1.42-1.21-1.1-10.41-7.23-10.63-19.4-10.63-5.15,0-5.37,.22-5.37,1.86v1.31c0,3.29,.22,9.42,.22,13.37v2.96c0,14.36,1.86,14.14,11.84,16,.77,.11,1.1,.77,1.1,1.42,0,.77-.44,1.64-1.1,1.64,0,0-8.44-.77-17.1-.77-4.38,0-8.77,.22-12.27,.77h-.22c-.77,0-1.1-.44-1.1-1.1s.33-1.42,1.1-1.97c7.23-1.1,8.99-2.52,9.42-8.88,.22-2.3,.44-7.34,.44-27.73,0-6.68,0-13.26-.11-18.63-.22-15.01-.44-13.92-10.19-15.34-.66-.44-1.1-1.32-1.1-1.97s.44-1.21,1.1-1.21h.22c2.85,.33,6.68,.44,11.07,.44,8.11,0,18.08-.33,27.18-.33,3.62,0,7.23,0,10.41,.22,1.21,0,1.42,.22,1.42,.99,0,.33-.11,.77-.11,1.42-.11,.77-.11,1.75-.11,2.63,0,2.63,.22,5.81,.33,8.77,0,.88-.88,1.42-1.64,1.42Z" fill="#003383"/>
        <path d="M198.03,146.58h-.33c-7.01-.11-13.81-.88-20.71-.88-2.85,0-5.81,.11-8.77,.55h-.22c-.66,0-.99-.44-.99-.99,0-.66,.33-1.42,1.21-2.08,9.42-.66,9.42-3.18,9.75-12.71,0-3.51,.11-8.22,.11-14.25,.11-2.52,.11-6.9,.11-11.18,0-14.03-.33-22.47-.88-26.41-.22-1.97-.55-5.48-8.22-5.48h-.33c-.66,0-.99-.88-.99-1.75,0-.77,.22-1.42,.88-1.42h.11c1.75,.22,3.84,.22,6.14,.22,6.36,0,13.81-.55,18.85-.55,14.9,0,25.75,4.82,25.75,16.55-.11,11.62-9.31,16.66-16.55,17.64-.44,.11-.88,.22-.88,.33,0,0,.22,.11,.99,.11,10.19,.44,22.79,7.34,22.79,19.73,0,16.88-16.33,22.58-27.84,22.58Zm-4.38-73.86c-7.12,0-7.56,1.31-7.78,5.81v22.14c0,.44,.11,2.41,2.19,2.41h.44c1.1-.11,3.4-.33,5.48-.44,5.15-.22,16.33-.99,16.33-14.36,0-10.08-6.69-15.56-16.66-15.56Zm2.08,33.53h-1.31c-6.58,0-8.55,.11-8.55,2.63,0,6.14,0,14.14,.11,17.42,.44,12.05,1.75,17.1,12.27,17.1s18.19-8.22,18.19-17.75-4.38-19.4-20.71-19.4Z" fill="#003383"/>
        <path d="M329.2,71.07c0,.66-.11,1.21-.66,1.53-6.79,.77-11.4,2.74-12.05,8.77-.44,4.49-.55,11.07-.55,18.19,0,8.88,.22,18.63,.44,26.08,.33,12.49,0,16.66,9.42,17.53,.44,.44,.88,1.32,.88,2.08,0,.66-.33,1.1-1.21,1.1,0,0-8.11-.66-16.33-.66-4.05,0-8.11,.22-11.18,.66h-.22c-.77,0-1.21-.44-1.21-.99,0-.66,.44-1.42,1.21-2.19,8.99-1.21,10.3-2.19,10.3-12.6v-3.29c-.11-5.15-.22-14.36-.22-23.12,0-7.67,.11-14.9,.33-18.74,0-.44-.11-.66-.33-.66-.55,0-18.3,34.74-28.16,56.55-1.42,3.29-1.97,4.16-3.73,4.16h-.11c-1.21,0-1.64-1.21-2.3-3.4-1.21-4.49-5.59-13.81-10.63-24.22-5.26-11.18-10.3-20.71-14.47-31.01-.55-1.42-.88-1.97-1.1-1.97-.99,0-2.41,34.63-2.41,36.49,.11,20.71,.77,20.6,9.32,21.81,.66,.66,.88,1.32,.88,1.97s-.44,1.1-1.1,1.21c-.11,0-7.01-.77-14.25-.77-3.62,0-7.23,.22-10.19,.77h-.22c-.55,0-.88-.44-.88-1.1,0-.55,.33-1.42,.99-2.08,9.21-.88,10.41-4.71,11.29-20.6,.22-5.26,1.75-28.93,2.63-38.9,0-.66,.11-1.21,.11-1.75,0-7.89-5.04-8.66-12.82-9.42-.55-.55-.88-1.21-.88-1.86,0-.77,.44-1.42,1.64-1.42,0,0,6.14,.55,12.05,.55,2.3,0,4.6-.11,6.47-.33h.33c.55,0,.66,.22,.77,1.21,.11,1.32,2.19,6.14,2.96,8.11,8.66,22.14,20.93,41.31,24.88,52.38,.11,.44,.22,.77,.33,.77,0,0,.11-.22,.33-.44,22.58-43.95,28.05-54.9,29.04-59.4,.33-1.21,.77-2.08,1.42-2.19,0,0,3.4,.11,7.56,.11,3.73,0,8.11-.11,11.07-.55,.22,0,.55,.88,.55,1.64Z" fill="#003383"/>
        <path d="M367.32,98.22c0,22.17-17.23,41.45-24.5,41.45-4.29,0-5.59-5.78-9.59-11.36-1.49-2.05-2.14-5.03-2.14-8.38,0-14.07,12.3-36.42,37.26-36.42,21.05,0,31.58,14.63,31.58,29.72,0,28.78-32.88,36.33-39.4,36.33-.84,0-1.3-.19-1.3-.37,0-.47,1.49-1.21,3.91-1.96,26.46-7.45,31.77-23.38,31.77-34.47,0-13.6-9.04-26.36-27.48-26.55-1.21,0-2.42,.19-3.63,.28,2.33,1.3,3.54,5.87,3.54,11.74Zm-32.14,20.21c0,7.82,4.56,14.63,8.66,14.63,5.68,0,20.68-18.72,20.68-37.17,0-7.27-1.68-8.66-3.73-8.66-.75,0-1.49,.19-2.61,.47-13.41,4.19-23.01,18.54-23.01,30.74Z" fill="#003383"/>
        <path d="M70.47,188.97c0,.66-.44,1.42-1.64,2.3-1.97,1.32-3.29,1.75-5.37,5.48-14.25,25.31-31.67,45.48-56.77,53.04-.77,.22-1.42,.33-1.86,.33-.66,0-.99-.22-.99-.44,0-.44,.77-1.1,2.3-1.75,30.79-12.93,52.05-53.92,52.05-56.55,0-1.64-1.42-2.85-3.73-2.85s-15.12,2.3-24.88,5.37c-4.82,1.42-7.12,2.63-9.64,2.63-4.27,0-13.92-5.7-13.92-8.44,0-1.1,1.1-1.75,1.97-1.75,.55,0,1.1,.22,1.31,.66,.99,1.75,4.93,2.41,9.75,2.41,2.3,0,4.82-.11,7.23-.44,5.26-.55,19.4-3.07,25.1-3.51,3.07-.22,4.27-2.96,6.58-2.96,2.74,0,12.49,2.96,12.49,6.47Z" fill="#003383"/>
        <path d="M101.59,205.41c-.66,.77-1.32,1.42-1.75,2.08-1.64,2.52-3.51,5.26-5.7,7.89,1.75,1.1,2.96,3.29,2.96,4.93,0,.55-.11,.99-.33,1.32-.33,.55-.44,2.96-.55,6.14v8.99c0,4.38,.22,8.11,.22,8.44v1.42c0,1.42-.11,7.01-3.18,7.01-.22,0-3.29,0-3.29-7.01,0-.88,.11-1.97,.22-3.07,.33-2.19,.88-2.96,.99-5.15,.33-5.26,.33-10.3,.33-15.01,0-1.53,0-3.4-.44-4.6-13.59,14.68-27.07,20.49-29.7,20.49-.44,0-.77-.22-.77-.44,0-.33,.55-.88,1.75-1.53,16-8.55,33.21-30.79,33.21-35.73,0-1.21-.99-1.64-2.74-2.19-.77-.22-1.1-.66-1.1-1.1,0-.77,1.1-2.52,3.18-2.52,2.96,0,8.66,3.18,8.66,6.03,0,1.42-1.42,3.07-1.97,3.62Z" fill="#003383"/>
        <path d="M186.52,211.33c-6.14,.22-20.82,.11-33.86,.88-6.47,.33-12.27,.99-16.77,1.97-2.3,.55-4.27,.88-6.14,.88-5.81,0-13.48-5.59-13.48-8.77,0-.66,.33-.88,.77-.88,.11,0,.22,0,2.74,1.42,2.19,1.21,6.47,1.53,9.64,1.53,4.49,0,36.93-1.53,50.85-2.63,1.32-.11,3.07-.22,4.82-.22,2.74,0,8.55,.22,8.55,2.74,0,1.53-2.85,2.96-7.12,3.07Z" fill="#003383"/>
        <path d="M183.89,247.05c-.44,0-.66-.11-.66-.22,0-.33,.55-.88,1.64-1.32,13.92-5.92,32-32.33,32-42.96,0-5.48-3.4-6.79-7.12-7.12-.77-.11-1.1-.55-1.1-1.1,0-1.53,2.19-2.96,4.05-2.96,3.4,0,10.96,3.95,10.96,10.19,0,1.97-.55,3.62-.99,5.04-8.22,25.75-33.1,40.44-38.79,40.44Zm61.04-13.92c-1.32,.88-3.84,4.6-6.25,4.6s-6.9-6.14-6.9-8c0-.99,.88-1.86,1.31-5.48,1.21-9.31,1.86-16.22,1.86-21.48,0-8.77-1.75-12.6-5.37-13.81-1.86-.66-2.41-1.32-2.41-1.86,0-.77,1.1-1.32,1.42-1.32,.44-.11,1.53-.33,2.85-.33,4.16,0,9.32,5.81,9.32,10.63,0,.77-.22,1.64-.44,2.52-1.64,5.48-3.07,28.27-3.07,29.15,0,.66,.66,1.1,1.21,1.1,2.52,0,25.64-13.59,40.44-35.95,.99-1.53,1.75-2.19,2.08-2.19,.11,0,.22,.11,.22,.44,0,2.3-13.81,27.4-36.27,41.97Z" fill="#003383"/>
        <path d="M321.21,214.07c0,1.75-1.1,3.18-3.07,3.18-.99,0-2.19-.44-3.62-1.42-6.47-4.71-10.63-7.12-19.4-9.31,0,3.18-.11,6.58-.11,9.86,0,13.26,.33,26.08,.33,26.85,0,3.51-.22,10.19-3.18,10.19-2.74,0-4.05-5.92-4.05-8.77,0-1.64,.22-3.51,.66-5.7,.66-3.4,.66-1.86,1.1-5.59,.55-4.38,.99-18.96,.99-31.67,0-16.88-.11-26.19-6.03-26.19-1.21,0-1.86-.44-1.86-1.21,0-.88,1.1-2.41,3.29-2.41,1.97,0,11.07,2.96,11.07,9.64,0,2.19-.99,4.71-1.42,9.1-.44,3.51-.66,8.77-.77,14.68h1.86c8.11,0,14.79,0,20.49,3.4,2.63,1.53,3.73,3.62,3.73,5.37Zm3.62-21.92c0,1.64-1.21,2.96-2.63,2.96-.99,0-1.97-.44-2.85-1.53-2.96-3.51-6.79-5.92-9.75-7.56-.66-.33-1.64-.77-1.64-.99,0-.33,2.3-.33,2.52-.33,2.85,0,14.36,1.21,14.36,7.45Zm11.4-5.26c0,1.64-1.21,2.85-2.63,2.85-.88,0-1.75-.44-2.74-1.42-3.07-3.4-7.12-5.7-10.08-7.23-.66-.33-1.64-.77-1.64-.99s.88-.44,3.07-.44c5.81,0,14.03,2.08,14.03,7.23Z" fill="#003383"/>
      </g>
      <g>
        <path d="M14.25,28.07c-2.51,0-7.5-.04-7.5-4.99,0-.23,0-.46,.04-.69,.3-3.47,.34-5.6,.34-7.77v-.42c0-4.65-.65-6.59-2.44-6.7-1.03-.04-1.41-.3-1.41-.57s.8-1.03,2.06-1.03c1.56,0,4.53,1.75,4.53,4.04,0,.99-.38,2.13-.53,3.47-.11,1.14-.23,2.4-.3,3.66,3.35-.91,9.06-3.58,9.06-4.38,0-.23-.27-.46-.99-.69-.5-.15-.72-.27-.72-.38,0-.19,.95-.34,1.64-.34,.3,0,4.53,.5,4.53,2.32,0,.42-.3,.88-1.14,1.18-4.19,1.56-8.99,2.55-12.38,3.01h-.04c-.11,1.87-.19,3.62-.19,4.68,0,1.83,.3,3.58,5.64,3.58,1.07,0,2.25-.08,3.24-.19,1.79-.19,2.78-1.26,4.3-1.45,.19-.04,.38-.04,.57-.04,.15,0,2.78,0,2.78,1.33,0,2.17-7.88,2.36-11.08,2.36ZM25.26,10.28c0,.72-.5,1.26-1.1,1.26-.3,0-.69-.19-1.03-.57-.99-1.18-2.25-2.09-3.28-2.67-.3-.15-.57-.27-.57-.38,0-.04,.53-.23,1.49-.23,2.06,0,4.49,.88,4.49,2.59Zm4-1.87c0,.69-.5,1.22-1.1,1.22-.3,0-.65-.15-.99-.5-1.07-1.14-2.32-2.06-3.35-2.59-.3-.15-.61-.27-.61-.34,0-.3,1.6-.3,1.68-.3,2.09,0,4.38,.88,4.38,2.51Z" fill="#003383"/>
        <path d="M42.47,16.03c0,.65-.38,1.14-1.1,1.14-.42,0-.88-.15-1.45-.5-1.45-.91-3.73-1.98-5.26-2.48-.3-.11-.46-.15-.46-.23,0,0,1.03-.69,3.66-.69,3.28,0,4.61,1.37,4.61,2.74Zm1.71,11.5c-.99,.61-1.37,1.45-2.32,1.45s-4.38-1.49-4.38-3.47c0-.46,.3-1.49,.72-1.49,.19,0,.38,.27,.5,.57,.34,.69,.95,1.07,1.83,1.07,5.26,0,17.75-12.3,22.09-17.56,.5-.61,.8-.91,.88-.91v.04c0,.11-.15,.53-.46,1.26-2.4,5.79-10.78,14.21-18.85,19.04Zm3.88-17.71c0,.69-.42,1.22-1.1,1.22-.46,0-.95-.19-1.56-.69-1.29-1.1-3.39-2.44-4.84-3.16-.27-.11-.42-.23-.42-.27,0-.15,.91-.34,2.06-.34,4.53,0,5.87,1.98,5.87,3.24Zm11.58-4.23c0,.72-.5,1.26-1.1,1.26-.3,0-.69-.19-1.03-.57-.99-1.18-2.25-2.09-3.28-2.67-.3-.15-.57-.27-.57-.38,0-.04,.53-.23,1.49-.23,2.06,0,4.49,.88,4.49,2.59Zm3.96-1.87c0,.69-.5,1.22-1.1,1.22-.3,0-.65-.15-.99-.5-1.07-1.14-2.32-2.06-3.35-2.59-.3-.15-.61-.27-.61-.34,0-.3,1.6-.3,1.68-.3,2.09,0,4.38,.88,4.38,2.51Z" fill="#003383"/>
        <path d="M84.97,11.58c-.61,.91-1.22,1.75-1.83,2.59,.61,.42,1.03,1.1,1.03,1.71,0,.19-.04,.34-.11,.5-.19,.38-.23,2.21-.23,4.23,0,1.64,.04,3.43,.04,4.72,0,.91,.04,1.6,.04,1.83v.3c0,1.07-.08,3.28-1.29,3.28-.76,0-1.41-1.37-1.41-3.08,0-.38,.04-.84,.11-1.26,.11-.5,.3-.95,.38-1.49,.3-2.63,.38-5.41,.42-7.77,0-.5-.04-1.07-.11-1.56-7.88,9.71-14.62,10.36-14.85,10.36-.11,0-.15,0-.15-.04,0-.11,.3-.3,.91-.57,6.7-3.01,15.5-14.78,15.5-16,0-.23-.11-.34-.42-.34-.91,0-3.47,1.33-4.68,1.98-1.29,.69-1.64,.95-2.4,.95-2.09,0-3.54-1.56-3.54-2.25,0-.23,.11-.38,.3-.38,.11,0,.23,.04,.34,.11,.3,.19,.69,.23,1.14,.23,1.68,0,7.77-1.6,7.92-1.64,.95-.38,.95-1.07,1.75-1.07,1.03,0,3.54,1.1,3.54,1.98,0,.23-.19,.5-.57,.72-.65,.38-1.07,.8-1.83,1.94Zm.76-8.04c0,.72-.5,1.29-1.26,1.29-.34,0-.8-.15-1.26-.5-1.71-1.29-4-2.32-6.21-2.82-.42-.08-.72-.23-.72-.3,0-.19,.61-.3,3.05-.3,4.19,0,6.4,1.1,6.4,2.63Zm9.56,16.57c0,.8-.5,1.37-1.18,1.37-.46,0-.99-.23-1.52-.88-1.75-2.13-3.85-3.62-5.6-4.68-.42-.23-.65-.38-.65-.46,0-.04,.11-.08,.3-.08,4.23,0,8.65,2.36,8.65,4.72Z" fill="#003383"/>
        <path d="M125.94,25.56c0,.88-.53,1.49-1.26,1.49-.53,0-1.14-.34-1.68-1.18-1.6-2.51-4.72-5.41-7.39-7.12-.27-.15-.5-.34-.65-.46-8.15,8.99-16.99,10.4-17.56,10.4-.15,0-.23-.04-.23-.08,0-.11,.42-.38,1.18-.69,11.77-4.76,19.46-17.02,19.46-18.4,0-.38-.19-.69-.8-.69-1.03,0-4.49,1.29-6.28,2.06-1.26,.53-1.83,.84-2.59,.84-1.56,0-4.15-1.41-4.15-2.59,0-.61,.27-.84,.53-.84,.19,0,.38,.11,.46,.3,.19,.42,.99,.57,1.98,.57,.76,0,1.64-.08,2.48-.19,1.14-.15,5.03-.91,6.21-1.1,1.03-.19,1.56-1.18,2.44-1.18s4.04,1.03,4.04,2.48c0,.27-.15,.53-.53,.8-.65,.42-1.18,.72-1.79,1.75-1.37,2.29-2.89,4.34-4.53,6.21,2.51,.5,10.66,4.46,10.66,7.62Z" fill="#003383"/>
        <path d="M140.33,16.03c0,.65-.38,1.14-1.1,1.14-.42,0-.88-.15-1.45-.5-1.45-.91-3.73-1.98-5.26-2.48-.3-.11-.46-.15-.46-.23,0,0,1.03-.69,3.66-.69,3.28,0,4.61,1.37,4.61,2.74Zm1.71,11.5c-.99,.61-1.37,1.45-2.32,1.45s-4.38-1.49-4.38-3.47c0-.46,.3-1.49,.72-1.49,.19,0,.38,.27,.5,.57,.34,.69,.95,1.07,1.83,1.07,5.26,0,17.75-12.3,22.09-17.56,.5-.61,.8-.91,.88-.91v.04c0,.11-.15,.53-.46,1.26-2.4,5.79-10.78,14.21-18.85,19.04Zm3.88-17.71c0,.69-.42,1.22-1.1,1.22-.46,0-.95-.19-1.56-.69-1.29-1.1-3.39-2.44-4.84-3.16-.27-.11-.42-.23-.42-.27,0-.15,.91-.34,2.06-.34,4.53,0,5.87,1.98,5.87,3.24Z" fill="#003383"/>
        <path d="M194.18,14.74c0,.69-1.45,1.22-2.82,1.26-3.16,.11-12.68-.04-17.25,.95-.84,.19-1.49,.34-2.17,.34-1.94,0-4.88-1.9-4.88-3.35,0-.3,.08-.42,.27-.42,.23,0,.65,.27,1.07,.53,.76,.46,2.48,.53,3.66,.53,.61,0,12.26-.53,17.25-.91,.38-.04,.84-.04,1.33-.04,.88,0,3.54,.04,3.54,1.1Z" fill="#003383"/>
        <path d="M208.96,13.37c-.42,0-.91-.19-1.45-.69-1.98-1.87-4-2.78-6.4-3.69-.34-.11-.5-.23-.5-.3,0-.11,1.03-.3,2.55-.3,5.07,0,7.16,1.75,7.16,3.39,0,.42-.15,1.6-1.37,1.6Zm.61,13.1c-1.03,.65-1.22,1.68-2.29,1.68-1.14,0-4.53-1.75-4.53-3.58,0-.11,.08-1.18,.42-1.18,.15,0,.3,.19,.57,.5,.46,.53,1.07,.84,1.87,.84,4.68,0,18.01-12.57,22.24-17.48,.46-.53,.69-.72,.76-.72l.04,.04c0,.76-5.87,11.43-19.08,19.92Z" fill="#003383"/>
        <path d="M243.04,30.58c-.34,0-.53-.08-.53-.15,0-.19,.61-.5,1.71-.8,10.02-2.7,12.72-9.33,12.72-14.05,0-5.64-3.88-10.78-11.12-10.78-.46,0-.91,.04-1.37,.08,.95,.69,1.49,2.63,1.49,5.07,0,8.34-6.67,16.83-9.94,16.83-1.87,0-2.55-2.55-4.11-4.8-.61-.84-.91-2.06-.91-3.47,0-5.79,5.07-14.97,15.35-14.97,8.65,0,13.1,5.98,13.1,12.19,0,11.58-13.25,14.85-16.38,14.85Zm.08-25.4c-.11,0-.23,0-.38,.04-.11,.04-.23,.04-.3,.04-5.87,1.68-9.56,7.39-9.56,12.38,0,3.35,1.68,5.9,3.5,5.9,2.55,0,8.23-7.96,8.23-14.97,0-2.74-.65-3.39-1.49-3.39Z" fill="#003383"/>
        <path d="M295.36,8.87c0,.53-.46,.95-1.26,.95-.3,0-.61-.04-.99-.15-2.4-.72-5.07-1.03-7.81-1.03-.91,0-1.87,.04-2.78,.11-.08,1.22-.11,2.29-.11,3.28,0,1.49,.08,2.7,.11,3.62,1.1,1.18,1.41,2.63,1.41,4,0,7.46-8.34,12.38-10.51,12.38-.15,0-.23-.04-.23-.11,0-.11,.3-.38,.99-.69,1.83-.8,6.02-4.49,7.12-9.29-.53,.65-1.18,1.07-1.94,1.26-.19,.04-.34,.04-.5,.04-.84,0-1.49-.46-1.83-.99-.8-1.26-1.56-2.55-1.56-4.53,0-2.44,1.64-3.62,3.47-3.62,.65,0,1.33,.15,1.98,.46,0-1.49-.04-3.39-.08-5.64-3.5,.42-6.89,1.29-9.71,2.51-.76,.34-1.71,.61-2.74,.61-1.94,0-4.15-1.14-4.15-3.01,0-.34,.15-.5,.38-.5,.19,0,.5,.15,.8,.46,.38,.38,1.49,.42,2.17,.42s1.37-.04,2.06-.15c3.85-.57,7.46-1.14,11.2-1.6,0-1.18-.04-2.44-.04-3.73,0-1.79-.61-2.17-1.49-2.74-.23-.15-.3-.23-.3-.38,0-.27,.42-.8,1.52-.8,.57,0,2.74,.19,2.74,2.86,0,.42-.08,.84-.15,1.33-.23,1.14-.38,2.21-.5,3.24,1.52-.15,3.12-.27,4.76-.34,.38-.04,.57-.11,.57-.23,0-.04-.08-.11-.15-.15-.91-.57-3.12-2.25-3.12-2.36,0-.04,.04-.04,.08-.04,.23,0,.76,.19,1.07,.34,1.79,.88,3.73,1.6,5.14,1.83,3.5,.5,4.38,1.68,4.38,2.4Zm-16.95,6.17c-.95,0-1.79,.69-1.79,2.06,0,.57,.42,3.69,2.7,3.69,1.52,0,1.79-1.68,1.79-2.78,0-.38-.04-.76-.11-1.14-.88-1.75-2.25-1.83-2.59-1.83Z" fill="#003383"/>
        <path d="M333.98,23.54c0,.65-.57,1.22-1.83,1.22-.34,0-.76-.04-1.26-.15-7.16-1.71-10.89-8.26-17.21-12.38-.46-.3-.95-.42-1.41-.42-.76,0-1.49,.38-2.06,.91-1.18,1.1-3.05,4.34-3.69,5.22-.72,1.03-1.64,1.41-2.48,1.41-1.37,0-3.31-1.18-3.31-2.89,0-.38,.15-.57,.34-.57,.15,0,.3,.11,.46,.3,.19,.27,.65,.42,1.18,.42,.46,0,1.03-.11,1.52-.46,.76-.5,2.93-2.82,4.88-4.3,.88-.69,1.94-1.14,3.12-1.14,.76,0,1.6,.19,2.48,.72,6.93,4.11,11.46,9.56,16.99,10.25,1.49,.19,2.29,1.07,2.29,1.87Zm-8.99-11.01c0,.69-.5,1.26-1.1,1.26-.3,0-.69-.15-1.03-.53-1.1-1.14-2.48-2.06-3.54-2.59-.3-.15-.57-.23-.57-.34,0-.15,1.22-.3,1.9-.3,3.28,0,4.34,1.49,4.34,2.51Zm4-2.17c0,.69-.5,1.26-1.14,1.26-.3,0-.65-.11-.99-.46-1.14-1.1-2.48-1.98-3.58-2.48-.3-.15-.65-.23-.65-.34,0-.08,.8-.38,2.13-.38,2.06,0,4.23,.72,4.23,2.4Z" fill="#003383"/>
        <path d="M364.55,5.29c0,.61-.57,1.18-1.83,1.18-.27,0-.57-.04-.88-.08-.65-.11-1.33-.15-2.06-.15-2.21,0-4.42,.5-5.48,1.07-2.78,1.49-4.76,7.39-4.76,12.3,0,7.77,4.95,8.07,6.09,8.07,.69,0,1.45-.11,2.25-.38,.34-.11,.69-.15,.99-.15,1.03,0,1.71,.57,1.71,1.26,0,1.52-3.08,2.06-4.61,2.06-1.79,0-8-.65-8-9.64,0-4.68,1.64-10.13,3.66-12.23,.27-.27,.46-.46,.46-.53,0,0,0-.04-.04-.04-.38,0-4.76,1.83-8.49,3.77-.76,.38-1.64,.57-2.51,.57-1.71,0-3.28-.72-3.28-2.02,0-.15,.04-.38,.3-.38,.23,0,.53,.11,.8,.15,.57,.08,1.18,.19,1.87,.19s1.41-.11,2.21-.38c1.79-.61,8.46-4.19,14.24-5.71,.8-.19,1.41-.65,3.08-.76h.19c3.5,0,4.08,1.22,4.08,1.83Z" fill="#003383"/>
        <path d="M388.73,16.72c0,7.92-4.19,12.04-8.07,12.04-.53,0-.99-.08-1.41-.23-1.68-.53-.95-1.94-1.41-3.35-.19-.65-.3-1.07-.3-1.29,0-.11,.04-.15,.08-.15,.15,0,.5,.34,.99,1.03,.69,.95,1.68,1.52,2.7,1.52,3.24,0,5.52-5.37,5.52-10.32,0-2.59-.61-4.38-2.21-4.38-.23,0-1.14,.08-2.86,1.29-1.83,4.34-4.88,10.44-7.01,14.4-.76,1.41-1.87,2.09-2.59,2.09-.5,0-.84-.27-.84-.88,0-.57,.34-1.41,1.18-2.55,1.83-2.48,5.6-8,7.58-12.53-1.14,.57-3.69,1.64-4.76,1.64-1.75,0-2.97-1.22-2.97-2.78,0-1.26,.23-1.37,.3-1.37,.19,0,.46,.34,.72,.72,.53,.69,1.41,.84,2.36,.84,1.94,0,3.58-.46,5.1-.99,.11-.34,.72-2.51,.72-4.19,0-1.22-.3-2.09-1.22-2.25-.46-.08-.84-.27-.84-.53,0-.53,1.6-1.29,2.4-1.29,.53,0,1.98,.19,1.98,2.4,0,.88-.34,2.25-1.33,5.26,1.37-.46,1.87-.5,2.29-.5,2.09,0,3.88,1.33,3.88,6.36Zm12.87,.69c0,1.94-1.18,3.54-2.55,3.54-.3,0-.53-.08-.76-.19-.23-.15-.69-.19-1.37-.19-.57,0-1.26,.04-2.09,.04s-1.18-.08-1.18-.19,.46-.27,1.1-.38c2.67-.53,4.23-1.18,4.23-3.24,0-2.93-3.05-3.88-5.03-4.68-.84-.3-1.26-.5-1.26-.61,0-.04,.19-.08,.5-.08,5.07,0,8.42,2.7,8.42,5.98Zm-1.79-8.34c0,.65-.46,1.18-1.03,1.18-.3,0-.65-.11-.99-.46-1.1-1.07-2.44-1.9-3.5-2.36-.3-.11-.61-.23-.61-.34,0-.19,1.03-.38,2.06-.38,3.2,0,4.08,1.45,4.08,2.36Zm3.81-2.25c0,.69-.46,1.22-1.07,1.22-.3,0-.61-.11-.95-.42-1.14-1.03-2.51-1.87-3.58-2.29-.3-.11-.61-.19-.61-.3,0,0,.8-.46,2.4-.46,2.32,0,3.81,.99,3.81,2.25Z" fill="#003383"/>
      </g>
    </g>
  </g>
</svg>