<?xml version="1.0" encoding="UTF-8"?>
<svg xmlns="http://www.w3.org/2000/svg" xmlns:xlink="http://www.w3.org/1999/xlink" viewBox="0 0 392.7 299.2">
  <defs>
    <linearGradient id="GradientFill_4" data-name="GradientFill 4" x1="189.56" y1="136.84" x2="191.85" y2="136.84" gradientUnits="userSpaceOnUse">
      <stop offset="0" stop-color="#b78559"/>
      <stop offset=".21" stop-color="#733709"/>
      <stop offset=".59" stop-color="#4d2800"/>
      <stop offset=".78" stop-color="#452300"/>
      <stop offset=".89" stop-color="#5a2d04"/>
      <stop offset="1" stop-color="#9a6435"/>
    </linearGradient>
    <linearGradient id="GradientFill_10" data-name="GradientFill 10" x1="185.56" y1="121.51" x2="195.68" y2="131.63" gradientUnits="userSpaceOnUse">
      <stop offset="0" stop-color="#98d156"/>
      <stop offset="1" stop-color="#819989"/>
    </linearGradient>
    <linearGradient id="GradientFill_4-2" data-name="GradientFill 4" x1="160.35" y1="136.04" x2="162.41" y2="136.04" xlink:href="#GradientFill_4"/>
    <linearGradient id="GradientFill_10-2" data-name="GradientFill 10" x1="156.76" y1="122.25" x2="165.86" y2="131.35" xlink:href="#GradientFill_10"/>
    <linearGradient id="GradientFill_4-3" data-name="GradientFill 4" x1="174.4" y1="132.72" x2="177.04" y2="132.72" xlink:href="#GradientFill_4"/>
    <linearGradient id="GradientFill_10-3" data-name="GradientFill 10" x1="169.8" y1="115.06" x2="181.46" y2="126.71" xlink:href="#GradientFill_10"/>
    <linearGradient id="GradientFill_4-4" data-name="GradientFill 4" x1="174.4" y1="144.81" x2="177.04" y2="144.81" xlink:href="#GradientFill_4"/>
    <linearGradient id="GradientFill_10-4" data-name="GradientFill 10" x1="169.8" y1="127.15" x2="181.46" y2="138.81" xlink:href="#GradientFill_10"/>
    <linearGradient id="_名称未設定グラデーション_1610" data-name="名称未設定グラデーション 1610" x1="206.23" y1="192.3" x2="255.79" y2="192.3" gradientTransform="translate(592.12) rotate(-180) scale(1 -1)" gradientUnits="userSpaceOnUse">
      <stop offset="0" stop-color="#1b221e"/>
      <stop offset=".07" stop-color="#1b2321"/>
      <stop offset=".66" stop-color="#1e2c3d"/>
      <stop offset="1" stop-color="#203048"/>
    </linearGradient>
    <linearGradient id="_名称未設定グラデーション_1567" data-name="名称未設定グラデーション 1567" x1="255.73" y1="192.3" x2="305.62" y2="192.3" gradientTransform="translate(592.12) rotate(-180) scale(1 -1)" gradientUnits="userSpaceOnUse">
      <stop offset="0" stop-color="#47758c"/>
      <stop offset="1" stop-color="#1b2241"/>
    </linearGradient>
    <linearGradient id="_名称未設定グラデーション_1570" data-name="名称未設定グラデーション 1570" x1="214.5" y1="110.57" x2="256" y2="110.57" gradientTransform="translate(592.12) rotate(-180) scale(1 -1)" gradientUnits="userSpaceOnUse">
      <stop offset="0" stop-color="#b5ceea"/>
      <stop offset="1" stop-color="#c6eae3"/>
    </linearGradient>
    <linearGradient id="_名称未設定グラデーション_1567-2" data-name="名称未設定グラデーション 1567" x1="255.77" y1="110.57" x2="297.53" y2="110.57" xlink:href="#_名称未設定グラデーション_1567"/>
    <linearGradient id="_名称未設定グラデーション_1610-2" data-name="名称未設定グラデーション 1610" x1="282.39" y1="273.83" x2="331.95" y2="273.83" xlink:href="#_名称未設定グラデーション_1610"/>
    <linearGradient id="_名称未設定グラデーション_1567-3" data-name="名称未設定グラデーション 1567" x1="331.89" y1="273.83" x2="381.78" y2="273.83" xlink:href="#_名称未設定グラデーション_1567"/>
    <linearGradient id="_名称未設定グラデーション_1570-2" data-name="名称未設定グラデーション 1570" x1="290.66" y1="192.1" x2="332.16" y2="192.1" xlink:href="#_名称未設定グラデーション_1570"/>
    <linearGradient id="_名称未設定グラデーション_1567-4" data-name="名称未設定グラデーション 1567" x1="331.92" y1="192.1" x2="373.69" y2="192.1" xlink:href="#_名称未設定グラデーション_1567"/>
    <linearGradient id="_名称未設定グラデーション_2789" data-name="名称未設定グラデーション 2789" x1="210.91" y1="110.29" x2="310.23" y2="110.29" gradientUnits="userSpaceOnUse">
      <stop offset="0" stop-color="#89c0e3"/>
      <stop offset="1" stop-color="#c3d9e0"/>
    </linearGradient>
  </defs>
  <g isolation="isolate">
    <g id="_レイヤー_2" data-name="レイヤー 2">
      <g id="_デザイン" data-name="デザイン">
        <g id="top-section-03-building-03-over-layer">
          <g>
            <path d="M189.39,148.61c-3.87,2.23-8.94,3.35-14.01,3.35s-10.14-1.12-14.01-3.35c-3.87-2.23-5.8-5.16-5.8-8.09s1.93-5.86,5.8-8.09c3.87-2.23,8.94-3.35,14.01-3.35s10.14,1.12,14.01,3.35c3.87,2.23,5.8,5.16,5.8,8.09s-1.93,5.86-5.8,8.09Z" fill="#bad4b1" fill-rule="evenodd"/>
            <path d="M191.85,132.75v7.52c0,.08-.03,.17-.08,.25-.06,.08-.14,.15-.25,.22-.22,.13-.52,.19-.81,.19s-.59-.06-.81-.19c-.11-.06-.2-.14-.25-.22-.06-.08-.08-.16-.08-.25v-7.52c0,.08,.03,.17,.08,.25,.06,.08,.14,.15,.25,.22,.22,.13,.52,.19,.81,.19s.59-.06,.81-.19c.11-.06,.2-.14,.25-.22,.06-.08,.08-.16,.08-.25Z" fill="url(#GradientFill_4)" fill-rule="evenodd"/>
            <circle cx="190.71" cy="126.65" r="7.09" fill="url(#GradientFill_10)"/>
            <path d="M162.41,132.36v6.77c0,.08-.03,.15-.08,.22-.05,.07-.13,.14-.23,.2-.2,.12-.46,.17-.73,.17s-.53-.06-.73-.17c-.1-.06-.18-.13-.23-.2s-.08-.15-.08-.22v-6.77c0,.08,.03,.15,.08,.22s.13,.14,.23,.2c.2,.12,.46,.17,.73,.17s.53-.06,.73-.17c.1-.06,.18-.13,.23-.2s.08-.15,.08-.22Z" fill="url(#GradientFill_4-2)" fill-rule="evenodd"/>
            <path d="M161.38,133.25c3.51,0,6.37-2.86,6.37-6.37s-2.86-6.37-6.37-6.37-6.37,2.86-6.37,6.37,2.86,6.37,6.37,6.37Z" fill="url(#GradientFill_10-2)" fill-rule="evenodd"/>
            <path d="M177.04,128.01v8.66c0,.1-.03,.19-.1,.29-.06,.09-.16,.18-.29,.25-.26,.15-.59,.22-.93,.22s-.68-.07-.93-.22c-.13-.07-.23-.16-.29-.25-.06-.09-.1-.19-.1-.29v-8.66c0,.1,.03,.19,.1,.29,.06,.09,.16,.18,.29,.25,.26,.15,.6,.22,.93,.22s.67-.07,.93-.22c.13-.07,.23-.16,.29-.25,.06-.09,.1-.19,.1-.29Z" fill="url(#GradientFill_4-3)" fill-rule="evenodd"/>
            <circle cx="175.72" cy="120.98" r="8.16" fill="url(#GradientFill_10-3)"/>
            <path d="M177.04,140.1v8.66c0,.1-.03,.19-.1,.29-.06,.09-.16,.18-.29,.25-.26,.15-.59,.22-.93,.22s-.68-.07-.93-.22c-.13-.07-.23-.16-.29-.25-.06-.09-.1-.19-.1-.29v-8.66c0,.1,.03,.19,.1,.29,.06,.09,.16,.18,.29,.25,.26,.15,.6,.22,.93,.22s.67-.07,.93-.22c.13-.07,.23-.16,.29-.25,.06-.09,.1-.19,.1-.29Z" fill="url(#GradientFill_4-4)" fill-rule="evenodd"/>
            <circle cx="175.72" cy="133.07" r="8.16" fill="url(#GradientFill_10-4)"/>
          </g>
          <g>
            <path d="M178.63,107.01c.17-.16,.4-.27,.4-.27l.35,.34,.04,1.18c.09,.29,.17,.39,.05,.46-.16,.1-.48-.02-.64-.38-.04-.08-.11-.59-.15-.84l-.19,.43-.07-.1,.1-.62c.02-.06,.06-.15,.1-.19Z" fill="#3f3f3e"/>
            <g>
              <path d="M179.03,106.73c.13-.22,.43-.77,.72-1.44,.18-.41,.41-.72,.57-.91l-.29-2.69s-.09-.63-.09-.86c0-1.02,.27-.89,.27-.89l2.06,.33-.62,1.56s-.19,1.75-.33,2.69c.02,.13-.02,.29-.09,.38-.7,.86-1.84,2.17-1.84,2.17l.04,1.18s0,0,0,0c-.05,.01-.23,.05-.27,.05-.11,0-.41-1.2-.29-1.48,.1-.06,.17-.1,.17-.1Z" fill="#f0cfae"/>
              <path d="M178.86,106.83s0,0-.01,0c0,0,0,0,.01,0h0Z" fill="#df9877"/>
              <path d="M178.83,106.85s.01,0,.02-.01c0,0-.02,.01-.02,.01Z" fill="#df9877"/>
            </g>
            <path d="M180.99,92.29l-.47,1.31-.16,.31s-.59-1.26-.12-1.65c.47-.39,.75,.03,.75,.03Z" fill="#33383c"/>
            <g>
              <path d="M182.89,107.48c.05,.22,.41,.71,.67,.96,.15,.15,.16,.19,.23,.2,.28,.07,.3,.25,.3,.25,0,.07-.07,.1-.07,.1-.07,.03-.35,.06-.55-.02-.25-.09-.51-.5-.8-.56-.3-.06-.37-.15-.37-.15-.07-.31,.07-.76,.07-.76l.52-.02Z" fill="#3f3f3e"/>
              <path d="M182.58,99.53c.46,2.33,.64,3.32,.73,4.01,.01,.09,0,.19-.02,.28-.02,.24-.07,.6-.09,.84-.22,1.79-.28,2.56-.3,2.82,.05,.22,.41,.71,.67,.96,.15,.15,.16,.19,.23,.2,0,0,.01,0,.02,0-.24,.04-.46-.06-.7-.24-.25-.18-.55-.29-.71-.57-.01-.02-.02-.05-.03-.07-.02-.03-.02-.04-.03-.08,.01-.07,.03-.13,.04-.16,0,0,0,0,0,0,0,0-.15-1.45-.15-1.93,0-.41,.14-1.33,.17-1.56l-.88-2.59,1.08-1.92Z" fill="#f0cfae"/>
              <path d="M184.32,100.09l.1,.53s-.03,.03-.08,0c0,.02,.01,.03,.01,.03v.38s-.04,.04-.09-.05l-.05,.17c-.08,.01-.1-.09-.1-.17l-.04,.12c-.14,.02-.09-.27-.09-.27l-.02-.05-.04,.22c-.1,.05-.08-.18-.08-.18v-.22s-.04-.15-.04-.15c-.07-.16-.2-.47-.17-.58l.36-.2,.32,.41Z" fill="#f0cfae"/>
              <polygon points="184 99.68 183.58 99.92 182.52 98.06 183.14 97.78 184 99.68" fill="#df9877"/>
              <path d="M180.05,99.71l2.53-.17,.9,4.11s-.07,.48-1.33,.93c-1.65,.58-2.2-.16-2.2-.16l-.11-2.74c-.04-1.04,.21-1.96,.21-1.96Z" fill="#3f3f3e"/>
              <path d="M182.47,94.92c.04,.14,.67,2.85,.67,2.85l-.62,.28s-.47-1.62-.73-2.36c-.26-.74-.31-.95-.31-.95,.49-.4,.92-.03,.98,.18Z" fill="#df9877"/>
              <path d="M182.47,94.92c.04,.14,.67,2.85,.67,2.85l.86,1.9-.42,.25-1.06-1.86s-.47-1.62-.73-2.36c-.26-.74-.31-.95-.31-.95,.49-.4,.92-.03,.98,.18Z" fill="#b1b3b6"/>
              <path d="M179.75,95.54c.52-.99,1.71-1.04,2.19-1.01,.13,.01,.17,.04,.17,.04,0,0,.15,.03,.22,.29,.03,.11,0,.33,.05,.49l.22,.55,.22,.63c.13,.51-.22,.77-.22,.77l-.19,1.22,.34,1.52s-1.65,.81-2.82,.04l.32-1.35c.01-.06,.02-.11,.01-.17-.1-1.47-.72-2.64-.52-3.02Z" fill="#b1b3b6"/>
              <path d="M181.22,94.48c.53,.1,.63,.5,.58,.59-.02,.04,.01,.57,.01,.57,0,0-.33-.4-.39-.39-.08,0-.14,0-.26-.04-.52-.16-.49-.48-.49-.48,0,0,.2-.31,.55-.24Z" fill="#f0cfae"/>
              <path d="M180.8,94.18l.87-.1s.02,.34,0,.65c0,.15-.16,.25-.3,.2l-.66-.25s.12-.25,.08-.5Z" fill="#f0cfae"/>
              <path d="M182.08,93.8c0,.48-.2,.94-.66,.82,0,0-.77-.09-.92-.95l-.1-.68,1.63-.29,.05,1.1Z" fill="#f0cfae"/>
              <g>
                <path d="M178.99,100.86l.43-.09,.21,.63-.05,.61s-.05,.03-.11-.17v-.27s-.12,.32-.12,.32v.22s0,.08,0,.08c.01,.08-.08,.09-.12,.02-.01-.02-.09-.13-.09-.13l-.18-.16-.08-.28,.09-.78h.01Z" fill="#f0cfae"/>
                <path d="M179.75,95.54c.05-.12,.18-.19,.31-.17,.44,.07,.48,.68,.45,.8-.03,.14-.82,2.36-.82,2.36l-.7-.2s.24-1.18,.47-1.93c.13-.43,.23-.7,.3-.85Z" fill="#df9877"/>
                <path d="M178.99,98.33l.7,.2c-.12,.6-.27,2.24-.27,2.24l-.44,.09s-.02-1.96,0-2.16c0-.19,.02-.38,.02-.38Z" fill="#df9877"/>
                <path d="M178.99,98.33s.24-1.18,.47-1.93c.13-.43,.23-.7,.3-.85,.05-.12,.18-.19,.31-.17,.44,.07,.48,.68,.45,.8-.03,.14-.82,2.36-.82,2.36-.12,.6-.27,2.24-.27,2.24l-.44,.09s-.02-1.96,0-2.16c0-.19,.02-.38,.02-.38Z" fill="#b1b3b6"/>
              </g>
            </g>
            <path d="M180.81,92.35c.2-.1,.73-.2,1.13,.18,.13,.13,.34,.42,.21,.79,0,0-.55,.24-1.07,.07-.09-.03-.16,.05-.19,.12-.04,.11-.09,.66-.09,.66v.12s-.33-.32-.41-.73c-.15-.82,.22-1.12,.41-1.22Z" fill="#33383c"/>
            <path d="M180.79,93.51c.14,0,.15,.06,.15,.06l-.03,.34s-.09,.04-.19-.16c-.06-.12-.07-.24,.07-.24Z" fill="#f0cfae"/>
            <path d="M181.42,95.24l-.15,.34s-.63-.22-.71-.81l.21-.25s.32,.64,.65,.71Z" fill="#fff"/>
            <path d="M181.73,94.61s.23,.17,.3,.34l-.23,.13s.01-.16-.12-.35v-.11h.05Z" fill="#fff"/>
            <polygon points="182.05 95.22 181.8 95.07 182.03 94.94 182.05 95.22" fill="#ddd"/>
            <path d="M179.42,100.77s-.39,.11-.47,.09v-.38s.5,0,.5,0l-.03,.29Z" fill="#fff"/>
            <polygon points="184.04 99.68 183.58 99.92 183.42 99.71 183.96 99.46 184.04 99.68" fill="#fff"/>
            <polygon points="182.6 108.94 182.49 108.91 182.31 108.27 182.6 108.39 182.6 108.94" fill="#3f3f3e"/>
            <polygon points="182.67 108.91 182.6 108.94 182.6 108.41 182.67 108.42 182.67 108.91" fill="#3f3f3e"/>
            <polygon points="178.71 107.67 178.56 107.92 178.49 107.92 178.68 107.48 178.71 107.67" fill="#3f3f3e"/>
          </g>
          <g>
            <path d="M201.18,138.79c-.1,.12-.22,.47-.22,.47l-.05,.69c.09,.06,.15-.02,.15-.02,.05,.02,.11-.07,.11-.07l.13-.34s.17-.23,.18-.18c0,.05,0,.15-.04,.31-.04,.16,.08,.19,.08,.19l.12-.21,.15-.4,.02-.41s-.38-.22-.39-.22c-.02,0-.19,.13-.24,.18Z" fill="#f0cfae"/>
            <path d="M203.01,132.98s-.67,.05-.95,.45c-.27,.39-.04,2.73-.04,2.73l-.7,2.47c.14,.33,.55,.33,.55,.33l1.05-2.58,.17-1.99c-.09,0-.17,.01-.26,0-.3-.03,.19-1.41,.19-1.41Z" fill="#9eaebb"/>
            <path d="M205.51,144.37l-.68,.35s-.31,.64-.32,.63c-.53,.33-.37,.59-.13,.66,.15,.05,.65-.2,.83-.3l.19-.19,.45-.46c.06-.09,.07-.2,.02-.3l-.35-.4Z" fill="#3f3f3e"/>
            <path d="M202.68,146.77l-.69,.56c-.13,.11-.5,.27-.55,.44v.02c0,.42,.68,.29,.68,.29l1.13-.46c.1-.04,.22-.2,.23-.3l-.13-.45-.68-.09Z" fill="#3f3f3e"/>
            <path d="M203.76,138.52l-1.58-.43s0,1.26,.1,2.08c.07,.58,.43,2.31,.43,2.31l2.08,2.37s.56,.33,.85-.41l-1.73-2.77-.14-3.14Z" fill="#393939"/>
            <path d="M203.14,138.21v1.4l-.67,3.36,.06,3.91c.6,.52,.92,.12,.92,.12l.41-3.88s.53-1.98,.95-2.89c.42-.91,.35-1.9,.35-1.9l-2.04-.14Z" fill="#393939"/>
            <path d="M204.98,133.5l-.83-.56-.52-.1h-.52c-.73,0-.93,.32-1.09,.76-.13,.36,.17,2.65,.17,2.65l-.09,1.93s.16,.45,1.49,.65c1.39,.21,1.57-.29,1.57-.29l-.06-1.43,.22-2.71c.03-.46,.06-.67-.34-.89Z" fill="#666567"/>
            <path d="M203.05,132.03l-.04,.91c-.01,.31,.23,.57,.53,.58,.31,.01,.57-.23,.58-.53l-.13-.95h-.94Z" fill="#f0cfae"/>
            <path d="M203.26,133.42l.12,.44s.64-.08,.96-.79l-.26-.41s-.03,.68-.82,.77Z" fill="#9eaebb"/>
            <path d="M203.02,132.82c-.23,.21-.11,.89-.11,.89,.07-.11,.35-.29,.35-.29-.32-.23-.24-.61-.24-.61Z" fill="#9eaebb"/>
            <path d="M202.49,131.16l.14,1.19c.06,.47,.39,.72,.76,.6,.05-.02,.8-.35,.74-.82v-.87s-1.64-.1-1.64-.1Z" fill="#f0cfae"/>
            <path d="M202.64,130.66c-.64,.52-.12,.69-.12,.69,0,0,1.13-.11,1.16,.08,0,.06,0,.4,0,.4l.14,.08,.07-.17,.14,.78s.26-.31,.32-.82c.03-.23,.1-.71-.11-.92-.43-.43-1.01-.6-1.6-.12Z" fill="#33383c"/>
            <path d="M203.89,131.74l.05,.39c.17,.06,.28-.18,.23-.38-.07-.27-.28,0-.28,0Z" fill="#f0cfae"/>
            <g>
              <path d="M205.67,140.67h0s0,0,0-.01h0Z" fill="#f7b7a9"/>
              <path d="M205.46,139.2l-.13,.59,.11,.76s.16,0,.14-.23l-.04-.26v.03s0,0,0,0l.11,.3v.29c.02,.08,.12,.11,.16,.04,.01-.02,.12-.12,.12-.12l.21-.19,.08-.31-.22-.86-.54-.03Z" fill="#f0cfae"/>
            </g>
            <path d="M204.87,133.58c-.62,.13-.3,1.25-.3,1.25l.63,2,.26,2.37c.49,.2,.56,.06,.56,.06l.04-2.52-.39-2.19s-.16-1.11-.8-.97Z" fill="#9eaebb"/>
          </g>
          <g>
            <path d="M284.27,80.06c-.1,.12-.22,.47-.22,.47l-.05,.69c.09,.06,.15-.02,.15-.02,.05,.02,.11-.07,.11-.07l.13-.34s.17-.23,.18-.18c0,.05,0,.15-.04,.31-.04,.16,.08,.19,.08,.19l.12-.21,.15-.4,.02-.41s-.38-.22-.39-.22c-.02,0-.19,.13-.24,.18Z" fill="#f0cfae"/>
            <path d="M286.11,74.25s-.67,.05-.95,.45c-.27,.39-.04,2.73-.04,2.73l-.7,2.47c.14,.33,.55,.33,.55,.33l1.05-2.58,.17-1.99c-.09,0-.17,.01-.26,0-.3-.03,.19-1.41,.19-1.41Z" fill="#9eaebb"/>
            <path d="M288.61,85.65l-.68,.35s-.31,.64-.32,.63c-.53,.33-.37,.59-.13,.66,.15,.05,.65-.2,.83-.3l.19-.19,.45-.46c.06-.09,.07-.2,.02-.3l-.35-.4Z" fill="#3f3f3e"/>
            <path d="M285.78,88.04l-.69,.56c-.13,.11-.5,.27-.55,.44v.02c0,.42,.68,.29,.68,.29l1.13-.46c.1-.04,.22-.2,.23-.3l-.13-.45-.68-.09Z" fill="#3f3f3e"/>
            <path d="M286.85,79.8l-1.58-.43s0,1.26,.1,2.08c.07,.59,.43,2.31,.43,2.31l2.08,2.37s.56,.33,.85-.41l-1.73-2.77-.14-3.14Z" fill="#393939"/>
            <path d="M286.23,79.49v1.4l-.67,3.36,.06,3.91c.6,.52,.92,.12,.92,.12l.41-3.88s.53-1.98,.95-2.89c.42-.91,.35-1.9,.35-1.9l-2.04-.14Z" fill="#393939"/>
            <path d="M288.07,74.77l-.83-.56-.52-.1h-.52c-.73,0-.93,.32-1.09,.76-.13,.36,.17,2.65,.17,2.65l-.09,1.93s.16,.45,1.49,.65c1.39,.21,1.57-.29,1.57-.29l-.06-1.43,.22-2.71c.03-.46,.06-.67-.34-.89Z" fill="#666567"/>
            <path d="M286.15,73.3l-.04,.91c-.01,.31,.23,.57,.53,.58,.31,.01,.57-.23,.58-.53l-.13-.95h-.94Z" fill="#f0cfae"/>
            <path d="M286.36,74.7l.12,.44s.64-.08,.96-.79l-.26-.41s-.03,.68-.82,.77Z" fill="#9eaebb"/>
            <path d="M286.12,74.09c-.23,.21-.11,.89-.11,.89,.07-.11,.35-.29,.35-.29-.32-.23-.24-.61-.24-.61Z" fill="#9eaebb"/>
            <path d="M285.59,72.43l.14,1.19c.06,.47,.39,.72,.76,.6,.05-.02,.8-.35,.74-.82v-.87s-1.64-.1-1.64-.1Z" fill="#f0cfae"/>
            <path d="M285.74,71.93c-.64,.52-.12,.69-.12,.69,0,0,1.13-.11,1.16,.08,0,.06,0,.4,0,.4l.14,.08,.07-.17,.14,.78s.26-.31,.32-.82c.03-.23,.1-.71-.11-.92-.43-.43-1.01-.6-1.6-.12Z" fill="#33383c"/>
            <path d="M286.98,73.01l.05,.39c.17,.06,.28-.18,.23-.38-.07-.27-.28,0-.28,0Z" fill="#f0cfae"/>
            <g>
              <path d="M288.77,81.95h0s0,0,0-.01h0Z" fill="#f7b7a9"/>
              <path d="M288.56,80.47l-.13,.59,.11,.76s.16,0,.14-.23l-.04-.26v.03s0,0,0,0l.11,.3v.29c.02,.08,.12,.11,.16,.04,.01-.02,.12-.12,.12-.12l.21-.19,.08-.31-.22-.86-.54-.03Z" fill="#f0cfae"/>
            </g>
            <path d="M287.96,74.85c-.62,.13-.3,1.25-.3,1.25l.63,2,.26,2.37c.49,.2,.56,.06,.56,.06l.04-2.52-.39-2.19s-.16-1.11-.8-.97Z" fill="#9eaebb"/>
          </g>
          <g>
            <path d="M141.55,143.8v1.54s.89-.6,.82-1.06c-.3-1.91-.47-3.02-.47-3.02l-.35,2.54Z" fill="#006257"/>
            <path d="M142.09,153.94l-.74,.5s-.56,.08-.21,.42c0,0,.66,.02,1-.09,.34-.12,.67-.07,.82-.1,.28-.06,.35-.27,.35-.27l-.28-.6-.94,.14Z" fill="#3f3f3e"/>
            <path d="M137.67,154.19s-.51,.02-.57,.01c-.05,0-.56,.02-.37,.34,.04,.07,.16,.14,.29,.21,0,0,1.2,.35,1.29,.36,.08,0,.43,.05,.5-.21l-.06-.38-1.08-.33Z" fill="#3f3f3e"/>
            <path d="M141.76,147.32c.1-.58,.06-1.18-.14-1.74l-.08-.23-2.34,.74,1.48,4.83,1.3,3.09s.76,.23,1.04-.21l-1.09-3.49-.16-2.98Z" fill="#676767"/>
            <path d="M138.82,145.84l-1.09,3.94c-.06,.16-.08,.32-.08,.49v3.95c.4,.74,1.05,.53,1.12,.49,.07-.04,.45-3.97,.4-4.18-.05-.2,1.04-2.62,1.04-2.62l1.19-.4-1.8-1.17-.78-.49Z" fill="#676767"/>
            <path d="M141.15,140.54s-.6-.22-1.33,.06c-.94,.36-1.06,.89-1.09,1.44-.04,.77,.3,1.65,.3,1.65l-.02,.89-.08,1.59s.56,.32,1.64,.09c1.07-.24,1.2-.34,1.2-.34l-.13-1.72s.34-2.12,.31-2.27c-.03-.15,.22-1.05-.79-1.38Z" fill="#006257"/>
            <g>
              <path d="M138.56,147.94s-.02-.1-.11-.12v-.37s.06-.39-.06-.42l-.53-.11s-.27,.61-.25,.66c.01,.05,.13,.45,.14,.5,.02,.05,.18,.16,.3,.18,.12,.02,.37,.02,.37,.02,0,0,.02-.05,0-.1l.08-.03s.18-.04,.02-.15l.04-.05Z" fill="#f0cfae"/>
              <path d="M138.95,141.35c-.17,.21-.34,2.84-.34,2.84,0,0-.81,2.58-.83,2.66-.01,.09,.23,.48,.68,.19l1.22-2.43s.35-1.74,.43-2.33c.07-.52-.3-1.99-1.16-.93Z" fill="#006257"/>
            </g>
            <g>
              <path d="M139.82,139.5l.05,1.07c0,.32,1.09,.22,1.1-.11l-.07-.95h-1.08Z" fill="#f0cfae"/>
              <path d="M140.97,140.26c-.1,.3-.76,.31-1.09,.18l-.11,.15c.2,.3,.9,.38,1.21,.05,.07-.08,.08-.19,.04-.29l-.05-.09Z" fill="#006257"/>
              <path d="M139.43,139.63c0,.49,.33,.71,.8,.72,0,0,.87-.26,.88-.74l.11-.9-1.77-.32-.02,1.25Z" fill="#f0cfae"/>
              <path d="M139.86,137.77c-.39,.16-1,.55-.42,.96,0,0,.24,.06,.23,.44,0,.38,.39,.76,.68,1,.21,.17,.59-.1,.59-.1,0,0,.58-.64,.31-1.76-.17-.68-1.12-.66-1.39-.54Z" fill="#33383c"/>
              <path d="M139.62,139.2v.41c.17,.08,.31-.15,.29-.37-.03-.29-.29-.05-.29-.05Z" fill="#f0cfae"/>
            </g>
          </g>
          <g>
            <path d="M282.64,50.28v1.54s.89-.6,.82-1.06c-.3-1.91-.47-3.02-.47-3.02l-.35,2.54Z" fill="#7d6278"/>
            <path d="M283.18,60.42l-.74,.5s-.56,.08-.21,.42c0,0,.66,.02,1-.09,.34-.12,.67-.07,.82-.1,.28-.06,.35-.27,.35-.27l-.28-.6-.94,.14Z" fill="#3f3f3e"/>
            <path d="M278.76,60.67s-.51,.02-.57,.01c-.05,0-.56,.02-.37,.34,.04,.07,.16,.14,.29,.21,0,0,1.2,.35,1.29,.36,.08,0,.43,.05,.5-.21l-.06-.38-1.08-.33Z" fill="#3f3f3e"/>
            <path d="M282.86,53.8c.1-.58,.06-1.18-.14-1.74l-.08-.23-2.34,.74,1.48,4.83,1.3,3.09s.76,.23,1.04-.21l-1.09-3.49-.16-2.98Z" fill="#676767"/>
            <path d="M279.92,52.32l-1.09,3.94c-.06,.16-.08,.32-.08,.49v3.95c.4,.74,1.05,.53,1.12,.49,.07-.04,.45-3.97,.4-4.18-.05-.2,1.04-2.62,1.04-2.62l1.19-.4-1.8-1.17-.78-.49Z" fill="#676767"/>
            <path d="M282.24,47.02s-.6-.22-1.33,.06c-.94,.36-1.06,.89-1.09,1.44-.04,.77,.3,1.65,.3,1.65l-.02,.89-.08,1.59s.56,.32,1.64,.09c1.07-.24,1.2-.34,1.2-.34l-.13-1.72s.34-2.12,.31-2.27c-.03-.15,.22-1.05-.79-1.38Z" fill="#7d6278"/>
            <g>
              <path d="M279.65,54.42s-.02-.1-.11-.12v-.37s.06-.39-.06-.42l-.53-.11s-.27,.61-.25,.66c.01,.05,.13,.45,.14,.5,.02,.05,.18,.16,.3,.18,.12,.02,.37,.02,.37,.02,0,0,.02-.05,0-.1l.08-.03s.18-.04,.02-.15l.04-.05Z" fill="#f0cfae"/>
              <path d="M280.05,47.83c-.17,.21-.34,2.84-.34,2.84,0,0-.81,2.58-.83,2.66-.01,.09,.23,.48,.68,.19l1.22-2.43s.35-1.74,.43-2.33c.07-.52-.3-1.99-1.16-.93Z" fill="#7d6278"/>
            </g>
            <g>
              <path d="M280.92,45.98l.05,1.07c0,.32,1.09,.22,1.1-.11l-.07-.95h-1.08Z" fill="#f0cfae"/>
              <path d="M282.06,46.74c-.1,.3-.76,.31-1.09,.18l-.11,.15c.2,.3,.9,.38,1.21,.05,.07-.08,.08-.19,.04-.29l-.05-.09Z" fill="#7d6278"/>
              <path d="M280.53,46.11c0,.49,.33,.71,.8,.72,0,0,.87-.26,.88-.74l.11-.9-1.77-.32-.02,1.25Z" fill="#f0cfae"/>
              <path d="M280.96,44.25c-.39,.16-1,.55-.42,.96,0,0,.24,.06,.23,.44,0,.38,.39,.76,.68,1,.21,.17,.59-.1,.59-.1,0,0,.58-.64,.31-1.76-.17-.68-1.12-.66-1.39-.54Z" fill="#33383c"/>
              <path d="M280.72,45.68v.41c.17,.08,.31-.15,.29-.37-.03-.29-.29-.05-.29-.05Z" fill="#f0cfae"/>
            </g>
          </g>
          <g>
            <g>
              <path d="M.95,141.46l-.35-.34s-.23,.11-.4,.27c-.04,.04-.08,.13-.1,.19l-.1,.62,.07,.1h.07l.15-.25c.04,.26,.09,.6,.12,.66,.17,.36,.48,.48,.64,.38,.12-.07,.04-.17-.05-.46l-.04-1.18Z" fill="#ec6550"/>
              <g>
                <path d="M1.52,135.22c0,.23,.09,.86,.09,.86l.29,2.69c-.16,.19-.38,.5-.57,.91-.3,.67-.6,1.22-.72,1.44,0,0-.07,.04-.17,.1-.12,.28,.19,1.48,.29,1.48,.04,0,.22-.04,.27-.05,0,0,0,0,0,0l-.04-1.18s1.14-1.31,1.84-2.17c.07-.08,.11-.25,.09-.38,.14-.93,.33-2.69,.33-2.69l.62-1.56-2.06-.33s-.28-.13-.27,.89Z" fill="#f0cfae"/>
                <path d="M.42,141.23s-.01,0-.02,.01c0,0,0,0,.02-.01Z" fill="#f7b7a9"/>
                <path d="M.44,141.22H.44s0,0-.01,0c0,0,0,0,.01,0Z" fill="#f7b7a9"/>
              </g>
              <path d="M1.81,126.65c-.47,.39,.12,1.65,.12,1.65l.16-.31,.47-1.31s-.29-.42-.75-.03Z" fill="#3f3f3e"/>
              <path d="M5.37,143.04c-.07-.02-.08-.05-.23-.2-.26-.26-.62-.75-.67-.96l-.52,.02s-.14,.45-.07,.76c0,0,.05,.06,.21,.11l.09,.56,.06-.03v-.49c.29,.06,.56,.47,.81,.56,.21,.07,.48,.04,.55,.02,0,0,.07-.02,.07-.1,0,0-.02-.18-.3-.25Z" fill="#ec6550"/>
              <path d="M2.22,126.83l.41-.17s-.3-.12-.41,.17Z" fill="#9b9b9b"/>
              <g>
                <path d="M5.14,142.84c-.26-.26-.62-.75-.67-.96,.02-.27,.08-1.03,.3-2.82,.03-.24,.07-.6,.09-.84,.02-.09,.03-.19,.02-.28-.09-.69-.27-1.68-.73-4.01l-1.08,1.92,.88,2.59c-.03,.23-.17,1.15-.17,1.56,0,.48,.15,1.93,.16,1.94,0,.03-.02,.09-.04,.16,.01,.04,.01,.04,.03,.08,.01,.02,.02,.05,.03,.07,.17,.28,.46,.39,.71,.57,.24,.17,.47,.28,.7,.24,0,0-.01,0-.02,0-.07-.02-.08-.05-.23-.2Z" fill="#f0cfae"/>
                <path d="M5.49,133.95l-.77-1.78s-.63-2.72-.67-2.85c-.06-.21-.49-.57-.98-.18,0,0,.04,.22,.31,.95,.22,.63,.7,2.32,.7,2.32l1.09,1.77c-.04,.19,.1,.42,.17,.58l.04,.15v.22s-.02,.22,.08,.18l.04-.22,.02,.05s-.05,.29,.09,.27l.04-.12c0,.08,.01,.18,.1,.17l.05-.17c.05,.08,.1,.05,.1,.05v-.38s-.02-.01-.02-.03c.05,.03,.08,0,.08,0l-.12-.56-.34-.42Z" fill="#f0cfae"/>
                <path d="M3.99,132.92l.19-1.22s.35-.26,.22-.77l-.22-.63-.22-.55c-.04-.17-.02-.38-.05-.49-.07-.25-.22-.29-.22-.29,0,0-.04-.03-.17-.04-.48-.04-1.67,.02-2.19,1.01-.2,.38,.42,1.55,.52,3.02,0,.06,0,.11-.01,.17l-.21,.97s-.05,.16-.09,.43v.02s0,0,0,0c-.07,.37-.14,.92-.12,1.5l.21,2.09s.55,.74,2.2,.16c1.27-.45,1.27-.78,1.27-.78l-.92-3.81-.18-.8Z" fill="#8a8c8e"/>
                <path d="M3.38,129.46c.05-.09-.05-.49-.58-.59-.34-.07-.55,.24-.55,.24,0,0-.03,.32,.49,.48,.12,.04,.18,.04,.26,.04,.07,0,.39,.39,.39,.39,0,0-.04-.52-.01-.57Z" fill="#f0cfae"/>
                <path d="M2.38,128.57c.04,.25-.08,.5-.08,.5l.94,.36c.04-.32,.01-.96,.01-.96l-.87,.1Z" fill="#f0cfae"/>
                <path d="M1.97,127.38l.1,.68c.15,.86,.92,.95,.92,.95,.46,.12,.66-.34,.66-.82l-.05-1.1-1.63,.29Z" fill="#f0cfae"/>
                <path d="M1.64,129.76c-.13-.02-.26,.05-.31,.17-.07,.15-.17,.42-.3,.85-.22,.75-.47,1.93-.47,1.93,0,0,0,.18-.02,.38,0,.16,0,1.62,.02,2.16h0s-.09,.77-.09,.77l.08,.28,.18,.16s.08,.11,.09,.13c.04,.07,.13,.06,.11-.02v-.08s0-.22,0-.22l.11-.32v.27c.06,.2,.11,.17,.11,.17l.05-.61-.21-.63s.15-1.64,.27-2.24c0,0,.79-2.23,.82-2.36,.03-.12-.01-.73-.45-.8Z" fill="#f0cfae"/>
              </g>
              <path d="M2.38,126.74c-.2,.11-.56,.4-.41,1.22,.07,.4,.41,.73,.41,.73v-.12s.05-.54,.09-.66c.02-.07,.1-.15,.19-.12,.52,.16,1.07-.07,1.07-.07,.13-.38-.08-.67-.21-.79-.4-.38-.93-.28-1.13-.18Z" fill="#3f3f3e"/>
              <path d="M2.37,127.9c-.14,0-.13,.12-.07,.24,.1,.2,.19,.16,.19,.16l.03-.34s0-.06-.15-.06Z" fill="#f0cfae"/>
              <polygon points="3.88 142.66 4.07 143.3 4.18 143.33 4.18 142.78 3.88 142.66" fill="#ec6550"/>
            </g>
            <path d="M1.54,129.61c.15-.13,.72,.49,.61,.91s-.77,2.3-.77,2.3c0,0-.75,.24-.89-.33,0,0,.47-2.4,1.04-2.88Z" fill="#8a8c8e"/>
            <path d="M3.69,128.96s.34,.06,.45,.43,.73,2.81,.73,2.81c0,0-.25,.49-.79,.4,0,0-.79-3.1-.39-3.65Z" fill="#8a8c8e"/>
          </g>
          <g>
            <g>
              <polygon points="385.88 166.97 385.82 188.87 336.32 217.63 336.38 195.73 385.88 166.97" fill="url(#_名称未設定グラデーション_1610)"/>
              <polygon points="336.38 195.73 336.32 217.63 286.5 188.87 286.56 166.97 336.38 195.73" fill="url(#_名称未設定グラデーション_1567)"/>
              <polygon points="358.05 204.92 365.93 200.37 365.93 183.48 358.05 188.04 358.05 204.92" fill="#a2cedb" opacity=".5"/>
              <path d="M358.13,189.21c.14,0,.29-.04,.42-.11l7.89-4.56c.41-.23,.55-.75,.31-1.16-.23-.41-.75-.55-1.16-.31l-7.89,4.56c-.41,.23-.55,.75-.31,1.16,.16,.27,.44,.42,.74,.42Z" fill="#a2bddd"/>
              <polygon points="385.88 166.97 336.38 195.73 286.56 166.97 336.06 138.2 385.88 166.97" fill="#bbe4d7"/>
            </g>
            <polygon points="294.93 188.42 288.35 184.62 288.35 172.77 294.93 176.56 294.93 188.42" fill="#396f8d" opacity=".6"/>
            <polygon points="304.65 182.18 298.08 178.38 298.08 190.23 304.65 194.03 304.65 182.18" fill="#396f8d" opacity=".6"/>
            <polygon points="314.38 187.94 307.81 184.14 307.81 195.99 314.38 199.79 314.38 187.94" fill="#396f8d" opacity=".6"/>
            <polygon points="323.91 205.3 317.34 201.5 317.34 189.65 323.91 193.44 323.91 205.3" fill="#396f8d" opacity=".6"/>
            <polygon points="333.63 199.06 327.06 195.26 327.06 207.12 333.63 210.91 333.63 199.06" fill="#396f8d" opacity=".6"/>
            <g opacity=".5">
              <polygon points="377.99 176.65 384.57 172.86 384.57 184.71 377.99 188.5 377.99 176.65" fill="#a2cedb"/>
              <polygon points="368.27 194.12 374.84 190.32 374.84 178.47 368.27 182.27 368.27 194.12" fill="#a2cedb"/>
            </g>
            <g>
              <polygon points="348.93 193.53 355.5 189.74 355.5 201.59 348.93 205.38 348.93 193.53" fill="#a2cedb" opacity=".5"/>
              <polygon points="339.2 211 345.77 207.2 345.77 195.35 339.2 199.15 339.2 211" fill="#a2cedb" opacity=".5"/>
            </g>
            <g>
              <polygon points="377.61 30.84 377.38 166.33 336.12 190.31 336.35 54.82 377.61 30.84" fill="url(#_名称未設定グラデーション_1570)"/>
              <polygon points="336.35 54.82 336.12 190.31 294.58 166.33 294.81 30.84 336.35 54.82" fill="url(#_名称未設定グラデーション_1567-2)"/>
              <polygon points="377.61 31.77 336.35 55.75 294.81 31.77 336.08 7.79 377.61 31.77" fill="#e3f1fc"/>
            </g>
            <g opacity=".5">
              <path d="M367.93,47.32l6.57-3.79v11.85l-6.57,3.8v-11.85Zm-9.73,17.47l6.57-3.79v-11.85l-6.57,3.79v11.85Zm9.73-1.73l6.57-3.79v11.85s-6.57,3.79-6.57,3.79v-11.85Zm-9.73,17.47l6.57-3.79v-11.85s-6.57,3.79-6.57,3.79v11.85Zm9.73-1.73l6.57-3.79v11.85s-6.57,3.79-6.57,3.79v-11.85Zm-9.73,17.47l6.57-3.79v-11.85l-6.57,3.79v11.85Zm9.73-1.73l6.57-3.79v11.85s-6.57,3.79-6.57,3.79v-11.85Zm-9.73,17.47l6.57-3.79v-11.85l-6.57,3.79v11.85Zm9.73-1.73l6.57-3.79v11.85s-6.57,3.79-6.57,3.79v-11.85Zm-9.73,17.47l6.57-3.79v-11.85s-6.57,3.79-6.57,3.79v11.85Z" fill="#75b3c3"/>
              <path d="M349.15,58.07l6.57-3.79v11.85s-6.57,3.8-6.57,3.8v-11.85Zm-9.73,17.47l6.57-3.79v-11.85l-6.57,3.79v11.85Zm9.73-1.73l6.57-3.79v11.85s-6.57,3.79-6.57,3.79v-11.85Zm-9.73,17.47l6.57-3.79v-11.85s-6.57,3.79-6.57,3.79v11.85Zm9.73-1.73l6.57-3.79v11.85s-6.57,3.79-6.57,3.79v-11.85Zm-9.73,17.47l6.57-3.79v-11.85l-6.57,3.79v11.85Zm9.73-1.73l6.57-3.79v11.85s-6.57,3.79-6.57,3.79v-11.85Zm-9.73,17.47l6.57-3.79v-11.85l-6.57,3.79v11.85Zm9.73-1.73l6.57-3.79v11.85s-6.57,3.79-6.57,3.79v-11.85Zm-9.73,17.47l6.57-3.79v-11.85s-6.57,3.79-6.57,3.79v11.85Z" fill="#75b3c3"/>
              <polygon points="367.93 125.78 374.5 121.99 374.5 133.84 367.93 137.63 367.93 125.78" fill="#75b3c3"/>
              <polygon points="358.21 143.25 364.78 139.45 364.78 127.6 358.21 131.4 358.21 143.25" fill="#75b3c3"/>
              <polygon points="367.93 141.52 374.5 137.73 374.5 149.58 367.93 153.37 367.93 141.52" fill="#75b3c3"/>
              <polygon points="358.21 158.99 364.78 155.19 364.78 143.34 358.21 147.14 358.21 158.99" fill="#75b3c3"/>
              <polygon points="367.93 157.26 374.5 153.47 374.5 165.32 367.93 169.11 367.93 157.26" fill="#75b3c3"/>
              <polygon points="358.21 174.73 364.78 170.93 364.78 159.08 358.21 162.88 358.21 174.73" fill="#75b3c3"/>
              <polygon points="349.15 136.53 355.72 132.73 355.72 144.59 349.15 148.38 349.15 136.53" fill="#75b3c3"/>
              <polygon points="339.42 154 345.99 150.2 345.99 138.35 339.42 142.14 339.42 154" fill="#75b3c3"/>
              <polygon points="349.15 152.27 355.72 148.47 355.72 160.33 349.15 164.12 349.15 152.27" fill="#75b3c3"/>
              <polygon points="339.42 169.73 345.99 165.94 345.99 154.09 339.42 157.88 339.42 169.73" fill="#75b3c3"/>
              <polygon points="349.15 168.01 355.72 164.21 355.72 176.06 349.15 179.86 349.15 168.01" fill="#75b3c3"/>
              <polygon points="339.42 185.47 345.99 181.68 345.99 169.83 339.42 173.62 339.42 185.47" fill="#75b3c3"/>
            </g>
            <g>
              <g>
                <polygon points="327.81 121.49 330.33 120.03 330.37 108.19 327.84 109.65 327.81 121.49" fill="#6f9fc3"/>
                <polygon points="327.84 109.65 330.37 108.19 300.11 90.72 297.58 92.18 327.84 109.65" fill="#39415c"/>
                <polygon points="297.58 92.18 297.55 104.02 327.81 121.49 327.84 109.65 297.58 92.18" fill="#396f8d"/>
              </g>
              <g>
                <polygon points="327.81 105.82 330.33 104.35 330.37 92.51 327.84 93.98 327.81 105.82" fill="#6f9fc3"/>
                <polygon points="327.84 93.98 330.37 92.51 300.11 75.04 297.58 76.51 327.84 93.98" fill="#39415c"/>
                <polygon points="297.58 76.51 297.55 88.35 327.81 105.82 327.84 93.98 297.58 76.51" fill="#396f8d"/>
              </g>
              <g>
                <polygon points="327.81 90.21 330.33 88.74 330.37 76.9 327.84 78.37 327.81 90.21" fill="#6f9fc3"/>
                <polygon points="327.84 78.37 330.37 76.9 300.11 59.43 297.58 60.9 327.84 78.37" fill="#39415c"/>
                <polygon points="297.58 60.9 297.55 72.74 327.81 90.21 327.84 78.37 297.58 60.9" fill="#396f8d"/>
              </g>
              <g>
                <polygon points="327.81 74.59 330.33 73.13 330.37 61.29 327.84 62.75 327.81 74.59" fill="#6f9fc3"/>
                <polygon points="327.84 62.75 330.37 61.29 300.11 43.82 297.58 45.28 327.84 62.75" fill="#39415c"/>
                <polygon points="297.58 45.28 297.55 57.12 327.81 74.59 327.84 62.75 297.58 45.28" fill="#396f8d"/>
              </g>
              <g>
                <polygon points="327.81 137.09 330.33 135.62 330.37 123.78 327.84 125.25 327.81 137.09" fill="#6f9fc3"/>
                <polygon points="327.84 125.25 330.37 123.78 300.11 106.31 297.58 107.78 327.84 125.25" fill="#39415c"/>
                <polygon points="297.58 107.78 297.55 119.62 327.81 137.09 327.84 125.25 297.58 107.78" fill="#396f8d"/>
              </g>
              <g>
                <polygon points="327.81 152.68 330.33 151.21 330.37 139.37 327.84 140.84 327.81 152.68" fill="#6f9fc3"/>
                <polygon points="327.84 140.84 330.37 139.37 300.11 121.9 297.58 123.37 327.84 140.84" fill="#39415c"/>
                <polygon points="297.58 123.37 297.55 135.21 327.81 152.68 327.84 140.84 297.58 123.37" fill="#396f8d"/>
              </g>
              <g>
                <polygon points="327.81 168.27 330.33 166.8 330.37 154.96 327.84 156.43 327.81 168.27" fill="#6f9fc3"/>
                <polygon points="327.84 156.43 330.37 154.96 300.11 137.5 297.58 138.96 327.84 156.43" fill="#39415c"/>
                <polygon points="297.58 138.96 297.55 150.8 327.81 168.27 327.84 156.43 297.58 138.96" fill="#396f8d"/>
              </g>
              <g>
                <polygon points="327.81 183.86 330.33 182.4 330.37 170.56 327.84 172.03 327.81 183.86" fill="#6f9fc3"/>
                <polygon points="327.84 172.03 330.37 170.56 300.11 153.09 297.58 154.56 327.84 172.03" fill="#39415c"/>
                <polygon points="297.58 154.56 297.55 166.39 327.81 183.86 327.84 172.03 297.58 154.56" fill="#396f8d"/>
              </g>
              <polygon points="327.84 156.43 327.84 157.66 327.14 156.03 327.84 156.43" fill="#92e0ff" mix-blend-mode="overlay" opacity=".25"/>
            </g>
            <g>
              <polygon points="386.39 28.77 386.33 34.8 336.83 63.57 336.89 57.53 386.39 28.77" fill="#a8c5ce"/>
              <polygon points="336.89 57.53 336.83 63.57 287 34.8 287.07 28.77 336.89 57.53" fill="#d5e8ec"/>
              <polygon points="386.39 28.77 336.89 57.53 287.07 28.77 336.57 0 386.39 28.77" fill="#c1dde4"/>
            </g>
            <g>
              <path d="M354.54,193.34h-5.14v22.84h0v.14h.04c.05,.33,.27,.66,.71,.92,1.01,.58,2.63,.58,3.63,0,.44-.26,.66-.59,.71-.92h.05v-22.98Z" fill="#96b2cc"/>
              <path d="M387.79,174.32h-5.14v22.84h0v.14h.04c.05,.33,.27,.66,.71,.92,1.01,.58,2.63,.58,3.63,0,.44-.26,.66-.59,.71-.92h.05v-22.98Z" fill="#c5d9ef"/>
              <path d="M387.79,174.32h-5.14v22.84h0v.14h.04c.05,.33,.27,.66,.71,.92,1.01,.58,2.63,.58,3.63,0,.44-.26,.66-.59,.71-.92h.05v-22.98Z" fill="#96b2cc"/>
              <g>
                <polygon points="392.7 172.7 351.4 196.71 336.15 187.93 377.45 163.93 392.7 172.7" fill="#f8f9fa"/>
                <polygon points="392.7 172.7 392.69 175.13 351.39 199.13 351.4 196.71 392.7 172.7" fill="#a8c5ce"/>
                <polygon points="351.4 196.71 351.39 199.13 336.14 190.36 336.15 187.93 351.4 196.71" fill="#d5e8ec"/>
              </g>
              <g>
                <polygon points="387.29 171.06 352.2 191.44 339.24 183.99 374.33 163.6 387.29 171.06" fill="#f8f9fa"/>
                <polygon points="387.29 171.06 387.28 173.12 352.19 193.51 352.2 191.44 387.29 171.06" fill="#a8c5ce"/>
                <polygon points="352.2 191.44 352.19 193.51 339.24 186.05 339.24 183.99 352.2 191.44" fill="#d5e8ec"/>
              </g>
            </g>
          </g>
          <g>
            <g>
              <polygon points="309.73 248.49 309.66 270.39 260.16 299.16 260.22 277.26 309.73 248.49" fill="url(#_名称未設定グラデーション_1610-2)"/>
              <polygon points="260.22 277.26 260.16 299.16 210.34 270.39 210.4 248.49 260.22 277.26" fill="url(#_名称未設定グラデーション_1567-3)"/>
              <polygon points="281.89 286.45 289.77 281.89 289.77 265.01 281.89 269.56 281.89 286.45" fill="#a2cedb" opacity=".5"/>
              <path d="M281.98,270.74c.14,0,.29-.04,.42-.11l7.89-4.56c.41-.23,.55-.75,.31-1.16-.23-.41-.75-.55-1.16-.31l-7.89,4.56c-.41,.23-.55,.75-.31,1.16,.16,.27,.44,.42,.74,.42Z" fill="#a2bddd"/>
              <polygon points="309.73 248.49 260.22 277.26 210.4 248.49 259.9 219.73 309.73 248.49" fill="#bbe4d7"/>
            </g>
            <polygon points="218.77 269.94 212.19 266.15 212.19 254.3 218.77 258.09 218.77 269.94" fill="#396f8d" opacity=".6"/>
            <polygon points="228.49 263.71 221.92 259.91 221.92 271.76 228.49 275.56 228.49 263.71" fill="#396f8d" opacity=".6"/>
            <polygon points="238.22 269.47 231.65 265.67 231.65 277.52 238.22 281.32 238.22 269.47" fill="#396f8d" opacity=".6"/>
            <polygon points="247.75 286.82 241.18 283.03 241.18 271.18 247.75 274.97 247.75 286.82" fill="#396f8d" opacity=".6"/>
            <polygon points="257.47 280.59 250.9 276.79 250.9 288.64 257.47 292.44 257.47 280.59" fill="#396f8d" opacity=".6"/>
            <g opacity=".5">
              <polygon points="301.84 258.18 308.41 254.38 308.41 266.24 301.84 270.03 301.84 258.18" fill="#a2cedb"/>
              <polygon points="292.11 275.65 298.68 271.85 298.68 260 292.11 263.79 292.11 275.65" fill="#a2cedb"/>
            </g>
            <g>
              <polygon points="272.77 275.06 279.34 271.26 279.34 283.12 272.77 286.91 272.77 275.06" fill="#a2cedb" opacity=".5"/>
              <polygon points="263.04 292.53 269.62 288.73 269.62 276.88 263.04 280.67 263.04 292.53" fill="#a2cedb" opacity=".5"/>
            </g>
            <g>
              <polygon points="301.45 112.36 301.22 247.86 259.96 271.84 260.19 136.34 301.45 112.36" fill="url(#_名称未設定グラデーション_1570-2)"/>
              <polygon points="260.19 136.34 259.96 271.84 218.42 247.86 218.66 112.36 260.19 136.34" fill="url(#_名称未設定グラデーション_1567-4)"/>
              <polygon points="301.45 113.29 260.19 137.27 218.66 113.29 259.92 89.31 301.45 113.29" fill="#e3f1fc"/>
            </g>
            <g opacity=".5">
              <path d="M291.77,128.85l6.57-3.79v11.85l-6.57,3.8v-11.85Zm-9.73,17.47l6.57-3.79v-11.85l-6.57,3.79v11.85Zm9.73-1.73l6.57-3.79v11.85s-6.57,3.79-6.57,3.79v-11.85Zm-9.73,17.47l6.57-3.79v-11.85s-6.57,3.79-6.57,3.79v11.85Zm9.73-1.73l6.57-3.79v11.85s-6.57,3.79-6.57,3.79v-11.85Zm-9.73,17.47l6.57-3.79v-11.85l-6.57,3.79v11.85Zm9.73-1.73l6.57-3.79v11.85s-6.57,3.79-6.57,3.79v-11.85Zm-9.73,17.47l6.57-3.79v-11.85l-6.57,3.79v11.85Zm9.73-1.73l6.57-3.79v11.85s-6.57,3.79-6.57,3.79v-11.85Zm-9.73,17.47l6.57-3.79v-11.85s-6.57,3.79-6.57,3.79v11.85Z" fill="#75b3c3"/>
              <path d="M272.99,139.6l6.57-3.79v11.85s-6.57,3.8-6.57,3.8v-11.85Zm-9.73,17.47l6.57-3.79v-11.85l-6.57,3.79v11.85Zm9.73-1.73l6.57-3.79v11.85s-6.57,3.79-6.57,3.79v-11.85Zm-9.73,17.47l6.57-3.79v-11.85s-6.57,3.79-6.57,3.79v11.85Zm9.73-1.73l6.57-3.79v11.85s-6.57,3.79-6.57,3.79v-11.85Zm-9.73,17.47l6.57-3.79v-11.85l-6.57,3.79v11.85Zm9.73-1.73l6.57-3.79v11.85s-6.57,3.79-6.57,3.79v-11.85Zm-9.73,17.47l6.57-3.79v-11.85l-6.57,3.79v11.85Zm9.73-1.73l6.57-3.79v11.85s-6.57,3.79-6.57,3.79v-11.85Zm-9.73,17.47l6.57-3.79v-11.85s-6.57,3.79-6.57,3.79v11.85Z" fill="#75b3c3"/>
              <polygon points="291.77 207.31 298.35 203.51 298.35 215.37 291.77 219.16 291.77 207.31" fill="#75b3c3"/>
              <polygon points="282.05 224.78 288.62 220.98 288.62 209.13 282.05 212.92 282.05 224.78" fill="#75b3c3"/>
              <polygon points="291.77 223.05 298.35 219.25 298.35 231.11 291.77 234.9 291.77 223.05" fill="#75b3c3"/>
              <polygon points="282.05 240.52 288.62 236.72 288.62 224.87 282.05 228.66 282.05 240.52" fill="#75b3c3"/>
              <polygon points="291.77 238.79 298.35 234.99 298.35 246.85 291.77 250.64 291.77 238.79" fill="#75b3c3"/>
              <polygon points="282.05 256.26 288.62 252.46 288.62 240.61 282.05 244.4 282.05 256.26" fill="#75b3c3"/>
              <polygon points="272.99 218.06 279.56 214.26 279.56 226.11 272.99 229.91 272.99 218.06" fill="#75b3c3"/>
              <polygon points="263.26 235.52 269.84 231.73 269.84 219.88 263.26 223.67 263.26 235.52" fill="#75b3c3"/>
              <polygon points="272.99 233.8 279.56 230 279.56 241.85 272.99 245.65 272.99 233.8" fill="#75b3c3"/>
              <polygon points="263.26 251.26 269.84 247.47 269.84 235.62 263.26 239.41 263.26 251.26" fill="#75b3c3"/>
              <polygon points="272.99 249.53 279.56 245.74 279.56 257.59 272.99 261.39 272.99 249.53" fill="#75b3c3"/>
              <polygon points="263.26 267 269.84 263.21 269.84 251.35 263.26 255.15 263.26 267" fill="#75b3c3"/>
            </g>
            <g>
              <g>
                <polygon points="251.65 203.02 254.18 201.55 254.21 189.71 251.68 191.18 251.65 203.02" fill="#6f9fc3"/>
                <polygon points="251.68 191.18 254.21 189.71 223.95 172.24 221.43 173.71 251.68 191.18" fill="#39415c"/>
                <polygon points="221.43 173.71 221.39 185.55 251.65 203.02 251.68 191.18 221.43 173.71" fill="#396f8d"/>
              </g>
              <g>
                <polygon points="251.65 187.34 254.18 185.88 254.21 174.04 251.68 175.51 251.65 187.34" fill="#6f9fc3"/>
                <polygon points="251.68 175.51 254.21 174.04 223.95 156.57 221.43 158.04 251.68 175.51" fill="#39415c"/>
                <polygon points="221.43 158.04 221.39 169.87 251.65 187.34 251.68 175.51 221.43 158.04" fill="#396f8d"/>
              </g>
              <g>
                <polygon points="251.65 171.73 254.18 170.27 254.21 158.43 251.68 159.89 251.65 171.73" fill="#6f9fc3"/>
                <polygon points="251.68 159.89 254.21 158.43 223.95 140.96 221.43 142.42 251.68 159.89" fill="#39415c"/>
                <polygon points="221.43 142.42 221.39 154.26 251.65 171.73 251.68 159.89 221.43 142.42" fill="#396f8d"/>
              </g>
              <g>
                <polygon points="251.65 156.12 254.18 154.65 254.21 142.81 251.68 144.28 251.65 156.12" fill="#6f9fc3"/>
                <polygon points="251.68 144.28 254.21 142.81 223.95 125.34 221.43 126.81 251.68 144.28" fill="#39415c"/>
                <polygon points="221.43 126.81 221.39 138.65 251.65 156.12 251.68 144.28 221.43 126.81" fill="#396f8d"/>
              </g>
              <g>
                <polygon points="251.65 218.61 254.18 217.15 254.21 205.31 251.68 206.77 251.65 218.61" fill="#6f9fc3"/>
                <polygon points="251.68 206.77 254.21 205.31 223.95 187.84 221.43 189.3 251.68 206.77" fill="#39415c"/>
                <polygon points="221.43 189.3 221.39 201.14 251.65 218.61 251.68 206.77 221.43 189.3" fill="#396f8d"/>
              </g>
              <g>
                <polygon points="251.65 234.21 254.18 232.74 254.21 220.9 251.68 222.37 251.65 234.21" fill="#6f9fc3"/>
                <polygon points="251.68 222.37 254.21 220.9 223.95 203.43 221.43 204.9 251.68 222.37" fill="#39415c"/>
                <polygon points="221.43 204.9 221.39 216.74 251.65 234.21 251.68 222.37 221.43 204.9" fill="#396f8d"/>
              </g>
              <g>
                <polygon points="251.65 249.8 254.18 248.33 254.21 236.49 251.68 237.96 251.65 249.8" fill="#6f9fc3"/>
                <polygon points="251.68 237.96 254.21 236.49 223.95 219.02 221.43 220.49 251.68 237.96" fill="#39415c"/>
                <polygon points="221.43 220.49 221.39 232.33 251.65 249.8 251.68 237.96 221.43 220.49" fill="#396f8d"/>
              </g>
              <g>
                <polygon points="251.65 265.39 254.18 263.92 254.21 252.09 251.68 253.55 251.65 265.39" fill="#6f9fc3"/>
                <polygon points="251.68 253.55 254.21 252.09 223.95 234.62 221.43 236.08 251.68 253.55" fill="#39415c"/>
                <polygon points="221.43 236.08 221.39 247.92 251.65 265.39 251.68 253.55 221.43 236.08" fill="#396f8d"/>
              </g>
              <polygon points="251.68 237.96 251.68 239.18 250.98 237.55 251.68 237.96" fill="#92e0ff" mix-blend-mode="overlay" opacity=".25"/>
            </g>
            <g>
              <polygon points="310.23 110.29 310.17 116.33 260.67 145.1 260.73 139.06 310.23 110.29" fill="#a8c5ce"/>
              <polygon points="260.73 139.06 260.67 145.1 210.85 116.33 210.91 110.29 260.73 139.06" fill="#d5e8ec"/>
              <polygon points="310.23 110.29 260.73 139.06 210.91 110.29 260.41 81.53 310.23 110.29" fill="url(#_名称未設定グラデーション_2789)"/>
            </g>
            <g>
              <path d="M278.38,274.87h-5.14v22.84h0v.14h.04c.05,.33,.27,.66,.71,.92,1.01,.58,2.63,.58,3.63,0,.44-.26,.66-.59,.71-.92h.05v-22.98Z" fill="#96b2cc"/>
              <path d="M311.63,255.85h-5.14v22.84h0v.14h.04c.05,.33,.27,.66,.71,.92,1.01,.58,2.63,.58,3.63,0,.44-.26,.66-.59,.71-.92h.05v-22.98Z" fill="#c5d9ef"/>
              <path d="M311.63,255.85h-5.14v22.84h0v.14h.04c.05,.33,.27,.66,.71,.92,1.01,.58,2.63,.58,3.63,0,.44-.26,.66-.59,.71-.92h.05v-22.98Z" fill="#96b2cc"/>
              <g>
                <polygon points="316.54 254.23 275.24 278.23 259.99 269.45 301.29 245.45 316.54 254.23" fill="#f8f9fa"/>
                <polygon points="316.54 254.23 316.53 256.66 275.23 280.66 275.24 278.23 316.54 254.23" fill="#a8c5ce"/>
                <polygon points="275.24 278.23 275.23 280.66 259.98 271.88 259.99 269.45 275.24 278.23" fill="#d5e8ec"/>
              </g>
              <g>
                <polygon points="311.13 252.58 276.04 272.97 263.09 265.52 298.17 245.13 311.13 252.58" fill="#f8f9fa"/>
                <polygon points="311.13 252.58 311.12 254.65 276.04 275.04 276.04 272.97 311.13 252.58" fill="#a8c5ce"/>
                <polygon points="276.04 272.97 276.04 275.04 263.08 267.58 263.09 265.52 276.04 272.97" fill="#d5e8ec"/>
              </g>
            </g>
          </g>
          <g>
            <path d="M45.36,148.47v1.54s.89-.6,.82-1.06c-.3-1.91-.47-3.02-.47-3.02l-.35,2.54Z" fill="#527b96"/>
            <path d="M45.9,158.62l-.74,.5s-.56,.08-.21,.42c0,0,.66,.02,1-.09,.34-.12,.67-.07,.82-.1,.28-.06,.35-.27,.35-.27l-.28-.6-.94,.14Z" fill="#3f3f3e"/>
            <path d="M41.48,158.86s-.51,.02-.57,.01c-.05,0-.56,.02-.37,.34,.04,.07,.16,.14,.29,.21,0,0,1.2,.35,1.29,.36,.08,0,.43,.05,.5-.21l-.06-.38-1.08-.33Z" fill="#3f3f3e"/>
            <path d="M45.58,152c.1-.58,.06-1.18-.14-1.74l-.08-.23-2.34,.74,1.48,4.83,1.3,3.09s.76,.23,1.04-.21l-1.09-3.49-.16-2.98Z" fill="#676767"/>
            <path d="M42.64,150.51l-1.09,3.94c-.06,.16-.08,.32-.08,.49v3.95c.4,.74,1.05,.53,1.12,.49,.07-.04,.45-3.97,.4-4.18-.05-.2,1.04-2.62,1.04-2.62l1.19-.4-1.8-1.17-.78-.49Z" fill="#676767"/>
            <path d="M44.96,145.21s-.6-.22-1.33,.06c-.94,.36-1.06,.89-1.09,1.44-.04,.77,.3,1.65,.3,1.65l-.02,.89-.08,1.59s.56,.32,1.64,.09c1.07-.24,1.2-.34,1.2-.34l-.13-1.72s.34-2.12,.31-2.27c-.03-.15,.22-1.05-.79-1.38Z" fill="#527b96"/>
            <g>
              <path d="M42.38,152.62s-.02-.1-.11-.12v-.37s.06-.39-.06-.42l-.53-.11s-.27,.61-.25,.66c.01,.05,.13,.45,.14,.5,.01,.05,.18,.16,.3,.18,.12,.02,.37,.02,.37,.02,0,0,.02-.05,0-.1l.08-.03s.18-.04,.02-.15l.04-.05Z" fill="#f0cfae"/>
              <path d="M42.77,146.02c-.17,.21-.34,2.84-.34,2.84,0,0-.81,2.58-.83,2.66-.01,.09,.23,.48,.68,.19l1.22-2.43s.35-1.74,.43-2.33c.07-.52-.3-1.99-1.16-.93Z" fill="#527b96"/>
            </g>
            <g>
              <path d="M43.64,144.17l.05,1.07c0,.32,1.09,.22,1.1-.11l-.07-.95h-1.08Z" fill="#f0cfae"/>
              <path d="M44.78,144.93c-.1,.3-.76,.31-1.09,.18l-.11,.15c.2,.3,.9,.38,1.21,.05,.07-.08,.08-.19,.04-.29l-.05-.09Z" fill="#006257"/>
              <path d="M43.25,144.3c0,.49,.33,.71,.8,.72,0,0,.87-.26,.88-.74l.11-.9-1.77-.32-.02,1.25Z" fill="#f0cfae"/>
              <path d="M43.68,142.45c-.39,.16-1,.55-.42,.96,0,0,.24,.06,.23,.44,0,.38,.39,.76,.68,1,.21,.17,.59-.1,.59-.1,0,0,.58-.64,.31-1.76-.17-.68-1.12-.66-1.39-.54Z" fill="#33383c"/>
              <path d="M43.44,143.87v.41c.17,.08,.31-.15,.29-.37-.03-.29-.29-.05-.29-.05Z" fill="#f0cfae"/>
            </g>
          </g>
          <g>
            <path d="M26.54,136.01c-.1,.12-.22,.47-.22,.47l-.05,.69c.09,.06,.15-.02,.15-.02,.05,.02,.11-.07,.11-.07l.13-.34s.17-.23,.18-.18c0,.05,0,.15-.04,.31-.04,.16,.08,.19,.08,.19l.12-.21,.15-.4,.02-.41s-.38-.22-.39-.22c-.02,0-.19,.13-.24,.18Z" fill="#f0cfae"/>
            <path d="M28.38,130.2s-.67,.05-.95,.45c-.27,.39-.04,2.73-.04,2.73l-.7,2.47c.14,.33,.55,.33,.55,.33l1.05-2.58,.17-1.99c-.09,0-.17,.01-.26,0-.3-.03,.19-1.41,.19-1.41Z" fill="#9eaebb"/>
            <path d="M30.88,141.6l-.68,.35s-.31,.64-.32,.63c-.53,.33-.37,.59-.13,.66,.15,.05,.65-.2,.83-.3l.19-.19,.45-.46c.06-.09,.07-.2,.02-.3l-.35-.4Z" fill="#3f3f3e"/>
            <path d="M28.05,143.99l-.69,.56c-.13,.11-.5,.27-.55,.44v.02c0,.42,.68,.29,.68,.29l1.13-.46c.1-.04,.22-.2,.23-.3l-.13-.45-.68-.09Z" fill="#3f3f3e"/>
            <path d="M29.12,135.75l-1.58-.43s0,1.26,.1,2.08c.07,.59,.43,2.31,.43,2.31l2.08,2.37s.56,.33,.85-.41l-1.73-2.77-.14-3.14Z" fill="#393939"/>
            <path d="M28.5,135.44v1.4l-.67,3.36,.06,3.91c.6,.52,.92,.12,.92,.12l.41-3.88s.53-1.98,.95-2.89c.42-.91,.35-1.9,.35-1.9l-2.04-.14Z" fill="#393939"/>
            <path d="M30.35,130.73l-.83-.56-.52-.1h-.52c-.73,0-.93,.32-1.09,.76-.13,.36,.17,2.65,.17,2.65l-.09,1.93s.16,.45,1.49,.65c1.39,.21,1.57-.29,1.57-.29l-.06-1.43,.22-2.71c.03-.46,.06-.67-.34-.89Z" fill="#666567"/>
            <path d="M28.42,129.25l-.04,.91c-.01,.31,.23,.57,.53,.58,.31,.01,.57-.23,.58-.53l-.13-.95h-.94Z" fill="#f0cfae"/>
            <path d="M28.63,130.65l.12,.44s.64-.08,.96-.79l-.26-.41s-.03,.68-.82,.77Z" fill="#9eaebb"/>
            <path d="M28.39,130.04c-.23,.21-.11,.89-.11,.89,.07-.11,.35-.29,.35-.29-.32-.23-.24-.61-.24-.61Z" fill="#9eaebb"/>
            <path d="M27.86,128.39l.14,1.19c.06,.47,.39,.72,.76,.6,.05-.02,.8-.35,.74-.82v-.87s-1.64-.1-1.64-.1Z" fill="#f0cfae"/>
            <path d="M28.01,127.89c-.64,.52-.12,.69-.12,.69,0,0,1.13-.11,1.16,.08,0,.06,0,.4,0,.4l.14,.08,.07-.17,.14,.78s.26-.31,.32-.82c.03-.23,.1-.71-.11-.92-.43-.43-1.01-.6-1.6-.12Z" fill="#33383c"/>
            <path d="M29.25,128.97l.05,.39c.17,.06,.28-.18,.23-.38-.07-.27-.28,0-.28,0Z" fill="#f0cfae"/>
            <g>
              <path d="M31.04,137.9h0s0,0,0-.01h0Z" fill="#f7b7a9"/>
              <path d="M30.83,136.42l-.13,.59,.11,.76s.16,0,.14-.23l-.04-.26v.03s0,0,0,0l.11,.3v.29c.02,.08,.12,.11,.16,.04,.01-.02,.12-.12,.12-.12l.21-.19,.08-.31-.22-.86-.54-.03Z" fill="#f0cfae"/>
            </g>
            <path d="M30.23,130.81c-.62,.13-.3,1.25-.3,1.25l.63,2,.26,2.37c.49,.2,.56,.06,.56,.06l.04-2.52-.39-2.19s-.16-1.11-.8-.97Z" fill="#9eaebb"/>
          </g>
          <g>
            <path d="M138.79,117.67s-.05,.09,.14,.32c.19,.23,.26,.28,.36,.26,.1-.02,.2-.22,0-.37-.2-.15-.25-.25-.5-.2Z" fill="#1a1a1a"/>
            <path d="M138.91,117.77s-.19-.1-.42,.02c-.24,.12-.74,.19-.74,.19,0,0-.02,.13,.12,.15h.21s-.41,.26-.64,.33c-.06,.02-.02,.19,.15,.18,0,0,.2,.16,.55,.12,.43-.05,.84-.36,.84-.36,0,0,.14-.19,.35-.38,0,0,.21-.33-.41-.23Z" fill="#f0cfae"/>
            <path d="M139.13,117.61l-.33,.13s.37,.09,.33,.48l.31-.15s-.14-.45-.3-.45Z" fill="#e5e5e5"/>
            <path d="M142.18,113.2s-.58-.02-.92,.54c-.28,.44-.76,2.89-.76,2.89l-1.71,1.04c.23-.03,.44,.21,.51,.38,.04,.11-.01,.19-.01,.19l2.08-.51,.21-1.9,.74-1.09c-.09,.01-.19,.02-.29,.01-.33-.02,.15-1.56,.15-1.56Z" fill="#393939"/>
            <path d="M142.53,128.68c-.14,.14-.45,.35-.49,.54v.03c.21,.44,.79,.28,.79,.28l1.29-.72c.11-.06,.17-.17,.17-.3v-.42l-1.03-.15-.74,.74Z" fill="#3f3f3e"/>
            <path d="M140.58,127.72c-.7,.37-.46,.67-.17,.77,.33,.11,1.07-.4,1.07-.4l.69-.24c.11-.06,.17-.17,.17-.3v-.42l-1.03-.15-.74,.74Z" fill="#3f3f3e"/>
            <path d="M142.04,119.15c-.32-.16-.46,.04-.79-.15,0,0,.02,1.5,0,1.91-.07,1.6-.07,6.1-.07,6.1,0,0,.21,.59,1.25,.27l.36-5.9,.25,6.59s.29,.73,1.4,.14l.49-8.76s-2.03,.22-2.88-.2Z" fill="#474647"/>
            <path d="M144.59,113.87l-.92-.6-.57-.1h-.49c-.02,.07-.06,.13-.14,.18-.24,.17-.5,.27-.77,.35-.19,1.02-.13,1.99-.1,3.04,.03,.83,0,1.67-.12,2.49,.24,.18,.7,.42,1.54,.53,1.53,.21,1.61-.49,1.61-.49l.59-4.31c.03-.5-.2-.86-.64-1.1Z" fill="#e5e5e5"/>
            <path d="M141.52,114.02c-.15,.47-.12,2.91-.12,2.91l-.22,2.6s.37,.69,.85,.24c.21-.2,.11-.75,.32-.86,0-.77-.01-1.55,0-2.32,0-.58-.21,.29-.24-.29-.03-.58-.1-2.25,.4-3.13-.67,0-.82,.37-.98,.85Z" fill="#313131"/>
            <path d="M144.59,113.87l-.79-.51c-.17,.27-.34,.54-.52,.81-.15,.22-1.12,1.99-1.12,1.99,0,0,0-.02,0-.05,0,0,0,.02-.01,.03-.07,1.11-.13,2.58-.29,3.68,.03,.36,.97,.85,1.55,.79,1.24-.12,1.4-.52,1.4-.52l.41-5.11c.03-.5-.2-.86-.64-1.1Z" fill="#313131"/>
            <path d="M144.53,120.16l.02,1.07h0c.08-.01,.16-.02,.25-.01,.03,0,.07,0,.1,0,.14-.03,.18-.04,.33-.06l-.02-.8-.67-.19Z" fill="#f0cfae"/>
            <path d="M144.56,120.08l-.22,.79,.04,.85s.18,.02,.18-.24v-.29s.16-.12,.16-.12l-.16-.98Z" fill="#f0cfae"/>
            <path d="M145.19,120.02c-.23,.09-.51,.07-.7-.06v.36c.51,.38,.74-.01,.74-.01l.03-.29h0s-.04,0-.06,0Z" fill="#e5e5e5"/>
            <path d="M144.61,114.02c-.55,0-.49,1.4-.49,1.4l.22,2.12,.1,2.55c.5,.38,.9,.07,.9,.07l.16-2.52-.13-2.45s-.05-1.16-.77-1.16Z" fill="#393939"/>
            <path d="M142.45,112.34v1c0,.34,.27,.61,.61,.61s.61-.27,.61-.61l-.09-1h-1.13Z" fill="#f0cfae"/>
            <path d="M144.55,121.18l.09,.38-.02,.32-.02,.1c-.02,.1,.11,.16,.17,.07,.02-.02,.16-.24,.16-.24l.25-.18,.12-.34-.06-.71-.68,.59Z" fill="#f0cfae"/>
            <path d="M142.74,113.86l.15,.47s.7-.11,1.02-.91l-.27-.41s-.19,.69-.9,.85Z" fill="#fff"/>
            <path d="M142.45,113.2c-.24,.24-.08,.98-.08,.98,.07-.12,.37-.33,.37-.33-.35-.27-.29-.65-.29-.65Z" fill="#fff"/>
            <path d="M144.11,113.56l-.39-.42c-.52,.83-1.37,2.29-1.64,3.08-.05,.13,.03,.47,.03,.47,.14-.39,.37-.61,.75-1.04,.47-.54,1.06-1,1.06-1l-.26-.11h.21l.23-.98Z" fill="#393939"/>
            <path d="M141.9,113.95l.17,.08h-.23s0,2.09,.27,2.66c0,0-.13-1.91,.36-3.16v-.44s-.49,.32-.58,.85Z" fill="#393939"/>
            <path d="M142.14,112.55c0,.52,.26,.75,.75,.75,0,0,.91-.28,.91-.79l.1-.95-1.77-.32v1.31Z" fill="#f0cfae"/>
            <path d="M142.36,110.72c-.77,.48-.22,.73-.22,.73,0,0,1.24,.03,1.25,.24,0,.06-.06,.43-.06,.43l.15,.11,.1-.17,.05,.87s.32-.3,.46-.85c.06-.24,.2-.76,0-1.02-.42-.53-1.02-.78-1.72-.34Z" fill="#33383c"/>
            <path d="M143.58,112.05v.43c.18,.08,.33-.16,.3-.39-.04-.3-.3-.04-.3-.04Z" fill="#f0cfae"/>
            <polygon points="142.65 113.92 142.5 114.05 142.37 114.19 142.41 114.46 142.67 114.5 142.87 114.25 142.77 113.96 142.65 113.92" fill="#386f86"/>
            <path d="M142.14,115.21c-.06,.48-.04,.98-.04,.98l.48-1.06,.09-.63-.25-.04s-.26,.58-.28,.75Z" fill="#386f86"/>
          </g>
          <g>
            <g>
              <path d="M136.87,119.27l-.29,.14c-.1,.1-.13,.33-.1,.46l.04,.17,.06,.28-.04,.28s0,.18,.15,.13l.07-.22v.18s-.12,.23,.1,.24l.03-.06c.04,.09,.15,.06,.15,.06,0,0,.12-.23,.14-.55,.06,.05,.14,.03,.14,.03l-.06-.59-.41-.55Z" fill="#f0cfae"/>
              <path d="M136.35,119.38s-.05,0-.07,.01h0s.12,.26,.12,.26c0,0,.36,.31,.77-.18l-.09-.34c-.17,.18-.45,.27-.72,.25Z" fill="#e5e5e5"/>
              <path d="M136.52,114.73s-.24-1.34-.82-1.24c-.77,.14-.57,1.26-.57,1.26l.4,2.36,.72,2.38s.5,.21,.95-.25l-.45-2.45-.22-2.06Z" fill="#393939"/>
              <path d="M135.07,128.86l-.73-.65-1.01,.14v.37c0,.11,.07,.21,.17,.26l1.28,.63s.57,.14,.78-.25v-.03c-.04-.17-.35-.35-.49-.48Z" fill="#3f3f3e"/>
              <path d="M137.16,127.91l-.72-.64-1,.13v.37c0,.11,.06,.2,.17,.26l.67,.21s.72,.44,1.04,.34c.28-.08,.51-.34-.16-.66Z" fill="#3f3f3e"/>
              <path d="M136.64,119.08c-.36,.19-.51,0-.86,.15-.93,.41-3.12,.19-3.14,.19l.53,4.98,.15,4.03c1.02,.41,1.27-.14,1.27-.14l.47-6.2,.39,5.48c.94,.25,1.21-.23,1.21-.23,0,0,.06-4.86-.02-6.42-.02-.39,0-1.86,0-1.86Z" fill="#666567"/>
              <path d="M136.15,113.93c-.3-.08-.59-.18-.84-.34-.08-.05-.12-.11-.15-.18h-.53l-.62,.1-1,.58c-.48,.23-.72,.59-.69,1.07l.64,4.19s.09,.68,1.75,.47c.92-.11,1.42-.34,1.68-.52-.13-.8-.17-1.61-.14-2.42,.04-1.02,.11-1.97-.1-2.96Z" fill="#e5e5e5"/>
              <path d="M136.35,114.24c-.17-.47-.34-.83-1.07-.83,.55,.86,.47,2.49,.44,3.05-.03,.56-.26-.28-.26,.28,0,.75,0,1.51,0,2.26,.22,.1,.11,.64,.34,.83,.52,.44,.92-.23,.92-.23l-.24-2.53s.03-2.38-.13-2.83Z" fill="#313131"/>
              <path d="M135.65,116.26s0,.05,0,.05c0,0-1.06-1.72-1.22-1.93-.19-.26-.38-.52-.56-.79l-.86,.5c-.48,.23-.72,.59-.69,1.07l.45,4.98s.17,.38,1.52,.5c.63,.06,1.66-.42,1.69-.77-.17-1.07-.24-2.5-.31-3.58,0,0-.01-.02-.01-.03Z" fill="#313131"/>
              <path d="M133.07,120.4h0s-.02-.07-.02-.07v.09s-.7,.18-.7,.18v.26s-.02-.01-.02-.01l-.07,.71,.13,.34,.27,.18s.15,.21,.17,.24c.06,.08,.2,.02,.18-.07l-.02-.1-.02-.32,.09-.34s0,0,0,0h0s0-.02,0-.02v-.02s0,.3,0,.3c0,.26,.2,.24,.2,.24l.04-.85-.21-.69v-.02Z" fill="#f0cfae"/>
              <path d="M132.35,120.26s-.05,0-.07,0h0s.03,.29,.03,.29c0,0,.25,.39,.79,.01v-.36c-.2,.14-.51,.16-.75,.06Z" fill="#e5e5e5"/>
              <path d="M132.99,114.24c-.79,0-.84,1.17-.84,1.17l-.14,2.46,.17,2.54s.44,.31,.99-.07l.11-2.56,.24-2.13s.07-1.4-.53-1.4Z" fill="#393939"/>
              <path d="M134.01,113.57c0,.33,.3,.59,.66,.59s.66-.27,.66-.59v-.97h-1.23l-.1,.97Z" fill="#f0cfae"/>
              <path d="M134.04,113.25l-.29,.4c.35,.77,1.11,.88,1.11,.88l.16-.46c-.77-.16-.98-.83-.98-.83Z" fill="#fff"/>
              <path d="M135.02,114.08s.32,.2,.4,.32c0,0,.17-.73-.09-.96,0,0,.07,.37-.32,.63Z" fill="#fff"/>
              <path d="M133.95,113.38l-.42,.4,.25,.95h.23l-.28,.11s.64,.44,1.16,.97c.41,.42,.67,.64,.82,1.01,0,0,.08-.32,.03-.45-.29-.77-1.22-2.19-1.79-2.99Z" fill="#393939"/>
              <path d="M135.94,114.16c-.1-.52-.63-.83-.63-.83v.43c.54,1.21,.4,3.07,.4,3.07,.31-.55,.3-2.59,.3-2.59h-.25l.19-.07Z" fill="#393939"/>
              <path d="M133.75,111.84l.11,.92c0,.5,.99,.77,.99,.77,.76,.05,.94-.33,.94-.83l-.12-1.17-1.93,.31Z" fill="#f0cfae"/>
              <path d="M135.44,111.02c-.76-.43-1.34-.2-1.8,.31-.22,.25-.19,.66-.13,.89,.15,.53,.54,.95,.54,.95l.06-.85,.11,.17,.16-.1s-.07-.36-.07-.42c.01-.2,1.37-.23,1.37-.23,0,0,.59-.25-.24-.71Z" fill="#33383c"/>
              <path d="M133.78,112.37c-.03,.22,.13,.46,.33,.38v-.42s-.29-.25-.33,.04Z" fill="#f0cfae"/>
              <polygon points="135.11 114.14 134.98 114.18 134.88 114.46 135.1 114.7 135.38 114.66 135.43 114.4 135.28 114.26 135.11 114.14" fill="#ec6550"/>
              <path d="M135.38,114.66l-.27,.04,.09,.62,.53,1.03s.02-.49-.04-.96c-.02-.17-.3-.73-.3-.73Z" fill="#ec6550"/>
            </g>
            <path d="M134.15,110.92s-.37,1.09,1.28,.93c.19-.02,.48-.07,.64-.25,0,0-.63-1.16-1.91-.68Z" fill="#33383c"/>
          </g>
        </g>
      </g>
    </g>
  </g>
</svg>