<?xml version="1.0" encoding="UTF-8"?>
<svg id="_レイヤー_2" data-name="レイヤー 2" xmlns="http://www.w3.org/2000/svg" viewBox="0 0 186 186">
  <g id="_レイヤー_1-2" data-name="レイヤー 1">
    <g>
      <g opacity=".85">
        <circle cx="93" cy="93" r="93" fill="#fff"/>
      </g>
      <path d="m117.72,75.85s-.22.16-.48.35c-.11.74-.52,4.03-.64,4.69-.48,2.4-.96,4.36-4.18,4.58.02-.97-.58-1.54-1.4-1.83l.02-.18c.3.04.45.06,1.63.18.28.04.53.04.67.04.35,0,1.17,0,1.48-.68.63-1.36,1.17-5.34,1.3-6.84.03-.33.03-.37.02-.72h-4.6c-.17,1.27-.49,2.53-.92,3.74-1.25,3.49-3.96,5.55-7.63,6.45l-.03-.16c5.45-2.43,6.87-6.19,7.37-10.03h-.35c-.72,0-1.88.1-2.67.25l-.4-.88c1.53.12,3.01.14,3.4.14h5.75l.51-.43c.15-.12.22-.18.32-.18s.16.06.25.16l.67.78c.06.06.15.18.14.29-.01.12-.08.18-.23.29Zm-7.58-6.14c-1.78,2.92-4.34,5.63-6.83,7.15l-.07-.14c1.31-1.34,3.49-3.95,4.94-6.23.88-1.4,1.01-1.93,1.09-2.55l1.47,1.03c.19.12.27.18.26.29-.02.27-.55.39-.86.45Zm10.8,6.29c-2.9-1.36-4.73-4.19-5.58-7.58h-2.2c-.33,0-.81.04-1.14.12l-.15-.68c.37.02,1.15.06,1.45.06h1.95l.52-.51c.23-.23.31-.23.39-.23.14,0,.28.12.33.21l.66.68c.08.08.15.16.14.31-.03.39-.62.47-1.43.55.92,3.31,4.72,5.51,7.14,5.59v.16c-1.08.25-1.61.82-2.08,1.32Z" fill="#003383" stroke="#003383" stroke-linecap="round" stroke-linejoin="round" stroke-width=".5"/>
      <path d="m79.89,89.32c-7.85,0-11.4-5.72-10.68-9.86.36-2.04,1.99-3.81,4.03-3.81,1.58,0,2.66,1.38,2.27,3.61-.15.85-.93,2.69-1.01,3.15-.4,2.3,1.62,4.67,6.04,4.67,8.38,0,12.37-8.48,13.4-14.39.97-5.52.55-12.55-7.63-12.55-4.62,0-7.84,2.56-11.63,5.78l-.86-.72,5.65-25.1h22.76l-1.93,4.27h-19.66l-4,17.94c1.7-1.45,3.01-2.5,5.71-3.61,2.27-.92,4.25-1.31,5.9-1.31,5.08,0,12.73,4.14,10.88,14.72-1.81,10.32-10.73,17.22-19.24,17.22Z" fill="#003383"/>
      <g>
        <path d="m60.48,101.37c.58,0,1.14-.14,3.46-.76,3.13-.82,9.37-2.12,9.64-2.12.33,0,1.43.37,1.38.97-.04.49-.56.53-.83.53-.19,0-1.06-.06-1.23-.06-2.32,0-3.48.55-4.74,1.58-2.26,1.83-3.11,4.03-3.24,5.53-.31,3.6,3.24,4.6,4.79,4.89.55.1.85.14,1.11.51.13.18.19.39.18.55-.03.33-.32.39-.55.39-2.12,0-6.79-1.56-6.39-6.14.31-3.53,3.12-5.63,5.43-7.34-1.26.35-2.82.72-4.22,1.05-2.67.64-3.42,1.07-4.5,1.66-.13.08-.37.21-.61.21-.33,0-1.31-.53-1.2-1.79.03-.31.1-.47.2-.68.56.86.65,1.01,1.33,1.01Zm11.55,1.38c1.3.86,1.42,1.38,1.38,1.85-.02.21-.1.64-.49.64-.23,0-.33-.21-.45-.45-.57-1.25-1.77-2.34-2.29-2.71.67.06,1.31.33,1.85.68Zm3.84.99c-.04.49-.32.55-.42.55-.23,0-.35-.23-.53-.51-.61-1.01-1.53-1.73-2.46-2.45,1.34.21,3.52,1.07,3.41,2.4Z" fill="#003383" stroke="#003383" stroke-linecap="round" stroke-linejoin="round" stroke-width=".5"/>
        <path d="m85.98,112.47c1.04-.12,2.93-.64,5.33-2.47.86-.66,2.02-1.71,2.21-3.84.2-2.28-1.75-3.27-3-3.27-1.85,0-4.81,1.44-6.95,3.31-.05.84-.13,4.56-.2,5.32-.07.84-.5,2.18-1.05,2.18-.25,0-.32-.12-.37-.74-.08-.92-.1-1.23-.62-2.34l.09-.06c.16.1.83.58.96.58.16,0,.21-.23.22-.35v-.04c.1-1.05.15-2.82.22-3.84-.83.8-.99,1.01-3.51,4.17-.35.45-.39.51-.58.51-.35,0-.37-.47-.35-.74.06-.7.28-.88.75-1.23.75-.55,2.78-3.08,3.96-5.34.02-.25.2-1.29.23-1.5-.39,0-1.58.64-2.06.99-.5.37-.66.45-.94.45-.78,0-1.3-1.34-1.25-1.95.01-.14.04-.21.09-.33.19.6.84.92,1.25.92.53,0,1.89-.45,3.07-1.07.06-.43.41-2.3.44-2.67.09-.99-.05-1.36-.98-1.93.15-.06.32-.12.63-.12,1.11,0,1.84.84,1.8,1.29-.01.12-.04.18-.33.76-.2.41-.27.78-.6,2.18.17-.08.24-.12.38-.12.21,0,1.19.29,1.15.66-.02.25-.61.84-.94,1.15-.45.45-.89,1.03-1.31,1.85-.06.41-.07.55-.09.82,2.51-2.14,4.93-3.47,7.27-3.47s4.07,1.83,3.87,4.19c-.25,2.82-2.58,4.36-4.19,5.12-2.34,1.11-3.98,1.11-4.6,1.11v-.12Z" fill="#003383" stroke="#003383" stroke-linecap="round" stroke-linejoin="round" stroke-width=".5"/>
        <path d="m100.86,110.54c.54.43,1.27.97,1.66,1.23.31.21.51.27.74.27.51,0,.86-.43.98-.62,1.4-2.1,2.14-5.88,2.2-6.64.13-1.44-.15-2.08-1.2-2.08-.53,0-1.24.12-1.77.25-.44.78-2.23,4.32-2.64,5.01-.97,1.64-1.99,3.43-3,4.87-.05.06-.4.58-.71.58-.29,0-.45-.27-.41-.76.06-.64.31-.9.92-1.58.25-.27,1.52-2.1,2.43-3.62.87-1.44,2.08-3.8,2.28-4.21-.68.23-2.8.95-3.17,1.21-.44.29-.54.35-.79.35-.66,0-1.59-.88-1.48-2.08.01-.12.04-.19.11-.31.27.49.73,1.05,1.39,1.05.29,0,.62-.08,1.34-.27,1.73-.47,1.79-.47,3.03-.8.42-.82,1.35-2.69,1.41-3.39.05-.53-.09-.86-.58-1.11-.12-.06-.69-.35-.79-.39.23-.06.46-.1.83-.1,1.46,0,2.08.92,2.04,1.34-.02.18-.02.21-.47.9-.24.37-1.13,2.16-1.33,2.51.21-.04.88-.14,1.51-.14,2.14,0,2.08,2.08,2,3.04-.11,1.23-1.24,6.14-2.88,7.81-.29.29-1.21,1.17-1.83,1.17-.45,0-.45-.25-.44-.62.03-.33-.04-.74-1.46-2.77l.07-.1Zm8.89-3.84c1.4-.04,2.78-.06,2.87-1.05.04-.47-.79-1.99-3.71-4.11,2.64.39,3.97,2.28,4.23,2.65.77,1.07.97,2.1.88,3.04-.04.45-.14.7-.43.7-.16,0-.24-.04-.65-.33-.23-.16-.4-.1-1.65-.41-.16-.04-1.05-.25-1.55-.37v-.12Z" fill="#003383" stroke="#003383" stroke-linecap="round" stroke-linejoin="round" stroke-width=".5"/>
        <path d="m119.91,99.07c.43,0,2.59-.47,3.83-.84.36-.1.93-.27,1.09-.27.58,0,1.29.8,1.24,1.32-.02.25-.06.27-.52.58-.46.33-.59.41-.98.84-.66.74-3.6,4.01-4.19,4.69-.3.35-.64.74-1.19,1.44,1.08-.64,3-1.69,5.39-1.69,2.98,0,4.33,1.75,4.14,3.9-.24,2.73-2.9,4.67-6.1,4.67-1.77,0-3.89-.68-3.75-2.24.12-1.38,1.46-1.69,2.24-1.69,1.69,0,2.56,1.09,2.94,2.82,2.08-.31,3.31-2.16,3.45-3.7.18-2.1-1.24-3.21-3.23-3.21-3.88,0-7.19,3.72-7.43,4.07-.59.86-.87,1.27-1.32,1.27-.27,0-.43-.21-.39-.68.06-.68.26-.86.77-1.32,3.48-3.08,8.24-8.94,8.32-9.8.02-.27-.16-.29-.26-.29-.33,0-2.39.58-3.2,1.05-.24.14-.69.41-.84.41-.58,0-1.61-.88-1.52-1.83.02-.21.11-.31.24-.41.19.62.64.9,1.28.9Zm.76,11.49c-.51,0-1.03.29-1.08.84-.09,1.05,2.07,1.5,2.64,1.5.14,0,.37,0,.71-.12-.12-1.25-1.37-2.22-2.27-2.22Z" fill="#003383" stroke="#003383" stroke-linecap="round" stroke-linejoin="round" stroke-width=".5"/>
        <path d="m71.07,138.46l.06-.66h.58c.82,0,1.48-.47,1.57-1.5l1.05-11.98-6.87,14.14h-.58l-4.17-14.14-1.05,11.98c-.09,1.07.55,1.5,1.31,1.5h.41l-.06.66h-4.52l.06-.66h.51c.78,0,1.48-.45,1.57-1.5l.93-10.67c.09-.99-.44-1.5-1.31-1.5h-.51l.06-.68h3.78l3.83,13.03,6.32-13.03h3.74l-.06.68h-.62c-.88,0-1.51.53-1.59,1.5l-.93,10.67c-.08.97.46,1.5,1.33,1.5h.62l-.06.66h-5.41Z" fill="#003383" stroke="#003383" stroke-linecap="round" stroke-linejoin="round" stroke-width=".5"/>
        <path d="m92.62,127.28c-.73-1.32-1.08-1.73-1.51-2.06-.98-.74-1.75-1.09-3.17-1.09h-2.28c-.95,0-1.56.49-1.64,1.38l-.42,4.83h2.36c1.21,0,1.73-.72,1.96-1.01.28-.35.44-.76.49-1.42h.66l-.51,5.82h-.66l.03-.31c.12-1.4-.51-2.4-2.03-2.4h-2.36l-.45,5.1c-.07.82.16,1.69,1.37,1.69h.7l-.06.66h-5.71l.06-.66h.66c.45,0,1.55-.37,1.67-1.71l.93-10.62c.04-.49-.05-1.34-1.14-1.34h-.92l.06-.68h11.53l.9,3.53-.52.29Z" fill="#003383" stroke="#003383" stroke-linecap="round" stroke-linejoin="round" stroke-width=".5"/>
        <path d="m100.99,138.46h-6.99l.06-.66h.62c.51,0,1.5-.41,1.63-1.93l.89-10.13c.09-.99-.25-1.6-1.24-1.6h-.7l.06-.68h6.7c2.82,0,4.85,1.13,4.65,3.47-.21,2.45-2.54,3.14-3.61,3.47.81.16,1.72.35,2.65,1.17.8.7,1.29,1.71,1.19,2.82-.17,1.93-2.06,4.07-5.91,4.07Zm.81-7.67h-3.76l-.48,5.47c-.07.84.13,1.54,1.88,1.54h1.6c2.24,0,3.99-.97,4.2-3.37.14-1.64-.5-3.64-3.44-3.64Zm.44-6.66h-1.97c-1.25,0-1.69.51-1.77,1.42l-.4,4.58h3.64c1.6,0,3.16-.92,3.35-3.1.15-1.75-.73-2.9-2.85-2.9Z" fill="#003383" stroke="#003383" stroke-linecap="round" stroke-linejoin="round" stroke-width=".5"/>
        <path d="m121.09,138.46l.06-.66h.58c.82,0,1.48-.47,1.57-1.5l1.05-11.98-6.87,14.14h-.58l-4.17-14.14-1.05,11.98c-.09,1.07.55,1.5,1.31,1.5h.41l-.06.66h-4.52l.06-.66h.51c.78,0,1.48-.45,1.57-1.5l.93-10.67c.09-.99-.44-1.5-1.31-1.5h-.51l.06-.68h3.78l3.83,13.03,6.32-13.03h3.74l-.06.68h-.62c-.88,0-1.51.53-1.59,1.5l-.93,10.67c-.08.97.46,1.5,1.33,1.5h.62l-.06.66h-5.41Z" fill="#003383" stroke="#003383" stroke-linecap="round" stroke-linejoin="round" stroke-width=".5"/>
      </g>
    </g>
  </g>
</svg>