<?xml version="1.0" encoding="UTF-8"?>
<svg id="_レイヤー_2" data-name="レイヤー 2" xmlns="http://www.w3.org/2000/svg" viewBox="0 0 534.47 225.95">
  <g id="_デザイン" data-name="デザイン">
    <g>
      <path d="M24.07,32.19c0,14.09-19.55,19.89-21.69,19.89-.7,0-1.1-.46-1.1-.93,0-.41,.29-.75,.87-.93,5.51-1.33,17.28-6.03,17.34-17.28,0-6.03-3.89-9.22-10.27-9.22-.75,0-1.57,0-2.44,.12-.46,.06-1.16,.29-1.86,.41-.87,.17-.7,.75-1.74,.75-.35,0-1.1-.12-1.1-.41,0-.35,.46-.87,.64-1.28,1.45-3.42,2.9-9.63,3.36-12.47,.06-.23-.12-.93,.7-.93h.23c2.2,0,13.8-2.44,14.15-2.61,.23-.12,.46-.17,.64-.17,.29,0,.46,.12,.46,.46,0,.93-1.8,4.06-3.07,4.29-3.36,.58-7.08,1.1-10.32,1.68-.52,.12-.93,.29-1.1,.87-.52,1.62-.87,3.6-1.33,4.93-.06,.12-.06,.23-.06,.29,0,.41,.35,.46,.64,.46h.29c.87-.17,1.86-.23,2.78-.23,8.76,0,13.98,5.34,13.98,12.3Z" fill="#fff"/>
      <path d="M83.11,35.9c0,.35-.29,.7-1.28,.7h-20.88c0,5.22,.12,10.21,.23,13.57v.06c0,1.22-1.39,1.91-2.15,1.91s-1.39-.46-1.39-1.62v-.12c.17-3.71,.29-8.76,.41-13.8h-6.84c-3.25,0-11.77,.12-17.05,.64h-.06c-1.1,0-2.78-2.26-2.78-3.02,3.65,.46,9.11,.7,13.57,.81,.06-1.57,.06-3.07,.06-4.41v-3.13c0-.46-.06-5.45-.7-8.06-.06-.12-.06-.23-.06-.29,0-.12,.06-.17,.12-.17,.12,0,3.94,1.62,4.7,2.26l.23,.17h8.99l.06-3.19c0-2.32,0-5.97-.12-7.54h-11.66c-7.66,10.38-13.92,13.8-14.67,13.8-.12,0-.12-.06-.12-.12,0-.12,.29-.46,.93-.93,4.18-3.19,13.92-15.43,15.49-22.85,.06-.29,.12-.46,.23-.46,.06,0,5.16,2.38,5.16,3.6,0,.46-.58,.75-1.97,.81-.99,0-1.04,.29-1.86,1.57-.64,.99-1.39,2.03-2.15,3.13h23.08c.35,0,.7-.23,.93-.52,1.62-2.03,2.44-3.02,2.78-3.02,.87,0,5.1,2.73,5.1,4.23,0,.41-.29,.75-1.22,.75h-15.66c.06,.06,.12,.17,.12,.23,0,.29-.46,.58-.75,.7-.7,.29-.81,.41-.87,4.7,0,1.39-.06,3.19-.06,5.1h6.9c.35,0,.7-.23,.93-.52,.81-.99,2.38-2.73,2.73-2.73,1.45,0,4.76,3.13,4.76,4.12,0,.29-.29,.58-1.22,.58h-14.09c0,3.71-.06,8.06-.06,12.3h12.93c.41,0,.87-.23,1.04-.52,1.91-2.73,2.38-3.31,2.96-3.31,1.28,0,5.22,3.42,5.22,4.58Zm-34.28-13.05c-.17,.17-.41,.29-.7,.46-.64,.41-.64,2.38-.64,11.77,1.74,.06,3.13,.06,4,.06h6.55l.17-12.3h-9.4Z" fill="#fff"/>
      <path d="M100.57,49.53c0,1.8-2.15,2.09-2.15,2.09-.75,0-1.33-.46-1.33-1.57v-.41c.58-5.63,.93-16.07,.93-20.76v-5.16c-7.48,6.67-10.67,7.37-10.85,7.37-.12,0-.17,0-.17-.06,0-.17,.29-.41,.81-.75,4.12-2.78,10.15-9.05,14.96-15.14,.7-.87,1.22-2.03,1.45-2.73,.06-.17,.06-.35,.17-.35,.35,0,3.89,2.67,3.89,3.36,0,.35-.41,.75-1.68,.81-.75,.06-.81,.06-5.74,4.81,.99,.12,2.26,.41,2.26,.99,0,.35-.35,.75-.93,.99-1.57,.7-1.57,.52-1.68,2.84-.12,2.73-.17,6.38-.17,10.21,0,4.81,.12,9.86,.23,13.4v.06Zm4.99-44.31c-.41,0-.52,.12-1.1,.58-6.96,5.74-14.5,9.98-15.78,9.98-.12,0-.17,0-.17-.06,0-.12,.23-.29,.64-.58,2.38-1.45,9.11-6.44,13.4-11.83,.58-.7,.99-1.91,1.1-2.2,.06-.12,.06-.23,.17-.23,.06,0,.12,.06,.17,.17,.12,.12,2.38,1.86,3.25,3.07,.06,.06,.12,.17,.12,.35,0,.35-.29,.75-1.28,.75h-.52Zm37.06,42.4c.29,0,.41,0,.41,.06,0,.35-4.41,1.57-6.15,3.31-.23,.23-.41,.29-.58,.29-1.16,0-8.41-.99-13.75-7.66-8.35,7.77-17.46,8.41-18.73,8.41-.46,0-.7-.06-.7-.17,0-.17,.58-.41,1.68-.64,6.38-1.39,11.83-5.1,16.18-9.74-1.62-2.55-2.84-5.45-3.6-8.64-5.97,8.76-14.27,14.33-15.08,14.33-.12,0-.23-.06-.23-.17s.17-.35,.58-.7c7.19-5.68,14.44-16.3,16.12-21.81l-10.27,1.33c-.58,.06-.99,.64-1.39,.64-.58,0-2.55-3.71-2.55-4v-.06c.06,0,.17,.06,.41,.12,.23,.06,1.39,.29,4.81,.29l4.41-.17c4.76-4.52,12.01-11.6,14.21-16.59,.17-.35,.17-.52,.29-.52,0,0,4.47,2.73,4.47,3.89,0,.35-.35,.58-1.16,.58-.23,0-.52,0-.81-.06-.12,0-.17-.06-.29-.06-.41,0-.75,.23-1.16,.58-4.23,3.83-10.21,9.4-14.33,12.12,5.45-.35,11.14-.93,17.34-1.74-1.33-1.62-2.96-3.02-4.64-4.18,0,0-.12-.12-.12-.17,0-.12,.06-.12,.23-.12,1.45,0,10.27,3.36,10.27,7.02,0,1.16-.75,2.03-1.68,2.03-.64,0-1.33-.41-1.86-1.39-.41-.75-.93-1.45-1.39-2.09-4.18,.93-8,1.57-11.72,2.09,1.22,.58,1.86,.93,1.86,1.39,0,.41-.46,.75-1.57,.81-.75,.06-.7,.06-1.16,.87-.52,.93-1.16,1.91-1.8,2.96h8.18c.35,0,.64,0,.93-.29,.29-.23,.87-.99,1.16-1.04h.06c.17,0,.35,.06,.52,.06h.12s3.31,1.57,3.31,2.67c0,.52-.41,1.1-1.68,1.39-.93,.23-.75,.29-1.39,1.22-1.68,2.55-3.77,5.39-6.32,8.06,3.6,3.36,8.82,5.57,16.3,5.57,.64,0,1.33,0,1.97-.06h.29ZM121.8,4c-.46,0-.7,.12-.99,.58-1.33,2.09-4.52,5.8-6.21,7.83,2.78,1.45,3.36,2.84,3.36,3.77s-.64,1.68-1.45,1.68c-.52,0-1.16-.41-1.8-1.28-1.28-1.91-3.94-4.23-6.73-5.63-.06-.06-.12-.12-.12-.17,0-.12,.12-.17,.35-.17,1.51,.06,3.65,.58,5.51,1.39,2.84-4.99,4.76-8.64,5.05-11.31,.06-.46,.06-.58,.23-.58,.06,0,.17,.06,.35,.17,.23,.17,2.9,1.28,3.94,2.26,.23,.17,.35,.46,.35,.7,0,.41-.35,.75-1.22,.75h-.64Zm-3.48,27.38l-.12,.23c.75,3.02,2.09,5.97,4.06,8.47,2.96-3.42,5.68-8.06,5.68-8.47,0-.12-.12-.23-.46-.23h-9.16Z" fill="#fff"/>
      <path d="M155.79,50.34c-1.68-3.31-4.87-5.63-7.13-7.19-.58-.41-1.22-.75-1.22-.99,0-.06,.12-.12,.35-.12,1.62,0,12.12,2.03,12.12,7.19,0,1.51-1.04,2.61-2.15,2.61-.7,0-1.45-.46-1.97-1.51Z" fill="#fff"/>
      <path d="M197.43,46.86c0,.35-.23,.64-.81,.64,0,0-4.64-.35-9.8-.35-2.55,0-5.28,.06-7.54,.35h-.12c-.41,0-.7-.23-.7-.58s.23-.7,.7-1.04c7.25-.87,6.73-1.51,7.02-7.89,.12-2.09,.23-7.25,.23-12.53,0-3.94-.06-8-.29-11.02,0-.64-.52-.93-.7-.93-1.97,.06-5.63,1.04-5.63,1.04h-.06c-.52,0-.93-.35-.93-.81,0-.23,.17-.58,.52-.87,4.41-1.28,9.34-4.41,9.98-5.28,.29-.35,.7-.58,.99-.58,.41,0,.75,.35,.75,1.16v.35c-.52,4.52-.64,14.21-.64,21.92,0,2.96,0,5.68,.06,7.48,.17,6.5,.06,7.25,6.32,7.95,.41,.29,.64,.7,.64,.99Z" fill="#fff"/>
      <path d="M217.44,48.2c-8.41,0-12.01-9.51-12.01-20.47s4.35-20.71,11.66-20.71c8.12,0,12.06,9.51,12.06,20.42s-4.18,20.76-11.72,20.76Zm-.35-39.79c-5.16,0-6.9,9.86-6.9,19.26s1.16,19.02,7.31,19.02c5.28,0,6.84-9.98,6.84-19.08s-1.16-19.2-7.25-19.2Z" fill="#fff"/>
      <path d="M286.92,35.9c0,.35-.29,.7-1.28,.7h-20.88c0,5.22,.12,10.21,.23,13.57v.06c0,1.22-1.39,1.91-2.15,1.91s-1.39-.46-1.39-1.62v-.12c.17-3.71,.29-8.76,.41-13.8h-6.84c-3.25,0-11.77,.12-17.05,.64h-.06c-1.1,0-2.78-2.26-2.78-3.02,3.65,.46,9.11,.7,13.57,.81,.06-1.57,.06-3.07,.06-4.41v-3.13c0-.46-.06-5.45-.7-8.06-.06-.12-.06-.23-.06-.29,0-.12,.06-.17,.12-.17,.12,0,3.94,1.62,4.7,2.26l.23,.17h8.99l.06-3.19c0-2.32,0-5.97-.12-7.54h-11.66c-7.66,10.38-13.92,13.8-14.67,13.8-.12,0-.12-.06-.12-.12,0-.12,.29-.46,.93-.93,4.18-3.19,13.92-15.43,15.49-22.85,.06-.29,.12-.46,.23-.46,.06,0,5.16,2.38,5.16,3.6,0,.46-.58,.75-1.97,.81-.99,0-1.04,.29-1.86,1.57-.64,.99-1.39,2.03-2.15,3.13h23.08c.35,0,.7-.23,.93-.52,1.62-2.03,2.44-3.02,2.78-3.02,.87,0,5.1,2.73,5.1,4.23,0,.41-.29,.75-1.22,.75h-15.66c.06,.06,.12,.17,.12,.23,0,.29-.46,.58-.75,.7-.7,.29-.81,.41-.87,4.7,0,1.39-.06,3.19-.06,5.1h6.9c.35,0,.7-.23,.93-.52,.81-.99,2.38-2.73,2.73-2.73,1.45,0,4.76,3.13,4.76,4.12,0,.29-.29,.58-1.22,.58h-14.09c0,3.71-.06,8.06-.06,12.3h12.93c.41,0,.87-.23,1.04-.52,1.91-2.73,2.38-3.31,2.96-3.31,1.28,0,5.22,3.42,5.22,4.58Zm-34.28-13.05c-.17,.17-.41,.29-.7,.46-.64,.41-.64,2.38-.64,11.77,1.74,.06,3.13,.06,4,.06h6.55l.17-12.3h-9.4Z" fill="#fff"/>
      <path d="M304.38,49.53c0,1.8-2.15,2.09-2.15,2.09-.75,0-1.33-.46-1.33-1.57v-.41c.58-5.63,.93-16.07,.93-20.76v-5.16c-7.48,6.67-10.67,7.37-10.85,7.37-.12,0-.17,0-.17-.06,0-.17,.29-.41,.81-.75,4.12-2.78,10.15-9.05,14.96-15.14,.7-.87,1.22-2.03,1.45-2.73,.06-.17,.06-.35,.17-.35,.35,0,3.89,2.67,3.89,3.36,0,.35-.41,.75-1.68,.81-.75,.06-.81,.06-5.74,4.81,.99,.12,2.26,.41,2.26,.99,0,.35-.35,.75-.93,.99-1.57,.7-1.57,.52-1.68,2.84-.12,2.73-.17,6.38-.17,10.21,0,4.81,.12,9.86,.23,13.4v.06Zm4.99-44.31c-.41,0-.52,.12-1.1,.58-6.96,5.74-14.5,9.98-15.78,9.98-.12,0-.17,0-.17-.06,0-.12,.23-.29,.64-.58,2.38-1.45,9.11-6.44,13.4-11.83,.58-.7,.99-1.91,1.1-2.2,.06-.12,.06-.23,.17-.23,.06,0,.12,.06,.17,.17,.12,.12,2.38,1.86,3.25,3.07,.06,.06,.12,.17,.12,.35,0,.35-.29,.75-1.28,.75h-.52Zm37.06,42.4c.29,0,.41,0,.41,.06,0,.35-4.41,1.57-6.15,3.31-.23,.23-.41,.29-.58,.29-1.16,0-8.41-.99-13.75-7.66-8.35,7.77-17.46,8.41-18.73,8.41-.46,0-.7-.06-.7-.17,0-.17,.58-.41,1.68-.64,6.38-1.39,11.83-5.1,16.18-9.74-1.62-2.55-2.84-5.45-3.6-8.64-5.97,8.76-14.27,14.33-15.08,14.33-.12,0-.23-.06-.23-.17s.17-.35,.58-.7c7.19-5.68,14.44-16.3,16.12-21.81l-10.27,1.33c-.58,.06-.99,.64-1.39,.64-.58,0-2.55-3.71-2.55-4v-.06c.06,0,.17,.06,.41,.12,.23,.06,1.39,.29,4.81,.29l4.41-.17c4.76-4.52,12.01-11.6,14.21-16.59,.17-.35,.17-.52,.29-.52,0,0,4.47,2.73,4.47,3.89,0,.35-.35,.58-1.16,.58-.23,0-.52,0-.81-.06-.12,0-.17-.06-.29-.06-.41,0-.75,.23-1.16,.58-4.23,3.83-10.21,9.4-14.33,12.12,5.45-.35,11.14-.93,17.34-1.74-1.33-1.62-2.96-3.02-4.64-4.18,0,0-.12-.12-.12-.17,0-.12,.06-.12,.23-.12,1.45,0,10.27,3.36,10.27,7.02,0,1.16-.75,2.03-1.68,2.03-.64,0-1.33-.41-1.86-1.39-.41-.75-.93-1.45-1.39-2.09-4.18,.93-8,1.57-11.72,2.09,1.22,.58,1.86,.93,1.86,1.39,0,.41-.46,.75-1.57,.81-.75,.06-.7,.06-1.16,.87-.52,.93-1.16,1.91-1.8,2.96h8.18c.35,0,.64,0,.93-.29,.29-.23,.87-.99,1.16-1.04h.06c.17,0,.35,.06,.52,.06h.12s3.31,1.57,3.31,2.67c0,.52-.41,1.1-1.68,1.39-.93,.23-.75,.29-1.39,1.22-1.68,2.55-3.77,5.39-6.32,8.06,3.6,3.36,8.82,5.57,16.3,5.57,.64,0,1.33,0,1.97-.06h.29Zm-20.82-43.61c-.46,0-.7,.12-.99,.58-1.33,2.09-4.52,5.8-6.21,7.83,2.78,1.45,3.36,2.84,3.36,3.77s-.64,1.68-1.45,1.68c-.52,0-1.16-.41-1.8-1.28-1.28-1.91-3.94-4.23-6.73-5.63-.06-.06-.12-.12-.12-.17,0-.12,.12-.17,.35-.17,1.51,.06,3.65,.58,5.51,1.39,2.84-4.99,4.76-8.64,5.05-11.31,.06-.46,.06-.58,.23-.58,.06,0,.17,.06,.35,.17,.23,.17,2.9,1.28,3.94,2.26,.23,.17,.35,.46,.35,.7,0,.41-.35,.75-1.22,.75h-.64Zm-3.48,27.38l-.12,.23c.75,3.02,2.09,5.97,4.06,8.47,2.96-3.42,5.68-8.06,5.68-8.47,0-.12-.12-.23-.46-.23h-9.16Z" fill="#fff"/>
      <path d="M376.3,17.52c0,13.8-10.73,25.81-15.25,25.81-2.67,0-3.48-3.6-5.97-7.08-.93-1.28-1.33-3.13-1.33-5.22,0-8.76,7.66-22.68,23.2-22.68,13.11,0,19.66,9.11,19.66,18.5,0,17.92-20.47,22.62-24.53,22.62-.52,0-.81-.12-.81-.23,0-.29,.93-.75,2.44-1.22,16.47-4.64,19.78-14.56,19.78-21.46,0-8.47-5.63-16.41-17.11-16.53-.75,0-1.51,.12-2.26,.17,1.45,.81,2.2,3.65,2.2,7.31Zm-20.01,12.59c0,4.87,2.84,9.11,5.39,9.11,3.54,0,12.88-11.66,12.88-23.14,0-4.52-1.04-5.39-2.32-5.39-.46,0-.93,.12-1.62,.29-8.35,2.61-14.33,11.54-14.33,19.14Z" fill="#fff"/>
      <path d="M432.39,50.05c0,1.1-1.04,1.91-2.09,1.91-.75,0-1.39-.46-1.39-1.57v-.17c.41-5.51,.58-13.51,.64-21.29-9.16,11.95-23.14,18.91-26.74,18.91-.12,0-.17,0-.17-.06,0-.12,.41-.35,1.22-.7,6.15-2.73,17.05-10.79,24.94-22.33h-4.47c-3.25,0-9.86,.12-15.08,.64h-.06c-1.04,0-2.73-2.26-2.73-3.02,5.97,.7,14.91,.93,18.27,.93h4.87c0-3.36,0-6.61-.06-9.34h-.87c-3.25,0-8.64,.12-13.86,.64h-.06c-1.04,0-2.55-2.26-2.55-3.02,5.97,.7,13.34,.93,16.7,.93h.64c0-1.1-.06-2.15-.06-3.07-.06-1.22,0-6.61-.64-8.99-.06-.17-.06-.29-.06-.35s0-.12,.12-.12c.29,0,6.03,.75,6.03,2.03,0,.41-.41,.81-1.04,1.22-1.57,.99-1.28,.75-1.51,2.78-.17,1.33-.23,3.6-.29,6.5h7.25c.35,0,.75-.23,.93-.52,.41-.64,2.2-3.19,2.96-3.19,.12,0,.23,0,.35,.06,1.8,.64,4.87,3.42,4.87,4.35,0,.41-.29,.75-1.28,.75h-15.08c-.06,2.73-.06,5.92-.06,9.34h13.28c.41,0,.87-.23,1.04-.52,.23-.41,2.03-3.13,2.67-3.13,.23,0,.52,.17,.7,.23,1.74,.64,4.93,3.07,4.93,4.18,0,.35-.29,.7-1.28,.7h-20.94c5.97,7.89,16.65,17.52,26.04,19.31,.52,.12,.75,.17,.75,.29,0,.35-4.52,.7-6.61,2.38-.17,.12-.29,.17-.41,.17-1.68,0-13.11-9.16-20.13-20.71,.06,8.06,.17,16.94,.29,23.78v.06Z" fill="#fff"/>
      <path d="M490.45,50.05c0,1.1-1.1,1.97-2.2,1.97-.75,0-1.39-.46-1.39-1.57v-.17c.35-4.81,.46-11.83,.58-18.85-9.69,12.12-24.07,17.57-27.14,17.57-.06,0-.12-.06-.12-.06,0-.12,.41-.35,1.28-.7,6.44-2.84,17.57-9.92,25.23-21.23h-4.58c-3.25,0-9.86,.12-15.08,.64h-.06c-1.1,0-3.02-2.26-3.02-3.02,5.97,.75,15.02,.93,18.39,.93h5.16c.06-2.44,.06-4.81,.06-7.02s0-4.23-.06-6.03h-2.73c-3.25,0-8.58,.12-13.8,.64h-.06c-1.04,0-2.78-2.26-2.78-3.02,5.97,.75,13.51,.93,16.88,.93h2.44v-1.62c-.06-1.22,0-6.61-.64-8.99-.06-.17-.12-.29-.12-.35,0-.12,.06-.12,.12-.12,.17,0,6.21,.64,6.21,2.03,0,.41-.41,.81-1.04,1.22-1.57,.99-1.28,.75-1.51,2.78-.12,1.1-.23,2.84-.29,5.05h9.05c.35,0,.81-.23,.99-.52,2.09-3.19,2.73-3.25,2.96-3.25,.12,0,.23,0,.35,.06,.81,.29,4.87,3.13,4.87,4.47,0,.35-.29,.7-1.28,.7h-16.94c-.06,2.55-.06,5.57-.06,8.87v4.18h2.78c.12-.12,.17-.29,.35-.46,1.86-2.2,4.06-5.39,5.34-7.54,.7-1.16,.99-2.26,1.22-3.02,.12-.35,.17-.52,.23-.52,.35,0,4.47,3.13,4.47,3.83,0,.29-.29,.52-1.04,.52-.17,0-.46,0-.75-.06h-.29c-.64,0-.64,.29-1.16,.75-1.39,1.22-4,3.83-6.73,6.03l-.64,.46h9.86c.41,0,.87-.23,1.04-.52,2.09-3.25,2.67-3.36,3.02-3.36,.12,0,.23,0,.35,.06,1.39,.46,4.93,3.48,4.93,4.58,0,.35-.29,.7-1.28,.7h-21.63c5.92,7.89,17.23,15.83,26.62,17.46,.52,.12,.75,.17,.75,.23,0,.41-4.58,.87-6.44,2.67-.23,.23-.41,.35-.58,.35-1.04,0-13.46-8.47-20.36-18.91,.06,7.31,.17,15.02,.29,21.17v.06Zm-12.18-28.42c-.7-1.62-2.55-4-3.94-5.34-.35-.29-.58-.46-.58-.58,0-.06,.12-.06,.23-.06,2.9,0,8.29,2.61,8.29,5.57,0,1.28-.93,2.2-1.91,2.2-.75,0-1.51-.52-2.09-1.8Z" fill="#fff"/>
      <path d="M520.95,45.53c0-3.71,3.07-6.73,6.79-6.73s6.73,3.02,6.73,6.73-3.02,6.79-6.73,6.79-6.79-3.07-6.79-6.79Zm11.54,0c0-2.61-2.15-4.76-4.76-4.76s-4.81,2.15-4.81,4.76,2.2,4.81,4.81,4.81,4.76-2.2,4.76-4.81Z" fill="#fff"/>
      <path d="M24.19,96.1c0-2.67-.23-5.05-.46-6.38-.06-.17-.06-.29-.06-.35s0-.06,.06-.06,.17,.06,.41,.06c.46,0,6.21,1.16,6.21,2.49,0,.35-.23,.7-.75,.99,0,.52-.06,1.04-.06,1.57,0,14.09,8.18,35.03,25.11,39.56,.35,.12,.52,.17,.52,.23,0,.35-4.29,.52-6.61,2.09-.23,.12-.41,.23-.58,.23-.12,0-.23,0-.41-.12-9.74-5.97-18.97-22.04-18.97-39.96,0-1.04,.06-2.09,.12-3.13-.93,.41-1.16,.41-1.22,3.83-.23,16.07-7.31,33-23.03,40.08-.7,.35-1.1,.46-1.33,.46-.12,0-.17-.06-.17-.12,0-.23,.64-.75,1.1-1.04,13.57-7.31,20.13-25.4,20.13-40.02v-.41Z" fill="#fff"/>
      <path d="M78.36,109.2c-8.99,11.31-16.76,16.36-18.1,16.36-.06,0-.12,0-.12-.06,0-.12,.29-.41,.93-.87,5.34-3.89,13.8-13.86,17.86-21.23,.87-1.57,1.57-3.71,1.91-4.58,.12-.35,.06-.46,.17-.46,.52,0,4.76,2.03,4.76,3.48,0,.46-.46,.99-1.97,1.33-1.1,.23-1.16,.12-2.09,1.51-.64,.99-1.39,1.97-2.2,3.02h8.76c.7,0,1.1-.17,1.51-.58,.75-.75,.93-.93,1.16-.93,1.28,0,4.41,2.9,4.41,4,0,.7-.64,1.16-1.62,1.33-1.74,.35-2.44,.23-3.71,1.39-3.19,2.84-7.02,6.15-9.8,8.06,4.93,1.33,6.09,3.31,6.09,4.7,0,1.04-.64,1.86-1.62,1.86-.7,0-1.62-.46-2.55-1.57-1.97-2.38-5.63-4.58-7.89-5.39-.12-.06-.12-.12-.12-.12,0-.12,.17-.23,.46-.23h.46c1.16,0,2.61,.17,4,.46,3.36-3.13,9.57-10.15,9.57-11.08,0-.23-.17-.41-.58-.41h-9.69Z" fill="#fff"/>
      <path d="M110.61,123.88c0-6.38,1.97-11.43,2.9-15.72,.46-2.26,1.1-4.29,1.1-6.44,0-2.26-.64-4.64-2.78-7.6-.35-.46-.75-.81-.75-.99,0-.23,.58-.23,.64-.23,2.03,0,6.26,5.39,6.26,9.28,0,2.2-1.28,3.77-2.44,7.08-1.33,3.83-2.9,8.12-2.9,12.18,0,.87,.17,3.83,.75,3.83,.17,0,.41-.35,.75-1.16,1.45-3.48,4.93-11.02,5.86-11.02,.12,0,.23,.12,.23,.35,0,.12-.06,.35-.17,.58-2.49,5.05-4.99,12.59-4.99,16.59,0,1.04,.12,2.03,.46,2.9,.23,.52,.29,.99,.29,1.39,0,.93-.46,1.51-1.16,1.51-2.09,0-4.06-5.8-4.06-12.53Zm30.45-19.2c0-1.16,.06-2.26,.06-3.36v-.81c0-5.1-.52-5.1-1.68-5.57-.99-.35-1.62-.52-1.62-.87,0-.23,.93-1.62,2.2-1.62,1.04,0,4,1.86,4,4.06,0,.35-.06,.64-.12,.99,1.16,.52,3.07,1.45,3.65,1.62,.75,.29,1.97,.52,2.38,.64,.52,.17,1.04,.81,1.04,1.57,0,3.13-6.79,4.93-7.77,5.16,0,1.28-.06,2.55-.06,3.77,0,4.06,.12,7.6,.23,9.4,.06,1.68,.23,3.54,.23,5.22,5.45,1.74,9.11,5.34,9.11,7.19,0,.99-.52,1.86-1.28,1.86-.46,0-1.04-.35-1.62-1.33-1.51-2.55-4.12-4.47-6.32-5.57-.58,4.7-4.47,8.41-8.87,8.41-4.18,0-7.71-3.25-7.71-5.86,0-3.07,4.12-5.68,10.03-5.68,1.39,0,2.84,.12,4.23,.41,.06-1.1,.06-2.15,.06-3.13-.06-2.61-.17-8.41-.17-14.15-2.09,.35-2.9,.35-3.07,.35-6.73,0-9.28-4.58-9.28-4.93,0-.12,.06-.17,.23-.17,.23,0,.64,.12,1.28,.35,.93,.35,2.9,1.28,4.06,1.68,1.16,.41,2.61,.7,4.18,.7,.46,0,.87,0,1.33-.06l1.28-.23Zm-4.64,21c-3.65,0-7.71,1.22-7.71,3.89,0,1.86,2.78,3.31,5.28,3.31,3.42,0,6.26-2.78,6.96-6.61-1.62-.41-3.13-.58-4.52-.58Zm7.25-26.45c-.17,1.62-.35,3.31-.41,4.99,4.12-1.1,4.52-2.2,4.52-2.55,0-.75-.52-1.16-3.94-3.65l-.17,1.22Z" fill="#fff"/>
      <path d="M180.38,116.4c-4.93,0-12.7,4.81-12.7,10.21,0,2.84,1.97,7.02,9.4,7.02,2.61,0,5.57-.52,8-1.8,.58-.29,1.1-.41,1.57-.41,1.22,0,2.03,.75,2.03,1.68,0,2.32-5.45,3.77-10.21,3.77-10.32,0-13.05-6.61-13.05-9.74,0-4.76,4.23-9.63,10.5-12.41-3.07-1.39-3.89-4.64-3.89-8.06,0-3.07,.64-6.38,.93-8.7,.17-1.45,.29-2.67,.29-3.6,0-2.2-.75-3.19-3.54-3.77-.29-.06-.52-.29-.52-.58,0-.52,.93-1.39,2.2-1.39,2.26,0,5.28,2.73,5.28,5.39,0,1.04-.35,2.15-.58,3.31-.58,2.61-1.68,6.67-1.68,9.86,0,3.54,1.45,5.68,4.76,6.32,2.61-.93,3.25-1.04,4.29-1.04,1.97,0,2.38,.87,2.38,1.51,0,1.1-1.39,2.49-4.18,2.49-.23,0-.52-.06-.75-.06h-.52Zm8.24-7.54c-1.57-1.86-3.65-3.19-5.22-4.06-.35-.17-.87-.41-.87-.52,0-.23,1.22-.23,1.28-.23,2.61,0,7.71,1.16,7.71,4,0,.93-.64,1.62-1.45,1.62-.46,0-.99-.23-1.45-.81Zm6.09-2.84c-1.62-1.8-3.71-3.07-5.34-3.89-.35-.17-.87-.35-.87-.46,0-.17,.93-.23,1.68-.23,4.76,0,7.37,1.86,7.37,3.71,0,.93-.58,1.62-1.39,1.62-.46,0-.99-.23-1.45-.75Z" fill="#fff"/>
      <path d="M228.93,103.98c0,13.8-10.73,25.81-15.25,25.81-2.67,0-3.48-3.6-5.97-7.08-.93-1.28-1.33-3.13-1.33-5.22,0-8.76,7.66-22.68,23.2-22.68,13.11,0,19.66,9.11,19.66,18.5,0,17.92-20.47,22.62-24.53,22.62-.52,0-.81-.12-.81-.23,0-.29,.93-.75,2.44-1.22,16.47-4.64,19.78-14.56,19.78-21.46,0-8.47-5.63-16.41-17.11-16.53-.75,0-1.51,.12-2.26,.17,1.45,.81,2.2,3.65,2.2,7.31Zm-20.01,12.59c0,4.87,2.84,9.11,5.39,9.11,3.54,0,12.88-11.66,12.88-23.14,0-4.52-1.04-5.39-2.32-5.39-.46,0-.93,.12-1.62,.29-8.35,2.61-14.33,11.54-14.33,19.14Z" fill="#fff"/>
      <path d="M280.03,125.85c4.23,1.39,10.27,4.52,10.27,7.42,0,.81-.52,1.39-1.28,1.39-.64,0-1.39-.35-2.15-1.33-1.57-1.97-4.23-3.71-7.25-5.05-1.74,5.39-6.61,7.48-10.32,7.48-4.23,0-8.18-3.13-8.18-6.21,0-3.25,4.47-5.22,9.69-5.22,2.09,0,4.41,.29,6.67,.81v-.93c0-4-1.33-8.06-1.74-10.96-.29-1.91-.35-3.83-.35-5.68,0-2.9,.17-5.74,.23-8.47v-.35c0-3.31-.81-4.93-2.32-4.93-.75,0-1.16-.29-1.16-.64,0-.7,1.57-1.68,2.49-1.68,1.51,0,4.47,1.97,4.47,4.12,0,.87-.29,1.86-.7,3.25-.29,1.04-.58,2.2-.75,3.31,.75,.46,1.68,.7,2.73,.7,.93,0,1.97-.17,3.02-.52,.93-.29,1.28-1.1,1.91-1.33,.52-.17,.99-.29,1.45-.29,2.15,0,2.44,1.1,2.44,1.62,0,1.74-5.16,2.49-7.54,2.49-1.57,0-3.07-.35-4.18-1.39-.17,1.22-.29,2.55-.29,3.89,0,1.8,.17,3.71,.52,5.68,.52,2.9,2.32,7.54,2.32,12.06v.75Zm-10.15,.17c-4.93,0-6.96,2.26-6.96,3.65,0,1.1,1.28,3.19,6.73,3.19,2.96,0,6.5-2.32,7.48-5.57-2.44-.81-4.99-1.28-7.25-1.28Z" fill="#fff"/>
      <path d="M306.24,139.48c-.12,0-.17-.06-.17-.12,0-.23,.81-.75,1.74-1.22,8.06-4,17.11-15.02,17.11-24.88,0-5.63-2.67-9.51-5.68-9.51-1.86,0-3.71,1.28-5.34,2.61-1.1,.99-2.2,1.68-3.48,1.68-2.15,0-4.41-1.91-4.41-4.23,0-.93,.52-1.57,.75-1.57s.35,.35,.41,.46c.41,.99,1.33,1.33,2.32,1.33,1.33,0,2.9-.58,4-.99,1.74-.7,3.94-1.57,6.15-1.57,5.74,0,8.35,7.02,8.35,11.83,0,2.73-.58,5.51-1.68,8.24-5.51,13.98-19.14,17.92-20.07,17.92Zm14.21-45.35c-1.62,.23-5.34,1.16-7.83,2.67-.29,.17-.52,.23-.75,.23-.12,0-.23-.06-.23-.12,0-.12,.17-.35,.52-.64,1.28-1.1,3.02-2.49,3.48-2.9,.35-.29,.52-.58,.52-.75s-.12-.29-.41-.41c-.41-.17-4-.41-5.86-3.07-.12-.17-.35-.52-.35-.75,0-.12,.06-.17,.17-.17,.17,0,.52,.12,1.04,.41,1.62,.87,5.74,1.45,7.31,1.45,.52,0,1.04-.06,1.51-.06,1.1,0,3.54,.64,3.54,2.55,0,1.1-1.33,1.39-2.67,1.57Z" fill="#fff"/>
      <path d="M344.75,122.89c0-2.03,.23-3.89,.58-5.68,.75-4.06,2.09-7.54,2.73-10.85,.29-1.45,.35-2.73,.35-3.89,0-3.54-.99-5.74-1.39-6.38-.23-.35-.64-.58-.64-.81s.99-.29,1.16-.29c.29,0,4.12,1.33,4.12,7.02,0,1.8-.52,3.42-1.39,5.57-1.57,3.89-3.31,8.76-3.31,12.82,0,2.26,.52,4,.99,4,.17,0,.46-.29,.81-1.04,.64-1.57,4.7-10.85,5.68-10.85,.06,0,.12,.06,.12,.17,0,.17-.06,.52-.29,1.04-1.28,2.9-4.41,10.67-4.41,15.25,0,1.45,.23,2.67,.46,3.65,.06,.23,.06,.46,.06,.64,0,.93-.52,1.51-1.28,1.51-2.55,0-4.35-6.38-4.35-11.89Zm35.61,4.87c1.57,0,2.38,.64,2.38,1.51,0,2.26-5.16,3.07-8.82,3.07-11.02,0-12.53-6.21-12.53-7.08,0-.23,.06-.35,.23-.35,.23,0,.7,.41,1.16,1.04,1.28,1.8,5.22,3.02,9.57,3.02,1.04,0,2.15-.06,3.25-.23,1.28-.17,1.97-.81,4.29-.99h.46Zm-9.98-22.04c-7.83,0-8.29-4.52-8.29-4.52,0-.17,.06-.23,.17-.23,.17,0,.46,.17,.87,.41,1.86,1.04,3.65,1.39,5.68,1.39,1.45,0,3.02-.17,4.76-.41,.93-.12,1.51-.64,2.32-.81,.52-.12,.99-.17,1.39-.17,1.45,0,2.26,.64,2.26,1.39,0,2.49-6.55,2.96-9.16,2.96Z" fill="#fff"/>
      <path d="M442.25,103c0,.46-.35,.87-1.16,1.39-1.22,.7-1.22,.87-1.22,2.55-.12,8.12,.06,9.69-.29,14.38-.93,12.12-4.87,15.66-9.51,15.83q-.17,0-.29-.29c-.52-1.1-4.99-3.48-6.38-4.41-3.42,3.71-7.48,6.38-8.29,6.38-.06,0-.12-.06-.12-.12,0-.23,.46-.81,1.04-1.28,3.83-2.9,6.61-6.26,8.64-9.86-5.97,2.67-16.59,5.63-19.66,6.5-.35,.12-.52,.52-.81,.52-.52,0-2.49-3.02-2.55-3.54,0-.12,.12-.17,.23-.17s.23,.06,.29,.06c.41,.12,.81,.12,1.22,.12,1.51,0,5.45-.64,9.16-1.39,0-1.68,.06-3.42,.06-5.1-1.86,.06-3.83,.23-7.54,.64h-.06c-.99,0-2.49-2.03-2.49-2.61,4.41,.35,7.6,.58,10.09,.58v-5.22h-4.47v.99c0,.87-.93,1.45-1.74,1.45-.58,0-1.04-.29-1.04-1.1v-.17c.41-4.06,.52-8.64,.52-11.31,0-.7-.23-3.65-.7-5.68-.06-.17-.06-.29-.06-.41,0-.06,0-.12,.06-.12,.35,0,3.42,1.57,4,2.09l.17,.17h3.31v-4.29c-1.91,0-4.64,.06-7.71,.46h-.06c-.7,0-2.44-2.09-2.44-2.73,3.77,.58,8,.75,10.27,.81,0-1.57-.06-3.25-.17-4.64-5.51,.87-9.63,1.28-9.8,1.28-.29,0-.46-.12-.58-.23-.99,1.8-2.03,3.54-3.02,5.28,3.36,.7,3.65,.81,3.65,1.33,0,.29-.41,.64-1.1,.93-1.51,.75-1.57,.58-1.62,2.96-.12,6.09-.29,13.34-.29,20.94,0,3.36,0,6.84,.12,10.27v.06c0,1.51-1.62,2.15-2.09,2.15-.7,0-1.28-.46-1.28-1.68v-.35c.75-8.58,1.04-20.53,1.04-27.72v-6.32c-4.18,6.73-7.42,9.74-8,9.74-.12,0-.12-.06-.12-.12,0-.12,.06-.35,.23-.52,3.83-4.7,7.83-12.76,10.67-20.01,.46-1.22,.7-2.9,.81-3.83,.06-.23,.06-.35,.23-.35,.35,0,3.83,1.51,4.58,2.09,.17,.17,.35,.41,.35,.64,0,.41-.41,.87-1.62,1.28-.81,.23-.93,.35-2.32,2.78l.41-.12c8.18-1.86,15.2-3.6,17.05-5.45,.17-.17,.29-.35,.46-.35,.06,0,2.9,2.09,2.9,3.36,0,.35-.23,.52-.7,.52-.29,0-.7-.06-1.16-.23-.12-.06-.29-.12-.46-.12s-.29,.06-.46,.12c-1.39,.41-3.07,.81-5.05,1.22,.93,.29,1.28,.41,1.28,.7,0,.23-.29,.46-.7,.7-.87,.41-.87,.46-.93,3.42v.29h4.93s.29-.23,.46-.46c.46-.75,1.28-1.62,1.8-2.03,.12-.12,.29-.17,.41-.17,.7,0,3.36,2.2,3.36,3.48,0,.35-.17,.64-.81,.64h-10.21v4.29h3.6c.29,0,.52-.17,.7-.46,.75-1.28,1.1-1.28,1.28-1.28,.52,0,3.31,1.62,3.31,2.84,0,.75-.87,1.16-1.22,1.39-.64,.46-.75,.64-.75,3.6,0,2.32,.23,5.51,.41,8v.12c0,.81-.81,1.51-1.62,1.51-.52,0-1.04-.35-1.04-1.16v-.06l.06-.41h-4.7v5.16l3.77-.23s.46-.17,.64-.46c.87-1.45,1.28-2.03,1.57-2.03,.64,0,3.42,1.86,3.42,3.13,0,.35-.23,.64-1.04,.7l-8.35,.29c0,1.57,.06,3.07,.06,4.64,3.31-.7,6.61-1.39,9.98-2.2,3.71-7.13,4.58-15.37,4.76-23.49-1.1,.06-2.38,.17-3.89,.35h-.06c-.93,0-2.26-2.2-2.26-2.9,2.26,.29,4.41,.52,6.26,.64,0-3.13-.06-6.21-.06-9.22,0-2.26-.06-3.77-.23-4.76,0-.12-.06-.23-.06-.29,0-.12,.06-.12,.17-.12,.46,0,5.34,1.22,5.34,2.2,0,.41-.52,.81-1.1,1.1-.87,.46-1.1,.58-1.16,2.2-.12,3.02-.12,6.03-.23,8.99,.75,.06,1.33,.06,1.8,.06h1.97c.58,0,.75-.17,.87-.46,.12-.17,.81-1.45,1.22-1.45,.75,0,3.89,2.26,3.89,3.19Zm-29.58,2.38h-3.42l-.17,.17c-.87,.75-.93,.23-1.04,2.67v1.74h4.64v-4.58Zm0,5.97h-4.64c0,1.62,.06,3.48,.06,5.16h4.58v-5.16Zm2.26,0c0,1.68,.06,3.36,.06,5.16h4.7c.06-1.62,.12-3.42,.12-5.16h-4.87Zm4.7-5.45s0-.52-.58-.52h-4.06v4.58h4.76c0-1.51-.06-2.9-.12-4.06Zm17.75-1.74c0-.81-.46-.81-.75-.81h-4.18c-.41,10.67-1.74,20.82-8.82,28.83,2.44,.7,4.41,1.22,6.09,1.22,4.12,0,7.6-2.9,7.6-18.73,0-9.63,.06-9.92,.06-10.38v-.12Z" fill="#fff"/>
      <path d="M475.89,123.12c1.16,0,1.62-.52,1.62-1.33,0-.46-.17-1.04-.46-1.68-1.1-2.2-2.09-4.52-3.07-6.9-.52,.17-5.68,1.86-10.79,1.86-7.42,0-8.18-5.92-8.18-5.92,0-.23,.06-.35,.23-.35s.46,.17,.87,.52c2.73,2.44,5.34,3.31,8.47,3.31,2.78,0,5.22-.46,8.53-1.51-.93-2.2-1.91-4.47-3.02-6.67-1.74,.46-2.55,.58-3.71,.58-7.25,0-8.87-5.16-8.87-5.34,0-.12,.12-.17,.23-.17,.29,0,.81,.35,1.04,.46,1.74,.93,4.41,2.9,7.6,2.9,.52,0,1.62-.06,2.67-.46-1.8-3.25-3.94-6.38-6.79-9.22-2.09-2.09-3.07-1.86-3.65-1.91-.23-.06-.29-.23-.29-.46,0-1.04,2.26-1.39,2.73-1.39,3.02,0,4.47,1.91,9.51,12.47,.58-.23,1.1-.52,1.51-.81,1.1-.81,2.2-1.33,2.78-1.33,.75,0,.99,.81,.99,1.1,0,1.45-3.25,2.73-4.29,3.13,1.04,2.32,2.03,4.47,3.07,6.61,1.22-.46,2.26-.93,2.9-1.45,0,0,.35-.23,.35-.7,0-.52-.35-1.28-1.8-2.32-.75-.52-1.1-.93-1.1-1.04,0-.06,.06-.06,.12-.06,.23,0,.93,.23,1.97,.75,2.03,1.04,3.6,1.39,3.65,1.39,.99,0,1.62,.46,1.62,1.04,0,1.45-3.19,3.13-6.79,4.41,1.1,2.32,2.38,4.64,3.89,7.08,.75,1.22,1.04,2.38,1.04,3.48,0,2.9-1.91,4-3.13,4-.64,0-.99-.35-1.45-.99-.81-.99-5.97-2.32-10.09-2.32-6.21,0-7.6,3.94-7.6,5.1,0,1.74,2.2,5.39,8.35,5.39,1.86,0,3.6-.35,4.47-.58,.29-.06,.52-.12,.75-.12,1.16,0,2.03,.75,2.03,1.57,0,.93-1.04,2.15-6.26,2.15-7.89,0-11.37-4.64-11.37-8.12,0-.81,.17-6.67,11.14-6.67,3.6,0,7.31,.46,8.47,.52h.12Z" fill="#fff"/>
      <path d="M501.06,136.81c-1.68-3.31-4.87-5.63-7.13-7.19-.58-.41-1.22-.75-1.22-.99,0-.06,.12-.12,.35-.12,1.62,0,12.12,2.03,12.12,7.19,0,1.51-1.04,2.61-2.15,2.61-.7,0-1.45-.46-1.97-1.51Z" fill="#fff"/>
      <path d="M39.5,223.51c0,.81-.52,1.62-1.74,1.62-.64,0-1.16-.35-1.16-1.22v-.06c0-.58,.06-1.22,.06-1.8H19.2c0,.64,.06,1.28,.06,1.86,0,.87-.93,1.39-1.74,1.39-.64,0-1.22-.29-1.22-1.1v-.17c.35-3.6,.46-7.54,.46-9.98,0-.41,0-1.97-.12-3.71-7.54,6.15-14.73,8.47-16.3,8.47-.23,0-.35-.06-.35-.12,0-.12,.35-.35,1.04-.64,4.93-2.03,12.59-7.02,18.85-14.56-4,.06-11.43,.17-15.89,.64h-.06c-1.04,0-2.73-2.2-2.73-2.96,5.63,.7,15.83,.93,19.78,.93,1.68-2.32,2.44-3.36,2.9-4.99h-7.66v.99c0,.87-.93,1.39-1.74,1.39-.64,0-1.16-.29-1.16-1.1v-.17c.35-3.6,.46-5.74,.46-8.18,0-.64-.12-5.16-.58-7.37-.06-.17-.06-.35-.06-.41q0-.12,.12-.12c.93,0,3.94,1.68,4.23,1.86l.29,.17h20.47c.35,0,.52-.12,.75-.35,.41-.41,.75-.93,1.1-1.1,.17-.12,.35-.17,.58-.17,.41,0,4,1.86,4,3.07,0,.7-1.04,1.04-1.57,1.33-.93,.41-1.04,1.04-1.04,2.55v.58c0,2.44,.29,5.51,.41,7.77v.12c0,.81-.52,1.62-1.74,1.62-.64,0-1.16-.35-1.16-1.22v-1.28h-14.62c3.6,2.15,3.77,2.26,3.77,2.67,0,.35-.41,.58-1.22,.58-.23,0-.46,0-.75-.06-.12,0-.23-.06-.35-.06-.58,0-.87,.35-1.86,1.86h20.65c.35,0,.81-.23,.99-.52,.17-.23,2.26-3.36,3.07-3.36,.12,0,.23,0,.35,.06,1.86,.64,4.87,3.65,4.87,4.52,0,.35-.29,.7-1.28,.7h-17.86c3.54,4.58,10.21,9.4,19.95,10.15,.41,.06,.58,.06,.58,.12,0,.35-4.12,1.16-5.57,2.44-.23,.17-.35,.29-.58,.29-.87,0-5.28-1.22-10.32-6.15-.29,.17-.35,.29-.35,.7,0,2.15,.12,6.73,.41,12.35v.12Zm-5.34-44.66c0,.81,.12,1.68,.23,2.61v.12c0,.81-.99,1.28-1.74,1.28-.58,0-1.16-.35-1.16-1.1v-.12c.06-.99,.06-1.97,.06-2.78h-7.77c.06,.87,.12,1.74,.12,2.38,0,.81-.93,1.33-1.74,1.33-.64,0-1.16-.29-1.16-1.04v-.12c.06-.81,.12-1.68,.12-2.55-3.31,0-9.86,.12-14.79,.64h-.06c-1.04,0-2.61-2.2-2.61-2.96,5.57,.7,13.86,.93,17.46,.93,0-.35,.06-.64,.06-.87,0-.29-.17-2.67-.46-4,0-.12-.06-.17-.06-.23,0-.12,.12-.12,.17-.12,.93,0,5.05,.41,5.05,1.33,0,.29-.23,.58-.93,.87-.87,.35-1.1,.52-1.22,1.86v1.16h7.83c0-.29,.06-.52,.06-.7,0-.29-.12-2.55-.46-4.18,0-.12-.06-.17-.06-.23,0-.12,.12-.12,.17-.12,.93,0,5.05,.41,5.05,1.33,0,.29-.23,.58-.93,.87-.87,.35-1.16,.52-1.22,1.86v1.16h8.35c.35,0,.75-.23,.93-.52,.23-.29,2.15-3.25,3.02-3.25,.12,0,.23,0,.35,.06,.99,.35,4.76,3.19,4.76,4.47,0,.35-.23,.64-1.22,.64h-16.18Zm-16.47,6.84l-.41,.29c-.87,.58-.99,.35-1.1,2.67,0,.29-.06,.7-.06,1.04h23.61c0-1.16,0-2.32-.12-3.48,0-.06-.06-.52-.58-.52H17.69Zm-1.57,5.51c0,1.28,0,2.78,.06,4.41h23.49c.06-1.57,.06-3.07,.06-4.41H16.12Zm4.58,18.5l-.41,.29c-.87,.58-1.04,.35-1.16,2.67v1.51h17.63c0-1.39-.06-2.73-.17-3.89,0-.06,0-.58-.52-.58h-15.37Zm-1.57,5.97c0,1.45,.06,3.19,.06,4.87h17.46c.06-1.68,.12-3.31,.12-4.87H19.14Zm4.41-12.18c-1.16,1.39-2.38,2.73-3.77,4.06l.64,.41,.35,.23h14.79c.64,0,.99-.46,1.22-.87-.99-1.28-1.86-2.55-2.55-3.83h-10.67Z" fill="#fff"/>
      <path d="M76.27,179.55c-.17-1.22-1.22-2.26-1.51-2.78-.06-.12-.41-.58-.41-.81,0-.06,.06-.17,.23-.17,.29,0,7.19,2.78,7.19,6.5,0,1.33-.99,2.49-1.97,2.49-.64,0-1.28-.29-1.86-.52-.75-.29-2.09-.41-3.31-.41-1.51,0-5.22,.17-5.22,4.58,0,.46,.06,.93,.12,1.28,.23,.99,.35,1.74,.35,2.49,0,1.28-.35,2.61-.87,5.28-.52,2.49-.81,5.1-.81,7.25,0,4.99,1.45,5.28,2.2,5.28,.58,0,1.28-.41,2.2-.99,1.39-.93,2.96-2.73,5.74-4.64,1.68-1.22,3.94-1.91,6.03-1.91,3.07,0,9.16,2.55,9.16,8.18,0,8.7-12.01,14.5-21.63,14.5-.29,0-.46,0-.46-.06,0-.12,.81-.41,2.73-.87,13.22-3.25,16.24-10.15,16.24-13.51,0-3.6-3.19-6.26-6.96-6.26-1.39,0-2.84,.41-4.12,1.39-2.73,2.03-3.65,3.65-6.38,7.08-.93,1.1-1.62,1.57-2.26,1.57-.7,0-4.58-1.22-4.58-8.35,0-3.19,.64-7.66,1.04-10.9,.06-.75,.12-1.33,.12-1.97,0-.75-.06-1.57-.17-2.67,0-.29-.06-.52-.06-.81,0-3.13,1.91-5.05,3.83-6.26,1.22-.75,2.67-1.39,3.94-2.09,.99-.52,1.45-1.1,1.45-1.68v-.17Z" fill="#fff"/>
      <path d="M122.67,222.58c-5.97,0-10.79-3.65-12.01-11.14-.29-1.91-.41-3.83-.41-5.74,0-6.44,1.33-12.99,1.33-19.43,0-3.19-.46-5.63-1.74-6.79-.52-.52-.75-.87-.75-1.04,0-.23,.23-.35,.58-.35,.46,0,5.63,.23,5.63,5.97,0,.58-.06,1.22-.17,1.91-.58,3.65-2.67,13.4-2.67,20.88,0,2.78,.12,12.53,10.67,12.53,5.16,0,11.48-2.67,17.28-7.95,.35-.35,.64-.46,.75-.46s.17,.06,.17,.17c0,.99-8.58,11.43-18.68,11.43Z" fill="#fff"/>
      <path d="M185.37,181.35c.81,0,5.86,0,5.86,2.44,0,.81-.75,1.51-2.32,1.51-.41,0-.87,0-1.33-.12-1.04-.17-2.2-.29-3.31-.29-3.13,0-6.26,.7-7.95,1.57-4.64,2.49-7.83,12.06-7.83,19.84,0,10.73,6.32,12.24,9.45,12.24,1.16,0,2.38-.17,3.6-.58,.52-.17,.99-.23,1.39-.23,1.33,0,2.2,.7,2.2,1.57,0,1.51-2.84,2.73-6.67,2.73-1.28,0-12.06-.12-12.06-14.56,0-7.31,2.67-15.78,6.15-19.31,.29-.29,.41-.41,.41-.46s0-.06-.06-.06c-.87,0-5.74,1.86-13.63,5.92-1.16,.64-2.55,.93-3.89,.93-2.38,0-4.47-.99-4.47-2.84,0-.35,.17-.46,.41-.46,.41,0,.93,.23,1.28,.29,.81,.17,1.8,.29,2.9,.29,.99,0,2.03-.12,3.13-.46,1.45-.46,12.76-6.44,21.87-8.76,.99-.23,1.91-.93,4.64-1.16h.23Z" fill="#fff"/>
      <path d="M219.53,214.98c0,.64-.17,2.26-2.84,2.26-2.03,0-4.35-1.22-5.8-2.49-5.39-4.58-6.5-10.15-6.5-16.18,0-2.2,.17-4.47,.29-6.73,.06-.58,.06-1.16,.06-1.68,0-1.1-.06-2.03-.23-2.96,0-.17-.06-.29-.06-.41,0-.35,.12-.52,.35-.52,.12,0,3.36,.81,3.36,4.87,0,.7-.12,1.39-.23,1.97-.46,1.97-.87,4.7-.87,7.54,0,10.9,6.55,12.18,7.31,12.18,.93,0,1.51-.52,1.91-1.22,1.16-2.03,2.49-5.63,3.48-7.89,.52-1.16,.75-1.57,.87-1.57s.12,.12,.12,.35c0,.46-.17,1.33-.23,1.62-.23,1.45-.93,4-1.22,7.6v.64c0,1.04,.17,1.68,.23,2.44v.17Zm20.82-11.54c-.46-5.39-4.23-9.98-9.34-11.25-1.74-.41-2.55-.81-2.55-1.04,0-.17,.41-.29,1.1-.29,7.89,0,14.38,6.44,14.38,11.95,0,1.8-.99,2.73-1.91,2.73-.81,0-1.57-.7-1.68-2.09Z" fill="#fff"/>
      <path d="M274.86,219.39c7.19-1.51,10.21-6.32,10.21-10.61,0-5.05-4.12-9.05-9.69-9.05-7.48,0-11.6,6.03-12.88,7.83-.64,.93-1.8,3.42-2.26,4.12-.75,1.04-1.57,1.45-2.26,1.45-.81,0-1.39-.58-1.39-1.45,0-1.51,3.89-6.15,4.7-7.08,1.86-2.15,3.48-4.47,5.28-7.13,1.86-2.73,6.03-7.89,8.58-11.77,.52-.81,.87-1.45,.87-1.91,0-.81-1.1-.99-1.57-.99-2.78,0-4.58,5.16-8.29,5.16-1.1,0-3.42-.52-3.42-3.07,0-.46,.12-.64,.35-.64,.29,0,.7,.23,1.16,.41s.99,.23,1.51,.23c.87,0,1.8-.29,2.49-.87,.93-.81,4.29-3.54,7.54-3.54,3.54,0,4.87,2.49,4.87,3.25,0,.87-.75,1.74-1.97,2.61-5.16,3.89-12.3,14.33-12.3,14.5h.06c.06,0,.12,0,.29-.12,2.78-1.68,6.15-2.73,9.45-2.73,7.19,0,12.01,4.87,12.01,10.73,0,6.84-6.55,12.76-16.07,12.76-4.52,0-8.93-2.15-8.93-5.63s3.42-4.29,5.28-4.29c3.31,0,6.15,2.67,6.15,5.74,0,.7-.17,1.45-.52,2.2l.75-.12Zm-2.9-2.09c0-2.15-1.68-3.83-3.83-3.83-1.39,0-2.9,.7-2.9,2.38,0,2.09,2.96,3.6,6.09,3.77,.46-.81,.64-1.57,.64-2.32Z" fill="#fff"/>
      <path d="M315.35,190.22c-3.07,9.16-6.32,18.21-8.47,27.38-.35,1.62-1.39,3.83-2.9,3.83s-1.62-1.86-1.62-2.26c0-.87,.29-1.91,.99-3.02,1.28-1.97,8.18-19.6,10.03-26.39-2.55,.64-3.71,.7-4.29,.7-6.09,0-7.66-4.12-7.66-4.93,0-.23,.06-.29,.23-.29,.29,0,.81,.35,1.1,.58,.87,.7,3.42,1.97,6.32,1.97,1.62,0,3.65-.35,4.81-.64,.23-1.28,.35-2.61,.35-3.77,0-2.15-.46-3.83-1.8-4-.87-.12-1.51-.35-1.51-.7,0-.52,1.39-1.33,2.44-1.33,1.22,0,3.48,.93,3.71,4.29,1.86,.58,3.19,.87,4.12,1.04,.81,.17,1.22,.81,1.22,1.39,0,2.55-5.45,4.52-6.73,4.99l-.35,1.16Zm1.16-3.94c1.68-.75,3.07-1.74,3.07-2.38,0-.58-1.74-1.45-2.49-1.8,0,1.22-.17,2.67-.58,4.18Zm20.3,31.32c2.32,0,3.54,.75,3.54,1.62,0,.58-.7,1.86-4.87,1.86-7.02,0-13.8-3.48-13.8-7.6,0-2.26,1.51-3.42,1.8-3.42,.12,0,.17,.12,.17,.35s-.06,.58-.29,.99c-.17,.41-.29,.75-.29,1.16,0,2.61,4.06,5.16,9.69,5.28,1.04,0,2.15-.17,3.83-.23h.23Zm-4.41-20.24c-.29,.23-.46,.35-.58,.35s-.17-.12-.17-.23,.06-.35,.23-.52c1.45-1.74,1.91-2.09,2.9-3.36,.41-.52,1.22-1.33,1.22-2.09,0-1.22-2.2-1.97-4.81-1.97-.46,0-.87,0-1.1,.06-.29,.06-.58,.12-.81,.12-.41,0-.7-.12-.7-.29,0-.06,.99-1.45,4.47-1.45,4.87,0,9.28,2.67,9.28,3.83,0,.58-.64,.99-1.16,1.16-2.9,.81-5.1,1.39-8.76,4.41Zm5.16-14.96c-1.57-1.86-3.71-3.25-5.28-4.12-.35-.17-.87-.41-.87-.52s.64-.17,1.33-.17c4.12,0,7.71,1.8,7.71,4.06,0,.93-.58,1.57-1.39,1.57-.46,0-.99-.23-1.51-.81Zm6.21-2.84c-1.62-1.8-3.83-3.13-5.45-3.94-.35-.17-.87-.35-.87-.46,0-.06,.35-.23,1.62-.23,4.93,0,7.6,1.97,7.6,3.89,0,.87-.64,1.57-1.45,1.57-.41,0-.93-.23-1.45-.81Z" fill="#fff"/>
      <path d="M364.53,201.76c.12,0,.35-.23,.52-.41,5.63-4.23,10.09-7.08,15.95-7.08,8,0,12.3,6.15,12.3,10.79,0,12.12-22.39,18.62-25.75,18.62-.35,0-.52-.06-.52-.17,0-.29,.7-.75,1.68-1.1,19.02-6.44,21.05-14.62,21.05-17.57,0-3.19-2.84-8.12-9.34-8.12-2.9,0-5.92,.99-8.24,2.15-5.68,2.78-8.99,6.61-12.12,11.02-.75,1.04-.93,1.86-1.45,2.9-.52,1.04-1.33,1.51-2.09,1.51-.93,0-1.8-.75-1.8-2.03,0-1.1,.64-2.61,2.26-4.29,.41-.41,1.1-.93,1.51-1.45,.7-.87,1.68-1.97,2.67-3.48,1.33-2.09,2.84-4.35,4.52-6.5,10.27-13.34,10.44-13.86,10.44-14.73,0-.29-.06-1.45-1.91-1.45-.64,0-1.22,.23-1.8,.75-1.04,.93-3.65,3.48-4.06,3.77-1.28,.87-2.38,1.22-3.36,1.22-2.38,0-4.12-2.55-4.12-3.54,0-.29,.17-.35,.41-.35,.29,0,.75,.12,1.16,.23,.46,.17,.99,.23,1.57,.23,2.55,0,3.71-.7,7.42-3.36,1.39-.99,2.78-1.45,4.18-1.45,.99,0,5.16,.75,5.16,3.07,0,1.1-1.04,2.38-2.2,3.48-6.26,6.03-14.04,16.41-14.04,17.28v.06Z" fill="#fff"/>
      <path d="M407.74,225.95c-.12,0-.17-.06-.17-.12,0-.23,.81-.75,1.74-1.22,8.06-4,17.11-15.02,17.11-24.88,0-5.63-2.67-9.51-5.68-9.51-1.86,0-3.71,1.28-5.34,2.61-1.1,.99-2.2,1.68-3.48,1.68-2.15,0-4.41-1.91-4.41-4.23,0-.93,.52-1.57,.75-1.57s.35,.35,.41,.46c.41,.99,1.33,1.33,2.32,1.33,1.33,0,2.9-.58,4-.99,1.74-.7,3.94-1.57,6.15-1.57,5.74,0,8.35,7.02,8.35,11.83,0,2.73-.58,5.51-1.68,8.24-5.51,13.98-19.14,17.92-20.07,17.92Zm14.21-45.35c-1.62,.23-5.34,1.16-7.83,2.67-.29,.17-.52,.23-.75,.23-.12,0-.23-.06-.23-.12,0-.12,.17-.35,.52-.64,1.28-1.1,3.02-2.49,3.48-2.9,.35-.29,.52-.58,.52-.75s-.12-.29-.41-.41c-.41-.17-4-.41-5.86-3.07-.12-.17-.35-.52-.35-.75,0-.12,.06-.17,.17-.17,.17,0,.52,.12,1.04,.41,1.62,.87,5.74,1.45,7.31,1.45,.52,0,1.04-.06,1.51-.06,1.1,0,3.54,.64,3.54,2.55,0,1.1-1.33,1.39-2.67,1.57Z" fill="#fff"/>
      <path d="M450.32,198.51c-1.33,0-4.47-.58-4.47-4.29,0-1.16,.12-1.57,.41-1.57,.23,0,.52,.35,.93,.87,.87,1.16,2.26,1.51,3.71,1.51,2.73,0,5.39-.81,7.95-1.68,.75-2.26,1.22-4.99,1.22-6.79s-.46-3.07-1.91-3.31c-.58-.12-1.16-.41-1.16-.87,0-.58,1.86-1.68,3.31-1.68,2.38,0,2.9,2.61,2.9,3.65,0,1.62-.93,5.28-1.8,7.54-.06,.23-.17,.46-.29,.7,1.33-.46,2.55-.87,3.89-.87,5.57,0,5.68,7.02,5.68,9.51,0,12.01-6.84,18.15-12.47,18.15-.93,0-1.8-.17-2.49-.41-2.15-.75-1.51-2.84-1.91-4.41-.23-.87-.35-1.45-.35-1.8,0-.23,.06-.35,.17-.35,.23,0,.7,.52,1.45,1.57,1.04,1.51,2.49,2.49,4.18,2.49,5.1,0,8.87-8.24,8.87-16.12,0-4.52-1.28-6.96-3.54-6.96-1.1,0-1.68,.17-4.58,1.91-2.67,6.15-7.31,15.37-10.96,22.16-.81,1.39-2.32,2.9-3.48,2.9-.58,0-.99-.35-.99-1.04,0-.93,.7-2.2,1.45-3.36,2.32-3.48,8.64-12.7,11.77-19.95-4.93,2.26-6.44,2.49-7.48,2.49Zm35.5,8.87c-.35-.17-1.04-.17-2.2-.17-4.12,0-4.99,0-4.99-.29,0-.17,.58-.35,1.45-.52,2.49-.52,6.84-.93,6.84-4.64,0-4.76-4.93-6.32-7.95-7.42-1.28-.46-1.74-.75-1.74-.87s.29-.17,.7-.17c7.31,0,12.3,4.64,12.3,9.05,0,3.31-2.09,5.22-3.6,5.22-.29,0-.58-.06-.81-.17Z" fill="#fff"/>
      <path d="M497.7,218.46c0-3.71,3.07-6.73,6.79-6.73s6.73,3.02,6.73,6.73-3.02,6.79-6.73,6.79-6.79-3.07-6.79-6.79Zm11.54,0c0-2.61-2.15-4.76-4.76-4.76s-4.81,2.15-4.81,4.76,2.2,4.81,4.81,4.81,4.76-2.2,4.76-4.81Z" fill="#fff"/>
    </g>
  </g>
</svg>