<?xml version="1.0" encoding="utf-8"?>
<!-- Generator: Adobe Illustrator 27.2.0, SVG Export Plug-In . SVG Version: 6.00 Build 0)  -->
<svg version="1.1" id="_レイヤー_2" xmlns="http://www.w3.org/2000/svg" xmlns:xlink="http://www.w3.org/1999/xlink" x="0px"
	 y="0px" viewBox="0 0 186 186" style="enable-background:new 0 0 186 186;" xml:space="preserve">
<style type="text/css">
	.st0{opacity:0.7;}
	.st1{fill:#000F3C;}
	.st2{fill:#FFFFFF;stroke:#FFFFFF;stroke-width:0.2462;stroke-linecap:round;stroke-linejoin:round;stroke-miterlimit:10;}
	.st3{fill:#FFFFFF;}
</style>
<g>
	<g class="st0">
		<circle class="st1" cx="93" cy="93" r="93"/>
	</g>
</g>
<g>
	<path class="st2" d="M120.4,74.4c0,0-0.2,0.2-0.5,0.4c-0.1,0.8-0.6,4.6-0.7,5.3c-0.5,2.7-1.1,4.9-4.7,5.2c0-1.1-0.7-1.7-1.6-2.1
		l0-0.2c0.3,0,0.5,0.1,1.8,0.2c0.3,0,0.6,0,0.8,0c0.4,0,1.3,0,1.7-0.8c0.7-1.5,1.3-6,1.5-7.7c0-0.4,0-0.4,0-0.8h-5.2
		c-0.2,1.4-0.6,2.9-1,4.2c-1.4,4-4.5,6.3-8.6,7.3l0-0.2c6.2-2.7,7.8-7,8.3-11.3h-0.4c-0.8,0-2.1,0.1-3,0.3l-0.4-1
		c1.7,0.1,3.4,0.2,3.8,0.2h6.5l0.6-0.5c0.2-0.1,0.3-0.2,0.4-0.2c0.1,0,0.2,0.1,0.3,0.2l0.8,0.9c0.1,0.1,0.2,0.2,0.2,0.3
		C120.6,74.2,120.5,74.3,120.4,74.4z M111.8,67.5c-2,3.3-4.9,6.4-7.7,8.1l-0.1-0.2c1.5-1.5,3.9-4.5,5.6-7c1-1.6,1.1-2.2,1.2-2.9
		l1.7,1.2c0.2,0.1,0.3,0.2,0.3,0.3C112.7,67.3,112.1,67.4,111.8,67.5z M124,74.6c-3.3-1.5-5.3-4.7-6.3-8.6h-2.5
		c-0.4,0-0.9,0-1.3,0.1l-0.2-0.8c0.4,0,1.3,0.1,1.6,0.1h2.2l0.6-0.6c0.3-0.3,0.3-0.3,0.4-0.3c0.2,0,0.3,0.1,0.4,0.2l0.7,0.8
		c0.1,0.1,0.2,0.2,0.2,0.3c0,0.4-0.7,0.5-1.6,0.6c1,3.7,5.3,6.2,8.1,6.3l0,0.2C125.1,73.4,124.5,74,124,74.6z"/>
</g>
<g>
	<path class="st3" d="M78.4,89.5c-8.7,0-12.6-6.3-11.8-10.9c0.4-2.3,2.2-4.2,4.5-4.2c1.7,0,2.9,1.5,2.5,4c-0.2,0.9-1,3-1.1,3.5
		C72,84.4,74.3,87,79.2,87c9.3,0,13.7-9.4,14.8-15.9c1.1-6.1,0.6-13.9-8.4-13.9c-5.1,0-8.7,2.8-12.9,6.4l-1-0.8L78,35.1h25.1
		l-2.1,4.7H79.2l-4.4,19.8c1.9-1.6,3.3-2.8,6.3-4c2.5-1,4.7-1.5,6.5-1.5c5.6,0,14.1,4.6,12,16.3C97.7,81.9,87.8,89.5,78.4,89.5z"/>
</g>
<g>
	<path class="st2" d="M56.1,102.5c0.7,0,1.3-0.2,3.9-0.9c3.5-0.9,10.6-2.4,10.9-2.4c0.4,0,1.6,0.4,1.6,1.1c0,0.6-0.6,0.6-0.9,0.6
		c-0.2,0-1.2-0.1-1.4-0.1c-2.6,0-3.9,0.6-5.4,1.8c-2.6,2.1-3.5,4.6-3.7,6.3c-0.4,4.1,3.7,5.2,5.4,5.5c0.6,0.1,1,0.2,1.3,0.6
		c0.1,0.2,0.2,0.4,0.2,0.6c0,0.4-0.4,0.4-0.6,0.4c-2.4,0-7.7-1.8-7.2-7c0.3-4,3.5-6.4,6.1-8.3c-1.4,0.4-3.2,0.8-4.8,1.2
		c-3,0.7-3.9,1.2-5.1,1.9c-0.1,0.1-0.4,0.2-0.7,0.2c-0.4,0-1.5-0.6-1.4-2c0-0.3,0.1-0.5,0.2-0.8C55.2,102.3,55.3,102.5,56.1,102.5z
		 M69.2,104.1c1.5,1,1.6,1.6,1.6,2.1c0,0.2-0.1,0.7-0.6,0.7c-0.3,0-0.4-0.2-0.5-0.5c-0.6-1.4-2-2.7-2.6-3.1
		C67.8,103.4,68.5,103.7,69.2,104.1z M73.5,105.2c0,0.6-0.4,0.6-0.5,0.6c-0.3,0-0.4-0.3-0.6-0.6c-0.7-1.1-1.7-2-2.8-2.8
		C71.2,102.7,73.6,103.7,73.5,105.2z"/>
	<path class="st2" d="M84.9,115.1c1.2-0.1,3.3-0.7,6-2.8c1-0.7,2.3-1.9,2.5-4.3c0.2-2.6-2-3.7-3.4-3.7c-2.1,0-5.4,1.6-7.9,3.7
		c-0.1,1-0.1,5.2-0.2,6c-0.1,1-0.6,2.5-1.2,2.5c-0.3,0-0.4-0.1-0.4-0.8c-0.1-1-0.1-1.4-0.7-2.7l0.1-0.1c0.2,0.1,0.9,0.7,1.1,0.7
		c0.2,0,0.2-0.3,0.2-0.4l0,0c0.1-1.2,0.2-3.2,0.2-4.3c-0.9,0.9-1.1,1.1-4,4.7c-0.4,0.5-0.4,0.6-0.7,0.6c-0.4,0-0.4-0.5-0.4-0.8
		c0.1-0.8,0.3-1,0.8-1.4c0.8-0.6,3.1-3.5,4.5-6c0-0.3,0.2-1.5,0.3-1.7c-0.4,0-1.8,0.7-2.3,1.1c-0.6,0.4-0.7,0.5-1.1,0.5
		c-0.9,0-1.5-1.5-1.4-2.2c0-0.2,0-0.2,0.1-0.4c0.2,0.7,1,1,1.4,1c0.6,0,2.1-0.5,3.5-1.2c0.1-0.5,0.5-2.6,0.5-3
		c0.1-1.1-0.1-1.5-1.1-2.2c0.2-0.1,0.4-0.1,0.7-0.1c1.3,0,2.1,1,2,1.5c0,0.1,0,0.2-0.4,0.9c-0.2,0.5-0.3,0.9-0.7,2.5
		c0.2-0.1,0.3-0.1,0.4-0.1c0.2,0,1.3,0.3,1.3,0.7c0,0.3-0.7,1-1.1,1.3c-0.5,0.5-1,1.2-1.5,2.1c-0.1,0.5-0.1,0.6-0.1,0.9
		c2.8-2.4,5.6-3.9,8.2-3.9c2.8,0,4.6,2.1,4.4,4.7c-0.3,3.2-2.9,4.9-4.7,5.8c-2.6,1.3-4.5,1.3-5.2,1.3L84.9,115.1z"/>
	<path class="st2" d="M101.8,112.9c0.6,0.5,1.4,1.1,1.9,1.4c0.4,0.2,0.6,0.3,0.8,0.3c0.6,0,1-0.5,1.1-0.7c1.6-2.4,2.4-6.6,2.5-7.5
		c0.1-1.6-0.2-2.3-1.4-2.3c-0.6,0-1.4,0.1-2,0.3c-0.5,0.9-2.5,4.9-3,5.7c-1.1,1.9-2.2,3.9-3.4,5.5c-0.1,0.1-0.5,0.7-0.8,0.7
		c-0.3,0-0.5-0.3-0.5-0.9c0.1-0.7,0.3-1,1-1.8c0.3-0.3,1.7-2.4,2.8-4.1c1-1.6,2.4-4.3,2.6-4.8c-0.8,0.3-3.2,1.1-3.6,1.4
		c-0.5,0.3-0.6,0.4-0.9,0.4c-0.7,0-1.8-1-1.7-2.3c0-0.1,0-0.2,0.1-0.3c0.3,0.6,0.8,1.2,1.6,1.2c0.3,0,0.7-0.1,1.5-0.3
		c2-0.5,2-0.5,3.4-0.9c0.5-0.9,1.5-3,1.6-3.8c0.1-0.6-0.1-1-0.7-1.3c-0.1-0.1-0.8-0.4-0.9-0.4c0.3-0.1,0.5-0.1,0.9-0.1
		c1.7,0,2.3,1,2.3,1.5c0,0.2,0,0.2-0.5,1c-0.3,0.4-1.3,2.4-1.5,2.8c0.2,0,1-0.2,1.7-0.2c2.4,0,2.4,2.3,2.3,3.4
		c-0.1,1.4-1.4,7-3.3,8.8c-0.3,0.3-1.4,1.3-2.1,1.3c-0.5,0-0.5-0.3-0.5-0.7c0-0.4,0-0.8-1.7-3.1L101.8,112.9z M111.8,108.5
		c1.6,0,3.1-0.1,3.2-1.2c0-0.5-0.9-2.3-4.2-4.7c3,0.4,4.5,2.6,4.8,3c0.9,1.2,1.1,2.4,1,3.4c0,0.5-0.2,0.8-0.5,0.8
		c-0.2,0-0.3,0-0.7-0.4c-0.3-0.2-0.5-0.1-1.9-0.5c-0.2,0-1.2-0.3-1.8-0.4L111.8,108.5z"/>
	<path class="st2" d="M123.3,99.9c0.5,0,2.9-0.5,4.3-1c0.4-0.1,1-0.3,1.2-0.3c0.7,0,1.5,0.9,1.4,1.5c0,0.3-0.1,0.3-0.6,0.7
		c-0.5,0.4-0.7,0.5-1.1,1c-0.7,0.8-4.1,4.5-4.7,5.3c-0.3,0.4-0.7,0.8-1.4,1.6c1.2-0.7,3.4-1.9,6.1-1.9c3.4,0,4.9,2,4.7,4.4
		c-0.3,3.1-3.3,5.3-6.9,5.3c-2,0-4.4-0.8-4.2-2.5c0.1-1.6,1.7-1.9,2.5-1.9c1.9,0,2.9,1.2,3.3,3.2c2.4-0.3,3.7-2.4,3.9-4.2
		c0.2-2.4-1.4-3.6-3.7-3.6c-4.4,0-8.1,4.2-8.4,4.6c-0.7,1-1,1.4-1.5,1.4c-0.3,0-0.5-0.2-0.4-0.8c0.1-0.8,0.3-1,0.9-1.5
		c3.9-3.5,9.3-10.1,9.4-11.1c0-0.3-0.2-0.3-0.3-0.3c-0.4,0-2.7,0.7-3.6,1.2c-0.3,0.2-0.8,0.5-0.9,0.5c-0.7,0-1.8-1-1.7-2.1
		c0-0.2,0.1-0.3,0.3-0.5C122.1,99.6,122.6,99.9,123.3,99.9z M124.2,112.9c-0.6,0-1.2,0.3-1.2,1c-0.1,1.2,2.3,1.7,3,1.7
		c0.2,0,0.4,0,0.8-0.1C126.6,114,125.2,112.9,124.2,112.9z"/>
	<path class="st2" d="M69.1,143.8l0.1-0.7h0.7c0.9,0,1.7-0.5,1.8-1.7l1.2-13.6l-7.8,16h-0.7l-4.7-16l-1.2,13.6
		c-0.1,1.2,0.6,1.7,1.5,1.7h0.5l-0.1,0.7h-5.1l0.1-0.7h0.6c0.9,0,1.7-0.5,1.8-1.7l1.1-12.1c0.1-1.1-0.5-1.7-1.5-1.7h-0.6l0.1-0.8
		h4.3l4.3,14.7l7.1-14.7h4.2l-0.1,0.8h-0.7c-1,0-1.7,0.6-1.8,1.7L73,141.4c-0.1,1.1,0.5,1.7,1.5,1.7h0.7l-0.1,0.7H69.1z"/>
	<path class="st2" d="M92.5,131.2c-0.8-1.5-1.2-2-1.7-2.3c-1.1-0.8-2-1.2-3.6-1.2h-2.6c-1.1,0-1.8,0.6-1.9,1.6l-0.5,5.5H85
		c1.4,0,2-0.8,2.2-1.1c0.3-0.4,0.5-0.9,0.6-1.6h0.7l-0.6,6.6h-0.7l0-0.3c0.1-1.6-0.6-2.7-2.3-2.7h-2.7l-0.5,5.8
		c-0.1,0.9,0.2,1.9,1.6,1.9h0.8l-0.1,0.7h-6.5l0.1-0.7h0.7c0.5,0,1.8-0.4,1.9-1.9l1.1-12c0-0.6-0.1-1.5-1.3-1.5h-1l0.1-0.8h13l1,4
		L92.5,131.2z"/>
	<path class="st2" d="M101.5,143.8h-7.9l0.1-0.7h0.7c0.6,0,1.7-0.5,1.8-2.2l1-11.5c0.1-1.1-0.3-1.8-1.4-1.8H95l0.1-0.8h7.6
		c3.2,0,5.5,1.3,5.3,3.9c-0.2,2.8-2.9,3.6-4.1,3.9c0.9,0.2,1.9,0.4,3,1.3c0.9,0.8,1.5,1.9,1.3,3.2
		C108,141.4,105.9,143.8,101.5,143.8z M102.4,135.1h-4.3l-0.5,6.2c-0.1,1,0.1,1.7,2.1,1.7h1.8c2.5,0,4.5-1.1,4.7-3.8
		C106.5,137.4,105.8,135.1,102.4,135.1z M102.9,127.6h-2.2c-1.4,0-1.9,0.6-2,1.6l-0.5,5.2h4.1c1.8,0,3.6-1,3.8-3.5
		C106.3,128.9,105.3,127.6,102.9,127.6z"/>
	<path class="st2" d="M123.8,143.8l0.1-0.7h0.7c0.9,0,1.7-0.5,1.8-1.7l1.2-13.6l-7.8,16H119l-4.7-16l-1.2,13.6
		c-0.1,1.2,0.6,1.7,1.5,1.7h0.5l-0.1,0.7h-5.1l0.1-0.7h0.6c0.9,0,1.7-0.5,1.8-1.7l1.1-12.1c0.1-1.1-0.5-1.7-1.5-1.7h-0.6l0.1-0.8
		h4.3l4.3,14.7l7.1-14.7h4.2l-0.1,0.8h-0.7c-1,0-1.7,0.6-1.8,1.7l-1.1,12.1c-0.1,1.1,0.5,1.7,1.5,1.7h0.7l-0.1,0.7H123.8z"/>
</g>
</svg>
