<?xml version="1.0" encoding="UTF-8"?>
<svg id="_レイヤー_2" data-name="レイヤー 2" xmlns="http://www.w3.org/2000/svg" viewBox="0 0 591.25 225.46">
  <g id="_デザイン" data-name="デザイン">
    <g>
      <path d="M27.66,96.66c.34-8.51,.67-19.04,.9-27.66C20.38,82.77,3.14,91.62,.45,91.62c-.34,0-.45-.11-.45-.34,0-.34,.56-.9,1.9-1.57,9.3-4.82,22.06-19.49,25.42-27.66-5.15,0-10.98,.11-17.7,.78h-.11c-1.79,0-4.59-4.03-4.59-5.15,8.51,1.12,17.25,1.46,23.74,1.57v-1.57c-.11-3.58,0-7.17-1.01-10.53-.11-.34-.11-.56-.11-.67s0-.11,.22-.11c3.25,0,11.09,1.68,11.09,3.58,0,.67-.67,1.46-1.79,2.02-2.91,1.46-3.14,.34-3.47,4.82,0,.78-.11,1.68-.11,2.46h8.62c.22,0,1.01-.45,1.46-1.01,.78-1.01,1.9-3.02,3.02-4.03,.22-.22,.56-.34,.9-.34,.22,0,.45,.11,.67,.11,3.92,1.46,7.39,6.16,7.39,6.72,0,.67-.56,1.34-2.46,1.34h-19.71c-.11,2.13-.11,4.37-.11,6.72,13.44,1.23,16.8,6.38,16.8,8.96,0,1.68-1.12,2.91-2.69,2.91-1.12,0-2.46-.67-3.7-2.35-3.36-4.7-7.17-6.38-10.42-8.74v4.7c0,7.28,.22,15.01,.45,22.29,0,1.68-1.57,3.47-3.47,3.47-1.34,0-2.58-.9-2.58-3.14v-.22Zm2.24-52.19c-6.72,0-10.75,.11-21.5,1.01h-.11c-2.13,0-4.82-4.03-4.82-5.38,12.32,1.57,19.94,1.57,26.77,1.57,6.16-11.31,6.94-16.02,7.62-20.38,.11-.78,.11-1.01,.22-1.01s.34,.11,.78,.22c.22,.11,5.04,2.24,7.39,3.7,.67,.34,1.01,.78,1.01,1.23,0,.78-1.01,1.46-3.14,1.68-1.68,.22-1.57,.56-2.35,1.79-2.02,3.02-5.26,7.95-8.96,12.77h9.97c.34,0,1.01-.34,1.34-.9,.9-1.68,3.02-5.15,4.37-5.15,2.46,0,8.51,5.26,8.51,7.28,0,.78-.56,1.57-2.35,1.57H29.9Zm2.8-26.21c-5.49,0-11.42,.11-20.61,1.01h-.11c-2.02,0-4.37-4.14-4.37-5.38,7.84,1.12,14.9,1.46,20.38,1.57v-.67c-.11-4.26-.22-10.64-1.01-13.89-.11-.34-.11-.67-.11-.78s0-.11,.11-.11c.56,0,11.54,1.34,11.54,3.81,0,.67-.78,1.46-1.68,2.02-3.25,2.13-2.8,1.46-3.14,6.05-.11,1.34-.22,2.46-.22,3.58h7.28c.11,0,.9-.34,1.23-.9,.78-1.57,2.91-4.93,4.03-4.93,.22,0,.56,.11,.67,.11,1.01,.45,7.17,4.26,7.17,6.94,0,.78-.56,1.57-2.13,1.57h-19.04Zm-19.04,4.59c3.36,0,14.11,5.15,14.11,10.98,0,2.24-1.46,3.92-3.14,3.92-1.23,0-2.58-1.01-3.47-3.47-1.01-2.91-4.37-7.73-6.72-10.3-.56-.67-.9-1.01-.9-1.12h.11ZM79.97,96.54c.56-6.94,.78-27.22,.78-39.65,0-7.28-.11-14.22-.78-17.36h-12.99v6.27c-.78,46.14-28,53.42-29.46,53.42-.11,0-.22,0-.22-.11,0-.22,.67-.9,2.35-1.9,18.26-12.1,21.84-34.27,21.84-50.51v-1.46c0-21.5,0-29.57-1.57-34.72-.11-.22-.11-.45-.11-.56,0-.22,.11-.22,.22-.22,1.23,0,7.28,2.35,9.97,3.81l.56,.45c13.44-6.05,16.69-9.41,18.14-11.42,.11-.22,.22-.34,.34-.34,.34,0,7.39,7.17,7.39,9.07,0,.56-.45,.9-1.34,.9-.67,0-1.46-.11-2.46-.45-.67-.22-1.23-.34-1.9-.34-.34,0-.67,0-1.12,.11-1.34,.22-11.76,3.7-19.04,5.04h-.22c-.22,0-.45,0-.67-.11l-.45,.22c-2.13,1.01-2.13,1.12-2.13,7.17,0,1.23-.11,7.39-.11,12.99h25.42c.67,0,1.23-.78,1.68-1.23,1.01-1.12,2.69-4.03,3.58-4.7,.34-.22,.56-.34,.78-.34,1.9,0,7.39,5.71,7.39,7.5,0,.78-.56,1.46-2.13,1.46h-14.67c.34,.34,.45,.56,.45,.9,0,.56-.67,1.12-1.68,1.34-1.57,.45-1.68,.45-1.68,19.94,0,11.87,.22,26.66,.45,34.5,0,1.34-1.34,3.02-3.92,3.02-1.46,0-2.69-.67-2.69-2.35v-.34Z" fill="#fff"/>
      <path d="M143.81,33.26c-5.94,17.7-12.21,35.17-16.35,52.86-.67,3.14-2.69,7.39-5.6,7.39s-3.14-3.58-3.14-4.37c0-1.68,.56-3.7,1.9-5.82,2.46-3.81,15.79-37.86,19.38-50.96-4.93,1.23-7.17,1.34-8.29,1.34-11.76,0-14.78-7.95-14.78-9.52,0-.45,.11-.56,.45-.56,.56,0,1.57,.67,2.13,1.12,1.68,1.34,6.61,3.81,12.21,3.81,3.14,0,7.06-.67,9.3-1.23,.45-2.46,.67-5.04,.67-7.28,0-4.14-.9-7.39-3.47-7.73-1.68-.22-2.91-.67-2.91-1.34,0-1.01,2.69-2.58,4.7-2.58,2.35,0,6.72,1.79,7.17,8.29,3.58,1.12,6.16,1.68,7.95,2.02,1.57,.34,2.35,1.57,2.35,2.69,0,4.93-10.53,8.74-12.99,9.63l-.67,2.24Zm2.24-7.62c3.25-1.46,5.94-3.36,5.94-4.59,0-1.12-3.36-2.8-4.82-3.47,0,2.35-.34,5.15-1.12,8.06Zm39.2,60.48c4.48,0,6.83,1.46,6.83,3.14,0,1.12-1.34,3.58-9.41,3.58-13.55,0-26.66-6.72-26.66-14.67,0-4.37,2.91-6.61,3.47-6.61,.22,0,.34,.22,.34,.67s-.11,1.12-.56,1.9c-.34,.78-.56,1.46-.56,2.24,0,5.04,7.84,9.97,18.7,10.19,2.02,0,4.14-.34,7.39-.45h.45Zm-8.51-39.09c-.56,.45-.9,.67-1.12,.67s-.34-.22-.34-.45,.11-.67,.45-1.01c2.8-3.36,3.7-4.03,5.6-6.5,.78-1.01,2.35-2.58,2.35-4.03,0-2.35-4.26-3.81-9.3-3.81-.9,0-1.68,0-2.13,.11-.56,.11-1.12,.22-1.57,.22-.78,0-1.34-.22-1.34-.56,0-.11,1.9-2.8,8.62-2.8,9.41,0,17.92,5.15,17.92,7.39,0,1.12-1.23,1.9-2.24,2.24-5.6,1.57-9.86,2.69-16.91,8.51Z" fill="#fff"/>
      <path d="M240.35,12.54c5.6,1.23,5.82,1.34,5.82,3.36s-3.02,6.27-11.87,9.52c-.45,1.34-.9,2.69-1.46,4.03-3.25,8.06-13.33,28.56-16.91,36.4-1.57,3.25-4.37,4.93-6.27,4.93-1.23,0-2.13-.56-2.13-2.02,0-1.12,.67-2.8,2.13-4.93,12.66-18.7,18.26-30.02,20.61-37.18-4.37,1.01-6.05,1.12-7.5,1.12-11.76,0-13.89-9.07-13.89-9.52,0-.34,.11-.56,.34-.56,.67,0,1.9,1.01,2.24,1.23,1.9,1.46,6.94,3.58,11.54,3.58,3.14,0,6.5-.67,8.51-1.23,.22-1.9,.45-3.81,.45-5.49,0-7.28-2.02-7.39-3.25-7.39-1.79,0-2.8-.22-2.8-1.01,0-.45,1.23-2.91,4.14-2.91,6.38,0,6.72,6.5,6.72,7.17l3.58,.9Zm28.9,29.9c-1.34,0-5.49,.34-7.39,1.12-7.39,2.91-8.96,6.83-8.96,12.99,0,1.9,.11,3.92,.34,6.27,0,0,.9,9.63,1.23,14.67,8.4,2.91,16.35,8.74,16.35,13.78,0,2.13-1.12,3.7-2.58,3.7-1.01,0-2.24-.78-3.25-2.69-1.9-3.47-5.82-7.06-10.75-9.63-1.34,8.29-9.52,14.34-17.58,14.34-8.62,0-14.56-6.83-14.56-11.98,0-7.95,12.66-9.86,19.15-9.86,3.02,0,5.94,.34,8.74,1.01,0-4.93-.56-10.08-.56-14.45v-.67c0-9.07,2.46-14.78,10.75-19.82,4.14-2.46,6.83-4.93,6.83-7.39,0-1.01-.45-2.02-1.34-3.02-.67-.78-2.13-1.9-2.46-2.24-.67-.67-1.01-1.12-1.01-1.46s.34-.45,1.12-.45c5.38,0,13.44,4.82,13.44,10.75,0,3.02-1.9,5.6-3.81,5.6-1.01,0-2.13-.45-3.25-.56h-.45Zm-30.8,36.18c-9.07,0-13.22,3.36-13.22,6.61,0,3.92,5.6,6.16,10.42,6.16,7.28,0,13.1-5.04,14-10.75-3.58-1.23-7.39-2.02-11.2-2.02Zm-2.58-58.91c2.91-1.23,5.6-2.8,5.6-4.26,0-.67-.56-1.12-4.7-2.8,0,2.02-.34,4.48-.9,7.06Z" fill="#fff"/>
      <path d="M314.83,96.1c0,3.58-4.03,4.14-4.37,4.14-1.57,0-2.8-.9-2.8-3.25v-.67c1.46-16.13,2.35-38.53,2.35-52.86,0-2.35-.11-4.48-.11-6.38v-5.49c-11.31,15.57-19.15,20.05-19.6,20.05-.11,0-.22,0-.22-.22s.22-.67,.67-1.12c8.74-9.07,19.04-24.53,25.76-39.54,1.12-2.58,1.79-5.94,2.13-7.84,.11-.56,.11-.78,.34-.78,.34,0,8.29,3.58,9.41,4.59,.34,.34,.56,.78,.56,1.23,0,.78-.78,1.57-3.25,2.24-1.79,.45-1.9,.67-3.36,2.91-2.69,4.26-5.6,8.62-8.4,12.77,1.57,.34,3.47,.56,4.26,.78,1.57,.45,2.13,.9,2.13,1.46,0,.67-1.01,1.34-2.46,2.02-2.69,1.23-2.8,1.12-2.91,5.15-.22,10.19-.45,22.74-.45,35.95,0,8.06,.11,16.46,.34,24.75v.11Zm71.79-.9c0,2.24-1.79,3.7-3.47,3.7-1.34,0-2.46-.9-2.46-2.91l.11-6.38h-47.15v6.61c0,1.68-2.02,3.02-3.7,3.02-1.23,0-2.24-.67-2.24-2.35v-.22c.56-9.41,.67-25.98,.67-37.52,0-7.95,0-20.61-1.23-26.21-.11-.34-.11-.56-.11-.67,0-.22,.11-.22,.22-.22,.78,0,6.27,2.46,8.74,4.03l.34,.22h10.08c0-7.28-.11-12.88-.11-14.56-.11-2.91-.22-4.14-.34-5.71-4.93,.11-10.75,.34-15.79,.9h-.11c-1.79,0-4.48-3.92-4.48-5.15,9.63,1.23,23.63,1.46,28.9,1.46h23.97c.22,0,1.01-.22,1.34-.78,.22-.34,3.36-5.6,4.93-5.6,3.14,0,8.74,6.72,8.74,7.73,0,.67-.67,1.34-2.46,1.34h-20.94c1.34,.67,1.34,1.01,1.34,1.23,0,.45-.34,.9-1.23,1.34-1.34,.67-1.57,.9-1.68,2.46-.11,1.23-.11,7.28-.22,15.34h10.64c.11,0,.11-.11,.22-.11s.22-.11,.45-.56c1.01-1.57,1.68-2.35,2.69-2.35,1.34,0,8.29,2.8,8.29,5.26,0,1.23-1.68,2.02-2.24,2.46q-2.46,1.57-2.46,10.75c0,11.87,.45,34.38,.78,43.23v.22Zm-40.43-8.51c.11-7.28,.22-30.69,.22-47.38h-10.75l-.67,.45c-1.01,.67-1.34,0-1.34,3.25,0,4.82-.11,27.33-.11,43.68h12.66Zm17.02,0c.11-7.73,.11-30.8,.11-47.38h-11.98c-.11,12.21-.11,27.66-.11,37.86v9.52h11.98Zm.11-50.4c0-7.28-.11-12.88-.11-14.56-.11-3.02-.22-4.26-.34-5.82h-9.86l.67,.22c.67,.22,.9,.56,.9,.9,0,.67-.78,1.34-1.34,1.57-1.23,.45-1.57,.67-1.68,2.24-.11,1.23-.11,7.39-.22,15.46h11.98Zm17.47,50.4c.11-8.62,.11-18.93,.11-27.78s0-16.13-.22-18.48c0-.11-.34-1.12-.9-1.12h-11.54c-.11,11.98-.11,27.22-.11,37.52v9.86h12.66Z" fill="#fff"/>
      <path d="M441.06,6.83c0,.78-.78,1.68-3.36,2.35-1.9,.45-2.02,.56-3.47,2.91-3.14,5.15-6.27,10.19-9.41,14.78,7.06,1.46,7.17,1.79,7.17,2.46,0,.56-.9,1.23-2.24,1.9-3.02,1.46-3.36,1.12-3.47,5.71-.22,8.96-.34,18.59-.34,29.01,0,9.3,.11,19.04,.45,29.34,0,1.79-1.9,4.37-4.37,4.37-1.46,0-2.69-1.01-2.69-3.25v-.67c1.57-16.69,2.13-37.74,2.13-51.18v-3.36s.11-6.72,.11-9.63c-12.77,17.81-20.94,21.62-21.06,21.62s-.11-.11-.11-.22c0-.34,.45-1.01,.78-1.34,8.74-8.74,19.6-25.09,27.33-42.22,1.23-2.58,1.68-6.16,2.13-8.18,.11-.56,0-.78,.22-.78,.56,0,8.96,4.37,9.63,5.04,.34,.34,.56,.78,.56,1.34Zm60.93,11.31c0,.78-.45,1.46-2.35,1.46h-26.54c-.22,3.92-.34,7.84-.45,11.2h8.51c.56,0,1.12-.45,1.46-.9,1.34-2.35,2.13-2.35,2.35-2.35,1.68,0,7.95,3.36,7.95,5.38,0,1.23-1.57,1.9-2.24,2.35-1.79,1.01-1.9,2.13-1.9,7.28,0,8.18,.34,30.13,.67,35.73v.22c0,2.13-1.79,3.47-3.47,3.47-1.34,0-2.58-.9-2.58-2.91v-2.8h-20.83c0,2.02,.11,3.7,.11,4.82,0,1.46-2.02,2.58-3.7,2.58-1.23,0-2.13-.56-2.13-1.79v-.34c.56-5.15,.67-18.7,.67-28.78,0-19.15-.34-21.39-1.12-25.09-.11-.45-.11-.78-.11-.9,0-.34,.11-.34,.22-.34,.45,0,6.38,2.58,8.74,4.37h2.58l.45-11.2c-6.16,0-17.81,.22-26.99,1.23h-.11c-1.9,0-5.26-4.37-5.26-5.82,10.19,1.34,25.76,1.79,32.59,1.79v-.56c0-.67,.11-1.79,.11-3.25,0-3.14-.22-7.62-.9-11.09,0-.22-.11-.34-.11-.45,0-.22,.11-.34,1.23-.34,1.79,.11,9.52,1.12,9.52,3.36,0,.9-1.12,1.9-2.91,2.69-.9,.34-1.34,1.23-1.57,2.91l-.56,6.72h11.65c.67,0,1.46-.67,1.9-1.23,3.81-5.15,4.48-5.94,5.26-5.94,2.13,0,9.86,6.16,9.86,8.51Zm2.24,72.58c0,.67-.56,1.34-2.58,1.34h-56.34c0,1.23,.11,2.46,.11,3.47v.11c0,3.02-3.14,3.47-3.25,3.47-1.46,0-2.8-1.01-2.8-3.14v-.22c.34-7.95,.67-37.97,.67-48.83,0-3.36,0-10.42-.78-13.78-.11-.34-.22-.67-.22-.78,0-.22,.11-.22,.45-.22,4.03,0,9.86,1.34,9.86,2.69,0,.67-.56,1.23-.9,1.46-2.35,1.34-3.14,1.46-3.25,5.04-.11,2.35-.11,7.62-.11,14.11,0,10.53,.11,24.3,.22,33.82h40.54c.9,0,1.79-.67,2.13-1.23,1.12-1.68,4.37-6.16,6.05-6.16,3.47,0,10.19,7.5,10.19,8.85Zm-20.83-56.22s-.22-.9-1.01-.9h-17.47c-.22,.11-.45,.34-.67,.56q-1.57,1.01-1.79,4.37c0,.78-.11,2.91-.11,5.94h21.28c0-4.48-.11-8.06-.22-9.97Zm.22,12.66h-21.28c0,3.25,.11,7.17,.11,11.09h21.17v-11.09Zm-21.17,13.78c0,4.48,.11,8.96,.11,12.66h20.94c0-3.47,.11-7.95,.11-12.66h-21.17Z" fill="#fff"/>
      <path d="M548.8,64.85c-10.08,5.94-14.11,11.98-14.11,16.8,0,5.26,5.49,10.42,15.46,10.42,4.26,0,8.85-.9,12.66-2.91,1.12-.56,2.13-.78,3.02-.78,2.02,0,3.47,1.23,3.47,2.69,0,5.04-12.77,6.61-17.14,6.61-14.78,0-21.39-9.41-21.39-15.23,0-7.84,8.62-15.68,18.03-21.17,0-11.87-3.7-16.46-7.95-16.46-3.14,0-7.28,2.58-11.98,9.18-3.81,7.06-7.17,12.21-9.86,12.21-1.79,0-2.46-1.79-2.46-2.91,0-2.02,1.12-4.7,4.03-7.5,9.63-9.3,13.55-15.12,19.71-29.57-.56,.11-1.01,.34-1.46,.45-2.69,.67-4.82,1.01-6.61,1.01-9.97,0-12.77-7.62-12.77-9.18q0-.22,.22-.22c.22,0,1.01,.34,2.35,1.34,3.81,2.58,7.06,3.36,10.08,3.36s6.38-.78,9.74-1.68c.45-1.9,.56-3.47,.56-4.82,0-4.48-1.9-5.49-5.15-6.38-.67-.11-1.12-.45-1.12-.9,0-.22,1.34-1.9,4.37-1.9,5.94,0,6.38,5.6,6.38,7.73,0,1.57-.22,3.14-.56,4.7,.67-.22,5.49-2.46,5.49-4.37,0-.22-.11-.9-2.35-1.68-1.34-.56-1.9-.9-1.9-1.12s.34-.34,1.01-.34c.34,0,.67,.11,1.12,.11,.9,.11,1.9,.11,2.69,.11,1.23,0,2.13,0,2.35-.11,.34-.11,.56-.22,.78-.22,1.68,0,1.79,2.24,1.79,2.46,0,1.68-.67,5.94-12.66,10.19-3.25,8.06-8.18,16.24-10.08,19.49,2.35-1.46,4.59-2.02,6.72-2.02,5.71,0,9.97,5.04,11.42,11.54,4.93-11.87,14.22-23.74,24.98-23.74,4.7,0,13.55,4.03,13.55,9.63,0,4.37-5.38,8.62-12.32,11.54-7.5,3.14-17.47,7.17-25.2,11.09,.11,1.68,.11,3.47,.11,5.26,0,2.13,0,4.37-.22,6.61-.22,3.36-2.58,6.16-4.37,6.16-1.12,0-2.02-1.12-2.02-3.81,0-.45,.11-.9,.11-1.34,.22-2.91,1.34-3.14,1.46-7.84v-2.46Zm4.59-6.05c6.27-3.25,15.68-7.84,22.4-11.2,4.7-2.35,8.74-5.26,8.74-8.51,0-.78-1.46-5.94-7.62-5.94-9.3,0-19.38,12.32-23.52,25.31v.34Z" fill="#fff"/>
      <path d="M15.12,222.33c-.67,0-.67-.22-1.12-.9-1.23-2.02-9.07-6.83-9.07-7.95,0-.11,.11-.22,.34-.22,.34,0,.67,.11,1.12,.22,3.81,1.01,6.72,1.46,8.85,1.46,4.37,0,5.71-1.9,5.82-5.04,.11-7.5,.11-18.82,.11-30.24-3.25,1.9-7.28,4.37-11.31,6.61-1.01,.56-1.23,1.57-1.9,1.57-1.34,0-6.16-6.16-6.16-6.61h.34c3.92-.34,8.74-1.34,19.04-5.94,0-7.28,0-14.45-.11-20.61-3.58,.11-7.84,.34-12.88,1.01h-.11c-1.34,0-4.59-4.14-4.59-5.38,6.16,1.01,12.77,1.34,17.58,1.46,0-4.03-.22-7.39-.22-9.97,0-2.8-.11-9.3-1.23-14.67-.11-.34-.22-.67-.22-.78s.11-.22,.34-.22c.67,0,11.42,1.46,11.42,3.92,0,.78-.9,1.68-1.9,2.24-2.69,1.34-2.58-.11-2.8,6.72l-.34,12.88h3.25c.22,0,.9-.45,1.34-.9,1.23-1.46,2.58-3.47,3.58-4.26,.34-.22,.67-.34,1.01-.34,2.24,0,7.84,5.82,7.84,7.28,0,.56-.45,1.01-2.13,1.01h-14.9c-.11,6.16-.22,12.32-.22,18.48,5.26-2.46,10.19-5.04,15.12-7.84,.45-.22,.78-.34,1.01-.34s.34,.11,.34,.34-.34,.67-.67,.9c-1.9,1.12-3.81,2.46-5.71,3.81,10.19,1.23,24.64,1.46,30.35,1.46h21.28c.22,0,1.01-.34,1.34-.9,0,0,3.36-5.6,5.15-5.6,2.02,0,8.4,6.05,8.4,8.18,0,.67-.45,1.12-2.24,1.12h-29.57c2.13,.56,2.58,1.23,2.58,1.68,0,.78-.78,1.57-1.68,2.02-1.9,1.01-2.13,1.46-2.13,4.93,0,2.13-.11,5.04-.11,8.29h9.63c.56,0,1.01-.45,1.34-1.01,1.12-1.79,4.03-5.38,4.93-5.38,1.79,0,8.85,5.15,8.85,7.62,0,.78-.45,1.57-2.24,1.57h-22.51c-.11,6.16-.11,13.22-.11,19.04,2.58,.9,7.62,2.24,15.23,2.24,7.06,0,14.34-1.12,21.95-3.36,.78-.22,1.23-.34,1.46-.34,.11,0,.22,0,.22,.11,0,.67-7.06,4.7-9.41,8.29-.56,.78-1.12,1.46-1.57,1.46-.67,.11-3.92,.45-8.4,.45-14.34,0-31.14-2.35-38.08-27.55-5.15,15.23-12.88,24.75-26.54,30.35-1.23,.56-2.35,.78-2.91,.78-.22,0-.34,0-.34-.11,0-.22,.67-.67,2.24-1.57,21.95-11.54,24.86-38.64,24.86-42.45v-1.12c0-.45,.11-.56,.34-.56,.78,0,5.94,1.34,7.95,2.58,.45,.22,.78,.67,.78,1.23,0,.67-.67,1.34-2.24,1.79-1.68,.56-1.68,.67-2.46,3.47-.22,1.01-.56,1.9-.9,2.91,2.24,7.39,6.61,14.67,12.99,18.93,0-6.83-.11-14.78-.11-19.49,0-2.46,0-12.54-.34-16.8-5.94,0-15.23,.11-23.07,.9h-.11c-1.68,0-4.82-3.81-4.93-5.15-3.02,2.24-6.27,4.7-9.97,7.06,0,7.73,.11,15.12,.22,21.39,0,.78,.56,10.98,.56,12.99,0,7.5-6.83,10.86-11.54,10.86Zm40.54-58.02c0,1.68-1.79,2.91-3.36,2.91-1.12,0-2.13-.67-2.13-2.24v-.34c.56-7.06,.67-12.1,.67-16.24,0-10.3-.56-16.69-1.34-20.5,0-.22-.11-.45-.11-.67s.11-.34,.34-.34c1.23,0,6.83,3.02,8.06,3.92l.56,.45h19.04c.45,0,1.01-.11,1.46-.78,.45-.67,1.23-2.02,1.9-2.46,.11-.11,.45-.22,.78-.22,1.68,0,7.62,3.92,7.62,5.94,0,1.34-1.68,2.13-2.24,2.58-2.13,1.68-2.13,2.02-2.13,6.94,0,4.48,.45,12.1,.78,18.93v.22c0,1.9-1.79,3.02-3.36,3.02-1.34,0-2.46-.67-2.46-2.46v-2.02h-24.08v3.36Zm-.11-6.27h24.19c0-4.14,.22-7.84,.22-11.2h-24.64c0,3.47,.11,6.94,.22,11.2Zm-.11-17.81v3.7h24.53c0-8.85,0-9.63-1.57-9.63h-20.38l-.45,.34c-2.02,1.46-2.02,.67-2.13,5.6Z" fill="#fff"/>
      <path d="M170.13,205.75c-.67,0-.9,.45-1.9,1.34-17.02,15.57-32.93,17.47-33.6,17.47-.56,0-.78-.11-.78-.34v-.11c-.67,.34-1.46,.56-2.13,.56-1.46,0-2.69-.9-2.69-3.25v-.67c1.46-16.46,2.24-36.06,2.24-49.5v-11.09c-11.98,15.68-20.16,20.05-20.72,20.05-.11,0-.22,0-.22-.11,0-.34,.56-1.01,.9-1.34,8.96-8.51,20.5-25.09,28.67-42.11,1.23-2.58,1.9-5.94,2.35-7.95,.11-.56,.11-.78,.34-.78s.34,.11,.67,.22c.67,.45,7.73,3.92,8.62,4.93,.34,.34,.56,.9,.56,1.34,0,.9-.78,1.79-3.36,2.35-1.9,.45-2.02,.45-3.58,2.8-3.25,4.93-6.5,9.86-9.63,14.34,4.82,.78,5.82,1.46,5.82,2.13,0,.56-.9,1.23-2.24,1.9-3.02,1.46-3.25,1.12-3.36,5.71-.22,8.96-.34,18.14-.34,28.11,0,8.85,.11,18.26,.45,28.56,0,1.46-.67,2.58-1.68,3.36,12.54-3.36,29.57-18.7,30.35-25.2,.11-.67,0-.9,.22-.9,.34,0,8.96,5.26,8.96,7.06,0,.78-.67,1.34-2.02,1.34-.45,0-.9-.11-1.57-.22h-.34Zm6.5-14.78c-6.05,0-21.62,.34-31.58,1.34h-.11c-2.02,0-5.49-4.48-5.49-5.94v-.11c6.16,.78,14.67,1.23,22.29,1.57,0-1.46,.11-4.14,.11-28.34-3.25,.22-6.83,.45-10.98,.9h-.11c-2.02,0-5.38-4.26-5.38-5.71v-.11c5.71,.67,11.42,1.12,16.46,1.46v-11.98c0-5.26-.45-11.2-1.23-14.45v-.34c0-.22,0-.34,.34-.34,1.23,0,10.75,1.34,10.75,3.47,0,.56-.45,1.23-1.23,1.79-2.69,1.79-3.14,0-3.25,6.05,0,4.03-.22,9.74-.22,16.02,2.91,.11,5.6,.11,7.62,.11h8.74v-12.32c0-5.26-.45-11.2-1.23-14.45v-.34c0-.22,0-.34,.34-.34,1.23,0,10.75,1.34,10.75,3.47,0,.56-.45,1.23-1.23,1.79-2.69,1.79-3.25,0-3.36,6.05,0,4.03-.11,9.86-.11,16.13h5.38c.67,0,1.23-.9,1.57-1.46,0-.11,3.58-4.82,5.04-4.82,1.12,0,9.3,4.59,9.3,7.5,0,.78-.56,1.57-2.24,1.57h-19.04c0,3.7-.11,7.62-.11,11.31,0,6.5,.11,12.77,.34,17.7h8.96c.67,0,1.23-.45,1.57-1.01,.11-.11,3.92-5.49,5.38-5.49,1.57,0,9.07,4.93,9.07,7.84,0,.67-.45,1.46-2.13,1.46h-34.94Zm6.5-2.8c.22-8.29,.22-19.6,.22-29.01h-9.3c-2.24,0-4.59,0-7.06,.11v8.18c0,7.5,.11,14.9,.22,20.61,4.37,.11,7.95,.11,10.08,.11h5.82Zm18.48,31.02c-3.25-6.05-15.68-15.23-23.07-20.27-.22-.22-.34-.34-.34-.45s.11-.11,.34-.11c1.68,0,30.8,10.98,30.8,19.49,0,2.35-1.79,4.37-3.81,4.37-1.34,0-2.8-.9-3.92-3.02Z" fill="#fff"/>
      <path d="M274.85,142.02c0-5.82-1.79-6.83-4.37-8.51-.45-.34-.78-.56-.78-1.12s1.23-1.68,3.81-1.68c4.14,0,7.73,2.69,7.73,8.4,0,1.12-.11,2.24-.34,3.47-.67,3.58-1.12,6.94-1.46,10.08,4.82-.45,9.74-.9,15.23-1.12,.78-.11,1.01-.34,1.01-.67,0-.45,0-.56-6.5-5.26-2.24-1.57-3.02-2.35-3.02-2.58,0-.11,.11-.11,.22-.11,.45,0,2.24,.78,3.25,1.23,5.26,2.69,10.42,4.82,14.67,5.49,1.68,.22,12.43,2.24,12.43,6.61,0,1.46-1.23,2.46-3.47,2.46-.67,0-1.46-.11-2.35-.34-7.06-1.9-14.9-2.69-22.85-2.69-3.02,0-6.05,.11-8.96,.34-.34,4.03-.34,7.73-.34,10.86,0,4.03,.34,7.39,.45,9.86,2.24,2.46,3.92,5.94,3.92,11.65,0,21.73-23.63,36.18-29.9,36.18-.45,0-.67-.11-.67-.34,0-.45,.9-1.12,2.58-1.9,5.38-2.24,19.04-14.11,21.62-29.57-2.02,3.02-4.7,5.38-8.18,5.38-2.13,0-4.03-1.23-4.82-2.58-3.92-6.27-4.82-8.06-4.82-13.1,0-7.28,4.93-10.3,10.08-10.3,2.02,0,4.14,.45,5.94,1.34-.11-4.59-.11-10.3-.11-17.02-10.75,1.23-20.94,3.81-29.23,7.28-2.02,.9-4.59,1.46-7.28,1.46-7.17,0-12.43-4.59-12.43-8.29,0-.78,.34-1.12,.78-1.12,.56,0,1.23,.34,2.13,1.23,.78,.78,2.46,1.57,6.72,1.57,1.68,0,3.58-.11,5.6-.45,12.54-1.9,22.74-3.7,33.71-5.04v-11.09Zm.9,40.99c0-.67,0-1.46-.11-2.13,0-.34-.11-.78-.22-1.12-1.68-2.8-4.37-5.15-7.95-5.15-2.91,0-5.38,2.02-5.38,6.16,0,6.5,3.81,11.31,8.18,11.31,.45,0,5.49,0,5.49-9.07Z" fill="#fff"/>
      <path d="M361.31,214.6c13.89-2.91,19.71-12.21,19.71-20.5,0-9.74-7.95-17.47-18.7-17.47-14.45,0-22.4,11.65-24.86,15.12-1.23,1.79-3.47,6.61-4.37,7.95-1.46,2.02-3.02,2.8-4.37,2.8-1.57,0-2.69-1.12-2.69-2.8,0-2.91,7.5-11.87,9.07-13.66,3.58-4.14,6.72-8.62,10.19-13.78,3.58-5.26,11.65-15.23,16.58-22.74,1.01-1.57,1.68-2.8,1.68-3.7,0-1.57-2.13-1.9-3.02-1.9-5.38,0-8.85,9.97-16.02,9.97-2.13,0-6.61-1.01-6.61-5.94,0-.9,.22-1.23,.67-1.23,.56,0,1.34,.45,2.24,.78,.9,.34,1.9,.45,2.91,.45,1.68,0,3.47-.56,4.82-1.68,1.79-1.57,8.29-6.83,14.56-6.83,6.83,0,9.41,4.82,9.41,6.27,0,1.68-1.46,3.36-3.81,5.04-9.97,7.5-23.74,27.66-23.74,28h.11c.11,0,.22,0,.56-.22,5.38-3.25,11.87-5.26,18.26-5.26,13.89,0,23.18,9.41,23.18,20.72,0,13.22-12.66,24.64-31.02,24.64-8.74,0-17.25-4.14-17.25-10.86s6.61-8.29,10.19-8.29c6.38,0,11.87,5.15,11.87,11.09,0,1.34-.34,2.8-1.01,4.26l1.46-.22Zm-5.6-4.03c0-4.14-3.25-7.39-7.39-7.39-2.69,0-5.6,1.34-5.6,4.59,0,4.03,5.71,6.94,11.76,7.28,.9-1.57,1.23-3.02,1.23-4.48Z" fill="#fff"/>
    </g>
  </g>
</svg>