<?xml version="1.0" encoding="UTF-8"?>
<svg id="_レイヤー_2" data-name="レイヤー 2" xmlns="http://www.w3.org/2000/svg" viewBox="0 0 890.27 107.65">
  <g id="_デザイン" data-name="デザイン">
    <g>
      <path d="M.5,3.2H4.96c10.62,0,18.9,2.81,24.84,8.44,5.94,5.63,8.91,13.16,8.91,22.61,0,6.57-1.44,12.4-4.32,17.48-2.88,5.09-6.8,9-11.75,11.74-4.95,2.75-10.49,4.12-16.6,4.12h-1.08v36.85H.5V3.2ZM6.31,63.68c8.19,0,14.89-2.54,20.12-7.63,5.22-5.08,7.83-12.26,7.83-21.53s-2.45-15.59-7.36-20.32c-4.91-4.73-11.86-7.09-20.86-7.09h-1.08V63.68h1.35Z" fill="#fff" stroke="#fff" stroke-miterlimit="10"/>
      <path d="M56.79,3.2h5.81c10.53,0,18.65,2.79,24.37,8.37,5.71,5.58,8.57,13.55,8.57,23.9,0,5.94-1.42,11.39-4.25,16.33-2.84,4.95-6.68,8.84-11.54,11.68-4.86,2.83-10.22,4.25-16.07,4.25h-.94l34.83,36.72h-5.81l-30.65-32.13v32.13h-4.32V3.2Zm6.75,60.62c5.13,0,9.81-1.26,14.04-3.78,4.23-2.52,7.56-5.92,9.99-10.19,2.43-4.27,3.65-9.02,3.65-14.24,0-9.09-2.45-16.11-7.36-21.06-4.91-4.95-11.9-7.42-20.99-7.42h-1.76V63.82h2.43Z" fill="#fff" stroke="#fff" stroke-miterlimit="10"/>
      <path d="M139.95,99.73c-8.1-4.95-14.51-11.54-19.24-19.78s-7.09-17.08-7.09-26.53,2.38-18.11,7.15-26.26c4.77-8.14,11.21-14.62,19.31-19.44,8.1-4.81,16.88-7.22,26.32-7.22s18.31,2.39,26.33,7.16c8.01,4.77,14.38,11.23,19.1,19.37,4.73,8.15,7.09,16.94,7.09,26.39s-2.36,18.7-7.09,26.93c-4.73,8.24-11.12,14.76-19.17,19.58-8.06,4.81-16.85,7.22-26.39,7.22s-18.23-2.48-26.33-7.43Zm50.35-3.17c7.38-4.46,13.25-10.48,17.62-18.09,4.36-7.6,6.55-15.86,6.55-24.77s-2.16-17.01-6.48-24.57-10.17-13.57-17.55-18.02c-7.38-4.46-15.39-6.68-24.03-6.68s-16.79,2.23-24.17,6.68c-7.38,4.46-13.25,10.46-17.62,18.02-4.37,7.56-6.55,15.75-6.55,24.57s2.18,17.17,6.55,24.77c4.36,7.61,10.24,13.63,17.62,18.09,7.38,4.46,15.39,6.68,24.03,6.68s16.65-2.23,24.03-6.68Z" fill="#fff" stroke="#fff" stroke-miterlimit="10"/>
      <path d="M232.5,104.65c-3.38-1.22-6.64-3.17-9.79-5.87v-5.54c5.67,6.21,12.73,9.31,21.19,9.31,7.74,0,13.77-2.41,18.09-7.22,4.32-4.81,6.48-11.95,6.48-21.4V7.12h-24.98V3.2h29.43V73.4c0,10.8-2.61,19.01-7.83,24.64-5.22,5.63-12.38,8.44-21.47,8.44-4.05,0-7.76-.61-11.14-1.82Z" fill="#fff" stroke="#fff" stroke-miterlimit="10"/>
      <path d="M294.26,3.2h36.31v3.92h-31.86V62.2h26.59v3.92h-26.59v34.42h31.86v3.92h-36.31V3.2Z" fill="#fff" stroke="#fff" stroke-miterlimit="10"/>
      <path d="M368.91,100.2c-7.92-4.63-14.2-11.02-18.83-19.17-4.64-8.14-6.95-17.3-6.95-27.47s2.41-18.77,7.22-26.86c4.81-8.1,11.25-14.49,19.31-19.17,8.05-4.68,16.63-7.02,25.72-7.02,6.3,0,11.29,.56,14.99,1.69,3.69,1.13,7.96,3.08,12.82,5.87v5c-4.59-3.15-8.84-5.38-12.76-6.68-3.92-1.3-8.8-1.96-14.65-1.96-8.91,0-17.03,2.27-24.37,6.82-7.34,4.55-13.14,10.62-17.42,18.22-4.28,7.61-6.41,15.77-6.41,24.5s2.16,17.01,6.48,24.57c4.32,7.56,10.06,13.57,17.21,18.02,7.15,4.46,14.87,6.68,23.15,6.68,5.94,0,11.11-.7,15.52-2.09,4.41-1.39,8.82-3.58,13.23-6.55v5c-4.32,2.61-8.75,4.52-13.3,5.74-4.55,1.21-9.52,1.82-14.92,1.82-9.45,0-18.14-2.32-26.06-6.95Z" fill="#fff" stroke="#fff" stroke-miterlimit="10"/>
      <path d="M460.57,7.12h-23.35V3.2h50.9v3.92h-23.08V104.45h-4.46V7.12Z" fill="#fff" stroke="#fff" stroke-miterlimit="10"/>
      <path d="M531.72,92.44v-7.29c2.43,5.4,5.96,9.63,10.6,12.69,4.63,3.06,10.19,4.59,16.67,4.59,4.5,0,8.66-.99,12.49-2.97,3.82-1.98,6.86-4.77,9.11-8.37,2.25-3.6,3.38-7.74,3.38-12.42,0-4.23-.72-7.87-2.16-10.94-1.44-3.06-3.83-6.01-7.15-8.84-3.33-2.83-8.15-6.19-14.45-10.06l-4.32-2.7c-3.96-2.43-7.15-4.59-9.58-6.48-2.43-1.89-4.55-4.09-6.35-6.62-2.34-3.51-3.51-7.56-3.51-12.15,0-6.12,1.98-10.89,5.94-14.31,3.96-3.42,9-5.13,15.12-5.13,8.28,0,14.85,3.06,19.71,9.18v6.89c-2.07-3.78-4.91-6.75-8.5-8.91-3.6-2.16-7.56-3.24-11.88-3.24s-8.28,1.4-11.34,4.19c-3.06,2.79-4.59,6.53-4.59,11.2s1.42,8.53,4.25,11.81c2.83,3.29,7.63,6.86,14.38,10.73,8.28,4.86,14.71,9.27,19.31,13.23,3.24,2.97,5.6,6.26,7.09,9.85,1.48,3.6,2.23,7.61,2.23,12.01,0,5.58-1.31,10.49-3.92,14.72-2.61,4.23-6.21,7.49-10.8,9.79-4.59,2.3-9.77,3.44-15.52,3.44-11.25,0-19.98-4.63-26.19-13.91Z" fill="#fff" stroke="#fff" stroke-miterlimit="10"/>
      <path d="M620.01,7.12h-23.35V3.2h50.9v3.92h-23.08V104.45h-4.46V7.12Z" fill="#fff" stroke="#fff" stroke-miterlimit="10"/>
      <path d="M677.65,99.73c-8.1-4.95-14.51-11.54-19.24-19.78s-7.09-17.08-7.09-26.53,2.38-18.11,7.15-26.26c4.77-8.14,11.21-14.62,19.31-19.44,8.1-4.81,16.88-7.22,26.32-7.22s18.31,2.39,26.33,7.16c8.01,4.77,14.38,11.23,19.1,19.37,4.73,8.15,7.09,16.94,7.09,26.39s-2.36,18.7-7.09,26.93c-4.73,8.24-11.12,14.76-19.17,19.58-8.06,4.81-16.85,7.22-26.39,7.22s-18.23-2.48-26.33-7.43Zm50.35-3.17c7.38-4.46,13.25-10.48,17.62-18.09,4.36-7.6,6.55-15.86,6.55-24.77s-2.16-17.01-6.48-24.57-10.17-13.57-17.55-18.02c-7.38-4.46-15.39-6.68-24.03-6.68s-16.79,2.23-24.17,6.68c-7.38,4.46-13.25,10.46-17.62,18.02-4.37,7.56-6.55,15.75-6.55,24.57s2.18,17.17,6.55,24.77c4.36,7.61,10.24,13.63,17.62,18.09,7.38,4.46,15.39,6.68,24.03,6.68s16.65-2.23,24.03-6.68Z" fill="#fff" stroke="#fff" stroke-miterlimit="10"/>
      <path d="M773.64,3.2h5.81c10.53,0,18.65,2.79,24.37,8.37,5.71,5.58,8.57,13.55,8.57,23.9,0,5.94-1.42,11.39-4.25,16.33-2.84,4.95-6.68,8.84-11.54,11.68-4.86,2.83-10.22,4.25-16.07,4.25h-.94l34.83,36.72h-5.81l-30.65-32.13v32.13h-4.32V3.2Zm6.75,60.62c5.13,0,9.81-1.26,14.04-3.78,4.23-2.52,7.56-5.92,9.99-10.19,2.43-4.27,3.65-9.02,3.65-14.24,0-9.09-2.45-16.11-7.36-21.06-4.91-4.95-11.9-7.42-20.99-7.42h-1.76V63.82h2.43Z" fill="#fff" stroke="#fff" stroke-miterlimit="10"/>
      <path d="M889.47,3.2l-30.1,60.75v40.5h-4.46V63.95l-30.78-60.75h4.86l28.22,55.48,27.67-55.48h4.59Z" fill="#fff" stroke="#fff" stroke-miterlimit="10"/>
    </g>
  </g>
</svg>