<?xml version="1.0" encoding="UTF-8"?>
<svg id="_レイヤー_2" data-name="レイヤー 2" xmlns="http://www.w3.org/2000/svg" viewBox="0 0 620 138.75">
  <g id="_デザイン" data-name="デザイン">
    <g>
      <rect x="0" y="0" width="620" height="138.75" fill="#c81212"/>
      <g>
        <path d="m133.3,82.82c0,.32-3.52,1.04-4.52,2.04-.12.16-.24.2-.36.2-.92,0-8.84-4.04-13.56-11.12.04,4.08.16,8.16.28,11.88v.04c0,1.12-1.12,1.48-1.72,1.48-.64,0-1.16-.32-1.16-1.2v-.16c.2-3.08.36-6.44.44-9.84-6.8,7.52-16.76,9.72-17.96,9.72-.16,0-.24,0-.24-.08s.28-.28.8-.48c5.24-1.84,11.96-6.2,16.8-12.24h-6.2l.04,1.56c0,.72-.84,1.2-1.56,1.2-.56,0-1.04-.28-1.04-.96v-.12c.24-3,.28-6,.28-8.12,0-3.76-.36-6-.48-6.52,0-.12-.04-.2-.04-.24,0-.08.04-.12.08-.12.4,0,3.04,1.32,3.68,1.76l.08.04h5.8l-.08-3.96h-2.56c-2.24,0-7.36.08-10.92.44h-.04c-.72,0-1.88-1.48-1.88-2.04v-.04c4.12.48,10.68.64,13,.64h2.36c-.04-1.6-.12-4.04-.4-5.32-.04-.12-.04-.2-.04-.24,0-.08.04-.08.08-.08.28,0,4.52.64,4.52,1.52,0,.28-.24.52-.64.8-.84.56-.96.24-1.04,1.96l-.08,1.36h8.56c.28,0,.56-.16.68-.36,1.52-2.16,1.8-2.44,2.24-2.44.08,0,.16,0,.24.04,1.36.48,3.56,2.64,3.56,3.28,0,.24-.2.48-.88.48h-14.44l-.12,3.96h6.16c.2,0,.36-.04.52-.24.76-1,.92-1.04,1.12-1.04.8,0,3.4,1.76,3.4,2.36,0,.4-.48.68-.92.92-.72.4-.88.32-.92,1.28,0,.32-.04.72-.04,1.2,0,2.08.16,5.28.32,7.68v.04c0,.72-.72,1.32-1.52,1.32-.56,0-1.08-.32-1.08-1.04v-.96h-6.8c3.4,3.96,9.84,8.48,17.84,9.6.28.04.36.08.36.16Zm-20.52-20.28h-5.96l-.28.16c-.56.36-.6.2-.64,1.52-.04.64-.04,1.4-.04,2.32h6.92v-4Zm0,5h-6.92c0,1.4.04,3,.04,4.52h6.88v-4.52Zm9.12-4.56c0-.12-.16-.44-.52-.44h-6.52c0,1.28-.04,2.64-.04,4h7.16c0-1.4,0-2.64-.08-3.56Zm-7.08,4.56c0,1.48.04,3,.04,4.52h7.04c.04-1.56.08-3.08.08-4.52h-7.16Z" fill="#fff"/>
        <path d="m157.22,79.42c0,.2-.2.36-.64.36-.16,0-.4-.04-.64-.08-.16-.04-.28-.04-.36-.04-.24,0-.36.08-.72.4-4.36,3.52-11.12,5.72-12.32,5.72-.2,0-.32-.04-.32-.12,0-.12.24-.28.76-.48,3.44-1.4,9.92-5.84,10.76-8.4.04-.2.08-.36.2-.36.28,0,3.28,2.32,3.28,3Zm21.56-21.12c0,.24-.2.48-.88.48h-20c-2.24,0-7.44.08-11.04.44h-.04c-.76,0-1.88-1.56-1.88-2.08,4.12.52,10.84.64,13.16.64h2.52v-.72c0-1.96-.12-4.2-.44-5.56-.04-.12-.04-.2-.04-.28t.04-.04c.2,0,4.76.56,4.76,1.48,0,.28-.24.52-.64.8-.92.6-1.04.16-1.16,2.08-.04.64-.08,1.48-.08,2.24h8.84c.28,0,.56-.16.68-.36.56-.88,1.88-2.64,2.32-2.64.84,0,3.88,2.72,3.88,3.52Zm-5.6,6.28c0,.4-.48.68-.96.92q-.8.4-.8,2.16c0,1.6.16,3.84.32,6.32v.08c0,.84-.8,1.32-1.56,1.32-.64,0-1.2-.36-1.2-1.12v-.92h-4.6c.28.08.4.2.4.36s-.16.32-.48.44c-.76.32-.64.28-.76,1.52-.04.76-.08,1.44-.08,2.2,0,.72.04,1.48.04,2.4,0,.68.16,1.84.16,2.68,0,3.52-3.8,4.24-4.44,4.24-.36,0-.52-.2-.76-.56-.52-.76-4.4-2.4-4.4-2.68,0-.04.08-.08.16-.08.12,0,.28.04.52.08,1.64.28,2.92.44,3.88.44,1.68,0,2.44-.48,2.52-1.6.04-.72.08-1.76.08-2.84,0-2.8-.08-5.6-.24-6.6h-6.08v1.2c0,.68-.8,1.16-1.6,1.16-.6,0-1.12-.28-1.12-.96v-.12c.28-3.12.32-5,.32-6.64,0-1.36,0-3.48-.48-5.72-.04-.12-.04-.2-.04-.24,0-.08,0-.12.08-.12.16,0,2.52.84,3.84,1.76l.04.04h12.12c.2,0,.44-.12.6-.32.36-.6.96-1.2,1.24-1.2.52,0,3.28,1.64,3.28,2.4Zm-4.12,3.48c0-1.04,0-2-.08-2.92,0-.16-.08-.44-.44-.44h-12.64l-.2.12q-.88.56-.88,3.76c0,1.12,0,2.48.04,3.76h14.16c.04-1.68.04-3.04.04-4.28Zm8.16,15.08c0,.96-.64,1.76-1.44,1.76-.52,0-1.08-.32-1.6-1.12-1.28-1.96-4.48-4.4-7.16-6.08-.16-.12-.24-.2-.24-.24s.04-.08.16-.08c.4,0,10.28,2.04,10.28,5.76Z" fill="#fff"/>
        <path d="m209.22,82.34c0,.88-.56,1.52-1.44,1.52-.52,0-1.16-.24-1.84-.88-2.56-2.36-6.6-4.64-11.2-6.28-.76-.28-1.16-.48-1.16-.64,0-.08.16-.12.52-.12,3.04,0,15.12,2.28,15.12,6.4Zm-4.2-12.68c0,.8-.6,1.44-1.4,1.44-.44,0-.92-.16-1.44-.56-2.16-1.68-4.32-2.96-7.08-3.6-.6-.12-.92-.28-.92-.36,0-.12.52-.24,2.2-.24,3.88,0,8.64.92,8.64,3.32Zm2.76-8.64c0,.76-.52,1.36-1.32,1.36-.44,0-.96-.16-1.52-.56-2.48-1.72-5.72-2.84-8.92-3.36-.72-.12-1.08-.24-1.08-.36,0-.24,2.44-.44,4.48-.44,6.72,0,8.36,2.04,8.36,3.36Z" fill="#fff"/>
        <path d="m230.26,73.62c0,.76-.44,1.32-1.04,1.32-.4,0-.88-.28-1.36-.88-.76-.96-2.04-2.28-2.92-3-.2-.16-.32-.32-.32-.44,0-.16.2-.28.56-.28,1.76.04,5.08,1.16,5.08,3.28Zm12.72-4.2c0,.8-.96,1.44-1.32,2.16-6.48,12.16-15.04,13.68-15.76,13.68-.2,0-.28-.04-.28-.12,0-.16.32-.4.96-.68,8.04-3.52,13.12-13.64,13.12-14.92,0-.48-.32-.68-.96-.84-.48-.08-.64-.28-.64-.48,0-.28.44-1,1.48-1,1.36,0,3.4,1.24,3.4,2.2Zm-7.88,2.24c0,.8-.48,1.36-1.08,1.36-.44,0-.92-.28-1.36-1.04-.6-1.08-1.68-2.56-2.48-3.4-.16-.2-.24-.36-.24-.44,0-.16.12-.24.36-.24,1.44,0,4.8,1.64,4.8,3.76Z" fill="#fff"/>
        <path d="m270.26,70.86c0,.8-.56,1.44-1.4,1.44-.44,0-1-.2-1.56-.64-2.08-1.68-4.56-3.12-6.8-3.68v2.88c0,4.96.12,10,.16,10.6.08,2.64-.6,3.96-1.4,3.96-.84,0-1.76-1.36-1.76-3.56,0-.56.08-1.2.2-1.84.24-1.28.32-1.08.48-2.48.24-1.92.36-6.92.36-11.16,0-8-.48-9.52-1.88-9.6-.56-.04-.8-.2-.8-.48,0-.16.32-.92,1.24-.92,1.28,0,4.24,1.64,4.24,3.6,0,.84-.4,1.76-.56,3.28-.16,1.28-.24,3.2-.28,5.32.16,0,.36-.04.56-.04.6,0,1.24-.04,1.88-.04,5.92,0,7.32,2.12,7.32,3.36Zm1.04-8.12c0,.76-.52,1.32-1.16,1.32-.32,0-.72-.2-1.08-.6-1.04-1.24-2.36-2.2-3.44-2.8-.32-.16-.6-.28-.6-.4,0-.04.56-.24,1.56-.24,2.16,0,4.72.92,4.72,2.72Zm4.16-1.96c0,.72-.52,1.28-1.16,1.28-.32,0-.68-.16-1.04-.52-1.12-1.2-2.44-2.16-3.52-2.72-.32-.16-.64-.28-.64-.36,0-.32,1.68-.32,1.76-.32,2.2,0,4.6.92,4.6,2.64Z" fill="#fff"/>
        <path d="m309.18,61.26c0,.4-.4.76-1.16,1-.72.2-1.32,1.08-2.16,2.32-1.28,1.92-2.56,3.72-3.88,5.44,1.44.68,3.56,1.96,3.56,3.6,0,.8-.48,1.4-1.2,1.4-.48,0-1.04-.28-1.6-.88-.68-.72-1.48-1.4-2.4-2.08-9.36,11.08-19.36,12.28-19.4,12.28-.16,0-.24-.04-.24-.08,0-.16.44-.44,1.24-.76,6.2-2.56,11.88-7.32,16.4-12.8-1.28-.76-2.6-1.44-3.84-1.96-.64-.24-.96-.44-.96-.52s.16-.12.48-.12c.64,0,2.88.2,5.56,1.04,1.88-2.4,4.72-6.64,4.72-7.4,0-.4-.32-.6-1.04-.6-.84,0-2.16.28-4.08.88-.4.12-.72.2-1,.2-.16,0-.36-.04-.52-.08-4.48,5.48-7.92,9.08-12.44,11.12-.48.2-.8.32-.96.32-.08,0-.12,0-.12-.04,0-.12.24-.36.72-.72,5.88-4.4,11.6-12.88,11.6-14.08,0-.64-.56-1.04-1.4-1.24-.36-.08-.52-.24-.52-.44,0-.16.4-1.08,1.64-1.08,1.64,0,3.56,1.52,3.56,2.76,0,.6-.32,1.16-.76,1.72.08,0,4.64-.52,5.52-1.12.44-.28.76-.52,1.12-.52.44,0,3.56,1.44,3.56,2.44Z" fill="#fff"/>
        <path d="m348.34,63.86c0,.36-.24.76-.72,1.04-.68.44-1.24.56-1.76,1.72-4.24,9.28-10.04,15.56-18.76,18.32-.68.2-1.08.28-1.32.28-.12,0-.2,0-.2-.08,0-.12.44-.44,1.24-.8,11.56-5.48,16.88-19.12,16.88-19.8,0-.52-.44-.72-.96-.72-2,0-9.28.92-11.92,1.64-.48.12-.84.2-1.2.2-.16,0-.28-.04-.44-.04l.12.72c1.04,5.12,1.16,5.88,1.16,6.72,0,.16,0,1.92-1.16,1.92-1.04,0-1.6-1.68-1.6-3.12,0-.72.16-1,.16-1.84,0-.92-.6-3.52-.8-4.08-.64-1.84-2.2-3.12-3.76-3.12h-.36c-.44,0-.8-.12-.8-.36,0-.08.44-1.24,2.24-1.24.44,0,3.4.4,4.28,2.52h.36c1,0,4.2-.32,5.96-.52v-2.84c-.04-2.44-1.12-3.36-2.36-3.48-.64-.08-1-.2-1-.48,0,0,.28-1.04,1.92-1.04.08,0,4.44.4,4.44,2.36,0,.84-.76,1.84-.84,2.88-.04.88-.12,1.64-.16,2.4,2.04-.2,3.96-.4,4.56-.48,1.16-.16,1.52-1.16,2.48-1.16s4.32,1.32,4.32,2.48Z" fill="#fff"/>
        <path d="m370.54,67.3c-.44,0-.96-.2-1.52-.72-2.08-1.96-4.2-2.92-6.72-3.88-.36-.12-.52-.24-.52-.32,0-.12,1.08-.32,2.68-.32,5.32,0,7.52,1.84,7.52,3.56,0,.44-.16,1.68-1.44,1.68Zm.64,13.76c-1.08.68-1.28,1.76-2.4,1.76-1.2,0-4.76-1.84-4.76-3.76,0-.12.08-1.24.44-1.24.16,0,.32.2.6.52.48.56,1.12.88,1.96.88,4.92,0,18.92-13.2,23.36-18.36.48-.56.72-.76.8-.76l.04.04c0,.8-6.16,12-20.04,20.92Z" fill="#fff"/>
        <path d="m426.58,57.22c0,.48-.52.8-1.24,1.16-.8.4-.84.48-.84,5.96,0,5.88.2,15.36.36,20.32v.08c0,.8-.72,1.6-1.76,1.6-.64,0-1.24-.36-1.24-1.2v-.04c0-.64.04-1.32.04-2h-14.36v1.92c0,.92-.96,1.52-1.8,1.52-.64,0-1.2-.36-1.2-1.24v-.12c.28-4.52.36-9.96.36-15.12,0-11.72-.32-14.08-.64-15.44-.04-.16-.04-.24-.04-.28,0-.08,0-.12.04-.12.4,0,3.24,1.12,4.28,1.88l.16.12h12.16c.24,0,.48-.16.64-.36.44-.56,1.24-1.32,1.52-1.32.4,0,3.56,1.8,3.56,2.68Zm-4.72.68c0-.28-.2-.56-.52-.56h-12.8l-.32.24c-.68.44-.72.64-.72,1.72,0,1.6-.04,5.12-.04,9.28h14.52c0-4.44,0-8.36-.12-10.68Zm-14.4,11.76c0,3.96,0,8.4.04,12.36h14.4c.04-4,.08-8.36.08-12.36h-14.52Z" fill="#fff"/>
        <path d="m441.78,85.54c-.4.16-.6.68-.92.68-.52,0-2.6-2.92-2.6-3.4,0-.04.04-.04.16-.04,2,0,3.48-.16,6.8-1v-23.24c0-1.52-.12-4.32-.4-5.68-.04-.16-.04-.24-.04-.28s0-.04.04-.04c.48,0,4.64.64,4.64,1.48,0,.24-.28.52-.68.8-.88.56-1,.16-1.04,1.88,0,.72-.04,4.52-.04,9.04h2.6c.24,0,.48-.16.6-.36.68-.96,1.6-2.08,2-2.08.08,0,.16.04.24.04,1.24.52,3.12,2.2,3.12,2.88,0,.28-.16.52-.8.52h-7.76c-.04,5.28-.08,11.24-.08,14.4,2.96-.8,6.32-1.84,8.92-2.88.16-.08.32-.12.4-.12.16,0,.24.08.24.16,0,.88-10.2,5.36-15.4,7.24Zm32.11-2.48c0,1.04-1.6,2.2-4.8,2.44-1,.08-2.96.12-4.56.12-5,0-6.48-1-6.48-3.96v-.28c.08-4.64.16-19.72.2-23.24,0-1.36-.08-3.68-.28-5.24,0-.12-.04-.24-.04-.28,0-.12.04-.16.16-.16.44,0,4.24.72,4.24,1.64,0,.28-.28.6-.8.84-.52.24-.76.08-.84,1.4-.08.88-.12,5.96-.16,11.32,2.32-1.52,8.08-5.56,8.6-7.56.04-.16.04-.2.12-.2.44,0,3.44,2.6,3.44,3.28,0,.32-.24.52-.84.52-.16,0-.36,0-.56-.04-.16-.04-.32-.04-.44-.04-.16,0-.28,0-.48.12-2.32,1.44-6.76,3.64-9.84,4.84-.04,5.4-.04,10.8-.04,12.16.04,2.2.16,2.52,4.92,2.52,1.2,0,2.44-.04,3.28-.16,1.96-.28,2.52-3.52,3.44-7.84.08-.32.12-.44.16-.44.28,0,.08,6.64.8,7.08.52.32.8.72.8,1.16Z" fill="#fff"/>
        <path d="m522.22,73.26c0,.36-3.44,1.36-4.2,2.32-.12.16-.24.2-.36.2-1.16,0-9.68-4.72-14.8-12.4l-.28.36c-2.36,2.96-5.12,5.64-7.92,7.8.8.32,2,.84,2.64,1.28l.04.04h10.28c.2,0,.4-.04.56-.24.8-.92.96-.92,1-.92.52,0,3.4,2.08,3.4,2.64,0,.28-.28.52-.68.72-.76.4-.8.44-.8,2.76,0,1.96.16,4.92.32,7.28v.08c0,.8-.8,1.28-1.52,1.28-.6,0-1.16-.32-1.16-1.08v-1.24h-12.4l.04,1.56c0,.6-.56,1.2-1.6,1.2-.56,0-1.08-.28-1.08-.96v-.12c.28-3.04.32-6.28.32-8.44,0-2.92-.12-4.4-.24-5.16-4.52,3.32-8.84,4.72-9.76,4.72-.12,0-.2-.04-.2-.08,0-.08.2-.24.64-.44,5.28-2.6,11.04-7.36,15.64-13.92.48-.72.88-1.76,1.12-2.4.04-.16.04-.28.16-.28.08,0,3.56,1.8,3.56,2.64,0,.32-.36.6-1.24.6h-.2c3.04,3.72,11.72,9.6,18.4,10.08.24,0,.32.04.32.12Zm-22.76-17.72c0,.32-.32.56-1.04.56h-.52c-.28,0-.36.08-.76.48-5.96,5.76-10.76,7.16-11.2,7.16-.08,0-.16,0-.16-.08s.24-.28.68-.56c2.64-1.56,8.8-7.24,9.32-9.92.04-.2,0-.4.16-.4.2,0,3.52,2.04,3.52,2.76Zm9.36,22.64c0-1.52,0-2.88-.08-3.84,0-.12-.08-.44-.48-.44h-11q-.88.44-.92,1.68c-.04.72-.04,1.68-.04,2.76,0,1.44,0,3.12.04,4.76h12.44c.04-1.68.04-3.4.04-4.92Zm7.6-17.92c0,.96-.6,1.72-1.4,1.72-.56,0-1.24-.4-1.84-1.44-1.2-2.12-4.28-4.92-6.96-6.88-.16-.12-.24-.2-.24-.28,0-.04.04-.08.12-.08.36,0,10.32,2.96,10.32,6.96Z" fill="#fff"/>
      </g>
      <line x1="60.51" y1="69.37" y2="69.37" fill="none" stroke="#fff" stroke-miterlimit="10" stroke-width="1.16"/>
      <line x1="620" y1="69.37" x2="559.49" y2="69.37" fill="none" stroke="#fff" stroke-miterlimit="10" stroke-width="1.16"/>
    </g>
  </g>
</svg>