<?xml version="1.0" encoding="UTF-8"?>
<svg xmlns="http://www.w3.org/2000/svg" xmlns:xlink="http://www.w3.org/1999/xlink" viewBox="0 0 399.3 346.6">
  <defs>
    <linearGradient id="GradientFill_4" data-name="GradientFill 4" x1="178.65" y1="72.04" x2="181.19" y2="72.04" gradientUnits="userSpaceOnUse">
      <stop offset="0" stop-color="#b28359"/>
      <stop offset=".21" stop-color="#70371c"/>
      <stop offset=".59" stop-color="#4b2912"/>
      <stop offset=".78" stop-color="#43250f"/>
      <stop offset=".89" stop-color="#582e15"/>
      <stop offset="1" stop-color="#976334"/>
    </linearGradient>
    <linearGradient id="_名称未設定グラデーション_2" data-name="名称未設定グラデーション 2" x1="174.23" y1="57.07" x2="185.43" y2="68.27" gradientUnits="userSpaceOnUse">
      <stop offset="0" stop-color="#a9d38f"/>
      <stop offset="1" stop-color="#809787"/>
    </linearGradient>
    <linearGradient id="GradientFill_4-2" data-name="GradientFill 4" x1="201.07" y1="86.91" x2="203.28" y2="86.91" xlink:href="#GradientFill_4"/>
    <linearGradient id="GradientFill_10" data-name="GradientFill 10" x1="197.21" y1="72.11" x2="206.98" y2="81.88" gradientUnits="userSpaceOnUse">
      <stop offset="0" stop-color="#94c859"/>
      <stop offset="1" stop-color="#809787"/>
    </linearGradient>
    <linearGradient id="GradientFill_4-3" data-name="GradientFill 4" x1="287.28" y1="137.12" x2="289.49" y2="137.12" xlink:href="#GradientFill_4"/>
    <linearGradient id="GradientFill_10-2" data-name="GradientFill 10" x1="283.42" y1="122.32" x2="293.19" y2="132.09" xlink:href="#GradientFill_10"/>
    <linearGradient id="GradientFill_4-4" data-name="GradientFill 4" x1="223.41" y1="98.54" x2="226.1" y2="98.54" xlink:href="#GradientFill_4"/>
    <linearGradient id="GradientFill_10-3" data-name="GradientFill 10" x1="218.72" y1="80.55" x2="230.6" y2="92.43" xlink:href="#GradientFill_10"/>
    <linearGradient id="GradientFill_4-5" data-name="GradientFill 4" x1="309.62" y1="148.75" x2="312.31" y2="148.75" xlink:href="#GradientFill_4"/>
    <linearGradient id="GradientFill_10-4" data-name="GradientFill 10" x1="304.93" y1="130.76" x2="316.8" y2="142.64" xlink:href="#GradientFill_10"/>
    <linearGradient id="GradientFill_4-6" data-name="GradientFill 4" x1="244.79" y1="112.26" x2="247" y2="112.26" xlink:href="#GradientFill_4"/>
    <linearGradient id="GradientFill_10-5" data-name="GradientFill 10" x1="240.93" y1="97.46" x2="250.7" y2="107.23" xlink:href="#GradientFill_10"/>
    <linearGradient id="GradientFill_4-7" data-name="GradientFill 4" x1="331" y1="162.47" x2="333.21" y2="162.47" xlink:href="#GradientFill_4"/>
    <linearGradient id="GradientFill_10-6" data-name="GradientFill 10" x1="327.14" y1="147.67" x2="336.91" y2="157.44" xlink:href="#GradientFill_10"/>
    <linearGradient id="GradientFill_4-8" data-name="GradientFill 4" x1="267.58" y1="123.81" x2="270.14" y2="123.81" xlink:href="#GradientFill_4"/>
    <linearGradient id="GradientFill_10-7" data-name="GradientFill 10" x1="263.09" y1="106.62" x2="274.44" y2="117.97" xlink:href="#GradientFill_10"/>
    <linearGradient id="GradientFill_4-9" data-name="GradientFill 4" x1="353.78" y1="174.03" x2="356.35" y2="174.03" xlink:href="#GradientFill_4"/>
    <linearGradient id="GradientFill_10-8" data-name="GradientFill 10" x1="349.3" y1="156.83" x2="360.65" y2="168.18" xlink:href="#GradientFill_10"/>
    <linearGradient id="_名称未設定グラデーション_1610" data-name="名称未設定グラデーション 1610" x1="-11762.42" y1="219.11" x2="-11712.86" y2="219.11" gradientTransform="translate(-11508.3) rotate(-180) scale(1 -1)" gradientUnits="userSpaceOnUse">
      <stop offset="0" stop-color="#1a221e"/>
      <stop offset=".07" stop-color="#1a2321"/>
      <stop offset=".66" stop-color="#1d2c3d"/>
      <stop offset="1" stop-color="#1e3048"/>
    </linearGradient>
    <linearGradient id="_名称未設定グラデーション_1567" data-name="名称未設定グラデーション 1567" x1="-11712.92" y1="219.11" x2="-11663.04" y2="219.11" gradientTransform="translate(-11508.3) rotate(-180) scale(1 -1)" gradientUnits="userSpaceOnUse">
      <stop offset="0" stop-color="#477388"/>
      <stop offset="1" stop-color="#192241"/>
    </linearGradient>
    <linearGradient id="_名称未設定グラデーション_1570" data-name="名称未設定グラデーション 1570" x1="-11754.15" y1="137.39" x2="-11712.66" y2="137.39" gradientTransform="translate(-11508.3) rotate(-180) scale(1 -1)" gradientUnits="userSpaceOnUse">
      <stop offset="0" stop-color="#b3cae5"/>
      <stop offset="1" stop-color="#c4e4de"/>
    </linearGradient>
    <linearGradient id="_名称未設定グラデーション_1567-2" data-name="名称未設定グラデーション 1567" x1="-11712.89" y1="137.39" x2="-11671.12" y2="137.39" xlink:href="#_名称未設定グラデーション_1567"/>
    <linearGradient id="_名称未設定グラデーション_2789" data-name="名称未設定グラデーション 2789" x1="155.31" y1="55.58" x2="254.64" y2="55.58" gradientUnits="userSpaceOnUse">
      <stop offset="0" stop-color="#86b9da"/>
      <stop offset="1" stop-color="#c1d6dd"/>
    </linearGradient>
    <linearGradient id="_名称未設定グラデーション_1357" data-name="名称未設定グラデーション 1357" x1="-11660.09" y1="318.32" x2="-11618.09" y2="318.32" gradientTransform="translate(-11298.97) rotate(-180) scale(1 -1)" gradientUnits="userSpaceOnUse">
      <stop offset="0" stop-color="#8fbcd3"/>
      <stop offset=".08" stop-color="#97c0d5"/>
      <stop offset=".47" stop-color="#b8d1e0"/>
      <stop offset=".79" stop-color="#cddce6"/>
      <stop offset="1" stop-color="#d5e0e9"/>
    </linearGradient>
    <linearGradient id="_名称未設定グラデーション_1326" data-name="名称未設定グラデーション 1326" x1="-11618.09" y1="313.67" x2="-11560.9" y2="313.67" gradientTransform="translate(-11298.97) rotate(-180) scale(1 -1)" gradientUnits="userSpaceOnUse">
      <stop offset="0" stop-color="#2f5473"/>
      <stop offset=".25" stop-color="#3a607a"/>
      <stop offset=".72" stop-color="#59828f"/>
      <stop offset="1" stop-color="#6f9a9d"/>
    </linearGradient>
    <linearGradient id="_名称未設定グラデーション_1357-2" data-name="名称未設定グラデーション 1357" x1="-11661.1" y1="250.4" x2="-11618.89" y2="250.4" xlink:href="#_名称未設定グラデーション_1357"/>
    <linearGradient id="_名称未設定グラデーション_1326-2" data-name="名称未設定グラデーション 1326" x1="-11619.19" y1="245.13" x2="-11559.8" y2="245.13" xlink:href="#_名称未設定グラデーション_1326"/>
    <linearGradient id="_名称未設定グラデーション_1326-3" data-name="名称未設定グラデーション 1326" x1="-13754.86" y1="111.32" x2="-13720.35" y2="111.32" gradientTransform="translate(13875.57)" xlink:href="#_名称未設定グラデーション_1326"/>
    <linearGradient id="_名称未設定グラデーション_1357-3" data-name="名称未設定グラデーション 1357" x1="-13828.24" y1="100.01" x2="-13754.51" y2="100.01" gradientTransform="translate(13875.57)" xlink:href="#_名称未設定グラデーション_1357"/>
    <linearGradient id="_名称未設定グラデーション_1326-4" data-name="名称未設定グラデーション 1326" x1="-13781.59" y1="122.85" x2="-13781.59" y2="113.48" gradientTransform="translate(13875.57)" xlink:href="#_名称未設定グラデーション_1326"/>
    <linearGradient id="_名称未設定グラデーション_1326-5" data-name="名称未設定グラデーション 1326" x1="-13781.59" y1="111.71" x2="-13781.59" y2="102.34" gradientTransform="translate(13875.57)" xlink:href="#_名称未設定グラデーション_1326"/>
    <linearGradient id="_名称未設定グラデーション_1326-6" data-name="名称未設定グラデーション 1326" x1="-13781.59" y1="100.56" x2="-13781.59" y2="91.19" gradientTransform="translate(13875.57)" xlink:href="#_名称未設定グラデーション_1326"/>
    <linearGradient id="_名称未設定グラデーション_1326-7" data-name="名称未設定グラデーション 1326" x1="-13781.59" y1="89.41" x2="-13781.59" y2="80.04" gradientTransform="translate(13875.57)" xlink:href="#_名称未設定グラデーション_1326"/>
    <linearGradient id="_名称未設定グラデーション_1326-8" data-name="名称未設定グラデーション 1326" x1="-13781.59" y1="78.26" x2="-13781.59" y2="68.89" gradientTransform="translate(13875.57)" xlink:href="#_名称未設定グラデーション_1326"/>
    <linearGradient id="_名称未設定グラデーション_1326-9" data-name="名称未設定グラデーション 1326" x1="-13781.59" y1="67.12" x2="-13781.59" y2="57.75" gradientTransform="translate(13875.57)" xlink:href="#_名称未設定グラデーション_1326"/>
    <linearGradient id="_名称未設定グラデーション_1326-10" data-name="名称未設定グラデーション 1326" x1="-13781.78" y1="133.31" x2="-13781.78" y2="124.11" gradientTransform="translate(13875.57)" xlink:href="#_名称未設定グラデーション_1326"/>
    <linearGradient id="_名称未設定グラデーション_1626" data-name="名称未設定グラデーション 1626" x1="47.6" y1="167.74" x2="95.36" y2="167.74" gradientUnits="userSpaceOnUse">
      <stop offset="0" stop-color="#31757b"/>
      <stop offset=".36" stop-color="#33777e"/>
      <stop offset=".7" stop-color="#3a7f8a"/>
      <stop offset="1" stop-color="#458a9b"/>
    </linearGradient>
    <linearGradient id="_名称未設定グラデーション_1166" data-name="名称未設定グラデーション 1166" x1="0" y1="167.74" x2="48.08" y2="167.74" gradientUnits="userSpaceOnUse">
      <stop offset="0" stop-color="#b9c9c3"/>
      <stop offset="1" stop-color="#add6d2"/>
    </linearGradient>
    <linearGradient id="_名称未設定グラデーション_1787" data-name="名称未設定グラデーション 1787" x1="129.08" y1="260.55" x2="171.75" y2="260.55" gradientUnits="userSpaceOnUse">
      <stop offset="0" stop-color="#273c5a"/>
      <stop offset="1" stop-color="#6f8c9d"/>
    </linearGradient>
    <linearGradient id="_名称未設定グラデーション_979" data-name="名称未設定グラデーション 979" x1="86.37" y1="260.55" x2="129.32" y2="260.55" gradientUnits="userSpaceOnUse">
      <stop offset="0" stop-color="#b2c7d0"/>
      <stop offset="1" stop-color="#a5afc7"/>
    </linearGradient>
    <linearGradient id="_名称未設定グラデーション_979-2" data-name="名称未設定グラデーション 979" x1="90.67" y1="219.99" x2="167.7" y2="219.99" xlink:href="#_名称未設定グラデーション_979"/>
  </defs>
  <g isolation="isolate">
    <g id="_レイヤー_2" data-name="レイヤー 2">
      <g id="_レイヤー_1-2" data-name="レイヤー 1">
        <g id="top-section-03-park-over-layer">
          <g>
            <g>
              <path d="m181.19,65.53v12.3c0,.09-.03.19-.09.28-.06.09-.15.17-.28.24-.25.14-.57.21-.9.21s-.65-.07-.9-.21c-.12-.07-.22-.15-.28-.24-.06-.09-.09-.18-.09-.28v-12.3c0,.09.03.19.09.28.06.09.15.17.28.24.25.14.57.21.9.21s.65-.07.9-.21c.12-.07.22-.15.28-.24.06-.09.09-.18.09-.28Z" fill="url(#GradientFill_4)" fill-rule="evenodd"/>
              <path d="m179.92,54.92c4.33,0,7.84,3.51,7.84,7.84s-3.51,7.84-7.84,7.84-7.84-3.51-7.84-7.84,3.51-7.84,7.84-7.84Z" fill="url(#_名称未設定グラデーション_2)" fill-rule="evenodd"/>
              <path d="m203.28,82.96v7.26c0,.08-.03.16-.08.24-.05.08-.13.15-.24.21-.22.12-.5.19-.78.19s-.57-.06-.78-.19c-.11-.06-.19-.13-.24-.21-.05-.08-.08-.16-.08-.24v-7.26c0,.08.03.16.08.24s.13.15.24.21c.22.12.5.19.78.19s.57-.06.78-.19c.11-.06.19-.13.24-.21s.08-.16.08-.24Z" fill="url(#GradientFill_4-2)" fill-rule="evenodd"/>
              <path d="m202.18,70.23c3.78,0,6.84,3.06,6.84,6.84s-3.06,6.84-6.84,6.84-6.84-3.06-6.84-6.84,3.06-6.84,6.84-6.84Z" fill="url(#GradientFill_10)" fill-rule="evenodd"/>
              <path d="m289.49,133.17v7.26c0,.08-.03.16-.08.24-.05.08-.13.15-.24.21-.22.12-.5.19-.78.19s-.57-.06-.78-.19c-.11-.06-.19-.13-.24-.21s-.08-.16-.08-.24v-7.26c0,.08.03.16.08.24.05.08.13.15.24.21.22.12.5.19.78.19s.57-.06.78-.19c.11-.06.19-.13.24-.21.05-.08.08-.16.08-.24Z" fill="url(#GradientFill_4-3)" fill-rule="evenodd"/>
              <path d="m288.39,120.45c3.78,0,6.84,3.06,6.84,6.84s-3.06,6.84-6.84,6.84-6.84-3.06-6.84-6.84,3.06-6.84,6.84-6.84Z" fill="url(#GradientFill_10-2)" fill-rule="evenodd"/>
              <path d="m226.1,93.74v8.82c0,.1-.03.2-.1.29-.07.09-.16.18-.3.26-.26.15-.61.23-.95.23s-.69-.08-.95-.23c-.13-.08-.23-.16-.3-.26-.07-.09-.1-.19-.1-.29v-8.82c0,.1.03.2.1.29.07.09.16.18.3.26.26.15.61.23.95.23s.69-.08.95-.23c.13-.08.23-.16.3-.26.07-.09.1-.19.1-.29Z" fill="url(#GradientFill_4-4)" fill-rule="evenodd"/>
              <path d="m224.75,78.27c4.59,0,8.31,3.72,8.31,8.31s-3.72,8.31-8.31,8.31-8.31-3.72-8.31-8.31,3.72-8.31,8.31-8.31Z" fill="url(#GradientFill_10-3)" fill-rule="evenodd"/>
              <path d="m312.31,143.95v8.82c0,.1-.03.2-.1.29-.07.09-.16.18-.3.26-.26.15-.61.23-.95.23s-.69-.08-.95-.23c-.13-.08-.23-.16-.3-.26-.07-.09-.1-.19-.1-.29v-8.82c0,.1.03.2.1.29.07.09.16.18.3.26.26.15.61.23.95.23s.69-.08.95-.23c.13-.08.23-.16.3-.26.07-.09.1-.19.1-.29Z" fill="url(#GradientFill_4-5)" fill-rule="evenodd"/>
              <circle cx="310.96" cy="136.8" r="8.31" fill="url(#GradientFill_10-4)"/>
              <path d="m247,108.31v7.26c0,.08-.03.16-.08.24-.05.08-.13.15-.24.21-.22.12-.5.19-.78.19s-.57-.06-.78-.19c-.11-.06-.19-.13-.24-.21-.05-.08-.08-.16-.08-.24v-7.26c0,.08.03.16.08.24s.13.15.24.21c.22.12.5.19.78.19s.57-.06.78-.19c.11-.06.19-.13.24-.21s.08-.16.08-.24Z" fill="url(#GradientFill_4-6)" fill-rule="evenodd"/>
              <path d="m245.89,95.59c3.78,0,6.84,3.06,6.84,6.84s-3.06,6.84-6.84,6.84-6.84-3.06-6.84-6.84,3.06-6.84,6.84-6.84Z" fill="url(#GradientFill_10-5)" fill-rule="evenodd"/>
              <path d="m333.21,158.53v7.26c0,.08-.03.16-.08.24-.05.08-.13.15-.24.21-.22.12-.5.19-.78.19s-.57-.06-.78-.19c-.11-.06-.19-.13-.24-.21s-.08-.16-.08-.24v-7.26c0,.08.03.16.08.24.05.08.13.15.24.21.22.12.5.19.78.19s.57-.06.78-.19c.11-.06.19-.13.24-.21.05-.08.08-.16.08-.24Z" fill="url(#GradientFill_4-7)" fill-rule="evenodd"/>
              <path d="m332.1,145.8c3.78,0,6.84,3.06,6.84,6.84s-3.06,6.84-6.84,6.84-6.84-3.06-6.84-6.84,3.06-6.84,6.84-6.84Z" fill="url(#GradientFill_10-6)" fill-rule="evenodd"/>
              <path d="m270.14,119.22v8.44c0,.09-.03.19-.09.28-.06.09-.16.17-.28.25-.25.14-.58.22-.91.22s-.66-.07-.91-.22c-.13-.07-.22-.16-.28-.25-.06-.09-.09-.18-.09-.28v-8.44c0,.09.03.19.09.28.06.09.16.17.28.25.25.14.58.22.91.22s.66-.07.91-.22c.13-.07.22-.16.28-.25.06-.09.09-.18.09-.28Z" fill="url(#GradientFill_4-8)" fill-rule="evenodd"/>
              <circle cx="268.86" cy="112.38" r="7.95" fill="url(#GradientFill_10-7)"/>
              <path d="m356.35,169.44v8.44c0,.09-.03.19-.09.28-.06.09-.16.17-.28.25-.25.14-.58.22-.91.22s-.66-.07-.91-.22c-.13-.07-.22-.16-.28-.25-.06-.09-.09-.18-.09-.28v-8.44c0,.09.03.19.09.28.06.09.16.17.28.25.25.14.58.22.91.22s.66-.07.91-.22c.13-.07.22-.16.28-.25.06-.09.09-.18.09-.28Z" fill="url(#GradientFill_4-9)" fill-rule="evenodd"/>
              <circle cx="355.07" cy="162.59" r="7.95" fill="url(#GradientFill_10-8)"/>
            </g>
            <g>
              <path d="m367.89,132.11c.86-.44,1.88-.37,2.66.2l5.65,3.95c.19.13.23.39.1.58-.13.18-.39.23-.58.1l-5.65-3.95c-.54-.39-1.21-.43-1.8-.13-.59.3-.94.88-.94,1.54v28.47c0,.23-.19.41-.41.41s-.41-.19-.41-.41v-28.47c0-.97.53-1.84,1.39-2.28Z" fill="#898b8e"/>
              <path d="m377.19,136.77s.61.69,0,1.15c-.61.46-1.51,0-1.51,0l-1.53-1.14-.61-1.36.57-.66,3.09,2.01Z" fill="#898b8e"/>
              <path d="m366.95,158.91c.37,0,.66.3.66.66v4.02c0,.37-.3.66-.66.66s-.66-.3-.66-.66v-4.02c0-.37.3-.66.66-.66Z" fill="#898b8e"/>
            </g>
            <g>
              <path d="m379.06,126.79c.86-.44,1.88-.37,2.66.2l5.65,3.95c.19.13.23.39.1.58-.13.18-.39.23-.58.1l-5.65-3.95c-.54-.39-1.21-.43-1.8-.13-.59.3-.94.88-.94,1.54v28.47c0,.23-.19.41-.41.41s-.41-.19-.41-.41v-28.47c0-.97.53-1.84,1.39-2.28Z" fill="#898b8e"/>
              <path d="m388.36,131.46s.61.69,0,1.15c-.61.46-1.51,0-1.51,0l-1.53-1.14-.61-1.36.57-.66,3.09,2.01Z" fill="#898b8e"/>
              <path d="m378.11,153.59c.37,0,.66.3.66.66v4.02c0,.37-.3.66-.66.66s-.66-.3-.66-.66v-4.02c0-.37.3-.66.66-.66Z" fill="#898b8e"/>
            </g>
            <g>
              <path d="m389.73,122.74c.86-.44,1.88-.37,2.66.2l5.65,3.95c.19.13.23.39.1.58-.13.18-.39.23-.58.1l-5.65-3.95c-.54-.39-1.21-.43-1.8-.13-.59.3-.94.88-.94,1.54v28.47c0,.23-.19.41-.41.41s-.41-.19-.41-.41v-28.47c0-.97.53-1.84,1.39-2.28Z" fill="#898b8e"/>
              <path d="m399.03,127.4s.61.69,0,1.15c-.61.46-1.51,0-1.51,0l-1.53-1.14-.61-1.36.57-.66,3.09,2.01Z" fill="#898b8e"/>
              <path d="m388.78,149.54c.37,0,.66.3.66.66v4.02c0,.37-.3.66-.66.66s-.66-.3-.66-.66v-4.02c0-.37.3-.66.66-.66Z" fill="#898b8e"/>
            </g>
          </g>
          <g>
            <g>
              <polygon points="254.13 193.78 254.07 215.68 204.56 244.45 204.63 222.54 254.13 193.78" fill="url(#_名称未設定グラデーション_1610)"/>
              <polygon points="204.63 222.54 204.56 244.45 154.74 215.68 154.8 193.78 204.63 222.54" fill="url(#_名称未設定グラデーション_1567)"/>
              <polygon points="226.29 231.73 234.18 227.18 234.18 210.29 226.29 214.85 226.29 231.73" fill="#9fc8d5" opacity=".5"/>
              <path d="m226.38,216.03c.14,0,.29-.04.42-.11l7.89-4.56c.41-.23.55-.75.31-1.16-.23-.41-.75-.55-1.16-.31l-7.89,4.56c-.41.23-.55.75-.31,1.16.16.27.44.42.74.42Z" fill="#9fb9d7"/>
              <polygon points="254.13 193.78 204.63 222.54 154.8 193.78 204.3 165.01 254.13 193.78" fill="#b8dfd3"/>
            </g>
            <polygon points="163.17 215.23 156.6 211.43 156.6 199.58 163.17 203.37 163.17 215.23" fill="#386b88" opacity=".6"/>
            <polygon points="172.89 208.99 166.32 205.19 166.32 217.05 172.89 220.84 172.89 208.99" fill="#386b88" opacity=".6"/>
            <polygon points="182.62 214.75 176.05 210.95 176.05 222.81 182.62 226.6 182.62 214.75" fill="#386b88" opacity=".6"/>
            <polygon points="192.15 232.11 185.58 228.31 185.58 216.46 192.15 220.26 192.15 232.11" fill="#386b88" opacity=".6"/>
            <polygon points="201.88 225.87 195.3 222.08 195.3 233.93 201.88 237.72 201.88 225.87" fill="#386b88" opacity=".6"/>
            <g opacity=".5">
              <polygon points="246.24 203.46 252.81 199.67 252.81 211.52 246.24 215.31 246.24 203.46" fill="#9fc8d5"/>
              <polygon points="236.51 220.93 243.08 217.13 243.08 205.28 236.51 209.08 236.51 220.93" fill="#9fc8d5"/>
            </g>
            <g>
              <polygon points="217.17 220.34 223.74 216.55 223.74 228.4 217.17 232.2 217.17 220.34" fill="#9fc8d5" opacity=".5"/>
              <polygon points="207.45 237.81 214.02 234.02 214.02 222.16 207.45 225.96 207.45 237.81" fill="#9fc8d5" opacity=".5"/>
            </g>
            <g>
              <polygon points="245.86 57.65 245.62 193.14 204.36 217.12 204.59 81.63 245.86 57.65" fill="url(#_名称未設定グラデーション_1570)"/>
              <polygon points="204.59 81.63 204.36 217.12 162.83 193.14 163.06 57.65 204.59 81.63" fill="url(#_名称未設定グラデーション_1567-2)"/>
              <polygon points="245.86 58.58 204.59 82.56 163.06 58.58 204.32 34.6 245.86 58.58" fill="#e2effa"/>
            </g>
            <g opacity=".5">
              <path d="m236.17,74.13l6.57-3.79v11.85l-6.57,3.8v-11.85Zm-9.73,17.47l6.57-3.79v-11.85l-6.57,3.79v11.85Zm9.73-1.73l6.57-3.79v11.85s-6.57,3.79-6.57,3.79v-11.85Zm-9.73,17.47l6.57-3.79v-11.85s-6.57,3.79-6.57,3.79v11.85Zm9.73-1.73l6.57-3.79v11.85s-6.57,3.79-6.57,3.79v-11.85Zm-9.73,17.47l6.57-3.79v-11.85l-6.57,3.79v11.85Zm9.73-1.73l6.57-3.79v11.85s-6.57,3.79-6.57,3.79v-11.85Zm-9.73,17.47l6.57-3.79v-11.85l-6.57,3.79v11.85Zm9.73-1.73l6.57-3.79v11.85s-6.57,3.79-6.57,3.79v-11.85Zm-9.73,17.47l6.57-3.79v-11.85s-6.57,3.79-6.57,3.79v11.85Z" fill="#72acbb"/>
              <path d="m217.39,84.88l6.57-3.79v11.85s-6.57,3.8-6.57,3.8v-11.85Zm-9.73,17.47l6.57-3.79v-11.85l-6.57,3.79v11.85Zm9.73-1.73l6.57-3.79v11.85s-6.57,3.79-6.57,3.79v-11.85Zm-9.73,17.47l6.57-3.79v-11.85s-6.57,3.79-6.57,3.79v11.85Zm9.73-1.73l6.57-3.79v11.85s-6.57,3.79-6.57,3.79v-11.85Zm-9.73,17.47l6.57-3.79v-11.85l-6.57,3.79v11.85Zm9.73-1.73l6.57-3.79v11.85s-6.57,3.79-6.57,3.79v-11.85Zm-9.73,17.47l6.57-3.79v-11.85l-6.57,3.79v11.85Zm9.73-1.73l6.57-3.79v11.85s-6.57,3.79-6.57,3.79v-11.85Zm-9.73,17.47l6.57-3.79v-11.85s-6.57,3.79-6.57,3.79v11.85Z" fill="#72acbb"/>
              <polygon points="236.17 152.59 242.75 148.8 242.75 160.65 236.17 164.45 236.17 152.59" fill="#72acbb"/>
              <polygon points="226.45 170.06 233.02 166.27 233.02 154.41 226.45 158.21 226.45 170.06" fill="#72acbb"/>
              <polygon points="236.17 168.33 242.75 164.54 242.75 176.39 236.17 180.19 236.17 168.33" fill="#72acbb"/>
              <polygon points="226.45 185.8 233.02 182.01 233.02 170.15 226.45 173.95 226.45 185.8" fill="#72acbb"/>
              <polygon points="236.17 184.07 242.75 180.28 242.75 192.13 236.17 195.92 236.17 184.07" fill="#72acbb"/>
              <polygon points="226.45 201.54 233.02 197.74 233.02 185.89 226.45 189.69 226.45 201.54" fill="#72acbb"/>
              <polygon points="217.39 163.34 223.96 159.55 223.96 171.4 217.39 175.19 217.39 163.34" fill="#72acbb"/>
              <polygon points="207.66 180.81 214.24 177.01 214.24 165.16 207.66 168.96 207.66 180.81" fill="#72acbb"/>
              <polygon points="217.39 179.08 223.96 175.28 223.96 187.14 217.39 190.93 217.39 179.08" fill="#72acbb"/>
              <polygon points="207.66 196.55 214.24 192.75 214.24 180.9 207.66 184.69 207.66 196.55" fill="#72acbb"/>
              <polygon points="217.39 194.82 223.96 191.02 223.96 202.88 217.39 206.67 217.39 194.82" fill="#72acbb"/>
              <polygon points="207.66 212.29 214.24 208.49 214.24 196.64 207.66 200.43 207.66 212.29" fill="#72acbb"/>
            </g>
            <g>
              <g>
                <polygon points="196.05 148.31 198.58 146.84 198.61 135 196.09 136.47 196.05 148.31" fill="#6c99bb"/>
                <polygon points="196.09 136.47 198.61 135 168.35 117.53 165.83 119 196.09 136.47" fill="#38405b"/>
                <polygon points="165.83 119 165.79 130.84 196.05 148.31 196.09 136.47 165.83 119" fill="#386b88"/>
              </g>
              <g>
                <polygon points="196.05 132.63 198.58 131.16 198.61 119.32 196.09 120.79 196.05 132.63" fill="#6c99bb"/>
                <polygon points="196.09 120.79 198.61 119.32 168.35 101.85 165.83 103.32 196.09 120.79" fill="#38405b"/>
                <polygon points="165.83 103.32 165.79 115.16 196.05 132.63 196.09 120.79 165.83 103.32" fill="#386b88"/>
              </g>
              <g>
                <polygon points="196.05 117.02 198.58 115.55 198.61 103.71 196.09 105.18 196.05 117.02" fill="#6c99bb"/>
                <polygon points="196.09 105.18 198.61 103.71 168.35 86.24 165.83 87.71 196.09 105.18" fill="#38405b"/>
                <polygon points="165.83 87.71 165.79 99.55 196.05 117.02 196.09 105.18 165.83 87.71" fill="#386b88"/>
              </g>
              <g>
                <polygon points="196.05 101.4 198.58 99.94 198.61 88.1 196.09 89.57 196.05 101.4" fill="#6c99bb"/>
                <polygon points="196.09 89.57 198.61 88.1 168.35 70.63 165.83 72.1 196.09 89.57" fill="#38405b"/>
                <polygon points="165.83 72.1 165.79 83.93 196.05 101.4 196.09 89.57 165.83 72.1" fill="#386b88"/>
              </g>
              <g>
                <polygon points="196.05 163.9 198.58 162.43 198.61 150.59 196.09 152.06 196.05 163.9" fill="#6c99bb"/>
                <polygon points="196.09 152.06 198.61 150.59 168.35 133.12 165.83 134.59 196.09 152.06" fill="#38405b"/>
                <polygon points="165.83 134.59 165.79 146.43 196.05 163.9 196.09 152.06 165.83 134.59" fill="#386b88"/>
              </g>
              <g>
                <polygon points="196.05 179.49 198.58 178.02 198.61 166.18 196.09 167.65 196.05 179.49" fill="#6c99bb"/>
                <polygon points="196.09 167.65 198.61 166.18 168.35 148.71 165.83 150.18 196.09 167.65" fill="#38405b"/>
                <polygon points="165.83 150.18 165.79 162.02 196.05 179.49 196.09 167.65 165.83 150.18" fill="#386b88"/>
              </g>
              <g>
                <polygon points="196.05 195.08 198.58 193.62 198.61 181.78 196.09 183.24 196.05 195.08" fill="#6c99bb"/>
                <polygon points="196.09 183.24 198.61 181.78 168.35 164.31 165.83 165.77 196.09 183.24" fill="#38405b"/>
                <polygon points="165.83 165.77 165.79 177.61 196.05 195.08 196.09 183.24 165.83 165.77" fill="#386b88"/>
              </g>
              <g>
                <polygon points="196.05 210.68 198.58 209.21 198.61 197.37 196.09 198.84 196.05 210.68" fill="#6c99bb"/>
                <polygon points="196.09 198.84 198.61 197.37 168.35 179.9 165.83 181.37 196.09 198.84" fill="#38405b"/>
                <polygon points="165.83 181.37 165.79 193.21 196.05 210.68 196.09 198.84 165.83 181.37" fill="#386b88"/>
              </g>
              <polygon points="196.09 183.24 196.08 184.47 195.38 182.84 196.09 183.24" fill="#94d4f1" mix-blend-mode="overlay" opacity=".25"/>
            </g>
            <g>
              <polygon points="254.64 55.58 254.57 61.62 205.07 90.38 205.13 84.35 254.64 55.58" fill="#a6c1ca"/>
              <polygon points="205.13 84.35 205.07 90.38 155.25 61.62 155.31 55.58 205.13 84.35" fill="#d3e6ea"/>
              <polygon points="254.64 55.58 205.13 84.35 155.31 55.58 204.81 26.81 254.64 55.58" fill="url(#_名称未設定グラデーション_2789)"/>
            </g>
            <g>
              <path d="m222.78,220.16h-5.14v22.84h0v.14h.04c.05.33.27.66.71.92,1.01.58,2.63.58,3.63,0,.44-.26.66-.59.71-.92h.05v-22.98Z" fill="#93afc7"/>
              <path d="m256.03,201.13h-5.14v22.84h0v.14h.04c.05.33.27.66.71.92,1.01.58,2.63.58,3.63,0,.44-.26.66-.59.71-.92h.05v-22.98Z" fill="#c3d6ea"/>
              <path d="m256.03,201.13h-5.14v22.84h0v.14h.04c.05.33.27.66.71.92,1.01.58,2.63.58,3.63,0,.44-.26.66-.59.71-.92h.05v-22.98Z" fill="#93afc7"/>
              <g>
                <polygon points="260.94 199.52 219.64 223.52 204.39 214.74 245.69 190.74 260.94 199.52" fill="#f9fafb"/>
                <polygon points="260.94 199.52 260.93 201.95 219.64 225.95 219.64 223.52 260.94 199.52" fill="#a6c1ca"/>
                <polygon points="219.64 223.52 219.64 225.95 204.38 217.17 204.39 214.74 219.64 223.52" fill="#d3e6ea"/>
              </g>
              <g>
                <polygon points="255.53 197.87 220.44 218.26 207.49 210.8 242.57 190.41 255.53 197.87" fill="#f9fafb"/>
                <polygon points="255.53 197.87 255.52 199.93 220.44 220.32 220.44 218.26 255.53 197.87" fill="#a6c1ca"/>
                <polygon points="220.44 218.26 220.44 220.32 207.48 212.86 207.49 210.8 220.44 218.26" fill="#d3e6ea"/>
              </g>
            </g>
          </g>
          <g>
            <g>
              <polygon points="361.11 322.38 319.12 346.6 319.12 314.2 361.11 290.04 361.11 322.38" fill="url(#_名称未設定グラデーション_1357)"/>
              <polygon points="361.11 322.38 319.12 346.6 319.12 314.2 361.11 290.04 361.11 322.38" fill="url(#_名称未設定グラデーション_1357)"/>
            </g>
            <g opacity=".6">
              <polygon points="357.03 301.1 357.17 316.56 346.85 322.62 346.85 307.25 357.03 301.1" fill="#72acbb"/>
            </g>
            <g opacity=".6">
              <polygon points="344.95 308.15 345.08 323.6 334.77 329.57 334.77 314.2 344.95 308.15" fill="#72acbb"/>
            </g>
            <g opacity=".6">
              <polygon points="333.04 315.06 333.18 330.55 322.9 336.53 322.9 321.24 333.04 315.06" fill="#72acbb"/>
            </g>
            <path d="m261.92,280.81v32.34s57.2,33.38,57.2,33.38v-32.32s-57.2-33.39-57.2-33.39Z" fill="url(#_名称未設定グラデーション_1326)"/>
            <polygon points="272.21 297.23 272.15 317.78 282.47 323.76 282.47 303.39 272.21 297.23" fill="#283e51"/>
            <polygon points="306.6 315.06 306.52 330.55 316.85 336.53 316.85 321.24 306.6 315.06" fill="#283e51"/>
            <polygon points="294.12 308.39 294.08 323.52 304.4 329.57 304.4 314.45 294.12 308.39" fill="#283e51"/>
            <g>
              <polygon points="291.5 330.26 288.29 332.13 288.29 307.25 291.5 305.4 291.5 330.26" fill="#90b7c7"/>
              <polygon points="288.29 332.13 282.05 328.43 282.05 303.56 288.29 307.25 288.29 332.13" fill="#386b88"/>
            </g>
            <g>
              <polygon points="271.38 318.76 268.2 320.59 268.2 295.75 271.38 293.9 271.38 318.76" fill="#90b7c7"/>
              <polygon points="268.2 320.59 261.96 317.01 261.96 292.13 268.2 295.75 268.2 320.59" fill="#386b88"/>
            </g>
            <g>
              <polygon points="253.04 283.8 301.34 255.51 368.06 294.17 319.16 322.54 253.04 283.8" fill="#fff"/>
              <g>
                <path d="m319.12,322.54v2.89s48.95-28.38,48.95-28.38v-2.88s-48.95,28.37-48.95,28.37Z" fill="#aabecc"/>
                <polygon points="253.04 286.68 253.08 283.8 319.12 322.54 319.12 325.43 253.04 286.68" fill="#5b859c"/>
              </g>
            </g>
            <g>
              <polygon points="263.81 280.81 259.02 277.98 303 252.41 363.84 288 359.06 290.83 319.83 313.6 263.81 280.81" fill="#fff"/>
              <polygon points="320.22 310.87 268.02 280.18 267.55 279.92 302.56 259.55 355.32 290.46 354.84 290.73 320.22 310.87" fill="#c3c6ce"/>
              <g>
                <polygon points="363.9 288 363.9 293.55 319.73 319.12 319.73 313.6 363.9 288" fill="#aabecc"/>
                <polygon points="259.02 283.62 259.06 278.17 319.83 313.76 319.73 313.76 319.73 319.2 319.83 319.2 259.02 283.62" fill="#5b859c"/>
              </g>
              <g>
                <polygon points="359.14 288.27 355.4 290.46 302.7 259.55 302.7 255.24 359.14 288.27" fill="#b2b5bd"/>
                <polygon points="302.66 255.24 302.7 255.24 302.7 259.55 302.66 259.55 267.6 279.92 263.81 277.72 302.66 255.24" fill="#cfd3dd"/>
              </g>
            </g>
            <polygon points="361.34 188.63 319.91 213.59 319.96 312.17 362.13 287.66 361.34 188.63" fill="url(#_名称未設定グラデーション_1357-2)"/>
            <polygon points="320.22 312.09 260.83 277.03 260.83 178.17 320.1 213.33 320.22 312.09" fill="url(#_名称未設定グラデーション_1326-2)"/>
            <g opacity=".6">
              <polygon points="289.65 200.85 317.72 216.93 317.72 233 291.13 217.8 262.12 200.94 262.12 184.85 289.65 200.85" fill="#bcd4db"/>
              <polygon points="292.9 237.66 317.72 251.81 317.72 267.88 294.38 254.61 262.12 235.89 262.12 219.82 292.9 237.66" fill="#bcd4db"/>
              <polygon points="292.9 220.18 317.72 234.33 317.72 250.4 294.38 237.13 262.12 218.41 262.12 202.34 292.9 220.18" fill="#bcd4db"/>
              <polygon points="294.52 255.93 317.72 269.21 317.72 285.2 296.01 272.9 262.12 253.21 262.12 237.13 294.52 255.93" fill="#bcd4db"/>
              <polygon points="296.15 274.47 317.72 286.78 317.72 302.86 297.68 291.44 262.12 270.77 262.12 254.7 296.15 274.47" fill="#bcd4db"/>
            </g>
            <polygon points="330.85 212.27 360.02 195.75 360.12 211.3 332.17 227.11 321.76 233.09 321.76 217.37 330.85 212.27" fill="#fff" opacity=".5"/>
            <polygon points="332.35 229.06 360.02 213.41 360.12 228.96 333.71 243.98 321.76 250.75 321.76 235.02 332.35 229.06" fill="#fff" opacity=".5"/>
            <polygon points="333.84 245.93 360.02 231.15 360.12 246.7 335.16 260.85 321.76 268.51 321.76 252.78 333.84 245.93" fill="#fff" opacity=".5"/>
            <polygon points="335.34 262.7 360.02 248.82 360.12 264.37 336.64 277.64 321.76 286.16 321.76 270.44 335.34 262.7" fill="#fff" opacity=".5"/>
            <polygon points="336.82 279.57 360.02 266.48 360.12 282.03 338.19 294.51 321.76 303.82 321.76 288.11 336.82 279.57" fill="#fff" opacity=".5"/>
            <polygon points="263.25 177.39 258.45 174.67 302.39 149.1 363.27 184.67 358.49 187.39 319.26 210.16 263.25 177.39" fill="#fff"/>
            <polygon points="319.65 207.43 267.41 176.86 266.96 176.6 301.98 156.21 354.75 187.15 354.26 187.31 319.65 207.43" fill="#cfe0e2"/>
            <g>
              <polygon points="363.31 184.67 363.31 190.22 319.16 215.79 319.16 210.16 363.31 184.67" fill="#aabecc"/>
              <polygon points="258.45 180.2 258.49 174.75 319.2 210.09 319.16 210.34 319.16 215.79 319.26 215.79 258.45 180.2" fill="#5b859c"/>
            </g>
            <g>
              <polygon points="358.57 184.93 354.84 187.15 302.13 156.21 302.13 151.82 358.57 184.93" fill="#7395ac"/>
              <polygon points="302.03 151.82 302.13 151.82 302.13 156.21 302.03 156.21 266.96 176.6 263.25 174.4 302.03 151.82" fill="#aabecc"/>
            </g>
            <g>
              <g>
                <polygon points="314.2 190.83 332.74 180.11 322.11 173.96 303.57 184.67 314.2 190.83" fill="#fff"/>
                <polygon points="303.57 187.15 314.2 193.37 314.2 190.83 303.57 184.67 303.57 187.15" fill="#5b859c"/>
                <polygon points="314.2 193.37 332.74 182.66 332.74 180.11 314.2 190.83 314.2 193.37" fill="#aabecc"/>
              </g>
              <g>
                <polygon points="315.56 185.99 327.6 179.06 321.46 175.54 309.4 182.47 315.56 185.99" fill="#fff"/>
                <polygon points="309.4 184.67 315.56 188.19 315.56 185.99 309.4 182.47 309.4 184.67" fill="#5b859c"/>
                <polygon points="315.56 188.19 327.6 181.17 327.6 179.06 315.56 185.99 315.56 188.19" fill="#aabecc"/>
              </g>
            </g>
          </g>
          <g>
            <path d="m248.55,242.69l.35-.34s.23.11.4.27c.04.04.08.13.1.19l.1.62-.07.1-.19-.43c-.04.25-.11.77-.15.84-.17.36-.48.48-.64.38-.12-.07-.04-.17.05-.46l.04-1.18Z" fill="#3f3f3e"/>
            <g>
              <path d="m247.99,236.46c0,.23-.09.86-.09.86l-.29,2.69c.16.19.38.5.57.91.3.67.6,1.22.72,1.44,0,0,.07.04.17.1.12.28-.19,1.48-.29,1.48-.04,0-.22-.04-.27-.05,0,0,0,0,0,0l.04-1.18s-1.14-1.31-1.84-2.17c-.07-.08-.11-.25-.09-.38-.14-.93-.34-2.69-.34-2.69l-.62-1.56,2.06-.33s.28-.13.27.89Z" fill="#edcdac"/>
              <path d="m249.07,242.45h0s0,0,.01,0c0,0,0,0-.01,0Z" fill="#f1b4a6"/>
              <path d="m249.09,242.46s.01,0,.02.01c0,0,0,0-.02-.01Z" fill="#f1b4a6"/>
            </g>
            <g>
              <path d="m244.14,244.27c.07-.02.08-.05.23-.2.26-.26.62-.75.67-.96l.52.02s.14.45.06.76c0,0-.07.09-.37.15-.29.06-.55.47-.8.56-.21.07-.49.04-.55.02,0,0-.07-.02-.07-.1,0,0,.02-.18.3-.25Z" fill="#3f3f3e"/>
              <path d="m244.37,244.07c.26-.26.62-.75.67-.96-.02-.27-.08-1.03-.3-2.82-.03-.24-.07-.6-.09-.84-.02-.09-.03-.19-.02-.28.09-.69.27-1.68.73-4.01l1.08,1.92-.88,2.59c.03.23.17,1.15.17,1.56,0,.48-.15,1.93-.15,1.93,0,0,0,0,0,0,0,.03.02.09.04.16-.01.04-.01.04-.03.08-.01.02-.02.05-.03.07-.17.28-.46.39-.71.57-.24.17-.47.28-.7.24,0,0,.01,0,.02,0,.07-.02.08-.05.23-.2Z" fill="#edcdac"/>
              <path d="m243.97,235.26l.33.12c.07.29-.11.54-.18.7l-.04.15v.22s.02.22-.08.18l-.04-.22-.02.05s.05.29-.09.27l-.04-.12c0,.08-.01.18-.1.17l-.05-.17c-.05.08-.1.05-.1.05v-.38s.02-.01.02-.03c-.05.03-.08,0-.08,0l.08-.53.38-.44Z" fill="#edcdac"/>
              <polygon points="245.37 233.57 244.42 235.56 243.97 235.26 244.79 233.4 245.37 233.57" fill="#f1b4a6"/>
              <path d="m247.89,235.33s.26.92.21,1.96l-.12,2.68s-.56.74-2.2.16c-1.27-.45-1.33-.93-1.33-.93l.91-4.04,2.53.17Z" fill="#3f3f3e"/>
              <path d="m246.44,230.37s-.04.22-.31.95c-.26.74-.76,2.24-.76,2.24l-.58-.17s.63-2.72.67-2.85c.06-.21.49-.57.98-.17Z" fill="#f1b4a6"/>
              <path d="m245.46,230.55c.06-.21.49-.57.98-.18,0,0-.04.22-.31.95-.26.74-.76,2.32-.76,2.32l-.96,1.92-.44-.3.82-1.86s.63-2.72.67-2.85Z" fill="#91b69a"/>
              <path d="m245.11,232.16l.22-.63.22-.55c.04-.17.02-.38.05-.49.07-.25.22-.29.22-.29,0,0,.04-.03.17-.04.48-.04,1.67.02,2.19,1.01.2.38-.42,1.55-.52,3.02,0,.06,0,.11.01.17l.32,1.35c-1.16.78-2.82-.04-2.82-.04l.34-1.52-.19-1.22s-.35-.26-.22-.77Z" fill="#91b69a"/>
              <path d="m246.13,230.69c-.05-.09.05-.49.58-.59.34-.07.55.24.55.24,0,0,.03.32-.49.48-.12.04-.18.04-.26.04-.07,0-.39.39-.39.39,0,0,.04-.52.01-.57Z" fill="#edcdac"/>
              <path d="m247.13,229.8c-.04.25.08.5.08.5l-.66.25c-.14.05-.29-.05-.3-.2,0-.31,0-.65,0-.65l.87.1Z" fill="#edcdac"/>
              <path d="m247.54,228.61l-.1.68c-.15.86-.92.95-.92.95-.46.12-.66-.34-.66-.82l.05-1.1,1.63.29Z" fill="#edcdac"/>
              <g>
                <path d="m248.94,236.48h.01s.09.78.09.78l-.08.28-.18.16s-.08.11-.09.13c-.04.07-.13.06-.12-.02v-.08s0-.22,0-.22l-.11-.32v.27c-.06.2-.11.17-.11.17l-.05-.61.21-.63.43.09Z" fill="#edcdac"/>
                <path d="m247.87,230.99c.13-.02.26.05.31.17.07.15.17.42.3.85.22.75.47,1.93.47,1.93l-.7.2s-.79-2.23-.82-2.36c-.03-.12.01-.73.45-.8Z" fill="#f1b4a6"/>
                <path d="m248.96,234.32c0,.19-.01,2.16-.01,2.16l-.44-.09s-.15-1.64-.27-2.24l.7-.2s0,.18.02.38Z" fill="#f1b4a6"/>
                <path d="m247.87,230.99c.13-.02.26.05.31.17.07.15.17.42.3.85.22.75.47,1.93.47,1.93,0,0,0,.18.02.38,0,.19-.01,2.16-.01,2.16l-.44-.09s-.15-1.64-.27-2.24c0,0-.79-2.23-.82-2.36-.03-.12.01-.73.45-.8Z" fill="#91b69a"/>
              </g>
            </g>
            <path d="m247.54,229.19c.17-.81-.22-1.12-.41-1.22-.2-.11-.73-.2-1.13.18-.13.13-.34.42-.21.79,0,0,.55.24,1.07.07.09-.03.16.05.19.12.04.11.05.73.05.73.06.27,0,.58.62.73,0,0-.27-.93-.17-1.41Z" fill="#33383c"/>
            <path d="m247.14,229.13c.14,0,.13.12.07.24-.1.2-.19.16-.19.16l-.03-.34s0-.06.15-.06Z" fill="#edcdac"/>
            <path d="m247.16,230.15l.21.25c-.08.59-.71.81-.71.81l-.15-.34c.33-.08.65-.71.65-.71Z" fill="#fff"/>
            <path d="m246.2,230.23h.05v.11c-.13.2-.12.35-.12.35l-.23-.13c.07-.16.3-.34.3-.34Z" fill="#fff"/>
            <polygon points="246.13 230.69 245.88 230.84 245.9 230.56 246.13 230.69" fill="#ddd"/>
            <path d="m248.98,236.48c-.09.02-.47-.09-.47-.09l-.03-.29h.51v.38Z" fill="#fff"/>
            <polygon points="244.57 235.34 244.42 235.56 243.93 235.26 244.02 235.05 244.57 235.34" fill="#fff"/>
            <polygon points="245.62 243.89 245.44 244.53 245.33 244.57 245.33 244.01 245.62 243.89" fill="#3f3f3e"/>
            <polygon points="245.33 244.57 245.27 244.53 245.26 244.04 245.33 244.03 245.33 244.57" fill="#3f3f3e"/>
            <polygon points="249.44 243.54 249.37 243.54 249.22 243.29 249.25 243.11 249.44 243.54" fill="#3f3f3e"/>
          </g>
          <g>
            <path d="m119.44,195.47l-.35-.34s-.23.11-.4.27c-.04.04-.08.13-.1.19l-.1.62.07.1.19-.43c.04.25.11.77.15.84.17.36.48.48.64.38.12-.07.04-.17-.05-.46l-.04-1.18Z" fill="#3f3f3e"/>
            <g>
              <path d="m120.01,189.23c0,.23.09.86.09.86l.29,2.69c-.16.19-.38.5-.57.91-.3.67-.6,1.22-.72,1.44,0,0-.07.04-.17.1-.12.28.19,1.48.29,1.48.04,0,.22-.04.27-.05,0,0,0,0,0,0l-.04-1.18s1.14-1.31,1.84-2.17c.07-.08.11-.25.09-.38.14-.93.34-2.69.34-2.69l.62-1.56-2.06-.33s-.28-.13-.27.89Z" fill="#edcdac"/>
              <path d="m118.93,195.23h0s0,0-.01,0c0,0,0,0,.01,0Z" fill="#f1b4a6"/>
              <path d="m118.91,195.24s-.01,0-.02.01c0,0,0,0,.02-.01Z" fill="#f1b4a6"/>
            </g>
            <g>
              <path d="m123.86,197.05c-.07-.02-.08-.05-.23-.2-.26-.26-.62-.75-.67-.96l-.52.02s-.14.45-.06.76c0,0,.07.09.37.15.29.06.55.47.8.56.21.07.49.04.55.02,0,0,.07-.02.07-.1,0,0-.02-.18-.3-.25Z" fill="#3f3f3e"/>
              <path d="m123.63,196.84c-.26-.26-.62-.75-.67-.96.02-.27.08-1.03.3-2.82.03-.24.07-.6.09-.84.02-.09.03-.19.02-.28-.09-.69-.27-1.68-.73-4.01l-1.08,1.92.88,2.59c-.03.23-.17,1.15-.17,1.56,0,.48.15,1.93.15,1.93,0,0,0,0,0,0,0,.03-.02.09-.04.16.01.04.01.04.03.08.01.02.02.05.03.07.17.28.46.39.71.57.24.17.47.28.7.24,0,0-.01,0-.02,0-.07-.02-.08-.05-.23-.2Z" fill="#edcdac"/>
              <path d="m124.03,188.04l-.33.12c-.07.29.11.54.18.7l.04.15v.22s-.02.22.08.18l.04-.22.02.05s-.05.29.09.27l.04-.12c0,.08.01.18.1.17l.05-.17c.05.08.1.05.1.05v-.38s-.02-.01-.02-.03c.05.03.08,0,.08,0l-.08-.53-.38-.44Z" fill="#edcdac"/>
              <polygon points="122.63 186.34 123.58 188.34 124.03 188.04 123.21 186.17 122.63 186.34" fill="#f1b4a6"/>
              <path d="m120.11,188.1s-.26.92-.21,1.96l.12,2.68s.56.74,2.2.16c1.27-.45,1.33-.93,1.33-.93l-.91-4.04-2.53.17Z" fill="#3f3f3e"/>
              <path d="m121.56,183.14s.04.22.31.95c.26.74.76,2.24.76,2.24l.58-.17s-.63-2.72-.67-2.85c-.06-.21-.49-.57-.98-.18Z" fill="#f1b4a6"/>
              <path d="m122.54,183.32c-.06-.21-.49-.57-.98-.18,0,0,.04.22.31.95.26.74.76,2.32.76,2.32l.96,1.92.44-.3-.82-1.86s-.63-2.72-.67-2.85Z" fill="#91b69a"/>
              <path d="m122.89,184.94l-.22-.63-.22-.55c-.04-.17-.02-.38-.05-.49-.07-.25-.22-.29-.22-.29,0,0-.04-.03-.17-.04-.48-.04-1.67.02-2.19,1.01-.2.38.42,1.55.52,3.02,0,.06,0,.11-.01.17l-.32,1.35c1.16.78,2.82-.04,2.82-.04l-.34-1.52.19-1.22s.35-.26.22-.77Z" fill="#91b69a"/>
              <path d="m121.87,183.46c.05-.09-.05-.49-.58-.59-.34-.07-.55.24-.55.24,0,0-.03.32.49.48.12.04.18.04.26.04.07,0,.39.39.39.39,0,0-.04-.52-.01-.57Z" fill="#edcdac"/>
              <path d="m120.87,182.57c.04.25-.08.5-.08.5l.66.25c.14.05.29-.05.3-.2,0-.31,0-.65,0-.65l-.87.1Z" fill="#edcdac"/>
              <path d="m120.46,181.39l.1.68c.15.86.92.95.92.95.46.12.66-.34.66-.82l-.05-1.1-1.63.29Z" fill="#edcdac"/>
              <g>
                <path d="m119.06,189.25h-.01s-.09.78-.09.78l.08.28.18.16s.08.11.09.13c.04.07.13.06.12-.02v-.08s0-.22,0-.22l.11-.32v.27c.06.2.11.17.11.17l.05-.61-.21-.63-.43.09Z" fill="#edcdac"/>
                <path d="m120.13,183.76c-.13-.02-.26.05-.31.17-.07.15-.17.42-.3.85-.22.75-.47,1.93-.47,1.93l.7.2s.79-2.23.82-2.36c.03-.12-.01-.73-.45-.8Z" fill="#f1b4a6"/>
                <path d="m119.04,187.1c0,.19.01,2.16.01,2.16l.44-.09s.15-1.64.27-2.24l-.7-.2s0,.18-.02.38Z" fill="#f1b4a6"/>
                <path d="m120.13,183.76c-.13-.02-.26.05-.31.17-.07.15-.17.42-.3.85-.22.75-.47,1.93-.47,1.93,0,0,0,.18-.02.38,0,.19.01,2.16.01,2.16l.44-.09s.15-1.64.27-2.24c0,0,.79-2.23.82-2.36.03-.12-.01-.73-.45-.8Z" fill="#91b69a"/>
              </g>
            </g>
            <path d="m120.46,181.97c-.17-.81.22-1.12.41-1.22.2-.11.73-.2,1.13.18.13.13.34.42.21.79,0,0-.55.24-1.07.07-.09-.03-.16.05-.19.12-.04.11-.05.73-.05.73-.06.27,0,.58-.62.73,0,0,.27-.93.17-1.41Z" fill="#33383c"/>
            <path d="m120.86,181.9c-.14,0-.13.12-.07.24.1.2.19.16.19.16l.03-.34s0-.06-.15-.06Z" fill="#edcdac"/>
            <path d="m120.84,182.92l-.21.25c.08.59.71.81.71.81l.15-.34c-.33-.08-.65-.71-.65-.71Z" fill="#fff"/>
            <path d="m121.8,183h-.05v.11c.13.2.12.35.12.35l.23-.13c-.07-.16-.3-.34-.3-.34Z" fill="#fff"/>
            <polygon points="121.87 183.46 122.12 183.61 122.1 183.34 121.87 183.46" fill="#ddd"/>
            <path d="m119.02,189.26c.09.02.47-.09.47-.09l.03-.29h-.51v.38Z" fill="#fff"/>
            <polygon points="123.43 188.12 123.58 188.34 124.07 188.04 123.98 187.82 123.43 188.12" fill="#fff"/>
            <polygon points="122.37 196.66 122.56 197.31 122.67 197.34 122.67 196.79 122.37 196.66" fill="#3f3f3e"/>
            <polygon points="122.67 197.34 122.73 197.31 122.74 196.82 122.67 196.8 122.67 197.34" fill="#3f3f3e"/>
            <polygon points="118.56 196.31 118.63 196.31 118.78 196.06 118.75 195.88 118.56 196.31" fill="#3f3f3e"/>
          </g>
          <g>
            <path d="m73.37,254.27s-.05.09.14.32c.19.23.26.28.36.26.1-.02.2-.22,0-.37-.2-.15-.25-.25-.5-.2Z" fill="#1a1a1a"/>
            <path d="m73.5,254.37s-.19-.1-.42.02c-.24.12-.74.19-.74.19,0,0-.02.13.12.15h.21s-.41.26-.64.33c-.06.02-.02.19.15.18,0,0,.2.16.55.12.43-.05.84-.36.84-.36,0,0,.14-.19.35-.38,0,0,.21-.33-.41-.23Z" fill="#edcdac"/>
            <path d="m73.71,254.21l-.33.13s.37.09.33.48l.31-.15s-.14-.45-.3-.45Z" fill="#e5e5e5"/>
            <path d="m76.77,249.8s-.58-.02-.92.54c-.28.44-.76,2.89-.76,2.89l-1.71,1.04c.23-.03.44.21.51.38.04.11-.01.19-.01.19l2.08-.51.21-1.9.74-1.09c-.09.01-.19.02-.29.01-.33-.02.15-1.56.15-1.56Z" fill="#393939"/>
            <path d="m77.11,265.28c-.14.14-.45.35-.49.54v.03c.21.44.79.28.79.28l1.29-.72c.11-.06.17-.17.17-.3v-.42l-1.03-.15-.74.74Z" fill="#3f3f3e"/>
            <path d="m75.16,264.32c-.7.37-.46.67-.17.76.33.11,1.07-.4,1.07-.4l.69-.24c.11-.06.17-.17.17-.3v-.42l-1.03-.15-.74.74Z" fill="#3f3f3e"/>
            <path d="m76.62,255.75c-.32-.16-.46.04-.79-.15,0,0,.02,1.5,0,1.91-.07,1.6-.07,6.1-.07,6.1,0,0,.21.59,1.25.27l.36-5.9.25,6.59s.29.73,1.4.14l.49-8.76s-2.03.22-2.88-.2Z" fill="#474647"/>
            <path d="m79.17,250.47l-.92-.6-.57-.1h-.49c-.02.07-.06.13-.14.18-.23.17-.5.27-.77.35-.19,1.02-.13,1.99-.1,3.04.03.83,0,1.67-.12,2.49.24.18.7.42,1.54.53,1.53.21,1.61-.49,1.61-.49l.59-4.31c.03-.5-.2-.86-.64-1.1Z" fill="#e5e5e5"/>
            <path d="m76.1,250.62c-.15.47-.12,2.91-.12,2.91l-.22,2.6s.37.69.85.24c.21-.2.11-.75.32-.86,0-.77-.01-1.55,0-2.32,0-.58-.21.29-.24-.29-.03-.58-.1-2.25.4-3.13-.67,0-.82.37-.98.85Z" fill="#313231"/>
            <path d="m79.17,250.47l-.79-.51c-.17.27-.34.54-.52.81-.15.22-1.12,1.99-1.12,1.99,0,0,0-.02,0-.05,0,0,0,.02-.01.03-.07,1.11-.13,2.58-.29,3.68.03.36.97.85,1.55.79,1.24-.12,1.4-.52,1.4-.52l.41-5.11c.03-.5-.2-.86-.64-1.1Z" fill="#313231"/>
            <path d="m79.12,256.75l.02,1.07h0c.08-.01.16-.02.25-.01.03,0,.07,0,.1,0,.14-.03.18-.04.33-.06l-.02-.8-.67-.19Z" fill="#edcdac"/>
            <path d="m79.15,256.68l-.22.79.04.85s.18.02.18-.24v-.29s.16-.12.16-.12l-.16-.98Z" fill="#edcdac"/>
            <path d="m79.77,256.62c-.23.09-.51.08-.7-.06v.36c.51.38.74-.01.74-.01l.03-.29h0s-.04,0-.06,0Z" fill="#e5e5e5"/>
            <path d="m79.19,250.62c-.55,0-.49,1.4-.49,1.4l.22,2.12.1,2.55c.5.38.9.07.9.07l.16-2.52-.13-2.45s-.05-1.16-.77-1.16Z" fill="#393939"/>
            <path d="m77.03,248.94v1c0,.34.27.61.61.61s.61-.27.61-.61l-.09-1h-1.13Z" fill="#edcdac"/>
            <path d="m79.13,257.78l.09.38-.02.32-.02.1c-.02.1.11.16.17.07.02-.02.16-.24.16-.24l.25-.18.12-.34-.06-.71-.68.59Z" fill="#edcdac"/>
            <path d="m77.32,250.46l.15.47s.7-.11,1.02-.91l-.27-.41s-.19.69-.9.85Z" fill="#fff"/>
            <path d="m77.03,249.8c-.24.24-.08.98-.08.98.07-.12.37-.33.37-.33-.35-.27-.29-.65-.29-.65Z" fill="#fff"/>
            <path d="m78.7,250.16l-.39-.42c-.52.83-1.37,2.29-1.64,3.08-.05.13.03.47.03.47.14-.39.37-.61.75-1.04.47-.54,1.06-1,1.06-1l-.26-.11h.21l.23-.98Z" fill="#393939"/>
            <path d="m76.48,250.55l.17.08h-.23s0,2.09.27,2.66c0,0-.13-1.91.36-3.16v-.44s-.49.32-.58.85Z" fill="#393939"/>
            <path d="m76.72,249.15c0,.52.26.75.75.75,0,0,.91-.28.91-.79l.1-.95-1.77-.32v1.31Z" fill="#edcdac"/>
            <path d="m76.94,247.31c-.77.48-.22.73-.22.73,0,0,1.24.03,1.25.24,0,.06-.06.43-.06.43l.15.11.1-.17.05.87s.32-.3.46-.85c.06-.24.2-.76,0-1.02-.42-.53-1.02-.78-1.72-.34Z" fill="#33383c"/>
            <path d="m78.16,248.65v.43c.18.08.33-.16.3-.39-.04-.3-.3-.04-.3-.04Z" fill="#edcdac"/>
            <polygon points="77.24 250.52 77.08 250.65 76.95 250.79 77 251.05 77.25 251.1 77.45 250.85 77.36 250.56 77.24 250.52" fill="#386d82"/>
            <path d="m76.72,251.81c-.06.48-.04.98-.04.98l.48-1.06.09-.63-.25-.04s-.26.58-.28.75Z" fill="#386d82"/>
          </g>
          <g>
            <path d="m200.2,260.7s.05.09-.14.32c-.19.23-.26.28-.36.26-.1-.02-.2-.22,0-.37.2-.15.25-.25.5-.2Z" fill="#1a1a1a"/>
            <path d="m200.07,260.81s.19-.1.42.02c.24.12.74.19.74.19,0,0,.02.13-.12.15h-.21s.41.26.64.33c.06.02.02.19-.15.18,0,0-.2.16-.55.12-.43-.05-.84-.36-.84-.36,0,0-.14-.19-.35-.38,0,0-.21-.33.41-.23Z" fill="#edcdac"/>
            <path d="m199.86,260.64l.33.13s-.37.09-.33.48l-.31-.15s.14-.45.3-.45Z" fill="#e5e5e5"/>
            <path d="m196.81,256.23s.58-.02.92.54c.28.44.76,2.89.76,2.89l1.71,1.04c-.23-.03-.44.21-.51.38-.04.11.01.19.01.19l-2.08-.51-.21-1.9-.74-1.09c.09.01.19.02.29.01.33-.02-.15-1.56-.15-1.56Z" fill="#393939"/>
            <path d="m196.46,271.71c.14.14.45.35.49.54v.03c-.21.44-.79.28-.79.28l-1.29-.72c-.11-.06-.17-.17-.17-.3v-.42l1.03-.15.74.74Z" fill="#3f3f3e"/>
            <path d="m198.41,270.75c.7.37.46.67.17.77-.33.11-1.07-.4-1.07-.4l-.69-.24c-.11-.06-.17-.17-.17-.3v-.42l1.03-.15.74.74Z" fill="#3f3f3e"/>
            <path d="m196.95,262.18c.32-.16.46.04.79-.15,0,0-.02,1.5,0,1.91.07,1.6.07,6.1.07,6.1,0,0-.21.59-1.25.27l-.36-5.9-.25,6.59s-.29.73-1.4.14l-.49-8.76s2.03.22,2.88-.2Z" fill="#474647"/>
            <path d="m194.4,256.9l.92-.6.57-.1h.49c.02.07.06.13.14.18.24.17.5.27.77.35.19,1.02.13,1.99.1,3.04-.03.83,0,1.67.12,2.49-.24.18-.7.42-1.54.53-1.53.21-1.61-.49-1.61-.49l-.59-4.31c-.03-.5.2-.86.64-1.1Z" fill="#e5e5e5"/>
            <path d="m197.47,257.05c.15.47.12,2.91.12,2.91l.22,2.6s-.37.69-.85.24c-.21-.2-.11-.75-.32-.86,0-.77.01-1.55,0-2.32,0-.58.21.29.24-.29.03-.58.1-2.25-.4-3.13.67,0,.82.37.98.85Z" fill="#313231"/>
            <path d="m194.4,256.9l.79-.51c.17.27.34.54.52.81.15.22,1.12,1.99,1.12,1.99,0,0,0-.02,0-.05,0,0,0,.02.01.03.07,1.11.13,2.58.29,3.68-.03.36-.97.85-1.55.79-1.24-.12-1.4-.52-1.4-.52l-.41-5.11c-.03-.5.2-.86.64-1.1Z" fill="#313231"/>
            <path d="m194.45,263.19l-.02,1.07h0c-.08-.01-.16-.02-.25-.01-.03,0-.07,0-.1,0-.14-.03-.18-.04-.33-.06l.02-.8.67-.19Z" fill="#edcdac"/>
            <path d="m194.43,263.11l.22.79-.04.85s-.18.02-.18-.24v-.29s-.16-.12-.16-.12l.16-.98Z" fill="#edcdac"/>
            <path d="m193.8,263.05c.23.09.51.08.7-.06v.36c-.51.38-.74-.01-.74-.01l-.03-.29h0s.04,0,.06,0Z" fill="#e5e5e5"/>
            <path d="m194.38,257.05c.55,0,.49,1.4.49,1.4l-.22,2.12-.1,2.55c-.5.38-.9.07-.9.07l-.16-2.52.13-2.45s.05-1.16.77-1.16Z" fill="#393939"/>
            <path d="m196.54,255.37v1c0,.34-.27.61-.61.61s-.61-.27-.61-.61l.09-1h1.13Z" fill="#edcdac"/>
            <path d="m194.44,264.21l-.09.38.02.32.02.1c.02.1-.11.16-.17.07-.02-.02-.16-.24-.16-.24l-.25-.18-.12-.34.06-.71.68.59Z" fill="#edcdac"/>
            <path d="m196.25,256.89l-.15.47s-.7-.11-1.02-.91l.27-.41s.19.69.9.85Z" fill="#fff"/>
            <path d="m196.54,256.23c.24.24.08.98.08.98-.07-.12-.37-.33-.37-.33.35-.27.29-.65.29-.65Z" fill="#fff"/>
            <path d="m194.87,256.59l.39-.42c.52.83,1.37,2.29,1.64,3.08.05.13-.03.47-.03.47-.14-.39-.37-.61-.75-1.04-.47-.54-1.06-1-1.06-1l.26-.11h-.21l-.23-.98Z" fill="#393939"/>
            <path d="m197.09,256.98l-.17.08h.23s0,2.09-.27,2.66c0,0,.13-1.91-.36-3.16v-.44s.49.32.58.85Z" fill="#393939"/>
            <path d="m196.85,255.58c0,.52-.26.75-.75.75,0,0-.91-.28-.91-.79l-.1-.95,1.77-.32v1.31Z" fill="#edcdac"/>
            <path d="m196.63,253.75c.77.48.22.73.22.73,0,0-1.24.03-1.25.24,0,.06.06.43.06.43l-.15.11-.1-.17-.05.87s-.32-.3-.46-.85c-.06-.24-.2-.76,0-1.02.42-.53,1.02-.78,1.72-.34Z" fill="#33383c"/>
            <path d="m195.41,255.08v.43c-.18.08-.33-.16-.3-.39.04-.3.3-.04.3-.04Z" fill="#edcdac"/>
            <polygon points="196.33 256.95 196.49 257.08 196.62 257.22 196.57 257.49 196.32 257.53 196.12 257.28 196.21 256.99 196.33 256.95" fill="#386d82"/>
            <path d="m196.85,258.24c.06.48.04.98.04.98l-.48-1.06-.09-.63.25-.04s.26.58.28.75Z" fill="#386d82"/>
          </g>
          <g>
            <g>
              <path d="m71.45,255.87l-.29.14c-.1.1-.13.33-.1.46l.04.17.06.28-.04.28s0,.18.15.13l.07-.22v.18s-.12.23.1.24l.03-.06c.04.09.15.06.15.06,0,0,.12-.23.14-.55.06.05.14.03.14.03l-.06-.59-.41-.55Z" fill="#edcdac"/>
              <path d="m70.93,255.98s-.05,0-.07.01h0s.12.26.12.26c0,0,.36.31.77-.18l-.09-.34c-.17.18-.45.27-.72.25Z" fill="#e5e5e5"/>
              <path d="m71.1,251.33s-.24-1.34-.82-1.24c-.77.14-.57,1.26-.57,1.26l.4,2.36.72,2.38s.5.21.95-.25l-.45-2.45-.22-2.06Z" fill="#393939"/>
              <path d="m69.66,265.46l-.73-.65-1.01.14v.37c0,.11.07.21.17.26l1.28.63s.57.14.78-.25v-.03c-.04-.17-.35-.35-.49-.48Z" fill="#3f3f3e"/>
              <path d="m71.75,264.51l-.72-.64-1,.13v.37c0,.11.06.2.17.26l.67.2s.72.44,1.04.34c.28-.08.51-.34-.16-.66Z" fill="#3f3f3e"/>
              <path d="m71.23,255.68c-.36.19-.51,0-.86.15-.93.41-3.12.19-3.14.19l.53,4.98.15,4.03c1.02.41,1.27-.14,1.27-.14l.47-6.2.39,5.48c.94.25,1.21-.23,1.21-.23,0,0,.06-4.86-.02-6.42-.02-.39,0-1.86,0-1.86Z" fill="#666567"/>
              <path d="m70.73,250.53c-.3-.08-.59-.18-.84-.34-.08-.05-.12-.11-.15-.18h-.53l-.62.1-1,.58c-.48.23-.72.59-.69,1.07l.64,4.19s.09.68,1.75.47c.92-.11,1.42-.34,1.68-.52-.13-.8-.17-1.61-.14-2.42.04-1.02.11-1.97-.1-2.96Z" fill="#e5e5e5"/>
              <path d="m70.93,250.84c-.17-.47-.34-.83-1.07-.83.55.86.47,2.49.44,3.05-.03.56-.26-.28-.26.28,0,.75,0,1.51,0,2.26.22.1.11.64.34.83.52.44.92-.23.92-.23l-.24-2.53s.03-2.38-.13-2.83Z" fill="#313231"/>
              <path d="m70.24,252.86s0,.05,0,.05c0,0-1.06-1.72-1.22-1.93-.19-.26-.38-.52-.56-.79l-.86.5c-.48.23-.72.59-.69,1.07l.45,4.98s.17.38,1.52.5c.63.06,1.66-.42,1.69-.77-.17-1.07-.24-2.5-.31-3.58,0,0-.01-.02-.01-.03Z" fill="#313231"/>
              <path d="m67.65,257h0s-.02-.07-.02-.07v.09s-.7.18-.7.18v.26s-.02-.01-.02-.01l-.07.71.13.34.27.18s.15.21.17.24c.06.08.2.02.18-.07l-.02-.1-.02-.32.09-.34s0,0,0,0h0s0-.02,0-.02v-.02s0,.3,0,.3c0,.26.2.24.2.24l.04-.85-.21-.69v-.02Z" fill="#edcdac"/>
              <path d="m66.94,256.86s-.05,0-.07,0h0s.03.29.03.29c0,0,.25.39.79.01v-.36c-.2.14-.51.16-.75.06Z" fill="#e5e5e5"/>
              <path d="m67.57,250.84c-.79,0-.84,1.17-.84,1.17l-.14,2.46.17,2.54s.44.31.99-.07l.11-2.56.24-2.13s.07-1.4-.53-1.4Z" fill="#393939"/>
              <path d="m68.59,250.17c0,.33.3.59.66.59s.66-.27.66-.59v-.97h-1.23l-.1.97Z" fill="#edcdac"/>
              <path d="m68.63,249.85l-.29.4c.35.77,1.11.88,1.11.88l.16-.46c-.77-.16-.98-.83-.98-.83Z" fill="#fff"/>
              <path d="m69.6,250.68s.32.2.4.32c0,0,.17-.73-.09-.96,0,0,.07.37-.32.63Z" fill="#fff"/>
              <path d="m68.53,249.98l-.42.4.25.95h.23l-.28.11s.64.44,1.16.97c.41.42.67.64.82,1.01,0,0,.08-.32.03-.45-.29-.77-1.22-2.19-1.79-2.99Z" fill="#393939"/>
              <path d="m70.52,250.76c-.1-.52-.63-.83-.63-.83v.43c.54,1.21.4,3.07.4,3.07.31-.55.3-2.59.3-2.59h-.25l.19-.07Z" fill="#393939"/>
              <path d="m68.33,248.44l.11.92c0,.5.99.77.99.77.76.05.94-.33.94-.83l-.12-1.17-1.93.31Z" fill="#edcdac"/>
              <path d="m70.02,247.62c-.76-.43-1.34-.2-1.8.31-.22.25-.19.66-.13.89.15.53.54.95.54.95l.06-.85.11.17.16-.1s-.07-.36-.07-.42c.01-.2,1.37-.23,1.37-.23,0,0,.59-.25-.24-.71Z" fill="#33383c"/>
              <path d="m68.36,248.96c-.03.22.13.46.33.38v-.42s-.29-.25-.33.04Z" fill="#edcdac"/>
              <polygon points="69.7 250.74 69.57 250.78 69.47 251.06 69.69 251.3 69.96 251.26 70.01 251 69.87 250.86 69.7 250.74" fill="#e0634f"/>
              <path d="m69.96,251.26l-.27.04.09.62.53,1.03s.02-.49-.04-.96c-.02-.17-.3-.73-.3-.73Z" fill="#e0634f"/>
            </g>
            <path d="m68.73,247.51s-.37,1.09,1.28.93c.19-.02.48-.07.64-.25,0,0-.63-1.16-1.91-.68Z" fill="#33383c"/>
          </g>
          <g>
            <path d="m147.12,188.56c-.17-.16-.4-.27-.4-.27l-.35.34-.04,1.18c-.09.29-.17.39-.05.46.16.1.48-.02.64-.38.04-.08.11-.59.15-.84l.19.43.07-.1-.1-.62c-.02-.06-.06-.15-.1-.19Z" fill="#3f3f3e"/>
            <g>
              <path d="m146.72,188.28c-.13-.22-.43-.77-.72-1.44-.18-.41-.41-.72-.57-.91l.29-2.69s.09-.63.09-.86c0-1.02-.27-.89-.27-.89l-2.06.33.62,1.56s.19,1.75.33,2.69c-.02.13.02.29.09.38.7.86,1.84,2.17,1.84,2.17l-.04,1.18s0,0,0,0c.05.01.23.05.27.05.11,0,.41-1.2.29-1.48-.1-.06-.17-.1-.17-.1Z" fill="#edcdac"/>
              <path d="m146.89,188.38s0,0,.01,0c0,0,0,0-.01,0h0Z" fill="#d89576"/>
              <path d="m146.92,188.4s-.01,0-.02-.01c0,0,.02.01.02.01Z" fill="#d89576"/>
            </g>
            <path d="m144.76,173.83l.47,1.31.16.31s.59-1.26.12-1.65c-.47-.39-.75.03-.75.03Z" fill="#33383c"/>
            <g>
              <path d="m142.86,189.03c-.05.22-.41.71-.67.96-.15.15-.16.19-.23.2-.28.07-.3.25-.3.25,0,.07.07.1.07.1.07.03.35.06.55-.02.25-.09.51-.5.8-.56.3-.06.37-.15.37-.15.07-.31-.07-.76-.07-.76l-.52-.02Z" fill="#3f3f3e"/>
              <path d="m143.17,181.08c-.46,2.33-.64,3.32-.73,4.01-.01.09,0,.19.02.28.02.24.07.6.09.84.22,1.79.28,2.56.3,2.82-.05.22-.41.71-.67.96-.15.15-.16.19-.23.2,0,0-.01,0-.02,0,.24.04.46-.06.7-.24.25-.18.55-.29.71-.57.01-.02.02-.05.03-.07.02-.03.02-.04.03-.08-.01-.07-.03-.13-.04-.16,0,0,0,0,0,0,0,0,.15-1.45.15-1.93,0-.41-.14-1.33-.17-1.56l.88-2.59-1.08-1.92Z" fill="#edcdac"/>
              <path d="m141.43,181.63l-.1.53s.03.03.08,0c0,.02-.01.03-.01.03v.38s.04.04.09-.05l.05.17c.08.01.1-.09.1-.17l.04.12c.14.02.09-.27.09-.27l.02-.05.04.22c.1.05.08-.18.08-.18v-.22s.04-.15.04-.15c.07-.16.2-.47.17-.58l-.36-.2-.32.41Z" fill="#edcdac"/>
              <polygon points="141.75 181.22 142.17 181.47 143.23 179.61 142.61 179.33 141.75 181.22" fill="#d89576"/>
              <path d="m145.7,181.25l-2.53-.17-.9,4.11s.07.48,1.33.93c1.65.58,2.2-.16,2.2-.16l.11-2.74c.04-1.04-.21-1.96-.21-1.96Z" fill="#3f3f3e"/>
              <path d="m143.28,176.47c-.04.14-.67,2.85-.67,2.85l.62.28s.47-1.62.73-2.36c.26-.74.31-.95.31-.95-.49-.4-.92-.03-.98.18Z" fill="#d89576"/>
              <path d="m143.28,176.47c-.04.14-.67,2.85-.67,2.85l-.86,1.9.42.25,1.06-1.86s.47-1.62.73-2.36c.26-.74.31-.95.31-.95-.49-.4-.92-.03-.98.18Z" fill="#b1b3b5"/>
              <path d="m146,177.09c-.52-.99-1.71-1.04-2.19-1.01-.13.01-.17.04-.17.04,0,0-.15.03-.22.29-.03.11,0,.33-.05.49l-.22.55-.22.63c-.13.51.22.77.22.77l.19,1.22-.34,1.52s1.65.81,2.82.04l-.32-1.35c-.01-.06-.02-.11-.01-.17.1-1.47.72-2.64.52-3.02Z" fill="#b1b3b5"/>
              <path d="m144.52,176.03c-.53.1-.63.5-.58.59.02.04-.01.57-.01.57,0,0,.33-.4.39-.39.08,0,.14,0,.26-.04.52-.16.49-.48.49-.48,0,0-.2-.31-.55-.24Z" fill="#edcdac"/>
              <path d="m144.95,175.72l-.87-.1s-.02.34,0,.65c0,.15.16.25.3.2l.66-.25s-.12-.25-.08-.5Z" fill="#edcdac"/>
              <path d="m143.67,175.35c0,.48.2.94.66.82,0,0,.77-.09.92-.95l.1-.68-1.63-.29-.05,1.1Z" fill="#edcdac"/>
              <g>
                <path d="m146.75,182.41l-.43-.09-.21.63.05.61s.05.03.11-.17v-.27s.12.32.12.32v.22s0,.08,0,.08c-.01.08.08.09.12.02.01-.02.09-.13.09-.13l.18-.16.08-.28-.09-.78h-.01Z" fill="#edcdac"/>
                <path d="m146,177.09c-.05-.12-.18-.19-.31-.17-.44.07-.48.68-.45.8.03.14.82,2.36.82,2.36l.7-.2s-.24-1.18-.47-1.93c-.13-.43-.23-.7-.3-.85Z" fill="#d89576"/>
                <path d="m146.76,179.87l-.7.2c.12.6.27,2.24.27,2.24l.44.09s.02-1.96,0-2.16c0-.19-.02-.38-.02-.38Z" fill="#d89576"/>
                <path d="m146.76,179.87s-.24-1.18-.47-1.93c-.13-.43-.23-.7-.3-.85-.05-.12-.18-.19-.31-.17-.44.07-.48.68-.45.8.03.14.82,2.36.82,2.36.12.6.27,2.24.27,2.24l.44.09s.02-1.96,0-2.16c0-.19-.02-.38-.02-.38Z" fill="#b1b3b5"/>
              </g>
            </g>
            <path d="m144.94,173.9c-.2-.1-.73-.2-1.13.18-.13.13-.34.42-.21.79,0,0,.55.24,1.07.07.09-.03.16.05.19.12.04.11.09.66.09.66v.12s.33-.32.41-.73c.15-.82-.22-1.12-.41-1.22Z" fill="#33383c"/>
            <path d="m144.96,175.05c-.14,0-.15.06-.15.06l.03.34s.09.04.19-.16c.06-.12.07-.24-.07-.24Z" fill="#edcdac"/>
            <path d="m144.33,176.79l.15.34s.63-.22.71-.81l-.21-.25s-.32.64-.65.71Z" fill="#fff"/>
            <path d="m144.02,176.15s-.23.17-.3.34l.23.13s-.01-.16.12-.35v-.11h-.05Z" fill="#fff"/>
            <polygon points="143.69 176.77 143.94 176.62 143.72 176.49 143.69 176.77" fill="#ddd"/>
            <path d="m146.33,182.32s.39.11.47.09v-.38s-.5,0-.5,0l.03.29Z" fill="#fff"/>
            <polygon points="141.71 181.22 142.17 181.47 142.32 181.25 141.79 181.01 141.71 181.22" fill="#fff"/>
            <polygon points="143.14 190.49 143.26 190.46 143.44 189.82 143.15 189.94 143.14 190.49" fill="#3f3f3e"/>
            <polygon points="143.08 190.46 143.14 190.49 143.15 189.95 143.07 189.97 143.08 190.46" fill="#3f3f3e"/>
            <polygon points="147.04 189.21 147.19 189.46 147.26 189.46 147.07 189.03 147.04 189.21" fill="#3f3f3e"/>
          </g>
          <g>
            <path d="m179.64,243.72c-.1.12-.22.47-.22.47l-.05.69c.09.06.15-.02.15-.02.05.02.11-.07.11-.07l.13-.34s.17-.23.18-.18c0,.05,0,.15-.04.31-.04.16.08.19.08.19l.12-.21.15-.4.02-.41s-.38-.22-.39-.22c-.02,0-.19.13-.24.18Z" fill="#edcdac"/>
            <path d="m181.47,237.91s-.67.05-.95.45c-.27.39-.04,2.73-.04,2.73l-.7,2.47c.14.33.55.33.55.33l1.05-2.58.17-1.99c-.09,0-.17.01-.26,0-.3-.03.19-1.41.19-1.41Z" fill="#9cacb8"/>
            <path d="m183.97,249.31l-.68.35s-.31.64-.32.63c-.53.33-.37.59-.13.66.15.05.65-.2.83-.3l.19-.19.45-.46c.06-.09.07-.2.02-.3l-.35-.4Z" fill="#3f3f3e"/>
            <path d="m181.14,251.7l-.69.56c-.13.11-.5.27-.55.44v.02c0,.42.68.29.68.29l1.13-.46c.1-.04.22-.2.23-.3l-.13-.45-.68-.09Z" fill="#3f3f3e"/>
            <path d="m182.22,243.46l-1.58-.43s0,1.26.1,2.08c.07.58.43,2.31.43,2.31l2.08,2.37s.56.33.85-.41l-1.73-2.77-.14-3.14Z" fill="#393939"/>
            <path d="m181.6,243.15v1.4l-.67,3.36.06,3.91c.6.52.92.12.92.12l.41-3.88s.53-1.98.95-2.89c.42-.91.35-1.9.35-1.9l-2.04-.14Z" fill="#393939"/>
            <path d="m183.44,238.44l-.83-.56-.52-.1h-.52c-.73,0-.93.32-1.09.76-.13.36.17,2.65.17,2.65l-.09,1.93s.16.45,1.49.65c1.39.21,1.57-.29,1.57-.29l-.06-1.43.22-2.71c.03-.46.06-.67-.34-.89Z" fill="#666567"/>
            <path d="m181.51,236.97l-.04.91c-.01.31.23.57.53.58.31.01.57-.23.58-.53l-.13-.95h-.94Z" fill="#edcdac"/>
            <path d="m181.72,238.36l.12.44s.64-.08.96-.79l-.26-.41s-.03.68-.82.77Z" fill="#9cacb8"/>
            <path d="m181.48,237.75c-.23.21-.11.89-.11.89.07-.11.35-.29.35-.29-.32-.23-.24-.61-.24-.61Z" fill="#9cacb8"/>
            <path d="m180.96,236.1l.14,1.19c.06.47.39.72.76.6.05-.02.8-.35.74-.82v-.87s-1.64-.1-1.64-.1Z" fill="#edcdac"/>
            <path d="m181.1,235.6c-.64.52-.12.69-.12.69,0,0,1.13-.11,1.16.08,0,.06,0,.4,0,.4l.14.08.07-.17.14.78s.26-.31.32-.82c.03-.23.1-.71-.11-.92-.43-.43-1.01-.6-1.6-.12Z" fill="#33383c"/>
            <path d="m182.35,236.68l.05.39c.17.06.28-.18.23-.38-.07-.27-.28,0-.28,0Z" fill="#edcdac"/>
            <g>
              <path d="m184.13,245.61h0s0,0,0-.01h0Z" fill="#f1b4a6"/>
              <path d="m183.92,244.13l-.13.59.11.76s.16,0,.14-.23l-.04-.26v.03s0,0,0,0l.11.3v.29c.02.08.12.11.16.04.01-.02.12-.12.12-.12l.21-.19.08-.31-.22-.86-.54-.03Z" fill="#edcdac"/>
            </g>
            <path d="m183.33,238.52c-.62.13-.3,1.25-.3,1.25l.63,2,.26,2.37c.49.2.56.06.56.06l.04-2.52-.39-2.19s-.16-1.11-.8-.97Z" fill="#9cacb8"/>
          </g>
          <g>
            <path d="m105.89,177.39v1.54s.89-.6.82-1.06c-.3-1.91-.47-3.02-.47-3.02l-.35,2.54Z" fill="#026155"/>
            <path d="m106.43,187.53l-.74.5s-.56.08-.21.42c0,0,.66.02,1-.09.34-.12.67-.07.82-.1.28-.06.35-.27.35-.27l-.28-.6-.94.14Z" fill="#3f3f3e"/>
            <path d="m102.01,187.78s-.51.02-.57.01c-.05,0-.56.02-.37.34.04.07.16.14.29.21,0,0,1.2.35,1.29.36.08,0,.43.05.5-.21l-.06-.38-1.08-.33Z" fill="#3f3f3e"/>
            <path d="m106.1,180.91c.1-.58.06-1.18-.14-1.74l-.08-.23-2.34.74,1.48,4.83,1.3,3.09s.76.23,1.04-.21l-1.09-3.49-.16-2.98Z" fill="#676868"/>
            <path d="m103.16,179.43l-1.09,3.94c-.06.16-.08.32-.08.49v3.95c.4.74,1.05.53,1.12.49.07-.04.45-3.97.4-4.18-.05-.2,1.04-2.62,1.04-2.62l1.19-.4-1.8-1.17-.78-.49Z" fill="#676868"/>
            <path d="m105.49,174.13s-.6-.22-1.33.06c-.94.36-1.06.89-1.09,1.44-.04.77.3,1.65.3,1.65l-.02.89-.08,1.59s.56.32,1.64.09c1.07-.24,1.2-.34,1.2-.34l-.13-1.72s.34-2.12.31-2.27c-.03-.15.22-1.05-.79-1.38Z" fill="#026155"/>
            <g>
              <path d="m102.9,181.53s-.02-.1-.11-.12v-.37s.06-.39-.06-.42l-.53-.11s-.27.61-.25.66c.01.05.13.45.14.5.02.05.18.16.3.18.12.02.37.02.37.02,0,0,.02-.05,0-.1l.08-.03s.18-.04.02-.15l.04-.05Z" fill="#edcdac"/>
              <path d="m103.29,174.94c-.17.21-.34,2.84-.34,2.84,0,0-.81,2.58-.83,2.66-.01.09.23.48.68.19l1.22-2.43s.35-1.74.43-2.33c.07-.52-.3-1.99-1.16-.93Z" fill="#026155"/>
            </g>
            <g>
              <path d="m104.17,173.09l.05,1.07c0,.32,1.09.22,1.1-.11l-.07-.95h-1.08Z" fill="#edcdac"/>
              <path d="m105.31,173.85c-.1.3-.76.31-1.09.18l-.11.15c.2.3.9.38,1.21.05.07-.08.08-.19.04-.29l-.05-.09Z" fill="#026155"/>
              <path d="m103.77,173.21c0,.49.33.71.8.72,0,0,.87-.26.88-.74l.11-.9-1.77-.32-.02,1.25Z" fill="#edcdac"/>
              <path d="m104.21,171.36c-.39.16-1,.55-.42.96,0,0,.24.06.23.44,0,.38.39.76.68,1,.21.17.59-.1.59-.1,0,0,.58-.64.31-1.76-.17-.68-1.12-.66-1.39-.54Z" fill="#33383c"/>
              <path d="m103.97,172.79v.41c.17.08.31-.15.29-.37-.03-.29-.29-.05-.29-.05Z" fill="#edcdac"/>
            </g>
          </g>
          <g>
            <g>
              <polygon points="155.22 46.46 154.87 156.33 120.71 176.18 121.05 66.31 155.22 46.46" fill="url(#_名称未設定グラデーション_1326-3)"/>
              <polygon points="121.05 66.31 120.71 176.18 47.33 133.7 47.68 23.83 121.05 66.31" fill="url(#_名称未設定グラデーション_1357-3)"/>
              <polygon points="155.22 46.46 121.05 66.31 47.68 23.83 81.84 3.98 155.22 46.46" fill="#d4e2f3"/>
            </g>
            <g>
              <path d="m139.4,64.25l4.54-2.62v8.19s-4.54,2.62-4.54,2.62v-8.19Zm-6.72,12.08l4.54-2.62v-8.19l-4.54,2.62v8.19Zm6.72-1.19l4.54-2.62v8.19s-4.54,2.62-4.54,2.62v-8.19Zm-6.72,12.08l4.54-2.62v-8.19l-4.54,2.62v8.19Zm6.72-1.19l4.54-2.62v8.19s-4.54,2.62-4.54,2.62v-8.19Zm-6.72,12.08l4.54-2.62v-8.19s-4.54,2.62-4.54,2.62v8.19Zm6.72-1.19l4.54-2.62v8.19l-4.54,2.62v-8.19Zm-6.72,12.08l4.54-2.62v-8.19s-4.54,2.62-4.54,2.62v8.19Zm6.72-1.19l4.54-2.62v8.19l-4.54,2.62v-8.19Zm-6.72,12.08l4.54-2.62v-8.19s-4.54,2.62-4.54,2.62v8.19Z" fill="#fff" opacity=".3"/>
              <polygon points="139.4 118.5 143.95 115.88 143.95 124.07 139.4 126.7 139.4 118.5" fill="#fff" opacity=".3"/>
              <polygon points="139.4 129.38 143.95 126.76 143.95 134.95 139.4 137.58 139.4 129.38" fill="#fff" opacity=".3"/>
              <polygon points="132.68 141.46 137.22 138.84 137.22 130.64 132.68 133.27 132.68 141.46" fill="#fff" opacity=".3"/>
              <polygon points="139.4 140.27 143.95 137.64 143.95 145.84 139.4 148.46 139.4 140.27" fill="#fff" opacity=".3"/>
              <polygon points="132.68 152.34 137.22 149.72 137.22 141.52 132.68 144.15 132.68 152.34" fill="#fff" opacity=".3"/>
              <polygon points="137.22 127.95 137.22 119.76 132.68 122.38 132.68 130.58 137.22 127.95" fill="#fff" opacity=".3"/>
              <polygon points="139.4 151.13 143.95 148.51 143.95 156.7 139.4 159.33 139.4 151.13" fill="#fff" opacity=".3"/>
              <polygon points="132.68 163.21 137.22 160.59 137.22 152.39 132.68 155.02 132.68 163.21" fill="#fff" opacity=".3"/>
            </g>
            <polygon points="84.26 2.74 84.25 0 159.1 43.29 154.84 43.57 84.26 2.74" fill="#bbd3db"/>
            <polygon points="154.83 45.74 154.83 47.72 121.17 67.29 121.17 65.31 154.83 45.74" fill="#9db5d3"/>
            <polygon points="121.19 65.32 121.19 68.05 46.34 24.76 46.34 22.03 121.19 65.32" fill="#7ab0be"/>
            <polygon points="159.1 43.29 159.09 46.02 121.19 68.05 121.19 65.32 159.1 43.29" fill="#386b88"/>
            <polygon points="154.84 43.57 159.1 43.29 121.19 65.32 121.18 63.13 154.84 43.57" fill="#bbd3db"/>
            <polygon points="121.18 63.13 121.19 65.32 46.34 22.03 84.25 0 121.18 63.13" fill="#bbd3db"/>
            <polygon points="154.85 41.59 154.84 43.57 121.18 63.13 121.19 61.15 154.85 41.59" fill="#386b88"/>
            <polygon points="121.19 61.15 121.18 63.13 50.6 22.31 50.61 20.33 121.19 61.15" fill="#7ab0be"/>
            <polygon points="154.85 41.59 121.19 61.15 50.61 20.33 84.27 .76 154.85 41.59" fill="#dfeaee"/>
            <path d="m54.59,42.77l-4.54-2.62v-8.19s4.54,2.62,4.54,2.62v8.19Zm6.72-4.31l-4.54-2.62v8.19l4.54,2.62v-8.19Zm6.72,12.08l-4.54-2.62v-8.19l4.54,2.62v8.19Zm-13.45,3.12l-4.54-2.62v-8.19l4.54,2.62v8.19Zm6.72-4.31l-4.54-2.62v8.19l4.54,2.62v-8.19Zm6.72,12.08l-4.54-2.62v-8.19l4.54,2.62v8.19Zm-13.45,3.12l-4.54-2.62v-8.19l4.54,2.62v8.19Zm6.72-4.31l-4.54-2.62v8.19l4.54,2.62v-8.19Zm6.72,12.08l-4.54-2.62v-8.19l4.54,2.62v8.19Zm-13.45,3.12l-4.54-2.62v-8.19s4.54,2.62,4.54,2.62v8.19Zm6.72-4.31l-4.54-2.62v8.19s4.54,2.62,4.54,2.62v-8.19Zm6.72,12.08l-4.54-2.62v-8.19s4.54,2.62,4.54,2.62v8.19Zm-13.45,3.12l-4.54-2.62v-8.19l4.54,2.62v8.19Zm6.72-4.31l-4.54-2.62v8.19s4.54,2.62,4.54,2.62v-8.19Zm6.72,12.08l-4.54-2.62v-8.19l4.54,2.62v8.19Zm-13.45,3.12l-4.54-2.62v-8.19s4.54,2.62,4.54,2.62v8.19Zm6.72-4.31l-4.54-2.62v8.19s4.54,2.62,4.54,2.62v-8.19Zm6.72,12.08l-4.54-2.62v-8.19s4.54,2.62,4.54,2.62v8.19Zm-13.45,3.12l-4.54-2.62v-8.19s4.54,2.62,4.54,2.62v8.19Zm6.72-4.31l-4.54-2.62v8.19l4.54,2.62v-8.19Zm6.72,12.08l-4.54-2.62v-8.19l4.54,2.62v8.19Zm-13.45,3.12l-4.54-2.62v-8.19l4.54,2.62v8.19Zm6.72-4.31l-4.54-2.62v8.19l4.54,2.62v-8.19Zm6.72,12.08l-4.54-2.62v-8.19s4.54,2.62,4.54,2.62v8.19Zm-13.45,3.12l-4.54-2.62v-8.19s4.54,2.62,4.54,2.62v8.19Zm6.72-4.31l-4.54-2.62v8.19l4.54,2.62v-8.19Zm7.35,17.78l-5.76-3.33v-13.4s5.76,3.33,5.76,3.33v13.4Z" fill="#386b88"/>
            <path d="m103.73,70.73l-4.54-2.62v-8.19s4.54,2.62,4.54,2.62v8.19Zm6.72-4.31l-4.54-2.62v8.19s4.54,2.62,4.54,2.62v-8.19Zm6.72,12.08l-4.54-2.62v-8.19l4.54,2.62v8.19Zm-13.45,3.12l-4.54-2.62v-8.19l4.54,2.62v8.19Zm6.72-4.31l-4.54-2.62v8.19s4.54,2.62,4.54,2.62v-8.19Zm6.72,12.08l-4.54-2.62v-8.19s4.54,2.62,4.54,2.62v8.19Zm-13.45,3.12l-4.54-2.62v-8.19s4.54,2.62,4.54,2.62v8.19Zm6.72-4.31l-4.54-2.62v8.19s4.54,2.62,4.54,2.62v-8.19Zm6.72,12.08l-4.54-2.62v-8.19s4.54,2.62,4.54,2.62v8.19Zm-13.45,3.12l-4.54-2.62v-8.19s4.54,2.62,4.54,2.62v8.19Zm6.72-4.31l-4.54-2.62v8.19l4.54,2.62v-8.19Zm6.72,12.08l-4.54-2.62v-8.19s4.54,2.62,4.54,2.62v8.19Zm-13.45,3.12l-4.54-2.62v-8.19l4.54,2.62v8.19Zm6.72-4.31l-4.54-2.62v8.19s4.54,2.62,4.54,2.62v-8.19Zm6.72,12.08l-4.54-2.62v-8.19s4.54,2.62,4.54,2.62v8.19Zm-13.45,3.12l-4.54-2.62v-8.19s4.54,2.62,4.54,2.62v8.19Zm6.72-4.31l-4.54-2.62v8.19s4.54,2.62,4.54,2.62v-8.19Zm6.72,12.08l-4.54-2.62v-8.19l4.54,2.62v8.19Zm-13.45,3.12l-4.54-2.62v-8.19s4.54,2.62,4.54,2.62v8.19Zm6.72-4.31l-4.54-2.62v8.19s4.54,2.62,4.54,2.62v-8.19Zm6.72,12.08l-4.54-2.62v-8.19s4.54,2.62,4.54,2.62v8.19Zm-13.45,3.12l-4.54-2.62v-8.19l4.54,2.62v8.19Zm6.72-4.31l-4.54-2.62v8.19s4.54,2.62,4.54,2.62v-8.19Zm6.72,12.08l-4.54-2.62v-8.19l4.54,2.62v8.19Zm.04,10.48l-4.54-2.62v-8.19s4.54,2.62,4.54,2.62v8.19Zm-6.76-11.68l-4.54-2.62v8.19l4.54,2.62v-8.19Zm-6.34,9.92l-5.76-3.33v-13.4l5.76,3.33v13.4Z" fill="#386b88"/>
            <g>
              <polygon points="93.08 122.85 94.85 121.82 94.88 113.48 93.1 114.52 93.08 122.85" fill="url(#_名称未設定グラデーション_1326-4)"/>
              <polygon points="93.1 114.52 94.88 113.48 73.57 101.18 71.79 102.22 93.1 114.52" fill="#75b9c7"/>
              <polygon points="71.79 102.22 71.77 110.55 93.08 122.85 93.1 114.52 71.79 102.22" fill="#dae6eb"/>
            </g>
            <g>
              <polygon points="93.08 111.71 94.85 110.67 94.88 102.34 93.1 103.37 93.08 111.71" fill="url(#_名称未設定グラデーション_1326-5)"/>
              <polygon points="93.1 103.37 94.88 102.34 73.57 90.03 71.79 91.07 93.1 103.37" fill="#75b9c7"/>
              <polygon points="71.79 91.07 71.77 99.4 93.08 111.71 93.1 103.37 71.79 91.07" fill="#dae6eb"/>
            </g>
            <g>
              <polygon points="93.08 100.56 94.85 99.53 94.88 91.19 93.1 92.22 93.08 100.56" fill="url(#_名称未設定グラデーション_1326-6)"/>
              <polygon points="93.1 92.22 94.88 91.19 73.57 78.89 71.79 79.92 93.1 92.22" fill="#75b9c7"/>
              <polygon points="71.79 79.92 71.77 88.26 93.08 100.56 93.1 92.22 71.79 79.92" fill="#dae6eb"/>
            </g>
            <g>
              <polygon points="93.08 89.41 94.85 88.38 94.88 80.04 93.1 81.07 93.08 89.41" fill="url(#_名称未設定グラデーション_1326-7)"/>
              <polygon points="93.1 81.07 94.88 80.04 73.57 67.74 71.79 68.77 93.1 81.07" fill="#75b9c7"/>
              <polygon points="71.79 68.77 71.77 77.11 93.08 89.41 93.1 81.07 71.79 68.77" fill="#dae6eb"/>
            </g>
            <g>
              <polygon points="93.08 78.26 94.85 77.23 94.88 68.89 93.1 69.93 93.08 78.26" fill="url(#_名称未設定グラデーション_1326-8)"/>
              <polygon points="93.1 69.93 94.88 68.89 73.57 56.59 71.79 57.62 93.1 69.93" fill="#75b9c7"/>
              <polygon points="71.79 57.62 71.77 65.96 93.08 78.26 93.1 69.93 71.79 57.62" fill="#dae6eb"/>
            </g>
            <g>
              <polygon points="93.08 67.12 94.85 66.08 94.88 57.75 93.1 58.78 93.08 67.12" fill="url(#_名称未設定グラデーション_1326-9)"/>
              <polygon points="93.1 58.78 94.88 57.75 73.57 45.44 71.79 46.48 93.1 58.78" fill="#75b9c7"/>
              <polygon points="71.79 46.48 71.77 54.81 93.08 67.12 93.1 58.78 71.79 46.48" fill="#dae6eb"/>
            </g>
            <g>
              <polygon points="92.9 133.31 94.64 132.3 94.67 124.11 92.92 125.12 92.9 133.31" fill="url(#_名称未設定グラデーション_1326-10)"/>
              <polygon points="92.92 125.12 94.67 124.11 73.75 112.03 72 113.05 92.92 125.12" fill="#75b9c7"/>
              <polygon points="72 113.05 71.98 121.23 92.9 133.31 92.92 125.12 72 113.05" fill="#dae6eb"/>
            </g>
          </g>
          <g>
            <polygon points="95.36 77.97 94.88 230.04 47.6 257.52 48.08 105.45 95.36 77.97" fill="url(#_名称未設定グラデーション_1626)"/>
            <polygon points="48.08 105.45 47.6 257.52 0 230.04 .48 77.97 48.08 105.45" fill="url(#_名称未設定グラデーション_1166)"/>
            <polygon points="95.36 77.97 48.08 105.45 .48 77.97 47.77 50.49 95.36 77.97" fill="#d6e4e9"/>
            <polygon points="47.87 51.37 47.85 48.07 93.68 74.53 88.57 74.86 47.87 51.37" fill="#c2d7de"/>
            <polygon points="7.43 74.87 2.31 74.53 47.85 48.07 47.87 51.37 7.43 74.87" fill="#c2d7de"/>
            <polygon points="88.56 77.48 88.55 79.86 48.12 103.36 48.12 100.98 88.56 77.48" fill="#9db5d3"/>
            <polygon points="48.15 100.99 48.14 104.28 2.31 77.81 2.31 74.53 48.15 100.99" fill="#add6d2"/>
            <polygon points="93.68 74.53 93.68 77.81 48.14 104.28 48.15 100.99 93.68 74.53" fill="#5a8988"/>
            <polygon points="88.57 74.86 93.68 74.53 48.15 100.99 48.13 98.36 88.57 74.86" fill="#c2d7de"/>
            <polygon points="48.13 98.36 48.15 100.99 2.31 74.53 7.43 74.87 48.13 98.36" fill="#c2d7de"/>
            <polygon points="88.57 72.49 88.57 74.86 48.13 98.36 48.14 95.99 88.57 72.49" fill="#5a8988"/>
            <polygon points="48.14 95.99 48.13 98.36 7.43 74.87 7.44 72.49 48.14 95.99" fill="#add6d2"/>
            <polygon points="88.57 72.49 48.14 95.99 7.44 72.49 47.87 48.99 88.57 72.49" fill="#e2ecef"/>
            <polygon points="73.09 70.19 73.09 71.66 48.08 86.2 48.09 84.73 73.09 70.19" fill="#5a8988"/>
            <polygon points="48.09 84.73 48.08 86.2 22.91 71.66 22.91 70.19 48.09 84.73" fill="#add6d2"/>
            <polygon points="73.09 70.19 48.09 84.73 22.91 70.19 47.92 55.66 73.09 70.19" fill="#e9f1f4"/>
            <polygon points="52.79 55.26 58.96 70.1 48.48 76.19 48.48 57.77 52.79 55.26" fill="#5a8988"/>
            <polygon points="48.48 57.51 48.48 76.19 37.92 70.1 44.1 55.26 48.48 57.51" fill="#add6d2"/>
            <path d="m8.35,101.83l-6.29-3.63v-11.34l6.29,3.63v11.34Zm9.31-5.97l-6.29-3.63v11.34l6.29,3.63v-11.34Zm9.31,16.72l-6.29-3.63v-11.34l6.29,3.63v11.34Zm9.31-5.97l-6.29-3.63v11.34l6.29,3.63v-11.34Zm9.05,16.57l-6.29-3.63v-11.34l6.29,3.63v11.34Zm-36.97-6.28l-6.29-3.63v-11.34l6.29,3.63v11.34Zm9.31-5.97l-6.29-3.63v11.34l6.29,3.63v-11.34Zm9.31,16.71l-6.29-3.63v-11.34l6.29,3.63v11.34Zm9.31-5.97l-6.29-3.63v11.34l6.29,3.63v-11.34Zm9.05,16.57l-6.29-3.63v-11.34l6.29,3.63v11.34Zm-36.97-6.28l-6.29-3.63v-11.34l6.29,3.63v11.34Zm9.31-5.97l-6.29-3.63v11.34l6.29,3.63v-11.34Zm9.31,16.71l-6.29-3.63v-11.34l6.29,3.63v11.34Zm9.31-5.97l-6.29-3.63v11.34l6.29,3.63v-11.34Zm9.05,16.57l-6.29-3.63v-11.34l6.29,3.63v11.34Zm-36.97-6.28l-6.29-3.63v-11.34l6.29,3.63v11.34Zm9.31-5.97l-6.29-3.63v11.34l6.29,3.63v-11.34Zm9.31,16.71l-6.29-3.63v-11.34l6.29,3.63v11.34Zm9.31-5.97l-6.29-3.63v11.34l6.29,3.63v-11.34Zm9.05,16.57l-6.29-3.63v-11.34l6.29,3.63v11.34Zm-36.97-6.28l-6.29-3.63v-11.34l6.29,3.63v11.34Zm9.31-5.97l-6.29-3.63v11.34l6.29,3.63v-11.34Zm9.31,16.71l-6.29-3.63v-11.34l6.29,3.63v11.34Zm9.31-5.97l-6.29-3.63v11.34l6.29,3.63v-11.34Zm9.05,16.57l-6.29-3.63v-11.34l6.29,3.63v11.34Zm-36.97-6.28l-6.29-3.63v-11.34l6.29,3.63v11.34Zm9.31-5.97l-6.29-3.63v11.34l6.29,3.63v-11.34Zm9.31,16.72l-6.29-3.63v-11.34l6.29,3.63v11.34Zm9.31-5.97l-6.29-3.63v11.34l6.29,3.63v-11.34Zm9.05,16.57l-6.29-3.63v-11.34l6.29,3.63v11.34Zm-36.97-6.28l-6.29-3.63v-11.34l6.29,3.63v11.34Zm9.31-5.97l-6.29-3.63v11.34l6.29,3.63v-11.34Zm9.31,16.71l-6.29-3.63v-11.34l6.29,3.63v11.34Zm9.31-5.97l-6.29-3.63v11.34l6.29,3.63v-11.34Zm9.05,16.57l-6.29-3.63v-11.34l6.29,3.63v11.34Zm-36.97-6.28l-6.29-3.63v-11.34l6.29,3.63v11.34Zm9.31-5.97l-6.29-3.63v11.34l6.29,3.63v-11.34Zm9.31,16.71l-6.29-3.63v-11.34l6.29,3.63v11.34Zm9.31-5.97l-6.29-3.63v11.34l6.29,3.63v-11.34Zm9.05,16.57l-6.29-3.63v-11.34l6.29,3.63v11.34Zm-36.97-6.28l-6.29-3.63v-11.34l6.29,3.63v11.34Zm9.31-5.97l-6.29-3.63v11.34l6.29,3.63v-11.34Zm10.17,29.75l-7.97-4.6v-18.55l7.97,4.6v18.55Zm8.44-19l-6.29-3.63v11.34l6.29,3.63v-11.34Zm9.05,16.57l-6.29-3.63v-11.34l6.29,3.63v11.34Z" fill="#fff" opacity=".6"/>
            <polygon points="39.03 228.7 39.03 229.26 39.23 228.81 39.03 228.7" fill="#94d4f1" mix-blend-mode="overlay" opacity=".43"/>
            <polygon points="59.64 121.44 57.23 120.03 57.19 108.7 59.61 110.11 59.64 121.44" fill="#9dc4c4"/>
            <polygon points="59.61 110.11 57.19 108.7 86.15 91.99 88.57 93.39 59.61 110.11" fill="#bed5dc"/>
            <polygon points="88.57 93.39 88.6 104.72 59.64 121.44 59.61 110.11 88.57 93.39" fill="#417275"/>
            <polygon points="59.64 136.36 57.23 134.96 57.19 123.63 59.61 125.03 59.64 136.36" fill="#9dc4c4"/>
            <polygon points="59.61 125.03 57.19 123.63 86.15 106.91 88.57 108.31 59.61 125.03" fill="#bed5dc"/>
            <polygon points="88.57 108.31 88.6 119.64 59.64 136.36 59.61 125.03 88.57 108.31" fill="#417275"/>
            <polygon points="59.64 151.28 57.23 149.88 57.19 138.55 59.61 139.95 59.64 151.28" fill="#9dc4c4"/>
            <polygon points="59.61 139.95 57.19 138.55 86.15 121.83 88.57 123.23 59.61 139.95" fill="#bed5dc"/>
            <polygon points="88.57 123.23 88.6 134.56 59.64 151.28 59.61 139.95 88.57 123.23" fill="#417275"/>
            <polygon points="59.64 166.2 57.23 164.8 57.19 153.47 59.61 154.87 59.64 166.2" fill="#9dc4c4"/>
            <polygon points="59.61 154.87 57.19 153.47 86.15 136.75 88.57 138.16 59.61 154.87" fill="#bed5dc"/>
            <polygon points="88.57 138.16 88.6 149.49 59.64 166.2 59.61 154.87 88.57 138.16" fill="#417275"/>
            <polygon points="59.64 181.13 57.23 179.72 57.19 168.39 59.61 169.8 59.64 181.13" fill="#9dc4c4"/>
            <polygon points="59.61 169.8 57.19 168.39 86.15 151.67 88.57 153.08 59.61 169.8" fill="#bed5dc"/>
            <polygon points="88.57 153.08 88.6 164.41 59.64 181.13 59.61 169.8 88.57 153.08" fill="#417275"/>
            <polygon points="59.64 196.05 57.23 194.64 57.19 183.31 59.61 184.72 59.64 196.05" fill="#9dc4c4"/>
            <polygon points="59.61 184.72 57.19 183.31 86.15 166.6 88.57 168 59.61 184.72" fill="#bed5dc"/>
            <polygon points="88.57 168 88.6 179.33 59.64 196.05 59.61 184.72 88.57 168" fill="#417275"/>
            <polygon points="59.64 210.97 57.23 209.56 57.19 198.23 59.61 199.64 59.64 210.97" fill="#9dc4c4"/>
            <polygon points="59.61 199.64 57.19 198.23 86.15 181.52 88.57 182.92 59.61 199.64" fill="#bed5dc"/>
            <polygon points="88.57 182.92 88.6 194.25 59.64 210.97 59.61 199.64 88.57 182.92" fill="#417275"/>
            <polygon points="59.64 225.89 57.23 224.49 57.19 213.16 59.61 214.56 59.64 225.89" fill="#9dc4c4"/>
            <polygon points="59.61 214.56 57.19 213.16 86.15 196.44 88.57 197.84 59.61 214.56" fill="#bed5dc"/>
            <polygon points="88.57 197.84 88.6 209.17 59.64 225.89 59.61 214.56 88.57 197.84" fill="#417275"/>
            <polygon points="59.64 240.81 57.23 239.41 57.19 228.08 59.61 229.48 59.64 240.81" fill="#9dc4c4"/>
            <polygon points="59.61 229.48 57.19 228.08 86.15 211.36 88.57 212.76 59.61 229.48" fill="#bed5dc"/>
            <polygon points="88.57 212.76 88.6 224.09 59.64 240.81 59.61 229.48 88.57 212.76" fill="#417275"/>
            <polygon points="59.61 214.56 59.61 215.73 60.28 214.17 59.61 214.56" fill="#94d4f1" mix-blend-mode="overlay" opacity=".25"/>
          </g>
          <g>
            <polygon points="171.75 219.99 171.51 276.44 129.08 301.1 129.32 244.65 171.75 219.99" fill="url(#_名称未設定グラデーション_1787)"/>
            <polygon points="129.32 244.65 129.08 301.1 86.37 276.44 86.61 219.99 129.32 244.65" fill="url(#_名称未設定グラデーション_979)"/>
            <polygon points="111.65 291.09 103.54 286.4 103.54 269.04 111.65 273.72 111.65 291.09" fill="#fff"/>
            <polygon points="171.75 219.99 129.32 244.65 86.61 219.99 129.04 195.34 171.75 219.99" fill="#f5f7f8"/>
            <polygon points="167.7 219.99 129.31 242.3 90.67 219.99 129.06 197.68 167.7 219.99" fill="url(#_名称未設定グラデーション_979-2)"/>
            <polygon points="129.06 199.82 165.86 221.06 167.7 219.99 129.06 197.68 90.67 219.99 92.51 221.06 129.06 199.82" fill="#386b88"/>
            <path d="m96.17,245.75l-6.76-3.9v-12.19l6.76,3.9v12.19Zm10-6.41l-6.76-3.9v12.19l6.76,3.9v-12.19Zm-10,22.6l-6.76-3.9v-12.19l6.76,3.9v12.19Zm10-6.41l-6.76-3.9v12.19l6.76,3.9v-12.19Zm-10,22.6l-6.76-3.9v-12.19l6.76,3.9v12.19Z" fill="#fff"/>
            <path d="m115.48,256.8l-6.76-3.9v-12.19l6.76,3.9v12.19Zm10-6.41l-6.76-3.9v12.19l6.76,3.9v-12.19Zm-10,22.6l-6.76-3.9v-12.19l6.76,3.9v12.19Zm10-6.41l-6.76-3.9v12.19l6.76,3.9v-12.19Zm0,16.18l-6.76-3.9v12.19l6.76,3.9v-12.19Z" fill="#fff"/>
            <path d="m161.8,233.39l6.76-3.9v12.19l-6.76,3.9v-12.19Zm-10,17.96l6.76-3.9v-12.19l-6.76,3.9v12.19Zm10-1.78l6.76-3.9v12.19l-6.76,3.9v-12.19Zm-10,17.96l6.76-3.9v-12.19l-6.76,3.9v12.19Zm10-1.78l6.76-3.9v12.19l-6.76,3.9v-12.19Zm-10,17.96l6.76-3.9v-12.19l-6.76,3.9v12.19Z" fill="#fff" opacity=".6"/>
            <path d="m142.48,244.44l6.76-3.9v12.19l-6.76,3.9v-12.19Zm-10,17.96l6.76-3.9v-12.19l-6.76,3.9v12.19Zm10-1.78l6.76-3.9v12.19l-6.76,3.9v-12.19Zm-10,17.96l6.76-3.9v-12.19l-6.76,3.9v12.19Zm10-1.78l6.76-3.9v12.19l-6.76,3.9v-12.19Zm-10,17.96l6.76-3.9v-12.19l-6.76,3.9v12.19Z" fill="#fff" opacity=".6"/>
          </g>
          <g>
            <g>
              <path d="m208.1,257.85c.45.11,3.28-.04,3.35-.07.01.04.11.31.11.36,0,.28-.14.54-.49.75-.66.38-1.89.38-2.55,0-.55-.32-.53-.61-.42-1.04Z" fill="#56787b"/>
              <path d="m208.58,258.62c.66.38,1.72.37,2.39,0,.47-.27.67-.72.32-1.13-.01,0-.02-.02-.03-.03-.53-.58-1.9-.66-2.67-.22-.66.38-.67,1,0,1.38Z" fill="#708e90"/>
            </g>
            <path d="m209.07,258.07c.4.24,1.06.23,1.47,0,.29-.17.41-.45.2-.69,0,0-.01-.01-.02-.02-.33-.36-1.17-.41-1.64-.13-.41.24-.41.61,0,.85Z" fill="#8dabad"/>
            <path d="m208.96,257.48c0,.13.07.26.25.36.49.28,1.31.12,1.43-.25.01-.04.02-.07.02-.11h0c.02-.61-.03-6.21-.33-6.54,0,0,0,0-.01,0-.03-.04-.07-.06-.12-.09-.37-.19-.98-.04-.98.26h0c-.3,1.11-.26,5.54-.26,6.39Z" fill="#56787b"/>
            <path d="m209.22,251.09c0,.11.08.19.17.24.36.21.99.06,1-.23,0,0,0,0,0,0h0s0,0,0,0h0s0,0,0,0c.18-.36.24-.78.16-1.18t0,0h0s0,0,0,0h0s-1.5,0-1.5,0c0,0,0,0,0,0,0,0,0,0,0,0-.08.41-.02.82.16,1.17Z" fill="#56787b"/>
            <g>
              <path d="m209.2,250.02c.34.2.83.17,1.12.04h0c.09-.04.18-.09.24-.15.13-.13.13-.28.07-.46h0s-.03-.08-.05-.12h0s-.02-.05-.03-.08h0c-.05-.11-.09-.24-.1-.37.01-.07,0-.07-.03-.19,0,0,0,0,0,0,0-.04-.03-.07-.06-.11,0,0,0,0-.01-.01-.24-.26-.92-.24-1.11.04-.03.05-.05.11-.05.11-.02.08-.03.05-.03.14,0,.15-.07.33-.13.47h0s-.03.08-.05.12h0c-.06.19-.09.4.21.57Z" fill="#56787b"/>
              <path d="m209.37,249c.39.23,1.06.06,1.05-.26,0-.04-.02-.1-.07-.15,0,0,0,0-.01-.01-.19-.21-.69-.25-.97-.08-.24.14-.24.36,0,.5Z" fill="#708e90"/>
            </g>
            <path d="m209.37,234.01c0,.31,0,6.94,0,7.25,0,.03,0,.06,0,.1l.04,7.41s.06.06.06.06c.17.15.56.11.7-.02.05-.04.07-.09.07-.15v-7.98s0-6.67,0-6.67c0,0-.85,0-.85,0Z" fill="#56787b"/>
            <g>
              <path d="m209.77,236.33c.12,0,.23-.02.33-.07.09-.05.13-.12.13-.2v-2.63s-.85,0-.86,0c0,.31,0,2.33,0,2.63-.01.11.14.27.41.27Z" fill="#56787b"/>
              <g>
                <g>
                  <path d="m210.49,235.38c-.5.29-1.64.18-1.64-.41,0-.02.04-.13.05-.18,0,0,0,0,0-.01.01-.05.04-.11.09-.16,0,0,.01-.01.02-.02.26-.29.99-.38,1.44-.11.16.09.25.2.26.33h0c.06.24.07.39-.23.56Z" fill="#56787b"/>
                  <path d="m210.45,235.23c-.57.33-1.57.09-1.55-.39,0-.06.03-.14.1-.22,0,0,.01-.01.02-.02.28-.31,1.01-.36,1.44-.12.36.21.36.54,0,.74Z" fill="#254f4d"/>
                </g>
                <path d="m208.92,234.87s0,0,0,0c.16.22.52.34.79.35.48.03.84-.19.93-.35t0,0s0,0,0,0c0,0,0,0,0-.01.13-.21.03-.42-.2-.56-.35-.21-.96-.23-1.36.02-.27.17-.29.37-.17.54Z" fill="#56787b"/>
                <path d="m208.07,233.74c.02.18.12.31.12.31.05.08.73.83.73.83.02.02.03.04.05.06.53-.14.35-.09.8-.21l.83.21c.12-.13.81-.9.87-1.07.22-.67-.97-1.45-2.38-1.09,0,0-.37.08-.66.3h0c-.22.16-.39.4-.36.67Z" fill="#56787b"/>
                <g>
                  <circle cx="209.71" cy="232.62" r="2.08" fill="#f6dc61"/>
                  <circle cx="209.71" cy="233.22" r=".93" fill="#fcf1c0"/>
                  <path d="m207.63,232.62c0,1.15.93,2.08,2.08,2.08.74,0,1.38-.38,1.75-.96-1.37.88-3.2-.1-3.2-1.75,0-.41.12-.8.33-1.12-.58.37-.96,1.02-.96,1.75Z" fill="#f5d12c" mix-blend-mode="multiply" opacity=".4"/>
                </g>
              </g>
            </g>
          </g>
          <g>
            <path d="m176.89,273.06c-.1.12-.22.47-.22.47l-.05.69c.09.06.15-.02.15-.02.05.02.11-.07.11-.07l.13-.34s.17-.23.18-.18c0,.05,0,.15-.04.31-.04.16.08.19.08.19l.12-.21.15-.4.02-.41s-.38-.22-.39-.22c-.02,0-.19.13-.24.18Z" fill="#edcdac"/>
            <path d="m178.73,267.25s-.67.05-.95.45c-.27.39-.04,2.73-.04,2.73l-.7,2.47c.14.33.55.33.55.33l1.05-2.58.17-1.99c-.09,0-.17.01-.26,0-.3-.03.19-1.41.19-1.41Z" fill="#9cacb8"/>
            <path d="m181.23,278.65l-.68.35s-.31.64-.32.63c-.53.33-.37.59-.13.66.15.05.65-.2.83-.3l.19-.19.45-.46c.06-.09.07-.2.02-.3l-.35-.4Z" fill="#3f3f3e"/>
            <path d="m178.39,281.04l-.69.56c-.13.11-.5.27-.55.44v.02c0,.42.68.29.68.29l1.13-.46c.1-.04.22-.2.23-.3l-.13-.45-.68-.09Z" fill="#3f3f3e"/>
            <path d="m179.47,272.8l-1.58-.43s0,1.26.1,2.08c.07.58.43,2.31.43,2.31l2.08,2.37s.56.33.85-.41l-1.73-2.77-.14-3.14Z" fill="#393939"/>
            <path d="m178.85,272.49v1.4l-.67,3.36.06,3.91c.6.52.92.12.92.12l.41-3.88s.53-1.98.95-2.89c.42-.91.35-1.9.35-1.9l-2.04-.14Z" fill="#393939"/>
            <path d="m180.69,267.77l-.83-.56-.52-.1h-.52c-.73,0-.93.32-1.09.76-.13.36.17,2.65.17,2.65l-.09,1.93s.16.45,1.49.65c1.39.21,1.57-.29,1.57-.29l-.06-1.43.22-2.71c.03-.46.06-.67-.34-.89Z" fill="#666567"/>
            <path d="m178.77,266.3l-.04.91c-.01.31.23.57.53.58.31.01.57-.23.58-.53l-.13-.95h-.94Z" fill="#edcdac"/>
            <path d="m178.97,267.69l.12.44s.64-.08.96-.79l-.26-.41s-.03.68-.82.77Z" fill="#9cacb8"/>
            <path d="m178.73,267.09c-.23.21-.11.89-.11.89.07-.11.35-.29.35-.29-.32-.23-.24-.61-.24-.61Z" fill="#9cacb8"/>
            <path d="m178.21,265.43l.14,1.19c.06.47.39.72.76.6.05-.02.8-.35.74-.82v-.87s-1.64-.1-1.64-.1Z" fill="#edcdac"/>
            <path d="m178.35,264.93c-.64.52-.12.69-.12.69,0,0,1.13-.11,1.16.08,0,.06,0,.4,0,.4l.14.08.07-.17.14.78s.26-.31.32-.82c.03-.23.1-.71-.11-.92-.43-.43-1.01-.6-1.6-.12Z" fill="#33383c"/>
            <path d="m179.6,266.01l.05.39c.17.06.28-.18.23-.38-.07-.27-.28,0-.28,0Z" fill="#edcdac"/>
            <g>
              <path d="m181.38,274.95h0s0,0,0-.01h0Z" fill="#f1b4a6"/>
              <path d="m181.18,273.47l-.13.59.11.76s.16,0,.14-.23l-.04-.26v.03s0,0,0,0l.11.3v.29c.02.08.12.11.16.04.01-.02.12-.12.12-.12l.21-.19.08-.31-.22-.86-.54-.03Z" fill="#edcdac"/>
            </g>
            <path d="m180.58,267.85c-.62.13-.3,1.25-.3,1.25l.63,2,.26,2.37c.49.2.56.06.56.06l.04-2.52-.39-2.19s-.16-1.11-.8-.97Z" fill="#9cacb8"/>
          </g>
          <g>
            <path d="m153.52,164.56c.1.12.22.47.22.47l.05.69c-.09.06-.15-.02-.15-.02-.05.02-.11-.07-.11-.07l-.13-.34s-.17-.23-.18-.18c0,.05,0,.15.04.31.04.16-.08.19-.08.19l-.12-.21-.15-.4-.02-.41s.38-.22.39-.22c.02,0,.19.13.24.18Z" fill="#edcdac"/>
            <path d="m151.69,158.75s.67.05.95.45c.27.39.04,2.73.04,2.73l.7,2.47c-.14.33-.55.33-.55.33l-1.05-2.58-.17-1.99c.09,0,.17.01.26,0,.3-.03-.19-1.41-.19-1.41Z" fill="#9cacb8"/>
            <path d="m149.19,170.15l.68.35s.31.64.32.63c.53.33.37.59.13.66-.15.05-.65-.2-.83-.3l-.19-.19-.45-.46c-.06-.09-.07-.2-.02-.3l.35-.4Z" fill="#3f3f3e"/>
            <path d="m152.02,172.54l.69.56c.13.11.5.27.55.44v.02c0,.42-.68.29-.68.29l-1.13-.46c-.1-.04-.22-.2-.23-.3l.13-.45.68-.09Z" fill="#3f3f3e"/>
            <path d="m150.94,164.3l1.58-.43s0,1.26-.1,2.08c-.07.58-.43,2.31-.43,2.31l-2.08,2.37s-.56.33-.85-.41l1.73-2.77.14-3.14Z" fill="#393939"/>
            <path d="m151.56,163.99v1.4s.67,3.36.67,3.36l-.06,3.91c-.6.52-.92.12-.92.12l-.41-3.88s-.53-1.98-.95-2.89c-.42-.91-.35-1.9-.35-1.9l2.04-.14Z" fill="#393939"/>
            <path d="m149.72,159.28l.83-.56.52-.1h.52c.73,0,.93.32,1.09.76.13.36-.17,2.65-.17,2.65l.09,1.93s-.16.45-1.49.65c-1.39.21-1.57-.29-1.57-.29l.06-1.43-.22-2.71c-.03-.46-.06-.67.34-.89Z" fill="#666567"/>
            <path d="m151.65,157.81l.04.91c.01.31-.23.57-.53.58-.31.01-.57-.23-.58-.53l.13-.95h.94Z" fill="#edcdac"/>
            <path d="m151.44,159.2l-.12.44s-.64-.08-.96-.79l.26-.41s.03.68.82.77Z" fill="#9cacb8"/>
            <path d="m151.68,158.59c.23.21.11.89.11.89-.07-.11-.35-.29-.35-.29.32-.23.24-.61.24-.61Z" fill="#9cacb8"/>
            <path d="m152.21,156.94l-.14,1.19c-.06.47-.39.72-.76.6-.05-.02-.8-.35-.74-.82v-.87s1.64-.1,1.64-.1Z" fill="#edcdac"/>
            <path d="m152.06,156.44c.64.52.12.69.12.69,0,0-1.13-.11-1.16.08,0,.06,0,.4,0,.4l-.14.08-.07-.17-.14.78s-.26-.31-.32-.82c-.03-.23-.1-.71.11-.92.43-.43,1.01-.6,1.6-.12Z" fill="#33383c"/>
            <path d="m150.81,157.52l-.05.39c-.17.06-.28-.18-.23-.38.07-.27.28,0,.28,0Z" fill="#edcdac"/>
            <g>
              <path d="m149.03,166.45h0s0,0,0-.01h0Z" fill="#f1b4a6"/>
              <path d="m149.24,164.97l.13.59-.11.76s-.16,0-.14-.23l.04-.26v.03s0,0,0,0l-.11.3v.29c-.02.08-.12.11-.16.04-.01-.02-.12-.12-.12-.12l-.21-.19-.08-.31.22-.86.54-.03Z" fill="#edcdac"/>
            </g>
            <path d="m149.83,159.36c.62.13.3,1.25.3,1.25l-.63,2-.26,2.37c-.49.2-.56.06-.56.06l-.04-2.52.39-2.19s.16-1.11.8-.97Z" fill="#9cacb8"/>
          </g>
          <g>
            <path d="m233.27,237.43v1.54s.89-.6.82-1.06c-.3-1.91-.47-3.02-.47-3.02l-.35,2.54Z" fill="#527891"/>
            <path d="m233.81,247.57l-.74.5s-.56.08-.21.42c0,0,.66.02,1-.09.34-.12.67-.07.82-.1.28-.06.35-.27.35-.27l-.28-.6-.94.14Z" fill="#3f3f3e"/>
            <path d="m229.39,247.82s-.51.02-.57.01c-.05,0-.56.02-.37.34.04.07.16.14.29.21,0,0,1.2.35,1.29.36.08,0,.43.05.5-.21l-.06-.38-1.08-.33Z" fill="#3f3f3e"/>
            <path d="m233.49,240.95c.1-.58.06-1.18-.14-1.74l-.08-.23-2.34.74,1.48,4.83,1.3,3.09s.76.23,1.04-.21l-1.09-3.49-.16-2.98Z" fill="#676868"/>
            <path d="m230.55,239.47l-1.09,3.94c-.06.16-.08.32-.08.49v3.95c.4.74,1.05.53,1.12.49.07-.04.45-3.97.4-4.18-.05-.2,1.04-2.62,1.04-2.62l1.19-.4-1.8-1.17-.78-.49Z" fill="#676868"/>
            <path d="m232.87,234.17s-.6-.22-1.33.06c-.94.36-1.06.89-1.09,1.44-.04.77.3,1.65.3,1.65l-.02.89-.08,1.59s.56.32,1.64.09c1.07-.24,1.2-.34,1.2-.34l-.13-1.72s.34-2.12.31-2.27c-.03-.15.22-1.05-.79-1.38Z" fill="#527891"/>
            <g>
              <path d="m230.28,241.57s-.02-.1-.11-.12v-.37s.06-.39-.06-.42l-.53-.11s-.27.61-.25.66c.01.05.13.45.14.5.01.05.18.16.3.18.12.02.37.02.37.02,0,0,.02-.05,0-.1l.08-.03s.18-.04.02-.15l.04-.05Z" fill="#edcdac"/>
              <path d="m230.67,234.98c-.17.21-.34,2.84-.34,2.84,0,0-.81,2.58-.83,2.66-.01.09.23.48.68.19l1.22-2.43s.35-1.74.43-2.33c.07-.52-.3-1.99-1.16-.93Z" fill="#527891"/>
            </g>
            <g>
              <path d="m231.55,233.13l.05,1.07c0,.32,1.09.22,1.1-.11l-.07-.95h-1.08Z" fill="#edcdac"/>
              <path d="m232.69,233.89c-.1.3-.76.31-1.09.18l-.11.15c.2.3.9.38,1.21.05.07-.08.08-.19.04-.29l-.05-.09Z" fill="#026155"/>
              <path d="m231.15,233.25c0,.49.33.71.8.72,0,0,.87-.26.88-.74l.11-.9-1.77-.32-.02,1.25Z" fill="#edcdac"/>
              <path d="m231.59,231.4c-.39.16-1,.55-.42.96,0,0,.24.06.23.44,0,.38.39.76.68,1,.21.17.59-.1.59-.1,0,0,.58-.64.31-1.76-.17-.68-1.12-.66-1.39-.54Z" fill="#33383c"/>
              <path d="m231.35,232.82v.41c.17.08.31-.15.29-.37-.03-.29-.29-.05-.29-.05Z" fill="#edcdac"/>
            </g>
          </g>
          <g>
            <path d="m143.03,292.87v1.54s-.89-.6-.82-1.06c.3-1.91.47-3.02.47-3.02l.35,2.54Z" fill="#527891"/>
            <path d="m142.49,303.01l.74.5s.56.08.21.42c0,0-.66.02-1-.09-.34-.12-.67-.07-.82-.1-.28-.06-.35-.27-.35-.27l.28-.6.94.14Z" fill="#3f3f3e"/>
            <path d="m146.91,303.26s.51.02.57.01c.05,0,.56.02.37.34-.04.07-.16.14-.29.21,0,0-1.2.35-1.29.36-.08,0-.43.05-.5-.21l.06-.38,1.08-.33Z" fill="#3f3f3e"/>
            <path d="m142.82,296.39c-.1-.58-.06-1.18.14-1.75l.08-.23,2.34.74-1.48,4.83-1.3,3.09s-.76.23-1.04-.21l1.09-3.49.16-2.98Z" fill="#676868"/>
            <path d="m145.76,294.91l1.09,3.94c.06.16.08.32.08.49v3.95c-.4.74-1.05.53-1.12.49-.07-.04-.45-3.97-.4-4.18.05-.2-1.04-2.62-1.04-2.62l-1.19-.4,1.8-1.17.78-.49Z" fill="#676868"/>
            <path d="m143.43,289.61s.6-.22,1.33.06c.94.36,1.06.89,1.09,1.44.04.77-.3,1.65-.3,1.65l.02.89.08,1.59s-.56.32-1.64.09c-1.07-.24-1.2-.34-1.2-.34l.13-1.72s-.34-2.12-.31-2.27c.03-.15-.22-1.05.79-1.38Z" fill="#527891"/>
            <g>
              <path d="m146.02,297.01s.02-.1.11-.12v-.37s-.06-.39.06-.42l.53-.11s.27.61.25.66c-.01.05-.13.45-.14.5-.02.05-.18.16-.3.18-.12.02-.37.02-.37.02,0,0-.02-.05,0-.1l-.08-.03s-.18-.04-.02-.15l-.04-.05Z" fill="#edcdac"/>
              <path d="m145.63,290.42c.17.21.34,2.84.34,2.84,0,0,.81,2.58.83,2.66.01.09-.23.48-.68.19l-1.22-2.43s-.35-1.74-.43-2.33c-.07-.52.3-1.99,1.16-.93Z" fill="#527891"/>
            </g>
            <g>
              <path d="m144.76,288.57l-.05,1.07c0,.32-1.09.21-1.1-.11l.07-.95h1.08Z" fill="#edcdac"/>
              <path d="m143.61,289.33c.1.3.76.31,1.09.18l.11.15c-.2.3-.9.38-1.21.05-.07-.08-.08-.19-.04-.29l.05-.09Z" fill="#026155"/>
              <path d="m145.15,288.7c0,.49-.33.71-.8.72,0,0-.87-.26-.88-.74l-.11-.9,1.77-.32.02,1.25Z" fill="#edcdac"/>
              <path d="m144.72,286.84c.39.16,1,.55.42.96,0,0-.24.06-.23.44,0,.38-.39.76-.68,1-.21.17-.59-.1-.59-.1,0,0-.58-.64-.31-1.76.17-.68,1.12-.66,1.39-.54Z" fill="#33383c"/>
              <path d="m144.96,288.27v.41c-.17.08-.31-.15-.29-.37.03-.29.29-.05.29-.05Z" fill="#edcdac"/>
            </g>
          </g>
        </g>
      </g>
    </g>
  </g>
</svg>