<?xml version="1.0" encoding="UTF-8"?>
<svg id="_レイヤー_2" data-name="レイヤー 2" xmlns="http://www.w3.org/2000/svg" viewBox="0 0 488.61 250.24">
  <g id="_デザイン" data-name="デザイン">
    <g>
      <polygon id="Y" points="419.35 145.29 391.98 200.16 364.08 145.29 358.09 145.29 389.19 206.66 389.19 247.54 394.64 247.54 394.64 206.66 425.05 145.29 419.35 145.29" fill="#fff"/>
      <path id="R" d="m331.62,206.5c4.91-2.87,8.86-6.86,11.72-11.86,2.87-5,4.32-10.58,4.32-16.58,0-10.44-2.93-18.6-8.72-24.25-5.79-5.65-14.1-8.51-24.72-8.51h-6.31v102.25h5.32v-31.38l29.93,31.38h7.18l-34.83-36.72c5.83-.04,11.24-1.49,16.1-4.32Zm-16.45-.59h-1.93v-55.7h1.26c8.91,0,15.85,2.45,20.64,7.28,4.79,4.83,7.21,11.8,7.21,20.71,0,5.11-1.2,9.82-3.58,14-2.38,4.18-5.68,7.55-9.81,10.01-4.13,2.46-8.77,3.71-13.78,3.71Z" fill="#fff"/>
      <path id="O" d="m265.48,149.81h0c-8.05-4.79-17-7.23-26.58-7.23s-18.44,2.45-26.58,7.29c-8.14,4.84-14.69,11.44-19.48,19.62-4.79,8.18-7.22,17.1-7.22,26.51s2.41,18.5,7.15,26.78c4.75,8.27,11.28,14.99,19.41,19.96,8.14,4.98,17.09,7.5,26.59,7.5s18.55-2.45,26.65-7.29c8.09-4.84,14.6-11.48,19.35-19.76,4.75-8.27,7.15-17.42,7.15-27.18s-2.41-18.46-7.15-26.64c-4.74-8.18-11.23-14.76-19.28-19.55Zm-26.72,95.51c-8.51,0-16.51-2.22-23.77-6.61-7.27-4.39-13.14-10.42-17.44-17.91-4.3-7.49-6.48-15.74-6.48-24.52s2.18-16.88,6.48-24.32c4.3-7.45,10.17-13.45,17.44-17.84,7.27-4.39,15.31-6.61,23.91-6.61s16.5,2.22,23.77,6.61c7.27,4.39,13.12,10.39,17.37,17.84,4.26,7.45,6.41,15.63,6.41,24.32s-2.18,17.03-6.48,24.52c-4.3,7.49-10.17,13.52-17.44,17.91-7.27,4.39-15.26,6.61-23.77,6.61Z" fill="#fff"/>
      <polygon id="T" points="130.94 150.2 154.29 150.2 154.29 247.54 159.75 247.54 159.75 150.2 182.83 150.2 182.83 145.29 130.94 145.29 130.94 150.2" fill="#fff"/>
      <path id="S" d="m113.95,198.74h-.01c-4.59-3.97-11.11-8.44-19.38-13.29-6.67-3.82-11.46-7.4-14.25-10.63-2.74-3.18-4.13-7.04-4.13-11.49s1.49-8.16,4.43-10.83c2.95-2.69,6.65-4.05,11-4.05s8.12,1.07,11.62,3.17c3.51,2.1,6.31,5.04,8.32,8.72l.94,1.71v-9.01l-.11-.14c-4.94-6.22-11.7-9.37-20.1-9.37-6.21,0-11.41,1.77-15.45,5.25-4.06,3.5-6.11,8.45-6.11,14.69,0,4.67,1.21,8.85,3.6,12.44,1.82,2.55,3.99,4.81,6.45,6.72,2.44,1.9,5.68,4.09,9.63,6.51l4.32,2.7c6.25,3.84,11.09,7.21,14.38,10.01,3.26,2.78,5.62,5.69,7.03,8.67,1.4,2.98,2.11,6.59,2.11,10.72,0,4.56-1.11,8.65-3.3,12.15-2.19,3.51-5.19,6.26-8.92,8.19-3.74,1.93-7.86,2.91-12.26,2.91-6.35,0-11.87-1.52-16.4-4.51-4.53-2.99-8.04-7.19-10.42-12.48l-.96-2.12v9.77l.08.13c6.28,9.37,15.23,14.13,26.61,14.13,5.81,0,11.11-1.18,15.75-3.5,4.65-2.33,8.35-5.68,11-9.97,2.65-4.29,3.99-9.33,3.99-14.98,0-4.45-.76-8.56-2.27-12.21-1.51-3.65-3.93-7.03-7.21-10.03Z" fill="#fff"/>
      <polygon id="T-2" data-name="T" points="436.72 7.62 460.07 7.62 460.07 104.95 465.53 104.95 465.53 7.62 488.61 7.62 488.61 2.7 436.72 2.7 436.72 7.62" fill="#fff"/>
      <path id="C" d="m410.5,1.71c-3.72-1.13-8.82-1.71-15.13-1.71-9.13,0-17.87,2.38-25.97,7.09-8.09,4.7-14.65,11.21-19.48,19.35-4.84,8.14-7.29,17.26-7.29,27.12s2.36,19.54,7.02,27.72c4.66,8.18,11.05,14.7,19.01,19.35,7.96,4.66,16.81,7.02,26.31,7.02,5.42,0,10.48-.62,15.05-1.84,4.57-1.22,9.09-3.17,13.43-5.79l.24-.15v-6.22l-.78.52c-4.35,2.93-8.76,5.11-13.1,6.49-4.34,1.37-9.51,2.07-15.37,2.07-8.15,0-15.85-2.22-22.89-6.61-7.05-4.39-12.78-10.39-17.04-17.85-4.26-7.45-6.41-15.63-6.41-24.32s2.14-16.76,6.35-24.26c4.21-7.5,10.01-13.57,17.24-18.04,7.22-4.47,15.33-6.74,24.1-6.74,5.76,0,10.64.65,14.49,1.93,3.85,1.29,8.1,3.51,12.63,6.62l.78.54v-6.23l-.25-.14c-4.87-2.79-9.22-4.78-12.93-5.92Z" fill="#fff"/>
      <polygon id="E" points="293.76 104.95 331.07 104.95 331.07 100.04 299.21 100.04 299.21 66.61 325.81 66.61 325.81 61.7 299.21 61.7 299.21 7.62 331.07 7.62 331.07 2.7 293.76 2.7 293.76 104.95" fill="#fff"/>
      <path id="J" d="m243,7.62h24.98v66.33c0,9.28-2.14,16.37-6.35,21.06-4.2,4.68-10.16,7.06-17.72,7.06-8.27,0-15.28-3.08-20.83-9.15l-.87-.95v7.05l.17.15c3.18,2.73,6.53,4.73,9.94,5.96,3.41,1.23,7.22,1.85,11.31,1.85,9.19,0,16.54-2.89,21.83-8.6,5.28-5.69,7.96-14.1,7.96-24.98V2.7h-30.43v4.92Z" fill="#fff"/>
      <path id="O-2" data-name="O" d="m193,7.23h0c-8.05-4.79-17-7.23-26.58-7.23s-18.44,2.45-26.58,7.29c-8.14,4.84-14.69,11.44-19.48,19.62-4.79,8.18-7.22,17.1-7.22,26.51s2.41,18.5,7.15,26.78c4.75,8.27,11.28,14.99,19.41,19.96,8.14,4.98,17.09,7.5,26.59,7.5s18.55-2.45,26.65-7.29c8.09-4.84,14.6-11.48,19.35-19.76,4.75-8.27,7.15-17.42,7.15-27.18s-2.41-18.46-7.15-26.64c-4.75-8.18-11.23-14.76-19.28-19.55Zm-26.72,95.51c-8.51,0-16.51-2.22-23.77-6.61-7.27-4.39-13.14-10.42-17.44-17.91-4.3-7.49-6.48-15.74-6.48-24.52s2.18-16.88,6.48-24.32c4.3-7.45,10.17-13.45,17.44-17.84,7.27-4.39,15.31-6.61,23.91-6.61s16.5,2.22,23.77,6.61c7.27,4.39,13.12,10.39,17.37,17.84,4.26,7.45,6.41,15.63,6.41,24.32s-2.18,17.03-6.48,24.52c-4.3,7.49-10.17,13.52-17.44,17.91-7.27,4.39-15.26,6.61-23.77,6.61Z" fill="#fff"/>
      <path id="R-2" data-name="R" d="m80,63.91c4.91-2.87,8.86-6.86,11.72-11.86,2.87-5,4.32-10.58,4.32-16.58,0-10.44-2.93-18.6-8.72-24.25-5.79-5.65-14.1-8.51-24.72-8.51h-6.31v102.25h5.32v-31.38l29.93,31.38h7.18l-34.83-36.72c5.83-.04,11.24-1.49,16.1-4.32Zm-16.45-.59h-1.93V7.62h1.26c8.91,0,15.85,2.45,20.64,7.28,4.79,4.83,7.21,11.8,7.21,20.71,0,5.11-1.2,9.82-3.58,14-2.38,4.18-5.68,7.55-9.81,10.01-4.13,2.46-8.77,3.71-13.78,3.71Z" fill="#fff"/>
      <path id="P" d="m30.14,11.27h0C24.13,5.58,15.66,2.7,4.96,2.7H0v102.25h5.46v-36.85h.58c6.18,0,11.85-1.41,16.85-4.18,5.01-2.78,9.02-6.79,11.94-11.94,2.91-5.14,4.38-11.1,4.38-17.73,0-9.55-3.05-17.28-9.07-22.98Zm3.61,23.25c0,9.09-2.58,16.21-7.68,21.17-5.1,4.97-11.75,7.49-19.77,7.49h-.85V7.62h.58c8.82,0,15.72,2.34,20.51,6.95,4.78,4.61,7.2,11.32,7.2,19.96Z" fill="#fff"/>
    </g>
  </g>
</svg>