<?xml version="1.0" encoding="UTF-8"?>
<svg id="_レイヤー_2" data-name="レイヤー 2" xmlns="http://www.w3.org/2000/svg" viewBox="0 0 967.98 202.06">
  <g id="_デザイン" data-name="デザイン">
    <g>
      <path d="M139.54,69.08c9.12,10.6,27.59,20.98,49.59,24.28,1.03,.11,1.37,.34,1.37,.57,0,.91-7.87,2.51-11.51,5.02-.57,.34-.8,.57-1.25,.57-2.85,0-25.76-11.51-39.1-28.27,0,10.37,.23,21.2,.34,27.7v.23c0,2.62-2.17,3.76-3.76,3.76-1.37,0-2.62-.91-2.62-3.31v-.46c.46-6.61,.68-16.07,.91-25.19-15.96,18.7-46.74,27.02-51.19,27.02-.57,0-.91-.11-.91-.34s.8-.68,2.28-1.14c12.88-3.88,31.35-12.2,46.4-30.44h-1.14c-6.27,0-21.77,.11-31.81,1.25h-.11c-2.05,0-5.13-4.33-5.13-5.81,11.63,1.48,31.12,1.82,37.62,1.82h4.1v-9.46h-2.62c-5.81,0-14.82,.11-24.17,1.14h-.11c-1.94,0-5.02-3.99-5.02-5.47,10.72,1.48,23.71,1.6,29.75,1.6h2.17v-.8c0-1.6-.23-6.04-.34-8.32h-8.55c-6.04,0-13.57,.23-23.37,1.25h-.11c-2.05,0-5.36-4.33-5.36-5.81,11.17,1.48,23.14,1.82,29.41,1.82h1.37c-.91-.34-1.82-1.25-2.51-2.96-1.03-2.74-4.33-6.84-6.61-9.23-.57-.57-.91-.91-.91-1.03h.11c2.96,0,13.57,3.99,13.57,9.8,0,1.6-.91,2.96-2.05,3.42h12.54c5.47-7.98,6.84-11.86,7.64-14.59h-25.88c-6.27,0-19.72,.23-29.87,1.25h-.11c-2.17,0-5.02-4.33-5.02-5.7,11.63,1.37,29.07,1.71,35.57,1.71h1.82V13.68c0-4.9-.23-10.03-.91-12.88,0-.23-.11-.46-.11-.57s.11-.23,.23-.23c1.6,0,10.15,1.25,10.15,3.65,0,.57-.57,1.14-1.25,1.71-2.62,2.05-2.74,.34-3.19,6.16-.11,1.6-.23,10.94-.23,13.45h10.83V13.68c0-4.9-.23-10.03-.91-12.88,0-.23-.11-.46-.11-.57s.11-.23,.23-.23c1.6,0,10.15,1.25,10.15,3.65,0,.57-.57,1.14-1.25,1.71-2.62,2.05-2.74,.34-3.19,6.16-.11,1.6-.23,10.94-.23,13.45h2.39l.46-.57c1.14-1.37,9.01-10.94,11.97-19.84,.23-.68,.23-1.03,.46-1.03,.11,0,8.32,5.36,8.32,7.07,0,.57-.57,1.03-2.28,1.03h-1.37c-1.37,0-1.25,.57-2.17,1.48-2.74,2.62-7.18,7.3-12.88,11.86h18.13c.8,0,1.6-.46,1.94-1.03,4.67-6.5,5.36-6.61,5.93-6.61,2.74,0,10.37,6.95,10.37,9.01,0,.68-.57,1.37-2.51,1.37h-32.95c2.28,1.48,5.47,3.65,5.47,4.9,0,.57-.46,1.03-1.82,1.03-.34,0-.68,0-1.14-.11-.23,0-.46-.11-.68-.11-.8,0-.68,.46-1.48,1.25l-7.87,7.64h15.62c.46,0,1.25-.46,1.71-1.03,1.6-2.05,4.45-4.9,5.47-4.9,1.82,0,9.35,4.9,9.35,7.3,0,.68-.46,1.37-2.28,1.37h-30.44c0,.11,.11,.23,.11,.34,0,.57-.68,1.03-1.25,1.37-2.17,1.03-2.51,1.03-2.74,4.45,0,.91-.11,1.94-.11,2.96h13.45c.46,0,1.14-.46,1.6-1.03,1.14-1.48,3.88-4.67,5.24-4.67,.8,0,8.89,3.99,8.89,7.07,0,.68-.46,1.37-2.17,1.37h-27.13c-.11,2.85-.11,6.16-.11,9.46h26.45c.57,0,1.37-.46,1.82-1.03,.11-.23,3.88-5.47,5.7-5.47s10.15,5.24,10.15,7.98c0,.68-.57,1.25-2.39,1.25h-40.81Zm-28.84-51.76c-1.25-2.96-4.67-7.3-7.18-9.8-.57-.57-.8-.8-.8-.91s0-.11,.11-.11c3.88,0,15.05,3.99,15.05,10.15,0,2.28-1.6,4.1-3.42,4.1-1.37,0-2.74-1.03-3.76-3.42Z" fill="#003383"/>
      <path d="M263.23,98.38c0,1.82-1.82,3.42-3.76,3.42-1.48,0-2.85-.91-2.85-3.19v-.23c.23-8.21,.46-16.76,.46-22.91,0-1.94,0-12.77-1.03-16.3-.11-.34-.23-.57-.23-.68s.11-.11,.34-.11h.57c1.03,0,3.08,.23,5.02,.46-4.79-3.88-9.12-8.09-12.08-12.31-1.14,.23-1.71,.57-3.19,2.39-2.51,3.19-5.36,6.16-8.66,9.01,1.48,.11,3.08,.46,4.22,.68,.23,.11,1.14,.46,1.14,1.25,0,.57-.46,1.25-1.82,2.05-1.94,1.25-1.82,1.25-1.94,5.36-.34,14.36-5.7,32.15-41.27,36.25-.57,.11-1.14,.11-1.6,.11-1.03,0-1.71-.11-1.71-.46,0-.23,.8-.57,2.85-1.03,27.47-5.59,35.91-21.2,35.91-33.17,0-.8,0-1.48-.11-2.28,0-.57-.23-2.74-.57-4.79-16.07,12.31-33.52,17.9-36.71,17.9-.57,0-.8-.11-.8-.23,0-.23,.46-.57,1.6-1.03,23.6-8.78,44.69-30.67,45.37-35.34h-21.2v2.96c0,1.82-1.94,3.19-3.65,3.19-1.25,0-2.51-.8-2.51-2.85v-.23c.57-9.92,.91-20.18,.91-28.73,0-3.08-.46-8.78-1.37-13.11-.11-.46-.23-.68-.23-.91,0-.11,.11-.23,.23-.23,.91,0,8.09,3.53,9.01,4.1h47.42c.8,0,1.03-.11,1.37-.46,2.28-2.28,2.62-2.39,3.08-2.39,1.03,0,7.98,3.42,7.98,5.81,0,1.25-1.6,1.94-2.51,2.51-1.94,1.14-2.28,2.28-2.28,5.13v4.45c0,8.89,.46,16.19,.68,22.91v.11c0,2.17-2.05,3.88-3.65,3.88-1.14,0-2.05-.8-2.05-2.62v-3.53h-24.17c1.94,.68,2.85,.91,2.85,1.6,0,.34-.11,.57-.34,.8,9.8,10.37,27.7,20.63,49.7,22,1.14,.11,1.6,.23,1.6,.46,0,.8-7.52,2.85-10.83,5.93-.34,.34-.8,.46-1.37,.46-1.94,0-13.34-3.65-25.54-12.65-2.62,1.14-2.62,.8-2.74,4.45-.11,2.85-.11,6.04-.11,9.58,0,6.16,.11,13.57,.57,22.34v.23ZM224.01,10.37c-3.08,1.48-3.08,2.96-3.08,12.77h23.03c0-8.66-.23-11.17-.46-12.77h-19.49Zm20.06,15.73h-23.14c0,4.22,.11,9.12,.23,14.14h22.8c.11-3.99,.11-5.59,.11-8.89v-5.24Zm7.3-15.73c.11,.11,.23,.34,.23,.46,0,.8-1.03,1.6-1.82,1.94-.8,.34-.8,1.03-.8,2.17v8.21h24.85c0-4.22,0-8.09-.23-11.86,0-.34-.34-.91-1.03-.91h-21.2Zm-2.39,15.73v14.14h24.74c0-5.02,.11-9.8,.11-14.14h-24.85Z" fill="#003383"/>
      <path d="M358.42,34.88c0,27.13-21.09,50.73-29.98,50.73-5.24,0-6.84-7.07-11.74-13.91-1.82-2.51-2.62-6.16-2.62-10.26,0-17.21,15.05-44.57,45.6-44.57,25.76,0,38.65,17.9,38.65,36.37,0,35.23-40.24,44.46-48.22,44.46-1.03,0-1.6-.23-1.6-.46,0-.57,1.82-1.48,4.79-2.39,32.38-9.12,38.87-28.61,38.87-42.18,0-16.64-11.06-32.26-33.63-32.49-1.48,0-2.96,.23-4.45,.34,2.85,1.6,4.33,7.18,4.33,14.36Zm-39.33,24.74c0,9.58,5.59,17.9,10.6,17.9,6.95,0,25.31-22.91,25.31-45.49,0-8.89-2.05-10.6-4.56-10.6-.91,0-1.82,.23-3.19,.57-16.42,5.13-28.16,22.69-28.16,37.62Z" fill="#003383"/>
      <path d="M450.98,30.55c0,.68-.34,1.48-1.94,1.48h-15.05v10.72c5.36,.11,14.59,2.85,14.59,8.66,0,1.71-.91,2.96-2.39,2.96-1.03,0-2.28-.68-3.53-2.51-2.05-2.96-5.47-6.04-8.66-7.98,.11,16.19,.46,35.45,1.03,54.04,0,.8-.46,4.1-3.99,4.1-1.48,0-2.74-1.03-2.74-3.42v-.23c.68-14.14,1.14-34.43,1.37-51.41-7.98,17.78-22.69,26.9-24.17,26.9-.11,0-.23-.11-.23-.11,0-.23,.46-.8,1.48-1.6,5.7-4.45,20.75-25.99,22.91-38.53l.11-1.6h-.68c-4.56,0-5.7,.11-12.77,1.03h-.11c-1.37,0-4.45-4.22-4.45-5.47,8.55,1.37,12.88,1.6,17.56,1.6h.46c0-2.39-.11-4.67-.11-6.5,0-14.02,0-15.39-.91-20.18-.11-.46-.11-.68-.11-.8s0-.23,.11-.23c1.25,0,10.26,1.37,10.26,3.76,0,.46-.57,1.14-1.71,1.71-2.05,1.03-2.85,.68-2.96,5.13-.11,4.22-.34,10.03-.34,17.1h3.76c.34,0,1.14-.34,1.48-.91,2.96-5.02,4.22-5.02,4.45-5.02,1.82,0,7.3,5.7,7.3,7.3Zm60.08,40.7c0,.68-.57,1.37-2.51,1.37h-29.53v5.93c0,6.73,.11,14.14,.46,21.55v.11c0,1.48-1.82,2.51-3.42,2.51-2.39,0-2.39-1.48-2.39-4.79,0-5.7,.23-16.19,.23-25.31h-4.33c-6.27,0-12.2,.11-21.32,1.14h-.11c-1.82,0-5.13-4.33-5.13-5.7,10.6,1.37,20.52,1.71,27.02,1.71h3.88c0-2.17-.23-13.68-1.25-16.42,0-.23-.11-.34-.11-.46,0-.23,.23-.34,.68-.34,1.37,0,11.4,1.71,11.4,3.76,0,.8-.8,1.48-1.71,1.94-3.08,1.48-3.19,.34-3.53,4.79l-.34,6.73h14.36c.68,0,1.25-.46,1.71-1.03,1.14-1.48,4.9-5.59,6.04-5.59,.23,0,.46,0,.68,.11,3.53,1.25,9.23,5.93,9.23,7.98Zm.57-25.42c0,3.65-7.41,5.02-15.39,5.02-5.59,0-12.43-.11-12.43-9.12v-.46c.23-5.02,1.48-11.17,2.62-18.92v-.23c0-.34-.34-.8-.91-.8l-9.8,.11c-5.13,30.55-25.88,35.68-29.07,35.68-.23,0-.34,0-.34-.11,0-.23,1.03-.91,2.39-1.48,13.34-5.81,19.38-20.18,21.43-33.97-4.67,.11-10.72,.46-14.36,.91-1.14,0-5.47-4.33-5.47-5.13,6.27,.68,15.73,.91,20.29,.91,.46-4.33,.46-6.95,.46-7.18,0-2.74-.23-5.81-.57-8.32-.11-.11-.11-.23-.11-.34h.11c.23,0,7.3,1.25,8.44,1.6,1.48,.68,2.05,1.25,2.05,1.71,0,.68-1.14,1.25-2.51,1.82-1.25,.46-1.6,.34-1.71,3.42-.11,2.39-.23,4.9-.57,7.3l9.46-.11c.68,0,1.14-.8,1.48-1.03,.23-.11,.8-.46,.8-.46,.23-.23,.68-.34,1.03-.34s6.61,2.62,6.61,4.67c0,.68-.57,1.37-1.6,1.71-1.94,.68-2.28,.8-2.62,2.17-1.14,4.56-2.17,10.72-2.17,15.05s.91,6.04,7.98,6.04c5.93,0,6.38-.11,9.58-14.14,.11-.34,.11-.57,.23-.57,.68,0,1.14,11.4,2.74,12.08,1.14,.46,1.94,1.48,1.94,2.51Z" fill="#003383"/>
      <path d="M559.74,66.58c-10.26,6.04-14.36,12.2-14.36,17.1,0,5.36,5.59,10.6,15.73,10.6,4.33,0,9.01-.91,12.88-2.96,1.14-.57,2.17-.8,3.08-.8,2.05,0,3.53,1.25,3.53,2.74,0,5.13-13,6.73-17.44,6.73-15.05,0-21.77-9.58-21.77-15.5,0-7.98,8.78-15.96,18.35-21.55,0-12.08-3.76-16.76-8.09-16.76-3.19,0-7.41,2.62-12.2,9.35-3.88,7.18-7.3,12.43-10.03,12.43-1.82,0-2.51-1.82-2.51-2.96,0-2.05,1.14-4.79,4.1-7.64,9.8-9.46,13.79-15.39,20.06-30.1-.57,.11-1.03,.34-1.48,.46-2.74,.68-4.9,1.03-6.73,1.03-10.15,0-13-7.75-13-9.35q0-.23,.23-.23c.23,0,1.03,.34,2.39,1.37,3.88,2.62,7.18,3.42,10.26,3.42s6.5-.8,9.92-1.71c.46-1.94,.57-3.53,.57-4.9,0-4.56-1.94-5.59-5.24-6.5-.68-.11-1.14-.46-1.14-.91,0-.23,1.37-1.94,4.45-1.94,6.04,0,6.5,5.7,6.5,7.87,0,1.6-.23,3.19-.57,4.79,.68-.23,5.59-2.51,5.59-4.45,0-.23-.11-.91-2.39-1.71-1.37-.57-1.94-.91-1.94-1.14s.34-.34,1.03-.34c.34,0,.68,.11,1.14,.11,.91,.11,1.94,.11,2.74,.11,1.25,0,2.17,0,2.39-.11,.34-.11,.57-.23,.8-.23,1.71,0,1.82,2.28,1.82,2.51,0,1.71-.68,6.04-12.88,10.37-3.31,8.21-8.32,16.53-10.26,19.84,2.39-1.48,4.67-2.05,6.84-2.05,5.81,0,10.15,5.13,11.63,11.74,5.02-12.08,14.48-24.17,25.42-24.17,4.79,0,13.79,4.1,13.79,9.8,0,4.45-5.47,8.78-12.54,11.74-7.64,3.19-17.78,7.3-25.65,11.29,.11,1.71,.11,3.53,.11,5.36,0,2.17,0,4.45-.23,6.73-.23,3.42-2.62,6.27-4.45,6.27-1.14,0-2.05-1.14-2.05-3.88,0-.46,.11-.91,.11-1.37,.23-2.96,1.37-3.19,1.48-7.98v-2.51Zm4.67-6.16c6.38-3.31,15.96-7.98,22.8-11.4,4.79-2.39,8.89-5.36,8.89-8.66,0-.8-1.48-6.04-7.75-6.04-9.46,0-19.72,12.54-23.94,25.76v.34Z" fill="#003383"/>
      <path d="M706.69,21.89c0,.68-.57,1.48-2.51,1.48h-73.76l-.23,.23c-1.14,.68-1.71,.68-1.71,4.1,0,.57,.11,1.14,.11,1.94,.23,5.36,.68,11.63,.68,18.35,0,16.99-2.85,36.71-19.61,51.07-1.6,1.37-2.85,2.05-3.42,2.05-.23,0-.34-.11-.34-.34,0-.34,.57-1.25,1.82-2.51,12.43-13,15.28-30.78,15.28-49.25,0-12.31-1.25-27.47-2.85-32.83-.11-.23-.11-.46-.11-.68s.11-.34,.34-.34c.91,0,9.46,3.88,10.83,4.79l.46,.34h26.33v-3.76c0-5.36-.11-9.23-1.14-13.11-.11-.34-.11-.57-.11-.68,0-.23,.11-.34,.34-.34,3.19,0,11.86,2.05,11.86,3.76,0,.68-.68,1.37-1.48,1.94-3.08,2.17-3.53,.46-3.65,5.24,0,1.25-.11,4.9-.11,6.95h24.85c.8,0,1.6-.46,1.94-1.03,4.22-5.93,4.9-6.27,5.93-6.27,.34,0,.57,0,.8,.11,3.76,1.25,9.46,6.95,9.46,8.78Zm-7.75,69.54c0,3.65-2.05,6.61-4.1,6.61-1.48,0-2.96-1.48-3.76-4.9-.68-2.62-1.94-5.7-3.53-8.78-13.91,3.99-31.92,6.95-51.41,10.83-1.82,.34-2.74,2.05-3.76,2.05-1.71,0-6.04-9.69-6.04-9.92s.11-.23,.34-.23c.11,0,.46,0,.8,.11,2.96,.46,6.38,.68,8.89,.68,1.6,0,6.61-.34,8.32-.57,4.22-12.54,10.26-34.2,11.97-42.29,.57-2.85,.68-7.52,.91-9.46,.11-.57,0-.68,.23-.68,.57,0,12.2,3.31,12.2,5.93,0,1.03-.91,2.05-3.31,2.96-1.14,.46-1.71,.57-2.17,1.03-.68,.57-1.25,1.48-16.19,42.07,14.82-1.48,27.7-3.19,37.85-4.9-3.65-6.38-8.44-13-12.54-18.47-.23-.34-.34-.57-.34-.68h.11s.11,.11,.34,.23c1.71,1.14,25.19,16.64,25.19,28.39Z" fill="#003383"/>
      <path d="M727.89,64.3c0-11.4,2.74-21.2,3.76-28.04,.34-2.51,.57-4.79,.57-6.73,0-4.9-1.25-8.21-6.95-11.4-1.25-.8-1.71-1.37-1.71-1.71,0-.91,1.48-1.25,2.85-1.25,1.48,0,3.31,.23,4.22,.8,.11,.11,7.87,5.93,7.87,11.74,0,2.62-1.14,5.24-2.05,7.98-2.62,7.98-5.36,18.01-5.36,26.22,0,7.64,2.51,11.06,3.19,11.06,.57,0,1.14-.57,1.71-2.17,5.59-14.59,13.34-28.5,14.25-28.5,.23,0,.34,.23,.34,.68,0,.68-.34,1.94-.57,2.39-6.16,13.57-10.83,26.22-10.83,34.77,0,2.96,.34,6.04,1.14,8.09,.34,.8,.46,1.48,.46,2.05,0,1.48-.91,2.17-2.17,2.17-5.36,0-10.72-12.77-10.72-28.16Zm53.12-8.44l-.34-16.07c-1.6,.23-3.08,.34-4.56,.34h-2.74c-14.48,0-16.3-6.84-16.3-6.95,0-.23,.11-.34,.46-.34,.68,0,2.28,.8,3.19,1.03,4.1,1.25,8.89,1.48,13.11,1.48h2.51c1.37,0,2.85-.23,4.33-.46v-6.73c0-5.13-.91-12.43-4.9-12.43h-.68c-2.62,0-3.65-.57-3.65-1.25,0-1.37,2.51-2.74,4.9-2.74,2.05,0,9.35,1.94,9.35,9.69v.91c2.28,.68,5.59,1.6,7.18,1.94,1.48,.34,3.08,.34,3.88,.46,1.14,.23,3.19,1.48,3.19,3.65,0,.34-.46,7.41-15.05,10.72,.11,5.59,.57,10.6,.91,15.73,.11,1.6,.11,3.08,.11,4.56,0,21.77-11.51,36.48-29.18,43.32-.11,.11-3.76,1.14-5.02,1.14-.34,0-.57-.11-.57-.23,0-.34,1.14-1.14,4.45-2.74,13.22-6.5,25.42-25.42,25.42-43.78v-1.25Zm15.28-37.28c-3.08-3.65-7.18-6.27-10.26-7.98-.68-.34-1.71-.8-1.71-1.03,0-.34,2.39-.34,2.62-.34,6.61,0,15.05,2.74,15.05,7.87,0,1.71-1.25,3.08-2.74,3.08-1.03,0-2.05-.46-2.96-1.6Zm-10.83,6.27c-.34,3.19-.46,6.16-.57,9.01,4.67-1.48,7.87-3.88,7.87-5.47,0-1.14-.91-1.71-7.18-4.9,0,.46-.11,.91-.11,1.37Zm22.91-11.86c-3.19-3.53-7.41-6.04-10.6-7.64-.68-.34-1.71-.8-1.71-1.03s1.14-.46,3.19-.46c5.36,0,14.82,1.94,14.82,7.64,0,1.71-1.25,2.96-2.74,2.96-.91,0-1.94-.46-2.96-1.48Z" fill="#003383"/>
      <path d="M851.13,91.77c14.14-2.96,20.06-12.43,20.06-20.86,0-9.92-8.09-17.78-19.04-17.78-14.71,0-22.8,11.86-25.31,15.39-1.25,1.82-3.53,6.73-4.45,8.09-1.48,2.05-3.08,2.85-4.45,2.85-1.6,0-2.74-1.14-2.74-2.85,0-2.96,7.64-12.08,9.23-13.91,3.65-4.22,6.84-8.78,10.37-14.02,3.65-5.36,11.86-15.5,16.87-23.14,1.03-1.6,1.71-2.85,1.71-3.76,0-1.6-2.17-1.94-3.08-1.94-5.47,0-9.01,10.15-16.3,10.15-2.17,0-6.73-1.03-6.73-6.04,0-.91,.23-1.25,.68-1.25,.57,0,1.37,.46,2.28,.8,.91,.34,1.94,.46,2.96,.46,1.71,0,3.53-.57,4.9-1.71,1.82-1.6,8.44-6.95,14.82-6.95,6.95,0,9.58,4.9,9.58,6.38,0,1.71-1.48,3.42-3.88,5.13-10.15,7.64-24.17,28.16-24.17,28.5h.11c.11,0,.23,0,.57-.23,5.47-3.31,12.08-5.36,18.58-5.36,14.14,0,23.6,9.58,23.6,21.09,0,13.45-12.88,25.08-31.58,25.08-8.89,0-17.56-4.22-17.56-11.06s6.73-8.44,10.37-8.44c6.5,0,12.08,5.24,12.08,11.29,0,1.37-.34,2.85-1.03,4.33l1.48-.23Zm-5.7-4.1c0-4.22-3.31-7.52-7.52-7.52-2.74,0-5.7,1.37-5.7,4.67,0,4.1,5.81,7.07,11.97,7.41,.91-1.6,1.25-3.08,1.25-4.56Z" fill="#003383"/>
    </g>
    <g>
      <path d="M28.16,196.36c.34-8.66,.68-19.38,.91-28.16-8.32,14.02-25.88,23.03-28.61,23.03-.34,0-.46-.11-.46-.34,0-.34,.57-.91,1.94-1.6,9.46-4.9,22.46-19.84,25.88-28.16-5.24,0-11.17,.11-18.01,.8h-.11c-1.82,0-4.67-4.1-4.67-5.24,8.66,1.14,17.56,1.48,24.17,1.6v-1.6c-.11-3.65,0-7.3-1.03-10.72-.11-.34-.11-.57-.11-.68s0-.11,.23-.11c3.31,0,11.29,1.71,11.29,3.65,0,.68-.68,1.48-1.82,2.05-2.96,1.48-3.19,.34-3.53,4.9,0,.8-.11,1.71-.11,2.51h8.78c.23,0,1.03-.46,1.48-1.03,.8-1.03,1.94-3.08,3.08-4.1,.23-.23,.57-.34,.91-.34,.23,0,.46,.11,.68,.11,3.99,1.48,7.52,6.27,7.52,6.84,0,.68-.57,1.37-2.51,1.37h-20.06c-.11,2.17-.11,4.45-.11,6.84,13.68,1.25,17.1,6.5,17.1,9.12,0,1.71-1.14,2.96-2.74,2.96-1.14,0-2.51-.68-3.76-2.39-3.42-4.79-7.3-6.5-10.6-8.89v4.79c0,7.41,.23,15.28,.46,22.69,0,1.71-1.6,3.53-3.53,3.53-1.37,0-2.62-.91-2.62-3.19v-.23Zm2.28-53.12c-6.84,0-10.94,.11-21.89,1.03h-.11c-2.17,0-4.9-4.1-4.9-5.47,12.54,1.6,20.29,1.6,27.25,1.6,6.27-11.51,7.07-16.3,7.75-20.75,.11-.8,.11-1.03,.23-1.03s.34,.11,.8,.23c.23,.11,5.13,2.28,7.52,3.76,.68,.34,1.03,.8,1.03,1.25,0,.8-1.03,1.48-3.19,1.71-1.71,.23-1.6,.57-2.39,1.82-2.05,3.08-5.36,8.09-9.12,13h10.15c.34,0,1.03-.34,1.37-.91,.91-1.71,3.08-5.24,4.45-5.24,2.51,0,8.66,5.36,8.66,7.41,0,.8-.57,1.6-2.39,1.6H30.44Zm2.85-26.68c-5.59,0-11.63,.11-20.98,1.03h-.11c-2.05,0-4.45-4.22-4.45-5.47,7.98,1.14,15.16,1.48,20.75,1.6v-.68c-.11-4.33-.23-10.83-1.03-14.14-.11-.34-.11-.68-.11-.8s0-.11,.11-.11c.57,0,11.74,1.37,11.74,3.88,0,.68-.8,1.48-1.71,2.05-3.31,2.17-2.85,1.48-3.19,6.16-.11,1.37-.23,2.51-.23,3.65h7.41c.11,0,.91-.34,1.25-.91,.8-1.6,2.96-5.02,4.1-5.02,.23,0,.57,.11,.68,.11,1.03,.46,7.3,4.33,7.3,7.07,0,.8-.57,1.6-2.17,1.6h-19.38Zm-19.38,4.67c3.42,0,14.36,5.24,14.36,11.17,0,2.28-1.48,3.99-3.19,3.99-1.25,0-2.62-1.03-3.53-3.53-1.03-2.96-4.45-7.87-6.84-10.49-.57-.68-.91-1.03-.91-1.14h.11Zm67.49,75.01c.57-7.07,.8-27.7,.8-40.36,0-7.41-.11-14.48-.8-17.67h-13.22v6.38c-.8,46.97-28.5,54.38-29.98,54.38-.11,0-.23,0-.23-.11,0-.23,.68-.91,2.39-1.94,18.58-12.31,22.23-34.88,22.23-51.41v-1.48c0-21.89,0-30.1-1.6-35.34-.11-.23-.11-.46-.11-.57,0-.23,.11-.23,.23-.23,1.25,0,7.41,2.39,10.15,3.88l.57,.46c13.68-6.16,16.99-9.58,18.47-11.63,.11-.23,.23-.34,.34-.34,.34,0,7.52,7.3,7.52,9.23,0,.57-.46,.91-1.37,.91-.68,0-1.48-.11-2.51-.46-.68-.23-1.25-.34-1.94-.34-.34,0-.68,0-1.14,.11-1.37,.23-11.97,3.76-19.38,5.13h-.23c-.23,0-.46,0-.68-.11l-.46,.23c-2.17,1.03-2.17,1.14-2.17,7.3,0,1.25-.11,7.52-.11,13.22h25.88c.68,0,1.25-.8,1.71-1.25,1.03-1.14,2.74-4.1,3.65-4.79,.34-.23,.57-.34,.8-.34,1.94,0,7.52,5.81,7.52,7.64,0,.8-.57,1.48-2.17,1.48h-14.93c.34,.34,.46,.57,.46,.91,0,.57-.68,1.14-1.71,1.37-1.6,.46-1.71,.46-1.71,20.29,0,12.08,.23,27.13,.46,35.11,0,1.37-1.37,3.08-3.99,3.08-1.48,0-2.74-.68-2.74-2.39v-.34Z" fill="#fff"/>
      <path d="M148.66,131.84c-6.04,18.01-12.43,35.8-16.64,53.81-.68,3.19-2.74,7.52-5.7,7.52s-3.19-3.65-3.19-4.45c0-1.71,.57-3.76,1.94-5.93,2.51-3.88,16.07-38.53,19.72-51.87-5.02,1.25-7.3,1.37-8.44,1.37-11.97,0-15.05-8.09-15.05-9.69,0-.46,.11-.57,.46-.57,.57,0,1.6,.68,2.17,1.14,1.71,1.37,6.73,3.88,12.43,3.88,3.19,0,7.18-.68,9.46-1.25,.46-2.51,.68-5.13,.68-7.41,0-4.22-.91-7.52-3.53-7.87-1.71-.23-2.96-.68-2.96-1.37,0-1.03,2.74-2.62,4.79-2.62,2.39,0,6.84,1.82,7.3,8.44,3.65,1.14,6.27,1.71,8.09,2.05,1.6,.34,2.39,1.6,2.39,2.74,0,5.02-10.72,8.89-13.22,9.8l-.68,2.28Zm2.28-7.75c3.31-1.48,6.04-3.42,6.04-4.67,0-1.14-3.42-2.85-4.9-3.53,0,2.39-.34,5.24-1.14,8.21Zm39.9,61.56c4.56,0,6.95,1.48,6.95,3.19,0,1.14-1.37,3.65-9.58,3.65-13.79,0-27.13-6.84-27.13-14.93,0-4.45,2.96-6.73,3.53-6.73,.23,0,.34,.23,.34,.68s-.11,1.14-.57,1.94c-.34,.8-.57,1.48-.57,2.28,0,5.13,7.98,10.15,19.04,10.37,2.05,0,4.22-.34,7.52-.46h.46Zm-8.66-39.79c-.57,.46-.91,.68-1.14,.68s-.34-.23-.34-.46,.11-.68,.46-1.03c2.85-3.42,3.76-4.1,5.7-6.61,.8-1.03,2.39-2.62,2.39-4.1,0-2.39-4.33-3.88-9.46-3.88-.91,0-1.71,0-2.17,.11-.57,.11-1.14,.23-1.6,.23-.8,0-1.37-.23-1.37-.57,0-.11,1.94-2.85,8.78-2.85,9.58,0,18.24,5.24,18.24,7.52,0,1.14-1.25,1.94-2.28,2.28-5.7,1.6-10.03,2.74-17.21,8.66Z" fill="#fff"/>
      <path d="M253.77,110.75c5.7,1.25,5.93,1.37,5.93,3.42s-3.08,6.38-12.08,9.69c-.46,1.37-.91,2.74-1.48,4.1-3.31,8.21-13.57,29.07-17.21,37.05-1.6,3.31-4.45,5.02-6.38,5.02-1.25,0-2.17-.57-2.17-2.05,0-1.14,.68-2.85,2.17-5.02,12.88-19.04,18.58-30.55,20.98-37.85-4.45,1.03-6.16,1.14-7.64,1.14-11.97,0-14.14-9.23-14.14-9.69,0-.34,.11-.57,.34-.57,.68,0,1.94,1.03,2.28,1.25,1.94,1.48,7.07,3.65,11.74,3.65,3.19,0,6.61-.68,8.66-1.25,.23-1.94,.46-3.88,.46-5.59,0-7.41-2.05-7.52-3.31-7.52-1.82,0-2.85-.23-2.85-1.03,0-.46,1.25-2.96,4.22-2.96,6.5,0,6.84,6.61,6.84,7.3l3.65,.91Zm29.41,30.44c-1.37,0-5.59,.34-7.52,1.14-7.52,2.96-9.12,6.95-9.12,13.22,0,1.94,.11,3.99,.34,6.38,0,0,.91,9.8,1.25,14.93,8.55,2.96,16.64,8.89,16.64,14.02,0,2.17-1.14,3.76-2.62,3.76-1.03,0-2.28-.8-3.31-2.74-1.94-3.53-5.93-7.18-10.94-9.8-1.37,8.44-9.69,14.59-17.9,14.59-8.78,0-14.82-6.95-14.82-12.2,0-8.09,12.88-10.03,19.49-10.03,3.08,0,6.04,.34,8.89,1.03,0-5.02-.57-10.26-.57-14.71v-.68c0-9.23,2.51-15.05,10.94-20.18,4.22-2.51,6.95-5.02,6.95-7.52,0-1.03-.46-2.05-1.37-3.08-.68-.8-2.17-1.94-2.51-2.28-.68-.68-1.03-1.14-1.03-1.48s.34-.46,1.14-.46c5.47,0,13.68,4.9,13.68,10.94,0,3.08-1.94,5.7-3.88,5.7-1.03,0-2.17-.46-3.31-.57h-.46Zm-31.35,36.82c-9.23,0-13.45,3.42-13.45,6.73,0,3.99,5.7,6.27,10.6,6.27,7.41,0,13.34-5.13,14.25-10.94-3.65-1.25-7.52-2.05-11.4-2.05Zm-2.62-59.96c2.96-1.25,5.7-2.85,5.7-4.33,0-.68-.57-1.14-4.79-2.85,0,2.05-.34,4.56-.91,7.18Z" fill="#fff"/>
      <path d="M352.38,117.82c0,1.94-1.25,3.42-2.74,3.42-1.14,0-2.39-.8-3.53-2.62-1.37-2.28-7.64-8.55-13-11.29-3.42,5.47-8.21,14.02-14.48,21.77,6.73,1.25,11.4,1.37,15.16,1.37h2.28c.23,0,.68-.34,1.03-.91,2.85-4.45,3.08-4.56,3.42-4.56,.11,0,.34,0,.46,.11,5.47,2.85,6.38,6.84,6.38,7.18,0,.57-.34,1.03-1.71,1.03h-12.08c-3.76,0-5.81,0-11.63,.91-1.03,0-3.19-3.19-3.65-4.67-6.16,7.41-13.91,13.79-15.28,13.79-.11,0-.23-.11-.23-.11,0-.23,.34-.68,1.03-1.37,9.23-9.23,23.94-32.26,25.76-43.32,.11-.8,.11-1.14,.34-1.14,.57,0,9.92,4.67,9.92,6.61,0,.91-1.37,1.6-2.85,1.6h-.23c-.57,0-1.03-.11-1.37-.11-.8,0-1.25,.23-1.82,1.14l-.34,.46c.23,0,.57,0,1.03,.11,4.56,.68,18.13,4.45,18.13,10.6Zm.46,29.87c0,.91-.91,1.6-1.94,2.17-2.17,1.25-2.28,.46-2.39,4.56v1.82c0,2.74,.11,6.27,.11,7.64,0,1.71,.11,5.36,.11,7.75-.11,5.7-4.9,8.21-8.78,8.32-.91,0-.91-.46-1.25-1.25-.68-1.71-4.9-4.22-6.84-5.7,.11,6.73,.34,14.14,.8,21.32v.23c0,2.62-2.51,3.88-3.88,3.88-1.25,0-2.28-.8-2.28-2.85v-.46c.46-6.95,.57-13.57,.57-20.06,0-5.59-.11-11.17-.11-17.1,0-1.03,0-6.38-.46-9.23-4.56,.23-9.35,.46-11.97,.68h-.11c-1.71,0-4.9-4.1-4.9-5.59v-.11c8.89,1.14,21.32,1.6,26.33,1.6h6.5c.68,0,1.14-.34,1.37-.91,.34-.68,1.03-1.71,1.37-2.17,.11-.11,.46-.23,.8-.23s6.95,3.42,6.95,5.7Zm24.74,38.19c0,.68-.68,1.48-2.51,1.48h-1.14c-1.48,0-2.74,.46-3.76,1.03-18.24,10.72-34.31,11.63-37.51,11.63-1.14,0-1.71-.23-1.71-.46s.57-.46,1.71-.68c12.2-1.94,33.17-11.97,36.25-19.27,.23-.46,.11-.8,.34-.8,1.25,0,8.32,5.81,8.32,7.07Zm-33.74-22.57c0-5.02-.11-10.49-.11-13.57,0-.46,0-1.37-1.14-1.37h-7.07c-.91,0-1.94,.11-3.19,.11l1.94,.46c.34,.11,.46,.34,.46,.68,0,.57-.57,1.25-1.48,1.6-1.25,.46-1.37,1.03-1.37,2.51-.11,3.76-.11,7.98-.11,12.43v5.81c.34,0,.68,0,1.25,.11,2.62,.57,5.13,1.14,6.95,1.14,3.65,0,3.88-.8,3.88-9.92Zm64.3-54.83c0,.8-.57,1.48-2.51,1.48h-24.17l1.71,.91c.57,.34,.91,.8,.91,1.14,0,.57-.8,1.14-2.51,1.6-1.25,.23-1.37,1.03-1.82,1.82-1.48,2.74-3.08,6.16-4.67,8.66h13.91c.57,0,1.14-.34,1.48-.8,1.37-1.82,2.17-2.28,2.96-2.28,1.94,0,7.75,3.08,7.75,5.36,0,1.37-1.82,2.17-2.62,2.62-2.05,1.14-2.17,2.05-2.17,10.15,0,10.03,.57,25.88,.91,33.97v.23c0,2.39-1.82,3.99-3.42,3.99-1.25,0-2.39-1.03-2.39-3.19v-1.71h-25.88v2.74c0,1.82-1.94,3.19-3.65,3.19-1.25,0-2.28-.68-2.28-2.62v-.23c.8-14.25,.68-34.88,.8-40.36,0-1.48-.57-10.83-1.37-14.25-.11-.34-.11-.57-.11-.8,0-.11,0-.23,.11-.23,.8,0,6.95,2.28,9.35,3.99l.34,.23h3.99c1.14-5.59,1.48-10.94,1.48-14.14-5.36,0-11.63,.23-19.04,.91h-.11c-1.94,0-4.56-4.1-4.56-5.36,11.29,1.25,22.91,1.6,29.3,1.6h12.43c.34,0,1.14-.34,1.48-.91,3.76-5.7,5.02-5.7,5.24-5.7s.46,0,.68,.11c3.65,1.37,8.44,6.61,8.44,7.87Zm-16.64,19.84c0-.11-.34-1.14-1.03-1.14h-22.46c-.23,.23-.68,.46-1.03,.68-1.14,.68-1.37,.23-1.37,3.76,0,1.6-.11,4.22-.11,7.52h26.22c0-4.67-.11-8.55-.23-10.83Zm-25.99,13.79v11.06h26.11c0-3.88,.11-7.64,.11-11.06h-26.22Zm0,14.02c0,4.45,.11,9.01,.11,13.34h25.88c0-4.22,.11-8.89,.11-13.34h-26.11Zm38.19,37.16c0,2.39-1.6,4.22-3.53,4.22-1.48,0-3.08-1.03-4.45-3.76-3.08-6.5-7.98-10.72-13.22-14.82-.23-.23-.34-.34-.34-.46,0-.23,.23-.34,.57-.34,2.96,0,20.98,7.07,20.98,15.16Z" fill="#fff"/>
      <path d="M426.48,179.83c-1.03,.46-1.14,1.37-1.71,1.37-.91,0-4.67-4.1-5.36-5.7,0-.11-.11-.23-.11-.23,0-.11,.11-.11,.11-.11,2.74-.23,6.61-.91,15.5-3.99,.11-7.64,.23-22.8,.23-35.23-3.65,.23-6.73,.8-10.26,1.03h-.11c-1.94,0-5.36-3.99-5.36-5.47v-.11c7.64,.91,11.86,1.37,15.73,1.6v-11.63c-.11-4.45-.23-11.17-1.37-17.78v-.34c0-.23,0-.34,.23-.34s11.86,2.17,11.86,4.56c0,.91-1.25,1.82-2.96,2.51-1.94,.91-2.39,2.05-2.39,23.14h2.62c.68,0,.8-.46,1.14-1.03,1.14-1.82,2.28-3.31,3.53-4.67,.23-.23,.57-.34,.91-.34,.23,0,.57,.11,.68,.11,3.76,1.6,7.07,5.93,7.07,7.41,0,.68-.46,1.25-2.05,1.25h-13.91c0,12.2,.11,26.45,.11,33.52,5.81-2.05,11.63-4.33,15.96-6.04,.34-.11,.68-.23,.91-.23s.46,.11,.46,.34c0,1.71-21.55,12.31-31.46,16.42Zm30.78,3.99c-.91,.23-1.6,1.03-2.28,1.03-1.14,0-5.47-5.47-5.47-6.61,0-.11,.11-.11,.34-.11,8.44,0,23.03-2.51,40.7-8.78,.11,0,.34-.11,.46-.11,.46,0,.68,.23,.68,.57,0,.23-.23,.57-.8,.8-8.21,3.42-18.81,8.55-33.63,13.22Zm65.32,12.43c0,1.48-1.25,2.28-2.85,2.28-2.28,0-14.36-3.31-22.8-21.89-16.76,20.75-40.7,22.91-40.81,22.91-.68,0-1.14-.23-1.14-.34,0-.23,.46-.57,1.48-.8,13-3.65,27.82-10.83,38.53-26.56-6.04-15.96-7.41-34.77-8.09-46.4h-1.48c-5.93,0-17.9,.23-27.47,1.25h-.11c-2.05,0-5.24-4.33-5.24-5.81v-.11c10.83,1.48,27.13,1.82,33.29,1.82h.8l-.34-5.13c-.23-1.94-.57-12.54-1.94-16.87-.11-.46-.23-.68-.23-.8,0-.23,.23-.23,1.03-.23,1.25,.11,10.15,.91,10.15,3.76,0,.8-.57,1.6-1.48,2.28-2.05,1.37-2.28,.46-2.51,5.36,0,1.71-.11,3.65-.11,5.59s.11,3.99,.11,6.04h13.57c.8,0,1.37-.46,1.71-1.03,2.28-3.31,4.1-5.36,5.13-5.36,1.82,0,8.44,5.13,8.44,7.64,0,.8-.57,1.6-2.28,1.6h-26.45c.57,13.45,2.51,28.73,6.73,41.27,3.65-6.61,6.73-14.36,8.78-23.83,.46-2.05,.46-6.27,.46-7.87,0-.23,.11-.57,.34-.57,.34,0,9.92,2.74,9.92,5.13,0,.68-.8,1.37-3.08,2.28-1.48,.57-1.82,.57-2.28,2.28-2.85,11.29-6.95,20.63-12.08,28.16,6.27,14.36,13,16.64,13.91,16.64,1.6,0,3.31-2.62,7.41-13.57,.57-1.6,.91-2.05,1.14-2.05s.23,.57,.23,.91c0,3.31-1.6,13.34-1.6,17.44,0,.8,.11,1.37,.23,1.6,.68,1.25,1.03,2.17,1.03,2.96Zm-39.22-55.86c0,1.03-1.48,1.71-2.05,1.94-1.82,.91-1.94,1.71-1.94,3.99,0,4.1,.68,10.94,.68,16.19v.91c0,1.25-1.82,2.17-3.31,2.17-1.03,0-1.94-.46-1.94-1.37v-3.08h-10.03c0,1.71,.11,3.53,.11,5.24,0,.91-2.05,1.71-3.65,1.71-1.03,0-1.82-.23-1.82-1.03v-.11c.57-6.73,.8-16.3,.8-20.86,0-1.03-.57-7.75-1.37-10.37-.11-.23-.11-.46-.11-.57,0,0,0-.11,.11-.11,1.03,0,5.24,2.05,7.87,3.53h6.38c.57,0,1.03-.46,1.37-1.03,.34-.46,1.25-1.48,1.82-1.6,.11,0,.23-.11,.46-.11s.57,.11,1.03,.23c1.03,.46,5.59,2.85,5.59,4.33Zm-8.32,10.03c0-2.39,0-4.9-.23-7.75,0-.11-.34-1.14-1.03-1.14h-8.21c-.57,.34-.91,.68-.91,2.85v4.1c0,3.19,0,6.5,.11,9.69h10.15c.11-2.96,.11-5.36,.11-7.75Zm34.54-38.99c0,1.94-1.37,3.42-2.85,3.42-1.03,0-2.05-.57-2.85-1.94-1.48-2.51-4.22-4.56-6.61-6.5-.34-.34-.57-.46-.57-.57,0-.23,2.51-.23,2.62-.23,4.22,0,10.26,1.48,10.26,5.81Z" fill="#fff"/>
      <path d="M632.13,176.98c-1.03,0-2.28-.11-3.65-.46-22-5.24-32.83-24.4-52.55-36.94-1.37-.8-2.62-1.14-3.88-1.14-2.74,0-5.24,1.48-6.84,2.96-3.53,3.19-9.8,13.34-11.4,15.39-2.28,2.96-4.79,3.99-7.07,3.99-4.56,0-9.35-4.33-9.35-7.52,0-.91,.46-1.25,1.03-1.25,.34,0,.8,.23,1.03,.68,.46,.8,1.82,1.25,3.42,1.25,1.71,0,3.65-.46,5.13-1.48,1.48-.91,8.44-8.66,14.71-13.45,2.28-1.71,5.59-3.31,9.23-3.31,2.17,0,4.45,.46,6.73,1.82,23.37,13.68,34.66,29.53,51.87,31.69,3.99,.46,6.16,2.85,6.16,4.79,0,1.6-1.48,2.96-4.56,2.96Z" fill="#fff"/>
      <path d="M694.72,132.29c0,27.13-21.09,50.73-29.98,50.73-5.24,0-6.84-7.07-11.74-13.91-1.82-2.51-2.62-6.16-2.62-10.26,0-17.21,15.05-44.57,45.6-44.57,25.76,0,38.65,17.9,38.65,36.37,0,35.23-40.24,44.46-48.22,44.46-1.03,0-1.6-.23-1.6-.46,0-.57,1.82-1.48,4.79-2.39,32.38-9.12,38.87-28.61,38.87-42.18,0-16.64-11.06-32.26-33.63-32.49-1.48,0-2.96,.23-4.45,.34,2.85,1.6,4.33,7.18,4.33,14.36Zm-39.33,24.74c0,9.58,5.59,17.9,10.6,17.9,6.95,0,25.31-22.91,25.31-45.49,0-8.89-2.05-10.6-4.56-10.6-.91,0-1.82,.23-3.19,.57-16.42,5.13-28.16,22.69-28.16,37.62Z" fill="#fff"/>
      <path d="M763.01,196.02c-1.25-1.94-9.8-6.95-9.8-7.98,0-.11,0-.23,.34-.23,.23,0,.57,.11,1.03,.23,3.88,1.03,6.84,1.48,9.01,1.48,4.45,0,5.81-1.94,5.93-5.02,.11-7.3,.11-18.24,.11-29.41-3.19,1.82-8.09,4.56-11.51,6.27-1.03,.57-1.25,1.6-1.94,1.6-1.25,0-5.93-6.16-5.93-6.73,0-.11,.23-.11,.8-.23,5.02-.46,8.21-1.14,18.58-5.47,0-7.75,0-15.39-.11-22-4.22,0-6.38,.11-13.22,1.03h-.11c-1.37,0-4.45-4.22-4.45-5.47,8.21,1.25,13.22,1.6,17.78,1.6,0-4.22-.23-7.98-.23-10.6,0-2.85-.11-9.46-1.25-14.93-.11-.34-.23-.68-.23-.8s.11-.23,.34-.23c.8,0,11.51,1.6,11.51,3.99,0,.8-.91,1.71-1.94,2.28-2.74,1.37-2.62-.11-2.85,6.84l-.34,13.45h1.6c.34,0,1.03-.57,1.37-1.14,2.74-4.67,3.53-4.79,3.99-4.79,.23,0,.46,0,.57,.11,2.62,1.37,6.61,5.47,6.61,7.07,0,.68-.34,1.6-1.94,1.6h-12.31c-.11,6.73-.11,13.57-.11,20.18,5.7-2.39,10.26-4.79,13.57-6.61,.46-.23,.8-.34,.91-.34,.23,0,.34,.11,.34,.23,0,.34-.23,.8-.57,1.03-3.42,2.28-8.21,5.7-14.25,9.46,0,7.07,.11,13.79,.23,19.61,0,.91,.57,11.51,.57,13.57,0,6.95-6.27,11.17-10.49,11.4-1.25,0-1.03-.11-1.6-1.03Zm51.19-90.97c0,.57-.46,1.25-1.82,1.94-1.71,.91-2.05,.8-2.05,3.99,0,1.14,.11,2.62,.11,4.67,0,3.99,.23,32.6,.23,32.95v.46c0,23.37-8.32,41.61-31.92,48.11-1.37,.34-2.39,.46-3.08,.46-.46,0-.8,0-.8-.23,0-.34,1.03-.91,3.31-1.71,19.38-6.73,26.68-26.79,27.13-45.71-3.88,4.79-9.58,11.63-14.93,17.1-.57,.57-.8,2.05-1.6,2.05-.68,0-7.07-5.7-7.07-6.38,0-.11,.11-.11,.46-.23,7.75-1.71,19.04-11.51,23.14-15.16v-.34c0-14.59-.11-39.9-1.71-44.35-.11-.34-.23-.57-.23-.68,0-.23,.23-.34,.68-.34h.46c.34,0,6.5,.91,8.66,2.05,.23,.11,1.03,.68,1.03,1.37Zm-12.08,30.89c0,2.51-1.48,4.22-3.08,4.22-1.37,0-2.74-1.03-3.53-3.76-.91-2.85-4.67-8.89-6.95-11.17-.57-.57-.8-.91-.8-1.14,0-.11,.11-.23,.34-.23,.91,0,14.02,4.67,14.02,12.08Zm30.55,59.17c-10.49,0-13-3.65-13-8.55v-1.14c.11-1.14,.11-15.05,.11-72.39,0-.34,.11-1.6,.11-3.42,0-2.28-.11-5.36-.68-7.75-.11-.34-.11-.68-.11-.8,0-.34,.11-.46,.68-.46s9.58,1.37,9.58,3.76c0,.57-.57,1.25-1.94,2.05-1.94,1.14-2.17,1.48-2.28,4.9-.11,2.62-.11,13.57-.23,26.11,13.45-11.29,16.07-15.85,16.87-18.58,.11-.34,.23-.57,.46-.57,1.14,0,7.41,7.41,7.41,8.78,0,.8-.68,1.25-2.05,1.25-.46,0-.8,0-1.25-.11-.46-.11-.91-.11-1.25-.11s-.68,0-1.25,.34c-2.85,1.71-13.68,7.75-18.92,10.49,0,2.85-.11,5.7-.11,8.55,5.24,.68,25.76,4.33,25.76,13.34,0,1.82-1.03,3.31-2.74,3.31-1.25,0-2.74-.8-4.45-2.85-5.13-6.04-12.43-9.69-18.58-13.11,0,6.5-.11,13-.11,18.7,0,8.09,.11,14.59,.23,17.1,.23,4.1,.23,5.81,7.41,5.81,2.62,0,6.27-.23,8.66-.68,5.59-1.14,5.59-8.44,7.07-17.33,.11-.46,.11-.68,.23-.68,.57,0,1.14,12.77,2.85,13.91,1.25,.8,2.05,1.94,2.05,3.08,0,1.03-.57,7.07-20.52,7.07Z" fill="#fff"/>
      <path d="M967.41,196.48c0,1.6-1.48,2.28-3.53,2.28-4.22,0-17.21-3.19-24.85-22-16.99,19.15-41.5,23.03-42.29,23.03-.34,0-.57,0-.8-.11-.57,1.48-1.94,2.39-3.19,2.39s-2.28-1.03-2.28-3.31v-.57c.23-4.22,.46-12.2,.57-20.86-5.93,.11-13.68,.46-21.09,1.25h-.11c-1.82,0-5.13-4.56-5.13-5.93,8.55,1.14,19.27,1.6,26.45,1.71,.11-4.33,.11-8.78,.11-13.11h-13l.11,2.51c0,1.71-1.71,2.74-3.19,2.74-1.14,0-2.17-.68-2.17-2.17v-.34c.57-7.07,.8-20.41,.8-25.19,0-1.25-.34-9.35-1.14-13.68-.11-.34-.11-.68-.11-.8,0-.23,.11-.34,.23-.34,.91,0,6.84,3.08,7.87,3.88l.34,.23h17.78c3.76-6.04,7.64-13.91,9.35-18.01,1.03-2.39,1.14-4.67,1.48-6.16,.11-.57,.11-.91,.34-.91,.34,0,9.69,4.33,9.69,6.04,0,.68-.8,1.37-3.31,1.48-2.05,.11-1.71,.57-2.85,1.94-2.17,2.74-7.07,9.69-12.08,15.62h5.59c.57,0,1.03-.23,1.37-.68,.68-.8,1.25-1.94,1.82-2.28,.23-.23,.68-.46,1.14-.46,1.48,0,6.16,3.99,6.73,4.79,.46,.57,.57,1.14,.57,1.6,0,1.48-1.71,2.17-2.62,2.74-1.6,.91-1.82,1.82-1.82,5.02v1.6c0,5.93,.46,17.78,.68,22.12v.23c0,1.94-1.71,3.19-3.19,3.19-1.14,0-2.28-.8-2.28-2.62v-2.05h-13.45v13.22h11.17c.8,0,1.03-.57,1.37-1.14,.57-.91,4.67-6.27,5.93-6.27,2.74,0,9.35,7.07,9.35,8.78,0,.8-.46,1.48-2.17,1.48h-25.54c0,8.78,.11,16.64,.23,20.63v.46c.11,0,.23-.11,.34-.11,16.19-5.36,30.21-12.77,40.58-26.45-3.53-10.94-4.79-23.37-5.36-33.97-3.08,.46-6.27,1.03-9.12,1.71h-.23c-1.48,0-4.9-3.53-5.02-4.79,1.25,.11,2.62,.11,3.99,.11,3.31,0,6.95-.23,10.26-.34-.34-7.87-.23-14.48-.46-17.9-.11-1.94-.46-12.77-1.71-16.99-.11-.46-.23-.68-.23-.8s0-.11,.11-.11c0,0,11.17,.23,11.17,3.88,0,.68-.57,1.48-1.6,2.17-2.05,1.25-2.28,.46-2.51,5.36-.23,4.33-.46,9.92-.46,16.19,0,2.51,0,5.13,.11,7.87,2.62-.23,4.79-.34,6.16-.57l9.01-1.14c.23,0,1.14-.46,1.37-1.03,.91-2.05,1.6-3.19,2.85-5.24,.23-.34,.57-.46,.91-.46,2.28,0,8.78,5.36,8.78,6.95,0,.57-.46,1.03-2.05,1.25l-20.75,2.51c-1.6,.23-3.76,.34-6.16,.68,.46,10.03,1.6,20.63,4.1,29.75,3.31-5.24,6.38-11.74,8.66-18.7,.34-1.14,.8-4.67,.91-6.73,0-.23,0-.34,.23-.34,.11,0,8.44,3.42,9.23,4.22,.34,.34,.68,.8,.68,1.25,0,.68-.8,1.37-3.31,2.05-2.17,.57-1.71,.11-2.51,2.05-3.31,8.55-7.3,15.85-12.08,22,5.13,13.79,12.88,17.1,15.16,17.1s4.1-2.85,9.01-13.68c.57-1.37,1.03-1.94,1.25-1.94s.34,.46,.34,1.25c0,3.42-1.71,12.88-1.71,16.76,0,.68,.11,1.25,.23,1.48,.68,1.14,.91,2.05,.91,2.74Zm-85.16-79.69c0,2.28-1.48,3.88-3.08,3.88-1.14,0-2.51-.91-3.31-3.31-1.37-3.76-5.59-9.8-7.52-11.4-.11-.11-.11-.23-.11-.34s.11-.23,.46-.23c1.82,0,13.57,5.59,13.57,11.4Zm9.01,23.71c0-1.48-.11-6.95-.34-9.46h-10.03l-.8,.57c-1.48,1.14-1.71,.8-1.94,5.24v6.04h13.11v-2.39Zm0,5.36h-13.11c0,3.99,.11,8.55,.11,12.43h13v-12.43Zm6.16-30.78c0,2.39-1.6,4.22-3.19,4.22-1.37,0-2.62-1.14-3.19-3.99-.8-3.99-4.1-10.6-5.93-12.43q-.11-.11-.11-.23c0-.23,.11-.34,.34-.34,1.25,0,12.08,6.73,12.08,12.77Zm-1.25,30.78c-.11,3.65-.11,7.98-.11,12.43h13.34c.11-3.99,.23-8.32,.23-12.43h-13.45Zm13.11-13.79c0-.11,0-1.03-.91-1.03h-8.21c.11,.11,.11,.34,.11,.46,0,.68-.57,1.37-1.25,1.6-2.28,1.14-2.85,1.37-2.85,9.8h13.45c0-4.22-.11-7.98-.34-10.83Zm47.08-13.91c0,1.82-1.37,3.31-2.85,3.31-1.14,0-2.39-.8-3.42-2.62-1.71-3.19-5.81-6.61-9.01-8.78-.34-.23-.57-.46-.57-.46,0-.23,.57-.23,1.03-.23,5.7,.11,14.82,3.65,14.82,8.78Z" fill="#fff"/>
    </g>
  </g>
</svg>