<?xml version="1.0" encoding="UTF-8"?>
<svg id="_レイヤー_2" data-name="レイヤー 2" xmlns="http://www.w3.org/2000/svg" viewBox="0 0 186 186">
  <g id="_デザイン" data-name="デザイン">
    <g>
      <path d="m88.99.08c1.06-.04,2.13-.07,3.19-.08v16.78c-1.03.01-2.08.05-3.19.1V.08Z" fill="#003383"/>
      <path d="m92.18,186c-1.06,0-2.13-.04-3.19-.08v-16.81c1.11.06,2.16.09,3.19.1v16.78Z" fill="#003383"/>
      <path d="m98.08,169.05c.33-.02.66-.05.99-.08l1.76,16.7c-.33.03-.66.05-.99.08l-1.76-16.7Z" fill="#003383" opacity=".5"/>
      <path d="m80.4.85c.33-.04.66-.09.99-.13l1.75,16.71c-.33.04-.66.08-.99.12l-1.75-16.7Z" fill="#003383" opacity=".5"/>
      <path d="m106.04,168.1c.33-.06.66-.11.98-.18l3.49,16.43c-.33.06-.65.12-.98.18l-3.49-16.44Z" fill="#003383" opacity=".5"/>
      <path d="m70.87,2.65c.32-.08.65-.16.97-.23l3.49,16.43s-.68.15-.97.22l-3.49-16.42Z" fill="#003383" opacity=".5"/>
      <path d="m113.88,166.31c.32-.09.64-.18.96-.27l5.19,15.97c-.32.1-.64.19-.96.28l-5.19-15.99Z" fill="#003383" opacity=".5"/>
      <path d="m61.61,5.43c.31-.11.63-.22.94-.33l5.19,15.98c-.31.11-.63.22-.94.33l-5.19-15.98Z" fill="#003383" opacity=".5"/>
      <path d="m52.71,9.15c.3-.14.6-.29.9-.43l6.83,15.35c-.3.14-.6.29-.9.43l-6.83-15.35Z" fill="#003383" opacity=".5"/>
      <path d="m121.51,163.7c.31-.12.62-.24.93-.37l6.83,15.34c-.31.13-.61.26-.92.38l-6.83-15.35Z" fill="#003383" opacity=".5"/>
      <path d="m43.34,14.35c.88-.56,1.8-1.11,2.73-1.66l8.4,14.55c-.94.55-1.85,1.11-2.72,1.67l-8.41-14.56Z" fill="#003383"/>
      <path d="m127.87,160.78c.94-.49,1.88-1,2.81-1.52l8.4,14.55c-.9.52-1.84,1.03-2.8,1.53l-8.41-14.56Z" fill="#003383"/>
      <path d="m36.37,19.22c.26-.2.53-.4.79-.6l9.86,13.58c-.25.19-.78.62-.78.62l-9.87-13.59Z" fill="#003383" opacity=".5"/>
      <path d="m135.8,156.08c.27-.19.54-.38.82-.57l9.87,13.59c-.27.19-.55.38-.82.57l-9.87-13.58Z" fill="#003383" opacity=".5"/>
      <path d="m142.27,151.15c.25-.22.5-.43.75-.65l11.23,12.48c-.25.22-.5.44-.75.65l-11.23-12.48Z" fill="#003383" opacity=".5"/>
      <path d="m29.09,25.44c.24-.23.49-.46.73-.68l11.23,12.48c-.24.23-.48.46-.72.69l-11.24-12.48Z" fill="#003383" opacity=".5"/>
      <path d="m148.2,145.55c.23-.24.46-.48.69-.72l12.47,11.23c-.23.24-.45.49-.68.73l-12.48-11.24Z" fill="#003383" opacity=".5"/>
      <path d="m22.49,32.36c.22-.25.44-.5.66-.75l12.48,11.23c-.22.25-.44.5-.65.75l-12.48-11.24Z" fill="#003383" opacity=".5"/>
      <path d="m16.65,39.89c.19-.27.38-.54.57-.82l13.58,9.87c-.19.27-.39.54-.58.81l-13.58-9.87Z" fill="#003383" opacity=".5"/>
      <path d="m153.51,139.33c.21-.27.41-.53.61-.79l13.58,9.87c-.2.27-.4.53-.6.8l-13.59-9.87Z" fill="#003383" opacity=".5"/>
      <path d="m157.56,133.51c.58-.91,1.13-1.83,1.64-2.74l14.54,8.4c-.52.91-1.07,1.83-1.63,2.74l-14.55-8.4Z" fill="#003383"/>
      <path d="m11.08,48.94c.5-.93,1.03-1.86,1.56-2.78l14.54,8.39c-.52.89-1.03,1.81-1.55,2.79l-14.55-8.4Z" fill="#003383"/>
      <path d="m162.03,125.36c.14-.3.27-.61.41-.91l15.34,6.83c-.14.3-.28.61-.42.91l-15.33-6.83Z" fill="#003383" opacity=".5"/>
      <path d="m7.43,56.52c.13-.31.26-.61.4-.91l15.34,6.83c-.14.3-.27.61-.4.91l-15.34-6.83Z" fill="#003383" opacity=".5"/>
      <path d="m165.1,117.74c.11-.31.22-.63.32-.94l15.97,5.19c-.1.32-.21.63-.32.95l-15.97-5.19Z" fill="#003383" opacity=".5"/>
      <path d="m4.16,65.44c.1-.32.2-.63.3-.95l15.97,5.19c-.1.32-.2.63-.3.95l-15.97-5.19Z" fill="#003383" opacity=".5"/>
      <path d="m167.34,109.83s.16-.68.23-.97l16.42,3.49c-.07.33-.14.65-.21.97l-16.43-3.49Z" fill="#003383" opacity=".5"/>
      <path d="m1.82,74.64c.07-.33.13-.65.2-.98l16.42,3.49c-.07.32-.14.65-.2.98l-16.43-3.49Z" fill="#003383" opacity=".5"/>
      <path d="m168.71,101.71c.04-.33.08-.66.11-.99l16.69,1.75c-.03.33-.07.66-.11.99l-16.7-1.76Z" fill="#003383" opacity=".5"/>
      <path d="m.43,84.03c.03-.33.07-.66.1-.99l16.7,1.76c-.04.33-.07.66-.1.99l-16.7-1.76Z" fill="#003383" opacity=".5"/>
      <path d="m.02,94.6c0-.53-.02-1.06-.02-1.6s0-1.07.02-1.6h16.8v.13c-.02.49-.04.98-.04,1.47s.02.98.03,1.47v.13S.02,94.6.02,94.6Z" fill="#003383"/>
      <path d="m169.19,94.6v-.13c.02-.49.04-.98.04-1.47s-.02-.98-.03-1.47v-.13s16.79,0,16.79,0c.01.53.02,1.06.02,1.6s0,1.06-.02,1.6h-16.8Z" fill="#003383"/>
      <path d="m.43,101.97l16.7-1.76c.03.33.06.66.1.99l-16.7,1.75c-.04-.33-.07-.66-.1-.99Z" fill="#003383" opacity=".5"/>
      <path d="m168.71,84.29l16.7-1.76c.04.33.07.66.11.99l-16.69,1.75c-.04-.33-.07-.66-.11-.99Z" fill="#003383" opacity=".5"/>
      <path d="m167.34,76.17l16.43-3.49c.07.32.14.65.21.97l-16.42,3.49c-.07-.29-.23-.97-.23-.97Z" fill="#003383" opacity=".5"/>
      <path d="m1.82,111.36l16.43-3.49c.06.33.13.65.2.98l-16.42,3.49c-.07-.32-.14-.65-.2-.98Z" fill="#003383" opacity=".5"/>
      <path d="m165.1,68.26l15.97-5.19c.11.31.21.63.31.95l-15.97,5.19c-.1-.32-.21-.63-.32-.94Z" fill="#003383" opacity=".5"/>
      <path d="m4.16,120.56l15.97-5.19c.1.32.2.63.3.95l-15.97,5.19c-.1-.32-.2-.63-.3-.95Z" fill="#003383" opacity=".5"/>
      <path d="m162.03,60.64l15.33-6.83c.14.3.28.6.42.91l-15.34,6.83c-.13-.3-.27-.61-.41-.91Z" fill="#003383" opacity=".5"/>
      <path d="m7.43,129.48l15.34-6.83c.13.31.27.61.4.91l-15.34,6.83c-.13-.3-.27-.61-.4-.91Z" fill="#003383" opacity=".5"/>
      <path d="m159.2,55.23c-.52-.9-1.07-1.82-1.64-2.74l14.55-8.4c.56.91,1.11,1.83,1.64,2.74l-14.54,8.4Z" fill="#003383"/>
      <path d="m12.65,139.84c-.54-.92-1.06-1.85-1.56-2.78l14.55-8.4c.52.98,1.03,1.9,1.55,2.79l-14.54,8.39Z" fill="#003383"/>
      <path d="m16.65,146.11l13.58-9.87c.19.27.39.54.58.81l-13.58,9.87c-.19-.27-.38-.54-.57-.82Z" fill="#003383" opacity=".5"/>
      <path d="m153.51,46.67l13.59-9.87c.2.26.4.53.6.8l-13.58,9.87c-.2-.27-.4-.53-.61-.79Z" fill="#003383" opacity=".5"/>
      <path d="m148.2,40.45l12.48-11.24c.23.24.45.49.68.73l-12.47,11.23c-.23-.24-.46-.48-.69-.72Z" fill="#003383" opacity=".5"/>
      <path d="m22.49,153.64l12.48-11.24c.22.25.43.5.65.75l-12.48,11.23c-.22-.25-.44-.5-.66-.75Z" fill="#003383" opacity=".5"/>
      <path d="m142.27,34.85l11.23-12.48c.25.22.5.43.75.65l-11.23,12.48c-.25-.22-.5-.44-.75-.65Z" fill="#003383" opacity=".5"/>
      <path d="m29.09,160.56l11.24-12.48c.25.24.49.47.72.69l-11.23,12.48c-.24-.23-.49-.45-.73-.68Z" fill="#003383" opacity=".5"/>
      <path d="m135.8,29.92l9.87-13.58c.27.19.55.38.82.57l-9.87,13.59c-.27-.19-.54-.39-.82-.57Z" fill="#003383" opacity=".5"/>
      <path d="m36.37,166.78l9.87-13.59s.53.43.78.62l-9.86,13.58c-.27-.2-.53-.4-.79-.6Z" fill="#003383" opacity=".5"/>
      <path d="m130.68,26.75c-.92-.53-1.86-1.04-2.81-1.52l8.41-14.56c.96.5,1.9,1.02,2.8,1.53l-8.4,14.55Z" fill="#003383"/>
      <path d="m46.07,173.31c-.93-.54-1.84-1.1-2.73-1.66l8.41-14.56c.87.56,1.79,1.12,2.72,1.67l-8.4,14.55Z" fill="#003383"/>
      <path d="m121.51,22.3l6.83-15.35c.31.13.61.25.92.38l-6.83,15.34c-.31-.13-.62-.25-.93-.37Z" fill="#003383" opacity=".5"/>
      <path d="m52.71,176.85l6.83-15.35c.3.15.6.29.9.43l-6.83,15.35c-.3-.14-.6-.28-.9-.43Z" fill="#003383" opacity=".5"/>
      <path d="m113.88,19.69l5.19-15.99c.32.09.64.19.96.28l-5.19,15.97c-.32-.09-.64-.18-.96-.27Z" fill="#003383" opacity=".5"/>
      <path d="m61.61,180.57l5.19-15.98c.31.11.63.22.94.33l-5.19,15.98c-.31-.11-.63-.22-.94-.33Z" fill="#003383" opacity=".5"/>
      <path d="m70.87,183.35l3.49-16.42c.29.07.97.22.97.22l-3.49,16.43c-.32-.08-.65-.15-.97-.23Z" fill="#003383" opacity=".5"/>
      <path d="m106.04,17.9l3.49-16.44c.33.06.65.12.98.18l-3.49,16.43c-.33-.06-.65-.12-.98-.18Z" fill="#003383" opacity=".5"/>
      <path d="m80.4,185.15l1.75-16.7c.33.04.99.12.99.12l-1.76,16.71c-.33-.04-.66-.08-.99-.13Z" fill="#003383" opacity=".5"/>
      <path d="m98.08,16.95L99.83.25c.33.02.66.05.99.08l-1.76,16.7c-.33-.03-.66-.05-.99-.08Z" fill="#003383" opacity=".5"/>
    </g>
  </g>
</svg>