<?xml version="1.0" encoding="UTF-8"?>
<svg id="_レイヤー_2" data-name="レイヤー 2" xmlns="http://www.w3.org/2000/svg" xmlns:xlink="http://www.w3.org/1999/xlink" viewBox="0 0 192.29 156.58">
  <defs>
    <linearGradient id="_名称未設定グラデーション_2246" data-name="名称未設定グラデーション 2246" x1="144.45" y1="89.28" x2="167.06" y2="89.28" gradientUnits="userSpaceOnUse">
      <stop offset="0" stop-color="#2e5673"/>
      <stop offset=".29" stop-color="#2e5975"/>
      <stop offset=".54" stop-color="#2e647e"/>
      <stop offset=".77" stop-color="#2f758c"/>
      <stop offset="1" stop-color="#308fa1"/>
    </linearGradient>
    <linearGradient id="_名称未設定グラデーション_2497" data-name="名称未設定グラデーション 2497" x1="144.45" y1="63.96" x2="192.29" y2="63.96" gradientUnits="userSpaceOnUse">
      <stop offset="0" stop-color="#d0dee2"/>
      <stop offset="1" stop-color="#edf6ea"/>
    </linearGradient>
    <linearGradient id="_名称未設定グラデーション_2411" data-name="名称未設定グラデーション 2411" x1="167.06" y1="88.56" x2="192.29" y2="88.56" gradientUnits="userSpaceOnUse">
      <stop offset="0" stop-color="#8eccd1"/>
      <stop offset="1" stop-color="#81b1b2"/>
    </linearGradient>
    <linearGradient id="_名称未設定グラデーション_2246-2" data-name="名称未設定グラデーション 2246" x1="152.65" y1="63.35" x2="167.51" y2="63.35" xlink:href="#_名称未設定グラデーション_2246"/>
    <linearGradient id="_名称未設定グラデーション_2497-2" data-name="名称未設定グラデーション 2497" x1="152.65" y1="53.82" x2="184.1" y2="53.82" xlink:href="#_名称未設定グラデーション_2497"/>
    <linearGradient id="_名称未設定グラデーション_2411-2" data-name="名称未設定グラデーション 2411" x1="167.51" y1="62.87" x2="184.1" y2="62.87" xlink:href="#_名称未設定グラデーション_2411"/>
    <linearGradient id="_名称未設定グラデーション_2246-3" data-name="名称未設定グラデーション 2246" x1="159.28" y1="53.52" x2="167.87" y2="53.52" xlink:href="#_名称未設定グラデーション_2246"/>
    <linearGradient id="_名称未設定グラデーション_2497-3" data-name="名称未設定グラデーション 2497" x1="159.28" y1="48.01" x2="177.47" y2="48.01" xlink:href="#_名称未設定グラデーション_2497"/>
    <linearGradient id="_名称未設定グラデーション_2411-3" data-name="名称未設定グラデーション 2411" x1="167.87" y1="53.25" x2="177.47" y2="53.25" xlink:href="#_名称未設定グラデーション_2411"/>
    <linearGradient id="_名称未設定グラデーション_979" data-name="名称未設定グラデーション 979" x1="11.37" y1="124.43" x2="55.96" y2="124.43" gradientUnits="userSpaceOnUse">
      <stop offset="0" stop-color="#b4cad3"/>
      <stop offset="1" stop-color="#a6b1ca"/>
    </linearGradient>
    <linearGradient id="_名称未設定グラデーション_979-2" data-name="名称未設定グラデーション 979" x1="101.06" y1="121.67" x2="155.5" y2="121.67" xlink:href="#_名称未設定グラデーション_979"/>
    <linearGradient id="_名称未設定グラデーション_979-3" data-name="名称未設定グラデーション 979" x1="55.9" y1="137.37" x2="101.12" y2="137.37" xlink:href="#_名称未設定グラデーション_979"/>
    <linearGradient id="_名称未設定グラデーション_2246-4" data-name="名称未設定グラデーション 2246" x1="11.37" y1="119.81" x2="55.96" y2="119.81" xlink:href="#_名称未設定グラデーション_2246"/>
    <linearGradient id="_名称未設定グラデーション_2168" data-name="名称未設定グラデーション 2168" x1="101.06" y1="117.05" x2="155.5" y2="117.05" gradientUnits="userSpaceOnUse">
      <stop offset="0" stop-color="#2e5673"/>
      <stop offset="1" stop-color="#308fa1"/>
    </linearGradient>
    <linearGradient id="_名称未設定グラデーション_2168-2" data-name="名称未設定グラデーション 2168" x1="55.9" y1="132.75" x2="101.12" y2="132.75" xlink:href="#_名称未設定グラデーション_2168"/>
    <linearGradient id="_名称未設定グラデーション_2350" data-name="名称未設定グラデーション 2350" x1="0" y1="96.35" x2="50.59" y2="96.35" gradientUnits="userSpaceOnUse">
      <stop offset="0" stop-color="#305d82"/>
      <stop offset="1" stop-color="#60aeaf"/>
    </linearGradient>
    <linearGradient id="_名称未設定グラデーション_2411-4" data-name="名称未設定グラデーション 2411" x1="101.9" y1="93.22" x2="163.79" y2="93.22" xlink:href="#_名称未設定グラデーション_2411"/>
    <linearGradient id="_名称未設定グラデーション_2293" data-name="名称未設定グラデーション 2293" x1="50.59" y1="111.05" x2="102" y2="111.05" gradientUnits="userSpaceOnUse">
      <stop offset="0" stop-color="#308fa1"/>
      <stop offset="1" stop-color="#93c1ce"/>
    </linearGradient>
    <linearGradient id="_名称未設定グラデーション_1348" data-name="名称未設定グラデーション 1348" x1="6.94" y1="47.4" x2="156.91" y2="47.4" gradientUnits="userSpaceOnUse">
      <stop offset="0" stop-color="#71b3d3"/>
      <stop offset="1" stop-color="#4f8aad"/>
    </linearGradient>
    <linearGradient id="_名称未設定グラデーション_1384" data-name="名称未設定グラデーション 1384" x1="24.47" y1="63.75" x2="57.9" y2="63.75" gradientUnits="userSpaceOnUse">
      <stop offset="0" stop-color="#adc1c5"/>
      <stop offset="1" stop-color="#61a4b7"/>
    </linearGradient>
    <linearGradient id="_名称未設定グラデーション_2497-4" data-name="名称未設定グラデーション 2497" x1="91.72" y1="61.68" x2="132.54" y2="61.68" xlink:href="#_名称未設定グラデーション_2497"/>
    <linearGradient id="_名称未設定グラデーション_516" data-name="名称未設定グラデーション 516" x1="57.86" y1="73.45" x2="91.76" y2="73.45" gradientUnits="userSpaceOnUse">
      <stop offset="0" stop-color="#d0ebeb"/>
      <stop offset="1" stop-color="#b8d7db"/>
    </linearGradient>
    <linearGradient id="_名称未設定グラデーション_2570" data-name="名称未設定グラデーション 2570" x1="27.93" y1="34.32" x2="129.14" y2="34.32" gradientUnits="userSpaceOnUse">
      <stop offset="0" stop-color="#d7e8e5"/>
      <stop offset="1" stop-color="#98c7b7"/>
    </linearGradient>
    <linearGradient id="_名称未設定グラデーション_2497-5" data-name="名称未設定グラデーション 2497" x1="27.93" y1="32.67" x2="129.14" y2="32.67" xlink:href="#_名称未設定グラデーション_2497"/>
  </defs>
  <g id="_デザイン" data-name="デザイン">
    <g id="top-section-03-park-building">
      <g>
        <polygon points="144.45 100.83 167.06 113.88 167.06 77.72 144.45 64.68 144.45 100.83" fill="url(#_名称未設定グラデーション_2246)"/>
        <polygon points="192.29 63.24 169.69 50.19 144.45 64.68 167.06 77.72 192.29 63.24" fill="url(#_名称未設定グラデーション_2497)"/>
        <polygon points="167.06 113.88 192.29 99.4 192.29 63.24 167.06 77.72 167.06 113.88" fill="url(#_名称未設定グラデーション_2411)"/>
        <polygon points="152.65 63.82 167.51 72.4 167.51 62.87 152.65 54.29 152.65 63.82" fill="url(#_名称未設定グラデーション_2246-2)"/>
        <polygon points="184.1 53.35 169.24 44.77 152.65 54.29 167.51 62.87 184.1 53.35" fill="url(#_名称未設定グラデーション_2497-2)"/>
        <polygon points="167.51 72.4 184.1 62.87 184.1 53.35 167.51 62.87 167.51 72.4" fill="url(#_名称未設定グラデーション_2411-2)"/>
        <polygon points="159.28 53.8 167.87 58.76 167.87 53.25 159.28 48.29 159.28 53.8" fill="url(#_名称未設定グラデーション_2246-3)"/>
        <polygon points="177.47 47.74 168.87 42.78 159.28 48.29 167.87 53.25 177.47 47.74" fill="url(#_名称未設定グラデーション_2497-3)"/>
        <polygon points="167.87 58.76 177.47 53.25 177.47 47.74 167.87 53.25 167.87 58.76" fill="url(#_名称未設定グラデーション_2411-3)"/>
      </g>
      <g>
        <path d="M155.44,95.49l.06,20.94c.07-10.21,.09-15.94,.15-26.16l-.06-20.94c-.06,10.22-.08,15.94-.15,26.16h0Z" fill="#b1c5df"/>
        <polygon points="11.37 101.01 11.43 121.96 55.96 147.84 55.9 126.89 11.37 101.01" fill="url(#_名称未設定グラデーション_979)"/>
        <polygon points="101.06 126.89 101.12 147.84 155.5 116.44 155.44 95.49 101.06 126.89" fill="url(#_名称未設定グラデーション_979-2)"/>
        <path d="M55.9,126.89l.06,20.94c17.63,0,27.53,0,45.16,0l-.06-20.94c-17.63,0-27.53,0-45.16,0h0Z" fill="url(#_名称未設定グラデーション_979-3)"/>
        <polygon points="11.37 96.4 11.43 117.35 55.96 143.22 55.9 122.28 11.37 96.4" fill="url(#_名称未設定グラデーション_2246-4)"/>
        <polygon points="101.06 122.28 101.12 143.22 155.5 111.82 155.44 90.88 101.06 122.28" fill="url(#_名称未設定グラデーション_2168)"/>
        <path d="M55.9,122.28l.06,20.94c17.63,0,27.53,0,45.16,0l-.06-20.94c-17.63,0-27.53,0-45.16,0h0Z" fill="url(#_名称未設定グラデーション_2168-2)"/>
        <path d="M11.37,101.01l44.53,25.88c17.63,0,27.53,0,45.16,0l54.39-31.4c.07-10.21,.09-15.94,.15-26.16l-44.53-25.88L11.37,101.01Z" fill="#e0ebf7"/>
        <path d="M55.96,143.59h45.16c.06,0,.13-.02,.18-.05l54.39-31.4c.17-.1,.23-.32,.13-.49-.1-.17-.32-.23-.5-.13l-54.3,31.35H56.06S11.61,117.03,11.61,117.03c-.17-.1-.4-.04-.5,.13-.1,.17-.04,.4,.13,.5l44.53,25.88c.06,.03,.12,.05,.18,.05Z" fill="#738894"/>
        <path d="M151.61,90.59h4.26v35.23h0v.11h-.04c-.05,.28-.22,.55-.59,.76-.83,.48-2.18,.48-3.01,0-.37-.21-.54-.49-.58-.76h-.04v-35.35Z" fill="#75b3c3"/>
        <path d="M111.8,114.08h4.26v35.23h0v.11h-.04c-.05,.28-.22,.55-.59,.76-.83,.48-2.18,.48-3.01,0-.37-.21-.54-.49-.58-.76h-.04v-35.35Z" fill="#75b3c3"/>
        <path d="M94.2,120.11h4.26v35.23h0v.11h-.04c-.05,.28-.22,.55-.59,.76-.83,.48-2.18,.48-3.01,0-.37-.21-.54-.49-.58-.76h-.04v-35.35Z" fill="#75b3c3"/>
        <path d="M58.68,119.97h4.26v35.23h0v.11h-.04c-.05,.28-.22,.55-.59,.76-.83,.48-2.18,.48-3.01,0-.37-.21-.54-.49-.58-.76h-.04v-35.35Z" fill="#75b3c3"/>
        <path d="M5.56,94.49h4.26v35.23h0v.11h-.04c-.05,.28-.22,.55-.59,.76-.83,.48-2.18,.48-3.01,0-.37-.21-.54-.49-.58-.76h-.04v-35.35Z" fill="#75b3c3"/>
        <polygon points="0 65.39 .1 97.91 50.59 127.31 50.59 94.79 0 65.39" fill="url(#_名称未設定グラデーション_2350)"/>
        <polygon points="101.9 94.79 102 127.31 163.79 91.64 163.69 59.12 101.9 94.79" fill="url(#_名称未設定グラデーション_2411-4)"/>
        <path d="M50.59,94.79v32.52c20.03,0,31.36,0,51.41,0l-.1-32.52c-20.05,0-31.28,0-51.31,0h0Z" fill="url(#_名称未設定グラデーション_2293)"/>
        <path d="M0,65.39l50.59,29.4c20.03,0,31.26,0,51.31,0l61.78-35.67c.07-11.61,.1-18.12,.17-29.72L113.26,0,0,65.39Z" fill="#e9f5ff"/>
        <path d="M6.94,63.87l46.31,26.91c18.33,0,28.61,0,46.96,0l56.55-32.65c.06-10.63,.09-16.58,.15-27.2L110.6,4.02,6.94,63.87Z" fill="url(#_名称未設定グラデーション_1348)"/>
        <path d="M110.6,11.85L13.7,67.79l-6.76-3.93L110.6,4.02l46.31,26.91c-.02,2.88-.03,5.42-.04,7.8L110.6,11.85Z" fill="#90aebb"/>
        <polygon points="24.47 46.19 24.51 61.9 57.9 81.3 57.86 65.6 24.47 46.19" fill="url(#_名称未設定グラデーション_1384)"/>
        <polygon points="91.72 65.6 91.76 81.3 132.54 57.76 132.49 42.06 91.72 65.6" fill="url(#_名称未設定グラデーション_2497-4)"/>
        <polygon points="109.23 71.24 115.61 67.55 115.61 53.88 109.23 57.57 109.23 71.24" fill="#fff"/>
        <polygon points="101.62 67.49 108.01 63.8 108.01 58.5 101.62 62.19 101.62 67.49" fill="#fff"/>
        <polygon points="92.99 72.32 99.38 68.63 99.38 63.33 92.99 67.02 92.99 72.32" fill="#fff"/>
        <polygon points="43.83 60.62 37.44 56.93 37.44 62.23 43.83 65.92 43.83 60.62" fill="#fff"/>
        <polygon points="52.46 65.44 46.07 61.76 46.07 67.06 52.46 70.75 52.46 65.44" fill="#fff"/>
        <polygon points="35.26 55.65 28.88 51.96 28.88 57.26 35.26 60.95 35.26 55.65" fill="#fff"/>
        <polygon points="116.93 58.55 123.32 54.87 123.32 49.56 116.93 53.25 116.93 58.55" fill="#fff"/>
        <polygon points="125.05 53.83 131.44 50.14 131.44 44.84 125.05 48.53 125.05 53.83" fill="#fff"/>
        <path d="M57.86,65.6l.04,15.71c13.22,0,20.63,0,33.86,0l-.04-15.71c-13.23,0-20.64,0-33.86,0h0Z" fill="url(#_名称未設定グラデーション_516)"/>
        <path d="M24.47,46.19l33.39,19.41c13.22,0,20.63,0,33.86,0l40.77-23.54c.04-7.66,.07-11.95,.11-19.61L99.21,3.04,24.47,46.19Z" fill="#fff"/>
        <path d="M27.93,45.43l31.25,18.16c12.37,0,19.31,0,31.69,0l38.16-22.03c.04-7.17,.06-11.19,.1-18.36L97.89,5.04,27.93,43.79v1.64Z" fill="url(#_名称未設定グラデーション_2570)"/>
        <path d="M27.93,43.79l31.25,18.16c12.37,0,19.31,0,31.69,0l38.16-22.03c.04-7.17,.06-11.19,.1-18.36L97.89,3.4,27.93,43.79Z" fill="url(#_名称未設定グラデーション_2497-5)"/>
        <polygon points="123.31 134.99 136.08 127.62 136.08 113.96 123.31 121.32 123.31 134.99" fill="#c4ced6"/>
        <polygon points="124.2 134.45 135.19 128.11 135.19 115.42 124.2 121.76 124.2 134.45" fill="#396f8d"/>
        <rect x="70.7" y="131.91" width="16.48" height="15.93" transform="translate(158 279.68) rotate(179.96)" fill="#9eaebb"/>
        <rect x="71.77" y="133.04" width="14.35" height="14.8" transform="translate(158 280.81) rotate(179.96)" fill="#396f8d"/>
      </g>
    </g>
  </g>
</svg>