<?xml version="1.0" encoding="UTF-8"?>
<svg id="_レイヤー_2" data-name="レイヤー 2" xmlns="http://www.w3.org/2000/svg" viewBox="0 0 372.1 267.08">
  <g id="_レイヤー_1-2" data-name="レイヤー 1">
    <g>
      <path d="m40.59,6.67c0,.34-.4.63-1.31.97-1.14.4-1.82.57-2.57,1.48-9.46,11.63-19.61,19.21-31.18,22.12-1.14.29-1.94.4-2.28.4-.11,0-.17,0-.17-.06,0-.11.74-.46,2.22-.97,15.28-5.36,28.9-23.14,28.9-23.83,0-.17-.17-.29-.57-.29h-10.83c-2.05,2.11-4.16,4.16-6.33,6.1.86-.17,1.88-.23,2.85-.23,3.65,0,5.36,1.6,5.36,2.96,0,.8-.57,1.43-1.42,1.43-.51,0-1.2-.23-1.88-.85-1.2-1.08-3.59-2.22-5.53-2.74-5.81,5.02-10.38,7.7-11.12,7.7-.06,0-.11,0-.11-.06,0-.17.34-.51,1.2-1.14C12.2,14.82,22.35,3.48,23.49.51c.11-.34.11-.51.29-.51.63,0,4.62,2.34,4.62,2.91,0,.34-.4.63-1.25.63-.17,0-.34-.06-.57-.06h-.23c-.8,0-.97.46-1.48.97l-.57.57h9.58c.63,0,.68-.17.91-.4.28-.29,1.2-.97,1.54-.97.85,0,4.28,2.17,4.28,3.02Zm9.63,19.38c0,.4-.4.74-1.37,1.08-1.14.4-1.77.46-2.51,1.48-12.88,17.22-28.9,20.98-39.73,21.78-.57.06-1.08.06-1.48.06-.63,0-.97-.06-.97-.17s.86-.34,2.51-.63c25.71-3.93,37.4-23.32,37.4-23.43s-.11-.23-.51-.23h-13.74c-2.39,2.17-4.85,4.28-7.52,6.27,1.08-.17,2.22-.34,3.42-.34,5.99,0,6.16,2.85,6.16,3.36,0,.91-.63,1.65-1.54,1.65-.63,0-1.31-.34-2.05-1.08-1.2-1.25-3.71-2.51-5.81-3.14-.23-.06-.4-.17-.46-.23-7.47,5.47-12.88,7.64-13.62,7.64-.06,0-.11,0-.11-.06,0-.11.4-.46,1.43-1.03,8.09-4.79,20.07-15.68,22.06-20.01.17-.34.17-.51.34-.51.68,0,4.56,2.62,4.56,3.08,0,.34-.63.57-1.82.63-.86,0-1.31.17-3.48,2.34h12.48c.63,0,.74-.29.97-.51.4-.34,1.03-.91,1.31-.91.97,0,3.76,2.22,3.76,2.22.23.29.34.51.34.68Z" fill="#fff"/>
      <path d="m71.25,48.74c0,1.14-1.08,1.94-2.11,1.94-.74,0-1.37-.46-1.37-1.54v-.23c.46-6.21.74-12.48.91-16.7-4.5,6.84-13.91,12.77-15.62,12.77-.11,0-.23-.06-.23-.11,0-.17.29-.4.8-.74,4.5-2.79,13.17-12.43,14.99-17.16h-2c-1.94,0-5.87.06-9.01.51h-.06c-.57,0-2.17-2.05-2.17-2.68,3.82.63,9.29.8,11.34.8h2.11c0-2,0-5.07-.46-7.01-.06-.17-.06-.34-.06-.4,0-.17.06-.23.23-.23.85,0,3.99.51,5.3,1.37.91-1.2,3.59-5.93,4.39-8.15.29-.74.4-2.17.46-2.85,0-.11.06-.11.11-.11.11,0,.34.11.34.11,2.62,1.03,4.9,2.11,4.9,2.79,0,.46-.85.57-1.31.63-1.08.11-1.2-.06-1.71.8-.68,1.08-5.82,6.78-6.44,7.35-.34.29-.63.46-.85.51-.11.11-.23.17-.46.29-1.14.57-1.6.34-1.77,2.45-.06.51-.06,1.37-.11,2.45h5.07c.11,0,.51-.17.68-.46.46-.74,1.82-2.51,2.45-2.51.29,0,2.96,1.6,4.1,3.36.06.06.06.17.06.28,0,.29-.17.68-1.03.68h-11.4l-.11,5.07c2.28,0,11,1.48,11,5.59,0,.97-.46,1.71-1.25,1.71-.63,0-1.42-.46-2.34-1.65-2-2.68-4.79-3.88-7.41-5.19-.06,2.85-.11,6.1-.11,9.12,0,2.57.06,4.96.11,7.07v.06Zm10.03-43.78c-.29,0-.51,0-.85-.11-.28-.06-.57-.11-.85-.11-.51,0-.97.11-1.43.23-3.02.85-15.79,3.14-21.26,3.14-.11,0-1.54,0-1.54-.23,0-.11.46-.29,1.31-.34,4.33-.46,14.02-3.25,19.21-4.9.74-.23,1.88-.97,2.51-1.48.23-.17.23-.34.4-.34.57,0,3.65,2.96,3.65,3.42,0,.34-.34.74-1.14.74Zm-19.38,11.69c-.8-1.82-2.05-3.65-3.65-5.3-.11-.11-.11-.17-.11-.23,0,0,0-.06.06-.06.23,0,7.07,1.6,7.07,5.13,0,.97-.86,1.77-1.71,1.77-.63,0-1.25-.34-1.65-1.31Zm7.41-2c-.34-1.94-1.37-3.93-2.51-5.64-.06-.11-.06-.17-.06-.17q0-.06.06-.06c.29,0,5.87,2.17,5.87,5.53,0,1.08-.97,1.94-1.82,1.94-.68,0-1.31-.46-1.54-1.6Zm36.43,21.43c-.29,0-.63-.06-1.03-.17-.29-.06-.51-.11-.68-.11-.34,0-.46.23-.91.68-12.83,12.37-24.57,13.97-27.99,13.97-.51,0-.8-.11-.8-.17,0-.17.34-.29,1.14-.46,9.63-1.94,17.62-7.3,24.34-14.71.63-.68,1.77-2.79,2.11-3.65.06-.17,0-.34.11-.34.06,0,.17.06.28.11.11.06,4.67,3.14,4.67,4.05,0,.4-.46.8-1.25.8Zm-2.22-15.28c-.23,0-.51-.06-.85-.11-.17-.06-.34-.06-.46-.06-.63,0-.8.46-1.25.97-5.02,5.47-9.98,9.12-18.24,11.57-.63.17-1.03.29-1.31.29-.17,0-.23-.06-.23-.11,0-.17.4-.46,1.2-.8,6.44-2.79,11.34-6.84,15.62-12.37.51-.68,1.31-2.57,1.54-3.42.06-.17,0-.46.29-.46,0,0,4.79,2.74,4.79,3.82,0,.34-.34.68-1.08.68Zm-1.77-14.76c-.23,0-.46,0-.74-.06-.17-.06-.34-.06-.46-.06-.57,0-.63.28-1.08.8-7.24,8.09-16.25,12.48-17.96,12.48-.11,0-.23-.06-.23-.11,0-.11.4-.46,1.2-.85,5.81-3.02,14.48-11.63,15.33-16.19.06-.17,0-.34.23-.34.06,0,.17,0,.29.06.23.06,4.1,2.51,4.45,2.91.17.17.23.4.23.57,0,.46-.4.8-1.25.8Z" fill="#fff"/>
      <path d="m132.53,6.38c2.85.63,2.96.68,2.96,1.71s-1.54,3.19-6.04,4.85c-.23.68-.46,1.37-.74,2.05-1.65,4.1-6.78,14.54-8.61,18.53-.8,1.65-2.22,2.51-3.19,2.51-.63,0-1.08-.29-1.08-1.03,0-.57.34-1.43,1.08-2.51,6.44-9.52,9.29-15.28,10.49-18.93-2.22.51-3.08.57-3.82.57-5.99,0-7.07-4.62-7.07-4.85,0-.17.06-.29.17-.29.34,0,.97.51,1.14.63.97.74,3.53,1.82,5.87,1.82,1.6,0,3.31-.34,4.33-.63.11-.97.23-1.94.23-2.79,0-3.71-1.03-3.76-1.65-3.76-.91,0-1.43-.11-1.43-.51,0-.23.63-1.48,2.11-1.48,3.25,0,3.42,3.31,3.42,3.65l1.82.46Zm14.71,15.22c-.68,0-2.79.17-3.76.57-3.76,1.48-4.56,3.48-4.56,6.61,0,.97.06,2,.17,3.19,0,0,.46,4.9.63,7.47,4.28,1.48,8.32,4.45,8.32,7.01,0,1.08-.57,1.88-1.31,1.88-.51,0-1.14-.4-1.65-1.37-.97-1.77-2.96-3.59-5.47-4.9-.68,4.22-4.85,7.3-8.95,7.3-4.39,0-7.41-3.48-7.41-6.1,0-4.05,6.44-5.02,9.75-5.02,1.54,0,3.02.17,4.45.51,0-2.51-.29-5.13-.29-7.35v-.34c0-4.62,1.25-7.52,5.47-10.09,2.11-1.25,3.48-2.51,3.48-3.76,0-.51-.23-1.03-.68-1.54-.34-.4-1.08-.97-1.25-1.14-.34-.34-.51-.57-.51-.74s.17-.23.57-.23c2.74,0,6.84,2.45,6.84,5.47,0,1.54-.97,2.85-1.94,2.85-.51,0-1.08-.23-1.65-.29h-.23Zm-15.68,18.41c-4.62,0-6.73,1.71-6.73,3.36,0,2,2.85,3.14,5.3,3.14,3.71,0,6.67-2.57,7.13-5.47-1.82-.63-3.76-1.03-5.7-1.03Zm-1.31-29.99c1.48-.63,2.85-1.43,2.85-2.17,0-.34-.29-.57-2.39-1.43,0,1.03-.17,2.28-.46,3.59Z" fill="#fff"/>
      <path d="m37.4,86.88c0,1.31-1.54,2.51-2.45,4.22-7.01,13.4-15.39,23.89-29.64,28.1-.74.23-1.2.29-1.48.29-.23,0-.29-.06-.29-.11,0-.17.4-.51,1.03-.74,17.22-6.95,27.88-28.28,27.88-31.35,0-1.25-.8-2.05-2.85-2.45-.46-.11-.63-.29-.63-.51,0-.06.4-1.43,2.22-1.43,2.28,0,6.21,2,6.21,3.99Zm-20.86,8.55c0,1.42-.91,2.51-1.88,2.51-.74,0-1.48-.57-2-1.88-1.54-4.05-4.22-6.61-6.95-9.35-.29-.29-.4-.46-.4-.57s.11-.17.23-.17c.74,0,11,4.56,11,9.46Z" fill="#fff"/>
      <path d="m65.27,93.43c-.46,22.69-18.07,28.62-19.55,28.62-.11,0-.17,0-.17-.06,0-.17.57-.68,2.28-1.71,8.49-5.19,14.2-14.77,14.65-27.42.11-2.45.11-4.22.23-6.96.06-.63.06-1.2.06-1.71,0-4.05-1.03-4.96-3.02-5.59-.51-.17-.8-.34-.8-.57,0-.06.57-1.25,1.82-1.25,1.54,0,6.44,2.68,6.44,4.33,0,.34-.17.68-.34,1.03-.97,1.71-1.43,2.79-1.6,11.29Zm-12.03,5.93c0,1.08-.57,3.76-1.82,3.76-.68,0-1.37-.97-1.37-2.96,0-.29,0-.57.06-.91.23-2.51.34-4.28.34-6.16,0-10.32-1.25-10.66-3.88-11.17-.51-.06-.86-.23-.86-.51,0-.17.63-1.25,2.39-1.25,1.48,0,5.42,1.65,5.42,3.59,0,.51-.29.85-.4,1.14-.34.74-.4,1.77-.4,2.57,0,3.82.06,7.41.4,10.72.06.51.11.85.11,1.2Z" fill="#fff"/>
      <path d="m104.15,112.93c0,.68-.74,1.25-1.71,1.25-.23,0-.4,0-.63-.06-2.22-.57-4.79-.74-7.35-.74-5.07,0-10.38.8-13.85,1.54q-2.57.57-2.68.57c-.74,0-5.13-.46-5.13-3.31,0-.51.28-.74.68-.74.23,0,.46.06.68.17.17.06.4.11.57.23,1.2.57,2.79.74,3.71.74h.34c2.45-.17,6.73-.8,10.89-1.25,2.34-10.32,2.34-10.38,2.34-10.49,0-.29-.17-.4-.34-.4-.11,0-1.82.06-7.58,2-.86.29-1.48.46-2.11.46s-4.33-1.03-4.33-2.91c0-.06,0-.57.63-.57.28,0,.68.11,1.08.29.23.11.74.17,1.25.17.8,0,1.77-.11,2.34-.17,3.08-.4,3.93-.68,7.13-1.08,1.08-.11,1.25-.91,2.17-.91.63,0,4.16,1.14,4.16,2.51,0,.23-.11.46-.34.68-.46.51-1.08.85-1.31,1.54-.8,2.45-1.88,6.27-2.57,8.67,1.42-.11,2.74-.29,3.93-.34,1.48-.06,1.94-.51,2.96-.51,2.05,0,5.07,1.37,5.07,2.68Z" fill="#fff"/>
      <path d="m144.56,98.45c-3.19.11-10.83.06-17.61.46-3.36.17-6.38.51-8.72,1.03-1.2.29-2.22.46-3.19.46-3.02,0-7.01-2.91-7.01-4.56,0-.34.17-.46.4-.46.06,0,.11,0,1.42.74,1.14.63,3.36.8,5.02.8,2.34,0,19.21-.8,26.45-1.37.68-.06,1.6-.11,2.51-.11,1.43,0,4.45.11,4.45,1.42,0,.8-1.48,1.54-3.71,1.6Z" fill="#fff"/>
      <path d="m168.44,98.85c0,.74-.4,1.31-1.31,1.31-.46,0-1.08-.17-1.88-.63-2.28-1.31-5.87-2.74-8.21-3.42-.34-.06-.46-.17-.46-.29,0-.23,2.05-.85,4.85-.85,6.73,0,7.01,3.31,7.01,3.88Zm2.62,16.82c-.74.46-1.25.91-1.65,1.31-.46.46-.91.85-1.6.85-1.2,0-6.27-2.05-6.27-4.96,0-.11.29-1.94.91-1.94.29,0,.51.34.68.63.74,1.2,1.77,1.77,3.14,1.77,7.24,0,25.2-17.22,32.66-26.45.57-.74.91-1.08,1.03-1.08q.06,0,.06.06c0,.17-.17.68-.57,1.54-3.65,8.49-15.85,20.75-28.39,28.28Zm5.81-26.11c0,.8-.46,1.43-1.25,1.43-.51,0-1.25-.28-2.05-.91-2.05-1.54-5.42-3.53-7.64-4.5-.29-.11-.4-.23-.4-.29s.06-.46,2.51-.46c5.42,0,8.84,2.17,8.84,4.73Z" fill="#fff"/>
      <path d="m229.66,97.31c0,.51-.4.97-1.03,1.25-.8.4-.74.97-.91,1.65-.68,2.79-1.94,7.92-2.62,10.72,1.94.23,2.85,1.25,2.85,2.05,0,.46-.4.85-1.08.85-.17,0-.4,0-.57-.06-.91-.17-2.17-.28-3.59-.28-3.14,0-7.07.4-10.15,1.2-.91.23-1.65.4-2.34.4-2.28,0-4.85-1.71-4.85-3.02,0-.46.23-.68.57-.68.23,0,.57.11.85.29.11.06.17.11.34.17.51.29,1.37.34,2.22.34q.34,0,13.57-1.2c.28-1.6.68-3.82,1.08-6.04-.11,0-.29.06-.4.06-2.28,0-5.7.34-9.24,1.31-1.94.46-2.22.46-2.34.46-2.05,0-4.62-1.65-4.62-2.91,0-.46.23-.63.63-.63.11,0,.34.06.51.11s.34.17.51.29c.51.29,1.6.34,2.51.34.74,0,1.42-.06,1.65-.06,2.79-.29,5.36-.68,7.92-.97.29-.06.57-.06.8-.06.91,0,1.65.23,2.34.57.46-2.51.8-4.39.8-5.02,0-.8-.4-.86-.74-.86-3.99.23-8.44.97-11.52,1.88-.85.23-1.6.4-2.22.4-1.37,0-3.76-1.42-4.05-2.22-.06-.11-.23-.51-.23-.8,0-.23.11-.46.4-.46.34,0,.8.23,1.08.34.34.17,1.25.23,2.17.23.74,0,1.54-.06,2-.11,4.05-.34,7.13-.91,11.06-1.2.63-.06.91-.11,1.37-.46.29-.17.51-.4,1.03-.4.34,0,4.22,1.25,4.22,2.51Z" fill="#fff"/>
      <path d="m252.63,92.41c0,1.08-.68,2-1.65,2-.57,0-1.2-.29-1.94-.91-3.25-2.96-6.21-3.82-10.09-5.13-.4-.17-.57-.29-.57-.4,0-.23,1.65-.46,3.48-.46,5.02,0,10.77,1.54,10.77,4.9Zm-1.03,21.72c-.74.51-1.2,1.08-1.6,1.54-.46.51-.85,1.03-1.6,1.03-1.71,0-6.67-2.62-6.67-5.07,0-.74.46-1.54.63-1.54s.34.17.63.46c.86.97,1.82,1.6,3.19,1.6,6.84,0,27.48-20.12,33.12-26.68.57-.63.86-.91.97-.91.06,0,.06.06.06.11,0,1.65-9.18,16.65-28.73,29.47Z" fill="#fff"/>
      <path d="m320.46,80.21c.8,0,5.76,0,5.76,2.39,0,.8-.74,1.48-2.28,1.48-.4,0-.85,0-1.31-.11-1.03-.17-2.17-.29-3.25-.29-3.08,0-6.16.68-7.81,1.54-4.56,2.45-7.7,11.86-7.7,19.5,0,10.55,6.21,12.03,9.29,12.03,1.14,0,2.34-.17,3.53-.57.51-.17.97-.23,1.37-.23,1.31,0,2.17.68,2.17,1.54,0,1.48-2.79,2.68-6.56,2.68-1.25,0-11.86-.11-11.86-14.31,0-7.18,2.62-15.51,6.04-18.98.29-.28.4-.4.4-.46s0-.06-.06-.06c-.86,0-5.64,1.82-13.4,5.81-1.14.63-2.51.91-3.82.91-2.34,0-4.39-.97-4.39-2.79,0-.34.17-.46.4-.46.4,0,.91.23,1.25.29.8.17,1.77.29,2.85.29.97,0,2-.11,3.08-.46,1.42-.46,12.54-6.33,21.49-8.61.97-.23,1.88-.91,4.56-1.14h.23Zm.91,14.65c-1.54-1.82-3.59-3.08-5.13-3.93-.34-.17-.86-.4-.86-.51,0-.23,1.54-.23,1.65-.23,3.65,0,7.18,1.77,7.18,3.93,0,.91-.57,1.54-1.37,1.54-.46,0-.97-.23-1.48-.8Zm6.1-2.79c-1.6-1.77-3.71-2.96-5.3-3.76-.34-.17-.86-.34-.86-.51,0-.06.4-.28,1.94-.28,2.39,0,7.01.91,7.01,3.82,0,.85-.63,1.48-1.37,1.48-.46,0-.91-.23-1.42-.74Z" fill="#fff"/>
      <path d="m3.48,143.14h17.22v1.94H5.53v35.23h-2.05v-37.17Z" fill="#fff"/>
      <path d="m40.25,149.07c4.28,5.59,16.65,16.7,26.39,18.01.51.06.74.17.74.29,0,.46-3.88,1.14-5.7,2.34-.17.11-.34.17-.51.17-1.82,0-13.17-7.35-21.61-20.01-10.83,15.96-24,23.71-26.85,23.71-.11,0-.17-.06-.17-.11,0-.11.23-.34.8-.68,7.13-3.99,16.36-13,22.86-24.23.63-1.14.91-2.85,1.08-3.59.06-.34.06-.46.17-.46s5.42,2.28,5.42,3.31c0,.4-.4.85-1.71,1.08l-.91.17Zm-5.76,43.1c-3.13,0-10.6.11-15.68.63h-.06c-1.08,0-2.57-2.22-2.57-2.91v-.06c2.96.34,6.9.63,10.49.74.11-4.39.17-5.99.17-7.41,0-3.25-.34-10.66-.74-13,0-.11-.06-.17-.06-.23,0-.17.06-.23.23-.23.63,0,5.87.91,5.87,2.11,0,.46-.46.85-.8,1.14-1.65,1.25-1.77.63-1.82,3.19-.11,3.59-.17,5.25-.17,6.96s.06,3.53.11,7.52c2.28.06,4.16.11,5.3.11h3.59c.06-4.28.11-7.75.11-10.95,0-4.79-.11-14.94-.74-18.36,0-.11-.06-.23-.06-.29,0-.11.06-.17.17-.17.68,0,4.85,1.03,5.3,1.25.63.28.86.63.86.91,0,.46-.4.91-.8,1.2-1.71,1.31-1.88.57-1.94,3.25-.06,2.79-.11,5.53-.11,8.32h6.04c.34,0,.68-.23.91-.46,2.62-3.42,2.74-3.48,3.08-3.48,1.43,0,4.9,3.65,4.9,4.56,0,.4-.28.85-1.2.85h-13.74c0,4.16,0,8.44.06,13.34h11.97c.34,0,.8-.23.97-.51.06-.11,2.39-3.48,3.13-3.48,1.65,0,5.07,3.99,5.07,4.73,0,.34-.23.68-1.2.68h-26.68Z" fill="#fff"/>
      <path d="m98.21,178.26c4.56,5.3,13.8,10.49,24.8,12.14.51.06.68.17.68.29,0,.46-3.93,1.25-5.76,2.51-.29.17-.4.28-.63.28-1.42,0-12.88-5.76-19.55-14.14,0,5.19.11,10.6.17,13.85v.11c0,1.31-1.08,1.88-1.88,1.88-.68,0-1.31-.46-1.31-1.65v-.23c.23-3.31.34-8.04.46-12.6-7.98,9.35-23.37,13.51-25.6,13.51-.29,0-.46-.06-.46-.17s.4-.34,1.14-.57c6.44-1.94,15.68-6.1,23.2-15.22h-.57c-3.14,0-10.89.06-15.91.63h-.06c-1.03,0-2.57-2.17-2.57-2.91,5.81.74,15.56.91,18.81.91h2.05v-4.73h-1.31c-2.91,0-7.41.06-12.08.57h-.06c-.97,0-2.51-2-2.51-2.74,5.36.74,11.86.8,14.88.8h1.08v-.4c0-.8-.11-3.02-.17-4.16h-4.28c-3.02,0-6.78.11-11.69.63h-.06c-1.03,0-2.68-2.17-2.68-2.91,5.59.74,11.57.91,14.71.91h.68c-.46-.17-.91-.63-1.25-1.48-.51-1.37-2.17-3.42-3.31-4.62-.29-.29-.46-.46-.46-.51h.06c1.48,0,6.78,2,6.78,4.9,0,.8-.46,1.48-1.03,1.71h6.27c2.74-3.99,3.42-5.93,3.82-7.3h-12.94c-3.14,0-9.86.11-14.94.63h-.06c-1.08,0-2.51-2.17-2.51-2.85,5.81.68,14.54.85,17.79.85h.91v-5.64c0-2.45-.11-5.02-.46-6.44,0-.11-.06-.23-.06-.29s.06-.11.11-.11c.8,0,5.07.63,5.07,1.82,0,.29-.29.57-.63.85-1.31,1.03-1.37.17-1.6,3.08-.06.8-.11,5.47-.11,6.73h5.42v-5.64c0-2.45-.11-5.02-.46-6.44,0-.11-.06-.23-.06-.29s.06-.11.11-.11c.8,0,5.07.63,5.07,1.82,0,.29-.29.57-.63.85-1.31,1.03-1.37.17-1.6,3.08-.06.8-.11,5.47-.11,6.73h1.2l.23-.29c.57-.68,4.5-5.47,5.99-9.92.11-.34.11-.51.23-.51.06,0,4.16,2.68,4.16,3.53,0,.28-.28.51-1.14.51h-.68c-.68,0-.63.29-1.08.74-1.37,1.31-3.59,3.65-6.44,5.93h9.06c.4,0,.8-.23.97-.51,2.34-3.25,2.68-3.31,2.96-3.31,1.37,0,5.19,3.48,5.19,4.5,0,.34-.29.68-1.25.68h-16.47c1.14.74,2.74,1.82,2.74,2.45,0,.29-.23.51-.91.51-.17,0-.34,0-.57-.06-.11,0-.23-.06-.34-.06-.4,0-.34.23-.74.63l-3.93,3.82h7.81c.23,0,.63-.23.85-.51.8-1.03,2.22-2.45,2.74-2.45.91,0,4.67,2.45,4.67,3.65,0,.34-.23.68-1.14.68h-15.22c0,.06.06.11.06.17,0,.29-.34.51-.63.68-1.08.51-1.25.51-1.37,2.22,0,.46-.06.97-.06,1.48h6.73c.23,0,.57-.23.8-.51.57-.74,1.94-2.34,2.62-2.34.4,0,4.45,2,4.45,3.53,0,.34-.23.68-1.08.68h-13.57c-.06,1.43-.06,3.08-.06,4.73h13.23c.28,0,.68-.23.91-.51.06-.11,1.94-2.74,2.85-2.74s5.07,2.62,5.07,3.99c0,.34-.29.63-1.2.63h-20.41Zm-14.42-25.88c-.63-1.48-2.34-3.65-3.59-4.9-.29-.28-.4-.4-.4-.46s0-.06.06-.06c1.94,0,7.52,2,7.52,5.07,0,1.14-.8,2.05-1.71,2.05-.68,0-1.37-.51-1.88-1.71Z" fill="#fff"/>
      <path d="m144.16,195.71h-17.22v-1.94h15.16v-35.23h2.05v37.17Z" fill="#fff"/>
      <path d="m169.07,173.36c-4.85,0-12.48,4.73-12.48,10.03,0,2.79,1.94,6.9,9.24,6.9,2.57,0,5.47-.51,7.87-1.77.57-.28,1.08-.4,1.54-.4,1.2,0,2,.74,2,1.65,0,2.28-5.36,3.71-10.03,3.71-10.15,0-12.83-6.5-12.83-9.58,0-4.67,4.16-9.46,10.32-12.2-3.02-1.37-3.82-4.56-3.82-7.92,0-3.02.63-6.27.91-8.55.17-1.43.29-2.62.29-3.53,0-2.17-.74-3.14-3.48-3.71-.28-.06-.51-.29-.51-.57,0-.51.91-1.37,2.17-1.37,2.22,0,5.19,2.68,5.19,5.3,0,1.03-.34,2.11-.57,3.25-.57,2.57-1.65,6.56-1.65,9.69,0,3.48,1.42,5.59,4.67,6.21,2.56-.91,3.19-1.03,4.22-1.03,1.94,0,2.34.85,2.34,1.48,0,1.08-1.37,2.45-4.1,2.45-.23,0-.51-.06-.74-.06h-.51Z" fill="#fff"/>
      <path d="m184.17,143.14h17.22v1.94h-15.16v35.23h-2.05v-37.17Z" fill="#fff"/>
      <path d="m205.83,193.08c.74-8.21,1.08-19.38,1.08-26.51v-2.79c0-.17.06-2.57.06-3.88-5.59,8.67-9.24,11.12-9.58,11.12-.06,0-.06-.06-.06-.11,0-.17.06-.4.28-.63,4.16-4.79,9.18-13.45,12.26-21.15.51-1.31.74-3.08.91-4.05.06-.29,0-.4.11-.4.46,0,4.67,2.17,4.79,2.28.23.17.34.4.34.63,0,.46-.46.97-1.71,1.31-.91.29-.97.29-1.65,1.48-1.25,2.22-2.56,4.5-3.93,6.73l2.45.46c.8.23,1.14.46,1.14.74s-.51.63-1.2.97c-1.54.68-1.6.57-1.65,2.91-.11,4.96-.17,10.72-.17,16.87,0,4.45,0,9.12.17,13.8,0,.8-.57,2.22-2.28,2.22-.74,0-1.37-.51-1.37-1.65v-.34Zm40.76-.74c0,1.31-.97,2.05-1.82,2.05-.68,0-1.25-.46-1.25-1.48v-2.74h-23.66v2.51c0,1.14-1.08,2-1.94,2-.63,0-1.2-.46-1.2-1.48v-.23c.57-9.58.8-19.9.8-29.81,0-2.28-.06-4.56-.06-6.78,0-1.37-.11-7.01-.57-9.46-.06-.17-.06-.29-.06-.4,0-.06,0-.11.06-.11s3.36,1.31,4.79,2.45l.11.11h20.29c.23,0,.51-.11.74-.46.23-.4,1.42-1.65,1.94-1.65.57,0,4.1,2.28,4.1,3.59,0,.63-.74,1.14-1.6,1.6-.8.4-.85.34-.97,1.94-.11,1.48-.17,5.07-.17,9.63,0,8.78.17,21.15.46,28.62v.11Zm-3.08-3.76c0-6.56.06-13.34.06-19.44,0-7.52-.06-14.02-.17-17.84,0-.29-.29-.74-.57-.74h-21.26l-.34.23c-.97.63-1.03.97-1.03,3.02,0,5.19-.29,20.98-.34,34.77h23.66Zm-5.7-5.87c0,1.25-.8,2.05-1.6,2.05-.57,0-1.14-.51-1.14-1.71,0-.51.06-1.08.06-1.54h-7.52v2.05c0,.97-.91,1.65-1.65,1.65-.57,0-1.03-.34-1.03-1.2v-.23c.29-3.19.4-6.33.4-8.89,0-.68-.11-4.67-.57-6.67,0-.17-.06-.23-.06-.34,0-.06.06-.11.11-.11.51,0,3.36,1.48,4.22,2.11h1.2c.06-2.22.06-5.24.06-7.64-1.65.06-3.36.17-6.1.46h-.06c-.97,0-2.34-2.05-2.34-2.68,3.25.57,6.16.68,8.49.74v-1.82c-.06-1.82-.17-4.33-.46-5.59-.06-.23-.11-.34-.11-.4s.06-.06.11-.06,4.9.34,4.9,1.43c0,.34-.34.68-.97,1.03-.91.51-1.03.57-1.08,2.39,0,.86-.06,1.88-.06,3.02h2.28c.06,0,.57-.11.74-.4,1.42-2.51,2-2.51,2.11-2.51.17,0,.34.06.4.06,1.77.74,3.82,2.57,3.82,3.53,0,.4-.23.74-1.03.74h-8.32v7.7h1.25c.29,0,.51-.17.68-.46.23-.4.63-.91.91-1.03.11-.06.28-.17.51-.17.29,0,3.59,1.82,3.59,2.91,0,.57-.85.91-1.14,1.08-.86.51-.91.91-.91,3.02,0,2.22.23,5.02.29,7.41v.06Zm-2.68-2.57c.06-1.48.06-2.79.06-4.16s0-2.62-.11-4.1c0-.06-.17-.57-.46-.57h-5.59l-.23.17c-1.14.85-1.03.4-1.2,2.05-.06.68-.11,1.94-.11,3.36,0,1.03.06,2.17.06,3.25h7.58Z" fill="#fff"/>
      <path d="m274.91,153.41c0-2.62-.23-4.96-.46-6.27-.06-.17-.06-.29-.06-.34s0-.06.06-.06.17.06.4.06c.46,0,6.1,1.14,6.1,2.45,0,.34-.23.68-.74.97,0,.51-.06,1.03-.06,1.54,0,13.85,8.04,34.43,24.68,38.88.34.11.51.17.51.23,0,.34-4.22.51-6.5,2.05-.23.11-.4.23-.57.23-.11,0-.23,0-.4-.11-9.58-5.87-18.64-21.66-18.64-39.28,0-1.03.06-2.05.11-3.08-.91.4-1.14.4-1.2,3.76-.23,15.79-7.18,32.44-22.63,39.39-.68.34-1.08.46-1.31.46-.11,0-.17-.06-.17-.11,0-.23.63-.74,1.08-1.03,13.34-7.18,19.78-24.97,19.78-39.33v-.4Z" fill="#fff"/>
      <path d="m325.99,195.71h-17.22v-1.94h15.16v-35.23h2.05v37.17Z" fill="#fff"/>
      <path d="m350.5,177.01c-5.13,3.02-7.18,6.1-7.18,8.55,0,2.68,2.79,5.3,7.87,5.3,2.17,0,4.5-.46,6.44-1.48.57-.28,1.08-.4,1.54-.4,1.03,0,1.77.63,1.77,1.37,0,2.57-6.5,3.36-8.72,3.36-7.53,0-10.89-4.79-10.89-7.75,0-3.99,4.39-7.98,9.18-10.77,0-6.04-1.88-8.38-4.05-8.38-1.6,0-3.71,1.31-6.1,4.67-1.94,3.59-3.65,6.21-5.02,6.21-.91,0-1.25-.91-1.25-1.48,0-1.03.57-2.39,2.05-3.82,4.9-4.73,6.9-7.7,10.03-15.05-.29.06-.51.17-.74.23-1.37.34-2.45.51-3.36.51-5.07,0-6.5-3.88-6.5-4.67q0-.11.11-.11c.11,0,.51.17,1.2.68,1.94,1.31,3.59,1.71,5.13,1.71s3.25-.4,4.96-.85c.23-.97.29-1.77.29-2.45,0-2.28-.97-2.79-2.62-3.25-.34-.06-.57-.23-.57-.46,0-.11.68-.97,2.22-.97,3.02,0,3.25,2.85,3.25,3.93,0,.8-.11,1.6-.29,2.39.34-.11,2.79-1.25,2.79-2.22,0-.11-.06-.46-1.2-.85-.68-.29-.97-.46-.97-.57s.17-.17.51-.17c.17,0,.34.06.57.06.46.06.97.06,1.37.06.63,0,1.08,0,1.2-.06.17-.06.29-.11.4-.11.86,0,.91,1.14.91,1.25,0,.85-.34,3.02-6.44,5.19-1.65,4.1-4.16,8.27-5.13,9.92,1.2-.74,2.34-1.03,3.42-1.03,2.91,0,5.07,2.57,5.82,5.87,2.51-6.04,7.24-12.09,12.71-12.09,2.39,0,6.9,2.05,6.9,4.9,0,2.22-2.74,4.39-6.27,5.87-3.82,1.6-8.89,3.65-12.83,5.64.06.86.06,1.77.06,2.68,0,1.08,0,2.22-.11,3.36-.11,1.71-1.31,3.14-2.22,3.14-.57,0-1.03-.57-1.03-1.94,0-.23.06-.46.06-.68.11-1.48.68-1.6.74-3.99v-1.25Zm2.34-3.08c3.19-1.65,7.98-3.99,11.4-5.7,2.39-1.2,4.45-2.68,4.45-4.33,0-.4-.74-3.02-3.88-3.02-4.73,0-9.86,6.27-11.97,12.88v.17Z" fill="#fff"/>
      <path d="m28.22,228.71c0,3.59,0,7.52.06,9.23h5.42c.4,0,.74-.11.97-.4.4-.4.85-1.03,1.2-1.2.11-.06.17-.06.29-.06.17,0,.34.06.57.06.06,0,3.54,1.77,3.54,2.74,0,.46-.4,1.03-1.6,1.48-.91.34-.97.23-1.42,1.37-1.94,5.02-4.96,9.29-8.55,12.83,5.24,4.16,12.77,6.95,23.43,7.13,1.08,0,1.48.06,1.48.17,0,.4-4.73,1.42-6.9,3.36-.17.17-.4.4-.8.4-.29,0-10.38-1.25-18.98-9.46-11.63,10.09-25.14,10.72-26.22,10.72-.46,0-.68-.06-.68-.11,0-.17.74-.4,2.05-.68,7.41-1.54,16.3-5.3,23.03-11.8-3.99-4.45-6.67-9.69-7.58-14.99-2.28.06-4.5.17-6.38.34h-.06c-.97,0-2.62-2.11-2.62-2.74,5.07.63,13.68.85,17.22.85.06-2.05.06-5.81.06-9.23h-4.39c-3.19,0-10.38.11-15.51.63h-.11c-1.08,0-2.62-2-2.62-2.96v-.06c5.87.74,15.16.85,18.47.85h4.16c0-2.56-.06-4.73-.06-5.53,0-1.14-.17-2.34-.46-4.45-.06-.17-.06-.34-.06-.4,0-.17.06-.17.23-.17,1.2,0,5.07.85,5.07,1.82,0,.4-.46.74-1.03.97-1.2.51-1.08.63-1.14,2.74,0,.91-.06,2.79-.06,5.02h13.62c.11,0,.57-.17.74-.46,2.17-3.31,2.96-3.31,3.08-3.31.17,0,.29,0,.4.06,1.88.68,4.79,3.76,4.79,4.5,0,.4-.28.74-1.25.74h-21.38Zm-2.28,10.66c-1.6,0-4.39,0-7.35.06,1.48,4.73,3.93,9.52,7.98,13.45,6.27-6.78,7.58-12.94,7.58-13.05,0-.29-.11-.46-.51-.46h-7.7Z" fill="#fff"/>
      <path d="m77.29,230.02c0,.29-.23.51-1.08.51h-7.07c-.06,3.19-.06,6.56-.06,9.81,2.85-1.2,5.19-2.34,6.78-3.19.29-.17.46-.23.57-.23s.17.06.17.17c0,.68-7.01,4.85-7.52,5.13,0,4.39.06,8.61.11,12.09,0,0,.29,4.79.29,5.59,0,4.16-4.05,5.76-5.87,5.76-.4,0-.4-.11-.63-.51-.57-.97-4.39-3.42-4.39-3.99,0-.06.06-.11.17-.11.17,0,.34.06.57.11,2,.51,3.42.74,4.5.74,2.11,0,2.68-.91,2.74-2.51.06-3.93.06-9.81.06-15.73-1.71.97-3.59,2-5.76,3.14-.51.29-.63.8-.97.8-.63,0-2.74-2.96-2.96-3.31-.06-.06-.06-.11-.06-.11q0-.06.11-.06c2.34-.17,4.9-.8,9.63-2.74,0-3.82-.06-7.64-.11-10.83-1.88.06-4.05.17-6.61.51h-.06c-.68,0-2.34-2.11-2.34-2.74,3.19.51,6.56.68,9.01.74-.23-7.92-.29-9.86-.74-11.97-.06-.17-.06-.29-.06-.34,0-.11,0-.17.17-.17.23,0,5.87.68,5.87,2,0,.46-.46.91-.97,1.2-1.43.68-1.31.46-1.43,3.42l-.17,5.93h.86c.11,0,.46-.23.68-.46.63-.74,1.31-1.77,1.88-2.17.17-.11.34-.17.57-.17.85,0,4.1,2.57,4.1,3.71Zm32.55,32.72c.23,0,.34,0,.34.11,0,.4-3.99,1.94-5.47,3.31-.06.06-.17.11-.23.11-.17,0-.34-.06-.46-.11-4.67-.74-9.06-3.14-12.37-6.61-7.41,6.56-16.3,7.41-16.7,7.41-.23,0-.4-.06-.4-.17s.46-.34,1.25-.57c4.79-1.31,10.03-3.93,14.37-8.38-2.11-2.68-3.65-5.87-4.33-9.24-6.27,15.28-18.13,18.36-18.41,18.36-.11,0-.11-.06-.11-.11,0-.11.46-.46,1.03-.74,9.86-4.96,14.65-15.62,16.65-23.32-2.62.06-5.64.23-8.32.57h-.06c-.91,0-2.57-2.34-2.57-3.08,3.36.51,7.87.8,11.34.91l.11-.63c.34-1.65.63-3.25.63-4.85-1.94.06-4.16.17-7.01.57h-.06c-.85,0-2.39-2.28-2.39-3.02,4.67.74,9.41.91,12.03.91h5.76c4.16-6.27,4.45-9.06,4.62-11.23.06-.17.11-.23.23-.23.06,0,.17.06.23.06,3.76,1.82,4.33,2.62,4.33,2.96,0,.46-.68.63-1.14.68-.97.06-.97,0-1.54.8-1.48,2.11-3.76,4.9-5.76,6.96h2.96c.23,0,.51-.29.68-.51,1.03-1.37,1.82-2,2.05-2,.4,0,3.76,1.94,3.76,3.25,0,.34-.23.74-.97.74h-13.62c.06.06.06.11.06.23,0,.29-.34.63-.97.8-.57.17-.34.34-.74,2.34-.11.74-.29,1.48-.46,2.22h12.43c.23,0,.63-.23.8-.51.51-.74,1.82-2.68,2.22-2.68.8,0,4.28,2.51,4.28,3.93,0,.34-.23.68-1.03.68h-19.04c-.4,1.43-.86,2.85-1.37,4.28h9.58c.23,0,.51,0,.68-.23.23-.29.57-.68.85-.91.06-.06.11-.06.17-.06.74,0,3.53,1.65,3.53,2.79,0,.4-.34.8-1.25,1.08-.74.23-1.08.23-1.54,1.08-1.6,3.02-3.48,5.47-5.47,7.52,3.48,2.74,8.21,4.56,14.31,4.56.74,0,1.48,0,2.28-.06h.23Zm-5.7-41.96c0,.34-.34.74-1.25.74-.23,0-.57,0-.91-.11-.34-.06-.63-.11-.91-.11-.51,0-.97.11-1.48.23-3.36.91-17.44,3.25-23.37,3.25h-.23c-.97,0-1.54-.11-1.54-.29,0-.11.46-.28,1.42-.34,4.96-.51,16.42-3.71,21.72-5.47.46-.17,1.37-.68,2-1.14.23-.17.23-.34.46-.34.68,0,4.1,3.14,4.1,3.59Zm-20.35,9.86c0,.97-.8,1.88-1.65,1.88-.46,0-.97-.29-1.31-1.08-.8-1.82-1.94-3.76-3.48-5.42-.11-.11-.17-.23-.17-.23,0-.06.06-.06.11-.06,1.2,0,6.5,2,6.5,4.9Zm12.66,17.9c0-.17-.11-.23-.34-.23h-9.46c.68,2.91,2.22,5.87,4.62,8.32,3.48-3.99,5.19-7.87,5.19-8.09Zm-4.28-18.41c0,1.14-.91,2-1.71,2-.63,0-1.2-.46-1.37-1.54-.34-2-1.31-4.05-2.34-5.81-.06-.11-.06-.17-.06-.23s0-.06.11-.06c.63,0,5.36,2.34,5.36,5.64Z" fill="#fff"/>
      <path d="m140.96,224.67c0-2.96-.91-3.48-2.22-4.33-.23-.17-.4-.28-.4-.57s.63-.85,1.94-.85c2.11,0,3.93,1.37,3.93,4.28,0,.57-.06,1.14-.17,1.77-.34,1.82-.57,3.53-.74,5.13,2.45-.23,4.96-.46,7.75-.57.4-.06.51-.17.51-.34,0-.23,0-.29-3.31-2.68-1.14-.8-1.54-1.2-1.54-1.31,0-.06.06-.06.11-.06.23,0,1.14.4,1.65.63,2.68,1.37,5.3,2.45,7.47,2.79.85.11,6.33,1.14,6.33,3.36,0,.74-.63,1.25-1.77,1.25-.34,0-.74-.06-1.2-.17-3.59-.97-7.58-1.37-11.63-1.37-1.54,0-3.08.06-4.56.17-.17,2.05-.17,3.93-.17,5.53,0,2.05.17,3.76.23,5.02,1.14,1.25,2,3.02,2,5.93,0,11.06-12.03,18.41-15.22,18.41-.23,0-.34-.06-.34-.17,0-.23.46-.57,1.31-.97,2.74-1.14,9.69-7.18,11-15.05-1.03,1.54-2.39,2.74-4.16,2.74-1.08,0-2.05-.63-2.45-1.31-2-3.19-2.45-4.1-2.45-6.67,0-3.71,2.51-5.24,5.13-5.24,1.03,0,2.11.23,3.02.68-.06-2.34-.06-5.24-.06-8.67-5.47.63-10.66,1.94-14.88,3.71-1.03.46-2.34.74-3.71.74-3.65,0-6.33-2.34-6.33-4.22,0-.4.17-.57.4-.57.29,0,.63.17,1.08.63.4.4,1.25.8,3.42.8.85,0,1.82-.06,2.85-.23,6.38-.97,11.57-1.88,17.16-2.57v-5.64Zm.46,20.86c0-.34,0-.74-.06-1.08,0-.17-.06-.4-.11-.57-.85-1.42-2.22-2.62-4.05-2.62-1.48,0-2.74,1.03-2.74,3.14,0,3.31,1.94,5.76,4.16,5.76.23,0,2.79,0,2.79-4.62Z" fill="#fff"/>
      <path d="m187.25,261.61c7.07-1.48,10.03-6.21,10.03-10.43,0-4.96-4.05-8.89-9.52-8.89-7.35,0-11.4,5.93-12.66,7.7-.63.91-1.77,3.36-2.22,4.05-.74,1.03-1.54,1.42-2.22,1.42-.8,0-1.37-.57-1.37-1.42,0-1.48,3.82-6.04,4.62-6.96,1.82-2.11,3.42-4.39,5.19-7.01,1.82-2.68,5.93-7.75,8.44-11.57.51-.8.85-1.43.85-1.88,0-.8-1.08-.97-1.54-.97-2.74,0-4.5,5.07-8.15,5.07-1.08,0-3.36-.51-3.36-3.02,0-.46.11-.63.34-.63.29,0,.68.23,1.14.4s.97.23,1.48.23c.86,0,1.77-.28,2.45-.85.91-.8,4.22-3.48,7.41-3.48,3.48,0,4.79,2.45,4.79,3.19,0,.86-.74,1.71-1.94,2.57-5.07,3.82-12.09,14.08-12.09,14.25h.06c.06,0,.11,0,.28-.11,2.74-1.65,6.04-2.68,9.29-2.68,7.07,0,11.8,4.79,11.8,10.55,0,6.73-6.44,12.54-15.79,12.54-4.45,0-8.78-2.11-8.78-5.53s3.36-4.22,5.19-4.22c3.25,0,6.04,2.62,6.04,5.64,0,.68-.17,1.43-.51,2.17l.74-.11Zm-2.85-2.05c0-2.11-1.65-3.76-3.76-3.76-1.37,0-2.85.68-2.85,2.34,0,2.05,2.91,3.53,5.99,3.71.46-.8.63-1.54.63-2.28Z" fill="#fff"/>
    </g>
  </g>
</svg>