<?xml version="1.0" encoding="UTF-8"?>
<svg id="_レイヤー_2" data-name="レイヤー 2" xmlns="http://www.w3.org/2000/svg" viewBox="0 0 186 186">
  <g id="_デザイン" data-name="デザイン">
    <g>
      <g opacity=".85">
        <circle cx="93" cy="93" r="93" fill="#000f3c"/>
      </g>
      <path d="m85.85,125.14c-9.4,0-13.65-6.85-12.78-11.8.43-2.44,2.38-4.56,4.83-4.56,1.9,0,3.19,1.65,2.72,4.33-.18,1.02-1.12,3.23-1.21,3.78-.48,2.75,1.94,5.59,7.24,5.59,10.03,0,14.81-10.15,16.05-17.23,1.16-6.61.66-15.03-9.14-15.03-5.53,0-9.38,3.07-13.93,6.92l-1.03-.87,6.76-30.06h27.25l-2.32,5.11h-23.54l-4.79,21.48c2.04-1.73,3.6-2.99,6.84-4.33,2.72-1.1,5.09-1.57,7.07-1.57,6.08,0,15.24,4.96,13.03,17.63-2.16,12.35-12.85,20.62-23.04,20.62Z" fill="#fff"/>
      <g>
        <path d="m69.12,147.5l.28-.54.39.2c.74.38,1.21,0,1.59-.74l2.12-4.15c.51-1,.32-1.88-.69-2.4-1.35-.69-2.76-.09-3.42.21l-2.15,4.21c-.34.66-.43,1.34.4,1.76l.39.2-.28.54-3.78-1.93.28-.54.37.19c.74.38,1.21,0,1.59-.74l2.06-4.03c.59-1.15.45-1.97-.73-2.57-1.25-.64-2.34-.24-3.02.01l-2.31,4.54c-.34.66-.41,1.35.4,1.76l.27.14-.28.54-3.57-1.82.28-.54.3.15c.74.38,1.2-.03,1.57-.75l2.5-4.91c.17-.34.17-.87-.24-1.08-.03-.02-.24-.12-.52-.18l.1-.4,2.56.48-.73,1.44c1-.26,2.23-.59,3.52.07.72.37,1.73,1.23,1.26,2.78,1.08-.37,2.48-.87,3.81-.19,1.42.72,1.83,2.13,1.05,3.65l-2.08,4.08c-.44.86-.36,1.37.21,1.67l.4.21-.28.54-3.61-1.84Z" fill="#fff"/>
        <path d="m76.92,150.18l.14-.59.29.07c.81.2,1.18-.28,1.38-1.09l1.31-5.39c.09-.37-.03-.91-.49-1.02-.02,0-.26-.06-.54-.03v-.43s2.61-.13,2.61-.13l-1.77,7.27c-.33,1.35.44,1.54,1,1.67l-.14.59-3.79-.92Zm4.78-11.49c-.55-.13-.83-.67-.71-1.17.11-.46.57-.84,1.16-.7s.82.71.71,1.15c-.12.48-.6.85-1.17.71Z" fill="#fff"/>
        <path d="m89.82,152.25l.04-.61.47.03c.85.05,1.11-.5,1.17-1.31l.28-4.31c.06-.89-.12-2.18-1.6-2.27-1.32-.09-2.49,1.02-3.06,1.57l-.31,4.7c-.05.76.14,1.4,1.02,1.46l.49.03-.04.61-4.14-.27.04-.61.36.02c.83.05,1.1-.5,1.15-1.32l.36-5.5c.02-.38-.19-.87-.64-.9-.04,0-.26-.02-.55.04l-.07-.4,2.5-.58-.12,1.92c1.01-.89,1.99-1.72,3.39-1.63,1.59.1,2.44,1.24,2.33,2.93l-.3,4.57c-.06.85.1,1.4.91,1.45l.49.03-.04.61-4.14-.27Z" fill="#fff"/>
        <path d="m104.99,151.18l-.23-1.44c-.6.77-1.61,2.11-3.01,2.34-1.14.18-2.65-.4-2.96-2.31l-.85-5.23c-.07-.41-.31-.74-.76-.67-.11.02-.17.03-.57.15l-.2-.39,2.33-.99,1.1,6.77c.21,1.31,1.04,1.83,2.07,1.67.62-.1,1.59-.45,2.77-1.83l-.9-5.55c-.07-.41-.38-.79-.9-.7-.24.04-.57.17-.78.26l-.22-.39,2.72-1.17,1.27,7.82c.12.71.67.82,1.06.75l.37-.06.1.6-2.41.39Z" fill="#fff"/>
        <path d="m114.6,148.71c-1.3.48-2.19-.08-2.71-1.47l-2.24-6.02-1.51.56-.21-.57c.3-.11.71-.26,1.06-.78.32-.49.54-1.54.29-2.21l-.28-.75.43-.16,1.09,2.94,2.95-1.09.21.57-2.95,1.09,2.26,6.07c.36.96,1.05,1.15,1.85.85.99-.37,1.26-1.18,1.39-1.57l.41.19c-.34.82-.76,1.86-2.06,2.34Z" fill="#fff"/>
        <path d="m124.09,144.05c-3.04,1.82-5.26-.57-6.11-1.98-1.25-2.09-1.4-4.83.95-6.25,1.43-.86,2.66-.53,3.47-.13,1.16.57,1.72,1.36,2.1,1.89l-5.62,3.37c2.22,3.96,4.86,2.47,5.17,2.29,1.41-.85,1.56-2.29,1.62-3.03l.56.09c-.13,1.14-.3,2.66-2.15,3.77Zm-4.9-7.72c-1.83,1.1-.93,3.24-.59,4.06l4.33-2.6c-1.38-2.03-2.75-2.05-3.74-1.46Z" fill="#fff"/>
      </g>
      <g>
        <path d="m62.65,55.77l-.43-.47.41-.38c.59-.54.71-1.28.04-2.02l-7.91-8.57,5.32,13.81-.41.38-13.19-6.56,7.91,8.57c.71.76,1.47.63,2.02.13l.29-.27.43.47-3.22,2.97-.43-.47.37-.34c.56-.51.73-1.27.04-2.02l-7.04-7.63c-.65-.71-1.4-.69-2.02-.13l-.37.34-.45-.48,2.7-2.48,12.15,6.05-4.91-12.72,2.67-2.46.45.48-.44.41c-.63.58-.69,1.34-.05,2.03l7.04,7.63c.64.69,1.42.68,2.03.11l.44-.41.43.47-3.85,3.55Z" fill="#fff"/>
        <path d="m75.59,36.62c-1.25-.87-1.75-1.09-2.28-1.22-1.21-.27-2.06-.29-3.33.24l-2.04.85c-.85.35-1.18,1.01-.84,1.81l1.81,4.34,2.11-.88c1.08-.45,1.22-1.27,1.3-1.6.09-.41.05-.82-.2-1.41l.59-.25,2.18,5.23-.59.25-.12-.28c-.52-1.26-1.54-1.89-2.91-1.32l-2.11.88,1.91,4.58c.31.74.91,1.4,1.99.95l.63-.26.25.59-5.11,2.13-.25-.59.59-.25c.4-.17,1.22-.9.72-2.1l-3.98-9.55c-.19-.44-.65-1.14-1.62-.73l-.83.35-.25-.61,10.31-4.31,2.41,2.72-.33.44Z" fill="#fff"/>
        <path d="m87.45,45.52l-6.72.84-.08-.64.59-.07c.49-.06,1.35-.57,1.17-2.04l-1.21-9.79c-.12-.95-.57-1.5-1.52-1.38l-.67.08-.08-.66,6.45-.8c2.71-.34,4.9.5,5.18,2.76.29,2.36-1.8,3.31-2.77,3.75.81.06,1.72.13,2.79.8.91.57,1.59,1.48,1.72,2.55.23,1.87-1.16,4.13-4.85,4.59Zm-1.71-13.84l-1.9.24c-1.21.15-1.52.69-1.41,1.57l.55,4.43,3.5-.43c1.54-.19,2.86-1.26,2.6-3.37-.21-1.69-1.3-2.68-3.33-2.43Zm.93,6.41l-3.62.45.65,5.28c.1.81.44,1.46,2.12,1.25l1.54-.19c2.16-.27,3.64-1.4,3.35-3.72-.2-1.59-1.23-3.42-4.05-3.06Z" fill="#fff"/>
        <path d="m106.37,46.96l.13-.63.55.12c.78.17,1.46-.16,1.67-1.14l2.43-11.4-8.2,12.32-.55-.12-2.26-14.55-2.43,11.4c-.22,1.02.34,1.56,1.06,1.72l.39.08-.13.63-4.29-.91.13-.63.49.1c.74.16,1.46-.14,1.67-1.14l2.16-10.15c.2-.94-.24-1.54-1.06-1.72l-.49-.1.14-.65,3.59.76,2.07,13.41,7.55-11.36,3.55.76-.14.65-.58-.12c-.84-.18-1.49.21-1.69,1.13l-2.16,10.15c-.2.92.26,1.55,1.08,1.72l.58.12-.13.63-5.12-1.09Z" fill="#fff"/>
        <path d="m117.63,51.88l.35-.54.27.17c.73.48,1.27.13,1.75-.6l3.19-4.9c.22-.34.28-.91-.13-1.18-.02-.01-.23-.15-.52-.22l.16-.42,2.63.78-4.3,6.61c-.8,1.22-.1,1.68.41,2.01l-.35.54-3.44-2.24Zm8.76-9.74c-.5-.33-.59-.96-.29-1.41.27-.42.86-.63,1.4-.28s.57.99.31,1.39c-.28.44-.89.64-1.41.3Z" fill="#fff"/>
        <path d="m127.55,59.71l.45-.46.35.35c.64.63,1.23.37,1.83-.24l3.19-3.23c.66-.67,1.4-1.82.3-2.91-.99-.98-2.69-.91-3.52-.86l-3.49,3.53c-.56.57-.86,1.21-.19,1.86l.37.36-.45.46-3.1-3.06.45-.46.27.27c.62.62,1.22.36,1.82-.26l4.08-4.13c.28-.28.45-.82.11-1.16-.03-.03-.2-.2-.47-.35l.22-.37,2.39,1.26-1.42,1.44c1.41-.01,2.77,0,3.82,1.04,1.19,1.18,1.08,2.67-.17,3.94l-3.39,3.43c-.63.64-.88,1.18-.27,1.78l.37.36-.45.46-3.1-3.06Z" fill="#fff"/>
      </g>
    </g>
  </g>
</svg>