<?xml version="1.0" encoding="UTF-8"?>
<svg id="_レイヤー_2" data-name="レイヤー 2" xmlns="http://www.w3.org/2000/svg" viewBox="0 0 352.88 30.03">
  <g id="_デザイン" data-name="デザイン">
    <g>
      <path d="M32.01,26.3c0,.26-2.9,.86-3.73,1.68-.1,.13-.2,.17-.3,.17-.76,0-7.29-3.33-11.19-9.18,.03,3.37,.13,6.73,.23,9.8v.03c0,.92-.92,1.22-1.42,1.22-.53,0-.96-.26-.96-.99v-.13c.17-2.54,.3-5.31,.36-8.12C9.41,27,1.19,28.81,.2,28.81c-.13,0-.2,0-.2-.07s.23-.23,.66-.4c4.32-1.52,9.87-5.12,13.86-10.1h-5.12l.03,1.29c0,.59-.69,.99-1.29,.99-.46,0-.86-.23-.86-.79v-.1c.2-2.48,.23-4.95,.23-6.7,0-3.1-.3-4.95-.4-5.38,0-.1-.03-.17-.03-.2,0-.07,.03-.1,.07-.1,.33,0,2.51,1.09,3.04,1.45l.07,.03h4.79l-.07-3.27h-2.11c-1.85,0-6.07,.07-9.01,.36h-.03c-.59,0-1.55-1.22-1.55-1.68v-.03c3.4,.4,8.81,.53,10.73,.53h1.95c-.03-1.32-.1-3.33-.33-4.39-.03-.1-.03-.17-.03-.2,0-.07,.03-.07,.07-.07,.23,0,3.73,.53,3.73,1.25,0,.23-.2,.43-.53,.66-.69,.46-.79,.2-.86,1.62l-.07,1.12h7.06c.23,0,.46-.13,.56-.3,1.25-1.78,1.49-2.01,1.85-2.01,.07,0,.13,0,.2,.03,1.12,.4,2.94,2.18,2.94,2.71,0,.2-.17,.4-.73,.4h-11.91l-.1,3.27h5.08c.17,0,.3-.03,.43-.2,.63-.83,.76-.86,.92-.86,.66,0,2.81,1.45,2.81,1.95,0,.33-.4,.56-.76,.76-.59,.33-.73,.26-.76,1.06,0,.26-.03,.59-.03,.99,0,1.72,.13,4.36,.26,6.34v.03c0,.59-.59,1.09-1.25,1.09-.46,0-.89-.26-.89-.86v-.79h-5.61c2.81,3.27,8.12,7,14.72,7.92,.23,.03,.3,.07,.3,.13ZM15.08,9.57h-4.92l-.23,.13c-.46,.3-.49,.17-.53,1.25-.03,.53-.03,1.16-.03,1.91h5.71v-3.3Zm0,4.13h-5.71c0,1.15,.03,2.48,.03,3.73h5.68v-3.73Zm7.52-3.76c0-.1-.13-.36-.43-.36h-5.38c0,1.06-.03,2.18-.03,3.3h5.91c0-1.16,0-2.18-.07-2.94Zm-5.84,3.76c0,1.22,.03,2.48,.03,3.73h5.81c.03-1.29,.07-2.54,.07-3.73h-5.91Z" fill="#fff"/>
      <path d="M51.75,23.5c0,.17-.17,.3-.53,.3-.13,0-.33-.03-.53-.07-.13-.03-.23-.03-.3-.03-.2,0-.3,.07-.59,.33-3.6,2.9-9.18,4.72-10.17,4.72-.17,0-.26-.03-.26-.1,0-.1,.2-.23,.63-.4,2.84-1.15,8.19-4.82,8.88-6.93,.03-.17,.07-.3,.17-.3,.23,0,2.71,1.91,2.71,2.48ZM69.54,6.07c0,.2-.17,.4-.73,.4h-16.5c-1.85,0-6.14,.07-9.11,.36h-.03c-.63,0-1.55-1.29-1.55-1.72,3.4,.43,8.94,.53,10.86,.53h2.08v-.59c0-1.62-.1-3.47-.36-4.59-.03-.1-.03-.17-.03-.23t.03-.03c.17,0,3.93,.46,3.93,1.22,0,.23-.2,.43-.53,.66-.76,.5-.86,.13-.96,1.72-.03,.53-.07,1.22-.07,1.85h7.29c.23,0,.46-.13,.56-.3,.46-.73,1.55-2.18,1.91-2.18,.69,0,3.2,2.24,3.2,2.9Zm-4.62,5.18c0,.33-.4,.56-.79,.76q-.66,.33-.66,1.78c0,1.32,.13,3.17,.26,5.21v.07c0,.69-.66,1.09-1.29,1.09-.53,0-.99-.3-.99-.92v-.76h-3.8c.23,.07,.33,.17,.33,.3s-.13,.26-.4,.36c-.63,.26-.53,.23-.63,1.25-.03,.63-.07,1.19-.07,1.82,0,.59,.03,1.22,.03,1.98,0,.56,.13,1.52,.13,2.21,0,2.9-3.14,3.5-3.66,3.5-.3,0-.43-.17-.63-.46-.43-.63-3.63-1.98-3.63-2.21,0-.03,.07-.07,.13-.07,.1,0,.23,.03,.43,.07,1.35,.23,2.41,.36,3.2,.36,1.39,0,2.01-.4,2.08-1.32,.03-.59,.07-1.45,.07-2.34,0-2.31-.07-4.62-.2-5.45h-5.02v.99c0,.56-.66,.96-1.32,.96-.5,0-.92-.23-.92-.79v-.1c.23-2.57,.26-4.13,.26-5.48,0-1.12,0-2.87-.4-4.72-.03-.1-.03-.17-.03-.2,0-.07,0-.1,.07-.1,.13,0,2.08,.69,3.17,1.45l.03,.03h10c.17,0,.36-.1,.5-.26,.3-.5,.79-.99,1.02-.99,.43,0,2.71,1.35,2.71,1.98Zm-3.4,2.87c0-.86,0-1.65-.07-2.41,0-.13-.07-.36-.36-.36h-10.43l-.17,.1q-.73,.46-.73,3.1c0,.92,0,2.05,.03,3.1h11.68c.03-1.39,.03-2.51,.03-3.53Zm6.73,12.44c0,.79-.53,1.45-1.19,1.45-.43,0-.89-.26-1.32-.92-1.06-1.62-3.7-3.63-5.91-5.02-.13-.1-.2-.17-.2-.2s.03-.07,.13-.07c.33,0,8.48,1.68,8.48,4.75Z" fill="#fff"/>
      <path d="M94.65,25.91c0,.73-.46,1.25-1.19,1.25-.43,0-.96-.2-1.52-.73-2.11-1.95-5.45-3.83-9.24-5.18-.63-.23-.96-.4-.96-.53,0-.07,.13-.1,.43-.1,2.51,0,12.48,1.88,12.48,5.28Zm-3.47-10.46c0,.66-.49,1.19-1.16,1.19-.36,0-.76-.13-1.19-.46-1.78-1.39-3.56-2.44-5.84-2.97-.5-.1-.76-.23-.76-.3,0-.1,.43-.2,1.82-.2,3.2,0,7.13,.76,7.13,2.74Zm2.28-7.13c0,.63-.43,1.12-1.09,1.12-.36,0-.79-.13-1.25-.46-2.05-1.42-4.72-2.34-7.36-2.77-.59-.1-.89-.2-.89-.3,0-.2,2.01-.36,3.7-.36,5.54,0,6.9,1.68,6.9,2.77Z" fill="#fff"/>
      <path d="M112,18.71c0,.63-.36,1.09-.86,1.09-.33,0-.73-.23-1.12-.73-.63-.79-1.68-1.88-2.41-2.48-.17-.13-.26-.26-.26-.36,0-.13,.17-.23,.46-.23,1.45,.03,4.19,.96,4.19,2.71Zm10.5-3.47c0,.66-.79,1.19-1.09,1.78-5.35,10.03-12.41,11.29-13,11.29-.17,0-.23-.03-.23-.1,0-.13,.26-.33,.79-.56,6.63-2.9,10.83-11.25,10.83-12.31,0-.4-.26-.56-.79-.69-.4-.07-.53-.23-.53-.4,0-.23,.36-.83,1.22-.83,1.12,0,2.81,1.02,2.81,1.82Zm-6.5,1.85c0,.66-.4,1.12-.89,1.12-.36,0-.76-.23-1.12-.86-.5-.89-1.39-2.11-2.05-2.81-.13-.17-.2-.3-.2-.36,0-.13,.1-.2,.3-.2,1.19,0,3.96,1.35,3.96,3.1Z" fill="#fff"/>
      <path d="M145.01,16.44c0,.66-.46,1.19-1.16,1.19-.36,0-.82-.17-1.29-.53-1.72-1.39-3.76-2.57-5.61-3.04v2.38c0,4.09,.1,8.25,.13,8.75,.07,2.18-.5,3.27-1.16,3.27-.69,0-1.45-1.12-1.45-2.94,0-.46,.07-.99,.17-1.52,.2-1.06,.26-.89,.4-2.05,.2-1.58,.3-5.71,.3-9.21,0-6.6-.4-7.85-1.55-7.92-.46-.03-.66-.17-.66-.4,0-.13,.26-.76,1.02-.76,1.06,0,3.5,1.35,3.5,2.97,0,.69-.33,1.45-.46,2.71-.13,1.06-.2,2.64-.23,4.39,.13,0,.3-.03,.46-.03,.5,0,1.02-.03,1.55-.03,4.88,0,6.04,1.75,6.04,2.77Zm.86-6.7c0,.63-.43,1.09-.96,1.09-.26,0-.59-.17-.89-.5-.86-1.02-1.95-1.82-2.84-2.31-.26-.13-.5-.23-.5-.33,0-.03,.46-.2,1.29-.2,1.78,0,3.89,.76,3.89,2.24Zm3.43-1.62c0,.59-.43,1.06-.96,1.06-.26,0-.56-.13-.86-.43-.92-.99-2.01-1.78-2.9-2.24-.26-.13-.53-.23-.53-.3,0-.26,1.39-.26,1.45-.26,1.82,0,3.8,.76,3.8,2.18Z" fill="#fff"/>
      <path d="M177.12,8.52c0,.33-.33,.63-.96,.83-.59,.17-1.09,.89-1.78,1.91-1.06,1.58-2.11,3.07-3.2,4.49,1.19,.56,2.94,1.62,2.94,2.97,0,.66-.4,1.16-.99,1.16-.4,0-.86-.23-1.32-.73-.56-.59-1.22-1.16-1.98-1.72-7.72,9.14-15.97,10.13-16.01,10.13-.13,0-.2-.03-.2-.07,0-.13,.36-.36,1.02-.63,5.12-2.11,9.8-6.04,13.53-10.56-1.06-.63-2.15-1.19-3.17-1.62-.53-.2-.79-.36-.79-.43s.13-.1,.4-.1c.53,0,2.38,.17,4.59,.86,1.55-1.98,3.89-5.48,3.89-6.11,0-.33-.26-.5-.86-.5-.69,0-1.78,.23-3.37,.73-.33,.1-.59,.17-.83,.17-.13,0-.3-.03-.43-.07-3.7,4.52-6.53,7.49-10.26,9.18-.4,.16-.66,.26-.79,.26-.07,0-.1,0-.1-.03,0-.1,.2-.3,.59-.59,4.85-3.63,9.57-10.63,9.57-11.62,0-.53-.46-.86-1.16-1.02-.3-.07-.43-.2-.43-.36,0-.13,.33-.89,1.35-.89,1.35,0,2.94,1.25,2.94,2.28,0,.5-.26,.96-.63,1.42,.07,0,3.83-.43,4.55-.92,.36-.23,.63-.43,.92-.43,.36,0,2.94,1.19,2.94,2.01Z" fill="#fff"/>
      <path d="M209.42,10.66c0,.3-.2,.63-.59,.86-.56,.36-1.02,.46-1.45,1.42-3.5,7.66-8.28,12.84-15.48,15.12-.56,.17-.89,.23-1.09,.23-.1,0-.17,0-.17-.07,0-.1,.36-.36,1.02-.66,9.54-4.52,13.93-15.78,13.93-16.34,0-.43-.36-.59-.79-.59-1.65,0-7.66,.76-9.84,1.35-.4,.1-.69,.17-.99,.17-.13,0-.23-.03-.36-.03l.1,.59c.86,4.22,.96,4.85,.96,5.54,0,.13,0,1.58-.96,1.58-.86,0-1.32-1.39-1.32-2.57,0-.59,.13-.83,.13-1.52,0-.76-.5-2.9-.66-3.37-.53-1.52-1.82-2.57-3.1-2.57h-.3c-.36,0-.66-.1-.66-.3,0-.07,.36-1.02,1.85-1.02,.36,0,2.81,.33,3.53,2.08h.3c.82,0,3.47-.26,4.92-.43v-2.34c-.03-2.01-.92-2.77-1.95-2.87-.53-.07-.82-.17-.82-.4,0,0,.23-.86,1.58-.86,.07,0,3.66,.33,3.66,1.95,0,.69-.63,1.52-.69,2.38-.03,.73-.1,1.35-.13,1.98,1.68-.17,3.27-.33,3.76-.4,.96-.13,1.25-.96,2.05-.96s3.56,1.09,3.56,2.05Z" fill="#fff"/>
      <path d="M227.74,13.5c-.36,0-.79-.17-1.25-.59-1.72-1.62-3.47-2.41-5.54-3.2-.3-.1-.43-.2-.43-.26,0-.1,.89-.26,2.21-.26,4.39,0,6.2,1.52,6.2,2.94,0,.36-.13,1.39-1.19,1.39Zm.53,11.35c-.89,.56-1.06,1.45-1.98,1.45-.99,0-3.93-1.52-3.93-3.1,0-.1,.07-1.02,.36-1.02,.13,0,.26,.17,.5,.43,.4,.46,.92,.73,1.62,.73,4.06,0,15.61-10.89,19.27-15.15,.4-.46,.59-.63,.66-.63l.03,.03c0,.66-5.08,9.9-16.54,17.26Z" fill="#fff"/>
      <path d="M273.97,5.18c0,.4-.43,.66-1.02,.96-.66,.33-.69,.4-.69,4.92,0,4.85,.17,12.67,.3,16.77v.07c0,.66-.59,1.32-1.45,1.32-.53,0-1.02-.3-1.02-.99v-.03c0-.53,.03-1.09,.03-1.65h-11.85v1.58c0,.76-.79,1.25-1.49,1.25-.53,0-.99-.3-.99-1.02v-.1c.23-3.73,.3-8.22,.3-12.48,0-9.67-.26-11.62-.53-12.74-.03-.13-.03-.2-.03-.23,0-.07,0-.1,.03-.1,.33,0,2.67,.92,3.53,1.55l.13,.1h10.03c.2,0,.4-.13,.53-.3,.36-.46,1.02-1.09,1.25-1.09,.33,0,2.94,1.48,2.94,2.21Zm-3.89,.56c0-.23-.17-.46-.43-.46h-10.56l-.26,.2c-.56,.36-.59,.53-.59,1.42,0,1.32-.03,4.22-.03,7.66h11.98c0-3.66,0-6.9-.1-8.81Zm-11.88,9.7c0,3.27,0,6.93,.03,10.2h11.88c.03-3.3,.07-6.9,.07-10.2h-11.98Z" fill="#fff"/>
      <path d="M286.51,28.55c-.33,.13-.5,.56-.76,.56-.43,0-2.15-2.41-2.15-2.81,0-.03,.03-.03,.13-.03,1.65,0,2.87-.13,5.61-.83V6.27c0-1.25-.1-3.56-.33-4.69-.03-.13-.03-.2-.03-.23s0-.03,.03-.03c.4,0,3.83,.53,3.83,1.22,0,.2-.23,.43-.56,.66-.73,.46-.83,.13-.86,1.55,0,.59-.03,3.73-.03,7.46h2.15c.2,0,.4-.13,.5-.3,.56-.79,1.32-1.72,1.65-1.72,.07,0,.13,.03,.2,.03,1.02,.43,2.57,1.82,2.57,2.38,0,.23-.13,.43-.66,.43h-6.4c-.03,4.36-.07,9.27-.07,11.88,2.44-.66,5.21-1.52,7.36-2.38,.13-.07,.26-.1,.33-.1,.13,0,.2,.07,.2,.13,0,.73-8.42,4.42-12.71,5.97Zm26.5-2.05c0,.86-1.32,1.82-3.96,2.01-.83,.07-2.44,.1-3.76,.1-4.13,0-5.35-.83-5.35-3.27v-.23c.07-3.83,.13-16.27,.17-19.18,0-1.12-.07-3.04-.23-4.32,0-.1-.03-.2-.03-.23,0-.1,.03-.13,.13-.13,.36,0,3.5,.59,3.5,1.35,0,.23-.23,.5-.66,.69-.43,.2-.63,.07-.69,1.15-.07,.73-.1,4.92-.13,9.34,1.91-1.25,6.67-4.59,7.1-6.24,.03-.13,.03-.17,.1-.17,.36,0,2.84,2.15,2.84,2.71,0,.26-.2,.43-.69,.43-.13,0-.3,0-.46-.03-.13-.03-.26-.03-.36-.03-.13,0-.23,0-.4,.1-1.91,1.19-5.58,3-8.12,3.99-.03,4.46-.03,8.91-.03,10.03,.03,1.81,.13,2.08,4.06,2.08,.99,0,2.01-.03,2.71-.13,1.62-.23,2.08-2.9,2.84-6.47,.07-.26,.1-.36,.13-.36,.23,0,.07,5.48,.66,5.84,.43,.26,.66,.59,.66,.96Z" fill="#fff"/>
      <path d="M352.88,18.42c0,.3-2.84,1.12-3.47,1.91-.1,.13-.2,.17-.3,.17-.96,0-7.99-3.89-12.21-10.23l-.23,.3c-1.95,2.44-4.22,4.65-6.53,6.44,.66,.26,1.65,.69,2.18,1.06l.03,.03h8.48c.17,0,.33-.03,.46-.2,.66-.76,.79-.76,.82-.76,.43,0,2.81,1.72,2.81,2.18,0,.23-.23,.43-.56,.59-.63,.33-.66,.36-.66,2.28,0,1.62,.13,4.06,.26,6.01v.07c0,.66-.66,1.06-1.25,1.06-.5,0-.96-.26-.96-.89v-1.02h-10.23l.03,1.29c0,.5-.46,.99-1.32,.99-.46,0-.89-.23-.89-.79v-.1c.23-2.51,.26-5.18,.26-6.96,0-2.41-.1-3.63-.2-4.26-3.73,2.74-7.29,3.89-8.05,3.89-.1,0-.17-.03-.17-.07,0-.07,.17-.2,.53-.36,4.36-2.15,9.11-6.07,12.91-11.49,.4-.59,.73-1.45,.92-1.98,.03-.13,.03-.23,.13-.23,.07,0,2.94,1.49,2.94,2.18,0,.26-.3,.5-1.02,.5h-.17c2.51,3.07,9.67,7.92,15.18,8.32,.2,0,.26,.03,.26,.1Zm-18.78-14.62c0,.26-.26,.46-.86,.46h-.43c-.23,0-.3,.07-.63,.4-4.92,4.75-8.88,5.91-9.24,5.91-.07,0-.13,0-.13-.07s.2-.23,.56-.46c2.18-1.29,7.26-5.97,7.69-8.19,.03-.17,0-.33,.13-.33,.17,0,2.9,1.68,2.9,2.28Zm7.72,18.68c0-1.25,0-2.38-.07-3.17,0-.1-.07-.36-.4-.36h-9.08q-.73,.36-.76,1.39c-.03,.59-.03,1.39-.03,2.28,0,1.19,0,2.57,.03,3.93h10.26c.03-1.39,.03-2.81,.03-4.06Zm6.27-14.79c0,.79-.5,1.42-1.16,1.42-.46,0-1.02-.33-1.52-1.19-.99-1.75-3.53-4.06-5.74-5.68-.13-.1-.2-.17-.2-.23,0-.03,.03-.07,.1-.07,.3,0,8.52,2.44,8.52,5.74Z" fill="#fff"/>
    </g>
  </g>
</svg>