<?xml version="1.0" encoding="UTF-8"?>
<svg id="_レイヤー_2" data-name="レイヤー 2" xmlns="http://www.w3.org/2000/svg" viewBox="0 0 186 186">
  <g id="_デザイン" data-name="デザイン">
    <g>
      <g opacity=".85">
        <circle cx="93" cy="93" r="93" fill="#000f3c"/>
      </g>
      <path d="M85.85,125.14c-9.4,0-13.65-6.85-12.78-11.8,.43-2.44,2.38-4.56,4.83-4.56,1.9,0,3.19,1.65,2.72,4.33-.18,1.02-1.12,3.23-1.21,3.78-.48,2.75,1.94,5.59,7.24,5.59,10.03,0,14.81-10.15,16.05-17.23,1.16-6.61,.66-15.03-9.14-15.03-5.53,0-9.38,3.07-13.93,6.92l-1.03-.87,6.76-30.06h27.25l-2.32,5.11h-23.54l-4.79,21.48c2.04-1.73,3.6-2.99,6.84-4.33,2.72-1.1,5.09-1.57,7.07-1.57,6.08,0,15.24,4.96,13.03,17.63-2.16,12.35-12.85,20.62-23.04,20.62Z" fill="#fff"/>
      <g>
        <path d="M88.99,.08c1.06-.04,2.13-.07,3.19-.08V16.78c-1.03,.01-2.08,.05-3.19,.1V.08Z" fill="#fff"/>
        <path d="M92.18,186c-1.06,0-2.13-.04-3.19-.08v-16.81c1.11,.06,2.16,.09,3.19,.1v16.78Z" fill="#fff"/>
        <path d="M98.08,169.05c.33-.02,.66-.05,.99-.08l1.76,16.7c-.33,.03-.66,.05-.99,.08l-1.76-16.7Z" fill="#fff" opacity=".5"/>
        <path d="M80.4,.85c.33-.04,.66-.09,.99-.13l1.75,16.71c-.33,.04-.66,.08-.99,.12l-1.75-16.7Z" fill="#fff" opacity=".5"/>
        <path d="M106.04,168.1c.33-.06,.66-.11,.98-.18l3.49,16.43c-.33,.06-.65,.12-.98,.18l-3.49-16.44Z" fill="#fff" opacity=".5"/>
        <path d="M70.87,2.65c.32-.08,.65-.16,.97-.23l3.49,16.43s-.68,.15-.97,.22l-3.49-16.42Z" fill="#fff" opacity=".5"/>
        <path d="M113.88,166.31c.32-.09,.64-.18,.96-.27l5.19,15.97c-.32,.1-.64,.19-.96,.28l-5.19-15.99Z" fill="#fff" opacity=".5"/>
        <path d="M61.61,5.43c.31-.11,.63-.22,.94-.33l5.19,15.98c-.31,.11-.63,.22-.94,.33l-5.19-15.98Z" fill="#fff" opacity=".5"/>
        <path d="M52.71,9.15c.3-.14,.6-.29,.9-.43l6.83,15.35c-.3,.14-.6,.29-.9,.43l-6.83-15.35Z" fill="#fff" opacity=".5"/>
        <path d="M121.51,163.7c.31-.12,.62-.24,.93-.37l6.83,15.34c-.31,.13-.61,.26-.92,.38l-6.83-15.35Z" fill="#fff" opacity=".5"/>
        <path d="M43.34,14.35c.88-.56,1.8-1.11,2.73-1.66l8.4,14.55c-.94,.55-1.85,1.11-2.72,1.67l-8.41-14.56Z" fill="#fff"/>
        <path d="M127.87,160.78c.94-.49,1.88-1,2.81-1.52l8.4,14.55c-.9,.52-1.84,1.03-2.8,1.53l-8.41-14.56Z" fill="#fff"/>
        <path d="M36.37,19.22c.26-.2,.53-.4,.79-.6l9.86,13.58c-.25,.19-.78,.62-.78,.62l-9.87-13.59Z" fill="#fff" opacity=".5"/>
        <path d="M135.8,156.08c.27-.19,.54-.38,.82-.57l9.87,13.59c-.27,.19-.55,.38-.82,.57l-9.87-13.58Z" fill="#fff" opacity=".5"/>
        <path d="M142.27,151.15c.25-.22,.5-.43,.75-.65l11.23,12.48c-.25,.22-.5,.44-.75,.65l-11.23-12.48Z" fill="#fff" opacity=".5"/>
        <path d="M29.09,25.44c.24-.23,.49-.46,.73-.68l11.23,12.48c-.24,.23-.48,.46-.72,.69l-11.24-12.48Z" fill="#fff" opacity=".5"/>
        <path d="M148.2,145.55c.23-.24,.46-.48,.69-.72l12.47,11.23c-.23,.24-.45,.49-.68,.73l-12.48-11.24Z" fill="#fff" opacity=".5"/>
        <path d="M22.49,32.36c.22-.25,.44-.5,.66-.75l12.48,11.23c-.22,.25-.44,.5-.65,.75l-12.48-11.24Z" fill="#fff" opacity=".5"/>
        <path d="M16.65,39.89c.19-.27,.38-.54,.57-.82l13.58,9.87c-.19,.27-.39,.54-.58,.81l-13.58-9.87Z" fill="#fff" opacity=".5"/>
        <path d="M153.51,139.33c.21-.27,.41-.53,.61-.79l13.58,9.87c-.2,.27-.4,.53-.6,.8l-13.59-9.87Z" fill="#fff" opacity=".5"/>
        <path d="M157.56,133.51c.58-.91,1.13-1.83,1.64-2.74l14.54,8.4c-.52,.91-1.07,1.83-1.63,2.74l-14.55-8.4Z" fill="#fff"/>
        <path d="M11.08,48.94c.5-.93,1.03-1.86,1.56-2.78l14.54,8.39c-.52,.89-1.03,1.81-1.55,2.79l-14.55-8.4Z" fill="#fff"/>
        <path d="M162.03,125.36c.14-.3,.27-.61,.41-.91l15.34,6.83c-.14,.3-.28,.61-.42,.91l-15.33-6.83Z" fill="#fff" opacity=".5"/>
        <path d="M7.43,56.52c.13-.31,.26-.61,.4-.91l15.34,6.83c-.14,.3-.27,.61-.4,.91l-15.34-6.83Z" fill="#fff" opacity=".5"/>
        <path d="M165.1,117.74c.11-.31,.22-.63,.32-.94l15.97,5.19c-.1,.32-.21,.63-.32,.95l-15.97-5.19Z" fill="#fff" opacity=".5"/>
        <path d="M4.16,65.44c.1-.32,.2-.63,.3-.95l15.97,5.19c-.1,.32-.2,.63-.3,.95l-15.97-5.19Z" fill="#fff" opacity=".5"/>
        <path d="M167.34,109.83s.16-.68,.23-.97l16.42,3.49c-.07,.33-.14,.65-.21,.97l-16.43-3.49Z" fill="#fff" opacity=".5"/>
        <path d="M1.82,74.64c.07-.33,.13-.65,.2-.98l16.42,3.49c-.07,.32-.14,.65-.2,.98l-16.43-3.49Z" fill="#fff" opacity=".5"/>
        <path d="M168.71,101.71c.04-.33,.08-.66,.11-.99l16.69,1.75c-.03,.33-.07,.66-.11,.99l-16.7-1.76Z" fill="#fff" opacity=".5"/>
        <path d="M.43,84.03c.03-.33,.07-.66,.1-.99l16.7,1.76c-.04,.33-.07,.66-.1,.99L.43,84.03Z" fill="#fff" opacity=".5"/>
        <path d="M.02,94.6c0-.53-.02-1.06-.02-1.6s0-1.07,.02-1.6H16.81v.13c-.02,.49-.04,.98-.04,1.47s.02,.98,.03,1.47v.13S.02,94.6,.02,94.6Z" fill="#fff"/>
        <path d="M169.19,94.6v-.13c.02-.49,.04-.98,.04-1.47s-.02-.98-.03-1.47v-.13s16.79,0,16.79,0c.01,.53,.02,1.06,.02,1.6s0,1.06-.02,1.6h-16.8Z" fill="#fff"/>
        <path d="M.43,101.97l16.7-1.76c.03,.33,.06,.66,.1,.99l-16.7,1.75c-.04-.33-.07-.66-.1-.99Z" fill="#fff" opacity=".5"/>
        <path d="M168.71,84.29l16.7-1.76c.04,.33,.07,.66,.11,.99l-16.69,1.75c-.04-.33-.07-.66-.11-.99Z" fill="#fff" opacity=".5"/>
        <path d="M167.34,76.17l16.43-3.49c.07,.32,.14,.65,.21,.97l-16.42,3.49c-.07-.29-.23-.97-.23-.97Z" fill="#fff" opacity=".5"/>
        <path d="M1.82,111.36l16.43-3.49c.06,.33,.13,.65,.2,.98l-16.42,3.49c-.07-.32-.14-.65-.2-.98Z" fill="#fff" opacity=".5"/>
        <path d="M165.1,68.26l15.97-5.19c.11,.31,.21,.63,.31,.95l-15.97,5.19c-.1-.32-.21-.63-.32-.94Z" fill="#fff" opacity=".5"/>
        <path d="M4.16,120.56l15.97-5.19c.1,.32,.2,.63,.3,.95l-15.97,5.19c-.1-.32-.2-.63-.3-.95Z" fill="#fff" opacity=".5"/>
        <path d="M162.03,60.64l15.33-6.83c.14,.3,.28,.6,.42,.91l-15.34,6.83c-.13-.3-.27-.61-.41-.91Z" fill="#fff" opacity=".5"/>
        <path d="M7.43,129.48l15.34-6.83c.13,.31,.27,.61,.4,.91l-15.34,6.83c-.13-.3-.27-.61-.4-.91Z" fill="#fff" opacity=".5"/>
        <path d="M159.2,55.23c-.52-.9-1.07-1.82-1.64-2.74l14.55-8.4c.56,.91,1.11,1.83,1.64,2.74l-14.54,8.4Z" fill="#fff"/>
        <path d="M12.65,139.84c-.54-.92-1.06-1.85-1.56-2.78l14.55-8.4c.52,.98,1.03,1.9,1.55,2.79l-14.54,8.39Z" fill="#fff"/>
        <path d="M16.65,146.11l13.58-9.87c.19,.27,.39,.54,.58,.81l-13.58,9.87c-.19-.27-.38-.54-.57-.82Z" fill="#fff" opacity=".5"/>
        <path d="M153.51,46.67l13.59-9.87c.2,.26,.4,.53,.6,.8l-13.58,9.87c-.2-.27-.4-.53-.61-.79Z" fill="#fff" opacity=".5"/>
        <path d="M148.2,40.45l12.48-11.24c.23,.24,.45,.49,.68,.73l-12.47,11.23c-.23-.24-.46-.48-.69-.72Z" fill="#fff" opacity=".5"/>
        <path d="M22.49,153.64l12.48-11.24c.22,.25,.43,.5,.65,.75l-12.48,11.23c-.22-.25-.44-.5-.66-.75Z" fill="#fff" opacity=".5"/>
        <path d="M142.27,34.85l11.23-12.48c.25,.22,.5,.43,.75,.65l-11.23,12.48c-.25-.22-.5-.44-.75-.65Z" fill="#fff" opacity=".5"/>
        <path d="M29.09,160.56l11.24-12.48c.25,.24,.49,.47,.72,.69l-11.23,12.48c-.24-.23-.49-.45-.73-.68Z" fill="#fff" opacity=".5"/>
        <path d="M135.8,29.92l9.87-13.58c.27,.19,.55,.38,.82,.57l-9.87,13.59c-.27-.19-.54-.39-.82-.57Z" fill="#fff" opacity=".5"/>
        <path d="M36.37,166.78l9.87-13.59s.53,.43,.78,.62l-9.86,13.58c-.27-.2-.53-.4-.79-.6Z" fill="#fff" opacity=".5"/>
        <path d="M130.68,26.75c-.92-.53-1.86-1.04-2.81-1.52l8.41-14.56c.96,.5,1.9,1.02,2.8,1.53l-8.4,14.55Z" fill="#fff"/>
        <path d="M46.07,173.31c-.93-.54-1.84-1.1-2.73-1.66l8.41-14.56c.87,.56,1.79,1.12,2.72,1.67l-8.4,14.55Z" fill="#fff"/>
        <path d="M121.51,22.3l6.83-15.35c.31,.13,.61,.25,.92,.38l-6.83,15.34c-.31-.13-.62-.25-.93-.37Z" fill="#fff" opacity=".5"/>
        <path d="M52.71,176.85l6.83-15.35c.3,.15,.6,.29,.9,.43l-6.83,15.35c-.3-.14-.6-.28-.9-.43Z" fill="#fff" opacity=".5"/>
        <path d="M113.88,19.69l5.19-15.99c.32,.09,.64,.19,.96,.28l-5.19,15.97c-.32-.09-.64-.18-.96-.27Z" fill="#fff" opacity=".5"/>
        <path d="M61.61,180.57l5.19-15.98c.31,.11,.63,.22,.94,.33l-5.19,15.98c-.31-.11-.63-.22-.94-.33Z" fill="#fff" opacity=".5"/>
        <path d="M70.87,183.35l3.49-16.42c.29,.07,.97,.22,.97,.22l-3.49,16.43c-.32-.08-.65-.15-.97-.23Z" fill="#fff" opacity=".5"/>
        <path d="M106.04,17.9l3.49-16.44c.33,.06,.65,.12,.98,.18l-3.49,16.43c-.33-.06-.65-.12-.98-.18Z" fill="#fff" opacity=".5"/>
        <path d="M80.4,185.15l1.75-16.7c.33,.04,.99,.12,.99,.12l-1.76,16.71c-.33-.04-.66-.08-.99-.13Z" fill="#fff" opacity=".5"/>
        <path d="M98.08,16.95L99.83,.25c.33,.02,.66,.05,.99,.08l-1.76,16.7c-.33-.03-.66-.05-.99-.08Z" fill="#fff" opacity=".5"/>
      </g>
      <g>
        <path d="M69.12,147.5l.28-.54,.39,.2c.74,.38,1.21,0,1.59-.74l2.12-4.15c.51-1,.32-1.88-.69-2.4-1.35-.69-2.76-.09-3.42,.21l-2.15,4.21c-.34,.66-.43,1.34,.4,1.76l.39,.2-.28,.54-3.78-1.93,.28-.54,.37,.19c.74,.38,1.21,0,1.59-.74l2.06-4.03c.59-1.15,.45-1.97-.73-2.57-1.25-.64-2.34-.24-3.02,.01l-2.31,4.54c-.34,.66-.41,1.35,.4,1.76l.27,.14-.28,.54-3.57-1.82,.28-.54,.3,.15c.74,.38,1.2-.03,1.57-.75l2.5-4.91c.17-.34,.17-.87-.24-1.08-.03-.02-.24-.12-.52-.18l.1-.4,2.56,.48-.73,1.44c1-.26,2.23-.59,3.52,.07,.72,.37,1.73,1.23,1.26,2.78,1.08-.37,2.48-.87,3.81-.19,1.42,.72,1.83,2.13,1.05,3.65l-2.08,4.08c-.44,.86-.36,1.37,.21,1.67l.4,.21-.28,.54-3.61-1.84Z" fill="#fff"/>
        <path d="M76.92,150.18l.14-.59,.29,.07c.81,.2,1.18-.28,1.38-1.09l1.31-5.39c.09-.37-.03-.91-.49-1.02-.02,0-.26-.06-.54-.03v-.43s2.61-.13,2.61-.13l-1.77,7.27c-.33,1.35,.44,1.54,1,1.67l-.14,.59-3.79-.92Zm4.78-11.49c-.55-.13-.83-.67-.71-1.17,.11-.46,.57-.84,1.16-.7s.82,.71,.71,1.15c-.12,.48-.6,.85-1.17,.71Z" fill="#fff"/>
        <path d="M89.82,152.25l.04-.61,.47,.03c.85,.05,1.11-.5,1.17-1.31l.28-4.31c.06-.89-.12-2.18-1.6-2.27-1.32-.09-2.49,1.02-3.06,1.57l-.31,4.7c-.05,.76,.14,1.4,1.02,1.46l.49,.03-.04,.61-4.14-.27,.04-.61,.36,.02c.83,.05,1.1-.5,1.15-1.32l.36-5.5c.02-.38-.19-.87-.64-.9-.04,0-.26-.02-.55,.04l-.07-.4,2.5-.58-.12,1.92c1.01-.89,1.99-1.72,3.39-1.63,1.59,.1,2.44,1.24,2.33,2.93l-.3,4.57c-.06,.85,.1,1.4,.91,1.45l.49,.03-.04,.61-4.14-.27Z" fill="#fff"/>
        <path d="M104.99,151.18l-.23-1.44c-.6,.77-1.61,2.11-3.01,2.34-1.14,.18-2.65-.4-2.96-2.31l-.85-5.23c-.07-.41-.31-.74-.76-.67-.11,.02-.17,.03-.57,.15l-.2-.39,2.33-.99,1.1,6.77c.21,1.31,1.04,1.83,2.07,1.67,.62-.1,1.59-.45,2.77-1.83l-.9-5.55c-.07-.41-.38-.79-.9-.7-.24,.04-.57,.17-.78,.26l-.22-.39,2.72-1.17,1.27,7.82c.12,.71,.67,.82,1.06,.75l.37-.06,.1,.6-2.41,.39Z" fill="#fff"/>
        <path d="M114.6,148.71c-1.3,.48-2.19-.08-2.71-1.47l-2.24-6.02-1.51,.56-.21-.57c.3-.11,.71-.26,1.06-.78,.32-.49,.54-1.54,.29-2.21l-.28-.75,.43-.16,1.09,2.94,2.95-1.09,.21,.57-2.95,1.09,2.26,6.07c.36,.96,1.05,1.15,1.85,.85,.99-.37,1.26-1.18,1.39-1.57l.41,.19c-.34,.82-.76,1.86-2.06,2.34Z" fill="#fff"/>
        <path d="M124.09,144.05c-3.04,1.82-5.26-.57-6.11-1.98-1.25-2.09-1.4-4.83,.95-6.25,1.43-.86,2.66-.53,3.47-.13,1.16,.57,1.72,1.36,2.1,1.89l-5.62,3.37c2.22,3.96,4.86,2.47,5.17,2.29,1.41-.85,1.56-2.29,1.62-3.03l.56,.09c-.13,1.14-.3,2.66-2.15,3.77Zm-4.9-7.72c-1.83,1.1-.93,3.24-.59,4.06l4.33-2.6c-1.38-2.03-2.75-2.05-3.74-1.46Z" fill="#fff"/>
      </g>
      <g>
        <path d="M62.65,55.77l-.43-.47,.41-.38c.59-.54,.71-1.28,.04-2.02l-7.91-8.57,5.32,13.81-.41,.38-13.19-6.56,7.91,8.57c.71,.76,1.47,.63,2.02,.13l.29-.27,.43,.47-3.22,2.97-.43-.47,.37-.34c.56-.51,.73-1.27,.04-2.02l-7.04-7.63c-.65-.71-1.4-.69-2.02-.13l-.37,.34-.45-.48,2.7-2.48,12.15,6.05-4.91-12.72,2.67-2.46,.45,.48-.44,.41c-.63,.58-.69,1.34-.05,2.03l7.04,7.63c.64,.69,1.42,.68,2.03,.11l.44-.41,.43,.47-3.85,3.55Z" fill="#fff"/>
        <path d="M75.59,36.62c-1.25-.87-1.75-1.09-2.28-1.22-1.21-.27-2.06-.29-3.33,.24l-2.04,.85c-.85,.35-1.18,1.01-.84,1.81l1.81,4.34,2.11-.88c1.08-.45,1.22-1.27,1.3-1.6,.09-.41,.05-.82-.2-1.41l.59-.25,2.18,5.23-.59,.25-.12-.28c-.52-1.26-1.54-1.89-2.91-1.32l-2.11,.88,1.91,4.58c.31,.74,.91,1.4,1.99,.95l.63-.26,.25,.59-5.11,2.13-.25-.59,.59-.25c.4-.17,1.22-.9,.72-2.1l-3.98-9.55c-.19-.44-.65-1.14-1.62-.73l-.83,.35-.25-.61,10.31-4.31,2.41,2.72-.33,.44Z" fill="#fff"/>
        <path d="M87.45,45.52l-6.72,.84-.08-.64,.59-.07c.49-.06,1.35-.57,1.17-2.04l-1.21-9.79c-.12-.95-.57-1.5-1.52-1.38l-.67,.08-.08-.66,6.45-.8c2.71-.34,4.9,.5,5.18,2.76,.29,2.36-1.8,3.31-2.77,3.75,.81,.06,1.72,.13,2.79,.8,.91,.57,1.59,1.48,1.72,2.55,.23,1.87-1.16,4.13-4.85,4.59Zm-1.71-13.84l-1.9,.24c-1.21,.15-1.52,.69-1.41,1.57l.55,4.43,3.5-.43c1.54-.19,2.86-1.26,2.6-3.37-.21-1.69-1.3-2.68-3.33-2.43Zm.93,6.41l-3.62,.45,.65,5.28c.1,.81,.44,1.46,2.12,1.25l1.54-.19c2.16-.27,3.64-1.4,3.35-3.72-.2-1.59-1.23-3.42-4.05-3.06Z" fill="#fff"/>
        <path d="M106.37,46.96l.13-.63,.55,.12c.78,.17,1.46-.16,1.67-1.14l2.43-11.4-8.2,12.32-.55-.12-2.26-14.55-2.43,11.4c-.22,1.02,.34,1.56,1.06,1.72l.39,.08-.13,.63-4.29-.91,.13-.63,.49,.1c.74,.16,1.46-.14,1.67-1.14l2.16-10.15c.2-.94-.24-1.54-1.06-1.72l-.49-.1,.14-.65,3.59,.76,2.07,13.41,7.55-11.36,3.55,.76-.14,.65-.58-.12c-.84-.18-1.49,.21-1.69,1.13l-2.16,10.15c-.2,.92,.26,1.55,1.08,1.72l.58,.12-.13,.63-5.12-1.09Z" fill="#fff"/>
        <path d="M117.63,51.88l.35-.54,.27,.17c.73,.48,1.27,.13,1.75-.6l3.19-4.9c.22-.34,.28-.91-.13-1.18-.02-.01-.23-.15-.52-.22l.16-.42,2.63,.78-4.3,6.61c-.8,1.22-.1,1.68,.41,2.01l-.35,.54-3.44-2.24Zm8.76-9.74c-.5-.33-.59-.96-.29-1.41,.27-.42,.86-.63,1.4-.28s.57,.99,.31,1.39c-.28,.44-.89,.64-1.41,.3Z" fill="#fff"/>
        <path d="M127.55,59.71l.45-.46,.35,.35c.64,.63,1.23,.37,1.83-.24l3.19-3.23c.66-.67,1.4-1.82,.3-2.91-.99-.98-2.69-.91-3.52-.86l-3.49,3.53c-.56,.57-.86,1.21-.19,1.86l.37,.36-.45,.46-3.1-3.06,.45-.46,.27,.27c.62,.62,1.22,.36,1.82-.26l4.08-4.13c.28-.28,.45-.82,.11-1.16-.03-.03-.2-.2-.47-.35l.22-.37,2.39,1.26-1.42,1.44c1.41-.01,2.77,0,3.82,1.04,1.19,1.18,1.08,2.67-.17,3.94l-3.39,3.43c-.63,.64-.88,1.18-.27,1.78l.37,.36-.45,.46-3.1-3.06Z" fill="#fff"/>
      </g>
    </g>
  </g>
</svg>