<?xml version="1.0" encoding="UTF-8"?>
<svg id="_レイヤー_2" data-name="レイヤー 2" xmlns="http://www.w3.org/2000/svg" xmlns:xlink="http://www.w3.org/1999/xlink" viewBox="0 0 259.01 182.54">
  <defs>
    <linearGradient id="_名称未設定グラデーション_1100" data-name="名称未設定グラデーション 1100" x1="118.2" y1="82.01" x2="216.91" y2="82.01" gradientUnits="userSpaceOnUse">
      <stop offset="0" stop-color="#415c90"/>
      <stop offset="1" stop-color="#22527a"/>
    </linearGradient>
    <linearGradient id="_名称未設定グラデーション_1134" data-name="名称未設定グラデーション 1134" x1="216.74" y1="98.49" x2="259.01" y2="98.49" gradientUnits="userSpaceOnUse">
      <stop offset="0" stop-color="#649bba"/>
      <stop offset="1" stop-color="#7cc4cc"/>
    </linearGradient>
    <linearGradient id="_名称未設定グラデーション_2837" data-name="名称未設定グラデーション 2837" x1="124.5" y1="30.43" x2="252.54" y2="30.43" gradientUnits="userSpaceOnUse">
      <stop offset="0" stop-color="#81afd0"/>
      <stop offset="1" stop-color="#8ec2c4"/>
    </linearGradient>
    <linearGradient id="_名称未設定グラデーション_1100-2" data-name="名称未設定グラデーション 1100" x1="73.04" y1="86.54" x2="148.97" y2="86.54" xlink:href="#_名称未設定グラデーション_1100"/>
    <linearGradient id="_名称未設定グラデーション_2789" data-name="名称未設定グラデーション 2789" x1="41.99" y1="76.05" x2="148.96" y2="76.05" gradientUnits="userSpaceOnUse">
      <stop offset="0" stop-color="#89c0e3"/>
      <stop offset="1" stop-color="#c3d9e0"/>
    </linearGradient>
    <linearGradient id="_名称未設定グラデーション_1134-2" data-name="名称未設定グラデーション 1134" x1="135.36" y1="109.69" x2="156.1" y2="109.69" xlink:href="#_名称未設定グラデーション_1134"/>
    <linearGradient id="_名称未設定グラデーション_1100-3" data-name="名称未設定グラデーション 1100" x1="106.39" y1="128.39" x2="152.68" y2="128.39" xlink:href="#_名称未設定グラデーション_1100"/>
    <linearGradient id="_名称未設定グラデーション_1134-3" data-name="名称未設定グラデーション 1134" x1="89.07" y1="122.57" x2="152.67" y2="122.57" xlink:href="#_名称未設定グラデーション_1134"/>
    <linearGradient id="_名称未設定グラデーション_1100-4" data-name="名称未設定グラデーション 1100" x1="106.38" y1="131.05" x2="156.1" y2="131.05" xlink:href="#_名称未設定グラデーション_1100"/>
    <linearGradient id="_名称未設定グラデーション_1134-4" data-name="名称未設定グラデーション 1134" x1="106.38" y1="129.95" x2="156.1" y2="129.95" xlink:href="#_名称未設定グラデーション_1134"/>
    <linearGradient id="_名称未設定グラデーション_1100-5" data-name="名称未設定グラデーション 1100" x1="143.71" y1="105.61" x2="148.52" y2="105.61" xlink:href="#_名称未設定グラデーション_1100"/>
    <linearGradient id="_名称未設定グラデーション_1100-6" data-name="名称未設定グラデーション 1100" x1="106.39" y1="112.38" x2="156.1" y2="112.38" xlink:href="#_名称未設定グラデーション_1100"/>
    <linearGradient id="_名称未設定グラデーション_1134-5" data-name="名称未設定グラデーション 1134" x1="85.66" y1="105.68" x2="156.1" y2="105.68" xlink:href="#_名称未設定グラデーション_1134"/>
    <linearGradient id="_名称未設定グラデーション_1100-7" data-name="名称未設定グラデーション 1100" x1="0" y1="143.94" x2="68.54" y2="143.94" xlink:href="#_名称未設定グラデーション_1100"/>
    <linearGradient id="_名称未設定グラデーション_1134-6" data-name="名称未設定グラデーション 1134" x1="68.44" y1="151.67" x2="110.64" y2="151.67" xlink:href="#_名称未設定グラデーション_1134"/>
    <linearGradient id="_名称未設定グラデーション_1100-8" data-name="名称未設定グラデーション 1100" x1="5.84" y1="103.31" x2="104.69" y2="103.31" xlink:href="#_名称未設定グラデーション_1100"/>
    <linearGradient id="_名称未設定グラデーション_1134-7" data-name="名称未設定グラデーション 1134" x1="54.87" y1="121.11" x2="78.63" y2="121.11" xlink:href="#_名称未設定グラデーション_1134"/>
    <linearGradient id="_名称未設定グラデーション_1100-9" data-name="名称未設定グラデーション 1100" x1="31.27" y1="121.11" x2="54.87" y2="121.11" xlink:href="#_名称未設定グラデーション_1100"/>
    <linearGradient id="_名称未設定グラデーション_1100-10" data-name="名称未設定グラデーション 1100" x1="33.92" y1="119.05" x2="54.88" y2="119.05" xlink:href="#_名称未設定グラデーション_1100"/>
    <linearGradient id="_名称未設定グラデーション_1134-8" data-name="名称未設定グラデーション 1134" x1="54.87" y1="119.05" x2="75.97" y2="119.05" xlink:href="#_名称未設定グラデーション_1134"/>
    <linearGradient id="_名称未設定グラデーション_1100-11" data-name="名称未設定グラデーション 1100" x1="192.86" y1="64.87" x2="216.46" y2="64.87" xlink:href="#_名称未設定グラデーション_1100"/>
    <linearGradient id="_名称未設定グラデーション_1100-12" data-name="名称未設定グラデーション 1100" x1="195.51" y1="62.81" x2="216.47" y2="62.81" xlink:href="#_名称未設定グラデーション_1100"/>
    <linearGradient id="_名称未設定グラデーション_1100-13" data-name="名称未設定グラデーション 1100" x1="138.2" y1="33.03" x2="161.81" y2="33.03" xlink:href="#_名称未設定グラデーション_1100"/>
    <linearGradient id="_名称未設定グラデーション_1100-14" data-name="名称未設定グラデーション 1100" x1="140.85" y1="30.97" x2="161.81" y2="30.97" xlink:href="#_名称未設定グラデーション_1100"/>
  </defs>
  <g id="_デザイン" data-name="デザイン">
    <g id="top-section-03-building-03">
      <g>
        <polygon points="118.2 24.31 118.38 82.46 216.91 139.72 216.74 81.57 118.2 24.31" fill="url(#_名称未設定グラデーション_1100)"/>
        <polygon points="216.74 81.57 216.91 139.72 259.01 115.41 258.84 57.26 216.74 81.57" fill="url(#_名称未設定グラデーション_1134)"/>
        <polygon points="118.2 24.31 216.74 81.57 258.84 57.26 160.31 0 118.2 24.31" fill="#e3f1f2"/>
        <polyline points="124.34 25.75 214.27 78.01 252.7 55.82 162.77 3.56" fill="#8bc4c1"/>
        <polygon points="162.83 6.5 126.96 27.21 124.5 25.78 162.83 3.65 252.54 55.79 250.08 57.21 162.83 6.5" fill="url(#_名称未設定グラデーション_2837)"/>
      </g>
      <path d="M158.07,65.5l-6.15-3.55v-11.09s6.15,3.55,6.15,3.55v11.09Zm9.1-5.84l-6.15-3.55v11.09s6.15,3.55,6.15,3.55v-11.09Zm-9.1,20.57l-6.15-3.55v-11.09s6.15,3.55,6.15,3.55v11.09Zm9.1-5.84l-6.15-3.55v11.09s6.15,3.55,6.15,3.55v-11.09Zm-9.1,20.57l-6.15-3.55v-11.09s6.15,3.55,6.15,3.55v11.09Zm9.1-5.84l-6.15-3.55v11.09s6.15,3.55,6.15,3.55v-11.09Z" fill="#fff" opacity=".3"/>
      <path d="M175.66,75.56l-6.15-3.55v-11.09s6.15,3.55,6.15,3.55v11.09Zm9.1-5.84l-6.15-3.55v11.09s6.15,3.55,6.15,3.55v-11.09Zm-9.1,20.57l-6.15-3.55v-11.09s6.15,3.55,6.15,3.55v11.09Zm9.1-5.84l-6.15-3.55v11.09s6.15,3.55,6.15,3.55v-11.09Zm-9.1,20.57l-6.15-3.55v-11.09s6.15,3.55,6.15,3.55v11.09Zm9.1-5.84l-6.15-3.55v11.09s6.15,3.55,6.15,3.55v-11.09Z" fill="#fff" opacity=".3"/>
      <polygon points="123.13 34.21 119.82 32.3 119.82 38.27 123.13 40.19 123.13 34.21" fill="#fff" opacity=".3"/>
      <polygon points="131.48 50.02 125.33 46.47 125.33 35.37 131.48 38.93 131.48 50.02" fill="#fff" opacity=".3"/>
      <polygon points="139.96 43.73 133.81 40.18 133.81 51.27 139.96 54.83 139.96 43.73" fill="#fff" opacity=".3"/>
      <polygon points="149.07 60.08 142.91 56.53 142.91 45.43 149.07 48.99 149.07 60.08" fill="#fff" opacity=".3"/>
      <path d="M193.72,86.09l-6.15-3.55v-11.09s6.15,3.55,6.15,3.55v11.09Zm9.1-5.84l-6.15-3.55v11.09s6.15,3.55,6.15,3.55v-11.09Zm-9.1,20.57l-6.15-3.55v-11.09s6.15,3.55,6.15,3.55v11.09Zm9.1-5.84l-6.15-3.55v11.09s6.15,3.55,6.15,3.55v-11.09Zm-9.1,20.57l-6.15-3.55v-11.09s6.15,3.55,6.15,3.55v11.09Zm9.1-5.84l-6.15-3.55v11.09s6.15,3.55,6.15,3.55v-11.09Z" fill="#fff" opacity=".3"/>
      <path d="M211.3,96.15l-6.15-3.55v-11.09s6.15,3.55,6.15,3.55v11.09Zm0,14.73l-6.15-3.55v-11.09s6.15,3.55,6.15,3.55v11.09Zm0,14.73l-6.15-3.55v-11.09s6.15,3.55,6.15,3.55v11.09Z" fill="#fff" opacity=".3"/>
      <g>
        <polygon points="42.64 91.81 42.74 125.5 71.79 142.38 71.7 108.69 42.64 91.81" fill="#9ebddd"/>
        <polygon points="71.7 108.69 71.79 142.38 147.33 98.77 147.23 65.08 71.7 108.69" fill="#6ca8b3"/>
        <polygon points="42.64 91.81 71.7 108.69 147.23 65.08 118.18 48.2 42.64 91.81" fill="#cddff3"/>
      </g>
      <g>
        <polygon points="41.99 88.95 41.99 91.87 73.05 109.92 73.04 106.99 41.99 88.95" fill="#9ebddd"/>
        <polygon points="73.04 106.99 73.05 109.92 148.97 66.08 148.96 63.16 73.04 106.99" fill="url(#_名称未設定グラデーション_1100-2)"/>
        <polygon points="41.99 88.95 73.04 106.99 148.96 63.16 117.9 45.12 41.99 88.95" fill="url(#_名称未設定グラデーション_2789)"/>
      </g>
      <g>
        <polygon points="152.68 115.83 156.1 115.6 135.37 103.56 135.36 105.76 152.68 115.83" fill="url(#_名称未設定グラデーション_1134-2)"/>
        <polygon points="135.36 105.76 135.37 103.56 85.66 132.26 89.08 132.48 135.36 105.76" fill="#d1e1f4"/>
        <polygon points="106.4 144.3 106.4 145.89 152.69 119.16 152.68 117.57 106.4 144.3" fill="#afc9e5"/>
        <polygon points="89.07 130.89 89.08 132.48 106.4 142.55 106.39 140.96 89.07 130.89" fill="#9ebddd"/>
        <polygon points="106.39 140.96 106.4 142.55 152.68 115.83 152.67 114.24 106.39 140.96" fill="url(#_名称未設定グラデーション_1100-3)"/>
        <polygon points="89.07 130.89 106.39 140.96 152.67 114.24 135.35 104.17 89.07 130.89" fill="url(#_名称未設定グラデーション_1134-3)"/>
        <polygon points="106.38 144.31 106.39 146.5 156.1 117.8 156.1 115.6 106.38 144.31" fill="url(#_名称未設定グラデーション_1100-4)"/>
        <polygon points="106.4 142.55 106.38 144.31 156.1 115.6 152.68 115.83 106.4 142.55" fill="url(#_名称未設定グラデーション_1134-4)"/>
      </g>
      <path d="M93.16,99.56l6.15-3.55v11.09s-6.15,3.55-6.15,3.55v-11.09Zm-9.1,16.35l6.15-3.55v-11.09s-6.15,3.55-6.15,3.55v11.09Z" fill="#d3e4dc"/>
      <path d="M137.99,73.58l6.15-3.55v11.09s-6.15,3.55-6.15,3.55v-11.09Zm-9.1,16.35l6.15-3.55v-11.09s-6.15,3.55-6.15,3.55v11.09Zm-9.1-5.84l6.15-3.55v11.09s-6.15,3.55-6.15,3.55v-11.09Zm-9.1,16.35l6.15-3.55v-11.09s-6.15,3.55-6.15,3.55v11.09Zm-8.85-5.98l6.15-3.55v11.09s-6.15,3.55-6.15,3.55v-11.09Zm36.16-6.15l6.15-3.55v11.09s-6.15,3.55-6.15,3.55v-11.09Zm-25.49,10.56l7.79-4.5v18.14s-7.79,4.5-7.79,4.5v-18.14Z" fill="#d3e4dc"/>
      <polygon points="104.76 121.59 112.55 117.09 112.55 98.95 104.76 103.45 104.76 121.59" fill="#fff" opacity=".5"/>
      <path d="M143.71,94.23h4.81v21.38h0v.13h-.04c-.05,.31-.25,.62-.67,.86-.94,.54-2.46,.55-3.4,0-.42-.24-.62-.55-.66-.86h-.04v-21.51Z" fill="url(#_名称未設定グラデーション_1100-5)"/>
      <g>
        <polygon points="85.66 114 85.66 115.37 106.39 127.42 106.39 126.05 85.66 114" fill="#9ebddd"/>
        <polygon points="106.39 126.05 106.39 127.42 156.1 98.71 156.1 97.35 106.39 126.05" fill="url(#_名称未設定グラデーション_1100-6)"/>
        <polygon points="85.66 114 106.39 126.05 156.1 97.35 135.37 85.3 85.66 114" fill="url(#_名称未設定グラデーション_1134-5)"/>
      </g>
      <g>
        <polygon points="0 105.34 .11 142.77 68.54 182.54 68.44 145.11 0 105.34" fill="url(#_名称未設定グラデーション_1100-7)"/>
        <polygon points="68.44 145.11 68.54 182.54 110.64 158.23 110.54 120.8 68.44 145.11" fill="url(#_名称未設定グラデーション_1134-6)"/>
        <polygon points="0 105.34 68.44 145.11 110.54 120.8 42.1 81.03 0 105.34" fill="#e3f1f2"/>
        <polygon points="5.84 106.16 67.04 141.72 104.69 119.98 43.49 84.42 5.84 106.16" fill="#8bc4c1"/>
        <polygon points="43.49 88.85 9.67 108.38 5.84 106.16 43.49 84.42 104.69 119.98 100.86 122.2 43.49 88.85" fill="url(#_名称未設定グラデーション_1100-8)"/>
      </g>
      <path d="M15.43,145.66l-11.04-6.38v-24.94s11.04,6.38,11.04,6.38v24.94Zm16.34-15.51l-11.04-6.38v24.94s11.04,6.38,11.04,6.38v-24.94Z" fill="#d3e4dc"/>
      <path d="M46.99,163.71l-11.04-6.38v-24.94s11.04,6.38,11.04,6.38v24.94Zm16.34-15.51l-11.04-6.38v24.94s11.04,6.38,11.04,6.38v-24.94Z" fill="#d3e4dc"/>
      <g>
        <polygon points="55.02 101.4 55.02 99.69 31.27 113.41 33.92 113.58 55.02 101.4" fill="#d3e4dc"/>
        <polygon points="75.97 113.58 78.62 113.41 55.02 99.69 55.02 101.4 75.97 113.58" fill="#d3e4dc"/>
        <polygon points="33.93 114.93 33.93 116.17 54.89 128.35 54.88 127.11 33.93 114.93" fill="#a0b9d9"/>
        <polygon points="54.87 127.12 54.87 128.82 78.63 115.11 78.62 113.41 54.87 127.12" fill="url(#_名称未設定グラデーション_1134-7)"/>
        <polygon points="31.27 113.41 31.28 115.11 54.87 128.82 54.87 127.12 31.27 113.41" fill="url(#_名称未設定グラデーション_1100-9)"/>
        <polygon points="33.92 113.58 31.27 113.41 54.87 127.12 54.88 125.76 33.92 113.58" fill="#d3e4dc"/>
        <polygon points="54.88 125.76 54.87 127.12 78.62 113.41 75.97 113.58 54.88 125.76" fill="#d3e4dc"/>
        <polygon points="33.92 112.35 33.92 113.58 54.88 125.76 54.87 124.52 33.92 112.35" fill="url(#_名称未設定グラデーション_1100-10)"/>
        <polygon points="54.87 124.52 54.88 125.76 75.97 113.58 75.97 112.35 54.87 124.52" fill="url(#_名称未設定グラデーション_1134-8)"/>
        <polygon points="33.92 112.35 54.87 124.52 75.97 112.35 55.01 100.17 33.92 112.35" fill="#d3e4dc"/>
      </g>
      <g>
        <polygon points="216.61 45.16 216.61 43.45 192.86 57.17 195.51 57.34 216.61 45.16" fill="#edffff"/>
        <polygon points="237.56 57.34 240.21 57.17 216.61 43.45 216.61 45.16 237.56 57.34" fill="#edffff"/>
        <polygon points="195.52 58.7 195.52 59.93 216.48 72.11 216.47 70.87 195.52 58.7" fill="#a0b9d9"/>
        <polygon points="216.46 70.88 216.46 72.58 240.22 58.87 240.21 57.17 216.46 70.88" fill="#98cce5"/>
        <polygon points="192.86 57.17 192.86 58.87 216.46 72.58 216.46 70.88 192.86 57.17" fill="url(#_名称未設定グラデーション_1100-11)"/>
        <polygon points="195.51 57.34 192.86 57.17 216.46 70.88 216.47 69.52 195.51 57.34" fill="#edffff"/>
        <polygon points="216.47 69.52 216.46 70.88 240.21 57.17 237.56 57.34 216.47 69.52" fill="#edffff"/>
        <polygon points="195.51 56.11 195.51 57.34 216.47 69.52 216.46 68.29 195.51 56.11" fill="url(#_名称未設定グラデーション_1100-12)"/>
        <polygon points="216.46 68.29 216.47 69.52 237.56 57.34 237.56 56.11 216.46 68.29" fill="#98cce5"/>
        <polygon points="195.51 56.11 216.46 68.29 237.56 56.11 216.6 43.93 195.51 56.11" fill="#e1ffff"/>
      </g>
      <g>
        <polygon points="161.95 13.32 161.96 11.61 138.2 25.32 140.86 25.5 161.95 13.32" fill="#edffff"/>
        <polygon points="182.91 25.5 185.56 25.32 161.96 11.61 161.95 13.32 182.91 25.5" fill="#edffff"/>
        <polygon points="140.86 26.85 140.86 28.08 161.82 40.26 161.82 39.03 140.86 26.85" fill="#a0b9d9"/>
        <polygon points="161.8 39.04 161.81 40.74 185.56 27.03 185.56 25.32 161.8 39.04" fill="#98cce5"/>
        <polygon points="138.2 25.32 138.21 27.03 161.81 40.74 161.8 39.04 138.2 25.32" fill="url(#_名称未設定グラデーション_1100-13)"/>
        <polygon points="140.86 25.5 138.2 25.32 161.8 39.04 161.81 37.68 140.86 25.5" fill="#edffff"/>
        <polygon points="161.81 37.68 161.8 39.04 185.56 25.32 182.91 25.5 161.81 37.68" fill="#edffff"/>
        <polygon points="140.85 24.26 140.86 25.5 161.81 37.68 161.81 36.44 140.85 24.26" fill="url(#_名称未設定グラデーション_1100-14)"/>
        <polygon points="161.81 36.44 161.81 37.68 182.91 25.5 182.9 24.26 161.81 36.44" fill="#98cce5"/>
        <polygon points="140.85 24.26 161.81 36.44 182.9 24.26 161.95 12.09 140.85 24.26" fill="#e1ffff"/>
      </g>
    </g>
  </g>
</svg>