<?xml version="1.0" encoding="UTF-8"?>
<svg xmlns="http://www.w3.org/2000/svg" viewBox="0 0 372.29 29.91">
  <g>
    <g>
      <path d="m23.28,29.17v-1.25h1.09c1.56,0,2.73-.9,2.73-2.85V2.34l-10.69,26.83h-1.09L5.07,2.34v22.74c0,2.03,1.29,2.85,2.73,2.85h.78v1.25H0v-1.25h.98c1.48,0,2.73-.86,2.73-2.85V4.84c0-1.87-1.09-2.85-2.73-2.85h-.98V.7h7.18l9.44,24.73L26.44.7h7.1v1.29h-1.17c-1.68,0-2.77,1.01-2.77,2.85v20.24c0,1.83,1.13,2.85,2.77,2.85h1.17v1.25h-10.26Z" fill="#003383"/>
      <path d="m59.98,7.96c-1.6-2.5-2.34-3.28-3.2-3.9-1.99-1.4-3.51-2.07-6.2-2.07h-4.33c-1.79,0-2.89.94-2.89,2.61v9.17h4.49c2.3,0,3.16-1.36,3.55-1.91.47-.66.7-1.44.7-2.69h1.25v11.04h-1.25v-.58c0-2.65-1.36-4.56-4.25-4.56h-4.49v9.67c0,1.56.58,3.2,2.89,3.2h1.33v1.25h-10.84v-1.25h1.25c.86,0,2.89-.7,2.89-3.24V4.52c0-.94-.31-2.54-2.38-2.54h-1.76V.7h21.88l2.3,6.71-.94.55Z" fill="#003383"/>
      <path d="m75.39,29.17h-13.26v-1.25h1.17c.98,0,2.77-.78,2.77-3.67V5.03c0-1.87-.74-3.04-2.61-3.04h-1.33V.7h12.71c5.34,0,9.4,2.15,9.4,6.59s-4.29,5.97-6.28,6.59c1.56.31,3.32.66,5.23,2.22,1.64,1.33,2.73,3.24,2.73,5.34,0,3.67-3.24,7.72-10.53,7.72Zm0-27.18h-3.74c-2.38,0-3.12.98-3.12,2.69v8.7h6.9c3.04,0,5.85-1.76,5.85-5.89,0-3.31-1.87-5.5-5.89-5.5Zm.27,12.64h-7.14v10.37c0,1.6.51,2.93,3.82,2.93h3.04c4.25,0,7.41-1.83,7.41-6.4,0-3.12-1.56-6.9-7.14-6.9Z" fill="#003383"/>
      <path d="m111.19,29.17v-1.25h1.09c1.56,0,2.73-.9,2.73-2.85V2.34l-10.69,26.83h-1.09l-10.26-26.83v22.74c0,2.03,1.29,2.85,2.73,2.85h.78v1.25h-8.58v-1.25h.98c1.48,0,2.73-.86,2.73-2.85V4.84c0-1.87-1.09-2.85-2.73-2.85h-.98V.7h7.18l9.44,24.73L114.35.7h7.1v1.29h-1.17c-1.68,0-2.77,1.01-2.77,2.85v20.24c0,1.83,1.13,2.85,2.77,2.85h1.17v1.25h-10.26Z" fill="#003383"/>
      <path d="m156.43,29.17l-7.96-14h-4.52v9.91c0,1.95,1.21,2.85,2.77,2.85h1.21v1.25h-10.41v-1.25h1.17c1.6,0,2.77-.98,2.77-2.85V4.84c0-1.87-1.09-2.85-2.77-2.85h-1.17V.7h12.01c4.68,0,9.95,1.68,9.95,6.86,0,2.26-1.09,4.1-2.65,5.3-1.91,1.48-3.78,1.83-5.62,2.15l5.85,10.22c1.13,1.95,2.42,2.69,4.33,2.69h.58v1.25h-5.54Zm-6.63-27.18h-3.08c-1.76,0-2.77,1.09-2.77,2.85v9.05h5.62c3.71,0,6.86-2.03,6.86-6.01s-2.96-5.89-6.63-5.89Z" fill="#003383"/>
      <path d="m185.33,29.17h-21.22v-1.25h.98c1.29,0,2.81-.86,2.81-2.81V4.76c0-1.75-.98-2.77-2.61-2.77h-1.17V.7h20.59l2.57,6.51-1.01.47c-1.33-1.87-3.94-5.69-9.13-5.69h-3.67c-2.26,0-3.08.98-3.08,2.69v9.2h4.99c1.91,0,3.74-1.68,3.74-4.21v-.62h1.25v11.15h-1.25v-1.37c0-1.87-1.25-3.67-3.74-3.67h-4.99v10.06c0,1.6,1.13,2.69,2.81,2.69h2.73c3.2,0,5.73-.98,6.98-1.75,2.42-1.52,3.35-3.35,4.06-4.68l1.05.47-2.69,7.22Z" fill="#003383"/>
      <path d="m213.13,21.65c-1.56,3-4.25,8.27-11.58,8.27-9.09,0-12.05-7.64-12.05-14.7,0-11,6.79-15.21,12.52-15.21.59,0,1.4,0,3.28.62,1.21.43,1.56.43,1.79.43s1.4,0,2.85-1.05l2.81,7.1-1.44.62c-1.37-2.07-4.17-6.36-9.48-6.36-7.22,0-9.56,7.29-9.56,12.91,0,7.92,4.21,13.73,10.53,13.73,5.5,0,7.92-4.6,9.2-7.06l1.13.7Z" fill="#003383"/>
      <path d="m232.67,29.17l-7.96-14h-4.52v9.91c0,1.95,1.21,2.85,2.77,2.85h1.21v1.25h-10.41v-1.25h1.17c1.6,0,2.77-.98,2.77-2.85V4.84c0-1.87-1.09-2.85-2.77-2.85h-1.17V.7h12.01c4.68,0,9.95,1.68,9.95,6.86,0,2.26-1.09,4.1-2.65,5.3-1.91,1.48-3.78,1.83-5.62,2.15l5.85,10.22c1.13,1.95,2.42,2.69,4.33,2.69h.58v1.25h-5.54Zm-6.63-27.18h-3.08c-1.76,0-2.77,1.09-2.77,2.85v9.05h5.62c3.71,0,6.86-2.03,6.86-6.01s-2.96-5.89-6.63-5.89Z" fill="#003383"/>
      <path d="m262.16,1.99c-1.64,0-2.73.98-2.73,2.85v15.09c0,6.16-3.24,9.98-9.4,9.98-2.61,0-5.23-.74-7.1-2.57-2.03-1.99-2.57-4.91-2.57-7.76V4.84c0-1.79-1.01-2.85-2.73-2.85h-.98V.7h10.1v1.29h-1.21c-1.64,0-2.73.98-2.73,2.85v14.7c0,5.15,2.15,9.01,7.88,9.01,4.88,0,7.49-3.43,7.49-7.96V4.84c0-1.75-.98-2.85-2.73-2.85h-1.09V.7h8.85v1.29h-1.05Z" fill="#003383"/>
      <path d="m265.08,29.17v-1.25h2.11c1.4,0,2.73-.78,2.73-2.85V4.84c0-1.79-1.01-2.85-2.73-2.85h-2.11V.7h12.17v1.29h-2.07c-1.64,0-2.73.98-2.73,2.85v20.24c0,1.91,1.17,2.85,2.73,2.85h2.07v1.25h-12.17Z" fill="#003383"/>
      <path d="m303.3,8.5c-1.72-2.81-3.94-6.51-8.27-6.51-1.25,0-2.96.39-2.96,2.85v20.24c0,1.95,1.21,2.85,2.73,2.85h2.03v1.25h-11.86v-1.25h1.91c1.56,0,2.73-.94,2.73-2.85V4.84c0-2.34-1.56-2.85-3-2.85-4.25,0-6.55,3.71-8.23,6.51l-.98-.51,2.89-7.29h21.1l2.89,7.29-.98.51Z" fill="#003383"/>
      <path d="m305.21,29.17v-1.25h2.11c1.4,0,2.73-.78,2.73-2.85V4.84c0-1.79-1.01-2.85-2.73-2.85h-2.11V.7h12.17v1.29h-2.07c-1.64,0-2.73.98-2.73,2.85v20.24c0,1.91,1.17,2.85,2.73,2.85h2.07v1.25h-12.17Z" fill="#003383"/>
      <path d="m347.45,1.99c-2.18,0-3.55,1.64-3.55,4.33v22.85h-1.21l-16.61-25.98v21.14c0,1.99,1.17,3.59,2.73,3.59h1.91v1.25h-10.41v-1.25h1.68c1.6,0,2.73-1.72,2.73-3.59V5.19c0-2.03-1.6-3.2-3.08-3.2h-1.33V.7h7.06l15.21,23.71V6.32c0-4.33-2.93-4.33-4.06-4.33V.7h9.52v1.29h-.58Z" fill="#003383"/>
      <path d="m369.41,20.94v7.29c-.35-.08-.9-.23-1.56-.23-.51,0-1.52.39-2.07.62-2.3.9-4.02,1.29-5.69,1.29-5.54,0-11.93-4.06-11.93-14.74,0-10.06,5.62-15.17,11.43-15.17.51,0,1.44,0,3.55.59,1.17.35,1.48.35,1.72.35,1.48,0,2.18-.47,2.85-.9l2.54,7.37-1.25.62c-1.17-2.22-1.79-3.08-2.89-4.1-1.95-1.79-4.17-2.57-6.16-2.57-5.85,0-8.89,6.83-8.89,13.73,0,7.92,3.82,13.46,9.36,13.46,2.81,0,6.51-1.64,6.51-5.69v-1.91c0-1.83-1.05-2.85-2.73-2.85h-1.68v-1.25h9.79v1.25c-1.01,0-2.89,0-2.89,2.85Z" fill="#003383"/>
    </g>
  </g>
</svg>