<svg
	aria-hidden="true"
	style="position: absolute; width: 0; height: 0; overflow: hidden"
	version="1.1"
	xmlns="http://www.w3.org/2000/svg"
	xmlns:xlink="http://www.w3.org/1999/xlink"
>
	<defs>
		<clipPath id="building-mask" viewBox="0 0 399.32 390.07" clipPathUnits="objectBoundingBox">
			<path transform="scale(0.002504257237303,0.002562788313685)" d="m388.05,226.07c-7.79-13.78-19.17-26.88-32.9-37.88-27.83-22.29-63.43-38.07-103.03-45.67v-13.44s0-.04,0-.06v-.02c.02-.35.04-.69.04-1.04,0-6.48-2.92-12.76-8.46-18.21v-3.61c0-.78-.41-1.5-1.08-1.89l-7.21-4.16.21-74.48c0-.78-.42-1.5-1.09-1.89L193.96.29c-.33-.19-.7-.29-1.09-.29s-.76.1-1.09.29l-40.33,23.44c-.27.16-.51.39-.69.66-.32.45-.4.9-.4,1.21l-.21,74.72-6.77,3.94c-.27.16-.51.39-.69.66-.32.45-.4.9-.4,1.21v3.39c-5.47,5.39-8.35,11.61-8.35,18.04,0,.41.02.85.05,1.34,0,.06,0,.12,0,.19v16.31c-4.2,1.03-8.42,2.17-12.62,3.43.03-.15.05-.3.05-.45v-1.34c0-.77-.42-1.5-1.09-1.88h-.02v-8.32h.02c.67-.4,1.09-1.12,1.09-1.9v-1.34c0-.77-.42-1.5-1.09-1.88l-3.95-2.28v-7.28c0-.77-.42-1.5-1.09-1.88l-22.73-13.12c-.34-.19-.71-.29-1.09-.29s-.76.1-1.1.3l-22.57,12.96c-.68.4-1.09,1.12-1.09,1.89v7.14l-3.95,2.27c-.68.39-1.09,1.12-1.09,1.89v1.34c0,.77.42,1.5,1.09,1.88h.02v8.32h-.02c-.68.41-1.09,1.13-1.09,1.9v1.34c0,.77.42,1.5,1.09,1.88h.02v8.32h-.02c-.68.41-1.09,1.13-1.09,1.9v1.34c0,.77.42,1.5,1.09,1.88h.02v8.32h-.02c-.68.41-1.09,1.13-1.09,1.9v1.34c0,.24.04.47.12.7-2.75,1.75-5.46,3.56-8.07,5.4-.25-.4-.5-.8-.77-1.21-.76-1.15-1.61-2.35-2.53-3.57-4.06-5.37-9.06-10.38-15.29-15.32-.39-.31-.87-.47-1.35-.47-.05,0-.11,0-.16,0-.05-.11-.12-.22-.2-.34-.18-.27-.41-.5-.68-.65,0,0,0,0-.01,0l-6.14-3.54c-.33-.19-.7-.29-1.09-.29s-.73.09-1.05.27l-7.27,4.08s-.07.04-.1.06h-.02c-.25.18-.55.45-.76.9-.15.29-.23.61-.23.93l.28,56.1C5.79,233.45,0,249.7,0,263.8c0,11.65,3.89,24.7,11.26,37.73,7.79,13.78,19.17,26.88,32.9,37.88,40.2,32.2,96.87,50.66,155.5,50.66s115.3-18.46,155.5-50.66c13.74-11,25.11-24.1,32.9-37.88,7.37-13.03,11.26-26.08,11.26-37.73s-3.89-24.7-11.26-37.73Z"/>
		</clipPath>
		<clipPath id="management-mask"  viewBox="0 0 631.9 452.43" clipPathUnits="objectBoundingBox">
			<path transform="scale(0.001582528881152,0.002210286674182)" d="m630.66,234.1c-.65-.97-1.53-1.78-2.56-2.34-.89-17.43-4.91-34.71-11.94-51.36v-24.24c-.1-2.77-1.44-4.09-2.5-4.69-.94-.67-2.09-1.02-3.3-1.02-1.02,0-2.02.25-2.68.66-.05.03-.28.16-1.19.69v-11.48c-.1-2.77-1.44-4.09-2.5-4.69-.95-.67-2.09-1.02-3.3-1.02-1.02,0-2.02.25-2.68.66-.03.02-.48.29-5.18,2.99l-1.51.58c-26.21-33.26-65.09-61.31-112.46-81.12-38.97-16.3-81.87-26.43-127.52-30.1l-.54-.04-.09,31.63,7.46,4.31c.52.3.84.86.84,1.45v3.82s.14.15.14.15c5.43,5.35,8.31,11.52,8.31,17.85,0,.34-.02.67-.04,1.01v13.96s.4.08.4.08c39.51,7.59,75.06,23.34,102.81,45.57,13.69,10.96,25.02,24.01,32.78,37.73,7.32,12.96,11.2,25.92,11.2,37.48,0,5.85-1,12.1-2.97,18.59-.98-.49-2.03-.75-3.06-.73-2.51,0-4.87,1.45-6.12,3.72-.64-.18-1.29-.27-1.93-.26-1.81.01-3.53.73-4.83,2.03-.84.83-1.48,1.88-1.86,3.04-.24.77-.36,1.57-.36,2.38,0,1.1.26,2.19.75,3.19-.63.03-1.27.22-1.91.57-1.96,1.09-2.23,3.12-1.8,4.8-.87.53-2.43,1.84-2.25,4.29.16,2.3,2.19,4.17,4.52,4.17,1.28,0,2.5-.64,3.28-1.7.96.39,1.95.54,3.1.31-7.41,11.16-17.26,21.8-28.52,30.82-8.59,6.88-18.08,13.23-28.21,18.88-.06-.08-.13-.15-.2-.22-.08-.07-.16-.12-.24-.16-.22-.21-.45-.38-.69-.5l-1.25-.82-.44-.68c.19-.36.47-1.04.51-1.99.03-.65.08-1.85-.65-2.47-1.45-1.21-3.09-1.19-4.4.06-.66.64-.93,1.23-.78,1.77.08.28.26.52.52.68l.38,1.85c.03.14.07.27.11.39-.54.24-.93.62-1.19,1.15-.05.05-.1.11-.14.17-.16.23-.62.92-.22,5.36l-.42.21h-.19s0-.01,0-.01c-.04-.05-.46-.47-1.12-.41-.38.03-.95.11-.95.11-.2.03-.37.15-.47.32-.21.37-.39.69-.07,1.05.05.06.12.13.2.2-5.25,2.54-10.67,4.92-16.12,7.08,0-.04,0-.08-.01-.13.11-.23.17-.55.03-.96-.02-.06-.05-.13-.06-.18l-.05-.13c-.05-.12-.07-.19-.08-.23.02-.19-.02-.31-.06-.42l-.04-.11c-.04-.12-.11-.23-.2-.33v-16.45s0,0,0,0v-.46s.02-.01.04-.02c.6-.34.7-.78.67-1.15.78-.89.9-1.13.95-1.28.03-.09.05-.18.06-.28.27-.51.41-1.05.41-1.6,0-1.91-1.55-3.47-3.47-3.47s-3.47,1.55-3.47,3.47c0,.79.27,1.54.78,2.17.03.06.08.14.09.15.03.04.08.12.79.9,0,.45.25.83.68,1.08,0,0,.01,0,.02.01v.29s-.01.03-.01.03l.06,16.58s-.07.07-.09.11l-.06.1c-.06.11-.11.23-.12.28-.05.13-.06.22-.06.35,0,0,0,.11-.13.41l-.07.2c-.04.12-.14.42-.05.73,0,.03.01.06.02.09l.06.14s0,.02.01.02c-.05.46,0,.92.15,1.35-3.77,1.43-7.52,2.76-11.19,3.96l-.34-2.76c-.01-.16-.16-1.52-.91-2.34l-.29-.26c-.33-.23-1.18-.81-2.19-1.27l-.3-.45c.16-.28.38-.76.56-1.48.35-1.39.26-2.36-.26-2.87-1.66-1.63-3.75-.77-4.73,0l-.18.19-.04.17c-.1.45.09.86.25,1.11v2.04c0,.46.11.88.35,1.24-.17.04-.35.09-.54.13-1.05.25-1.69,1-1.77,2.02-.57,1.93-.47,5.81-.45,6.34l-.27,1.56c-10.7,2.97-21.82,5.32-33.06,6.98l-13.3-8.29-.19-.15c-.17-.09-.37-.11-.55-.04h-.15s-.09.13-.09.13l-17.97,11.2c-3.09.09-5.81.14-8.33.14-7.51,0-15.2-.32-22.86-.95l-.09-.8-.74-1.03-1.09-4.2-.14-1.49c.23-.48.27-1.04.11-1.65l-.38-1.09c-.2-2.09-.22-2.22-.23-2.26-.07-.43-.42-1-1.06-1.29-.04-.02-.08-.03-.13-.05.12-.35.19-.77.19-1.22l-.06-1.22.18-.17.04-.18c.02-.12.2-1.15-.48-1.98-.49-.59-1.26-.89-2.29-.89-1.87,0-3.05,1.21-3.16,3.25-.02.44-.11,3.3-.13,4.07-.06.08-.13.18-.21.29-.14.12-.24.26-.3.42-.11.3-.34.99-.58,2.19-.35,1.74-.67,4.41-.67,4.5l.03.83c0,.19.08,1.16.22,2.88-.84-.1-1.68-.21-2.52-.32l-.25-1.09c-.26-1.09-.52-2.2-.69-2.93l-.12-.47c-.11-.34-.38-.68-.74-.92-.13-.12-.24-.19-.31-.22.13-.36.2-.79.2-1.26l-.06-1.25s0,0,0,0l.19-.18.04-.18c.02-.12.2-1.17-.49-2.01-.49-.6-1.27-.9-2.32-.9-1.9,0-3.1,1.23-3.21,3.29-.02.44-.11,3.33-.13,4.21h0c-.18.22-.49.57-.59.94-.04.13-.05.24-.06.37-.06.15-.12.32-.19.52-.08.22-.15.46-.24.74-22.09-3.65-43.17-9.86-62.66-18.49l.69-3.38.04-.19-.08-.25-7.87-4.59c-.01-.16-.03-.34-.06-.55l-.06-.31c-.08-.3-.2-.59-.38-.91-.79-1.39-1.86-2.04-2.58-2.47-.05-.03-.1-.06-.19-.1-.05-.05-.13-.12-.21-.21,0,0,0,0,0,0,.54-.44.9-1.07,1.08-1.91.3-1.3-.13-2.45-1.15-3.09-1.01-.63-2.36-.53-3.28.21l-.09.06c-.35.28-.59.63-.74,1.1,0,.04-.04.06-.08.07-.21.03-.38.17-.46.36l-.1.35.17.23c.08.11.17.2.27.28-.15.73-.08,1.51.11,2.14-.04.01-.08.03-.12.04-.07.01-.13.03-.2.06l-7.94-4.59c-.09-.74-.08-1.68-.07-2.38.02-1.16.02-1.79-.17-2.19-.29-.6-.82-1.14-1.42-1.43-.69-.34-1.82-.43-2.78.13-.58.34-1.28,1.02-1.56,2.41l-.62-.35-.25-.11-.7.2h-.04s-.3.09-.3.09l-.15.14-.76,3.8c-5.29-3.47-10.4-7.17-15.18-11-5.71-4.57-11.07-9.57-15.94-14.85.14-.43.19-.89.14-1.33.11-.23.17-.55.03-.96-.02-.06-.05-.13-.06-.18l-.05-.13c-.05-.12-.07-.19-.08-.23.02-.19-.02-.31-.06-.42l-.04-.11c-.05-.12-.11-.23-.2-.33v-16.45s0,0,0,0v-.45s.02-.01.04-.02c.6-.34.7-.78.67-1.15.78-.89.9-1.13.95-1.28.03-.09.05-.18.06-.28.27-.51.41-1.05.41-1.6,0-1.91-1.55-3.47-3.47-3.47s-3.47,1.55-3.47,3.47c0,.79.27,1.54.78,2.17.05.09.09.15.09.15.03.04.08.12.79.9,0,.45.25.83.68,1.08,0,0,.01,0,.02.01v.29s-.01.03-.01.03l.06,16.58s-.05.06-.08.09h0s-.07.11-.07.11c-.04.06-.07.13-.09.19-5.42-6.29-10.09-12.86-13.87-19.55-1.81-3.21-3.45-6.5-4.87-9.78l1.84-.06s0,.05,0,.08c.12,2.28,2.2,4.21,4.53,4.21,1.28,0,2.5-.64,3.28-1.7.66.27,1.38.42,2.1.42,3.05,0,5.53-2.48,5.53-5.53,0-1.1-.32-2.17-.94-3.08-1.14-1.7-3.15-2.64-5.2-2.42.03-.6-.01-1.19-.15-1.75-.15-.63-.4-1.23-.74-1.78.13-.58.2-1.17.19-1.75,0-.81-.14-1.61-.39-2.37-.2-.59-.47-1.16-.81-1.68-.42-.65-.94-1.23-1.54-1.72.46-2.8-.14-5.37-1.71-7.28-1.4-1.71-3.49-2.72-5.53-2.7-2.51,0-4.87,1.46-6.12,3.72-.2-.05-.41-.1-.63-.14-.03-.73-.05-1.47-.05-2.19,0-1.11.04-2.27.13-3.53.78.57,1.71.89,2.66.89,1.28,0,2.5-.64,3.28-1.7.66.27,1.38.41,2.1.41,3.05,0,5.53-2.48,5.53-5.53,0-1.1-.32-2.17-.94-3.08-1.14-1.7-3.15-2.64-5.2-2.42.03-.6-.02-1.19-.15-1.75-.15-.63-.4-1.22-.74-1.78.13-.58.2-1.17.19-1.75,0-.8-.14-1.6-.39-2.37-.2-.59-.47-1.16-.81-1.68-.15-.23-.31-.44-.46-.62,2.73-6.94,6.44-13.89,11.04-20.65l.09-.13-.28-56.25c0-.24.06-.49.19-.73.13-.28.32-.51.57-.67l-.25-.43.35.37,7.27-4.08c.51-.28,1.15-.27,1.65.01l6.15,3.55c.2.11.38.29.53.51.06.09.11.17.16.26l.15.31.47-.03c.37,0,.74.13,1.04.36,6.2,4.9,11.17,9.89,15.2,15.23.91,1.21,1.76,2.4,2.51,3.54.27.41.52.8.77,1.2l.28.45.43-.3c2.6-1.83,5.31-3.65,8.05-5.39l.33-.21-.13-.37c-.06-.17-.09-.35-.09-.54v-1.34c0-.59.32-1.15.86-1.46l.25-.14v-8.6l-.02-.3-.25-.14c-.52-.3-.84-.85-.84-1.45v-1.34c0-.59.32-1.15.86-1.46l.25-.14v-8.6l-.02-.3-.25-.14c-.52-.3-.84-.85-.84-1.45v-1.34c0-.59.32-1.15.86-1.46l.25-.14v-8.6l-.02-.3-.25-.14c-.52-.3-.84-.85-.84-1.45v-1.34c0-.59.32-1.15.84-1.45l4.2-2.41v-7.43c0-.59.32-1.15.84-1.45l22.58-12.96c.51-.3,1.16-.3,1.68,0l22.73,13.12c.52.3.84.85.84,1.45v7.57l4.2,2.43c.52.3.84.85.84,1.45v1.34c0,.6-.32,1.15-.86,1.47l-.25.14v8.59l.02.3.25.14c.52.3.84.85.84,1.45v1.34c0,.12-.01.23-.04.35l-.18.83.81-.24c4.18-1.25,8.42-2.4,12.6-3.42l.38-.09v-16.7s0-.1,0-.22c-.03-.48-.05-.9-.05-1.31,0-6.28,2.83-12.39,8.2-17.68l.15-.15v-3.59c.01-.23.06-.57.33-.94.14-.21.32-.39.52-.5l7.02-4.08.09-30.85-1.38.14c0-.13,0-.25,0-.38,0-1.47-.43-2.88-1.25-4.1-1.16-1.73-2.97-2.87-5-3.17-.02-.13-.05-.26-.08-.39-.14-.58-.34-1.15-.6-1.68.07-.48.1-.97.1-1.44,0-1-.17-1.99-.49-2.93-.25-.74-.59-1.45-1.01-2.1-.33-.51-.71-.99-1.13-1.42.26-2.92-.53-5.66-2.21-7.72-1.73-2.12-4.33-3.38-6.95-3.38-2.71,0-5.29,1.32-6.97,3.52-.34-.04-.7-.07-1.09-.06-2.29.02-4.45.92-6.1,2.55-1.06,1.04-1.86,2.35-2.31,3.78-.3.95-.45,1.94-.44,2.95,0,.65.08,1.3.21,1.93-.15.07-.29.14-.44.22-2.05,1.14-3.1,3.17-2.9,5.61-.94.86-2.28,2.56-2.09,5.2.03.41.1.82.21,1.21-.18-.04-.37-.08-.55-.11-.02-.13-.05-.26-.08-.39-.14-.58-.34-1.15-.6-1.68.07-.48.1-.97.1-1.44,0-1-.17-1.99-.49-2.93-.25-.74-.59-1.45-1.01-2.1-.33-.51-.71-.99-1.13-1.43.26-2.92-.53-5.66-2.21-7.72-1.73-2.12-4.33-3.38-6.93-3.38-2.72,0-5.31,1.32-6.99,3.52-.34-.04-.7-.06-1.09-.06-2.29.02-4.45.92-6.1,2.55-1.06,1.04-1.86,2.35-2.31,3.78-.3.95-.45,1.94-.44,2.95,0,.65.08,1.3.21,1.93-.15.07-.29.14-.44.23-2.05,1.14-3.1,3.17-2.9,5.61-.94.86-2.28,2.56-2.09,5.2.23,3.24,3.07,5.87,6.34,5.87,1.41,0,2.76-.51,3.83-1.45.79.17,1.59.22,2.43.1.81.41,1.55.76,2.16,1.05l-.2,2.55c-3.94,1-7.93,2.08-11.89,3.21l-20.7-13.01c-.58-.37-1.31-.48-1.97-.3-.67.18-1.24.63-1.56,1.24l-11.55,21.6c-.38.71-.39,1.55-.04,2.27,0,.11.02.22.04.32-3.87,1.53-7.75,3.13-11.54,4.78V26.73s2.23,1.29,2.23,1.29c.03.52.23,1.02.56,1.42l1.94,2.37c.19.23.42.43.68.58l2.4,1.39c.76.44,1.74.44,2.5,0l2.36-1.36c.77-.45,1.25-1.27,1.25-2.17v-1.41c0-.89-.48-1.72-1.25-2.16l-2.41-1.39c-.11-.07-.23-.12-.35-.17l-2.63-1.01c-4.58-2.63-5.18-2.98-5.25-3.03-.65-.41-1.67-.66-2.67-.66-1.21,0-2.35.35-3.26.99-1.11.62-2.44,1.95-2.54,4.81v36.32c-1.51.69-3.03,1.4-4.58,2.14-.03-.24-.08-.48-.17-.71-.02-.06-.05-.15-.1-.28-.03-.28-.09-.5-.15-.67l-.05-.13c-.03-.08-.06-.17-.1-.25v-15.53c.32-.37.53-.8.64-1.27.54-.65.78-1.03.92-1.47.03-.08.05-.16.07-.24.32-.69.49-1.46.49-2.21,0-2.93-2.39-5.32-5.32-5.32s-5.32,2.39-5.32,5.32c0,1.17.4,2.32,1.1,3.22.04.07.08.13.11.17.06.08.13.18.57.68.12.4.32.76.58,1.08l.04,15.52c-.09.19-.15.35-.18.45-.07.2-.11.4-.13.61l-.11.31c-.2.62-.23,1.23-.09,1.81-.01.49.05.97.18,1.44-.03.25-.07.56-.1.95-5.87,2.96-11.62,6.08-17.11,9.27l-6.59-4.15c-.58-.37-1.31-.48-1.97-.3-.67.18-1.24.63-1.57,1.24l-7.73,14.45c-3.98,2.7-7.94,5.56-11.81,8.49v-.02c0-.88-.47-1.71-1.24-2.16l-.57-.33v-2.91l.57-.33c.76-.45,1.24-1.27,1.24-2.16v-3.09c0-.88-.47-1.71-1.24-2.16l-.57-.33v-6.88c0-.88-.47-1.71-1.24-2.16l-14.91-8.72c-.76-.44-1.75-.45-2.51,0l-14.92,8.62c-.77.45-1.25,1.27-1.25,2.17v6.87l-.55.32c-.77.45-1.25,1.27-1.25,2.17v3.21c0,.88.47,1.71,1.24,2.16l.57.33v2.8l-.55.32c-.77.45-1.25,1.27-1.25,2.17v3.21c0,.88.47,1.71,1.24,2.16l.57.33v2.82l-.55.32c-.77.45-1.25,1.28-1.25,2.17v3.21c0,.88.47,1.71,1.24,2.16l.57.33v2.84l-.55.32c-.77.45-1.25,1.27-1.25,2.17v3.21c0,.88.47,1.71,1.24,2.16l.57.33v2.74l-.55.32c-.77.44-1.25,1.27-1.25,2.16v3.21s0,.05,0,.08c-4.54,5.37-8.77,10.92-12.59,16.52l-15.65,8.69c-.19.05-.37.13-.53.22-.46.26-.82.65-1.03,1.1-.19.35-.29.75-.3,1.14,0,.17.01.35.05.52l-.16,20.97C3.8,200.88,0,220.01,0,239.28c0,28.91,8.37,56.95,24.87,83.32,15.88,25.38,38.6,48.16,67.51,67.7,28.84,19.49,62.41,34.79,99.77,45.48,38.64,11.05,79.69,16.65,121.99,16.65,82.8,0,160.93-21.64,219.98-60.94,28.81-19.17,51.61-41.55,67.76-66.52,16.44-25.41,25.28-52.46,26.28-80.4,2.3-1.3,3.72-3.72,3.72-6.38,0-1.47-.43-2.88-1.25-4.1Z"/>
		</clipPath>
		<clipPath id="solution-mask" viewBox="0 0 224.16 190.46" clipPathUnits="objectBoundingBox">
			<path transform="scale(0.004461099214847,0.005250446287934)" d="m208.01,0h-91.22v.03H30.65C21.74.03,14.5,7.27,14.5,16.18v70.37l-10.2,6.11-4.3,2.57,4.3,2.57,10.2,6.11v70.4c0,1.67.25,3.28.73,4.8.32,1.01.73,1.98,1.22,2.89.25.46.52.9.81,1.33,2.32,3.44,5.94,5.94,10.14,6.8,1.05.22,2.14.33,3.25.33h177.36c8.91,0,16.15-7.24,16.15-16.15V16.15c0-8.91-7.24-16.15-16.15-16.15Z"/>
		</clipPath>
	</defs>
</svg>
