<?xml version="1.0" encoding="UTF-8"?>
<svg xmlns="http://www.w3.org/2000/svg" viewBox="0 0 165.01 159.72">
  <g>
    <g class="culture-making">
      <g class="culture-making-right-hand">
        <g class="Group_2502" data-name="Group 2502">
          <g class="Group_2501" data-name="Group 2501">
            <path class="Path_2545" data-name="Path 2545" d="m78.24,66.99c-2.1-1.31-15.3-5.21-14.21-2.51,1.09,2.7-.86-.76-2.17-.66-1.31.1-2.51,2.9-1.51,4.92s3.71,5.13,7.23,3.61c3.52-1.51,7.05,1.97,7.05,1.97l3.61-7.33Z" fill="#fff"/>
          </g>
        </g>
        <g class="Group_2503" data-name="Group 2503">
          <path class="Path_2546" data-name="Path 2546" d="m110.32,40.7c-11.82,8.53-14.25,18.99-18,22.86-.71.74-17.15-2.13-17.15-2.13l-1.75,16.96s17.4,3.34,20.04,4.35,15.09-8.57,15.09-8.57l1.77-33.46Z" fill="#bfcce0"/>
        </g>
      </g>
      <g class="culture-making-head">
        <g class="Group_2504" data-name="Group 2504">
          <path class="Ellipse_180" data-name="Ellipse 180" d="m125.84,23.83c0,4.04-3.27,10.55-7.31,10.55-4.04,0-7.31-6.51-7.31-10.55s3.27-7.31,7.31-7.31c4.04,0,7.31,3.27,7.31,7.31Z" fill="#fff"/>
        </g>
      </g>
      <g class="culture-making-body">
        <g class="Group_2495" data-name="Group 2495">
          <g class="Group_2492" data-name="Group 2492">
            <path class="Path_2538" data-name="Path 2538" d="m109.41,153.34v-12.38s-15.9,0-15.9,0c-.38,4.27-6.04,5.19-8.56,6.19-2.52,1-3.15,6.19-3.15,6.19h27.62Z" fill="#000f3c"/>
          </g>
        </g>
        <g class="Group_2499" data-name="Group 2499">
          <g class="Group_2496" data-name="Group 2496">
            <path class="Path_2541" data-name="Path 2541" d="m158.93,136.68v-9.67s-12.38,0-12.38,0v15.91c5.59,5.33-4.09,4.6-4.17,7.31-.07,2.2-.07,2.9-.07,2.9,0,0,10.77,1.39,13.69-2.9,1.77-2.68,2.78-5.8,2.92-9.01v-4.53Z" fill="#000f3c"/>
          </g>
        </g>
        <g class="Group_2500" data-name="Group 2500">
          <path class="Path_2544" data-name="Path 2544" d="m149.1,90.41l-24.32-50.35-19.58,8.67-7.66,44.34,51.56-2.65Z" fill="#aeaeae"/>
        </g>
        <path class="Path_2547" data-name="Path 2547" d="m147.23,96.98s3.72,2.52,2.44-25.2c-1.28-27.72-21.54-34.81-28.47-34.81-6.93,0-12.35,4.41-14.99,7.42-2.64,3-5.72,48.9-5.72,48.9l46.74,3.69Z" fill="#fff"/>
        <path class="Path_2549" data-name="Path 2549" d="m130.53,115.68s.71,7.5,4.79,9.67c4.03,2.14,11.91,1.67,11.91,1.67v18.29c-7.21,5.27-15.93,8.08-24.86,8.03-15.39,0-20.53-37.65-20.53-37.65h28.68Z" fill="#000f3c"/>
        <rect class="Rectangle_369" data-name="Rectangle 369" x="100.48" y="76.15" width="27.27" height="17.14" fill="#bfcce0"/>
        <g class="Group_2507" data-name="Group 2507">
          <path class="Path_2550" data-name="Path 2550" d="m98.21,94.39l-.42-3.18s6.09-44.17,8.41-46.81c1.23-1.39,2.61-2.63,4.13-3.7,8.74,15.11,3.6,41.13-12.12,53.69Z" fill="#bfcce0"/>
        </g>
        <path class="Path_2551" data-name="Path 2551" d="m111.07,90.41c-14.87,0-19.04,1.45-22.9,6.25-4.01,4.98-2.05,17.8-2.05,17.8l3.72,26.5h21.43s0-20.34,0-20.34c34.79,9.27,38.4-30.22,38.4-30.22h-38.59Z" fill="#000f3c"/>
        <path class="Path_2552" data-name="Path 2552" d="m130.95,104.77c-25.01-13.62-20.43-51.82-3.1-66.45,8.76,2.95,22.41,11.83,23.36,33.46.63,14.25-1.57,22.31-1.72,22.91-1.24,5.03-3.25,9.85-5.95,14.28-4.83-.8-9.01-2.24-12.58-4.19" fill="#bfcce0"/>
      </g>
      <g class="culture-making-structure">
        <g class="Group_2509" data-name="Group 2509">
          <rect class="Rectangle_370" data-name="Rectangle 370" x="68.27" y="8.8" width="24.8" height="24.8" fill="#ea615d"/>
          <g class="Group_2508" data-name="Group 2508">
            <rect class="Rectangle_371" data-name="Rectangle 371" x="75.16" y="15.69" width="3.67" height="3.67" fill="#c81212"/>
            <rect class="Rectangle_372" data-name="Rectangle 372" x="82.51" y="15.69" width="3.67" height="3.67" fill="#c81212"/>
            <rect class="Rectangle_373" data-name="Rectangle 373" x="75.16" y="23.04" width="3.67" height="3.67" fill="#c81212"/>
            <rect class="Rectangle_374" data-name="Rectangle 374" x="82.51" y="23.04" width="3.67" height="3.67" fill="#c81212"/>
          </g>
        </g>
        <g class="Group_2511" data-name="Group 2511">
          <rect class="Rectangle_376" data-name="Rectangle 376" x="62.81" y="33.57" width="35.71" height="35.71" fill="#c81212"/>
          <g class="Group_2510" data-name="Group 2510">
            <rect class="Rectangle_377" data-name="Rectangle 377" x="71.49" y="49.59" width="3.67" height="3.67" fill="#ea615d"/>
            <rect class="Rectangle_378" data-name="Rectangle 378" x="78.83" y="49.59" width="3.67" height="3.67" fill="#ea615d"/>
            <rect class="Rectangle_379" data-name="Rectangle 379" x="71.49" y="56.94" width="3.67" height="3.67" fill="#ea615d"/>
            <rect class="Rectangle_380" data-name="Rectangle 380" x="78.83" y="56.94" width="3.67" height="3.67" fill="#ea615d"/>
            <rect class="Rectangle_381" data-name="Rectangle 381" x="86.18" y="49.59" width="3.67" height="3.67" fill="#ea615d"/>
            <rect class="Rectangle_382" data-name="Rectangle 382" x="86.18" y="56.94" width="3.67" height="3.67" fill="#ea615d"/>
            <rect class="Rectangle_383" data-name="Rectangle 383" x="71.49" y="42.24" width="3.67" height="3.67" fill="#ea615d"/>
            <rect class="Rectangle_384" data-name="Rectangle 384" x="78.83" y="42.24" width="3.67" height="3.67" fill="#ea615d"/>
            <rect class="Rectangle_385" data-name="Rectangle 385" x="86.18" y="42.24" width="3.67" height="3.67" fill="#ea615d"/>
          </g>
        </g>
      </g>
      <g class="culture-making-left-hand">
        <g class="Group_2514" data-name="Group 2514">
          <g class="Group_2513" data-name="Group 2513">
            <path class="Path_2553" data-name="Path 2553" d="m108.49,71.47c-1.5-1.97-11.39-10.11-12.4-7.37-.17.47-.36.88-1.61.52s-6.39-.23-6.98,1.94c-1.01,3.74,4.05,6.52,7.87,6.35s7.15,4.15,7.15,4.15l5.97-5.58Z" fill="#fff"/>
          </g>
        </g>
        <g class="Group_2515" data-name="Group 2515">
          <path class="Path_2554" data-name="Path 2554" d="m130.99,72c.49,5.24-2.74,10.84-7.91,11.66-5.17.82-25.42-5.05-25.42-5.05l5.67-13.87s27.17,2.01,27.66,7.25Z" fill="#bfcce0"/>
        </g>
      </g>
      <g class="culture-making-haguruma-small">
        <path d="m39.49,50c-6.53-2.43-.48,2.02-7.35,3.19-6.87,1.16-2.62-5.03-7.98-.59-5.37,4.44,1.51,1.42-.91,7.95s-5.67-.25-4.5,6.62c1.16,6.87,1.99-.6,6.43,4.77,4.44,5.37-3.05,4.78,3.48,7.21,6.53,2.43.48-2.02,7.34-3.19,6.87-1.16,2.62,5.03,7.99.59,5.37-4.44-1.51-1.42.91-7.95,2.43-6.53,5.67.25,4.5-6.62-1.16-6.87-1.99.6-6.43-4.77-4.44-5.37,3.05-4.78-3.48-7.21Zm-2.87,7.73c3.78,1.41,5.71,5.61,4.3,9.39-1.41,3.78-5.61,5.71-9.39,4.3-3.78-1.41-5.71-5.61-4.3-9.39,1.41-3.78,5.61-5.71,9.39-4.3Z" fill="#fff"/>
        <path d="m38.26,66.13c-.86,2.32-3.44,3.5-5.75,2.63-2.32-.86-3.5-3.44-2.63-5.75.86-2.32,3.44-3.5,5.75-2.63,2.32.86,3.5,3.44,2.63,5.75h0Z" fill="#fff"/>
      </g>
      <g class="culture-making-haguruma-large">
        <path d="m42.8,85.23c-.7,0-1.39.03-2.09.12-.93.12-1.63.81-1.63,1.74v3.14c0,.81-.47,1.38-1.28,1.63-.35.11-.58.13-.93.23-.81.24-1.56-.09-1.98-.82l-1.51-2.67c-.46-.82-1.4-1.07-2.21-.7-1.75.8-3.4,1.7-4.88,2.79-.73.54-.93,1.51-.47,2.33l1.51,2.67c.38.68.23,1.51-.35,2.09-.23.23-.47.47-.7.7-.58.58-1.41.73-2.09.35l-2.67-1.51c-.82-.46-1.85-.23-2.33.47-1.04,1.52-1.99,3.13-2.79,4.88-.37.81-.12,1.75.7,2.21l2.67,1.51c.68.38,1.06,1.17.82,1.98-.11.35-.15.57-.23.93-.15.69-.81,1.28-1.63,1.28h-3.14c-.93,0-1.63.7-1.74,1.63-.12.93-.12,1.86-.12,2.79s0,1.86.12,2.79c.12.93.81,1.63,1.74,1.63h3.14c.81,0,1.38.47,1.63,1.28.11.35.13.58.23.93.24.81-.09,1.56-.82,1.97l-2.67,1.51c-.82.46-1.07,1.4-.7,2.2.8,1.75,1.7,3.4,2.79,4.88.54.73,1.51.93,2.33.47l2.67-1.51c.68-.38,1.51-.23,2.09.35.23.23.47.46.7.69.58.58.73,1.41.35,2.09l-1.51,2.67c-.46.82-.23,1.85.47,2.33,1.52,1.04,3.13,1.99,4.88,2.79.81.37,1.75.12,2.21-.69l1.51-2.68c.38-.68,1.17-1.05,1.98-.81.35.11.57.15.93.23.69.15,1.28.81,1.28,1.63v3.14c0,.93.7,1.63,1.63,1.74.93.12,1.86.12,2.79.12s1.86,0,2.79-.12c.93-.12,1.63-.81,1.63-1.74v-3.14c0-.81.47-1.38,1.28-1.63.35-.11.58-.13.93-.23.81-.24,1.56.08,1.98.81l1.51,2.68c.46.82,1.4,1.06,2.2.69,1.75-.8,3.4-1.7,4.88-2.79.73-.54.93-1.51.47-2.33l-1.51-2.67c-.38-.68-.23-1.51.35-2.09.23-.23.46-.46.69-.69.58-.58,1.41-.73,2.09-.35l2.68,1.51c.82.46,1.85.23,2.32-.47,1.04-1.52,2-3.13,2.79-4.88.37-.81.12-1.74-.7-2.2l-2.67-1.51c-.68-.38-1.06-1.16-.82-1.97.11-.35.15-.57.23-.93.15-.69.81-1.28,1.63-1.28h3.14c.93,0,1.63-.7,1.74-1.63.12-.93.12-1.86.12-2.79s0-1.86-.12-2.79c-.12-.93-.81-1.63-1.74-1.63h-3.14c-.81,0-1.38-.47-1.63-1.28-.11-.35-.13-.58-.23-.93-.24-.81.09-1.56.82-1.98l2.67-1.51c.82-.46,1.07-1.4.7-2.21-.8-1.75-1.7-3.4-2.79-4.88-.54-.73-1.51-.93-2.32-.47l-2.68,1.51c-.68.38-1.51.24-2.09-.35-.23-.23-.46-.47-.69-.7-.58-.58-.73-1.41-.35-2.09l1.51-2.67c.46-.82.23-1.85-.47-2.33-1.52-1.04-3.13-1.99-4.88-2.79-.81-.37-1.74-.12-2.2.7l-1.51,2.67c-.38.68-1.17,1.06-1.98.82-.35-.11-.57-.15-.93-.23-.69-.15-1.28-.81-1.28-1.63v-3.14c0-.93-.7-1.62-1.63-1.74-.93-.12-1.86-.12-2.79-.12-.23,0-.47,0-.7,0h0Zm.7,9.83c11,0,19.91,8.92,19.91,19.91s-8.91,19.91-19.91,19.91-19.91-8.91-19.91-19.91,8.92-19.91,19.91-19.91Z" fill="#ffd6a5"/>
        <path d="m43.5,102.2c-7.06,0-12.78,5.72-12.78,12.77s5.72,12.78,12.78,12.78,12.77-5.72,12.77-12.78-5.72-12.77-12.77-12.77Zm-.18,5.9c.06,0,.12,0,.18,0,3.8,0,6.88,3.08,6.88,6.87s-3.08,6.88-6.88,6.88-6.88-3.08-6.88-6.88,2.98-6.78,6.7-6.87Z" fill="#ffd6a5"/>
      </g>
      <rect width="165.01" height="159.72" fill="none"/>
    </g>
  </g>
</svg>