<?xml version="1.0" encoding="UTF-8"?>
<svg xmlns="http://www.w3.org/2000/svg" xmlns:xlink="http://www.w3.org/1999/xlink" viewBox="0 0 229.99 336.05">
  <defs>
    <linearGradient id="_名称未設定グラデーション_30" data-name="名称未設定グラデーション 30" x1="115.24" y1="25.33" x2="115.24" y2="140.84" gradientUnits="userSpaceOnUse">
      <stop offset="0" stop-color="#fff"/>
      <stop offset=".09" stop-color="#f9f9f9"/>
      <stop offset=".19" stop-color="#eaeaea"/>
      <stop offset=".31" stop-color="#d1d1d1"/>
      <stop offset=".44" stop-color="#aeaeae"/>
      <stop offset=".57" stop-color="#818181"/>
      <stop offset=".71" stop-color="#4a4a4a"/>
      <stop offset=".85" stop-color="#0a0a0a"/>
      <stop offset=".87" stop-color="#000"/>
    </linearGradient>
    <mask id="mask" x="20.57" y="25.33" width="189.34" height="184.91" maskUnits="userSpaceOnUse">
      <rect x="20.57" y="25.33" width="189.34" height="115.51" fill="url(#_名称未設定グラデーション_30)"/>
    </mask>
  </defs>
  <g>
    <g id="culture-otedama">
      <g id="culture-otedama-body">
        <g id="Group_4434" data-name="Group 4434">
          <path id="Ellipse_278" data-name="Ellipse 278" d="m114.89,90.38c6.17-.02,11.18,4.96,11.2,11.13s-4.95,15.41-11.12,15.43c-6.17.02-11.19-9.19-11.21-15.36-.02-6.17,4.96-11.18,11.13-11.2Z" fill="#fff"/>
        </g>
        <g id="Group_4435" data-name="Group 4435">
          <path id="Path_3518" data-name="Path 3518" d="m154.24,200.16l-11.2-63.61-56.01.18-10.8,63.68,78.01-.24Z" fill="#fff"/>
        </g>
        <g id="Group_4443" data-name="Group 4443">
          <path id="Path_3523" data-name="Path 3523" d="m116.01,221.22l11.23,95.68,41.89-.13-14.89-116.62-78.01.24-14.16,116.71,41.89-.13,10.63-95.75h1.41Z" fill="#000f3c"/>
        </g>
        <g id="Group_4447" data-name="Group 4447">
          <g id="Group_4444" data-name="Group 4444">
            <path id="Path_3524" data-name="Path 3524" d="m183.87,335.62s-.99-7.92-4.84-9.43c-3.85-1.51-17.52-2.88-18.12-9.39l-28.1.09.06,18.89,51-.16Z" fill="#000f3c"/>
          </g>
        </g>
        <g id="Group_4451" data-name="Group 4451">
          <g id="Group_4448" data-name="Group 4448">
            <path id="Path_3527" data-name="Path 3527" d="m46.65,336.05s.94-7.93,4.78-9.46c3.84-1.54,17.5-2.99,18.06-9.5l28.1-.09.06,18.89-51,.16Z" fill="#000f3c"/>
          </g>
        </g>
        <path id="Path_3531" data-name="Path 3531" d="m96.56,123.38c5.74-2.77,12.04-4.16,18.41-4.07,9.78.42,14.38,1.81,17.74,4.04l-1.1,65.76-25.98.08-9.07-65.82Z" fill="#fff"/>
        <g id="Group_4455" data-name="Group 4455">
          <path id="Path_3534" data-name="Path 3534" d="m158.96,166.76c-9.32-26.54-18.06-43.67-32.84-46.15-7.34,13.89-11,45.09-11,45.09,0,0-6.51,34,3.22,49.82,6.97,11.33,28.22,5.67,38.73,6.88l-3.85-41.92,5.74-13.73Z" fill="#bfcce0"/>
        </g>
        <g id="Group_4455-2" data-name="Group 4455">
          <path id="Path_3534-2" data-name="Path 3534" d="m71.13,167.03c9.16-26.6,17.78-43.79,32.55-46.35,7.43,13.84,11.28,45.02,11.28,45.02,0,0,6.72,33.96-2.91,49.84-6.9,11.37-28.18,5.85-38.68,7.12l3.59-41.94-5.82-13.69Z" fill="#bfcce0"/>
        </g>
      </g>
      <g id="culture-otedama-right-hand">
        <g id="Group_4437" data-name="Group 4437">
          <g id="Group_4436" data-name="Group 4436">
            <path id="Path_3519" data-name="Path 3519" d="m52.54,150.37s-3.01-7.77-8.69-9.16c-5.68-1.4-9.98-8.24-9.34-11.61.64-3.37,4.7-3.38,6.21-2.06,2.95,2.59,6.01.17,9.87,1.04,8.73,1.98,11.74,12.66,13.1,16.19l-11.15,5.6Z" fill="#fff"/>
          </g>
        </g>
        <g id="Group_4438" data-name="Group 4438">
          <path id="Path_3520" data-name="Path 3520" d="m83.07,159.18l-18.61-23.41-15.4,14.11,32.68,45.55s19.6-51.61,20.14-52.05c2.74,3.15-7.33-21.54-18.81,15.8Z" fill="#bfcce0"/>
        </g>
      </g>
      <g id="culture-otedama-left-hand">
        <g id="Group_4437-2" data-name="Group 4437">
          <g id="Group_4436-2" data-name="Group 4436">
            <path id="Path_3519-2" data-name="Path 3519" d="m181.7,167s6.18-5.59,11.87-4.29c5.7,1.3,12.62-2.89,13.56-6.19.94-3.3-2.68-5.13-4.62-4.62-3.8.99-5.44-2.55-9.28-3.5-8.69-2.15-16.18,6.05-18.97,8.59l7.45,10.01Z" fill="#fff"/>
          </g>
        </g>
        <g id="Group_4441" data-name="Group 4441">
          <path id="Path_3522" data-name="Path 3522" d="m146.29,167.14l27.52-16.65,12.28,21.55-57.64,28.23s-3.21-56.45-3.74-56.9c-2.74,3.15,10.11-13.58,21.58,23.76Z" fill="#bfcce0"/>
        </g>
      </g>
      <g mask="url(#mask)">
        <g id="culture-otedama-goods">
          <polygon points="144.36 210.24 163.7 181 130.14 179.81 144.36 210.24" fill="#4299e0"/>
          <polygon points="65.83 194.32 79.19 208.1 97.81 203.42 103.07 184.95 89.7 171.17 71.08 175.85 65.83 194.32" fill="#c81212"/>
          <rect x="35.19" y="134.05" width="23.29" height="23.29" transform="translate(-99.57 190.27) rotate(-89.11)" fill="#1f7e48"/>
          <circle cx="51.49" cy="89.53" r="16.22" fill="#ff5462"/>
          <polygon points="90.51 36.09 71.17 65.33 104.73 66.52 90.51 36.09" fill="#4299e0"/>
          <polygon points="169.05 52.01 155.68 38.23 137.06 42.91 131.81 61.38 145.17 75.16 163.79 70.48 169.05 52.01" fill="#c81212"/>
          <rect x="176.39" y="88.99" width="23.29" height="23.29" transform="translate(291.56 -85.83) rotate(90.89)" fill="#1f7e48"/>
          <circle cx="183.39" cy="156.8" r="16.22" fill="#ff5462"/>
        </g>
      </g>
      <rect width="229.99" height="207.63" fill="none"/>
    </g>
  </g>
</svg>