<?xml version="1.0" encoding="UTF-8"?>
<svg xmlns="http://www.w3.org/2000/svg" viewBox="0 0 174.65 89.42">
  <g>
    <g class="culture-fukidashi-pale-green2">
      <g>
        <rect x="0" y="0" width="174.65" height="78.3" rx="7.24" ry="7.24" fill="#75aeba"/>
        <polygon points="104.26 69.76 70.39 69.76 87.33 89.42 104.26 69.76" fill="#75aeba"/>
        <g class="chars">
          <rect x="14.95" y="20.62" width="11.04" height="11.04" transform="translate(40.94 52.28) rotate(-180)" fill="#fff"/>
          <circle cx="37.51" cy="26.14" r="5.52" fill="#fff"/>
          <circle cx="149.27" cy="26.14" r="5.52" fill="#fff"/>
          <circle cx="98.16" cy="26.14" r="5.52" fill="#fff"/>
          <rect x="66.07" y="20.62" width="20.57" height="11.04" rx="5.52" ry="5.52" transform="translate(152.7 52.28) rotate(-180)" fill="#fff"/>
          <polygon points="49.03 31.66 60.07 31.66 54.55 20.62 49.03 31.66" fill="#fff"/>
          <polygon points="109.67 31.66 120.71 31.66 115.19 20.62 109.67 31.66" fill="#fff"/>
          <polygon points="126.71 20.62 126.71 31.66 137.75 26.14 126.71 20.62" fill="#fff"/>
          <rect x="126.71" y="44.46" width="11.04" height="11.04" transform="translate(82.25 182.22) rotate(-90)" fill="#fff"/>
          <rect x="75.6" y="44.46" width="11.04" height="11.04" transform="translate(162.23 99.97) rotate(-180)" fill="#fff"/>
          <circle cx="47.04" cy="49.98" r="5.52" fill="#fff"/>
          <circle cx="115.19" cy="49.98" r="5.52" fill="#fff"/>
          <rect x="14.95" y="44.46" width="20.57" height="11.04" rx="5.52" ry="5.52" transform="translate(50.47 99.97) rotate(180)" fill="#fff"/>
          <polygon points="69.6 55.5 69.6 44.46 58.56 49.98 69.6 55.5" fill="#fff"/>
          <polygon points="143.75 44.46 143.75 55.5 154.79 49.98 143.75 44.46" fill="#fff"/>
          <polygon points="103.68 44.46 92.64 44.46 98.16 55.5 103.68 44.46" fill="#fff"/>
        </g>
      </g>
    </g>
  </g>
</svg>