<?xml version="1.0" encoding="UTF-8"?>
<svg xmlns="http://www.w3.org/2000/svg" viewBox="0 0 255.28 130.7">
  <g calss="culture-fukidashi-pale-green">
    <g>
      <rect x="0" y="0" width="255.28" height="114.44" rx="10.59" ry="10.59" fill="#76b2ae"/>
      <polygon points="152.39 101.96 102.89 101.96 127.64 130.7 152.39 101.96" fill="#76b2ae"/>
      <g class="chars">
        <rect x="23.57" y="23.55" width="12.19" height="12.19" transform="translate(59.32 59.28) rotate(-180)" fill="#fff"/>
        <rect x="202.58" y="23.55" width="12.19" height="12.19" transform="translate(179.03 238.32) rotate(-90)" fill="#fff"/>
        <polygon points="221.37 23.55 221.37 35.74 233.56 35.74 221.37 23.55" fill="#fff"/>
        <rect x="151.86" y="23.55" width="12.19" height="12.19" transform="translate(315.9 59.28) rotate(-180)" fill="#fff"/>
        <circle cx="46.48" cy="29.64" r="6.09" fill="#fff"/>
        <circle cx="107.48" cy="29.64" r="6.09" fill="#fff"/>
        <rect x="74.04" y="23.55" width="22.7" height="12.19" rx="6.09" ry="6.09" transform="translate(170.78 59.28) rotate(180)" fill="#fff"/>
        <polygon points="57.21 35.74 69.4 35.74 63.31 23.55 57.21 35.74" fill="#fff"/>
        <circle cx="174.77" cy="29.64" r="6.09" fill="#fff"/>
        <polygon points="185.51 35.74 197.69 35.74 191.6 23.55 185.51 35.74" fill="#fff"/>
        <polygon points="118.21 35.74 130.39 35.74 124.3 23.55 118.21 35.74" fill="#fff"/>
        <polygon points="147.22 23.55 135.03 23.55 141.12 35.74 147.22 23.55" fill="#fff"/>
        <polygon points="120.92 76.19 120.92 88.37 133.11 88.37 120.92 76.19" fill="#fff"/>
        <rect x="23.57" y="76.34" width="12.19" height="12.19" transform="translate(59.32 164.87) rotate(180)" fill="#fff"/>
        <rect x="187.89" y="76.34" width="12.19" height="12.19" transform="translate(276.42 -111.54) rotate(90)" fill="#fff"/>
        <rect x="137.66" y="76.34" width="12.19" height="12.19" transform="translate(287.51 164.87) rotate(180)" fill="#fff"/>
        <circle cx="46.4" cy="82.44" r="6.09" fill="#fff"/>
        <rect x="73.79" y="76.34" width="42.58" height="12.19" rx="6.09" ry="6.09" transform="translate(190.16 164.87) rotate(-180)" fill="#fff"/>
        <polygon points="57.05 76.34 69.24 76.34 63.14 88.53 57.05 76.34" fill="#fff"/>
        <circle cx="160.5" cy="82.44" r="6.09" fill="#fff"/>
        <circle cx="210.72" cy="82.44" r="6.09" fill="#fff"/>
        <circle cx="227.47" cy="82.44" r="6.09" fill="#fff"/>
        <polygon points="171.15 76.34 183.33 76.34 177.24 88.53 171.15 76.34" fill="#fff"/>
        <rect x="86.74" y="49.87" width="12.19" height="12.19" transform="translate(185.67 111.92) rotate(-180)" fill="#fff"/>
        <circle cx="57.73" cy="55.96" r="6.09" fill="#fff"/>
        <rect x="23.57" y="49.87" width="22.7" height="12.19" rx="6.09" ry="6.09" transform="translate(69.84 111.92) rotate(-180)" fill="#fff"/>
        <polygon points="81.38 62.05 81.38 49.87 69.19 55.96 81.38 62.05" fill="#fff"/>
        <circle cx="191.12" cy="55.96" r="6.09" fill="#fff"/>
        <rect x="139.4" y="49.87" width="40.26" height="12.19" rx="6.09" ry="6.09" transform="translate(319.07 111.92) rotate(180)" fill="#fff"/>
        <polygon points="214.77 62.05 214.77 49.87 202.58 55.96 214.77 62.05" fill="#fff"/>
        <polygon points="134.04 49.87 121.85 49.87 127.94 62.05 134.04 49.87" fill="#fff"/>
        <polygon points="105.18 62.05 117.37 62.05 111.27 49.87 105.18 62.05" fill="#fff"/>
      </g>
    </g>
  </g>
</svg>