<?xml version="1.0" encoding="UTF-8"?>
<svg xmlns="http://www.w3.org/2000/svg" viewBox="0 0 109.91 176.29">
  <g class="culture-annai">
    <g class="culture-annai-body">
      <g class="Group_2465" data-name="Group 2465">
        <path class="Ellipse_177" data-name="Ellipse 177" d="m63.28,7.5c4.22,0,7.63,3.42,7.63,7.63s-3.42,10.23-7.63,10.23-7.63-6.02-7.63-10.23,3.42-7.63,7.63-7.63Z" fill="#fff"/>
      </g>
      <g class="Group_2466" data-name="Group 2466">
        <path class="Path_2520" data-name="Path 2520" d="m89.94,83.62l-7.52-43.51h-38.29l-7.52,43.51h53.33Z" fill="#fff"/>
      </g>
      <g class="Group_2470" data-name="Group 2470">
        <path class="Path_2523" data-name="Path 2523" d="m63.76,97.94l7.47,65.43h28.63l-9.93-79.75h-53.33l-9.93,79.75h28.63l7.47-65.43h.97Z" fill="#000f3c"/>
      </g>
      <g class="Group_2474" data-name="Group 2474">
        <g class="Group_2471" data-name="Group 2471">
          <path class="Path_2524" data-name="Path 2524" d="m109.91,176.29s-.66-5.42-3.29-6.46c-2.63-1.04-11.97-2.01-12.37-6.46h-19.21v12.92h34.86Z" fill="#000f3c"/>
        </g>
      </g>
      <g class="Group_2478" data-name="Group 2478">
        <g class="Group_2475" data-name="Group 2475">
          <path class="Path_2527" data-name="Path 2527" d="m16.11,176.29s.66-5.42,3.29-6.46c2.63-1.04,11.97-2.01,12.37-6.46h19.21v12.92H16.11Z" fill="#000f3c"/>
        </g>
      </g>
      <g class="Group_2479" data-name="Group 2479">
        <path class="Path_2530" data-name="Path 2530" d="m89.94,83.62l-1.04-6.01h-51.25l-1.04,6.01h53.33Z" fill="#800900"/>
      </g>
      <path class="Path_2531" data-name="Path 2531" d="m50.68,31.01c3.93-1.88,8.24-2.82,12.6-2.74,6.69.31,11.49,1.54,13.79,3.07l-2.56,44.68h-17.76l-6.06-45.01Z" fill="#fff"/>
      <path class="Path_2532" data-name="Path 2532" d="m88.97,59.63c-6.6-21.48-7.97-28.72-18.07-30.44-5.05,9.48-8.6,17.16-8.55,27.9,0,7.69-1.3,27.08,1.13,32.7,4.68,10.81,17.03,7.72,28.36,9.06l-.54-4.37-2.33-34.84Z" fill="#bfcce0"/>
      <path class="Path_2533" data-name="Path 2533" d="m33.32,60.8c6.32-18.16,12.25-29.89,22.35-31.62,5.05,9.48,7.66,20.06,7.61,30.8,0,9.84,3.14,25.15-.75,31.52-4.99,8.19-18.13,6.19-27.81,7.33l2.54-28.66-3.95-9.37Z" fill="#bfcce0"/>
      <g class="Group_2482" data-name="Group 2482">
        <path class="Path_2534" data-name="Path 2534" d="m70.89,29.19s11.1.57,17.79,16.52c8.3,19.8,12.64,34.68,1.27,37.91-11.37,3.24-15.38,4.68-15.38,4.68l-3.09-35.19-.58-9.74v-14.19Z" fill="#bfcce0"/>
        <path class="Path_2534-2" data-name="Path 2534" d="m70.89,29.19s11.1.57,17.79,16.52c8.3,19.8,12.64,34.68,1.27,37.91-11.37,3.24-15.38,4.68-15.38,4.68l-3.09-35.19-.58-9.74v-14.19Z" fill="#bfcce0"/>
      </g>
      <g class="Group_2483" data-name="Group 2483">
        <rect class="Rectangle_364" data-name="Rectangle 364" x="47.92" y="55.15" width="41.86" height="28.43" transform="translate(-16.7 116.61) rotate(-74.12)" fill="#c81212"/>
      </g>
      <g class="Group_2486" data-name="Group 2486">
        <g class="Group_2485" data-name="Group 2485">
          <path class="Path_2535" data-name="Path 2535" d="m52.43,67.87c.43,2.31.15,4,4.14,3.82,3.99-.18,7.46,4.33,7.46,4.33l6.23-5.82c-1.57-2.06-9.68-9.66-13.89-8.34-2.22.27-4.35,3.88-3.95,6Z" fill="#fff"/>
        </g>
      </g>
      <path class="Path_2536" data-name="Path 2536" d="m64.89,63.18l-5.92,14.47s24.21,9.21,29.6,8.35c5.39-.85,8.76-6.7,8.26-12.17-.51-5.47-31.94-10.66-31.94-10.66Z" fill="#bfcce0"/>
      <g>
        <path d="m53.26,11.55c0-6.38,4.49-11.55,10.02-11.55s10.02,5.17,10.02,11.55h-20.05Z" fill="#c81212"/>
        <g>
          <line x1="61.8" y1="8.72" x2="64.76" y2="8.72" fill="none" stroke="#fff" stroke-miterlimit="10" stroke-width=".78"/>
          <line x1="63.28" y1="10.09" x2="63.28" y2="7.34" fill="none" stroke="#fff" stroke-miterlimit="10" stroke-width=".78"/>
        </g>
        <g>
          <line x1="56.7" y1="9.53" x2="60.59" y2="9.53" fill="none" stroke="#fff" stroke-miterlimit="10" stroke-width=".54"/>
          <line x1="56.7" y1="8.06" x2="60.59" y2="8.06" fill="none" stroke="#fff" stroke-miterlimit="10" stroke-width=".54"/>
          <g>
            <line x1="65.97" y1="9.53" x2="69.86" y2="9.53" fill="none" stroke="#fff" stroke-miterlimit="10" stroke-width=".54"/>
            <line x1="65.97" y1="8.06" x2="69.86" y2="8.06" fill="none" stroke="#fff" stroke-miterlimit="10" stroke-width=".54"/>
          </g>
        </g>
        <rect x="52.46" y="10.71" width="21.65" height="1.86" fill="#c81212"/>
      </g>
    </g>
    <g class="culture-annai-right-hand">
      <g class="Group_4437" data-name="Group 4437">
        <g class="Group_4436" data-name="Group 4436">
          <path class="Path_3519" data-name="Path 3519" d="m17.78,59.78s-4.37-3.65-8.22-2.61c-3.86,1.04-8.69-1.63-9.43-3.86-.73-2.23,1.69-3.57,3.03-3.28,2.62.57,3.65-1.89,6.25-2.64,5.87-1.7,11.21,3.69,13.19,5.35l-4.81,7.04Z" fill="#fff"/>
        </g>
      </g>
      <path class="Path_2522" data-name="Path 2522" d="m40.81,59.63l-18.81-11.38-8.39,14.74,28.19,15.98s13.4-35.28,13.77-35.58c1.87,2.15-6.91-9.28-14.76,16.24Z" fill="#bfcce0"/>
    </g>
  </g>
</svg>