<?xml version="1.0" encoding="UTF-8"?>
<svg xmlns="http://www.w3.org/2000/svg" viewBox="0 0 104.39 111.34">
  <g>
    <g id="ball-game">
      <g id="ball-game-racket">
        <path d="m3.97,78.65c4.04,1.5,8.42,3.44,12.76,5.69,4.33,2.24,8.38,4.65,11.9,7.04,4.17-1.27,7.94-4.34,10.84-9.57,7.96-14.34,3.19-24.72-6.15-29.55-9.34-4.83-20.41-1.99-27.67,12.05-2.75,5.32-3.08,10.19-1.67,14.34Z" fill="#a11212"/>
        <path d="m26.68,91.83c-3.19-2.11-6.8-4.22-10.63-6.2-3.84-1.99-7.69-3.73-11.32-5.13,1.09,2.22,3.57,3.54,4.73,5.91,2.82,5.74-7.14,18.24-9.34,20.68-.34.38.09.91.09.91l6.44,3.33s.71.07.82-.41c.73-3.24,7.25-18.18,12.12-19.18,2.34-.48,4.86.47,7.09.1Z" fill="#ff8000"/>
      </g>
      <g id="ball-game-soccer">
        <path d="m102.16,74.67c-.41,2.19-.81,4.39-1.22,6.58.12,1.41.24,2.81.36,4.22.08.93.16,1.86.24,2.79.01.15.05.35.07.56.44.13.88.26,1.32.39.93-2.39,1.45-4.98,1.45-7.7,0-2.28-.37-4.47-1.03-6.53-.38-.1-.76-.2-1.14-.3-.02,0-.03,0-.05-.01Z" fill="#bfcce0"/>
        <path d="m67.11,92.27c-.13-.94-.25-1.88-.38-2.82-.19-1.43-.38-2.86-.57-4.29-1.02-2.09-2.03-4.18-3.05-6.27-.27.12-.54.21-.7.29-.04.02-.09.04-.13.07-.08.74-.12,1.5-.12,2.26,0,4.55,1.44,8.76,3.89,12.21.37-.34.74-.67,1.11-1.01-.02-.16-.03-.32-.04-.44Z" fill="#bfcce0"/>
        <path d="m82.2,62.27c.93.35,1.87.7,2.8,1.05,1.33.5,2.67,1,4.01,1.5,2.06.18,4.13.36,6.19.55.03-.43.1-.86.11-1.12,0-.03,0-.07,0-.1-3.41-2.37-7.56-3.77-12.03-3.77-.6,0-1.2.03-1.79.08.03.51.07,1.03.1,1.54.22.09.44.2.61.26Z" fill="#bfcce0"/>
        <path d="m67.15,69.05c2.27-.73,4.54-1.47,6.8-2.2,1.18-.86,2.36-1.71,3.54-2.57.76-.55,1.52-1.1,2.28-1.66.17-.12.38-.32.6-.48-.03-.51-.07-1.02-.1-1.53-5.4.77-10.14,3.58-13.42,7.63.05.13.09.27.14.4.05.13.1.27.16.41Z" fill="#bfcce0"/>
        <path d="m81.24,102.25c-.19.03-.13.04,0,0h0Z" fill="#fff"/>
        <path d="m79.69,91.23c-1.12,1.76-2.24,3.51-3.35,5.27,1.64,1.51,3.29,3.02,4.93,4.52,1.25-.14,2.5-.29,3.76-.43,1.54-.18,3.08-.35,4.62-.53,1.29-1.83,2.57-3.66,3.86-5.48-1.48-1.5-2.97-3-4.45-4.5-3.12.38-6.24.76-9.36,1.15Z" fill="#bfcce0"/>
        <path d="m97.9,69.81c-.79-1.07-1.58-2.13-2.36-3.2-2.06-.18-4.12-.36-6.18-.54-.49,2.16-.98,4.32-1.47,6.48,1.79,2.53,3.58,5.06,5.36,7.58,2.19.15,4.39.29,6.58.44.4-2.17.81-4.34,1.21-6.51-1.05-1.42-2.09-2.83-3.14-4.25Z" fill="#bfcce0"/>
        <path d="m98.07,92.33c-1.11.87-2.22,1.74-3.34,2.61-1.28,1.82-2.57,3.65-3.85,5.47.25.15.48.32.71.5,4.8-2.06,8.68-5.85,10.86-10.58-.42-.13-.84-.25-1.26-.38-.92.89-2.13,1.61-3.12,2.38Z" fill="#bfcce0"/>
        <path d="m80.2,101.7c-1.67-1.53-3.33-3.06-5-4.59-2.43-1.15-4.86-2.3-7.29-3.46-.38.34-.76.69-1.14,1.03,3.16,3.95,7.71,6.74,12.91,7.63.1-.12.21-.24.31-.36.07-.08.14-.17.21-.26Z" fill="#bfcce0"/>
        <path d="m73.93,68.14c-2.24.73-4.49,1.45-6.73,2.18-.55,1.33-1.1,2.67-1.65,4-.51,1.23-1.01,2.46-1.52,3.69,1.02,2.09,2.04,4.18,3.05,6.28,2.09-.44,4.18-.89,6.26-1.33,1.24-3,2.49-6,3.73-9.01-1.05-1.93-2.1-3.87-3.15-5.8Z" fill="#bfcce0"/>
        <path d="m88.85,88.88c1.12-2.69,2.25-5.39,3.37-8.08-1.76-2.49-3.52-4.98-5.28-7.47-2.92.38-5.84.75-8.75,1.13-1.23,2.97-2.47,5.95-3.7,8.92,1.71,2.21,3.41,4.42,5.12,6.64,3.08-.38,6.17-.76,9.25-1.13Z" fill="#bfcce0"/>
        <path d="m101.62,88.81c-.02-.21-.06-.4-.07-.56-.08-.93-.16-1.86-.24-2.79-.12-1.41-.24-2.81-.36-4.22.41-2.19.81-4.39,1.22-6.58.02,0,.03,0,.05.01.38.1.76.2,1.14.3-1.44-4.43-4.3-8.22-8.05-10.82,0,.03,0,.07,0,.1,0,.25-.08.69-.11,1.12-2.06-.18-4.13-.36-6.19-.55-1.34-.5-2.67-1-4.01-1.5-.93-.35-1.87-.7-2.8-1.05-.17-.06-.39-.17-.61-.26-.03-.51-.07-1.03-.1-1.54-.41.03-.81.08-1.21.13.03.51.07,1.02.1,1.53-.23.16-.44.36-.6.48-.76.55-1.52,1.1-2.28,1.66-1.18.86-2.36,1.72-3.54,2.57-2.27.73-4.54,1.47-6.8,2.2-.06-.14-.12-.28-.16-.41-.05-.13-.09-.27-.14-.4-2.49,3.07-4.13,6.86-4.57,11.01.04-.02.09-.04.13-.07.16-.08.43-.17.7-.29,1.02,2.09,2.03,4.18,3.05,6.27.19,1.43.38,2.86.57,4.29.13.94.25,1.88.38,2.82.02.12.02.28.04.44-.37.34-.74.67-1.11,1.01.24.33.48.66.73.97.38-.34.76-.69,1.14-1.03,2.43,1.15,4.86,2.3,7.29,3.46,1.67,1.53,3.33,3.06,5,4.59-.07.09-.14.18-.21.26-.1.12-.21.24-.31.36,1.17.2,2.36.31,3.58.31,2.96,0,5.77-.61,8.32-1.71-.23-.18-.47-.35-.71-.5,1.28-1.82,2.57-3.65,3.85-5.47,1.11-.87,2.23-1.74,3.34-2.61.98-.77,2.2-1.5,3.12-2.38.42.13.84.25,1.26.38.17-.37.33-.75.48-1.13-.44-.13-.88-.26-1.32-.39Zm-5.17-23.02s-.02-.04-.02-.04c0,0,0,.01.02.04Zm-29.36,18.49c-1.02-2.09-2.04-4.18-3.05-6.28.51-1.23,1.01-2.46,1.52-3.69.55-1.33,1.1-2.67,1.65-4,2.24-.72,4.49-1.45,6.73-2.18,1.05,1.93,2.1,3.87,3.15,5.8-1.24,3-2.49,6-3.73,9.01-2.09.44-4.18.89-6.26,1.33Zm7.4-.9c1.23-2.97,2.47-5.95,3.7-8.92,2.92-.38,5.84-.75,8.75-1.13,1.76,2.49,3.52,4.98,5.28,7.47-1.12,2.69-2.25,5.39-3.37,8.08-3.08.38-6.17.76-9.25,1.13-1.7-2.21-3.41-4.42-5.12-6.64Zm6.75,18.87c-.13.04-.19.03,0,0h0Zm8.41-2.18c-1.54.18-3.08.35-4.62.53-1.25.14-2.51.28-3.76.43-1.64-1.51-3.29-3.02-4.93-4.52,1.12-1.76,2.24-3.51,3.35-5.27,3.12-.38,6.24-.76,9.36-1.15,1.48,1.5,2.97,3,4.45,4.5-1.29,1.83-2.57,3.65-3.86,5.48Zm3.6-19.93c-1.79-2.53-3.58-5.06-5.36-7.58.49-2.16.98-4.32,1.47-6.48,2.06.18,4.12.36,6.18.54.79,1.07,1.58,2.13,2.36,3.2,1.05,1.42,2.09,2.83,3.14,4.25-.4,2.17-.8,4.34-1.21,6.51-2.19-.15-4.39-.29-6.58-.44Z" fill="#005e83"/>
      </g>
      <g id="ball-game-basket">
        <ellipse cx="55.28" cy="24.55" rx="24.57" ry="24.55" fill="#ffc1a6"/>
        <g>
          <path d="m59.21,18.57c-.21-2.6.22-5.36,1.18-7.94-.81-.22-1.62-.42-2.43-.59-1.18-.24-2.44-.44-3.78-.58-1.8,4.01-3.78,9.75-4.25,16.39-.62,8.79,1.53,16.59,6.4,23.26,5.49-.23,10.61-2.29,14.66-5.66-.74-5.5-3.46-9.18-6.11-12.75-2.59-3.49-5.27-7.1-5.67-12.14Z" fill="#a13f30"/>
          <path d="m44.92,2.29c.62,1.57.88,3.22.87,4.87,2.27-.31,4.57-.41,6.89-.28,1.23-2.52,2.63-4.86,4.05-6.84-4.19-.25-8.22.57-11.82,2.25Z" fill="#a13f30"/>
          <path d="m55.31,7.12s.01,0,.02,0c1.04.13,2.08.3,3.13.52,1,.21,1.99.45,2.95.72.17-.33.35-.65.54-.96,1.16-1.93,2.61-3.56,4.27-4.83-2.06-1.02-4.29-1.77-6.65-2.18-1.34,1.7-2.82,3.95-4.25,6.74Z" fill="#a13f30"/>
          <path d="m72.77,16.43c-3.06-2.15-6.46-3.87-10.01-5.08-.89,2.32-1.28,4.79-1.1,7.02.34,4.34,2.7,7.51,5.19,10.87,2.45,3.31,5.18,6.98,6.28,12.2,3.48-3.67,5.86-8.45,6.53-13.85.19-1.5.23-2.98.15-4.44-1.68-2.33-4.13-4.68-7.04-6.72Z" fill="#a13f30"/>
          <path d="m47.48,25.68c.46-6.53,2.31-12.24,4.09-16.38-1.89-.05-3.9.05-5.98.37-.47,3.03-1.7,5.91-3.11,8.1-.8,1.25-1.83,2.55-2.92,3.94-3.01,3.82-6.35,8.07-6.66,13,3.42,7.53,10.55,13.15,19.36,14.25.35.04.7.08,1.05.11-1.86-2.83-3.29-5.86-4.28-9.06-1.38-4.47-1.9-9.29-1.55-14.31Z" fill="#a13f30"/>
          <path d="m30.91,21.54c-.37,2.98-.19,5.91.46,8.67,1.37-3.81,3.98-7.13,6.26-10.03,1.05-1.34,2.05-2.6,2.78-3.75,1.16-1.8,2.1-4,2.57-6.26-3.27.78-6.68,2.13-10.1,4.29-.99,2.19-1.67,4.56-1.98,7.07Z" fill="#a13f30"/>
          <path d="m68.57,3.9c-2,1.3-3.6,3.14-4.76,5.22,6.32,2.21,11.63,5.74,15.31,9.46-1.52-6.06-5.32-11.32-10.55-14.68Z" fill="#a13f30"/>
          <path d="m35.24,10.36c2.37-1.14,4.82-2.01,7.35-2.61.24-.06.48-.11.71-.16.05-1.43-.12-2.83-.58-4.14-2.94,1.75-5.49,4.1-7.49,6.91Z" fill="#a13f30"/>
        </g>
      </g>
    </g>
  </g>
</svg>