<?xml version="1.0" encoding="UTF-8"?>
<svg xmlns="http://www.w3.org/2000/svg" viewBox="0 0 134.14 136.44">
  <g>
    <g>
      <path d="m93.21,56.93h7.31c4.4,0,7.97,3.57,7.97,7.97v10.83h-15.28v-18.8h0Z" fill="#800900"/>
      <path id="Path_3519" data-name="Path 3519" d="m77.63,54.69s2.51,3.53,5.55,3.5c3.04-.02,6.08,2.87,6.19,4.65.11,1.78-1.93,2.3-2.86,1.83-1.82-.92-3.05.68-5.1.74-4.65.12-7.54-4.87-8.67-6.48l4.9-4.25Z" fill="#00559a"/>
      <path id="Ellipse_177" data-name="Ellipse 177" d="m50.96,3.54c-3.21,0-5.8,2.6-5.8,5.8,0,3.21,2.6,7.78,5.8,7.78,3.21,0,5.8-4.57,5.8-7.78,0-3.21-2.6-5.8-5.8-5.8Z" fill="#00559a"/>
      <path id="Path_2520" data-name="Path 2520" d="m30.69,61.41l5.72-33.08h29.11s5.72,33.08,5.72,33.08H30.69Z" fill="#fff"/>
      <path id="Path_2522" data-name="Path 2522" d="m72.61,41.4l10.57,13.72-9.26,8.98-11.64-12.62,10.32-10.07Z" fill="#e3526d"/>
      <path id="Path_2523" data-name="Path 2523" d="m50.6,72.3l-5.68,49.75h-21.77s7.55-60.63,7.55-60.63h40.54s7.55,60.63,7.55,60.63h-21.77s-5.68-49.75-5.68-49.75h-.74Z" fill="#000f3c"/>
      <path id="Path_2524" data-name="Path 2524" d="m15.51,131.87s.5-4.12,2.5-4.91c2-.79,9.1-1.53,9.4-4.91h14.6v9.82H15.51Z" fill="#000f3c"/>
      <path id="Path_2527" data-name="Path 2527" d="m86.83,131.87s-.5-4.12-2.5-4.91c-2-.79-9.1-1.53-9.4-4.91h-14.6s0,9.82,0,9.82h26.51Z" fill="#000f3c"/>
      <path id="Path_2530" data-name="Path 2530" d="m30.69,61.41l.79-4.57h38.96s.79,4.57.79,4.57H30.69Z" fill="#800900"/>
      <path id="Path_2531" data-name="Path 2531" d="m60.54,21.42c-2.99-1.43-6.27-2.14-9.58-2.08-5.08.23-8.74,1.17-10.48,2.33l1.95,33.97h13.5s4.61-34.22,4.61-34.22Z" fill="#00559a"/>
      <path id="Path_2532" data-name="Path 2532" d="m31.43,43.17c5.02-16.33,6.06-21.83,13.74-23.14,3.84,7.21,6.54,13.05,6.5,21.21,0,5.85.99,20.59-.86,24.86-3.56,8.22-12.95,5.87-21.57,6.89l.41-3.32,1.77-26.49Z" fill="#e3526d"/>
      <path id="Path_2533" data-name="Path 2533" d="m73.74,44.07c-4.8-13.81-9.31-22.73-16.99-24.04-3.84,7.21-5.83,15.25-5.79,23.42,0,7.48-2.39,19.12.57,23.96,3.8,6.23,13.78,4.71,21.15,5.58l-1.93-21.79,3-7.12Z" fill="#e3526d"/>
      <g id="family-parent-left-hand">
        <path id="Path_3519-2" data-name="Path 3519" d="m23.51,62.91s-.04,4.33-2.54,6.05c-2.5,1.72-3.34,5.84-2.41,7.36.93,1.52,2.9.78,3.39-.14.96-1.8,2.89-1.18,4.6-2.32,3.88-2.56,3.38-8.31,3.39-10.27l-6.45-.68Z" fill="#00559a"/>
        <path id="Path_2534" data-name="Path 2534" d="m41.96,69.81l2.78-31.59.44-7.4v-10.79s-8.44.44-13.52,12.56c-7.68,17.61-11.23,34.34-11.23,34.34l21.54,2.88Z" fill="#e3526d"/>
      </g>
      <path id="Ellipse_177-2" data-name="Ellipse 177" d="m93.06,42.47c-2.98,0-5.39,2.41-5.39,5.39,0,2.98,2.41,7.23,5.39,7.23s5.39-4.25,5.39-7.23c0-2.98-2.41-5.39-5.39-5.39Z" fill="#00559a"/>
      <path id="Path_2524-2" data-name="Path 2524" d="m81.56,131.87s.29-2.35,1.43-2.8c1.14-.45,5.2-.87,5.37-5.73h4.86v8.53h-11.65Z" fill="#c81212"/>
      <path id="Path_2524-3" data-name="Path 2524" d="m111.07,131.87s-.29-2.35-1.43-2.8-5.2-.87-5.37-5.73h-4.86v8.53h11.65Z" fill="#c81212"/>
      <path d="m101.86,60.74s.07.02.1.04h0" fill="#bfcce0"/>
      <path d="m117.76,126.71l-6.91-35.09-32.93.02-6,35.09s4.57-3.34,9.49-1.15c4.92,2.19,10.36-.09,12.56-.33,4.05-.44,8.09,4.6,14.66.87,4.04-2.3,9.15.59,9.15.59Z" fill="#538f68"/>
      <path d="m77.57,92.76c1.45-14.86,3.33-26.82,5.76-30.97,2.59-6.49,17.62-7.88,21,1.58,1.9,5.31,4.77,13.83,6.8,29.08l-33.56.31Z" fill="#e3526d"/>
      <rect x="92.17" y="64.18" width="1.79" height="1.79" fill="#fff"/>
      <rect x="92.17" y="70.25" width="1.79" height="1.79" fill="#fff"/>
      <rect x="92.17" y="76.32" width="1.79" height="1.79" fill="#fff"/>
      <g id="family-child-right-hand">
        <path id="Path_3519-3" data-name="Path 3519" d="m114.73,83.82s.94,1.97,2.45,2.23c1.51.25,2.77,1.96,2.67,2.86s-1.16.97-1.58.66c-.82-.62-1.57.07-2.6-.08-2.32-.35-3.32-3.08-3.74-3.98l2.81-1.68Z" fill="#00559a"/>
        <path d="m103.69,61.86l14.08,21.37-9.16,5.81-12.08-23.09s.14-2.83,2.91-3.77c3.12-1.06,4.26-.31,4.26-.31Z" fill="#e3526d"/>
      </g>
      <g id="family-child-left-hand">
        <path id="Path_3519-4" data-name="Path 3519" d="m72.06,83.82s-.94,1.97-2.45,2.23-2.77,1.96-2.67,2.86,1.16.97,1.58.66c.82-.62,1.57.07,2.6-.08,2.32-.35,3.32-3.08,3.74-3.98l-2.81-1.68Z" fill="#00559a"/>
        <path d="m83.73,62.35l-14.71,20.89,9.16,5.81s12.02-21.51,11.69-23.53.18-2.37-2.21-3.57-3.94.41-3.94.41Z" fill="#e3526d"/>
      </g>
      <path d="m83.87,74.54h-1.82v-11.99c0-2.01,1.63-3.65,3.65-3.65h0l-1.82,15.64Z" fill="#c81212"/>
      <path d="m101.86,73.86h1.82s0-11.99,0-11.99c0-2.01-1.63-3.65-3.65-3.65h0l1.82,15.64Z" fill="#c81212"/>
      <rect x="0" width="134.14" height="136.44" fill="none"/>
    </g>
  </g>
</svg>