<?xml version="1.0" encoding="UTF-8"?>
<svg xmlns="http://www.w3.org/2000/svg" viewBox="0 0 66.31 118.61">
  <g>
    <g>
      <g id="Group_4456" data-name="Group 4456">
        <g id="Group_4434" data-name="Group 4434">
          <path id="Ellipse_278" data-name="Ellipse 278" d="m33.35,0c2.98,0,5.4,2.42,5.4,5.4s-2.42,7.44-5.4,7.44-5.4-4.46-5.4-7.44,2.42-5.4,5.4-5.4Z" fill="#00559a"/>
        </g>
        <g id="Group_4435" data-name="Group 4435">
          <path id="Path_3518" data-name="Path 3518" d="m52.2,53.11l-5.32-30.75h-27.07l-5.32,30.75h37.7Z" fill="#fff"/>
        </g>
        <g id="Group_4443" data-name="Group 4443">
          <path id="Path_3523" data-name="Path 3523" d="m33.69,63.23l5.28,46.25h20.24l-7.02-56.38H14.5l-7.02,56.38h20.24l5.28-46.25h.68Z" fill="#000f3c"/>
        </g>
        <g id="Group_4447" data-name="Group 4447">
          <g id="Group_4444" data-name="Group 4444">
            <path id="Path_3524" data-name="Path 3524" d="m66.31,118.61s-.46-3.83-2.32-4.57c-1.86-.74-8.46-1.42-8.74-4.57h-13.58v9.13h24.65Z" fill="#000f3c"/>
          </g>
        </g>
        <g id="Group_4451" data-name="Group 4451">
          <g id="Group_4448" data-name="Group 4448">
            <path id="Path_3527" data-name="Path 3527" d="m0,118.61s.46-3.83,2.32-4.57c1.86-.74,8.46-1.42,8.74-4.57h13.58v9.13H0Z" fill="#000f3c"/>
          </g>
        </g>
        <path id="Path_3531" data-name="Path 3531" d="m24.44,15.92c2.78-1.33,5.83-1.99,8.9-1.94,4.73.22,6.95.9,8.57,1.98l-.63,31.78h-12.56l-4.28-31.82Z" fill="#00559a"/>
        <g id="Group_4455" data-name="Group 4455">
          <path id="Path_3534" data-name="Path 3534" d="m54.53,36.97c-4.47-12.84-8.66-21.13-15.8-22.35-3.57,6.7-5.38,21.77-5.38,21.77,0,0-3.2,16.42,1.48,24.08,3.35,5.49,13.63,2.78,18.7,3.38l-1.8-20.26,2.79-6.63Z" fill="#00a494"/>
        </g>
        <g id="Group_4455-2" data-name="Group 4455">
          <path id="Path_3534-2" data-name="Path 3534" d="m12.08,36.97c4.47-12.84,8.66-21.13,15.8-22.35,3.57,6.7,5.38,21.77,5.38,21.77,0,0,3.2,16.42-1.48,24.08-3.35,5.49-13.63,2.78-18.7,3.38l1.8-20.26-2.79-6.63Z" fill="#00a494"/>
        </g>
      </g>
      <g id="hart-man-hands">
        <path d="m27.95,39.32c0,6.25-5.07,11.31-11.31,11.31s-11.31-5.07-11.31-11.31,7.53-19.62,13.77-19.62,8.85,13.37,8.85,19.62Z" fill="#00a494"/>
        <path d="m38.74,39.32c0,6.25,5.07,11.31,11.31,11.31s11.31-5.07,11.31-11.31-7.53-19.62-13.77-19.62-8.85,13.37-8.85,19.62Z" fill="#00a494"/>
        <path d="m33.63,21.45c3.19-3.58,6.83-5.62,11.51-5.49,5.62.16,9.73,2.76,12.11,7.78,2.42,5.11,2.05,10.32-1.76,14.46-6.52,7.08-13.5,13.75-20.31,20.57-1.13,1.13-2.28.99-3.37-.11-6.64-6.67-13.43-13.19-19.87-20.04-5.06-5.38-4.53-13.73.73-18.88,5.1-4.99,13.38-5.12,18.8-.29.67.6,1.32,1.21,2.17,2Z" fill="#c81212"/>
        <g id="Group_4437" data-name="Group 4437">
          <g id="Group_4436" data-name="Group 4436">
            <path id="Path_3519" data-name="Path 3519" d="m9.23,43.94c-1.03-1.12-1.06-2.81-.14-4.02.7-.92,1.33-2.11,1.28-3.38-.1-2.82,2.52-5.73,4.17-5.87,1.65-.15,2.19,1.74,1.77,2.61-.81,1.71.71,2.82.82,4.72.15,2.76-1.67,4.91-3.38,6.38-1.28,1.1-3.19,1-4.33-.24l-.19-.21Z" fill="#00559a"/>
          </g>
        </g>
        <g id="Group_4437-2" data-name="Group 4437">
          <g id="Group_4436-2" data-name="Group 4436">
            <path id="Path_3519-2" data-name="Path 3519" d="m57.46,43.94c1.03-1.12,1.06-2.81.14-4.02-.7-.92-1.33-2.11-1.28-3.38.1-2.82-2.52-5.73-4.17-5.87-1.65-.15-2.19,1.74-1.77,2.61.81,1.71-.71,2.82-.82,4.72-.15,2.76,1.67,4.91,3.38,6.38,1.28,1.1,3.19,1,4.33-.24l.19-.21Z" fill="#00559a"/>
          </g>
        </g>
      </g>
    </g>
  </g>
</svg>