<?xml version="1.0" encoding="UTF-8"?>
<svg xmlns="http://www.w3.org/2000/svg" viewBox="0 0 94.18 115.52">
  <g>
    <g>
      <path id="Path_3460" data-name="Path 3460" d="m48.1,54.37l-5.32-30.81-13.6-6.02L12.28,52.53l35.82,1.84Z" fill="#adadad"/>
      <g id="hat-man-right-hand">
        <rect x="60.94" y="59.49" width="9.77" height="7.33" transform="translate(-25.24 57.76) rotate(-40.42)" fill="none" stroke="#c81212" stroke-miterlimit="10" stroke-width=".82"/>
        <rect x="63.24" y="59.64" width="24.28" height="29.47" transform="translate(-30.23 66.63) rotate(-40.42)" fill="#c81212"/>
        <path id="Path_3459" data-name="Path 3459" d="m59.81,52.3s1.28,3.57,3.84,4.27c2.57.7,3.12,2.44,2.78,3.97-.33,1.53-2.09,1.38-2.85.86-.76-.51-1.4-.71-2.66.54-1.44,1.42-5.68-5.6-6.26-7.22l5.14-2.42Z" fill="#00559a"/>
        <path id="Path_3461" data-name="Path 3461" d="m40.45,41.24s4.12,9.05,5.47,10.49c1.39,1.49,7.59,8.53,7.59,8.53l9.53-9.28s-10.82-16.59-11.31-17.1c-2.6-2.68-4.29-9.96-12.51-15.88l.71,13.47.52,9.78Z" fill="#d38522"/>
      </g>
      <path id="Path_3462" data-name="Path 3462" d="m46.06,54.53s-2.14-31.89-3.97-33.98c-1.83-2.09-5.6-5.15-10.42-5.15s-18.89,4.93-19.78,24.19,1.69,17.51,1.69,17.51l32.48-2.57Z" fill="#00559a"/>
      <path id="Ellipse_258" data-name="Ellipse 258" d="m33.52,2.38c2.81,0,5.08,2.28,5.08,5.08s-2.28,7.02-5.08,7.02-5.08-4.21-5.08-7.02,2.28-5.08,5.08-5.08Z" fill="#00559a"/>
      <g id="hat-man-left-foot">
        <path id="Path_3456" data-name="Path 3456" d="m21.49,114.12s1.5-3.21.4-4.68c-1.09-1.48-4.01-4.03-2.7-6.62l-9.14-5.69-4.43,7.11,15.87,9.89Z" fill="#000f3c"/>
        <path id="Path_3464" data-name="Path 3464" d="m38.71,66.9s7.7,7.39,1.39,15.68c-2.08,2.73-17.33,23.12-17.33,23.12l-14.84-9.38s18.35-27.72,20.94-29.41c2.62-1.7,9.83,0,9.83,0Z" fill="#000f3c"/>
      </g>
      <path d="m19.37,49.65s-9.56,40.1,13.99,33.83c0,0,3.88-6.59,3.25-12.62-.48-4.14-5.22-12.47-8.81-13.99-5.49-2.32-8.43-7.22-8.43-7.22Z" fill="#000f3c"/>
      <path id="Path_3467" data-name="Path 3467" d="m19.25,48.71l20.2,2.22,2.95,24.42-24.78-10.34,1.64-16.3Z" fill="#000f3c"/>
      <g id="hat-man-right-foot">
        <path id="Path_3453" data-name="Path 3453" d="m55.66,115.52s-.43-3.51-2.13-4.19c-1.71-.68-5.54-1.3-5.79-4.19h-10.77v8.38h18.7Z" fill="#000f3c"/>
        <path id="Path_3468" data-name="Path 3468" d="m19.37,49.65s-9.56,40.1,13.99,33.83l1.46,23.67h17.55v-16.85s-.07-3.15-.84-9.8c-.48-4.14-3.84-15.04-13.46-18.02-3.47-1.08-6.68-4.09-10.27-5.61-5.49-2.32-8.43-7.22-8.43-7.22Z" fill="#000f3c"/>
      </g>
      <path id="Path_3469" data-name="Path 3469" d="m10.81,39.58c.66-15.03,10.14-21.2,16.23-23.25,8.77,7.4,16.55,33.17,11.41,45.02-2.93,6.76-12.56,2.45-22.31,4.07-2.15-3.59-3.6-7.38-4.14-9.92-.1-.42-1.63-6.02-1.2-15.92Z" fill="#d38522"/>
      <path d="m46.8,38.84l-1.02-.3c-1.29-8.21-2.85-17.02-3.69-17.98-.85-.96-1.82-1.83-2.87-2.57-1.94,4.36-3.48,10.72-3.89,14.25-.27,2.36-.07,4.65.51,6.85-1.74,7.33-4.05,25.11,13.39,28.59l-2.44-28.84Z" fill="#d38522"/>
      <path d="m46.8,38.84l-1.02-.3c-1.29-8.21-2.85-17.02-3.69-17.98-.85-.96-1.82-1.83-2.87-2.57l.71,13.47.52,9.78s4.12,9.05,5.47,10.49c.4.43,1.22,1.34,2.17,2.41l-1.29-15.3Z" fill="#d38522"/>
      <path d="m28.14,5.38c0-2.97,2.41-5.38,5.38-5.38s5.38,2.41,5.38,5.38h-10.76Z" fill="#c81212"/>
      <rect x="25.39" y="4.43" width="16.27" height=".95" fill="#c81212"/>
      <path d="m27.04,16.33s4.94,5.66,12.18,1.65l1.51,13.16-18.22,6.93,4.53-21.75Z" fill="#d38522"/>
      <path d="m26.07,58.73l-3.26-2.46c3.59-4.76,12.65-29.45,15.83-38.56l3.52,2.16c-.48,1.36-11.38,32.61-16.09,38.86Z" fill="#008688"/>
      <polygon points="27.51 74.83 0 65.81 5.21 43.38 33.52 51.4 27.51 74.83" fill="#008688"/>
      <g id="hat-man-left-hand">
        <path id="Path_3472" data-name="Path 3472" d="m7.7,57.04s1.66,3.41.37,5.73c-1.29,2.33-1.13,6.33,1.51,6.86,1.53.31,3.2-2.84,3.37-3.74s.47-.88.82-.84c2.01.22,0-8.45-.75-10l-5.32,1.99Z" fill="#00559a"/>
        <path id="Path_3473" data-name="Path 3473" d="m13.28,28.7s-7.84,13.94-7.79,30.5l15.71,1.86,3.91-26.99s-.15-8.75-4.79-9.87-7.04,4.5-7.04,4.5Z" fill="#d38522"/>
      </g>
    </g>
  </g>
</svg>