<?xml version="1.0" encoding="UTF-8"?>
<svg xmlns="http://www.w3.org/2000/svg" viewBox="0 0 163.11 134.66">
  <g>
    <g>
      <path id="Path_3453" data-name="Path 3453" d="m73.26,132.2s-.5-4.14-2.52-4.94c-2.02-.8-6.54-1.53-6.84-4.94h-12.7v9.88h22.05Z" fill="#000f3c"/>
      <path id="Path_3456" data-name="Path 3456" d="m28.59,129.03s2.09-3.61.96-5.46c-1.13-1.85-4.3-5.16-2.49-8.06l-10.14-7.64-5.94,7.89,17.61,13.27Z" fill="#000f3c"/>
      <path id="Path_3459" data-name="Path 3459" d="m76.74,58.04s.89,4.27,3.69,5.47c2.81,1.21,4.44,5.11,3.82,6.79s-2.6,1.23-3.38.53-3.05-3.37-4.02-1.25-5.95-7.68-6.35-9.61l6.23-1.94Z" fill="#00559a"/>
      <path id="Path_3460" data-name="Path 3460" d="m64.58,61.94l-6.12-35.4-15.63-6.92-19.42,40.21,41.16,2.12Z" fill="#adadad"/>
      <path id="Path_3461" data-name="Path 3461" d="m55.79,46.85s4.74,10.4,6.28,12.05c1.59,1.71,8.72,9.8,8.72,9.8l10.95-10.67s-12.43-19.06-13-19.65c-2.99-3.08-4.93-11.44-14.37-18.25" fill="#db5612"/>
      <path id="Path_3462" data-name="Path 3462" d="m62.23,62.13s-2.46-36.65-4.57-39.04c-2.11-2.4-6.44-5.92-11.97-5.92s-21.71,5.66-22.73,27.8c-1.02,22.13,1.95,20.12,1.95,20.12l37.32-2.95Z" fill="#00559a"/>
      <path id="Ellipse_258" data-name="Ellipse 258" d="m47.83,2.2c3.23,0,5.84,2.61,5.84,5.84s-2.61,8.07-5.84,8.07-5.84-4.84-5.84-8.07,2.61-5.84,5.84-5.84Z" fill="#00559a"/>
      <path id="Path_3464" data-name="Path 3464" d="m47.98,80.46s7.07,15.2-1.21,24.28c-2.73,3-15.8,14.52-15.8,14.52l-16.46-12.57s20.07-25.83,23.29-27.54c3.26-1.73-1.9-7.92-1.9-7.92l12.08,9.24Z" fill="#000f3c"/>
      <path id="Path_3466" data-name="Path 3466" d="m54.38,20.13c1.21.86,2.31,1.85,3.3,2.96,1.85,2.11,6.71,37.38,6.71,37.38l-.34,2.54c-8.43-6.74-15.36-16.03-14.14-26.5.47-4.06,2.24-11.36,4.47-16.37Z" fill="#db5612"/>
      <path id="Path_3467" data-name="Path 3467" d="m37.83,59.35l23.82,2.62,3.48,28.81-29.24-12.2,1.93-19.23Z" fill="#000f3c"/>
      <path id="Path_3468" data-name="Path 3468" d="m30.46,54.5s-11.28,47.3,16.5,39.91l1.72,27.92h20.7v-19.88s-.09-3.71-.99-11.56c-.57-4.88-4.53-17.74-15.87-21.25-10.36-3.21-22.06-15.13-22.06-15.13Z" fill="#000f3c"/>
      <path id="Path_3469" data-name="Path 3469" d="m21.73,44.95c.76-17.27,11.65-24.36,18.65-26.71,10.07,8.51,19.02,38.11,13.12,51.73-3.37,7.76-14.44,2.82-25.64,4.68-2.47-4.12-4.14-8.48-4.75-11.4-.12-.48-1.88-6.92-1.38-18.3Z" fill="#db5612"/>
      <path id="Path_3470" data-name="Path 3470" d="m51.52,40.73s-11.02,31.44,14.36,36.5l-2.8-33.14-11.56-3.36Z" fill="#db5612"/>
      <g id="hello-orange-man-hand">
        <path id="Path_3472" data-name="Path 3472" d="m18.15,65.01s1.91,3.92.43,6.59-1.3,7.28,1.74,7.89c1.76.35,3.68-3.27,3.87-4.3s.54-1.01.94-.97c2.31.25,0-9.71-.86-11.49l-6.11,2.29Z" fill="#00559a"/>
        <path id="Path_3473" data-name="Path 3473" d="m32.95,22.47s-18,11-17.33,45.02l18.05,2.13s7.5-44.47,5.38-46.63-6.1-.52-6.1-.52Z" fill="#db5612"/>
      </g>
      <path id="Path_3453-2" data-name="Path 3453" d="m97.9,132.2s.5-4.14,2.52-4.94c2.02-.8,6.54-1.53,6.84-4.94h12.7v9.88h-22.05Z" fill="#000f3c"/>
      <path id="Path_3456-2" data-name="Path 3456" d="m142.57,129.03s-2.09-3.61-.96-5.46c1.13-1.85,4.3-5.16,2.49-8.06l10.14-7.64,5.94,7.89-17.61,13.27Z" fill="#000f3c"/>
      <path id="Path_3460-2" data-name="Path 3460" d="m106.58,61.94l6.12-35.4,15.63-6.92,19.42,40.21-41.16,2.12Z" fill="#adadad"/>
      <path id="Path_3462-2" data-name="Path 3462" d="m108.92,62.13s2.46-36.65,4.57-39.04c2.11-2.4,6.44-5.92,11.97-5.92,5.54,0,21.71,5.66,22.73,27.8,1.02,22.13-1.95,20.12-1.95,20.12l-37.32-2.95Z" fill="#00559a"/>
      <path id="Ellipse_258-2" data-name="Ellipse 258" d="m123.33,2.2c-3.23,0-5.84,2.61-5.84,5.84,0,3.23,2.61,8.07,5.84,8.07,3.23,0,5.84-4.84,5.84-8.07,0-3.23-2.61-5.84-5.84-5.84Z" fill="#00559a"/>
      <path id="Path_3464-2" data-name="Path 3464" d="m123.17,80.46s-7.07,15.2,1.21,24.28c2.73,3,15.8,14.52,15.8,14.52l16.46-12.57s-20.07-25.83-23.29-27.54c-3.26-1.73,1.9-7.92,1.9-7.92l-12.08,9.24Z" fill="#000f3c"/>
      <path id="Path_3466-2" data-name="Path 3466" d="m116.78,20.13c-1.21.86-2.31,1.85-3.3,2.96-1.85,2.11-6.71,37.38-6.71,37.38l.34,2.54c8.43-6.74,15.36-16.03,14.14-26.5-.47-4.06-2.24-11.36-4.47-16.37Z" fill="#cb466c"/>
      <path id="Path_3467-2" data-name="Path 3467" d="m133.32,59.35l-23.82,2.62-3.48,28.81,29.24-12.2-1.93-19.23Z" fill="#000f3c"/>
      <path id="Path_3468-2" data-name="Path 3468" d="m140.7,54.5s11.28,47.3-16.5,39.91l-1.72,27.92h-20.7v-19.88s.09-3.71.99-11.56c.57-4.88,4.53-17.74,15.87-21.25,10.36-3.21,22.06-15.13,22.06-15.13Z" fill="#000f3c"/>
      <path id="Path_3469-2" data-name="Path 3469" d="m149.42,44.95c-.76-17.27-11.65-24.36-18.65-26.71-10.07,8.51-19.02,38.11-13.12,51.73,3.37,7.76,14.44,2.82,25.64,4.68,2.47-4.12,4.14-8.48,4.75-11.4.12-.48,1.88-6.92,1.38-18.3Z" fill="#cb466c"/>
      <path id="Path_3470-2" data-name="Path 3470" d="m119.63,40.73s11.02,31.44-14.36,36.5l2.8-33.14,11.56-3.36Z" fill="#cb466c"/>
      <path id="Path_3472-2" data-name="Path 3472" d="m153,65.01s-1.91,3.92-.43,6.59,1.3,7.28-1.74,7.89c-1.76.35-3.68-3.27-3.87-4.3-.19-1.03-.54-1.01-.94-.97-2.31.25,0-9.71.86-11.49l6.11,2.29Z" fill="#00559a"/>
      <path id="Path_3473-2" data-name="Path 3473" d="m146.58,32.45s9,16.02,8.95,35.05l-18.05,2.13-4.49-31.01,13.59-6.17Z" fill="#cb466c"/>
      <g id="hello-pink-man-hand">
        <path id="Path_3459-2" data-name="Path 3459" d="m97.37,37.98s-4.1-1.49-4.89-4.44c-.79-2.95-4.42-5.13-6.18-4.75s-1.59,2.4-1.01,3.27c.59.87,2.89,3.5.66,4.16s6.75,6.99,8.6,7.66l2.81-5.89Z" fill="#00559a"/>
        <path d="m116.78,20.13c-8.76,6.32-8.89,14.03-11.26,17.56-3.53-1.58-9.6-4.89-9.6-4.89l-7.25,11.74s14.29,11.93,21.29,10.93,6.83-8.62,6.83-8.62v-26.72Z" fill="#cb466c"/>
      </g>
      <rect x="0" y="0" width="163.11" height="134.66" fill="none"/>
    </g>
  </g>
</svg>