<?xml version="1.0" encoding="UTF-8"?>
<svg xmlns="http://www.w3.org/2000/svg" viewBox="0 0 105.23 169.46">
  <g>
    <g>
      <path id="Path_3460" data-name="Path 3460" d="m74.95,96.32l-5.18-30.01-13.25-5.87-16.46,34.09,34.9,1.79Z" fill="#adadad"/>
      <rect width="105.23" height="169.46" fill="none"/>
      <path id="Path_3462" data-name="Path 3462" d="m72.96,96.48s-2.08-31.07-3.87-33.1c-1.79-2.03-5.46-5.02-10.15-5.02s-18.4,4.8-19.27,23.56c-.87,18.76,1.65,17.06,1.65,17.06l31.64-2.5Z" fill="#00559a"/>
      <path id="Ellipse_258" data-name="Ellipse 258" d="m60.75,45.68c2.73,0,4.95,2.22,4.95,4.95s-2.22,6.84-4.95,6.84-4.95-4.1-4.95-6.84,2.22-4.95,4.95-4.95Z" fill="#00559a"/>
      <g id="music-man-left-foot">
        <path id="Path_3456" data-name="Path 3456" d="m54.52,159.54s1.5-3.21.4-4.68c-1.09-1.48-4.01-4.03-2.7-6.62l-9.14-5.69-4.43,7.11,15.87,9.89Z" fill="#000f3c"/>
        <path id="Path_3464" data-name="Path 3464" d="m71.74,112.31s7.7,7.39,1.39,15.68c-2.08,2.73-17.33,23.12-17.33,23.12l-14.84-9.38s18.35-27.72,20.94-29.41c2.62-1.7,9.83,0,9.83,0Z" fill="#000f3c"/>
      </g>
      <path id="Path_3466" data-name="Path 3466" d="m66.3,60.88c1.02.73,1.96,1.57,2.79,2.51,1.57,1.79,5.69,31.69,5.69,31.69l-.28,2.15c-7.15-5.71-13.02-13.59-11.99-22.46.4-3.44,1.89-9.63,3.79-13.88Z" fill="#e26067"/>
      <path id="Path_3467" data-name="Path 3467" d="m52.28,94.12l20.2,2.22,2.95,24.42-24.78-10.34,1.64-16.3Z" fill="#000f3c"/>
      <path d="m46.02,90.01s-9.56,40.1,13.99,33.83c0,0,3.88-6.59,3.25-12.62-.48-4.14-5.22-12.47-8.81-13.99-5.49-2.32-8.43-7.22-8.43-7.22Z" fill="#000f3c"/>
      <g id="music-man-right-foot">
        <path id="Path_3453" data-name="Path 3453" d="m88.69,160.93s-.43-3.51-2.13-4.19c-1.71-.68-5.54-1.3-5.79-4.19h-10.77v8.38h18.7Z" fill="#000f3c"/>
        <path id="Path_3468" data-name="Path 3468" d="m52.4,95.06s-9.56,40.1,13.99,33.83l1.46,23.67h17.55v-16.85s-.07-3.15-.84-9.8c-.48-4.14-3.84-15.04-13.46-18.02-3.47-1.08-6.68-4.09-10.27-5.61-5.49-2.32-8.43-7.22-8.43-7.22Z" fill="#000f3c"/>
      </g>
      <path id="Path_3469" data-name="Path 3469" d="m38.63,81.91c.64-14.64,9.88-20.65,15.81-22.65,8.54,7.21,16.12,32.31,11.12,43.85-2.85,6.58-12.24,2.39-21.73,3.97-2.09-3.49-3.51-7.19-4.03-9.66-.1-.41-1.59-5.87-1.17-15.51Z" fill="#e26067"/>
      <path id="Path_3470" data-name="Path 3470" d="m63.88,78.33s-9.34,26.65,12.17,30.94l-2.37-28.09-9.8-2.85Z" fill="#e26067"/>
      <g id="music-man-left-hand">
        <path id="Path_3471" data-name="Path 3471" d="m48.51,112.02v-1.09c0-2.42-1.96-4.37-4.38-4.37h-9.3c-2.42,0-4.37,1.96-4.37,4.37v1.09h-8.22v22.96h34.49v-22.96h-8.22Zm-14.97-1.1c0-.72.58-1.29,1.3-1.3h9.3c.72,0,1.3.58,1.3,1.3v1.09h-11.89v-1.09Z" fill="#c81212"/>
        <rect id="Rectangle_1180" data-name="Rectangle 1180" x="22.25" y="123.5" width="34.49" height="11.48" fill="#800900"/>
        <path id="Path_3472" data-name="Path 3472" d="m35.6,98.92s1.62,3.32.36,5.59-1.1,6.17,1.47,6.69c1.49.3,3.12-2.77,3.28-3.65s.46-.86.8-.82c1.96.21,0-8.23-.73-9.74l-5.18,1.94Z" fill="#00559a"/>
        <path id="Path_3473" data-name="Path 3473" d="m41.04,71.32s-7.63,13.58-7.59,29.71l15.3,1.81,3.81-26.29-11.52-5.23Z" fill="#e26067"/>
      </g>
      <path id="music-man-simbol-03" d="m93.44,45.7h2.52c.07.77.5,1.27,1.25,1.87,2.39,1.95,4.42,3.92,4.42,6.36,0,2.79-1.9,3.89-3.24,4.39l-1.07-1.47c.7-.32,1.4-.82,1.4-1.97s-.9-2.2-2.64-3.52v8.31c0,4.14-2.25,6.41-5.16,6.41-1.15,0-3.27-.72-3.27-3.02,0-2.07,1.67-3.42,5.81-3.42v-13.94Z" fill="#c81212"/>
      <path id="music-man-simbol-02" d="m53.73,22.8l-.91,5.79c-.46-.23-1.4-.47-1.95-.55-5.25-.82-6.25,5.57-1,6.39,2.26.35,4.74-.72,5.01-2.49l2-12.77.31-1.99.24-1.52-10.45-5.36-2.22,14.14c-.46-.23-1.4-.47-1.95-.55-5.25-.82-6.25,5.57-1,6.39,2.26.35,4.74-.72,5.01-2.49l1.24-7.94.46-2.92.38-2.42,5.65,3-.38,2.4-.45,2.88Z" fill="#003383"/>
      <path id="music-man-simbol-01" d="m18.61,67.03l-6.37-.57-.58-2.38,6.37.59.58,2.36Zm-10.35-6.1l3.41,13.9c-.51-.04-1.47.11-2.01.24-5.16,1.27-3.62,7.55,1.54,6.28,2.22-.54,4.09-2.49,3.66-4.23l-1.91-7.8,6.36.53,1.4,5.69c-.51-.04-1.47.11-2.01.24-5.16,1.27-3.62,7.55,1.54,6.28,2.22-.54,4.09-2.49,3.66-4.23l-3.08-12.55-.48-1.95-.37-1.5-11.71-.92Z" fill="#c81212"/>
      <g id="music-man-right-hand">
        <path id="Path_3459" data-name="Path 3459" d="m85.26,93.01s.75,3.62,3.13,4.64c2.38,1.02,3.77,4.33,3.24,5.76-.53,1.43-2.2,1.05-2.86.45-.66-.6-2.59-2.85-3.41-1.06s-5.05-6.51-5.38-8.15l5.28-1.64Z" fill="#00559a"/>
        <path d="m67.5,83.53s4.02,8.82,5.32,10.22c1.35,1.45,7.4,8.31,7.4,8.31l9.28-9.04s-10.54-16.16-11.02-16.66c-2.53-2.61-4.18-9.7-12.18-15.47l1.2,22.65Z" fill="#e26067"/>
      </g>
    </g>
  </g>
</svg>