<?xml version="1.0" encoding="UTF-8"?>
<svg xmlns="http://www.w3.org/2000/svg" viewBox="0 0 124.83 179.06">
  <g>
    <g>
      <g>
        <circle cx="28.03" cy="45.41" r="9.29" fill="#ffd352"/>
        <g>
          <g id="Group_2492" data-name="Group 2492">
            <path id="Path_2538" data-name="Path 2538" d="m65.54,178.57v-12.4s-15.94,0-15.94,0c-.38,4.27-6.06,5.2-8.58,6.2-2.53,1-3.16,6.2-3.16,6.2h27.68Z" fill="#000f3c"/>
          </g>
          <path id="Path_2544" data-name="Path 2544" d="m105.32,115.51l-24.37-50.46-19.62,8.69-7.68,44.43,51.66-2.66Z" fill="#aeaeae"/>
          <path id="Path_2547" data-name="Path 2547" d="m103.44,122.1s3.73,2.53,2.44-25.25c-1.28-27.78-21.58-34.88-28.53-34.88-6.95,0-12.38,4.42-15.03,7.43-2.64,3.01-5.73,49-5.73,49l46.84,3.7Z" fill="#00559a"/>
          <rect id="Rectangle_369" data-name="Rectangle 369" x="56.6" y="101.22" width="27.32" height="17.18" fill="#bfcce0"/>
          <path id="Path_2550" data-name="Path 2550" d="m54.32,119.5l-.42-3.18s-3.99-31.16,8.43-46.91c1.23-1.39,2.62-2.63,4.14-3.71,8.76,15.14,3.61,41.21-12.14,53.8Z" fill="#af6900"/>
          <path id="Path_2551" data-name="Path 2551" d="m67.21,115.51c-14.9,0-23.31,1.46-27.17,6.26-4.01,4.99-2.06,17.84-2.06,17.84l7.95,26.56h21.47s0-20.39,0-20.39c34.86,9.28,38.48-30.28,38.48-30.28h-38.67Z" fill="#000f3c"/>
          <path id="Path_2552" data-name="Path 2552" d="m85.88,129.9c-26.59-13.64-21.83-52.65-3.41-67.31,9.31,2.95,23.93,12.57,24.94,34.24.67,14.28-1.67,22.36-1.83,22.96-1.32,5.05-3.45,9.87-6.33,14.31-5.13-.8-9.58-2.25-13.37-4.2" fill="#af6900"/>
          <rect x="69.97" y="148.33" width="38.21" height="9.55" fill="#000f3c"/>
          <polygon points="124.83 78.12 114.56 78.12 98.1 157.88 108.37 157.88 124.83 78.12" fill="#000f3c"/>
          <rect x="73.52" y="156.07" width="8.76" height="22.51" fill="#000f3c"/>
          <rect x="99.68" y="156.07" width="8.76" height="22.51" fill="#000f3c"/>
        </g>
        <polygon points="59.53 104.27 19.05 104.27 7.44 76.83 47.56 76.35 59.53 104.27" fill="#d2244a"/>
        <rect x="54.59" y="100.36" width="15.96" height="3.92" fill="#d2244a"/>
        <g id="Group_2513" data-name="Group 2513">
          <path id="Path_2553" data-name="Path 2553" d="m83.05,103.51c-2.36.77-15.15,1.88-14.43-.96.12-.49.21-.93-1.04-1.34s-5.41-3.44-4.66-5.56c1.29-3.66,7.04-3.08,10.1-.77,3.06,2.31,8.26.63,8.26.63l1.76,7.99Z" fill="#00559a"/>
        </g>
        <path id="Path_2554" data-name="Path 2554" d="m95.62,88.35c3.91,3.55,5.31,9.87,2.04,13.97-3.26,4.1-16.84,5.24-16.84,5.24l-3.3-15.42s14.19-7.33,18.1-3.79Z" fill="#af6900"/>
        <rect x="98.03" y="104.27" width="11.07" height="74.78" transform="translate(207.13 283.33) rotate(180)" fill="#385461"/>
        <polygon points="3.05 44.91 28.03 19.93 53.01 44.91 3.05 44.91" fill="#000f3c"/>
        <line x1="28.03" y1="32.42" x2="28.03" fill="none" stroke="#000f3c" stroke-miterlimit="10" stroke-width="1.32"/>
        <g>
          <line x1="7.88" y1="54.69" x2="13.93" y2="50.9" fill="none" stroke="#ffd352" stroke-miterlimit="10" stroke-width="1.32"/>
          <line x1="16.85" y1="61.75" x2="19.88" y2="56.62" fill="none" stroke="#ffd352" stroke-miterlimit="10" stroke-width="1.32"/>
          <line x1="48.18" y1="54.69" x2="42.13" y2="50.9" fill="none" stroke="#ffd352" stroke-miterlimit="10" stroke-width="1.32"/>
          <line x1="39.21" y1="61.75" x2="36.18" y2="56.62" fill="none" stroke="#ffd352" stroke-miterlimit="10" stroke-width="1.32"/>
          <line x1="28.03" y1="65.05" x2="28.03" y2="58.33" fill="none" stroke="#ffd352" stroke-miterlimit="10" stroke-width="1.32"/>
        </g>
        <rect x="49.02" y="55.26" width="11.07" height="109.1" transform="translate(164.36 55.26) rotate(90)" fill="#385461"/>
      </g>
      <path id="Ellipse_180" data-name="Ellipse 180" d="m82.01,48.79c0,4.05-3.28,10.57-7.33,10.57-4.05,0-7.33-6.52-7.33-10.57,0-4.05,3.28-7.33,7.33-7.33s7.33,3.28,7.33,7.33Z" fill="#00559a"/>
      <g id="pc-man-leg">
        <g id="Group_2492-2" data-name="Group 2492">
          <path id="Path_2538-2" data-name="Path 2538" d="m27.01,162.52l12.69-12.81-9.56-9.46c-5.7,5.34-12.63,1.17-15.07-.02-2.44-1.19-6.71,1.85-6.71,1.85l18.66,20.44Z" fill="#000f3c"/>
        </g>
        <path d="m46.77,118.77c-8.3.83-23.84,21.22-23.84,21.22l13.99,19.34,22.24-18.44s-4.09-22.95-12.39-22.12Z" fill="#000f3c"/>
      </g>
      <rect y="104.27" width="11.07" height="74.78" transform="translate(11.07 283.33) rotate(180)" fill="#385461"/>
    </g>
  </g>
</svg>