<?xml version="1.0" encoding="UTF-8"?>
<svg xmlns="http://www.w3.org/2000/svg" viewBox="0 0 186.72 116.78">
  <g>
    <g>
      <g>
        <g>
          <path d="m61.15,89.33c.62,1.15.27,1.29,1.63,1.65,1.68.45,1.81-.95,1.71-1.65l-10.02-40.57c-.31-1.47-.66-1.44-1.12-2.87.03-.13.07-.25.14-.34.28-.4-.15-.86-.51-.75-.02-.05-.03-.1-.05-.15-.1-.27-.48-.1-.41.17.03.13.06.26.1.39-.63,1.26.24,3.24.63,4.42l8.46,35.07c.29,1.29,1.11,3.71,1.36,5.02l-9.95-23.56c-.19-.43-1.11-3.04-1.07-2.57l-.59,1.14,9.71,24.61Z" fill="#1a5526"/>
          <path d="m66.36,89.82c.07.21.24.27.41.23.28.53.72.74,1.47.69.29-.02.39-.31.33-.55,0-.02-.01-.04-.02-.06.1-.03.18-.1.26-.19,0,0,0,.02,0,.03.02.2.34.21.36,0l6.53-36.31c.08-.4-1.08-.74-1.3-.39l-6.89,32.74-8.47-45.29c-.1-.3-1.35-.15-1.27.17.06.36.12.72.19,1.09l8.4,47.85Z" fill="#93c080"/>
        </g>
        <g id="sitting-man-leef-left">
          <path d="m49.12,66.37c-3.6,9.27-25.63,14.83-49.12,6.21,0,0,9.41-3.89,19.26-22.53,5.8-10.98,17.86-10.11,21.73-4.31,1.2,1.8.77,5.42.7,5.51,0,0,11.82,3.81,7.43,15.13Z" fill="#1a5526"/>
          <path d="m49.12,66.37c-3.6,9.27-25.63,14.83-49.12,6.21,0,0,9.41-3.89,19.26-22.53,5.8-10.98,17.86-10.11,21.73-4.31,1.2,1.8.77,5.42.7,5.51,0,0,11.82,3.81,7.43,15.13Z" fill="#1a5526"/>
        </g>
        <path id="sitting-man-leef-top" d="m44,46.86c-6.5-6.33-3.29-26.81,12.33-43.44,0,0-.1,9.29,12.03,24.22,7.14,8.79,2.11,18.6-4.14,19.78-1.94.36-4.83-1.29-4.87-1.38,0,0-7.42,8.56-15.35.83Z" fill="#93c080"/>
        <path id="sitting-man-leef-bottom" d="m58.45,61.27c1.07-.24,1.94-.91,2.98-1.33.96-.4,1.99-.65,3.04-.67,1.79-.05,3.47.77,4.43,2.29,1.12,1.75.97,4.22.25,6.09-.87,2.24-2.41,4.17-4.22,5.73-6.45,5.55-17.05,4.23-21.71,12.13,0,0-3.79-27.21,11.76-29.45,2.73-.39,4.66,2.91,3.47,5.23Z" fill="#93c080"/>
        <path id="sitting-man-leef-right" d="m103.4,21.04c-6.33,9.4-6.21,33.06-13.48,39.91-4.46,4.19-9.14,3.66-12.48,1.77-1.44-.82-2.21-2.39-2.39-3.99-.11-.95.03-1.82.05-2.76.02-.7-.64-.68-1.36-.45-.04.04-.1.07-.18.08-.03,0-.06.01-.09.02-.4.16-.8.37-1.08.55-.6.51-1.08,1.19-1.84,1.5-2.97,1.26-4.71-1.13-5.26-2.24-1.44-2.92-1.49-7.75-.53-11.28,6.03-22.29,38.62-23.11,38.62-23.11Z" fill="#1a5526"/>
        <path d="m55.16,88.35h20.33v14.43c0,4.53-3.68,8.21-8.21,8.21h-3.9c-4.53,0-8.21-3.68-8.21-8.21v-14.43h0Z" fill="#000f3c"/>
        <rect x="55.16" y="88.35" width="20.33" height="7.95" fill="#b79027"/>
      </g>
      <g>
        <g id="Group_2492" data-name="Group 2492">
          <path id="Path_2538" data-name="Path 2538" d="m140.44,116.78v-10.56s13.57,0,13.57,0c.32,3.64,5.16,4.43,7.31,5.28,2.15.85,2.69,5.28,2.69,5.28h-23.57Z" fill="#000f3c"/>
        </g>
        <path id="Path_2544" data-name="Path 2544" d="m106.56,63.07l20.75-42.98,16.71,7.4,6.54,37.84-44-2.27Z" fill="#aeaeae"/>
        <path id="Path_2547" data-name="Path 2547" d="m108.16,68.68s-3.17,2.15-2.08-21.51c1.09-23.66,18.38-29.71,24.3-29.71,5.92,0,10.54,3.77,12.8,6.33,2.25,2.56,4.88,41.73,4.88,41.73l-39.9,3.15Z" fill="#00559a"/>
        <path id="Ellipse_180" data-name="Ellipse 180" d="m126.42,6.24c0,3.45,2.79,9,6.24,9,3.45,0,6.24-5.56,6.24-9,0-3.45-2.79-6.24-6.24-6.24s-6.24,2.79-6.24,6.24Z" fill="#00559a"/>
        <rect id="Rectangle_369" data-name="Rectangle 369" x="124.78" y="50.9" width="23.27" height="14.63" fill="#bfcce0"/>
        <path id="Path_2550" data-name="Path 2550" d="m150,66.47l.36-2.71s3.4-26.54-7.18-39.96c-1.05-1.18-2.23-2.24-3.52-3.16-7.46,12.9-3.07,35.1,10.34,45.82Z" fill="#ac8756"/>
        <path id="Path_2551" data-name="Path 2551" d="m139.02,63.07c12.69,0,19.85,1.24,23.14,5.33,3.42,4.25,1.75,15.2,1.75,15.2l-6.77,22.62h-18.29v-17.36c-29.69,7.91-32.77-25.79-32.77-25.79h32.94Z" fill="#000f3c"/>
        <path id="Path_2552" data-name="Path 2552" d="m122.05,75.33c21.35-11.62,17.44-44.23,2.65-56.72-7.48,2.51-19.12,10.1-19.93,28.55-.53,12.16,1.34,19.04,1.47,19.56,1.06,4.3,2.77,8.41,5.08,12.18,4.12-.68,7.69-1.92,10.74-3.58" fill="#ac8756"/>
        <rect x="104.12" y="91.02" width="32.54" height="8.13" transform="translate(240.79 190.18) rotate(-180)" fill="#000f3c"/>
        <g id="sitting-man-leg">
          <g id="Group_2492-2" data-name="Group 2492">
            <path id="Path_2538-2" data-name="Path 2538" d="m170.69,102.12l-7.75-7.18,9.23-9.95c2.89,2.24,6.75-.77,8.84-1.77,2.09-1,5.7,1.62,5.7,1.62l-16.03,17.28Z" fill="#000f3c"/>
          </g>
          <polygon points="157.74 69.31 173.33 83.92 161.41 100.39 147.19 88.16 157.74 69.31" fill="#000f3c"/>
        </g>
        <polygon points="95.1 73.9 103.85 73.9 112.71 99.16 103.96 99.16 95.1 73.9" fill="#000f3c"/>
        <rect x="126.18" y="97.61" width="7.47" height="19.17" transform="translate(259.83 214.39) rotate(-180)" fill="#000f3c"/>
        <rect x="103.9" y="97.61" width="7.47" height="19.17" transform="translate(215.27 214.39) rotate(-180)" fill="#000f3c"/>
        <polygon points="123.45 65.53 157.93 65.53 167.81 42.15 133.65 41.75 123.45 65.53" fill="#d2244a"/>
        <rect x="114.06" y="62.2" width="13.6" height="3.33" transform="translate(241.72 127.72) rotate(-180)" fill="#d2244a"/>
        <g id="Group_2513" data-name="Group 2513">
          <path id="Path_2553" data-name="Path 2553" d="m117.11,56.8c1.95-.81,12.75-2.57,12.31-.12-.07.42-.12.8.97,1.07s4.81,2.57,4.31,4.42c-.86,3.2-5.78,3.07-8.53,1.3-2.75-1.77-7.06,0-7.06,0l-2.01-6.68Z" fill="#00559a"/>
        </g>
        <path id="Path_2554" data-name="Path 2554" d="m109.37,47.81c-3.33,3.02-4.52,8.4-1.74,11.9,2.78,3.5,14.35,4.46,14.35,4.46l2.81-13.13s-12.09-6.25-15.41-3.23Z" fill="#ac8756"/>
      </g>
    </g>
  </g>
</svg>