<?xml version="1.0" encoding="UTF-8"?>
<svg xmlns="http://www.w3.org/2000/svg" viewBox="0 0 149.79 105.12">
  <g>
    <g>
      <g>
        <g id="Group_2492" data-name="Group 2492">
          <path id="Path_2538" data-name="Path 2538" d="m40.45,104.18v-9.42s12.11,0,12.11,0c.29,3.25,4.6,3.95,6.52,4.71,1.92.76,2.4,4.71,2.4,4.71h-21.03Z" fill="#000f3c"/>
        </g>
        <g id="Group_2492-2" data-name="Group 2492">
          <path id="Path_2538-2" data-name="Path 2538" d="m48.72,96.8v-9.42s12.11,0,12.11,0c.29,3.25,4.6,3.95,6.52,4.71,1.92.76,2.4,4.71,2.4,4.71h-21.03Z" fill="#000f3c"/>
        </g>
        <path id="Path_2544" data-name="Path 2544" d="m10.23,56.27L28.74,17.92l14.91,6.6,5.83,33.76-39.26-2.02Z" fill="#aeaeae"/>
        <path id="Path_2547" data-name="Path 2547" d="m11.65,61.27s-2.83,1.92-1.86-19.19c.98-21.11,16.4-26.51,21.68-26.51,5.28,0,9.41,3.36,11.42,5.65,2.01,2.29,4.35,37.23,4.35,37.23l-35.59,2.81Z" fill="#00559a"/>
        <g id="Group_2504" data-name="Group 2504">
          <path id="Ellipse_180" data-name="Ellipse 180" d="m27.94,5.57c0,3.08,2.49,8.03,5.57,8.03,3.08,0,5.57-4.96,5.57-8.03,0-3.08-2.49-5.57-5.57-5.57s-5.57,2.49-5.57,5.57Z" fill="#00559a"/>
          <path id="Ellipse_180-2" data-name="Ellipse 180" d="m27.94,5.57c0,3.08,2.49,8.03,5.57,8.03,3.08,0,5.57-4.96,5.57-8.03,0-3.08-2.49-5.57-5.57-5.57s-5.57,2.49-5.57,5.57Z" fill="#00559a"/>
        </g>
        <rect id="Rectangle_369" data-name="Rectangle 369" x="26.48" y="36.92" width="20.76" height="21.54" fill="#7b961c"/>
        <path id="Path_2550" data-name="Path 2550" d="m48.98,59.3l.32-2.42s3.04-23.67-6.4-35.65c-.94-1.06-1.99-2-3.14-2.82-6.66,11.51-2.74,31.31,9.23,40.88Z" fill="#7b961c"/>
        <path id="Path_2551" data-name="Path 2551" d="m39.18,56.27c11.32,0,17.71,1.11,20.65,4.76,3.05,3.79,1.56,13.56,1.56,13.56l-6.04,20.18h-16.31v-15.49c-26.49,7.05-29.24-23.01-29.24-23.01h29.39Z" fill="#000f3c"/>
        <path id="Path_2552" data-name="Path 2552" d="m24.05,67.2c19.04-10.37,15.56-39.46,2.36-50.6-6.67,2.24-17.06,9.01-17.78,25.47-.48,10.85,1.2,16.99,1.31,17.45.95,3.83,2.47,7.5,4.53,10.87,3.68-.61,6.86-1.71,9.58-3.19" fill="#7b961c"/>
        <rect x="8.05" y="81.2" width="29.03" height="7.26" transform="translate(45.13 169.66) rotate(-180)" fill="#000f3c"/>
        <polygon points="61.87 69.27 61.78 88.33 43.78 90.54 43.15 73.82 61.87 69.27" fill="#000f3c"/>
        <polygon points="0 65.92 7.8 65.92 15.71 88.46 7.9 88.46 0 65.92" fill="#000f3c"/>
        <rect x="27.73" y="87.08" width="6.66" height="17.1" transform="translate(62.12 191.26) rotate(-180)" fill="#000f3c"/>
        <rect x="7.85" y="87.08" width="6.66" height="17.1" transform="translate(22.37 191.26) rotate(-180)" fill="#000f3c"/>
        <g id="Group_2513" data-name="Group 2513">
          <path id="Path_2553" data-name="Path 2553" d="m19.64,50.67c1.74-.72,11.37-2.29,10.99-.11-.07.38-.1.72.87.96s4.3,2.29,3.85,3.95c-.77,2.85-5.16,2.74-7.61,1.16s-6.3,0-6.3,0l-1.79-5.96Z" fill="#00559a"/>
        </g>
        <path id="Path_2554" data-name="Path 2554" d="m12.73,42.65c-2.97,2.69-4.03,7.5-1.55,10.62,2.48,3.12,12.8,3.98,12.8,3.98l2.5-11.72s-10.78-5.57-13.75-2.88Z" fill="#7b961c"/>
        <g id="table-left-man-hand">
          <g id="Group_2513-2" data-name="Group 2513">
            <path id="Path_2553-2" data-name="Path 2553" d="m51.92,33.66c.53-1.81,5.31-10.31,6.78-8.65.25.29.5.53,1.29-.08s4.47-1.92,5.49-.54c1.75,2.38-1.08,5.74-3.84,6.67-2.76.93-3.94,4.91-3.94,4.91l-5.77-2.32Z" fill="#00559a"/>
          </g>
          <path id="Path_2554-2" data-name="Path 2554" d="m41.52,32.26c-2.1,3.41.72,13.36,4.71,13.37s15.45-10.22,15.45-10.22l-8.3-10.53s-10.11,4.54-11.85,7.38Z" fill="#7b961c"/>
        </g>
      </g>
      <g>
        <g id="Group_2492-3" data-name="Group 2492">
          <path id="Path_2538-3" data-name="Path 2538" d="m109.34,104.18v-9.42s-12.11,0-12.11,0c-.29,3.25-4.6,3.95-6.52,4.71-1.92.76-2.4,4.71-2.4,4.71h21.03Z" fill="#000f3c"/>
        </g>
        <g id="Group_2492-4" data-name="Group 2492">
          <path id="Path_2538-4" data-name="Path 2538" d="m101.07,96.8v-9.42s-12.11,0-12.11,0c-.29,3.25-4.6,3.95-6.52,4.71-1.92.76-2.4,4.71-2.4,4.71h21.03Z" fill="#000f3c"/>
        </g>
        <path id="Path_2544-2" data-name="Path 2544" d="m139.56,56.27l-18.52-38.34-14.91,6.6-5.83,33.76,39.26-2.02Z" fill="#aeaeae"/>
        <path id="Path_2547-2" data-name="Path 2547" d="m138.14,61.27s2.83,1.92,1.86-19.19c-.98-21.11-16.4-26.51-21.68-26.51-5.28,0-9.41,3.36-11.42,5.65-2.01,2.29-4.35,37.23-4.35,37.23l35.59,2.81Z" fill="#00559a"/>
        <g id="Group_2504-2" data-name="Group 2504">
          <path id="Ellipse_180-3" data-name="Ellipse 180" d="m121.85,5.57c0,3.08-2.49,8.03-5.57,8.03-3.08,0-5.57-4.96-5.57-8.03S113.21,0,116.28,0s5.57,2.49,5.57,5.57Z" fill="#00559a"/>
          <path id="Ellipse_180-4" data-name="Ellipse 180" d="m121.85,5.57c0,3.08-2.49,8.03-5.57,8.03-3.08,0-5.57-4.96-5.57-8.03S113.21,0,116.28,0s5.57,2.49,5.57,5.57Z" fill="#00559a"/>
        </g>
        <rect id="Rectangle_369-2" data-name="Rectangle 369" x="102.55" y="36.92" width="20.76" height="21.54" fill="#ce611c"/>
        <path id="Path_2550-2" data-name="Path 2550" d="m100.81,59.3l-.32-2.42s-3.04-23.67,6.4-35.65c.94-1.06,1.99-2,3.14-2.82,6.66,11.51,2.74,31.31-9.23,40.88Z" fill="#ce611c"/>
        <path id="Path_2551-2" data-name="Path 2551" d="m110.61,56.27c-11.32,0-17.71,1.11-20.65,4.76-3.05,3.79-1.56,13.56-1.56,13.56l6.04,20.18h16.31s0-15.49,0-15.49c26.49,7.05,29.24-23.01,29.24-23.01h-29.39Z" fill="#000f3c"/>
        <path id="Path_2552-2" data-name="Path 2552" d="m125.74,67.2c-19.04-10.37-15.56-39.46-2.36-50.6,6.67,2.24,17.06,9.01,17.78,25.47.48,10.85-1.2,16.99-1.31,17.45-.95,3.83-2.47,7.5-4.53,10.87-3.68-.61-6.86-1.71-9.58-3.19" fill="#ce611c"/>
        <rect x="112.71" y="81.2" width="29.03" height="7.26" fill="#000f3c"/>
        <polygon points="87.93 69.27 88.01 88.33 106.01 90.54 106.65 73.82 87.93 69.27" fill="#000f3c"/>
        <polygon points="149.79 65.92 141.99 65.92 134.08 88.46 141.89 88.46 149.79 65.92" fill="#000f3c"/>
        <rect x="115.4" y="87.08" width="6.66" height="17.1" fill="#000f3c"/>
        <rect x="135.28" y="87.08" width="6.66" height="17.1" fill="#000f3c"/>
        <g id="Group_2513-3" data-name="Group 2513">
          <path id="Path_2553-3" data-name="Path 2553" d="m130.15,50.67c-1.74-.72-11.37-2.29-10.99-.11.07.38.1.72-.87.96s-4.3,2.29-3.85,3.95c.77,2.85,5.16,2.74,7.61,1.16,2.45-1.58,6.3,0,6.3,0l1.79-5.96Z" fill="#00559a"/>
        </g>
        <path id="Path_2554-3" data-name="Path 2554" d="m137.06,42.65c2.97,2.69,4.03,7.5,1.55,10.62-2.48,3.12-12.8,3.98-12.8,3.98l-2.5-11.72s10.78-5.57,13.75-2.88Z" fill="#ce611c"/>
        <g id="table-right-man-hand">
          <g id="Group_2513-4" data-name="Group 2513">
            <path id="Path_2553-4" data-name="Path 2553" d="m97.88,33.66c-.53-1.81-5.31-10.31-6.78-8.65-.25.29-.5.53-1.29-.08-.79-.61-4.47-1.92-5.49-.54-1.75,2.38,1.08,5.74,3.84,6.67,2.76.93,3.94,4.91,3.94,4.91l5.77-2.32Z" fill="#00559a"/>
          </g>
          <path id="Path_2554-4" data-name="Path 2554" d="m108.27,32.26c2.1,3.41-.72,13.36-4.71,13.37s-15.45-10.22-15.45-10.22l8.3-10.53s10.11,4.54,11.85,7.38Z" fill="#ce611c"/>
        </g>
      </g>
      <rect x="56.05" y="46.53" width="36.68" height="6.02" fill="#000f3c"/>
      <rect x="71.89" y="51.67" width="6.66" height="53.45" transform="translate(150.43 156.78) rotate(-180)" fill="#000f3c"/>
    </g>
  </g>
</svg>