<?xml version="1.0" encoding="UTF-8"?>
<svg xmlns="http://www.w3.org/2000/svg" viewBox="0 0 98.4 152.99">
  <g>
    <g id="green-cup">
      <polygon points="90.17 117.79 62.57 117.79 56.34 43.95 96.4 43.95 90.17 117.79" fill="#339381"/>
      <polygon points="96.4 43.95 56.34 43.95 57.24 54.51 95.51 54.51 96.4 43.95" fill="#40738f"/>
      <polygon points="73.36 46.76 73.36 24.37 88.39 24.37 88.39 28.13 77.64 28.13 77.64 46.76 73.36 46.76" fill="#339381"/>
      <rect width="98.4" height="152.99" fill="none"/>
    </g>
    <g id="orange-cup">
      <g>
        <g>
          <path d="m21.29,117.79h0c-7.99,0-14.84-5.71-16.28-13.57l-3.09-16.9c-.34-1.88,1.1-3.6,3-3.6h32.73c1.91,0,3.35,1.73,3,3.6l-3.09,16.9c-1.44,7.86-8.29,13.57-16.28,13.57Z" fill="#ff8000"/>
          <path d="m48.4,99.9c-1.63,3.63-7.54,8.89-11.17,7.25-3.63-1.63-3.61-9.54-1.97-13.17s5.9-5.25,9.53-3.61c3.63,1.63,5.25,5.9,3.61,9.53Z" fill="none" stroke="#ff5800" stroke-miterlimit="10" stroke-width="3.74"/>
        </g>
        <polygon points="35.08 117.79 7.49 117.79 1.26 83.72 41.31 83.72 35.08 117.79" fill="#ff5800"/>
      </g>
      <polygon points="5.22 105.38 7.49 117.79 35.08 117.79 37.35 105.38 5.22 105.38" fill="#c1263d"/>
      <line x1="12.34" y1="75.57" x2="12.34" y2="80.48" fill="none" stroke="#ff5800" stroke-miterlimit="10" stroke-width="1.87"/>
      <line x1="21.29" y1="75.57" x2="21.29" y2="80.48" fill="none" stroke="#ff5800" stroke-miterlimit="10" stroke-width="1.87"/>
      <line x1="30.24" y1="75.57" x2="30.24" y2="80.48" fill="none" stroke="#ff5800" stroke-miterlimit="10" stroke-width="1.87"/>
    </g>
  </g>
</svg>